<?xml version="1.0" encoding="UTF-8" standalone="no"?>
<!DOCTYPE svg PUBLIC "-//W3C//DTD SVG 1.1//EN"
 "http://www.w3.org/Graphics/SVG/1.1/DTD/svg11.dtd">
<!-- Generated by graphviz version 7.0.1 (20221109.1506)
 -->
<!-- Title: Harlinn::Common::Core::IO::FileHandler&lt; DerivedT &gt; Pages: 1 -->
<svg width="267pt" height="270pt"
 viewBox="0.00 0.00 266.50 270.00" xmlns="http://www.w3.org/2000/svg" xmlns:xlink="http://www.w3.org/1999/xlink">
<g id="graph0" class="graph" transform="scale(1 1) rotate(0) translate(4 266)">
<title>Harlinn::Common::Core::IO::FileHandler&lt; DerivedT &gt;</title>
<!-- Node1 -->
<g id="Node000001" class="node">
<title>Node1</title>
<g id="a_Node000001"><a xlink:title=" ">
<polygon fill="#999999" stroke="#666666" points="142,-30 0,-30 0,0 142,0 142,-30"/>
<text text-anchor="start" x="8" y="-18" font-family="Helvetica,sans-Serif" font-size="10.00">Harlinn::Common::Core</text>
<text text-anchor="middle" x="71" y="-7" font-family="Helvetica,sans-Serif" font-size="10.00">::IO::FileHandler&lt; DerivedT &gt;</text>
</a>
</g>
</g>
<!-- Node2 -->
<g id="Node000002" class="node">
<title>Node2</title>
<g id="a_Node000002"><a xlink:title=" ">
<polygon fill="white" stroke="#666666" points="96.5,-101.5 13.5,-101.5 13.5,-82.5 96.5,-82.5 96.5,-101.5"/>
<text text-anchor="middle" x="55" y="-89.5" font-family="Helvetica,sans-Serif" font-size="10.00">ContextHandler</text>
</a>
</g>
</g>
<!-- Node2&#45;&gt;Node1 -->
<g id="edge1_Node000001_Node000002" class="edge">
<title>Node2&#45;&gt;Node1</title>
<g id="a_edge1_Node000001_Node000002"><a xlink:title=" ">
<path fill="none" stroke="#63b8ff" d="M59.24,-71.15C61.98,-58.29 65.49,-41.84 67.96,-30.27"/>
<polygon fill="#63b8ff" stroke="#63b8ff" points="55.88,-70.11 57.21,-80.62 62.72,-71.57 55.88,-70.11"/>
</a>
</g>
</g>
<!-- Node3 -->
<g id="Node000003" class="node">
<title>Node3</title>
<g id="a_Node000003"><a xlink:href="class_harlinn_1_1_common_1_1_core_1_1_i_o_1_1_file_stream.html" target="_top" xlink:title=" ">
<polygon fill="white" stroke="#666666" points="233,-107 115,-107 115,-77 233,-77 233,-107"/>
<text text-anchor="start" x="123" y="-95" font-family="Helvetica,sans-Serif" font-size="10.00">Harlinn::Common::Core</text>
<text text-anchor="middle" x="174" y="-84" font-family="Helvetica,sans-Serif" font-size="10.00">::IO::FileStream</text>
</a>
</g>
</g>
<!-- Node3&#45;&gt;Node1 -->
<g id="edge2_Node000001_Node000003" class="edge">
<title>Node3&#45;&gt;Node1</title>
<g id="a_edge2_Node000001_Node000003"><a xlink:title=" ">
<path fill="none" stroke="#9a32cd" stroke-dasharray="5,2" d="M145.02,-69.9C127.71,-57.3 106.17,-41.61 90.8,-30.42"/>
<polygon fill="#9a32cd" stroke="#9a32cd" points="142.77,-72.59 152.92,-75.65 146.89,-66.93 142.77,-72.59"/>
</a>
</g>
<text text-anchor="middle" x="154" y="-51" font-family="Helvetica,sans-Serif" font-size="10.00" fill="grey"> fileStream_</text>
</g>
<!-- Node4 -->
<g id="Node000004" class="node">
<title>Node4</title>
<g id="a_Node000004"><a xlink:href="class_harlinn_1_1_common_1_1_core_1_1_i_o_1_1_system_stream.html" target="_top" xlink:title=" ">
<polygon fill="white" stroke="#666666" points="258.5,-174 89.5,-174 89.5,-144 258.5,-144 258.5,-174"/>
<text text-anchor="start" x="97.5" y="-162" font-family="Helvetica,sans-Serif" font-size="10.00">Harlinn::Common::Core</text>
<text text-anchor="middle" x="174" y="-151" font-family="Helvetica,sans-Serif" font-size="10.00">::IO::SystemStream&lt; FileStream &gt;</text>
</a>
</g>
</g>
<!-- Node4&#45;&gt;Node3 -->
<g id="edge3_Node000003_Node000004" class="edge">
<title>Node4&#45;&gt;Node3</title>
<g id="a_edge3_Node000003_Node000004"><a xlink:title=" ">
<path fill="none" stroke="#63b8ff" d="M174,-132.28C174,-123.81 174,-114.7 174,-107.39"/>
<polygon fill="#63b8ff" stroke="#63b8ff" points="170.5,-132.06 174,-142.06 177.5,-132.06 170.5,-132.06"/>
</a>
</g>
</g>
<!-- Node5 -->
<g id="Node000005" class="node">
<title>Node5</title>
<g id="a_Node000005"><a xlink:href="class_harlinn_1_1_common_1_1_core_1_1_i_o_1_1_system_stream.html" target="_top" xlink:title=" ">
<polygon fill="white" stroke="#666666" points="246,-262 102,-262 102,-221 246,-221 246,-262"/>
<text text-anchor="start" x="110" y="-250" font-family="Helvetica,sans-Serif" font-size="10.00">Harlinn::Common::Core</text>
<text text-anchor="start" x="110" y="-239" font-family="Helvetica,sans-Serif" font-size="10.00">::IO::SystemStream&lt; Derived</text>
<text text-anchor="middle" x="174" y="-228" font-family="Helvetica,sans-Serif" font-size="10.00">T, InvalidHandleV &gt;</text>
</a>
</g>
</g>
<!-- Node5&#45;&gt;Node4 -->
<g id="edge4_Node000004_Node000005" class="edge">
<title>Node5&#45;&gt;Node4</title>
<g id="a_edge4_Node000004_Node000005"><a xlink:title=" ">
<path fill="none" stroke="orange" stroke-dasharray="5,2" d="M174,-209.14C174,-197.14 174,-184.02 174,-174.37"/>
<polygon fill="orange" stroke="orange" points="170.5,-209.09 174,-219.09 177.5,-209.09 170.5,-209.09"/>
</a>
</g>
<text text-anchor="middle" x="208.5" y="-195" font-family="Helvetica,sans-Serif" font-size="10.00" fill="grey"> &lt; FileStream &gt;</text>
</g>
</g>
</svg>
