<?xml version="1.0" encoding="UTF-8" standalone="no"?>
<!DOCTYPE svg PUBLIC "-//W3C//DTD SVG 1.1//EN"
 "http://www.w3.org/Graphics/SVG/1.1/DTD/svg11.dtd">
<!-- Generated by graphviz version 7.0.1 (20221109.1506)
 -->
<!-- Title: Harlinn::Windows::Graphics::D3D12::Video::D3D12VideoDecoder Pages: 1 -->
<svg width="187pt" height="291pt"
 viewBox="0.00 0.00 187.00 291.00" xmlns="http://www.w3.org/2000/svg" xmlns:xlink="http://www.w3.org/1999/xlink">
<g id="graph0" class="graph" transform="scale(1 1) rotate(0) translate(4 287)">
<title>Harlinn::Windows::Graphics::D3D12::Video::D3D12VideoDecoder</title>
<!-- Node1 -->
<g id="Node000001" class="node">
<title>Node1</title>
<g id="a_Node000001"><a xlink:title=" ">
<polygon fill="#999999" stroke="#666666" points="179,-30 0,-30 0,0 179,0 179,-30"/>
<text text-anchor="start" x="8" y="-18" font-family="Helvetica,sans-Serif" font-size="10.00">Harlinn::Windows::Graphics</text>
<text text-anchor="middle" x="89.5" y="-7" font-family="Helvetica,sans-Serif" font-size="10.00">::D3D12::Video::D3D12VideoDecoder</text>
</a>
</g>
</g>
<!-- Node2 -->
<g id="Node000002" class="node">
<title>Node2</title>
<g id="a_Node000002"><a xlink:href="class_harlinn_1_1_windows_1_1_graphics_1_1_d3_d12_1_1_pageable.html" target="_top" xlink:title="Classes derived from Pageable encapsulates some amount of GPU&#45;accessible memory.">
<polygon fill="white" stroke="#666666" points="132.5,-85 46.5,-85 46.5,-66 132.5,-66 132.5,-85"/>
<text text-anchor="middle" x="89.5" y="-73" font-family="Helvetica,sans-Serif" font-size="10.00">D3D12Pageable</text>
</a>
</g>
</g>
<!-- Node2&#45;&gt;Node1 -->
<g id="edge1_Node000001_Node000002" class="edge">
<title>Node2&#45;&gt;Node1</title>
<g id="a_edge1_Node000001_Node000002"><a xlink:title=" ">
<path fill="none" stroke="#63b8ff" d="M89.5,-54.51C89.5,-46.49 89.5,-37.43 89.5,-30.11"/>
<polygon fill="#63b8ff" stroke="#63b8ff" points="86,-54.35 89.5,-64.35 93,-54.35 86,-54.35"/>
</a>
</g>
</g>
<!-- Node3 -->
<g id="Node000003" class="node">
<title>Node3</title>
<g id="a_Node000003"><a xlink:href="class_harlinn_1_1_windows_1_1_graphics_1_1_d3_d12_1_1_device_child.html" target="_top" xlink:title="Adds the ability to get the device used to create it.">
<polygon fill="white" stroke="#666666" points="158,-151 21,-151 21,-121 158,-121 158,-151"/>
<text text-anchor="start" x="29" y="-139" font-family="Helvetica,sans-Serif" font-size="10.00">Harlinn::Windows::Graphics</text>
<text text-anchor="middle" x="89.5" y="-128" font-family="Helvetica,sans-Serif" font-size="10.00">::D3D12::DeviceChild</text>
</a>
</g>
</g>
<!-- Node3&#45;&gt;Node2 -->
<g id="edge2_Node000002_Node000003" class="edge">
<title>Node3&#45;&gt;Node2</title>
<g id="a_edge2_Node000002_Node000003"><a xlink:title=" ">
<path fill="none" stroke="#63b8ff" d="M89.5,-109.3C89.5,-100.65 89.5,-91.58 89.5,-85.18"/>
<polygon fill="#63b8ff" stroke="#63b8ff" points="86,-109.03 89.5,-119.03 93,-109.03 86,-109.03"/>
</a>
</g>
</g>
<!-- Node4 -->
<g id="Node000004" class="node">
<title>Node4</title>
<g id="a_Node000004"><a xlink:href="class_harlinn_1_1_windows_1_1_graphics_1_1_d3_d12_1_1_object.html" target="_top" xlink:title="A base class from which Device and DeviceChild inherit from. It provides methods to associate private...">
<polygon fill="white" stroke="#666666" points="158,-217 21,-217 21,-187 158,-187 158,-217"/>
<text text-anchor="start" x="29" y="-205" font-family="Helvetica,sans-Serif" font-size="10.00">Harlinn::Windows::Graphics</text>
<text text-anchor="middle" x="89.5" y="-194" font-family="Helvetica,sans-Serif" font-size="10.00">::D3D12::Object</text>
</a>
</g>
</g>
<!-- Node4&#45;&gt;Node3 -->
<g id="edge3_Node000003_Node000004" class="edge">
<title>Node4&#45;&gt;Node3</title>
<g id="a_edge3_Node000003_Node000004"><a xlink:title=" ">
<path fill="none" stroke="#63b8ff" d="M89.5,-175.39C89.5,-167.13 89.5,-158.28 89.5,-151.16"/>
<polygon fill="#63b8ff" stroke="#63b8ff" points="86,-175.28 89.5,-185.28 93,-175.28 86,-175.28"/>
</a>
</g>
</g>
<!-- Node5 -->
<g id="Node000005" class="node">
<title>Node5</title>
<g id="a_Node000005"><a xlink:href="class_harlinn_1_1_common_1_1_core_1_1_unknown.html" target="_top" xlink:title=" ">
<polygon fill="white" stroke="#666666" points="148.5,-283 30.5,-283 30.5,-253 148.5,-253 148.5,-283"/>
<text text-anchor="start" x="38.5" y="-271" font-family="Helvetica,sans-Serif" font-size="10.00">Harlinn::Common::Core</text>
<text text-anchor="middle" x="89.5" y="-260" font-family="Helvetica,sans-Serif" font-size="10.00">::Unknown</text>
</a>
</g>
</g>
<!-- Node5&#45;&gt;Node4 -->
<g id="edge4_Node000004_Node000005" class="edge">
<title>Node5&#45;&gt;Node4</title>
<g id="a_edge4_Node000004_Node000005"><a xlink:title=" ">
<path fill="none" stroke="#63b8ff" d="M89.5,-241.39C89.5,-233.13 89.5,-224.28 89.5,-217.16"/>
<polygon fill="#63b8ff" stroke="#63b8ff" points="86,-241.28 89.5,-251.28 93,-241.28 86,-241.28"/>
</a>
</g>
</g>
</g>
</svg>
