<?xml version="1.0" encoding="UTF-8" standalone="no"?>
<!DOCTYPE svg PUBLIC "-//W3C//DTD SVG 1.1//EN"
 "http://www.w3.org/Graphics/SVG/1.1/DTD/svg11.dtd">
<!-- Generated by graphviz version 7.0.1 (20221109.1506)
 -->
<!-- Title: Harlinn::OCI::DescriptorBind&lt; OracleT, handleType, externalType &gt; Pages: 1 -->
<svg width="1491pt" height="112pt"
 viewBox="0.00 0.00 1491.00 111.50" xmlns="http://www.w3.org/2000/svg" xmlns:xlink="http://www.w3.org/1999/xlink">
<g id="graph0" class="graph" transform="scale(1 1) rotate(0) translate(4 107.5)">
<title>Harlinn::OCI::DescriptorBind&lt; OracleT, handleType, externalType &gt;</title>
<!-- Node1 -->
<g id="Node000001" class="node">
<title>Node1</title>
<g id="a_Node000001"><a xlink:title="DescriptorBind.">
<polygon fill="#999999" stroke="#666666" points="744,-70 607,-70 607,-29 744,-29 744,-70"/>
<text text-anchor="start" x="615" y="-58" font-family="Helvetica,sans-Serif" font-size="10.00">Harlinn::OCI::Descriptor</text>
<text text-anchor="start" x="615" y="-47" font-family="Helvetica,sans-Serif" font-size="10.00">Bind&lt; OracleT, handleType,</text>
<text text-anchor="middle" x="675.5" y="-36" font-family="Helvetica,sans-Serif" font-size="10.00"> externalType &gt;</text>
</a>
</g>
</g>
<!-- Node6 -->
<g id="Node000006" class="node">
<title>Node6</title>
<g id="a_Node000006"><a xlink:href="class_harlinn_1_1_o_c_i_1_1_descriptor_bind.xhtml" target="_top" xlink:title=" ">
<polygon fill="white" stroke="#666666" points="1079,-100 909,-100 909,-59 1079,-59 1079,-100"/>
<text text-anchor="start" x="917" y="-88" font-family="Helvetica,sans-Serif" font-size="10.00">Harlinn::OCI::Descriptor</text>
<text text-anchor="start" x="917" y="-77" font-family="Helvetica,sans-Serif" font-size="10.00">Bind&lt; OCILobLocator, OCI</text>
<text text-anchor="middle" x="994" y="-66" font-family="Helvetica,sans-Serif" font-size="10.00">::HandleType::LOB, externalType &gt;</text>
</a>
</g>
</g>
<!-- Node1&#45;&gt;Node6 -->
<g id="edge5_Node000001_Node000006" class="edge">
<title>Node1&#45;&gt;Node6</title>
<g id="a_edge5_Node000001_Node000006"><a xlink:title=" ">
<path fill="none" stroke="orange" stroke-dasharray="5,2" d="M755.65,-57C802.23,-61.42 861.1,-67 908.57,-71.5"/>
<polygon fill="orange" stroke="orange" points="756.19,-53.54 745.9,-56.08 755.53,-60.51 756.19,-53.54"/>
</a>
</g>
<text text-anchor="start" x="764.5" y="-95.5" font-family="Helvetica,sans-Serif" font-size="10.00" fill="grey"> &lt; OCILobLocator, OCI</text>
<text text-anchor="start" x="764.5" y="-84.5" font-family="Helvetica,sans-Serif" font-size="10.00" fill="grey">::HandleType::LOB, external</text>
<text text-anchor="middle" x="826.5" y="-73.5" font-family="Helvetica,sans-Serif" font-size="10.00" fill="grey">Type &gt;</text>
</g>
<!-- Node9 -->
<g id="Node000009" class="node">
<title>Node9</title>
<g id="a_Node000009"><a xlink:href="class_harlinn_1_1_o_c_i_1_1_descriptor_bind.xhtml" target="_top" xlink:title=" ">
<polygon fill="white" stroke="#666666" points="1074.5,-41 913.5,-41 913.5,0 1074.5,0 1074.5,-41"/>
<text text-anchor="start" x="921.5" y="-29" font-family="Helvetica,sans-Serif" font-size="10.00">Harlinn::OCI::Descriptor</text>
<text text-anchor="start" x="921.5" y="-18" font-family="Helvetica,sans-Serif" font-size="10.00">Bind&lt; OCIDateTime, handleType,</text>
<text text-anchor="middle" x="994" y="-7" font-family="Helvetica,sans-Serif" font-size="10.00"> externalType &gt;</text>
</a>
</g>
</g>
<!-- Node1&#45;&gt;Node9 -->
<g id="edge8_Node000001_Node000009" class="edge">
<title>Node1&#45;&gt;Node9</title>
<g id="a_edge8_Node000001_Node000009"><a xlink:title=" ">
<path fill="none" stroke="orange" stroke-dasharray="5,2" d="M755.77,-32.36C757.87,-32.05 759.95,-31.76 762,-31.5 811.98,-25.09 868.47,-22.32 913.08,-21.16"/>
<polygon fill="orange" stroke="orange" points="755.28,-28.89 745.96,-33.93 756.39,-35.8 755.28,-28.89"/>
</a>
</g>
<text text-anchor="start" x="762" y="-45.5" font-family="Helvetica,sans-Serif" font-size="10.00" fill="grey"> &lt; OCIDateTime, handleType,</text>
<text text-anchor="middle" x="826.5" y="-34.5" font-family="Helvetica,sans-Serif" font-size="10.00" fill="grey"> externalType &gt;</text>
</g>
<!-- Node2 -->
<g id="Node000002" class="node">
<title>Node2</title>
<g id="a_Node000002"><a xlink:href="class_harlinn_1_1_o_c_i_1_1_descriptor_base_bind.xhtml" target="_top" xlink:title="DescriptorBaseBind.">
<polygon fill="white" stroke="#666666" points="570,-64.5 451,-64.5 451,-34.5 570,-34.5 570,-64.5"/>
<text text-anchor="start" x="459" y="-52.5" font-family="Helvetica,sans-Serif" font-size="10.00">Harlinn::OCI::Descriptor</text>
<text text-anchor="middle" x="510.5" y="-41.5" font-family="Helvetica,sans-Serif" font-size="10.00">BaseBind</text>
</a>
</g>
</g>
<!-- Node2&#45;&gt;Node1 -->
<g id="edge1_Node000001_Node000002" class="edge">
<title>Node2&#45;&gt;Node1</title>
<g id="a_edge1_Node000001_Node000002"><a xlink:title=" ">
<path fill="none" stroke="#63b8ff" d="M581.83,-49.5C590.04,-49.5 598.41,-49.5 606.6,-49.5"/>
<polygon fill="#63b8ff" stroke="#63b8ff" points="581.86,-46 571.86,-49.5 581.86,-53 581.86,-46"/>
</a>
</g>
</g>
<!-- Node3 -->
<g id="Node000003" class="node">
<title>Node3</title>
<g id="a_Node000003"><a xlink:href="class_harlinn_1_1_o_c_i_1_1_bind.xhtml" target="_top" xlink:title="Bind, base class for binding a single value.">
<polygon fill="white" stroke="#666666" points="414,-59 319,-59 319,-40 414,-40 414,-59"/>
<text text-anchor="middle" x="366.5" y="-47" font-family="Helvetica,sans-Serif" font-size="10.00">Harlinn::OCI::Bind</text>
</a>
</g>
</g>
<!-- Node3&#45;&gt;Node2 -->
<g id="edge2_Node000002_Node000003" class="edge">
<title>Node3&#45;&gt;Node2</title>
<g id="a_edge2_Node000002_Node000003"><a xlink:title=" ">
<path fill="none" stroke="#63b8ff" d="M425.74,-49.5C433.91,-49.5 442.32,-49.5 450.5,-49.5"/>
<polygon fill="#63b8ff" stroke="#63b8ff" points="425.9,-46 415.9,-49.5 425.9,-53 425.9,-46"/>
</a>
</g>
</g>
<!-- Node4 -->
<g id="Node000004" class="node">
<title>Node4</title>
<g id="a_Node000004"><a xlink:href="class_harlinn_1_1_o_c_i_1_1_bind_base.xhtml" target="_top" xlink:title="BindBase, base class for binds.">
<polygon fill="white" stroke="#666666" points="282,-59 165,-59 165,-40 282,-40 282,-59"/>
<text text-anchor="middle" x="223.5" y="-47" font-family="Helvetica,sans-Serif" font-size="10.00">Harlinn::OCI::BindBase</text>
</a>
</g>
</g>
<!-- Node4&#45;&gt;Node3 -->
<g id="edge3_Node000003_Node000004" class="edge">
<title>Node4&#45;&gt;Node3</title>
<g id="a_edge3_Node000003_Node000004"><a xlink:title=" ">
<path fill="none" stroke="#63b8ff" d="M293.48,-49.5C302.07,-49.5 310.68,-49.5 318.82,-49.5"/>
<polygon fill="#63b8ff" stroke="#63b8ff" points="293.77,-46 283.77,-49.5 293.77,-53 293.77,-46"/>
</a>
</g>
</g>
<!-- Node5 -->
<g id="Node000005" class="node">
<title>Node5</title>
<g id="a_Node000005"><a xlink:href="class_harlinn_1_1_o_c_i_1_1_handle_base.xhtml" target="_top" xlink:title="Base class for OCI handle wrappers.">
<polygon fill="white" stroke="#666666" points="128,-59 0,-59 0,-40 128,-40 128,-59"/>
<text text-anchor="middle" x="64" y="-47" font-family="Helvetica,sans-Serif" font-size="10.00">Harlinn::OCI::HandleBase</text>
</a>
</g>
</g>
<!-- Node5&#45;&gt;Node4 -->
<g id="edge4_Node000004_Node000005" class="edge">
<title>Node5&#45;&gt;Node4</title>
<g id="a_edge4_Node000004_Node000005"><a xlink:title=" ">
<path fill="none" stroke="#63b8ff" d="M139.58,-49.5C148.01,-49.5 156.51,-49.5 164.69,-49.5"/>
<polygon fill="#63b8ff" stroke="#63b8ff" points="139.67,-46 129.67,-49.5 139.67,-53 139.67,-46"/>
</a>
</g>
</g>
<!-- Node7 -->
<g id="Node000007" class="node">
<title>Node7</title>
<g id="a_Node000007"><a xlink:href="class_harlinn_1_1_o_c_i_1_1_lob_base_bind.xhtml" target="_top" xlink:title="LobBaseBind.">
<polygon fill="white" stroke="#666666" points="1265,-94.5 1132,-94.5 1132,-64.5 1265,-64.5 1265,-94.5"/>
<text text-anchor="start" x="1140" y="-82.5" font-family="Helvetica,sans-Serif" font-size="10.00">Harlinn::OCI::LobBaseBind</text>
<text text-anchor="middle" x="1198.5" y="-71.5" font-family="Helvetica,sans-Serif" font-size="10.00">&lt; externalType &gt;</text>
</a>
</g>
</g>
<!-- Node6&#45;&gt;Node7 -->
<g id="edge6_Node000006_Node000007" class="edge">
<title>Node6&#45;&gt;Node7</title>
<g id="a_edge6_Node000006_Node000007"><a xlink:title=" ">
<path fill="none" stroke="#63b8ff" d="M1090.54,-79.5C1104.48,-79.5 1118.56,-79.5 1131.73,-79.5"/>
<polygon fill="#63b8ff" stroke="#63b8ff" points="1090.93,-76 1080.93,-79.5 1090.93,-83 1090.93,-76"/>
</a>
</g>
</g>
<!-- Node8 -->
<g id="Node000008" class="node">
<title>Node8</title>
<g id="a_Node000008"><a xlink:href="class_harlinn_1_1_o_c_i_1_1_c_lob_base_bind.xhtml" target="_top" xlink:title="CLobBaseBind.">
<polygon fill="white" stroke="#666666" points="1483,-100 1318,-100 1318,-59 1483,-59 1483,-100"/>
<text text-anchor="start" x="1326" y="-88" font-family="Helvetica,sans-Serif" font-size="10.00">Harlinn::OCI::CLobBaseBind</text>
<text text-anchor="start" x="1326" y="-77" font-family="Helvetica,sans-Serif" font-size="10.00">&lt; externalType, characterSetForm</text>
<text text-anchor="middle" x="1400.5" y="-66" font-family="Helvetica,sans-Serif" font-size="10.00">Default &gt;</text>
</a>
</g>
</g>
<!-- Node7&#45;&gt;Node8 -->
<g id="edge7_Node000007_Node000008" class="edge">
<title>Node7&#45;&gt;Node8</title>
<g id="a_edge7_Node000007_Node000008"><a xlink:title=" ">
<path fill="none" stroke="#63b8ff" d="M1276.43,-79.5C1289.92,-79.5 1304.01,-79.5 1317.62,-79.5"/>
<polygon fill="#63b8ff" stroke="#63b8ff" points="1276.78,-76 1266.78,-79.5 1276.78,-83 1276.78,-76"/>
</a>
</g>
</g>
<!-- Node10 -->
<g id="Node000010" class="node">
<title>Node10</title>
<g id="a_Node000010"><a xlink:href="class_harlinn_1_1_o_c_i_1_1_timestamp_base_bind.xhtml" target="_top" xlink:title="TimeStampBaseBind.">
<polygon fill="white" stroke="#666666" points="1281,-35.5 1116,-35.5 1116,-5.5 1281,-5.5 1281,-35.5"/>
<text text-anchor="start" x="1124" y="-23.5" font-family="Helvetica,sans-Serif" font-size="10.00">Harlinn::OCI::TimestampBase</text>
<text text-anchor="middle" x="1198.5" y="-12.5" font-family="Helvetica,sans-Serif" font-size="10.00">Bind&lt; handleType, externalType &gt;</text>
</a>
</g>
</g>
<!-- Node9&#45;&gt;Node10 -->
<g id="edge9_Node000009_Node000010" class="edge">
<title>Node9&#45;&gt;Node10</title>
<g id="a_edge9_Node000009_Node000010"><a xlink:title=" ">
<path fill="none" stroke="#63b8ff" d="M1086.14,-20.5C1095.93,-20.5 1105.84,-20.5 1115.5,-20.5"/>
<polygon fill="#63b8ff" stroke="#63b8ff" points="1086.26,-17 1076.26,-20.5 1086.26,-24 1086.26,-17"/>
</a>
</g>
</g>
</g>
</svg>
