<?xml version="1.0" encoding="UTF-8" standalone="no"?>
<!DOCTYPE svg PUBLIC "-//W3C//DTD SVG 1.1//EN"
 "http://www.w3.org/Graphics/SVG/1.1/DTD/svg11.dtd">
<!-- Generated by graphviz version 7.0.1 (20221109.1506)
 -->
<!-- Title: Harlinn::Common::Core::ZeroMq::ZMQNotificationClientEndPoint Pages: 1 -->
<svg width="859pt" height="124pt"
 viewBox="0.00 0.00 859.00 123.50" xmlns="http://www.w3.org/2000/svg" xmlns:xlink="http://www.w3.org/1999/xlink">
<g id="graph0" class="graph" transform="scale(1 1) rotate(0) translate(4 119.5)">
<title>Harlinn::Common::Core::ZeroMq::ZMQNotificationClientEndPoint</title>
<!-- Node1 -->
<g id="Node000001" class="node">
<title>Node1</title>
<g id="a_Node000001"><a xlink:title=" ">
<polygon fill="#999999" stroke="#666666" points="851,-88.5 696,-88.5 696,-47.5 851,-47.5 851,-88.5"/>
<text text-anchor="start" x="704" y="-76.5" font-family="Helvetica,sans-Serif" font-size="10.00">Harlinn::Common::Core</text>
<text text-anchor="start" x="704" y="-65.5" font-family="Helvetica,sans-Serif" font-size="10.00">::ZeroMq::ZMQNotificationClient</text>
<text text-anchor="middle" x="773.5" y="-54.5" font-family="Helvetica,sans-Serif" font-size="10.00">EndPoint</text>
</a>
</g>
</g>
<!-- Node2 -->
<g id="Node000002" class="node">
<title>Node2</title>
<g id="a_Node000002"><a xlink:title=" ">
<polygon fill="white" stroke="#666666" points="613,-115.5 473,-115.5 473,-74.5 613,-74.5 613,-115.5"/>
<text text-anchor="start" x="481" y="-103.5" font-family="Helvetica,sans-Serif" font-size="10.00">std::enable_shared</text>
<text text-anchor="start" x="481" y="-92.5" font-family="Helvetica,sans-Serif" font-size="10.00">_from_this&lt; ZMQNotification</text>
<text text-anchor="middle" x="543" y="-81.5" font-family="Helvetica,sans-Serif" font-size="10.00">ClientEndPoint &gt;</text>
</a>
</g>
</g>
<!-- Node2&#45;&gt;Node1 -->
<g id="edge1_Node000001_Node000002" class="edge">
<title>Node2&#45;&gt;Node1</title>
<g id="a_edge1_Node000001_Node000002"><a xlink:title=" ">
<path fill="none" stroke="#63b8ff" d="M624.66,-85.47C647.77,-82.74 672.9,-79.77 695.77,-77.07"/>
<polygon fill="#63b8ff" stroke="#63b8ff" points="624.51,-81.96 614.99,-86.61 625.33,-88.91 624.51,-81.96"/>
</a>
</g>
</g>
<!-- Node3 -->
<g id="Node000003" class="node">
<title>Node3</title>
<g id="a_Node000003"><a xlink:href="class_harlinn_1_1_common_1_1_core_1_1_basic_string.html" target="_top" xlink:title=" ">
<polygon fill="white" stroke="#666666" points="602,-56 484,-56 484,-26 602,-26 602,-56"/>
<text text-anchor="start" x="492" y="-44" font-family="Helvetica,sans-Serif" font-size="10.00">Harlinn::Common::Core</text>
<text text-anchor="middle" x="543" y="-33" font-family="Helvetica,sans-Serif" font-size="10.00">::BasicString&lt; char &gt;</text>
</a>
</g>
</g>
<!-- Node3&#45;&gt;Node1 -->
<g id="edge2_Node000001_Node000003" class="edge">
<title>Node3&#45;&gt;Node1</title>
<g id="a_edge2_Node000001_Node000003"><a xlink:title=" ">
<path fill="none" stroke="#9a32cd" stroke-dasharray="5,2" d="M613.53,-49.22C639.53,-52.29 669.19,-55.79 695.8,-58.94"/>
<polygon fill="#9a32cd" stroke="#9a32cd" points="614.1,-45.76 603.75,-48.06 613.27,-52.71 614.1,-45.76"/>
</a>
</g>
<text text-anchor="middle" x="654.5" y="-60" font-family="Helvetica,sans-Serif" font-size="10.00" fill="grey"> endPoint_</text>
</g>
<!-- Node4 -->
<g id="Node000004" class="node">
<title>Node4</title>
<g id="a_Node000004"><a xlink:href="struct_harlinn_1_1_common_1_1_core_1_1_internal_1_1_data.html" target="_top" xlink:title=" ">
<polygon fill="white" stroke="#666666" points="215,-56 97,-56 97,-26 215,-26 215,-56"/>
<text text-anchor="start" x="105" y="-44" font-family="Helvetica,sans-Serif" font-size="10.00">Harlinn::Common::Core</text>
<text text-anchor="middle" x="156" y="-33" font-family="Helvetica,sans-Serif" font-size="10.00">::Internal::Data&lt; T &gt;</text>
</a>
</g>
</g>
<!-- Node4&#45;&gt;Node3 -->
<g id="edge3_Node000003_Node000004" class="edge">
<title>Node4&#45;&gt;Node3</title>
<g id="a_edge3_Node000003_Node000004"><a xlink:title=" ">
<path fill="none" stroke="#9a32cd" stroke-dasharray="5,2" d="M226.8,-44.82C228.89,-44.88 230.96,-44.95 233,-45 331.63,-47.59 356.36,-47.27 455,-45 464.22,-44.79 473.99,-44.45 483.52,-44.06"/>
<polygon fill="#9a32cd" stroke="#9a32cd" points="227.13,-41.33 217,-44.45 226.87,-48.32 227.13,-41.33"/>
</a>
</g>
<text text-anchor="middle" x="338" y="-50" font-family="Helvetica,sans-Serif" font-size="10.00" fill="grey"> data_</text>
</g>
<!-- Node6 -->
<g id="Node000006" class="node">
<title>Node6</title>
<g id="a_Node000006"><a xlink:href="class_harlinn_1_1_common_1_1_core_1_1_basic_string.html" target="_top" xlink:title="This is a reference counted string class.">
<polygon fill="white" stroke="#666666" points="397,-30 279,-30 279,0 397,0 397,-30"/>
<text text-anchor="start" x="287" y="-18" font-family="Helvetica,sans-Serif" font-size="10.00">Harlinn::Common::Core</text>
<text text-anchor="middle" x="338" y="-7" font-family="Helvetica,sans-Serif" font-size="10.00">::BasicString&lt; T &gt;</text>
</a>
</g>
</g>
<!-- Node4&#45;&gt;Node6 -->
<g id="edge6_Node000006_Node000004" class="edge">
<title>Node4&#45;&gt;Node6</title>
<g id="a_edge6_Node000006_Node000004"><a xlink:title=" ">
<path fill="none" stroke="#9a32cd" stroke-dasharray="5,2" d="M226.55,-30.95C243.73,-28.47 261.95,-25.84 278.54,-23.44"/>
<polygon fill="#9a32cd" stroke="#9a32cd" points="226.34,-27.45 216.94,-32.34 227.34,-34.38 226.34,-27.45"/>
</a>
</g>
<text text-anchor="middle" x="247" y="-33" font-family="Helvetica,sans-Serif" font-size="10.00" fill="grey"> data_</text>
</g>
<!-- Node5 -->
<g id="Node000005" class="node">
<title>Node5</title>
<g id="a_Node000005"><a xlink:title=" ">
<polygon fill="white" stroke="#666666" points="29,-50.5 0,-50.5 0,-31.5 29,-31.5 29,-50.5"/>
<text text-anchor="middle" x="14.5" y="-38.5" font-family="Helvetica,sans-Serif" font-size="10.00">T</text>
</a>
</g>
</g>
<!-- Node5&#45;&gt;Node4 -->
<g id="edge4_Node000004_Node000005" class="edge">
<title>Node5&#45;&gt;Node4</title>
<g id="a_edge4_Node000004_Node000005"><a xlink:title=" ">
<path fill="none" stroke="#9a32cd" stroke-dasharray="5,2" d="M40.72,-41C56.38,-41 77.19,-41 96.76,-41"/>
<polygon fill="#9a32cd" stroke="#9a32cd" points="40.9,-37.5 30.9,-41 40.9,-44.5 40.9,-37.5"/>
</a>
</g>
<text text-anchor="middle" x="63" y="-44" font-family="Helvetica,sans-Serif" font-size="10.00" fill="grey"> buffer_</text>
</g>
<!-- Node6&#45;&gt;Node3 -->
<g id="edge5_Node000003_Node000006" class="edge">
<title>Node6&#45;&gt;Node3</title>
<g id="a_edge5_Node000003_Node000006"><a xlink:title=" ">
<path fill="none" stroke="orange" stroke-dasharray="5,2" d="M408.8,-23.94C433.18,-27.06 460.27,-30.53 483.62,-33.52"/>
<polygon fill="orange" stroke="orange" points="409.31,-20.48 398.94,-22.68 408.42,-27.42 409.31,-20.48"/>
</a>
</g>
<text text-anchor="middle" x="435" y="-33" font-family="Helvetica,sans-Serif" font-size="10.00" fill="grey"> &lt; char &gt;</text>
</g>
</g>
</svg>
