<?xml version="1.0" encoding="UTF-8" standalone="no"?>
<!DOCTYPE svg PUBLIC "-//W3C//DTD SVG 1.1//EN"
 "http://www.w3.org/Graphics/SVG/1.1/DTD/svg11.dtd">
<!-- Generated by graphviz version 7.0.1 (20221109.1506)
 -->
<!-- Title: Harlinn::Common::Core::IO::MemoryStream Pages: 1 -->
<svg width="159pt" height="347pt"
 viewBox="0.00 0.00 159.00 347.00" xmlns="http://www.w3.org/2000/svg" xmlns:xlink="http://www.w3.org/1999/xlink">
<g id="graph0" class="graph" transform="scale(1 1) rotate(0) translate(4 343)">
<title>Harlinn::Common::Core::IO::MemoryStream</title>
<!-- Node1 -->
<g id="Node000001" class="node">
<title>Node1</title>
<g id="a_Node000001"><a xlink:title="Creates a stream stored in memory.">
<polygon fill="#999999" stroke="#666666" points="134.5,-30 16.5,-30 16.5,0 134.5,0 134.5,-30"/>
<text text-anchor="start" x="24.5" y="-18" font-family="Helvetica,sans-Serif" font-size="10.00">Harlinn::Common::Core</text>
<text text-anchor="middle" x="75.5" y="-7" font-family="Helvetica,sans-Serif" font-size="10.00">::IO::MemoryStream</text>
</a>
</g>
</g>
<!-- Node2 -->
<g id="Node000002" class="node">
<title>Node2</title>
<g id="a_Node000002"><a xlink:href="class_harlinn_1_1_common_1_1_core_1_1_i_o_1_1_memory_stream_1_1_data.xhtml" target="_top" xlink:title=" ">
<polygon fill="white" stroke="#666666" points="141,-107 10,-107 10,-77 141,-77 141,-107"/>
<text text-anchor="start" x="18" y="-95" font-family="Helvetica,sans-Serif" font-size="10.00">Harlinn::Common::Core</text>
<text text-anchor="middle" x="75.5" y="-84" font-family="Helvetica,sans-Serif" font-size="10.00">::IO::MemoryStream::Data</text>
</a>
</g>
</g>
<!-- Node2&#45;&gt;Node1 -->
<g id="edge1_Node000001_Node000002" class="edge">
<title>Node2&#45;&gt;Node1</title>
<g id="a_edge1_Node000001_Node000002"><a xlink:title=" ">
<path fill="none" stroke="#9a32cd" stroke-dasharray="5,2" d="M75.5,-65.23C75.5,-53.58 75.5,-40.26 75.5,-30.42"/>
<polygon fill="#9a32cd" stroke="#9a32cd" points="72,-65.03 75.5,-75.03 79,-65.03 72,-65.03"/>
</a>
</g>
<text text-anchor="middle" x="89.5" y="-51" font-family="Helvetica,sans-Serif" font-size="10.00" fill="grey"> data_</text>
</g>
<!-- Node3 -->
<g id="Node000003" class="node">
<title>Node3</title>
<g id="a_Node000003"><a xlink:href="class_harlinn_1_1_common_1_1_core_1_1_reference_counted_thread_safe.xhtml" target="_top" xlink:title=" ">
<polygon fill="white" stroke="#666666" points="151,-174 0,-174 0,-144 151,-144 151,-174"/>
<text text-anchor="start" x="8" y="-162" font-family="Helvetica,sans-Serif" font-size="10.00">Harlinn::Common::Core</text>
<text text-anchor="middle" x="75.5" y="-151" font-family="Helvetica,sans-Serif" font-size="10.00">::ReferenceCountedThreadSafe</text>
</a>
</g>
</g>
<!-- Node3&#45;&gt;Node2 -->
<g id="edge2_Node000002_Node000003" class="edge">
<title>Node3&#45;&gt;Node2</title>
<g id="a_edge2_Node000002_Node000003"><a xlink:title=" ">
<path fill="none" stroke="#63b8ff" d="M75.5,-132.28C75.5,-123.81 75.5,-114.7 75.5,-107.39"/>
<polygon fill="#63b8ff" stroke="#63b8ff" points="72,-132.06 75.5,-142.06 79,-132.06 72,-132.06"/>
</a>
</g>
</g>
<!-- Node4 -->
<g id="Node000004" class="node">
<title>Node4</title>
<g id="a_Node000004"><a xlink:href="class_harlinn_1_1_common_1_1_core_1_1_atomic_reference_count.xhtml" target="_top" xlink:title=" ">
<polygon fill="white" stroke="#666666" points="136.5,-262 14.5,-262 14.5,-221 136.5,-221 136.5,-262"/>
<text text-anchor="start" x="22.5" y="-250" font-family="Helvetica,sans-Serif" font-size="10.00">Harlinn::Common::Core</text>
<text text-anchor="start" x="22.5" y="-239" font-family="Helvetica,sans-Serif" font-size="10.00">::AtomicReferenceCount</text>
<text text-anchor="middle" x="75.5" y="-228" font-family="Helvetica,sans-Serif" font-size="10.00">&lt; UInt32 &gt;</text>
</a>
</g>
</g>
<!-- Node4&#45;&gt;Node3 -->
<g id="edge3_Node000003_Node000004" class="edge">
<title>Node4&#45;&gt;Node3</title>
<g id="a_edge3_Node000003_Node000004"><a xlink:title=" ">
<path fill="none" stroke="#9a32cd" stroke-dasharray="5,2" d="M75.5,-209.14C75.5,-197.14 75.5,-184.02 75.5,-174.37"/>
<polygon fill="#9a32cd" stroke="#9a32cd" points="72,-209.09 75.5,-219.09 79,-209.09 72,-209.09"/>
</a>
</g>
<text text-anchor="middle" x="112.5" y="-195" font-family="Helvetica,sans-Serif" font-size="10.00" fill="grey"> referenceCount_</text>
</g>
<!-- Node5 -->
<g id="Node000005" class="node">
<title>Node5</title>
<g id="a_Node000005"><a xlink:href="class_harlinn_1_1_common_1_1_core_1_1_atomic_reference_count.xhtml" target="_top" xlink:title=" ">
<polygon fill="white" stroke="#666666" points="148.5,-339 2.5,-339 2.5,-309 148.5,-309 148.5,-339"/>
<text text-anchor="start" x="10.5" y="-327" font-family="Helvetica,sans-Serif" font-size="10.00">Harlinn::Common::Core</text>
<text text-anchor="middle" x="75.5" y="-316" font-family="Helvetica,sans-Serif" font-size="10.00">::AtomicReferenceCount&lt; T &gt;</text>
</a>
</g>
</g>
<!-- Node5&#45;&gt;Node4 -->
<g id="edge4_Node000004_Node000005" class="edge">
<title>Node5&#45;&gt;Node4</title>
<g id="a_edge4_Node000004_Node000005"><a xlink:title=" ">
<path fill="none" stroke="orange" stroke-dasharray="5,2" d="M75.5,-297.2C75.5,-285.86 75.5,-272.75 75.5,-262.21"/>
<polygon fill="orange" stroke="orange" points="72,-297.09 75.5,-307.09 79,-297.09 72,-297.09"/>
</a>
</g>
<text text-anchor="middle" x="100" y="-283" font-family="Helvetica,sans-Serif" font-size="10.00" fill="grey"> &lt; UInt32 &gt;</text>
</g>
</g>
</svg>
