<?xml version="1.0" encoding="UTF-8" standalone="no"?>
<!DOCTYPE svg PUBLIC "-//W3C//DTD SVG 1.1//EN"
 "http://www.w3.org/Graphics/SVG/1.1/DTD/svg11.dtd">
<!-- Generated by graphviz version 7.0.1 (20221109.1506)
 -->
<!-- Title: Harlinn::Windows::Media::MFMediaEngineClassFactory Pages: 1 -->
<svg width="171pt" height="170pt"
 viewBox="0.00 0.00 171.00 170.00" xmlns="http://www.w3.org/2000/svg" xmlns:xlink="http://www.w3.org/1999/xlink">
<g id="graph0" class="graph" transform="scale(1 1) rotate(0) translate(4 166)">
<title>Harlinn::Windows::Media::MFMediaEngineClassFactory</title>
<!-- Node1 -->
<g id="Node000001" class="node">
<title>Node1</title>
<g id="a_Node000001"><a xlink:title=" ">
<polygon fill="#999999" stroke="#666666" points="157,-96 6,-96 6,-66 157,-66 157,-96"/>
<text text-anchor="start" x="14" y="-84" font-family="Helvetica,sans-Serif" font-size="10.00">Harlinn::Windows::Media</text>
<text text-anchor="middle" x="81.5" y="-73" font-family="Helvetica,sans-Serif" font-size="10.00">::MFMediaEngineClassFactory</text>
</a>
</g>
</g>
<!-- Node3 -->
<g id="Node000003" class="node">
<title>Node3</title>
<g id="a_Node000003"><a xlink:href="class_harlinn_1_1_windows_1_1_media_1_1_m_f_media_engine_class_factory_ex.html" target="_top" xlink:title=" ">
<polygon fill="white" stroke="#666666" points="163,-30 0,-30 0,0 163,0 163,-30"/>
<text text-anchor="start" x="8" y="-18" font-family="Helvetica,sans-Serif" font-size="10.00">Harlinn::Windows::Media</text>
<text text-anchor="middle" x="81.5" y="-7" font-family="Helvetica,sans-Serif" font-size="10.00">::MFMediaEngineClassFactoryEx</text>
</a>
</g>
</g>
<!-- Node1&#45;&gt;Node3 -->
<g id="edge2_Node000001_Node000003" class="edge">
<title>Node1&#45;&gt;Node3</title>
<g id="a_edge2_Node000001_Node000003"><a xlink:title=" ">
<path fill="none" stroke="#63b8ff" d="M81.5,-54.39C81.5,-46.13 81.5,-37.28 81.5,-30.16"/>
<polygon fill="#63b8ff" stroke="#63b8ff" points="78,-54.28 81.5,-64.28 85,-54.28 78,-54.28"/>
</a>
</g>
</g>
<!-- Node2 -->
<g id="Node000002" class="node">
<title>Node2</title>
<g id="a_Node000002"><a xlink:href="class_harlinn_1_1_common_1_1_core_1_1_unknown.html" target="_top" xlink:title="Base class for COM interface wrappers.">
<polygon fill="white" stroke="#666666" points="140.5,-162 22.5,-162 22.5,-132 140.5,-132 140.5,-162"/>
<text text-anchor="start" x="30.5" y="-150" font-family="Helvetica,sans-Serif" font-size="10.00">Harlinn::Common::Core</text>
<text text-anchor="middle" x="81.5" y="-139" font-family="Helvetica,sans-Serif" font-size="10.00">::Unknown</text>
</a>
</g>
</g>
<!-- Node2&#45;&gt;Node1 -->
<g id="edge1_Node000001_Node000002" class="edge">
<title>Node2&#45;&gt;Node1</title>
<g id="a_edge1_Node000001_Node000002"><a xlink:title=" ">
<path fill="none" stroke="#63b8ff" d="M81.5,-120.39C81.5,-112.13 81.5,-103.28 81.5,-96.16"/>
<polygon fill="#63b8ff" stroke="#63b8ff" points="78,-120.28 81.5,-130.28 85,-120.28 78,-120.28"/>
</a>
</g>
</g>
</g>
</svg>
