<?xml version="1.0" encoding="UTF-8" standalone="no"?>
<!DOCTYPE svg PUBLIC "-//W3C//DTD SVG 1.1//EN"
 "http://www.w3.org/Graphics/SVG/1.1/DTD/svg11.dtd">
<!-- Generated by graphviz version 7.0.1 (20221109.1506)
 -->
<!-- Title: Harlinn::Common::Core::IO::Sockets::Server::TcpSimpleListener&lt; ProtocolT &gt; Pages: 1 -->
<svg width="1808pt" height="506pt"
 viewBox="0.00 0.00 1808.00 505.54" xmlns="http://www.w3.org/2000/svg" xmlns:xlink="http://www.w3.org/1999/xlink">
<g id="graph0" class="graph" transform="scale(1 1) rotate(0) translate(4 501.54)">
<title>Harlinn::Common::Core::IO::Sockets::Server::TcpSimpleListener&lt; ProtocolT &gt;</title>
<!-- Node1 -->
<g id="Node000001" class="node">
<title>Node1</title>
<g id="a_Node000001"><a xlink:title=" ">
<polygon fill="#999999" stroke="#666666" points="1800,-204 1638,-204 1638,-163 1800,-163 1800,-204"/>
<text text-anchor="start" x="1646" y="-192" font-family="Helvetica,sans-Serif" font-size="10.00">Harlinn::Common::Core</text>
<text text-anchor="start" x="1646" y="-181" font-family="Helvetica,sans-Serif" font-size="10.00">::IO::Sockets::Server</text>
<text text-anchor="middle" x="1719" y="-170" font-family="Helvetica,sans-Serif" font-size="10.00">::TcpSimpleListener&lt; ProtocolT &gt;</text>
</a>
</g>
</g>
<!-- Node2 -->
<g id="Node000002" class="node">
<title>Node2</title>
<g id="a_Node000002"><a xlink:href="class_harlinn_1_1_common_1_1_core_1_1_i_o_1_1_sockets_1_1_server_1_1_tcp_listener.html" target="_top" xlink:title=" ">
<polygon fill="white" stroke="#666666" points="1601,-215 1371,-215 1371,-152 1601,-152 1601,-215"/>
<text text-anchor="start" x="1379" y="-203" font-family="Helvetica,sans-Serif" font-size="10.00">Harlinn::Common::Core</text>
<text text-anchor="start" x="1379" y="-192" font-family="Helvetica,sans-Serif" font-size="10.00">::IO::Sockets::Server</text>
<text text-anchor="start" x="1379" y="-181" font-family="Helvetica,sans-Serif" font-size="10.00">::TcpListener&lt; TcpSimpleListener</text>
<text text-anchor="start" x="1379" y="-170" font-family="Helvetica,sans-Serif" font-size="10.00">&lt; ProtocolT &gt;, TcpSimpleConnectionHandler</text>
<text text-anchor="middle" x="1486" y="-159" font-family="Helvetica,sans-Serif" font-size="10.00">&lt; TcpSimpleListener&lt; ProtocolT &gt;, ProtocolT &gt; &gt;</text>
</a>
</g>
</g>
<!-- Node2&#45;&gt;Node1 -->
<g id="edge1_Node000001_Node000002" class="edge">
<title>Node2&#45;&gt;Node1</title>
<g id="a_edge1_Node000001_Node000002"><a xlink:title=" ">
<path fill="none" stroke="#63b8ff" d="M1612.96,-183.5C1621.35,-183.5 1629.67,-183.5 1637.74,-183.5"/>
<polygon fill="#63b8ff" stroke="#63b8ff" points="1613,-180 1603,-183.5 1613,-187 1613,-180"/>
</a>
</g>
</g>
<!-- Node3 -->
<g id="Node000003" class="node">
<title>Node3</title>
<g id="a_Node000003"><a xlink:href="class_harlinn_1_1_common_1_1_core_1_1_i_o_1_1_sockets_1_1_server_1_1_tcp_listener_base.html" target="_top" xlink:title=" ">
<polygon fill="white" stroke="#666666" points="1175,-395.5 1025,-395.5 1025,-343.5 1175,-343.5 1175,-395.5"/>
<text text-anchor="start" x="1033" y="-383.5" font-family="Helvetica,sans-Serif" font-size="10.00">Harlinn::Common::Core</text>
<text text-anchor="start" x="1033" y="-372.5" font-family="Helvetica,sans-Serif" font-size="10.00">::IO::Sockets::Server</text>
<text text-anchor="start" x="1033" y="-361.5" font-family="Helvetica,sans-Serif" font-size="10.00">::TcpListenerBase&lt; TcpSimple</text>
<text text-anchor="middle" x="1100" y="-350.5" font-family="Helvetica,sans-Serif" font-size="10.00">Listener&lt; ProtocolT &gt; &gt;</text>
</a>
</g>
</g>
<!-- Node3&#45;&gt;Node2 -->
<g id="edge2_Node000002_Node000003" class="edge">
<title>Node3&#45;&gt;Node2</title>
<g id="a_edge2_Node000002_Node000003"><a xlink:title=" ">
<path fill="none" stroke="#63b8ff" d="M1186.6,-361.47C1237.39,-353.94 1301.67,-339.42 1353,-311.5 1397.03,-287.56 1436.7,-244.84 1460.8,-215.38"/>
<polygon fill="#63b8ff" stroke="#63b8ff" points="1186.23,-357.99 1176.82,-362.85 1187.21,-364.92 1186.23,-357.99"/>
</a>
</g>
</g>
<!-- Node4 -->
<g id="Node000004" class="node">
<title>Node4</title>
<g id="a_Node000004"><a xlink:href="class_harlinn_1_1_common_1_1_core_1_1_i_o_1_1_sockets_1_1_socket_handler.html" target="_top" xlink:title=" ">
<polygon fill="white" stroke="#666666" points="886,-478 712,-478 712,-437 886,-437 886,-478"/>
<text text-anchor="start" x="720" y="-466" font-family="Helvetica,sans-Serif" font-size="10.00">Harlinn::Common::Core</text>
<text text-anchor="start" x="720" y="-455" font-family="Helvetica,sans-Serif" font-size="10.00">::IO::Sockets::SocketHandler</text>
<text text-anchor="middle" x="799" y="-444" font-family="Helvetica,sans-Serif" font-size="10.00">&lt; TcpSimpleListener&lt; ProtocolT &gt; &gt;</text>
</a>
</g>
</g>
<!-- Node4&#45;&gt;Node3 -->
<g id="edge3_Node000003_Node000004" class="edge">
<title>Node4&#45;&gt;Node3</title>
<g id="a_edge3_Node000003_Node000004"><a xlink:title=" ">
<path fill="none" stroke="#63b8ff" d="M897.46,-440.97C932.47,-433.82 971.94,-424.34 1007,-412.5 1020.53,-407.93 1034.71,-401.95 1047.77,-395.9"/>
<polygon fill="#63b8ff" stroke="#63b8ff" points="896.87,-437.52 887.75,-442.92 898.24,-444.39 896.87,-437.52"/>
</a>
</g>
</g>
<!-- Node5 -->
<g id="Node000005" class="node">
<title>Node5</title>
<g id="a_Node000005"><a xlink:title=" ">
<polygon fill="white" stroke="#666666" points="269,-465 186,-465 186,-446 269,-446 269,-465"/>
<text text-anchor="middle" x="227.5" y="-453" font-family="Helvetica,sans-Serif" font-size="10.00">ContextHandler</text>
</a>
</g>
</g>
<!-- Node5&#45;&gt;Node4 -->
<g id="edge4_Node000004_Node000005" class="edge">
<title>Node5&#45;&gt;Node4</title>
<g id="a_edge4_Node000004_Node000005"><a xlink:title=" ">
<path fill="none" stroke="#63b8ff" d="M271.02,-468.58C294.38,-475.09 324.01,-482.24 351,-485.5 497.94,-503.23 537.01,-499.8 684,-482.5 693.06,-481.43 702.45,-479.97 711.78,-478.28"/>
<polygon fill="#63b8ff" stroke="#63b8ff" points="272.13,-465.26 261.55,-465.87 270.2,-471.99 272.13,-465.26"/>
</a>
</g>
</g>
<!-- Node6 -->
<g id="Node000006" class="node">
<title>Node6</title>
<g id="a_Node000006"><a xlink:href="class_harlinn_1_1_common_1_1_core_1_1_i_o_1_1_sockets_1_1_socket_handler.html" target="_top" xlink:title="Classes derived from this template are used to implement asynchronous operations on sockets.">
<polygon fill="white" stroke="#666666" points="508,-476 364,-476 364,-435 508,-435 508,-476"/>
<text text-anchor="start" x="372" y="-464" font-family="Helvetica,sans-Serif" font-size="10.00">Harlinn::Common::Core</text>
<text text-anchor="start" x="372" y="-453" font-family="Helvetica,sans-Serif" font-size="10.00">::IO::Sockets::SocketHandler</text>
<text text-anchor="middle" x="436" y="-442" font-family="Helvetica,sans-Serif" font-size="10.00">&lt; DerivedT &gt;</text>
</a>
</g>
</g>
<!-- Node5&#45;&gt;Node6 -->
<g id="edge6_Node000006_Node000005" class="edge">
<title>Node5&#45;&gt;Node6</title>
<g id="a_edge6_Node000006_Node000005"><a xlink:title=" ">
<path fill="none" stroke="#63b8ff" d="M280.47,-455.5C305.7,-455.5 336.39,-455.5 363.76,-455.5"/>
<polygon fill="#63b8ff" stroke="#63b8ff" points="280.81,-452 270.81,-455.5 280.81,-459 280.81,-452"/>
</a>
</g>
</g>
<!-- Node11 -->
<g id="Node000011" class="node">
<title>Node11</title>
<g id="a_Node000011"><a xlink:href="class_harlinn_1_1_common_1_1_core_1_1_i_o_1_1_sockets_1_1_socket_handler.html" target="_top" xlink:title="Classes derived from this template are used to implement asynchronous operations on sockets.">
<polygon fill="white" stroke="#666666" points="508,-417 364,-417 364,-376 508,-376 508,-417"/>
<text text-anchor="start" x="372" y="-405" font-family="Helvetica,sans-Serif" font-size="10.00">Harlinn::Common::Core</text>
<text text-anchor="start" x="372" y="-394" font-family="Helvetica,sans-Serif" font-size="10.00">::IO::Sockets::SocketHandler</text>
<text text-anchor="middle" x="436" y="-383" font-family="Helvetica,sans-Serif" font-size="10.00">&lt; DerivedT &gt;</text>
</a>
</g>
</g>
<!-- Node5&#45;&gt;Node11 -->
<g id="edge12_Node000011_Node000005" class="edge">
<title>Node5&#45;&gt;Node11</title>
<g id="a_edge12_Node000011_Node000005"><a xlink:title=" ">
<path fill="none" stroke="#63b8ff" d="M273.88,-442.54C300.24,-435 334.05,-425.34 363.89,-416.82"/>
<polygon fill="#63b8ff" stroke="#63b8ff" points="273.17,-439.1 264.52,-445.21 275.1,-445.83 273.17,-439.1"/>
</a>
</g>
</g>
<!-- Node6&#45;&gt;Node4 -->
<g id="edge5_Node000004_Node000006" class="edge">
<title>Node6&#45;&gt;Node4</title>
<g id="a_edge5_Node000004_Node000006"><a xlink:title=" ">
<path fill="none" stroke="orange" stroke-dasharray="5,2" d="M519.54,-455.96C576.94,-456.28 653.31,-456.7 711.55,-457.02"/>
<polygon fill="orange" stroke="orange" points="519.85,-452.46 509.84,-455.9 519.82,-459.46 519.85,-452.46"/>
</a>
</g>
<text text-anchor="start" x="565" y="-470.5" font-family="Helvetica,sans-Serif" font-size="10.00" fill="grey"> &lt; TcpSimpleListener</text>
<text text-anchor="middle" x="611.5" y="-459.5" font-family="Helvetica,sans-Serif" font-size="10.00" fill="grey">&lt; ProtocolT &gt; &gt;</text>
</g>
<!-- Node7 -->
<g id="Node000007" class="node">
<title>Node7</title>
<g id="a_Node000007"><a xlink:href="class_harlinn_1_1_common_1_1_core_1_1_i_o_1_1_sockets_1_1_tcp_socket.html" target="_top" xlink:title="Encapsulates a TCP socket descriptor.">
<polygon fill="white" stroke="#666666" points="499.5,-355.5 372.5,-355.5 372.5,-325.5 499.5,-325.5 499.5,-355.5"/>
<text text-anchor="start" x="380.5" y="-343.5" font-family="Helvetica,sans-Serif" font-size="10.00">Harlinn::Common::Core</text>
<text text-anchor="middle" x="436" y="-332.5" font-family="Helvetica,sans-Serif" font-size="10.00">::IO::Sockets::TcpSocket</text>
</a>
</g>
</g>
<!-- Node7&#45;&gt;Node3 -->
<g id="edge7_Node000003_Node000007" class="edge">
<title>Node7&#45;&gt;Node3</title>
<g id="a_edge7_Node000003_Node000007"><a xlink:title=" ">
<path fill="none" stroke="#9a32cd" stroke-dasharray="5,2" d="M511.01,-343.06C601.75,-346.28 760.21,-352.16 896,-358.5 938.66,-360.49 986.34,-363.06 1024.77,-365.21"/>
<polygon fill="#9a32cd" stroke="#9a32cd" points="511.38,-339.57 501.26,-342.72 511.13,-346.57 511.38,-339.57"/>
</a>
</g>
<text text-anchor="middle" x="799" y="-361.5" font-family="Helvetica,sans-Serif" font-size="10.00" fill="grey"> socket_</text>
</g>
<!-- Node10 -->
<g id="Node000010" class="node">
<title>Node10</title>
<g id="a_Node000010"><a xlink:href="class_harlinn_1_1_common_1_1_core_1_1_i_o_1_1_sockets_1_1_server_1_1_tcp_listener_base.html" target="_top" xlink:title=" ">
<polygon fill="white" stroke="#666666" points="874,-419 724,-419 724,-378 874,-378 874,-419"/>
<text text-anchor="start" x="732" y="-407" font-family="Helvetica,sans-Serif" font-size="10.00">Harlinn::Common::Core</text>
<text text-anchor="start" x="732" y="-396" font-family="Helvetica,sans-Serif" font-size="10.00">::IO::Sockets::Server</text>
<text text-anchor="middle" x="799" y="-385" font-family="Helvetica,sans-Serif" font-size="10.00">::TcpListenerBase&lt; DerivedT &gt;</text>
</a>
</g>
</g>
<!-- Node7&#45;&gt;Node10 -->
<g id="edge13_Node000010_Node000007" class="edge">
<title>Node7&#45;&gt;Node10</title>
<g id="a_edge13_Node000010_Node000007"><a xlink:title=" ">
<path fill="none" stroke="#9a32cd" stroke-dasharray="5,2" d="M511.16,-352.42C573.29,-362.4 661.52,-376.57 723.69,-386.56"/>
<polygon fill="#9a32cd" stroke="#9a32cd" points="511.8,-348.97 501.38,-350.84 510.69,-355.88 511.8,-348.97"/>
</a>
</g>
<text text-anchor="middle" x="611.5" y="-382.5" font-family="Helvetica,sans-Serif" font-size="10.00" fill="grey"> socket_</text>
</g>
<!-- Node21 -->
<g id="Node000021" class="node">
<title>Node21</title>
<g id="a_Node000021"><a xlink:href="class_harlinn_1_1_common_1_1_core_1_1_i_o_1_1_sockets_1_1_server_1_1_tcp_listener_base.html" target="_top" xlink:title=" ">
<polygon fill="white" stroke="#666666" points="874,-260 724,-260 724,-219 874,-219 874,-260"/>
<text text-anchor="start" x="732" y="-248" font-family="Helvetica,sans-Serif" font-size="10.00">Harlinn::Common::Core</text>
<text text-anchor="start" x="732" y="-237" font-family="Helvetica,sans-Serif" font-size="10.00">::IO::Sockets::Server</text>
<text text-anchor="middle" x="799" y="-226" font-family="Helvetica,sans-Serif" font-size="10.00">::TcpListenerBase&lt; DerivedT &gt;</text>
</a>
</g>
</g>
<!-- Node7&#45;&gt;Node21 -->
<g id="edge26_Node000021_Node000007" class="edge">
<title>Node7&#45;&gt;Node21</title>
<g id="a_edge26_Node000021_Node000007"><a xlink:title=" ">
<path fill="none" stroke="#9a32cd" stroke-dasharray="5,2" d="M503.1,-322.01C565.45,-304.56 658.77,-278.45 723.68,-260.29"/>
<polygon fill="#9a32cd" stroke="#9a32cd" points="502.37,-318.58 493.68,-324.64 504.25,-325.32 502.37,-318.58"/>
</a>
</g>
<text text-anchor="middle" x="611.5" y="-314.5" font-family="Helvetica,sans-Serif" font-size="10.00" fill="grey"> socket_</text>
</g>
<!-- Node8 -->
<g id="Node000008" class="node">
<title>Node8</title>
<g id="a_Node000008"><a xlink:href="class_harlinn_1_1_common_1_1_core_1_1_i_o_1_1_sockets_1_1_socket_t.html" target="_top" xlink:title="Specializes a Socket for a particular SocketType and a particular ProtocolType.">
<polygon fill="white" stroke="#666666" points="300,-355.5 155,-355.5 155,-325.5 300,-325.5 300,-355.5"/>
<text text-anchor="start" x="163" y="-343.5" font-family="Helvetica,sans-Serif" font-size="10.00">StreamSocket&lt; ProtocolType</text>
<text text-anchor="middle" x="227.5" y="-332.5" font-family="Helvetica,sans-Serif" font-size="10.00">::Tcp &gt;</text>
</a>
</g>
</g>
<!-- Node8&#45;&gt;Node7 -->
<g id="edge8_Node000007_Node000008" class="edge">
<title>Node8&#45;&gt;Node7</title>
<g id="a_edge8_Node000007_Node000008"><a xlink:title=" ">
<path fill="none" stroke="#63b8ff" d="M311.83,-340.5C332,-340.5 353.23,-340.5 372.26,-340.5"/>
<polygon fill="#63b8ff" stroke="#63b8ff" points="311.95,-337 301.95,-340.5 311.95,-344 311.95,-337"/>
</a>
</g>
</g>
<!-- Node9 -->
<g id="Node000009" class="node">
<title>Node9</title>
<g id="a_Node000009"><a xlink:href="class_harlinn_1_1_common_1_1_core_1_1_i_o_1_1_sockets_1_1_socket.html" target="_top" xlink:title="Represents a socket descriptor that is bound to a specific transport&#45;service provider.">
<polygon fill="white" stroke="#666666" points="118,-355.5 0,-355.5 0,-325.5 118,-325.5 118,-355.5"/>
<text text-anchor="start" x="8" y="-343.5" font-family="Helvetica,sans-Serif" font-size="10.00">Harlinn::Common::Core</text>
<text text-anchor="middle" x="59" y="-332.5" font-family="Helvetica,sans-Serif" font-size="10.00">::IO::Sockets::Socket</text>
</a>
</g>
</g>
<!-- Node9&#45;&gt;Node8 -->
<g id="edge9_Node000008_Node000009" class="edge">
<title>Node9&#45;&gt;Node8</title>
<g id="a_edge9_Node000008_Node000009"><a xlink:title=" ">
<path fill="none" stroke="#63b8ff" d="M129.69,-340.5C137.9,-340.5 146.29,-340.5 154.53,-340.5"/>
<polygon fill="#63b8ff" stroke="#63b8ff" points="129.75,-337 119.75,-340.5 129.75,-344 129.75,-337"/>
</a>
</g>
</g>
<!-- Node10&#45;&gt;Node3 -->
<g id="edge10_Node000003_Node000010" class="edge">
<title>Node10&#45;&gt;Node3</title>
<g id="a_edge10_Node000003_Node000010"><a xlink:title=" ">
<path fill="none" stroke="orange" stroke-dasharray="5,2" d="M885.54,-390.2C929.43,-385.95 982.38,-380.81 1024.57,-376.72"/>
<polygon fill="orange" stroke="orange" points="885.42,-386.7 875.8,-391.15 886.09,-393.67 885.42,-386.7"/>
</a>
</g>
<text text-anchor="start" x="914" y="-400.5" font-family="Helvetica,sans-Serif" font-size="10.00" fill="grey"> &lt; TcpSimpleListener</text>
<text text-anchor="middle" x="960.5" y="-389.5" font-family="Helvetica,sans-Serif" font-size="10.00" fill="grey">&lt; ProtocolT &gt; &gt;</text>
</g>
<!-- Node11&#45;&gt;Node10 -->
<g id="edge11_Node000010_Node000011" class="edge">
<title>Node11&#45;&gt;Node10</title>
<g id="a_edge11_Node000010_Node000011"><a xlink:title=" ">
<path fill="none" stroke="#63b8ff" d="M519.54,-408.8C526.11,-409.48 532.66,-410.07 539,-410.5 603.29,-414.89 619.64,-413.88 684,-410.5 696.82,-409.83 710.41,-408.73 723.58,-407.47"/>
<polygon fill="#63b8ff" stroke="#63b8ff" points="520.31,-405.37 509.99,-407.74 519.54,-412.32 520.31,-405.37"/>
</a>
</g>
</g>
<!-- Node11&#45;&gt;Node21 -->
<g id="edge25_Node000021_Node000011" class="edge">
<title>Node11&#45;&gt;Node21</title>
<g id="a_edge25_Node000021_Node000011"><a xlink:title=" ">
<path fill="none" stroke="#63b8ff" d="M519.32,-381.87C581.61,-369.25 660.35,-349.45 684,-326.5 703.06,-308 683.19,-288.26 702,-269.5 708.18,-263.34 715.61,-258.43 723.57,-254.54"/>
<polygon fill="#63b8ff" stroke="#63b8ff" points="518.9,-378.38 509.77,-383.77 520.26,-385.25 518.9,-378.38"/>
</a>
</g>
</g>
<!-- Node12 -->
<g id="Node000012" class="node">
<title>Node12</title>
<g id="a_Node000012"><a xlink:href="class_harlinn_1_1_common_1_1_core_1_1_critical_section.html" target="_top" xlink:title="A critical section object provides synchronization similar to that provided by a mutex object,...">
<polygon fill="white" stroke="#666666" points="858,-200.5 740,-200.5 740,-170.5 858,-170.5 858,-200.5"/>
<text text-anchor="start" x="748" y="-188.5" font-family="Helvetica,sans-Serif" font-size="10.00">Harlinn::Common::Core</text>
<text text-anchor="middle" x="799" y="-177.5" font-family="Helvetica,sans-Serif" font-size="10.00">::CriticalSection</text>
</a>
</g>
</g>
<!-- Node12&#45;&gt;Node2 -->
<g id="edge14_Node000002_Node000012" class="edge">
<title>Node12&#45;&gt;Node2</title>
<g id="a_edge14_Node000002_Node000012"><a xlink:title=" ">
<path fill="none" stroke="#9a32cd" stroke-dasharray="5,2" d="M869.54,-191.07C974.42,-198.61 1179.29,-209.99 1353,-199.5 1358.76,-199.15 1364.65,-198.72 1370.6,-198.22"/>
<polygon fill="#9a32cd" stroke="#9a32cd" points="869.92,-187.59 859.69,-190.35 869.41,-194.57 869.92,-187.59"/>
</a>
</g>
<text text-anchor="middle" x="1100" y="-207.5" font-family="Helvetica,sans-Serif" font-size="10.00" fill="grey"> criticalSection_</text>
</g>
<!-- Node20 -->
<g id="Node000020" class="node">
<title>Node20</title>
<g id="a_Node000020"><a xlink:href="class_harlinn_1_1_common_1_1_core_1_1_i_o_1_1_sockets_1_1_server_1_1_tcp_listener.html" target="_top" xlink:title=" ">
<polygon fill="white" stroke="#666666" points="1161,-177.5 1039,-177.5 1039,-125.5 1161,-125.5 1161,-177.5"/>
<text text-anchor="start" x="1047" y="-165.5" font-family="Helvetica,sans-Serif" font-size="10.00">Harlinn::Common::Core</text>
<text text-anchor="start" x="1047" y="-154.5" font-family="Helvetica,sans-Serif" font-size="10.00">::IO::Sockets::Server</text>
<text text-anchor="start" x="1047" y="-143.5" font-family="Helvetica,sans-Serif" font-size="10.00">::TcpListener&lt; DerivedT,</text>
<text text-anchor="middle" x="1100" y="-132.5" font-family="Helvetica,sans-Serif" font-size="10.00"> ConnectionHandlerT &gt;</text>
</a>
</g>
</g>
<!-- Node12&#45;&gt;Node20 -->
<g id="edge27_Node000020_Node000012" class="edge">
<title>Node12&#45;&gt;Node20</title>
<g id="a_edge27_Node000020_Node000012"><a xlink:title=" ">
<path fill="none" stroke="#9a32cd" stroke-dasharray="5,2" d="M869.67,-177.58C920.91,-171.75 989.86,-163.91 1038.74,-158.35"/>
<polygon fill="#9a32cd" stroke="#9a32cd" points="869.4,-174.09 859.86,-178.69 870.2,-181.04 869.4,-174.09"/>
</a>
</g>
<text text-anchor="middle" x="960.5" y="-175.5" font-family="Helvetica,sans-Serif" font-size="10.00" fill="grey"> criticalSection_</text>
</g>
<!-- Node13 -->
<g id="Node000013" class="node">
<title>Node13</title>
<g id="a_Node000013"><a xlink:title=" ">
<polygon fill="white" stroke="#666666" points="849.5,-141 748.5,-141 748.5,-122 849.5,-122 849.5,-141"/>
<text text-anchor="middle" x="799" y="-129" font-family="Helvetica,sans-Serif" font-size="10.00">std::atomic&lt; bool &gt;</text>
</a>
</g>
</g>
<!-- Node13&#45;&gt;Node2 -->
<g id="edge15_Node000002_Node000013" class="edge">
<title>Node13&#45;&gt;Node2</title>
<g id="a_edge15_Node000002_Node000013"><a xlink:title=" ">
<path fill="none" stroke="#9a32cd" stroke-dasharray="5,2" d="M838.03,-118.01C859.93,-110.95 888.16,-103.06 914,-99.5 954.95,-93.86 965.67,-98.76 1007,-99.5 1081.7,-100.83 1100.9,-95.94 1175,-105.5 1255.42,-115.88 1274.45,-125.39 1353,-145.5 1360.51,-147.42 1368.24,-149.47 1376.01,-151.58"/>
<polygon fill="#9a32cd" stroke="#9a32cd" points="837.03,-114.65 828.63,-121.12 839.23,-121.3 837.03,-114.65"/>
</a>
</g>
<text text-anchor="middle" x="1100" y="-108.5" font-family="Helvetica,sans-Serif" font-size="10.00" fill="grey"> stopping_</text>
</g>
<!-- Node13&#45;&gt;Node20 -->
<g id="edge28_Node000020_Node000013" class="edge">
<title>Node13&#45;&gt;Node20</title>
<g id="a_edge28_Node000020_Node000013"><a xlink:title=" ">
<path fill="none" stroke="#9a32cd" stroke-dasharray="5,2" d="M861.07,-135.59C912.92,-139.05 986.92,-144 1038.59,-147.46"/>
<polygon fill="#9a32cd" stroke="#9a32cd" points="861.43,-132.1 851.22,-134.93 860.96,-139.09 861.43,-132.1"/>
</a>
</g>
<text text-anchor="middle" x="960.5" y="-148.5" font-family="Helvetica,sans-Serif" font-size="10.00" fill="grey"> stopping_</text>
</g>
<!-- Node14 -->
<g id="Node000014" class="node">
<title>Node14</title>
<g id="a_Node000014"><a xlink:title=" ">
<polygon fill="white" stroke="#666666" points="480.5,-141 391.5,-141 391.5,-122 480.5,-122 480.5,-141"/>
<text text-anchor="middle" x="436" y="-129" font-family="Helvetica,sans-Serif" font-size="10.00">std::atomic&lt; T &gt;</text>
</a>
</g>
</g>
<!-- Node14&#45;&gt;Node13 -->
<g id="edge16_Node000013_Node000014" class="edge">
<title>Node14&#45;&gt;Node13</title>
<g id="a_edge16_Node000013_Node000014"><a xlink:title=" ">
<path fill="none" stroke="orange" stroke-dasharray="5,2" d="M492.07,-131.5C561.78,-131.5 680.86,-131.5 748.05,-131.5"/>
<polygon fill="orange" stroke="orange" points="492.42,-128 482.42,-131.5 492.42,-135 492.42,-128"/>
</a>
</g>
<text text-anchor="middle" x="611.5" y="-134.5" font-family="Helvetica,sans-Serif" font-size="10.00" fill="grey"> &lt; bool &gt;</text>
</g>
<!-- Node15 -->
<g id="Node000015" class="node">
<title>Node15</title>
<g id="a_Node000015"><a xlink:title=" ">
<polygon fill="white" stroke="#666666" points="242,-72 213,-72 213,-53 242,-53 242,-72"/>
<text text-anchor="middle" x="227.5" y="-60" font-family="Helvetica,sans-Serif" font-size="10.00">T</text>
</a>
</g>
</g>
<!-- Node15&#45;&gt;Node14 -->
<g id="edge17_Node000014_Node000015" class="edge">
<title>Node15&#45;&gt;Node14</title>
<g id="a_edge17_Node000014_Node000015"><a xlink:title=" ">
<path fill="none" stroke="#9a32cd" stroke-dasharray="5,2" d="M252.6,-73.73C277,-84.75 316.01,-101.48 351,-112.5 363.84,-116.54 378.03,-120.09 391.04,-122.99"/>
<polygon fill="#9a32cd" stroke="#9a32cd" points="254.11,-70.57 243.56,-69.59 251.2,-76.93 254.11,-70.57"/>
</a>
</g>
<text text-anchor="middle" x="325.5" y="-109.5" font-family="Helvetica,sans-Serif" font-size="10.00" fill="grey"> ptr</text>
</g>
<!-- Node19 -->
<g id="Node000019" class="node">
<title>Node19</title>
<g id="a_Node000019"><a xlink:title=" ">
<polygon fill="white" stroke="#666666" points="488,-19 384,-19 384,0 488,0 488,-19"/>
<text text-anchor="middle" x="436" y="-7" font-family="Helvetica,sans-Serif" font-size="10.00">std::unique_ptr&lt; T &gt;</text>
</a>
</g>
</g>
<!-- Node15&#45;&gt;Node19 -->
<g id="edge22_Node000019_Node000015" class="edge">
<title>Node15&#45;&gt;Node19</title>
<g id="a_edge22_Node000019_Node000015"><a xlink:title=" ">
<path fill="none" stroke="#9a32cd" stroke-dasharray="5,2" d="M253.17,-56.17C288.66,-47.06 354.48,-30.17 396.44,-19.4"/>
<polygon fill="#9a32cd" stroke="#9a32cd" points="252.65,-52.69 243.84,-58.56 254.39,-59.47 252.65,-52.69"/>
</a>
</g>
<text text-anchor="middle" x="325.5" y="-42.5" font-family="Helvetica,sans-Serif" font-size="10.00" fill="grey"> ptr</text>
</g>
<!-- Node16 -->
<g id="Node000016" class="node">
<title>Node16</title>
<g id="a_Node000016"><a xlink:href="class_harlinn_1_1_common_1_1_core_1_1_i_o_1_1_sockets_1_1_address.html" target="_top" xlink:title="Provides a generic mechanism for specifying a transport address.">
<polygon fill="white" stroke="#666666" points="858,-308.5 740,-308.5 740,-278.5 858,-278.5 858,-308.5"/>
<text text-anchor="start" x="748" y="-296.5" font-family="Helvetica,sans-Serif" font-size="10.00">Harlinn::Common::Core</text>
<text text-anchor="middle" x="799" y="-285.5" font-family="Helvetica,sans-Serif" font-size="10.00">::IO::Sockets::Address</text>
</a>
</g>
</g>
<!-- Node16&#45;&gt;Node2 -->
<g id="edge18_Node000002_Node000016" class="edge">
<title>Node16&#45;&gt;Node2</title>
<g id="a_edge18_Node000002_Node000016"><a xlink:title=" ">
<path fill="none" stroke="#9a32cd" stroke-dasharray="5,2" d="M869.45,-289.36C909.71,-286.57 961.32,-282.32 1007,-276.5 1161.82,-256.76 1200.3,-248.78 1353,-216.5 1358.78,-215.28 1364.69,-213.98 1370.64,-212.63"/>
<polygon fill="#9a32cd" stroke="#9a32cd" points="869.39,-285.85 859.65,-290.02 869.87,-292.84 869.39,-285.85"/>
</a>
</g>
<text text-anchor="middle" x="1100" y="-277.5" font-family="Helvetica,sans-Serif" font-size="10.00" fill="grey"> address_</text>
</g>
<!-- Node16&#45;&gt;Node20 -->
<g id="edge29_Node000020_Node000016" class="edge">
<title>Node16&#45;&gt;Node20</title>
<g id="a_edge29_Node000020_Node000016"><a xlink:title=" ">
<path fill="none" stroke="#9a32cd" stroke-dasharray="5,2" d="M869.41,-277.18C878.44,-274.54 887.5,-271.64 896,-268.5 947.46,-249.49 964.33,-248.99 1007,-214.5 1017.1,-206.34 1015.08,-199.87 1025,-191.5 1030.8,-186.6 1037.3,-182.04 1043.97,-177.89"/>
<polygon fill="#9a32cd" stroke="#9a32cd" points="868.58,-273.77 859.9,-279.84 870.48,-280.51 868.58,-273.77"/>
</a>
</g>
<text text-anchor="middle" x="960.5" y="-264.5" font-family="Helvetica,sans-Serif" font-size="10.00" fill="grey"> address_</text>
</g>
<!-- Node17 -->
<g id="Node000017" class="node">
<title>Node17</title>
<g id="a_Node000017"><a xlink:title=" ">
<polygon fill="white" stroke="#666666" points="896,-77.5 702,-77.5 702,-25.5 896,-25.5 896,-77.5"/>
<text text-anchor="start" x="710" y="-65.5" font-family="Helvetica,sans-Serif" font-size="10.00">std::unique_ptr&lt; Harlinn</text>
<text text-anchor="start" x="710" y="-54.5" font-family="Helvetica,sans-Serif" font-size="10.00">::Common::Core::IO::Sockets</text>
<text text-anchor="start" x="710" y="-43.5" font-family="Helvetica,sans-Serif" font-size="10.00">::Server::TcpListener::ConnectionHandler</text>
<text text-anchor="middle" x="799" y="-32.5" font-family="Helvetica,sans-Serif" font-size="10.00">FactoryBase &gt;</text>
</a>
</g>
</g>
<!-- Node17&#45;&gt;Node2 -->
<g id="edge19_Node000002_Node000017" class="edge">
<title>Node17&#45;&gt;Node2</title>
<g id="a_edge19_Node000002_Node000017"><a xlink:title=" ">
<path fill="none" stroke="#9a32cd" stroke-dasharray="5,2" d="M907.9,-47.48C1021.62,-46.52 1204.47,-54.35 1353,-104.5 1385.01,-115.31 1417.62,-134.72 1442.41,-151.6"/>
<polygon fill="#9a32cd" stroke="#9a32cd" points="907.91,-43.98 897.95,-47.6 907.99,-50.98 907.91,-43.98"/>
</a>
</g>
<text text-anchor="middle" x="1100" y="-66.5" font-family="Helvetica,sans-Serif" font-size="10.00" fill="grey"> factory_</text>
</g>
<!-- Node17&#45;&gt;Node20 -->
<g id="edge30_Node000020_Node000017" class="edge">
<title>Node17&#45;&gt;Node20</title>
<g id="a_edge30_Node000020_Node000017"><a xlink:title=" ">
<path fill="none" stroke="#9a32cd" stroke-dasharray="5,2" d="M889.69,-81.5C937.82,-97.59 995.85,-117 1038.59,-131.3"/>
<polygon fill="#9a32cd" stroke="#9a32cd" points="890.98,-78.24 880.39,-78.38 888.76,-84.88 890.98,-78.24"/>
</a>
</g>
<text text-anchor="middle" x="960.5" y="-122.5" font-family="Helvetica,sans-Serif" font-size="10.00" fill="grey"> factory_</text>
</g>
<!-- Node18 -->
<g id="Node000018" class="node">
<title>Node18</title>
<g id="a_Node000018"><a xlink:href="class_harlinn_1_1_common_1_1_core_1_1_i_o_1_1_sockets_1_1_server_1_1_tcp_listener_1_1_connection_handler_factory_base.html" target="_top" xlink:title=" ">
<polygon fill="white" stroke="#666666" points="521,-104 351,-104 351,-41 521,-41 521,-104"/>
<text text-anchor="start" x="359" y="-92" font-family="Helvetica,sans-Serif" font-size="10.00">Harlinn::Common::Core</text>
<text text-anchor="start" x="359" y="-81" font-family="Helvetica,sans-Serif" font-size="10.00">::IO::Sockets::Server</text>
<text text-anchor="start" x="359" y="-70" font-family="Helvetica,sans-Serif" font-size="10.00">::TcpListener&lt; DerivedT,</text>
<text text-anchor="start" x="359" y="-59" font-family="Helvetica,sans-Serif" font-size="10.00"> ConnectionHandlerT &gt;::Connection</text>
<text text-anchor="middle" x="436" y="-48" font-family="Helvetica,sans-Serif" font-size="10.00">HandlerFactoryBase</text>
</a>
</g>
</g>
<!-- Node18&#45;&gt;Node17 -->
<g id="edge20_Node000017_Node000018" class="edge">
<title>Node18&#45;&gt;Node17</title>
<g id="a_edge20_Node000017_Node000018"><a xlink:title=" ">
<path fill="none" stroke="#9a32cd" stroke-dasharray="5,2" d="M532.47,-66.95C584.68,-63.91 649.19,-60.16 701.55,-57.11"/>
<polygon fill="#9a32cd" stroke="#9a32cd" points="532.47,-63.44 522.69,-67.52 532.88,-70.43 532.47,-63.44"/>
</a>
</g>
<text text-anchor="middle" x="611.5" y="-69.5" font-family="Helvetica,sans-Serif" font-size="10.00" fill="grey"> ptr</text>
</g>
<!-- Node19&#45;&gt;Node17 -->
<g id="edge21_Node000017_Node000019" class="edge">
<title>Node19&#45;&gt;Node17</title>
<g id="a_edge21_Node000017_Node000019"><a xlink:title=" ">
<path fill="none" stroke="orange" stroke-dasharray="5,2" d="M499.39,-3.94C549.65,-0.84 621.9,0.46 684,-10.5 701.4,-13.57 719.65,-19.04 736.33,-25"/>
<polygon fill="orange" stroke="orange" points="499.32,-0.43 489.58,-4.59 499.79,-7.42 499.32,-0.43"/>
</a>
</g>
<text text-anchor="start" x="539" y="-46.5" font-family="Helvetica,sans-Serif" font-size="10.00" fill="grey"> &lt; Harlinn::Common::</text>
<text text-anchor="start" x="539" y="-35.5" font-family="Helvetica,sans-Serif" font-size="10.00" fill="grey">Core::IO::Sockets::Server</text>
<text text-anchor="start" x="539" y="-24.5" font-family="Helvetica,sans-Serif" font-size="10.00" fill="grey">::TcpListener::ConnectionHandler</text>
<text text-anchor="middle" x="611.5" y="-13.5" font-family="Helvetica,sans-Serif" font-size="10.00" fill="grey">FactoryBase &gt;</text>
</g>
<!-- Node20&#45;&gt;Node2 -->
<g id="edge23_Node000002_Node000020" class="edge">
<title>Node20&#45;&gt;Node2</title>
<g id="a_edge23_Node000002_Node000020"><a xlink:title=" ">
<path fill="none" stroke="orange" stroke-dasharray="5,2" d="M1172.75,-148.97C1223.31,-148.08 1292.49,-148.67 1353,-155.5 1358.82,-156.16 1364.76,-156.95 1370.75,-157.85"/>
<polygon fill="orange" stroke="orange" points="1172.73,-145.47 1162.8,-149.17 1172.87,-152.47 1172.73,-145.47"/>
</a>
</g>
<text text-anchor="start" x="1193" y="-191.5" font-family="Helvetica,sans-Serif" font-size="10.00" fill="grey"> &lt; TcpSimpleListener</text>
<text text-anchor="start" x="1193" y="-180.5" font-family="Helvetica,sans-Serif" font-size="10.00" fill="grey">&lt; ProtocolT &gt;, TcpSimpleConnection</text>
<text text-anchor="start" x="1193" y="-169.5" font-family="Helvetica,sans-Serif" font-size="10.00" fill="grey">Handler&lt; TcpSimpleListener&lt;</text>
<text text-anchor="middle" x="1273" y="-158.5" font-family="Helvetica,sans-Serif" font-size="10.00" fill="grey"> ProtocolT &gt;, ProtocolT &gt; &gt;</text>
</g>
<!-- Node21&#45;&gt;Node20 -->
<g id="edge24_Node000020_Node000021" class="edge">
<title>Node21&#45;&gt;Node20</title>
<g id="a_edge24_Node000020_Node000021"><a xlink:title=" ">
<path fill="none" stroke="#63b8ff" d="M885.34,-220.64C922.95,-211.67 967.49,-200.14 1007,-187.5 1017.29,-184.21 1028.09,-180.36 1038.52,-176.42"/>
<polygon fill="#63b8ff" stroke="#63b8ff" points="884.81,-217.17 875.88,-222.87 886.42,-223.98 884.81,-217.17"/>
</a>
</g>
</g>
</g>
</svg>
