<?xml version="1.0" encoding="UTF-8" standalone="no"?>
<!DOCTYPE svg PUBLIC "-//W3C//DTD SVG 1.1//EN"
 "http://www.w3.org/Graphics/SVG/1.1/DTD/svg11.dtd">
<!-- Generated by graphviz version 7.0.1 (20221109.1506)
 -->
<!-- Title: Harlinn::Windows::DML::Model::NameScope Pages: 1 -->
<svg width="2342pt" height="585pt"
 viewBox="0.00 0.00 2342.00 585.49" xmlns="http://www.w3.org/2000/svg" xmlns:xlink="http://www.w3.org/1999/xlink">
<g id="graph0" class="graph" transform="scale(1 1) rotate(0) translate(4 581.49)">
<title>Harlinn::Windows::DML::Model::NameScope</title>
<!-- Node1 -->
<g id="Node000001" class="node">
<title>Node1</title>
<g id="a_Node000001"><a xlink:title=" ">
<polygon fill="#999999" stroke="#666666" points="1596.5,-376.49 1477.5,-376.49 1477.5,-346.49 1596.5,-346.49 1596.5,-376.49"/>
<text text-anchor="start" x="1485.5" y="-364.49" font-family="Helvetica,sans-Serif" font-size="10.00">Harlinn::Windows::DML</text>
<text text-anchor="middle" x="1537" y="-353.49" font-family="Helvetica,sans-Serif" font-size="10.00">::Model::NameScope</text>
</a>
</g>
</g>
<!-- Node2 -->
<g id="Node000002" class="node">
<title>Node2</title>
<g id="a_Node000002"><a xlink:href="class_harlinn_1_1_windows_1_1_d_m_l_1_1_model_1_1_internal_1_1_graph_builder.html" target="_top" xlink:title=" ">
<polygon fill="white" stroke="#666666" points="1332,-349.49 1183,-349.49 1183,-319.49 1332,-319.49 1332,-349.49"/>
<text text-anchor="start" x="1191" y="-337.49" font-family="Helvetica,sans-Serif" font-size="10.00">Harlinn::Windows::DML</text>
<text text-anchor="middle" x="1257.5" y="-326.49" font-family="Helvetica,sans-Serif" font-size="10.00">::Model::Internal::GraphBuilder</text>
</a>
</g>
</g>
<!-- Node2&#45;&gt;Node1 -->
<g id="edge1_Node000001_Node000002" class="edge">
<title>Node2&#45;&gt;Node1</title>
<g id="a_edge1_Node000001_Node000002"><a xlink:title=" ">
<path fill="none" stroke="#9a32cd" stroke-dasharray="5,2" d="M1343.55,-342.76C1386.91,-346.98 1438.54,-352 1477.41,-355.79"/>
<polygon fill="#9a32cd" stroke="#9a32cd" points="1343.93,-339.28 1333.64,-341.8 1343.26,-346.25 1343.93,-339.28"/>
</a>
</g>
<text text-anchor="middle" x="1398.5" y="-356.49" font-family="Helvetica,sans-Serif" font-size="10.00" fill="grey"> m_builder</text>
</g>
<!-- Node17 -->
<g id="Node000017" class="node">
<title>Node17</title>
<g id="a_Node000017"><a xlink:href="class_harlinn_1_1_windows_1_1_d_m_l_1_1_model_1_1_internal_1_1_node_output.html" target="_top" xlink:title=" ">
<polygon fill="white" stroke="#666666" points="1609,-201.49 1465,-201.49 1465,-171.49 1609,-171.49 1609,-201.49"/>
<text text-anchor="start" x="1473" y="-189.49" font-family="Helvetica,sans-Serif" font-size="10.00">Harlinn::Windows::DML</text>
<text text-anchor="middle" x="1537" y="-178.49" font-family="Helvetica,sans-Serif" font-size="10.00">::Model::Internal::NodeOutput</text>
</a>
</g>
</g>
<!-- Node2&#45;&gt;Node17 -->
<g id="edge18_Node000017_Node000002" class="edge">
<title>Node2&#45;&gt;Node17</title>
<g id="a_edge18_Node000017_Node000002"><a xlink:title=" ">
<path fill="none" stroke="#9a32cd" stroke-dasharray="5,2" d="M1285.57,-312.2C1303.23,-298.29 1327.17,-280.6 1350,-267.49 1397.03,-240.47 1454.79,-216.65 1493.35,-201.95"/>
<polygon fill="#9a32cd" stroke="#9a32cd" points="1283.76,-309.17 1278.13,-318.14 1288.12,-314.64 1283.76,-309.17"/>
</a>
</g>
<text text-anchor="middle" x="1398.5" y="-270.49" font-family="Helvetica,sans-Serif" font-size="10.00" fill="grey"> owner_</text>
</g>
<!-- Node3 -->
<g id="Node000003" class="node">
<title>Node3</title>
<g id="a_Node000003"><a xlink:href="class_harlinn_1_1_windows_1_1_d_m_l_1_1_device1.html" target="_top" xlink:title=" ">
<polygon fill="white" stroke="#666666" points="1022,-489.49 903,-489.49 903,-459.49 1022,-459.49 1022,-489.49"/>
<text text-anchor="start" x="911" y="-477.49" font-family="Helvetica,sans-Serif" font-size="10.00">Harlinn::Windows::DML</text>
<text text-anchor="middle" x="962.5" y="-466.49" font-family="Helvetica,sans-Serif" font-size="10.00">::Device1</text>
</a>
</g>
</g>
<!-- Node3&#45;&gt;Node2 -->
<g id="edge2_Node000002_Node000003" class="edge">
<title>Node3&#45;&gt;Node2</title>
<g id="a_edge2_Node000002_Node000003"><a xlink:title=" ">
<path fill="none" stroke="#9a32cd" stroke-dasharray="5,2" d="M1033.49,-472.84C1074.12,-469.23 1125,-460.02 1165,-437.49 1202.93,-416.12 1233.17,-373.07 1247.49,-349.97"/>
<polygon fill="#9a32cd" stroke="#9a32cd" points="1033.26,-469.34 1023.56,-473.61 1033.81,-476.32 1033.26,-469.34"/>
</a>
</g>
<text text-anchor="middle" x="1105.5" y="-473.49" font-family="Helvetica,sans-Serif" font-size="10.00" fill="grey"> m_device</text>
</g>
<!-- Node4 -->
<g id="Node000004" class="node">
<title>Node4</title>
<g id="a_Node000004"><a xlink:href="class_harlinn_1_1_windows_1_1_d_m_l_1_1_device.html" target="_top" xlink:title=" ">
<polygon fill="white" stroke="#666666" points="746.5,-489.49 627.5,-489.49 627.5,-459.49 746.5,-459.49 746.5,-489.49"/>
<text text-anchor="start" x="635.5" y="-477.49" font-family="Helvetica,sans-Serif" font-size="10.00">Harlinn::Windows::DML</text>
<text text-anchor="middle" x="687" y="-466.49" font-family="Helvetica,sans-Serif" font-size="10.00">::Device</text>
</a>
</g>
</g>
<!-- Node4&#45;&gt;Node3 -->
<g id="edge3_Node000003_Node000004" class="edge">
<title>Node4&#45;&gt;Node3</title>
<g id="a_edge3_Node000003_Node000004"><a xlink:title=" ">
<path fill="none" stroke="#63b8ff" d="M758.08,-474.49C802.95,-474.49 860.5,-474.49 902.92,-474.49"/>
<polygon fill="#63b8ff" stroke="#63b8ff" points="758.19,-470.99 748.19,-474.49 758.19,-477.99 758.19,-470.99"/>
</a>
</g>
</g>
<!-- Node5 -->
<g id="Node000005" class="node">
<title>Node5</title>
<g id="a_Node000005"><a xlink:href="class_harlinn_1_1_windows_1_1_d_m_l_1_1_object.html" target="_top" xlink:title=" ">
<polygon fill="white" stroke="#666666" points="468.5,-498.49 349.5,-498.49 349.5,-468.49 468.5,-468.49 468.5,-498.49"/>
<text text-anchor="start" x="357.5" y="-486.49" font-family="Helvetica,sans-Serif" font-size="10.00">Harlinn::Windows::DML</text>
<text text-anchor="middle" x="409" y="-475.49" font-family="Helvetica,sans-Serif" font-size="10.00">::Object</text>
</a>
</g>
</g>
<!-- Node5&#45;&gt;Node4 -->
<g id="edge4_Node000004_Node000005" class="edge">
<title>Node5&#45;&gt;Node4</title>
<g id="a_edge4_Node000004_Node000005"><a xlink:title=" ">
<path fill="none" stroke="#63b8ff" d="M480.13,-481.2C525.61,-479.72 584.19,-477.81 627.22,-476.4"/>
<polygon fill="#63b8ff" stroke="#63b8ff" points="480.26,-477.69 470.38,-481.52 480.49,-484.69 480.26,-477.69"/>
</a>
</g>
</g>
<!-- Node15 -->
<g id="Node000015" class="node">
<title>Node15</title>
<g id="a_Node000015"><a xlink:href="class_harlinn_1_1_windows_1_1_d_m_l_1_1_device_child.html" target="_top" xlink:title=" ">
<polygon fill="white" stroke="#666666" points="746.5,-576.49 627.5,-576.49 627.5,-546.49 746.5,-546.49 746.5,-576.49"/>
<text text-anchor="start" x="635.5" y="-564.49" font-family="Helvetica,sans-Serif" font-size="10.00">Harlinn::Windows::DML</text>
<text text-anchor="middle" x="687" y="-553.49" font-family="Helvetica,sans-Serif" font-size="10.00">::DeviceChild</text>
</a>
</g>
</g>
<!-- Node5&#45;&gt;Node15 -->
<g id="edge15_Node000015_Node000005" class="edge">
<title>Node5&#45;&gt;Node15</title>
<g id="a_edge15_Node000015_Node000005"><a xlink:title=" ">
<path fill="none" stroke="#63b8ff" d="M439.16,-505.32C453.23,-514.81 470.77,-525.18 488,-531.49 533.05,-547.98 587.07,-555.41 627.29,-558.76"/>
<polygon fill="#63b8ff" stroke="#63b8ff" points="441.46,-502.66 431.26,-499.81 437.46,-508.4 441.46,-502.66"/>
</a>
</g>
</g>
<!-- Node6 -->
<g id="Node000006" class="node">
<title>Node6</title>
<g id="a_Node000006"><a xlink:href="class_harlinn_1_1_common_1_1_core_1_1_unknown.html" target="_top" xlink:title="Base class for COM interface wrappers.">
<polygon fill="white" stroke="#666666" points="226,-498.49 108,-498.49 108,-468.49 226,-468.49 226,-498.49"/>
<text text-anchor="start" x="116" y="-486.49" font-family="Helvetica,sans-Serif" font-size="10.00">Harlinn::Common::Core</text>
<text text-anchor="middle" x="167" y="-475.49" font-family="Helvetica,sans-Serif" font-size="10.00">::Unknown</text>
</a>
</g>
</g>
<!-- Node6&#45;&gt;Node5 -->
<g id="edge5_Node000005_Node000006" class="edge">
<title>Node6&#45;&gt;Node5</title>
<g id="a_edge5_Node000005_Node000006"><a xlink:title=" ">
<path fill="none" stroke="#63b8ff" d="M237.63,-483.49C273.04,-483.49 315.61,-483.49 349.33,-483.49"/>
<polygon fill="#63b8ff" stroke="#63b8ff" points="237.92,-479.99 227.92,-483.49 237.92,-486.99 237.92,-479.99"/>
</a>
</g>
</g>
<!-- Node7 -->
<g id="Node000007" class="node">
<title>Node7</title>
<g id="a_Node000007"><a xlink:href="class_harlinn_1_1_windows_1_1_d_m_l_1_1_model_1_1_tensor_policy.html" target="_top" xlink:title=" ">
<polygon fill="white" stroke="#666666" points="1022,-441.49 903,-441.49 903,-411.49 1022,-411.49 1022,-441.49"/>
<text text-anchor="start" x="911" y="-429.49" font-family="Helvetica,sans-Serif" font-size="10.00">Harlinn::Windows::DML</text>
<text text-anchor="middle" x="962.5" y="-418.49" font-family="Helvetica,sans-Serif" font-size="10.00">::Model::TensorPolicy</text>
</a>
</g>
</g>
<!-- Node7&#45;&gt;Node2 -->
<g id="edge6_Node000002_Node000007" class="edge">
<title>Node7&#45;&gt;Node2</title>
<g id="a_edge6_Node000002_Node000007"><a xlink:title=" ">
<path fill="none" stroke="#9a32cd" stroke-dasharray="5,2" d="M1033.62,-424.27C1073.31,-421.1 1123.21,-413.84 1165,-397.49 1193.56,-386.31 1221.94,-364.72 1239.35,-349.95"/>
<polygon fill="#9a32cd" stroke="#9a32cd" points="1033.42,-420.78 1023.69,-424.99 1033.92,-427.76 1033.42,-420.78"/>
</a>
</g>
<text text-anchor="middle" x="1105.5" y="-425.49" font-family="Helvetica,sans-Serif" font-size="10.00" fill="grey"> m_tensorPolicy</text>
</g>
<!-- Node8 -->
<g id="Node000008" class="node">
<title>Node8</title>
<g id="a_Node000008"><a xlink:title=" ">
<polygon fill="white" stroke="#666666" points="1023,-354.99 902,-354.99 902,-313.99 1023,-313.99 1023,-354.99"/>
<text text-anchor="start" x="910" y="-342.99" font-family="Helvetica,sans-Serif" font-size="10.00">std::vector&lt; Harlinn</text>
<text text-anchor="start" x="910" y="-331.99" font-family="Helvetica,sans-Serif" font-size="10.00">::Windows::DML::Model</text>
<text text-anchor="middle" x="962.5" y="-320.99" font-family="Helvetica,sans-Serif" font-size="10.00">::Internal::InputNode &gt;</text>
</a>
</g>
</g>
<!-- Node8&#45;&gt;Node2 -->
<g id="edge7_Node000002_Node000008" class="edge">
<title>Node8&#45;&gt;Node2</title>
<g id="a_edge7_Node000002_Node000008"><a xlink:title=" ">
<path fill="none" stroke="#9a32cd" stroke-dasharray="5,2" d="M1034.89,-334.49C1079.67,-334.49 1137.28,-334.49 1182.54,-334.49"/>
<polygon fill="#9a32cd" stroke="#9a32cd" points="1035.01,-330.99 1025.01,-334.49 1035.01,-337.99 1035.01,-330.99"/>
</a>
</g>
<text text-anchor="middle" x="1105.5" y="-337.49" font-family="Helvetica,sans-Serif" font-size="10.00" fill="grey"> m_inputNodes</text>
</g>
<!-- Node9 -->
<g id="Node000009" class="node">
<title>Node9</title>
<g id="a_Node000009"><a xlink:href="struct_harlinn_1_1_windows_1_1_d_m_l_1_1_model_1_1_internal_1_1_input_node.html" target="_top" xlink:title=" ">
<polygon fill="white" stroke="#666666" points="755,-398.49 619,-398.49 619,-368.49 755,-368.49 755,-398.49"/>
<text text-anchor="start" x="627" y="-386.49" font-family="Helvetica,sans-Serif" font-size="10.00">Harlinn::Windows::DML</text>
<text text-anchor="middle" x="687" y="-375.49" font-family="Helvetica,sans-Serif" font-size="10.00">::Model::Internal::InputNode</text>
</a>
</g>
</g>
<!-- Node9&#45;&gt;Node8 -->
<g id="edge8_Node000008_Node000009" class="edge">
<title>Node9&#45;&gt;Node8</title>
<g id="a_edge8_Node000008_Node000009"><a xlink:title=" ">
<path fill="none" stroke="#9a32cd" stroke-dasharray="5,2" d="M766.25,-384.19C801.18,-382.97 842.58,-379.39 879,-370.49 893.27,-367 908.18,-361.22 921.34,-355.3"/>
<polygon fill="#9a32cd" stroke="#9a32cd" points="766.56,-380.68 756.67,-384.46 766.76,-387.68 766.56,-380.68"/>
</a>
</g>
<text text-anchor="middle" x="830.5" y="-386.49" font-family="Helvetica,sans-Serif" font-size="10.00" fill="grey"> elements</text>
</g>
<!-- Node10 -->
<g id="Node000010" class="node">
<title>Node10</title>
<g id="a_Node000010"><a xlink:title=" ">
<polygon fill="white" stroke="#666666" points="729.5,-220.99 644.5,-220.99 644.5,-201.99 729.5,-201.99 729.5,-220.99"/>
<text text-anchor="middle" x="687" y="-208.99" font-family="Helvetica,sans-Serif" font-size="10.00">std::vector&lt; T &gt;</text>
</a>
</g>
</g>
<!-- Node10&#45;&gt;Node8 -->
<g id="edge9_Node000008_Node000010" class="edge">
<title>Node10&#45;&gt;Node8</title>
<g id="a_edge9_Node000008_Node000010"><a xlink:title=" ">
<path fill="none" stroke="orange" stroke-dasharray="5,2" d="M706.35,-228.83C724.25,-244.75 752.95,-267.75 782,-280.49 822.23,-298.13 837,-286.62 879,-299.49 891.5,-303.32 904.67,-308.4 916.74,-313.5"/>
<polygon fill="orange" stroke="orange" points="708.89,-226.41 699.15,-222.26 704.18,-231.59 708.89,-226.41"/>
</a>
</g>
<text text-anchor="start" x="782" y="-324.49" font-family="Helvetica,sans-Serif" font-size="10.00" fill="grey"> &lt; Harlinn::Windows</text>
<text text-anchor="start" x="782" y="-313.49" font-family="Helvetica,sans-Serif" font-size="10.00" fill="grey">::DML::Model::Internal</text>
<text text-anchor="middle" x="830.5" y="-302.49" font-family="Helvetica,sans-Serif" font-size="10.00" fill="grey">::InputNode &gt;</text>
</g>
<!-- Node12 -->
<g id="Node000012" class="node">
<title>Node12</title>
<g id="a_Node000012"><a xlink:title=" ">
<polygon fill="white" stroke="#666666" points="2334,-424.99 2205,-424.99 2205,-383.99 2334,-383.99 2334,-424.99"/>
<text text-anchor="start" x="2213" y="-412.99" font-family="Helvetica,sans-Serif" font-size="10.00">std::vector&lt; Harlinn</text>
<text text-anchor="start" x="2213" y="-401.99" font-family="Helvetica,sans-Serif" font-size="10.00">::Windows::DML::Model</text>
<text text-anchor="middle" x="2269.5" y="-390.99" font-family="Helvetica,sans-Serif" font-size="10.00">::Internal::OperatorNode &gt;</text>
</a>
</g>
</g>
<!-- Node10&#45;&gt;Node12 -->
<g id="edge26_Node000012_Node000010" class="edge">
<title>Node10&#45;&gt;Node12</title>
<g id="a_edge26_Node000012_Node000010"><a xlink:title=" ">
<path fill="none" stroke="orange" stroke-dasharray="5,2" d="M736.78,-198.5C790.16,-183.86 869.49,-160.63 879,-149.49 912.31,-110.48 858.94,-69.88 897,-35.49 956.36,18.16 1176.49,-15.49 1256.5,-15.49 1256.5,-15.49 1256.5,-15.49 2051,-15.49 2221.22,-15.49 2259.5,-302.77 2266.9,-383.57"/>
<polygon fill="orange" stroke="orange" points="736,-195.09 727.27,-201.09 737.84,-201.84 736,-195.09"/>
</a>
</g>
<text text-anchor="start" x="1488.5" y="-40.49" font-family="Helvetica,sans-Serif" font-size="10.00" fill="grey"> &lt; Harlinn::Windows</text>
<text text-anchor="start" x="1488.5" y="-29.49" font-family="Helvetica,sans-Serif" font-size="10.00" fill="grey">::DML::Model::Internal</text>
<text text-anchor="middle" x="1537" y="-18.49" font-family="Helvetica,sans-Serif" font-size="10.00" fill="grey">::OperatorNode &gt;</text>
</g>
<!-- Node16 -->
<g id="Node000016" class="node">
<title>Node16</title>
<g id="a_Node000016"><a xlink:title=" ">
<polygon fill="white" stroke="#666666" points="1878,-289.99 1750,-289.99 1750,-248.99 1878,-248.99 1878,-289.99"/>
<text text-anchor="start" x="1758" y="-277.99" font-family="Helvetica,sans-Serif" font-size="10.00">std::vector&lt; Harlinn</text>
<text text-anchor="start" x="1758" y="-266.99" font-family="Helvetica,sans-Serif" font-size="10.00">::Windows::DML::Model</text>
<text text-anchor="middle" x="1814" y="-255.99" font-family="Helvetica,sans-Serif" font-size="10.00">::Internal::NodeOutput * &gt;</text>
</a>
</g>
</g>
<!-- Node10&#45;&gt;Node16 -->
<g id="edge23_Node000016_Node000010" class="edge">
<title>Node10&#45;&gt;Node16</title>
<g id="a_edge23_Node000016_Node000010"><a xlink:title=" ">
<path fill="none" stroke="orange" stroke-dasharray="5,2" d="M741.28,-211.6C911.48,-212.26 1440.77,-216.8 1609,-247.49 1617.3,-249 1618.74,-251.78 1627,-253.49 1667.31,-261.82 1713.4,-265.82 1749.62,-267.74"/>
<polygon fill="orange" stroke="orange" points="741.41,-208.1 731.4,-211.56 741.39,-215.1 741.41,-208.1"/>
</a>
</g>
<text text-anchor="start" x="1209" y="-249.49" font-family="Helvetica,sans-Serif" font-size="10.00" fill="grey"> &lt; Harlinn::Windows</text>
<text text-anchor="start" x="1209" y="-238.49" font-family="Helvetica,sans-Serif" font-size="10.00" fill="grey">::DML::Model::Internal</text>
<text text-anchor="middle" x="1257.5" y="-227.49" font-family="Helvetica,sans-Serif" font-size="10.00" fill="grey">::NodeOutput * &gt;</text>
</g>
<!-- Node24 -->
<g id="Node000024" class="node">
<title>Node24</title>
<g id="a_Node000024"><a xlink:title=" ">
<polygon fill="white" stroke="#666666" points="2119.5,-217.99 1980.5,-217.99 1980.5,-176.99 2119.5,-176.99 2119.5,-217.99"/>
<text text-anchor="start" x="1988.5" y="-205.99" font-family="Helvetica,sans-Serif" font-size="10.00">std::vector&lt; Harlinn</text>
<text text-anchor="start" x="1988.5" y="-194.99" font-family="Helvetica,sans-Serif" font-size="10.00">::Windows::DML::Model</text>
<text text-anchor="middle" x="2050" y="-183.99" font-family="Helvetica,sans-Serif" font-size="10.00">::Internal::ReinterpretNode &gt;</text>
</a>
</g>
</g>
<!-- Node10&#45;&gt;Node24 -->
<g id="edge30_Node000024_Node000010" class="edge">
<title>Node10&#45;&gt;Node24</title>
<g id="a_edge30_Node000024_Node000010"><a xlink:title=" ">
<path fill="none" stroke="orange" stroke-dasharray="5,2" d="M740.98,-206.59C886.13,-192.82 1282.67,-152.65 1332,-120.49 1344.71,-112.2 1336.74,-98.86 1350,-91.49 1386,-71.46 1621.72,-36.61 1895,-113.49 1942.05,-126.72 1990.64,-156.38 2020.34,-176.67"/>
<polygon fill="orange" stroke="orange" points="740.89,-203.08 731.26,-207.51 741.55,-210.05 740.89,-203.08"/>
</a>
</g>
<text text-anchor="start" x="1350" y="-116.49" font-family="Helvetica,sans-Serif" font-size="10.00" fill="grey"> &lt; Harlinn::Windows</text>
<text text-anchor="start" x="1350" y="-105.49" font-family="Helvetica,sans-Serif" font-size="10.00" fill="grey">::DML::Model::Internal</text>
<text text-anchor="middle" x="1398.5" y="-94.49" font-family="Helvetica,sans-Serif" font-size="10.00" fill="grey">::ReinterpretNode &gt;</text>
</g>
<!-- Node26 -->
<g id="Node000026" class="node">
<title>Node26</title>
<g id="a_Node000026"><a xlink:title=" ">
<polygon fill="white" stroke="#666666" points="1028,-295.99 897,-295.99 897,-254.99 1028,-254.99 1028,-295.99"/>
<text text-anchor="start" x="905" y="-283.99" font-family="Helvetica,sans-Serif" font-size="10.00">std::vector&lt; Harlinn</text>
<text text-anchor="start" x="905" y="-272.99" font-family="Helvetica,sans-Serif" font-size="10.00">::Windows::DML::Model</text>
<text text-anchor="middle" x="962.5" y="-261.99" font-family="Helvetica,sans-Serif" font-size="10.00">::Internal::ConstantNode &gt;</text>
</a>
</g>
</g>
<!-- Node10&#45;&gt;Node26 -->
<g id="edge37_Node000026_Node000010" class="edge">
<title>Node10&#45;&gt;Node26</title>
<g id="a_edge37_Node000026_Node000010"><a xlink:title=" ">
<path fill="none" stroke="orange" stroke-dasharray="5,2" d="M740.71,-219.37C779.31,-225.64 832.81,-235.36 879,-247.49 886.9,-249.56 895.14,-252.01 903.22,-254.57"/>
<polygon fill="orange" stroke="orange" points="741.65,-215.98 731.23,-217.85 740.55,-222.89 741.65,-215.98"/>
</a>
</g>
<text text-anchor="start" x="782" y="-272.49" font-family="Helvetica,sans-Serif" font-size="10.00" fill="grey"> &lt; Harlinn::Windows</text>
<text text-anchor="start" x="782" y="-261.49" font-family="Helvetica,sans-Serif" font-size="10.00" fill="grey">::DML::Model::Internal</text>
<text text-anchor="middle" x="830.5" y="-250.49" font-family="Helvetica,sans-Serif" font-size="10.00" fill="grey">::ConstantNode &gt;</text>
</g>
<!-- Node11 -->
<g id="Node000011" class="node">
<title>Node11</title>
<g id="a_Node000011"><a xlink:title=" ">
<polygon fill="white" stroke="#666666" points="29,-214.99 0,-214.99 0,-195.99 29,-195.99 29,-214.99"/>
<text text-anchor="middle" x="14.5" y="-202.99" font-family="Helvetica,sans-Serif" font-size="10.00">T</text>
</a>
</g>
</g>
<!-- Node11&#45;&gt;Node10 -->
<g id="edge10_Node000010_Node000011" class="edge">
<title>Node11&#45;&gt;Node10</title>
<g id="a_edge10_Node000010_Node000011"><a xlink:title=" ">
<path fill="none" stroke="#9a32cd" stroke-dasharray="5,2" d="M40.58,-205.71C141.41,-206.61 517.85,-209.98 644.28,-211.11"/>
<polygon fill="#9a32cd" stroke="#9a32cd" points="40.74,-202.21 30.71,-205.62 40.68,-209.21 40.74,-202.21"/>
</a>
</g>
<text text-anchor="middle" x="287" y="-211.49" font-family="Helvetica,sans-Serif" font-size="10.00" fill="grey"> elements</text>
</g>
<!-- Node29 -->
<g id="Node000029" class="node">
<title>Node29</title>
<g id="a_Node000029"><a xlink:title=" ">
<polygon fill="white" stroke="#666666" points="207,-297.99 127,-297.99 127,-278.99 207,-278.99 207,-297.99"/>
<text text-anchor="middle" x="167" y="-285.99" font-family="Helvetica,sans-Serif" font-size="10.00">std::span&lt; T &gt;</text>
</a>
</g>
</g>
<!-- Node11&#45;&gt;Node29 -->
<g id="edge35_Node000029_Node000011" class="edge">
<title>Node11&#45;&gt;Node29</title>
<g id="a_edge35_Node000029_Node000011"><a xlink:title=" ">
<path fill="none" stroke="#9a32cd" stroke-dasharray="5,2" d="M39.09,-218.5C69.25,-235.13 120.81,-263.56 148,-278.56"/>
<polygon fill="#9a32cd" stroke="#9a32cd" points="41.16,-215.64 30.71,-213.88 37.78,-221.77 41.16,-215.64"/>
</a>
</g>
<text text-anchor="middle" x="68.5" y="-248.49" font-family="Helvetica,sans-Serif" font-size="10.00" fill="grey"> elements</text>
</g>
<!-- Node31 -->
<g id="Node000031" class="node">
<title>Node31</title>
<g id="a_Node000031"><a xlink:title=" ">
<polygon fill="white" stroke="#666666" points="330,-29.99 244,-29.99 244,-10.99 330,-10.99 330,-29.99"/>
<text text-anchor="middle" x="287" y="-17.99" font-family="Helvetica,sans-Serif" font-size="10.00">std::deque&lt; T &gt;</text>
</a>
</g>
</g>
<!-- Node11&#45;&gt;Node31 -->
<g id="edge41_Node000031_Node000011" class="edge">
<title>Node11&#45;&gt;Node31</title>
<g id="a_edge41_Node000031_Node000011"><a xlink:title=" ">
<path fill="none" stroke="#9a32cd" stroke-dasharray="5,2" d="M25.1,-185.49C30.53,-175.62 38.04,-164.02 47,-155.49 112.37,-93.18 211.92,-49.14 259.23,-30.47"/>
<polygon fill="#9a32cd" stroke="#9a32cd" points="22.02,-183.81 20.56,-194.3 28.25,-187.01 22.02,-183.81"/>
</a>
</g>
<text text-anchor="middle" x="68.5" y="-158.49" font-family="Helvetica,sans-Serif" font-size="10.00" fill="grey"> elements</text>
</g>
<!-- Node33 -->
<g id="Node000033" class="node">
<title>Node33</title>
<g id="a_Node000033"><a xlink:title=" ">
<polygon fill="white" stroke="#666666" points="208.5,-175.99 125.5,-175.99 125.5,-156.99 208.5,-156.99 208.5,-175.99"/>
<text text-anchor="middle" x="167" y="-163.99" font-family="Helvetica,sans-Serif" font-size="10.00">std::stack&lt; T &gt;</text>
</a>
</g>
</g>
<!-- Node11&#45;&gt;Node33 -->
<g id="edge45_Node000033_Node000011" class="edge">
<title>Node11&#45;&gt;Node33</title>
<g id="a_edge45_Node000033_Node000011"><a xlink:title=" ">
<path fill="none" stroke="#9a32cd" stroke-dasharray="5,2" d="M34.54,-188.51C38.45,-185.77 42.68,-183.25 47,-181.49 71.67,-171.4 101.42,-167.65 125,-166.42"/>
<polygon fill="#9a32cd" stroke="#9a32cd" points="32.56,-185.62 26.88,-194.56 36.9,-191.11 32.56,-185.62"/>
</a>
</g>
<text text-anchor="middle" x="68.5" y="-184.49" font-family="Helvetica,sans-Serif" font-size="10.00" fill="grey"> elements</text>
</g>
<!-- Node12&#45;&gt;Node2 -->
<g id="edge11_Node000002_Node000012" class="edge">
<title>Node12&#45;&gt;Node2</title>
<g id="a_edge11_Node000002_Node000012"><a xlink:title=" ">
<path fill="none" stroke="#9a32cd" stroke-dasharray="5,2" d="M2193.23,-404.49C2151.35,-404.49 2098.29,-404.49 2051,-404.49 1536,-404.49 1536,-404.49 1536,-404.49 1447.31,-404.49 1347.39,-370.45 1295.01,-349.85"/>
<polygon fill="#9a32cd" stroke="#9a32cd" points="2193.22,-407.99 2203.22,-404.49 2193.22,-400.99 2193.22,-407.99"/>
</a>
</g>
<text text-anchor="middle" x="1814" y="-407.49" font-family="Helvetica,sans-Serif" font-size="10.00" fill="grey"> m_operatorNodes</text>
</g>
<!-- Node13 -->
<g id="Node000013" class="node">
<title>Node13</title>
<g id="a_Node000013"><a xlink:href="struct_harlinn_1_1_windows_1_1_d_m_l_1_1_model_1_1_internal_1_1_operator_node.html" target="_top" xlink:title=" ">
<polygon fill="white" stroke="#666666" points="2126,-497.49 1974,-497.49 1974,-467.49 2126,-467.49 2126,-497.49"/>
<text text-anchor="start" x="1982" y="-485.49" font-family="Helvetica,sans-Serif" font-size="10.00">Harlinn::Windows::DML</text>
<text text-anchor="middle" x="2050" y="-474.49" font-family="Helvetica,sans-Serif" font-size="10.00">::Model::Internal::OperatorNode</text>
</a>
</g>
</g>
<!-- Node13&#45;&gt;Node12 -->
<g id="edge12_Node000012_Node000013" class="edge">
<title>Node13&#45;&gt;Node12</title>
<g id="a_edge12_Node000012_Node000013"><a xlink:title=" ">
<path fill="none" stroke="#9a32cd" stroke-dasharray="5,2" d="M2104.46,-463.31C2136.45,-451.84 2177.13,-437.26 2209.97,-425.48"/>
<polygon fill="#9a32cd" stroke="#9a32cd" points="2103.63,-459.9 2095.4,-466.57 2105.99,-466.48 2103.63,-459.9"/>
</a>
</g>
<text text-anchor="middle" x="2165.5" y="-450.49" font-family="Helvetica,sans-Serif" font-size="10.00" fill="grey"> elements</text>
</g>
<!-- Node14 -->
<g id="Node000014" class="node">
<title>Node14</title>
<g id="a_Node000014"><a xlink:href="class_harlinn_1_1_windows_1_1_d_m_l_1_1_operator.html" target="_top" xlink:title=" ">
<polygon fill="white" stroke="#666666" points="1165,-577.49 1046,-577.49 1046,-547.49 1165,-547.49 1165,-577.49"/>
<text text-anchor="start" x="1054" y="-565.49" font-family="Helvetica,sans-Serif" font-size="10.00">Harlinn::Windows::DML</text>
<text text-anchor="middle" x="1105.5" y="-554.49" font-family="Helvetica,sans-Serif" font-size="10.00">::Operator</text>
</a>
</g>
</g>
<!-- Node14&#45;&gt;Node13 -->
<g id="edge13_Node000013_Node000014" class="edge">
<title>Node14&#45;&gt;Node13</title>
<g id="a_edge13_Node000013_Node000014"><a xlink:title=" ">
<path fill="none" stroke="#9a32cd" stroke-dasharray="5,2" d="M1176.71,-562.86C1235.65,-563.15 1322.07,-563.49 1397.5,-563.49 1397.5,-563.49 1397.5,-563.49 1815,-563.49 1879.26,-563.49 1895.73,-553.77 1956,-531.49 1980.14,-522.57 2005.9,-508.61 2024.17,-497.87"/>
<polygon fill="#9a32cd" stroke="#9a32cd" points="1176.83,-559.36 1166.81,-562.81 1176.8,-566.36 1176.83,-559.36"/>
</a>
</g>
<text text-anchor="middle" x="1537" y="-566.49" font-family="Helvetica,sans-Serif" font-size="10.00" fill="grey"> op</text>
</g>
<!-- Node15&#45;&gt;Node14 -->
<g id="edge14_Node000014_Node000015" class="edge">
<title>Node15&#45;&gt;Node14</title>
<g id="a_edge14_Node000014_Node000015"><a xlink:title=" ">
<path fill="none" stroke="#63b8ff" d="M757.83,-561.65C838.54,-561.85 969.95,-562.16 1045.67,-562.35"/>
<polygon fill="#63b8ff" stroke="#63b8ff" points="758.31,-558.16 748.3,-561.63 758.3,-565.16 758.31,-558.16"/>
</a>
</g>
</g>
<!-- Node16&#45;&gt;Node13 -->
<g id="edge16_Node000013_Node000016" class="edge">
<title>Node16&#45;&gt;Node13</title>
<g id="a_edge16_Node000013_Node000016"><a xlink:title=" ">
<path fill="none" stroke="#9a32cd" stroke-dasharray="5,2" d="M1846.07,-297.77C1896.21,-343.41 1993.25,-431.74 2032.21,-467.21"/>
<polygon fill="#9a32cd" stroke="#9a32cd" points="1848.73,-295.46 1838.98,-291.32 1844.02,-300.64 1848.73,-295.46"/>
</a>
</g>
<text text-anchor="middle" x="1934.5" y="-398.49" font-family="Helvetica,sans-Serif" font-size="10.00" fill="grey"> inputs</text>
</g>
<!-- Node17&#45;&gt;Node16 -->
<g id="edge17_Node000016_Node000017" class="edge">
<title>Node17&#45;&gt;Node16</title>
<g id="a_edge17_Node000016_Node000017"><a xlink:title=" ">
<path fill="none" stroke="#9a32cd" stroke-dasharray="5,2" d="M1600.08,-205.22C1644.71,-218.69 1704.7,-236.8 1749.62,-250.36"/>
<polygon fill="#9a32cd" stroke="#9a32cd" points="1601.11,-201.88 1590.53,-202.34 1599.09,-208.58 1601.11,-201.88"/>
</a>
</g>
<text text-anchor="middle" x="1671" y="-241.49" font-family="Helvetica,sans-Serif" font-size="10.00" fill="grey"> elements</text>
</g>
<!-- Node25 -->
<g id="Node000025" class="node">
<title>Node25</title>
<g id="a_Node000025"><a xlink:href="struct_harlinn_1_1_windows_1_1_d_m_l_1_1_model_1_1_internal_1_1_reinterpret_node.html" target="_top" xlink:title=" ">
<polygon fill="white" stroke="#666666" points="1895,-212.49 1733,-212.49 1733,-182.49 1895,-182.49 1895,-212.49"/>
<text text-anchor="start" x="1741" y="-200.49" font-family="Helvetica,sans-Serif" font-size="10.00">Harlinn::Windows::DML</text>
<text text-anchor="middle" x="1814" y="-189.49" font-family="Helvetica,sans-Serif" font-size="10.00">::Model::Internal::ReinterpretNode</text>
</a>
</g>
</g>
<!-- Node17&#45;&gt;Node25 -->
<g id="edge29_Node000025_Node000017" class="edge">
<title>Node17&#45;&gt;Node25</title>
<g id="a_edge29_Node000025_Node000017"><a xlink:title=" ">
<path fill="none" stroke="#9a32cd" stroke-dasharray="5,2" d="M1620.51,-189.79C1656.1,-191.21 1697.58,-192.87 1732.9,-194.28"/>
<polygon fill="#9a32cd" stroke="#9a32cd" points="1620.82,-186.3 1610.69,-189.39 1620.54,-193.29 1620.82,-186.3"/>
</a>
</g>
<text text-anchor="middle" x="1671" y="-196.49" font-family="Helvetica,sans-Serif" font-size="10.00" fill="grey"> input</text>
</g>
<!-- Node30 -->
<g id="Node000030" class="node">
<title>Node30</title>
<g id="a_Node000030"><a xlink:title=" ">
<polygon fill="white" stroke="#666666" points="1874.5,-163.99 1753.5,-163.99 1753.5,-122.99 1874.5,-122.99 1874.5,-163.99"/>
<text text-anchor="start" x="1761.5" y="-151.99" font-family="Helvetica,sans-Serif" font-size="10.00">std::deque&lt; Harlinn</text>
<text text-anchor="start" x="1761.5" y="-140.99" font-family="Helvetica,sans-Serif" font-size="10.00">::Windows::DML::Model</text>
<text text-anchor="middle" x="1814" y="-129.99" font-family="Helvetica,sans-Serif" font-size="10.00">::Internal::NodeOutput &gt;</text>
</a>
</g>
</g>
<!-- Node17&#45;&gt;Node30 -->
<g id="edge39_Node000030_Node000017" class="edge">
<title>Node17&#45;&gt;Node30</title>
<g id="a_edge39_Node000030_Node000017"><a xlink:title=" ">
<path fill="none" stroke="#9a32cd" stroke-dasharray="5,2" d="M1620.42,-173.6C1663.15,-166.92 1714.4,-158.9 1753.28,-152.83"/>
<polygon fill="#9a32cd" stroke="#9a32cd" points="1620.01,-170.12 1610.67,-175.12 1621.09,-177.04 1620.01,-170.12"/>
</a>
</g>
<text text-anchor="middle" x="1671" y="-174.49" font-family="Helvetica,sans-Serif" font-size="10.00" fill="grey"> elements</text>
</g>
<!-- Node18 -->
<g id="Node000018" class="node">
<title>Node18</title>
<g id="a_Node000018"><a xlink:href="struct_harlinn_1_1_windows_1_1_d_m_l_1_1_model_1_1_internal_1_1_node_i_d.html" target="_top" xlink:title=" ">
<polygon fill="white" stroke="#666666" points="1319.5,-197.49 1195.5,-197.49 1195.5,-167.49 1319.5,-167.49 1319.5,-197.49"/>
<text text-anchor="start" x="1203.5" y="-185.49" font-family="Helvetica,sans-Serif" font-size="10.00">Harlinn::Windows::DML</text>
<text text-anchor="middle" x="1257.5" y="-174.49" font-family="Helvetica,sans-Serif" font-size="10.00">::Model::Internal::NodeID</text>
</a>
</g>
</g>
<!-- Node18&#45;&gt;Node17 -->
<g id="edge19_Node000017_Node000018" class="edge">
<title>Node18&#45;&gt;Node17</title>
<g id="a_edge19_Node000017_Node000018"><a xlink:title=" ">
<path fill="none" stroke="#9a32cd" stroke-dasharray="5,2" d="M1331.07,-183.53C1372.27,-184.13 1423.62,-184.87 1464.61,-185.46"/>
<polygon fill="#9a32cd" stroke="#9a32cd" points="1331.3,-180.04 1321.26,-183.39 1331.2,-187.04 1331.3,-180.04"/>
</a>
</g>
<text text-anchor="middle" x="1398.5" y="-188.49" font-family="Helvetica,sans-Serif" font-size="10.00" fill="grey"> node_</text>
</g>
<!-- Node19 -->
<g id="Node000019" class="node">
<title>Node19</title>
<g id="a_Node000019"><a xlink:href="struct_harlinn_1_1_windows_1_1_d_m_l_1_1_model_1_1_tensor_desc.html" target="_top" xlink:title=" ">
<polygon fill="white" stroke="#666666" points="1317,-111.49 1198,-111.49 1198,-81.49 1317,-81.49 1317,-111.49"/>
<text text-anchor="start" x="1206" y="-99.49" font-family="Helvetica,sans-Serif" font-size="10.00">Harlinn::Windows::DML</text>
<text text-anchor="middle" x="1257.5" y="-88.49" font-family="Helvetica,sans-Serif" font-size="10.00">::Model::TensorDesc</text>
</a>
</g>
</g>
<!-- Node19&#45;&gt;Node17 -->
<g id="edge20_Node000017_Node000019" class="edge">
<title>Node19&#45;&gt;Node17</title>
<g id="a_edge20_Node000017_Node000019"><a xlink:title=" ">
<path fill="none" stroke="#9a32cd" stroke-dasharray="5,2" d="M1317.05,-115.48C1368.03,-132.01 1441.01,-155.68 1488.46,-171.07"/>
<polygon fill="#9a32cd" stroke="#9a32cd" points="1318.24,-112.18 1307.64,-112.43 1316.08,-118.84 1318.24,-112.18"/>
</a>
</g>
<text text-anchor="middle" x="1398.5" y="-160.49" font-family="Helvetica,sans-Serif" font-size="10.00" fill="grey"> tensorDesc_</text>
</g>
<!-- Node20 -->
<g id="Node000020" class="node">
<title>Node20</title>
<g id="a_Node000020"><a xlink:href="struct_harlinn_1_1_windows_1_1_d_m_l_1_1_buffer_tensor_desc.html" target="_top" xlink:title=" ">
<polygon fill="white" stroke="#666666" points="1022,-122.49 903,-122.49 903,-92.49 1022,-92.49 1022,-122.49"/>
<text text-anchor="start" x="911" y="-110.49" font-family="Helvetica,sans-Serif" font-size="10.00">Harlinn::Windows::DML</text>
<text text-anchor="middle" x="962.5" y="-99.49" font-family="Helvetica,sans-Serif" font-size="10.00">::BufferTensorDesc</text>
</a>
</g>
</g>
<!-- Node20&#45;&gt;Node19 -->
<g id="edge21_Node000019_Node000020" class="edge">
<title>Node20&#45;&gt;Node19</title>
<g id="a_edge21_Node000019_Node000020"><a xlink:title=" ">
<path fill="none" stroke="#9a32cd" stroke-dasharray="5,2" d="M1033.82,-104.85C1083.89,-102.97 1150.39,-100.47 1197.65,-98.7"/>
<polygon fill="#9a32cd" stroke="#9a32cd" points="1033.81,-101.34 1023.95,-105.22 1034.08,-108.34 1033.81,-101.34"/>
</a>
</g>
<text text-anchor="middle" x="1105.5" y="-107.49" font-family="Helvetica,sans-Serif" font-size="10.00" fill="grey"> bufferDesc_</text>
</g>
<!-- Node21 -->
<g id="Node000021" class="node">
<title>Node21</title>
<g id="a_Node000021"><a xlink:href="struct_harlinn_1_1_windows_1_1_d_m_l_1_1_tensor_desc.html" target="_top" xlink:title=" ">
<polygon fill="white" stroke="#666666" points="1022,-74.49 903,-74.49 903,-44.49 1022,-44.49 1022,-74.49"/>
<text text-anchor="start" x="911" y="-62.49" font-family="Helvetica,sans-Serif" font-size="10.00">Harlinn::Windows::DML</text>
<text text-anchor="middle" x="962.5" y="-51.49" font-family="Helvetica,sans-Serif" font-size="10.00">::TensorDesc</text>
</a>
</g>
</g>
<!-- Node21&#45;&gt;Node19 -->
<g id="edge22_Node000019_Node000021" class="edge">
<title>Node21&#45;&gt;Node19</title>
<g id="a_edge22_Node000019_Node000021"><a xlink:title=" ">
<path fill="none" stroke="#9a32cd" stroke-dasharray="5,2" d="M1033.82,-68.37C1083.89,-74.69 1150.39,-83.09 1197.65,-89.06"/>
<polygon fill="#9a32cd" stroke="#9a32cd" points="1034.3,-64.9 1023.94,-67.12 1033.42,-71.84 1034.3,-64.9"/>
</a>
</g>
<text text-anchor="middle" x="1105.5" y="-88.49" font-family="Helvetica,sans-Serif" font-size="10.00" fill="grey"> tensorDesc_</text>
</g>
<!-- Node22 -->
<g id="Node000022" class="node">
<title>Node22</title>
<g id="a_Node000022"><a xlink:title=" ">
<polygon fill="white" stroke="#666666" points="439,-435.99 379,-435.99 379,-416.99 439,-416.99 439,-435.99"/>
<text text-anchor="middle" x="409" y="-423.99" font-family="Helvetica,sans-Serif" font-size="10.00">std::string</text>
</a>
</g>
</g>
<!-- Node22&#45;&gt;Node2 -->
<g id="edge42_Node000002_Node000022" class="edge">
<title>Node22&#45;&gt;Node2</title>
<g id="a_edge42_Node000002_Node000022"><a xlink:title=" ">
<path fill="none" stroke="#9a32cd" stroke-dasharray="5,2" d="M450.88,-424.62C516.81,-421.53 650.68,-414.96 764,-407.49 815.16,-404.11 828.12,-404.78 879,-398.49 985.05,-385.37 1106.76,-363.49 1182.65,-349.03"/>
<polygon fill="#9a32cd" stroke="#9a32cd" points="450.72,-421.12 440.9,-425.08 451.05,-428.11 450.72,-421.12"/>
</a>
</g>
<text text-anchor="middle" x="830.5" y="-409.49" font-family="Helvetica,sans-Serif" font-size="10.00" fill="grey"> m_name</text>
</g>
<!-- Node22&#45;&gt;Node13 -->
<g id="edge24_Node000013_Node000022" class="edge">
<title>Node22&#45;&gt;Node13</title>
<g id="a_edge24_Node000013_Node000022"><a xlink:title=" ">
<path fill="none" stroke="#9a32cd" stroke-dasharray="5,2" d="M437.08,-441.84C485.44,-467.79 590.55,-517.49 686,-517.49 686,-517.49 686,-517.49 1815,-517.49 1871.69,-517.49 1935.26,-507.32 1981.81,-497.94"/>
<polygon fill="#9a32cd" stroke="#9a32cd" points="438.89,-438.85 428.44,-437.12 435.53,-444.99 438.89,-438.85"/>
</a>
</g>
<text text-anchor="middle" x="1257.5" y="-520.49" font-family="Helvetica,sans-Serif" font-size="10.00" fill="grey"> name</text>
</g>
<!-- Node27 -->
<g id="Node000027" class="node">
<title>Node27</title>
<g id="a_Node000027"><a xlink:href="struct_harlinn_1_1_windows_1_1_d_m_l_1_1_model_1_1_internal_1_1_constant_node.html" target="_top" xlink:title=" ">
<polygon fill="white" stroke="#666666" points="764,-350.49 610,-350.49 610,-320.49 764,-320.49 764,-350.49"/>
<text text-anchor="start" x="618" y="-338.49" font-family="Helvetica,sans-Serif" font-size="10.00">Harlinn::Windows::DML</text>
<text text-anchor="middle" x="687" y="-327.49" font-family="Helvetica,sans-Serif" font-size="10.00">::Model::Internal::ConstantNode</text>
</a>
</g>
</g>
<!-- Node22&#45;&gt;Node27 -->
<g id="edge36_Node000027_Node000022" class="edge">
<title>Node22&#45;&gt;Node27</title>
<g id="a_edge36_Node000027_Node000022"><a xlink:title=" ">
<path fill="none" stroke="#9a32cd" stroke-dasharray="5,2" d="M449.81,-412.93C490.12,-399.24 554.3,-377.61 610,-359.49 618.55,-356.7 627.66,-353.79 636.49,-350.98"/>
<polygon fill="#9a32cd" stroke="#9a32cd" points="448.87,-409.55 440.53,-416.08 451.12,-416.17 448.87,-409.55"/>
</a>
</g>
<text text-anchor="middle" x="540" y="-402.49" font-family="Helvetica,sans-Serif" font-size="10.00" fill="grey"> name</text>
</g>
<!-- Node23 -->
<g id="Node000023" class="node">
<title>Node23</title>
<g id="a_Node000023"><a xlink:title=" ">
<polygon fill="white" stroke="#666666" points="214.5,-441.49 119.5,-441.49 119.5,-411.49 214.5,-411.49 214.5,-441.49"/>
<text text-anchor="start" x="127.5" y="-429.49" font-family="Helvetica,sans-Serif" font-size="10.00">std::basic_string&lt;</text>
<text text-anchor="middle" x="167" y="-418.49" font-family="Helvetica,sans-Serif" font-size="10.00"> Char &gt;</text>
</a>
</g>
</g>
<!-- Node23&#45;&gt;Node22 -->
<g id="edge25_Node000022_Node000023" class="edge">
<title>Node23&#45;&gt;Node22</title>
<g id="a_edge25_Node000022_Node000023"><a xlink:title=" ">
<path fill="none" stroke="#63b8ff" d="M226.06,-426.49C274.27,-426.49 340.85,-426.49 378.66,-426.49"/>
<polygon fill="#63b8ff" stroke="#63b8ff" points="226.36,-422.99 216.36,-426.49 226.36,-429.99 226.36,-422.99"/>
</a>
</g>
</g>
<!-- Node24&#45;&gt;Node2 -->
<g id="edge27_Node000002_Node000024" class="edge">
<title>Node24&#45;&gt;Node2</title>
<g id="a_edge27_Node000002_Node000024"><a xlink:title=" ">
<path fill="none" stroke="#9a32cd" stroke-dasharray="5,2" d="M2017.19,-225.65C1987.76,-249.82 1941.64,-283.11 1895,-298.49 1792.51,-332.28 1476.85,-335.48 1332.24,-335.08"/>
<polygon fill="#9a32cd" stroke="#9a32cd" points="2019.18,-228.55 2024.6,-219.45 2014.69,-223.18 2019.18,-228.55"/>
</a>
</g>
<text text-anchor="middle" x="1671" y="-332.49" font-family="Helvetica,sans-Serif" font-size="10.00" fill="grey"> m_reinterpretNodes</text>
</g>
<!-- Node25&#45;&gt;Node24 -->
<g id="edge28_Node000024_Node000025" class="edge">
<title>Node25&#45;&gt;Node24</title>
<g id="a_edge28_Node000024_Node000025"><a xlink:title=" ">
<path fill="none" stroke="#9a32cd" stroke-dasharray="5,2" d="M1906.7,-197.49C1931.17,-197.49 1957.2,-197.49 1980.21,-197.49"/>
<polygon fill="#9a32cd" stroke="#9a32cd" points="1906.72,-193.99 1896.72,-197.49 1906.72,-200.99 1906.72,-193.99"/>
</a>
</g>
<text text-anchor="middle" x="1934.5" y="-200.49" font-family="Helvetica,sans-Serif" font-size="10.00" fill="grey"> elements</text>
</g>
<!-- Node26&#45;&gt;Node2 -->
<g id="edge31_Node000002_Node000026" class="edge">
<title>Node26&#45;&gt;Node2</title>
<g id="a_edge31_Node000002_Node000026"><a xlink:title=" ">
<path fill="none" stroke="#9a32cd" stroke-dasharray="5,2" d="M1039.42,-290.77C1083.56,-299.66 1138.94,-310.81 1182.71,-319.63"/>
<polygon fill="#9a32cd" stroke="#9a32cd" points="1040.14,-287.35 1029.65,-288.81 1038.76,-294.21 1040.14,-287.35"/>
</a>
</g>
<text text-anchor="middle" x="1105.5" y="-318.49" font-family="Helvetica,sans-Serif" font-size="10.00" fill="grey"> m_constantNodes</text>
</g>
<!-- Node27&#45;&gt;Node26 -->
<g id="edge32_Node000026_Node000027" class="edge">
<title>Node27&#45;&gt;Node26</title>
<g id="a_edge32_Node000026_Node000027"><a xlink:title=" ">
<path fill="none" stroke="#9a32cd" stroke-dasharray="5,2" d="M759.87,-352.59C797.75,-357.66 843.57,-357.21 879,-336.49 893.09,-328.25 884.95,-315.5 897,-304.49 900.26,-301.5 903.88,-298.79 907.7,-296.32"/>
<polygon fill="#9a32cd" stroke="#9a32cd" points="760.8,-349.2 750.39,-351.17 759.76,-356.12 760.8,-349.2"/>
</a>
</g>
<text text-anchor="middle" x="830.5" y="-358.49" font-family="Helvetica,sans-Serif" font-size="10.00" fill="grey"> elements</text>
</g>
<!-- Node28 -->
<g id="Node000028" class="node">
<title>Node28</title>
<g id="a_Node000028"><a xlink:title=" ">
<polygon fill="white" stroke="#666666" points="470,-330.99 348,-330.99 348,-311.99 470,-311.99 470,-330.99"/>
<text text-anchor="middle" x="409" y="-318.99" font-family="Helvetica,sans-Serif" font-size="10.00">std::span&lt; const Byte &gt;</text>
</a>
</g>
</g>
<!-- Node28&#45;&gt;Node27 -->
<g id="edge33_Node000027_Node000028" class="edge">
<title>Node28&#45;&gt;Node27</title>
<g id="a_edge33_Node000027_Node000028"><a xlink:title=" ">
<path fill="none" stroke="#9a32cd" stroke-dasharray="5,2" d="M481.57,-325.12C520.85,-327.11 569.57,-329.58 609.59,-331.61"/>
<polygon fill="#9a32cd" stroke="#9a32cd" points="481.9,-321.63 471.74,-324.62 481.55,-328.62 481.9,-321.63"/>
</a>
</g>
<text text-anchor="middle" x="540" y="-334.49" font-family="Helvetica,sans-Serif" font-size="10.00" fill="grey"> data</text>
</g>
<!-- Node29&#45;&gt;Node28 -->
<g id="edge34_Node000028_Node000029" class="edge">
<title>Node29&#45;&gt;Node28</title>
<g id="a_edge34_Node000028_Node000029"><a xlink:title=" ">
<path fill="none" stroke="orange" stroke-dasharray="5,2" d="M218.6,-295.44C256.36,-300.64 308.07,-307.75 347.93,-313.23"/>
<polygon fill="orange" stroke="orange" points="219.25,-292 208.86,-294.11 218.29,-298.93 219.25,-292"/>
</a>
</g>
<text text-anchor="middle" x="287" y="-313.49" font-family="Helvetica,sans-Serif" font-size="10.00" fill="grey"> &lt; const Byte &gt;</text>
</g>
<!-- Node30&#45;&gt;Node2 -->
<g id="edge38_Node000002_Node000030" class="edge">
<title>Node30&#45;&gt;Node2</title>
<g id="a_edge38_Node000002_Node000030"><a xlink:title=" ">
<path fill="none" stroke="#9a32cd" stroke-dasharray="5,2" d="M1743.31,-166.5C1739.7,-168.64 1736.23,-170.97 1733,-173.49 1721.91,-182.13 1726.39,-191.25 1715,-199.49 1706.44,-205.68 1360.13,-303.48 1350,-306.49 1336.46,-310.51 1321.83,-314.95 1308.32,-319.08"/>
<polygon fill="#9a32cd" stroke="#9a32cd" points="1744.64,-169.76 1751.82,-161.96 1741.35,-163.58 1744.64,-169.76"/>
</a>
</g>
<text text-anchor="middle" x="1537" y="-276.49" font-family="Helvetica,sans-Serif" font-size="10.00" fill="grey"> m_nodeOutputs</text>
</g>
<!-- Node31&#45;&gt;Node30 -->
<g id="edge40_Node000030_Node000031" class="edge">
<title>Node31&#45;&gt;Node30</title>
<g id="a_edge40_Node000030_Node000031"><a xlink:title=" ">
<path fill="none" stroke="orange" stroke-dasharray="5,2" d="M341.79,-18.36C447.93,-14.29 691.84,-5.52 897,-2.49 955.22,-1.63 969.96,2.06 1028,-2.49 1215.94,-17.2 1261.5,-34.89 1447,-68.49 1555.34,-88.11 1680.93,-114.69 1753.25,-130.37"/>
<polygon fill="orange" stroke="orange" points="341.81,-14.86 331.96,-18.74 342.08,-21.85 341.81,-14.86"/>
</a>
</g>
<text text-anchor="start" x="914" y="-27.49" font-family="Helvetica,sans-Serif" font-size="10.00" fill="grey"> &lt; Harlinn::Windows</text>
<text text-anchor="start" x="914" y="-16.49" font-family="Helvetica,sans-Serif" font-size="10.00" fill="grey">::DML::Model::Internal</text>
<text text-anchor="middle" x="962.5" y="-5.49" font-family="Helvetica,sans-Serif" font-size="10.00" fill="grey">::NodeOutput &gt;</text>
</g>
<!-- Node32 -->
<g id="Node000032" class="node">
<title>Node32</title>
<g id="a_Node000032"><a xlink:title=" ">
<polygon fill="white" stroke="#666666" points="592,-155.99 488,-155.99 488,-136.99 592,-136.99 592,-155.99"/>
<text text-anchor="middle" x="540" y="-143.99" font-family="Helvetica,sans-Serif" font-size="10.00">std::stack&lt; size_t &gt;</text>
</a>
</g>
</g>
<!-- Node32&#45;&gt;Node2 -->
<g id="edge43_Node000002_Node000032" class="edge">
<title>Node32&#45;&gt;Node2</title>
<g id="a_edge43_Node000002_Node000032"><a xlink:title=" ">
<path fill="none" stroke="#9a32cd" stroke-dasharray="5,2" d="M603.73,-154.16C718.48,-169.64 968.48,-210.1 1165,-289.49 1186.5,-298.17 1209.96,-309.75 1227.74,-318.99"/>
<polygon fill="#9a32cd" stroke="#9a32cd" points="604.27,-150.7 593.89,-152.85 603.34,-157.64 604.27,-150.7"/>
</a>
</g>
<text text-anchor="middle" x="830.5" y="-206.49" font-family="Helvetica,sans-Serif" font-size="10.00" fill="grey"> m_nameSubLengths</text>
</g>
<!-- Node33&#45;&gt;Node32 -->
<g id="edge44_Node000032_Node000033" class="edge">
<title>Node33&#45;&gt;Node32</title>
<g id="a_edge44_Node000032_Node000033"><a xlink:title=" ">
<path fill="none" stroke="orange" stroke-dasharray="5,2" d="M220.07,-163.68C290.92,-159.86 416.95,-153.07 487.5,-149.26"/>
<polygon fill="orange" stroke="orange" points="220.07,-160.17 210.28,-164.21 220.45,-167.16 220.07,-160.17"/>
</a>
</g>
<text text-anchor="middle" x="287" y="-165.49" font-family="Helvetica,sans-Serif" font-size="10.00" fill="grey"> &lt; size_t &gt;</text>
</g>
</g>
</svg>
