<?xml version="1.0" encoding="UTF-8" standalone="no"?>
<!DOCTYPE svg PUBLIC "-//W3C//DTD SVG 1.1//EN"
 "http://www.w3.org/Graphics/SVG/1.1/DTD/svg11.dtd">
<!-- Generated by graphviz version 7.0.1 (20221109.1506)
 -->
<!-- Title: Harlinn::Common::Core::Logging::Sinks::TextSinkOptions Pages: 1 -->
<svg width="894pt" height="112pt"
 viewBox="0.00 0.00 894.00 112.00" xmlns="http://www.w3.org/2000/svg" xmlns:xlink="http://www.w3.org/1999/xlink">
<g id="graph0" class="graph" transform="scale(1 1) rotate(0) translate(4 108)">
<title>Harlinn::Common::Core::Logging::Sinks::TextSinkOptions</title>
<!-- Node1 -->
<g id="Node000001" class="node">
<title>Node1</title>
<g id="a_Node000001"><a xlink:title=" ">
<polygon fill="#999999" stroke="#666666" points="886,-80 721,-80 721,-50 886,-50 886,-80"/>
<text text-anchor="start" x="729" y="-68" font-family="Helvetica,sans-Serif" font-size="10.00">Harlinn::Common::Core</text>
<text text-anchor="middle" x="803.5" y="-57" font-family="Helvetica,sans-Serif" font-size="10.00">::Logging::Sinks::TextSinkOptions</text>
</a>
</g>
</g>
<!-- Node2 -->
<g id="Node000002" class="node">
<title>Node2</title>
<g id="a_Node000002"><a xlink:title=" ">
<polygon fill="white" stroke="#666666" points="640,-104 488,-104 488,-74 640,-74 640,-104"/>
<text text-anchor="start" x="496" y="-92" font-family="Helvetica,sans-Serif" font-size="10.00">std::enable_shared</text>
<text text-anchor="middle" x="564" y="-81" font-family="Helvetica,sans-Serif" font-size="10.00">_from_this&lt; TextSinkOptions &gt;</text>
</a>
</g>
</g>
<!-- Node2&#45;&gt;Node1 -->
<g id="edge1_Node000001_Node000002" class="edge">
<title>Node2&#45;&gt;Node1</title>
<g id="a_edge1_Node000001_Node000002"><a xlink:title=" ">
<path fill="none" stroke="#8b1a1a" d="M651.72,-80.24C674.23,-77.96 698.4,-75.52 720.64,-73.27"/>
<polygon fill="#8b1a1a" stroke="#8b1a1a" points="651.58,-76.73 641.98,-81.22 652.28,-83.7 651.58,-76.73"/>
</a>
</g>
</g>
<!-- Node3 -->
<g id="Node000003" class="node">
<title>Node3</title>
<g id="a_Node000003"><a xlink:href="class_harlinn_1_1_common_1_1_core_1_1_basic_string.xhtml" target="_top" xlink:title=" ">
<polygon fill="white" stroke="#666666" points="626.5,-56 501.5,-56 501.5,-26 626.5,-26 626.5,-56"/>
<text text-anchor="start" x="509.5" y="-44" font-family="Helvetica,sans-Serif" font-size="10.00">Harlinn::Common::Core</text>
<text text-anchor="middle" x="564" y="-33" font-family="Helvetica,sans-Serif" font-size="10.00">::BasicString&lt; wchar_t &gt;</text>
</a>
</g>
</g>
<!-- Node3&#45;&gt;Node1 -->
<g id="edge2_Node000001_Node000003" class="edge">
<title>Node3&#45;&gt;Node1</title>
<g id="a_edge2_Node000001_Node000003"><a xlink:title=" ">
<path fill="none" stroke="#9a32cd" stroke-dasharray="5,2" d="M638.16,-48.39C664.35,-51.04 694.03,-54.04 720.9,-56.75"/>
<polygon fill="#9a32cd" stroke="#9a32cd" points="638.59,-44.92 628.29,-47.4 637.88,-51.88 638.59,-44.92"/>
</a>
</g>
<text text-anchor="middle" x="680.5" y="-57" font-family="Helvetica,sans-Serif" font-size="10.00" fill="grey"> filename_</text>
</g>
<!-- Node4 -->
<g id="Node000004" class="node">
<title>Node4</title>
<g id="a_Node000004"><a xlink:href="struct_harlinn_1_1_common_1_1_core_1_1_internal_1_1_data.xhtml" target="_top" xlink:title=" ">
<polygon fill="white" stroke="#666666" points="215,-56 97,-56 97,-26 215,-26 215,-56"/>
<text text-anchor="start" x="105" y="-44" font-family="Helvetica,sans-Serif" font-size="10.00">Harlinn::Common::Core</text>
<text text-anchor="middle" x="156" y="-33" font-family="Helvetica,sans-Serif" font-size="10.00">::Internal::Data&lt; T &gt;</text>
</a>
</g>
</g>
<!-- Node4&#45;&gt;Node3 -->
<g id="edge3_Node000003_Node000004" class="edge">
<title>Node4&#45;&gt;Node3</title>
<g id="a_edge3_Node000003_Node000004"><a xlink:title=" ">
<path fill="none" stroke="#9a32cd" stroke-dasharray="5,2" d="M226.8,-44.82C228.89,-44.88 230.96,-44.95 233,-45 338.3,-47.77 364.69,-47.26 470,-45 480.1,-44.78 490.81,-44.43 501.23,-44.03"/>
<polygon fill="#9a32cd" stroke="#9a32cd" points="227.13,-41.33 217,-44.45 226.87,-48.32 227.13,-41.33"/>
</a>
</g>
<text text-anchor="middle" x="338" y="-49" font-family="Helvetica,sans-Serif" font-size="10.00" fill="grey"> data_</text>
</g>
<!-- Node6 -->
<g id="Node000006" class="node">
<title>Node6</title>
<g id="a_Node000006"><a xlink:href="class_harlinn_1_1_common_1_1_core_1_1_basic_string.xhtml" target="_top" xlink:title="This is a reference counted string class.">
<polygon fill="white" stroke="#666666" points="397,-30 279,-30 279,0 397,0 397,-30"/>
<text text-anchor="start" x="287" y="-18" font-family="Helvetica,sans-Serif" font-size="10.00">Harlinn::Common::Core</text>
<text text-anchor="middle" x="338" y="-7" font-family="Helvetica,sans-Serif" font-size="10.00">::BasicString&lt; T &gt;</text>
</a>
</g>
</g>
<!-- Node4&#45;&gt;Node6 -->
<g id="edge6_Node000006_Node000004" class="edge">
<title>Node4&#45;&gt;Node6</title>
<g id="a_edge6_Node000006_Node000004"><a xlink:title=" ">
<path fill="none" stroke="#9a32cd" stroke-dasharray="5,2" d="M226.55,-30.95C243.73,-28.47 261.95,-25.84 278.54,-23.44"/>
<polygon fill="#9a32cd" stroke="#9a32cd" points="226.34,-27.45 216.94,-32.34 227.34,-34.38 226.34,-27.45"/>
</a>
</g>
<text text-anchor="middle" x="247" y="-33" font-family="Helvetica,sans-Serif" font-size="10.00" fill="grey"> data_</text>
</g>
<!-- Node5 -->
<g id="Node000005" class="node">
<title>Node5</title>
<g id="a_Node000005"><a xlink:title=" ">
<polygon fill="white" stroke="#666666" points="29,-50.5 0,-50.5 0,-31.5 29,-31.5 29,-50.5"/>
<text text-anchor="middle" x="14.5" y="-38.5" font-family="Helvetica,sans-Serif" font-size="10.00">T</text>
</a>
</g>
</g>
<!-- Node5&#45;&gt;Node4 -->
<g id="edge4_Node000004_Node000005" class="edge">
<title>Node5&#45;&gt;Node4</title>
<g id="a_edge4_Node000004_Node000005"><a xlink:title=" ">
<path fill="none" stroke="#9a32cd" stroke-dasharray="5,2" d="M40.72,-41C56.38,-41 77.19,-41 96.76,-41"/>
<polygon fill="#9a32cd" stroke="#9a32cd" points="40.9,-37.5 30.9,-41 40.9,-44.5 40.9,-37.5"/>
</a>
</g>
<text text-anchor="middle" x="63" y="-44" font-family="Helvetica,sans-Serif" font-size="10.00" fill="grey"> buffer_</text>
</g>
<!-- Node6&#45;&gt;Node3 -->
<g id="edge5_Node000003_Node000006" class="edge">
<title>Node6&#45;&gt;Node3</title>
<g id="a_edge5_Node000003_Node000006"><a xlink:title=" ">
<path fill="none" stroke="orange" stroke-dasharray="5,2" d="M408.38,-23.05C438.02,-26.49 472.34,-30.48 501.1,-33.82"/>
<polygon fill="orange" stroke="orange" points="409.11,-19.61 398.77,-21.94 408.3,-26.57 409.11,-19.61"/>
</a>
</g>
<text text-anchor="middle" x="442.5" y="-33" font-family="Helvetica,sans-Serif" font-size="10.00" fill="grey"> &lt; wchar_t &gt;</text>
</g>
</g>
</svg>
