<?xml version="1.0" encoding="UTF-8" standalone="no"?>
<!DOCTYPE svg PUBLIC "-//W3C//DTD SVG 1.1//EN"
 "http://www.w3.org/Graphics/SVG/1.1/DTD/svg11.dtd">
<!-- Generated by graphviz version 7.0.1 (20221109.1506)
 -->
<!-- Title: Harlinn::Common::Core::Xml::Dom::ParseError Pages: 1 -->
<svg width="130pt" height="236pt"
 viewBox="0.00 0.00 130.00 236.00" xmlns="http://www.w3.org/2000/svg" xmlns:xlink="http://www.w3.org/1999/xlink">
<g id="graph0" class="graph" transform="scale(1 1) rotate(0) translate(4 232)">
<title>Harlinn::Common::Core::Xml::Dom::ParseError</title>
<!-- Node1 -->
<g id="Node000001" class="node">
<title>Node1</title>
<g id="a_Node000001"><a xlink:title=" ">
<polygon fill="#999999" stroke="#666666" points="120,-96 2,-96 2,-66 120,-66 120,-96"/>
<text text-anchor="start" x="10" y="-84" font-family="Helvetica,sans-Serif" font-size="10.00">Harlinn::Common::Core</text>
<text text-anchor="middle" x="61" y="-73" font-family="Helvetica,sans-Serif" font-size="10.00">::Xml::Dom::ParseError</text>
</a>
</g>
</g>
<!-- Node4 -->
<g id="Node000004" class="node">
<title>Node4</title>
<g id="a_Node000004"><a xlink:href="class_harlinn_1_1_common_1_1_core_1_1_xml_1_1_dom_1_1_parse_error2.xhtml" target="_top" xlink:title=" ">
<polygon fill="white" stroke="#666666" points="122,-30 0,-30 0,0 122,0 122,-30"/>
<text text-anchor="start" x="8" y="-18" font-family="Helvetica,sans-Serif" font-size="10.00">Harlinn::Common::Core</text>
<text text-anchor="middle" x="61" y="-7" font-family="Helvetica,sans-Serif" font-size="10.00">::Xml::Dom::ParseError2</text>
</a>
</g>
</g>
<!-- Node1&#45;&gt;Node4 -->
<g id="edge3_Node000001_Node000004" class="edge">
<title>Node1&#45;&gt;Node4</title>
<g id="a_edge3_Node000001_Node000004"><a xlink:title=" ">
<path fill="none" stroke="#63b8ff" d="M61,-54.39C61,-46.13 61,-37.28 61,-30.16"/>
<polygon fill="#63b8ff" stroke="#63b8ff" points="57.5,-54.28 61,-64.28 64.5,-54.28 57.5,-54.28"/>
</a>
</g>
</g>
<!-- Node2 -->
<g id="Node000002" class="node">
<title>Node2</title>
<g id="a_Node000002"><a xlink:href="class_harlinn_1_1_common_1_1_core_1_1_dispatch.xhtml" target="_top" xlink:title="Exposes objects, methods and properties to programming tools and other applications that support Auto...">
<polygon fill="white" stroke="#666666" points="120,-162 2,-162 2,-132 120,-132 120,-162"/>
<text text-anchor="start" x="10" y="-150" font-family="Helvetica,sans-Serif" font-size="10.00">Harlinn::Common::Core</text>
<text text-anchor="middle" x="61" y="-139" font-family="Helvetica,sans-Serif" font-size="10.00">::Dispatch</text>
</a>
</g>
</g>
<!-- Node2&#45;&gt;Node1 -->
<g id="edge1_Node000001_Node000002" class="edge">
<title>Node2&#45;&gt;Node1</title>
<g id="a_edge1_Node000001_Node000002"><a xlink:title=" ">
<path fill="none" stroke="#63b8ff" d="M61,-120.39C61,-112.13 61,-103.28 61,-96.16"/>
<polygon fill="#63b8ff" stroke="#63b8ff" points="57.5,-120.28 61,-130.28 64.5,-120.28 57.5,-120.28"/>
</a>
</g>
</g>
<!-- Node3 -->
<g id="Node000003" class="node">
<title>Node3</title>
<g id="a_Node000003"><a xlink:href="class_harlinn_1_1_common_1_1_core_1_1_unknown.xhtml" target="_top" xlink:title=" ">
<polygon fill="white" stroke="#666666" points="120,-228 2,-228 2,-198 120,-198 120,-228"/>
<text text-anchor="start" x="10" y="-216" font-family="Helvetica,sans-Serif" font-size="10.00">Harlinn::Common::Core</text>
<text text-anchor="middle" x="61" y="-205" font-family="Helvetica,sans-Serif" font-size="10.00">::Unknown</text>
</a>
</g>
</g>
<!-- Node3&#45;&gt;Node2 -->
<g id="edge2_Node000002_Node000003" class="edge">
<title>Node3&#45;&gt;Node2</title>
<g id="a_edge2_Node000002_Node000003"><a xlink:title=" ">
<path fill="none" stroke="#63b8ff" d="M61,-186.39C61,-178.13 61,-169.28 61,-162.16"/>
<polygon fill="#63b8ff" stroke="#63b8ff" points="57.5,-186.28 61,-196.28 64.5,-186.28 57.5,-186.28"/>
</a>
</g>
</g>
</g>
</svg>
