<?xml version="1.0" encoding="UTF-8" standalone="no"?>
<!DOCTYPE svg PUBLIC "-//W3C//DTD SVG 1.1//EN"
 "http://www.w3.org/Graphics/SVG/1.1/DTD/svg11.dtd">
<!-- Generated by graphviz version 7.0.1 (20221109.1506)
 -->
<!-- Title: Harlinn::Common::Core::LMDBEx::IndexInfo Pages: 1 -->
<svg width="638pt" height="108pt"
 viewBox="0.00 0.00 638.00 108.00" xmlns="http://www.w3.org/2000/svg" xmlns:xlink="http://www.w3.org/1999/xlink">
<g id="graph0" class="graph" transform="scale(1 1) rotate(0) translate(4 104)">
<title>Harlinn::Common::Core::LMDBEx::IndexInfo</title>
<!-- Node1 -->
<g id="Node000001" class="node">
<title>Node1</title>
<g id="a_Node000001"><a xlink:title="IndexInfo.">
<polygon fill="#999999" stroke="#666666" points="282,-64.5 164,-64.5 164,-34.5 282,-34.5 282,-64.5"/>
<text text-anchor="start" x="172" y="-52.5" font-family="Helvetica,sans-Serif" font-size="10.00">Harlinn::Common::Core</text>
<text text-anchor="middle" x="223" y="-41.5" font-family="Helvetica,sans-Serif" font-size="10.00">::LMDBEx::IndexInfo</text>
</a>
</g>
</g>
<!-- Node3 -->
<g id="Node000003" class="node">
<title>Node3</title>
<g id="a_Node000003"><a xlink:href="class_harlinn_1_1_common_1_1_core_1_1_l_m_d_b_ex_1_1_hash_index_info.html" target="_top" xlink:title="HashIndexInfo.">
<polygon fill="white" stroke="#666666" points="446,-100 318,-100 318,-59 446,-59 446,-100"/>
<text text-anchor="start" x="326" y="-88" font-family="Helvetica,sans-Serif" font-size="10.00">Harlinn::Common::Core</text>
<text text-anchor="start" x="326" y="-77" font-family="Helvetica,sans-Serif" font-size="10.00">::LMDBEx::HashIndexInfo</text>
<text text-anchor="middle" x="382" y="-66" font-family="Helvetica,sans-Serif" font-size="10.00">&lt; PrimaryKeyT &gt;</text>
</a>
</g>
</g>
<!-- Node1&#45;&gt;Node3 -->
<g id="edge2_Node000001_Node000003" class="edge">
<title>Node1&#45;&gt;Node3</title>
<g id="a_edge2_Node000001_Node000003"><a xlink:title=" ">
<path fill="none" stroke="#63b8ff" d="M293.67,-62.81C301.69,-64.34 309.83,-65.9 317.75,-67.41"/>
<polygon fill="#63b8ff" stroke="#63b8ff" points="294.43,-59.39 283.95,-60.95 293.11,-66.27 294.43,-59.39"/>
</a>
</g>
</g>
<!-- Node5 -->
<g id="Node000005" class="node">
<title>Node5</title>
<g id="a_Node000005"><a xlink:href="class_harlinn_1_1_common_1_1_core_1_1_l_m_d_b_ex_1_1_index_info_t.html" target="_top" xlink:title=" ">
<polygon fill="white" stroke="#666666" points="441,-41 323,-41 323,0 441,0 441,-41"/>
<text text-anchor="start" x="331" y="-29" font-family="Helvetica,sans-Serif" font-size="10.00">Harlinn::Common::Core</text>
<text text-anchor="start" x="331" y="-18" font-family="Helvetica,sans-Serif" font-size="10.00">::LMDBEx::IndexInfoT</text>
<text text-anchor="middle" x="382" y="-7" font-family="Helvetica,sans-Serif" font-size="10.00">&lt; IndexT &gt;</text>
</a>
</g>
</g>
<!-- Node1&#45;&gt;Node5 -->
<g id="edge4_Node000001_Node000005" class="edge">
<title>Node1&#45;&gt;Node5</title>
<g id="a_edge4_Node000001_Node000005"><a xlink:title=" ">
<path fill="none" stroke="#63b8ff" d="M293.72,-36.62C303.42,-34.83 313.3,-33.01 322.75,-31.26"/>
<polygon fill="#63b8ff" stroke="#63b8ff" points="293.15,-33.17 283.95,-38.43 294.42,-40.05 293.15,-33.17"/>
</a>
</g>
</g>
<!-- Node2 -->
<g id="Node000002" class="node">
<title>Node2</title>
<g id="a_Node000002"><a xlink:href="class_harlinn_1_1_common_1_1_core_1_1_l_m_d_b_ex_1_1_table_info_base.html" target="_top" xlink:title="TableInfoBase.">
<polygon fill="white" stroke="#666666" points="128,-64.5 0,-64.5 0,-34.5 128,-34.5 128,-64.5"/>
<text text-anchor="start" x="8" y="-52.5" font-family="Helvetica,sans-Serif" font-size="10.00">Harlinn::Common::Core</text>
<text text-anchor="middle" x="64" y="-41.5" font-family="Helvetica,sans-Serif" font-size="10.00">::LMDBEx::TableInfoBase</text>
</a>
</g>
</g>
<!-- Node2&#45;&gt;Node1 -->
<g id="edge1_Node000001_Node000002" class="edge">
<title>Node2&#45;&gt;Node1</title>
<g id="a_edge1_Node000001_Node000002"><a xlink:title=" ">
<path fill="none" stroke="#63b8ff" d="M139.72,-49.5C147.77,-49.5 155.87,-49.5 163.69,-49.5"/>
<polygon fill="#63b8ff" stroke="#63b8ff" points="139.92,-46 129.92,-49.5 139.92,-53 139.92,-46"/>
</a>
</g>
</g>
<!-- Node4 -->
<g id="Node000004" class="node">
<title>Node4</title>
<g id="a_Node000004"><a xlink:href="class_harlinn_1_1_common_1_1_core_1_1_l_m_d_b_ex_1_1_hash_index_info_t.html" target="_top" xlink:title=" ">
<polygon fill="white" stroke="#666666" points="630,-100 482,-100 482,-59 630,-59 630,-100"/>
<text text-anchor="start" x="490" y="-88" font-family="Helvetica,sans-Serif" font-size="10.00">Harlinn::Common::Core</text>
<text text-anchor="start" x="490" y="-77" font-family="Helvetica,sans-Serif" font-size="10.00">::LMDBEx::HashIndexInfoT</text>
<text text-anchor="middle" x="556" y="-66" font-family="Helvetica,sans-Serif" font-size="10.00">&lt; HashIndexT, PrimaryKeyT &gt;</text>
</a>
</g>
</g>
<!-- Node3&#45;&gt;Node4 -->
<g id="edge3_Node000003_Node000004" class="edge">
<title>Node3&#45;&gt;Node4</title>
<g id="a_edge3_Node000003_Node000004"><a xlink:title=" ">
<path fill="none" stroke="#63b8ff" d="M457.37,-79.5C465.45,-79.5 473.67,-79.5 481.74,-79.5"/>
<polygon fill="#63b8ff" stroke="#63b8ff" points="457.58,-76 447.58,-79.5 457.58,-83 457.58,-76"/>
</a>
</g>
</g>
</g>
</svg>
