<?xml version="1.0" encoding="UTF-8" standalone="no"?>
<!DOCTYPE svg PUBLIC "-//W3C//DTD SVG 1.1//EN"
 "http://www.w3.org/Graphics/SVG/1.1/DTD/svg11.dtd">
<!-- Generated by graphviz version 7.0.1 (20221109.1506)
 -->
<!-- Title: Harlinn::OCI::DescriptorBaseBind Pages: 1 -->
<svg width="1491pt" height="127pt"
 viewBox="0.00 0.00 1491.00 127.17" xmlns="http://www.w3.org/2000/svg" xmlns:xlink="http://www.w3.org/1999/xlink">
<g id="graph0" class="graph" transform="scale(1 1) rotate(0) translate(4 123.17)">
<title>Harlinn::OCI::DescriptorBaseBind</title>
<!-- Node1 -->
<g id="Node000001" class="node">
<title>Node1</title>
<g id="a_Node000001"><a xlink:title="DescriptorBaseBind.">
<polygon fill="#999999" stroke="#666666" points="570,-77.5 451,-77.5 451,-47.5 570,-47.5 570,-77.5"/>
<text text-anchor="start" x="459" y="-65.5" font-family="Helvetica,sans-Serif" font-size="10.00">Harlinn::OCI::Descriptor</text>
<text text-anchor="middle" x="510.5" y="-54.5" font-family="Helvetica,sans-Serif" font-size="10.00">BaseBind</text>
</a>
</g>
</g>
<!-- Node5 -->
<g id="Node000005" class="node">
<title>Node5</title>
<g id="a_Node000005"><a xlink:href="class_harlinn_1_1_o_c_i_1_1_descriptor_bind.xhtml" target="_top" xlink:title=" ">
<polygon fill="white" stroke="#666666" points="1079,-109 909,-109 909,-68 1079,-68 1079,-109"/>
<text text-anchor="start" x="917" y="-97" font-family="Helvetica,sans-Serif" font-size="10.00">Harlinn::OCI::Descriptor</text>
<text text-anchor="start" x="917" y="-86" font-family="Helvetica,sans-Serif" font-size="10.00">Bind&lt; OCILobLocator, OCI</text>
<text text-anchor="middle" x="994" y="-75" font-family="Helvetica,sans-Serif" font-size="10.00">::HandleType::LOB, externalType &gt;</text>
</a>
</g>
</g>
<!-- Node1&#45;&gt;Node5 -->
<g id="edge4_Node000001_Node000005" class="edge">
<title>Node1&#45;&gt;Node5</title>
<g id="a_edge4_Node000001_Node000005"><a xlink:title=" ">
<path fill="none" stroke="#63b8ff" d="M565.74,-81.42C579.1,-85.56 593.46,-89.57 607,-92.5 730.64,-119.26 765.27,-125.5 891,-111.5 896.77,-110.86 902.7,-110.02 908.64,-109.04"/>
<polygon fill="#63b8ff" stroke="#63b8ff" points="566.82,-78.09 556.23,-78.4 564.7,-84.76 566.82,-78.09"/>
</a>
</g>
</g>
<!-- Node8 -->
<g id="Node000008" class="node">
<title>Node8</title>
<g id="a_Node000008"><a xlink:href="class_harlinn_1_1_o_c_i_1_1_descriptor_bind.xhtml" target="_top" xlink:title=" ">
<polygon fill="white" stroke="#666666" points="1074.5,-41 913.5,-41 913.5,0 1074.5,0 1074.5,-41"/>
<text text-anchor="start" x="921.5" y="-29" font-family="Helvetica,sans-Serif" font-size="10.00">Harlinn::OCI::Descriptor</text>
<text text-anchor="start" x="921.5" y="-18" font-family="Helvetica,sans-Serif" font-size="10.00">Bind&lt; OCIDateTime, handleType,</text>
<text text-anchor="middle" x="994" y="-7" font-family="Helvetica,sans-Serif" font-size="10.00"> externalType &gt;</text>
</a>
</g>
</g>
<!-- Node1&#45;&gt;Node8 -->
<g id="edge7_Node000001_Node000008" class="edge">
<title>Node1&#45;&gt;Node8</title>
<g id="a_edge7_Node000001_Node000008"><a xlink:title=" ">
<path fill="none" stroke="#63b8ff" d="M563.62,-43.51C577.54,-39.17 592.69,-35.07 607,-32.5 711.59,-13.69 834.64,-13.57 913.19,-16.21"/>
<polygon fill="#63b8ff" stroke="#63b8ff" points="562.64,-40.15 554.21,-46.56 564.8,-46.81 562.64,-40.15"/>
</a>
</g>
</g>
<!-- Node10 -->
<g id="Node000010" class="node">
<title>Node10</title>
<g id="a_Node000010"><a xlink:href="class_harlinn_1_1_o_c_i_1_1_descriptor_bind.xhtml" target="_top" xlink:title="DescriptorBind.">
<polygon fill="white" stroke="#666666" points="744,-83 607,-83 607,-42 744,-42 744,-83"/>
<text text-anchor="start" x="615" y="-71" font-family="Helvetica,sans-Serif" font-size="10.00">Harlinn::OCI::Descriptor</text>
<text text-anchor="start" x="615" y="-60" font-family="Helvetica,sans-Serif" font-size="10.00">Bind&lt; OracleT, handleType,</text>
<text text-anchor="middle" x="675.5" y="-49" font-family="Helvetica,sans-Serif" font-size="10.00"> externalType &gt;</text>
</a>
</g>
</g>
<!-- Node1&#45;&gt;Node10 -->
<g id="edge9_Node000001_Node000010" class="edge">
<title>Node1&#45;&gt;Node10</title>
<g id="a_edge9_Node000001_Node000010"><a xlink:title=" ">
<path fill="none" stroke="#63b8ff" d="M581.83,-62.5C590.04,-62.5 598.41,-62.5 606.6,-62.5"/>
<polygon fill="#63b8ff" stroke="#63b8ff" points="581.86,-59 571.86,-62.5 581.86,-66 581.86,-59"/>
</a>
</g>
</g>
<!-- Node2 -->
<g id="Node000002" class="node">
<title>Node2</title>
<g id="a_Node000002"><a xlink:href="class_harlinn_1_1_o_c_i_1_1_bind.xhtml" target="_top" xlink:title="Bind, base class for binding a single value.">
<polygon fill="white" stroke="#666666" points="414,-72 319,-72 319,-53 414,-53 414,-72"/>
<text text-anchor="middle" x="366.5" y="-60" font-family="Helvetica,sans-Serif" font-size="10.00">Harlinn::OCI::Bind</text>
</a>
</g>
</g>
<!-- Node2&#45;&gt;Node1 -->
<g id="edge1_Node000001_Node000002" class="edge">
<title>Node2&#45;&gt;Node1</title>
<g id="a_edge1_Node000001_Node000002"><a xlink:title=" ">
<path fill="none" stroke="#63b8ff" d="M425.74,-62.5C433.91,-62.5 442.32,-62.5 450.5,-62.5"/>
<polygon fill="#63b8ff" stroke="#63b8ff" points="425.9,-59 415.9,-62.5 425.9,-66 425.9,-59"/>
</a>
</g>
</g>
<!-- Node3 -->
<g id="Node000003" class="node">
<title>Node3</title>
<g id="a_Node000003"><a xlink:href="class_harlinn_1_1_o_c_i_1_1_bind_base.xhtml" target="_top" xlink:title="BindBase, base class for binds.">
<polygon fill="white" stroke="#666666" points="282,-72 165,-72 165,-53 282,-53 282,-72"/>
<text text-anchor="middle" x="223.5" y="-60" font-family="Helvetica,sans-Serif" font-size="10.00">Harlinn::OCI::BindBase</text>
</a>
</g>
</g>
<!-- Node3&#45;&gt;Node2 -->
<g id="edge2_Node000002_Node000003" class="edge">
<title>Node3&#45;&gt;Node2</title>
<g id="a_edge2_Node000002_Node000003"><a xlink:title=" ">
<path fill="none" stroke="#63b8ff" d="M293.48,-62.5C302.07,-62.5 310.68,-62.5 318.82,-62.5"/>
<polygon fill="#63b8ff" stroke="#63b8ff" points="293.77,-59 283.77,-62.5 293.77,-66 293.77,-59"/>
</a>
</g>
</g>
<!-- Node4 -->
<g id="Node000004" class="node">
<title>Node4</title>
<g id="a_Node000004"><a xlink:href="class_harlinn_1_1_o_c_i_1_1_handle_base.xhtml" target="_top" xlink:title="Base class for OCI handle wrappers.">
<polygon fill="white" stroke="#666666" points="128,-72 0,-72 0,-53 128,-53 128,-72"/>
<text text-anchor="middle" x="64" y="-60" font-family="Helvetica,sans-Serif" font-size="10.00">Harlinn::OCI::HandleBase</text>
</a>
</g>
</g>
<!-- Node4&#45;&gt;Node3 -->
<g id="edge3_Node000003_Node000004" class="edge">
<title>Node4&#45;&gt;Node3</title>
<g id="a_edge3_Node000003_Node000004"><a xlink:title=" ">
<path fill="none" stroke="#63b8ff" d="M139.58,-62.5C148.01,-62.5 156.51,-62.5 164.69,-62.5"/>
<polygon fill="#63b8ff" stroke="#63b8ff" points="139.67,-59 129.67,-62.5 139.67,-66 139.67,-59"/>
</a>
</g>
</g>
<!-- Node6 -->
<g id="Node000006" class="node">
<title>Node6</title>
<g id="a_Node000006"><a xlink:href="class_harlinn_1_1_o_c_i_1_1_lob_base_bind.xhtml" target="_top" xlink:title="LobBaseBind.">
<polygon fill="white" stroke="#666666" points="1265,-103.5 1132,-103.5 1132,-73.5 1265,-73.5 1265,-103.5"/>
<text text-anchor="start" x="1140" y="-91.5" font-family="Helvetica,sans-Serif" font-size="10.00">Harlinn::OCI::LobBaseBind</text>
<text text-anchor="middle" x="1198.5" y="-80.5" font-family="Helvetica,sans-Serif" font-size="10.00">&lt; externalType &gt;</text>
</a>
</g>
</g>
<!-- Node5&#45;&gt;Node6 -->
<g id="edge5_Node000005_Node000006" class="edge">
<title>Node5&#45;&gt;Node6</title>
<g id="a_edge5_Node000005_Node000006"><a xlink:title=" ">
<path fill="none" stroke="#63b8ff" d="M1090.54,-88.5C1104.48,-88.5 1118.56,-88.5 1131.73,-88.5"/>
<polygon fill="#63b8ff" stroke="#63b8ff" points="1090.93,-85 1080.93,-88.5 1090.93,-92 1090.93,-85"/>
</a>
</g>
</g>
<!-- Node7 -->
<g id="Node000007" class="node">
<title>Node7</title>
<g id="a_Node000007"><a xlink:href="class_harlinn_1_1_o_c_i_1_1_c_lob_base_bind.xhtml" target="_top" xlink:title="CLobBaseBind.">
<polygon fill="white" stroke="#666666" points="1483,-109 1318,-109 1318,-68 1483,-68 1483,-109"/>
<text text-anchor="start" x="1326" y="-97" font-family="Helvetica,sans-Serif" font-size="10.00">Harlinn::OCI::CLobBaseBind</text>
<text text-anchor="start" x="1326" y="-86" font-family="Helvetica,sans-Serif" font-size="10.00">&lt; externalType, characterSetForm</text>
<text text-anchor="middle" x="1400.5" y="-75" font-family="Helvetica,sans-Serif" font-size="10.00">Default &gt;</text>
</a>
</g>
</g>
<!-- Node6&#45;&gt;Node7 -->
<g id="edge6_Node000006_Node000007" class="edge">
<title>Node6&#45;&gt;Node7</title>
<g id="a_edge6_Node000006_Node000007"><a xlink:title=" ">
<path fill="none" stroke="#63b8ff" d="M1276.43,-88.5C1289.92,-88.5 1304.01,-88.5 1317.62,-88.5"/>
<polygon fill="#63b8ff" stroke="#63b8ff" points="1276.78,-85 1266.78,-88.5 1276.78,-92 1276.78,-85"/>
</a>
</g>
</g>
<!-- Node9 -->
<g id="Node000009" class="node">
<title>Node9</title>
<g id="a_Node000009"><a xlink:href="class_harlinn_1_1_o_c_i_1_1_timestamp_base_bind.xhtml" target="_top" xlink:title="TimeStampBaseBind.">
<polygon fill="white" stroke="#666666" points="1281,-35.5 1116,-35.5 1116,-5.5 1281,-5.5 1281,-35.5"/>
<text text-anchor="start" x="1124" y="-23.5" font-family="Helvetica,sans-Serif" font-size="10.00">Harlinn::OCI::TimestampBase</text>
<text text-anchor="middle" x="1198.5" y="-12.5" font-family="Helvetica,sans-Serif" font-size="10.00">Bind&lt; handleType, externalType &gt;</text>
</a>
</g>
</g>
<!-- Node8&#45;&gt;Node9 -->
<g id="edge8_Node000008_Node000009" class="edge">
<title>Node8&#45;&gt;Node9</title>
<g id="a_edge8_Node000008_Node000009"><a xlink:title=" ">
<path fill="none" stroke="#63b8ff" d="M1086.14,-20.5C1095.93,-20.5 1105.84,-20.5 1115.5,-20.5"/>
<polygon fill="#63b8ff" stroke="#63b8ff" points="1086.26,-17 1076.26,-20.5 1086.26,-24 1086.26,-17"/>
</a>
</g>
</g>
<!-- Node10&#45;&gt;Node5 -->
<g id="edge10_Node000010_Node000005" class="edge">
<title>Node10&#45;&gt;Node5</title>
<g id="a_edge10_Node000010_Node000005"><a xlink:title=" ">
<path fill="none" stroke="orange" stroke-dasharray="5,2" d="M755.59,-67.96C796.1,-70.87 846.21,-74.63 891,-78.5 896.76,-79 902.7,-79.53 908.69,-80.08"/>
<polygon fill="orange" stroke="orange" points="755.89,-64.47 745.67,-67.25 755.39,-71.45 755.89,-64.47"/>
</a>
</g>
<text text-anchor="start" x="764.5" y="-103.5" font-family="Helvetica,sans-Serif" font-size="10.00" fill="grey"> &lt; OCILobLocator, OCI</text>
<text text-anchor="start" x="764.5" y="-92.5" font-family="Helvetica,sans-Serif" font-size="10.00" fill="grey">::HandleType::LOB, external</text>
<text text-anchor="middle" x="826.5" y="-81.5" font-family="Helvetica,sans-Serif" font-size="10.00" fill="grey">Type &gt;</text>
</g>
<!-- Node10&#45;&gt;Node8 -->
<g id="edge11_Node000010_Node000008" class="edge">
<title>Node10&#45;&gt;Node8</title>
<g id="a_edge11_Node000010_Node000008"><a xlink:title=" ">
<path fill="none" stroke="orange" stroke-dasharray="5,2" d="M755.78,-44.54C757.87,-44.18 759.95,-43.83 762,-43.5 811.94,-35.49 868.43,-29.81 913.05,-26.1"/>
<polygon fill="orange" stroke="orange" points="755.18,-41.09 745.98,-46.35 756.45,-47.98 755.18,-41.09"/>
</a>
</g>
<text text-anchor="start" x="762" y="-57.5" font-family="Helvetica,sans-Serif" font-size="10.00" fill="grey"> &lt; OCIDateTime, handleType,</text>
<text text-anchor="middle" x="826.5" y="-46.5" font-family="Helvetica,sans-Serif" font-size="10.00" fill="grey"> externalType &gt;</text>
</g>
</g>
</svg>
