<?xml version="1.0" encoding="UTF-8" standalone="no"?>
<!DOCTYPE svg PUBLIC "-//W3C//DTD SVG 1.1//EN"
 "http://www.w3.org/Graphics/SVG/1.1/DTD/svg11.dtd">
<!-- Generated by graphviz version 7.0.1 (20221109.1506)
 -->
<!-- Title: Harlinn::Common::Core::UriTemplateMatchException Pages: 1 -->
<svg width="153pt" height="225pt"
 viewBox="0.00 0.00 153.00 225.00" xmlns="http://www.w3.org/2000/svg" xmlns:xlink="http://www.w3.org/1999/xlink">
<g id="graph0" class="graph" transform="scale(1 1) rotate(0) translate(4 221)">
<title>Harlinn::Common::Core::UriTemplateMatchException</title>
<!-- Node1 -->
<g id="Node000001" class="node">
<title>Node1</title>
<g id="a_Node000001"><a xlink:title=" ">
<polygon fill="#999999" stroke="#666666" points="145,-30 0,-30 0,0 145,0 145,-30"/>
<text text-anchor="start" x="8" y="-18" font-family="Helvetica,sans-Serif" font-size="10.00">Harlinn::Common::Core</text>
<text text-anchor="middle" x="72.5" y="-7" font-family="Helvetica,sans-Serif" font-size="10.00">::UriTemplateMatchException</text>
</a>
</g>
</g>
<!-- Node2 -->
<g id="Node000002" class="node">
<title>Node2</title>
<g id="a_Node000002"><a xlink:href="class_harlinn_1_1_common_1_1_core_1_1_system_exception.html" target="_top" xlink:title=" ">
<polygon fill="white" stroke="#666666" points="131.5,-96 13.5,-96 13.5,-66 131.5,-66 131.5,-96"/>
<text text-anchor="start" x="21.5" y="-84" font-family="Helvetica,sans-Serif" font-size="10.00">Harlinn::Common::Core</text>
<text text-anchor="middle" x="72.5" y="-73" font-family="Helvetica,sans-Serif" font-size="10.00">::SystemException</text>
</a>
</g>
</g>
<!-- Node2&#45;&gt;Node1 -->
<g id="edge1_Node000001_Node000002" class="edge">
<title>Node2&#45;&gt;Node1</title>
<g id="a_edge1_Node000001_Node000002"><a xlink:title=" ">
<path fill="none" stroke="#63b8ff" d="M72.5,-54.39C72.5,-46.13 72.5,-37.28 72.5,-30.16"/>
<polygon fill="#63b8ff" stroke="#63b8ff" points="69,-54.28 72.5,-64.28 76,-54.28 69,-54.28"/>
</a>
</g>
</g>
<!-- Node3 -->
<g id="Node000003" class="node">
<title>Node3</title>
<g id="a_Node000003"><a xlink:href="class_harlinn_1_1_common_1_1_core_1_1_exception.html" target="_top" xlink:title=" ">
<polygon fill="white" stroke="#666666" points="131.5,-162 13.5,-162 13.5,-132 131.5,-132 131.5,-162"/>
<text text-anchor="start" x="21.5" y="-150" font-family="Helvetica,sans-Serif" font-size="10.00">Harlinn::Common::Core</text>
<text text-anchor="middle" x="72.5" y="-139" font-family="Helvetica,sans-Serif" font-size="10.00">::Exception</text>
</a>
</g>
</g>
<!-- Node3&#45;&gt;Node2 -->
<g id="edge2_Node000002_Node000003" class="edge">
<title>Node3&#45;&gt;Node2</title>
<g id="a_edge2_Node000002_Node000003"><a xlink:title=" ">
<path fill="none" stroke="#63b8ff" d="M72.5,-120.39C72.5,-112.13 72.5,-103.28 72.5,-96.16"/>
<polygon fill="#63b8ff" stroke="#63b8ff" points="69,-120.28 72.5,-130.28 76,-120.28 69,-120.28"/>
</a>
</g>
</g>
<!-- Node4 -->
<g id="Node000004" class="node">
<title>Node4</title>
<g id="a_Node000004"><a xlink:title=" ">
<polygon fill="white" stroke="#666666" points="111.5,-217 33.5,-217 33.5,-198 111.5,-198 111.5,-217"/>
<text text-anchor="middle" x="72.5" y="-205" font-family="Helvetica,sans-Serif" font-size="10.00">std::exception</text>
</a>
</g>
</g>
<!-- Node4&#45;&gt;Node3 -->
<g id="edge3_Node000003_Node000004" class="edge">
<title>Node4&#45;&gt;Node3</title>
<g id="a_edge3_Node000003_Node000004"><a xlink:title=" ">
<path fill="none" stroke="#63b8ff" d="M72.5,-186.51C72.5,-178.49 72.5,-169.43 72.5,-162.11"/>
<polygon fill="#63b8ff" stroke="#63b8ff" points="69,-186.35 72.5,-196.35 76,-186.35 69,-186.35"/>
</a>
</g>
</g>
</g>
</svg>
