<?xml version="1.0" encoding="UTF-8" standalone="no"?>
<!DOCTYPE svg PUBLIC "-//W3C//DTD SVG 1.1//EN"
 "http://www.w3.org/Graphics/SVG/1.1/DTD/svg11.dtd">
<!-- Generated by graphviz version 7.0.1 (20221109.1506)
 -->
<!-- Title: Harlinn::Common::Core::IO::Sockets::Tcp::Server::ConnectionHandler&lt; DerivedT, ListenerHandlerT, RequestsPoolT &gt; Pages: 1 -->
<svg width="1398pt" height="400pt"
 viewBox="0.00 0.00 1398.00 400.00" xmlns="http://www.w3.org/2000/svg" xmlns:xlink="http://www.w3.org/1999/xlink">
<g id="graph0" class="graph" transform="scale(1 1) rotate(0) translate(4 396)">
<title>Harlinn::Common::Core::IO::Sockets::Tcp::Server::ConnectionHandler&lt; DerivedT, ListenerHandlerT, RequestsPoolT &gt;</title>
<!-- Node1 -->
<g id="Node000001" class="node">
<title>Node1</title>
<g id="a_Node000001"><a xlink:title=" ">
<polygon fill="#999999" stroke="#666666" points="1390,-227.5 1217,-227.5 1217,-175.5 1390,-175.5 1390,-227.5"/>
<text text-anchor="start" x="1225" y="-215.5" font-family="Helvetica,sans-Serif" font-size="10.00">Harlinn::Common::Core</text>
<text text-anchor="start" x="1225" y="-204.5" font-family="Helvetica,sans-Serif" font-size="10.00">::IO::Sockets::Tcp::Server</text>
<text text-anchor="start" x="1225" y="-193.5" font-family="Helvetica,sans-Serif" font-size="10.00">::ConnectionHandler&lt; DerivedT,</text>
<text text-anchor="middle" x="1303.5" y="-182.5" font-family="Helvetica,sans-Serif" font-size="10.00"> ListenerHandlerT, RequestsPoolT &gt;</text>
</a>
</g>
</g>
<!-- Node2 -->
<g id="Node000002" class="node">
<title>Node2</title>
<g id="a_Node000002"><a xlink:href="class_harlinn_1_1_common_1_1_core_1_1_i_o_1_1_sockets_1_1_socket_handler.xhtml" target="_top" xlink:title="Classes derived from this template are used to implement asynchronous operations on sockets.">
<polygon fill="white" stroke="#666666" points="1070.5,-392 926.5,-392 926.5,-351 1070.5,-351 1070.5,-392"/>
<text text-anchor="start" x="934.5" y="-380" font-family="Helvetica,sans-Serif" font-size="10.00">Harlinn::Common::Core</text>
<text text-anchor="start" x="934.5" y="-369" font-family="Helvetica,sans-Serif" font-size="10.00">::IO::Sockets::SocketHandler</text>
<text text-anchor="middle" x="998.5" y="-358" font-family="Helvetica,sans-Serif" font-size="10.00">&lt; DerivedT &gt;</text>
</a>
</g>
</g>
<!-- Node2&#45;&gt;Node1 -->
<g id="edge1_Node000001_Node000002" class="edge">
<title>Node2&#45;&gt;Node1</title>
<g id="a_edge1_Node000001_Node000002"><a xlink:title=" ">
<path fill="none" stroke="#63b8ff" d="M1081.58,-356.46C1119.27,-347.1 1163.4,-332.52 1199,-310.5 1234.06,-288.81 1265.27,-252.37 1284.03,-227.65"/>
<polygon fill="#63b8ff" stroke="#63b8ff" points="1081,-352.99 1072.09,-358.72 1082.63,-359.8 1081,-352.99"/>
</a>
</g>
</g>
<!-- Node3 -->
<g id="Node000003" class="node">
<title>Node3</title>
<g id="a_Node000003"><a xlink:title=" ">
<polygon fill="white" stroke="#666666" points="694.5,-381 611.5,-381 611.5,-362 694.5,-362 694.5,-381"/>
<text text-anchor="middle" x="653" y="-369" font-family="Helvetica,sans-Serif" font-size="10.00">ContextHandler</text>
</a>
</g>
</g>
<!-- Node3&#45;&gt;Node2 -->
<g id="edge2_Node000002_Node000003" class="edge">
<title>Node3&#45;&gt;Node2</title>
<g id="a_edge2_Node000002_Node000003"><a xlink:title=" ">
<path fill="none" stroke="#63b8ff" d="M705.97,-371.5C764.61,-371.5 860.37,-371.5 926.03,-371.5"/>
<polygon fill="#63b8ff" stroke="#63b8ff" points="706.27,-368 696.27,-371.5 706.27,-375 706.27,-368"/>
</a>
</g>
</g>
<!-- Node4 -->
<g id="Node000004" class="node">
<title>Node4</title>
<g id="a_Node000004"><a xlink:href="class_harlinn_1_1_common_1_1_core_1_1_i_o_1_1_sockets_1_1_tcp_socket.xhtml" target="_top" xlink:title="Encapsulates a TCP socket descriptor.">
<polygon fill="white" stroke="#666666" points="1062,-332.5 935,-332.5 935,-302.5 1062,-302.5 1062,-332.5"/>
<text text-anchor="start" x="943" y="-320.5" font-family="Helvetica,sans-Serif" font-size="10.00">Harlinn::Common::Core</text>
<text text-anchor="middle" x="998.5" y="-309.5" font-family="Helvetica,sans-Serif" font-size="10.00">::IO::Sockets::TcpSocket</text>
</a>
</g>
</g>
<!-- Node4&#45;&gt;Node1 -->
<g id="edge3_Node000001_Node000004" class="edge">
<title>Node4&#45;&gt;Node1</title>
<g id="a_edge3_Node000001_Node000004"><a xlink:title=" ">
<path fill="none" stroke="#9a32cd" stroke-dasharray="5,2" d="M1073.24,-303.23C1111.62,-294.49 1158.8,-281.65 1199,-264.5 1222.02,-254.68 1246.01,-240.37 1265.08,-227.88"/>
<polygon fill="#9a32cd" stroke="#9a32cd" points="1072.62,-299.78 1063.62,-305.37 1074.15,-306.62 1072.62,-299.78"/>
</a>
</g>
<text text-anchor="middle" x="1149" y="-298.5" font-family="Helvetica,sans-Serif" font-size="10.00" fill="grey"> socket_</text>
</g>
<!-- Node5 -->
<g id="Node000005" class="node">
<title>Node5</title>
<g id="a_Node000005"><a xlink:href="class_harlinn_1_1_common_1_1_core_1_1_i_o_1_1_sockets_1_1_socket_t.xhtml" target="_top" xlink:title="Specializes a Socket for a particular SocketType and a particular ProtocolType.">
<polygon fill="white" stroke="#666666" points="725.5,-332.5 580.5,-332.5 580.5,-302.5 725.5,-302.5 725.5,-332.5"/>
<text text-anchor="start" x="588.5" y="-320.5" font-family="Helvetica,sans-Serif" font-size="10.00">StreamSocket&lt; ProtocolType</text>
<text text-anchor="middle" x="653" y="-309.5" font-family="Helvetica,sans-Serif" font-size="10.00">::Tcp &gt;</text>
</a>
</g>
</g>
<!-- Node5&#45;&gt;Node4 -->
<g id="edge4_Node000004_Node000005" class="edge">
<title>Node5&#45;&gt;Node4</title>
<g id="a_edge4_Node000004_Node000005"><a xlink:title=" ">
<path fill="none" stroke="#63b8ff" d="M737.08,-317.5C797.91,-317.5 879.19,-317.5 934.66,-317.5"/>
<polygon fill="#63b8ff" stroke="#63b8ff" points="737.1,-314 727.1,-317.5 737.1,-321 737.1,-314"/>
</a>
</g>
</g>
<!-- Node6 -->
<g id="Node000006" class="node">
<title>Node6</title>
<g id="a_Node000006"><a xlink:href="class_harlinn_1_1_common_1_1_core_1_1_i_o_1_1_sockets_1_1_socket.xhtml" target="_top" xlink:title="Represents a socket descriptor that is bound to a specific transport&#45;service provider.">
<polygon fill="white" stroke="#666666" points="480,-332.5 362,-332.5 362,-302.5 480,-302.5 480,-332.5"/>
<text text-anchor="start" x="370" y="-320.5" font-family="Helvetica,sans-Serif" font-size="10.00">Harlinn::Common::Core</text>
<text text-anchor="middle" x="421" y="-309.5" font-family="Helvetica,sans-Serif" font-size="10.00">::IO::Sockets::Socket</text>
</a>
</g>
</g>
<!-- Node6&#45;&gt;Node5 -->
<g id="edge5_Node000005_Node000006" class="edge">
<title>Node6&#45;&gt;Node5</title>
<g id="a_edge5_Node000005_Node000006"><a xlink:title=" ">
<path fill="none" stroke="#63b8ff" d="M491.65,-317.5C519.65,-317.5 551.93,-317.5 580.15,-317.5"/>
<polygon fill="#63b8ff" stroke="#63b8ff" points="491.85,-314 481.85,-317.5 491.85,-321 491.85,-314"/>
</a>
</g>
</g>
<!-- Node7 -->
<g id="Node000007" class="node">
<title>Node7</title>
<g id="a_Node000007"><a xlink:href="class_harlinn_1_1_common_1_1_core_1_1_critical_section.xhtml" target="_top" xlink:title="A critical section object provides synchronization similar to that provided by a mutex object,...">
<polygon fill="white" stroke="#666666" points="1057.5,-284.5 939.5,-284.5 939.5,-254.5 1057.5,-254.5 1057.5,-284.5"/>
<text text-anchor="start" x="947.5" y="-272.5" font-family="Helvetica,sans-Serif" font-size="10.00">Harlinn::Common::Core</text>
<text text-anchor="middle" x="998.5" y="-261.5" font-family="Helvetica,sans-Serif" font-size="10.00">::CriticalSection</text>
</a>
</g>
</g>
<!-- Node7&#45;&gt;Node1 -->
<g id="edge6_Node000001_Node000007" class="edge">
<title>Node7&#45;&gt;Node1</title>
<g id="a_edge6_Node000001_Node000007"><a xlink:title=" ">
<path fill="none" stroke="#9a32cd" stroke-dasharray="5,2" d="M1068.81,-256.19C1107.27,-248.56 1155.9,-238.54 1199,-228.5 1204.79,-227.15 1210.75,-225.72 1216.74,-224.24"/>
<polygon fill="#9a32cd" stroke="#9a32cd" points="1068.35,-252.71 1059.21,-258.08 1069.7,-259.58 1068.35,-252.71"/>
</a>
</g>
<text text-anchor="middle" x="1149" y="-252.5" font-family="Helvetica,sans-Serif" font-size="10.00" fill="grey"> criticalSection_</text>
</g>
<!-- Node8 -->
<g id="Node000008" class="node">
<title>Node8</title>
<g id="a_Node000008"><a xlink:title=" ">
<polygon fill="white" stroke="#666666" points="1074.5,-236.5 922.5,-236.5 922.5,-206.5 1074.5,-206.5 1074.5,-236.5"/>
<text text-anchor="start" x="930.5" y="-224.5" font-family="Helvetica,sans-Serif" font-size="10.00">std::weak_ptr&lt; ListenerHandler</text>
<text text-anchor="middle" x="998.5" y="-213.5" font-family="Helvetica,sans-Serif" font-size="10.00">Type &gt;</text>
</a>
</g>
</g>
<!-- Node8&#45;&gt;Node1 -->
<g id="edge7_Node000001_Node000008" class="edge">
<title>Node8&#45;&gt;Node1</title>
<g id="a_edge7_Node000001_Node000008"><a xlink:title=" ">
<path fill="none" stroke="#9a32cd" stroke-dasharray="5,2" d="M1086.11,-215.78C1127.05,-213.08 1175.77,-209.86 1216.62,-207.17"/>
<polygon fill="#9a32cd" stroke="#9a32cd" points="1086.05,-212.28 1076.3,-216.43 1086.51,-219.26 1086.05,-212.28"/>
</a>
</g>
<text text-anchor="middle" x="1149" y="-216.5" font-family="Helvetica,sans-Serif" font-size="10.00" fill="grey"> listener_</text>
</g>
<!-- Node9 -->
<g id="Node000009" class="node">
<title>Node9</title>
<g id="a_Node000009"><a xlink:title=" ">
<polygon fill="white" stroke="#666666" points="702,-227 604,-227 604,-208 702,-208 702,-227"/>
<text text-anchor="middle" x="653" y="-215" font-family="Helvetica,sans-Serif" font-size="10.00">std::weak_ptr&lt; T &gt;</text>
</a>
</g>
</g>
<!-- Node9&#45;&gt;Node8 -->
<g id="edge8_Node000008_Node000009" class="edge">
<title>Node9&#45;&gt;Node8</title>
<g id="a_edge8_Node000008_Node000009"><a xlink:title=" ">
<path fill="none" stroke="orange" stroke-dasharray="5,2" d="M714,-218.2C771.84,-218.87 859.56,-219.89 922.1,-220.62"/>
<polygon fill="orange" stroke="orange" points="714.04,-214.7 704,-218.08 713.96,-221.7 714.04,-214.7"/>
</a>
</g>
<text text-anchor="middle" x="834.5" y="-222.5" font-family="Helvetica,sans-Serif" font-size="10.00" fill="grey"> &lt; ListenerHandlerType &gt;</text>
</g>
<!-- Node10 -->
<g id="Node000010" class="node">
<title>Node10</title>
<g id="a_Node000010"><a xlink:title=" ">
<polygon fill="white" stroke="#666666" points="435.5,-207 406.5,-207 406.5,-188 435.5,-188 435.5,-207"/>
<text text-anchor="middle" x="421" y="-195" font-family="Helvetica,sans-Serif" font-size="10.00">T</text>
</a>
</g>
</g>
<!-- Node10&#45;&gt;Node9 -->
<g id="edge9_Node000009_Node000010" class="edge">
<title>Node10&#45;&gt;Node9</title>
<g id="a_edge9_Node000009_Node000010"><a xlink:title=" ">
<path fill="none" stroke="#9a32cd" stroke-dasharray="5,2" d="M447.04,-199.68C484.57,-202.94 556.11,-209.16 603.94,-213.32"/>
<polygon fill="#9a32cd" stroke="#9a32cd" points="447.47,-196.2 437.21,-198.82 446.87,-203.18 447.47,-196.2"/>
</a>
</g>
<text text-anchor="middle" x="527.5" y="-209.5" font-family="Helvetica,sans-Serif" font-size="10.00" fill="grey"> ptr</text>
</g>
<!-- Node16 -->
<g id="Node000016" class="node">
<title>Node16</title>
<g id="a_Node000016"><a xlink:title=" ">
<polygon fill="white" stroke="#666666" points="697.5,-188 608.5,-188 608.5,-169 697.5,-169 697.5,-188"/>
<text text-anchor="middle" x="653" y="-176" font-family="Helvetica,sans-Serif" font-size="10.00">std::atomic&lt; T &gt;</text>
</a>
</g>
</g>
<!-- Node10&#45;&gt;Node16 -->
<g id="edge17_Node000016_Node000010" class="edge">
<title>Node10&#45;&gt;Node16</title>
<g id="a_edge17_Node000016_Node000010"><a xlink:title=" ">
<path fill="none" stroke="#9a32cd" stroke-dasharray="5,2" d="M446.97,-192.82C466.72,-189.33 495.02,-184.78 520,-182.5 549.34,-179.82 582.48,-178.82 608.22,-178.49"/>
<polygon fill="#9a32cd" stroke="#9a32cd" points="446.6,-189.33 437.38,-194.56 447.84,-196.22 446.6,-189.33"/>
</a>
</g>
<text text-anchor="middle" x="527.5" y="-185.5" font-family="Helvetica,sans-Serif" font-size="10.00" fill="grey"> ptr</text>
</g>
<!-- Node11 -->
<g id="Node000011" class="node">
<title>Node11</title>
<g id="a_Node000011"><a xlink:href="class_harlinn_1_1_common_1_1_core_1_1_i_o_1_1_sockets_1_1_tcp_1_1_server_1_1_connection_handler_requests_pool.xhtml" target="_top" xlink:title=" ">
<polygon fill="white" stroke="#666666" points="1081,-102.5 916,-102.5 916,-50.5 1081,-50.5 1081,-102.5"/>
<text text-anchor="start" x="924" y="-90.5" font-family="Helvetica,sans-Serif" font-size="10.00">Harlinn::Common::Core</text>
<text text-anchor="start" x="924" y="-79.5" font-family="Helvetica,sans-Serif" font-size="10.00">::IO::Sockets::Tcp::Server</text>
<text text-anchor="start" x="924" y="-68.5" font-family="Helvetica,sans-Serif" font-size="10.00">::ConnectionHandlerRequestsPool</text>
<text text-anchor="middle" x="998.5" y="-57.5" font-family="Helvetica,sans-Serif" font-size="10.00">&lt; DerivedT &gt;</text>
</a>
</g>
</g>
<!-- Node11&#45;&gt;Node1 -->
<g id="edge10_Node000001_Node000011" class="edge">
<title>Node11&#45;&gt;Node1</title>
<g id="a_edge10_Node000001_Node000011"><a xlink:title=" ">
<path fill="none" stroke="#9a32cd" stroke-dasharray="5,2" d="M1092.41,-98.16C1126.68,-107.65 1165.34,-120.16 1199,-135.5 1222.66,-146.28 1247.27,-161.78 1266.56,-175.04"/>
<polygon fill="#9a32cd" stroke="#9a32cd" points="1093.48,-94.83 1082.91,-95.59 1091.65,-101.58 1093.48,-94.83"/>
</a>
</g>
<text text-anchor="middle" x="1149" y="-138.5" font-family="Helvetica,sans-Serif" font-size="10.00" fill="grey"> requestsPool_</text>
</g>
<!-- Node12 -->
<g id="Node000012" class="node">
<title>Node12</title>
<g id="a_Node000012"><a xlink:href="class_harlinn_1_1_common_1_1_core_1_1_i_o_1_1_sockets_1_1_requests_pool.xhtml" target="_top" xlink:title=" ">
<polygon fill="white" stroke="#666666" points="502,-100 340,-100 340,-59 502,-59 502,-100"/>
<text text-anchor="start" x="348" y="-88" font-family="Helvetica,sans-Serif" font-size="10.00">Harlinn::Common::Core</text>
<text text-anchor="start" x="348" y="-77" font-family="Helvetica,sans-Serif" font-size="10.00">::IO::Sockets::RequestsPool</text>
<text text-anchor="middle" x="421" y="-66" font-family="Helvetica,sans-Serif" font-size="10.00">&lt; RequestsPoolTypeParams&lt;&gt; &gt;</text>
</a>
</g>
</g>
<!-- Node12&#45;&gt;Node11 -->
<g id="edge11_Node000011_Node000012" class="edge">
<title>Node12&#45;&gt;Node11</title>
<g id="a_edge11_Node000011_Node000012"><a xlink:title=" ">
<path fill="none" stroke="#63b8ff" d="M513.83,-79.27C609.69,-79 764.39,-78.45 898,-77.5 903.7,-77.46 909.58,-77.41 915.51,-77.36"/>
<polygon fill="#63b8ff" stroke="#63b8ff" points="513.94,-75.77 503.95,-79.3 513.96,-82.77 513.94,-75.77"/>
</a>
</g>
</g>
<!-- Node14 -->
<g id="Node000014" class="node">
<title>Node14</title>
<g id="a_Node000014"><a xlink:href="class_harlinn_1_1_common_1_1_core_1_1_i_o_1_1_sockets_1_1_tcp_1_1_server_1_1_connection_handler_requests_pool.xhtml" target="_top" xlink:title=" ">
<polygon fill="white" stroke="#666666" points="753,-63 553,-63 553,0 753,0 753,-63"/>
<text text-anchor="start" x="561" y="-51" font-family="Helvetica,sans-Serif" font-size="10.00">Harlinn::Common::Core</text>
<text text-anchor="start" x="561" y="-40" font-family="Helvetica,sans-Serif" font-size="10.00">::IO::Sockets::Tcp::Server</text>
<text text-anchor="start" x="561" y="-29" font-family="Helvetica,sans-Serif" font-size="10.00">::ConnectionHandlerRequestsPool</text>
<text text-anchor="start" x="561" y="-18" font-family="Helvetica,sans-Serif" font-size="10.00">&lt; ConnectionHandlerT, RequestsPoolType</text>
<text text-anchor="middle" x="653" y="-7" font-family="Helvetica,sans-Serif" font-size="10.00">ParamsT &gt;</text>
</a>
</g>
</g>
<!-- Node12&#45;&gt;Node14 -->
<g id="edge14_Node000014_Node000012" class="edge">
<title>Node12&#45;&gt;Node14</title>
<g id="a_edge14_Node000014_Node000012"><a xlink:title=" ">
<path fill="none" stroke="#63b8ff" d="M513.59,-60.39C526.41,-57.71 539.63,-54.95 552.59,-52.25"/>
<polygon fill="#63b8ff" stroke="#63b8ff" points="513,-56.93 503.92,-62.4 514.43,-63.79 513,-56.93"/>
</a>
</g>
</g>
<!-- Node13 -->
<g id="Node000013" class="node">
<title>Node13</title>
<g id="a_Node000013"><a xlink:href="class_harlinn_1_1_common_1_1_core_1_1_i_o_1_1_sockets_1_1_requests_pool.xhtml" target="_top" xlink:title="This is the implementation of the default RequestsPool. It delegates all operations to instances of r...">
<polygon fill="white" stroke="#666666" points="155,-100 0,-100 0,-59 155,-59 155,-100"/>
<text text-anchor="start" x="8" y="-88" font-family="Helvetica,sans-Serif" font-size="10.00">Harlinn::Common::Core</text>
<text text-anchor="start" x="8" y="-77" font-family="Helvetica,sans-Serif" font-size="10.00">::IO::Sockets::RequestsPool</text>
<text text-anchor="middle" x="77.5" y="-66" font-family="Helvetica,sans-Serif" font-size="10.00">&lt; RequestsPoolTypeParamsT &gt;</text>
</a>
</g>
</g>
<!-- Node13&#45;&gt;Node12 -->
<g id="edge12_Node000012_Node000013" class="edge">
<title>Node13&#45;&gt;Node12</title>
<g id="a_edge12_Node000012_Node000013"><a xlink:title=" ">
<path fill="none" stroke="orange" stroke-dasharray="5,2" d="M166.33,-79.5C219.84,-79.5 287.69,-79.5 339.76,-79.5"/>
<polygon fill="orange" stroke="orange" points="166.65,-76 156.65,-79.5 166.65,-83 166.65,-76"/>
</a>
</g>
<text text-anchor="middle" x="247.5" y="-82.5" font-family="Helvetica,sans-Serif" font-size="10.00" fill="grey"> &lt; RequestsPoolTypeParams&lt;&gt; &gt;</text>
</g>
<!-- Node14&#45;&gt;Node11 -->
<g id="edge13_Node000011_Node000014" class="edge">
<title>Node14&#45;&gt;Node11</title>
<g id="a_edge13_Node000011_Node000014"><a xlink:title=" ">
<path fill="none" stroke="orange" stroke-dasharray="5,2" d="M764.68,-46C813.78,-52.43 870.54,-59.87 915.73,-65.79"/>
<polygon fill="orange" stroke="orange" points="765.23,-42.54 754.86,-44.71 764.32,-49.48 765.23,-42.54"/>
</a>
</g>
<text text-anchor="middle" x="834.5" y="-65.5" font-family="Helvetica,sans-Serif" font-size="10.00" fill="grey"> &lt; DerivedT &gt;</text>
</g>
<!-- Node15 -->
<g id="Node000015" class="node">
<title>Node15</title>
<g id="a_Node000015"><a xlink:title=" ">
<polygon fill="white" stroke="#666666" points="1053.5,-188 943.5,-188 943.5,-169 1053.5,-169 1053.5,-188"/>
<text text-anchor="middle" x="998.5" y="-176" font-family="Helvetica,sans-Serif" font-size="10.00">std::atomic&lt; size_t &gt;</text>
</a>
</g>
</g>
<!-- Node15&#45;&gt;Node1 -->
<g id="edge15_Node000001_Node000015" class="edge">
<title>Node15&#45;&gt;Node1</title>
<g id="a_edge15_Node000001_Node000015"><a xlink:title=" ">
<path fill="none" stroke="#9a32cd" stroke-dasharray="5,2" d="M1065.13,-183.4C1104.04,-186.31 1154.34,-190.09 1199,-193.5 1204.75,-193.94 1210.68,-194.39 1216.66,-194.85"/>
<polygon fill="#9a32cd" stroke="#9a32cd" points="1065.44,-179.91 1055.2,-182.66 1064.91,-186.89 1065.44,-179.91"/>
</a>
</g>
<text text-anchor="middle" x="1149" y="-196.5" font-family="Helvetica,sans-Serif" font-size="10.00" fill="grey"> outstandingRequests_</text>
</g>
<!-- Node16&#45;&gt;Node15 -->
<g id="edge16_Node000015_Node000016" class="edge">
<title>Node16&#45;&gt;Node15</title>
<g id="a_edge16_Node000015_Node000016"><a xlink:title=" ">
<path fill="none" stroke="orange" stroke-dasharray="5,2" d="M708.97,-178.5C773.29,-178.5 879.12,-178.5 943.16,-178.5"/>
<polygon fill="orange" stroke="orange" points="709.37,-175 699.37,-178.5 709.37,-182 709.37,-175"/>
</a>
</g>
<text text-anchor="middle" x="834.5" y="-181.5" font-family="Helvetica,sans-Serif" font-size="10.00" fill="grey"> &lt; size_t &gt;</text>
</g>
<!-- Node17 -->
<g id="Node000017" class="node">
<title>Node17</title>
<g id="a_Node000017"><a xlink:title=" ">
<polygon fill="white" stroke="#666666" points="1076.5,-150.5 920.5,-150.5 920.5,-120.5 1076.5,-120.5 1076.5,-150.5"/>
<text text-anchor="start" x="928.5" y="-138.5" font-family="Helvetica,sans-Serif" font-size="10.00">std::atomic&lt; ConnectionHandler</text>
<text text-anchor="middle" x="998.5" y="-127.5" font-family="Helvetica,sans-Serif" font-size="10.00">State &gt;</text>
</a>
</g>
</g>
<!-- Node16&#45;&gt;Node17 -->
<g id="edge19_Node000017_Node000016" class="edge">
<title>Node16&#45;&gt;Node17</title>
<g id="a_edge19_Node000017_Node000016"><a xlink:title=" ">
<path fill="none" stroke="orange" stroke-dasharray="5,2" d="M709.06,-171.39C728.62,-168.88 750.79,-166.04 771,-163.5 820.63,-157.25 876.4,-150.36 920.18,-144.97"/>
<polygon fill="orange" stroke="orange" points="708.86,-167.89 699.39,-172.63 709.75,-174.83 708.86,-167.89"/>
</a>
</g>
<text text-anchor="middle" x="834.5" y="-166.5" font-family="Helvetica,sans-Serif" font-size="10.00" fill="grey"> &lt; ConnectionHandlerState &gt;</text>
</g>
<!-- Node17&#45;&gt;Node1 -->
<g id="edge18_Node000001_Node000017" class="edge">
<title>Node17&#45;&gt;Node1</title>
<g id="a_edge18_Node000001_Node000017"><a xlink:title=" ">
<path fill="none" stroke="#9a32cd" stroke-dasharray="5,2" d="M1087.78,-148.7C1122.61,-154.5 1162.87,-161.95 1199,-170.5 1204.84,-171.88 1210.84,-173.4 1216.86,-175.01"/>
<polygon fill="#9a32cd" stroke="#9a32cd" points="1088.6,-145.29 1078.16,-147.12 1087.46,-152.19 1088.6,-145.29"/>
</a>
</g>
<text text-anchor="middle" x="1149" y="-173.5" font-family="Helvetica,sans-Serif" font-size="10.00" fill="grey"> state_</text>
</g>
<!-- Node18 -->
<g id="Node000018" class="node">
<title>Node18</title>
<g id="a_Node000018"><a xlink:href="class_harlinn_1_1_common_1_1_core_1_1_i_o_1_1_sockets_1_1_address.xhtml" target="_top" xlink:title="Provides a generic mechanism for specifying a transport address.">
<polygon fill="white" stroke="#666666" points="1057.5,-32.5 939.5,-32.5 939.5,-2.5 1057.5,-2.5 1057.5,-32.5"/>
<text text-anchor="start" x="947.5" y="-20.5" font-family="Helvetica,sans-Serif" font-size="10.00">Harlinn::Common::Core</text>
<text text-anchor="middle" x="998.5" y="-9.5" font-family="Helvetica,sans-Serif" font-size="10.00">::IO::Sockets::Address</text>
</a>
</g>
</g>
<!-- Node18&#45;&gt;Node1 -->
<g id="edge20_Node000001_Node000018" class="edge">
<title>Node18&#45;&gt;Node1</title>
<g id="a_edge20_Node000001_Node000018"><a xlink:title=" ">
<path fill="none" stroke="#9a32cd" stroke-dasharray="5,2" d="M1069.11,-26.73C1109.58,-34.58 1160.1,-48.86 1199,-74.5 1238.43,-100.48 1270.24,-146.17 1287.74,-175.08"/>
<polygon fill="#9a32cd" stroke="#9a32cd" points="1069.94,-23.32 1059.47,-24.95 1068.67,-30.2 1069.94,-23.32"/>
</a>
</g>
<text text-anchor="middle" x="1149" y="-88.5" font-family="Helvetica,sans-Serif" font-size="10.00" fill="grey"> localAddress_</text>
<text text-anchor="middle" x="1149" y="-77.5" font-family="Helvetica,sans-Serif" font-size="10.00" fill="grey">remoteAddress_</text>
</g>
</g>
</svg>
