<?xml version="1.0" encoding="UTF-8" standalone="no"?>
<!DOCTYPE svg PUBLIC "-//W3C//DTD SVG 1.1//EN"
 "http://www.w3.org/Graphics/SVG/1.1/DTD/svg11.dtd">
<!-- Generated by graphviz version 7.0.1 (20221109.1506)
 -->
<!-- Title: Harlinn::Windows::MenuItems Pages: 1 -->
<svg width="1587pt" height="250pt"
 viewBox="0.00 0.00 1587.00 249.50" xmlns="http://www.w3.org/2000/svg" xmlns:xlink="http://www.w3.org/1999/xlink">
<g id="graph0" class="graph" transform="scale(1 1) rotate(0) translate(4 245.5)">
<title>Harlinn::Windows::MenuItems</title>
<!-- Node1 -->
<g id="Node000001" class="node">
<title>Node1</title>
<g id="a_Node000001"><a xlink:title=" ">
<polygon fill="#999999" stroke="#666666" points="607,-214 461,-214 461,-195 607,-195 607,-214"/>
<text text-anchor="middle" x="534" y="-202" font-family="Helvetica,sans-Serif" font-size="10.00">Harlinn::Windows::MenuItems</text>
</a>
</g>
</g>
<!-- Node2 -->
<g id="Node000002" class="node">
<title>Node2</title>
<g id="a_Node000002"><a xlink:href="class_harlinn_1_1_windows_1_1_menu.html" target="_top" xlink:title=" ">
<polygon fill="white" stroke="#666666" points="811,-176 689,-176 689,-157 811,-157 811,-176"/>
<text text-anchor="middle" x="750" y="-164" font-family="Helvetica,sans-Serif" font-size="10.00">Harlinn::Windows::Menu</text>
</a>
</g>
</g>
<!-- Node1&#45;&gt;Node2 -->
<g id="edge10_Node000002_Node000001" class="edge">
<title>Node1&#45;&gt;Node2</title>
<g id="a_edge10_Node000002_Node000001"><a xlink:title=" ">
<path fill="none" stroke="#9a32cd" stroke-dasharray="5,2" d="M565.79,-189.93C583.55,-182.29 606.55,-173.68 628,-169.5 647.49,-165.7 669.08,-164.3 688.56,-164.04"/>
<polygon fill="#9a32cd" stroke="#9a32cd" points="564.57,-186.64 556.85,-193.9 567.41,-193.04 564.57,-186.64"/>
</a>
</g>
<text text-anchor="middle" x="649.5" y="-172.5" font-family="Helvetica,sans-Serif" font-size="10.00" fill="grey"> items_</text>
</g>
<!-- Node2&#45;&gt;Node1 -->
<g id="edge1_Node000001_Node000002" class="edge">
<title>Node2&#45;&gt;Node1</title>
<g id="a_edge1_Node000001_Node000002"><a xlink:title=" ">
<path fill="none" stroke="#9a32cd" stroke-dasharray="5,2" d="M690.87,-178.7C684.18,-180.03 677.45,-181.32 671,-182.5 647.94,-186.73 622.61,-190.94 600.12,-194.53"/>
<polygon fill="#9a32cd" stroke="#9a32cd" points="691.44,-182.16 700.56,-176.76 690.06,-175.3 691.44,-182.16"/>
</a>
</g>
<text text-anchor="middle" x="649.5" y="-192.5" font-family="Helvetica,sans-Serif" font-size="10.00" fill="grey"> owner_</text>
</g>
<!-- Node3 -->
<g id="Node000003" class="node">
<title>Node3</title>
<g id="a_Node000003"><a xlink:title=" ">
<polygon fill="white" stroke="#666666" points="1120,-180 977,-180 977,-139 1120,-139 1120,-180"/>
<text text-anchor="start" x="985" y="-168" font-family="Helvetica,sans-Serif" font-size="10.00">std::unordered_map</text>
<text text-anchor="start" x="985" y="-157" font-family="Helvetica,sans-Serif" font-size="10.00">&lt; HMENU, Harlinn::Windows</text>
<text text-anchor="middle" x="1048.5" y="-146" font-family="Helvetica,sans-Serif" font-size="10.00">::Menu * &gt;</text>
</a>
</g>
</g>
<!-- Node2&#45;&gt;Node3 -->
<g id="edge3_Node000003_Node000002" class="edge">
<title>Node2&#45;&gt;Node3</title>
<g id="a_edge3_Node000003_Node000002"><a xlink:title=" ">
<path fill="none" stroke="#9a32cd" stroke-dasharray="5,2" d="M822.78,-171.28C824.88,-171.36 826.95,-171.43 829,-171.5 886.75,-173.35 901.35,-175.39 959,-171.5 964.72,-171.11 970.64,-170.59 976.58,-169.97"/>
<polygon fill="#9a32cd" stroke="#9a32cd" points="823.11,-167.79 812.96,-170.83 822.79,-174.78 823.11,-167.79"/>
</a>
</g>
<text text-anchor="middle" x="894" y="-176.5" font-family="Helvetica,sans-Serif" font-size="10.00" fill="grey"> elements</text>
</g>
<!-- Node12 -->
<g id="Node000012" class="node">
<title>Node12</title>
<g id="a_Node000012"><a xlink:href="class_harlinn_1_1_windows_1_1_menu_item.html" target="_top" xlink:title=" ">
<polygon fill="white" stroke="#666666" points="1119,-119 978,-119 978,-100 1119,-100 1119,-119"/>
<text text-anchor="middle" x="1048.5" y="-107" font-family="Helvetica,sans-Serif" font-size="10.00">Harlinn::Windows::MenuItem</text>
</a>
</g>
</g>
<!-- Node2&#45;&gt;Node12 -->
<g id="edge14_Node000012_Node000002" class="edge">
<title>Node2&#45;&gt;Node12</title>
<g id="a_edge14_Node000012_Node000002"><a xlink:title=" ">
<path fill="none" stroke="#9a32cd" stroke-dasharray="5,2" d="M790.42,-153.12C802.68,-149.3 816.31,-145.39 829,-142.5 878.19,-131.28 934.49,-122.88 977.63,-117.37"/>
<polygon fill="#9a32cd" stroke="#9a32cd" points="789.52,-149.74 781.06,-156.12 791.65,-156.41 789.52,-149.74"/>
</a>
</g>
<text text-anchor="middle" x="894" y="-145.5" font-family="Helvetica,sans-Serif" font-size="10.00" fill="grey"> parentMenu_</text>
</g>
<!-- Node3&#45;&gt;Node2 -->
<g id="edge2_Node000002_Node000003" class="edge">
<title>Node3&#45;&gt;Node2</title>
<g id="a_edge2_Node000002_Node000003"><a xlink:title=" ">
<path fill="none" stroke="#9a32cd" stroke-dasharray="5,2" d="M965.32,-158.47C924.34,-158.32 874.04,-158.67 829,-160.5 823.3,-160.73 817.37,-161.05 811.44,-161.42"/>
<polygon fill="#9a32cd" stroke="#9a32cd" points="965.09,-161.97 975.11,-158.52 965.12,-154.97 965.09,-161.97"/>
</a>
</g>
<text text-anchor="middle" x="894" y="-163.5" font-family="Helvetica,sans-Serif" font-size="10.00" fill="grey"> menuMap_</text>
</g>
<!-- Node4 -->
<g id="Node000004" class="node">
<title>Node4</title>
<g id="a_Node000004"><a xlink:title=" ">
<polygon fill="white" stroke="#666666" points="801.5,-95.5 698.5,-95.5 698.5,-65.5 801.5,-65.5 801.5,-95.5"/>
<text text-anchor="start" x="706.5" y="-83.5" font-family="Helvetica,sans-Serif" font-size="10.00">std::unordered_map</text>
<text text-anchor="middle" x="750" y="-72.5" font-family="Helvetica,sans-Serif" font-size="10.00">&lt; K, T &gt;</text>
</a>
</g>
</g>
<!-- Node4&#45;&gt;Node3 -->
<g id="edge4_Node000003_Node000004" class="edge">
<title>Node4&#45;&gt;Node3</title>
<g id="a_edge4_Node000003_Node000004"><a xlink:title=" ">
<path fill="none" stroke="orange" stroke-dasharray="5,2" d="M812.99,-69.8C857.11,-65.53 915.95,-66.95 959,-94.5 973.07,-103.51 964.76,-116.13 977,-127.5 981.43,-131.62 986.48,-135.28 991.8,-138.51"/>
<polygon fill="orange" stroke="orange" points="812.89,-66.29 803.33,-70.87 813.66,-73.25 812.89,-66.29"/>
</a>
</g>
<text text-anchor="start" x="829" y="-108.5" font-family="Helvetica,sans-Serif" font-size="10.00" fill="grey"> &lt; HMENU, Harlinn::Windows</text>
<text text-anchor="middle" x="894" y="-97.5" font-family="Helvetica,sans-Serif" font-size="10.00" fill="grey">::Menu * &gt;</text>
</g>
<!-- Node5 -->
<g id="Node000005" class="node">
<title>Node5</title>
<g id="a_Node000005"><a xlink:title=" ">
<polygon fill="white" stroke="#666666" points="548.5,-112 519.5,-112 519.5,-93 548.5,-93 548.5,-112"/>
<text text-anchor="middle" x="534" y="-100" font-family="Helvetica,sans-Serif" font-size="10.00">K</text>
</a>
</g>
</g>
<!-- Node5&#45;&gt;Node4 -->
<g id="edge5_Node000004_Node000005" class="edge">
<title>Node5&#45;&gt;Node4</title>
<g id="a_edge5_Node000004_Node000005"><a xlink:title=" ">
<path fill="none" stroke="#9a32cd" stroke-dasharray="5,2" d="M559.8,-99.95C593.47,-96.49 654.45,-90.22 698.08,-85.73"/>
<polygon fill="#9a32cd" stroke="#9a32cd" points="559.81,-96.43 550.22,-100.94 560.52,-103.39 559.81,-96.43"/>
</a>
</g>
<text text-anchor="middle" x="649.5" y="-96.5" font-family="Helvetica,sans-Serif" font-size="10.00" fill="grey"> keys</text>
</g>
<!-- Node6 -->
<g id="Node000006" class="node">
<title>Node6</title>
<g id="a_Node000006"><a xlink:title=" ">
<polygon fill="white" stroke="#666666" points="548.5,-44 519.5,-44 519.5,-25 548.5,-25 548.5,-44"/>
<text text-anchor="middle" x="534" y="-32" font-family="Helvetica,sans-Serif" font-size="10.00">T</text>
</a>
</g>
</g>
<!-- Node6&#45;&gt;Node4 -->
<g id="edge6_Node000004_Node000006" class="edge">
<title>Node6&#45;&gt;Node4</title>
<g id="a_edge6_Node000004_Node000006"><a xlink:title=" ">
<path fill="none" stroke="#9a32cd" stroke-dasharray="5,2" d="M559.8,-39.83C593.47,-47.07 654.45,-60.18 698.08,-69.55"/>
<polygon fill="#9a32cd" stroke="#9a32cd" points="560.7,-36.45 550.19,-37.77 559.23,-43.29 560.7,-36.45"/>
</a>
</g>
<text text-anchor="middle" x="649.5" y="-66.5" font-family="Helvetica,sans-Serif" font-size="10.00" fill="grey"> elements</text>
</g>
<!-- Node13 -->
<g id="Node000013" class="node">
<title>Node13</title>
<g id="a_Node000013"><a xlink:title=" ">
<polygon fill="white" stroke="#666666" points="946,-50 842,-50 842,-31 946,-31 946,-50"/>
<text text-anchor="middle" x="894" y="-38" font-family="Helvetica,sans-Serif" font-size="10.00">std::unique_ptr&lt; T &gt;</text>
</a>
</g>
</g>
<!-- Node6&#45;&gt;Node13 -->
<g id="edge16_Node000013_Node000006" class="edge">
<title>Node6&#45;&gt;Node13</title>
<g id="a_edge16_Node000013_Node000006"><a xlink:title=" ">
<path fill="none" stroke="#9a32cd" stroke-dasharray="5,2" d="M559.91,-34.92C618,-35.89 763.41,-38.33 841.5,-39.64"/>
<polygon fill="#9a32cd" stroke="#9a32cd" points="560.17,-31.42 550.11,-34.75 560.05,-38.42 560.17,-31.42"/>
</a>
</g>
<text text-anchor="middle" x="649.5" y="-40.5" font-family="Helvetica,sans-Serif" font-size="10.00" fill="grey"> ptr</text>
</g>
<!-- Node14 -->
<g id="Node000014" class="node">
<title>Node14</title>
<g id="a_Node000014"><a xlink:title=" ">
<polygon fill="white" stroke="#666666" points="936.5,-19 851.5,-19 851.5,0 936.5,0 936.5,-19"/>
<text text-anchor="middle" x="894" y="-7" font-family="Helvetica,sans-Serif" font-size="10.00">std::vector&lt; T &gt;</text>
</a>
</g>
</g>
<!-- Node6&#45;&gt;Node14 -->
<g id="edge18_Node000014_Node000006" class="edge">
<title>Node6&#45;&gt;Node14</title>
<g id="a_edge18_Node000014_Node000006"><a xlink:title=" ">
<path fill="none" stroke="#9a32cd" stroke-dasharray="5,2" d="M560.17,-30.33C578.84,-27.4 604.94,-23.63 628,-21.5 706.65,-14.24 798.85,-11.32 851.15,-10.19"/>
<polygon fill="#9a32cd" stroke="#9a32cd" points="559.63,-26.87 550.31,-31.92 560.74,-33.78 559.63,-26.87"/>
</a>
</g>
<text text-anchor="middle" x="649.5" y="-24.5" font-family="Helvetica,sans-Serif" font-size="10.00" fill="grey"> elements</text>
</g>
<!-- Node7 -->
<g id="Node000007" class="node">
<title>Node7</title>
<g id="a_Node000007"><a xlink:href="class_harlinn_1_1_windows_1_1_menu_handle.html" target="_top" xlink:title=" ">
<polygon fill="white" stroke="#666666" points="610,-149 458,-149 458,-130 610,-130 610,-149"/>
<text text-anchor="middle" x="534" y="-137" font-family="Helvetica,sans-Serif" font-size="10.00">Harlinn::Windows::MenuHandle</text>
</a>
</g>
</g>
<!-- Node7&#45;&gt;Node2 -->
<g id="edge7_Node000002_Node000007" class="edge">
<title>Node7&#45;&gt;Node2</title>
<g id="a_edge7_Node000002_Node000007"><a xlink:title=" ">
<path fill="none" stroke="#9a32cd" stroke-dasharray="5,2" d="M621.56,-133.25C638.07,-133.46 655.14,-134.65 671,-137.5 691.19,-141.13 712.98,-149.66 728.38,-156.53"/>
<polygon fill="#9a32cd" stroke="#9a32cd" points="621.76,-129.75 611.76,-133.25 621.76,-136.75 621.76,-129.75"/>
</a>
</g>
<text text-anchor="middle" x="649.5" y="-140.5" font-family="Helvetica,sans-Serif" font-size="10.00" fill="grey"> handle_</text>
</g>
<!-- Node8 -->
<g id="Node000008" class="node">
<title>Node8</title>
<g id="a_Node000008"><a xlink:href="class_harlinn_1_1_common_1_1_core_1_1_handle.html" target="_top" xlink:title=" ">
<polygon fill="white" stroke="#666666" points="421,-160 302,-160 302,-119 421,-119 421,-160"/>
<text text-anchor="start" x="310" y="-148" font-family="Helvetica,sans-Serif" font-size="10.00">Harlinn::Common::Core</text>
<text text-anchor="start" x="310" y="-137" font-family="Helvetica,sans-Serif" font-size="10.00">::Handle&lt; MenuHandle,</text>
<text text-anchor="middle" x="361.5" y="-126" font-family="Helvetica,sans-Serif" font-size="10.00"> HMENU &gt;</text>
</a>
</g>
</g>
<!-- Node8&#45;&gt;Node7 -->
<g id="edge8_Node000007_Node000008" class="edge">
<title>Node8&#45;&gt;Node7</title>
<g id="a_edge8_Node000007_Node000008"><a xlink:title=" ">
<path fill="none" stroke="#63b8ff" d="M432.67,-139.5C440.91,-139.5 449.34,-139.5 457.65,-139.5"/>
<polygon fill="#63b8ff" stroke="#63b8ff" points="432.69,-136 422.69,-139.5 432.69,-143 432.69,-136"/>
</a>
</g>
</g>
<!-- Node9 -->
<g id="Node000009" class="node">
<title>Node9</title>
<g id="a_Node000009"><a xlink:href="class_harlinn_1_1_common_1_1_core_1_1_handle.html" target="_top" xlink:title=" ">
<polygon fill="white" stroke="#666666" points="149,-154.5 0,-154.5 0,-124.5 149,-124.5 149,-154.5"/>
<text text-anchor="start" x="8" y="-142.5" font-family="Helvetica,sans-Serif" font-size="10.00">Harlinn::Common::Core</text>
<text text-anchor="middle" x="74.5" y="-131.5" font-family="Helvetica,sans-Serif" font-size="10.00">::Handle&lt; DerivedT, HandleT &gt;</text>
</a>
</g>
</g>
<!-- Node9&#45;&gt;Node8 -->
<g id="edge9_Node000008_Node000009" class="edge">
<title>Node9&#45;&gt;Node8</title>
<g id="a_edge9_Node000008_Node000009"><a xlink:title=" ">
<path fill="none" stroke="orange" stroke-dasharray="5,2" d="M160.63,-139.5C206.18,-139.5 261.12,-139.5 301.86,-139.5"/>
<polygon fill="orange" stroke="orange" points="160.78,-136 150.78,-139.5 160.78,-143 160.78,-136"/>
</a>
</g>
<text text-anchor="middle" x="225.5" y="-142.5" font-family="Helvetica,sans-Serif" font-size="10.00" fill="grey"> &lt; MenuHandle, HMENU &gt;</text>
</g>
<!-- Node10 -->
<g id="Node000010" class="node">
<title>Node10</title>
<g id="a_Node000010"><a xlink:title=" ">
<polygon fill="white" stroke="#666666" points="1579,-101.5 1460,-101.5 1460,-71.5 1579,-71.5 1579,-101.5"/>
<text text-anchor="start" x="1468" y="-89.5" font-family="Helvetica,sans-Serif" font-size="10.00">std::vector&lt; std::unique</text>
<text text-anchor="middle" x="1519.5" y="-78.5" font-family="Helvetica,sans-Serif" font-size="10.00">_ptr&lt; MenuItem &gt; &gt;</text>
</a>
</g>
</g>
<!-- Node10&#45;&gt;Node1 -->
<g id="edge11_Node000001_Node000010" class="edge">
<title>Node10&#45;&gt;Node1</title>
<g id="a_edge11_Node000001_Node000010"><a xlink:title=" ">
<path fill="none" stroke="#9a32cd" stroke-dasharray="5,2" d="M1500.46,-110.76C1467.68,-151.8 1393.99,-230.5 1311,-230.5 749,-230.5 749,-230.5 749,-230.5 693.61,-230.5 630.74,-221.81 587.55,-214.48"/>
<polygon fill="#9a32cd" stroke="#9a32cd" points="1503.05,-113.14 1506.44,-103.1 1497.53,-108.84 1503.05,-113.14"/>
</a>
</g>
<text text-anchor="middle" x="1048.5" y="-233.5" font-family="Helvetica,sans-Serif" font-size="10.00" fill="grey"> items_</text>
</g>
<!-- Node11 -->
<g id="Node000011" class="node">
<title>Node11</title>
<g id="a_Node000011"><a xlink:title=" ">
<polygon fill="white" stroke="#666666" points="1381,-96 1239,-96 1239,-77 1381,-77 1381,-96"/>
<text text-anchor="middle" x="1310" y="-84" font-family="Helvetica,sans-Serif" font-size="10.00">std::unique_ptr&lt; MenuItem &gt;</text>
</a>
</g>
</g>
<!-- Node11&#45;&gt;Node10 -->
<g id="edge12_Node000010_Node000011" class="edge">
<title>Node11&#45;&gt;Node10</title>
<g id="a_edge12_Node000010_Node000011"><a xlink:title=" ">
<path fill="none" stroke="#9a32cd" stroke-dasharray="5,2" d="M1392.48,-86.5C1414.93,-86.5 1438.83,-86.5 1459.72,-86.5"/>
<polygon fill="#9a32cd" stroke="#9a32cd" points="1392.76,-83 1382.76,-86.5 1392.76,-90 1392.76,-83"/>
</a>
</g>
<text text-anchor="middle" x="1420.5" y="-89.5" font-family="Helvetica,sans-Serif" font-size="10.00" fill="grey"> elements</text>
</g>
<!-- Node12&#45;&gt;Node11 -->
<g id="edge13_Node000011_Node000012" class="edge">
<title>Node12&#45;&gt;Node11</title>
<g id="a_edge13_Node000011_Node000012"><a xlink:title=" ">
<path fill="none" stroke="#9a32cd" stroke-dasharray="5,2" d="M1130.42,-102.33C1165.06,-99.26 1205.14,-95.71 1238.54,-92.74"/>
<polygon fill="#9a32cd" stroke="#9a32cd" points="1130.54,-98.8 1120.89,-103.17 1131.16,-105.78 1130.54,-98.8"/>
</a>
</g>
<text text-anchor="middle" x="1179.5" y="-104.5" font-family="Helvetica,sans-Serif" font-size="10.00" fill="grey"> ptr</text>
</g>
<!-- Node13&#45;&gt;Node11 -->
<g id="edge15_Node000011_Node000013" class="edge">
<title>Node13&#45;&gt;Node11</title>
<g id="a_edge15_Node000011_Node000013"><a xlink:title=" ">
<path fill="none" stroke="orange" stroke-dasharray="5,2" d="M957.39,-47.43C1032.88,-55.82 1159.65,-69.91 1238.58,-78.68"/>
<polygon fill="orange" stroke="orange" points="958.01,-43.98 947.68,-46.35 957.24,-50.94 958.01,-43.98"/>
</a>
</g>
<text text-anchor="middle" x="1048.5" y="-68.5" font-family="Helvetica,sans-Serif" font-size="10.00" fill="grey"> &lt; MenuItem &gt;</text>
</g>
<!-- Node14&#45;&gt;Node10 -->
<g id="edge17_Node000010_Node000014" class="edge">
<title>Node14&#45;&gt;Node10</title>
<g id="a_edge17_Node000010_Node000014"><a xlink:title=" ">
<path fill="none" stroke="orange" stroke-dasharray="5,2" d="M947.85,-14.1C1012.4,-19.89 1124.88,-30.53 1221,-42.5 1304.03,-52.84 1399.68,-67.47 1459.62,-76.98"/>
<polygon fill="orange" stroke="orange" points="948.53,-10.64 938.26,-13.24 947.91,-17.62 948.53,-10.64"/>
</a>
</g>
<text text-anchor="start" x="1138" y="-56.5" font-family="Helvetica,sans-Serif" font-size="10.00" fill="grey"> &lt; std::unique_ptr&lt;</text>
<text text-anchor="middle" x="1179.5" y="-45.5" font-family="Helvetica,sans-Serif" font-size="10.00" fill="grey"> MenuItem &gt; &gt;</text>
</g>
</g>
</svg>
