<?xml version="1.0" encoding="UTF-8" standalone="no"?>
<!DOCTYPE svg PUBLIC "-//W3C//DTD SVG 1.1//EN"
 "http://www.w3.org/Graphics/SVG/1.1/DTD/svg11.dtd">
<!-- Generated by graphviz version 7.0.1 (20221109.1506)
 -->
<!-- Title: Harlinn::Common::Core::Demangle::detail::Converter Pages: 1 -->
<svg width="1316pt" height="354pt"
 viewBox="0.00 0.00 1316.00 354.21" xmlns="http://www.w3.org/2000/svg" xmlns:xlink="http://www.w3.org/1999/xlink">
<g id="graph0" class="graph" transform="scale(1 1) rotate(0) translate(4 350.21)">
<title>Harlinn::Common::Core::Demangle::detail::Converter</title>
<!-- Node1 -->
<g id="Node000001" class="node">
<title>Node1</title>
<g id="a_Node000001"><a xlink:title=" ">
<polygon fill="#999999" stroke="#666666" points="1308,-268.21 1166,-268.21 1166,-238.21 1308,-238.21 1308,-268.21"/>
<text text-anchor="start" x="1174" y="-256.21" font-family="Helvetica,sans-Serif" font-size="10.00">Harlinn::Common::Core</text>
<text text-anchor="middle" x="1237" y="-245.21" font-family="Helvetica,sans-Serif" font-size="10.00">::Demangle::detail::Converter</text>
</a>
</g>
</g>
<!-- Node2 -->
<g id="Node000002" class="node">
<title>Node2</title>
<g id="a_Node000002"><a xlink:href="struct_harlinn_1_1_common_1_1_core_1_1_demangle_1_1detail_1_1_converter_1_1_conv_stream.html" target="_top" xlink:title=" ">
<polygon fill="white" stroke="#666666" points="1057,-308.71 915,-308.71 915,-267.71 1057,-267.71 1057,-308.71"/>
<text text-anchor="start" x="923" y="-296.71" font-family="Helvetica,sans-Serif" font-size="10.00">Harlinn::Common::Core</text>
<text text-anchor="start" x="923" y="-285.71" font-family="Helvetica,sans-Serif" font-size="10.00">::Demangle::detail::Converter</text>
<text text-anchor="middle" x="986" y="-274.71" font-family="Helvetica,sans-Serif" font-size="10.00">::ConvStream</text>
</a>
</g>
</g>
<!-- Node2&#45;&gt;Node1 -->
<g id="edge1_Node000001_Node000002" class="edge">
<title>Node2&#45;&gt;Node1</title>
<g id="a_edge1_Node000001_Node000002"><a xlink:title=" ">
<path fill="none" stroke="#9a32cd" stroke-dasharray="5,2" d="M1068.71,-276.72C1100.1,-272.31 1135.61,-267.32 1165.82,-263.08"/>
<polygon fill="#9a32cd" stroke="#9a32cd" points="1068.27,-273.25 1058.85,-278.11 1069.24,-280.18 1068.27,-273.25"/>
</a>
</g>
<text text-anchor="middle" x="1111.5" y="-277.21" font-family="Helvetica,sans-Serif" font-size="10.00" fill="grey"> stream</text>
</g>
<!-- Node3 -->
<g id="Node000003" class="node">
<title>Node3</title>
<g id="a_Node000003"><a xlink:title=" ">
<polygon fill="white" stroke="#666666" points="740,-340.71 669,-340.71 669,-321.71 740,-321.71 740,-340.71"/>
<text text-anchor="middle" x="704.5" y="-328.71" font-family="Helvetica,sans-Serif" font-size="10.00">std::ostream</text>
</a>
</g>
</g>
<!-- Node3&#45;&gt;Node2 -->
<g id="edge2_Node000002_Node000003" class="edge">
<title>Node3&#45;&gt;Node2</title>
<g id="a_edge2_Node000002_Node000003"><a xlink:title=" ">
<path fill="none" stroke="#9a32cd" stroke-dasharray="5,2" d="M751.42,-324.81C790.24,-319.32 847.31,-311.08 897,-303.21 902.82,-302.29 908.85,-301.31 914.9,-300.31"/>
<polygon fill="#9a32cd" stroke="#9a32cd" points="751.39,-321.28 741.98,-326.14 752.37,-328.21 751.39,-321.28"/>
</a>
</g>
<text text-anchor="middle" x="849.5" y="-320.21" font-family="Helvetica,sans-Serif" font-size="10.00" fill="grey"> stream</text>
</g>
<!-- Node4 -->
<g id="Node000004" class="node">
<title>Node4</title>
<g id="a_Node000004"><a xlink:title=" ">
<polygon fill="white" stroke="#666666" points="434,-346.21 334,-346.21 334,-316.21 434,-316.21 434,-346.21"/>
<text text-anchor="start" x="342" y="-334.21" font-family="Helvetica,sans-Serif" font-size="10.00">std::basic_ostream</text>
<text text-anchor="middle" x="384" y="-323.21" font-family="Helvetica,sans-Serif" font-size="10.00">&lt; Char &gt;</text>
</a>
</g>
</g>
<!-- Node4&#45;&gt;Node3 -->
<g id="edge3_Node000003_Node000004" class="edge">
<title>Node4&#45;&gt;Node3</title>
<g id="a_edge3_Node000003_Node000004"><a xlink:title=" ">
<path fill="none" stroke="#63b8ff" d="M445.9,-331.21C511.99,-331.21 615.22,-331.21 668.73,-331.21"/>
<polygon fill="#63b8ff" stroke="#63b8ff" points="445.93,-327.71 435.93,-331.21 445.93,-334.71 445.93,-327.71"/>
</a>
</g>
</g>
<!-- Node5 -->
<g id="Node000005" class="node">
<title>Node5</title>
<g id="a_Node000005"><a xlink:title=" ">
<polygon fill="white" stroke="#666666" points="260,-340.71 144,-340.71 144,-321.71 260,-321.71 260,-340.71"/>
<text text-anchor="middle" x="202" y="-328.71" font-family="Helvetica,sans-Serif" font-size="10.00">std::basic_ios&lt; Char &gt;</text>
</a>
</g>
</g>
<!-- Node5&#45;&gt;Node4 -->
<g id="edge4_Node000004_Node000005" class="edge">
<title>Node5&#45;&gt;Node4</title>
<g id="a_edge4_Node000004_Node000005"><a xlink:title=" ">
<path fill="none" stroke="#63b8ff" d="M271.71,-331.21C292.34,-331.21 314.55,-331.21 333.66,-331.21"/>
<polygon fill="#63b8ff" stroke="#63b8ff" points="271.96,-327.71 261.96,-331.21 271.96,-334.71 271.96,-327.71"/>
</a>
</g>
</g>
<!-- Node6 -->
<g id="Node000006" class="node">
<title>Node6</title>
<g id="a_Node000006"><a xlink:title=" ">
<polygon fill="white" stroke="#666666" points="75,-340.71 0,-340.71 0,-321.71 75,-321.71 75,-340.71"/>
<text text-anchor="middle" x="37.5" y="-328.71" font-family="Helvetica,sans-Serif" font-size="10.00">std::ios_base</text>
</a>
</g>
</g>
<!-- Node6&#45;&gt;Node5 -->
<g id="edge5_Node000005_Node000006" class="edge">
<title>Node6&#45;&gt;Node5</title>
<g id="a_edge5_Node000005_Node000006"><a xlink:title=" ">
<path fill="none" stroke="#63b8ff" d="M86.69,-331.21C104.54,-331.21 124.96,-331.21 143.55,-331.21"/>
<polygon fill="#63b8ff" stroke="#63b8ff" points="86.89,-327.71 76.89,-331.21 86.89,-334.71 86.89,-327.71"/>
</a>
</g>
</g>
<!-- Node7 -->
<g id="Node000007" class="node">
<title>Node7</title>
<g id="a_Node000007"><a xlink:href="class_harlinn_1_1_common_1_1_core_1_1_demangle_1_1_text_attributes.html" target="_top" xlink:title=" ">
<polygon fill="white" stroke="#666666" points="771,-303.21 638,-303.21 638,-273.21 771,-273.21 771,-303.21"/>
<text text-anchor="start" x="646" y="-291.21" font-family="Helvetica,sans-Serif" font-size="10.00">Harlinn::Common::Core</text>
<text text-anchor="middle" x="704.5" y="-280.21" font-family="Helvetica,sans-Serif" font-size="10.00">::Demangle::TextAttributes</text>
</a>
</g>
</g>
<!-- Node7&#45;&gt;Node2 -->
<g id="edge6_Node000002_Node000007" class="edge">
<title>Node7&#45;&gt;Node2</title>
<g id="a_edge6_Node000002_Node000007"><a xlink:title=" ">
<path fill="none" stroke="#9a32cd" stroke-dasharray="5,2" d="M782.77,-288.21C824.05,-288.21 874.49,-288.21 914.67,-288.21"/>
<polygon fill="#9a32cd" stroke="#9a32cd" points="782.9,-284.71 772.9,-288.21 782.9,-291.71 782.9,-284.71"/>
</a>
</g>
<text text-anchor="middle" x="849.5" y="-291.21" font-family="Helvetica,sans-Serif" font-size="10.00" fill="grey"> attr</text>
</g>
<!-- Node8 -->
<g id="Node000008" class="node">
<title>Node8</title>
<g id="a_Node000008"><a xlink:href="class_harlinn_1_1_common_1_1_core_1_1_demangle_1_1_demangled_type.html" target="_top" xlink:title=" ">
<polygon fill="white" stroke="#666666" points="1057,-178.21 915,-178.21 915,-148.21 1057,-148.21 1057,-178.21"/>
<text text-anchor="start" x="923" y="-166.21" font-family="Helvetica,sans-Serif" font-size="10.00">Harlinn::Common::Core</text>
<text text-anchor="middle" x="986" y="-155.21" font-family="Helvetica,sans-Serif" font-size="10.00">::Demangle::DemangledType</text>
</a>
</g>
</g>
<!-- Node8&#45;&gt;Node1 -->
<g id="edge7_Node000001_Node000008" class="edge">
<title>Node8&#45;&gt;Node1</title>
<g id="a_edge7_Node000001_Node000008"><a xlink:title=" ">
<path fill="none" stroke="#9a32cd" stroke-dasharray="5,2" d="M1040.4,-182.51C1086.11,-199.03 1151.04,-222.5 1193.34,-237.79"/>
<polygon fill="#9a32cd" stroke="#9a32cd" points="1041.82,-179.3 1031.23,-179.2 1039.44,-185.89 1041.82,-179.3"/>
</a>
</g>
<text text-anchor="middle" x="1111.5" y="-233.21" font-family="Helvetica,sans-Serif" font-size="10.00" fill="grey"> retval_</text>
<text text-anchor="middle" x="1111.5" y="-222.21" font-family="Helvetica,sans-Serif" font-size="10.00" fill="grey">t</text>
</g>
<!-- Node12 -->
<g id="Node000012" class="node">
<title>Node12</title>
<g id="a_Node000012"><a xlink:title=" ">
<polygon fill="white" stroke="#666666" points="1307,-144.21 1167,-144.21 1167,-114.21 1307,-114.21 1307,-144.21"/>
<text text-anchor="start" x="1175" y="-132.21" font-family="Helvetica,sans-Serif" font-size="10.00">std::shared_ptr&lt; Demangled</text>
<text text-anchor="middle" x="1237" y="-121.21" font-family="Helvetica,sans-Serif" font-size="10.00">Type &gt;</text>
</a>
</g>
</g>
<!-- Node8&#45;&gt;Node12 -->
<g id="edge12_Node000012_Node000008" class="edge">
<title>Node8&#45;&gt;Node12</title>
<g id="a_edge12_Node000012_Node000008"><a xlink:title=" ">
<path fill="none" stroke="#9a32cd" stroke-dasharray="5,2" d="M1027.67,-143.32C1042.24,-137.2 1059.02,-131.27 1075,-128.21 1104.65,-122.53 1137.94,-121.82 1166.51,-122.9"/>
<polygon fill="#9a32cd" stroke="#9a32cd" points="1026.64,-139.95 1018.88,-147.16 1029.44,-146.36 1026.64,-139.95"/>
</a>
</g>
<text text-anchor="middle" x="1111.5" y="-131.21" font-family="Helvetica,sans-Serif" font-size="10.00" fill="grey"> ptr</text>
</g>
<!-- Node9 -->
<g id="Node000009" class="node">
<title>Node9</title>
<g id="a_Node000009"><a xlink:title=" ">
<polygon fill="white" stroke="#666666" points="761.5,-169.71 647.5,-169.71 647.5,-150.71 761.5,-150.71 761.5,-169.71"/>
<text text-anchor="middle" x="704.5" y="-157.71" font-family="Helvetica,sans-Serif" font-size="10.00">std::vector&lt; uint64_t &gt;</text>
</a>
</g>
</g>
<!-- Node9&#45;&gt;Node8 -->
<g id="edge8_Node000008_Node000009" class="edge">
<title>Node9&#45;&gt;Node8</title>
<g id="a_edge8_Node000008_Node000009"><a xlink:title=" ">
<path fill="none" stroke="#9a32cd" stroke-dasharray="5,2" d="M773.18,-160.94C816.05,-161.4 871.36,-161.99 914.72,-162.46"/>
<polygon fill="#9a32cd" stroke="#9a32cd" points="773.28,-157.44 763.24,-160.83 773.2,-164.44 773.28,-157.44"/>
</a>
</g>
<text text-anchor="middle" x="849.5" y="-166.21" font-family="Helvetica,sans-Serif" font-size="10.00" fill="grey"> dimensions</text>
</g>
<!-- Node10 -->
<g id="Node000010" class="node">
<title>Node10</title>
<g id="a_Node000010"><a xlink:title=" ">
<polygon fill="white" stroke="#666666" points="426.5,-155.71 341.5,-155.71 341.5,-136.71 426.5,-136.71 426.5,-155.71"/>
<text text-anchor="middle" x="384" y="-143.71" font-family="Helvetica,sans-Serif" font-size="10.00">std::vector&lt; T &gt;</text>
</a>
</g>
</g>
<!-- Node10&#45;&gt;Node9 -->
<g id="edge9_Node000009_Node000010" class="edge">
<title>Node10&#45;&gt;Node9</title>
<g id="a_edge9_Node000009_Node000010"><a xlink:title=" ">
<path fill="none" stroke="orange" stroke-dasharray="5,2" d="M438.42,-148.56C496.29,-151.1 588.24,-155.14 647.21,-157.74"/>
<polygon fill="orange" stroke="orange" points="438.62,-145.06 428.48,-148.12 438.31,-152.06 438.62,-145.06"/>
</a>
</g>
<text text-anchor="middle" x="534" y="-159.21" font-family="Helvetica,sans-Serif" font-size="10.00" fill="grey"> &lt; uint64_t &gt;</text>
</g>
<!-- Node17 -->
<g id="Node000017" class="node">
<title>Node17</title>
<g id="a_Node000017"><a xlink:title=" ">
<polygon fill="white" stroke="#666666" points="774.5,-118.21 634.5,-118.21 634.5,-88.21 774.5,-88.21 774.5,-118.21"/>
<text text-anchor="start" x="642.5" y="-106.21" font-family="Helvetica,sans-Serif" font-size="10.00">std::vector&lt; DemangledType</text>
<text text-anchor="middle" x="704.5" y="-95.21" font-family="Helvetica,sans-Serif" font-size="10.00">Ptr &gt;</text>
</a>
</g>
</g>
<!-- Node10&#45;&gt;Node17 -->
<g id="edge22_Node000017_Node000010" class="edge">
<title>Node10&#45;&gt;Node17</title>
<g id="a_edge22_Node000017_Node000010"><a xlink:title=" ">
<path fill="none" stroke="orange" stroke-dasharray="5,2" d="M437.96,-138.46C445.69,-137.35 453.55,-136.24 461,-135.21 519.37,-127.14 585.7,-118.41 634.22,-112.12"/>
<polygon fill="orange" stroke="orange" points="437.7,-134.96 428.3,-139.85 438.69,-141.89 437.7,-134.96"/>
</a>
</g>
<text text-anchor="middle" x="534" y="-138.21" font-family="Helvetica,sans-Serif" font-size="10.00" fill="grey"> &lt; DemangledTypePtr &gt;</text>
</g>
<!-- Node18 -->
<g id="Node000018" class="node">
<title>Node18</title>
<g id="a_Node000018"><a xlink:title=" ">
<polygon fill="white" stroke="#666666" points="784,-70.21 625,-70.21 625,-40.21 784,-40.21 784,-70.21"/>
<text text-anchor="start" x="633" y="-58.21" font-family="Helvetica,sans-Serif" font-size="10.00">std::vector&lt; DemangledTemplate</text>
<text text-anchor="middle" x="704.5" y="-47.21" font-family="Helvetica,sans-Serif" font-size="10.00">ParameterPtr &gt;</text>
</a>
</g>
</g>
<!-- Node10&#45;&gt;Node18 -->
<g id="edge25_Node000018_Node000010" class="edge">
<title>Node10&#45;&gt;Node18</title>
<g id="a_edge25_Node000018_Node000010"><a xlink:title=" ">
<path fill="none" stroke="orange" stroke-dasharray="5,2" d="M403.26,-128.68C417.74,-115.85 439.11,-99.19 461,-90.21 489.93,-78.35 565.59,-68.57 624.78,-62.39"/>
<polygon fill="orange" stroke="orange" points="400.93,-126.07 395.92,-135.41 405.66,-131.22 400.93,-126.07"/>
</a>
</g>
<text text-anchor="start" x="461" y="-104.21" font-family="Helvetica,sans-Serif" font-size="10.00" fill="grey"> &lt; DemangledTemplateParameter</text>
<text text-anchor="middle" x="534" y="-93.21" font-family="Helvetica,sans-Serif" font-size="10.00" fill="grey">Ptr &gt;</text>
</g>
<!-- Node19 -->
<g id="Node000019" class="node">
<title>Node19</title>
<g id="a_Node000019"><a xlink:title=" ">
<polygon fill="white" stroke="#666666" points="759,-206.71 650,-206.71 650,-187.71 759,-187.71 759,-206.71"/>
<text text-anchor="middle" x="704.5" y="-194.71" font-family="Helvetica,sans-Serif" font-size="10.00">std::vector&lt; int64_t &gt;</text>
</a>
</g>
</g>
<!-- Node10&#45;&gt;Node19 -->
<g id="edge27_Node000019_Node000010" class="edge">
<title>Node10&#45;&gt;Node19</title>
<g id="a_edge27_Node000019_Node000010"><a xlink:title=" ">
<path fill="none" stroke="orange" stroke-dasharray="5,2" d="M421.5,-159.95C433.88,-164.14 447.9,-168.39 461,-171.21 524.95,-184.99 600.04,-191.61 649.52,-194.69"/>
<polygon fill="orange" stroke="orange" points="422.68,-156.65 412.08,-156.65 420.37,-163.26 422.68,-156.65"/>
</a>
</g>
<text text-anchor="middle" x="534" y="-195.21" font-family="Helvetica,sans-Serif" font-size="10.00" fill="grey"> &lt; int64_t &gt;</text>
</g>
<!-- Node11 -->
<g id="Node000011" class="node">
<title>Node11</title>
<g id="a_Node000011"><a xlink:title=" ">
<polygon fill="white" stroke="#666666" points="52,-155.71 23,-155.71 23,-136.71 52,-136.71 52,-155.71"/>
<text text-anchor="middle" x="37.5" y="-143.71" font-family="Helvetica,sans-Serif" font-size="10.00">T</text>
</a>
</g>
</g>
<!-- Node11&#45;&gt;Node10 -->
<g id="edge10_Node000010_Node000011" class="edge">
<title>Node11&#45;&gt;Node10</title>
<g id="a_edge10_Node000010_Node000011"><a xlink:title=" ">
<path fill="none" stroke="#9a32cd" stroke-dasharray="5,2" d="M63.91,-146.21C122.71,-146.21 268.7,-146.21 341.02,-146.21"/>
<polygon fill="#9a32cd" stroke="#9a32cd" points="63.95,-142.71 53.95,-146.21 63.94,-149.71 63.95,-142.71"/>
</a>
</g>
<text text-anchor="middle" x="202" y="-149.21" font-family="Helvetica,sans-Serif" font-size="10.00" fill="grey"> elements</text>
</g>
<!-- Node13 -->
<g id="Node000013" class="node">
<title>Node13</title>
<g id="a_Node000013"><a xlink:title=" ">
<polygon fill="white" stroke="#666666" points="436.5,-42.71 331.5,-42.71 331.5,-23.71 436.5,-23.71 436.5,-42.71"/>
<text text-anchor="middle" x="384" y="-30.71" font-family="Helvetica,sans-Serif" font-size="10.00">std::shared_ptr&lt; T &gt;</text>
</a>
</g>
</g>
<!-- Node11&#45;&gt;Node13 -->
<g id="edge14_Node000013_Node000011" class="edge">
<title>Node11&#45;&gt;Node13</title>
<g id="a_edge14_Node000013_Node000011"><a xlink:title=" ">
<path fill="none" stroke="#9a32cd" stroke-dasharray="5,2" d="M63.04,-138.16C124.59,-117.97 285.35,-65.24 352.67,-43.16"/>
<polygon fill="#9a32cd" stroke="#9a32cd" points="62.28,-134.73 53.87,-141.17 64.46,-141.38 62.28,-134.73"/>
</a>
</g>
<text text-anchor="middle" x="202" y="-115.21" font-family="Helvetica,sans-Serif" font-size="10.00" fill="grey"> ptr</text>
</g>
<!-- Node15 -->
<g id="Node000015" class="node">
<title>Node15</title>
<g id="a_Node000015"><a xlink:href="struct_harlinn_1_1_common_1_1_core_1_1_internal_1_1_data.html" target="_top" xlink:title=" ">
<polygon fill="white" stroke="#666666" points="261,-221.21 143,-221.21 143,-191.21 261,-191.21 261,-221.21"/>
<text text-anchor="start" x="151" y="-209.21" font-family="Helvetica,sans-Serif" font-size="10.00">Harlinn::Common::Core</text>
<text text-anchor="middle" x="202" y="-198.21" font-family="Helvetica,sans-Serif" font-size="10.00">::Internal::Data&lt; T &gt;</text>
</a>
</g>
</g>
<!-- Node11&#45;&gt;Node15 -->
<g id="edge17_Node000015_Node000011" class="edge">
<title>Node11&#45;&gt;Node15</title>
<g id="a_edge17_Node000015_Node000011"><a xlink:title=" ">
<path fill="none" stroke="#9a32cd" stroke-dasharray="5,2" d="M62.91,-155.22C88.35,-164.62 128.71,-179.52 159.23,-190.79"/>
<polygon fill="#9a32cd" stroke="#9a32cd" points="64.37,-152.03 53.77,-151.85 61.94,-158.6 64.37,-152.03"/>
</a>
</g>
<text text-anchor="middle" x="109" y="-181.21" font-family="Helvetica,sans-Serif" font-size="10.00" fill="grey"> buffer_</text>
</g>
<!-- Node12&#45;&gt;Node8 -->
<g id="edge11_Node000008_Node000012" class="edge">
<title>Node12&#45;&gt;Node8</title>
<g id="a_edge11_Node000008_Node000012"><a xlink:title=" ">
<path fill="none" stroke="#9a32cd" stroke-dasharray="5,2" d="M1155.68,-140.18C1124.02,-144.5 1087.97,-149.42 1057.35,-153.6"/>
<polygon fill="#9a32cd" stroke="#9a32cd" points="1155.75,-143.7 1165.18,-138.88 1154.8,-136.77 1155.75,-143.7"/>
</a>
</g>
<text text-anchor="middle" x="1111.5" y="-176.21" font-family="Helvetica,sans-Serif" font-size="10.00" fill="grey"> enum_real_type</text>
<text text-anchor="middle" x="1111.5" y="-165.21" font-family="Helvetica,sans-Serif" font-size="10.00" fill="grey">inner_type</text>
<text text-anchor="middle" x="1111.5" y="-154.21" font-family="Helvetica,sans-Serif" font-size="10.00" fill="grey">retval</text>
</g>
<!-- Node13&#45;&gt;Node12 -->
<g id="edge13_Node000012_Node000013" class="edge">
<title>Node13&#45;&gt;Node12</title>
<g id="a_edge13_Node000012_Node000013"><a xlink:title=" ">
<path fill="none" stroke="orange" stroke-dasharray="5,2" d="M417.25,-19.01C430.53,-13.89 446.23,-8.76 461,-6.21 524.95,4.81 542.26,-1.77 607,-6.21 736.8,-15.12 769.2,-21.82 897,-46.21 997.88,-65.46 1113.79,-95.61 1180.6,-113.78"/>
<polygon fill="orange" stroke="orange" points="416.11,-15.69 408.15,-22.68 418.73,-22.19 416.11,-15.69"/>
</a>
</g>
<text text-anchor="middle" x="849.5" y="-49.21" font-family="Helvetica,sans-Serif" font-size="10.00" fill="grey"> &lt; DemangledType &gt;</text>
</g>
<!-- Node13&#45;&gt;Node17 -->
<g id="edge21_Node000017_Node000013" class="edge">
<title>Node13&#45;&gt;Node17</title>
<g id="a_edge21_Node000017_Node000013"><a xlink:title=" ">
<path fill="none" stroke="#9a32cd" stroke-dasharray="5,2" d="M448.06,-32.2C504.12,-32.4 581.09,-35.68 607,-51.21 619.69,-58.82 613.21,-70.28 625,-79.21 629.32,-82.48 634.08,-85.31 639.07,-87.75"/>
<polygon fill="#9a32cd" stroke="#9a32cd" points="448.31,-28.7 438.31,-32.2 448.31,-35.7 448.31,-28.7"/>
</a>
</g>
<text text-anchor="middle" x="534" y="-54.21" font-family="Helvetica,sans-Serif" font-size="10.00" fill="grey"> elements</text>
</g>
<!-- Node13&#45;&gt;Node18 -->
<g id="edge24_Node000018_Node000013" class="edge">
<title>Node13&#45;&gt;Node18</title>
<g id="a_edge24_Node000018_Node000013"><a xlink:title=" ">
<path fill="none" stroke="#9a32cd" stroke-dasharray="5,2" d="M435.79,-21C444.17,-19.42 452.79,-18.06 461,-17.21 525.54,-10.49 543.25,-5.11 607,-17.21 630,-21.58 654.52,-31.31 673.09,-39.83"/>
<polygon fill="#9a32cd" stroke="#9a32cd" points="435.19,-17.55 426.08,-22.96 436.57,-24.41 435.19,-17.55"/>
</a>
</g>
<text text-anchor="middle" x="534" y="-20.21" font-family="Helvetica,sans-Serif" font-size="10.00" fill="grey"> elements</text>
</g>
<!-- Node14 -->
<g id="Node000014" class="node">
<title>Node14</title>
<g id="a_Node000014"><a xlink:href="class_harlinn_1_1_common_1_1_core_1_1_basic_string.html" target="_top" xlink:title=" ">
<polygon fill="white" stroke="#666666" points="763.5,-255.21 645.5,-255.21 645.5,-225.21 763.5,-225.21 763.5,-255.21"/>
<text text-anchor="start" x="653.5" y="-243.21" font-family="Helvetica,sans-Serif" font-size="10.00">Harlinn::Common::Core</text>
<text text-anchor="middle" x="704.5" y="-232.21" font-family="Helvetica,sans-Serif" font-size="10.00">::BasicString&lt; char &gt;</text>
</a>
</g>
</g>
<!-- Node14&#45;&gt;Node8 -->
<g id="edge15_Node000008_Node000014" class="edge">
<title>Node14&#45;&gt;Node8</title>
<g id="a_edge15_Node000008_Node000014"><a xlink:title=" ">
<path fill="none" stroke="#9a32cd" stroke-dasharray="5,2" d="M774.86,-230.25C811.64,-224.02 857.32,-214.77 897,-202.21 916.76,-195.96 938.02,-186.61 954.7,-178.64"/>
<polygon fill="#9a32cd" stroke="#9a32cd" points="774.53,-226.76 765.23,-231.84 775.67,-233.67 774.53,-226.76"/>
</a>
</g>
<text text-anchor="middle" x="849.5" y="-239.21" font-family="Helvetica,sans-Serif" font-size="10.00" fill="grey"> calling_convention</text>
<text text-anchor="middle" x="849.5" y="-228.21" font-family="Helvetica,sans-Serif" font-size="10.00" fill="grey">simple_string</text>
</g>
<!-- Node15&#45;&gt;Node14 -->
<g id="edge16_Node000014_Node000015" class="edge">
<title>Node15&#45;&gt;Node14</title>
<g id="a_edge16_Node000014_Node000015"><a xlink:title=" ">
<path fill="none" stroke="#9a32cd" stroke-dasharray="5,2" d="M272.48,-221.13C289.6,-224.45 307.91,-227.73 325,-230.21 449.16,-248.25 481.55,-245.16 607,-243.21 619.32,-243.02 632.52,-242.69 645.08,-242.32"/>
<polygon fill="#9a32cd" stroke="#9a32cd" points="273.41,-217.74 262.92,-219.23 272.05,-224.61 273.41,-217.74"/>
</a>
</g>
<text text-anchor="middle" x="384" y="-245.21" font-family="Helvetica,sans-Serif" font-size="10.00" fill="grey"> data_</text>
</g>
<!-- Node16 -->
<g id="Node000016" class="node">
<title>Node16</title>
<g id="a_Node000016"><a xlink:href="class_harlinn_1_1_common_1_1_core_1_1_basic_string.html" target="_top" xlink:title="This is a reference counted string class.">
<polygon fill="white" stroke="#666666" points="443,-221.21 325,-221.21 325,-191.21 443,-191.21 443,-221.21"/>
<text text-anchor="start" x="333" y="-209.21" font-family="Helvetica,sans-Serif" font-size="10.00">Harlinn::Common::Core</text>
<text text-anchor="middle" x="384" y="-198.21" font-family="Helvetica,sans-Serif" font-size="10.00">::BasicString&lt; T &gt;</text>
</a>
</g>
</g>
<!-- Node15&#45;&gt;Node16 -->
<g id="edge19_Node000016_Node000015" class="edge">
<title>Node15&#45;&gt;Node16</title>
<g id="a_edge19_Node000016_Node000015"><a xlink:title=" ">
<path fill="none" stroke="#9a32cd" stroke-dasharray="5,2" d="M272.55,-206.21C289.73,-206.21 307.95,-206.21 324.54,-206.21"/>
<polygon fill="#9a32cd" stroke="#9a32cd" points="272.95,-202.71 262.95,-206.21 272.95,-209.71 272.95,-202.71"/>
</a>
</g>
<text text-anchor="middle" x="293" y="-209.21" font-family="Helvetica,sans-Serif" font-size="10.00" fill="grey"> data_</text>
</g>
<!-- Node16&#45;&gt;Node14 -->
<g id="edge18_Node000014_Node000016" class="edge">
<title>Node16&#45;&gt;Node14</title>
<g id="a_edge18_Node000014_Node000016"><a xlink:title=" ">
<path fill="none" stroke="orange" stroke-dasharray="5,2" d="M454.87,-213.67C511.89,-219.76 591.54,-228.26 645.18,-233.99"/>
<polygon fill="orange" stroke="orange" points="455.24,-210.19 444.92,-212.61 454.49,-217.15 455.24,-210.19"/>
</a>
</g>
<text text-anchor="middle" x="534" y="-232.21" font-family="Helvetica,sans-Serif" font-size="10.00" fill="grey"> &lt; char &gt;</text>
</g>
<!-- Node17&#45;&gt;Node8 -->
<g id="edge20_Node000008_Node000017" class="edge">
<title>Node17&#45;&gt;Node8</title>
<g id="a_edge20_Node000008_Node000017"><a xlink:title=" ">
<path fill="none" stroke="#9a32cd" stroke-dasharray="5,2" d="M785.64,-99.87C820.46,-100.43 861.36,-103.86 897,-114.21 921.52,-121.33 946.69,-136.27 963.8,-147.79"/>
<polygon fill="#9a32cd" stroke="#9a32cd" points="786.1,-96.37 776.07,-99.79 786.04,-103.37 786.1,-96.37"/>
</a>
</g>
<text text-anchor="middle" x="849.5" y="-150.21" font-family="Helvetica,sans-Serif" font-size="10.00" fill="grey"> args</text>
<text text-anchor="middle" x="849.5" y="-139.21" font-family="Helvetica,sans-Serif" font-size="10.00" fill="grey">com_interface</text>
<text text-anchor="middle" x="849.5" y="-128.21" font-family="Helvetica,sans-Serif" font-size="10.00" fill="grey">instance_name</text>
<text text-anchor="middle" x="849.5" y="-117.21" font-family="Helvetica,sans-Serif" font-size="10.00" fill="grey">name</text>
</g>
<!-- Node18&#45;&gt;Node8 -->
<g id="edge23_Node000008_Node000018" class="edge">
<title>Node18&#45;&gt;Node8</title>
<g id="a_edge23_Node000008_Node000018"><a xlink:title=" ">
<path fill="none" stroke="#9a32cd" stroke-dasharray="5,2" d="M795.43,-59.39C828.57,-63.56 865.65,-71.46 897,-86.21 928.23,-100.9 956.79,-130.04 972.45,-147.95"/>
<polygon fill="#9a32cd" stroke="#9a32cd" points="796.2,-55.95 785.86,-58.28 795.39,-62.91 796.2,-55.95"/>
</a>
</g>
<text text-anchor="middle" x="849.5" y="-89.21" font-family="Helvetica,sans-Serif" font-size="10.00" fill="grey"> template_parameters</text>
</g>
<!-- Node19&#45;&gt;Node8 -->
<g id="edge26_Node000008_Node000019" class="edge">
<title>Node19&#45;&gt;Node8</title>
<g id="a_edge26_Node000008_Node000019"><a xlink:title=" ">
<path fill="none" stroke="#9a32cd" stroke-dasharray="5,2" d="M770.36,-190.1C807.46,-185.95 854.87,-180.5 897,-175.21 902.81,-174.48 908.84,-173.7 914.89,-172.91"/>
<polygon fill="#9a32cd" stroke="#9a32cd" points="770.25,-186.6 760.69,-191.18 771.02,-193.55 770.25,-186.6"/>
</a>
</g>
<text text-anchor="middle" x="849.5" y="-190.21" font-family="Helvetica,sans-Serif" font-size="10.00" fill="grey"> n</text>
</g>
</g>
</svg>
