<?xml version="1.0" encoding="UTF-8" standalone="no"?>
<!DOCTYPE svg PUBLIC "-//W3C//DTD SVG 1.1//EN"
 "http://www.w3.org/Graphics/SVG/1.1/DTD/svg11.dtd">
<!-- Generated by graphviz version 7.0.1 (20221109.1506)
 -->
<!-- Title: Harlinn::Windows::TextEditBase Pages: 1 -->
<svg width="296pt" height="247pt"
 viewBox="0.00 0.00 296.00 247.00" xmlns="http://www.w3.org/2000/svg" xmlns:xlink="http://www.w3.org/1999/xlink">
<g id="graph0" class="graph" transform="scale(1 1) rotate(0) translate(4 243)">
<title>Harlinn::Windows::TextEditBase</title>
<!-- Node1 -->
<g id="Node000001" class="node">
<title>Node1</title>
<g id="a_Node000001"><a xlink:title=" ">
<polygon fill="#999999" stroke="#666666" points="219,-129 62,-129 62,-110 219,-110 219,-129"/>
<text text-anchor="middle" x="140.5" y="-117" font-family="Helvetica,sans-Serif" font-size="10.00">Harlinn::Windows::TextEditBase</text>
</a>
</g>
</g>
<!-- Node4 -->
<g id="Node000004" class="node">
<title>Node4</title>
<g id="a_Node000004"><a xlink:href="class_harlinn_1_1_windows_1_1_hot_key.xhtml" target="_top" xlink:title=" ">
<polygon fill="white" stroke="#666666" points="131,-74 0,-74 0,-55 131,-55 131,-74"/>
<text text-anchor="middle" x="65.5" y="-62" font-family="Helvetica,sans-Serif" font-size="10.00">Harlinn::Windows::HotKey</text>
</a>
</g>
</g>
<!-- Node1&#45;&gt;Node4 -->
<g id="edge3_Node000001_Node000004" class="edge">
<title>Node1&#45;&gt;Node4</title>
<g id="a_edge3_Node000001_Node000004"><a xlink:title=" ">
<path fill="none" stroke="#63b8ff" d="M118.45,-102.92C105.28,-93.61 89.03,-82.13 78.03,-74.36"/>
<polygon fill="#63b8ff" stroke="#63b8ff" points="116.35,-105.72 126.54,-108.64 120.39,-100.01 116.35,-105.72"/>
</a>
</g>
</g>
<!-- Node5 -->
<g id="Node000005" class="node">
<title>Node5</title>
<g id="a_Node000005"><a xlink:href="class_harlinn_1_1_windows_1_1_text_edit.xhtml" target="_top" xlink:title=" ">
<polygon fill="white" stroke="#666666" points="283.5,-74 149.5,-74 149.5,-55 283.5,-55 283.5,-74"/>
<text text-anchor="middle" x="216.5" y="-62" font-family="Helvetica,sans-Serif" font-size="10.00">Harlinn::Windows::TextEdit</text>
</a>
</g>
</g>
<!-- Node1&#45;&gt;Node5 -->
<g id="edge4_Node000001_Node000005" class="edge">
<title>Node1&#45;&gt;Node5</title>
<g id="a_edge4_Node000001_Node000005"><a xlink:title=" ">
<path fill="none" stroke="#63b8ff" d="M162.46,-103.19C175.87,-93.84 192.54,-82.21 203.8,-74.36"/>
<polygon fill="#63b8ff" stroke="#63b8ff" points="160.83,-100.05 154.63,-108.64 164.84,-105.79 160.83,-100.05"/>
</a>
</g>
</g>
<!-- Node2 -->
<g id="Node000002" class="node">
<title>Node2</title>
<g id="a_Node000002"><a xlink:href="class_harlinn_1_1_windows_1_1_edit_base.xhtml" target="_top" xlink:title=" ">
<polygon fill="white" stroke="#666666" points="209.5,-184 71.5,-184 71.5,-165 209.5,-165 209.5,-184"/>
<text text-anchor="middle" x="140.5" y="-172" font-family="Helvetica,sans-Serif" font-size="10.00">Harlinn::Windows::EditBase</text>
</a>
</g>
</g>
<!-- Node2&#45;&gt;Node1 -->
<g id="edge1_Node000001_Node000002" class="edge">
<title>Node2&#45;&gt;Node1</title>
<g id="a_edge1_Node000001_Node000002"><a xlink:title=" ">
<path fill="none" stroke="#63b8ff" d="M140.5,-153.35C140.5,-145.1 140.5,-135.97 140.5,-129.44"/>
<polygon fill="#63b8ff" stroke="#63b8ff" points="137,-153.23 140.5,-163.23 144,-153.23 137,-153.23"/>
</a>
</g>
</g>
<!-- Node3 -->
<g id="Node000003" class="node">
<title>Node3</title>
<g id="a_Node000003"><a xlink:href="class_harlinn_1_1_windows_1_1_control.xhtml" target="_top" xlink:title=" ">
<polygon fill="white" stroke="#666666" points="205,-239 76,-239 76,-220 205,-220 205,-239"/>
<text text-anchor="middle" x="140.5" y="-227" font-family="Helvetica,sans-Serif" font-size="10.00">Harlinn::Windows::Control</text>
</a>
</g>
</g>
<!-- Node3&#45;&gt;Node2 -->
<g id="edge2_Node000002_Node000003" class="edge">
<title>Node3&#45;&gt;Node2</title>
<g id="a_edge2_Node000002_Node000003"><a xlink:title=" ">
<path fill="none" stroke="#63b8ff" d="M140.5,-208.35C140.5,-200.1 140.5,-190.97 140.5,-184.44"/>
<polygon fill="#63b8ff" stroke="#63b8ff" points="137,-208.23 140.5,-218.23 144,-208.23 137,-208.23"/>
</a>
</g>
</g>
<!-- Node6 -->
<g id="Node000006" class="node">
<title>Node6</title>
<g id="a_Node000006"><a xlink:href="class_harlinn_1_1_windows_1_1_memo_edit.xhtml" target="_top" xlink:title=" ">
<polygon fill="white" stroke="#666666" points="288,-19 145,-19 145,0 288,0 288,-19"/>
<text text-anchor="middle" x="216.5" y="-7" font-family="Helvetica,sans-Serif" font-size="10.00">Harlinn::Windows::MemoEdit</text>
</a>
</g>
</g>
<!-- Node5&#45;&gt;Node6 -->
<g id="edge5_Node000005_Node000006" class="edge">
<title>Node5&#45;&gt;Node6</title>
<g id="a_edge5_Node000005_Node000006"><a xlink:title=" ">
<path fill="none" stroke="#63b8ff" d="M216.5,-43.35C216.5,-35.1 216.5,-25.97 216.5,-19.44"/>
<polygon fill="#63b8ff" stroke="#63b8ff" points="213,-43.23 216.5,-53.23 220,-43.23 213,-43.23"/>
</a>
</g>
</g>
</g>
</svg>
