<?xml version="1.0" encoding="UTF-8" standalone="no"?>
<!DOCTYPE svg PUBLIC "-//W3C//DTD SVG 1.1//EN"
 "http://www.w3.org/Graphics/SVG/1.1/DTD/svg11.dtd">
<!-- Generated by graphviz version 7.0.1 (20221109.1506)
 -->
<!-- Title: Harlinn::Common::Core::Math::Vector&lt; double, 3 &gt; Pages: 1 -->
<svg width="750pt" height="93pt"
 viewBox="0.00 0.00 750.00 92.50" xmlns="http://www.w3.org/2000/svg" xmlns:xlink="http://www.w3.org/1999/xlink">
<g id="graph0" class="graph" transform="scale(1 1) rotate(0) translate(4 88.5)">
<title>Harlinn::Common::Core::Math::Vector&lt; double, 3 &gt;</title>
<!-- Node1 -->
<g id="Node000001" class="node">
<title>Node1</title>
<g id="a_Node000001"><a xlink:title=" ">
<polygon fill="#999999" stroke="#666666" points="742,-75.5 605,-75.5 605,-45.5 742,-45.5 742,-75.5"/>
<text text-anchor="start" x="613" y="-63.5" font-family="Helvetica,sans-Serif" font-size="10.00">Harlinn::Common::Core</text>
<text text-anchor="middle" x="673.5" y="-52.5" font-family="Helvetica,sans-Serif" font-size="10.00">::Math::Vector&lt; double, 3 &gt;</text>
</a>
</g>
</g>
<!-- Node2 -->
<g id="Node000002" class="node">
<title>Node2</title>
<g id="a_Node000002"><a xlink:href="class_harlinn_1_1_common_1_1_core_1_1_math_1_1_tuple3.html" target="_top" xlink:title=" ">
<polygon fill="white" stroke="#666666" points="568,-81 450,-81 450,-40 568,-40 568,-81"/>
<text text-anchor="start" x="458" y="-69" font-family="Helvetica,sans-Serif" font-size="10.00">Harlinn::Common::Core</text>
<text text-anchor="start" x="458" y="-58" font-family="Helvetica,sans-Serif" font-size="10.00">::Math::Tuple3&lt; Vector</text>
<text text-anchor="middle" x="509" y="-47" font-family="Helvetica,sans-Serif" font-size="10.00">&lt; double, 3 &gt;, double &gt;</text>
</a>
</g>
</g>
<!-- Node2&#45;&gt;Node1 -->
<g id="edge1_Node000001_Node000002" class="edge">
<title>Node2&#45;&gt;Node1</title>
<g id="a_edge1_Node000001_Node000002"><a xlink:title=" ">
<path fill="none" stroke="#63b8ff" d="M579.48,-60.5C587.85,-60.5 596.39,-60.5 604.73,-60.5"/>
<polygon fill="#63b8ff" stroke="#63b8ff" points="579.72,-57 569.72,-60.5 579.72,-64 579.72,-57"/>
</a>
</g>
</g>
<!-- Node3 -->
<g id="Node000003" class="node">
<title>Node3</title>
<g id="a_Node000003"><a xlink:href="struct_harlinn_1_1_common_1_1_core_1_1_math_1_1_internal_1_1_tuple_base.html" target="_top" xlink:title=" ">
<polygon fill="white" stroke="#666666" points="134,-84.5 0,-84.5 0,-54.5 134,-54.5 134,-84.5"/>
<text text-anchor="start" x="8" y="-72.5" font-family="Helvetica,sans-Serif" font-size="10.00">Harlinn::Common::Core</text>
<text text-anchor="middle" x="67" y="-61.5" font-family="Helvetica,sans-Serif" font-size="10.00">::Math::Internal::TupleBase</text>
</a>
</g>
</g>
<!-- Node3&#45;&gt;Node2 -->
<g id="edge2_Node000002_Node000003" class="edge">
<title>Node3&#45;&gt;Node2</title>
<g id="a_edge2_Node000002_Node000003"><a xlink:title=" ">
<path fill="none" stroke="#63b8ff" d="M145.96,-71.58C219.71,-73.01 333.47,-73.81 432,-68.5 437.7,-68.19 443.62,-67.76 449.54,-67.26"/>
<polygon fill="#63b8ff" stroke="#63b8ff" points="146.06,-68.09 135.99,-71.38 145.92,-75.08 146.06,-68.09"/>
</a>
</g>
</g>
<!-- Node4 -->
<g id="Node000004" class="node">
<title>Node4</title>
<g id="a_Node000004"><a xlink:href="class_harlinn_1_1_common_1_1_core_1_1_math_1_1_tuple3.html" target="_top" xlink:title=" ">
<polygon fill="white" stroke="#666666" points="324,-54.5 179,-54.5 179,-24.5 324,-24.5 324,-54.5"/>
<text text-anchor="start" x="187" y="-42.5" font-family="Helvetica,sans-Serif" font-size="10.00">Harlinn::Common::Core</text>
<text text-anchor="middle" x="251.5" y="-31.5" font-family="Helvetica,sans-Serif" font-size="10.00">::Math::Tuple3&lt; DerivedT, T &gt;</text>
</a>
</g>
</g>
<!-- Node3&#45;&gt;Node4 -->
<g id="edge4_Node000004_Node000003" class="edge">
<title>Node3&#45;&gt;Node4</title>
<g id="a_edge4_Node000004_Node000003"><a xlink:title=" ">
<path fill="none" stroke="#63b8ff" d="M145.67,-56.73C156.6,-54.94 167.79,-53.1 178.6,-51.32"/>
<polygon fill="#63b8ff" stroke="#63b8ff" points="145.2,-53.26 135.9,-58.34 146.33,-60.17 145.2,-53.26"/>
</a>
</g>
</g>
<!-- Node4&#45;&gt;Node2 -->
<g id="edge3_Node000002_Node000004" class="edge">
<title>Node4&#45;&gt;Node2</title>
<g id="a_edge3_Node000002_Node000004"><a xlink:title=" ">
<path fill="none" stroke="orange" stroke-dasharray="5,2" d="M335.72,-40.27C366.09,-41.2 400.67,-43.02 432,-46.5 437.73,-47.14 443.69,-47.95 449.62,-48.87"/>
<polygon fill="orange" stroke="orange" points="335.91,-36.77 325.81,-39.99 335.71,-43.77 335.91,-36.77"/>
</a>
</g>
<text text-anchor="start" x="342" y="-60.5" font-family="Helvetica,sans-Serif" font-size="10.00" fill="grey"> &lt; Vector&lt; double, 3</text>
<text text-anchor="middle" x="387" y="-49.5" font-family="Helvetica,sans-Serif" font-size="10.00" fill="grey"> &gt;, double &gt;</text>
</g>
<!-- Node5 -->
<g id="Node000005" class="node">
<title>Node5</title>
<g id="a_Node000005"><a xlink:title=" ">
<polygon fill="white" stroke="#666666" points="81.5,-19 52.5,-19 52.5,0 81.5,0 81.5,-19"/>
<text text-anchor="middle" x="67" y="-7" font-family="Helvetica,sans-Serif" font-size="10.00">T</text>
</a>
</g>
</g>
<!-- Node5&#45;&gt;Node4 -->
<g id="edge5_Node000004_Node000005" class="edge">
<title>Node5&#45;&gt;Node4</title>
<g id="a_edge5_Node000004_Node000005"><a xlink:title=" ">
<path fill="none" stroke="#9a32cd" stroke-dasharray="5,2" d="M93.37,-10.62C112.14,-11.7 138.29,-13.75 161,-17.5 171.58,-19.24 182.75,-21.58 193.48,-24.08"/>
<polygon fill="#9a32cd" stroke="#9a32cd" points="93.63,-7.13 83.46,-10.1 93.27,-14.12 93.63,-7.13"/>
</a>
</g>
<text text-anchor="middle" x="156.5" y="-42.5" font-family="Helvetica,sans-Serif" font-size="10.00" fill="grey"> x</text>
<text text-anchor="middle" x="156.5" y="-31.5" font-family="Helvetica,sans-Serif" font-size="10.00" fill="grey">y</text>
<text text-anchor="middle" x="156.5" y="-20.5" font-family="Helvetica,sans-Serif" font-size="10.00" fill="grey">z</text>
</g>
</g>
</svg>
