<?xml version="1.0" encoding="UTF-8" standalone="no"?>
<!DOCTYPE svg PUBLIC "-//W3C//DTD SVG 1.1//EN"
 "http://www.w3.org/Graphics/SVG/1.1/DTD/svg11.dtd">
<!-- Generated by graphviz version 7.0.1 (20221109.1506)
 -->
<!-- Title: Harlinn::Common::Core::SensorEventSink Pages: 1 -->
<svg width="636pt" height="98pt"
 viewBox="0.00 0.00 636.00 97.50" xmlns="http://www.w3.org/2000/svg" xmlns:xlink="http://www.w3.org/1999/xlink">
<g id="graph0" class="graph" transform="scale(1 1) rotate(0) translate(4 93.5)">
<title>Harlinn::Common::Core::SensorEventSink</title>
<!-- Node1 -->
<g id="Node000001" class="node">
<title>Node1</title>
<g id="a_Node000001"><a xlink:title=" ">
<polygon fill="#999999" stroke="#666666" points="628,-57 510,-57 510,-27 628,-27 628,-57"/>
<text text-anchor="start" x="518" y="-45" font-family="Helvetica,sans-Serif" font-size="10.00">Harlinn::Common::Core</text>
<text text-anchor="middle" x="569" y="-34" font-family="Helvetica,sans-Serif" font-size="10.00">::SensorEventSink</text>
</a>
</g>
</g>
<!-- Node2 -->
<g id="Node000002" class="node">
<title>Node2</title>
<g id="a_Node000002"><a xlink:href="class_harlinn_1_1_common_1_1_core_1_1_sensor_event_sink_base.xhtml" target="_top" xlink:title=" ">
<polygon fill="white" stroke="#666666" points="473,-57 354,-57 354,-27 473,-27 473,-57"/>
<text text-anchor="start" x="362" y="-45" font-family="Helvetica,sans-Serif" font-size="10.00">Harlinn::Common::Core</text>
<text text-anchor="middle" x="413.5" y="-34" font-family="Helvetica,sans-Serif" font-size="10.00">::SensorEventSinkBase</text>
</a>
</g>
</g>
<!-- Node2&#45;&gt;Node1 -->
<g id="edge1_Node000001_Node000002" class="edge">
<title>Node2&#45;&gt;Node1</title>
<g id="a_edge1_Node000001_Node000002"><a xlink:title=" ">
<path fill="none" stroke="#63b8ff" d="M484.64,-42C492.96,-42 501.38,-42 509.5,-42"/>
<polygon fill="#63b8ff" stroke="#63b8ff" points="484.92,-38.5 474.92,-42 484.92,-45.5 484.92,-38.5"/>
</a>
</g>
</g>
<!-- Node3 -->
<g id="Node000003" class="node">
<title>Node3</title>
<g id="a_Node000003"><a xlink:title=" ">
<polygon fill="white" stroke="#666666" points="280,-89.5 155,-89.5 155,-48.5 280,-48.5 280,-89.5"/>
<text text-anchor="start" x="163" y="-77.5" font-family="Helvetica,sans-Serif" font-size="10.00">IUnknownImplementation</text>
<text text-anchor="start" x="163" y="-66.5" font-family="Helvetica,sans-Serif" font-size="10.00">&lt; SensorEventSinkBase,</text>
<text text-anchor="middle" x="217.5" y="-55.5" font-family="Helvetica,sans-Serif" font-size="10.00"> ISensorEvents &gt;</text>
</a>
</g>
</g>
<!-- Node3&#45;&gt;Node2 -->
<g id="edge2_Node000002_Node000003" class="edge">
<title>Node3&#45;&gt;Node2</title>
<g id="a_edge2_Node000002_Node000003"><a xlink:title=" ">
<path fill="none" stroke="#63b8ff" d="M291.64,-58.82C312.18,-55.96 334.24,-52.89 353.81,-50.17"/>
<polygon fill="#63b8ff" stroke="#63b8ff" points="291.34,-55.33 281.92,-60.17 292.3,-62.26 291.34,-55.33"/>
</a>
</g>
</g>
<!-- Node4 -->
<g id="Node000004" class="node">
<title>Node4</title>
<g id="a_Node000004"><a xlink:href="class_harlinn_1_1_common_1_1_core_1_1_sensor.xhtml" target="_top" xlink:title="Represents a sensor.">
<polygon fill="white" stroke="#666666" points="276.5,-30 158.5,-30 158.5,0 276.5,0 276.5,-30"/>
<text text-anchor="start" x="166.5" y="-18" font-family="Helvetica,sans-Serif" font-size="10.00">Harlinn::Common::Core</text>
<text text-anchor="middle" x="217.5" y="-7" font-family="Helvetica,sans-Serif" font-size="10.00">::Sensor</text>
</a>
</g>
</g>
<!-- Node4&#45;&gt;Node2 -->
<g id="edge3_Node000002_Node000004" class="edge">
<title>Node4&#45;&gt;Node2</title>
<g id="a_edge3_Node000002_Node000004"><a xlink:title=" ">
<path fill="none" stroke="#9a32cd" stroke-dasharray="5,2" d="M288.33,-24.72C309.79,-27.71 333.18,-30.96 353.82,-33.83"/>
<polygon fill="#9a32cd" stroke="#9a32cd" points="288.86,-21.26 278.47,-23.35 287.89,-28.19 288.86,-21.26"/>
</a>
</g>
<text text-anchor="middle" x="317" y="-34" font-family="Helvetica,sans-Serif" font-size="10.00" fill="grey"> sensor_</text>
</g>
<!-- Node5 -->
<g id="Node000005" class="node">
<title>Node5</title>
<g id="a_Node000005"><a xlink:href="class_harlinn_1_1_common_1_1_core_1_1_unknown.xhtml" target="_top" xlink:title=" ">
<polygon fill="white" stroke="#666666" points="118,-30 0,-30 0,0 118,0 118,-30"/>
<text text-anchor="start" x="8" y="-18" font-family="Helvetica,sans-Serif" font-size="10.00">Harlinn::Common::Core</text>
<text text-anchor="middle" x="59" y="-7" font-family="Helvetica,sans-Serif" font-size="10.00">::Unknown</text>
</a>
</g>
</g>
<!-- Node5&#45;&gt;Node4 -->
<g id="edge4_Node000004_Node000005" class="edge">
<title>Node5&#45;&gt;Node4</title>
<g id="a_edge4_Node000004_Node000005"><a xlink:title=" ">
<path fill="none" stroke="#63b8ff" d="M129.74,-15C139.24,-15 148.91,-15 158.18,-15"/>
<polygon fill="#63b8ff" stroke="#63b8ff" points="129.79,-11.5 119.79,-15 129.79,-18.5 129.79,-11.5"/>
</a>
</g>
</g>
</g>
</svg>
