<?xml version="1.0" encoding="UTF-8" standalone="no"?>
<!DOCTYPE svg PUBLIC "-//W3C//DTD SVG 1.1//EN"
 "http://www.w3.org/Graphics/SVG/1.1/DTD/svg11.dtd">
<!-- Generated by graphviz version 7.0.1 (20221109.1506)
 -->
<!-- Title: Harlinn::Windows::LiveMedia::MediaFoundationH264LiveSource Pages: 1 -->
<svg width="1008pt" height="238pt"
 viewBox="0.00 0.00 1008.00 237.59" xmlns="http://www.w3.org/2000/svg" xmlns:xlink="http://www.w3.org/1999/xlink">
<g id="graph0" class="graph" transform="scale(1 1) rotate(0) translate(4 233.59)">
<title>Harlinn::Windows::LiveMedia::MediaFoundationH264LiveSource</title>
<!-- Node1 -->
<g id="Node000001" class="node">
<title>Node1</title>
<g id="a_Node000001"><a xlink:title=" ">
<polygon fill="#999999" stroke="#666666" points="1000,-148.09 833,-148.09 833,-118.09 1000,-118.09 1000,-148.09"/>
<text text-anchor="start" x="841" y="-136.09" font-family="Helvetica,sans-Serif" font-size="10.00">Harlinn::Windows::LiveMedia</text>
<text text-anchor="middle" x="916.5" y="-125.09" font-family="Helvetica,sans-Serif" font-size="10.00">::MediaFoundationH264LiveSource</text>
</a>
</g>
</g>
<!-- Node2 -->
<g id="Node000002" class="node">
<title>Node2</title>
<g id="a_Node000002"><a xlink:title=" ">
<polygon fill="white" stroke="#666666" points="621,-229.59 541,-229.59 541,-210.59 621,-210.59 621,-229.59"/>
<text text-anchor="middle" x="581" y="-217.59" font-family="Helvetica,sans-Serif" font-size="10.00">FramedSource</text>
</a>
</g>
</g>
<!-- Node2&#45;&gt;Node1 -->
<g id="edge1_Node000001_Node000002" class="edge">
<title>Node2&#45;&gt;Node1</title>
<g id="a_edge1_Node000001_Node000002"><a xlink:title=" ">
<path fill="none" stroke="#63b8ff" d="M632.76,-214.94C680.56,-209.21 753.77,-198.14 815,-179.09 840.28,-171.22 867.51,-158.47 887.24,-148.38"/>
<polygon fill="#63b8ff" stroke="#63b8ff" points="632.51,-211.44 622.98,-216.07 633.32,-218.4 632.51,-211.44"/>
</a>
</g>
</g>
<!-- Node3 -->
<g id="Node000003" class="node">
<title>Node3</title>
<g id="a_Node000003"><a xlink:href="class_harlinn_1_1_windows_1_1_m_f_media_source.xhtml" target="_top" xlink:title=" ">
<polygon fill="white" stroke="#666666" points="650.5,-192.09 511.5,-192.09 511.5,-162.09 650.5,-162.09 650.5,-192.09"/>
<text text-anchor="start" x="519.5" y="-180.09" font-family="Helvetica,sans-Serif" font-size="10.00">Harlinn::Windows::MFMedia</text>
<text text-anchor="middle" x="581" y="-169.09" font-family="Helvetica,sans-Serif" font-size="10.00">Source</text>
</a>
</g>
</g>
<!-- Node3&#45;&gt;Node1 -->
<g id="edge2_Node000001_Node000003" class="edge">
<title>Node3&#45;&gt;Node1</title>
<g id="a_edge2_Node000001_Node000003"><a xlink:title=" ">
<path fill="none" stroke="#9a32cd" stroke-dasharray="5,2" d="M662,-167C706.98,-161.27 764.13,-153.91 815,-147.09 820.76,-146.32 826.71,-145.51 832.7,-144.69"/>
<polygon fill="#9a32cd" stroke="#9a32cd" points="661.82,-163.49 652.34,-168.22 662.71,-170.43 661.82,-163.49"/>
</a>
</g>
<text text-anchor="middle" x="747" y="-167.09" font-family="Helvetica,sans-Serif" font-size="10.00" fill="grey"> videoSource_</text>
</g>
<!-- Node4 -->
<g id="Node000004" class="node">
<title>Node4</title>
<g id="a_Node000004"><a xlink:href="class_harlinn_1_1_windows_1_1_m_f_media_event_generator.xhtml" target="_top" xlink:title=" ">
<polygon fill="white" stroke="#666666" points="302,-190.09 163,-190.09 163,-160.09 302,-160.09 302,-190.09"/>
<text text-anchor="start" x="171" y="-178.09" font-family="Helvetica,sans-Serif" font-size="10.00">Harlinn::Windows::MFMedia</text>
<text text-anchor="middle" x="232.5" y="-167.09" font-family="Helvetica,sans-Serif" font-size="10.00">EventGenerator</text>
</a>
</g>
</g>
<!-- Node4&#45;&gt;Node3 -->
<g id="edge3_Node000003_Node000004" class="edge">
<title>Node4&#45;&gt;Node3</title>
<g id="a_edge3_Node000003_Node000004"><a xlink:title=" ">
<path fill="none" stroke="#63b8ff" d="M313.66,-175.55C373.49,-175.9 454.37,-176.36 511.26,-176.69"/>
<polygon fill="#63b8ff" stroke="#63b8ff" points="313.91,-172.05 303.89,-175.49 313.86,-179.05 313.91,-172.05"/>
</a>
</g>
</g>
<!-- Node5 -->
<g id="Node000005" class="node">
<title>Node5</title>
<g id="a_Node000005"><a xlink:href="class_harlinn_1_1_common_1_1_core_1_1_unknown.xhtml" target="_top" xlink:title=" ">
<polygon fill="white" stroke="#666666" points="118,-121.09 0,-121.09 0,-91.09 118,-91.09 118,-121.09"/>
<text text-anchor="start" x="8" y="-109.09" font-family="Helvetica,sans-Serif" font-size="10.00">Harlinn::Common::Core</text>
<text text-anchor="middle" x="59" y="-98.09" font-family="Helvetica,sans-Serif" font-size="10.00">::Unknown</text>
</a>
</g>
</g>
<!-- Node5&#45;&gt;Node4 -->
<g id="edge4_Node000004_Node000005" class="edge">
<title>Node5&#45;&gt;Node4</title>
<g id="a_edge4_Node000004_Node000005"><a xlink:title=" ">
<path fill="none" stroke="#63b8ff" d="M99.77,-126.65C111.32,-132.29 124.04,-138.2 136,-143.09 150.57,-149.05 166.69,-154.77 181.49,-159.69"/>
<polygon fill="#63b8ff" stroke="#63b8ff" points="101.42,-123.57 90.91,-122.26 98.31,-129.84 101.42,-123.57"/>
</a>
</g>
</g>
<!-- Node6 -->
<g id="Node000006" class="node">
<title>Node6</title>
<g id="a_Node000006"><a xlink:href="class_harlinn_1_1_windows_1_1_m_f_source_reader.xhtml" target="_top" xlink:title=" ">
<polygon fill="white" stroke="#666666" points="477,-146.09 334,-146.09 334,-116.09 477,-116.09 477,-146.09"/>
<text text-anchor="start" x="342" y="-134.09" font-family="Helvetica,sans-Serif" font-size="10.00">Harlinn::Windows::MFSource</text>
<text text-anchor="middle" x="405.5" y="-123.09" font-family="Helvetica,sans-Serif" font-size="10.00">Reader</text>
</a>
</g>
</g>
<!-- Node5&#45;&gt;Node6 -->
<g id="edge6_Node000006_Node000005" class="edge">
<title>Node5&#45;&gt;Node6</title>
<g id="a_edge6_Node000006_Node000005"><a xlink:title=" ">
<path fill="none" stroke="#63b8ff" d="M129.79,-114.51C131.88,-114.71 133.95,-114.91 136,-115.09 202.98,-121.05 279.56,-125.36 333.75,-128"/>
<polygon fill="#63b8ff" stroke="#63b8ff" points="130.28,-111.04 119.97,-113.51 129.57,-118.01 130.28,-111.04"/>
</a>
</g>
</g>
<!-- Node7 -->
<g id="Node000007" class="node">
<title>Node7</title>
<g id="a_Node000007"><a xlink:href="class_harlinn_1_1_windows_1_1_m_f_transform.xhtml" target="_top" xlink:title=" ">
<polygon fill="white" stroke="#666666" points="483,-95.59 328,-95.59 328,-76.59 483,-76.59 483,-95.59"/>
<text text-anchor="middle" x="405.5" y="-83.59" font-family="Helvetica,sans-Serif" font-size="10.00">Harlinn::Windows::MFTransform</text>
</a>
</g>
</g>
<!-- Node5&#45;&gt;Node7 -->
<g id="edge8_Node000007_Node000005" class="edge">
<title>Node5&#45;&gt;Node7</title>
<g id="a_edge8_Node000007_Node000005"><a xlink:title=" ">
<path fill="none" stroke="#63b8ff" d="M129.58,-102.05C186.97,-98.72 268.3,-94 327.6,-90.55"/>
<polygon fill="#63b8ff" stroke="#63b8ff" points="129.73,-98.53 119.95,-102.61 130.14,-105.52 129.73,-98.53"/>
</a>
</g>
</g>
<!-- Node9 -->
<g id="Node000009" class="node">
<title>Node9</title>
<g id="a_Node000009"><a xlink:href="class_harlinn_1_1_windows_1_1_m_f_attributes.xhtml" target="_top" xlink:title=" ">
<polygon fill="white" stroke="#666666" points="310,-56.59 155,-56.59 155,-37.59 310,-37.59 310,-56.59"/>
<text text-anchor="middle" x="232.5" y="-44.59" font-family="Helvetica,sans-Serif" font-size="10.00">Harlinn::Windows::MFAttributes</text>
</a>
</g>
</g>
<!-- Node5&#45;&gt;Node9 -->
<g id="edge11_Node000009_Node000005" class="edge">
<title>Node5&#45;&gt;Node9</title>
<g id="a_edge11_Node000009_Node000005"><a xlink:title=" ">
<path fill="none" stroke="#63b8ff" d="M102.88,-86.19C113.58,-81.58 125.11,-76.91 136,-73.09 153.35,-67 172.88,-61.45 189.73,-57.07"/>
<polygon fill="#63b8ff" stroke="#63b8ff" points="101.64,-82.91 93.89,-90.14 104.46,-89.32 101.64,-82.91"/>
</a>
</g>
</g>
<!-- Node6&#45;&gt;Node1 -->
<g id="edge5_Node000001_Node000006" class="edge">
<title>Node6&#45;&gt;Node1</title>
<g id="a_edge5_Node000001_Node000006"><a xlink:title=" ">
<path fill="none" stroke="#9a32cd" stroke-dasharray="5,2" d="M488.5,-131.41C583.09,-131.78 737.74,-132.39 832.68,-132.76"/>
<polygon fill="#9a32cd" stroke="#9a32cd" points="488.8,-127.91 478.79,-131.37 488.77,-134.91 488.8,-127.91"/>
</a>
</g>
<text text-anchor="middle" x="581" y="-135.09" font-family="Helvetica,sans-Serif" font-size="10.00" fill="grey"> videoSourceReader_</text>
</g>
<!-- Node7&#45;&gt;Node1 -->
<g id="edge7_Node000001_Node000007" class="edge">
<title>Node7&#45;&gt;Node1</title>
<g id="a_edge7_Node000001_Node000007"><a xlink:title=" ">
<path fill="none" stroke="#9a32cd" stroke-dasharray="5,2" d="M494.56,-94.22C589.56,-102.99 739.68,-116.85 832.62,-125.44"/>
<polygon fill="#9a32cd" stroke="#9a32cd" points="495.04,-90.75 484.76,-93.32 494.4,-97.72 495.04,-90.75"/>
</a>
</g>
<text text-anchor="middle" x="581" y="-112.09" font-family="Helvetica,sans-Serif" font-size="10.00" fill="grey"> encoderTransform_</text>
</g>
<!-- Node8 -->
<g id="Node000008" class="node">
<title>Node8</title>
<g id="a_Node000008"><a xlink:href="class_harlinn_1_1_windows_1_1_m_f_media_type.xhtml" target="_top" xlink:title=" ">
<polygon fill="white" stroke="#666666" points="661,-37.59 501,-37.59 501,-18.59 661,-18.59 661,-37.59"/>
<text text-anchor="middle" x="581" y="-25.59" font-family="Helvetica,sans-Serif" font-size="10.00">Harlinn::Windows::MFMediaType</text>
</a>
</g>
</g>
<!-- Node8&#45;&gt;Node1 -->
<g id="edge9_Node000001_Node000008" class="edge">
<title>Node8&#45;&gt;Node1</title>
<g id="a_edge9_Node000001_Node000008"><a xlink:title=" ">
<path fill="none" stroke="#9a32cd" stroke-dasharray="5,2" d="M623.31,-15.17C671.63,-2.47 752.93,11.26 815,-17.09 860.81,-38.01 893.76,-91.27 907.86,-117.71"/>
<polygon fill="#9a32cd" stroke="#9a32cd" points="622.52,-11.76 613.8,-17.79 624.37,-18.51 622.52,-11.76"/>
</a>
</g>
<text text-anchor="start" x="679" y="-64.09" font-family="Helvetica,sans-Serif" font-size="10.00" fill="grey"> encoderTransformInputMedia</text>
<text text-anchor="middle" x="747" y="-53.09" font-family="Helvetica,sans-Serif" font-size="10.00" fill="grey">Type_</text>
<text text-anchor="start" x="679" y="-42.09" font-family="Helvetica,sans-Serif" font-size="10.00" fill="grey">encoderTransformOutputMedia</text>
<text text-anchor="middle" x="747" y="-31.09" font-family="Helvetica,sans-Serif" font-size="10.00" fill="grey">Type_</text>
<text text-anchor="middle" x="747" y="-20.09" font-family="Helvetica,sans-Serif" font-size="10.00" fill="grey">videoSourceReaderMediaType_</text>
</g>
<!-- Node9&#45;&gt;Node8 -->
<g id="edge10_Node000008_Node000009" class="edge">
<title>Node9&#45;&gt;Node8</title>
<g id="a_edge10_Node000008_Node000009"><a xlink:title=" ">
<path fill="none" stroke="#63b8ff" d="M321.57,-42.26C376.71,-39.24 447.19,-35.37 500.61,-32.44"/>
<polygon fill="#63b8ff" stroke="#63b8ff" points="321.7,-38.75 311.91,-42.79 322.09,-45.74 321.7,-38.75"/>
</a>
</g>
</g>
</g>
</svg>
