<?xml version="1.0" encoding="UTF-8" standalone="no"?>
<!DOCTYPE svg PUBLIC "-//W3C//DTD SVG 1.1//EN"
 "http://www.w3.org/Graphics/SVG/1.1/DTD/svg11.dtd">
<!-- Generated by graphviz version 7.0.1 (20221109.1506)
 -->
<!-- Title: Harlinn::Windows::Imaging::MetadataQueryWriter Pages: 1 -->
<svg width="290pt" height="249pt"
 viewBox="0.00 0.00 290.00 249.00" xmlns="http://www.w3.org/2000/svg" xmlns:xlink="http://www.w3.org/1999/xlink">
<g id="graph0" class="graph" transform="scale(1 1) rotate(0) translate(4 245)">
<title>Harlinn::Windows::Imaging::MetadataQueryWriter</title>
<!-- Node1 -->
<g id="Node000001" class="node">
<title>Node1</title>
<g id="a_Node000001"><a xlink:title=" ">
<polygon fill="#999999" stroke="#666666" points="132,-30 0,-30 0,0 132,0 132,-30"/>
<text text-anchor="start" x="8" y="-18" font-family="Helvetica,sans-Serif" font-size="10.00">Harlinn::Windows::Imaging</text>
<text text-anchor="middle" x="66" y="-7" font-family="Helvetica,sans-Serif" font-size="10.00">::MetadataQueryWriter</text>
</a>
</g>
</g>
<!-- Node2 -->
<g id="Node000002" class="node">
<title>Node2</title>
<g id="a_Node000002"><a xlink:href="class_harlinn_1_1_windows_1_1_imaging_1_1_metadata_query_reader.xhtml" target="_top" xlink:title=" ">
<polygon fill="white" stroke="#666666" points="132,-97 0,-97 0,-67 132,-67 132,-97"/>
<text text-anchor="start" x="8" y="-85" font-family="Helvetica,sans-Serif" font-size="10.00">Harlinn::Windows::Imaging</text>
<text text-anchor="middle" x="66" y="-74" font-family="Helvetica,sans-Serif" font-size="10.00">::MetadataQueryReader</text>
</a>
</g>
</g>
<!-- Node2&#45;&gt;Node1 -->
<g id="edge1_Node000001_Node000002" class="edge">
<title>Node2&#45;&gt;Node1</title>
<g id="a_edge1_Node000001_Node000002"><a xlink:title=" ">
<path fill="none" stroke="#63b8ff" d="M66,-55.28C66,-46.81 66,-37.7 66,-30.39"/>
<polygon fill="#63b8ff" stroke="#63b8ff" points="62.5,-55.06 66,-65.06 69.5,-55.06 62.5,-55.06"/>
</a>
</g>
</g>
<!-- Node3 -->
<g id="Node000003" class="node">
<title>Node3</title>
<g id="a_Node000003"><a xlink:href="class_harlinn_1_1_windows_1_1_imaging_1_1_imaging_object.xhtml" target="_top" xlink:title=" ">
<polygon fill="white" stroke="#666666" points="249,-174 117,-174 117,-144 249,-144 249,-174"/>
<text text-anchor="start" x="125" y="-162" font-family="Helvetica,sans-Serif" font-size="10.00">Harlinn::Windows::Imaging</text>
<text text-anchor="middle" x="183" y="-151" font-family="Helvetica,sans-Serif" font-size="10.00">::ImagingObject</text>
</a>
</g>
</g>
<!-- Node3&#45;&gt;Node2 -->
<g id="edge2_Node000002_Node000003" class="edge">
<title>Node3&#45;&gt;Node2</title>
<g id="a_edge2_Node000002_Node000003"><a xlink:title=" ">
<path fill="none" stroke="#63b8ff" d="M150.9,-137.42C131.1,-124.73 106.19,-108.77 88.49,-97.42"/>
<polygon fill="#63b8ff" stroke="#63b8ff" points="148.86,-140.27 159.17,-142.72 152.64,-134.38 148.86,-140.27"/>
</a>
</g>
</g>
<!-- Node5 -->
<g id="Node000005" class="node">
<title>Node5</title>
<g id="a_Node000005"><a xlink:href="class_harlinn_1_1_windows_1_1_imaging_1_1_imaging_factory.xhtml" target="_top" xlink:title=" ">
<polygon fill="white" stroke="#666666" points="282,-97 150,-97 150,-67 282,-67 282,-97"/>
<text text-anchor="start" x="158" y="-85" font-family="Helvetica,sans-Serif" font-size="10.00">Harlinn::Windows::Imaging</text>
<text text-anchor="middle" x="216" y="-74" font-family="Helvetica,sans-Serif" font-size="10.00">::ImagingFactory</text>
</a>
</g>
</g>
<!-- Node3&#45;&gt;Node5 -->
<g id="edge5_Node000005_Node000003" class="edge">
<title>Node3&#45;&gt;Node5</title>
<g id="a_edge5_Node000005_Node000003"><a xlink:title=" ">
<path fill="none" stroke="#63b8ff" d="M190.14,-132.91C192.12,-126.94 194.43,-120.67 197,-115 199.72,-109 203.29,-102.7 206.6,-97.29"/>
<polygon fill="#63b8ff" stroke="#63b8ff" points="186.84,-131.73 187.22,-142.31 193.53,-133.8 186.84,-131.73"/>
</a>
</g>
</g>
<!-- Node4 -->
<g id="Node000004" class="node">
<title>Node4</title>
<g id="a_Node000004"><a xlink:href="class_harlinn_1_1_common_1_1_core_1_1_unknown.xhtml" target="_top" xlink:title=" ">
<polygon fill="white" stroke="#666666" points="242,-241 124,-241 124,-211 242,-211 242,-241"/>
<text text-anchor="start" x="132" y="-229" font-family="Helvetica,sans-Serif" font-size="10.00">Harlinn::Common::Core</text>
<text text-anchor="middle" x="183" y="-218" font-family="Helvetica,sans-Serif" font-size="10.00">::Unknown</text>
</a>
</g>
</g>
<!-- Node4&#45;&gt;Node3 -->
<g id="edge3_Node000003_Node000004" class="edge">
<title>Node4&#45;&gt;Node3</title>
<g id="a_edge3_Node000003_Node000004"><a xlink:title=" ">
<path fill="none" stroke="#63b8ff" d="M183,-199.28C183,-190.81 183,-181.7 183,-174.39"/>
<polygon fill="#63b8ff" stroke="#63b8ff" points="179.5,-199.06 183,-209.06 186.5,-199.06 179.5,-199.06"/>
</a>
</g>
</g>
<!-- Node5&#45;&gt;Node3 -->
<g id="edge4_Node000003_Node000005" class="edge">
<title>Node5&#45;&gt;Node3</title>
<g id="a_edge4_Node000003_Node000005"><a xlink:title=" ">
<path fill="none" stroke="#9a32cd" stroke-dasharray="5,2" d="M205.17,-107.62C199.93,-119.51 193.84,-133.37 189.36,-143.54"/>
<polygon fill="#9a32cd" stroke="#9a32cd" points="208.22,-109.36 209.05,-98.8 201.82,-106.55 208.22,-109.36"/>
</a>
</g>
<text text-anchor="middle" x="217.5" y="-118" font-family="Helvetica,sans-Serif" font-size="10.00" fill="grey"> factory</text>
</g>
</g>
</svg>
