<?xml version="1.0" encoding="UTF-8" standalone="no"?>
<!DOCTYPE svg PUBLIC "-//W3C//DTD SVG 1.1//EN"
 "http://www.w3.org/Graphics/SVG/1.1/DTD/svg11.dtd">
<!-- Generated by graphviz version 7.0.1 (20221109.1506)
 -->
<!-- Title: Harlinn::Common::Core::ProcessAccessMask Pages: 1 -->
<svg width="788pt" height="82pt"
 viewBox="0.00 0.00 788.00 81.50" xmlns="http://www.w3.org/2000/svg" xmlns:xlink="http://www.w3.org/1999/xlink">
<g id="graph0" class="graph" transform="scale(1 1) rotate(0) translate(4 77.5)">
<title>Harlinn::Common::Core::ProcessAccessMask</title>
<!-- Node1 -->
<g id="Node000001" class="node">
<title>Node1</title>
<g id="a_Node000001"><a xlink:title=" ">
<polygon fill="#999999" stroke="#666666" points="780,-62.5 662,-62.5 662,-32.5 780,-32.5 780,-62.5"/>
<text text-anchor="start" x="670" y="-50.5" font-family="Helvetica,sans-Serif" font-size="10.00">Harlinn::Common::Core</text>
<text text-anchor="middle" x="721" y="-39.5" font-family="Helvetica,sans-Serif" font-size="10.00">::ProcessAccessMask</text>
</a>
</g>
</g>
<!-- Node2 -->
<g id="Node000002" class="node">
<title>Node2</title>
<g id="a_Node000002"><a xlink:href="class_harlinn_1_1_common_1_1_core_1_1_security_1_1_access_mask_t.xhtml" target="_top" xlink:title=" ">
<polygon fill="white" stroke="#666666" points="625,-73.5 431,-73.5 431,-21.5 625,-21.5 625,-73.5"/>
<text text-anchor="start" x="439" y="-61.5" font-family="Helvetica,sans-Serif" font-size="10.00">Harlinn::Common::Core</text>
<text text-anchor="start" x="439" y="-50.5" font-family="Helvetica,sans-Serif" font-size="10.00">::Security::AccessMaskT</text>
<text text-anchor="start" x="439" y="-39.5" font-family="Helvetica,sans-Serif" font-size="10.00">&lt; ProcessAccessMask, ProcessAccess</text>
<text text-anchor="middle" x="528" y="-28.5" font-family="Helvetica,sans-Serif" font-size="10.00">Rights &gt;</text>
</a>
</g>
</g>
<!-- Node2&#45;&gt;Node1 -->
<g id="edge1_Node000001_Node000002" class="edge">
<title>Node2&#45;&gt;Node1</title>
<g id="a_edge1_Node000001_Node000002"><a xlink:title=" ">
<path fill="none" stroke="#63b8ff" d="M636.67,-47.5C645.24,-47.5 653.68,-47.5 661.71,-47.5"/>
<polygon fill="#63b8ff" stroke="#63b8ff" points="636.85,-44 626.85,-47.5 636.85,-51 636.85,-44"/>
</a>
</g>
</g>
<!-- Node3 -->
<g id="Node000003" class="node">
<title>Node3</title>
<g id="a_Node000003"><a xlink:href="class_harlinn_1_1_common_1_1_core_1_1_security_1_1_access_mask.xhtml" target="_top" xlink:title="An ACCESS_MASK wrapper class. The ACCESS_MASK data type is a DWORD value that defines standard,...">
<polygon fill="white" stroke="#666666" points="122,-59.5 0,-59.5 0,-29.5 122,-29.5 122,-59.5"/>
<text text-anchor="start" x="8" y="-47.5" font-family="Helvetica,sans-Serif" font-size="10.00">Harlinn::Common::Core</text>
<text text-anchor="middle" x="61" y="-36.5" font-family="Helvetica,sans-Serif" font-size="10.00">::Security::AccessMask</text>
</a>
</g>
</g>
<!-- Node3&#45;&gt;Node2 -->
<g id="edge2_Node000002_Node000003" class="edge">
<title>Node3&#45;&gt;Node2</title>
<g id="a_edge2_Node000002_Node000003"><a xlink:title=" ">
<path fill="none" stroke="#63b8ff" d="M133.5,-48.27C142.09,-48.7 150.74,-49.12 159,-49.5 271.8,-54.74 300.15,-59.45 413,-55.5 418.75,-55.3 424.66,-55.04 430.62,-54.74"/>
<polygon fill="#63b8ff" stroke="#63b8ff" points="133.95,-44.79 123.79,-47.78 133.6,-51.78 133.95,-44.79"/>
</a>
</g>
</g>
<!-- Node4 -->
<g id="Node000004" class="node">
<title>Node4</title>
<g id="a_Node000004"><a xlink:href="class_harlinn_1_1_common_1_1_core_1_1_security_1_1_access_mask_t.xhtml" target="_top" xlink:title=" ">
<polygon fill="white" stroke="#666666" points="286,-41 159,-41 159,0 286,0 286,-41"/>
<text text-anchor="start" x="167" y="-29" font-family="Helvetica,sans-Serif" font-size="10.00">Harlinn::Common::Core</text>
<text text-anchor="start" x="167" y="-18" font-family="Helvetica,sans-Serif" font-size="10.00">::Security::AccessMaskT</text>
<text text-anchor="middle" x="222.5" y="-7" font-family="Helvetica,sans-Serif" font-size="10.00">&lt; DerivedT, RightsT &gt;</text>
</a>
</g>
</g>
<!-- Node3&#45;&gt;Node4 -->
<g id="edge4_Node000004_Node000003" class="edge">
<title>Node3&#45;&gt;Node4</title>
<g id="a_edge4_Node000004_Node000003"><a xlink:title=" ">
<path fill="none" stroke="#63b8ff" d="M133.61,-33.72C141.99,-32.46 150.48,-31.19 158.72,-29.95"/>
<polygon fill="#63b8ff" stroke="#63b8ff" points="133.16,-30.25 123.8,-35.2 134.21,-37.17 133.16,-30.25"/>
</a>
</g>
</g>
<!-- Node4&#45;&gt;Node2 -->
<g id="edge3_Node000002_Node000004" class="edge">
<title>Node4&#45;&gt;Node2</title>
<g id="a_edge3_Node000002_Node000004"><a xlink:title=" ">
<path fill="none" stroke="orange" stroke-dasharray="5,2" d="M297.41,-24.65C332.48,-26.85 374.94,-29.86 413,-33.5 418.76,-34.05 424.67,-34.66 430.64,-35.3"/>
<polygon fill="orange" stroke="orange" points="298.01,-21.18 287.82,-24.05 297.58,-28.16 298.01,-21.18"/>
</a>
</g>
<text text-anchor="start" x="304" y="-47.5" font-family="Helvetica,sans-Serif" font-size="10.00" fill="grey"> &lt; ProcessAccessMask,</text>
<text text-anchor="middle" x="358.5" y="-36.5" font-family="Helvetica,sans-Serif" font-size="10.00" fill="grey"> ProcessAccessRights &gt;</text>
</g>
</g>
</svg>
