<?xml version="1.0" encoding="UTF-8" standalone="no"?>
<!DOCTYPE svg PUBLIC "-//W3C//DTD SVG 1.1//EN"
 "http://www.w3.org/Graphics/SVG/1.1/DTD/svg11.dtd">
<!-- Generated by graphviz version 7.0.1 (20221109.1506)
 -->
<!-- Title: Harlinn::Common::Core::Demangle::detail::VisualStudioDemangler Pages: 1 -->
<svg width="923pt" height="148pt"
 viewBox="0.00 0.00 923.00 147.50" xmlns="http://www.w3.org/2000/svg" xmlns:xlink="http://www.w3.org/1999/xlink">
<g id="graph0" class="graph" transform="scale(1 1) rotate(0) translate(4 143.5)">
<title>Harlinn::Common::Core::Demangle::detail::VisualStudioDemangler</title>
<!-- Node1 -->
<g id="Node000001" class="node">
<title>Node1</title>
<g id="a_Node000001"><a xlink:title=" ">
<polygon fill="#999999" stroke="#666666" points="915,-108 759,-108 759,-67 915,-67 915,-108"/>
<text text-anchor="start" x="767" y="-96" font-family="Helvetica,sans-Serif" font-size="10.00">Harlinn::Common::Core</text>
<text text-anchor="start" x="767" y="-85" font-family="Helvetica,sans-Serif" font-size="10.00">::Demangle::detail::VisualStudio</text>
<text text-anchor="middle" x="837" y="-74" font-family="Helvetica,sans-Serif" font-size="10.00">Demangler</text>
</a>
</g>
</g>
<!-- Node2 -->
<g id="Node000002" class="node">
<title>Node2</title>
<g id="a_Node000002"><a xlink:href="class_harlinn_1_1_common_1_1_core_1_1_basic_string.xhtml" target="_top" xlink:title="This is a reference counted string class.">
<polygon fill="white" stroke="#666666" points="495,-139.5 377,-139.5 377,-109.5 495,-109.5 495,-139.5"/>
<text text-anchor="start" x="385" y="-127.5" font-family="Helvetica,sans-Serif" font-size="10.00">Harlinn::Common::Core</text>
<text text-anchor="middle" x="436" y="-116.5" font-family="Helvetica,sans-Serif" font-size="10.00">::BasicString&lt; T &gt;</text>
</a>
</g>
</g>
<!-- Node2&#45;&gt;Node1 -->
<g id="edge1_Node000001_Node000002" class="edge">
<title>Node2&#45;&gt;Node1</title>
<g id="a_edge1_Node000001_Node000002"><a xlink:title=" ">
<path fill="none" stroke="#9a32cd" stroke-dasharray="5,2" d="M506.59,-124.22C525.24,-123.92 545.4,-123.4 564,-122.5 624.57,-119.58 639.85,-119.22 700,-111.5 719.02,-109.06 739.44,-105.8 758.52,-102.47"/>
<polygon fill="#9a32cd" stroke="#9a32cd" points="506.66,-120.72 496.7,-124.36 506.75,-127.72 506.66,-120.72"/>
</a>
</g>
<text text-anchor="middle" x="641" y="-124.5" font-family="Helvetica,sans-Serif" font-size="10.00" fill="grey"> mangled</text>
</g>
<!-- Node5 -->
<g id="Node000005" class="node">
<title>Node5</title>
<g id="a_Node000005"><a xlink:href="class_harlinn_1_1_common_1_1_core_1_1_basic_string.xhtml" target="_top" xlink:title=" ">
<polygon fill="white" stroke="#666666" points="700,-102.5 582,-102.5 582,-72.5 700,-72.5 700,-102.5"/>
<text text-anchor="start" x="590" y="-90.5" font-family="Helvetica,sans-Serif" font-size="10.00">Harlinn::Common::Core</text>
<text text-anchor="middle" x="641" y="-79.5" font-family="Helvetica,sans-Serif" font-size="10.00">::BasicString&lt; char &gt;</text>
</a>
</g>
</g>
<!-- Node2&#45;&gt;Node5 -->
<g id="edge6_Node000005_Node000002" class="edge">
<title>Node2&#45;&gt;Node5</title>
<g id="a_edge6_Node000005_Node000002"><a xlink:title=" ">
<path fill="none" stroke="orange" stroke-dasharray="5,2" d="M506.47,-111.84C530.93,-107.38 558.16,-102.42 581.62,-98.14"/>
<polygon fill="orange" stroke="orange" points="506.14,-108.34 496.93,-113.58 507.4,-115.23 506.14,-108.34"/>
</a>
</g>
<text text-anchor="middle" x="544" y="-110.5" font-family="Helvetica,sans-Serif" font-size="10.00" fill="grey"> &lt; char &gt;</text>
</g>
<!-- Node3 -->
<g id="Node000003" class="node">
<title>Node3</title>
<g id="a_Node000003"><a xlink:href="struct_harlinn_1_1_common_1_1_core_1_1_internal_1_1_data.xhtml" target="_top" xlink:title=" ">
<polygon fill="white" stroke="#666666" points="226,-104.5 108,-104.5 108,-74.5 226,-74.5 226,-104.5"/>
<text text-anchor="start" x="116" y="-92.5" font-family="Helvetica,sans-Serif" font-size="10.00">Harlinn::Common::Core</text>
<text text-anchor="middle" x="167" y="-81.5" font-family="Helvetica,sans-Serif" font-size="10.00">::Internal::Data&lt; T &gt;</text>
</a>
</g>
</g>
<!-- Node3&#45;&gt;Node2 -->
<g id="edge2_Node000002_Node000003" class="edge">
<title>Node3&#45;&gt;Node2</title>
<g id="a_edge2_Node000002_Node000003"><a xlink:title=" ">
<path fill="none" stroke="#9a32cd" stroke-dasharray="5,2" d="M237.57,-98.62C280.86,-104.29 335.9,-111.51 376.86,-116.88"/>
<polygon fill="#9a32cd" stroke="#9a32cd" points="238.14,-95.16 227.77,-97.33 237.23,-102.1 238.14,-95.16"/>
</a>
</g>
<text text-anchor="middle" x="296" y="-114.5" font-family="Helvetica,sans-Serif" font-size="10.00" fill="grey"> data_</text>
</g>
<!-- Node3&#45;&gt;Node5 -->
<g id="edge5_Node000005_Node000003" class="edge">
<title>Node3&#45;&gt;Node5</title>
<g id="a_edge5_Node000005_Node000003"><a xlink:title=" ">
<path fill="none" stroke="#9a32cd" stroke-dasharray="5,2" d="M237.64,-89.2C330.92,-88.81 494.73,-88.12 581.78,-87.75"/>
<polygon fill="#9a32cd" stroke="#9a32cd" points="237.85,-85.7 227.86,-89.25 237.88,-92.7 237.85,-85.7"/>
</a>
</g>
<text text-anchor="middle" x="436" y="-91.5" font-family="Helvetica,sans-Serif" font-size="10.00" fill="grey"> data_</text>
</g>
<!-- Node4 -->
<g id="Node000004" class="node">
<title>Node4</title>
<g id="a_Node000004"><a xlink:title=" ">
<polygon fill="white" stroke="#666666" points="29,-56 0,-56 0,-37 29,-37 29,-56"/>
<text text-anchor="middle" x="14.5" y="-44" font-family="Helvetica,sans-Serif" font-size="10.00">T</text>
</a>
</g>
</g>
<!-- Node4&#45;&gt;Node3 -->
<g id="edge3_Node000003_Node000004" class="edge">
<title>Node4&#45;&gt;Node3</title>
<g id="a_edge3_Node000003_Node000004"><a xlink:title=" ">
<path fill="none" stroke="#9a32cd" stroke-dasharray="5,2" d="M39.66,-58.64C42.11,-59.68 44.59,-60.65 47,-61.5 66.42,-68.32 88.21,-73.99 107.79,-78.41"/>
<polygon fill="#9a32cd" stroke="#9a32cd" points="41.26,-55.52 30.72,-54.51 38.33,-61.88 41.26,-55.52"/>
</a>
</g>
<text text-anchor="middle" x="68.5" y="-76.5" font-family="Helvetica,sans-Serif" font-size="10.00" fill="grey"> buffer_</text>
</g>
<!-- Node7 -->
<g id="Node000007" class="node">
<title>Node7</title>
<g id="a_Node000007"><a xlink:title=" ">
<polygon fill="white" stroke="#666666" points="219.5,-56 114.5,-56 114.5,-37 219.5,-37 219.5,-56"/>
<text text-anchor="middle" x="167" y="-44" font-family="Helvetica,sans-Serif" font-size="10.00">std::shared_ptr&lt; T &gt;</text>
</a>
</g>
</g>
<!-- Node4&#45;&gt;Node7 -->
<g id="edge9_Node000007_Node000004" class="edge">
<title>Node4&#45;&gt;Node7</title>
<g id="a_edge9_Node000007_Node000004"><a xlink:title=" ">
<path fill="none" stroke="#9a32cd" stroke-dasharray="5,2" d="M40.88,-46.5C60.85,-46.5 89.33,-46.5 114.07,-46.5"/>
<polygon fill="#9a32cd" stroke="#9a32cd" points="40.9,-43 30.9,-46.5 40.9,-50 40.9,-43"/>
</a>
</g>
<text text-anchor="middle" x="68.5" y="-49.5" font-family="Helvetica,sans-Serif" font-size="10.00" fill="grey"> ptr</text>
</g>
<!-- Node8 -->
<g id="Node000008" class="node">
<title>Node8</title>
<g id="a_Node000008"><a xlink:title=" ">
<polygon fill="white" stroke="#666666" points="209.5,-19 124.5,-19 124.5,0 209.5,0 209.5,-19"/>
<text text-anchor="middle" x="167" y="-7" font-family="Helvetica,sans-Serif" font-size="10.00">std::vector&lt; T &gt;</text>
</a>
</g>
</g>
<!-- Node4&#45;&gt;Node8 -->
<g id="edge11_Node000008_Node000004" class="edge">
<title>Node4&#45;&gt;Node8</title>
<g id="a_edge11_Node000008_Node000004"><a xlink:title=" ">
<path fill="none" stroke="#9a32cd" stroke-dasharray="5,2" d="M39.62,-34.24C42.08,-33.23 44.57,-32.29 47,-31.5 71.98,-23.4 100.94,-17.96 124.03,-14.52"/>
<polygon fill="#9a32cd" stroke="#9a32cd" points="38.3,-31 30.67,-38.34 41.22,-37.36 38.3,-31"/>
</a>
</g>
<text text-anchor="middle" x="68.5" y="-34.5" font-family="Helvetica,sans-Serif" font-size="10.00" fill="grey"> elements</text>
</g>
<!-- Node5&#45;&gt;Node1 -->
<g id="edge4_Node000001_Node000005" class="edge">
<title>Node5&#45;&gt;Node1</title>
<g id="a_edge4_Node000001_Node000005"><a xlink:title=" ">
<path fill="none" stroke="#9a32cd" stroke-dasharray="5,2" d="M711.86,-87.5C727.04,-87.5 743.19,-87.5 758.64,-87.5"/>
<polygon fill="#9a32cd" stroke="#9a32cd" points="711.98,-84 701.98,-87.5 711.98,-91 711.98,-84"/>
</a>
</g>
<text text-anchor="middle" x="729.5" y="-90.5" font-family="Helvetica,sans-Serif" font-size="10.00" fill="grey"> error</text>
</g>
<!-- Node6 -->
<g id="Node000006" class="node">
<title>Node6</title>
<g id="a_Node000006"><a xlink:title=" ">
<polygon fill="white" stroke="#666666" points="506,-44.5 366,-44.5 366,-14.5 506,-14.5 506,-44.5"/>
<text text-anchor="start" x="374" y="-32.5" font-family="Helvetica,sans-Serif" font-size="10.00">std::vector&lt; DemangledType</text>
<text text-anchor="middle" x="436" y="-21.5" font-family="Helvetica,sans-Serif" font-size="10.00">Ptr &gt;</text>
</a>
</g>
</g>
<!-- Node6&#45;&gt;Node1 -->
<g id="edge7_Node000001_Node000006" class="edge">
<title>Node6&#45;&gt;Node1</title>
<g id="a_edge7_Node000001_Node000006"><a xlink:title=" ">
<path fill="none" stroke="#9a32cd" stroke-dasharray="5,2" d="M517.52,-27.37C569.93,-27.4 639.53,-30.13 700,-41.5 728.91,-46.94 760.06,-57.13 785.25,-66.55"/>
<polygon fill="#9a32cd" stroke="#9a32cd" points="517.78,-23.86 507.79,-27.4 517.8,-30.86 517.78,-23.86"/>
</a>
</g>
<text text-anchor="middle" x="641" y="-55.5" font-family="Helvetica,sans-Serif" font-size="10.00" fill="grey"> name_stack</text>
<text text-anchor="middle" x="641" y="-44.5" font-family="Helvetica,sans-Serif" font-size="10.00" fill="grey">type_stack</text>
</g>
<!-- Node7&#45;&gt;Node6 -->
<g id="edge8_Node000006_Node000007" class="edge">
<title>Node7&#45;&gt;Node6</title>
<g id="a_edge8_Node000006_Node000007"><a xlink:title=" ">
<path fill="none" stroke="#9a32cd" stroke-dasharray="5,2" d="M231.13,-42.48C271.57,-39.91 324.07,-36.56 365.66,-33.91"/>
<polygon fill="#9a32cd" stroke="#9a32cd" points="231.06,-38.98 221.31,-43.11 231.51,-45.96 231.06,-38.98"/>
</a>
</g>
<text text-anchor="middle" x="296" y="-44.5" font-family="Helvetica,sans-Serif" font-size="10.00" fill="grey"> elements</text>
</g>
<!-- Node8&#45;&gt;Node6 -->
<g id="edge10_Node000006_Node000008" class="edge">
<title>Node8&#45;&gt;Node6</title>
<g id="a_edge10_Node000006_Node000008"><a xlink:title=" ">
<path fill="none" stroke="orange" stroke-dasharray="5,2" d="M221.04,-12.15C256.92,-14.09 305.34,-16.99 348,-20.5 353.75,-20.97 359.71,-21.5 365.69,-22.06"/>
<polygon fill="orange" stroke="orange" points="221.55,-8.68 211.37,-11.64 221.17,-15.67 221.55,-8.68"/>
</a>
</g>
<text text-anchor="middle" x="296" y="-23.5" font-family="Helvetica,sans-Serif" font-size="10.00" fill="grey"> &lt; DemangledTypePtr &gt;</text>
</g>
</g>
</svg>
