<?xml version="1.0" encoding="UTF-8" standalone="no"?>
<!DOCTYPE svg PUBLIC "-//W3C//DTD SVG 1.1//EN"
 "http://www.w3.org/Graphics/SVG/1.1/DTD/svg11.dtd">
<!-- Generated by graphviz version 7.0.1 (20221109.1506)
 -->
<!-- Title: Harlinn::Common::Core::Xml::Dom::Comment Pages: 1 -->
<svg width="141pt" height="302pt"
 viewBox="0.00 0.00 141.00 302.00" xmlns="http://www.w3.org/2000/svg" xmlns:xlink="http://www.w3.org/1999/xlink">
<g id="graph0" class="graph" transform="scale(1 1) rotate(0) translate(4 298)">
<title>Harlinn::Common::Core::Xml::Dom::Comment</title>
<!-- Node1 -->
<g id="Node000001" class="node">
<title>Node1</title>
<g id="a_Node000001"><a xlink:title=" ">
<polygon fill="#999999" stroke="#666666" points="125.5,-30 7.5,-30 7.5,0 125.5,0 125.5,-30"/>
<text text-anchor="start" x="15.5" y="-18" font-family="Helvetica,sans-Serif" font-size="10.00">Harlinn::Common::Core</text>
<text text-anchor="middle" x="66.5" y="-7" font-family="Helvetica,sans-Serif" font-size="10.00">::Xml::Dom::Comment</text>
</a>
</g>
</g>
<!-- Node2 -->
<g id="Node000002" class="node">
<title>Node2</title>
<g id="a_Node000002"><a xlink:href="class_harlinn_1_1_common_1_1_core_1_1_xml_1_1_dom_1_1_character_data.xhtml" target="_top" xlink:title=" ">
<polygon fill="white" stroke="#666666" points="133,-96 0,-96 0,-66 133,-66 133,-96"/>
<text text-anchor="start" x="8" y="-84" font-family="Helvetica,sans-Serif" font-size="10.00">Harlinn::Common::Core</text>
<text text-anchor="middle" x="66.5" y="-73" font-family="Helvetica,sans-Serif" font-size="10.00">::Xml::Dom::CharacterData</text>
</a>
</g>
</g>
<!-- Node2&#45;&gt;Node1 -->
<g id="edge1_Node000001_Node000002" class="edge">
<title>Node2&#45;&gt;Node1</title>
<g id="a_edge1_Node000001_Node000002"><a xlink:title=" ">
<path fill="none" stroke="#63b8ff" d="M66.5,-54.39C66.5,-46.13 66.5,-37.28 66.5,-30.16"/>
<polygon fill="#63b8ff" stroke="#63b8ff" points="63,-54.28 66.5,-64.28 70,-54.28 63,-54.28"/>
</a>
</g>
</g>
<!-- Node3 -->
<g id="Node000003" class="node">
<title>Node3</title>
<g id="a_Node000003"><a xlink:href="class_harlinn_1_1_common_1_1_core_1_1_xml_1_1_dom_1_1_node.xhtml" target="_top" xlink:title="Represents a single node in the XML document.">
<polygon fill="white" stroke="#666666" points="125.5,-162 7.5,-162 7.5,-132 125.5,-132 125.5,-162"/>
<text text-anchor="start" x="15.5" y="-150" font-family="Helvetica,sans-Serif" font-size="10.00">Harlinn::Common::Core</text>
<text text-anchor="middle" x="66.5" y="-139" font-family="Helvetica,sans-Serif" font-size="10.00">::Xml::Dom::Node</text>
</a>
</g>
</g>
<!-- Node3&#45;&gt;Node2 -->
<g id="edge2_Node000002_Node000003" class="edge">
<title>Node3&#45;&gt;Node2</title>
<g id="a_edge2_Node000002_Node000003"><a xlink:title=" ">
<path fill="none" stroke="#63b8ff" d="M66.5,-120.39C66.5,-112.13 66.5,-103.28 66.5,-96.16"/>
<polygon fill="#63b8ff" stroke="#63b8ff" points="63,-120.28 66.5,-130.28 70,-120.28 63,-120.28"/>
</a>
</g>
</g>
<!-- Node4 -->
<g id="Node000004" class="node">
<title>Node4</title>
<g id="a_Node000004"><a xlink:href="class_harlinn_1_1_common_1_1_core_1_1_dispatch.xhtml" target="_top" xlink:title="Exposes objects, methods and properties to programming tools and other applications that support Auto...">
<polygon fill="white" stroke="#666666" points="125.5,-228 7.5,-228 7.5,-198 125.5,-198 125.5,-228"/>
<text text-anchor="start" x="15.5" y="-216" font-family="Helvetica,sans-Serif" font-size="10.00">Harlinn::Common::Core</text>
<text text-anchor="middle" x="66.5" y="-205" font-family="Helvetica,sans-Serif" font-size="10.00">::Dispatch</text>
</a>
</g>
</g>
<!-- Node4&#45;&gt;Node3 -->
<g id="edge3_Node000003_Node000004" class="edge">
<title>Node4&#45;&gt;Node3</title>
<g id="a_edge3_Node000003_Node000004"><a xlink:title=" ">
<path fill="none" stroke="#63b8ff" d="M66.5,-186.39C66.5,-178.13 66.5,-169.28 66.5,-162.16"/>
<polygon fill="#63b8ff" stroke="#63b8ff" points="63,-186.28 66.5,-196.28 70,-186.28 63,-186.28"/>
</a>
</g>
</g>
<!-- Node5 -->
<g id="Node000005" class="node">
<title>Node5</title>
<g id="a_Node000005"><a xlink:href="class_harlinn_1_1_common_1_1_core_1_1_unknown.xhtml" target="_top" xlink:title=" ">
<polygon fill="white" stroke="#666666" points="125.5,-294 7.5,-294 7.5,-264 125.5,-264 125.5,-294"/>
<text text-anchor="start" x="15.5" y="-282" font-family="Helvetica,sans-Serif" font-size="10.00">Harlinn::Common::Core</text>
<text text-anchor="middle" x="66.5" y="-271" font-family="Helvetica,sans-Serif" font-size="10.00">::Unknown</text>
</a>
</g>
</g>
<!-- Node5&#45;&gt;Node4 -->
<g id="edge4_Node000004_Node000005" class="edge">
<title>Node5&#45;&gt;Node4</title>
<g id="a_edge4_Node000004_Node000005"><a xlink:title=" ">
<path fill="none" stroke="#63b8ff" d="M66.5,-252.39C66.5,-244.13 66.5,-235.28 66.5,-228.16"/>
<polygon fill="#63b8ff" stroke="#63b8ff" points="63,-252.28 66.5,-262.28 70,-252.28 63,-252.28"/>
</a>
</g>
</g>
</g>
</svg>
