<?xml version="1.0" encoding="UTF-8" standalone="no"?>
<!DOCTYPE svg PUBLIC "-//W3C//DTD SVG 1.1//EN"
 "http://www.w3.org/Graphics/SVG/1.1/DTD/svg11.dtd">
<!-- Generated by graphviz version 7.0.1 (20221109.1506)
 -->
<!-- Title: Harlinn::Common::Core::IWbemObjectSinkDispatcher Pages: 1 -->
<svg width="1298pt" height="178pt"
 viewBox="0.00 0.00 1298.00 178.00" xmlns="http://www.w3.org/2000/svg" xmlns:xlink="http://www.w3.org/1999/xlink">
<g id="graph0" class="graph" transform="scale(1 1) rotate(0) translate(4 174)">
<title>Harlinn::Common::Core::IWbemObjectSinkDispatcher</title>
<!-- Node1 -->
<g id="Node000001" class="node">
<title>Node1</title>
<g id="a_Node000001"><a xlink:title=" ">
<polygon fill="#999999" stroke="#666666" points="1290,-80 1142,-80 1142,-50 1290,-50 1290,-80"/>
<text text-anchor="start" x="1150" y="-68" font-family="Helvetica,sans-Serif" font-size="10.00">Harlinn::Common::Core</text>
<text text-anchor="middle" x="1216" y="-57" font-family="Helvetica,sans-Serif" font-size="10.00">::IWbemObjectSinkDispatcher</text>
</a>
</g>
</g>
<!-- Node2 -->
<g id="Node000002" class="node">
<title>Node2</title>
<g id="a_Node000002"><a xlink:href="class_harlinn_1_1_common_1_1_core_1_1_i_wbem_object_sink_dispatcher_base.html" target="_top" xlink:title=" ">
<polygon fill="white" stroke="#666666" points="1105,-96.5 903,-96.5 903,-33.5 1105,-33.5 1105,-96.5"/>
<text text-anchor="start" x="911" y="-84.5" font-family="Helvetica,sans-Serif" font-size="10.00">Harlinn::Common::Core</text>
<text text-anchor="start" x="911" y="-73.5" font-family="Helvetica,sans-Serif" font-size="10.00">::IWbemObjectSinkDispatcher</text>
<text text-anchor="start" x="911" y="-62.5" font-family="Helvetica,sans-Serif" font-size="10.00">Base&lt; IWbemObjectSinkDispatcher,</text>
<text text-anchor="start" x="911" y="-51.5" font-family="Helvetica,sans-Serif" font-size="10.00"> IWbemObjectSink, boost::container</text>
<text text-anchor="middle" x="1004" y="-40.5" font-family="Helvetica,sans-Serif" font-size="10.00">::small_vector&lt; WbemClassObject, 64 &gt; &gt;</text>
</a>
</g>
</g>
<!-- Node2&#45;&gt;Node1 -->
<g id="edge1_Node000001_Node000002" class="edge">
<title>Node2&#45;&gt;Node1</title>
<g id="a_edge1_Node000001_Node000002"><a xlink:title=" ">
<path fill="none" stroke="#63b8ff" d="M1116.86,-65C1125.26,-65 1133.6,-65 1141.67,-65"/>
<polygon fill="#63b8ff" stroke="#63b8ff" points="1116.9,-61.5 1106.9,-65 1116.9,-68.5 1116.9,-61.5"/>
</a>
</g>
</g>
<!-- Node3 -->
<g id="Node000003" class="node">
<title>Node3</title>
<g id="a_Node000003"><a xlink:href="class_harlinn_1_1_common_1_1_core_1_1_i_wbem_object_sink_implementation_base.html" target="_top" xlink:title=" ">
<polygon fill="white" stroke="#666666" points="726,-133.5 524,-133.5 524,-70.5 726,-70.5 726,-133.5"/>
<text text-anchor="start" x="532" y="-121.5" font-family="Helvetica,sans-Serif" font-size="10.00">Harlinn::Common::Core</text>
<text text-anchor="start" x="532" y="-110.5" font-family="Helvetica,sans-Serif" font-size="10.00">::IWbemObjectSinkImplementation</text>
<text text-anchor="start" x="532" y="-99.5" font-family="Helvetica,sans-Serif" font-size="10.00">Base&lt; IWbemObjectSinkDispatcher,</text>
<text text-anchor="start" x="532" y="-88.5" font-family="Helvetica,sans-Serif" font-size="10.00"> IWbemObjectSink, boost::container</text>
<text text-anchor="middle" x="625" y="-77.5" font-family="Helvetica,sans-Serif" font-size="10.00">::small_vector&lt; WbemClassObject, 64 &gt; &gt;</text>
</a>
</g>
</g>
<!-- Node3&#45;&gt;Node2 -->
<g id="edge2_Node000002_Node000003" class="edge">
<title>Node3&#45;&gt;Node2</title>
<g id="a_edge2_Node000002_Node000003"><a xlink:title=" ">
<path fill="none" stroke="#63b8ff" d="M737.83,-94.99C783.52,-91.7 836.86,-87.32 885,-82 890.76,-81.36 896.67,-80.66 902.63,-79.92"/>
<polygon fill="#63b8ff" stroke="#63b8ff" points="737.62,-91.49 727.89,-95.69 738.12,-98.47 737.62,-91.49"/>
</a>
</g>
</g>
<!-- Node4 -->
<g id="Node000004" class="node">
<title>Node4</title>
<g id="a_Node000004"><a xlink:title=" ">
<polygon fill="white" stroke="#666666" points="347,-170 171,-170 171,-140 347,-140 347,-170"/>
<text text-anchor="start" x="179" y="-158" font-family="Helvetica,sans-Serif" font-size="10.00">Com::ObjectBase&lt; IWbemObject</text>
<text text-anchor="middle" x="259" y="-147" font-family="Helvetica,sans-Serif" font-size="10.00">SinkDispatcher, IWbemObjectSink &gt;</text>
</a>
</g>
</g>
<!-- Node4&#45;&gt;Node3 -->
<g id="edge3_Node000003_Node000004" class="edge">
<title>Node4&#45;&gt;Node3</title>
<g id="a_edge3_Node000003_Node000004"><a xlink:title=" ">
<path fill="none" stroke="#63b8ff" d="M358.78,-155.27C403.99,-153.89 458.06,-150.12 506,-141 515.75,-139.14 525.81,-136.7 535.74,-133.93"/>
<polygon fill="#63b8ff" stroke="#63b8ff" points="358.9,-151.77 349,-155.53 359.09,-158.77 358.9,-151.77"/>
</a>
</g>
</g>
<!-- Node5 -->
<g id="Node000005" class="node">
<title>Node5</title>
<g id="a_Node000005"><a xlink:href="class_harlinn_1_1_common_1_1_core_1_1_i_wbem_object_sink_implementation_base.html" target="_top" xlink:title=" ">
<polygon fill="white" stroke="#666666" points="342.5,-122 175.5,-122 175.5,-70 342.5,-70 342.5,-122"/>
<text text-anchor="start" x="183.5" y="-110" font-family="Helvetica,sans-Serif" font-size="10.00">Harlinn::Common::Core</text>
<text text-anchor="start" x="183.5" y="-99" font-family="Helvetica,sans-Serif" font-size="10.00">::IWbemObjectSinkImplementation</text>
<text text-anchor="start" x="183.5" y="-88" font-family="Helvetica,sans-Serif" font-size="10.00">Base&lt; DerivedT, InterfaceT,</text>
<text text-anchor="middle" x="259" y="-77" font-family="Helvetica,sans-Serif" font-size="10.00"> ContainerT &gt;</text>
</a>
</g>
</g>
<!-- Node5&#45;&gt;Node3 -->
<g id="edge4_Node000003_Node000005" class="edge">
<title>Node5&#45;&gt;Node3</title>
<g id="a_edge4_Node000003_Node000005"><a xlink:title=" ">
<path fill="none" stroke="orange" stroke-dasharray="5,2" d="M354.27,-95.54C400.07,-95.53 455.91,-95.84 506,-97 511.74,-97.13 517.64,-97.3 523.58,-97.48"/>
<polygon fill="orange" stroke="orange" points="354.36,-92.04 344.37,-95.55 354.37,-99.04 354.36,-92.04"/>
</a>
</g>
<text text-anchor="start" x="365" y="-133" font-family="Helvetica,sans-Serif" font-size="10.00" fill="grey"> &lt; IWbemObjectSinkDispatcher,</text>
<text text-anchor="start" x="365" y="-122" font-family="Helvetica,sans-Serif" font-size="10.00" fill="grey"> IWbemObjectSink, boost</text>
<text text-anchor="start" x="365" y="-111" font-family="Helvetica,sans-Serif" font-size="10.00" fill="grey">::container::small_vector</text>
<text text-anchor="middle" x="435.5" y="-100" font-family="Helvetica,sans-Serif" font-size="10.00" fill="grey">&lt; WbemClassObject, 64 &gt; &gt;</text>
</g>
<!-- Node6 -->
<g id="Node000006" class="node">
<title>Node6</title>
<g id="a_Node000006"><a xlink:title=" ">
<polygon fill="white" stroke="#666666" points="134,-75 0,-75 0,-45 134,-45 134,-75"/>
<text text-anchor="start" x="8" y="-63" font-family="Helvetica,sans-Serif" font-size="10.00">Com::ObjectBase&lt; Derived</text>
<text text-anchor="middle" x="67" y="-52" font-family="Helvetica,sans-Serif" font-size="10.00">T, IWbemObjectSink &gt;</text>
</a>
</g>
</g>
<!-- Node6&#45;&gt;Node5 -->
<g id="edge5_Node000005_Node000006" class="edge">
<title>Node6&#45;&gt;Node5</title>
<g id="a_edge5_Node000005_Node000006"><a xlink:title=" ">
<path fill="none" stroke="#63b8ff" d="M145.72,-74.73C155.45,-76.57 165.42,-78.46 175.21,-80.31"/>
<polygon fill="#63b8ff" stroke="#63b8ff" points="146.42,-71.3 135.94,-72.87 145.11,-78.17 146.42,-71.3"/>
</a>
</g>
</g>
<!-- Node8 -->
<g id="Node000008" class="node">
<title>Node8</title>
<g id="a_Node000008"><a xlink:href="class_harlinn_1_1_common_1_1_core_1_1_i_wbem_object_sink_implementation_base.html" target="_top" xlink:title=" ">
<polygon fill="white" stroke="#666666" points="342.5,-52 175.5,-52 175.5,0 342.5,0 342.5,-52"/>
<text text-anchor="start" x="183.5" y="-40" font-family="Helvetica,sans-Serif" font-size="10.00">Harlinn::Common::Core</text>
<text text-anchor="start" x="183.5" y="-29" font-family="Helvetica,sans-Serif" font-size="10.00">::IWbemObjectSinkImplementation</text>
<text text-anchor="start" x="183.5" y="-18" font-family="Helvetica,sans-Serif" font-size="10.00">Base&lt; DerivedT, InterfaceT,</text>
<text text-anchor="middle" x="259" y="-7" font-family="Helvetica,sans-Serif" font-size="10.00"> ContainerT &gt;</text>
</a>
</g>
</g>
<!-- Node6&#45;&gt;Node8 -->
<g id="edge8_Node000008_Node000006" class="edge">
<title>Node6&#45;&gt;Node8</title>
<g id="a_edge8_Node000008_Node000006"><a xlink:title=" ">
<path fill="none" stroke="#63b8ff" d="M145.72,-46.09C155.45,-44.35 165.42,-42.57 175.21,-40.81"/>
<polygon fill="#63b8ff" stroke="#63b8ff" points="145.17,-42.63 135.94,-47.84 146.4,-49.53 145.17,-42.63"/>
</a>
</g>
</g>
<!-- Node7 -->
<g id="Node000007" class="node">
<title>Node7</title>
<g id="a_Node000007"><a xlink:href="class_harlinn_1_1_common_1_1_core_1_1_i_wbem_object_sink_dispatcher_base.html" target="_top" xlink:title=" ">
<polygon fill="white" stroke="#666666" points="699,-52 551,-52 551,0 699,0 699,-52"/>
<text text-anchor="start" x="559" y="-40" font-family="Helvetica,sans-Serif" font-size="10.00">Harlinn::Common::Core</text>
<text text-anchor="start" x="559" y="-29" font-family="Helvetica,sans-Serif" font-size="10.00">::IWbemObjectSinkDispatcher</text>
<text text-anchor="start" x="559" y="-18" font-family="Helvetica,sans-Serif" font-size="10.00">Base&lt; DerivedT, InterfaceT,</text>
<text text-anchor="middle" x="625" y="-7" font-family="Helvetica,sans-Serif" font-size="10.00"> ContainerT &gt;</text>
</a>
</g>
</g>
<!-- Node7&#45;&gt;Node2 -->
<g id="edge6_Node000002_Node000007" class="edge">
<title>Node7&#45;&gt;Node2</title>
<g id="a_edge6_Node000002_Node000007"><a xlink:title=" ">
<path fill="none" stroke="orange" stroke-dasharray="5,2" d="M710.49,-23.81C761.31,-23.68 827.16,-25.62 885,-34 890.76,-34.84 896.65,-35.85 902.57,-36.99"/>
<polygon fill="orange" stroke="orange" points="710.72,-20.31 700.74,-23.87 710.76,-27.31 710.72,-20.31"/>
</a>
</g>
<text text-anchor="start" x="744" y="-70" font-family="Helvetica,sans-Serif" font-size="10.00" fill="grey"> &lt; IWbemObjectSinkDispatcher,</text>
<text text-anchor="start" x="744" y="-59" font-family="Helvetica,sans-Serif" font-size="10.00" fill="grey"> IWbemObjectSink, boost</text>
<text text-anchor="start" x="744" y="-48" font-family="Helvetica,sans-Serif" font-size="10.00" fill="grey">::container::small_vector</text>
<text text-anchor="middle" x="814.5" y="-37" font-family="Helvetica,sans-Serif" font-size="10.00" fill="grey">&lt; WbemClassObject, 64 &gt; &gt;</text>
</g>
<!-- Node8&#45;&gt;Node7 -->
<g id="edge7_Node000007_Node000008" class="edge">
<title>Node8&#45;&gt;Node7</title>
<g id="a_edge7_Node000007_Node000008"><a xlink:title=" ">
<path fill="none" stroke="#63b8ff" d="M353.83,-26C415.11,-26 493.99,-26 550.68,-26"/>
<polygon fill="#63b8ff" stroke="#63b8ff" points="354.11,-22.5 344.11,-26 354.11,-29.5 354.11,-22.5"/>
</a>
</g>
</g>
</g>
</svg>
