<?xml version="1.0" encoding="UTF-8" standalone="no"?>
<!DOCTYPE svg PUBLIC "-//W3C//DTD SVG 1.1//EN"
 "http://www.w3.org/Graphics/SVG/1.1/DTD/svg11.dtd">
<!-- Generated by graphviz version 7.0.1 (20221109.1506)
 -->
<!-- Title: Harlinn::Windows::Controls Pages: 1 -->
<svg width="1223pt" height="322pt"
 viewBox="0.00 0.00 1223.00 321.50" xmlns="http://www.w3.org/2000/svg" xmlns:xlink="http://www.w3.org/1999/xlink">
<g id="graph0" class="graph" transform="scale(1 1) rotate(0) translate(4 317.5)">
<title>Harlinn::Windows::Controls</title>
<!-- Node1 -->
<g id="Node000001" class="node">
<title>Node1</title>
<g id="a_Node000001"><a xlink:title=" ">
<polygon fill="#999999" stroke="#666666" points="811,-291 677,-291 677,-272 811,-272 811,-291"/>
<text text-anchor="middle" x="744" y="-279" font-family="Helvetica,sans-Serif" font-size="10.00">Harlinn::Windows::Controls</text>
</a>
</g>
</g>
<!-- Node3 -->
<g id="Node000003" class="node">
<title>Node3</title>
<g id="a_Node000003"><a xlink:href="class_harlinn_1_1_windows_1_1_control.html" target="_top" xlink:title=" ">
<polygon fill="white" stroke="#666666" points="1019,-210 890,-210 890,-191 1019,-191 1019,-210"/>
<text text-anchor="middle" x="954.5" y="-198" font-family="Helvetica,sans-Serif" font-size="10.00">Harlinn::Windows::Control</text>
</a>
</g>
</g>
<!-- Node1&#45;&gt;Node3 -->
<g id="edge14_Node000003_Node000001" class="edge">
<title>Node1&#45;&gt;Node3</title>
<g id="a_edge14_Node000003_Node000001"><a xlink:title=" ">
<path fill="none" stroke="#9a32cd" stroke-dasharray="5,2" d="M802.66,-268.79C824.75,-263.1 849.94,-255.61 872,-246.5 896.33,-236.46 922.5,-220.71 938.45,-210.49"/>
<polygon fill="#9a32cd" stroke="#9a32cd" points="802.08,-265.33 793.23,-271.15 803.78,-272.12 802.08,-265.33"/>
</a>
</g>
<text text-anchor="middle" x="850.5" y="-263.5" font-family="Helvetica,sans-Serif" font-size="10.00" fill="grey"> controls_</text>
</g>
<!-- Node2 -->
<g id="Node000002" class="node">
<title>Node2</title>
<g id="a_Node000002"><a xlink:title=" ">
<polygon fill="white" stroke="#666666" points="1215,-210 1098,-210 1098,-191 1215,-191 1215,-210"/>
<text text-anchor="middle" x="1156.5" y="-198" font-family="Helvetica,sans-Serif" font-size="10.00">std::vector&lt; Control * &gt;</text>
</a>
</g>
</g>
<!-- Node2&#45;&gt;Node1 -->
<g id="edge1_Node000001_Node000002" class="edge">
<title>Node2&#45;&gt;Node1</title>
<g id="a_edge1_Node000001_Node000002"><a xlink:title=" ">
<path fill="none" stroke="#9a32cd" stroke-dasharray="5,2" d="M1120.63,-214.46C1093.33,-224.98 1054.21,-239.14 1019,-248.5 954.8,-265.57 937.99,-267.92 872,-275.5 852.37,-277.76 830.95,-279.17 811.38,-280.05"/>
<polygon fill="#9a32cd" stroke="#9a32cd" points="1121.74,-217.79 1129.79,-210.9 1119.2,-211.26 1121.74,-217.79"/>
</a>
</g>
<text text-anchor="middle" x="954.5" y="-275.5" font-family="Helvetica,sans-Serif" font-size="10.00" fill="grey"> items_</text>
</g>
<!-- Node3&#45;&gt;Node1 -->
<g id="edge22_Node000001_Node000003" class="edge">
<title>Node3&#45;&gt;Node1</title>
<g id="a_edge22_Node000001_Node000003"><a xlink:title=" ">
<path fill="none" stroke="#9a32cd" stroke-dasharray="5,2" d="M878.75,-210.62C861.25,-215.51 843.51,-222.76 829,-233.5 816.81,-242.53 823.1,-253.35 811,-262.5 806.15,-266.17 800.61,-269.13 794.86,-271.52"/>
<polygon fill="#9a32cd" stroke="#9a32cd" points="879.28,-214.1 888.11,-208.24 877.55,-207.31 879.28,-214.1"/>
</a>
</g>
<text text-anchor="middle" x="850.5" y="-236.5" font-family="Helvetica,sans-Serif" font-size="10.00" fill="grey"> control_</text>
</g>
<!-- Node3&#45;&gt;Node2 -->
<g id="edge2_Node000002_Node000003" class="edge">
<title>Node3&#45;&gt;Node2</title>
<g id="a_edge2_Node000002_Node000003"><a xlink:title=" ">
<path fill="none" stroke="#9a32cd" stroke-dasharray="5,2" d="M1030.74,-200.5C1052.9,-200.5 1076.8,-200.5 1097.69,-200.5"/>
<polygon fill="#9a32cd" stroke="#9a32cd" points="1030.84,-197 1020.84,-200.5 1030.84,-204 1030.84,-197"/>
</a>
</g>
<text text-anchor="middle" x="1058.5" y="-203.5" font-family="Helvetica,sans-Serif" font-size="10.00" fill="grey"> elements</text>
</g>
<!-- Node3&#45;&gt;Node3 -->
<g id="edge3_Node000003_Node000003" class="edge">
<title>Node3&#45;&gt;Node3</title>
<g id="a_edge3_Node000003_Node000003"><a xlink:title=" ">
<path fill="none" stroke="#9a32cd" stroke-dasharray="5,2" d="M936.04,-221.43C938.35,-225.29 944.5,-228 954.5,-228 972.78,-228 978.21,-218.94 970.78,-210.37"/>
<polygon fill="#9a32cd" stroke="#9a32cd" points="939.43,-222.34 937.93,-211.85 932.56,-220.99 939.43,-222.34"/>
</a>
</g>
<text text-anchor="middle" x="954.5" y="-231" font-family="Helvetica,sans-Serif" font-size="10.00" fill="grey"> parentControl_</text>
</g>
<!-- Node4 -->
<g id="Node000004" class="node">
<title>Node4</title>
<g id="a_Node000004"><a xlink:href="class_harlinn_1_1_windows_1_1_point_t.html" target="_top" xlink:title=" ">
<polygon fill="white" stroke="#666666" points="807,-253.5 681,-253.5 681,-223.5 807,-223.5 807,-253.5"/>
<text text-anchor="start" x="689" y="-241.5" font-family="Helvetica,sans-Serif" font-size="10.00">Harlinn::Windows::PointT</text>
<text text-anchor="middle" x="744" y="-230.5" font-family="Helvetica,sans-Serif" font-size="10.00">&lt; POINT &gt;</text>
</a>
</g>
</g>
<!-- Node4&#45;&gt;Node3 -->
<g id="edge4_Node000003_Node000004" class="edge">
<title>Node4&#45;&gt;Node3</title>
<g id="a_edge4_Node000003_Node000004"><a xlink:title=" ">
<path fill="none" stroke="#9a32cd" stroke-dasharray="5,2" d="M782.7,-217.99C796.8,-211.38 813.23,-204.89 829,-201.5 848.44,-197.33 869.99,-196.02 889.62,-196.07"/>
<polygon fill="#9a32cd" stroke="#9a32cd" points="781.22,-214.81 773.78,-222.35 784.3,-221.1 781.22,-214.81"/>
</a>
</g>
<text text-anchor="middle" x="850.5" y="-204.5" font-family="Helvetica,sans-Serif" font-size="10.00" fill="grey"> position_</text>
</g>
<!-- Node5 -->
<g id="Node000005" class="node">
<title>Node5</title>
<g id="a_Node000005"><a xlink:href="struct_harlinn_1_1_windows_1_1_internal_1_1_traits.html" target="_top" xlink:title=" ">
<polygon fill="white" stroke="#666666" points="339,-268.5 209,-268.5 209,-238.5 339,-238.5 339,-268.5"/>
<text text-anchor="start" x="217" y="-256.5" font-family="Helvetica,sans-Serif" font-size="10.00">Harlinn::Windows::Internal</text>
<text text-anchor="middle" x="274" y="-245.5" font-family="Helvetica,sans-Serif" font-size="10.00">::Traits&lt; PT &gt;</text>
</a>
</g>
</g>
<!-- Node5&#45;&gt;Node4 -->
<g id="edge5_Node000004_Node000005" class="edge">
<title>Node5&#45;&gt;Node4</title>
<g id="a_edge5_Node000004_Node000005"><a xlink:title=" ">
<path fill="none" stroke="#9a32cd" stroke-dasharray="5,2" d="M326.02,-272.33C336.16,-275.31 346.81,-277.92 357,-279.5 489.85,-300.06 528.43,-294.52 659,-262.5 669.46,-259.94 680.58,-256.95 691.19,-253.97"/>
<polygon fill="#9a32cd" stroke="#9a32cd" points="327.32,-269.06 316.73,-269.43 325.24,-275.75 327.32,-269.06"/>
</a>
</g>
<text text-anchor="middle" x="523" y="-305.5" font-family="Helvetica,sans-Serif" font-size="10.00" fill="grey"> x_</text>
<text text-anchor="middle" x="523" y="-294.5" font-family="Helvetica,sans-Serif" font-size="10.00" fill="grey">y_</text>
</g>
<!-- Node7 -->
<g id="Node000007" class="node">
<title>Node7</title>
<g id="a_Node000007"><a xlink:href="class_harlinn_1_1_windows_1_1_point_t.html" target="_top" xlink:title="Provides a unified api for point types.">
<polygon fill="white" stroke="#666666" points="586,-268.5 460,-268.5 460,-238.5 586,-238.5 586,-268.5"/>
<text text-anchor="start" x="468" y="-256.5" font-family="Helvetica,sans-Serif" font-size="10.00">Harlinn::Windows::PointT</text>
<text text-anchor="middle" x="523" y="-245.5" font-family="Helvetica,sans-Serif" font-size="10.00">&lt; PT &gt;</text>
</a>
</g>
</g>
<!-- Node5&#45;&gt;Node7 -->
<g id="edge8_Node000007_Node000005" class="edge">
<title>Node5&#45;&gt;Node7</title>
<g id="a_edge8_Node000007_Node000005"><a xlink:title=" ">
<path fill="none" stroke="#9a32cd" stroke-dasharray="5,2" d="M350.39,-253.5C385.41,-253.5 426.56,-253.5 459.78,-253.5"/>
<polygon fill="#9a32cd" stroke="#9a32cd" points="350.77,-250 340.77,-253.5 350.77,-257 350.77,-250"/>
</a>
</g>
<text text-anchor="middle" x="399.5" y="-267.5" font-family="Helvetica,sans-Serif" font-size="10.00" fill="grey"> x_</text>
<text text-anchor="middle" x="399.5" y="-256.5" font-family="Helvetica,sans-Serif" font-size="10.00" fill="grey">y_</text>
</g>
<!-- Node6 -->
<g id="Node000006" class="node">
<title>Node6</title>
<g id="a_Node000006"><a xlink:href="struct_harlinn_1_1_windows_1_1_internal_1_1_traits.html" target="_top" xlink:title=" ">
<polygon fill="white" stroke="#666666" points="130,-240.5 0,-240.5 0,-210.5 130,-210.5 130,-240.5"/>
<text text-anchor="start" x="8" y="-228.5" font-family="Helvetica,sans-Serif" font-size="10.00">Harlinn::Windows::Internal</text>
<text text-anchor="middle" x="65" y="-217.5" font-family="Helvetica,sans-Serif" font-size="10.00">::Traits&lt; T &gt;</text>
</a>
</g>
</g>
<!-- Node6&#45;&gt;Node5 -->
<g id="edge6_Node000005_Node000006" class="edge">
<title>Node6&#45;&gt;Node5</title>
<g id="a_edge6_Node000005_Node000006"><a xlink:title=" ">
<path fill="none" stroke="orange" stroke-dasharray="5,2" d="M141.67,-235.74C163.66,-238.71 187.46,-241.93 208.68,-244.8"/>
<polygon fill="orange" stroke="orange" points="142.24,-232.28 131.86,-234.41 141.3,-239.22 142.24,-232.28"/>
</a>
</g>
<text text-anchor="middle" x="169.5" y="-244.5" font-family="Helvetica,sans-Serif" font-size="10.00" fill="grey"> &lt; PT &gt;</text>
</g>
<!-- Node9 -->
<g id="Node000009" class="node">
<title>Node9</title>
<g id="a_Node000009"><a xlink:href="struct_harlinn_1_1_windows_1_1_internal_1_1_traits.html" target="_top" xlink:title=" ">
<polygon fill="white" stroke="#666666" points="339,-213.5 209,-213.5 209,-183.5 339,-183.5 339,-213.5"/>
<text text-anchor="start" x="217" y="-201.5" font-family="Helvetica,sans-Serif" font-size="10.00">Harlinn::Windows::Internal</text>
<text text-anchor="middle" x="274" y="-190.5" font-family="Helvetica,sans-Serif" font-size="10.00">::Traits&lt; ST &gt;</text>
</a>
</g>
</g>
<!-- Node6&#45;&gt;Node9 -->
<g id="edge11_Node000009_Node000006" class="edge">
<title>Node6&#45;&gt;Node9</title>
<g id="a_edge11_Node000009_Node000006"><a xlink:title=" ">
<path fill="none" stroke="orange" stroke-dasharray="5,2" d="M141.78,-215.32C143.88,-215.04 145.95,-214.77 148,-214.5 167.74,-211.91 189.24,-209.14 208.76,-206.65"/>
<polygon fill="orange" stroke="orange" points="141.41,-211.84 131.95,-216.62 142.33,-218.78 141.41,-211.84"/>
</a>
</g>
<text text-anchor="middle" x="169.5" y="-217.5" font-family="Helvetica,sans-Serif" font-size="10.00" fill="grey"> &lt; ST &gt;</text>
</g>
<!-- Node7&#45;&gt;Node4 -->
<g id="edge7_Node000004_Node000007" class="edge">
<title>Node7&#45;&gt;Node4</title>
<g id="a_edge7_Node000004_Node000007"><a xlink:title=" ">
<path fill="none" stroke="orange" stroke-dasharray="5,2" d="M597.8,-248.45C624.77,-246.6 654.98,-244.53 680.83,-242.76"/>
<polygon fill="orange" stroke="orange" points="597.71,-244.94 587.97,-249.12 598.19,-251.93 597.71,-244.94"/>
</a>
</g>
<text text-anchor="middle" x="631.5" y="-250.5" font-family="Helvetica,sans-Serif" font-size="10.00" fill="grey"> &lt; POINT &gt;</text>
</g>
<!-- Node8 -->
<g id="Node000008" class="node">
<title>Node8</title>
<g id="a_Node000008"><a xlink:href="class_harlinn_1_1_windows_1_1_size_t.html" target="_top" xlink:title=" ">
<polygon fill="white" stroke="#666666" points="805.5,-181.5 682.5,-181.5 682.5,-151.5 805.5,-151.5 805.5,-181.5"/>
<text text-anchor="start" x="690.5" y="-169.5" font-family="Helvetica,sans-Serif" font-size="10.00">Harlinn::Windows::SizeT</text>
<text text-anchor="middle" x="744" y="-158.5" font-family="Helvetica,sans-Serif" font-size="10.00">&lt; SIZE &gt;</text>
</a>
</g>
</g>
<!-- Node8&#45;&gt;Node3 -->
<g id="edge9_Node000003_Node000008" class="edge">
<title>Node8&#45;&gt;Node3</title>
<g id="a_edge9_Node000003_Node000008"><a xlink:title=" ">
<path fill="none" stroke="#9a32cd" stroke-dasharray="5,2" d="M817.22,-162.38C835.25,-162.63 854.44,-164.01 872,-167.5 894.46,-171.97 918.58,-182.53 934.7,-190.51"/>
<polygon fill="#9a32cd" stroke="#9a32cd" points="817.39,-158.88 807.39,-162.36 817.38,-165.88 817.39,-158.88"/>
</a>
</g>
<text text-anchor="middle" x="850.5" y="-170.5" font-family="Helvetica,sans-Serif" font-size="10.00" fill="grey"> size_</text>
</g>
<!-- Node9&#45;&gt;Node8 -->
<g id="edge10_Node000008_Node000009" class="edge">
<title>Node9&#45;&gt;Node8</title>
<g id="a_edge10_Node000008_Node000009"><a xlink:title=" ">
<path fill="none" stroke="#9a32cd" stroke-dasharray="5,2" d="M350.31,-194C427.76,-189.28 551.84,-181.45 659,-173.5 666.59,-172.94 674.56,-172.31 682.45,-171.68"/>
<polygon fill="#9a32cd" stroke="#9a32cd" points="350.51,-190.48 340.74,-194.58 350.94,-197.47 350.51,-190.48"/>
</a>
</g>
<text text-anchor="middle" x="523" y="-200.5" font-family="Helvetica,sans-Serif" font-size="10.00" fill="grey"> height_</text>
<text text-anchor="middle" x="523" y="-189.5" font-family="Helvetica,sans-Serif" font-size="10.00" fill="grey">width_</text>
</g>
<!-- Node10 -->
<g id="Node000010" class="node">
<title>Node10</title>
<g id="a_Node000010"><a xlink:href="class_harlinn_1_1_windows_1_1_size_t.html" target="_top" xlink:title="Provides a unified api for size types.">
<polygon fill="white" stroke="#666666" points="584.5,-162.5 461.5,-162.5 461.5,-132.5 584.5,-132.5 584.5,-162.5"/>
<text text-anchor="start" x="469.5" y="-150.5" font-family="Helvetica,sans-Serif" font-size="10.00">Harlinn::Windows::SizeT</text>
<text text-anchor="middle" x="523" y="-139.5" font-family="Helvetica,sans-Serif" font-size="10.00">&lt; ST &gt;</text>
</a>
</g>
</g>
<!-- Node9&#45;&gt;Node10 -->
<g id="edge13_Node000010_Node000009" class="edge">
<title>Node9&#45;&gt;Node10</title>
<g id="a_edge13_Node000010_Node000009"><a xlink:title=" ">
<path fill="none" stroke="#9a32cd" stroke-dasharray="5,2" d="M314.01,-178.3C327.32,-172.25 342.51,-166.23 357,-162.5 390.84,-153.78 429.73,-149.96 461.25,-148.35"/>
<polygon fill="#9a32cd" stroke="#9a32cd" points="312.7,-175.05 305.15,-182.48 315.69,-181.38 312.7,-175.05"/>
</a>
</g>
<text text-anchor="middle" x="399.5" y="-176.5" font-family="Helvetica,sans-Serif" font-size="10.00" fill="grey"> height_</text>
<text text-anchor="middle" x="399.5" y="-165.5" font-family="Helvetica,sans-Serif" font-size="10.00" fill="grey">width_</text>
</g>
<!-- Node10&#45;&gt;Node8 -->
<g id="edge12_Node000008_Node000010" class="edge">
<title>Node10&#45;&gt;Node8</title>
<g id="a_edge12_Node000008_Node000010"><a xlink:title=" ">
<path fill="none" stroke="orange" stroke-dasharray="5,2" d="M596,-153.75C623.88,-156.17 655.45,-158.9 682.17,-161.22"/>
<polygon fill="orange" stroke="orange" points="596.49,-150.28 586.22,-152.9 595.88,-157.25 596.49,-150.28"/>
</a>
</g>
<text text-anchor="middle" x="631.5" y="-161.5" font-family="Helvetica,sans-Serif" font-size="10.00" fill="grey"> &lt; SIZE &gt;</text>
</g>
<!-- Node11 -->
<g id="Node000011" class="node">
<title>Node11</title>
<g id="a_Node000011"><a xlink:href="class_harlinn_1_1_common_1_1_core_1_1_basic_string.html" target="_top" xlink:title=" ">
<polygon fill="white" stroke="#666666" points="806.5,-118.5 681.5,-118.5 681.5,-88.5 806.5,-88.5 806.5,-118.5"/>
<text text-anchor="start" x="689.5" y="-106.5" font-family="Helvetica,sans-Serif" font-size="10.00">Harlinn::Common::Core</text>
<text text-anchor="middle" x="744" y="-95.5" font-family="Helvetica,sans-Serif" font-size="10.00">::BasicString&lt; wchar_t &gt;</text>
</a>
</g>
</g>
<!-- Node11&#45;&gt;Node3 -->
<g id="edge15_Node000003_Node000011" class="edge">
<title>Node11&#45;&gt;Node3</title>
<g id="a_edge15_Node000003_Node000011"><a xlink:title=" ">
<path fill="none" stroke="#9a32cd" stroke-dasharray="5,2" d="M809.48,-122.46C829.9,-129.35 852.28,-137.85 872,-147.5 897.62,-160.04 924.93,-179.12 940.54,-190.64"/>
<polygon fill="#9a32cd" stroke="#9a32cd" points="810.71,-119.18 800.12,-119.37 808.52,-125.83 810.71,-119.18"/>
</a>
</g>
<text text-anchor="middle" x="850.5" y="-150.5" font-family="Helvetica,sans-Serif" font-size="10.00" fill="grey"> text_</text>
</g>
<!-- Node12 -->
<g id="Node000012" class="node">
<title>Node12</title>
<g id="a_Node000012"><a xlink:href="struct_harlinn_1_1_common_1_1_core_1_1_internal_1_1_data.html" target="_top" xlink:title=" ">
<polygon fill="white" stroke="#666666" points="333,-67.5 215,-67.5 215,-37.5 333,-37.5 333,-67.5"/>
<text text-anchor="start" x="223" y="-55.5" font-family="Helvetica,sans-Serif" font-size="10.00">Harlinn::Common::Core</text>
<text text-anchor="middle" x="274" y="-44.5" font-family="Helvetica,sans-Serif" font-size="10.00">::Internal::Data&lt; T &gt;</text>
</a>
</g>
</g>
<!-- Node12&#45;&gt;Node11 -->
<g id="edge16_Node000011_Node000012" class="edge">
<title>Node12&#45;&gt;Node11</title>
<g id="a_edge16_Node000011_Node000012"><a xlink:title=" ">
<path fill="none" stroke="#9a32cd" stroke-dasharray="5,2" d="M344.41,-65.64C348.67,-66.3 352.89,-66.93 357,-67.5 471.01,-83.21 604.94,-94 681.3,-99.43"/>
<polygon fill="#9a32cd" stroke="#9a32cd" points="345.06,-62.2 334.63,-64.03 343.93,-69.1 345.06,-62.2"/>
</a>
</g>
<text text-anchor="middle" x="523" y="-95.5" font-family="Helvetica,sans-Serif" font-size="10.00" fill="grey"> data_</text>
</g>
<!-- Node14 -->
<g id="Node000014" class="node">
<title>Node14</title>
<g id="a_Node000014"><a xlink:href="class_harlinn_1_1_common_1_1_core_1_1_basic_string.html" target="_top" xlink:title="This is a reference counted string class.">
<polygon fill="white" stroke="#666666" points="582,-67.5 464,-67.5 464,-37.5 582,-37.5 582,-67.5"/>
<text text-anchor="start" x="472" y="-55.5" font-family="Helvetica,sans-Serif" font-size="10.00">Harlinn::Common::Core</text>
<text text-anchor="middle" x="523" y="-44.5" font-family="Helvetica,sans-Serif" font-size="10.00">::BasicString&lt; T &gt;</text>
</a>
</g>
</g>
<!-- Node12&#45;&gt;Node14 -->
<g id="edge19_Node000014_Node000012" class="edge">
<title>Node12&#45;&gt;Node14</title>
<g id="a_edge19_Node000014_Node000012"><a xlink:title=" ">
<path fill="none" stroke="#9a32cd" stroke-dasharray="5,2" d="M344.6,-52.5C382.19,-52.5 428.06,-52.5 463.74,-52.5"/>
<polygon fill="#9a32cd" stroke="#9a32cd" points="344.74,-49 334.74,-52.5 344.74,-56 344.74,-49"/>
</a>
</g>
<text text-anchor="middle" x="399.5" y="-55.5" font-family="Helvetica,sans-Serif" font-size="10.00" fill="grey"> data_</text>
</g>
<!-- Node13 -->
<g id="Node000013" class="node">
<title>Node13</title>
<g id="a_Node000013"><a xlink:title=" ">
<polygon fill="white" stroke="#666666" points="79.5,-39 50.5,-39 50.5,-20 79.5,-20 79.5,-39"/>
<text text-anchor="middle" x="65" y="-27" font-family="Helvetica,sans-Serif" font-size="10.00">T</text>
</a>
</g>
</g>
<!-- Node13&#45;&gt;Node12 -->
<g id="edge17_Node000012_Node000013" class="edge">
<title>Node13&#45;&gt;Node12</title>
<g id="a_edge17_Node000012_Node000013"><a xlink:title=" ">
<path fill="none" stroke="#9a32cd" stroke-dasharray="5,2" d="M91.17,-32.3C121.63,-35.68 173.92,-41.49 214.62,-46.01"/>
<polygon fill="#9a32cd" stroke="#9a32cd" points="91.73,-28.84 81.41,-31.21 90.96,-35.79 91.73,-28.84"/>
</a>
</g>
<text text-anchor="middle" x="169.5" y="-46.5" font-family="Helvetica,sans-Serif" font-size="10.00" fill="grey"> buffer_</text>
</g>
<!-- Node15 -->
<g id="Node000015" class="node">
<title>Node15</title>
<g id="a_Node000015"><a xlink:title=" ">
<polygon fill="white" stroke="#666666" points="442,-19 357,-19 357,0 442,0 442,-19"/>
<text text-anchor="middle" x="399.5" y="-7" font-family="Helvetica,sans-Serif" font-size="10.00">std::vector&lt; T &gt;</text>
</a>
</g>
</g>
<!-- Node13&#45;&gt;Node15 -->
<g id="edge21_Node000015_Node000013" class="edge">
<title>Node13&#45;&gt;Node15</title>
<g id="a_edge21_Node000015_Node000013"><a xlink:title=" ">
<path fill="none" stroke="#9a32cd" stroke-dasharray="5,2" d="M91.17,-27.96C107.39,-26.97 128.94,-25.65 148,-24.5 221.49,-20.06 307.12,-14.94 356.84,-11.98"/>
<polygon fill="#9a32cd" stroke="#9a32cd" points="91.21,-24.45 81.44,-28.55 91.63,-31.44 91.21,-24.45"/>
</a>
</g>
<text text-anchor="middle" x="169.5" y="-27.5" font-family="Helvetica,sans-Serif" font-size="10.00" fill="grey"> elements</text>
</g>
<!-- Node14&#45;&gt;Node11 -->
<g id="edge18_Node000011_Node000014" class="edge">
<title>Node14&#45;&gt;Node11</title>
<g id="a_edge18_Node000011_Node000014"><a xlink:title=" ">
<path fill="none" stroke="orange" stroke-dasharray="5,2" d="M593.57,-64.54C614.68,-68.55 637.87,-73.34 659,-78.5 670.38,-81.28 682.51,-84.65 693.92,-88.01"/>
<polygon fill="orange" stroke="orange" points="594.38,-61.13 583.9,-62.72 593.09,-68.01 594.38,-61.13"/>
</a>
</g>
<text text-anchor="middle" x="631.5" y="-81.5" font-family="Helvetica,sans-Serif" font-size="10.00" fill="grey"> &lt; wchar_t &gt;</text>
</g>
<!-- Node15&#45;&gt;Node2 -->
<g id="edge20_Node000002_Node000015" class="edge">
<title>Node15&#45;&gt;Node2</title>
<g id="a_edge20_Node000002_Node000015"><a xlink:title=" ">
<path fill="none" stroke="orange" stroke-dasharray="5,2" d="M453.81,-9.5C500.42,-9.5 569.95,-9.5 630.5,-9.5 630.5,-9.5 630.5,-9.5 955.5,-9.5 1061.61,-9.5 1133.56,-151.84 1151.26,-190.77"/>
<polygon fill="orange" stroke="orange" points="453.98,-6 443.98,-9.5 453.98,-13 453.98,-6"/>
</a>
</g>
<text text-anchor="middle" x="744" y="-12.5" font-family="Helvetica,sans-Serif" font-size="10.00" fill="grey"> &lt; Control * &gt;</text>
</g>
</g>
</svg>
