<?xml version="1.0" encoding="UTF-8" standalone="no"?>
<!DOCTYPE svg PUBLIC "-//W3C//DTD SVG 1.1//EN"
 "http://www.w3.org/Graphics/SVG/1.1/DTD/svg11.dtd">
<!-- Generated by graphviz version 7.0.1 (20221109.1506)
 -->
<!-- Title: Harlinn::Windows::Media::MFStreamSink Pages: 1 -->
<svg width="138pt" height="170pt"
 viewBox="0.00 0.00 138.00 170.00" xmlns="http://www.w3.org/2000/svg" xmlns:xlink="http://www.w3.org/1999/xlink">
<g id="graph0" class="graph" transform="scale(1 1) rotate(0) translate(4 166)">
<title>Harlinn::Windows::Media::MFStreamSink</title>
<!-- Node1 -->
<g id="Node000001" class="node">
<title>Node1</title>
<g id="a_Node000001"><a xlink:title="Represents a stream on a media sink object.">
<polygon fill="#999999" stroke="#666666" points="127.5,-30 2.5,-30 2.5,0 127.5,0 127.5,-30"/>
<text text-anchor="start" x="10.5" y="-18" font-family="Helvetica,sans-Serif" font-size="10.00">Harlinn::Windows::Media</text>
<text text-anchor="middle" x="65" y="-7" font-family="Helvetica,sans-Serif" font-size="10.00">::MFStreamSink</text>
</a>
</g>
</g>
<!-- Node2 -->
<g id="Node000002" class="node">
<title>Node2</title>
<g id="a_Node000002"><a xlink:href="class_harlinn_1_1_windows_1_1_media_1_1_m_f_media_event_generator.html" target="_top" xlink:title="Retrieves events from any Media Foundation object that generates events.">
<polygon fill="white" stroke="#666666" points="130,-96 0,-96 0,-66 130,-66 130,-96"/>
<text text-anchor="start" x="8" y="-84" font-family="Helvetica,sans-Serif" font-size="10.00">Harlinn::Windows::Media</text>
<text text-anchor="middle" x="65" y="-73" font-family="Helvetica,sans-Serif" font-size="10.00">::MFMediaEventGenerator</text>
</a>
</g>
</g>
<!-- Node2&#45;&gt;Node1 -->
<g id="edge1_Node000001_Node000002" class="edge">
<title>Node2&#45;&gt;Node1</title>
<g id="a_edge1_Node000001_Node000002"><a xlink:title=" ">
<path fill="none" stroke="#63b8ff" d="M65,-54.39C65,-46.13 65,-37.28 65,-30.16"/>
<polygon fill="#63b8ff" stroke="#63b8ff" points="61.5,-54.28 65,-64.28 68.5,-54.28 61.5,-54.28"/>
</a>
</g>
</g>
<!-- Node3 -->
<g id="Node000003" class="node">
<title>Node3</title>
<g id="a_Node000003"><a xlink:href="class_harlinn_1_1_common_1_1_core_1_1_unknown.html" target="_top" xlink:title=" ">
<polygon fill="white" stroke="#666666" points="124,-162 6,-162 6,-132 124,-132 124,-162"/>
<text text-anchor="start" x="14" y="-150" font-family="Helvetica,sans-Serif" font-size="10.00">Harlinn::Common::Core</text>
<text text-anchor="middle" x="65" y="-139" font-family="Helvetica,sans-Serif" font-size="10.00">::Unknown</text>
</a>
</g>
</g>
<!-- Node3&#45;&gt;Node2 -->
<g id="edge2_Node000002_Node000003" class="edge">
<title>Node3&#45;&gt;Node2</title>
<g id="a_edge2_Node000002_Node000003"><a xlink:title=" ">
<path fill="none" stroke="#63b8ff" d="M65,-120.39C65,-112.13 65,-103.28 65,-96.16"/>
<polygon fill="#63b8ff" stroke="#63b8ff" points="61.5,-120.28 65,-130.28 68.5,-120.28 61.5,-120.28"/>
</a>
</g>
</g>
</g>
</svg>
