<?xml version="1.0" encoding="UTF-8" standalone="no"?>
<!DOCTYPE svg PUBLIC "-//W3C//DTD SVG 1.1//EN"
 "http://www.w3.org/Graphics/SVG/1.1/DTD/svg11.dtd">
<!-- Generated by graphviz version 7.0.1 (20221109.1506)
 -->
<!-- Title: Harlinn::Common::Core::Persistent::BasicArrayType Pages: 1 -->
<svg width="150pt" height="181pt"
 viewBox="0.00 0.00 150.00 181.00" xmlns="http://www.w3.org/2000/svg" xmlns:xlink="http://www.w3.org/1999/xlink">
<g id="graph0" class="graph" transform="scale(1 1) rotate(0) translate(4 177)">
<title>Harlinn::Common::Core::Persistent::BasicArrayType</title>
<!-- Node1 -->
<g id="Node000001" class="node">
<title>Node1</title>
<g id="a_Node000001"><a xlink:title=" ">
<polygon fill="#999999" stroke="#666666" points="142,-107 0,-107 0,-77 142,-77 142,-107"/>
<text text-anchor="start" x="8" y="-95" font-family="Helvetica,sans-Serif" font-size="10.00">Harlinn::Common::Core</text>
<text text-anchor="middle" x="71" y="-84" font-family="Helvetica,sans-Serif" font-size="10.00">::Persistent::BasicArrayType</text>
</a>
</g>
</g>
<!-- Node3 -->
<g id="Node000003" class="node">
<title>Node3</title>
<g id="a_Node000003"><a xlink:href="class_harlinn_1_1_common_1_1_core_1_1_persistent_1_1_fixed_size_basic_array_type.xhtml" target="_top" xlink:title=" ">
<polygon fill="white" stroke="#666666" points="141.5,-41 0.5,-41 0.5,0 141.5,0 141.5,-41"/>
<text text-anchor="start" x="8.5" y="-29" font-family="Helvetica,sans-Serif" font-size="10.00">Harlinn::Common::Core</text>
<text text-anchor="start" x="8.5" y="-18" font-family="Helvetica,sans-Serif" font-size="10.00">::Persistent::FixedSizeBasic</text>
<text text-anchor="middle" x="71" y="-7" font-family="Helvetica,sans-Serif" font-size="10.00">ArrayType</text>
</a>
</g>
</g>
<!-- Node1&#45;&gt;Node3 -->
<g id="edge2_Node000001_Node000003" class="edge">
<title>Node1&#45;&gt;Node3</title>
<g id="a_edge2_Node000001_Node000003"><a xlink:title=" ">
<path fill="none" stroke="#63b8ff" d="M71,-65.36C71,-57.45 71,-48.87 71,-41.42"/>
<polygon fill="#63b8ff" stroke="#63b8ff" points="67.5,-65.09 71,-75.09 74.5,-65.09 67.5,-65.09"/>
</a>
</g>
</g>
<!-- Node2 -->
<g id="Node000002" class="node">
<title>Node2</title>
<g id="a_Node000002"><a xlink:href="class_harlinn_1_1_common_1_1_core_1_1_persistent_1_1_type.xhtml" target="_top" xlink:title=" ">
<polygon fill="white" stroke="#666666" points="130,-173 12,-173 12,-143 130,-143 130,-173"/>
<text text-anchor="start" x="20" y="-161" font-family="Helvetica,sans-Serif" font-size="10.00">Harlinn::Common::Core</text>
<text text-anchor="middle" x="71" y="-150" font-family="Helvetica,sans-Serif" font-size="10.00">::Persistent::Type</text>
</a>
</g>
</g>
<!-- Node2&#45;&gt;Node1 -->
<g id="edge1_Node000001_Node000002" class="edge">
<title>Node2&#45;&gt;Node1</title>
<g id="a_edge1_Node000001_Node000002"><a xlink:title=" ">
<path fill="none" stroke="#63b8ff" d="M71,-131.39C71,-123.13 71,-114.28 71,-107.16"/>
<polygon fill="#63b8ff" stroke="#63b8ff" points="67.5,-131.28 71,-141.28 74.5,-131.28 67.5,-131.28"/>
</a>
</g>
</g>
</g>
</svg>
