<?xml version="1.0" encoding="UTF-8" standalone="no"?>
<!DOCTYPE svg PUBLIC "-//W3C//DTD SVG 1.1//EN"
 "http://www.w3.org/Graphics/SVG/1.1/DTD/svg11.dtd">
<!-- Generated by graphviz version 7.0.1 (20221109.1506)
 -->
<!-- Title: Harlinn::Windows::DXGI::Factory4 Pages: 1 -->
<svg width="128pt" height="434pt"
 viewBox="0.00 0.00 128.00 434.00" xmlns="http://www.w3.org/2000/svg" xmlns:xlink="http://www.w3.org/1999/xlink">
<g id="graph0" class="graph" transform="scale(1 1) rotate(0) translate(4 430)">
<title>Harlinn::Windows::DXGI::Factory4</title>
<!-- Node1 -->
<g id="Node000001" class="node">
<title>Node1</title>
<g id="a_Node000001"><a xlink:title=" ">
<polygon fill="#999999" stroke="#666666" points="120,-30 0,-30 0,0 120,0 120,-30"/>
<text text-anchor="start" x="8" y="-18" font-family="Helvetica,sans-Serif" font-size="10.00">Harlinn::Windows::DXGI</text>
<text text-anchor="middle" x="60" y="-7" font-family="Helvetica,sans-Serif" font-size="10.00">::Factory4</text>
</a>
</g>
</g>
<!-- Node2 -->
<g id="Node000002" class="node">
<title>Node2</title>
<g id="a_Node000002"><a xlink:href="class_harlinn_1_1_windows_1_1_d_x_g_i_1_1_factory3.xhtml" target="_top" xlink:title=" ">
<polygon fill="white" stroke="#666666" points="120,-96 0,-96 0,-66 120,-66 120,-96"/>
<text text-anchor="start" x="8" y="-84" font-family="Helvetica,sans-Serif" font-size="10.00">Harlinn::Windows::DXGI</text>
<text text-anchor="middle" x="60" y="-73" font-family="Helvetica,sans-Serif" font-size="10.00">::Factory3</text>
</a>
</g>
</g>
<!-- Node2&#45;&gt;Node1 -->
<g id="edge1_Node000001_Node000002" class="edge">
<title>Node2&#45;&gt;Node1</title>
<g id="a_edge1_Node000001_Node000002"><a xlink:title=" ">
<path fill="none" stroke="#63b8ff" d="M60,-54.39C60,-46.13 60,-37.28 60,-30.16"/>
<polygon fill="#63b8ff" stroke="#63b8ff" points="56.5,-54.28 60,-64.28 63.5,-54.28 56.5,-54.28"/>
</a>
</g>
</g>
<!-- Node3 -->
<g id="Node000003" class="node">
<title>Node3</title>
<g id="a_Node000003"><a xlink:href="class_harlinn_1_1_windows_1_1_d_x_g_i_1_1_factory2.xhtml" target="_top" xlink:title=" ">
<polygon fill="white" stroke="#666666" points="120,-162 0,-162 0,-132 120,-132 120,-162"/>
<text text-anchor="start" x="8" y="-150" font-family="Helvetica,sans-Serif" font-size="10.00">Harlinn::Windows::DXGI</text>
<text text-anchor="middle" x="60" y="-139" font-family="Helvetica,sans-Serif" font-size="10.00">::Factory2</text>
</a>
</g>
</g>
<!-- Node3&#45;&gt;Node2 -->
<g id="edge2_Node000002_Node000003" class="edge">
<title>Node3&#45;&gt;Node2</title>
<g id="a_edge2_Node000002_Node000003"><a xlink:title=" ">
<path fill="none" stroke="#63b8ff" d="M60,-120.39C60,-112.13 60,-103.28 60,-96.16"/>
<polygon fill="#63b8ff" stroke="#63b8ff" points="56.5,-120.28 60,-130.28 63.5,-120.28 56.5,-120.28"/>
</a>
</g>
</g>
<!-- Node4 -->
<g id="Node000004" class="node">
<title>Node4</title>
<g id="a_Node000004"><a xlink:href="class_harlinn_1_1_windows_1_1_d_x_g_i_1_1_factory1.xhtml" target="_top" xlink:title=" ">
<polygon fill="white" stroke="#666666" points="120,-228 0,-228 0,-198 120,-198 120,-228"/>
<text text-anchor="start" x="8" y="-216" font-family="Helvetica,sans-Serif" font-size="10.00">Harlinn::Windows::DXGI</text>
<text text-anchor="middle" x="60" y="-205" font-family="Helvetica,sans-Serif" font-size="10.00">::Factory1</text>
</a>
</g>
</g>
<!-- Node4&#45;&gt;Node3 -->
<g id="edge3_Node000003_Node000004" class="edge">
<title>Node4&#45;&gt;Node3</title>
<g id="a_edge3_Node000003_Node000004"><a xlink:title=" ">
<path fill="none" stroke="#63b8ff" d="M60,-186.39C60,-178.13 60,-169.28 60,-162.16"/>
<polygon fill="#63b8ff" stroke="#63b8ff" points="56.5,-186.28 60,-196.28 63.5,-186.28 56.5,-186.28"/>
</a>
</g>
</g>
<!-- Node5 -->
<g id="Node000005" class="node">
<title>Node5</title>
<g id="a_Node000005"><a xlink:href="class_harlinn_1_1_windows_1_1_d_x_g_i_1_1_factory.xhtml" target="_top" xlink:title=" ">
<polygon fill="white" stroke="#666666" points="120,-294 0,-294 0,-264 120,-264 120,-294"/>
<text text-anchor="start" x="8" y="-282" font-family="Helvetica,sans-Serif" font-size="10.00">Harlinn::Windows::DXGI</text>
<text text-anchor="middle" x="60" y="-271" font-family="Helvetica,sans-Serif" font-size="10.00">::Factory</text>
</a>
</g>
</g>
<!-- Node5&#45;&gt;Node4 -->
<g id="edge4_Node000004_Node000005" class="edge">
<title>Node5&#45;&gt;Node4</title>
<g id="a_edge4_Node000004_Node000005"><a xlink:title=" ">
<path fill="none" stroke="#63b8ff" d="M60,-252.39C60,-244.13 60,-235.28 60,-228.16"/>
<polygon fill="#63b8ff" stroke="#63b8ff" points="56.5,-252.28 60,-262.28 63.5,-252.28 56.5,-252.28"/>
</a>
</g>
</g>
<!-- Node6 -->
<g id="Node000006" class="node">
<title>Node6</title>
<g id="a_Node000006"><a xlink:href="class_harlinn_1_1_windows_1_1_d_x_g_i_1_1_object.xhtml" target="_top" xlink:title=" ">
<polygon fill="white" stroke="#666666" points="120,-360 0,-360 0,-330 120,-330 120,-360"/>
<text text-anchor="start" x="8" y="-348" font-family="Helvetica,sans-Serif" font-size="10.00">Harlinn::Windows::DXGI</text>
<text text-anchor="middle" x="60" y="-337" font-family="Helvetica,sans-Serif" font-size="10.00">::Object</text>
</a>
</g>
</g>
<!-- Node6&#45;&gt;Node5 -->
<g id="edge5_Node000005_Node000006" class="edge">
<title>Node6&#45;&gt;Node5</title>
<g id="a_edge5_Node000005_Node000006"><a xlink:title=" ">
<path fill="none" stroke="#63b8ff" d="M60,-318.39C60,-310.13 60,-301.28 60,-294.16"/>
<polygon fill="#63b8ff" stroke="#63b8ff" points="56.5,-318.28 60,-328.28 63.5,-318.28 56.5,-318.28"/>
</a>
</g>
</g>
<!-- Node7 -->
<g id="Node000007" class="node">
<title>Node7</title>
<g id="a_Node000007"><a xlink:href="class_harlinn_1_1_common_1_1_core_1_1_unknown.xhtml" target="_top" xlink:title=" ">
<polygon fill="white" stroke="#666666" points="119,-426 1,-426 1,-396 119,-396 119,-426"/>
<text text-anchor="start" x="9" y="-414" font-family="Helvetica,sans-Serif" font-size="10.00">Harlinn::Common::Core</text>
<text text-anchor="middle" x="60" y="-403" font-family="Helvetica,sans-Serif" font-size="10.00">::Unknown</text>
</a>
</g>
</g>
<!-- Node7&#45;&gt;Node6 -->
<g id="edge6_Node000006_Node000007" class="edge">
<title>Node7&#45;&gt;Node6</title>
<g id="a_edge6_Node000006_Node000007"><a xlink:title=" ">
<path fill="none" stroke="#63b8ff" d="M60,-384.39C60,-376.13 60,-367.28 60,-360.16"/>
<polygon fill="#63b8ff" stroke="#63b8ff" points="56.5,-384.28 60,-394.28 63.5,-384.28 56.5,-384.28"/>
</a>
</g>
</g>
</g>
</svg>
