<?xml version="1.0" encoding="UTF-8" standalone="no"?>
<!DOCTYPE svg PUBLIC "-//W3C//DTD SVG 1.1//EN"
 "http://www.w3.org/Graphics/SVG/1.1/DTD/svg11.dtd">
<!-- Generated by graphviz version 7.0.1 (20221109.1506)
 -->
<!-- Title: Harlinn::Windows::IconHandle Pages: 1 -->
<svg width="189pt" height="182pt"
 viewBox="0.00 0.00 188.50 182.00" xmlns="http://www.w3.org/2000/svg" xmlns:xlink="http://www.w3.org/1999/xlink">
<g id="graph0" class="graph" transform="scale(1 1) rotate(0) translate(4 178)">
<title>Harlinn::Windows::IconHandle</title>
<!-- Node1 -->
<g id="Node000001" class="node">
<title>Node1</title>
<g id="a_Node000001"><a xlink:title=" ">
<polygon fill="#999999" stroke="#666666" points="147.5,-19 1.5,-19 1.5,0 147.5,0 147.5,-19"/>
<text text-anchor="middle" x="74.5" y="-7" font-family="Helvetica,sans-Serif" font-size="10.00">Harlinn::Windows::IconHandle</text>
</a>
</g>
</g>
<!-- Node2 -->
<g id="Node000002" class="node">
<title>Node2</title>
<g id="a_Node000002"><a xlink:href="class_harlinn_1_1_common_1_1_core_1_1_handle.html" target="_top" xlink:title=" ">
<polygon fill="white" stroke="#666666" points="133.5,-97 15.5,-97 15.5,-56 133.5,-56 133.5,-97"/>
<text text-anchor="start" x="23.5" y="-85" font-family="Helvetica,sans-Serif" font-size="10.00">Harlinn::Common::Core</text>
<text text-anchor="start" x="23.5" y="-74" font-family="Helvetica,sans-Serif" font-size="10.00">::Handle&lt; IconHandle,</text>
<text text-anchor="middle" x="74.5" y="-63" font-family="Helvetica,sans-Serif" font-size="10.00"> HICON &gt;</text>
</a>
</g>
</g>
<!-- Node2&#45;&gt;Node1 -->
<g id="edge1_Node000001_Node000002" class="edge">
<title>Node2&#45;&gt;Node1</title>
<g id="a_edge1_Node000001_Node000002"><a xlink:title=" ">
<path fill="none" stroke="#63b8ff" d="M74.5,-44.36C74.5,-35.21 74.5,-25.93 74.5,-19.4"/>
<polygon fill="#63b8ff" stroke="#63b8ff" points="71,-44.13 74.5,-54.13 78,-44.13 71,-44.13"/>
</a>
</g>
</g>
<!-- Node3 -->
<g id="Node000003" class="node">
<title>Node3</title>
<g id="a_Node000003"><a xlink:href="class_harlinn_1_1_common_1_1_core_1_1_handle.html" target="_top" xlink:title=" ">
<polygon fill="white" stroke="#666666" points="149,-174 0,-174 0,-144 149,-144 149,-174"/>
<text text-anchor="start" x="8" y="-162" font-family="Helvetica,sans-Serif" font-size="10.00">Harlinn::Common::Core</text>
<text text-anchor="middle" x="74.5" y="-151" font-family="Helvetica,sans-Serif" font-size="10.00">::Handle&lt; DerivedT, HandleT &gt;</text>
</a>
</g>
</g>
<!-- Node3&#45;&gt;Node2 -->
<g id="edge2_Node000002_Node000003" class="edge">
<title>Node3&#45;&gt;Node2</title>
<g id="a_edge2_Node000002_Node000003"><a xlink:title=" ">
<path fill="none" stroke="orange" stroke-dasharray="5,2" d="M74.5,-132.2C74.5,-120.86 74.5,-107.75 74.5,-97.21"/>
<polygon fill="orange" stroke="orange" points="71,-132.09 74.5,-142.09 78,-132.09 71,-132.09"/>
</a>
</g>
<text text-anchor="middle" x="127.5" y="-118" font-family="Helvetica,sans-Serif" font-size="10.00" fill="grey"> &lt; IconHandle, HICON &gt;</text>
</g>
</g>
</svg>
