<?xml version="1.0" encoding="UTF-8" standalone="no"?>
<!DOCTYPE svg PUBLIC "-//W3C//DTD SVG 1.1//EN"
 "http://www.w3.org/Graphics/SVG/1.1/DTD/svg11.dtd">
<!-- Generated by graphviz version 7.0.1 (20221109.1506)
 -->
<!-- Title: Harlinn::Windows::MF::PacketCrossOffsets Pages: 1 -->
<svg width="130pt" height="182pt"
 viewBox="0.00 0.00 130.00 182.00" xmlns="http://www.w3.org/2000/svg" xmlns:xlink="http://www.w3.org/1999/xlink">
<g id="graph0" class="graph" transform="scale(1 1) rotate(0) translate(4 178)">
<title>Harlinn::Windows::MF::PacketCrossOffsets</title>
<!-- Node1 -->
<g id="Node000001" class="node">
<title>Node1</title>
<g id="a_Node000001"><a xlink:title=" ">
<polygon fill="#999999" stroke="#666666" points="117.5,-30 4.5,-30 4.5,0 117.5,0 117.5,-30"/>
<text text-anchor="start" x="12.5" y="-18" font-family="Helvetica,sans-Serif" font-size="10.00">Harlinn::Windows::MF</text>
<text text-anchor="middle" x="61" y="-7" font-family="Helvetica,sans-Serif" font-size="10.00">::PacketCrossOffsets</text>
</a>
</g>
</g>
<!-- Node2 -->
<g id="Node000002" class="node">
<title>Node2</title>
<g id="a_Node000002"><a xlink:href="class_harlinn_1_1_windows_1_1_m_f_1_1_blob_value.xhtml" target="_top" xlink:title=" ">
<polygon fill="white" stroke="#666666" points="122,-97 0,-97 0,-67 122,-67 122,-97"/>
<text text-anchor="start" x="8" y="-85" font-family="Helvetica,sans-Serif" font-size="10.00">Harlinn::Windows::MF</text>
<text text-anchor="middle" x="61" y="-74" font-family="Helvetica,sans-Serif" font-size="10.00">::BlobValue&lt; DWORD &gt;</text>
</a>
</g>
</g>
<!-- Node2&#45;&gt;Node1 -->
<g id="edge1_Node000001_Node000002" class="edge">
<title>Node2&#45;&gt;Node1</title>
<g id="a_edge1_Node000001_Node000002"><a xlink:title=" ">
<path fill="none" stroke="#63b8ff" d="M61,-55.28C61,-46.81 61,-37.7 61,-30.39"/>
<polygon fill="#63b8ff" stroke="#63b8ff" points="57.5,-55.06 61,-65.06 64.5,-55.06 57.5,-55.06"/>
</a>
</g>
</g>
<!-- Node3 -->
<g id="Node000003" class="node">
<title>Node3</title>
<g id="a_Node000003"><a xlink:href="class_harlinn_1_1_windows_1_1_m_f_1_1_blob_value.xhtml" target="_top" xlink:title=" ">
<polygon fill="white" stroke="#666666" points="117.5,-174 4.5,-174 4.5,-144 117.5,-144 117.5,-174"/>
<text text-anchor="start" x="12.5" y="-162" font-family="Helvetica,sans-Serif" font-size="10.00">Harlinn::Windows::MF</text>
<text text-anchor="middle" x="61" y="-151" font-family="Helvetica,sans-Serif" font-size="10.00">::BlobValue&lt; T &gt;</text>
</a>
</g>
</g>
<!-- Node3&#45;&gt;Node2 -->
<g id="edge2_Node000002_Node000003" class="edge">
<title>Node3&#45;&gt;Node2</title>
<g id="a_edge2_Node000002_Node000003"><a xlink:title=" ">
<path fill="none" stroke="orange" stroke-dasharray="5,2" d="M61,-132.23C61,-120.58 61,-107.26 61,-97.42"/>
<polygon fill="orange" stroke="orange" points="57.5,-132.03 61,-142.03 64.5,-132.03 57.5,-132.03"/>
</a>
</g>
<text text-anchor="middle" x="90.5" y="-118" font-family="Helvetica,sans-Serif" font-size="10.00" fill="grey"> &lt; DWORD &gt;</text>
</g>
</g>
</svg>
