<?xml version="1.0" encoding="UTF-8" standalone="no"?>
<!DOCTYPE svg PUBLIC "-//W3C//DTD SVG 1.1//EN"
 "http://www.w3.org/Graphics/SVG/1.1/DTD/svg11.dtd">
<!-- Generated by graphviz version 7.0.1 (20221109.1506)
 -->
<!-- Title: Harlinn::Windows::Media::MFAttributes Pages: 1 -->
<svg width="620pt" height="518pt"
 viewBox="0.00 0.00 620.00 518.00" xmlns="http://www.w3.org/2000/svg" xmlns:xlink="http://www.w3.org/1999/xlink">
<g id="graph0" class="graph" transform="scale(1 1) rotate(0) translate(4 514)">
<title>Harlinn::Windows::Media::MFAttributes</title>
<!-- Node1 -->
<g id="Node000001" class="node">
<title>Node1</title>
<g id="a_Node000001"><a xlink:title=" ">
<polygon fill="#999999" stroke="#666666" points="279,-270 154,-270 154,-240 279,-240 279,-270"/>
<text text-anchor="start" x="162" y="-258" font-family="Helvetica,sans-Serif" font-size="10.00">Harlinn::Windows::Media</text>
<text text-anchor="middle" x="216.5" y="-247" font-family="Helvetica,sans-Serif" font-size="10.00">::MFAttributes</text>
</a>
</g>
</g>
<!-- Node3 -->
<g id="Node000003" class="node">
<title>Node3</title>
<g id="a_Node000003"><a xlink:href="class_harlinn_1_1_windows_1_1_media_1_1_m_f_activate.html" target="_top" xlink:title="Enables the application to defer the creation of an object. This functionality is exposed by activati...">
<polygon fill="white" stroke="#666666" points="445.5,-510 320.5,-510 320.5,-480 445.5,-480 445.5,-510"/>
<text text-anchor="start" x="328.5" y="-498" font-family="Helvetica,sans-Serif" font-size="10.00">Harlinn::Windows::Media</text>
<text text-anchor="middle" x="383" y="-487" font-family="Helvetica,sans-Serif" font-size="10.00">::MFActivate</text>
</a>
</g>
</g>
<!-- Node1&#45;&gt;Node3 -->
<g id="edge2_Node000001_Node000003" class="edge">
<title>Node1&#45;&gt;Node3</title>
<g id="a_edge2_Node000001_Node000003"><a xlink:title=" ">
<path fill="none" stroke="#63b8ff" d="M222.49,-281.68C232.28,-326.85 258.23,-418.6 315,-471 318.54,-474.27 322.56,-477.1 326.82,-479.55"/>
<polygon fill="#63b8ff" stroke="#63b8ff" points="225.93,-281.06 220.49,-271.97 219.08,-282.47 225.93,-281.06"/>
</a>
</g>
</g>
<!-- Node4 -->
<g id="Node000004" class="node">
<title>Node4</title>
<g id="a_Node000004"><a xlink:href="class_harlinn_1_1_windows_1_1_media_1_1_m_f_media_event.html" target="_top" xlink:title=" ">
<polygon fill="white" stroke="#666666" points="445.5,-462 320.5,-462 320.5,-432 445.5,-432 445.5,-462"/>
<text text-anchor="start" x="328.5" y="-450" font-family="Helvetica,sans-Serif" font-size="10.00">Harlinn::Windows::Media</text>
<text text-anchor="middle" x="383" y="-439" font-family="Helvetica,sans-Serif" font-size="10.00">::MFMediaEvent</text>
</a>
</g>
</g>
<!-- Node1&#45;&gt;Node4 -->
<g id="edge3_Node000001_Node000004" class="edge">
<title>Node1&#45;&gt;Node4</title>
<g id="a_edge3_Node000001_Node000004"><a xlink:title=" ">
<path fill="none" stroke="#63b8ff" d="M226.14,-281.18C239.54,-317.88 268.7,-384.44 315,-423 318.89,-426.24 323.26,-429.06 327.84,-431.51"/>
<polygon fill="#63b8ff" stroke="#63b8ff" points="229.47,-280.08 222.85,-271.81 222.87,-282.41 229.47,-280.08"/>
</a>
</g>
</g>
<!-- Node5 -->
<g id="Node000005" class="node">
<title>Node5</title>
<g id="a_Node000005"><a xlink:href="class_harlinn_1_1_windows_1_1_media_1_1_m_f_media_type.html" target="_top" xlink:title="Represents a description of a media format.">
<polygon fill="white" stroke="#666666" points="445.5,-414 320.5,-414 320.5,-384 445.5,-384 445.5,-414"/>
<text text-anchor="start" x="328.5" y="-402" font-family="Helvetica,sans-Serif" font-size="10.00">Harlinn::Windows::Media</text>
<text text-anchor="middle" x="383" y="-391" font-family="Helvetica,sans-Serif" font-size="10.00">::MFMediaType</text>
</a>
</g>
</g>
<!-- Node1&#45;&gt;Node5 -->
<g id="edge4_Node000001_Node000005" class="edge">
<title>Node1&#45;&gt;Node5</title>
<g id="a_edge4_Node000001_Node000005"><a xlink:title=" ">
<path fill="none" stroke="#63b8ff" d="M231.97,-279.96C248.77,-306.91 278.84,-349.39 315,-375 319.54,-378.21 324.55,-381.04 329.73,-383.51"/>
<polygon fill="#63b8ff" stroke="#63b8ff" points="234.97,-278.16 226.79,-271.42 228.99,-281.79 234.97,-278.16"/>
</a>
</g>
</g>
<!-- Node8 -->
<g id="Node000008" class="node">
<title>Node8</title>
<g id="a_Node000008"><a xlink:href="class_harlinn_1_1_windows_1_1_media_1_1_m_f_output_policy.html" target="_top" xlink:title="Encapsulates a usage policy from an input trust authority (ITA). Output trust authorities (OTAs) use ...">
<polygon fill="white" stroke="#666666" points="445.5,-366 320.5,-366 320.5,-336 445.5,-336 445.5,-366"/>
<text text-anchor="start" x="328.5" y="-354" font-family="Helvetica,sans-Serif" font-size="10.00">Harlinn::Windows::Media</text>
<text text-anchor="middle" x="383" y="-343" font-family="Helvetica,sans-Serif" font-size="10.00">::MFOutputPolicy</text>
</a>
</g>
</g>
<!-- Node1&#45;&gt;Node8 -->
<g id="edge7_Node000001_Node000008" class="edge">
<title>Node1&#45;&gt;Node8</title>
<g id="a_edge7_Node000001_Node000008"><a xlink:title=" ">
<path fill="none" stroke="#63b8ff" d="M243.37,-277.39C262.25,-292.88 288.99,-313.13 315,-327 320.89,-330.14 327.27,-333.02 333.68,-335.62"/>
<polygon fill="#63b8ff" stroke="#63b8ff" points="245.85,-274.9 235.93,-271.18 241.37,-280.27 245.85,-274.9"/>
</a>
</g>
</g>
<!-- Node9 -->
<g id="Node000009" class="node">
<title>Node9</title>
<g id="a_Node000009"><a xlink:href="class_harlinn_1_1_windows_1_1_media_1_1_m_f_output_schema.html" target="_top" xlink:title="Encapsulates information about an output protection system and its corresponding configuration data.">
<polygon fill="white" stroke="#666666" points="445.5,-318 320.5,-318 320.5,-288 445.5,-288 445.5,-318"/>
<text text-anchor="start" x="328.5" y="-306" font-family="Helvetica,sans-Serif" font-size="10.00">Harlinn::Windows::Media</text>
<text text-anchor="middle" x="383" y="-295" font-family="Helvetica,sans-Serif" font-size="10.00">::MFOutputSchema</text>
</a>
</g>
</g>
<!-- Node1&#45;&gt;Node9 -->
<g id="edge8_Node000001_Node000009" class="edge">
<title>Node1&#45;&gt;Node9</title>
<g id="a_edge8_Node000001_Node000009"><a xlink:title=" ">
<path fill="none" stroke="#63b8ff" d="M281.24,-273.6C297.08,-278.22 313.89,-283.13 329.14,-287.58"/>
<polygon fill="#63b8ff" stroke="#63b8ff" points="282.49,-270.32 271.91,-270.88 280.53,-277.04 282.49,-270.32"/>
</a>
</g>
</g>
<!-- Node10 -->
<g id="Node000010" class="node">
<title>Node10</title>
<g id="a_Node000010"><a xlink:href="class_harlinn_1_1_windows_1_1_media_1_1_m_f_presentation_descriptor.html" target="_top" xlink:title="Describes the details of a presentation. A presentation is a set of related media streams that share ...">
<polygon fill="white" stroke="#666666" points="451,-270 315,-270 315,-240 451,-240 451,-270"/>
<text text-anchor="start" x="323" y="-258" font-family="Helvetica,sans-Serif" font-size="10.00">Harlinn::Windows::Media</text>
<text text-anchor="middle" x="383" y="-247" font-family="Helvetica,sans-Serif" font-size="10.00">::MFPresentationDescriptor</text>
</a>
</g>
</g>
<!-- Node1&#45;&gt;Node10 -->
<g id="edge9_Node000001_Node000010" class="edge">
<title>Node1&#45;&gt;Node10</title>
<g id="a_edge9_Node000001_Node000010"><a xlink:title=" ">
<path fill="none" stroke="#63b8ff" d="M290.49,-255C298.55,-255 306.72,-255 314.7,-255"/>
<polygon fill="#63b8ff" stroke="#63b8ff" points="290.74,-251.5 280.74,-255 290.74,-258.5 290.74,-251.5"/>
</a>
</g>
</g>
<!-- Node11 -->
<g id="Node000011" class="node">
<title>Node11</title>
<g id="a_Node000011"><a xlink:href="class_harlinn_1_1_windows_1_1_media_1_1_m_f_sample.html" target="_top" xlink:title=" ">
<polygon fill="white" stroke="#666666" points="445.5,-222 320.5,-222 320.5,-192 445.5,-192 445.5,-222"/>
<text text-anchor="start" x="328.5" y="-210" font-family="Helvetica,sans-Serif" font-size="10.00">Harlinn::Windows::Media</text>
<text text-anchor="middle" x="383" y="-199" font-family="Helvetica,sans-Serif" font-size="10.00">::MFSample</text>
</a>
</g>
</g>
<!-- Node1&#45;&gt;Node11 -->
<g id="edge10_Node000001_Node000011" class="edge">
<title>Node1&#45;&gt;Node11</title>
<g id="a_edge10_Node000001_Node000011"><a xlink:title=" ">
<path fill="none" stroke="#63b8ff" d="M281.24,-236.4C297.08,-231.78 313.89,-226.87 329.14,-222.42"/>
<polygon fill="#63b8ff" stroke="#63b8ff" points="280.53,-232.96 271.91,-239.12 282.49,-239.68 280.53,-232.96"/>
</a>
</g>
</g>
<!-- Node12 -->
<g id="Node000012" class="node">
<title>Node12</title>
<g id="a_Node000012"><a xlink:href="class_harlinn_1_1_windows_1_1_media_1_1_m_f_sensor_stream.html" target="_top" xlink:title="Provides methods for cloning and querying the properties of a sensor stream.">
<polygon fill="white" stroke="#666666" points="445.5,-174 320.5,-174 320.5,-144 445.5,-144 445.5,-174"/>
<text text-anchor="start" x="328.5" y="-162" font-family="Helvetica,sans-Serif" font-size="10.00">Harlinn::Windows::Media</text>
<text text-anchor="middle" x="383" y="-151" font-family="Helvetica,sans-Serif" font-size="10.00">::MFSensorStream</text>
</a>
</g>
</g>
<!-- Node1&#45;&gt;Node12 -->
<g id="edge11_Node000001_Node000012" class="edge">
<title>Node1&#45;&gt;Node12</title>
<g id="a_edge11_Node000001_Node000012"><a xlink:title=" ">
<path fill="none" stroke="#63b8ff" d="M243.37,-232.61C262.25,-217.12 288.99,-196.87 315,-183 320.89,-179.86 327.27,-176.98 333.68,-174.38"/>
<polygon fill="#63b8ff" stroke="#63b8ff" points="241.37,-229.73 235.93,-238.82 245.85,-235.1 241.37,-229.73"/>
</a>
</g>
</g>
<!-- Node13 -->
<g id="Node000013" class="node">
<title>Node13</title>
<g id="a_Node000013"><a xlink:href="class_harlinn_1_1_windows_1_1_media_1_1_m_f_stream_descriptor.html" target="_top" xlink:title="Gets information about one stream in a media source.">
<polygon fill="white" stroke="#666666" points="445.5,-126 320.5,-126 320.5,-96 445.5,-96 445.5,-126"/>
<text text-anchor="start" x="328.5" y="-114" font-family="Helvetica,sans-Serif" font-size="10.00">Harlinn::Windows::Media</text>
<text text-anchor="middle" x="383" y="-103" font-family="Helvetica,sans-Serif" font-size="10.00">::MFStreamDescriptor</text>
</a>
</g>
</g>
<!-- Node1&#45;&gt;Node13 -->
<g id="edge12_Node000001_Node000013" class="edge">
<title>Node1&#45;&gt;Node13</title>
<g id="a_edge12_Node000001_Node000013"><a xlink:title=" ">
<path fill="none" stroke="#63b8ff" d="M231.97,-230.04C248.77,-203.09 278.84,-160.61 315,-135 319.54,-131.79 324.55,-128.96 329.73,-126.49"/>
<polygon fill="#63b8ff" stroke="#63b8ff" points="228.99,-228.21 226.79,-238.58 234.97,-231.84 228.99,-228.21"/>
</a>
</g>
</g>
<!-- Node14 -->
<g id="Node000014" class="node">
<title>Node14</title>
<g id="a_Node000014"><a xlink:href="class_harlinn_1_1_windows_1_1_media_1_1_m_f_topology.html" target="_top" xlink:title="Represents a topology. A topology describes a collection of media sources, sinks, and transforms that...">
<polygon fill="white" stroke="#666666" points="445.5,-78 320.5,-78 320.5,-48 445.5,-48 445.5,-78"/>
<text text-anchor="start" x="328.5" y="-66" font-family="Helvetica,sans-Serif" font-size="10.00">Harlinn::Windows::Media</text>
<text text-anchor="middle" x="383" y="-55" font-family="Helvetica,sans-Serif" font-size="10.00">::MFTopology</text>
</a>
</g>
</g>
<!-- Node1&#45;&gt;Node14 -->
<g id="edge13_Node000001_Node000014" class="edge">
<title>Node1&#45;&gt;Node14</title>
<g id="a_edge13_Node000001_Node000014"><a xlink:title=" ">
<path fill="none" stroke="#63b8ff" d="M226.14,-228.82C239.54,-192.12 268.7,-125.56 315,-87 318.89,-83.76 323.26,-80.94 327.84,-78.49"/>
<polygon fill="#63b8ff" stroke="#63b8ff" points="222.87,-227.59 222.85,-238.19 229.47,-229.92 222.87,-227.59"/>
</a>
</g>
</g>
<!-- Node15 -->
<g id="Node000015" class="node">
<title>Node15</title>
<g id="a_Node000015"><a xlink:href="class_harlinn_1_1_windows_1_1_media_1_1_m_f_topology_node.html" target="_top" xlink:title="Represents a node in a topology. The following node types are supported:">
<polygon fill="white" stroke="#666666" points="445.5,-30 320.5,-30 320.5,0 445.5,0 445.5,-30"/>
<text text-anchor="start" x="328.5" y="-18" font-family="Helvetica,sans-Serif" font-size="10.00">Harlinn::Windows::Media</text>
<text text-anchor="middle" x="383" y="-7" font-family="Helvetica,sans-Serif" font-size="10.00">::MFTopologyNode</text>
</a>
</g>
</g>
<!-- Node1&#45;&gt;Node15 -->
<g id="edge14_Node000001_Node000015" class="edge">
<title>Node1&#45;&gt;Node15</title>
<g id="a_edge14_Node000001_Node000015"><a xlink:title=" ">
<path fill="none" stroke="#63b8ff" d="M222.49,-228.32C232.28,-183.15 258.23,-91.4 315,-39 318.54,-35.73 322.56,-32.9 326.82,-30.45"/>
<polygon fill="#63b8ff" stroke="#63b8ff" points="219.08,-227.53 220.49,-238.03 225.93,-228.94 219.08,-227.53"/>
</a>
</g>
</g>
<!-- Node2 -->
<g id="Node000002" class="node">
<title>Node2</title>
<g id="a_Node000002"><a xlink:href="class_harlinn_1_1_common_1_1_core_1_1_unknown.html" target="_top" xlink:title=" ">
<polygon fill="white" stroke="#666666" points="118,-270 0,-270 0,-240 118,-240 118,-270"/>
<text text-anchor="start" x="8" y="-258" font-family="Helvetica,sans-Serif" font-size="10.00">Harlinn::Common::Core</text>
<text text-anchor="middle" x="59" y="-247" font-family="Helvetica,sans-Serif" font-size="10.00">::Unknown</text>
</a>
</g>
</g>
<!-- Node2&#45;&gt;Node1 -->
<g id="edge1_Node000001_Node000002" class="edge">
<title>Node2&#45;&gt;Node1</title>
<g id="a_edge1_Node000001_Node000002"><a xlink:title=" ">
<path fill="none" stroke="#63b8ff" d="M129.59,-255C137.63,-255 145.79,-255 153.71,-255"/>
<polygon fill="#63b8ff" stroke="#63b8ff" points="129.86,-251.5 119.86,-255 129.86,-258.5 129.86,-251.5"/>
</a>
</g>
</g>
<!-- Node6 -->
<g id="Node000006" class="node">
<title>Node6</title>
<g id="a_Node000006"><a xlink:href="class_harlinn_1_1_windows_1_1_media_1_1_m_f_audio_media_type.html" target="_top" xlink:title=" ">
<polygon fill="white" stroke="#666666" points="612,-438 487,-438 487,-408 612,-408 612,-438"/>
<text text-anchor="start" x="495" y="-426" font-family="Helvetica,sans-Serif" font-size="10.00">Harlinn::Windows::Media</text>
<text text-anchor="middle" x="549.5" y="-415" font-family="Helvetica,sans-Serif" font-size="10.00">::MFAudioMediaType</text>
</a>
</g>
</g>
<!-- Node5&#45;&gt;Node6 -->
<g id="edge5_Node000005_Node000006" class="edge">
<title>Node5&#45;&gt;Node6</title>
<g id="a_edge5_Node000005_Node000006"><a xlink:title=" ">
<path fill="none" stroke="#63b8ff" d="M456.86,-409.63C466.82,-411.08 476.97,-412.56 486.71,-413.98"/>
<polygon fill="#63b8ff" stroke="#63b8ff" points="457.62,-406.2 447.22,-408.22 456.61,-413.13 457.62,-406.2"/>
</a>
</g>
</g>
<!-- Node7 -->
<g id="Node000007" class="node">
<title>Node7</title>
<g id="a_Node000007"><a xlink:href="class_harlinn_1_1_windows_1_1_media_1_1_m_f_video_media_type.html" target="_top" xlink:title="Represents a description of a video format.">
<polygon fill="white" stroke="#666666" points="612,-390 487,-390 487,-360 612,-360 612,-390"/>
<text text-anchor="start" x="495" y="-378" font-family="Helvetica,sans-Serif" font-size="10.00">Harlinn::Windows::Media</text>
<text text-anchor="middle" x="549.5" y="-367" font-family="Helvetica,sans-Serif" font-size="10.00">::MFVideoMediaType</text>
</a>
</g>
</g>
<!-- Node5&#45;&gt;Node7 -->
<g id="edge6_Node000005_Node000007" class="edge">
<title>Node5&#45;&gt;Node7</title>
<g id="a_edge6_Node000005_Node000007"><a xlink:title=" ">
<path fill="none" stroke="#63b8ff" d="M456.86,-388.37C466.82,-386.92 476.97,-385.44 486.71,-384.02"/>
<polygon fill="#63b8ff" stroke="#63b8ff" points="456.61,-384.87 447.22,-389.78 457.62,-391.8 456.61,-384.87"/>
</a>
</g>
</g>
</g>
</svg>
