<?xml version="1.0" encoding="UTF-8" standalone="no"?>
<!DOCTYPE svg PUBLIC "-//W3C//DTD SVG 1.1//EN"
 "http://www.w3.org/Graphics/SVG/1.1/DTD/svg11.dtd">
<!-- Generated by graphviz version 7.0.1 (20221109.1506)
 -->
<!-- Title: Harlinn::Common::Core::Services::DebugServiceHost Pages: 1 -->
<svg width="1724pt" height="365pt"
 viewBox="0.00 0.00 1724.00 364.88" xmlns="http://www.w3.org/2000/svg" xmlns:xlink="http://www.w3.org/1999/xlink">
<g id="graph0" class="graph" transform="scale(1 1) rotate(0) translate(4 360.88)">
<title>Harlinn::Common::Core::Services::DebugServiceHost</title>
<!-- Node1 -->
<g id="Node000001" class="node">
<title>Node1</title>
<g id="a_Node000001"><a xlink:title=" ">
<polygon fill="#999999" stroke="#666666" points="1716,-188.88 1571,-188.88 1571,-158.88 1716,-158.88 1716,-188.88"/>
<text text-anchor="start" x="1579" y="-176.88" font-family="Helvetica,sans-Serif" font-size="10.00">Harlinn::Common::Core</text>
<text text-anchor="middle" x="1643.5" y="-165.88" font-family="Helvetica,sans-Serif" font-size="10.00">::Services::DebugServiceHost</text>
</a>
</g>
</g>
<!-- Node2 -->
<g id="Node000002" class="node">
<title>Node2</title>
<g id="a_Node000002"><a xlink:href="class_harlinn_1_1_common_1_1_core_1_1_services_1_1_i_service_host.html" target="_top" xlink:title=" ">
<polygon fill="white" stroke="#666666" points="1441,-253.88 1322,-253.88 1322,-223.88 1441,-223.88 1441,-253.88"/>
<text text-anchor="start" x="1330" y="-241.88" font-family="Helvetica,sans-Serif" font-size="10.00">Harlinn::Common::Core</text>
<text text-anchor="middle" x="1381.5" y="-230.88" font-family="Helvetica,sans-Serif" font-size="10.00">::Services::IServiceHost</text>
</a>
</g>
</g>
<!-- Node2&#45;&gt;Node1 -->
<g id="edge1_Node000001_Node000002" class="edge">
<title>Node2&#45;&gt;Node1</title>
<g id="a_edge1_Node000001_Node000002"><a xlink:title=" ">
<path fill="none" stroke="#63b8ff" d="M1452.49,-221.38C1492.43,-211.39 1542.05,-198.99 1580.57,-189.36"/>
<polygon fill="#63b8ff" stroke="#63b8ff" points="1451.82,-217.94 1442.97,-223.76 1453.52,-224.73 1451.82,-217.94"/>
</a>
</g>
</g>
<!-- Node3 -->
<g id="Node000003" class="node">
<title>Node3</title>
<g id="a_Node000003"><a xlink:title=" ">
<polygon fill="white" stroke="#666666" points="1452,-205.38 1311,-205.38 1311,-142.38 1452,-142.38 1452,-205.38"/>
<text text-anchor="start" x="1319" y="-193.38" font-family="Helvetica,sans-Serif" font-size="10.00">std::map&lt; Harlinn::</text>
<text text-anchor="start" x="1319" y="-182.38" font-family="Helvetica,sans-Serif" font-size="10.00">Common::Core::BasicString,</text>
<text text-anchor="start" x="1319" y="-171.38" font-family="Helvetica,sans-Serif" font-size="10.00"> std::unique_ptr&lt; Harlinn</text>
<text text-anchor="start" x="1319" y="-160.38" font-family="Helvetica,sans-Serif" font-size="10.00">::Common::Core::Services::</text>
<text text-anchor="middle" x="1381.5" y="-149.38" font-family="Helvetica,sans-Serif" font-size="10.00">Internal::ServiceEntry &gt; &gt;</text>
</a>
</g>
</g>
<!-- Node3&#45;&gt;Node1 -->
<g id="edge2_Node000001_Node000003" class="edge">
<title>Node3&#45;&gt;Node1</title>
<g id="a_edge2_Node000001_Node000003"><a xlink:title=" ">
<path fill="none" stroke="#9a32cd" stroke-dasharray="5,2" d="M1463.6,-173.88C1497.93,-173.88 1537.58,-173.88 1570.82,-173.88"/>
<polygon fill="#9a32cd" stroke="#9a32cd" points="1463.69,-170.38 1453.69,-173.88 1463.69,-177.38 1463.69,-170.38"/>
</a>
</g>
<text text-anchor="middle" x="1511.5" y="-176.88" font-family="Helvetica,sans-Serif" font-size="10.00" fill="grey"> serviceNameMap_</text>
</g>
<!-- Node4 -->
<g id="Node000004" class="node">
<title>Node4</title>
<g id="a_Node000004"><a xlink:href="class_harlinn_1_1_common_1_1_core_1_1_basic_string.html" target="_top" xlink:title="This is a reference counted string class.">
<polygon fill="white" stroke="#666666" points="484,-326.88 366,-326.88 366,-296.88 484,-296.88 484,-326.88"/>
<text text-anchor="start" x="374" y="-314.88" font-family="Helvetica,sans-Serif" font-size="10.00">Harlinn::Common::Core</text>
<text text-anchor="middle" x="425" y="-303.88" font-family="Helvetica,sans-Serif" font-size="10.00">::BasicString&lt; T &gt;</text>
</a>
</g>
</g>
<!-- Node4&#45;&gt;Node3 -->
<g id="edge3_Node000003_Node000004" class="edge">
<title>Node4&#45;&gt;Node3</title>
<g id="a_edge3_Node000003_Node000004"><a xlink:title=" ">
<path fill="none" stroke="#9a32cd" stroke-dasharray="5,2" d="M495.44,-327.89C539.59,-336.71 598.1,-345.88 650.5,-345.88 650.5,-345.88 650.5,-345.88 1167.5,-345.88 1253.86,-345.88 1241.55,-266.2 1311,-214.88 1315.17,-211.79 1319.58,-208.75 1324.09,-205.79"/>
<polygon fill="#9a32cd" stroke="#9a32cd" points="496.23,-324.48 485.73,-325.91 494.83,-331.34 496.23,-324.48"/>
</a>
</g>
<text text-anchor="middle" x="891" y="-348.88" font-family="Helvetica,sans-Serif" font-size="10.00" fill="grey"> keys</text>
</g>
<!-- Node9 -->
<g id="Node000009" class="node">
<title>Node9</title>
<g id="a_Node000009"><a xlink:href="class_harlinn_1_1_common_1_1_core_1_1_basic_string.html" target="_top" xlink:title=" ">
<polygon fill="white" stroke="#666666" points="714,-281.88 589,-281.88 589,-251.88 714,-251.88 714,-281.88"/>
<text text-anchor="start" x="597" y="-269.88" font-family="Helvetica,sans-Serif" font-size="10.00">Harlinn::Common::Core</text>
<text text-anchor="middle" x="651.5" y="-258.88" font-family="Helvetica,sans-Serif" font-size="10.00">::BasicString&lt; wchar_t &gt;</text>
</a>
</g>
</g>
<!-- Node4&#45;&gt;Node9 -->
<g id="edge10_Node000009_Node000004" class="edge">
<title>Node4&#45;&gt;Node9</title>
<g id="a_edge10_Node000009_Node000004"><a xlink:title=" ">
<path fill="none" stroke="orange" stroke-dasharray="5,2" d="M495.66,-307.22C515.61,-305.13 537.29,-302.15 557,-297.88 574.88,-294 594.15,-287.95 610.52,-282.22"/>
<polygon fill="orange" stroke="orange" points="495.58,-303.71 485.97,-308.17 496.27,-310.68 495.58,-303.71"/>
</a>
</g>
<text text-anchor="middle" x="529.5" y="-308.88" font-family="Helvetica,sans-Serif" font-size="10.00" fill="grey"> &lt; wchar_t &gt;</text>
</g>
<!-- Node12 -->
<g id="Node000012" class="node">
<title>Node12</title>
<g id="a_Node000012"><a xlink:title=" ">
<polygon fill="white" stroke="#666666" points="728,-233.88 575,-233.88 575,-203.88 728,-203.88 728,-233.88"/>
<text text-anchor="start" x="583" y="-221.88" font-family="Helvetica,sans-Serif" font-size="10.00">std::vector&lt; Harlinn</text>
<text text-anchor="middle" x="651.5" y="-210.88" font-family="Helvetica,sans-Serif" font-size="10.00">::Common::Core::BasicString &gt;</text>
</a>
</g>
</g>
<!-- Node4&#45;&gt;Node12 -->
<g id="edge14_Node000012_Node000004" class="edge">
<title>Node4&#45;&gt;Node12</title>
<g id="a_edge14_Node000012_Node000004"><a xlink:title=" ">
<path fill="none" stroke="#9a32cd" stroke-dasharray="5,2" d="M466.3,-291.53C495.94,-276.98 537.45,-257.47 575,-242.88 582.69,-239.89 590.93,-236.98 599.02,-234.28"/>
<polygon fill="#9a32cd" stroke="#9a32cd" points="465.1,-288.22 457.69,-295.79 468.2,-294.49 465.1,-288.22"/>
</a>
</g>
<text text-anchor="middle" x="529.5" y="-275.88" font-family="Helvetica,sans-Serif" font-size="10.00" fill="grey"> elements</text>
</g>
<!-- Node5 -->
<g id="Node000005" class="node">
<title>Node5</title>
<g id="a_Node000005"><a xlink:href="struct_harlinn_1_1_common_1_1_core_1_1_internal_1_1_data.html" target="_top" xlink:title=" ">
<polygon fill="white" stroke="#666666" points="226,-267.88 108,-267.88 108,-237.88 226,-237.88 226,-267.88"/>
<text text-anchor="start" x="116" y="-255.88" font-family="Helvetica,sans-Serif" font-size="10.00">Harlinn::Common::Core</text>
<text text-anchor="middle" x="167" y="-244.88" font-family="Helvetica,sans-Serif" font-size="10.00">::Internal::Data&lt; T &gt;</text>
</a>
</g>
</g>
<!-- Node5&#45;&gt;Node4 -->
<g id="edge4_Node000004_Node000005" class="edge">
<title>Node5&#45;&gt;Node4</title>
<g id="a_edge4_Node000004_Node000005"><a xlink:title=" ">
<path fill="none" stroke="#9a32cd" stroke-dasharray="5,2" d="M237.47,-268.89C277.69,-278.15 327.72,-289.69 365.84,-298.47"/>
<polygon fill="#9a32cd" stroke="#9a32cd" points="238.42,-265.51 227.89,-266.68 236.84,-272.33 238.42,-265.51"/>
</a>
</g>
<text text-anchor="middle" x="296" y="-294.88" font-family="Helvetica,sans-Serif" font-size="10.00" fill="grey"> data_</text>
</g>
<!-- Node5&#45;&gt;Node9 -->
<g id="edge9_Node000009_Node000005" class="edge">
<title>Node5&#45;&gt;Node9</title>
<g id="a_edge9_Node000009_Node000005"><a xlink:title=" ">
<path fill="none" stroke="#9a32cd" stroke-dasharray="5,2" d="M237.6,-254.89C331.86,-257.63 498.61,-262.47 588.67,-265.08"/>
<polygon fill="#9a32cd" stroke="#9a32cd" points="237.81,-251.4 227.71,-254.61 237.61,-258.4 237.81,-251.4"/>
</a>
</g>
<text text-anchor="middle" x="425" y="-264.88" font-family="Helvetica,sans-Serif" font-size="10.00" fill="grey"> data_</text>
</g>
<!-- Node6 -->
<g id="Node000006" class="node">
<title>Node6</title>
<g id="a_Node000006"><a xlink:title=" ">
<polygon fill="white" stroke="#666666" points="29,-132.38 0,-132.38 0,-113.38 29,-113.38 29,-132.38"/>
<text text-anchor="middle" x="14.5" y="-120.38" font-family="Helvetica,sans-Serif" font-size="10.00">T</text>
</a>
</g>
</g>
<!-- Node6&#45;&gt;Node5 -->
<g id="edge5_Node000005_Node000006" class="edge">
<title>Node6&#45;&gt;Node5</title>
<g id="a_edge5_Node000005_Node000006"><a xlink:title=" ">
<path fill="none" stroke="#9a32cd" stroke-dasharray="5,2" d="M29.56,-141.48C34.75,-147.9 40.87,-154.95 47,-160.88 77.98,-190.82 118.46,-220.38 143.32,-237.62"/>
<polygon fill="#9a32cd" stroke="#9a32cd" points="32.57,-139.66 23.65,-133.94 27.06,-143.97 32.57,-139.66"/>
</a>
</g>
<text text-anchor="middle" x="68.5" y="-199.88" font-family="Helvetica,sans-Serif" font-size="10.00" fill="grey"> buffer_</text>
</g>
<!-- Node13 -->
<g id="Node000013" class="node">
<title>Node13</title>
<g id="a_Node000013"><a xlink:title=" ">
<polygon fill="white" stroke="#666666" points="338.5,-156.38 253.5,-156.38 253.5,-137.38 338.5,-137.38 338.5,-156.38"/>
<text text-anchor="middle" x="296" y="-144.38" font-family="Helvetica,sans-Serif" font-size="10.00">std::vector&lt; T &gt;</text>
</a>
</g>
</g>
<!-- Node6&#45;&gt;Node13 -->
<g id="edge16_Node000013_Node000006" class="edge">
<title>Node6&#45;&gt;Node13</title>
<g id="a_edge16_Node000013_Node000006"><a xlink:title=" ">
<path fill="none" stroke="#9a32cd" stroke-dasharray="5,2" d="M40.53,-125.02C88.58,-129.15 194.2,-138.22 253.14,-143.28"/>
<polygon fill="#9a32cd" stroke="#9a32cd" points="41.13,-121.56 30.87,-124.19 40.53,-128.54 41.13,-121.56"/>
</a>
</g>
<text text-anchor="middle" x="68.5" y="-132.88" font-family="Helvetica,sans-Serif" font-size="10.00" fill="grey"> elements</text>
</g>
<!-- Node14 -->
<g id="Node000014" class="node">
<title>Node14</title>
<g id="a_Node000014"><a xlink:title=" ">
<polygon fill="white" stroke="#666666" points="348,-112.38 244,-112.38 244,-93.38 348,-93.38 348,-112.38"/>
<text text-anchor="middle" x="296" y="-100.38" font-family="Helvetica,sans-Serif" font-size="10.00">std::unique_ptr&lt; T &gt;</text>
</a>
</g>
</g>
<!-- Node6&#45;&gt;Node14 -->
<g id="edge18_Node000014_Node000006" class="edge">
<title>Node6&#45;&gt;Node14</title>
<g id="a_edge18_Node000014_Node000006"><a xlink:title=" ">
<path fill="none" stroke="#9a32cd" stroke-dasharray="5,2" d="M40.28,-114.34C42.53,-113.76 44.8,-113.26 47,-112.88 114.27,-101.06 193.31,-100.04 243.75,-100.98"/>
<polygon fill="#9a32cd" stroke="#9a32cd" points="39.44,-110.93 30.86,-117.14 41.45,-117.64 39.44,-110.93"/>
</a>
</g>
<text text-anchor="middle" x="68.5" y="-115.88" font-family="Helvetica,sans-Serif" font-size="10.00" fill="grey"> ptr</text>
</g>
<!-- Node15 -->
<g id="Node000015" class="node">
<title>Node15</title>
<g id="a_Node000015"><a xlink:title=" ">
<polygon fill="white" stroke="#666666" points="936.5,-45.38 845.5,-45.38 845.5,-26.38 936.5,-26.38 936.5,-45.38"/>
<text text-anchor="middle" x="891" y="-33.38" font-family="Helvetica,sans-Serif" font-size="10.00">std::map&lt; K, T &gt;</text>
</a>
</g>
</g>
<!-- Node6&#45;&gt;Node15 -->
<g id="edge21_Node000015_Node000006" class="edge">
<title>Node6&#45;&gt;Node15</title>
<g id="a_edge21_Node000015_Node000006"><a xlink:title=" ">
<path fill="none" stroke="#9a32cd" stroke-dasharray="5,2" d="M36.73,-106.3C64.71,-86.17 116.21,-54.88 166,-54.88 166,-54.88 166,-54.88 652.5,-54.88 719.92,-54.88 797.77,-47.17 845.44,-41.58"/>
<polygon fill="#9a32cd" stroke="#9a32cd" points="34.69,-103.46 28.75,-112.23 38.87,-109.07 34.69,-103.46"/>
</a>
</g>
<text text-anchor="middle" x="425" y="-57.88" font-family="Helvetica,sans-Serif" font-size="10.00" fill="grey"> elements</text>
</g>
<!-- Node7 -->
<g id="Node000007" class="node">
<title>Node7</title>
<g id="a_Node000007"><a xlink:title=" ">
<polygon fill="white" stroke="#666666" points="1232,-194.38 1101,-194.38 1101,-153.38 1232,-153.38 1232,-194.38"/>
<text text-anchor="start" x="1109" y="-182.38" font-family="Helvetica,sans-Serif" font-size="10.00">std::unique_ptr&lt; Harlinn</text>
<text text-anchor="start" x="1109" y="-171.38" font-family="Helvetica,sans-Serif" font-size="10.00">::Common::Core::Services</text>
<text text-anchor="middle" x="1166.5" y="-160.38" font-family="Helvetica,sans-Serif" font-size="10.00">::Internal::ServiceEntry &gt;</text>
</a>
</g>
</g>
<!-- Node7&#45;&gt;Node3 -->
<g id="edge6_Node000003_Node000007" class="edge">
<title>Node7&#45;&gt;Node3</title>
<g id="a_edge6_Node000003_Node000007"><a xlink:title=" ">
<path fill="none" stroke="#9a32cd" stroke-dasharray="5,2" d="M1243.55,-173.88C1265.5,-173.88 1289.32,-173.88 1310.85,-173.88"/>
<polygon fill="#9a32cd" stroke="#9a32cd" points="1243.79,-170.38 1233.79,-173.88 1243.79,-177.38 1243.79,-170.38"/>
</a>
</g>
<text text-anchor="middle" x="1271.5" y="-176.88" font-family="Helvetica,sans-Serif" font-size="10.00" fill="grey"> elements</text>
</g>
<!-- Node8 -->
<g id="Node000008" class="node">
<title>Node8</title>
<g id="a_Node000008"><a xlink:href="class_harlinn_1_1_common_1_1_core_1_1_services_1_1_internal_1_1_service_entry.html" target="_top" xlink:title=" ">
<polygon fill="white" stroke="#666666" points="950,-194.38 832,-194.38 832,-153.38 950,-153.38 950,-194.38"/>
<text text-anchor="start" x="840" y="-182.38" font-family="Helvetica,sans-Serif" font-size="10.00">Harlinn::Common::Core</text>
<text text-anchor="start" x="840" y="-171.38" font-family="Helvetica,sans-Serif" font-size="10.00">::Services::Internal</text>
<text text-anchor="middle" x="891" y="-160.38" font-family="Helvetica,sans-Serif" font-size="10.00">::ServiceEntry</text>
</a>
</g>
</g>
<!-- Node8&#45;&gt;Node7 -->
<g id="edge7_Node000007_Node000008" class="edge">
<title>Node8&#45;&gt;Node7</title>
<g id="a_edge7_Node000007_Node000008"><a xlink:title=" ">
<path fill="none" stroke="#9a32cd" stroke-dasharray="5,2" d="M961.77,-173.88C1004.48,-173.88 1058.76,-173.88 1100.55,-173.88"/>
<polygon fill="#9a32cd" stroke="#9a32cd" points="961.85,-170.38 951.85,-173.88 961.85,-177.38 961.85,-170.38"/>
</a>
</g>
<text text-anchor="middle" x="1025.5" y="-176.88" font-family="Helvetica,sans-Serif" font-size="10.00" fill="grey"> ptr</text>
</g>
<!-- Node17 -->
<g id="Node000017" class="node">
<title>Node17</title>
<g id="a_Node000017"><a xlink:title=" ">
<polygon fill="white" stroke="#666666" points="1232,-134.38 1101,-134.38 1101,-93.38 1232,-93.38 1232,-134.38"/>
<text text-anchor="start" x="1109" y="-122.38" font-family="Helvetica,sans-Serif" font-size="10.00">std::map&lt; size_t, Harlinn</text>
<text text-anchor="start" x="1109" y="-111.38" font-family="Helvetica,sans-Serif" font-size="10.00">::Common::Core::Services</text>
<text text-anchor="middle" x="1166.5" y="-100.38" font-family="Helvetica,sans-Serif" font-size="10.00">::Internal::ServiceEntry * &gt;</text>
</a>
</g>
</g>
<!-- Node8&#45;&gt;Node17 -->
<g id="edge23_Node000017_Node000008" class="edge">
<title>Node8&#45;&gt;Node17</title>
<g id="a_edge23_Node000017_Node000008"><a xlink:title=" ">
<path fill="none" stroke="#9a32cd" stroke-dasharray="5,2" d="M961.5,-158.63C1004.25,-149.25 1058.67,-137.31 1100.55,-128.12"/>
<polygon fill="#9a32cd" stroke="#9a32cd" points="960.83,-155.19 951.82,-160.75 962.33,-162.03 960.83,-155.19"/>
</a>
</g>
<text text-anchor="middle" x="1025.5" y="-159.88" font-family="Helvetica,sans-Serif" font-size="10.00" fill="grey"> elements</text>
</g>
<!-- Node9&#45;&gt;Node8 -->
<g id="edge8_Node000008_Node000009" class="edge">
<title>Node9&#45;&gt;Node8</title>
<g id="a_edge8_Node000008_Node000009"><a xlink:title=" ">
<path fill="none" stroke="#9a32cd" stroke-dasharray="5,2" d="M721.91,-248.26C750.86,-239.65 784.53,-228.52 814,-215.88 827.99,-209.87 842.77,-202.07 855.54,-194.82"/>
<polygon fill="#9a32cd" stroke="#9a32cd" points="721.13,-244.84 712.52,-251.01 723.1,-251.56 721.13,-244.84"/>
</a>
</g>
<text text-anchor="middle" x="780" y="-242.88" font-family="Helvetica,sans-Serif" font-size="10.00" fill="grey"> name_</text>
</g>
<!-- Node10 -->
<g id="Node000010" class="node">
<title>Node10</title>
<g id="a_Node000010"><a xlink:href="class_harlinn_1_1_common_1_1_core_1_1_thread.html" target="_top" xlink:title=" ">
<polygon fill="white" stroke="#666666" points="710.5,-185.88 592.5,-185.88 592.5,-155.88 710.5,-155.88 710.5,-185.88"/>
<text text-anchor="start" x="600.5" y="-173.88" font-family="Helvetica,sans-Serif" font-size="10.00">Harlinn::Common::Core</text>
<text text-anchor="middle" x="651.5" y="-162.88" font-family="Helvetica,sans-Serif" font-size="10.00">::Thread</text>
</a>
</g>
</g>
<!-- Node10&#45;&gt;Node8 -->
<g id="edge11_Node000008_Node000010" class="edge">
<title>Node10&#45;&gt;Node8</title>
<g id="a_edge11_Node000008_Node000010"><a xlink:title=" ">
<path fill="none" stroke="#9a32cd" stroke-dasharray="5,2" d="M721.97,-171.75C756.86,-172.19 798.65,-172.72 831.82,-173.14"/>
<polygon fill="#9a32cd" stroke="#9a32cd" points="722.46,-168.26 712.42,-171.63 722.37,-175.26 722.46,-168.26"/>
</a>
</g>
<text text-anchor="middle" x="780" y="-176.88" font-family="Helvetica,sans-Serif" font-size="10.00" fill="grey"> serviceThread_</text>
</g>
<!-- Node11 -->
<g id="Node000011" class="node">
<title>Node11</title>
<g id="a_Node000011"><a xlink:href="class_harlinn_1_1_common_1_1_core_1_1_waitable_handle.html" target="_top" xlink:title=" ">
<polygon fill="white" stroke="#666666" points="484,-216.88 366,-216.88 366,-186.88 484,-186.88 484,-216.88"/>
<text text-anchor="start" x="374" y="-204.88" font-family="Helvetica,sans-Serif" font-size="10.00">Harlinn::Common::Core</text>
<text text-anchor="middle" x="425" y="-193.88" font-family="Helvetica,sans-Serif" font-size="10.00">::WaitableHandle</text>
</a>
</g>
</g>
<!-- Node11&#45;&gt;Node10 -->
<g id="edge12_Node000010_Node000011" class="edge">
<title>Node11&#45;&gt;Node10</title>
<g id="a_edge12_Node000010_Node000011"><a xlink:title=" ">
<path fill="none" stroke="#63b8ff" d="M495.54,-192.27C526.47,-188 562.48,-183.03 592,-178.95"/>
<polygon fill="#63b8ff" stroke="#63b8ff" points="495.33,-188.77 485.9,-193.6 496.28,-195.7 495.33,-188.77"/>
</a>
</g>
</g>
<!-- Node12&#45;&gt;Node8 -->
<g id="edge13_Node000008_Node000012" class="edge">
<title>Node12&#45;&gt;Node8</title>
<g id="a_edge13_Node000008_Node000012"><a xlink:title=" ">
<path fill="none" stroke="#9a32cd" stroke-dasharray="5,2" d="M739.43,-202.91C763.58,-198.43 789.82,-193.51 814,-188.88 819.68,-187.79 825.6,-186.64 831.51,-185.49"/>
<polygon fill="#9a32cd" stroke="#9a32cd" points="738.8,-199.47 729.61,-204.73 740.08,-206.35 738.8,-199.47"/>
</a>
</g>
<text text-anchor="middle" x="780" y="-203.88" font-family="Helvetica,sans-Serif" font-size="10.00" fill="grey"> arguments_</text>
</g>
<!-- Node13&#45;&gt;Node12 -->
<g id="edge15_Node000012_Node000013" class="edge">
<title>Node13&#45;&gt;Node12</title>
<g id="a_edge15_Node000012_Node000013"><a xlink:title=" ">
<path fill="none" stroke="orange" stroke-dasharray="5,2" d="M350.06,-144.45C387.88,-143.92 439.65,-145.66 484,-155.88 526.88,-165.76 533.76,-179.53 575,-194.88 582.86,-197.8 591.27,-200.7 599.5,-203.41"/>
<polygon fill="orange" stroke="orange" points="350.24,-140.95 340.31,-144.65 350.38,-147.94 350.24,-140.95"/>
</a>
</g>
<text text-anchor="start" x="378" y="-169.88" font-family="Helvetica,sans-Serif" font-size="10.00" fill="grey"> &lt; Harlinn::Common::</text>
<text text-anchor="middle" x="425" y="-158.88" font-family="Helvetica,sans-Serif" font-size="10.00" fill="grey">Core::BasicString &gt;</text>
</g>
<!-- Node14&#45;&gt;Node7 -->
<g id="edge17_Node000007_Node000014" class="edge">
<title>Node14&#45;&gt;Node7</title>
<g id="a_edge17_Node000007_Node000014"><a xlink:title=" ">
<path fill="none" stroke="orange" stroke-dasharray="5,2" d="M359.91,-102.04C406.47,-101.49 471.44,-100.88 528.5,-100.88 528.5,-100.88 528.5,-100.88 892,-100.88 977.86,-100.88 1003.52,-97.38 1083,-129.88 1092.13,-133.61 1092.52,-137.83 1101,-142.88 1106.87,-146.37 1113.2,-149.79 1119.51,-153.02"/>
<polygon fill="orange" stroke="orange" points="359.96,-98.54 350,-102.16 360.04,-105.54 359.96,-98.54"/>
</a>
</g>
<text text-anchor="start" x="601" y="-125.88" font-family="Helvetica,sans-Serif" font-size="10.00" fill="grey"> &lt; Harlinn::Common::</text>
<text text-anchor="start" x="601" y="-114.88" font-family="Helvetica,sans-Serif" font-size="10.00" fill="grey">Core::Services::Internal</text>
<text text-anchor="middle" x="651.5" y="-103.88" font-family="Helvetica,sans-Serif" font-size="10.00" fill="grey">::ServiceEntry &gt;</text>
</g>
<!-- Node15&#45;&gt;Node3 -->
<g id="edge19_Node000003_Node000015" class="edge">
<title>Node15&#45;&gt;Node3</title>
<g id="a_edge19_Node000003_Node000015"><a xlink:title=" ">
<path fill="none" stroke="orange" stroke-dasharray="5,2" d="M934.2,-22.96C1001.38,-4.93 1134.95,20.38 1232,-28.88 1285.03,-55.79 1266.06,-97.92 1311,-136.88 1313.07,-138.67 1315.23,-140.4 1317.47,-142.08"/>
<polygon fill="orange" stroke="orange" points="933.39,-19.55 924.69,-25.59 935.26,-26.3 933.39,-19.55"/>
</a>
</g>
<text text-anchor="start" x="1108" y="-75.88" font-family="Helvetica,sans-Serif" font-size="10.00" fill="grey"> &lt; Harlinn::Common::</text>
<text text-anchor="start" x="1108" y="-64.88" font-family="Helvetica,sans-Serif" font-size="10.00" fill="grey">Core::BasicString, std</text>
<text text-anchor="start" x="1108" y="-53.88" font-family="Helvetica,sans-Serif" font-size="10.00" fill="grey">::unique_ptr&lt; Harlinn</text>
<text text-anchor="start" x="1108" y="-42.88" font-family="Helvetica,sans-Serif" font-size="10.00" fill="grey">::Common::Core::Services</text>
<text text-anchor="middle" x="1166.5" y="-31.88" font-family="Helvetica,sans-Serif" font-size="10.00" fill="grey">::Internal::ServiceEntry &gt; &gt;</text>
</g>
<!-- Node15&#45;&gt;Node17 -->
<g id="edge24_Node000017_Node000015" class="edge">
<title>Node15&#45;&gt;Node17</title>
<g id="a_edge24_Node000017_Node000015"><a xlink:title=" ">
<path fill="none" stroke="orange" stroke-dasharray="5,2" d="M948.38,-36.1C996.3,-37.21 1060.77,-41.14 1083,-53.88 1094.88,-60.68 1090.72,-69.83 1101,-78.88 1106.93,-84.1 1113.77,-88.84 1120.73,-93.03"/>
<polygon fill="orange" stroke="orange" points="948.47,-32.6 938.4,-35.91 948.34,-39.6 948.47,-32.6"/>
</a>
</g>
<text text-anchor="start" x="968" y="-78.88" font-family="Helvetica,sans-Serif" font-size="10.00" fill="grey"> &lt; size_t, Harlinn::</text>
<text text-anchor="start" x="968" y="-67.88" font-family="Helvetica,sans-Serif" font-size="10.00" fill="grey">Common::Core::Services</text>
<text text-anchor="middle" x="1025.5" y="-56.88" font-family="Helvetica,sans-Serif" font-size="10.00" fill="grey">::Internal::ServiceEntry * &gt;</text>
</g>
<!-- Node16 -->
<g id="Node000016" class="node">
<title>Node16</title>
<g id="a_Node000016"><a xlink:title=" ">
<polygon fill="white" stroke="#666666" points="666,-26.38 637,-26.38 637,-7.38 666,-7.38 666,-26.38"/>
<text text-anchor="middle" x="651.5" y="-14.38" font-family="Helvetica,sans-Serif" font-size="10.00">K</text>
</a>
</g>
</g>
<!-- Node16&#45;&gt;Node15 -->
<g id="edge20_Node000015_Node000016" class="edge">
<title>Node16&#45;&gt;Node15</title>
<g id="a_edge20_Node000015_Node000016"><a xlink:title=" ">
<path fill="none" stroke="#9a32cd" stroke-dasharray="5,2" d="M677.55,-18.88C717.3,-22.06 795.4,-28.31 845.03,-32.28"/>
<polygon fill="#9a32cd" stroke="#9a32cd" points="678.05,-15.41 667.8,-18.1 677.49,-22.39 678.05,-15.41"/>
</a>
</g>
<text text-anchor="middle" x="780" y="-32.88" font-family="Helvetica,sans-Serif" font-size="10.00" fill="grey"> keys</text>
</g>
<!-- Node17&#45;&gt;Node1 -->
<g id="edge22_Node000001_Node000017" class="edge">
<title>Node17&#45;&gt;Node1</title>
<g id="a_edge22_Node000001_Node000017"><a xlink:title=" ">
<path fill="none" stroke="#9a32cd" stroke-dasharray="5,2" d="M1243.48,-111.12C1301.03,-110.22 1381.89,-111.47 1452,-121.88 1502.87,-129.42 1559.53,-145.98 1597.73,-158.39"/>
<polygon fill="#9a32cd" stroke="#9a32cd" points="1243.73,-107.62 1233.8,-111.3 1243.86,-114.62 1243.73,-107.62"/>
</a>
</g>
<text text-anchor="middle" x="1381.5" y="-124.88" font-family="Helvetica,sans-Serif" font-size="10.00" fill="grey"> serviceHandleMap_</text>
</g>
</g>
</svg>
