<?xml version="1.0" encoding="UTF-8" standalone="no"?>
<!DOCTYPE svg PUBLIC "-//W3C//DTD SVG 1.1//EN"
 "http://www.w3.org/Graphics/SVG/1.1/DTD/svg11.dtd">
<!-- Generated by graphviz version 7.0.1 (20221109.1506)
 -->
<!-- Title: Harlinn.Common.Core.Net.Entities.EntityContextBase&lt; TKind &gt; Pages: 1 -->
<svg width="226pt" height="225pt"
 viewBox="0.00 0.00 226.00 225.00" xmlns="http://www.w3.org/2000/svg" xmlns:xlink="http://www.w3.org/1999/xlink">
<g id="graph0" class="graph" transform="scale(1 1) rotate(0) translate(4 221)">
<title>Harlinn.Common.Core.Net.Entities.EntityContextBase&lt; TKind &gt;</title>
<!-- Node1 -->
<g id="Node000001" class="node">
<title>Node1</title>
<g id="a_Node000001"><a xlink:title=" ">
<polygon fill="#999999" stroke="#666666" points="137.5,-41 3.5,-41 3.5,0 137.5,0 137.5,-41"/>
<text text-anchor="start" x="11.5" y="-29" font-family="Helvetica,sans-Serif" font-size="10.00">Harlinn.Common.Core.Net.</text>
<text text-anchor="start" x="11.5" y="-18" font-family="Helvetica,sans-Serif" font-size="10.00">Entities.EntityContextBase</text>
<text text-anchor="middle" x="70.5" y="-7" font-family="Helvetica,sans-Serif" font-size="10.00">&lt; TKind &gt;</text>
</a>
</g>
</g>
<!-- Node2 -->
<g id="Node000002" class="node">
<title>Node2</title>
<g id="a_Node000002"><a xlink:title=" ">
<polygon fill="white" stroke="#666666" points="67,-118 0,-118 0,-99 67,-99 67,-118"/>
<text text-anchor="middle" x="33.5" y="-106" font-family="Helvetica,sans-Serif" font-size="10.00">IDisposable</text>
</a>
</g>
</g>
<!-- Node2&#45;&gt;Node1 -->
<g id="edge1_Node000001_Node000002" class="edge">
<title>Node2&#45;&gt;Node1</title>
<g id="a_edge1_Node000001_Node000002"><a xlink:title=" ">
<path fill="none" stroke="#63b8ff" d="M41.77,-88.27C47.76,-74.35 55.84,-55.58 61.9,-41.48"/>
<polygon fill="#63b8ff" stroke="#63b8ff" points="38.66,-86.66 37.92,-97.23 45.09,-89.43 38.66,-86.66"/>
</a>
</g>
</g>
<!-- Node3 -->
<g id="Node000003" class="node">
<title>Node3</title>
<g id="a_Node000003"><a xlink:href="interface_harlinn_1_1_common_1_1_core_1_1_net_1_1_data_1_1_i_base_data_factory.xhtml" target="_top" xlink:title=" ">
<polygon fill="white" stroke="#666666" points="218,-129 85,-129 85,-88 218,-88 218,-129"/>
<text text-anchor="start" x="93" y="-117" font-family="Helvetica,sans-Serif" font-size="10.00">Harlinn.Common.Core.Net.</text>
<text text-anchor="start" x="93" y="-106" font-family="Helvetica,sans-Serif" font-size="10.00">Data.IBaseDataFactory</text>
<text text-anchor="middle" x="151.5" y="-95" font-family="Helvetica,sans-Serif" font-size="10.00">&lt; TKind &gt;</text>
</a>
</g>
</g>
<!-- Node3&#45;&gt;Node1 -->
<g id="edge2_Node000001_Node000003" class="edge">
<title>Node3&#45;&gt;Node1</title>
<g id="a_edge2_Node000001_Node000003"><a xlink:title=" ">
<path fill="none" stroke="#9a32cd" stroke-dasharray="5,2" d="M124.96,-79.32C113.26,-66.9 99.8,-52.61 89.18,-41.34"/>
<polygon fill="#9a32cd" stroke="#9a32cd" points="122.27,-81.57 131.68,-86.45 127.37,-76.77 122.27,-81.57"/>
</a>
</g>
<text text-anchor="middle" x="146" y="-62" font-family="Helvetica,sans-Serif" font-size="10.00" fill="grey"> _dataFactory</text>
</g>
<!-- Node4 -->
<g id="Node000004" class="node">
<title>Node4</title>
<g id="a_Node000004"><a xlink:href="interface_harlinn_1_1_common_1_1_core_1_1_net_1_1_data_1_1_i_base_data_factory.xhtml" target="_top" xlink:title=" ">
<polygon fill="white" stroke="#666666" points="218,-217 85,-217 85,-176 218,-176 218,-217"/>
<text text-anchor="start" x="93" y="-205" font-family="Helvetica,sans-Serif" font-size="10.00">Harlinn.Common.Core.Net.</text>
<text text-anchor="start" x="93" y="-194" font-family="Helvetica,sans-Serif" font-size="10.00">Data.IBaseDataFactory</text>
<text text-anchor="middle" x="151.5" y="-183" font-family="Helvetica,sans-Serif" font-size="10.00">&lt; TEnum &gt;</text>
</a>
</g>
</g>
<!-- Node4&#45;&gt;Node3 -->
<g id="edge3_Node000003_Node000004" class="edge">
<title>Node4&#45;&gt;Node3</title>
<g id="a_edge3_Node000003_Node000004"><a xlink:title=" ">
<path fill="none" stroke="orange" stroke-dasharray="5,2" d="M151.5,-164.06C151.5,-152.45 151.5,-139.63 151.5,-129.34"/>
<polygon fill="orange" stroke="orange" points="148,-164.04 151.5,-174.04 155,-164.04 148,-164.04"/>
</a>
</g>
<text text-anchor="middle" x="174.5" y="-150" font-family="Helvetica,sans-Serif" font-size="10.00" fill="grey"> &lt; TKind &gt;</text>
</g>
</g>
</svg>
