<?xml version="1.0" encoding="UTF-8" standalone="no"?>
<!DOCTYPE svg PUBLIC "-//W3C//DTD SVG 1.1//EN"
 "http://www.w3.org/Graphics/SVG/1.1/DTD/svg11.dtd">
<!-- Generated by graphviz version 7.0.1 (20221109.1506)
 -->
<!-- Title: Harlinn::Common::Core::IO::Sockets::Socket Pages: 1 -->
<svg width="610pt" height="238pt"
 viewBox="0.00 0.00 610.00 237.50" xmlns="http://www.w3.org/2000/svg" xmlns:xlink="http://www.w3.org/1999/xlink">
<g id="graph0" class="graph" transform="scale(1 1) rotate(0) translate(4 233.5)">
<title>Harlinn::Common::Core::IO::Sockets::Socket</title>
<!-- Node1 -->
<g id="Node000001" class="node">
<title>Node1</title>
<g id="a_Node000001"><a xlink:title="Represents a socket descriptor that is bound to a specific transport&#45;service provider.">
<polygon fill="#999999" stroke="#666666" points="118,-138 0,-138 0,-108 118,-108 118,-138"/>
<text text-anchor="start" x="8" y="-126" font-family="Helvetica,sans-Serif" font-size="10.00">Harlinn::Common::Core</text>
<text text-anchor="middle" x="59" y="-115" font-family="Helvetica,sans-Serif" font-size="10.00">::IO::Sockets::Socket</text>
</a>
</g>
</g>
<!-- Node2 -->
<g id="Node000002" class="node">
<title>Node2</title>
<g id="a_Node000002"><a xlink:href="class_harlinn_1_1_common_1_1_core_1_1_i_o_1_1_sockets_1_1_socket_t.html" target="_top" xlink:title=" ">
<polygon fill="white" stroke="#666666" points="581,-229.5 463,-229.5 463,-188.5 581,-188.5 581,-229.5"/>
<text text-anchor="start" x="471" y="-217.5" font-family="Helvetica,sans-Serif" font-size="10.00">Harlinn::Common::Core</text>
<text text-anchor="start" x="471" y="-206.5" font-family="Helvetica,sans-Serif" font-size="10.00">::IO::Sockets::SocketT</text>
<text text-anchor="middle" x="522" y="-195.5" font-family="Helvetica,sans-Serif" font-size="10.00">&lt; protocolType &gt;</text>
</a>
</g>
</g>
<!-- Node1&#45;&gt;Node2 -->
<g id="edge1_Node000001_Node000002" class="edge">
<title>Node1&#45;&gt;Node2</title>
<g id="a_edge1_Node000001_Node000002"><a xlink:title=" ">
<path fill="none" stroke="#63b8ff" d="M120.1,-141.74C131.66,-145.23 143.69,-148.79 155,-152 227.49,-172.56 244.64,-182.79 319,-195 367.04,-202.89 422.23,-206.34 462.76,-207.85"/>
<polygon fill="#63b8ff" stroke="#63b8ff" points="121.23,-138.43 110.64,-138.87 119.19,-145.12 121.23,-138.43"/>
</a>
</g>
</g>
<!-- Node3 -->
<g id="Node000003" class="node">
<title>Node3</title>
<g id="a_Node000003"><a xlink:href="class_harlinn_1_1_common_1_1_core_1_1_i_o_1_1_sockets_1_1_socket_t.html" target="_top" xlink:title=" ">
<polygon fill="white" stroke="#666666" points="600.5,-52 443.5,-52 443.5,0 600.5,0 600.5,-52"/>
<text text-anchor="start" x="451.5" y="-40" font-family="Helvetica,sans-Serif" font-size="10.00">Harlinn::Common::Core</text>
<text text-anchor="start" x="451.5" y="-29" font-family="Helvetica,sans-Serif" font-size="10.00">::IO::Sockets::SocketT</text>
<text text-anchor="start" x="451.5" y="-18" font-family="Helvetica,sans-Serif" font-size="10.00">&lt; SocketType::Stream, Protocol</text>
<text text-anchor="middle" x="522" y="-7" font-family="Helvetica,sans-Serif" font-size="10.00">Type::Tcp &gt;</text>
</a>
</g>
</g>
<!-- Node1&#45;&gt;Node3 -->
<g id="edge2_Node000001_Node000003" class="edge">
<title>Node1&#45;&gt;Node3</title>
<g id="a_edge2_Node000001_Node000003"><a xlink:title=" ">
<path fill="none" stroke="#63b8ff" d="M119.04,-104.26C130.94,-100.51 143.36,-96.61 155,-93 227.78,-70.42 244.17,-57.39 319,-43 359.61,-35.19 405.49,-30.97 443.26,-28.69"/>
<polygon fill="#63b8ff" stroke="#63b8ff" points="118.23,-100.84 109.74,-107.19 120.33,-107.52 118.23,-100.84"/>
</a>
</g>
</g>
<!-- Node4 -->
<g id="Node000004" class="node">
<title>Node4</title>
<g id="a_Node000004"><a xlink:href="class_harlinn_1_1_common_1_1_core_1_1_i_o_1_1_sockets_1_1_socket_t.html" target="_top" xlink:title="Specializes a Socket for a particular SocketType and a particular ProtocolType.">
<polygon fill="white" stroke="#666666" points="301,-143.5 155,-143.5 155,-102.5 301,-102.5 301,-143.5"/>
<text text-anchor="start" x="163" y="-131.5" font-family="Helvetica,sans-Serif" font-size="10.00">Harlinn::Common::Core</text>
<text text-anchor="start" x="163" y="-120.5" font-family="Helvetica,sans-Serif" font-size="10.00">::IO::Sockets::SocketT</text>
<text text-anchor="middle" x="228" y="-109.5" font-family="Helvetica,sans-Serif" font-size="10.00">&lt; socketType, protocolType &gt;</text>
</a>
</g>
</g>
<!-- Node1&#45;&gt;Node4 -->
<g id="edge3_Node000001_Node000004" class="edge">
<title>Node1&#45;&gt;Node4</title>
<g id="a_edge3_Node000001_Node000004"><a xlink:title=" ">
<path fill="none" stroke="#63b8ff" d="M129.8,-123C137.97,-123 146.32,-123 154.53,-123"/>
<polygon fill="#63b8ff" stroke="#63b8ff" points="129.92,-119.5 119.92,-123 129.92,-126.5 129.92,-119.5"/>
</a>
</g>
</g>
<!-- Node4&#45;&gt;Node2 -->
<g id="edge6_Node000004_Node000002" class="edge">
<title>Node4&#45;&gt;Node2</title>
<g id="a_edge6_Node000004_Node000002"><a xlink:title=" ">
<path fill="none" stroke="orange" stroke-dasharray="5,2" d="M306.78,-147.31C310.91,-148.57 315,-149.8 319,-151 367.24,-165.43 422.17,-181.15 462.56,-192.59"/>
<polygon fill="orange" stroke="orange" points="307.82,-143.97 297.24,-144.4 305.78,-150.67 307.82,-143.97"/>
</a>
</g>
<text text-anchor="middle" x="371.5" y="-184" font-family="Helvetica,sans-Serif" font-size="10.00" fill="grey"> &lt; protocolType &gt;</text>
</g>
<!-- Node4&#45;&gt;Node3 -->
<g id="edge7_Node000004_Node000003" class="edge">
<title>Node4&#45;&gt;Node3</title>
<g id="a_edge7_Node000004_Node000003"><a xlink:title=" ">
<path fill="none" stroke="orange" stroke-dasharray="5,2" d="M275.52,-96.7C289.24,-89.65 304.47,-82.47 319,-77 358.95,-61.97 404.98,-49.96 443.01,-41.38"/>
<polygon fill="orange" stroke="orange" points="273.93,-93.59 266.71,-101.34 277.19,-99.78 273.93,-93.59"/>
</a>
</g>
<text text-anchor="start" x="319" y="-91" font-family="Helvetica,sans-Serif" font-size="10.00" fill="grey"> &lt; SocketType::Stream,</text>
<text text-anchor="middle" x="371.5" y="-80" font-family="Helvetica,sans-Serif" font-size="10.00" fill="grey"> ProtocolType::Tcp &gt;</text>
</g>
<!-- Node5 -->
<g id="Node000005" class="node">
<title>Node5</title>
<g id="a_Node000005"><a xlink:href="class_harlinn_1_1_common_1_1_core_1_1_i_o_1_1_sockets_1_1_tcp_socket.html" target="_top" xlink:title="Encapsulates a TCP socket descriptor.">
<polygon fill="white" stroke="#666666" points="585.5,-170.5 458.5,-170.5 458.5,-129.5 585.5,-129.5 585.5,-170.5"/>
<text text-anchor="start" x="466.5" y="-158.5" font-family="Helvetica,sans-Serif" font-size="10.00">Harlinn::Common::Core</text>
<text text-anchor="start" x="466.5" y="-147.5" font-family="Helvetica,sans-Serif" font-size="10.00">::IO::Sockets::TcpSocket</text>
<text text-anchor="middle" x="522" y="-136.5" font-family="Helvetica,sans-Serif" font-size="10.00">&lt; ProtocolType::Tcp &gt;</text>
</a>
</g>
</g>
<!-- Node4&#45;&gt;Node5 -->
<g id="edge4_Node000004_Node000005" class="edge">
<title>Node4&#45;&gt;Node5</title>
<g id="a_edge4_Node000004_Node000005"><a xlink:title=" ">
<path fill="none" stroke="#63b8ff" d="M312.42,-130.71C358.76,-135 415.48,-140.24 458.07,-144.18"/>
<polygon fill="#63b8ff" stroke="#63b8ff" points="312.97,-127.25 302.69,-129.81 312.32,-134.22 312.97,-127.25"/>
</a>
</g>
</g>
<!-- Node6 -->
<g id="Node000006" class="node">
<title>Node6</title>
<g id="a_Node000006"><a xlink:href="class_harlinn_1_1_common_1_1_core_1_1_i_o_1_1_sockets_1_1_udp_socket.html" target="_top" xlink:title=" ">
<polygon fill="white" stroke="#666666" points="602,-111.5 442,-111.5 442,-70.5 602,-70.5 602,-111.5"/>
<text text-anchor="start" x="450" y="-99.5" font-family="Helvetica,sans-Serif" font-size="10.00">Harlinn::Common::Core</text>
<text text-anchor="start" x="450" y="-88.5" font-family="Helvetica,sans-Serif" font-size="10.00">::IO::Sockets::UdpSocket</text>
<text text-anchor="middle" x="522" y="-77.5" font-family="Helvetica,sans-Serif" font-size="10.00">&lt; ProtocolType::UserDatagram &gt;</text>
</a>
</g>
</g>
<!-- Node4&#45;&gt;Node6 -->
<g id="edge5_Node000004_Node000006" class="edge">
<title>Node4&#45;&gt;Node6</title>
<g id="a_edge5_Node000004_Node000006"><a xlink:title=" ">
<path fill="none" stroke="#63b8ff" d="M312.41,-113.86C353.04,-109.41 401.64,-104.08 441.7,-99.69"/>
<polygon fill="#63b8ff" stroke="#63b8ff" points="312.24,-110.36 302.68,-114.92 313.01,-117.31 312.24,-110.36"/>
</a>
</g>
</g>
</g>
</svg>
