<?xml version="1.0" encoding="UTF-8" standalone="no"?>
<!DOCTYPE svg PUBLIC "-//W3C//DTD SVG 1.1//EN"
 "http://www.w3.org/Graphics/SVG/1.1/DTD/svg11.dtd">
<!-- Generated by graphviz version 7.0.1 (20221109.1506)
 -->
<!-- Title: Harlinn::Common::Core::Doxygen::ChildNodeType Pages: 1 -->
<svg width="1099pt" height="219pt"
 viewBox="0.00 0.00 1099.00 218.50" xmlns="http://www.w3.org/2000/svg" xmlns:xlink="http://www.w3.org/1999/xlink">
<g id="graph0" class="graph" transform="scale(1 1) rotate(0) translate(4 214.5)">
<title>Harlinn::Common::Core::Doxygen::ChildNodeType</title>
<!-- Node1 -->
<g id="Node000001" class="node">
<title>Node1</title>
<g id="a_Node000001"><a xlink:title=" ">
<polygon fill="#999999" stroke="#666666" points="1091,-114.5 959,-114.5 959,-84.5 1091,-84.5 1091,-114.5"/>
<text text-anchor="start" x="967" y="-102.5" font-family="Helvetica,sans-Serif" font-size="10.00">Harlinn::Common::Core</text>
<text text-anchor="middle" x="1025" y="-91.5" font-family="Helvetica,sans-Serif" font-size="10.00">::Doxygen::ChildNodeType</text>
</a>
</g>
</g>
<!-- Node2 -->
<g id="Node000002" class="node">
<title>Node2</title>
<g id="a_Node000002"><a xlink:href="class_harlinn_1_1_common_1_1_core_1_1_doxygen_1_1_internal_1_1_doc_base.xhtml" target="_top" xlink:title=" ">
<polygon fill="white" stroke="#666666" points="867.5,-185.5 719.5,-185.5 719.5,-133.5 867.5,-133.5 867.5,-185.5"/>
<text text-anchor="start" x="727.5" y="-173.5" font-family="Helvetica,sans-Serif" font-size="10.00">Harlinn::Common::Core</text>
<text text-anchor="start" x="727.5" y="-162.5" font-family="Helvetica,sans-Serif" font-size="10.00">::Doxygen::Internal::</text>
<text text-anchor="start" x="727.5" y="-151.5" font-family="Helvetica,sans-Serif" font-size="10.00">DocBase&lt; Doxygen::DoxType</text>
<text text-anchor="middle" x="793.5" y="-140.5" font-family="Helvetica,sans-Serif" font-size="10.00">::ChildNodeType &gt;</text>
</a>
</g>
</g>
<!-- Node2&#45;&gt;Node1 -->
<g id="edge1_Node000001_Node000002" class="edge">
<title>Node2&#45;&gt;Node1</title>
<g id="a_edge1_Node000001_Node000002"><a xlink:title=" ">
<path fill="none" stroke="#63b8ff" d="M878.57,-137.52C907.2,-130.04 938.58,-121.83 964.84,-114.97"/>
<polygon fill="#63b8ff" stroke="#63b8ff" points="878,-134.05 869.21,-139.97 879.77,-140.82 878,-134.05"/>
</a>
</g>
</g>
<!-- Node3 -->
<g id="Node000003" class="node">
<title>Node3</title>
<g id="a_Node000003"><a xlink:href="class_harlinn_1_1_common_1_1_core_1_1_doxygen_1_1_doc_base_type.xhtml" target="_top" xlink:title=" ">
<polygon fill="white" stroke="#666666" points="347,-210.5 219,-210.5 219,-180.5 347,-180.5 347,-210.5"/>
<text text-anchor="start" x="227" y="-198.5" font-family="Helvetica,sans-Serif" font-size="10.00">Harlinn::Common::Core</text>
<text text-anchor="middle" x="283" y="-187.5" font-family="Helvetica,sans-Serif" font-size="10.00">::Doxygen::DocBaseType</text>
</a>
</g>
</g>
<!-- Node3&#45;&gt;Node2 -->
<g id="edge2_Node000002_Node000003" class="edge">
<title>Node3&#45;&gt;Node2</title>
<g id="a_edge2_Node000002_Node000003"><a xlink:title=" ">
<path fill="none" stroke="#63b8ff" d="M358.78,-199.46C442.27,-202.56 581.15,-203.71 699,-185.5 705.58,-184.48 712.35,-183.16 719.1,-181.65"/>
<polygon fill="#63b8ff" stroke="#63b8ff" points="359.01,-195.97 348.89,-199.08 358.74,-202.97 359.01,-195.97"/>
</a>
</g>
</g>
<!-- Node5 -->
<g id="Node000005" class="node">
<title>Node5</title>
<g id="a_Node000005"><a xlink:href="class_harlinn_1_1_common_1_1_core_1_1_doxygen_1_1_internal_1_1_doc_base.xhtml" target="_top" xlink:title=" ">
<polygon fill="white" stroke="#666666" points="586,-180 468,-180 468,-139 586,-139 586,-180"/>
<text text-anchor="start" x="476" y="-168" font-family="Helvetica,sans-Serif" font-size="10.00">Harlinn::Common::Core</text>
<text text-anchor="start" x="476" y="-157" font-family="Helvetica,sans-Serif" font-size="10.00">::Doxygen::Internal::</text>
<text text-anchor="middle" x="527" y="-146" font-family="Helvetica,sans-Serif" font-size="10.00">DocBase&lt; doxType &gt;</text>
</a>
</g>
</g>
<!-- Node3&#45;&gt;Node5 -->
<g id="edge5_Node000005_Node000003" class="edge">
<title>Node3&#45;&gt;Node5</title>
<g id="a_edge5_Node000005_Node000003"><a xlink:title=" ">
<path fill="none" stroke="#63b8ff" d="M358.43,-184.43C393.56,-179.2 434.86,-173.06 467.67,-168.18"/>
<polygon fill="#63b8ff" stroke="#63b8ff" points="358.14,-180.93 348.76,-185.87 359.17,-187.86 358.14,-180.93"/>
</a>
</g>
</g>
<!-- Node4 -->
<g id="Node000004" class="node">
<title>Node4</title>
<g id="a_Node000004"><a xlink:title=" ">
<polygon fill="white" stroke="#666666" points="140,-210.5 0,-210.5 0,-180.5 140,-180.5 140,-210.5"/>
<text text-anchor="start" x="8" y="-198.5" font-family="Helvetica,sans-Serif" font-size="10.00">std::enable_shared</text>
<text text-anchor="middle" x="70" y="-187.5" font-family="Helvetica,sans-Serif" font-size="10.00">_from_this&lt; DocBaseType &gt;</text>
</a>
</g>
</g>
<!-- Node4&#45;&gt;Node3 -->
<g id="edge3_Node000003_Node000004" class="edge">
<title>Node4&#45;&gt;Node3</title>
<g id="a_edge3_Node000003_Node000004"><a xlink:title=" ">
<path fill="none" stroke="#8b1a1a" d="M151.8,-195.5C173.94,-195.5 197.63,-195.5 218.64,-195.5"/>
<polygon fill="#8b1a1a" stroke="#8b1a1a" points="151.9,-192 141.9,-195.5 151.9,-199 151.9,-192"/>
</a>
</g>
</g>
<!-- Node5&#45;&gt;Node2 -->
<g id="edge4_Node000002_Node000005" class="edge">
<title>Node5&#45;&gt;Node2</title>
<g id="a_edge4_Node000002_Node000005"><a xlink:title=" ">
<path fill="none" stroke="orange" stroke-dasharray="5,2" d="M597.69,-159.5C635.09,-159.5 681.18,-159.5 719.14,-159.5"/>
<polygon fill="orange" stroke="orange" points="597.89,-156 587.89,-159.5 597.89,-163 597.89,-156"/>
</a>
</g>
<text text-anchor="start" x="604" y="-173.5" font-family="Helvetica,sans-Serif" font-size="10.00" fill="grey"> &lt; Doxygen::DoxType</text>
<text text-anchor="middle" x="651.5" y="-162.5" font-family="Helvetica,sans-Serif" font-size="10.00" fill="grey">::ChildNodeType &gt;</text>
</g>
<!-- Node6 -->
<g id="Node000006" class="node">
<title>Node6</title>
<g id="a_Node000006"><a xlink:href="class_harlinn_1_1_common_1_1_core_1_1_basic_string.xhtml" target="_top" xlink:title=" ">
<polygon fill="white" stroke="#666666" points="856,-114.5 731,-114.5 731,-84.5 856,-84.5 856,-114.5"/>
<text text-anchor="start" x="739" y="-102.5" font-family="Helvetica,sans-Serif" font-size="10.00">Harlinn::Common::Core</text>
<text text-anchor="middle" x="793.5" y="-91.5" font-family="Helvetica,sans-Serif" font-size="10.00">::BasicString&lt; wchar_t &gt;</text>
</a>
</g>
</g>
<!-- Node6&#45;&gt;Node1 -->
<g id="edge6_Node000001_Node000006" class="edge">
<title>Node6&#45;&gt;Node1</title>
<g id="a_edge6_Node000001_Node000006"><a xlink:title=" ">
<path fill="none" stroke="#9a32cd" stroke-dasharray="5,2" d="M867.72,-99.5C897,-99.5 930.45,-99.5 958.88,-99.5"/>
<polygon fill="#9a32cd" stroke="#9a32cd" points="867.82,-96 857.82,-99.5 867.82,-103 867.82,-96"/>
</a>
</g>
<text text-anchor="middle" x="914.5" y="-102.5" font-family="Helvetica,sans-Serif" font-size="10.00" fill="grey"> refId_</text>
</g>
<!-- Node7 -->
<g id="Node000007" class="node">
<title>Node7</title>
<g id="a_Node000007"><a xlink:href="struct_harlinn_1_1_common_1_1_core_1_1_internal_1_1_data.xhtml" target="_top" xlink:title=" ">
<polygon fill="white" stroke="#666666" points="342,-73.5 224,-73.5 224,-43.5 342,-43.5 342,-73.5"/>
<text text-anchor="start" x="232" y="-61.5" font-family="Helvetica,sans-Serif" font-size="10.00">Harlinn::Common::Core</text>
<text text-anchor="middle" x="283" y="-50.5" font-family="Helvetica,sans-Serif" font-size="10.00">::Internal::Data&lt; T &gt;</text>
</a>
</g>
</g>
<!-- Node7&#45;&gt;Node6 -->
<g id="edge7_Node000006_Node000007" class="edge">
<title>Node7&#45;&gt;Node6</title>
<g id="a_edge7_Node000006_Node000007"><a xlink:title=" ">
<path fill="none" stroke="#9a32cd" stroke-dasharray="5,2" d="M353.39,-71.78C357.31,-72.39 361.2,-72.97 365,-73.5 470.67,-88.12 497.5,-89.48 604,-95.5 646.32,-97.89 694.06,-98.89 730.91,-99.29"/>
<polygon fill="#9a32cd" stroke="#9a32cd" points="354.23,-68.37 343.79,-70.2 353.09,-75.28 354.23,-68.37"/>
</a>
</g>
<text text-anchor="middle" x="527" y="-96.5" font-family="Helvetica,sans-Serif" font-size="10.00" fill="grey"> data_</text>
</g>
<!-- Node9 -->
<g id="Node000009" class="node">
<title>Node9</title>
<g id="a_Node000009"><a xlink:href="class_harlinn_1_1_common_1_1_core_1_1_basic_string.xhtml" target="_top" xlink:title="This is a reference counted string class.">
<polygon fill="white" stroke="#666666" points="586,-73.5 468,-73.5 468,-43.5 586,-43.5 586,-73.5"/>
<text text-anchor="start" x="476" y="-61.5" font-family="Helvetica,sans-Serif" font-size="10.00">Harlinn::Common::Core</text>
<text text-anchor="middle" x="527" y="-50.5" font-family="Helvetica,sans-Serif" font-size="10.00">::BasicString&lt; T &gt;</text>
</a>
</g>
</g>
<!-- Node7&#45;&gt;Node9 -->
<g id="edge10_Node000009_Node000007" class="edge">
<title>Node7&#45;&gt;Node9</title>
<g id="a_edge10_Node000009_Node000007"><a xlink:title=" ">
<path fill="none" stroke="#9a32cd" stroke-dasharray="5,2" d="M353.72,-58.5C389.87,-58.5 433.5,-58.5 467.81,-58.5"/>
<polygon fill="#9a32cd" stroke="#9a32cd" points="353.79,-55 343.79,-58.5 353.79,-62 353.79,-55"/>
</a>
</g>
<text text-anchor="middle" x="407.5" y="-61.5" font-family="Helvetica,sans-Serif" font-size="10.00" fill="grey"> data_</text>
</g>
<!-- Node8 -->
<g id="Node000008" class="node">
<title>Node8</title>
<g id="a_Node000008"><a xlink:title=" ">
<polygon fill="white" stroke="#666666" points="84.5,-42 55.5,-42 55.5,-23 84.5,-23 84.5,-42"/>
<text text-anchor="middle" x="70" y="-30" font-family="Helvetica,sans-Serif" font-size="10.00">T</text>
</a>
</g>
</g>
<!-- Node8&#45;&gt;Node7 -->
<g id="edge8_Node000007_Node000008" class="edge">
<title>Node8&#45;&gt;Node7</title>
<g id="a_edge8_Node000007_Node000008"><a xlink:title=" ">
<path fill="none" stroke="#9a32cd" stroke-dasharray="5,2" d="M95.98,-35.58C127.22,-39.43 181.72,-46.14 223.68,-51.31"/>
<polygon fill="#9a32cd" stroke="#9a32cd" points="96.7,-32.14 86.35,-34.39 95.84,-39.09 96.7,-32.14"/>
</a>
</g>
<text text-anchor="middle" x="179.5" y="-50.5" font-family="Helvetica,sans-Serif" font-size="10.00" fill="grey"> buffer_</text>
</g>
<!-- Node11 -->
<g id="Node000011" class="node">
<title>Node11</title>
<g id="a_Node000011"><a xlink:title=" ">
<polygon fill="white" stroke="#666666" points="450,-19 365,-19 365,0 450,0 450,-19"/>
<text text-anchor="middle" x="407.5" y="-7" font-family="Helvetica,sans-Serif" font-size="10.00">std::vector&lt; T &gt;</text>
</a>
</g>
</g>
<!-- Node8&#45;&gt;Node11 -->
<g id="edge14_Node000011_Node000008" class="edge">
<title>Node8&#45;&gt;Node11</title>
<g id="a_edge14_Node000011_Node000008"><a xlink:title=" ">
<path fill="none" stroke="#9a32cd" stroke-dasharray="5,2" d="M96.2,-30.77C153.49,-26.85 294.01,-17.21 364.6,-12.37"/>
<polygon fill="#9a32cd" stroke="#9a32cd" points="96.24,-27.26 86.5,-31.44 96.71,-34.25 96.24,-27.26"/>
</a>
</g>
<text text-anchor="middle" x="179.5" y="-28.5" font-family="Helvetica,sans-Serif" font-size="10.00" fill="grey"> elements</text>
</g>
<!-- Node9&#45;&gt;Node6 -->
<g id="edge9_Node000006_Node000009" class="edge">
<title>Node9&#45;&gt;Node6</title>
<g id="a_edge9_Node000006_Node000009"><a xlink:title=" ">
<path fill="none" stroke="orange" stroke-dasharray="5,2" d="M597.36,-68.91C628.45,-73.62 665.57,-79.28 699,-84.5 709.23,-86.1 720.09,-87.82 730.65,-89.5"/>
<polygon fill="orange" stroke="orange" points="598.1,-65.49 587.69,-67.45 597.05,-72.41 598.1,-65.49"/>
</a>
</g>
<text text-anchor="middle" x="651.5" y="-87.5" font-family="Helvetica,sans-Serif" font-size="10.00" fill="grey"> &lt; wchar_t &gt;</text>
</g>
<!-- Node10 -->
<g id="Node000010" class="node">
<title>Node10</title>
<g id="a_Node000010"><a xlink:title=" ">
<polygon fill="white" stroke="#666666" points="870,-64.5 717,-64.5 717,-34.5 870,-34.5 870,-64.5"/>
<text text-anchor="start" x="725" y="-52.5" font-family="Helvetica,sans-Serif" font-size="10.00">std::vector&lt; Harlinn</text>
<text text-anchor="middle" x="793.5" y="-41.5" font-family="Helvetica,sans-Serif" font-size="10.00">::Common::Core::BasicString &gt;</text>
</a>
</g>
</g>
<!-- Node9&#45;&gt;Node10 -->
<g id="edge12_Node000010_Node000009" class="edge">
<title>Node9&#45;&gt;Node10</title>
<g id="a_edge12_Node000010_Node000009"><a xlink:title=" ">
<path fill="none" stroke="#9a32cd" stroke-dasharray="5,2" d="M597.78,-50.88C599.88,-50.74 601.95,-50.61 604,-50.5 641.09,-48.45 682.34,-48.03 716.78,-48.18"/>
<polygon fill="#9a32cd" stroke="#9a32cd" points="597.67,-47.38 587.97,-51.64 598.21,-54.36 597.67,-47.38"/>
</a>
</g>
<text text-anchor="middle" x="651.5" y="-53.5" font-family="Helvetica,sans-Serif" font-size="10.00" fill="grey"> elements</text>
</g>
<!-- Node10&#45;&gt;Node1 -->
<g id="edge11_Node000001_Node000010" class="edge">
<title>Node10&#45;&gt;Node1</title>
<g id="a_edge11_Node000001_Node000010"><a xlink:title=" ">
<path fill="none" stroke="#9a32cd" stroke-dasharray="5,2" d="M876.54,-67.37C903.54,-73.26 933.18,-79.71 958.76,-85.29"/>
<polygon fill="#9a32cd" stroke="#9a32cd" points="877.54,-64.01 867.02,-65.3 876.05,-70.85 877.54,-64.01"/>
</a>
</g>
<text text-anchor="middle" x="914.5" y="-82.5" font-family="Helvetica,sans-Serif" font-size="10.00" fill="grey"> edgeLabel_</text>
</g>
<!-- Node11&#45;&gt;Node10 -->
<g id="edge13_Node000010_Node000011" class="edge">
<title>Node11&#45;&gt;Node10</title>
<g id="a_edge13_Node000010_Node000011"><a xlink:title=" ">
<path fill="none" stroke="orange" stroke-dasharray="5,2" d="M461.7,-8.18C497.03,-7.85 544.38,-8.45 586,-12.5 631.68,-16.95 682.41,-25.98 722.17,-34.01"/>
<polygon fill="orange" stroke="orange" points="461.68,-4.68 451.72,-8.3 461.77,-11.68 461.68,-4.68"/>
</a>
</g>
<text text-anchor="start" x="480" y="-26.5" font-family="Helvetica,sans-Serif" font-size="10.00" fill="grey"> &lt; Harlinn::Common::</text>
<text text-anchor="middle" x="527" y="-15.5" font-family="Helvetica,sans-Serif" font-size="10.00" fill="grey">Core::BasicString &gt;</text>
</g>
</g>
</svg>
