<?xml version="1.0" encoding="UTF-8" standalone="no"?>
<!DOCTYPE svg PUBLIC "-//W3C//DTD SVG 1.1//EN"
 "http://www.w3.org/Graphics/SVG/1.1/DTD/svg11.dtd">
<!-- Generated by graphviz version 7.0.1 (20221109.1506)
 -->
<!-- Title: Harlinn::Windows::Graphics::D3D12::Video::D3D12VideoProcessor Pages: 1 -->
<svg width="200pt" height="357pt"
 viewBox="0.00 0.00 200.00 357.00" xmlns="http://www.w3.org/2000/svg" xmlns:xlink="http://www.w3.org/1999/xlink">
<g id="graph0" class="graph" transform="scale(1 1) rotate(0) translate(4 353)">
<title>Harlinn::Windows::Graphics::D3D12::Video::D3D12VideoProcessor</title>
<!-- Node1 -->
<g id="Node000001" class="node">
<title>Node1</title>
<g id="a_Node000001"><a xlink:title=" ">
<polygon fill="#999999" stroke="#666666" points="189.5,-96 2.5,-96 2.5,-66 189.5,-66 189.5,-96"/>
<text text-anchor="start" x="10.5" y="-84" font-family="Helvetica,sans-Serif" font-size="10.00">Harlinn::Windows::Graphics</text>
<text text-anchor="middle" x="96" y="-73" font-family="Helvetica,sans-Serif" font-size="10.00">::D3D12::Video::D3D12VideoProcessor</text>
</a>
</g>
</g>
<!-- Node6 -->
<g id="Node000006" class="node">
<title>Node6</title>
<g id="a_Node000006"><a xlink:href="class_harlinn_1_1_windows_1_1_graphics_1_1_d3_d12_1_1_video_1_1_d3_d12_video_processor1.html" target="_top" xlink:title="Provides methods for getting information about the parameters to the call to D3D12VideoDevice2::Creat...">
<polygon fill="white" stroke="#666666" points="192,-30 0,-30 0,0 192,0 192,-30"/>
<text text-anchor="start" x="8" y="-18" font-family="Helvetica,sans-Serif" font-size="10.00">Harlinn::Windows::Graphics</text>
<text text-anchor="middle" x="96" y="-7" font-family="Helvetica,sans-Serif" font-size="10.00">::D3D12::Video::D3D12VideoProcessor1</text>
</a>
</g>
</g>
<!-- Node1&#45;&gt;Node6 -->
<g id="edge5_Node000001_Node000006" class="edge">
<title>Node1&#45;&gt;Node6</title>
<g id="a_edge5_Node000001_Node000006"><a xlink:title=" ">
<path fill="none" stroke="#63b8ff" d="M96,-54.39C96,-46.13 96,-37.28 96,-30.16"/>
<polygon fill="#63b8ff" stroke="#63b8ff" points="92.5,-54.28 96,-64.28 99.5,-54.28 92.5,-54.28"/>
</a>
</g>
</g>
<!-- Node2 -->
<g id="Node000002" class="node">
<title>Node2</title>
<g id="a_Node000002"><a xlink:href="class_harlinn_1_1_windows_1_1_graphics_1_1_d3_d12_1_1_pageable.html" target="_top" xlink:title="Classes derived from Pageable encapsulates some amount of GPU&#45;accessible memory.">
<polygon fill="white" stroke="#666666" points="139,-151 53,-151 53,-132 139,-132 139,-151"/>
<text text-anchor="middle" x="96" y="-139" font-family="Helvetica,sans-Serif" font-size="10.00">D3D12Pageable</text>
</a>
</g>
</g>
<!-- Node2&#45;&gt;Node1 -->
<g id="edge1_Node000001_Node000002" class="edge">
<title>Node2&#45;&gt;Node1</title>
<g id="a_edge1_Node000001_Node000002"><a xlink:title=" ">
<path fill="none" stroke="#63b8ff" d="M96,-120.51C96,-112.49 96,-103.43 96,-96.11"/>
<polygon fill="#63b8ff" stroke="#63b8ff" points="92.5,-120.35 96,-130.35 99.5,-120.35 92.5,-120.35"/>
</a>
</g>
</g>
<!-- Node3 -->
<g id="Node000003" class="node">
<title>Node3</title>
<g id="a_Node000003"><a xlink:href="class_harlinn_1_1_windows_1_1_graphics_1_1_d3_d12_1_1_device_child.html" target="_top" xlink:title="Adds the ability to get the device used to create it.">
<polygon fill="white" stroke="#666666" points="164.5,-217 27.5,-217 27.5,-187 164.5,-187 164.5,-217"/>
<text text-anchor="start" x="35.5" y="-205" font-family="Helvetica,sans-Serif" font-size="10.00">Harlinn::Windows::Graphics</text>
<text text-anchor="middle" x="96" y="-194" font-family="Helvetica,sans-Serif" font-size="10.00">::D3D12::DeviceChild</text>
</a>
</g>
</g>
<!-- Node3&#45;&gt;Node2 -->
<g id="edge2_Node000002_Node000003" class="edge">
<title>Node3&#45;&gt;Node2</title>
<g id="a_edge2_Node000002_Node000003"><a xlink:title=" ">
<path fill="none" stroke="#63b8ff" d="M96,-175.3C96,-166.65 96,-157.58 96,-151.18"/>
<polygon fill="#63b8ff" stroke="#63b8ff" points="92.5,-175.03 96,-185.03 99.5,-175.03 92.5,-175.03"/>
</a>
</g>
</g>
<!-- Node4 -->
<g id="Node000004" class="node">
<title>Node4</title>
<g id="a_Node000004"><a xlink:href="class_harlinn_1_1_windows_1_1_graphics_1_1_d3_d12_1_1_object.html" target="_top" xlink:title="A base class from which Device and DeviceChild inherit from. It provides methods to associate private...">
<polygon fill="white" stroke="#666666" points="164.5,-283 27.5,-283 27.5,-253 164.5,-253 164.5,-283"/>
<text text-anchor="start" x="35.5" y="-271" font-family="Helvetica,sans-Serif" font-size="10.00">Harlinn::Windows::Graphics</text>
<text text-anchor="middle" x="96" y="-260" font-family="Helvetica,sans-Serif" font-size="10.00">::D3D12::Object</text>
</a>
</g>
</g>
<!-- Node4&#45;&gt;Node3 -->
<g id="edge3_Node000003_Node000004" class="edge">
<title>Node4&#45;&gt;Node3</title>
<g id="a_edge3_Node000003_Node000004"><a xlink:title=" ">
<path fill="none" stroke="#63b8ff" d="M96,-241.39C96,-233.13 96,-224.28 96,-217.16"/>
<polygon fill="#63b8ff" stroke="#63b8ff" points="92.5,-241.28 96,-251.28 99.5,-241.28 92.5,-241.28"/>
</a>
</g>
</g>
<!-- Node5 -->
<g id="Node000005" class="node">
<title>Node5</title>
<g id="a_Node000005"><a xlink:href="class_harlinn_1_1_common_1_1_core_1_1_unknown.html" target="_top" xlink:title="Base class for COM interface wrappers.">
<polygon fill="white" stroke="#666666" points="155,-349 37,-349 37,-319 155,-319 155,-349"/>
<text text-anchor="start" x="45" y="-337" font-family="Helvetica,sans-Serif" font-size="10.00">Harlinn::Common::Core</text>
<text text-anchor="middle" x="96" y="-326" font-family="Helvetica,sans-Serif" font-size="10.00">::Unknown</text>
</a>
</g>
</g>
<!-- Node5&#45;&gt;Node4 -->
<g id="edge4_Node000004_Node000005" class="edge">
<title>Node5&#45;&gt;Node4</title>
<g id="a_edge4_Node000004_Node000005"><a xlink:title=" ">
<path fill="none" stroke="#63b8ff" d="M96,-307.39C96,-299.13 96,-290.28 96,-283.16"/>
<polygon fill="#63b8ff" stroke="#63b8ff" points="92.5,-307.28 96,-317.28 99.5,-307.28 92.5,-307.28"/>
</a>
</g>
</g>
</g>
</svg>
