<?xml version="1.0" encoding="UTF-8" standalone="no"?>
<!DOCTYPE svg PUBLIC "-//W3C//DTD SVG 1.1//EN"
 "http://www.w3.org/Graphics/SVG/1.1/DTD/svg11.dtd">
<!-- Generated by graphviz version 7.0.1 (20221109.1506)
 -->
<!-- Title: Harlinn::Windows::Graphics::D3D11::VideoProcessorEnumerator Pages: 1 -->
<svg width="190pt" height="236pt"
 viewBox="0.00 0.00 190.00 236.00" xmlns="http://www.w3.org/2000/svg" xmlns:xlink="http://www.w3.org/1999/xlink">
<g id="graph0" class="graph" transform="scale(1 1) rotate(0) translate(4 232)">
<title>Harlinn::Windows::Graphics::D3D11::VideoProcessorEnumerator</title>
<!-- Node1 -->
<g id="Node000001" class="node">
<title>Node1</title>
<g id="a_Node000001"><a xlink:title="Enumerates the video processor capabilities of a Microsoft Direct3D 11 device.">
<polygon fill="#999999" stroke="#666666" points="179.5,-96 2.5,-96 2.5,-66 179.5,-66 179.5,-96"/>
<text text-anchor="start" x="10.5" y="-84" font-family="Helvetica,sans-Serif" font-size="10.00">Harlinn::Windows::Graphics</text>
<text text-anchor="middle" x="91" y="-73" font-family="Helvetica,sans-Serif" font-size="10.00">::D3D11::VideoProcessorEnumerator</text>
</a>
</g>
</g>
<!-- Node4 -->
<g id="Node000004" class="node">
<title>Node4</title>
<g id="a_Node000004"><a xlink:href="class_harlinn_1_1_windows_1_1_graphics_1_1_d3_d11_1_1_video_processor_enumerator1.html" target="_top" xlink:title="Enumerates the video processor capabilities of a Microsoft Direct3D 11 device.">
<polygon fill="white" stroke="#666666" points="182,-30 0,-30 0,0 182,0 182,-30"/>
<text text-anchor="start" x="8" y="-18" font-family="Helvetica,sans-Serif" font-size="10.00">Harlinn::Windows::Graphics</text>
<text text-anchor="middle" x="91" y="-7" font-family="Helvetica,sans-Serif" font-size="10.00">::D3D11::VideoProcessorEnumerator1</text>
</a>
</g>
</g>
<!-- Node1&#45;&gt;Node4 -->
<g id="edge3_Node000001_Node000004" class="edge">
<title>Node1&#45;&gt;Node4</title>
<g id="a_edge3_Node000001_Node000004"><a xlink:title=" ">
<path fill="none" stroke="#63b8ff" d="M91,-54.39C91,-46.13 91,-37.28 91,-30.16"/>
<polygon fill="#63b8ff" stroke="#63b8ff" points="87.5,-54.28 91,-64.28 94.5,-54.28 87.5,-54.28"/>
</a>
</g>
</g>
<!-- Node2 -->
<g id="Node000002" class="node">
<title>Node2</title>
<g id="a_Node000002"><a xlink:href="class_harlinn_1_1_windows_1_1_graphics_1_1_d3_d11_1_1_device_child.html" target="_top" xlink:title="A device&#45;child object accesses data used by a device.">
<polygon fill="white" stroke="#666666" points="159.5,-162 22.5,-162 22.5,-132 159.5,-132 159.5,-162"/>
<text text-anchor="start" x="30.5" y="-150" font-family="Helvetica,sans-Serif" font-size="10.00">Harlinn::Windows::Graphics</text>
<text text-anchor="middle" x="91" y="-139" font-family="Helvetica,sans-Serif" font-size="10.00">::D3D11::DeviceChild</text>
</a>
</g>
</g>
<!-- Node2&#45;&gt;Node1 -->
<g id="edge1_Node000001_Node000002" class="edge">
<title>Node2&#45;&gt;Node1</title>
<g id="a_edge1_Node000001_Node000002"><a xlink:title=" ">
<path fill="none" stroke="#63b8ff" d="M91,-120.39C91,-112.13 91,-103.28 91,-96.16"/>
<polygon fill="#63b8ff" stroke="#63b8ff" points="87.5,-120.28 91,-130.28 94.5,-120.28 87.5,-120.28"/>
</a>
</g>
</g>
<!-- Node3 -->
<g id="Node000003" class="node">
<title>Node3</title>
<g id="a_Node000003"><a xlink:href="class_harlinn_1_1_common_1_1_core_1_1_unknown.html" target="_top" xlink:title=" ">
<polygon fill="white" stroke="#666666" points="150,-228 32,-228 32,-198 150,-198 150,-228"/>
<text text-anchor="start" x="40" y="-216" font-family="Helvetica,sans-Serif" font-size="10.00">Harlinn::Common::Core</text>
<text text-anchor="middle" x="91" y="-205" font-family="Helvetica,sans-Serif" font-size="10.00">::Unknown</text>
</a>
</g>
</g>
<!-- Node3&#45;&gt;Node2 -->
<g id="edge2_Node000002_Node000003" class="edge">
<title>Node3&#45;&gt;Node2</title>
<g id="a_edge2_Node000002_Node000003"><a xlink:title=" ">
<path fill="none" stroke="#63b8ff" d="M91,-186.39C91,-178.13 91,-169.28 91,-162.16"/>
<polygon fill="#63b8ff" stroke="#63b8ff" points="87.5,-186.28 91,-196.28 94.5,-186.28 87.5,-186.28"/>
</a>
</g>
</g>
</g>
</svg>
