<?xml version="1.0" encoding="UTF-8" standalone="no"?>
<!DOCTYPE svg PUBLIC "-//W3C//DTD SVG 1.1//EN"
 "http://www.w3.org/Graphics/SVG/1.1/DTD/svg11.dtd">
<!-- Generated by graphviz version 7.0.1 (20221109.1506)
 -->
<!-- Title: Harlinn::Common::Core::Doxygen::DocIndexEntryType Pages: 1 -->
<svg width="1049pt" height="177pt"
 viewBox="0.00 0.00 1049.00 177.00" xmlns="http://www.w3.org/2000/svg" xmlns:xlink="http://www.w3.org/1999/xlink">
<g id="graph0" class="graph" transform="scale(1 1) rotate(0) translate(4 173)">
<title>Harlinn::Common::Core::Doxygen::DocIndexEntryType</title>
<!-- Node1 -->
<g id="Node000001" class="node">
<title>Node1</title>
<g id="a_Node000001"><a xlink:title=" ">
<polygon fill="#999999" stroke="#666666" points="1041,-108 889,-108 889,-78 1041,-78 1041,-108"/>
<text text-anchor="start" x="897" y="-96" font-family="Helvetica,sans-Serif" font-size="10.00">Harlinn::Common::Core</text>
<text text-anchor="middle" x="965" y="-85" font-family="Helvetica,sans-Serif" font-size="10.00">::Doxygen::DocIndexEntryType</text>
</a>
</g>
</g>
<!-- Node2 -->
<g id="Node000002" class="node">
<title>Node2</title>
<g id="a_Node000002"><a xlink:href="class_harlinn_1_1_common_1_1_core_1_1_doxygen_1_1_internal_1_1_doc_base.html" target="_top" xlink:title=" ">
<polygon fill="white" stroke="#666666" points="802,-149 654,-149 654,-97 802,-97 802,-149"/>
<text text-anchor="start" x="662" y="-137" font-family="Helvetica,sans-Serif" font-size="10.00">Harlinn::Common::Core</text>
<text text-anchor="start" x="662" y="-126" font-family="Helvetica,sans-Serif" font-size="10.00">::Doxygen::Internal::</text>
<text text-anchor="start" x="662" y="-115" font-family="Helvetica,sans-Serif" font-size="10.00">DocBase&lt; Doxygen::DoxType</text>
<text text-anchor="middle" x="728" y="-104" font-family="Helvetica,sans-Serif" font-size="10.00">::DocIndexEntryType &gt;</text>
</a>
</g>
</g>
<!-- Node2&#45;&gt;Node1 -->
<g id="edge1_Node000001_Node000002" class="edge">
<title>Node2&#45;&gt;Node1</title>
<g id="a_edge1_Node000001_Node000002"><a xlink:title=" ">
<path fill="none" stroke="#63b8ff" d="M813.52,-112.21C838.1,-109.07 864.77,-105.67 888.74,-102.61"/>
<polygon fill="#63b8ff" stroke="#63b8ff" points="813.37,-108.7 803.89,-113.44 814.25,-115.64 813.37,-108.7"/>
</a>
</g>
</g>
<!-- Node3 -->
<g id="Node000003" class="node">
<title>Node3</title>
<g id="a_Node000003"><a xlink:href="class_harlinn_1_1_common_1_1_core_1_1_doxygen_1_1_doc_base_type.html" target="_top" xlink:title=" ">
<polygon fill="white" stroke="#666666" points="336,-169 208,-169 208,-139 336,-139 336,-169"/>
<text text-anchor="start" x="216" y="-157" font-family="Helvetica,sans-Serif" font-size="10.00">Harlinn::Common::Core</text>
<text text-anchor="middle" x="272" y="-146" font-family="Helvetica,sans-Serif" font-size="10.00">::Doxygen::DocBaseType</text>
</a>
</g>
</g>
<!-- Node3&#45;&gt;Node2 -->
<g id="edge2_Node000002_Node000003" class="edge">
<title>Node3&#45;&gt;Node2</title>
<g id="a_edge2_Node000002_Node000003"><a xlink:title=" ">
<path fill="none" stroke="#63b8ff" d="M347.77,-157.73C421.45,-160.19 537.04,-160.8 636,-147 641.83,-146.19 647.81,-145.13 653.8,-143.91"/>
<polygon fill="#63b8ff" stroke="#63b8ff" points="347.94,-154.24 337.83,-157.38 347.69,-161.23 347.94,-154.24"/>
</a>
</g>
</g>
<!-- Node5 -->
<g id="Node000005" class="node">
<title>Node5</title>
<g id="a_Node000005"><a xlink:href="class_harlinn_1_1_common_1_1_core_1_1_doxygen_1_1_internal_1_1_doc_base.html" target="_top" xlink:title=" ">
<polygon fill="white" stroke="#666666" points="518,-138.5 400,-138.5 400,-97.5 518,-97.5 518,-138.5"/>
<text text-anchor="start" x="408" y="-126.5" font-family="Helvetica,sans-Serif" font-size="10.00">Harlinn::Common::Core</text>
<text text-anchor="start" x="408" y="-115.5" font-family="Helvetica,sans-Serif" font-size="10.00">::Doxygen::Internal::</text>
<text text-anchor="middle" x="459" y="-104.5" font-family="Helvetica,sans-Serif" font-size="10.00">DocBase&lt; doxType &gt;</text>
</a>
</g>
</g>
<!-- Node3&#45;&gt;Node5 -->
<g id="edge5_Node000005_Node000003" class="edge">
<title>Node3&#45;&gt;Node5</title>
<g id="a_edge5_Node000005_Node000003"><a xlink:title=" ">
<path fill="none" stroke="#63b8ff" d="M347.64,-139.48C364.96,-136.11 383.15,-132.57 399.65,-129.35"/>
<polygon fill="#63b8ff" stroke="#63b8ff" points="347.04,-136.03 337.89,-141.37 348.38,-142.9 347.04,-136.03"/>
</a>
</g>
</g>
<!-- Node4 -->
<g id="Node000004" class="node">
<title>Node4</title>
<g id="a_Node000004"><a xlink:title=" ">
<polygon fill="white" stroke="#666666" points="140,-169 0,-169 0,-139 140,-139 140,-169"/>
<text text-anchor="start" x="8" y="-157" font-family="Helvetica,sans-Serif" font-size="10.00">std::enable_shared</text>
<text text-anchor="middle" x="70" y="-146" font-family="Helvetica,sans-Serif" font-size="10.00">_from_this&lt; DocBaseType &gt;</text>
</a>
</g>
</g>
<!-- Node4&#45;&gt;Node3 -->
<g id="edge3_Node000003_Node000004" class="edge">
<title>Node4&#45;&gt;Node3</title>
<g id="a_edge3_Node000003_Node000004"><a xlink:title=" ">
<path fill="none" stroke="#8b1a1a" d="M151.84,-154C170.47,-154 190.01,-154 207.76,-154"/>
<polygon fill="#8b1a1a" stroke="#8b1a1a" points="151.9,-150.5 141.9,-154 151.9,-157.5 151.9,-150.5"/>
</a>
</g>
</g>
<!-- Node5&#45;&gt;Node2 -->
<g id="edge4_Node000002_Node000005" class="edge">
<title>Node5&#45;&gt;Node2</title>
<g id="a_edge4_Node000002_Node000005"><a xlink:title=" ">
<path fill="none" stroke="orange" stroke-dasharray="5,2" d="M529.77,-119.31C567.84,-120.02 614.95,-120.9 653.58,-121.63"/>
<polygon fill="orange" stroke="orange" points="529.84,-115.81 519.78,-119.12 529.71,-122.81 529.84,-115.81"/>
</a>
</g>
<text text-anchor="start" x="536" y="-135" font-family="Helvetica,sans-Serif" font-size="10.00" fill="grey"> &lt; Doxygen::DoxType</text>
<text text-anchor="middle" x="586" y="-124" font-family="Helvetica,sans-Serif" font-size="10.00" fill="grey">::DocIndexEntryType &gt;</text>
</g>
<!-- Node6 -->
<g id="Node000006" class="node">
<title>Node6</title>
<g id="a_Node000006"><a xlink:href="class_harlinn_1_1_common_1_1_core_1_1_basic_string.html" target="_top" xlink:title=" ">
<polygon fill="white" stroke="#666666" points="790.5,-79 665.5,-79 665.5,-49 790.5,-49 790.5,-79"/>
<text text-anchor="start" x="673.5" y="-67" font-family="Helvetica,sans-Serif" font-size="10.00">Harlinn::Common::Core</text>
<text text-anchor="middle" x="728" y="-56" font-family="Helvetica,sans-Serif" font-size="10.00">::BasicString&lt; wchar_t &gt;</text>
</a>
</g>
</g>
<!-- Node6&#45;&gt;Node1 -->
<g id="edge6_Node000001_Node000006" class="edge">
<title>Node6&#45;&gt;Node1</title>
<g id="a_edge6_Node000001_Node000006"><a xlink:title=" ">
<path fill="none" stroke="#9a32cd" stroke-dasharray="5,2" d="M802.21,-72.63C824.32,-75.28 848.65,-78.22 871,-81 876.74,-81.71 882.67,-82.46 888.63,-83.22"/>
<polygon fill="#9a32cd" stroke="#9a32cd" points="802.72,-69.17 792.38,-71.46 801.89,-76.12 802.72,-69.17"/>
</a>
</g>
<text text-anchor="middle" x="845.5" y="-95" font-family="Helvetica,sans-Serif" font-size="10.00" fill="grey"> primary_</text>
<text text-anchor="middle" x="845.5" y="-84" font-family="Helvetica,sans-Serif" font-size="10.00" fill="grey">secondary_</text>
</g>
<!-- Node7 -->
<g id="Node000007" class="node">
<title>Node7</title>
<g id="a_Node000007"><a xlink:href="struct_harlinn_1_1_common_1_1_core_1_1_internal_1_1_data.html" target="_top" xlink:title=" ">
<polygon fill="white" stroke="#666666" points="331,-68 213,-68 213,-38 331,-38 331,-68"/>
<text text-anchor="start" x="221" y="-56" font-family="Helvetica,sans-Serif" font-size="10.00">Harlinn::Common::Core</text>
<text text-anchor="middle" x="272" y="-45" font-family="Helvetica,sans-Serif" font-size="10.00">::Internal::Data&lt; T &gt;</text>
</a>
</g>
</g>
<!-- Node7&#45;&gt;Node6 -->
<g id="edge7_Node000006_Node000007" class="edge">
<title>Node7&#45;&gt;Node6</title>
<g id="a_edge7_Node000006_Node000007"><a xlink:title=" ">
<path fill="none" stroke="#9a32cd" stroke-dasharray="5,2" d="M342.9,-54.69C431.01,-56.83 581.07,-60.46 665.17,-62.5"/>
<polygon fill="#9a32cd" stroke="#9a32cd" points="343.02,-51.2 332.94,-54.45 342.85,-58.19 343.02,-51.2"/>
</a>
</g>
<text text-anchor="middle" x="459" y="-62" font-family="Helvetica,sans-Serif" font-size="10.00" fill="grey"> data_</text>
</g>
<!-- Node9 -->
<g id="Node000009" class="node">
<title>Node9</title>
<g id="a_Node000009"><a xlink:href="class_harlinn_1_1_common_1_1_core_1_1_basic_string.html" target="_top" xlink:title="This is a reference counted string class.">
<polygon fill="white" stroke="#666666" points="518,-30 400,-30 400,0 518,0 518,-30"/>
<text text-anchor="start" x="408" y="-18" font-family="Helvetica,sans-Serif" font-size="10.00">Harlinn::Common::Core</text>
<text text-anchor="middle" x="459" y="-7" font-family="Helvetica,sans-Serif" font-size="10.00">::BasicString&lt; T &gt;</text>
</a>
</g>
</g>
<!-- Node7&#45;&gt;Node9 -->
<g id="edge10_Node000009_Node000007" class="edge">
<title>Node7&#45;&gt;Node9</title>
<g id="a_edge10_Node000009_Node000007"><a xlink:title=" ">
<path fill="none" stroke="#9a32cd" stroke-dasharray="5,2" d="M342.5,-38.72C361.34,-34.85 381.54,-30.71 399.69,-26.98"/>
<polygon fill="#9a32cd" stroke="#9a32cd" points="341.86,-35.28 332.76,-40.72 343.26,-42.14 341.86,-35.28"/>
</a>
</g>
<text text-anchor="middle" x="368" y="-40" font-family="Helvetica,sans-Serif" font-size="10.00" fill="grey"> data_</text>
</g>
<!-- Node8 -->
<g id="Node000008" class="node">
<title>Node8</title>
<g id="a_Node000008"><a xlink:title=" ">
<polygon fill="white" stroke="#666666" points="84.5,-62.5 55.5,-62.5 55.5,-43.5 84.5,-43.5 84.5,-62.5"/>
<text text-anchor="middle" x="70" y="-50.5" font-family="Helvetica,sans-Serif" font-size="10.00">T</text>
</a>
</g>
</g>
<!-- Node8&#45;&gt;Node7 -->
<g id="edge8_Node000007_Node000008" class="edge">
<title>Node8&#45;&gt;Node7</title>
<g id="a_edge8_Node000007_Node000008"><a xlink:title=" ">
<path fill="none" stroke="#9a32cd" stroke-dasharray="5,2" d="M95.87,-53C124.88,-53 173.79,-53 212.57,-53"/>
<polygon fill="#9a32cd" stroke="#9a32cd" points="96.26,-49.5 86.26,-53 96.26,-56.5 96.26,-49.5"/>
</a>
</g>
<text text-anchor="middle" x="174" y="-56" font-family="Helvetica,sans-Serif" font-size="10.00" fill="grey"> buffer_</text>
</g>
<!-- Node9&#45;&gt;Node6 -->
<g id="edge9_Node000006_Node000009" class="edge">
<title>Node9&#45;&gt;Node6</title>
<g id="a_edge9_Node000006_Node000009"><a xlink:title=" ">
<path fill="none" stroke="orange" stroke-dasharray="5,2" d="M529.33,-23.6C561.85,-28.05 601.05,-34.02 636,-41 646.87,-43.17 658.38,-45.81 669.43,-48.52"/>
<polygon fill="orange" stroke="orange" points="530,-20.16 519.62,-22.29 529.06,-27.09 530,-20.16"/>
</a>
</g>
<text text-anchor="middle" x="586" y="-44" font-family="Helvetica,sans-Serif" font-size="10.00" fill="grey"> &lt; wchar_t &gt;</text>
</g>
</g>
</svg>
