<?xml version="1.0" encoding="UTF-8" standalone="no"?>
<!DOCTYPE svg PUBLIC "-//W3C//DTD SVG 1.1//EN"
 "http://www.w3.org/Graphics/SVG/1.1/DTD/svg11.dtd">
<!-- Generated by graphviz version 7.0.1 (20221109.1506)
 -->
<!-- Title: Harlinn::Windows::Graphics::DirectComposition::FilterEffect Pages: 1 -->
<svg width="706pt" height="727pt"
 viewBox="0.00 0.00 706.00 727.00" xmlns="http://www.w3.org/2000/svg" xmlns:xlink="http://www.w3.org/1999/xlink">
<g id="graph0" class="graph" transform="scale(1 1) rotate(0) translate(4 723)">
<title>Harlinn::Windows::Graphics::DirectComposition::FilterEffect</title>
<!-- Node1 -->
<g id="Node000001" class="node">
<title>Node1</title>
<g id="a_Node000001"><a xlink:title="FilterEffect exposes a subset of Direct2D&#39;s image effects through DirectComposition for use in CSS fi...">
<polygon fill="#999999" stroke="#666666" points="482,-379.5 327,-379.5 327,-349.5 482,-349.5 482,-379.5"/>
<text text-anchor="start" x="335" y="-367.5" font-family="Helvetica,sans-Serif" font-size="10.00">Harlinn::Windows::Graphics</text>
<text text-anchor="middle" x="404.5" y="-356.5" font-family="Helvetica,sans-Serif" font-size="10.00">::DirectComposition::FilterEffect</text>
</a>
</g>
</g>
<!-- Node4 -->
<g id="Node000004" class="node">
<title>Node4</title>
<g id="a_Node000004"><a xlink:href="class_harlinn_1_1_windows_1_1_graphics_1_1_direct_composition_1_1_affine_transform2_d_effect.html" target="_top" xlink:title="The arithmetic composite effect is used to combine 2 images using a weighted sum of pixels from the i...">
<polygon fill="white" stroke="#666666" points="698,-719 518,-719 518,-678 698,-678 698,-719"/>
<text text-anchor="start" x="526" y="-707" font-family="Helvetica,sans-Serif" font-size="10.00">Harlinn::Windows::Graphics</text>
<text text-anchor="start" x="526" y="-696" font-family="Helvetica,sans-Serif" font-size="10.00">::DirectComposition::AffineTransform2</text>
<text text-anchor="middle" x="608" y="-685" font-family="Helvetica,sans-Serif" font-size="10.00">DEffect</text>
</a>
</g>
</g>
<!-- Node1&#45;&gt;Node4 -->
<g id="edge3_Node000001_Node000004" class="edge">
<title>Node1&#45;&gt;Node4</title>
<g id="a_edge3_Node000001_Node000004"><a xlink:title=" ">
<path fill="none" stroke="#63b8ff" d="M407.64,-390.85C413.8,-449.4 436.75,-591.31 518,-669.5 521.16,-672.54 524.65,-675.27 528.35,-677.7"/>
<polygon fill="#63b8ff" stroke="#63b8ff" points="411.15,-390.8 406.71,-381.18 404.18,-391.47 411.15,-390.8"/>
</a>
</g>
</g>
<!-- Node5 -->
<g id="Node000005" class="node">
<title>Node5</title>
<g id="a_Node000005"><a xlink:href="class_harlinn_1_1_windows_1_1_graphics_1_1_direct_composition_1_1_arithmetic_composite_effect.html" target="_top" xlink:title="The arithmetic composite effect is used to combine 2 images using a weighted sum of pixels from the i...">
<polygon fill="white" stroke="#666666" points="684,-660 532,-660 532,-619 684,-619 684,-660"/>
<text text-anchor="start" x="540" y="-648" font-family="Helvetica,sans-Serif" font-size="10.00">Harlinn::Windows::Graphics</text>
<text text-anchor="start" x="540" y="-637" font-family="Helvetica,sans-Serif" font-size="10.00">::DirectComposition::Arithmetic</text>
<text text-anchor="middle" x="608" y="-626" font-family="Helvetica,sans-Serif" font-size="10.00">CompositeEffect</text>
</a>
</g>
</g>
<!-- Node1&#45;&gt;Node5 -->
<g id="edge4_Node000001_Node000005" class="edge">
<title>Node1&#45;&gt;Node5</title>
<g id="a_edge4_Node000001_Node000005"><a xlink:title=" ">
<path fill="none" stroke="#63b8ff" d="M410.45,-391.03C421.13,-440.94 450.98,-549.2 518,-609.5 522.12,-613.21 526.72,-616.46 531.59,-619.31"/>
<polygon fill="#63b8ff" stroke="#63b8ff" points="413.92,-390.52 408.49,-381.42 407.06,-391.91 413.92,-390.52"/>
</a>
</g>
</g>
<!-- Node6 -->
<g id="Node000006" class="node">
<title>Node6</title>
<g id="a_Node000006"><a xlink:href="class_harlinn_1_1_windows_1_1_graphics_1_1_direct_composition_1_1_blend_effect.html" target="_top" xlink:title="The Blend Effect is used to combine 2 images.">
<polygon fill="white" stroke="#666666" points="687,-600.5 529,-600.5 529,-570.5 687,-570.5 687,-600.5"/>
<text text-anchor="start" x="537" y="-588.5" font-family="Helvetica,sans-Serif" font-size="10.00">Harlinn::Windows::Graphics</text>
<text text-anchor="middle" x="608" y="-577.5" font-family="Helvetica,sans-Serif" font-size="10.00">::DirectComposition::BlendEffect</text>
</a>
</g>
</g>
<!-- Node1&#45;&gt;Node6 -->
<g id="edge5_Node000001_Node000006" class="edge">
<title>Node1&#45;&gt;Node6</title>
<g id="a_edge5_Node000001_Node000006"><a xlink:title=" ">
<path fill="none" stroke="#63b8ff" d="M413.13,-390.58C426.9,-433.01 460.02,-516.72 518,-561.5 522.31,-564.83 527.04,-567.69 532.01,-570.16"/>
<polygon fill="#63b8ff" stroke="#63b8ff" points="416.53,-389.72 410.2,-381.22 409.84,-391.81 416.53,-389.72"/>
</a>
</g>
</g>
<!-- Node7 -->
<g id="Node000007" class="node">
<title>Node7</title>
<g id="a_Node000007"><a xlink:href="class_harlinn_1_1_windows_1_1_graphics_1_1_direct_composition_1_1_brightness_effect.html" target="_top" xlink:title="The brightness effect controls the brightness of the image.">
<polygon fill="white" stroke="#666666" points="685.5,-552 530.5,-552 530.5,-511 685.5,-511 685.5,-552"/>
<text text-anchor="start" x="538.5" y="-540" font-family="Helvetica,sans-Serif" font-size="10.00">Harlinn::Windows::Graphics</text>
<text text-anchor="start" x="538.5" y="-529" font-family="Helvetica,sans-Serif" font-size="10.00">::DirectComposition::Brightness</text>
<text text-anchor="middle" x="608" y="-518" font-family="Helvetica,sans-Serif" font-size="10.00">Effect</text>
</a>
</g>
</g>
<!-- Node1&#45;&gt;Node7 -->
<g id="edge6_Node000001_Node000007" class="edge">
<title>Node1&#45;&gt;Node7</title>
<g id="a_edge6_Node000001_Node000007"><a xlink:title=" ">
<path fill="none" stroke="#63b8ff" d="M419.56,-389.35C438.23,-420.18 474.02,-472.35 518,-502.5 522.42,-505.53 527.19,-508.26 532.12,-510.72"/>
<polygon fill="#63b8ff" stroke="#63b8ff" points="422.77,-387.9 414.67,-381.07 416.75,-391.46 422.77,-387.9"/>
</a>
</g>
</g>
<!-- Node8 -->
<g id="Node000008" class="node">
<title>Node8</title>
<g id="a_Node000008"><a xlink:href="class_harlinn_1_1_windows_1_1_graphics_1_1_direct_composition_1_1_color_matrix_effect.html" target="_top" xlink:title="The color matrix effect alters the RGBA values of a bitmap.">
<polygon fill="white" stroke="#666666" points="687,-493 529,-493 529,-452 687,-452 687,-493"/>
<text text-anchor="start" x="537" y="-481" font-family="Helvetica,sans-Serif" font-size="10.00">Harlinn::Windows::Graphics</text>
<text text-anchor="start" x="537" y="-470" font-family="Helvetica,sans-Serif" font-size="10.00">::DirectComposition::ColorMatrix</text>
<text text-anchor="middle" x="608" y="-459" font-family="Helvetica,sans-Serif" font-size="10.00">Effect</text>
</a>
</g>
</g>
<!-- Node1&#45;&gt;Node8 -->
<g id="edge7_Node000001_Node000008" class="edge">
<title>Node1&#45;&gt;Node8</title>
<g id="a_edge7_Node000001_Node000008"><a xlink:title=" ">
<path fill="none" stroke="#63b8ff" d="M433.03,-386.88C455,-403.91 487.11,-426.98 518,-442.5 524.56,-445.79 531.56,-448.86 538.64,-451.67"/>
<polygon fill="#63b8ff" stroke="#63b8ff" points="435.19,-384.13 425.17,-380.7 430.87,-389.63 435.19,-384.13"/>
</a>
</g>
</g>
<!-- Node9 -->
<g id="Node000009" class="node">
<title>Node9</title>
<g id="a_Node000009"><a xlink:href="class_harlinn_1_1_windows_1_1_graphics_1_1_direct_composition_1_1_composite_effect.html" target="_top" xlink:title="The composite effect is used to combine 2 or more images. This effect has 13 different composite mode...">
<polygon fill="white" stroke="#666666" points="697.5,-433.5 518.5,-433.5 518.5,-403.5 697.5,-403.5 697.5,-433.5"/>
<text text-anchor="start" x="526.5" y="-421.5" font-family="Helvetica,sans-Serif" font-size="10.00">Harlinn::Windows::Graphics</text>
<text text-anchor="middle" x="608" y="-410.5" font-family="Helvetica,sans-Serif" font-size="10.00">::DirectComposition::CompositeEffect</text>
</a>
</g>
</g>
<!-- Node1&#45;&gt;Node9 -->
<g id="edge8_Node000001_Node000009" class="edge">
<title>Node1&#45;&gt;Node9</title>
<g id="a_edge8_Node000001_Node000009"><a xlink:title=" ">
<path fill="none" stroke="#63b8ff" d="M474.24,-382.92C498.65,-389.46 525.85,-396.75 549.25,-403.02"/>
<polygon fill="#63b8ff" stroke="#63b8ff" points="475.27,-379.57 464.7,-380.37 473.46,-386.34 475.27,-379.57"/>
</a>
</g>
</g>
<!-- Node10 -->
<g id="Node000010" class="node">
<title>Node10</title>
<g id="a_Node000010"><a xlink:href="class_harlinn_1_1_windows_1_1_graphics_1_1_direct_composition_1_1_gaussian_blur_effect.html" target="_top" xlink:title="The Gaussian blur effect is used to blur an image by a Gaussian function, typically to reduce image n...">
<polygon fill="white" stroke="#666666" points="691.5,-385 524.5,-385 524.5,-344 691.5,-344 691.5,-385"/>
<text text-anchor="start" x="532.5" y="-373" font-family="Helvetica,sans-Serif" font-size="10.00">Harlinn::Windows::Graphics</text>
<text text-anchor="start" x="532.5" y="-362" font-family="Helvetica,sans-Serif" font-size="10.00">::DirectComposition::GaussianBlur</text>
<text text-anchor="middle" x="608" y="-351" font-family="Helvetica,sans-Serif" font-size="10.00">Effect</text>
</a>
</g>
</g>
<!-- Node1&#45;&gt;Node10 -->
<g id="edge9_Node000001_Node000010" class="edge">
<title>Node1&#45;&gt;Node10</title>
<g id="a_edge9_Node000001_Node000010"><a xlink:title=" ">
<path fill="none" stroke="#63b8ff" d="M493.59,-364.5C503.72,-364.5 514.02,-364.5 524.08,-364.5"/>
<polygon fill="#63b8ff" stroke="#63b8ff" points="493.77,-361 483.77,-364.5 493.77,-368 493.77,-361"/>
</a>
</g>
</g>
<!-- Node11 -->
<g id="Node000011" class="node">
<title>Node11</title>
<g id="a_Node000011"><a xlink:href="class_harlinn_1_1_windows_1_1_graphics_1_1_direct_composition_1_1_hue_rotation_effect.html" target="_top" xlink:title="The hue rotate effect alters the hue of an image by applying a color matrix based on the rotation ang...">
<polygon fill="white" stroke="#666666" points="688.5,-326 527.5,-326 527.5,-285 688.5,-285 688.5,-326"/>
<text text-anchor="start" x="535.5" y="-314" font-family="Helvetica,sans-Serif" font-size="10.00">Harlinn::Windows::Graphics</text>
<text text-anchor="start" x="535.5" y="-303" font-family="Helvetica,sans-Serif" font-size="10.00">::DirectComposition::HueRotation</text>
<text text-anchor="middle" x="608" y="-292" font-family="Helvetica,sans-Serif" font-size="10.00">Effect</text>
</a>
</g>
</g>
<!-- Node1&#45;&gt;Node11 -->
<g id="edge10_Node000001_Node000011" class="edge">
<title>Node1&#45;&gt;Node11</title>
<g id="a_edge10_Node000001_Node000011"><a xlink:title=" ">
<path fill="none" stroke="#63b8ff" d="M468.95,-345.92C490.03,-339.75 513.64,-332.84 535.3,-326.49"/>
<polygon fill="#63b8ff" stroke="#63b8ff" points="468.24,-342.48 459.63,-348.65 470.21,-349.2 468.24,-342.48"/>
</a>
</g>
</g>
<!-- Node12 -->
<g id="Node000012" class="node">
<title>Node12</title>
<g id="a_Node000012"><a xlink:href="class_harlinn_1_1_windows_1_1_graphics_1_1_direct_composition_1_1_linear_transfer_effect.html" target="_top" xlink:title="The linear transfer effect is used to map the color intensities of an image using a linear function c...">
<polygon fill="white" stroke="#666666" points="692.5,-267 523.5,-267 523.5,-226 692.5,-226 692.5,-267"/>
<text text-anchor="start" x="531.5" y="-255" font-family="Helvetica,sans-Serif" font-size="10.00">Harlinn::Windows::Graphics</text>
<text text-anchor="start" x="531.5" y="-244" font-family="Helvetica,sans-Serif" font-size="10.00">::DirectComposition::LinearTransfer</text>
<text text-anchor="middle" x="608" y="-233" font-family="Helvetica,sans-Serif" font-size="10.00">Effect</text>
</a>
</g>
</g>
<!-- Node1&#45;&gt;Node12 -->
<g id="edge11_Node000001_Node000012" class="edge">
<title>Node1&#45;&gt;Node12</title>
<g id="a_edge11_Node000001_Node000012"><a xlink:title=" ">
<path fill="none" stroke="#63b8ff" d="M429.2,-341.59C450.82,-321.75 484.43,-293.5 518,-275.5 523.44,-272.58 529.23,-269.89 535.14,-267.42"/>
<polygon fill="#63b8ff" stroke="#63b8ff" points="427.01,-338.85 422.08,-348.23 431.78,-343.96 427.01,-338.85"/>
</a>
</g>
</g>
<!-- Node13 -->
<g id="Node000013" class="node">
<title>Node13</title>
<g id="a_Node000013"><a xlink:href="class_harlinn_1_1_windows_1_1_graphics_1_1_direct_composition_1_1_saturation_effect.html" target="_top" xlink:title="This effect is used to alter the saturation of an image. The saturation effect is a specialization of...">
<polygon fill="white" stroke="#666666" points="684,-208 532,-208 532,-167 684,-167 684,-208"/>
<text text-anchor="start" x="540" y="-196" font-family="Helvetica,sans-Serif" font-size="10.00">Harlinn::Windows::Graphics</text>
<text text-anchor="start" x="540" y="-185" font-family="Helvetica,sans-Serif" font-size="10.00">::DirectComposition::Saturation</text>
<text text-anchor="middle" x="608" y="-174" font-family="Helvetica,sans-Serif" font-size="10.00">Effect</text>
</a>
</g>
</g>
<!-- Node1&#45;&gt;Node13 -->
<g id="edge12_Node000001_Node000013" class="edge">
<title>Node1&#45;&gt;Node13</title>
<g id="a_edge12_Node000001_Node000013"><a xlink:title=" ">
<path fill="none" stroke="#63b8ff" d="M418.32,-339.28C436.27,-306.4 471.95,-249.23 518,-216.5 522.24,-213.49 526.81,-210.77 531.56,-208.33"/>
<polygon fill="#63b8ff" stroke="#63b8ff" points="415.44,-337.24 413.83,-347.71 421.62,-340.53 415.44,-337.24"/>
</a>
</g>
</g>
<!-- Node14 -->
<g id="Node000014" class="node">
<title>Node14</title>
<g id="a_Node000014"><a xlink:href="class_harlinn_1_1_windows_1_1_graphics_1_1_direct_composition_1_1_shadow_effect.html" target="_top" xlink:title="The shadow effect is used to generate a shadow from the alpha channel of an image....">
<polygon fill="white" stroke="#666666" points="691.5,-148.5 524.5,-148.5 524.5,-118.5 691.5,-118.5 691.5,-148.5"/>
<text text-anchor="start" x="532.5" y="-136.5" font-family="Helvetica,sans-Serif" font-size="10.00">Harlinn::Windows::Graphics</text>
<text text-anchor="middle" x="608" y="-125.5" font-family="Helvetica,sans-Serif" font-size="10.00">::DirectComposition::ShadowEffect</text>
</a>
</g>
</g>
<!-- Node1&#45;&gt;Node14 -->
<g id="edge13_Node000001_Node000014" class="edge">
<title>Node1&#45;&gt;Node14</title>
<g id="a_edge13_Node000001_Node000014"><a xlink:title=" ">
<path fill="none" stroke="#63b8ff" d="M412.46,-338.05C425.5,-293.81 457.86,-204.97 518,-157.5 522.15,-154.23 526.7,-151.4 531.49,-148.96"/>
<polygon fill="#63b8ff" stroke="#63b8ff" points="409.12,-337 409.77,-347.57 415.86,-338.9 409.12,-337"/>
</a>
</g>
</g>
<!-- Node15 -->
<g id="Node000015" class="node">
<title>Node15</title>
<g id="a_Node000015"><a xlink:href="class_harlinn_1_1_windows_1_1_graphics_1_1_direct_composition_1_1_table_transfer_effect.html" target="_top" xlink:title="The table transfer effect is used to map the color intensities of an image using a transfer function ...">
<polygon fill="white" stroke="#666666" points="691,-100 525,-100 525,-59 691,-59 691,-100"/>
<text text-anchor="start" x="533" y="-88" font-family="Helvetica,sans-Serif" font-size="10.00">Harlinn::Windows::Graphics</text>
<text text-anchor="start" x="533" y="-77" font-family="Helvetica,sans-Serif" font-size="10.00">::DirectComposition::TableTransfer</text>
<text text-anchor="middle" x="608" y="-66" font-family="Helvetica,sans-Serif" font-size="10.00">Effect</text>
</a>
</g>
</g>
<!-- Node1&#45;&gt;Node15 -->
<g id="edge14_Node000001_Node000015" class="edge">
<title>Node1&#45;&gt;Node15</title>
<g id="a_edge14_Node000001_Node000015"><a xlink:title=" ">
<path fill="none" stroke="#63b8ff" d="M409.91,-337.98C419.84,-286.55 448.71,-172.8 518,-109.5 521.73,-106.09 525.87,-103.07 530.25,-100.39"/>
<polygon fill="#63b8ff" stroke="#63b8ff" points="406.51,-337.13 408.15,-347.59 413.39,-338.39 406.51,-337.13"/>
</a>
</g>
</g>
<!-- Node16 -->
<g id="Node000016" class="node">
<title>Node16</title>
<g id="a_Node000016"><a xlink:href="class_harlinn_1_1_windows_1_1_graphics_1_1_direct_composition_1_1_turbulence_effect.html" target="_top" xlink:title="The turbulence effect is used to generate a bitmap based on the Perlin noise function....">
<polygon fill="white" stroke="#666666" points="685.5,-41 530.5,-41 530.5,0 685.5,0 685.5,-41"/>
<text text-anchor="start" x="538.5" y="-29" font-family="Helvetica,sans-Serif" font-size="10.00">Harlinn::Windows::Graphics</text>
<text text-anchor="start" x="538.5" y="-18" font-family="Helvetica,sans-Serif" font-size="10.00">::DirectComposition::Turbulence</text>
<text text-anchor="middle" x="608" y="-7" font-family="Helvetica,sans-Serif" font-size="10.00">Effect</text>
</a>
</g>
</g>
<!-- Node1&#45;&gt;Node16 -->
<g id="edge15_Node000001_Node000016" class="edge">
<title>Node1&#45;&gt;Node16</title>
<g id="a_edge15_Node000001_Node000016"><a xlink:title=" ">
<path fill="none" stroke="#63b8ff" d="M407.32,-337.73C412.85,-277.56 434.63,-130.57 518,-49.5 521.73,-45.87 525.92,-42.7 530.39,-39.93"/>
<polygon fill="#63b8ff" stroke="#63b8ff" points="403.83,-337.43 406.5,-347.69 410.81,-338.01 403.83,-337.43"/>
</a>
</g>
</g>
<!-- Node2 -->
<g id="Node000002" class="node">
<title>Node2</title>
<g id="a_Node000002"><a xlink:href="class_harlinn_1_1_windows_1_1_graphics_1_1_direct_composition_1_1_effect.html" target="_top" xlink:title="Represents a bitmap effect that modifies the rasterization of a visual&#39;s subtree.">
<polygon fill="white" stroke="#666666" points="291,-379.5 154,-379.5 154,-349.5 291,-349.5 291,-379.5"/>
<text text-anchor="start" x="162" y="-367.5" font-family="Helvetica,sans-Serif" font-size="10.00">Harlinn::Windows::Graphics</text>
<text text-anchor="middle" x="222.5" y="-356.5" font-family="Helvetica,sans-Serif" font-size="10.00">::DirectComposition::Effect</text>
</a>
</g>
</g>
<!-- Node2&#45;&gt;Node1 -->
<g id="edge1_Node000001_Node000002" class="edge">
<title>Node2&#45;&gt;Node1</title>
<g id="a_edge1_Node000001_Node000002"><a xlink:title=" ">
<path fill="none" stroke="#63b8ff" d="M302.54,-364.5C310.56,-364.5 318.71,-364.5 326.71,-364.5"/>
<polygon fill="#63b8ff" stroke="#63b8ff" points="302.81,-361 292.81,-364.5 302.81,-368 302.81,-361"/>
</a>
</g>
</g>
<!-- Node3 -->
<g id="Node000003" class="node">
<title>Node3</title>
<g id="a_Node000003"><a xlink:href="class_harlinn_1_1_common_1_1_core_1_1_unknown.html" target="_top" xlink:title=" ">
<polygon fill="white" stroke="#666666" points="118,-379.5 0,-379.5 0,-349.5 118,-349.5 118,-379.5"/>
<text text-anchor="start" x="8" y="-367.5" font-family="Helvetica,sans-Serif" font-size="10.00">Harlinn::Common::Core</text>
<text text-anchor="middle" x="59" y="-356.5" font-family="Helvetica,sans-Serif" font-size="10.00">::Unknown</text>
</a>
</g>
</g>
<!-- Node3&#45;&gt;Node2 -->
<g id="edge2_Node000002_Node000003" class="edge">
<title>Node3&#45;&gt;Node2</title>
<g id="a_edge2_Node000002_Node000003"><a xlink:title=" ">
<path fill="none" stroke="#63b8ff" d="M129.78,-364.5C137.7,-364.5 145.77,-364.5 153.67,-364.5"/>
<polygon fill="#63b8ff" stroke="#63b8ff" points="129.82,-361 119.82,-364.5 129.82,-368 129.82,-361"/>
</a>
</g>
</g>
</g>
</svg>
