<?xml version="1.0" encoding="UTF-8" standalone="no"?>
<!DOCTYPE svg PUBLIC "-//W3C//DTD SVG 1.1//EN"
 "http://www.w3.org/Graphics/SVG/1.1/DTD/svg11.dtd">
<!-- Generated by graphviz version 7.0.1 (20221109.1506)
 -->
<!-- Title: Harlinn::OCI::LargeBinaryRefBind Pages: 1 -->
<svg width="136pt" height="203pt"
 viewBox="0.00 0.00 136.00 203.00" xmlns="http://www.w3.org/2000/svg" xmlns:xlink="http://www.w3.org/1999/xlink">
<g id="graph0" class="graph" transform="scale(1 1) rotate(0) translate(4 199)">
<title>Harlinn::OCI::LargeBinaryRefBind</title>
<!-- Node1 -->
<g id="Node000001" class="node">
<title>Node1</title>
<g id="a_Node000001"><a xlink:title="LargeBinaryRefBind.">
<polygon fill="#999999" stroke="#666666" points="127.5,-30 0.5,-30 0.5,0 127.5,0 127.5,-30"/>
<text text-anchor="start" x="8.5" y="-18" font-family="Helvetica,sans-Serif" font-size="10.00">Harlinn::OCI::LargeBinary</text>
<text text-anchor="middle" x="64" y="-7" font-family="Helvetica,sans-Serif" font-size="10.00">RefBind</text>
</a>
</g>
</g>
<!-- Node2 -->
<g id="Node000002" class="node">
<title>Node2</title>
<g id="a_Node000002"><a xlink:href="class_harlinn_1_1_o_c_i_1_1_bind.xhtml" target="_top" xlink:title="Bind, base class for binding a single value.">
<polygon fill="white" stroke="#666666" points="111.5,-85 16.5,-85 16.5,-66 111.5,-66 111.5,-85"/>
<text text-anchor="middle" x="64" y="-73" font-family="Helvetica,sans-Serif" font-size="10.00">Harlinn::OCI::Bind</text>
</a>
</g>
</g>
<!-- Node2&#45;&gt;Node1 -->
<g id="edge1_Node000001_Node000002" class="edge">
<title>Node2&#45;&gt;Node1</title>
<g id="a_edge1_Node000001_Node000002"><a xlink:title=" ">
<path fill="none" stroke="#63b8ff" d="M64,-54.51C64,-46.49 64,-37.43 64,-30.11"/>
<polygon fill="#63b8ff" stroke="#63b8ff" points="60.5,-54.35 64,-64.35 67.5,-54.35 60.5,-54.35"/>
</a>
</g>
</g>
<!-- Node3 -->
<g id="Node000003" class="node">
<title>Node3</title>
<g id="a_Node000003"><a xlink:href="class_harlinn_1_1_o_c_i_1_1_bind_base.xhtml" target="_top" xlink:title="BindBase, base class for binds.">
<polygon fill="white" stroke="#666666" points="122.5,-140 5.5,-140 5.5,-121 122.5,-121 122.5,-140"/>
<text text-anchor="middle" x="64" y="-128" font-family="Helvetica,sans-Serif" font-size="10.00">Harlinn::OCI::BindBase</text>
</a>
</g>
</g>
<!-- Node3&#45;&gt;Node2 -->
<g id="edge2_Node000002_Node000003" class="edge">
<title>Node3&#45;&gt;Node2</title>
<g id="a_edge2_Node000002_Node000003"><a xlink:title=" ">
<path fill="none" stroke="#63b8ff" d="M64,-109.35C64,-101.1 64,-91.97 64,-85.44"/>
<polygon fill="#63b8ff" stroke="#63b8ff" points="60.5,-109.23 64,-119.23 67.5,-109.23 60.5,-109.23"/>
</a>
</g>
</g>
<!-- Node4 -->
<g id="Node000004" class="node">
<title>Node4</title>
<g id="a_Node000004"><a xlink:href="class_harlinn_1_1_o_c_i_1_1_handle_base.xhtml" target="_top" xlink:title="Base class for OCI handle wrappers.">
<polygon fill="white" stroke="#666666" points="128,-195 0,-195 0,-176 128,-176 128,-195"/>
<text text-anchor="middle" x="64" y="-183" font-family="Helvetica,sans-Serif" font-size="10.00">Harlinn::OCI::HandleBase</text>
</a>
</g>
</g>
<!-- Node4&#45;&gt;Node3 -->
<g id="edge3_Node000003_Node000004" class="edge">
<title>Node4&#45;&gt;Node3</title>
<g id="a_edge3_Node000003_Node000004"><a xlink:title=" ">
<path fill="none" stroke="#63b8ff" d="M64,-164.35C64,-156.1 64,-146.97 64,-140.44"/>
<polygon fill="#63b8ff" stroke="#63b8ff" points="60.5,-164.23 64,-174.23 67.5,-164.23 60.5,-164.23"/>
</a>
</g>
</g>
</g>
</svg>
