<?xml version="1.0" encoding="UTF-8" standalone="no"?>
<!DOCTYPE svg PUBLIC "-//W3C//DTD SVG 1.1//EN"
 "http://www.w3.org/Graphics/SVG/1.1/DTD/svg11.dtd">
<!-- Generated by graphviz version 7.0.1 (20221109.1506)
 -->
<!-- Title: Harlinn::OCI::Internal::ScalarDataReader&lt; T &gt; Pages: 1 -->
<svg width="166pt" height="260pt"
 viewBox="0.00 0.00 166.00 260.00" xmlns="http://www.w3.org/2000/svg" xmlns:xlink="http://www.w3.org/1999/xlink">
<g id="graph0" class="graph" transform="scale(1 1) rotate(0) translate(4 256)">
<title>Harlinn::OCI::Internal::ScalarDataReader&lt; T &gt;</title>
<!-- Node1 -->
<g id="Node000001" class="node">
<title>Node1</title>
<g id="a_Node000001"><a xlink:title=" ">
<polygon fill="#999999" stroke="#666666" points="128.5,-30 3.5,-30 3.5,0 128.5,0 128.5,-30"/>
<text text-anchor="start" x="11.5" y="-18" font-family="Helvetica,sans-Serif" font-size="10.00">Harlinn::OCI::Internal</text>
<text text-anchor="middle" x="66" y="-7" font-family="Helvetica,sans-Serif" font-size="10.00">::ScalarDataReader&lt; T &gt;</text>
</a>
</g>
</g>
<!-- Node2 -->
<g id="Node000002" class="node">
<title>Node2</title>
<g id="a_Node000002"><a xlink:href="class_harlinn_1_1_o_c_i_1_1_data_reader.html" target="_top" xlink:title="Provides access to the column values within each row.">
<polygon fill="white" stroke="#666666" points="129,-86 3,-86 3,-67 129,-67 129,-86"/>
<text text-anchor="middle" x="66" y="-74" font-family="Helvetica,sans-Serif" font-size="10.00">Harlinn::OCI::DataReader</text>
</a>
</g>
</g>
<!-- Node2&#45;&gt;Node1 -->
<g id="edge1_Node000001_Node000002" class="edge">
<title>Node2&#45;&gt;Node1</title>
<g id="a_edge1_Node000001_Node000002"><a xlink:title=" ">
<path fill="none" stroke="#63b8ff" d="M66,-55.46C66,-47.23 66,-37.89 66,-30.36"/>
<polygon fill="#63b8ff" stroke="#63b8ff" points="62.5,-55.21 66,-65.21 69.5,-55.21 62.5,-55.21"/>
</a>
</g>
</g>
<!-- Node3 -->
<g id="Node000003" class="node">
<title>Node3</title>
<g id="a_Node000003"><a xlink:href="class_harlinn_1_1_o_c_i_1_1_data_reader_base.html" target="_top" xlink:title=" ">
<polygon fill="white" stroke="#666666" points="129,-164 3,-164 3,-123 129,-123 129,-164"/>
<text text-anchor="start" x="11" y="-152" font-family="Helvetica,sans-Serif" font-size="10.00">Harlinn::OCI::DataReader</text>
<text text-anchor="start" x="11" y="-141" font-family="Helvetica,sans-Serif" font-size="10.00">Base&lt; DataReader, OCI</text>
<text text-anchor="middle" x="66" y="-130" font-family="Helvetica,sans-Serif" font-size="10.00">::Define &gt;</text>
</a>
</g>
</g>
<!-- Node3&#45;&gt;Node2 -->
<g id="edge2_Node000002_Node000003" class="edge">
<title>Node3&#45;&gt;Node2</title>
<g id="a_edge2_Node000002_Node000003"><a xlink:title=" ">
<path fill="none" stroke="#63b8ff" d="M66,-111.36C66,-102.21 66,-92.93 66,-86.4"/>
<polygon fill="#63b8ff" stroke="#63b8ff" points="62.5,-111.13 66,-121.13 69.5,-111.13 62.5,-111.13"/>
</a>
</g>
</g>
<!-- Node4 -->
<g id="Node000004" class="node">
<title>Node4</title>
<g id="a_Node000004"><a xlink:href="class_harlinn_1_1_o_c_i_1_1_data_reader_base.html" target="_top" xlink:title="DataReaderBase Implements functionality common to DataReader and ArrayDataReader.">
<polygon fill="white" stroke="#666666" points="132,-252 0,-252 0,-222 132,-222 132,-252"/>
<text text-anchor="start" x="8" y="-240" font-family="Helvetica,sans-Serif" font-size="10.00">Harlinn::OCI::DataReader</text>
<text text-anchor="middle" x="66" y="-229" font-family="Helvetica,sans-Serif" font-size="10.00">Base&lt; DerivedT, DefineT &gt;</text>
</a>
</g>
</g>
<!-- Node4&#45;&gt;Node3 -->
<g id="edge3_Node000003_Node000004" class="edge">
<title>Node4&#45;&gt;Node3</title>
<g id="a_edge3_Node000003_Node000004"><a xlink:title=" ">
<path fill="none" stroke="orange" stroke-dasharray="5,2" d="M66,-210.46C66,-195.92 66,-177.97 66,-164.47"/>
<polygon fill="orange" stroke="orange" points="62.5,-210.19 66,-220.19 69.5,-210.19 62.5,-210.19"/>
</a>
</g>
<text text-anchor="start" x="66" y="-196" font-family="Helvetica,sans-Serif" font-size="10.00" fill="grey"> &lt; DataReader, OCI::</text>
<text text-anchor="middle" x="112" y="-185" font-family="Helvetica,sans-Serif" font-size="10.00" fill="grey">Define &gt;</text>
</g>
</g>
</svg>
