<?xml version="1.0" encoding="UTF-8" standalone="no"?>
<!DOCTYPE svg PUBLIC "-//W3C//DTD SVG 1.1//EN"
 "http://www.w3.org/Graphics/SVG/1.1/DTD/svg11.dtd">
<!-- Generated by graphviz version 7.0.1 (20221109.1506)
 -->
<!-- Title: Harlinn::Common::Core::Security::KerberosSecurityContext Pages: 1 -->
<svg width="521pt" height="108pt"
 viewBox="0.00 0.00 521.00 108.00" xmlns="http://www.w3.org/2000/svg" xmlns:xlink="http://www.w3.org/1999/xlink">
<g id="graph0" class="graph" transform="scale(1 1) rotate(0) translate(4 104)">
<title>Harlinn::Common::Core::Security::KerberosSecurityContext</title>
<!-- Node1 -->
<g id="Node000001" class="node">
<title>Node1</title>
<g id="a_Node000001"><a xlink:title="A security context for Kerberos SSPI.">
<polygon fill="#999999" stroke="#666666" points="310,-70 170,-70 170,-29 310,-29 310,-70"/>
<text text-anchor="start" x="178" y="-58" font-family="Helvetica,sans-Serif" font-size="10.00">Harlinn::Common::Core</text>
<text text-anchor="start" x="178" y="-47" font-family="Helvetica,sans-Serif" font-size="10.00">::Security::KerberosSecurity</text>
<text text-anchor="middle" x="240" y="-36" font-family="Helvetica,sans-Serif" font-size="10.00">Context</text>
</a>
</g>
</g>
<!-- Node3 -->
<g id="Node000003" class="node">
<title>Node3</title>
<g id="a_Node000003"><a xlink:href="class_harlinn_1_1_common_1_1_core_1_1_security_1_1_kerberos_client_security_context.html" target="_top" xlink:title="A client security context for Kerberos SSPI.">
<polygon fill="white" stroke="#666666" points="511.5,-100 347.5,-100 347.5,-59 511.5,-59 511.5,-100"/>
<text text-anchor="start" x="355.5" y="-88" font-family="Helvetica,sans-Serif" font-size="10.00">Harlinn::Common::Core</text>
<text text-anchor="start" x="355.5" y="-77" font-family="Helvetica,sans-Serif" font-size="10.00">::Security::KerberosClientSecurity</text>
<text text-anchor="middle" x="429.5" y="-66" font-family="Helvetica,sans-Serif" font-size="10.00">Context</text>
</a>
</g>
</g>
<!-- Node1&#45;&gt;Node3 -->
<g id="edge2_Node000001_Node000003" class="edge">
<title>Node1&#45;&gt;Node3</title>
<g id="a_edge2_Node000001_Node000003"><a xlink:title=" ">
<path fill="none" stroke="#63b8ff" d="M321.39,-62.36C329.92,-63.73 338.6,-65.12 347.14,-66.48"/>
<polygon fill="#63b8ff" stroke="#63b8ff" points="322.21,-58.95 311.78,-60.82 321.1,-65.86 322.21,-58.95"/>
</a>
</g>
</g>
<!-- Node4 -->
<g id="Node000004" class="node">
<title>Node4</title>
<g id="a_Node000004"><a xlink:href="class_harlinn_1_1_common_1_1_core_1_1_security_1_1_kerberos_server_security_context.html" target="_top" xlink:title="A server security context for Kerberos SSPI.">
<polygon fill="white" stroke="#666666" points="513,-41 346,-41 346,0 513,0 513,-41"/>
<text text-anchor="start" x="354" y="-29" font-family="Helvetica,sans-Serif" font-size="10.00">Harlinn::Common::Core</text>
<text text-anchor="start" x="354" y="-18" font-family="Helvetica,sans-Serif" font-size="10.00">::Security::KerberosServerSecurity</text>
<text text-anchor="middle" x="429.5" y="-7" font-family="Helvetica,sans-Serif" font-size="10.00">Context</text>
</a>
</g>
</g>
<!-- Node1&#45;&gt;Node4 -->
<g id="edge3_Node000001_Node000004" class="edge">
<title>Node1&#45;&gt;Node4</title>
<g id="a_edge3_Node000001_Node000004"><a xlink:title=" ">
<path fill="none" stroke="#63b8ff" d="M321.45,-37.06C329.43,-35.82 337.53,-34.57 345.53,-33.33"/>
<polygon fill="#63b8ff" stroke="#63b8ff" points="321.13,-33.57 311.78,-38.55 322.2,-40.48 321.13,-33.57"/>
</a>
</g>
</g>
<!-- Node2 -->
<g id="Node000002" class="node">
<title>Node2</title>
<g id="a_Node000002"><a xlink:href="class_harlinn_1_1_common_1_1_core_1_1_security_1_1_security_context.html" target="_top" xlink:title="A wrapper for the Windows CtxtHandle type.">
<polygon fill="white" stroke="#666666" points="134,-64.5 0,-64.5 0,-34.5 134,-34.5 134,-64.5"/>
<text text-anchor="start" x="8" y="-52.5" font-family="Helvetica,sans-Serif" font-size="10.00">Harlinn::Common::Core</text>
<text text-anchor="middle" x="67" y="-41.5" font-family="Helvetica,sans-Serif" font-size="10.00">::Security::SecurityContext</text>
</a>
</g>
</g>
<!-- Node2&#45;&gt;Node1 -->
<g id="edge1_Node000001_Node000002" class="edge">
<title>Node2&#45;&gt;Node1</title>
<g id="a_edge1_Node000001_Node000002"><a xlink:title=" ">
<path fill="none" stroke="#63b8ff" d="M145.44,-49.5C153.51,-49.5 161.69,-49.5 169.67,-49.5"/>
<polygon fill="#63b8ff" stroke="#63b8ff" points="145.63,-46 135.63,-49.5 145.63,-53 145.63,-46"/>
</a>
</g>
</g>
</g>
</svg>
