<?xml version="1.0" encoding="UTF-8" standalone="no"?>
<!DOCTYPE svg PUBLIC "-//W3C//DTD SVG 1.1//EN"
 "http://www.w3.org/Graphics/SVG/1.1/DTD/svg11.dtd">
<!-- Generated by graphviz version 7.0.1 (20221109.1506)
 -->
<!-- Title: Harlinn::Windows::DirectXVideoAccelerationService Pages: 1 -->
<svg width="454pt" height="86pt"
 viewBox="0.00 0.00 454.00 86.00" xmlns="http://www.w3.org/2000/svg" xmlns:xlink="http://www.w3.org/1999/xlink">
<g id="graph0" class="graph" transform="scale(1 1) rotate(0) translate(4 82)">
<title>Harlinn::Windows::DirectXVideoAccelerationService</title>
<!-- Node1 -->
<g id="Node000001" class="node">
<title>Node1</title>
<g id="a_Node000001"><a xlink:title=" ">
<polygon fill="#999999" stroke="#666666" points="286,-54 154,-54 154,-24 286,-24 286,-54"/>
<text text-anchor="start" x="162" y="-42" font-family="Helvetica,sans-Serif" font-size="10.00">Harlinn::Windows::Direct</text>
<text text-anchor="middle" x="220" y="-31" font-family="Helvetica,sans-Serif" font-size="10.00">XVideoAccelerationService</text>
</a>
</g>
</g>
<!-- Node3 -->
<g id="Node000003" class="node">
<title>Node3</title>
<g id="a_Node000003"><a xlink:href="class_harlinn_1_1_windows_1_1_direct_x_video_decoder_service.html" target="_top" xlink:title=" ">
<polygon fill="white" stroke="#666666" points="446,-78 322,-78 322,-48 446,-48 446,-78"/>
<text text-anchor="start" x="330" y="-66" font-family="Helvetica,sans-Serif" font-size="10.00">Harlinn::Windows::Direct</text>
<text text-anchor="middle" x="384" y="-55" font-family="Helvetica,sans-Serif" font-size="10.00">XVideoDecoderService</text>
</a>
</g>
</g>
<!-- Node1&#45;&gt;Node3 -->
<g id="edge2_Node000001_Node000003" class="edge">
<title>Node1&#45;&gt;Node3</title>
<g id="a_edge2_Node000001_Node000003"><a xlink:title=" ">
<path fill="none" stroke="#63b8ff" d="M297.67,-50.36C305.67,-51.54 313.73,-52.74 321.53,-53.89"/>
<polygon fill="#63b8ff" stroke="#63b8ff" points="298.33,-46.92 287.92,-48.91 297.3,-53.84 298.33,-46.92"/>
</a>
</g>
</g>
<!-- Node4 -->
<g id="Node000004" class="node">
<title>Node4</title>
<g id="a_Node000004"><a xlink:href="class_harlinn_1_1_windows_1_1_direct_x_video_processor_service.html" target="_top" xlink:title=" ">
<polygon fill="white" stroke="#666666" points="446,-30 322,-30 322,0 446,0 446,-30"/>
<text text-anchor="start" x="330" y="-18" font-family="Helvetica,sans-Serif" font-size="10.00">Harlinn::Windows::Direct</text>
<text text-anchor="middle" x="384" y="-7" font-family="Helvetica,sans-Serif" font-size="10.00">XVideoProcessorService</text>
</a>
</g>
</g>
<!-- Node1&#45;&gt;Node4 -->
<g id="edge3_Node000001_Node000004" class="edge">
<title>Node1&#45;&gt;Node4</title>
<g id="a_edge3_Node000001_Node000004"><a xlink:title=" ">
<path fill="none" stroke="#63b8ff" d="M297.67,-27.64C305.67,-26.46 313.73,-25.26 321.53,-24.11"/>
<polygon fill="#63b8ff" stroke="#63b8ff" points="297.3,-24.16 287.92,-29.09 298.33,-31.08 297.3,-24.16"/>
</a>
</g>
</g>
<!-- Node2 -->
<g id="Node000002" class="node">
<title>Node2</title>
<g id="a_Node000002"><a xlink:href="class_harlinn_1_1_common_1_1_core_1_1_unknown.html" target="_top" xlink:title="Base class for COM interface wrappers.">
<polygon fill="white" stroke="#666666" points="118,-54 0,-54 0,-24 118,-24 118,-54"/>
<text text-anchor="start" x="8" y="-42" font-family="Helvetica,sans-Serif" font-size="10.00">Harlinn::Common::Core</text>
<text text-anchor="middle" x="59" y="-31" font-family="Helvetica,sans-Serif" font-size="10.00">::Unknown</text>
</a>
</g>
</g>
<!-- Node2&#45;&gt;Node1 -->
<g id="edge1_Node000001_Node000002" class="edge">
<title>Node2&#45;&gt;Node1</title>
<g id="a_edge1_Node000001_Node000002"><a xlink:title=" ">
<path fill="none" stroke="#63b8ff" d="M129.81,-39C137.76,-39 145.84,-39 153.72,-39"/>
<polygon fill="#63b8ff" stroke="#63b8ff" points="129.82,-35.5 119.82,-39 129.82,-42.5 129.82,-35.5"/>
</a>
</g>
</g>
</g>
</svg>
