<?xml version="1.0" encoding="UTF-8" standalone="no"?>
<!DOCTYPE svg PUBLIC "-//W3C//DTD SVG 1.1//EN"
 "http://www.w3.org/Graphics/SVG/1.1/DTD/svg11.dtd">
<!-- Generated by graphviz version 7.0.1 (20221109.1506)
 -->
<!-- Title: Harlinn::Common::Core::Blocks::BlockManager Pages: 1 -->
<svg width="187pt" height="126pt"
 viewBox="0.00 0.00 186.50 126.00" xmlns="http://www.w3.org/2000/svg" xmlns:xlink="http://www.w3.org/1999/xlink">
<g id="graph0" class="graph" transform="scale(1 1) rotate(0) translate(4 122)">
<title>Harlinn::Common::Core::Blocks::BlockManager</title>
<!-- Node1 -->
<g id="Node000001" class="node">
<title>Node1</title>
<g id="a_Node000001"><a xlink:title=" ">
<polygon fill="#999999" stroke="#666666" points="121,-30 0,-30 0,0 121,0 121,-30"/>
<text text-anchor="start" x="8" y="-18" font-family="Helvetica,sans-Serif" font-size="10.00">Harlinn::Common::Core</text>
<text text-anchor="middle" x="60.5" y="-7" font-family="Helvetica,sans-Serif" font-size="10.00">::Blocks::BlockManager</text>
</a>
</g>
</g>
<!-- Node2 -->
<g id="Node000002" class="node">
<title>Node2</title>
<g id="a_Node000002"><a xlink:href="class_harlinn_1_1_common_1_1_core_1_1_blocks_1_1_block.xhtml" target="_top" xlink:title=" ">
<polygon fill="white" stroke="#666666" points="119.5,-118 1.5,-118 1.5,-88 119.5,-88 119.5,-118"/>
<text text-anchor="start" x="9.5" y="-106" font-family="Helvetica,sans-Serif" font-size="10.00">Harlinn::Common::Core</text>
<text text-anchor="middle" x="60.5" y="-95" font-family="Helvetica,sans-Serif" font-size="10.00">::Blocks::Block</text>
</a>
</g>
</g>
<!-- Node2&#45;&gt;Node1 -->
<g id="edge1_Node000001_Node000002" class="edge">
<title>Node2&#45;&gt;Node1</title>
<g id="a_edge1_Node000001_Node000002"><a xlink:title=" ">
<path fill="none" stroke="#9a32cd" stroke-dasharray="5,2" d="M60.5,-76.6C60.5,-61.46 60.5,-42.8 60.5,-30.22"/>
<polygon fill="#9a32cd" stroke="#9a32cd" points="57,-76.29 60.5,-86.29 64,-76.29 57,-76.29"/>
</a>
</g>
<text text-anchor="middle" x="75.5" y="-62" font-family="Helvetica,sans-Serif" font-size="10.00" fill="grey"> head_</text>
<text text-anchor="middle" x="75.5" y="-51" font-family="Helvetica,sans-Serif" font-size="10.00" fill="grey">tail_</text>
</g>
<!-- Node2&#45;&gt;Node2 -->
<g id="edge2_Node000002_Node000002" class="edge">
<title>Node2&#45;&gt;Node2</title>
<g id="a_edge2_Node000002_Node000002"><a xlink:title=" ">
<path fill="none" stroke="#9a32cd" stroke-dasharray="5,2" d="M131.05,-108.6C135.09,-107.25 137.5,-105.38 137.5,-103 137.5,-98.88 130.28,-96.3 119.9,-95.27"/>
<polygon fill="#9a32cd" stroke="#9a32cd" points="130.56,-105.13 121.39,-110.45 131.87,-112.01 130.56,-105.13"/>
</a>
</g>
<text text-anchor="middle" x="158" y="-106" font-family="Helvetica,sans-Serif" font-size="10.00" fill="grey"> next_</text>
<text text-anchor="middle" x="158" y="-95" font-family="Helvetica,sans-Serif" font-size="10.00" fill="grey">previous_</text>
</g>
</g>
</svg>
