<?xml version="1.0" encoding="UTF-8" standalone="no"?>
<!DOCTYPE svg PUBLIC "-//W3C//DTD SVG 1.1//EN"
 "http://www.w3.org/Graphics/SVG/1.1/DTD/svg11.dtd">
<!-- Generated by graphviz version 7.0.1 (20221109.1506)
 -->
<!-- Title: Harlinn::Common::Core::Logging::Sinks::Storage::LogHashIndexT&lt; TableT, PrimaryKeyT, KeyFormatT, ValueFormatT &gt; Pages: 1 -->
<svg width="146pt" height="280pt"
 viewBox="0.00 0.00 146.00 280.00" xmlns="http://www.w3.org/2000/svg" xmlns:xlink="http://www.w3.org/1999/xlink">
<g id="graph0" class="graph" transform="scale(1 1) rotate(0) translate(4 276)">
<title>Harlinn::Common::Core::Logging::Sinks::Storage::LogHashIndexT&lt; TableT, PrimaryKeyT, KeyFormatT, ValueFormatT &gt;</title>
<!-- Node1 -->
<g id="Node000001" class="node">
<title>Node1</title>
<g id="a_Node000001"><a xlink:title="LogHashIndexT.">
<polygon fill="#999999" stroke="#666666" points="138,-63 0,-63 0,0 138,0 138,-63"/>
<text text-anchor="start" x="8" y="-51" font-family="Helvetica,sans-Serif" font-size="10.00">Harlinn::Common::Core</text>
<text text-anchor="start" x="8" y="-40" font-family="Helvetica,sans-Serif" font-size="10.00">::Logging::Sinks::Storage</text>
<text text-anchor="start" x="8" y="-29" font-family="Helvetica,sans-Serif" font-size="10.00">::LogHashIndexT&lt; TableT,</text>
<text text-anchor="start" x="8" y="-18" font-family="Helvetica,sans-Serif" font-size="10.00"> PrimaryKeyT, KeyFormatT,</text>
<text text-anchor="middle" x="69" y="-7" font-family="Helvetica,sans-Serif" font-size="10.00"> ValueFormatT &gt;</text>
</a>
</g>
</g>
<!-- Node2 -->
<g id="Node000002" class="node">
<title>Node2</title>
<g id="a_Node000002"><a xlink:href="class_harlinn_1_1_common_1_1_core_1_1_l_m_d_b_ex_1_1_hash_index.xhtml" target="_top" xlink:title="HashIndex.">
<polygon fill="white" stroke="#666666" points="128.5,-140 9.5,-140 9.5,-99 128.5,-99 128.5,-140"/>
<text text-anchor="start" x="17.5" y="-128" font-family="Helvetica,sans-Serif" font-size="10.00">Harlinn::Common::Core</text>
<text text-anchor="start" x="17.5" y="-117" font-family="Helvetica,sans-Serif" font-size="10.00">::LMDBEx::HashIndex&lt;</text>
<text text-anchor="middle" x="69" y="-106" font-family="Helvetica,sans-Serif" font-size="10.00"> PrimaryKeyT &gt;</text>
</a>
</g>
</g>
<!-- Node2&#45;&gt;Node1 -->
<g id="edge1_Node000001_Node000002" class="edge">
<title>Node2&#45;&gt;Node1</title>
<g id="a_edge1_Node000001_Node000002"><a xlink:title=" ">
<path fill="none" stroke="#63b8ff" d="M69,-87.06C69,-79.36 69,-71.13 69,-63.46"/>
<polygon fill="#63b8ff" stroke="#63b8ff" points="65.5,-87.04 69,-97.04 72.5,-87.04 65.5,-87.04"/>
</a>
</g>
</g>
<!-- Node3 -->
<g id="Node000003" class="node">
<title>Node3</title>
<g id="a_Node000003"><a xlink:href="class_harlinn_1_1_common_1_1_core_1_1_l_m_d_b_ex_1_1_index.xhtml" target="_top" xlink:title="Index.">
<polygon fill="white" stroke="#666666" points="128,-206 10,-206 10,-176 128,-176 128,-206"/>
<text text-anchor="start" x="18" y="-194" font-family="Helvetica,sans-Serif" font-size="10.00">Harlinn::Common::Core</text>
<text text-anchor="middle" x="69" y="-183" font-family="Helvetica,sans-Serif" font-size="10.00">::LMDBEx::Index</text>
</a>
</g>
</g>
<!-- Node3&#45;&gt;Node2 -->
<g id="edge2_Node000002_Node000003" class="edge">
<title>Node3&#45;&gt;Node2</title>
<g id="a_edge2_Node000002_Node000003"><a xlink:title=" ">
<path fill="none" stroke="#63b8ff" d="M69,-164.36C69,-156.45 69,-147.87 69,-140.42"/>
<polygon fill="#63b8ff" stroke="#63b8ff" points="65.5,-164.09 69,-174.09 72.5,-164.09 65.5,-164.09"/>
</a>
</g>
</g>
<!-- Node4 -->
<g id="Node000004" class="node">
<title>Node4</title>
<g id="a_Node000004"><a xlink:href="class_harlinn_1_1_common_1_1_core_1_1_l_m_d_b_ex_1_1_table_base.xhtml" target="_top" xlink:title="TableBase.">
<polygon fill="white" stroke="#666666" points="128,-272 10,-272 10,-242 128,-242 128,-272"/>
<text text-anchor="start" x="18" y="-260" font-family="Helvetica,sans-Serif" font-size="10.00">Harlinn::Common::Core</text>
<text text-anchor="middle" x="69" y="-249" font-family="Helvetica,sans-Serif" font-size="10.00">::LMDBEx::TableBase</text>
</a>
</g>
</g>
<!-- Node4&#45;&gt;Node3 -->
<g id="edge3_Node000003_Node000004" class="edge">
<title>Node4&#45;&gt;Node3</title>
<g id="a_edge3_Node000003_Node000004"><a xlink:title=" ">
<path fill="none" stroke="#63b8ff" d="M69,-230.39C69,-222.13 69,-213.28 69,-206.16"/>
<polygon fill="#63b8ff" stroke="#63b8ff" points="65.5,-230.28 69,-240.28 72.5,-230.28 65.5,-230.28"/>
</a>
</g>
</g>
</g>
</svg>
