<?xml version="1.0" encoding="UTF-8" standalone="no"?>
<!DOCTYPE svg PUBLIC "-//W3C//DTD SVG 1.1//EN"
 "http://www.w3.org/Graphics/SVG/1.1/DTD/svg11.dtd">
<!-- Generated by graphviz version 7.0.1 (20221109.1506)
 -->
<!-- Title: Harlinn::Common::Core::Security::SystemAlarmAccessControlEntry Pages: 1 -->
<svg width="1116pt" height="129pt"
 viewBox="0.00 0.00 1116.00 129.00" xmlns="http://www.w3.org/2000/svg" xmlns:xlink="http://www.w3.org/1999/xlink">
<g id="graph0" class="graph" transform="scale(1 1) rotate(0) translate(4 125)">
<title>Harlinn::Common::Core::Security::SystemAlarmAccessControlEntry</title>
<!-- Node1 -->
<g id="Node000001" class="node">
<title>Node1</title>
<g id="a_Node000001"><a xlink:title=" ">
<polygon fill="#999999" stroke="#666666" points="1108,-85.5 951,-85.5 951,-44.5 1108,-44.5 1108,-85.5"/>
<text text-anchor="start" x="959" y="-73.5" font-family="Helvetica,sans-Serif" font-size="10.00">Harlinn::Common::Core</text>
<text text-anchor="start" x="959" y="-62.5" font-family="Helvetica,sans-Serif" font-size="10.00">::Security::SystemAlarmAccess</text>
<text text-anchor="middle" x="1029.5" y="-51.5" font-family="Helvetica,sans-Serif" font-size="10.00">ControlEntry</text>
</a>
</g>
</g>
<!-- Node2 -->
<g id="Node000002" class="node">
<title>Node2</title>
<g id="a_Node000002"><a xlink:href="class_harlinn_1_1_common_1_1_core_1_1_security_1_1_access_control_entry_base.xhtml" target="_top" xlink:title=" ">
<polygon fill="white" stroke="#666666" points="914,-85.5 689,-85.5 689,-44.5 914,-44.5 914,-85.5"/>
<text text-anchor="start" x="697" y="-73.5" font-family="Helvetica,sans-Serif" font-size="10.00">Harlinn::Common::Core</text>
<text text-anchor="start" x="697" y="-62.5" font-family="Helvetica,sans-Serif" font-size="10.00">::Security::AccessControlEntry</text>
<text text-anchor="middle" x="801.5" y="-51.5" font-family="Helvetica,sans-Serif" font-size="10.00">Base&lt; SYSTEM_ALARM_ACE, AccessMask &gt;</text>
</a>
</g>
</g>
<!-- Node2&#45;&gt;Node1 -->
<g id="edge1_Node000001_Node000002" class="edge">
<title>Node2&#45;&gt;Node1</title>
<g id="a_edge1_Node000001_Node000002"><a xlink:title=" ">
<path fill="none" stroke="#63b8ff" d="M925.45,-65C934,-65 942.48,-65 950.68,-65"/>
<polygon fill="#63b8ff" stroke="#63b8ff" points="925.69,-61.5 915.69,-65 925.69,-68.5 925.69,-61.5"/>
</a>
</g>
</g>
<!-- Node3 -->
<g id="Node000003" class="node">
<title>Node3</title>
<g id="a_Node000003"><a xlink:href="class_harlinn_1_1_common_1_1_core_1_1_security_1_1_access_control_entry.xhtml" target="_top" xlink:title="Base class for the various ACE wrappers.">
<polygon fill="white" stroke="#666666" points="311,-30 159,-30 159,0 311,0 311,-30"/>
<text text-anchor="start" x="167" y="-18" font-family="Helvetica,sans-Serif" font-size="10.00">Harlinn::Common::Core</text>
<text text-anchor="middle" x="235" y="-7" font-family="Helvetica,sans-Serif" font-size="10.00">::Security::AccessControlEntry</text>
</a>
</g>
</g>
<!-- Node3&#45;&gt;Node2 -->
<g id="edge2_Node000002_Node000003" class="edge">
<title>Node3&#45;&gt;Node2</title>
<g id="a_edge2_Node000002_Node000003"><a xlink:title=" ">
<path fill="none" stroke="#63b8ff" d="M322.35,-19.83C381.43,-23.39 461.52,-28.68 532,-35 583.51,-39.62 640.45,-45.82 688.59,-51.39"/>
<polygon fill="#63b8ff" stroke="#63b8ff" points="322.9,-16.36 312.7,-19.26 322.48,-23.35 322.9,-16.36"/>
</a>
</g>
</g>
<!-- Node6 -->
<g id="Node000006" class="node">
<title>Node6</title>
<g id="a_Node000006"><a xlink:href="class_harlinn_1_1_common_1_1_core_1_1_security_1_1_access_control_entry_base.xhtml" target="_top" xlink:title=" ">
<polygon fill="white" stroke="#666666" points="532,-85.5 380,-85.5 380,-44.5 532,-44.5 532,-85.5"/>
<text text-anchor="start" x="388" y="-73.5" font-family="Helvetica,sans-Serif" font-size="10.00">Harlinn::Common::Core</text>
<text text-anchor="start" x="388" y="-62.5" font-family="Helvetica,sans-Serif" font-size="10.00">::Security::AccessControlEntry</text>
<text text-anchor="middle" x="456" y="-51.5" font-family="Helvetica,sans-Serif" font-size="10.00">Base&lt; AceT, AccessMaskT &gt;</text>
</a>
</g>
</g>
<!-- Node3&#45;&gt;Node6 -->
<g id="edge6_Node000006_Node000003" class="edge">
<title>Node3&#45;&gt;Node6</title>
<g id="a_edge6_Node000006_Node000003"><a xlink:title=" ">
<path fill="none" stroke="#63b8ff" d="M314.96,-33.03C336,-37.83 358.67,-43.01 379.51,-47.77"/>
<polygon fill="#63b8ff" stroke="#63b8ff" points="315.8,-29.63 305.27,-30.81 314.24,-36.45 315.8,-29.63"/>
</a>
</g>
</g>
<!-- Node4 -->
<g id="Node000004" class="node">
<title>Node4</title>
<g id="a_Node000004"><a xlink:title=" ">
<polygon fill="white" stroke="#666666" points="102.5,-24.5 19.5,-24.5 19.5,-5.5 102.5,-5.5 102.5,-24.5"/>
<text text-anchor="middle" x="61" y="-12.5" font-family="Helvetica,sans-Serif" font-size="10.00">ACE_HEADER</text>
</a>
</g>
</g>
<!-- Node4&#45;&gt;Node3 -->
<g id="edge3_Node000003_Node000004" class="edge">
<title>Node4&#45;&gt;Node3</title>
<g id="a_edge3_Node000003_Node000004"><a xlink:title=" ">
<path fill="none" stroke="#8b1a1a" d="M114.2,-15C128.27,-15 143.77,-15 158.82,-15"/>
<polygon fill="#8b1a1a" stroke="#8b1a1a" points="114.28,-11.5 104.28,-15 114.28,-18.5 114.28,-11.5"/>
</a>
</g>
</g>
<!-- Node5 -->
<g id="Node000005" class="node">
<title>Node5</title>
<g id="a_Node000005"><a xlink:href="class_harlinn_1_1_common_1_1_core_1_1_security_1_1_access_mask.xhtml" target="_top" xlink:title="An ACCESS_MASK wrapper class. The ACCESS_MASK data type is a DWORD value that defines standard,...">
<polygon fill="white" stroke="#666666" points="122,-121 0,-121 0,-91 122,-91 122,-121"/>
<text text-anchor="start" x="8" y="-109" font-family="Helvetica,sans-Serif" font-size="10.00">Harlinn::Common::Core</text>
<text text-anchor="middle" x="61" y="-98" font-family="Helvetica,sans-Serif" font-size="10.00">::Security::AccessMask</text>
</a>
</g>
</g>
<!-- Node5&#45;&gt;Node2 -->
<g id="edge4_Node000002_Node000005" class="edge">
<title>Node5&#45;&gt;Node2</title>
<g id="a_edge4_Node000002_Node000005"><a xlink:title=" ">
<path fill="none" stroke="#9a32cd" stroke-dasharray="5,2" d="M133.66,-108.34C247.8,-111.14 477.72,-113.02 671,-91 682.28,-89.71 694.04,-87.95 705.67,-85.95"/>
<polygon fill="#9a32cd" stroke="#9a32cd" points="133.92,-104.84 123.83,-108.09 133.74,-111.84 133.92,-104.84"/>
</a>
</g>
<text text-anchor="middle" x="345.5" y="-112" font-family="Helvetica,sans-Serif" font-size="10.00" fill="grey"> mask_</text>
</g>
<!-- Node7 -->
<g id="Node000007" class="node">
<title>Node7</title>
<g id="a_Node000007"><a xlink:href="class_harlinn_1_1_common_1_1_core_1_1_security_1_1_access_mask_t.xhtml" target="_top" xlink:title=" ">
<polygon fill="white" stroke="#666666" points="298.5,-90.5 171.5,-90.5 171.5,-49.5 298.5,-49.5 298.5,-90.5"/>
<text text-anchor="start" x="179.5" y="-78.5" font-family="Helvetica,sans-Serif" font-size="10.00">Harlinn::Common::Core</text>
<text text-anchor="start" x="179.5" y="-67.5" font-family="Helvetica,sans-Serif" font-size="10.00">::Security::AccessMaskT</text>
<text text-anchor="middle" x="235" y="-56.5" font-family="Helvetica,sans-Serif" font-size="10.00">&lt; DerivedT, RightsT &gt;</text>
</a>
</g>
</g>
<!-- Node5&#45;&gt;Node7 -->
<g id="edge8_Node000007_Node000005" class="edge">
<title>Node5&#45;&gt;Node7</title>
<g id="a_edge8_Node000007_Node000005"><a xlink:title=" ">
<path fill="none" stroke="#63b8ff" d="M133.13,-91.11C145.77,-88.47 158.86,-85.73 171.25,-83.13"/>
<polygon fill="#63b8ff" stroke="#63b8ff" points="132.71,-87.62 123.64,-93.1 134.14,-94.48 132.71,-87.62"/>
</a>
</g>
</g>
<!-- Node6&#45;&gt;Node2 -->
<g id="edge5_Node000002_Node000006" class="edge">
<title>Node6&#45;&gt;Node2</title>
<g id="a_edge5_Node000002_Node000006"><a xlink:title=" ">
<path fill="none" stroke="orange" stroke-dasharray="5,2" d="M543.64,-65C587.65,-65 641.65,-65 688.75,-65"/>
<polygon fill="orange" stroke="orange" points="543.9,-61.5 533.9,-65 543.9,-68.5 543.9,-61.5"/>
</a>
</g>
<text text-anchor="start" x="550" y="-79" font-family="Helvetica,sans-Serif" font-size="10.00" fill="grey"> &lt; SYSTEM_ALARM_ACE,</text>
<text text-anchor="middle" x="610.5" y="-68" font-family="Helvetica,sans-Serif" font-size="10.00" fill="grey"> AccessMask &gt;</text>
</g>
<!-- Node7&#45;&gt;Node6 -->
<g id="edge7_Node000006_Node000007" class="edge">
<title>Node7&#45;&gt;Node6</title>
<g id="a_edge7_Node000006_Node000007"><a xlink:title=" ">
<path fill="none" stroke="#9a32cd" stroke-dasharray="5,2" d="M310.26,-68.3C332.69,-67.79 357.33,-67.23 379.81,-66.72"/>
<polygon fill="#9a32cd" stroke="#9a32cd" points="310.19,-64.81 300.27,-68.53 310.35,-71.8 310.19,-64.81"/>
</a>
</g>
<text text-anchor="middle" x="345.5" y="-71" font-family="Helvetica,sans-Serif" font-size="10.00" fill="grey"> mask_</text>
</g>
</g>
</svg>
