<?xml version="1.0" encoding="UTF-8" standalone="no"?>
<!DOCTYPE svg PUBLIC "-//W3C//DTD SVG 1.1//EN"
 "http://www.w3.org/Graphics/SVG/1.1/DTD/svg11.dtd">
<!-- Generated by graphviz version 7.0.1 (20221109.1506)
 -->
<!-- Title: Harlinn::OCI::SimpleArrayDefine&lt; BT, externalType &gt; Pages: 1 -->
<svg width="143pt" height="203pt"
 viewBox="0.00 0.00 143.00 203.00" xmlns="http://www.w3.org/2000/svg" xmlns:xlink="http://www.w3.org/1999/xlink">
<g id="graph0" class="graph" transform="scale(1 1) rotate(0) translate(4 199)">
<title>Harlinn::OCI::SimpleArrayDefine&lt; BT, externalType &gt;</title>
<!-- Node1 -->
<g id="Node000001" class="node">
<title>Node1</title>
<g id="a_Node000001"><a xlink:title="SimpleArrayDefine, template used to implement defines for basic data types for the ArrayDataReader.">
<polygon fill="#999999" stroke="#666666" points="135,-30 0,-30 0,0 135,0 135,-30"/>
<text text-anchor="start" x="8" y="-18" font-family="Helvetica,sans-Serif" font-size="10.00">Harlinn::OCI::SimpleArray</text>
<text text-anchor="middle" x="67.5" y="-7" font-family="Helvetica,sans-Serif" font-size="10.00">Define&lt; BT, externalType &gt;</text>
</a>
</g>
</g>
<!-- Node2 -->
<g id="Node000002" class="node">
<title>Node2</title>
<g id="a_Node000002"><a xlink:href="class_harlinn_1_1_o_c_i_1_1_array_define.xhtml" target="_top" xlink:title="ArrayDefine, base class for defines for use with the ArrayDataReader class.">
<polygon fill="white" stroke="#666666" points="130,-85 5,-85 5,-66 130,-66 130,-85"/>
<text text-anchor="middle" x="67.5" y="-73" font-family="Helvetica,sans-Serif" font-size="10.00">Harlinn::OCI::ArrayDefine</text>
</a>
</g>
</g>
<!-- Node2&#45;&gt;Node1 -->
<g id="edge1_Node000001_Node000002" class="edge">
<title>Node2&#45;&gt;Node1</title>
<g id="a_edge1_Node000001_Node000002"><a xlink:title=" ">
<path fill="none" stroke="#63b8ff" d="M67.5,-54.51C67.5,-46.49 67.5,-37.43 67.5,-30.11"/>
<polygon fill="#63b8ff" stroke="#63b8ff" points="64,-54.35 67.5,-64.35 71,-54.35 64,-54.35"/>
</a>
</g>
</g>
<!-- Node3 -->
<g id="Node000003" class="node">
<title>Node3</title>
<g id="a_Node000003"><a xlink:href="class_harlinn_1_1_o_c_i_1_1_define_base.xhtml" target="_top" xlink:title="DefineBase, base class for all defines.">
<polygon fill="white" stroke="#666666" points="130,-140 5,-140 5,-121 130,-121 130,-140"/>
<text text-anchor="middle" x="67.5" y="-128" font-family="Helvetica,sans-Serif" font-size="10.00">Harlinn::OCI::DefineBase</text>
</a>
</g>
</g>
<!-- Node3&#45;&gt;Node2 -->
<g id="edge2_Node000002_Node000003" class="edge">
<title>Node3&#45;&gt;Node2</title>
<g id="a_edge2_Node000002_Node000003"><a xlink:title=" ">
<path fill="none" stroke="#63b8ff" d="M67.5,-109.35C67.5,-101.1 67.5,-91.97 67.5,-85.44"/>
<polygon fill="#63b8ff" stroke="#63b8ff" points="64,-109.23 67.5,-119.23 71,-109.23 64,-109.23"/>
</a>
</g>
</g>
<!-- Node4 -->
<g id="Node000004" class="node">
<title>Node4</title>
<g id="a_Node000004"><a xlink:href="class_harlinn_1_1_o_c_i_1_1_handle_base.xhtml" target="_top" xlink:title="Base class for OCI handle wrappers.">
<polygon fill="white" stroke="#666666" points="131.5,-195 3.5,-195 3.5,-176 131.5,-176 131.5,-195"/>
<text text-anchor="middle" x="67.5" y="-183" font-family="Helvetica,sans-Serif" font-size="10.00">Harlinn::OCI::HandleBase</text>
</a>
</g>
</g>
<!-- Node4&#45;&gt;Node3 -->
<g id="edge3_Node000003_Node000004" class="edge">
<title>Node4&#45;&gt;Node3</title>
<g id="a_edge3_Node000003_Node000004"><a xlink:title=" ">
<path fill="none" stroke="#63b8ff" d="M67.5,-164.35C67.5,-156.1 67.5,-146.97 67.5,-140.44"/>
<polygon fill="#63b8ff" stroke="#63b8ff" points="64,-164.23 67.5,-174.23 71,-164.23 64,-164.23"/>
</a>
</g>
</g>
</g>
</svg>
