<?xml version="1.0" encoding="UTF-8" standalone="no"?>
<!DOCTYPE svg PUBLIC "-//W3C//DTD SVG 1.1//EN"
 "http://www.w3.org/Graphics/SVG/1.1/DTD/svg11.dtd">
<!-- Generated by graphviz version 7.0.1 (20221109.1506)
 -->
<!-- Title: Harlinn::Common::Core::Security::TokenAccessMask Pages: 1 -->
<svg width="789pt" height="82pt"
 viewBox="0.00 0.00 789.00 81.50" xmlns="http://www.w3.org/2000/svg" xmlns:xlink="http://www.w3.org/1999/xlink">
<g id="graph0" class="graph" transform="scale(1 1) rotate(0) translate(4 77.5)">
<title>Harlinn::Common::Core::Security::TokenAccessMask</title>
<!-- Node1 -->
<g id="Node000001" class="node">
<title>Node1</title>
<g id="a_Node000001"><a xlink:title="An access mask implmentation for the access rights of a Windows access token.">
<polygon fill="#999999" stroke="#666666" points="781,-62.5 633,-62.5 633,-32.5 781,-32.5 781,-62.5"/>
<text text-anchor="start" x="641" y="-50.5" font-family="Helvetica,sans-Serif" font-size="10.00">Harlinn::Common::Core</text>
<text text-anchor="middle" x="707" y="-39.5" font-family="Helvetica,sans-Serif" font-size="10.00">::Security::TokenAccessMask</text>
</a>
</g>
</g>
<!-- Node2 -->
<g id="Node000002" class="node">
<title>Node2</title>
<g id="a_Node000002"><a xlink:href="class_harlinn_1_1_common_1_1_core_1_1_security_1_1_access_mask_t.xhtml" target="_top" xlink:title=" ">
<polygon fill="white" stroke="#666666" points="596,-73.5 422,-73.5 422,-21.5 596,-21.5 596,-73.5"/>
<text text-anchor="start" x="430" y="-61.5" font-family="Helvetica,sans-Serif" font-size="10.00">Harlinn::Common::Core</text>
<text text-anchor="start" x="430" y="-50.5" font-family="Helvetica,sans-Serif" font-size="10.00">::Security::AccessMaskT</text>
<text text-anchor="start" x="430" y="-39.5" font-family="Helvetica,sans-Serif" font-size="10.00">&lt; TokenAccessMask, TokenAccess</text>
<text text-anchor="middle" x="509" y="-28.5" font-family="Helvetica,sans-Serif" font-size="10.00">Rights &gt;</text>
</a>
</g>
</g>
<!-- Node2&#45;&gt;Node1 -->
<g id="edge1_Node000001_Node000002" class="edge">
<title>Node2&#45;&gt;Node1</title>
<g id="a_edge1_Node000001_Node000002"><a xlink:title=" ">
<path fill="none" stroke="#63b8ff" d="M607.66,-47.5C616.05,-47.5 624.44,-47.5 632.58,-47.5"/>
<polygon fill="#63b8ff" stroke="#63b8ff" points="607.77,-44 597.77,-47.5 607.77,-51 607.77,-44"/>
</a>
</g>
</g>
<!-- Node3 -->
<g id="Node000003" class="node">
<title>Node3</title>
<g id="a_Node000003"><a xlink:href="class_harlinn_1_1_common_1_1_core_1_1_security_1_1_access_mask.xhtml" target="_top" xlink:title="An ACCESS_MASK wrapper class. The ACCESS_MASK data type is a DWORD value that defines standard,...">
<polygon fill="white" stroke="#666666" points="122,-59.5 0,-59.5 0,-29.5 122,-29.5 122,-59.5"/>
<text text-anchor="start" x="8" y="-47.5" font-family="Helvetica,sans-Serif" font-size="10.00">Harlinn::Common::Core</text>
<text text-anchor="middle" x="61" y="-36.5" font-family="Helvetica,sans-Serif" font-size="10.00">::Security::AccessMask</text>
</a>
</g>
</g>
<!-- Node3&#45;&gt;Node2 -->
<g id="edge2_Node000002_Node000003" class="edge">
<title>Node3&#45;&gt;Node2</title>
<g id="a_edge2_Node000002_Node000003"><a xlink:title=" ">
<path fill="none" stroke="#63b8ff" d="M133.43,-49.73C202.62,-54.1 310.52,-59.09 404,-55.5 409.79,-55.28 415.76,-54.99 421.77,-54.65"/>
<polygon fill="#63b8ff" stroke="#63b8ff" points="133.96,-46.26 123.75,-49.1 133.51,-53.24 133.96,-46.26"/>
</a>
</g>
</g>
<!-- Node4 -->
<g id="Node000004" class="node">
<title>Node4</title>
<g id="a_Node000004"><a xlink:href="class_harlinn_1_1_common_1_1_core_1_1_security_1_1_access_mask_t.xhtml" target="_top" xlink:title=" ">
<polygon fill="white" stroke="#666666" points="286,-41 159,-41 159,0 286,0 286,-41"/>
<text text-anchor="start" x="167" y="-29" font-family="Helvetica,sans-Serif" font-size="10.00">Harlinn::Common::Core</text>
<text text-anchor="start" x="167" y="-18" font-family="Helvetica,sans-Serif" font-size="10.00">::Security::AccessMaskT</text>
<text text-anchor="middle" x="222.5" y="-7" font-family="Helvetica,sans-Serif" font-size="10.00">&lt; DerivedT, RightsT &gt;</text>
</a>
</g>
</g>
<!-- Node3&#45;&gt;Node4 -->
<g id="edge4_Node000004_Node000003" class="edge">
<title>Node3&#45;&gt;Node4</title>
<g id="a_edge4_Node000004_Node000003"><a xlink:title=" ">
<path fill="none" stroke="#63b8ff" d="M133.61,-33.72C141.99,-32.46 150.48,-31.19 158.72,-29.95"/>
<polygon fill="#63b8ff" stroke="#63b8ff" points="133.16,-30.25 123.8,-35.2 134.21,-37.17 133.16,-30.25"/>
</a>
</g>
</g>
<!-- Node4&#45;&gt;Node2 -->
<g id="edge3_Node000002_Node000004" class="edge">
<title>Node4&#45;&gt;Node2</title>
<g id="a_edge3_Node000002_Node000004"><a xlink:title=" ">
<path fill="none" stroke="orange" stroke-dasharray="5,2" d="M297.52,-24.79C330.2,-26.96 369.06,-29.89 404,-33.5 409.71,-34.09 415.59,-34.75 421.51,-35.44"/>
<polygon fill="orange" stroke="orange" points="297.95,-21.31 287.74,-24.16 297.5,-28.3 297.95,-21.31"/>
</a>
</g>
<text text-anchor="start" x="304" y="-47.5" font-family="Helvetica,sans-Serif" font-size="10.00" fill="grey"> &lt; TokenAccessMask,</text>
<text text-anchor="middle" x="354" y="-36.5" font-family="Helvetica,sans-Serif" font-size="10.00" fill="grey"> TokenAccessRights &gt;</text>
</g>
</g>
</svg>
