<?xml version="1.0" encoding="UTF-8" standalone="no"?>
<!DOCTYPE svg PUBLIC "-//W3C//DTD SVG 1.1//EN"
 "http://www.w3.org/Graphics/SVG/1.1/DTD/svg11.dtd">
<!-- Generated by graphviz version 7.0.1 (20221109.1506)
 -->
<!-- Title: Harlinn::Windows::ButtonBase Pages: 1 -->
<svg width="718pt" height="198pt"
 viewBox="0.00 0.00 718.00 198.00" xmlns="http://www.w3.org/2000/svg" xmlns:xlink="http://www.w3.org/1999/xlink">
<g id="graph0" class="graph" transform="scale(1 1) rotate(0) translate(4 194)">
<title>Harlinn::Windows::ButtonBase</title>
<!-- Node1 -->
<g id="Node000001" class="node">
<title>Node1</title>
<g id="a_Node000001"><a xlink:title=" ">
<polygon fill="#999999" stroke="#666666" points="314,-77 165,-77 165,-58 314,-58 314,-77"/>
<text text-anchor="middle" x="239.5" y="-65" font-family="Helvetica,sans-Serif" font-size="10.00">Harlinn::Windows::ButtonBase</text>
</a>
</g>
</g>
<!-- Node3 -->
<g id="Node000003" class="node">
<title>Node3</title>
<g id="a_Node000003"><a xlink:href="class_harlinn_1_1_windows_1_1_push_button_base.html" target="_top" xlink:title=" ">
<polygon fill="white" stroke="#666666" points="522,-123 350,-123 350,-104 522,-104 522,-123"/>
<text text-anchor="middle" x="436" y="-111" font-family="Helvetica,sans-Serif" font-size="10.00">Harlinn::Windows::PushButtonBase</text>
</a>
</g>
</g>
<!-- Node1&#45;&gt;Node3 -->
<g id="edge2_Node000001_Node000003" class="edge">
<title>Node1&#45;&gt;Node3</title>
<g id="a_edge2_Node000001_Node000003"><a xlink:title=" ">
<path fill="none" stroke="#63b8ff" d="M293.82,-80.11C325.01,-87.49 363.84,-96.67 392.88,-103.54"/>
<polygon fill="#63b8ff" stroke="#63b8ff" points="294.71,-76.73 284.18,-77.83 293.1,-83.54 294.71,-76.73"/>
</a>
</g>
</g>
<!-- Node7 -->
<g id="Node000007" class="node">
<title>Node7</title>
<g id="a_Node000007"><a xlink:href="class_harlinn_1_1_windows_1_1_state_button.html" target="_top" xlink:title=" ">
<polygon fill="white" stroke="#666666" points="511,-56 361,-56 361,-37 511,-37 511,-56"/>
<text text-anchor="middle" x="436" y="-44" font-family="Helvetica,sans-Serif" font-size="10.00">Harlinn::Windows::StateButton</text>
</a>
</g>
</g>
<!-- Node1&#45;&gt;Node7 -->
<g id="edge6_Node000001_Node000007" class="edge">
<title>Node1&#45;&gt;Node7</title>
<g id="a_edge6_Node000001_Node000007"><a xlink:title=" ">
<path fill="none" stroke="#63b8ff" d="M325.44,-58.33C337.15,-57.07 349.1,-55.77 360.6,-54.53"/>
<polygon fill="#63b8ff" stroke="#63b8ff" points="325.38,-54.82 315.81,-59.37 326.13,-61.77 325.38,-54.82"/>
</a>
</g>
</g>
<!-- Node2 -->
<g id="Node000002" class="node">
<title>Node2</title>
<g id="a_Node000002"><a xlink:href="class_harlinn_1_1_windows_1_1_control.html" target="_top" xlink:title=" ">
<polygon fill="white" stroke="#666666" points="129,-77 0,-77 0,-58 129,-58 129,-77"/>
<text text-anchor="middle" x="64.5" y="-65" font-family="Helvetica,sans-Serif" font-size="10.00">Harlinn::Windows::Control</text>
</a>
</g>
</g>
<!-- Node2&#45;&gt;Node1 -->
<g id="edge1_Node000001_Node000002" class="edge">
<title>Node2&#45;&gt;Node1</title>
<g id="a_edge1_Node000001_Node000002"><a xlink:title=" ">
<path fill="none" stroke="#63b8ff" d="M140.85,-67.5C148.74,-67.5 156.74,-67.5 164.61,-67.5"/>
<polygon fill="#63b8ff" stroke="#63b8ff" points="140.94,-64 130.94,-67.5 140.94,-71 140.94,-64"/>
</a>
</g>
</g>
<!-- Node4 -->
<g id="Node000004" class="node">
<title>Node4</title>
<g id="a_Node000004"><a xlink:href="class_harlinn_1_1_windows_1_1_button.html" target="_top" xlink:title=" ">
<polygon fill="white" stroke="#666666" points="697.5,-190 570.5,-190 570.5,-171 697.5,-171 697.5,-190"/>
<text text-anchor="middle" x="634" y="-178" font-family="Helvetica,sans-Serif" font-size="10.00">Harlinn::Windows::Button</text>
</a>
</g>
</g>
<!-- Node3&#45;&gt;Node4 -->
<g id="edge3_Node000003_Node000004" class="edge">
<title>Node3&#45;&gt;Node4</title>
<g id="a_edge3_Node000003_Node000004"><a xlink:title=" ">
<path fill="none" stroke="#63b8ff" d="M469.78,-127.84C493.89,-138.06 527.61,-151.67 558,-161.5 568.22,-164.81 579.38,-167.9 589.89,-170.6"/>
<polygon fill="#63b8ff" stroke="#63b8ff" points="471.39,-124.72 460.82,-124.01 468.64,-131.16 471.39,-124.72"/>
</a>
</g>
</g>
<!-- Node5 -->
<g id="Node000005" class="node">
<title>Node5</title>
<g id="a_Node000005"><a xlink:href="class_harlinn_1_1_windows_1_1_command_button.html" target="_top" xlink:title=" ">
<polygon fill="white" stroke="#666666" points="705.5,-152.5 562.5,-152.5 562.5,-122.5 705.5,-122.5 705.5,-152.5"/>
<text text-anchor="start" x="570.5" y="-140.5" font-family="Helvetica,sans-Serif" font-size="10.00">Harlinn::Windows::Command</text>
<text text-anchor="middle" x="634" y="-129.5" font-family="Helvetica,sans-Serif" font-size="10.00">Button</text>
</a>
</g>
</g>
<!-- Node3&#45;&gt;Node5 -->
<g id="edge4_Node000003_Node000005" class="edge">
<title>Node3&#45;&gt;Node5</title>
<g id="a_edge4_Node000003_Node000005"><a xlink:title=" ">
<path fill="none" stroke="#63b8ff" d="M529.72,-124.85C540.62,-126.19 551.61,-127.53 562.14,-128.82"/>
<polygon fill="#63b8ff" stroke="#63b8ff" points="530.27,-121.4 519.92,-123.65 529.42,-128.34 530.27,-121.4"/>
</a>
</g>
</g>
<!-- Node6 -->
<g id="Node000006" class="node">
<title>Node6</title>
<g id="a_Node000006"><a xlink:href="class_harlinn_1_1_windows_1_1_drop_down_button.html" target="_top" xlink:title=" ">
<polygon fill="white" stroke="#666666" points="705.5,-104.5 562.5,-104.5 562.5,-74.5 705.5,-74.5 705.5,-104.5"/>
<text text-anchor="start" x="570.5" y="-92.5" font-family="Helvetica,sans-Serif" font-size="10.00">Harlinn::Windows::DropDown</text>
<text text-anchor="middle" x="634" y="-81.5" font-family="Helvetica,sans-Serif" font-size="10.00">Button</text>
</a>
</g>
</g>
<!-- Node3&#45;&gt;Node6 -->
<g id="edge5_Node000003_Node000006" class="edge">
<title>Node3&#45;&gt;Node6</title>
<g id="a_edge5_Node000003_Node000006"><a xlink:title=" ">
<path fill="none" stroke="#63b8ff" d="M529.72,-102.15C540.62,-100.81 551.61,-99.47 562.14,-98.18"/>
<polygon fill="#63b8ff" stroke="#63b8ff" points="529.42,-98.66 519.92,-103.35 530.27,-105.6 529.42,-98.66"/>
</a>
</g>
</g>
<!-- Node8 -->
<g id="Node000008" class="node">
<title>Node8</title>
<g id="a_Node000008"><a xlink:href="class_harlinn_1_1_windows_1_1_check_box.html" target="_top" xlink:title=" ">
<polygon fill="white" stroke="#666666" points="705.5,-56 562.5,-56 562.5,-37 705.5,-37 705.5,-56"/>
<text text-anchor="middle" x="634" y="-44" font-family="Helvetica,sans-Serif" font-size="10.00">Harlinn::Windows::CheckBox</text>
</a>
</g>
</g>
<!-- Node7&#45;&gt;Node8 -->
<g id="edge7_Node000007_Node000008" class="edge">
<title>Node7&#45;&gt;Node8</title>
<g id="a_edge7_Node000007_Node000008"><a xlink:title=" ">
<path fill="none" stroke="#63b8ff" d="M522.84,-46.5C536,-46.5 549.45,-46.5 562.23,-46.5"/>
<polygon fill="#63b8ff" stroke="#63b8ff" points="522.89,-43 512.89,-46.5 522.89,-50 522.89,-43"/>
</a>
</g>
</g>
<!-- Node9 -->
<g id="Node000009" class="node">
<title>Node9</title>
<g id="a_Node000009"><a xlink:href="class_harlinn_1_1_windows_1_1_radio_button.html" target="_top" xlink:title=" ">
<polygon fill="white" stroke="#666666" points="710,-19 558,-19 558,0 710,0 710,-19"/>
<text text-anchor="middle" x="634" y="-7" font-family="Helvetica,sans-Serif" font-size="10.00">Harlinn::Windows::RadioButton</text>
</a>
</g>
</g>
<!-- Node7&#45;&gt;Node9 -->
<g id="edge8_Node000007_Node000009" class="edge">
<title>Node7&#45;&gt;Node9</title>
<g id="a_edge8_Node000007_Node000009"><a xlink:title=" ">
<path fill="none" stroke="#63b8ff" d="M500.9,-34.44C526.53,-29.6 555.72,-24.09 580.12,-19.48"/>
<polygon fill="#63b8ff" stroke="#63b8ff" points="500.45,-30.96 491.27,-36.26 501.75,-37.84 500.45,-30.96"/>
</a>
</g>
</g>
</g>
</svg>
