<?xml version="1.0" encoding="UTF-8" standalone="no"?>
<!DOCTYPE svg PUBLIC "-//W3C//DTD SVG 1.1//EN"
 "http://www.w3.org/Graphics/SVG/1.1/DTD/svg11.dtd">
<!-- Generated by graphviz version 7.0.1 (20221109.1506)
 -->
<!-- Title: Harlinn::Common::Core::ThreadGroup Pages: 1 -->
<svg width="839pt" height="144pt"
 viewBox="0.00 0.00 839.00 143.50" xmlns="http://www.w3.org/2000/svg" xmlns:xlink="http://www.w3.org/1999/xlink">
<g id="graph0" class="graph" transform="scale(1 1) rotate(0) translate(4 139.5)">
<title>Harlinn::Common::Core::ThreadGroup</title>
<!-- Node1 -->
<g id="Node000001" class="node">
<title>Node1</title>
<g id="a_Node000001"><a xlink:title=" ">
<polygon fill="#999999" stroke="#666666" points="831,-108.5 713,-108.5 713,-78.5 831,-78.5 831,-108.5"/>
<text text-anchor="start" x="721" y="-96.5" font-family="Helvetica,sans-Serif" font-size="10.00">Harlinn::Common::Core</text>
<text text-anchor="middle" x="772" y="-85.5" font-family="Helvetica,sans-Serif" font-size="10.00">::ThreadGroup</text>
</a>
</g>
</g>
<!-- Node2 -->
<g id="Node000002" class="node">
<title>Node2</title>
<g id="a_Node000002"><a xlink:href="class_harlinn_1_1_common_1_1_core_1_1_critical_section.html" target="_top" xlink:title="A critical section object provides synchronization similar to that provided by a mutex object,...">
<polygon fill="white" stroke="#666666" points="593,-135.5 475,-135.5 475,-105.5 593,-105.5 593,-135.5"/>
<text text-anchor="start" x="483" y="-123.5" font-family="Helvetica,sans-Serif" font-size="10.00">Harlinn::Common::Core</text>
<text text-anchor="middle" x="534" y="-112.5" font-family="Helvetica,sans-Serif" font-size="10.00">::CriticalSection</text>
</a>
</g>
</g>
<!-- Node2&#45;&gt;Node1 -->
<g id="edge1_Node000001_Node000002" class="edge">
<title>Node2&#45;&gt;Node1</title>
<g id="a_edge1_Node000001_Node000002"><a xlink:title=" ">
<path fill="none" stroke="#9a32cd" stroke-dasharray="5,2" d="M604.69,-112.53C638.99,-108.6 679.87,-103.93 712.52,-100.19"/>
<polygon fill="#9a32cd" stroke="#9a32cd" points="604.38,-109.04 594.84,-113.65 605.17,-115.99 604.38,-109.04"/>
</a>
</g>
<text text-anchor="middle" x="660" y="-111.5" font-family="Helvetica,sans-Serif" font-size="10.00" fill="grey"> criticalSection_</text>
</g>
<!-- Node3 -->
<g id="Node000003" class="node">
<title>Node3</title>
<g id="a_Node000003"><a xlink:title=" ">
<polygon fill="white" stroke="#666666" points="607,-87 461,-87 461,-46 607,-46 607,-87"/>
<text text-anchor="start" x="469" y="-75" font-family="Helvetica,sans-Serif" font-size="10.00">std::unordered_map</text>
<text text-anchor="start" x="469" y="-64" font-family="Helvetica,sans-Serif" font-size="10.00">&lt; HANDLE, Harlinn::Common</text>
<text text-anchor="middle" x="534" y="-53" font-family="Helvetica,sans-Serif" font-size="10.00">::Core::Thread &gt;</text>
</a>
</g>
</g>
<!-- Node3&#45;&gt;Node1 -->
<g id="edge2_Node000001_Node000003" class="edge">
<title>Node3&#45;&gt;Node1</title>
<g id="a_edge2_Node000001_Node000003"><a xlink:title=" ">
<path fill="none" stroke="#9a32cd" stroke-dasharray="5,2" d="M618.67,-76.07C649.72,-79.62 684.24,-83.57 712.56,-86.81"/>
<polygon fill="#9a32cd" stroke="#9a32cd" points="619.25,-72.62 608.92,-74.96 618.45,-79.57 619.25,-72.62"/>
</a>
</g>
<text text-anchor="middle" x="660" y="-87.5" font-family="Helvetica,sans-Serif" font-size="10.00" fill="grey"> threads_</text>
</g>
<!-- Node4 -->
<g id="Node000004" class="node">
<title>Node4</title>
<g id="a_Node000004"><a xlink:href="class_harlinn_1_1_common_1_1_core_1_1_thread.html" target="_top" xlink:title=" ">
<polygon fill="white" stroke="#666666" points="315,-106.5 197,-106.5 197,-76.5 315,-76.5 315,-106.5"/>
<text text-anchor="start" x="205" y="-94.5" font-family="Helvetica,sans-Serif" font-size="10.00">Harlinn::Common::Core</text>
<text text-anchor="middle" x="256" y="-83.5" font-family="Helvetica,sans-Serif" font-size="10.00">::Thread</text>
</a>
</g>
</g>
<!-- Node4&#45;&gt;Node3 -->
<g id="edge3_Node000003_Node000004" class="edge">
<title>Node4&#45;&gt;Node3</title>
<g id="a_edge3_Node000003_Node000004"><a xlink:title=" ">
<path fill="none" stroke="#9a32cd" stroke-dasharray="5,2" d="M326.44,-85.21C367.4,-81.5 419.17,-76.81 460.63,-73.06"/>
<polygon fill="#9a32cd" stroke="#9a32cd" points="326.35,-81.7 316.7,-86.09 326.98,-88.68 326.35,-81.7"/>
</a>
</g>
<text text-anchor="middle" x="388" y="-86.5" font-family="Helvetica,sans-Serif" font-size="10.00" fill="grey"> elements</text>
</g>
<!-- Node5 -->
<g id="Node000005" class="node">
<title>Node5</title>
<g id="a_Node000005"><a xlink:href="class_harlinn_1_1_common_1_1_core_1_1_waitable_handle.html" target="_top" xlink:title=" ">
<polygon fill="white" stroke="#666666" points="118,-106.5 0,-106.5 0,-76.5 118,-76.5 118,-106.5"/>
<text text-anchor="start" x="8" y="-94.5" font-family="Helvetica,sans-Serif" font-size="10.00">Harlinn::Common::Core</text>
<text text-anchor="middle" x="59" y="-83.5" font-family="Helvetica,sans-Serif" font-size="10.00">::WaitableHandle</text>
</a>
</g>
</g>
<!-- Node5&#45;&gt;Node4 -->
<g id="edge4_Node000004_Node000005" class="edge">
<title>Node5&#45;&gt;Node4</title>
<g id="a_edge4_Node000004_Node000005"><a xlink:title=" ">
<path fill="none" stroke="#63b8ff" d="M129.53,-91.5C151.53,-91.5 175.6,-91.5 196.72,-91.5"/>
<polygon fill="#63b8ff" stroke="#63b8ff" points="129.76,-88 119.76,-91.5 129.76,-95 129.76,-88"/>
</a>
</g>
</g>
<!-- Node6 -->
<g id="Node000006" class="node">
<title>Node6</title>
<g id="a_Node000006"><a xlink:title=" ">
<polygon fill="white" stroke="#666666" points="307.5,-58.5 204.5,-58.5 204.5,-28.5 307.5,-28.5 307.5,-58.5"/>
<text text-anchor="start" x="212.5" y="-46.5" font-family="Helvetica,sans-Serif" font-size="10.00">std::unordered_map</text>
<text text-anchor="middle" x="256" y="-35.5" font-family="Helvetica,sans-Serif" font-size="10.00">&lt; K, T &gt;</text>
</a>
</g>
</g>
<!-- Node6&#45;&gt;Node3 -->
<g id="edge5_Node000003_Node000006" class="edge">
<title>Node6&#45;&gt;Node3</title>
<g id="a_edge5_Node000003_Node000006"><a xlink:title=" ">
<path fill="none" stroke="orange" stroke-dasharray="5,2" d="M319.1,-41.37C355.35,-40.91 401.9,-41.65 443,-46.5 448.72,-47.17 454.62,-48.06 460.52,-49.07"/>
<polygon fill="orange" stroke="orange" points="319.16,-37.87 309.22,-41.53 319.28,-44.87 319.16,-37.87"/>
</a>
</g>
<text text-anchor="start" x="333" y="-60.5" font-family="Helvetica,sans-Serif" font-size="10.00" fill="grey"> &lt; HANDLE, Harlinn::</text>
<text text-anchor="middle" x="388" y="-49.5" font-family="Helvetica,sans-Serif" font-size="10.00" fill="grey">Common::Core::Thread &gt;</text>
</g>
<!-- Node7 -->
<g id="Node000007" class="node">
<title>Node7</title>
<g id="a_Node000007"><a xlink:title=" ">
<polygon fill="white" stroke="#666666" points="73.5,-56 44.5,-56 44.5,-37 73.5,-37 73.5,-56"/>
<text text-anchor="middle" x="59" y="-44" font-family="Helvetica,sans-Serif" font-size="10.00">K</text>
</a>
</g>
</g>
<!-- Node7&#45;&gt;Node6 -->
<g id="edge6_Node000006_Node000007" class="edge">
<title>Node7&#45;&gt;Node6</title>
<g id="a_edge6_Node000006_Node000007"><a xlink:title=" ">
<path fill="none" stroke="#9a32cd" stroke-dasharray="5,2" d="M85.2,-46.11C115.2,-45.65 166.06,-44.87 204.31,-44.28"/>
<polygon fill="#9a32cd" stroke="#9a32cd" points="85.17,-42.61 75.23,-46.27 85.28,-49.61 85.17,-42.61"/>
</a>
</g>
<text text-anchor="middle" x="157.5" y="-47.5" font-family="Helvetica,sans-Serif" font-size="10.00" fill="grey"> keys</text>
</g>
<!-- Node8 -->
<g id="Node000008" class="node">
<title>Node8</title>
<g id="a_Node000008"><a xlink:title=" ">
<polygon fill="white" stroke="#666666" points="73.5,-19 44.5,-19 44.5,0 73.5,0 73.5,-19"/>
<text text-anchor="middle" x="59" y="-7" font-family="Helvetica,sans-Serif" font-size="10.00">T</text>
</a>
</g>
</g>
<!-- Node8&#45;&gt;Node6 -->
<g id="edge7_Node000006_Node000008" class="edge">
<title>Node8&#45;&gt;Node6</title>
<g id="a_edge7_Node000006_Node000008"><a xlink:title=" ">
<path fill="none" stroke="#9a32cd" stroke-dasharray="5,2" d="M85.24,-13.62C109.34,-17.59 146.67,-23.81 179,-29.5 187.19,-30.94 195.87,-32.51 204.33,-34.05"/>
<polygon fill="#9a32cd" stroke="#9a32cd" points="85.86,-10.18 75.43,-12.01 84.73,-17.09 85.86,-10.18"/>
</a>
</g>
<text text-anchor="middle" x="157.5" y="-32.5" font-family="Helvetica,sans-Serif" font-size="10.00" fill="grey"> elements</text>
</g>
</g>
</svg>
