<?xml version="1.0" encoding="UTF-8" standalone="no"?>
<!DOCTYPE svg PUBLIC "-//W3C//DTD SVG 1.1//EN"
 "http://www.w3.org/Graphics/SVG/1.1/DTD/svg11.dtd">
<!-- Generated by graphviz version 7.0.1 (20221109.1506)
 -->
<!-- Title: Harlinn::Windows::Graphics::DirectComposition::TranslateTransform Pages: 1 -->
<svg width="199pt" height="302pt"
 viewBox="0.00 0.00 199.00 302.00" xmlns="http://www.w3.org/2000/svg" xmlns:xlink="http://www.w3.org/1999/xlink">
<g id="graph0" class="graph" transform="scale(1 1) rotate(0) translate(4 298)">
<title>Harlinn::Windows::Graphics::DirectComposition::TranslateTransform</title>
<!-- Node1 -->
<g id="Node000001" class="node">
<title>Node1</title>
<g id="a_Node000001"><a xlink:title="Represents a 2D transformation that affects only the offset of a visual along the x&#45;axis and y&#45;axis.">
<polygon fill="#999999" stroke="#666666" points="191,-30 0,-30 0,0 191,0 191,-30"/>
<text text-anchor="start" x="8" y="-18" font-family="Helvetica,sans-Serif" font-size="10.00">Harlinn::Windows::Graphics</text>
<text text-anchor="middle" x="95.5" y="-7" font-family="Helvetica,sans-Serif" font-size="10.00">::DirectComposition::TranslateTransform</text>
</a>
</g>
</g>
<!-- Node2 -->
<g id="Node000002" class="node">
<title>Node2</title>
<g id="a_Node000002"><a xlink:href="class_harlinn_1_1_windows_1_1_graphics_1_1_direct_composition_1_1_transform.html" target="_top" xlink:title="Represents a 2D transformation that can be used to modify the coordinate space of a visual subtree.">
<polygon fill="white" stroke="#666666" points="171,-96 20,-96 20,-66 171,-66 171,-96"/>
<text text-anchor="start" x="28" y="-84" font-family="Helvetica,sans-Serif" font-size="10.00">Harlinn::Windows::Graphics</text>
<text text-anchor="middle" x="95.5" y="-73" font-family="Helvetica,sans-Serif" font-size="10.00">::DirectComposition::Transform</text>
</a>
</g>
</g>
<!-- Node2&#45;&gt;Node1 -->
<g id="edge1_Node000001_Node000002" class="edge">
<title>Node2&#45;&gt;Node1</title>
<g id="a_edge1_Node000001_Node000002"><a xlink:title=" ">
<path fill="none" stroke="#63b8ff" d="M95.5,-54.39C95.5,-46.13 95.5,-37.28 95.5,-30.16"/>
<polygon fill="#63b8ff" stroke="#63b8ff" points="92,-54.28 95.5,-64.28 99,-54.28 92,-54.28"/>
</a>
</g>
</g>
<!-- Node3 -->
<g id="Node000003" class="node">
<title>Node3</title>
<g id="a_Node000003"><a xlink:href="class_harlinn_1_1_windows_1_1_graphics_1_1_direct_composition_1_1_transform3_d.html" target="_top" xlink:title="Represents a 3D transformation effect that can be used to modify the rasterization of a visual subtre...">
<polygon fill="white" stroke="#666666" points="177,-162 14,-162 14,-132 177,-132 177,-162"/>
<text text-anchor="start" x="22" y="-150" font-family="Helvetica,sans-Serif" font-size="10.00">Harlinn::Windows::Graphics</text>
<text text-anchor="middle" x="95.5" y="-139" font-family="Helvetica,sans-Serif" font-size="10.00">::DirectComposition::Transform3D</text>
</a>
</g>
</g>
<!-- Node3&#45;&gt;Node2 -->
<g id="edge2_Node000002_Node000003" class="edge">
<title>Node3&#45;&gt;Node2</title>
<g id="a_edge2_Node000002_Node000003"><a xlink:title=" ">
<path fill="none" stroke="#63b8ff" d="M95.5,-120.39C95.5,-112.13 95.5,-103.28 95.5,-96.16"/>
<polygon fill="#63b8ff" stroke="#63b8ff" points="92,-120.28 95.5,-130.28 99,-120.28 92,-120.28"/>
</a>
</g>
</g>
<!-- Node4 -->
<g id="Node000004" class="node">
<title>Node4</title>
<g id="a_Node000004"><a xlink:href="class_harlinn_1_1_windows_1_1_graphics_1_1_direct_composition_1_1_effect.html" target="_top" xlink:title="Represents a bitmap effect that modifies the rasterization of a visual&#39;s subtree.">
<polygon fill="white" stroke="#666666" points="164,-228 27,-228 27,-198 164,-198 164,-228"/>
<text text-anchor="start" x="35" y="-216" font-family="Helvetica,sans-Serif" font-size="10.00">Harlinn::Windows::Graphics</text>
<text text-anchor="middle" x="95.5" y="-205" font-family="Helvetica,sans-Serif" font-size="10.00">::DirectComposition::Effect</text>
</a>
</g>
</g>
<!-- Node4&#45;&gt;Node3 -->
<g id="edge3_Node000003_Node000004" class="edge">
<title>Node4&#45;&gt;Node3</title>
<g id="a_edge3_Node000003_Node000004"><a xlink:title=" ">
<path fill="none" stroke="#63b8ff" d="M95.5,-186.39C95.5,-178.13 95.5,-169.28 95.5,-162.16"/>
<polygon fill="#63b8ff" stroke="#63b8ff" points="92,-186.28 95.5,-196.28 99,-186.28 92,-186.28"/>
</a>
</g>
</g>
<!-- Node5 -->
<g id="Node000005" class="node">
<title>Node5</title>
<g id="a_Node000005"><a xlink:href="class_harlinn_1_1_common_1_1_core_1_1_unknown.html" target="_top" xlink:title="Base class for COM interface wrappers.">
<polygon fill="white" stroke="#666666" points="154.5,-294 36.5,-294 36.5,-264 154.5,-264 154.5,-294"/>
<text text-anchor="start" x="44.5" y="-282" font-family="Helvetica,sans-Serif" font-size="10.00">Harlinn::Common::Core</text>
<text text-anchor="middle" x="95.5" y="-271" font-family="Helvetica,sans-Serif" font-size="10.00">::Unknown</text>
</a>
</g>
</g>
<!-- Node5&#45;&gt;Node4 -->
<g id="edge4_Node000004_Node000005" class="edge">
<title>Node5&#45;&gt;Node4</title>
<g id="a_edge4_Node000004_Node000005"><a xlink:title=" ">
<path fill="none" stroke="#63b8ff" d="M95.5,-252.39C95.5,-244.13 95.5,-235.28 95.5,-228.16"/>
<polygon fill="#63b8ff" stroke="#63b8ff" points="92,-252.28 95.5,-262.28 99,-252.28 92,-252.28"/>
</a>
</g>
</g>
</g>
</svg>
