<?xml version="1.0" encoding="UTF-8" standalone="no"?>
<!DOCTYPE svg PUBLIC "-//W3C//DTD SVG 1.1//EN"
 "http://www.w3.org/Graphics/SVG/1.1/DTD/svg11.dtd">
<!-- Generated by graphviz version 7.0.1 (20221109.1506)
 -->
<!-- Title: Harlinn::Windows::Graphics::DirectComposition::Visual3 Pages: 1 -->
<svg width="171pt" height="302pt"
 viewBox="0.00 0.00 171.00 302.00" xmlns="http://www.w3.org/2000/svg" xmlns:xlink="http://www.w3.org/1999/xlink">
<g id="graph0" class="graph" transform="scale(1 1) rotate(0) translate(4 298)">
<title>Harlinn::Windows::Graphics::DirectComposition::Visual3</title>
<!-- Node1 -->
<g id="Node000001" class="node">
<title>Node1</title>
<g id="a_Node000001"><a xlink:title="Represents a single DirectComposition visual in a visual tree.">
<polygon fill="#999999" stroke="#666666" points="151.5,-30 11.5,-30 11.5,0 151.5,0 151.5,-30"/>
<text text-anchor="start" x="19.5" y="-18" font-family="Helvetica,sans-Serif" font-size="10.00">Harlinn::Windows::Graphics</text>
<text text-anchor="middle" x="81.5" y="-7" font-family="Helvetica,sans-Serif" font-size="10.00">::DirectComposition::Visual3</text>
</a>
</g>
</g>
<!-- Node2 -->
<g id="Node000002" class="node">
<title>Node2</title>
<g id="a_Node000002"><a xlink:href="class_harlinn_1_1_windows_1_1_graphics_1_1_direct_composition_1_1_visual_debug.xhtml" target="_top" xlink:title="Introduces debug related functions for a visual.">
<polygon fill="white" stroke="#666666" points="163,-96 0,-96 0,-66 163,-66 163,-96"/>
<text text-anchor="start" x="8" y="-84" font-family="Helvetica,sans-Serif" font-size="10.00">Harlinn::Windows::Graphics</text>
<text text-anchor="middle" x="81.5" y="-73" font-family="Helvetica,sans-Serif" font-size="10.00">::DirectComposition::VisualDebug</text>
</a>
</g>
</g>
<!-- Node2&#45;&gt;Node1 -->
<g id="edge1_Node000001_Node000002" class="edge">
<title>Node2&#45;&gt;Node1</title>
<g id="a_edge1_Node000001_Node000002"><a xlink:title=" ">
<path fill="none" stroke="#63b8ff" d="M81.5,-54.39C81.5,-46.13 81.5,-37.28 81.5,-30.16"/>
<polygon fill="#63b8ff" stroke="#63b8ff" points="78,-54.28 81.5,-64.28 85,-54.28 78,-54.28"/>
</a>
</g>
</g>
<!-- Node3 -->
<g id="Node000003" class="node">
<title>Node3</title>
<g id="a_Node000003"><a xlink:href="class_harlinn_1_1_windows_1_1_graphics_1_1_direct_composition_1_1_visual2.xhtml" target="_top" xlink:title="Represents a single DirectComposition visual in a visual tree.">
<polygon fill="white" stroke="#666666" points="151.5,-162 11.5,-162 11.5,-132 151.5,-132 151.5,-162"/>
<text text-anchor="start" x="19.5" y="-150" font-family="Helvetica,sans-Serif" font-size="10.00">Harlinn::Windows::Graphics</text>
<text text-anchor="middle" x="81.5" y="-139" font-family="Helvetica,sans-Serif" font-size="10.00">::DirectComposition::Visual2</text>
</a>
</g>
</g>
<!-- Node3&#45;&gt;Node2 -->
<g id="edge2_Node000002_Node000003" class="edge">
<title>Node3&#45;&gt;Node2</title>
<g id="a_edge2_Node000002_Node000003"><a xlink:title=" ">
<path fill="none" stroke="#63b8ff" d="M81.5,-120.39C81.5,-112.13 81.5,-103.28 81.5,-96.16"/>
<polygon fill="#63b8ff" stroke="#63b8ff" points="78,-120.28 81.5,-130.28 85,-120.28 78,-120.28"/>
</a>
</g>
</g>
<!-- Node4 -->
<g id="Node000004" class="node">
<title>Node4</title>
<g id="a_Node000004"><a xlink:href="class_harlinn_1_1_windows_1_1_graphics_1_1_direct_composition_1_1_visual.xhtml" target="_top" xlink:title="Represents a Microsoft DirectComposition visual.">
<polygon fill="white" stroke="#666666" points="150,-228 13,-228 13,-198 150,-198 150,-228"/>
<text text-anchor="start" x="21" y="-216" font-family="Helvetica,sans-Serif" font-size="10.00">Harlinn::Windows::Graphics</text>
<text text-anchor="middle" x="81.5" y="-205" font-family="Helvetica,sans-Serif" font-size="10.00">::DirectComposition::Visual</text>
</a>
</g>
</g>
<!-- Node4&#45;&gt;Node3 -->
<g id="edge3_Node000003_Node000004" class="edge">
<title>Node4&#45;&gt;Node3</title>
<g id="a_edge3_Node000003_Node000004"><a xlink:title=" ">
<path fill="none" stroke="#63b8ff" d="M81.5,-186.39C81.5,-178.13 81.5,-169.28 81.5,-162.16"/>
<polygon fill="#63b8ff" stroke="#63b8ff" points="78,-186.28 81.5,-196.28 85,-186.28 78,-186.28"/>
</a>
</g>
</g>
<!-- Node5 -->
<g id="Node000005" class="node">
<title>Node5</title>
<g id="a_Node000005"><a xlink:href="class_harlinn_1_1_common_1_1_core_1_1_unknown.xhtml" target="_top" xlink:title=" ">
<polygon fill="white" stroke="#666666" points="140.5,-294 22.5,-294 22.5,-264 140.5,-264 140.5,-294"/>
<text text-anchor="start" x="30.5" y="-282" font-family="Helvetica,sans-Serif" font-size="10.00">Harlinn::Common::Core</text>
<text text-anchor="middle" x="81.5" y="-271" font-family="Helvetica,sans-Serif" font-size="10.00">::Unknown</text>
</a>
</g>
</g>
<!-- Node5&#45;&gt;Node4 -->
<g id="edge4_Node000004_Node000005" class="edge">
<title>Node5&#45;&gt;Node4</title>
<g id="a_edge4_Node000004_Node000005"><a xlink:title=" ">
<path fill="none" stroke="#63b8ff" d="M81.5,-252.39C81.5,-244.13 81.5,-235.28 81.5,-228.16"/>
<polygon fill="#63b8ff" stroke="#63b8ff" points="78,-252.28 81.5,-262.28 85,-252.28 78,-252.28"/>
</a>
</g>
</g>
</g>
</svg>
