<?xml version="1.0" encoding="UTF-8" standalone="no"?>
<!DOCTYPE svg PUBLIC "-//W3C//DTD SVG 1.1//EN"
 "http://www.w3.org/Graphics/SVG/1.1/DTD/svg11.dtd">
<!-- Generated by graphviz version 7.0.1 (20221109.1506)
 -->
<!-- Title: Harlinn::Common::Core::Xml::Dom::CharacterData Pages: 1 -->
<svg width="271pt" height="368pt"
 viewBox="0.00 0.00 271.00 368.00" xmlns="http://www.w3.org/2000/svg" xmlns:xlink="http://www.w3.org/1999/xlink">
<g id="graph0" class="graph" transform="scale(1 1) rotate(0) translate(4 364)">
<title>Harlinn::Common::Core::Xml::Dom::CharacterData</title>
<!-- Node1 -->
<g id="Node000001" class="node">
<title>Node1</title>
<g id="a_Node000001"><a xlink:title=" ">
<polygon fill="#999999" stroke="#666666" points="193.5,-162 60.5,-162 60.5,-132 193.5,-132 193.5,-162"/>
<text text-anchor="start" x="68.5" y="-150" font-family="Helvetica,sans-Serif" font-size="10.00">Harlinn::Common::Core</text>
<text text-anchor="middle" x="127" y="-139" font-family="Helvetica,sans-Serif" font-size="10.00">::Xml::Dom::CharacterData</text>
</a>
</g>
</g>
<!-- Node5 -->
<g id="Node000005" class="node">
<title>Node5</title>
<g id="a_Node000005"><a xlink:href="class_harlinn_1_1_common_1_1_core_1_1_xml_1_1_dom_1_1_comment.html" target="_top" xlink:title=" ">
<polygon fill="white" stroke="#666666" points="118,-96 0,-96 0,-66 118,-66 118,-96"/>
<text text-anchor="start" x="8" y="-84" font-family="Helvetica,sans-Serif" font-size="10.00">Harlinn::Common::Core</text>
<text text-anchor="middle" x="59" y="-73" font-family="Helvetica,sans-Serif" font-size="10.00">::Xml::Dom::Comment</text>
</a>
</g>
</g>
<!-- Node1&#45;&gt;Node5 -->
<g id="edge4_Node000001_Node000005" class="edge">
<title>Node1&#45;&gt;Node5</title>
<g id="a_edge4_Node000001_Node000005"><a xlink:title=" ">
<path fill="none" stroke="#63b8ff" d="M103.72,-124.09C93.9,-114.85 82.76,-104.36 74.05,-96.16"/>
<polygon fill="#63b8ff" stroke="#63b8ff" points="101.13,-126.45 110.81,-130.76 105.92,-121.36 101.13,-126.45"/>
</a>
</g>
</g>
<!-- Node6 -->
<g id="Node000006" class="node">
<title>Node6</title>
<g id="a_Node000006"><a xlink:href="class_harlinn_1_1_common_1_1_core_1_1_xml_1_1_dom_1_1_text.html" target="_top" xlink:title=" ">
<polygon fill="white" stroke="#666666" points="254,-96 136,-96 136,-66 254,-66 254,-96"/>
<text text-anchor="start" x="144" y="-84" font-family="Helvetica,sans-Serif" font-size="10.00">Harlinn::Common::Core</text>
<text text-anchor="middle" x="195" y="-73" font-family="Helvetica,sans-Serif" font-size="10.00">::Xml::Dom::Text</text>
</a>
</g>
</g>
<!-- Node1&#45;&gt;Node6 -->
<g id="edge5_Node000001_Node000006" class="edge">
<title>Node1&#45;&gt;Node6</title>
<g id="a_edge5_Node000001_Node000006"><a xlink:title=" ">
<path fill="none" stroke="#63b8ff" d="M150.28,-124.09C160.1,-114.85 171.24,-104.36 179.95,-96.16"/>
<polygon fill="#63b8ff" stroke="#63b8ff" points="148.08,-121.36 143.19,-130.76 152.87,-126.45 148.08,-121.36"/>
</a>
</g>
</g>
<!-- Node2 -->
<g id="Node000002" class="node">
<title>Node2</title>
<g id="a_Node000002"><a xlink:href="class_harlinn_1_1_common_1_1_core_1_1_xml_1_1_dom_1_1_node.html" target="_top" xlink:title="Represents a single node in the XML document.">
<polygon fill="white" stroke="#666666" points="186,-228 68,-228 68,-198 186,-198 186,-228"/>
<text text-anchor="start" x="76" y="-216" font-family="Helvetica,sans-Serif" font-size="10.00">Harlinn::Common::Core</text>
<text text-anchor="middle" x="127" y="-205" font-family="Helvetica,sans-Serif" font-size="10.00">::Xml::Dom::Node</text>
</a>
</g>
</g>
<!-- Node2&#45;&gt;Node1 -->
<g id="edge1_Node000001_Node000002" class="edge">
<title>Node2&#45;&gt;Node1</title>
<g id="a_edge1_Node000001_Node000002"><a xlink:title=" ">
<path fill="none" stroke="#63b8ff" d="M127,-186.39C127,-178.13 127,-169.28 127,-162.16"/>
<polygon fill="#63b8ff" stroke="#63b8ff" points="123.5,-186.28 127,-196.28 130.5,-186.28 123.5,-186.28"/>
</a>
</g>
</g>
<!-- Node3 -->
<g id="Node000003" class="node">
<title>Node3</title>
<g id="a_Node000003"><a xlink:href="class_harlinn_1_1_common_1_1_core_1_1_dispatch.html" target="_top" xlink:title="Exposes objects, methods and properties to programming tools and other applications that support Auto...">
<polygon fill="white" stroke="#666666" points="186,-294 68,-294 68,-264 186,-264 186,-294"/>
<text text-anchor="start" x="76" y="-282" font-family="Helvetica,sans-Serif" font-size="10.00">Harlinn::Common::Core</text>
<text text-anchor="middle" x="127" y="-271" font-family="Helvetica,sans-Serif" font-size="10.00">::Dispatch</text>
</a>
</g>
</g>
<!-- Node3&#45;&gt;Node2 -->
<g id="edge2_Node000002_Node000003" class="edge">
<title>Node3&#45;&gt;Node2</title>
<g id="a_edge2_Node000002_Node000003"><a xlink:title=" ">
<path fill="none" stroke="#63b8ff" d="M127,-252.39C127,-244.13 127,-235.28 127,-228.16"/>
<polygon fill="#63b8ff" stroke="#63b8ff" points="123.5,-252.28 127,-262.28 130.5,-252.28 123.5,-252.28"/>
</a>
</g>
</g>
<!-- Node4 -->
<g id="Node000004" class="node">
<title>Node4</title>
<g id="a_Node000004"><a xlink:href="class_harlinn_1_1_common_1_1_core_1_1_unknown.html" target="_top" xlink:title="Base class for COM interface wrappers.">
<polygon fill="white" stroke="#666666" points="186,-360 68,-360 68,-330 186,-330 186,-360"/>
<text text-anchor="start" x="76" y="-348" font-family="Helvetica,sans-Serif" font-size="10.00">Harlinn::Common::Core</text>
<text text-anchor="middle" x="127" y="-337" font-family="Helvetica,sans-Serif" font-size="10.00">::Unknown</text>
</a>
</g>
</g>
<!-- Node4&#45;&gt;Node3 -->
<g id="edge3_Node000003_Node000004" class="edge">
<title>Node4&#45;&gt;Node3</title>
<g id="a_edge3_Node000003_Node000004"><a xlink:title=" ">
<path fill="none" stroke="#63b8ff" d="M127,-318.39C127,-310.13 127,-301.28 127,-294.16"/>
<polygon fill="#63b8ff" stroke="#63b8ff" points="123.5,-318.28 127,-328.28 130.5,-318.28 123.5,-318.28"/>
</a>
</g>
</g>
<!-- Node7 -->
<g id="Node000007" class="node">
<title>Node7</title>
<g id="a_Node000007"><a xlink:href="class_harlinn_1_1_common_1_1_core_1_1_xml_1_1_dom_1_1_c_d_a_t_a_section.html" target="_top" xlink:title=" ">
<polygon fill="white" stroke="#666666" points="263,-30 127,-30 127,0 263,0 263,-30"/>
<text text-anchor="start" x="135" y="-18" font-family="Helvetica,sans-Serif" font-size="10.00">Harlinn::Common::Core</text>
<text text-anchor="middle" x="195" y="-7" font-family="Helvetica,sans-Serif" font-size="10.00">::Xml::Dom::CDATASection</text>
</a>
</g>
</g>
<!-- Node6&#45;&gt;Node7 -->
<g id="edge6_Node000006_Node000007" class="edge">
<title>Node6&#45;&gt;Node7</title>
<g id="a_edge6_Node000006_Node000007"><a xlink:title=" ">
<path fill="none" stroke="#63b8ff" d="M195,-54.39C195,-46.13 195,-37.28 195,-30.16"/>
<polygon fill="#63b8ff" stroke="#63b8ff" points="191.5,-54.28 195,-64.28 198.5,-54.28 191.5,-54.28"/>
</a>
</g>
</g>
</g>
</svg>
