<?xml version="1.0" encoding="UTF-8" standalone="no"?>
<!DOCTYPE svg PUBLIC "-//W3C//DTD SVG 1.1//EN"
 "http://www.w3.org/Graphics/SVG/1.1/DTD/svg11.dtd">
<!-- Generated by graphviz version 7.0.1 (20221109.1506)
 -->
<!-- Title: Harlinn::Common::Core::Logging::ThreadLogger Pages: 1 -->
<svg width="586pt" height="115pt"
 viewBox="0.00 0.00 586.00 115.00" xmlns="http://www.w3.org/2000/svg" xmlns:xlink="http://www.w3.org/1999/xlink">
<g id="graph0" class="graph" transform="scale(1 1) rotate(0) translate(4 111)">
<title>Harlinn::Common::Core::Logging::ThreadLogger</title>
<!-- Node1 -->
<g id="Node000001" class="node">
<title>Node1</title>
<g id="a_Node000001"><a xlink:title="This is the class that implements the logging API.">
<polygon fill="#999999" stroke="#666666" points="578,-42 457,-42 457,-12 578,-12 578,-42"/>
<text text-anchor="start" x="465" y="-30" font-family="Helvetica,sans-Serif" font-size="10.00">Harlinn::Common::Core</text>
<text text-anchor="middle" x="517.5" y="-19" font-family="Helvetica,sans-Serif" font-size="10.00">::Logging::ThreadLogger</text>
</a>
</g>
</g>
<!-- Node2 -->
<g id="Node000002" class="node">
<title>Node2</title>
<g id="a_Node000002"><a xlink:href="class_harlinn_1_1_common_1_1_core_1_1_logging_1_1_logger.html" target="_top" xlink:title=" ">
<polygon fill="white" stroke="#666666" points="420,-100 280,-100 280,-48 420,-48 420,-100"/>
<text text-anchor="start" x="288" y="-88" font-family="Helvetica,sans-Serif" font-size="10.00">Harlinn::Common::Core</text>
<text text-anchor="start" x="288" y="-77" font-family="Helvetica,sans-Serif" font-size="10.00">::Logging::Logger&lt; Writers</text>
<text text-anchor="start" x="288" y="-66" font-family="Helvetica,sans-Serif" font-size="10.00">::ThreadWriter, BuildOptions</text>
<text text-anchor="middle" x="350" y="-55" font-family="Helvetica,sans-Serif" font-size="10.00">&lt; Level::Default &gt; &gt;</text>
</a>
</g>
</g>
<!-- Node2&#45;&gt;Node1 -->
<g id="edge1_Node000001_Node000002" class="edge">
<title>Node2&#45;&gt;Node1</title>
<g id="a_edge1_Node000001_Node000002"><a xlink:title=" ">
<path fill="none" stroke="#63b8ff" d="M431.13,-51.24C441.64,-48.26 452.2,-45.26 462.14,-42.44"/>
<polygon fill="#63b8ff" stroke="#63b8ff" points="430.35,-47.83 421.68,-53.93 432.26,-54.56 430.35,-47.83"/>
</a>
</g>
</g>
<!-- Node3 -->
<g id="Node000003" class="node">
<title>Node3</title>
<g id="a_Node000003"><a xlink:href="class_harlinn_1_1_common_1_1_core_1_1_logging_1_1_logger.html" target="_top" xlink:title=" ">
<polygon fill="white" stroke="#666666" points="135,-94.5 0,-94.5 0,-53.5 135,-53.5 135,-94.5"/>
<text text-anchor="start" x="8" y="-82.5" font-family="Helvetica,sans-Serif" font-size="10.00">Harlinn::Common::Core</text>
<text text-anchor="start" x="8" y="-71.5" font-family="Helvetica,sans-Serif" font-size="10.00">::Logging::Logger&lt; WriterT,</text>
<text text-anchor="middle" x="67.5" y="-60.5" font-family="Helvetica,sans-Serif" font-size="10.00"> BuildOptionsT &gt;</text>
</a>
</g>
</g>
<!-- Node3&#45;&gt;Node2 -->
<g id="edge2_Node000002_Node000003" class="edge">
<title>Node3&#45;&gt;Node2</title>
<g id="a_edge2_Node000002_Node000003"><a xlink:title=" ">
<path fill="none" stroke="orange" stroke-dasharray="5,2" d="M146.84,-74C188.58,-74 239.47,-74 279.75,-74"/>
<polygon fill="orange" stroke="orange" points="146.84,-70.5 136.84,-74 146.84,-77.5 146.84,-70.5"/>
</a>
</g>
<text text-anchor="start" x="153" y="-99" font-family="Helvetica,sans-Serif" font-size="10.00" fill="grey"> &lt; Writers::ThreadWriter,</text>
<text text-anchor="start" x="153" y="-88" font-family="Helvetica,sans-Serif" font-size="10.00" fill="grey"> BuildOptions&lt; Level::</text>
<text text-anchor="middle" x="207.5" y="-77" font-family="Helvetica,sans-Serif" font-size="10.00" fill="grey">Default &gt; &gt;</text>
</g>
<!-- Node4 -->
<g id="Node000004" class="node">
<title>Node4</title>
<g id="a_Node000004"><a xlink:title=" ">
<polygon fill="white" stroke="#666666" points="419,-30 281,-30 281,0 419,0 419,-30"/>
<text text-anchor="start" x="289" y="-18" font-family="Helvetica,sans-Serif" font-size="10.00">std::enable_shared</text>
<text text-anchor="middle" x="350" y="-7" font-family="Helvetica,sans-Serif" font-size="10.00">_from_this&lt; ThreadLogger &gt;</text>
</a>
</g>
</g>
<!-- Node4&#45;&gt;Node1 -->
<g id="edge3_Node000001_Node000004" class="edge">
<title>Node4&#45;&gt;Node1</title>
<g id="a_edge3_Node000001_Node000004"><a xlink:title=" ">
<path fill="none" stroke="#63b8ff" d="M430.68,-20.78C439.4,-21.41 448.16,-22.04 456.58,-22.66"/>
<polygon fill="#63b8ff" stroke="#63b8ff" points="431.01,-17.29 420.78,-20.06 430.5,-24.27 431.01,-17.29"/>
</a>
</g>
</g>
</g>
</svg>
