<?xml version="1.0" encoding="UTF-8" standalone="no"?>
<!DOCTYPE svg PUBLIC "-//W3C//DTD SVG 1.1//EN"
 "http://www.w3.org/Graphics/SVG/1.1/DTD/svg11.dtd">
<!-- Generated by graphviz version 7.0.1 (20221109.1506)
 -->
<!-- Title: Harlinn::Common::Core::Security::SecurityPackages Pages: 1 -->
<svg width="152pt" height="171pt"
 viewBox="0.00 0.00 152.00 171.00" xmlns="http://www.w3.org/2000/svg" xmlns:xlink="http://www.w3.org/1999/xlink">
<g id="graph0" class="graph" transform="scale(1 1) rotate(0) translate(4 167)">
<title>Harlinn::Common::Core::Security::SecurityPackages</title>
<!-- Node1 -->
<g id="Node000001" class="node">
<title>Node1</title>
<g id="a_Node000001"><a xlink:title="An std::unordered_map of information about the security packages installed on the system.">
<polygon fill="#999999" stroke="#666666" points="144,-30 0,-30 0,0 144,0 144,-30"/>
<text text-anchor="start" x="8" y="-18" font-family="Helvetica,sans-Serif" font-size="10.00">Harlinn::Common::Core</text>
<text text-anchor="middle" x="72" y="-7" font-family="Helvetica,sans-Serif" font-size="10.00">::Security::SecurityPackages</text>
</a>
</g>
</g>
<!-- Node2 -->
<g id="Node000002" class="node">
<title>Node2</title>
<g id="a_Node000002"><a xlink:title=" ">
<polygon fill="white" stroke="#666666" points="123.5,-97 20.5,-97 20.5,-67 123.5,-67 123.5,-97"/>
<text text-anchor="start" x="28.5" y="-85" font-family="Helvetica,sans-Serif" font-size="10.00">std::unordered_map</text>
<text text-anchor="middle" x="72" y="-74" font-family="Helvetica,sans-Serif" font-size="10.00">&lt; K, T &gt;</text>
</a>
</g>
</g>
<!-- Node2&#45;&gt;Node1 -->
<g id="edge1_Node000001_Node000002" class="edge">
<title>Node2&#45;&gt;Node1</title>
<g id="a_edge1_Node000001_Node000002"><a xlink:title=" ">
<path fill="none" stroke="#63b8ff" d="M72,-55.28C72,-46.81 72,-37.7 72,-30.39"/>
<polygon fill="#63b8ff" stroke="#63b8ff" points="68.5,-55.06 72,-65.06 75.5,-55.06 68.5,-55.06"/>
</a>
</g>
</g>
<!-- Node3 -->
<g id="Node000003" class="node">
<title>Node3</title>
<g id="a_Node000003"><a xlink:title=" ">
<polygon fill="white" stroke="#666666" points="62.5,-163 33.5,-163 33.5,-144 62.5,-144 62.5,-163"/>
<text text-anchor="middle" x="48" y="-151" font-family="Helvetica,sans-Serif" font-size="10.00">K</text>
</a>
</g>
</g>
<!-- Node3&#45;&gt;Node2 -->
<g id="edge2_Node000002_Node000003" class="edge">
<title>Node3&#45;&gt;Node2</title>
<g id="a_edge2_Node000002_Node000003"><a xlink:title=" ">
<path fill="none" stroke="#9a32cd" stroke-dasharray="5,2" d="M46.36,-132.24C46.48,-126.54 47.17,-120.42 49,-115 51.14,-108.65 55.01,-102.47 58.98,-97.26"/>
<polygon fill="#9a32cd" stroke="#9a32cd" points="42.86,-132.23 46.74,-142.09 49.86,-131.97 42.86,-132.23"/>
</a>
</g>
<text text-anchor="middle" x="61.5" y="-118" font-family="Helvetica,sans-Serif" font-size="10.00" fill="grey"> keys</text>
</g>
<!-- Node4 -->
<g id="Node000004" class="node">
<title>Node4</title>
<g id="a_Node000004"><a xlink:title=" ">
<polygon fill="white" stroke="#666666" points="110.5,-163 81.5,-163 81.5,-144 110.5,-144 110.5,-163"/>
<text text-anchor="middle" x="96" y="-151" font-family="Helvetica,sans-Serif" font-size="10.00">T</text>
</a>
</g>
</g>
<!-- Node4&#45;&gt;Node2 -->
<g id="edge3_Node000002_Node000004" class="edge">
<title>Node4&#45;&gt;Node2</title>
<g id="a_edge3_Node000002_Node000004"><a xlink:title=" ">
<path fill="none" stroke="#9a32cd" stroke-dasharray="5,2" d="M89.31,-133.12C85.38,-121.75 80.5,-107.63 76.93,-97.27"/>
<polygon fill="#9a32cd" stroke="#9a32cd" points="85.89,-133.96 92.47,-142.27 92.51,-131.67 85.89,-133.96"/>
</a>
</g>
<text text-anchor="middle" x="107.5" y="-118" font-family="Helvetica,sans-Serif" font-size="10.00" fill="grey"> elements</text>
</g>
</g>
</svg>
