<?xml version="1.0" encoding="UTF-8" standalone="no"?>
<!DOCTYPE svg PUBLIC "-//W3C//DTD SVG 1.1//EN"
 "http://www.w3.org/Graphics/SVG/1.1/DTD/svg11.dtd">
<!-- Generated by graphviz version 7.0.1 (20221109.1506)
 -->
<!-- Title: Harlinn::Windows::Graphics::D3D11::D3D11Asynchronous Pages: 1 -->
<svg width="830pt" height="110pt"
 viewBox="0.00 0.00 830.00 110.00" xmlns="http://www.w3.org/2000/svg" xmlns:xlink="http://www.w3.org/1999/xlink">
<g id="graph0" class="graph" transform="scale(1 1) rotate(0) translate(4 106)">
<title>Harlinn::Windows::Graphics::D3D11::D3D11Asynchronous</title>
<!-- Node1 -->
<g id="Node000001" class="node">
<title>Node1</title>
<g id="a_Node000001"><a xlink:title=" ">
<polygon fill="#999999" stroke="#666666" points="476,-78 327,-78 327,-48 476,-48 476,-78"/>
<text text-anchor="start" x="335" y="-66" font-family="Helvetica,sans-Serif" font-size="10.00">Harlinn::Windows::Graphics</text>
<text text-anchor="middle" x="401.5" y="-55" font-family="Helvetica,sans-Serif" font-size="10.00">::D3D11::D3D11Asynchronous</text>
</a>
</g>
</g>
<!-- Node4 -->
<g id="Node000004" class="node">
<title>Node4</title>
<g id="a_Node000004"><a xlink:href="class_harlinn_1_1_windows_1_1_graphics_1_1_d3_d11_1_1_d3_d11_counter.xhtml" target="_top" xlink:title=" ">
<polygon fill="white" stroke="#666666" points="649,-102 512,-102 512,-72 649,-72 649,-102"/>
<text text-anchor="start" x="520" y="-90" font-family="Helvetica,sans-Serif" font-size="10.00">Harlinn::Windows::Graphics</text>
<text text-anchor="middle" x="580.5" y="-79" font-family="Helvetica,sans-Serif" font-size="10.00">::D3D11::D3D11Counter</text>
</a>
</g>
</g>
<!-- Node1&#45;&gt;Node4 -->
<g id="edge3_Node000001_Node000004" class="edge">
<title>Node1&#45;&gt;Node4</title>
<g id="a_edge3_Node000001_Node000004"><a xlink:title=" ">
<path fill="none" stroke="#63b8ff" d="M487.67,-74.55C495.76,-75.64 503.88,-76.75 511.78,-77.82"/>
<polygon fill="#63b8ff" stroke="#63b8ff" points="488.16,-71.08 477.78,-73.21 487.22,-78.02 488.16,-71.08"/>
</a>
</g>
</g>
<!-- Node5 -->
<g id="Node000005" class="node">
<title>Node5</title>
<g id="a_Node000005"><a xlink:href="class_harlinn_1_1_windows_1_1_graphics_1_1_d3_d11_1_1_d3_d11_query.xhtml" target="_top" xlink:title=" ">
<polygon fill="white" stroke="#666666" points="649,-54 512,-54 512,-24 649,-24 649,-54"/>
<text text-anchor="start" x="520" y="-42" font-family="Helvetica,sans-Serif" font-size="10.00">Harlinn::Windows::Graphics</text>
<text text-anchor="middle" x="580.5" y="-31" font-family="Helvetica,sans-Serif" font-size="10.00">::D3D11::D3D11Query</text>
</a>
</g>
</g>
<!-- Node1&#45;&gt;Node5 -->
<g id="edge4_Node000001_Node000005" class="edge">
<title>Node1&#45;&gt;Node5</title>
<g id="a_edge4_Node000001_Node000005"><a xlink:title=" ">
<path fill="none" stroke="#63b8ff" d="M487.67,-51.45C495.76,-50.36 503.88,-49.25 511.78,-48.18"/>
<polygon fill="#63b8ff" stroke="#63b8ff" points="487.22,-47.98 477.78,-52.79 488.16,-54.92 487.22,-47.98"/>
</a>
</g>
</g>
<!-- Node2 -->
<g id="Node000002" class="node">
<title>Node2</title>
<g id="a_Node000002"><a xlink:href="class_harlinn_1_1_windows_1_1_graphics_1_1_d3_d11_1_1_d3_d11_device_child.xhtml" target="_top" xlink:title=" ">
<polygon fill="white" stroke="#666666" points="291,-78 154,-78 154,-48 291,-48 291,-78"/>
<text text-anchor="start" x="162" y="-66" font-family="Helvetica,sans-Serif" font-size="10.00">Harlinn::Windows::Graphics</text>
<text text-anchor="middle" x="222.5" y="-55" font-family="Helvetica,sans-Serif" font-size="10.00">::D3D11::D3D11DeviceChild</text>
</a>
</g>
</g>
<!-- Node2&#45;&gt;Node1 -->
<g id="edge1_Node000001_Node000002" class="edge">
<title>Node2&#45;&gt;Node1</title>
<g id="a_edge1_Node000001_Node000002"><a xlink:title=" ">
<path fill="none" stroke="#63b8ff" d="M302.88,-63C310.76,-63 318.75,-63 326.57,-63"/>
<polygon fill="#63b8ff" stroke="#63b8ff" points="302.94,-59.5 292.94,-63 302.94,-66.5 302.94,-59.5"/>
</a>
</g>
</g>
<!-- Node3 -->
<g id="Node000003" class="node">
<title>Node3</title>
<g id="a_Node000003"><a xlink:href="class_harlinn_1_1_common_1_1_core_1_1_unknown.xhtml" target="_top" xlink:title=" ">
<polygon fill="white" stroke="#666666" points="118,-78 0,-78 0,-48 118,-48 118,-78"/>
<text text-anchor="start" x="8" y="-66" font-family="Helvetica,sans-Serif" font-size="10.00">Harlinn::Common::Core</text>
<text text-anchor="middle" x="59" y="-55" font-family="Helvetica,sans-Serif" font-size="10.00">::Unknown</text>
</a>
</g>
</g>
<!-- Node3&#45;&gt;Node2 -->
<g id="edge2_Node000002_Node000003" class="edge">
<title>Node3&#45;&gt;Node2</title>
<g id="a_edge2_Node000002_Node000003"><a xlink:title=" ">
<path fill="none" stroke="#63b8ff" d="M129.78,-63C137.7,-63 145.77,-63 153.67,-63"/>
<polygon fill="#63b8ff" stroke="#63b8ff" points="129.82,-59.5 119.82,-63 129.82,-66.5 129.82,-59.5"/>
</a>
</g>
</g>
<!-- Node6 -->
<g id="Node000006" class="node">
<title>Node6</title>
<g id="a_Node000006"><a xlink:href="class_harlinn_1_1_windows_1_1_graphics_1_1_d3_d11_1_1_d3_d11_predicate.xhtml" target="_top" xlink:title=" ">
<polygon fill="white" stroke="#666666" points="822,-78 685,-78 685,-48 822,-48 822,-78"/>
<text text-anchor="start" x="693" y="-66" font-family="Helvetica,sans-Serif" font-size="10.00">Harlinn::Windows::Graphics</text>
<text text-anchor="middle" x="753.5" y="-55" font-family="Helvetica,sans-Serif" font-size="10.00">::D3D11::D3D11Predicate</text>
</a>
</g>
</g>
<!-- Node5&#45;&gt;Node6 -->
<g id="edge5_Node000005_Node000006" class="edge">
<title>Node5&#45;&gt;Node6</title>
<g id="a_edge5_Node000005_Node000006"><a xlink:title=" ">
<path fill="none" stroke="#63b8ff" d="M660.41,-50.08C668.48,-51.21 676.63,-52.35 684.57,-53.47"/>
<polygon fill="#63b8ff" stroke="#63b8ff" points="660.97,-46.62 650.58,-48.7 660,-53.55 660.97,-46.62"/>
</a>
</g>
</g>
<!-- Node7 -->
<g id="Node000007" class="node">
<title>Node7</title>
<g id="a_Node000007"><a xlink:href="class_harlinn_1_1_windows_1_1_graphics_1_1_d3_d11_1_1_d3_d11_query1.xhtml" target="_top" xlink:title=" ">
<polygon fill="white" stroke="#666666" points="822,-30 685,-30 685,0 822,0 822,-30"/>
<text text-anchor="start" x="693" y="-18" font-family="Helvetica,sans-Serif" font-size="10.00">Harlinn::Windows::Graphics</text>
<text text-anchor="middle" x="753.5" y="-7" font-family="Helvetica,sans-Serif" font-size="10.00">::D3D11::D3D11Query1</text>
</a>
</g>
</g>
<!-- Node5&#45;&gt;Node7 -->
<g id="edge6_Node000005_Node000007" class="edge">
<title>Node5&#45;&gt;Node7</title>
<g id="a_edge6_Node000005_Node000007"><a xlink:title=" ">
<path fill="none" stroke="#63b8ff" d="M660.41,-27.92C668.48,-26.79 676.63,-25.65 684.57,-24.53"/>
<polygon fill="#63b8ff" stroke="#63b8ff" points="660,-24.45 650.58,-29.3 660.97,-31.38 660,-24.45"/>
</a>
</g>
</g>
</g>
</svg>
