<?xml version="1.0" encoding="UTF-8" standalone="no"?>
<!DOCTYPE svg PUBLIC "-//W3C//DTD SVG 1.1//EN"
 "http://www.w3.org/Graphics/SVG/1.1/DTD/svg11.dtd">
<!-- Generated by graphviz version 7.0.1 (20221109.1506)
 -->
<!-- Title: Harlinn::Common::Core::Http::Server::SendBodyRequest Pages: 1 -->
<svg width="1999pt" height="337pt"
 viewBox="0.00 0.00 1999.00 337.00" xmlns="http://www.w3.org/2000/svg" xmlns:xlink="http://www.w3.org/1999/xlink">
<g id="graph0" class="graph" transform="scale(1 1) rotate(0) translate(4 333)">
<title>Harlinn::Common::Core::Http::Server::SendBodyRequest</title>
<!-- Node1 -->
<g id="Node000001" class="node">
<title>Node1</title>
<g id="a_Node000001"><a xlink:title=" ">
<polygon fill="#999999" stroke="#666666" points="1991,-78 1830,-78 1830,-48 1991,-48 1991,-78"/>
<text text-anchor="start" x="1838" y="-66" font-family="Helvetica,sans-Serif" font-size="10.00">Harlinn::Common::Core</text>
<text text-anchor="middle" x="1910.5" y="-55" font-family="Helvetica,sans-Serif" font-size="10.00">::Http::Server::SendBodyRequest</text>
</a>
</g>
</g>
<!-- Node2 -->
<g id="Node000002" class="node">
<title>Node2</title>
<g id="a_Node000002"><a xlink:href="class_harlinn_1_1_common_1_1_core_1_1_http_1_1_server_1_1_request.html" target="_top" xlink:title=" ">
<polygon fill="white" stroke="#666666" points="1728,-126 1610,-126 1610,-96 1728,-96 1728,-126"/>
<text text-anchor="start" x="1618" y="-114" font-family="Helvetica,sans-Serif" font-size="10.00">Harlinn::Common::Core</text>
<text text-anchor="middle" x="1669" y="-103" font-family="Helvetica,sans-Serif" font-size="10.00">::Http::Server::Request</text>
</a>
</g>
</g>
<!-- Node2&#45;&gt;Node1 -->
<g id="edge1_Node000001_Node000002" class="edge">
<title>Node2&#45;&gt;Node1</title>
<g id="a_edge1_Node000001_Node000002"><a xlink:title=" ">
<path fill="none" stroke="#63b8ff" d="M1739.19,-97.13C1768.34,-91.29 1802.38,-84.47 1832.33,-78.47"/>
<polygon fill="#63b8ff" stroke="#63b8ff" points="1738.88,-93.62 1729.77,-99.02 1740.26,-100.49 1738.88,-93.62"/>
</a>
</g>
</g>
<!-- Node3 -->
<g id="Node000003" class="node">
<title>Node3</title>
<g id="a_Node000003"><a xlink:href="class_harlinn_1_1_common_1_1_core_1_1_i_o_1_1_request.html" target="_top" xlink:title="Base class for all asynchronous requests.">
<polygon fill="white" stroke="#666666" points="1522,-126 1404,-126 1404,-96 1522,-96 1522,-126"/>
<text text-anchor="start" x="1412" y="-114" font-family="Helvetica,sans-Serif" font-size="10.00">Harlinn::Common::Core</text>
<text text-anchor="middle" x="1463" y="-103" font-family="Helvetica,sans-Serif" font-size="10.00">::IO::Request</text>
</a>
</g>
</g>
<!-- Node3&#45;&gt;Node2 -->
<g id="edge2_Node000002_Node000003" class="edge">
<title>Node3&#45;&gt;Node2</title>
<g id="a_edge2_Node000002_Node000003"><a xlink:title=" ">
<path fill="none" stroke="#63b8ff" d="M1533.92,-111C1558.55,-111 1585.95,-111 1609.53,-111"/>
<polygon fill="#63b8ff" stroke="#63b8ff" points="1533.97,-107.5 1523.97,-111 1533.97,-114.5 1533.97,-107.5"/>
</a>
</g>
</g>
<!-- Node4 -->
<g id="Node000004" class="node">
<title>Node4</title>
<g id="a_Node000004"><a xlink:title=" ">
<polygon fill="white" stroke="#666666" points="1292.5,-137.5 1209.5,-137.5 1209.5,-118.5 1292.5,-118.5 1292.5,-137.5"/>
<text text-anchor="middle" x="1251" y="-125.5" font-family="Helvetica,sans-Serif" font-size="10.00">OVERLAPPED</text>
</a>
</g>
</g>
<!-- Node4&#45;&gt;Node3 -->
<g id="edge3_Node000003_Node000004" class="edge">
<title>Node4&#45;&gt;Node3</title>
<g id="a_edge3_Node000003_Node000004"><a xlink:title=" ">
<path fill="none" stroke="#63b8ff" d="M1304.15,-123.78C1334.35,-121.33 1372.44,-118.25 1403.63,-115.72"/>
<polygon fill="#63b8ff" stroke="#63b8ff" points="1304.18,-120.26 1294.5,-124.56 1304.75,-127.24 1304.18,-120.26"/>
</a>
</g>
</g>
<!-- Node5 -->
<g id="Node000005" class="node">
<title>Node5</title>
<g id="a_Node000005"><a xlink:title=" ">
<polygon fill="white" stroke="#666666" points="1327,-100 1175,-100 1175,-70 1327,-70 1327,-100"/>
<text text-anchor="start" x="1183" y="-88" font-family="Helvetica,sans-Serif" font-size="10.00">std::weak_ptr&lt; Harlinn</text>
<text text-anchor="middle" x="1251" y="-77" font-family="Helvetica,sans-Serif" font-size="10.00">::Common::Core::IO::Context &gt;</text>
</a>
</g>
</g>
<!-- Node5&#45;&gt;Node3 -->
<g id="edge4_Node000003_Node000005" class="edge">
<title>Node5&#45;&gt;Node3</title>
<g id="a_edge4_Node000003_Node000005"><a xlink:title=" ">
<path fill="none" stroke="#9a32cd" stroke-dasharray="5,2" d="M1338.58,-95.72C1360.54,-98.44 1383.6,-101.29 1403.77,-103.79"/>
<polygon fill="#9a32cd" stroke="#9a32cd" points="1339.08,-92.25 1328.72,-94.5 1338.22,-99.2 1339.08,-92.25"/>
</a>
</g>
<text text-anchor="middle" x="1365.5" y="-105" font-family="Helvetica,sans-Serif" font-size="10.00" fill="grey"> context_</text>
</g>
<!-- Node6 -->
<g id="Node000006" class="node">
<title>Node6</title>
<g id="a_Node000006"><a xlink:href="class_harlinn_1_1_common_1_1_core_1_1_i_o_1_1_context.html" target="_top" xlink:title="Context is an I/O completion port with an attached thread&#45;pool that services I/O completion notificat...">
<polygon fill="white" stroke="#666666" points="1124,-196 1006,-196 1006,-166 1124,-166 1124,-196"/>
<text text-anchor="start" x="1014" y="-184" font-family="Helvetica,sans-Serif" font-size="10.00">Harlinn::Common::Core</text>
<text text-anchor="middle" x="1065" y="-173" font-family="Helvetica,sans-Serif" font-size="10.00">::IO::Context</text>
</a>
</g>
</g>
<!-- Node6&#45;&gt;Node5 -->
<g id="edge5_Node000005_Node000006" class="edge">
<title>Node6&#45;&gt;Node5</title>
<g id="a_edge5_Node000005_Node000006"><a xlink:title=" ">
<path fill="none" stroke="#9a32cd" stroke-dasharray="5,2" d="M1094.61,-158.95C1115.87,-143.36 1146.09,-122.85 1175,-109 1181.53,-105.87 1188.58,-103.01 1195.64,-100.43"/>
<polygon fill="#9a32cd" stroke="#9a32cd" points="1092.65,-156.04 1086.72,-164.82 1096.83,-161.65 1092.65,-156.04"/>
</a>
</g>
<text text-anchor="middle" x="1149.5" y="-130" font-family="Helvetica,sans-Serif" font-size="10.00" fill="grey"> ptr</text>
</g>
<!-- Node7 -->
<g id="Node000007" class="node">
<title>Node7</title>
<g id="a_Node000007"><a xlink:title=" ">
<polygon fill="white" stroke="#666666" points="869,-244 756,-244 756,-214 869,-214 869,-244"/>
<text text-anchor="start" x="764" y="-232" font-family="Helvetica,sans-Serif" font-size="10.00">std::enable_shared</text>
<text text-anchor="middle" x="812.5" y="-221" font-family="Helvetica,sans-Serif" font-size="10.00">_from_this&lt; Context &gt;</text>
</a>
</g>
</g>
<!-- Node7&#45;&gt;Node6 -->
<g id="edge6_Node000006_Node000007" class="edge">
<title>Node7&#45;&gt;Node6</title>
<g id="a_edge6_Node000006_Node000007"><a xlink:title=" ">
<path fill="none" stroke="#63b8ff" d="M880.65,-216.13C919.64,-208.66 968.27,-199.34 1005.65,-192.18"/>
<polygon fill="#63b8ff" stroke="#63b8ff" points="880.05,-212.68 870.89,-218 881.37,-219.56 880.05,-212.68"/>
</a>
</g>
</g>
<!-- Node8 -->
<g id="Node000008" class="node">
<title>Node8</title>
<g id="a_Node000008"><a xlink:href="class_harlinn_1_1_common_1_1_core_1_1_i_o_1_1_i_o_completion_port.html" target="_top" xlink:title=" ">
<polygon fill="white" stroke="#666666" points="871.5,-196 753.5,-196 753.5,-166 871.5,-166 871.5,-196"/>
<text text-anchor="start" x="761.5" y="-184" font-family="Helvetica,sans-Serif" font-size="10.00">Harlinn::Common::Core</text>
<text text-anchor="middle" x="812.5" y="-173" font-family="Helvetica,sans-Serif" font-size="10.00">::IO::IOCompletionPort</text>
</a>
</g>
</g>
<!-- Node8&#45;&gt;Node6 -->
<g id="edge7_Node000006_Node000008" class="edge">
<title>Node8&#45;&gt;Node6</title>
<g id="a_edge7_Node000006_Node000008"><a xlink:title=" ">
<path fill="none" stroke="#63b8ff" d="M883.08,-181C921.74,-181 969.28,-181 1005.93,-181"/>
<polygon fill="#63b8ff" stroke="#63b8ff" points="883.43,-177.5 873.43,-181 883.43,-184.5 883.43,-177.5"/>
</a>
</g>
</g>
<!-- Node9 -->
<g id="Node000009" class="node">
<title>Node9</title>
<g id="a_Node000009"><a xlink:href="class_harlinn_1_1_common_1_1_core_1_1_event_wait_handle.html" target="_top" xlink:title=" ">
<polygon fill="white" stroke="#666666" points="451,-329 333,-329 333,-299 451,-299 451,-329"/>
<text text-anchor="start" x="341" y="-317" font-family="Helvetica,sans-Serif" font-size="10.00">Harlinn::Common::Core</text>
<text text-anchor="middle" x="392" y="-306" font-family="Helvetica,sans-Serif" font-size="10.00">::EventWaitHandle</text>
</a>
</g>
</g>
<!-- Node9&#45;&gt;Node6 -->
<g id="edge8_Node000006_Node000009" class="edge">
<title>Node9&#45;&gt;Node6</title>
<g id="a_edge8_Node000006_Node000009"><a xlink:title=" ">
<path fill="none" stroke="#9a32cd" stroke-dasharray="5,2" d="M462.86,-313.62C557.29,-312.08 730.56,-305.61 876,-280 926.99,-271.02 942.58,-272.84 988,-248 1012.85,-234.41 1036.5,-211.42 1050.63,-196.22"/>
<polygon fill="#9a32cd" stroke="#9a32cd" points="462.93,-310.12 452.98,-313.77 463.03,-317.12 462.93,-310.12"/>
</a>
</g>
<text text-anchor="middle" x="682" y="-309" font-family="Helvetica,sans-Serif" font-size="10.00" fill="grey"> event_</text>
</g>
<!-- Node10 -->
<g id="Node000010" class="node">
<title>Node10</title>
<g id="a_Node000010"><a xlink:href="class_harlinn_1_1_common_1_1_core_1_1_waitable_handle.html" target="_top" xlink:title=" ">
<polygon fill="white" stroke="#666666" points="118,-311 0,-311 0,-281 118,-281 118,-311"/>
<text text-anchor="start" x="8" y="-299" font-family="Helvetica,sans-Serif" font-size="10.00">Harlinn::Common::Core</text>
<text text-anchor="middle" x="59" y="-288" font-family="Helvetica,sans-Serif" font-size="10.00">::WaitableHandle</text>
</a>
</g>
</g>
<!-- Node10&#45;&gt;Node9 -->
<g id="edge9_Node000009_Node000010" class="edge">
<title>Node10&#45;&gt;Node9</title>
<g id="a_edge9_Node000009_Node000010"><a xlink:title=" ">
<path fill="none" stroke="#63b8ff" d="M129.72,-299.79C189.94,-303.07 275.96,-307.74 332.61,-310.82"/>
<polygon fill="#63b8ff" stroke="#63b8ff" points="130.1,-296.31 119.93,-299.26 129.72,-303.3 130.1,-296.31"/>
</a>
</g>
</g>
<!-- Node14 -->
<g id="Node000014" class="node">
<title>Node14</title>
<g id="a_Node000014"><a xlink:href="class_harlinn_1_1_common_1_1_core_1_1_thread.html" target="_top" xlink:title=" ">
<polygon fill="white" stroke="#666666" points="315,-272 197,-272 197,-242 315,-242 315,-272"/>
<text text-anchor="start" x="205" y="-260" font-family="Helvetica,sans-Serif" font-size="10.00">Harlinn::Common::Core</text>
<text text-anchor="middle" x="256" y="-249" font-family="Helvetica,sans-Serif" font-size="10.00">::Thread</text>
</a>
</g>
</g>
<!-- Node10&#45;&gt;Node14 -->
<g id="edge14_Node000014_Node000010" class="edge">
<title>Node10&#45;&gt;Node14</title>
<g id="a_edge14_Node000014_Node000010"><a xlink:title=" ">
<path fill="none" stroke="#63b8ff" d="M129.53,-282.09C151.53,-277.69 175.6,-272.88 196.72,-268.66"/>
<polygon fill="#63b8ff" stroke="#63b8ff" points="128.85,-278.66 119.73,-284.05 130.22,-285.53 128.85,-278.66"/>
</a>
</g>
</g>
<!-- Node11 -->
<g id="Node000011" class="node">
<title>Node11</title>
<g id="a_Node000011"><a xlink:href="class_harlinn_1_1_common_1_1_core_1_1_thread_group.html" target="_top" xlink:title=" ">
<polygon fill="white" stroke="#666666" points="871.5,-148 753.5,-148 753.5,-118 871.5,-118 871.5,-148"/>
<text text-anchor="start" x="761.5" y="-136" font-family="Helvetica,sans-Serif" font-size="10.00">Harlinn::Common::Core</text>
<text text-anchor="middle" x="812.5" y="-125" font-family="Helvetica,sans-Serif" font-size="10.00">::ThreadGroup</text>
</a>
</g>
</g>
<!-- Node11&#45;&gt;Node6 -->
<g id="edge10_Node000006_Node000011" class="edge">
<title>Node11&#45;&gt;Node6</title>
<g id="a_edge10_Node000006_Node000011"><a xlink:title=" ">
<path fill="none" stroke="#9a32cd" stroke-dasharray="5,2" d="M882.73,-145.96C914.77,-151.99 953.34,-159.3 988,-166 993.68,-167.1 999.59,-168.25 1005.5,-169.41"/>
<polygon fill="#9a32cd" stroke="#9a32cd" points="883.65,-142.57 873.18,-144.16 882.36,-149.45 883.65,-142.57"/>
</a>
</g>
<text text-anchor="middle" x="941" y="-169" font-family="Helvetica,sans-Serif" font-size="10.00" fill="grey"> threads_</text>
</g>
<!-- Node12 -->
<g id="Node000012" class="node">
<title>Node12</title>
<g id="a_Node000012"><a xlink:href="class_harlinn_1_1_common_1_1_core_1_1_critical_section.html" target="_top" xlink:title="A critical section object provides synchronization similar to that provided by a mutex object,...">
<polygon fill="white" stroke="#666666" points="601,-280 483,-280 483,-250 601,-250 601,-280"/>
<text text-anchor="start" x="491" y="-268" font-family="Helvetica,sans-Serif" font-size="10.00">Harlinn::Common::Core</text>
<text text-anchor="middle" x="542" y="-257" font-family="Helvetica,sans-Serif" font-size="10.00">::CriticalSection</text>
</a>
</g>
</g>
<!-- Node12&#45;&gt;Node6 -->
<g id="edge18_Node000006_Node000012" class="edge">
<title>Node12&#45;&gt;Node6</title>
<g id="a_edge18_Node000006_Node000012"><a xlink:title=" ">
<path fill="none" stroke="#9a32cd" stroke-dasharray="5,2" d="M612.57,-267.69C680.31,-269.09 785.92,-268.03 876,-253 927.31,-244.44 939.67,-238.26 988,-219 1004.31,-212.5 1021.88,-203.83 1036.01,-196.42"/>
<polygon fill="#9a32cd" stroke="#9a32cd" points="612.8,-264.19 602.72,-267.46 612.64,-271.19 612.8,-264.19"/>
</a>
</g>
<text text-anchor="middle" x="812.5" y="-268" font-family="Helvetica,sans-Serif" font-size="10.00" fill="grey"> criticalSection_</text>
</g>
<!-- Node12&#45;&gt;Node11 -->
<g id="edge11_Node000011_Node000012" class="edge">
<title>Node12&#45;&gt;Node11</title>
<g id="a_edge11_Node000011_Node000012"><a xlink:title=" ">
<path fill="none" stroke="#9a32cd" stroke-dasharray="5,2" d="M612.06,-249.19C650.52,-237.61 697.29,-218.64 731,-189 743.25,-178.22 736.65,-167.67 749,-157 752.78,-153.73 757.06,-150.89 761.55,-148.41"/>
<polygon fill="#9a32cd" stroke="#9a32cd" points="611.54,-245.69 602.91,-251.84 613.49,-252.42 611.54,-245.69"/>
</a>
</g>
<text text-anchor="middle" x="682" y="-244" font-family="Helvetica,sans-Serif" font-size="10.00" fill="grey"> criticalSection_</text>
</g>
<!-- Node13 -->
<g id="Node000013" class="node">
<title>Node13</title>
<g id="a_Node000013"><a xlink:title=" ">
<polygon fill="white" stroke="#666666" points="615,-217.5 469,-217.5 469,-176.5 615,-176.5 615,-217.5"/>
<text text-anchor="start" x="477" y="-205.5" font-family="Helvetica,sans-Serif" font-size="10.00">std::unordered_map</text>
<text text-anchor="start" x="477" y="-194.5" font-family="Helvetica,sans-Serif" font-size="10.00">&lt; HANDLE, Harlinn::Common</text>
<text text-anchor="middle" x="542" y="-183.5" font-family="Helvetica,sans-Serif" font-size="10.00">::Core::Thread &gt;</text>
</a>
</g>
</g>
<!-- Node13&#45;&gt;Node11 -->
<g id="edge12_Node000011_Node000013" class="edge">
<title>Node13&#45;&gt;Node11</title>
<g id="a_edge12_Node000011_Node000013"><a xlink:title=" ">
<path fill="none" stroke="#9a32cd" stroke-dasharray="5,2" d="M626.4,-177.12C667.48,-167.33 716.01,-155.76 753.08,-146.93"/>
<polygon fill="#9a32cd" stroke="#9a32cd" points="625.69,-173.69 616.78,-179.41 627.32,-180.5 625.69,-173.69"/>
</a>
</g>
<text text-anchor="middle" x="682" y="-177" font-family="Helvetica,sans-Serif" font-size="10.00" fill="grey"> threads_</text>
</g>
<!-- Node14&#45;&gt;Node13 -->
<g id="edge13_Node000013_Node000014" class="edge">
<title>Node14&#45;&gt;Node13</title>
<g id="a_edge13_Node000013_Node000014"><a xlink:title=" ">
<path fill="none" stroke="#9a32cd" stroke-dasharray="5,2" d="M326.58,-245.43C363.66,-238.92 409.97,-230.26 451,-221 456.84,-219.68 462.87,-218.24 468.91,-216.75"/>
<polygon fill="#9a32cd" stroke="#9a32cd" points="326.13,-241.95 316.88,-247.12 327.33,-248.85 326.13,-241.95"/>
</a>
</g>
<text text-anchor="middle" x="392" y="-246" font-family="Helvetica,sans-Serif" font-size="10.00" fill="grey"> elements</text>
</g>
<!-- Node15 -->
<g id="Node000015" class="node">
<title>Node15</title>
<g id="a_Node000015"><a xlink:title=" ">
<polygon fill="white" stroke="#666666" points="307.5,-206 204.5,-206 204.5,-176 307.5,-176 307.5,-206"/>
<text text-anchor="start" x="212.5" y="-194" font-family="Helvetica,sans-Serif" font-size="10.00">std::unordered_map</text>
<text text-anchor="middle" x="256" y="-183" font-family="Helvetica,sans-Serif" font-size="10.00">&lt; K, T &gt;</text>
</a>
</g>
</g>
<!-- Node15&#45;&gt;Node13 -->
<g id="edge15_Node000013_Node000015" class="edge">
<title>Node15&#45;&gt;Node13</title>
<g id="a_edge15_Node000013_Node000015"><a xlink:title=" ">
<path fill="none" stroke="orange" stroke-dasharray="5,2" d="M319.19,-192.31C363.2,-193.24 422.37,-194.49 468.52,-195.47"/>
<polygon fill="orange" stroke="orange" points="319.36,-188.82 309.29,-192.1 319.21,-195.82 319.36,-188.82"/>
</a>
</g>
<text text-anchor="start" x="337" y="-209" font-family="Helvetica,sans-Serif" font-size="10.00" fill="grey"> &lt; HANDLE, Harlinn::</text>
<text text-anchor="middle" x="392" y="-198" font-family="Helvetica,sans-Serif" font-size="10.00" fill="grey">Common::Core::Thread &gt;</text>
</g>
<!-- Node16 -->
<g id="Node000016" class="node">
<title>Node16</title>
<g id="a_Node000016"><a xlink:title=" ">
<polygon fill="white" stroke="#666666" points="73.5,-176.5 44.5,-176.5 44.5,-157.5 73.5,-157.5 73.5,-176.5"/>
<text text-anchor="middle" x="59" y="-164.5" font-family="Helvetica,sans-Serif" font-size="10.00">K</text>
</a>
</g>
</g>
<!-- Node16&#45;&gt;Node15 -->
<g id="edge16_Node000015_Node000016" class="edge">
<title>Node16&#45;&gt;Node15</title>
<g id="a_edge16_Node000015_Node000016"><a xlink:title=" ">
<path fill="none" stroke="#9a32cd" stroke-dasharray="5,2" d="M84.8,-170.05C114.75,-173.74 165.89,-180.03 204.31,-184.76"/>
<polygon fill="#9a32cd" stroke="#9a32cd" points="85.57,-166.62 75.21,-168.87 84.71,-173.57 85.57,-166.62"/>
</a>
</g>
<text text-anchor="middle" x="157.5" y="-184" font-family="Helvetica,sans-Serif" font-size="10.00" fill="grey"> keys</text>
</g>
<!-- Node21 -->
<g id="Node000021" class="node">
<title>Node21</title>
<g id="a_Node000021"><a xlink:title=" ">
<polygon fill="white" stroke="#666666" points="429,-151.5 355,-151.5 355,-132.5 429,-132.5 429,-151.5"/>
<text text-anchor="middle" x="392" y="-139.5" font-family="Helvetica,sans-Serif" font-size="10.00">std::set&lt; K &gt;</text>
</a>
</g>
</g>
<!-- Node16&#45;&gt;Node21 -->
<g id="edge24_Node000021_Node000016" class="edge">
<title>Node16&#45;&gt;Node21</title>
<g id="a_edge24_Node000021_Node000016"><a xlink:title=" ">
<path fill="none" stroke="#9a32cd" stroke-dasharray="5,2" d="M85.02,-165C99.84,-163.82 118.99,-162.31 136,-161 213.9,-155.02 305.22,-148.28 354.68,-144.66"/>
<polygon fill="#9a32cd" stroke="#9a32cd" points="84.93,-161.49 75.24,-165.78 85.48,-168.47 84.93,-161.49"/>
</a>
</g>
<text text-anchor="middle" x="157.5" y="-164" font-family="Helvetica,sans-Serif" font-size="10.00" fill="grey"> keys</text>
</g>
<!-- Node17 -->
<g id="Node000017" class="node">
<title>Node17</title>
<g id="a_Node000017"><a xlink:title=" ">
<polygon fill="white" stroke="#666666" points="73.5,-89.5 44.5,-89.5 44.5,-70.5 73.5,-70.5 73.5,-89.5"/>
<text text-anchor="middle" x="59" y="-77.5" font-family="Helvetica,sans-Serif" font-size="10.00">T</text>
</a>
</g>
</g>
<!-- Node17&#45;&gt;Node15 -->
<g id="edge17_Node000015_Node000017" class="edge">
<title>Node17&#45;&gt;Node15</title>
<g id="a_edge17_Node000015_Node000017"><a xlink:title=" ">
<path fill="none" stroke="#9a32cd" stroke-dasharray="5,2" d="M84.82,-83.6C109.95,-88.06 149.24,-97.33 179,-115 205.8,-130.91 229.97,-158.4 243.55,-175.6"/>
<polygon fill="#9a32cd" stroke="#9a32cd" points="85.66,-80.19 75.22,-82.02 84.52,-87.09 85.66,-80.19"/>
</a>
</g>
<text text-anchor="middle" x="157.5" y="-118" font-family="Helvetica,sans-Serif" font-size="10.00" fill="grey"> elements</text>
</g>
<!-- Node20 -->
<g id="Node000020" class="node">
<title>Node20</title>
<g id="a_Node000020"><a xlink:title=" ">
<polygon fill="white" stroke="#666666" points="308.5,-91.5 203.5,-91.5 203.5,-72.5 308.5,-72.5 308.5,-91.5"/>
<text text-anchor="middle" x="256" y="-79.5" font-family="Helvetica,sans-Serif" font-size="10.00">std::shared_ptr&lt; T &gt;</text>
</a>
</g>
</g>
<!-- Node17&#45;&gt;Node20 -->
<g id="edge22_Node000020_Node000017" class="edge">
<title>Node17&#45;&gt;Node20</title>
<g id="a_edge22_Node000020_Node000017"><a xlink:title=" ">
<path fill="none" stroke="#9a32cd" stroke-dasharray="5,2" d="M85.22,-80.18C109.3,-80.35 146.63,-80.65 179,-81 186.78,-81.08 195.02,-81.18 203.08,-81.28"/>
<polygon fill="#9a32cd" stroke="#9a32cd" points="85.46,-76.68 75.44,-80.11 85.41,-83.68 85.46,-76.68"/>
</a>
</g>
<text text-anchor="middle" x="157.5" y="-84" font-family="Helvetica,sans-Serif" font-size="10.00" fill="grey"> ptr</text>
</g>
<!-- Node22 -->
<g id="Node000022" class="node">
<title>Node22</title>
<g id="a_Node000022"><a xlink:title=" ">
<polygon fill="white" stroke="#666666" points="731,-51.5 633,-51.5 633,-32.5 731,-32.5 731,-51.5"/>
<text text-anchor="middle" x="682" y="-39.5" font-family="Helvetica,sans-Serif" font-size="10.00">std::weak_ptr&lt; T &gt;</text>
</a>
</g>
</g>
<!-- Node17&#45;&gt;Node22 -->
<g id="edge26_Node000022_Node000017" class="edge">
<title>Node17&#45;&gt;Node22</title>
<g id="a_edge26_Node000022_Node000017"><a xlink:title=" ">
<path fill="none" stroke="#9a32cd" stroke-dasharray="5,2" d="M84.72,-73.54C111.99,-66.74 157.28,-56.43 197,-52 355.7,-34.29 545.44,-37.36 632.72,-40.12"/>
<polygon fill="#9a32cd" stroke="#9a32cd" points="84.17,-70.07 75.34,-75.92 85.89,-76.85 84.17,-70.07"/>
</a>
</g>
<text text-anchor="middle" x="256" y="-55" font-family="Helvetica,sans-Serif" font-size="10.00" fill="grey"> ptr</text>
</g>
<!-- Node18 -->
<g id="Node000018" class="node">
<title>Node18</title>
<g id="a_Node000018"><a xlink:title=" ">
<polygon fill="white" stroke="#666666" points="876,-100 749,-100 749,-70 876,-70 876,-100"/>
<text text-anchor="start" x="757" y="-88" font-family="Helvetica,sans-Serif" font-size="10.00">std::set&lt; std::shared</text>
<text text-anchor="middle" x="812.5" y="-77" font-family="Helvetica,sans-Serif" font-size="10.00">_ptr&lt; ContextHandler &gt; &gt;</text>
</a>
</g>
</g>
<!-- Node18&#45;&gt;Node6 -->
<g id="edge19_Node000006_Node000018" class="edge">
<title>Node18&#45;&gt;Node6</title>
<g id="a_edge19_Node000006_Node000018"><a xlink:title=" ">
<path fill="none" stroke="#9a32cd" stroke-dasharray="5,2" d="M887.32,-100.85C919.02,-108.89 956.04,-119.97 988,-134 1007.46,-142.55 1027.86,-155.41 1042.62,-165.51"/>
<polygon fill="#9a32cd" stroke="#9a32cd" points="888.36,-97.5 877.81,-98.5 886.68,-104.3 888.36,-97.5"/>
</a>
</g>
<text text-anchor="middle" x="941" y="-137" font-family="Helvetica,sans-Serif" font-size="10.00" fill="grey"> handlers_</text>
</g>
<!-- Node19 -->
<g id="Node000019" class="node">
<title>Node19</title>
<g id="a_Node000019"><a xlink:title=" ">
<polygon fill="white" stroke="#666666" points="604.5,-100 479.5,-100 479.5,-70 604.5,-70 604.5,-100"/>
<text text-anchor="start" x="487.5" y="-88" font-family="Helvetica,sans-Serif" font-size="10.00">std::shared_ptr&lt; Context</text>
<text text-anchor="middle" x="542" y="-77" font-family="Helvetica,sans-Serif" font-size="10.00">Handler &gt;</text>
</a>
</g>
</g>
<!-- Node19&#45;&gt;Node18 -->
<g id="edge20_Node000018_Node000019" class="edge">
<title>Node19&#45;&gt;Node18</title>
<g id="a_edge20_Node000018_Node000019"><a xlink:title=" ">
<path fill="none" stroke="#9a32cd" stroke-dasharray="5,2" d="M616.37,-85C657.92,-85 709.33,-85 748.95,-85"/>
<polygon fill="#9a32cd" stroke="#9a32cd" points="616.45,-81.5 606.45,-85 616.45,-88.5 616.45,-81.5"/>
</a>
</g>
<text text-anchor="middle" x="682" y="-88" font-family="Helvetica,sans-Serif" font-size="10.00" fill="grey"> keys</text>
</g>
<!-- Node20&#45;&gt;Node19 -->
<g id="edge21_Node000019_Node000020" class="edge">
<title>Node20&#45;&gt;Node19</title>
<g id="a_edge21_Node000019_Node000020"><a xlink:title=" ">
<path fill="none" stroke="orange" stroke-dasharray="5,2" d="M320.12,-82.67C367.53,-83.17 432.12,-83.85 479.21,-84.35"/>
<polygon fill="orange" stroke="orange" points="320.31,-79.17 310.27,-82.56 320.24,-86.17 320.31,-79.17"/>
</a>
</g>
<text text-anchor="middle" x="392" y="-88" font-family="Helvetica,sans-Serif" font-size="10.00" fill="grey"> &lt; ContextHandler &gt;</text>
</g>
<!-- Node21&#45;&gt;Node18 -->
<g id="edge23_Node000018_Node000021" class="edge">
<title>Node21&#45;&gt;Node18</title>
<g id="a_edge23_Node000018_Node000021"><a xlink:title=" ">
<path fill="none" stroke="orange" stroke-dasharray="5,2" d="M440.28,-137.04C505.75,-129.96 627.64,-116.04 731,-100 736.76,-99.11 742.74,-98.11 748.72,-97.08"/>
<polygon fill="orange" stroke="orange" points="440.19,-133.53 430.62,-138.08 440.94,-140.49 440.19,-133.53"/>
</a>
</g>
<text text-anchor="start" x="498" y="-148" font-family="Helvetica,sans-Serif" font-size="10.00" fill="grey"> &lt; std::shared_ptr&lt;</text>
<text text-anchor="middle" x="542" y="-137" font-family="Helvetica,sans-Serif" font-size="10.00" fill="grey"> ContextHandler &gt; &gt;</text>
</g>
<!-- Node22&#45;&gt;Node5 -->
<g id="edge25_Node000005_Node000022" class="edge">
<title>Node22&#45;&gt;Node5</title>
<g id="a_edge25_Node000005_Node000022"><a xlink:title=" ">
<path fill="none" stroke="orange" stroke-dasharray="5,2" d="M742.56,-46.52C846.51,-54.4 1060.83,-70.65 1174.83,-79.3"/>
<polygon fill="orange" stroke="orange" points="743.09,-43.05 732.85,-45.78 742.56,-50.03 743.09,-43.05"/>
</a>
</g>
<text text-anchor="start" x="894" y="-79" font-family="Helvetica,sans-Serif" font-size="10.00" fill="grey"> &lt; Harlinn::Common::</text>
<text text-anchor="middle" x="941" y="-68" font-family="Helvetica,sans-Serif" font-size="10.00" fill="grey">Core::IO::Context &gt;</text>
</g>
<!-- Node23 -->
<g id="Node000023" class="node">
<title>Node23</title>
<g id="a_Node000023"><a xlink:href="struct_harlinn_1_1_common_1_1_core_1_1_http_1_1_data_chunk.html" target="_top" xlink:title="This structure describes an individual data chunk.">
<polygon fill="white" stroke="#666666" points="1728,-78 1610,-78 1610,-48 1728,-48 1728,-78"/>
<text text-anchor="start" x="1618" y="-66" font-family="Helvetica,sans-Serif" font-size="10.00">Harlinn::Common::Core</text>
<text text-anchor="middle" x="1669" y="-55" font-family="Helvetica,sans-Serif" font-size="10.00">::Http::DataChunk</text>
</a>
</g>
</g>
<!-- Node23&#45;&gt;Node1 -->
<g id="edge27_Node000001_Node000023" class="edge">
<title>Node23&#45;&gt;Node1</title>
<g id="a_edge27_Node000001_Node000023"><a xlink:title=" ">
<path fill="none" stroke="#9a32cd" stroke-dasharray="5,2" d="M1739.65,-63C1767.82,-63 1800.5,-63 1829.63,-63"/>
<polygon fill="#9a32cd" stroke="#9a32cd" points="1739.8,-59.5 1729.8,-63 1739.8,-66.5 1739.8,-59.5"/>
</a>
</g>
<text text-anchor="middle" x="1779" y="-66" font-family="Helvetica,sans-Serif" font-size="10.00" fill="grey"> entityChunks_</text>
</g>
<!-- Node24 -->
<g id="Node000024" class="node">
<title>Node24</title>
<g id="a_Node000024"><a xlink:href="struct_harlinn_1_1_common_1_1_core_1_1_http_1_1_byte_range.html" target="_top" xlink:title="This structure defines a file byte range.">
<polygon fill="white" stroke="#666666" points="1522,-78 1404,-78 1404,-48 1522,-48 1522,-78"/>
<text text-anchor="start" x="1412" y="-66" font-family="Helvetica,sans-Serif" font-size="10.00">Harlinn::Common::Core</text>
<text text-anchor="middle" x="1463" y="-55" font-family="Helvetica,sans-Serif" font-size="10.00">::Http::ByteRange</text>
</a>
</g>
</g>
<!-- Node24&#45;&gt;Node23 -->
<g id="edge28_Node000023_Node000024" class="edge">
<title>Node24&#45;&gt;Node23</title>
<g id="a_edge28_Node000023_Node000024"><a xlink:title=" ">
<path fill="none" stroke="#9a32cd" stroke-dasharray="5,2" d="M1533.92,-63C1558.55,-63 1585.95,-63 1609.53,-63"/>
<polygon fill="#9a32cd" stroke="#9a32cd" points="1533.97,-59.5 1523.97,-63 1533.97,-66.5 1533.97,-59.5"/>
</a>
</g>
<text text-anchor="middle" x="1566" y="-66" font-family="Helvetica,sans-Serif" font-size="10.00" fill="grey"> ByteRange</text>
</g>
<!-- Node25 -->
<g id="Node000025" class="node">
<title>Node25</title>
<g id="a_Node000025"><a xlink:href="struct_harlinn_1_1_common_1_1_core_1_1_http_1_1_log_data.html" target="_top" xlink:title=" ">
<polygon fill="white" stroke="#666666" points="1728,-30 1610,-30 1610,0 1728,0 1728,-30"/>
<text text-anchor="start" x="1618" y="-18" font-family="Helvetica,sans-Serif" font-size="10.00">Harlinn::Common::Core</text>
<text text-anchor="middle" x="1669" y="-7" font-family="Helvetica,sans-Serif" font-size="10.00">::Http::LogData</text>
</a>
</g>
</g>
<!-- Node25&#45;&gt;Node1 -->
<g id="edge29_Node000001_Node000025" class="edge">
<title>Node25&#45;&gt;Node1</title>
<g id="a_edge29_Node000001_Node000025"><a xlink:title=" ">
<path fill="none" stroke="#9a32cd" stroke-dasharray="5,2" d="M1739.19,-28.87C1768.34,-34.71 1802.38,-41.53 1832.33,-47.53"/>
<polygon fill="#9a32cd" stroke="#9a32cd" points="1740.26,-25.51 1729.77,-26.98 1738.88,-32.38 1740.26,-25.51"/>
</a>
</g>
<text text-anchor="middle" x="1779" y="-47" font-family="Helvetica,sans-Serif" font-size="10.00" fill="grey"> logData_</text>
</g>
</g>
</svg>
