<?xml version="1.0" encoding="UTF-8" standalone="no"?>
<!DOCTYPE svg PUBLIC "-//W3C//DTD SVG 1.1//EN"
 "http://www.w3.org/Graphics/SVG/1.1/DTD/svg11.dtd">
<!-- Generated by graphviz version 7.0.1 (20221109.1506)
 -->
<!-- Title: Harlinn::Windows::ListControl Pages: 1 -->
<svg width="307pt" height="203pt"
 viewBox="0.00 0.00 306.50 203.00" xmlns="http://www.w3.org/2000/svg" xmlns:xlink="http://www.w3.org/1999/xlink">
<g id="graph0" class="graph" transform="scale(1 1) rotate(0) translate(4 199)">
<title>Harlinn::Windows::ListControl</title>
<!-- Node1 -->
<g id="Node000001" class="node">
<title>Node1</title>
<g id="a_Node000001"><a xlink:title=" ">
<polygon fill="#999999" stroke="#666666" points="223.5,-140 78.5,-140 78.5,-121 223.5,-121 223.5,-140"/>
<text text-anchor="middle" x="151" y="-128" font-family="Helvetica,sans-Serif" font-size="10.00">Harlinn::Windows::ListControl</text>
</a>
</g>
</g>
<!-- Node3 -->
<g id="Node000003" class="node">
<title>Node3</title>
<g id="a_Node000003"><a xlink:href="class_harlinn_1_1_windows_1_1_combo_box.html" target="_top" xlink:title=" ">
<polygon fill="white" stroke="#666666" points="146,-85 0,-85 0,-66 146,-66 146,-85"/>
<text text-anchor="middle" x="73" y="-73" font-family="Helvetica,sans-Serif" font-size="10.00">Harlinn::Windows::ComboBox</text>
</a>
</g>
</g>
<!-- Node1&#45;&gt;Node3 -->
<g id="edge2_Node000001_Node000003" class="edge">
<title>Node1&#45;&gt;Node3</title>
<g id="a_edge2_Node000001_Node000003"><a xlink:title=" ">
<path fill="none" stroke="#63b8ff" d="M128.47,-114.19C114.7,-104.84 97.59,-93.21 86.04,-85.36"/>
<polygon fill="#63b8ff" stroke="#63b8ff" points="126.28,-116.93 136.52,-119.66 130.21,-111.14 126.28,-116.93"/>
</a>
</g>
</g>
<!-- Node4 -->
<g id="Node000004" class="node">
<title>Node4</title>
<g id="a_Node000004"><a xlink:href="class_harlinn_1_1_windows_1_1_list_box.html" target="_top" xlink:title=" ">
<polygon fill="white" stroke="#666666" points="295.5,-85 164.5,-85 164.5,-66 295.5,-66 295.5,-85"/>
<text text-anchor="middle" x="230" y="-73" font-family="Helvetica,sans-Serif" font-size="10.00">Harlinn::Windows::ListBox</text>
</a>
</g>
</g>
<!-- Node1&#45;&gt;Node4 -->
<g id="edge3_Node000001_Node000004" class="edge">
<title>Node1&#45;&gt;Node4</title>
<g id="a_edge3_Node000001_Node000004"><a xlink:title=" ">
<path fill="none" stroke="#63b8ff" d="M173.82,-114.19C187.76,-104.84 205.1,-93.21 216.8,-85.36"/>
<polygon fill="#63b8ff" stroke="#63b8ff" points="172.01,-111.19 165.66,-119.67 175.91,-117 172.01,-111.19"/>
</a>
</g>
</g>
<!-- Node2 -->
<g id="Node000002" class="node">
<title>Node2</title>
<g id="a_Node000002"><a xlink:href="class_harlinn_1_1_windows_1_1_control.html" target="_top" xlink:title=" ">
<polygon fill="white" stroke="#666666" points="215.5,-195 86.5,-195 86.5,-176 215.5,-176 215.5,-195"/>
<text text-anchor="middle" x="151" y="-183" font-family="Helvetica,sans-Serif" font-size="10.00">Harlinn::Windows::Control</text>
</a>
</g>
</g>
<!-- Node2&#45;&gt;Node1 -->
<g id="edge1_Node000001_Node000002" class="edge">
<title>Node2&#45;&gt;Node1</title>
<g id="a_edge1_Node000001_Node000002"><a xlink:title=" ">
<path fill="none" stroke="#63b8ff" d="M151,-164.35C151,-156.1 151,-146.97 151,-140.44"/>
<polygon fill="#63b8ff" stroke="#63b8ff" points="147.5,-164.23 151,-174.23 154.5,-164.23 147.5,-164.23"/>
</a>
</g>
</g>
<!-- Node5 -->
<g id="Node000005" class="node">
<title>Node5</title>
<g id="a_Node000005"><a xlink:href="class_harlinn_1_1_windows_1_1_checked_list_box.html" target="_top" xlink:title=" ">
<polygon fill="white" stroke="#666666" points="298.5,-30 161.5,-30 161.5,0 298.5,0 298.5,-30"/>
<text text-anchor="start" x="169.5" y="-18" font-family="Helvetica,sans-Serif" font-size="10.00">Harlinn::Windows::Checked</text>
<text text-anchor="middle" x="230" y="-7" font-family="Helvetica,sans-Serif" font-size="10.00">ListBox</text>
</a>
</g>
</g>
<!-- Node4&#45;&gt;Node5 -->
<g id="edge4_Node000004_Node000005" class="edge">
<title>Node4&#45;&gt;Node5</title>
<g id="a_edge4_Node000004_Node000005"><a xlink:title=" ">
<path fill="none" stroke="#63b8ff" d="M230,-54.51C230,-46.49 230,-37.43 230,-30.11"/>
<polygon fill="#63b8ff" stroke="#63b8ff" points="226.5,-54.35 230,-64.35 233.5,-54.35 226.5,-54.35"/>
</a>
</g>
</g>
</g>
</svg>
