<?xml version="1.0" encoding="UTF-8" standalone="no"?>
<!DOCTYPE svg PUBLIC "-//W3C//DTD SVG 1.1//EN"
 "http://www.w3.org/Graphics/SVG/1.1/DTD/svg11.dtd">
<!-- Generated by graphviz version 7.0.1 (20221109.1506)
 -->
<!-- Title: Harlinn::OCI::TransactionHandle Pages: 1 -->
<svg width="506pt" height="511pt"
 viewBox="0.00 0.00 506.00 511.00" xmlns="http://www.w3.org/2000/svg" xmlns:xlink="http://www.w3.org/1999/xlink">
<g id="graph0" class="graph" transform="scale(1 1) rotate(0) translate(4 507)">
<title>Harlinn::OCI::TransactionHandle</title>
<!-- Node1 -->
<g id="Node000001" class="node">
<title>Node1</title>
<g id="a_Node000001"><a xlink:title="TransactionHandle.">
<polygon fill="#999999" stroke="#666666" points="486.5,-30 361.5,-30 361.5,0 486.5,0 486.5,-30"/>
<text text-anchor="start" x="369.5" y="-18" font-family="Helvetica,sans-Serif" font-size="10.00">Harlinn::OCI::Transaction</text>
<text text-anchor="middle" x="424" y="-7" font-family="Helvetica,sans-Serif" font-size="10.00">Handle</text>
</a>
</g>
</g>
<!-- Node2 -->
<g id="Node000002" class="node">
<title>Node2</title>
<g id="a_Node000002"><a xlink:href="class_harlinn_1_1_o_c_i_1_1_handle_base.html" target="_top" xlink:title="Base class for OCI handle wrappers.">
<polygon fill="white" stroke="#666666" points="454,-365.5 326,-365.5 326,-346.5 454,-346.5 454,-365.5"/>
<text text-anchor="middle" x="390" y="-353.5" font-family="Helvetica,sans-Serif" font-size="10.00">Harlinn::OCI::HandleBase</text>
</a>
</g>
</g>
<!-- Node2&#45;&gt;Node1 -->
<g id="edge1_Node000001_Node000002" class="edge">
<title>Node2&#45;&gt;Node1</title>
<g id="a_edge1_Node000001_Node000002"><a xlink:title=" ">
<path fill="none" stroke="#63b8ff" d="M442.04,-342.39C469.68,-332.25 498,-314.73 498,-285.5 498,-285.5 498,-285.5 498,-85.5 498,-60.65 475.55,-42.09 455.38,-30.43"/>
<polygon fill="#63b8ff" stroke="#63b8ff" points="440.94,-339.06 432.57,-345.56 443.17,-345.7 440.94,-339.06"/>
</a>
</g>
</g>
<!-- Node3 -->
<g id="Node000003" class="node">
<title>Node3</title>
<g id="a_Node000003"><a xlink:href="class_harlinn_1_1_o_c_i_1_1_service_context.html" target="_top" xlink:title="ServiceContext &#45; A service context handle defines attributes that determine the operational context f...">
<polygon fill="white" stroke="#666666" points="392,-96 252,-96 252,-77 392,-77 392,-96"/>
<text text-anchor="middle" x="322" y="-84" font-family="Helvetica,sans-Serif" font-size="10.00">Harlinn::OCI::ServiceContext</text>
</a>
</g>
</g>
<!-- Node2&#45;&gt;Node3 -->
<g id="edge3_Node000003_Node000002" class="edge">
<title>Node2&#45;&gt;Node3</title>
<g id="a_edge3_Node000003_Node000002"><a xlink:title=" ">
<path fill="none" stroke="#63b8ff" d="M419.46,-340.28C438.6,-328.43 460,-309.74 460,-285.5 460,-285.5 460,-285.5 460,-184.5 460,-155.87 379.52,-114.4 341.48,-96.4"/>
<polygon fill="#63b8ff" stroke="#63b8ff" points="417.74,-337.24 410.81,-345.26 421.23,-343.31 417.74,-337.24"/>
</a>
</g>
</g>
<!-- Node4 -->
<g id="Node000004" class="node">
<title>Node4</title>
<g id="a_Node000004"><a xlink:href="class_harlinn_1_1_o_c_i_1_1_environment.html" target="_top" xlink:title="The environment handle defines a context in which all OCI functions are invoked.">
<polygon fill="white" stroke="#666666" points="259,-294 131,-294 131,-275 259,-275 259,-294"/>
<text text-anchor="middle" x="195" y="-282" font-family="Helvetica,sans-Serif" font-size="10.00">Harlinn::OCI::Environment</text>
</a>
</g>
</g>
<!-- Node2&#45;&gt;Node4 -->
<g id="edge5_Node000004_Node000002" class="edge">
<title>Node2&#45;&gt;Node4</title>
<g id="a_edge5_Node000004_Node000002"><a xlink:title=" ">
<path fill="none" stroke="#63b8ff" d="M367.88,-340.16C353.16,-330.88 333.09,-319.34 314,-312 294.05,-304.33 271.31,-298.59 251.1,-294.44"/>
<polygon fill="#63b8ff" stroke="#63b8ff" points="365.56,-342.83 375.86,-345.32 369.36,-336.95 365.56,-342.83"/>
</a>
</g>
</g>
<!-- Node8 -->
<g id="Node000008" class="node">
<title>Node8</title>
<g id="a_Node000008"><a xlink:href="class_harlinn_1_1_o_c_i_1_1_error_handle.html" target="_top" xlink:title="The error handle is passed as a parameter to most OCI calls.">
<polygon fill="white" stroke="#666666" points="393,-228 267,-228 267,-209 393,-209 393,-228"/>
<text text-anchor="middle" x="330" y="-216" font-family="Helvetica,sans-Serif" font-size="10.00">Harlinn::OCI::ErrorHandle</text>
</a>
</g>
</g>
<!-- Node2&#45;&gt;Node8 -->
<g id="edge10_Node000008_Node000002" class="edge">
<title>Node2&#45;&gt;Node8</title>
<g id="a_edge10_Node000008_Node000002"><a xlink:title=" ">
<path fill="none" stroke="#63b8ff" d="M389.71,-334.53C388.48,-311.31 383.65,-273.15 366,-246 361.26,-238.71 353.78,-232.73 346.86,-228.3"/>
<polygon fill="#63b8ff" stroke="#63b8ff" points="386.21,-334.61 390.04,-344.49 393.21,-334.38 386.21,-334.61"/>
</a>
</g>
</g>
<!-- Node9 -->
<g id="Node000009" class="node">
<title>Node9</title>
<g id="a_Node000009"><a xlink:href="class_harlinn_1_1_o_c_i_1_1_server.html" target="_top" xlink:title="A server handle represents a connection between the client application and the Oracle database server...">
<polygon fill="white" stroke="#666666" points="330,-162 228,-162 228,-143 330,-143 330,-162"/>
<text text-anchor="middle" x="279" y="-150" font-family="Helvetica,sans-Serif" font-size="10.00">Harlinn::OCI::Server</text>
</a>
</g>
</g>
<!-- Node2&#45;&gt;Node9 -->
<g id="edge13_Node000009_Node000002" class="edge">
<title>Node2&#45;&gt;Node9</title>
<g id="a_edge13_Node000009_Node000002"><a xlink:title=" ">
<path fill="none" stroke="#63b8ff" d="M398.57,-335.6C410.3,-305.78 427.23,-248.06 402,-209 385.79,-183.91 355.22,-170.04 328.61,-162.45"/>
<polygon fill="#63b8ff" stroke="#63b8ff" points="395.34,-334.24 394.72,-344.82 401.8,-336.94 395.34,-334.24"/>
</a>
</g>
</g>
<!-- Node10 -->
<g id="Node000010" class="node">
<title>Node10</title>
<g id="a_Node000010"><a xlink:href="class_harlinn_1_1_o_c_i_1_1_session.html" target="_top" xlink:title="Session.">
<polygon fill="white" stroke="#666666" points="110,-162 0,-162 0,-143 110,-143 110,-162"/>
<text text-anchor="middle" x="55" y="-150" font-family="Helvetica,sans-Serif" font-size="10.00">Harlinn::OCI::Session</text>
</a>
</g>
</g>
<!-- Node2&#45;&gt;Node10 -->
<g id="edge17_Node000010_Node000002" class="edge">
<title>Node2&#45;&gt;Node10</title>
<g id="a_edge17_Node000010_Node000002"><a xlink:title=" ">
<path fill="none" stroke="#63b8ff" d="M314.15,-347.12C276.63,-342.14 230.94,-334.43 191,-323 159.02,-313.85 149.85,-312.19 122,-294 87,-271.15 73.22,-265.62 55,-228 44.51,-206.35 49.26,-176.83 52.65,-162.31"/>
<polygon fill="#63b8ff" stroke="#63b8ff" points="313.65,-350.59 324.02,-348.39 314.55,-343.64 313.65,-350.59"/>
</a>
</g>
</g>
<!-- Node3&#45;&gt;Node1 -->
<g id="edge2_Node000001_Node000003" class="edge">
<title>Node3&#45;&gt;Node1</title>
<g id="a_edge2_Node000001_Node000003"><a xlink:title=" ">
<path fill="none" stroke="#9a32cd" stroke-dasharray="5,2" d="M326.41,-65.9C328.67,-59.51 332.04,-52.83 337,-48 344.62,-40.6 354.09,-34.88 363.95,-30.48"/>
<polygon fill="#9a32cd" stroke="#9a32cd" points="323.14,-64.59 323.83,-75.16 329.88,-66.47 323.14,-64.59"/>
</a>
</g>
<text text-anchor="middle" x="373.5" y="-51" font-family="Helvetica,sans-Serif" font-size="10.00" fill="grey"> serviceContext_</text>
</g>
<!-- Node4&#45;&gt;Node3 -->
<g id="edge4_Node000003_Node000004" class="edge">
<title>Node4&#45;&gt;Node3</title>
<g id="a_edge4_Node000003_Node000004"><a xlink:title=" ">
<path fill="none" stroke="#9a32cd" stroke-dasharray="5,2" d="M174.77,-267.49C151.35,-246.94 118.26,-210.32 137,-180 166.92,-131.58 230.71,-107.66 274.96,-96.46"/>
<polygon fill="#9a32cd" stroke="#9a32cd" points="172.37,-270.04 182.28,-273.79 176.87,-264.68 172.37,-270.04"/>
</a>
</g>
<text text-anchor="middle" x="167.5" y="-183" font-family="Helvetica,sans-Serif" font-size="10.00" fill="grey"> environment_</text>
</g>
<!-- Node4&#45;&gt;Node8 -->
<g id="edge11_Node000008_Node000004" class="edge">
<title>Node4&#45;&gt;Node8</title>
<g id="a_edge11_Node000008_Node000004"><a xlink:title=" ">
<path fill="none" stroke="#9a32cd" stroke-dasharray="5,2" d="M250.47,-271.39C262.57,-267.66 275.02,-262.92 286,-257 299.96,-249.47 313.45,-236.95 321.73,-228.47"/>
<polygon fill="#9a32cd" stroke="#9a32cd" points="249.61,-268 240.97,-274.13 251.55,-274.73 249.61,-268"/>
</a>
</g>
<text text-anchor="middle" x="331.5" y="-249" font-family="Helvetica,sans-Serif" font-size="10.00" fill="grey"> environment_</text>
</g>
<!-- Node4&#45;&gt;Node9 -->
<g id="edge14_Node000009_Node000004" class="edge">
<title>Node4&#45;&gt;Node9</title>
<g id="a_edge14_Node000009_Node000004"><a xlink:title=" ">
<path fill="none" stroke="#9a32cd" stroke-dasharray="5,2" d="M189.75,-263.68C186.67,-247.38 185.37,-224.51 197,-209 212.68,-188.08 232,-206.57 253,-191 263.18,-183.45 270.79,-170.69 275.07,-162.18"/>
<polygon fill="#9a32cd" stroke="#9a32cd" points="186.27,-264.2 191.92,-273.17 193.1,-262.64 186.27,-264.2"/>
</a>
</g>
<text text-anchor="middle" x="227.5" y="-216" font-family="Helvetica,sans-Serif" font-size="10.00" fill="grey"> environment_</text>
</g>
<!-- Node4&#45;&gt;Node10 -->
<g id="edge18_Node000010_Node000004" class="edge">
<title>Node4&#45;&gt;Node10</title>
<g id="a_edge18_Node000010_Node000004"><a xlink:title=" ">
<path fill="none" stroke="#9a32cd" stroke-dasharray="5,2" d="M134.76,-271.26C109.98,-263.13 83.33,-249.78 67,-228 52.23,-208.29 52.68,-177.35 53.96,-162.31"/>
<polygon fill="#9a32cd" stroke="#9a32cd" points="133.56,-274.55 144.14,-274.09 135.58,-267.85 133.56,-274.55"/>
</a>
</g>
<text text-anchor="middle" x="97.5" y="-216" font-family="Helvetica,sans-Serif" font-size="10.00" fill="grey"> environment_</text>
</g>
<!-- Node5 -->
<g id="Node000005" class="node">
<title>Node5</title>
<g id="a_Node000005"><a xlink:title=" ">
<polygon fill="white" stroke="#666666" points="259,-371 131,-371 131,-341 259,-341 259,-371"/>
<text text-anchor="start" x="139" y="-359" font-family="Helvetica,sans-Serif" font-size="10.00">std::atomic&lt; Environment</text>
<text text-anchor="middle" x="195" y="-348" font-family="Helvetica,sans-Serif" font-size="10.00">Mode &gt;</text>
</a>
</g>
</g>
<!-- Node5&#45;&gt;Node4 -->
<g id="edge6_Node000004_Node000005" class="edge">
<title>Node5&#45;&gt;Node4</title>
<g id="a_edge6_Node000004_Node000005"><a xlink:title=" ">
<path fill="none" stroke="#9a32cd" stroke-dasharray="5,2" d="M195,-329.46C195,-317.07 195,-302.99 195,-294.18"/>
<polygon fill="#9a32cd" stroke="#9a32cd" points="191.5,-329.09 195,-339.09 198.5,-329.09 191.5,-329.09"/>
</a>
</g>
<text text-anchor="middle" x="252.5" y="-315" font-family="Helvetica,sans-Serif" font-size="10.00" fill="grey"> defaultEnvironmentMode_</text>
</g>
<!-- Node6 -->
<g id="Node000006" class="node">
<title>Node6</title>
<g id="a_Node000006"><a xlink:title=" ">
<polygon fill="white" stroke="#666666" points="239.5,-437 150.5,-437 150.5,-418 239.5,-418 239.5,-437"/>
<text text-anchor="middle" x="195" y="-425" font-family="Helvetica,sans-Serif" font-size="10.00">std::atomic&lt; T &gt;</text>
</a>
</g>
</g>
<!-- Node6&#45;&gt;Node5 -->
<g id="edge7_Node000005_Node000006" class="edge">
<title>Node6&#45;&gt;Node5</title>
<g id="a_edge7_Node000005_Node000006"><a xlink:title=" ">
<path fill="none" stroke="orange" stroke-dasharray="5,2" d="M195,-406.39C195,-395.15 195,-381.41 195,-371.27"/>
<polygon fill="orange" stroke="orange" points="191.5,-406.18 195,-416.18 198.5,-406.18 191.5,-406.18"/>
</a>
</g>
<text text-anchor="middle" x="244.5" y="-392" font-family="Helvetica,sans-Serif" font-size="10.00" fill="grey"> &lt; EnvironmentMode &gt;</text>
</g>
<!-- Node7 -->
<g id="Node000007" class="node">
<title>Node7</title>
<g id="a_Node000007"><a xlink:title=" ">
<polygon fill="white" stroke="#666666" points="209.5,-503 180.5,-503 180.5,-484 209.5,-484 209.5,-503"/>
<text text-anchor="middle" x="195" y="-491" font-family="Helvetica,sans-Serif" font-size="10.00">T</text>
</a>
</g>
</g>
<!-- Node7&#45;&gt;Node6 -->
<g id="edge8_Node000006_Node000007" class="edge">
<title>Node7&#45;&gt;Node6</title>
<g id="a_edge8_Node000006_Node000007"><a xlink:title=" ">
<path fill="none" stroke="#9a32cd" stroke-dasharray="5,2" d="M195,-472.18C195,-460.44 195,-446.27 195,-437.32"/>
<polygon fill="#9a32cd" stroke="#9a32cd" points="191.5,-472.09 195,-482.09 198.5,-472.09 191.5,-472.09"/>
</a>
</g>
<text text-anchor="middle" x="202.5" y="-458" font-family="Helvetica,sans-Serif" font-size="10.00" fill="grey"> ptr</text>
</g>
<!-- Node8&#45;&gt;Node1 -->
<g id="edge21_Node000001_Node000008" class="edge">
<title>Node8&#45;&gt;Node1</title>
<g id="a_edge21_Node000001_Node000008"><a xlink:title=" ">
<path fill="none" stroke="#9a32cd" stroke-dasharray="5,2" d="M347.5,-200.43C357.29,-190.07 369.09,-176.15 377,-162 401.94,-117.37 415.91,-57.56 421.33,-30.44"/>
<polygon fill="#9a32cd" stroke="#9a32cd" points="345.11,-197.86 340.61,-207.45 350.11,-202.76 345.11,-197.86"/>
</a>
</g>
<text text-anchor="middle" x="412" y="-117" font-family="Helvetica,sans-Serif" font-size="10.00" fill="grey"> error_</text>
</g>
<!-- Node8&#45;&gt;Node3 -->
<g id="edge20_Node000003_Node000008" class="edge">
<title>Node8&#45;&gt;Node3</title>
<g id="a_edge20_Node000003_Node000008"><a xlink:title=" ">
<path fill="none" stroke="#9a32cd" stroke-dasharray="5,2" d="M336.77,-197.88C343.02,-176.69 350.06,-142.19 341,-114 338.85,-107.32 334.33,-100.89 330.23,-96.04"/>
<polygon fill="#9a32cd" stroke="#9a32cd" points="333.5,-196.63 333.78,-207.22 340.16,-198.77 333.5,-196.63"/>
</a>
</g>
<text text-anchor="middle" x="359" y="-150" font-family="Helvetica,sans-Serif" font-size="10.00" fill="grey"> error_</text>
</g>
<!-- Node8&#45;&gt;Node4 -->
<g id="edge9_Node000004_Node000008" class="edge">
<title>Node8&#45;&gt;Node4</title>
<g id="a_edge9_Node000004_Node000008"><a xlink:title=" ">
<path fill="none" stroke="#9a32cd" stroke-dasharray="5,2" d="M291.53,-232.17C280.53,-236.2 268.64,-240.93 258,-246 240.08,-254.54 220.6,-266.6 208.12,-274.72"/>
<polygon fill="#9a32cd" stroke="#9a32cd" points="292.48,-235.55 300.73,-228.91 290.14,-228.96 292.48,-235.55"/>
</a>
</g>
<text text-anchor="middle" x="272" y="-249" font-family="Helvetica,sans-Serif" font-size="10.00" fill="grey"> error_</text>
</g>
<!-- Node8&#45;&gt;Node9 -->
<g id="edge15_Node000009_Node000008" class="edge">
<title>Node8&#45;&gt;Node9</title>
<g id="a_edge15_Node000009_Node000008"><a xlink:title=" ">
<path fill="none" stroke="#9a32cd" stroke-dasharray="5,2" d="M310.29,-200.98C307.01,-197.83 303.78,-194.44 301,-191 293.69,-181.96 287.21,-170.23 283.21,-162.31"/>
<polygon fill="#9a32cd" stroke="#9a32cd" points="307.89,-203.53 317.66,-207.62 312.57,-198.33 307.89,-203.53"/>
</a>
</g>
<text text-anchor="middle" x="315" y="-183" font-family="Helvetica,sans-Serif" font-size="10.00" fill="grey"> error_</text>
</g>
<!-- Node8&#45;&gt;Node10 -->
<g id="edge19_Node000010_Node000008" class="edge">
<title>Node8&#45;&gt;Node10</title>
<g id="a_edge19_Node000010_Node000008"><a xlink:title=" ">
<path fill="none" stroke="#9a32cd" stroke-dasharray="5,2" d="M291.55,-205.07C266.28,-197.19 232.39,-187.17 202,-180 171.97,-172.91 138.09,-166.69 110.43,-162.06"/>
<polygon fill="#9a32cd" stroke="#9a32cd" points="290.48,-208.4 301.07,-208.07 292.58,-201.73 290.48,-208.4"/>
</a>
</g>
<text text-anchor="middle" x="255" y="-183" font-family="Helvetica,sans-Serif" font-size="10.00" fill="grey"> error_</text>
</g>
<!-- Node9&#45;&gt;Node3 -->
<g id="edge12_Node000003_Node000009" class="edge">
<title>Node9&#45;&gt;Node3</title>
<g id="a_edge12_Node000003_Node000009"><a xlink:title=" ">
<path fill="none" stroke="#9a32cd" stroke-dasharray="5,2" d="M291.16,-133.4C299.31,-121.27 309.67,-105.84 316.07,-96.32"/>
<polygon fill="#9a32cd" stroke="#9a32cd" points="288.49,-131.09 285.82,-141.34 294.31,-135 288.49,-131.09"/>
</a>
</g>
<text text-anchor="middle" x="320" y="-117" font-family="Helvetica,sans-Serif" font-size="10.00" fill="grey"> server_</text>
</g>
<!-- Node10&#45;&gt;Node3 -->
<g id="edge16_Node000003_Node000010" class="edge">
<title>Node10&#45;&gt;Node3</title>
<g id="a_edge16_Node000003_Node000010"><a xlink:title=" ">
<path fill="none" stroke="#9a32cd" stroke-dasharray="5,2" d="M64.51,-132.93C69.11,-125.83 75.33,-118.39 83,-114 110.9,-98.03 191.72,-91.68 251.7,-89.16"/>
<polygon fill="#9a32cd" stroke="#9a32cd" points="61.61,-130.96 59.68,-141.38 67.68,-134.43 61.61,-130.96"/>
</a>
</g>
<text text-anchor="middle" x="104.5" y="-117" font-family="Helvetica,sans-Serif" font-size="10.00" fill="grey"> session_</text>
</g>
</g>
</svg>
