<?xml version="1.0" encoding="UTF-8" standalone="no"?>
<!DOCTYPE svg PUBLIC "-//W3C//DTD SVG 1.1//EN"
 "http://www.w3.org/Graphics/SVG/1.1/DTD/svg11.dtd">
<!-- Generated by graphviz version 7.0.1 (20221109.1506)
 -->
<!-- Title: Harlinn::Common::Core::IO::Sockets::Server::Internal::BufferQueue Pages: 1 -->
<svg width="185pt" height="357pt"
 viewBox="0.00 0.00 185.00 357.00" xmlns="http://www.w3.org/2000/svg" xmlns:xlink="http://www.w3.org/1999/xlink">
<g id="graph0" class="graph" transform="scale(1 1) rotate(0) translate(4 353)">
<title>Harlinn::Common::Core::IO::Sockets::Server::Internal::BufferQueue</title>
<!-- Node1 -->
<g id="Node000001" class="node">
<title>Node1</title>
<g id="a_Node000001"><a xlink:title=" ">
<polygon fill="#999999" stroke="#666666" points="118,-41 0,-41 0,0 118,0 118,-41"/>
<text text-anchor="start" x="8" y="-29" font-family="Helvetica,sans-Serif" font-size="10.00">Harlinn::Common::Core</text>
<text text-anchor="start" x="8" y="-18" font-family="Helvetica,sans-Serif" font-size="10.00">::IO::Sockets::Server</text>
<text text-anchor="middle" x="59" y="-7" font-family="Helvetica,sans-Serif" font-size="10.00">::Internal::BufferQueue</text>
</a>
</g>
</g>
<!-- Node2 -->
<g id="Node000002" class="node">
<title>Node2</title>
<g id="a_Node000002"><a xlink:href="class_harlinn_1_1_common_1_1_core_1_1_i_o_1_1_sockets_1_1_server_1_1_buffer.html" target="_top" xlink:title=" ">
<polygon fill="white" stroke="#666666" points="118,-140 0,-140 0,-99 118,-99 118,-140"/>
<text text-anchor="start" x="8" y="-128" font-family="Helvetica,sans-Serif" font-size="10.00">Harlinn::Common::Core</text>
<text text-anchor="start" x="8" y="-117" font-family="Helvetica,sans-Serif" font-size="10.00">::IO::Sockets::Server</text>
<text text-anchor="middle" x="59" y="-106" font-family="Helvetica,sans-Serif" font-size="10.00">::Buffer</text>
</a>
</g>
</g>
<!-- Node2&#45;&gt;Node1 -->
<g id="edge1_Node000001_Node000002" class="edge">
<title>Node2&#45;&gt;Node1</title>
<g id="a_edge1_Node000001_Node000002"><a xlink:title=" ">
<path fill="none" stroke="#9a32cd" stroke-dasharray="5,2" d="M59,-87.46C59,-72.38 59,-54.69 59,-41.43"/>
<polygon fill="#9a32cd" stroke="#9a32cd" points="55.5,-87.36 59,-97.36 62.5,-87.36 55.5,-87.36"/>
</a>
</g>
<text text-anchor="middle" x="74" y="-73" font-family="Helvetica,sans-Serif" font-size="10.00" fill="grey"> head_</text>
<text text-anchor="middle" x="74" y="-62" font-family="Helvetica,sans-Serif" font-size="10.00" fill="grey">tail_</text>
</g>
<!-- Node2&#45;&gt;Node2 -->
<g id="edge2_Node000002_Node000002" class="edge">
<title>Node2&#45;&gt;Node2</title>
<g id="a_edge2_Node000002_Node000002"><a xlink:title=" ">
<path fill="none" stroke="#9a32cd" stroke-dasharray="5,2" d="M129.55,-125.1C133.59,-123.75 136,-121.88 136,-119.5 136,-115.38 128.78,-112.8 118.4,-111.77"/>
<polygon fill="#9a32cd" stroke="#9a32cd" points="129.06,-121.63 119.89,-126.95 130.37,-128.51 129.06,-121.63"/>
</a>
</g>
<text text-anchor="middle" x="156.5" y="-122.5" font-family="Helvetica,sans-Serif" font-size="10.00" fill="grey"> next_</text>
<text text-anchor="middle" x="156.5" y="-111.5" font-family="Helvetica,sans-Serif" font-size="10.00" fill="grey">previous_</text>
</g>
<!-- Node3 -->
<g id="Node000003" class="node">
<title>Node3</title>
<g id="a_Node000003"><a xlink:title=" ">
<polygon fill="white" stroke="#666666" points="118,-217 0,-217 0,-187 118,-187 118,-217"/>
<text text-anchor="start" x="8" y="-205" font-family="Helvetica,sans-Serif" font-size="10.00">std::array&lt; Byte, Buffer</text>
<text text-anchor="middle" x="59" y="-194" font-family="Helvetica,sans-Serif" font-size="10.00">Size &gt;</text>
</a>
</g>
</g>
<!-- Node3&#45;&gt;Node2 -->
<g id="edge3_Node000002_Node000003" class="edge">
<title>Node3&#45;&gt;Node2</title>
<g id="a_edge3_Node000002_Node000003"><a xlink:title=" ">
<path fill="none" stroke="#9a32cd" stroke-dasharray="5,2" d="M59,-175.2C59,-163.86 59,-150.75 59,-140.21"/>
<polygon fill="#9a32cd" stroke="#9a32cd" points="55.5,-175.09 59,-185.09 62.5,-175.09 55.5,-175.09"/>
</a>
</g>
<text text-anchor="middle" x="73" y="-161" font-family="Helvetica,sans-Serif" font-size="10.00" fill="grey"> data_</text>
</g>
<!-- Node4 -->
<g id="Node000004" class="node">
<title>Node4</title>
<g id="a_Node000004"><a xlink:title=" ">
<polygon fill="white" stroke="#666666" points="99.5,-283 18.5,-283 18.5,-264 99.5,-264 99.5,-283"/>
<text text-anchor="middle" x="59" y="-271" font-family="Helvetica,sans-Serif" font-size="10.00">std::array&lt; T &gt;</text>
</a>
</g>
</g>
<!-- Node4&#45;&gt;Node3 -->
<g id="edge4_Node000003_Node000004" class="edge">
<title>Node4&#45;&gt;Node3</title>
<g id="a_edge4_Node000003_Node000004"><a xlink:title=" ">
<path fill="none" stroke="orange" stroke-dasharray="5,2" d="M59,-252.39C59,-241.15 59,-227.41 59,-217.27"/>
<polygon fill="orange" stroke="orange" points="55.5,-252.18 59,-262.18 62.5,-252.18 55.5,-252.18"/>
</a>
</g>
<text text-anchor="middle" x="105" y="-238" font-family="Helvetica,sans-Serif" font-size="10.00" fill="grey"> &lt; Byte, BufferSize &gt;</text>
</g>
<!-- Node5 -->
<g id="Node000005" class="node">
<title>Node5</title>
<g id="a_Node000005"><a xlink:title=" ">
<polygon fill="white" stroke="#666666" points="73.5,-349 44.5,-349 44.5,-330 73.5,-330 73.5,-349"/>
<text text-anchor="middle" x="59" y="-337" font-family="Helvetica,sans-Serif" font-size="10.00">T</text>
</a>
</g>
</g>
<!-- Node5&#45;&gt;Node4 -->
<g id="edge5_Node000004_Node000005" class="edge">
<title>Node5&#45;&gt;Node4</title>
<g id="a_edge5_Node000004_Node000005"><a xlink:title=" ">
<path fill="none" stroke="#9a32cd" stroke-dasharray="5,2" d="M59,-318.18C59,-306.44 59,-292.27 59,-283.32"/>
<polygon fill="#9a32cd" stroke="#9a32cd" points="55.5,-318.09 59,-328.09 62.5,-318.09 55.5,-318.09"/>
</a>
</g>
<text text-anchor="middle" x="80.5" y="-304" font-family="Helvetica,sans-Serif" font-size="10.00" fill="grey"> elements</text>
</g>
</g>
</svg>
