<?xml version="1.0" encoding="UTF-8" standalone="no"?>
<!DOCTYPE svg PUBLIC "-//W3C//DTD SVG 1.1//EN"
 "http://www.w3.org/Graphics/SVG/1.1/DTD/svg11.dtd">
<!-- Generated by graphviz version 7.0.1 (20221109.1506)
 -->
<!-- Title: Harlinn::Common::Core::Math::Tuple2&lt; DerivedT, T &gt; Pages: 1 -->
<svg width="745pt" height="285pt"
 viewBox="0.00 0.00 745.00 285.00" xmlns="http://www.w3.org/2000/svg" xmlns:xlink="http://www.w3.org/1999/xlink">
<g id="graph0" class="graph" transform="scale(1 1) rotate(0) translate(4 281)">
<title>Harlinn::Common::Core::Math::Tuple2&lt; DerivedT, T &gt;</title>
<!-- Node1 -->
<g id="Node000001" class="node">
<title>Node1</title>
<g id="a_Node000001"><a xlink:title="A tuple holding two numbers.">
<polygon fill="#999999" stroke="#666666" points="316,-153.5 171,-153.5 171,-123.5 316,-123.5 316,-153.5"/>
<text text-anchor="start" x="179" y="-141.5" font-family="Helvetica,sans-Serif" font-size="10.00">Harlinn::Common::Core</text>
<text text-anchor="middle" x="243.5" y="-130.5" font-family="Helvetica,sans-Serif" font-size="10.00">::Math::Tuple2&lt; DerivedT, T &gt;</text>
</a>
</g>
</g>
<!-- Node3 -->
<g id="Node000003" class="node">
<title>Node3</title>
<g id="a_Node000003"><a xlink:href="class_harlinn_1_1_common_1_1_core_1_1_math_1_1_tuple2.html" target="_top" xlink:title=" ">
<polygon fill="white" stroke="#666666" points="563,-277 442,-277 442,-236 563,-236 563,-277"/>
<text text-anchor="start" x="450" y="-265" font-family="Helvetica,sans-Serif" font-size="10.00">Harlinn::Common::Core</text>
<text text-anchor="start" x="450" y="-254" font-family="Helvetica,sans-Serif" font-size="10.00">::Math::Tuple2&lt; Point2f,</text>
<text text-anchor="middle" x="502.5" y="-243" font-family="Helvetica,sans-Serif" font-size="10.00"> float &gt;</text>
</a>
</g>
</g>
<!-- Node1&#45;&gt;Node3 -->
<g id="edge2_Node000001_Node000003" class="edge">
<title>Node1&#45;&gt;Node3</title>
<g id="a_edge2_Node000001_Node000003"><a xlink:title=" ">
<path fill="none" stroke="orange" stroke-dasharray="5,2" d="M273.48,-160.22C290.5,-172.3 312.76,-186.96 334,-197.5 368.38,-214.57 408.94,-228.99 441.53,-239.3"/>
<polygon fill="orange" stroke="orange" points="276,-157.72 265.84,-154.71 271.91,-163.4 276,-157.72"/>
</a>
</g>
<text text-anchor="middle" x="379" y="-235.5" font-family="Helvetica,sans-Serif" font-size="10.00" fill="grey"> &lt; Point2f, float &gt;</text>
</g>
<!-- Node5 -->
<g id="Node000005" class="node">
<title>Node5</title>
<g id="a_Node000005"><a xlink:href="class_harlinn_1_1_common_1_1_core_1_1_math_1_1_tuple2.html" target="_top" xlink:title=" ">
<polygon fill="white" stroke="#666666" points="563,-218 442,-218 442,-177 563,-177 563,-218"/>
<text text-anchor="start" x="450" y="-206" font-family="Helvetica,sans-Serif" font-size="10.00">Harlinn::Common::Core</text>
<text text-anchor="start" x="450" y="-195" font-family="Helvetica,sans-Serif" font-size="10.00">::Math::Tuple2&lt; Point2i,</text>
<text text-anchor="middle" x="502.5" y="-184" font-family="Helvetica,sans-Serif" font-size="10.00"> Int32 &gt;</text>
</a>
</g>
</g>
<!-- Node1&#45;&gt;Node5 -->
<g id="edge4_Node000001_Node000005" class="edge">
<title>Node1&#45;&gt;Node5</title>
<g id="a_edge4_Node000001_Node000005"><a xlink:title=" ">
<path fill="none" stroke="orange" stroke-dasharray="5,2" d="M305.83,-157.09C315.23,-159.71 324.85,-162.27 334,-164.5 369.42,-173.12 409.47,-181.07 441.53,-187.01"/>
<polygon fill="orange" stroke="orange" points="306.97,-153.78 296.39,-154.41 305.06,-160.51 306.97,-153.78"/>
</a>
</g>
<text text-anchor="middle" x="379" y="-185.5" font-family="Helvetica,sans-Serif" font-size="10.00" fill="grey"> &lt; Point2i, Int32 &gt;</text>
</g>
<!-- Node7 -->
<g id="Node000007" class="node">
<title>Node7</title>
<g id="a_Node000007"><a xlink:href="class_harlinn_1_1_common_1_1_core_1_1_math_1_1_tuple2.html" target="_top" xlink:title=" ">
<polygon fill="white" stroke="#666666" points="561.5,-159 443.5,-159 443.5,-118 561.5,-118 561.5,-159"/>
<text text-anchor="start" x="451.5" y="-147" font-family="Helvetica,sans-Serif" font-size="10.00">Harlinn::Common::Core</text>
<text text-anchor="start" x="451.5" y="-136" font-family="Helvetica,sans-Serif" font-size="10.00">::Math::Tuple2&lt; Vector</text>
<text text-anchor="middle" x="502.5" y="-125" font-family="Helvetica,sans-Serif" font-size="10.00">&lt; Int32, 2 &gt;, Int32 &gt;</text>
</a>
</g>
</g>
<!-- Node1&#45;&gt;Node7 -->
<g id="edge6_Node000001_Node000007" class="edge">
<title>Node1&#45;&gt;Node7</title>
<g id="a_edge6_Node000001_Node000007"><a xlink:title=" ">
<path fill="none" stroke="orange" stroke-dasharray="5,2" d="M327.89,-138.5C365.47,-138.5 408.96,-138.5 443,-138.5"/>
<polygon fill="orange" stroke="orange" points="327.94,-135 317.94,-138.5 327.94,-142 327.94,-135"/>
</a>
</g>
<text text-anchor="start" x="338" y="-152.5" font-family="Helvetica,sans-Serif" font-size="10.00" fill="grey"> &lt; Vector&lt; Int32, 2</text>
<text text-anchor="middle" x="379" y="-141.5" font-family="Helvetica,sans-Serif" font-size="10.00" fill="grey"> &gt;, Int32 &gt;</text>
</g>
<!-- Node9 -->
<g id="Node000009" class="node">
<title>Node9</title>
<g id="a_Node000009"><a xlink:href="class_harlinn_1_1_common_1_1_core_1_1_math_1_1_tuple2.html" target="_top" xlink:title=" ">
<polygon fill="white" stroke="#666666" points="561.5,-100 443.5,-100 443.5,-59 561.5,-59 561.5,-100"/>
<text text-anchor="start" x="451.5" y="-88" font-family="Helvetica,sans-Serif" font-size="10.00">Harlinn::Common::Core</text>
<text text-anchor="start" x="451.5" y="-77" font-family="Helvetica,sans-Serif" font-size="10.00">::Math::Tuple2&lt; Vector</text>
<text text-anchor="middle" x="502.5" y="-66" font-family="Helvetica,sans-Serif" font-size="10.00">&lt; double, 2 &gt;, double &gt;</text>
</a>
</g>
</g>
<!-- Node1&#45;&gt;Node9 -->
<g id="edge8_Node000001_Node000009" class="edge">
<title>Node1&#45;&gt;Node9</title>
<g id="a_edge8_Node000001_Node000009"><a xlink:title=" ">
<path fill="none" stroke="orange" stroke-dasharray="5,2" d="M305.83,-119.91C315.23,-117.29 324.85,-114.73 334,-112.5 370,-103.74 410.78,-95.67 443.09,-89.7"/>
<polygon fill="orange" stroke="orange" points="305.06,-116.49 296.39,-122.59 306.97,-123.22 305.06,-116.49"/>
</a>
</g>
<text text-anchor="start" x="334" y="-126.5" font-family="Helvetica,sans-Serif" font-size="10.00" fill="grey"> &lt; Vector&lt; double, 2</text>
<text text-anchor="middle" x="379" y="-115.5" font-family="Helvetica,sans-Serif" font-size="10.00" fill="grey"> &gt;, double &gt;</text>
</g>
<!-- Node11 -->
<g id="Node000011" class="node">
<title>Node11</title>
<g id="a_Node000011"><a xlink:href="class_harlinn_1_1_common_1_1_core_1_1_math_1_1_tuple2.html" target="_top" xlink:title=" ">
<polygon fill="white" stroke="#666666" points="561.5,-41 443.5,-41 443.5,0 561.5,0 561.5,-41"/>
<text text-anchor="start" x="451.5" y="-29" font-family="Helvetica,sans-Serif" font-size="10.00">Harlinn::Common::Core</text>
<text text-anchor="start" x="451.5" y="-18" font-family="Helvetica,sans-Serif" font-size="10.00">::Math::Tuple2&lt; Vector</text>
<text text-anchor="middle" x="502.5" y="-7" font-family="Helvetica,sans-Serif" font-size="10.00">&lt; float, 2 &gt;, float &gt;</text>
</a>
</g>
</g>
<!-- Node1&#45;&gt;Node11 -->
<g id="edge10_Node000001_Node000011" class="edge">
<title>Node1&#45;&gt;Node11</title>
<g id="a_edge10_Node000001_Node000011"><a xlink:title=" ">
<path fill="none" stroke="orange" stroke-dasharray="5,2" d="M268.26,-115.74C285.35,-100.46 309.61,-80.94 334,-68.5 368.36,-50.98 410.04,-39.01 443.23,-31.4"/>
<polygon fill="orange" stroke="orange" points="266.15,-112.93 261.13,-122.26 270.87,-118.09 266.15,-112.93"/>
</a>
</g>
<text text-anchor="start" x="339.5" y="-82.5" font-family="Helvetica,sans-Serif" font-size="10.00" fill="grey"> &lt; Vector&lt; float, 2</text>
<text text-anchor="middle" x="379" y="-71.5" font-family="Helvetica,sans-Serif" font-size="10.00" fill="grey"> &gt;, float &gt;</text>
</g>
<!-- Node2 -->
<g id="Node000002" class="node">
<title>Node2</title>
<g id="a_Node000002"><a xlink:href="struct_harlinn_1_1_common_1_1_core_1_1_math_1_1_internal_1_1_tuple_base.html" target="_top" xlink:title=" ">
<polygon fill="white" stroke="#666666" points="134,-153.5 0,-153.5 0,-123.5 134,-123.5 134,-153.5"/>
<text text-anchor="start" x="8" y="-141.5" font-family="Helvetica,sans-Serif" font-size="10.00">Harlinn::Common::Core</text>
<text text-anchor="middle" x="67" y="-130.5" font-family="Helvetica,sans-Serif" font-size="10.00">::Math::Internal::TupleBase</text>
</a>
</g>
</g>
<!-- Node2&#45;&gt;Node1 -->
<g id="edge1_Node000001_Node000002" class="edge">
<title>Node2&#45;&gt;Node1</title>
<g id="a_edge1_Node000001_Node000002"><a xlink:title=" ">
<path fill="none" stroke="#63b8ff" d="M145.71,-138.5C154.02,-138.5 162.45,-138.5 170.69,-138.5"/>
<polygon fill="#63b8ff" stroke="#63b8ff" points="145.98,-135 135.98,-138.5 145.98,-142 145.98,-135"/>
</a>
</g>
</g>
<!-- Node4 -->
<g id="Node000004" class="node">
<title>Node4</title>
<g id="a_Node000004"><a xlink:href="class_harlinn_1_1_common_1_1_core_1_1_math_1_1_point2f.html" target="_top" xlink:title=" ">
<polygon fill="white" stroke="#666666" points="727.5,-271.5 609.5,-271.5 609.5,-241.5 727.5,-241.5 727.5,-271.5"/>
<text text-anchor="start" x="617.5" y="-259.5" font-family="Helvetica,sans-Serif" font-size="10.00">Harlinn::Common::Core</text>
<text text-anchor="middle" x="668.5" y="-248.5" font-family="Helvetica,sans-Serif" font-size="10.00">::Math::Point2f</text>
</a>
</g>
</g>
<!-- Node3&#45;&gt;Node4 -->
<g id="edge3_Node000003_Node000004" class="edge">
<title>Node3&#45;&gt;Node4</title>
<g id="a_edge3_Node000003_Node000004"><a xlink:title=" ">
<path fill="none" stroke="#63b8ff" d="M574.6,-256.5C586.17,-256.5 598.03,-256.5 609.24,-256.5"/>
<polygon fill="#63b8ff" stroke="#63b8ff" points="574.69,-253 564.69,-256.5 574.69,-260 574.69,-253"/>
</a>
</g>
</g>
<!-- Node6 -->
<g id="Node000006" class="node">
<title>Node6</title>
<g id="a_Node000006"><a xlink:href="class_harlinn_1_1_common_1_1_core_1_1_math_1_1_point2i.html" target="_top" xlink:title=" ">
<polygon fill="white" stroke="#666666" points="727.5,-212.5 609.5,-212.5 609.5,-182.5 727.5,-182.5 727.5,-212.5"/>
<text text-anchor="start" x="617.5" y="-200.5" font-family="Helvetica,sans-Serif" font-size="10.00">Harlinn::Common::Core</text>
<text text-anchor="middle" x="668.5" y="-189.5" font-family="Helvetica,sans-Serif" font-size="10.00">::Math::Point2i</text>
</a>
</g>
</g>
<!-- Node5&#45;&gt;Node6 -->
<g id="edge5_Node000005_Node000006" class="edge">
<title>Node5&#45;&gt;Node6</title>
<g id="a_edge5_Node000005_Node000006"><a xlink:title=" ">
<path fill="none" stroke="#63b8ff" d="M574.6,-197.5C586.17,-197.5 598.03,-197.5 609.24,-197.5"/>
<polygon fill="#63b8ff" stroke="#63b8ff" points="574.69,-194 564.69,-197.5 574.69,-201 574.69,-194"/>
</a>
</g>
</g>
<!-- Node8 -->
<g id="Node000008" class="node">
<title>Node8</title>
<g id="a_Node000008"><a xlink:href="class_harlinn_1_1_common_1_1_core_1_1_math_1_1_vector_3_01_int32_00_012_01_4.html" target="_top" xlink:title=" ">
<polygon fill="white" stroke="#666666" points="733,-153.5 604,-153.5 604,-123.5 733,-123.5 733,-153.5"/>
<text text-anchor="start" x="612" y="-141.5" font-family="Helvetica,sans-Serif" font-size="10.00">Harlinn::Common::Core</text>
<text text-anchor="middle" x="668.5" y="-130.5" font-family="Helvetica,sans-Serif" font-size="10.00">::Math::Vector&lt; Int32, 2 &gt;</text>
</a>
</g>
</g>
<!-- Node7&#45;&gt;Node8 -->
<g id="edge7_Node000007_Node000008" class="edge">
<title>Node7&#45;&gt;Node8</title>
<g id="a_edge7_Node000007_Node000008"><a xlink:title=" ">
<path fill="none" stroke="#63b8ff" d="M573.06,-138.5C583.18,-138.5 593.56,-138.5 603.56,-138.5"/>
<polygon fill="#63b8ff" stroke="#63b8ff" points="573.3,-135 563.3,-138.5 573.3,-142 573.3,-135"/>
</a>
</g>
</g>
<!-- Node10 -->
<g id="Node000010" class="node">
<title>Node10</title>
<g id="a_Node000010"><a xlink:href="class_harlinn_1_1_common_1_1_core_1_1_math_1_1_vector_3_01double_00_012_01_4.html" target="_top" xlink:title=" ">
<polygon fill="white" stroke="#666666" points="737,-94.5 600,-94.5 600,-64.5 737,-64.5 737,-94.5"/>
<text text-anchor="start" x="608" y="-82.5" font-family="Helvetica,sans-Serif" font-size="10.00">Harlinn::Common::Core</text>
<text text-anchor="middle" x="668.5" y="-71.5" font-family="Helvetica,sans-Serif" font-size="10.00">::Math::Vector&lt; double, 2 &gt;</text>
</a>
</g>
</g>
<!-- Node9&#45;&gt;Node10 -->
<g id="edge9_Node000009_Node000010" class="edge">
<title>Node9&#45;&gt;Node10</title>
<g id="a_edge9_Node000009_Node000010"><a xlink:title=" ">
<path fill="none" stroke="#63b8ff" d="M573.15,-79.5C581.92,-79.5 590.87,-79.5 599.61,-79.5"/>
<polygon fill="#63b8ff" stroke="#63b8ff" points="573.3,-76 563.3,-79.5 573.3,-83 573.3,-76"/>
</a>
</g>
</g>
<!-- Node12 -->
<g id="Node000012" class="node">
<title>Node12</title>
<g id="a_Node000012"><a xlink:href="class_harlinn_1_1_common_1_1_core_1_1_math_1_1_vector_3_01float_00_012_01_4.html" target="_top" xlink:title=" ">
<polygon fill="white" stroke="#666666" points="731.5,-35.5 605.5,-35.5 605.5,-5.5 731.5,-5.5 731.5,-35.5"/>
<text text-anchor="start" x="613.5" y="-23.5" font-family="Helvetica,sans-Serif" font-size="10.00">Harlinn::Common::Core</text>
<text text-anchor="middle" x="668.5" y="-12.5" font-family="Helvetica,sans-Serif" font-size="10.00">::Math::Vector&lt; float, 2 &gt;</text>
</a>
</g>
</g>
<!-- Node11&#45;&gt;Node12 -->
<g id="edge11_Node000011_Node000012" class="edge">
<title>Node11&#45;&gt;Node12</title>
<g id="a_edge11_Node000011_Node000012"><a xlink:title=" ">
<path fill="none" stroke="#63b8ff" d="M573.19,-20.5C583.83,-20.5 594.76,-20.5 605.24,-20.5"/>
<polygon fill="#63b8ff" stroke="#63b8ff" points="573.3,-17 563.3,-20.5 573.3,-24 573.3,-17"/>
</a>
</g>
</g>
</g>
</svg>
