<?xml version="1.0" encoding="UTF-8" standalone="no"?>
<!DOCTYPE svg PUBLIC "-//W3C//DTD SVG 1.1//EN"
 "http://www.w3.org/Graphics/SVG/1.1/DTD/svg11.dtd">
<!-- Generated by graphviz version 7.0.1 (20221109.1506)
 -->
<!-- Title: Harlinn.Common.Core.Net.Entities.EntityContextExceptionEventArgs&lt; TKind &gt; Pages: 1 -->
<svg width="1674pt" height="206pt"
 viewBox="0.00 0.00 1674.00 205.70" xmlns="http://www.w3.org/2000/svg" xmlns:xlink="http://www.w3.org/1999/xlink">
<g id="graph0" class="graph" transform="scale(1 1) rotate(0) translate(4 201.7)">
<title>Harlinn.Common.Core.Net.Entities.EntityContextExceptionEventArgs&lt; TKind &gt;</title>
<!-- Node1 -->
<g id="Node000001" class="node">
<title>Node1</title>
<g id="a_Node000001"><a xlink:title=" ">
<polygon fill="#999999" stroke="#666666" points="1666,-161.7 1511,-161.7 1511,-120.7 1666,-120.7 1666,-161.7"/>
<text text-anchor="start" x="1519" y="-149.7" font-family="Helvetica,sans-Serif" font-size="10.00">Harlinn.Common.Core.Net.</text>
<text text-anchor="start" x="1519" y="-138.7" font-family="Helvetica,sans-Serif" font-size="10.00">Entities.EntityContextException</text>
<text text-anchor="middle" x="1588.5" y="-127.7" font-family="Helvetica,sans-Serif" font-size="10.00">EventArgs&lt; TKind &gt;</text>
</a>
</g>
</g>
<!-- Node2 -->
<g id="Node000002" class="node">
<title>Node2</title>
<g id="a_Node000002"><a xlink:href="class_harlinn_1_1_common_1_1_core_1_1_net_1_1_entities_1_1_entity_context_event_args.xhtml" target="_top" xlink:title=" ">
<polygon fill="white" stroke="#666666" points="1424,-195.2 1304,-195.2 1304,-165.2 1424,-165.2 1424,-195.2"/>
<text text-anchor="start" x="1312" y="-183.2" font-family="Helvetica,sans-Serif" font-size="10.00">EntityContextEventArgs</text>
<text text-anchor="middle" x="1364" y="-172.2" font-family="Helvetica,sans-Serif" font-size="10.00">&lt; TKind &gt;</text>
</a>
</g>
</g>
<!-- Node2&#45;&gt;Node1 -->
<g id="edge1_Node000001_Node000002" class="edge">
<title>Node2&#45;&gt;Node1</title>
<g id="a_edge1_Node000001_Node000002"><a xlink:title=" ">
<path fill="none" stroke="#63b8ff" d="M1435.47,-167.85C1459.43,-163.65 1486.31,-158.94 1510.74,-154.65"/>
<polygon fill="#63b8ff" stroke="#63b8ff" points="1435.07,-164.36 1425.82,-169.54 1436.28,-171.26 1435.07,-164.36"/>
</a>
</g>
</g>
<!-- Node3 -->
<g id="Node000003" class="node">
<title>Node3</title>
<g id="a_Node000003"><a xlink:title=" ">
<polygon fill="white" stroke="#666666" points="1217.5,-197.7 1156.5,-197.7 1156.5,-178.7 1217.5,-178.7 1217.5,-197.7"/>
<text text-anchor="middle" x="1187" y="-185.7" font-family="Helvetica,sans-Serif" font-size="10.00">EventArgs</text>
</a>
</g>
</g>
<!-- Node3&#45;&gt;Node2 -->
<g id="edge2_Node000002_Node000003" class="edge">
<title>Node3&#45;&gt;Node2</title>
<g id="a_edge2_Node000002_Node000003"><a xlink:title=" ">
<path fill="none" stroke="#63b8ff" d="M1229.08,-186.32C1251.31,-185.31 1279.17,-184.03 1303.72,-182.91"/>
<polygon fill="#63b8ff" stroke="#63b8ff" points="1229.03,-182.82 1219.2,-186.77 1229.35,-189.81 1229.03,-182.82"/>
</a>
</g>
</g>
<!-- Node4 -->
<g id="Node000004" class="node">
<title>Node4</title>
<g id="a_Node000004"><a xlink:href="class_harlinn_1_1_common_1_1_core_1_1_exception.xhtml" target="_top" xlink:title=" ">
<polygon fill="white" stroke="#666666" points="1423,-132.2 1305,-132.2 1305,-102.2 1423,-102.2 1423,-132.2"/>
<text text-anchor="start" x="1313" y="-120.2" font-family="Helvetica,sans-Serif" font-size="10.00">Harlinn::Common::Core</text>
<text text-anchor="middle" x="1364" y="-109.2" font-family="Helvetica,sans-Serif" font-size="10.00">::Exception</text>
</a>
</g>
</g>
<!-- Node4&#45;&gt;Node1 -->
<g id="edge3_Node000001_Node000004" class="edge">
<title>Node4&#45;&gt;Node1</title>
<g id="a_edge3_Node000001_Node000004"><a xlink:title=" ">
<path fill="none" stroke="#9a32cd" stroke-dasharray="5,2" d="M1434.66,-124.71C1458.78,-127.31 1485.93,-130.24 1510.59,-132.9"/>
<polygon fill="#9a32cd" stroke="#9a32cd" points="1435.28,-121.26 1424.96,-123.67 1434.53,-128.22 1435.28,-121.26"/>
</a>
</g>
<text text-anchor="middle" x="1467.5" y="-134.2" font-family="Helvetica,sans-Serif" font-size="10.00" fill="grey"> _exception</text>
</g>
<!-- Node5 -->
<g id="Node000005" class="node">
<title>Node5</title>
<g id="a_Node000005"><a xlink:title=" ">
<polygon fill="white" stroke="#666666" points="1226,-160.7 1148,-160.7 1148,-141.7 1226,-141.7 1226,-160.7"/>
<text text-anchor="middle" x="1187" y="-148.7" font-family="Helvetica,sans-Serif" font-size="10.00">std::exception</text>
</a>
</g>
</g>
<!-- Node5&#45;&gt;Node4 -->
<g id="edge4_Node000004_Node000005" class="edge">
<title>Node5&#45;&gt;Node4</title>
<g id="a_edge4_Node000004_Node000005"><a xlink:title=" ">
<path fill="none" stroke="#63b8ff" d="M1237.61,-141.56C1258.5,-137.5 1282.97,-132.75 1304.72,-128.52"/>
<polygon fill="#63b8ff" stroke="#63b8ff" points="1237.04,-138.11 1227.89,-143.45 1238.37,-144.98 1237.04,-138.11"/>
</a>
</g>
</g>
<!-- Node6 -->
<g id="Node000006" class="node">
<title>Node6</title>
<g id="a_Node000006"><a xlink:href="class_harlinn_1_1_common_1_1_core_1_1_exception_data.xhtml" target="_top" xlink:title=" ">
<polygon fill="white" stroke="#666666" points="1246,-94.2 1128,-94.2 1128,-64.2 1246,-64.2 1246,-94.2"/>
<text text-anchor="start" x="1136" y="-82.2" font-family="Helvetica,sans-Serif" font-size="10.00">Harlinn::Common::Core</text>
<text text-anchor="middle" x="1187" y="-71.2" font-family="Helvetica,sans-Serif" font-size="10.00">::ExceptionData</text>
</a>
</g>
</g>
<!-- Node6&#45;&gt;Node4 -->
<g id="edge5_Node000004_Node000006" class="edge">
<title>Node6&#45;&gt;Node4</title>
<g id="a_edge5_Node000004_Node000006"><a xlink:title=" ">
<path fill="none" stroke="#9a32cd" stroke-dasharray="5,2" d="M1257.49,-94.29C1273.12,-97.68 1289.56,-101.25 1304.68,-104.54"/>
<polygon fill="#9a32cd" stroke="#9a32cd" points="1258.27,-90.88 1247.75,-92.17 1256.78,-97.72 1258.27,-90.88"/>
</a>
</g>
<text text-anchor="middle" x="1275" y="-104.2" font-family="Helvetica,sans-Serif" font-size="10.00" fill="grey"> data</text>
</g>
<!-- Node6&#45;&gt;Node6 -->
<g id="edge14_Node000006_Node000006" class="edge">
<title>Node6&#45;&gt;Node6</title>
<g id="a_edge14_Node000006_Node000006"><a xlink:title=" ">
<path fill="none" stroke="#9a32cd" stroke-dasharray="5,2" d="M1172.15,-105.81C1174.53,-109.63 1179.48,-112.2 1187,-112.2 1200.75,-112.2 1205.91,-103.61 1202.47,-94.47"/>
<polygon fill="#9a32cd" stroke="#9a32cd" points="1175.66,-105.78 1171.61,-95.99 1168.67,-106.16 1175.66,-105.78"/>
</a>
</g>
<text text-anchor="middle" x="1187" y="-115.2" font-family="Helvetica,sans-Serif" font-size="10.00" fill="grey"> innerException_</text>
</g>
<!-- Node7 -->
<g id="Node000007" class="node">
<title>Node7</title>
<g id="a_Node000007"><a xlink:href="class_harlinn_1_1_common_1_1_core_1_1_basic_string.xhtml" target="_top" xlink:title=" ">
<polygon fill="white" stroke="#666666" points="620.5,-58.2 502.5,-58.2 502.5,-28.2 620.5,-28.2 620.5,-58.2"/>
<text text-anchor="start" x="510.5" y="-46.2" font-family="Helvetica,sans-Serif" font-size="10.00">Harlinn::Common::Core</text>
<text text-anchor="middle" x="561.5" y="-35.2" font-family="Helvetica,sans-Serif" font-size="10.00">::BasicString&lt; char &gt;</text>
</a>
</g>
</g>
<!-- Node7&#45;&gt;Node6 -->
<g id="edge6_Node000006_Node000007" class="edge">
<title>Node7&#45;&gt;Node6</title>
<g id="a_edge6_Node000006_Node000007"><a xlink:title=" ">
<path fill="none" stroke="#9a32cd" stroke-dasharray="5,2" d="M632.09,-47.22C756.02,-54.37 1012.73,-69.2 1127.89,-75.84"/>
<polygon fill="#9a32cd" stroke="#9a32cd" points="632.57,-43.74 622.39,-46.66 632.17,-50.73 632.57,-43.74"/>
</a>
</g>
<text text-anchor="middle" x="879.5" y="-67.2" font-family="Helvetica,sans-Serif" font-size="10.00" fill="grey"> ansiMessage_</text>
</g>
<!-- Node8 -->
<g id="Node000008" class="node">
<title>Node8</title>
<g id="a_Node000008"><a xlink:href="struct_harlinn_1_1_common_1_1_core_1_1_internal_1_1_data.xhtml" target="_top" xlink:title=" ">
<polygon fill="white" stroke="#666666" points="226,-85.2 108,-85.2 108,-55.2 226,-55.2 226,-85.2"/>
<text text-anchor="start" x="116" y="-73.2" font-family="Helvetica,sans-Serif" font-size="10.00">Harlinn::Common::Core</text>
<text text-anchor="middle" x="167" y="-62.2" font-family="Helvetica,sans-Serif" font-size="10.00">::Internal::Data&lt; T &gt;</text>
</a>
</g>
</g>
<!-- Node8&#45;&gt;Node7 -->
<g id="edge7_Node000007_Node000008" class="edge">
<title>Node8&#45;&gt;Node7</title>
<g id="a_edge7_Node000007_Node000008"><a xlink:title=" ">
<path fill="none" stroke="#9a32cd" stroke-dasharray="5,2" d="M218.61,-51.13C240.27,-43.84 266.06,-36.29 290,-32.2 373.7,-17.89 396.5,-18.78 481,-27.2 487.86,-27.88 495.01,-28.89 502.09,-30.08"/>
<polygon fill="#9a32cd" stroke="#9a32cd" points="217.75,-47.72 209.44,-54.3 220.03,-54.34 217.75,-47.72"/>
</a>
</g>
<text text-anchor="middle" x="349" y="-35.2" font-family="Helvetica,sans-Serif" font-size="10.00" fill="grey"> data_</text>
</g>
<!-- Node10 -->
<g id="Node000010" class="node">
<title>Node10</title>
<g id="a_Node000010"><a xlink:href="class_harlinn_1_1_common_1_1_core_1_1_basic_string.xhtml" target="_top" xlink:title="This is a reference counted string class.">
<polygon fill="white" stroke="#666666" points="408,-82.2 290,-82.2 290,-52.2 408,-52.2 408,-82.2"/>
<text text-anchor="start" x="298" y="-70.2" font-family="Helvetica,sans-Serif" font-size="10.00">Harlinn::Common::Core</text>
<text text-anchor="middle" x="349" y="-59.2" font-family="Helvetica,sans-Serif" font-size="10.00">::BasicString&lt; T &gt;</text>
</a>
</g>
</g>
<!-- Node8&#45;&gt;Node10 -->
<g id="edge10_Node000010_Node000008" class="edge">
<title>Node8&#45;&gt;Node10</title>
<g id="a_edge10_Node000010_Node000008"><a xlink:title=" ">
<path fill="none" stroke="#9a32cd" stroke-dasharray="5,2" d="M237.55,-69.04C254.73,-68.75 272.95,-68.45 289.54,-68.17"/>
<polygon fill="#9a32cd" stroke="#9a32cd" points="237.89,-65.53 227.95,-69.2 238.01,-72.53 237.89,-65.53"/>
</a>
</g>
<text text-anchor="middle" x="258" y="-72.2" font-family="Helvetica,sans-Serif" font-size="10.00" fill="grey"> data_</text>
</g>
<!-- Node11 -->
<g id="Node000011" class="node">
<title>Node11</title>
<g id="a_Node000011"><a xlink:href="class_harlinn_1_1_common_1_1_core_1_1_basic_string.xhtml" target="_top" xlink:title=" ">
<polygon fill="white" stroke="#666666" points="624,-117.2 499,-117.2 499,-87.2 624,-87.2 624,-117.2"/>
<text text-anchor="start" x="507" y="-105.2" font-family="Helvetica,sans-Serif" font-size="10.00">Harlinn::Common::Core</text>
<text text-anchor="middle" x="561.5" y="-94.2" font-family="Helvetica,sans-Serif" font-size="10.00">::BasicString&lt; wchar_t &gt;</text>
</a>
</g>
</g>
<!-- Node8&#45;&gt;Node11 -->
<g id="edge12_Node000011_Node000008" class="edge">
<title>Node8&#45;&gt;Node11</title>
<g id="a_edge12_Node000011_Node000008"><a xlink:title=" ">
<path fill="none" stroke="#9a32cd" stroke-dasharray="5,2" d="M237.33,-88C300.58,-102.26 396.73,-119 481,-113.2 486.7,-112.81 492.61,-112.26 498.52,-111.61"/>
<polygon fill="#9a32cd" stroke="#9a32cd" points="238.31,-84.64 227.78,-85.8 236.74,-91.46 238.31,-84.64"/>
</a>
</g>
<text text-anchor="middle" x="349" y="-116.2" font-family="Helvetica,sans-Serif" font-size="10.00" fill="grey"> data_</text>
</g>
<!-- Node9 -->
<g id="Node000009" class="node">
<title>Node9</title>
<g id="a_Node000009"><a xlink:title=" ">
<polygon fill="white" stroke="#666666" points="29,-129.7 0,-129.7 0,-110.7 29,-110.7 29,-129.7"/>
<text text-anchor="middle" x="14.5" y="-117.7" font-family="Helvetica,sans-Serif" font-size="10.00">T</text>
</a>
</g>
</g>
<!-- Node9&#45;&gt;Node8 -->
<g id="edge8_Node000008_Node000009" class="edge">
<title>Node9&#45;&gt;Node8</title>
<g id="a_edge8_Node000008_Node000009"><a xlink:title=" ">
<path fill="none" stroke="#9a32cd" stroke-dasharray="5,2" d="M38.88,-104.23C41.55,-102.75 44.29,-101.36 47,-100.2 66.08,-91.99 87.89,-85.68 107.58,-81.02"/>
<polygon fill="#9a32cd" stroke="#9a32cd" points="37.07,-101.24 30.37,-109.45 40.73,-107.2 37.07,-101.24"/>
</a>
</g>
<text text-anchor="middle" x="68.5" y="-103.2" font-family="Helvetica,sans-Serif" font-size="10.00" fill="grey"> buffer_</text>
</g>
<!-- Node13 -->
<g id="Node000013" class="node">
<title>Node13</title>
<g id="a_Node000013"><a xlink:title=" ">
<polygon fill="white" stroke="#666666" points="218.5,-187.2 115.5,-187.2 115.5,-157.2 218.5,-157.2 218.5,-187.2"/>
<text text-anchor="start" x="123.5" y="-175.2" font-family="Helvetica,sans-Serif" font-size="10.00">std::unordered_map</text>
<text text-anchor="middle" x="167" y="-164.2" font-family="Helvetica,sans-Serif" font-size="10.00">&lt; K, T &gt;</text>
</a>
</g>
</g>
<!-- Node9&#45;&gt;Node13 -->
<g id="edge19_Node000013_Node000009" class="edge">
<title>Node9&#45;&gt;Node13</title>
<g id="a_edge19_Node000013_Node000009"><a xlink:title=" ">
<path fill="none" stroke="#9a32cd" stroke-dasharray="5,2" d="M40.07,-128.69C61.98,-136.26 94.6,-147.53 121.15,-156.7"/>
<polygon fill="#9a32cd" stroke="#9a32cd" points="41.41,-125.45 30.82,-125.49 39.13,-132.07 41.41,-125.45"/>
</a>
</g>
<text text-anchor="middle" x="68.5" y="-148.2" font-family="Helvetica,sans-Serif" font-size="10.00" fill="grey"> elements</text>
</g>
<!-- Node10&#45;&gt;Node4 -->
<g id="edge23_Node000004_Node000010" class="edge">
<title>Node10&#45;&gt;Node4</title>
<g id="a_edge23_Node000004_Node000010"><a xlink:title=" ">
<path fill="none" stroke="#9a32cd" stroke-dasharray="5,2" d="M409.29,-44.95C417.55,-37.4 417.88,-31.83 426,-27.2 478.97,2.99 499.53,-0.2 560.5,-0.2 560.5,-0.2 560.5,-0.2 1188,-0.2 1260.36,-0.2 1325.48,-70.19 1351.27,-101.9"/>
<polygon fill="#9a32cd" stroke="#9a32cd" points="407.28,-42.09 401.37,-50.88 411.47,-47.69 407.28,-42.09"/>
</a>
</g>
<text text-anchor="middle" x="879.5" y="-3.2" font-family="Helvetica,sans-Serif" font-size="10.00" fill="grey"> empty</text>
</g>
<!-- Node10&#45;&gt;Node7 -->
<g id="edge9_Node000007_Node000010" class="edge">
<title>Node10&#45;&gt;Node7</title>
<g id="a_edge9_Node000007_Node000010"><a xlink:title=" ">
<path fill="none" stroke="orange" stroke-dasharray="5,2" d="M388.3,-46.95C400.07,-41.73 413.28,-36.84 426,-34.2 450.63,-29.08 478.29,-29.85 502.1,-32.46"/>
<polygon fill="orange" stroke="orange" points="386.91,-43.74 379.33,-51.14 389.87,-50.08 386.91,-43.74"/>
</a>
</g>
<text text-anchor="middle" x="453.5" y="-37.2" font-family="Helvetica,sans-Serif" font-size="10.00" fill="grey"> &lt; char &gt;</text>
</g>
<!-- Node10&#45;&gt;Node11 -->
<g id="edge13_Node000011_Node000010" class="edge">
<title>Node10&#45;&gt;Node11</title>
<g id="a_edge13_Node000011_Node000010"><a xlink:title=" ">
<path fill="none" stroke="orange" stroke-dasharray="5,2" d="M419.48,-62.64C439.51,-62.69 461.27,-64.08 481,-68.2 498.63,-71.88 517.2,-79.58 531.96,-86.73"/>
<polygon fill="orange" stroke="orange" points="419.72,-59.14 409.75,-62.73 419.79,-66.14 419.72,-59.14"/>
</a>
</g>
<text text-anchor="middle" x="453.5" y="-71.2" font-family="Helvetica,sans-Serif" font-size="10.00" fill="grey"> &lt; wchar_t &gt;</text>
</g>
<!-- Node12 -->
<g id="Node000012" class="node">
<title>Node12</title>
<g id="a_Node000012"><a xlink:title=" ">
<polygon fill="white" stroke="#666666" points="620,-189.7 503,-189.7 503,-148.7 620,-148.7 620,-189.7"/>
<text text-anchor="start" x="511" y="-177.7" font-family="Helvetica,sans-Serif" font-size="10.00">std::unordered_map</text>
<text text-anchor="start" x="511" y="-166.7" font-family="Helvetica,sans-Serif" font-size="10.00">&lt; int, Harlinn::Common</text>
<text text-anchor="middle" x="561.5" y="-155.7" font-family="Helvetica,sans-Serif" font-size="10.00">::Core::BasicString &gt;</text>
</a>
</g>
</g>
<!-- Node10&#45;&gt;Node12 -->
<g id="edge16_Node000012_Node000010" class="edge">
<title>Node10&#45;&gt;Node12</title>
<g id="a_edge16_Node000012_Node000010"><a xlink:title=" ">
<path fill="none" stroke="#9a32cd" stroke-dasharray="5,2" d="M392.23,-87.66C428.53,-105.25 480.66,-130.51 517.25,-148.24"/>
<polygon fill="#9a32cd" stroke="#9a32cd" points="393.86,-84.56 383.33,-83.35 390.81,-90.86 393.86,-84.56"/>
</a>
</g>
<text text-anchor="middle" x="453.5" y="-134.2" font-family="Helvetica,sans-Serif" font-size="10.00" fill="grey"> elements</text>
</g>
<!-- Node11&#45;&gt;Node6 -->
<g id="edge11_Node000006_Node000011" class="edge">
<title>Node11&#45;&gt;Node6</title>
<g id="a_edge11_Node000006_Node000011"><a xlink:title=" ">
<path fill="none" stroke="#9a32cd" stroke-dasharray="5,2" d="M635.89,-97.72C693.11,-94.38 774.58,-89.93 846,-87.2 944.83,-83.42 1059.88,-81.16 1127.63,-80.05"/>
<polygon fill="#9a32cd" stroke="#9a32cd" points="635.7,-94.23 625.93,-98.31 636.12,-101.22 635.7,-94.23"/>
</a>
</g>
<text text-anchor="middle" x="879.5" y="-112.2" font-family="Helvetica,sans-Serif" font-size="10.00" fill="grey"> helpLink_</text>
<text text-anchor="middle" x="879.5" y="-101.2" font-family="Helvetica,sans-Serif" font-size="10.00" fill="grey">message_</text>
<text text-anchor="middle" x="879.5" y="-90.2" font-family="Helvetica,sans-Serif" font-size="10.00" fill="grey">source_</text>
</g>
<!-- Node16 -->
<g id="Node000016" class="node">
<title>Node16</title>
<g id="a_Node000016"><a xlink:href="class_harlinn_1_1_common_1_1_core_1_1_exception_location_data.xhtml" target="_top" xlink:title=" ">
<polygon fill="white" stroke="#666666" points="828,-139.2 705,-139.2 705,-109.2 828,-109.2 828,-139.2"/>
<text text-anchor="start" x="713" y="-127.2" font-family="Helvetica,sans-Serif" font-size="10.00">Harlinn::Common::Core</text>
<text text-anchor="middle" x="766.5" y="-116.2" font-family="Helvetica,sans-Serif" font-size="10.00">::ExceptionLocationData</text>
</a>
</g>
</g>
<!-- Node11&#45;&gt;Node16 -->
<g id="edge22_Node000016_Node000011" class="edge">
<title>Node11&#45;&gt;Node16</title>
<g id="a_edge22_Node000016_Node000011"><a xlink:title=" ">
<path fill="none" stroke="#9a32cd" stroke-dasharray="5,2" d="M635.54,-110.11C658.23,-112.57 682.99,-115.26 704.76,-117.62"/>
<polygon fill="#9a32cd" stroke="#9a32cd" points="636.06,-106.65 625.74,-109.05 635.3,-113.61 636.06,-106.65"/>
</a>
</g>
<text text-anchor="middle" x="664.5" y="-129.2" font-family="Helvetica,sans-Serif" font-size="10.00" fill="grey"> filename_</text>
<text text-anchor="middle" x="664.5" y="-118.2" font-family="Helvetica,sans-Serif" font-size="10.00" fill="grey">function_</text>
</g>
<!-- Node12&#45;&gt;Node6 -->
<g id="edge15_Node000006_Node000012" class="edge">
<title>Node12&#45;&gt;Node6</title>
<g id="a_edge15_Node000006_Node000012"><a xlink:title=" ">
<path fill="none" stroke="#9a32cd" stroke-dasharray="5,2" d="M631.57,-174.19C726.88,-179.29 903.46,-182.27 1049,-148.2 1092.56,-138 1137.95,-111.47 1164.01,-94.44"/>
<polygon fill="#9a32cd" stroke="#9a32cd" points="632.05,-170.71 621.87,-173.65 631.66,-177.7 632.05,-170.71"/>
</a>
</g>
<text text-anchor="middle" x="879.5" y="-178.2" font-family="Helvetica,sans-Serif" font-size="10.00" fill="grey"> data_</text>
</g>
<!-- Node13&#45;&gt;Node12 -->
<g id="edge17_Node000012_Node000013" class="edge">
<title>Node13&#45;&gt;Node12</title>
<g id="a_edge17_Node000012_Node000013"><a xlink:title=" ">
<path fill="none" stroke="orange" stroke-dasharray="5,2" d="M230.03,-171.73C304.88,-171.15 429.74,-170.2 502.66,-169.64"/>
<polygon fill="orange" stroke="orange" points="230.4,-168.22 220.42,-171.8 230.45,-175.22 230.4,-168.22"/>
</a>
</g>
<text text-anchor="start" x="297" y="-186.2" font-family="Helvetica,sans-Serif" font-size="10.00" fill="grey"> &lt; int, Harlinn::Common</text>
<text text-anchor="middle" x="349" y="-175.2" font-family="Helvetica,sans-Serif" font-size="10.00" fill="grey">::Core::BasicString &gt;</text>
</g>
<!-- Node14 -->
<g id="Node000014" class="node">
<title>Node14</title>
<g id="a_Node000014"><a xlink:title=" ">
<polygon fill="white" stroke="#666666" points="29,-181.7 0,-181.7 0,-162.7 29,-162.7 29,-181.7"/>
<text text-anchor="middle" x="14.5" y="-169.7" font-family="Helvetica,sans-Serif" font-size="10.00">K</text>
</a>
</g>
</g>
<!-- Node14&#45;&gt;Node13 -->
<g id="edge18_Node000013_Node000014" class="edge">
<title>Node14&#45;&gt;Node13</title>
<g id="a_edge18_Node000013_Node000014"><a xlink:title=" ">
<path fill="none" stroke="#9a32cd" stroke-dasharray="5,2" d="M40.74,-172.2C60.99,-172.2 90.06,-172.2 115.1,-172.2"/>
<polygon fill="#9a32cd" stroke="#9a32cd" points="40.9,-168.7 30.9,-172.2 40.9,-175.7 40.9,-168.7"/>
</a>
</g>
<text text-anchor="middle" x="68.5" y="-175.2" font-family="Helvetica,sans-Serif" font-size="10.00" fill="grey"> keys</text>
</g>
<!-- Node15 -->
<g id="Node000015" class="node">
<title>Node15</title>
<g id="a_Node000015"><a xlink:href="class_harlinn_1_1_common_1_1_core_1_1_exception_location.xhtml" target="_top" xlink:title=" ">
<polygon fill="white" stroke="#666666" points="1049,-139.2 931,-139.2 931,-109.2 1049,-109.2 1049,-139.2"/>
<text text-anchor="start" x="939" y="-127.2" font-family="Helvetica,sans-Serif" font-size="10.00">Harlinn::Common::Core</text>
<text text-anchor="middle" x="990" y="-116.2" font-family="Helvetica,sans-Serif" font-size="10.00">::ExceptionLocation</text>
</a>
</g>
</g>
<!-- Node15&#45;&gt;Node6 -->
<g id="edge20_Node000006_Node000015" class="edge">
<title>Node15&#45;&gt;Node6</title>
<g id="a_edge20_Node000006_Node000015"><a xlink:title=" ">
<path fill="none" stroke="#9a32cd" stroke-dasharray="5,2" d="M1060.23,-108.22C1082.3,-103.13 1106.5,-97.55 1127.72,-92.65"/>
<polygon fill="#9a32cd" stroke="#9a32cd" points="1059.67,-104.76 1050.72,-110.42 1061.25,-111.58 1059.67,-104.76"/>
</a>
</g>
<text text-anchor="middle" x="1088.5" y="-109.2" font-family="Helvetica,sans-Serif" font-size="10.00" fill="grey"> location_</text>
</g>
<!-- Node16&#45;&gt;Node15 -->
<g id="edge21_Node000015_Node000016" class="edge">
<title>Node16&#45;&gt;Node15</title>
<g id="a_edge21_Node000015_Node000016"><a xlink:title=" ">
<path fill="none" stroke="#9a32cd" stroke-dasharray="5,2" d="M839.79,-124.2C869.22,-124.2 902.78,-124.2 930.61,-124.2"/>
<polygon fill="#9a32cd" stroke="#9a32cd" points="839.83,-120.7 829.83,-124.2 839.83,-127.7 839.83,-120.7"/>
</a>
</g>
<text text-anchor="middle" x="879.5" y="-127.2" font-family="Helvetica,sans-Serif" font-size="10.00" fill="grey"> data_</text>
</g>
</g>
</svg>
