<?xml version="1.0" encoding="UTF-8" standalone="no"?>
<!DOCTYPE svg PUBLIC "-//W3C//DTD SVG 1.1//EN"
 "http://www.w3.org/Graphics/SVG/1.1/DTD/svg11.dtd">
<!-- Generated by graphviz version 7.0.1 (20221109.1506)
 -->
<!-- Title: Harlinn::OCI::BindBase Pages: 1 -->
<svg width="1764pt" height="575pt"
 viewBox="0.00 0.00 1764.00 574.64" xmlns="http://www.w3.org/2000/svg" xmlns:xlink="http://www.w3.org/1999/xlink">
<g id="graph0" class="graph" transform="scale(1 1) rotate(0) translate(4 570.64)">
<title>Harlinn::OCI::BindBase</title>
<!-- Node1 -->
<g id="Node000001" class="node">
<title>Node1</title>
<g id="a_Node000001"><a xlink:title="BindBase, base class for binds.">
<polygon fill="#999999" stroke="#666666" points="1047.5,-139.14 930.5,-139.14 930.5,-120.14 1047.5,-120.14 1047.5,-139.14"/>
<text text-anchor="middle" x="989" y="-127.14" font-family="Helvetica,sans-Serif" font-size="10.00">Harlinn::OCI::BindBase</text>
</a>
</g>
</g>
<!-- Node14 -->
<g id="Node000014" class="node">
<title>Node14</title>
<g id="a_Node000014"><a xlink:title=" ">
<polygon fill="white" stroke="#666666" points="1273.5,-92.64 1153.5,-92.64 1153.5,-62.64 1273.5,-62.64 1273.5,-92.64"/>
<text text-anchor="start" x="1161.5" y="-80.64" font-family="Helvetica,sans-Serif" font-size="10.00">std::unique_ptr&lt; Harlinn</text>
<text text-anchor="middle" x="1213.5" y="-69.64" font-family="Helvetica,sans-Serif" font-size="10.00">::OCI::BindBase &gt;</text>
</a>
</g>
</g>
<!-- Node1&#45;&gt;Node14 -->
<g id="edge30_Node000014_Node000001" class="edge">
<title>Node1&#45;&gt;Node14</title>
<g id="a_edge30_Node000014_Node000001"><a xlink:title=" ">
<path fill="none" stroke="#9a32cd" stroke-dasharray="5,2" d="M1035.46,-116.62C1046.71,-113.54 1058.77,-110.36 1070,-107.64 1097.15,-101.05 1127.41,-94.56 1153.04,-89.31"/>
<polygon fill="#9a32cd" stroke="#9a32cd" points="1034.69,-113.2 1025.99,-119.24 1036.56,-119.94 1034.69,-113.2"/>
</a>
</g>
<text text-anchor="middle" x="1100.5" y="-110.64" font-family="Helvetica,sans-Serif" font-size="10.00" fill="grey"> ptr</text>
</g>
<!-- Node2 -->
<g id="Node000002" class="node">
<title>Node2</title>
<g id="a_Node000002"><a xlink:href="class_harlinn_1_1_o_c_i_1_1_handle_base.html" target="_top" xlink:title="Base class for OCI handle wrappers.">
<polygon fill="white" stroke="#666666" points="489,-427.14 361,-427.14 361,-408.14 489,-408.14 489,-427.14"/>
<text text-anchor="middle" x="425" y="-415.14" font-family="Helvetica,sans-Serif" font-size="10.00">Harlinn::OCI::HandleBase</text>
</a>
</g>
</g>
<!-- Node2&#45;&gt;Node1 -->
<g id="edge1_Node000001_Node000002" class="edge">
<title>Node2&#45;&gt;Node1</title>
<g id="a_edge1_Node000001_Node000002"><a xlink:title=" ">
<path fill="none" stroke="#63b8ff" d="M429.86,-396.71C437.73,-359.85 459.12,-283.24 507,-240.64 553.41,-199.34 579.85,-213.18 640,-197.64 694.54,-183.55 848.93,-154.85 932.55,-139.63"/>
<polygon fill="#63b8ff" stroke="#63b8ff" points="426.43,-395.99 427.91,-406.48 433.29,-397.36 426.43,-395.99"/>
</a>
</g>
</g>
<!-- Node3 -->
<g id="Node000003" class="node">
<title>Node3</title>
<g id="a_Node000003"><a xlink:href="class_harlinn_1_1_o_c_i_1_1_statement.html" target="_top" xlink:title="Statement, the context that identifies a SQL or PL/SQL statement and its associated attributes.">
<polygon fill="white" stroke="#666666" points="1756,-210.14 1636,-210.14 1636,-191.14 1756,-191.14 1756,-210.14"/>
<text text-anchor="middle" x="1696" y="-198.14" font-family="Helvetica,sans-Serif" font-size="10.00">Harlinn::OCI::Statement</text>
</a>
</g>
</g>
<!-- Node2&#45;&gt;Node3 -->
<g id="edge3_Node000003_Node000002" class="edge">
<title>Node2&#45;&gt;Node3</title>
<g id="a_edge3_Node000003_Node000002"><a xlink:title=" ">
<path fill="none" stroke="#63b8ff" d="M437.83,-398.08C451.77,-376.69 476.88,-342.9 507,-323.64 600.42,-263.9 792.16,-171.64 1099.5,-171.64 1099.5,-171.64 1099.5,-171.64 1447.5,-171.64 1514.56,-171.64 1591.14,-182.27 1641.14,-190.66"/>
<polygon fill="#63b8ff" stroke="#63b8ff" points="434.93,-396.12 432.56,-406.45 440.85,-399.85 434.93,-396.12"/>
</a>
</g>
</g>
<!-- Node4 -->
<g id="Node000004" class="node">
<title>Node4</title>
<g id="a_Node000004"><a xlink:href="class_harlinn_1_1_o_c_i_1_1_service_context.html" target="_top" xlink:title="ServiceContext &#45; A service context handle defines attributes that determine the operational context f...">
<polygon fill="white" stroke="#666666" points="1516.5,-440.14 1376.5,-440.14 1376.5,-421.14 1516.5,-421.14 1516.5,-440.14"/>
<text text-anchor="middle" x="1446.5" y="-428.14" font-family="Helvetica,sans-Serif" font-size="10.00">Harlinn::OCI::ServiceContext</text>
</a>
</g>
</g>
<!-- Node2&#45;&gt;Node4 -->
<g id="edge5_Node000004_Node000002" class="edge">
<title>Node2&#45;&gt;Node4</title>
<g id="a_edge5_Node000004_Node000002"><a xlink:title=" ">
<path fill="none" stroke="#63b8ff" d="M443.78,-435.42C485.28,-474.95 593.34,-566.64 703,-566.64 703,-566.64 703,-566.64 1214.5,-566.64 1314.09,-566.64 1408.6,-471.6 1436.93,-440.42"/>
<polygon fill="#63b8ff" stroke="#63b8ff" points="446.23,-432.93 436.62,-428.47 441.35,-437.95 446.23,-432.93"/>
</a>
</g>
</g>
<!-- Node5 -->
<g id="Node000005" class="node">
<title>Node5</title>
<g id="a_Node000005"><a xlink:href="class_harlinn_1_1_o_c_i_1_1_environment.html" target="_top" xlink:title="The environment handle defines a context in which all OCI functions are invoked.">
<polygon fill="white" stroke="#666666" points="768,-364.14 640,-364.14 640,-345.14 768,-345.14 768,-364.14"/>
<text text-anchor="middle" x="704" y="-352.14" font-family="Helvetica,sans-Serif" font-size="10.00">Harlinn::OCI::Environment</text>
</a>
</g>
</g>
<!-- Node2&#45;&gt;Node5 -->
<g id="edge7_Node000005_Node000002" class="edge">
<title>Node2&#45;&gt;Node5</title>
<g id="a_edge7_Node000005_Node000002"><a xlink:title=" ">
<path fill="none" stroke="#63b8ff" d="M480.98,-405.13C533.33,-393.23 611.08,-375.54 659.31,-364.57"/>
<polygon fill="#63b8ff" stroke="#63b8ff" points="480.34,-401.69 471.37,-407.32 481.89,-408.51 480.34,-401.69"/>
</a>
</g>
</g>
<!-- Node9 -->
<g id="Node000009" class="node">
<title>Node9</title>
<g id="a_Node000009"><a xlink:href="class_harlinn_1_1_o_c_i_1_1_error_handle.html" target="_top" xlink:title="The error handle is passed as a parameter to most OCI calls.">
<polygon fill="white" stroke="#666666" points="1052,-369.14 926,-369.14 926,-350.14 1052,-350.14 1052,-369.14"/>
<text text-anchor="middle" x="989" y="-357.14" font-family="Helvetica,sans-Serif" font-size="10.00">Harlinn::OCI::ErrorHandle</text>
</a>
</g>
</g>
<!-- Node2&#45;&gt;Node9 -->
<g id="edge12_Node000009_Node000002" class="edge">
<title>Node2&#45;&gt;Node9</title>
<g id="a_edge12_Node000009_Node000002"><a xlink:title=" ">
<path fill="none" stroke="#63b8ff" d="M500.51,-412.28C595.37,-405.1 764.21,-391.08 908,-372.64 914.98,-371.74 922.28,-370.7 929.52,-369.6"/>
<polygon fill="#63b8ff" stroke="#63b8ff" points="500.53,-408.77 490.82,-413.01 501.06,-415.75 500.53,-408.77"/>
</a>
</g>
</g>
<!-- Node10 -->
<g id="Node000010" class="node">
<title>Node10</title>
<g id="a_Node000010"><a xlink:href="class_harlinn_1_1_o_c_i_1_1_server.html" target="_top" xlink:title="A server handle represents a connection between the client application and the Oracle database server...">
<polygon fill="white" stroke="#666666" points="1264.5,-507.14 1162.5,-507.14 1162.5,-488.14 1264.5,-488.14 1264.5,-507.14"/>
<text text-anchor="middle" x="1213.5" y="-495.14" font-family="Helvetica,sans-Serif" font-size="10.00">Harlinn::OCI::Server</text>
</a>
</g>
</g>
<!-- Node2&#45;&gt;Node10 -->
<g id="edge15_Node000010_Node000002" class="edge">
<title>Node2&#45;&gt;Node10</title>
<g id="a_edge15_Node000010_Node000002"><a xlink:title=" ">
<path fill="none" stroke="#63b8ff" d="M449.94,-433.63C465.57,-443.38 486.77,-455.33 507,-462.64 563.57,-483.06 580.57,-478.4 640,-487.64 821.24,-515.81 868.75,-519.61 1052,-511.64 1089.03,-510.02 1130.72,-506.33 1162.33,-503.14"/>
<polygon fill="#63b8ff" stroke="#63b8ff" points="452.12,-430.87 441.81,-428.43 448.35,-436.77 452.12,-430.87"/>
</a>
</g>
</g>
<!-- Node11 -->
<g id="Node000011" class="node">
<title>Node11</title>
<g id="a_Node000011"><a xlink:href="class_harlinn_1_1_o_c_i_1_1_session.html" target="_top" xlink:title="Session.">
<polygon fill="white" stroke="#666666" points="1268.5,-371.14 1158.5,-371.14 1158.5,-352.14 1268.5,-352.14 1268.5,-371.14"/>
<text text-anchor="middle" x="1213.5" y="-359.14" font-family="Helvetica,sans-Serif" font-size="10.00">Harlinn::OCI::Session</text>
</a>
</g>
</g>
<!-- Node2&#45;&gt;Node11 -->
<g id="edge19_Node000011_Node000002" class="edge">
<title>Node2&#45;&gt;Node11</title>
<g id="a_edge19_Node000011_Node000002"><a xlink:title=" ">
<path fill="none" stroke="#63b8ff" d="M478.08,-430.08C624.13,-463.62 1033.34,-547.96 1131,-464.64 1160.38,-439.57 1122.63,-407.85 1149,-379.64 1152.05,-376.37 1155.65,-373.68 1159.55,-371.47"/>
<polygon fill="#63b8ff" stroke="#63b8ff" points="479.22,-426.75 468.68,-427.9 477.64,-433.57 479.22,-426.75"/>
</a>
</g>
</g>
<!-- Node12 -->
<g id="Node000012" class="node">
<title>Node12</title>
<g id="a_Node000012"><a xlink:href="class_harlinn_1_1_o_c_i_1_1_subscription.html" target="_top" xlink:title="Subscription.">
<polygon fill="white" stroke="#666666" points="1278,-246.14 1149,-246.14 1149,-227.14 1278,-227.14 1278,-246.14"/>
<text text-anchor="middle" x="1213.5" y="-234.14" font-family="Helvetica,sans-Serif" font-size="10.00">Harlinn::OCI::Subscription</text>
</a>
</g>
</g>
<!-- Node2&#45;&gt;Node12 -->
<g id="edge25_Node000012_Node000002" class="edge">
<title>Node2&#45;&gt;Node12</title>
<g id="a_edge25_Node000012_Node000002"><a xlink:title=" ">
<path fill="none" stroke="#63b8ff" d="M449.09,-401.23C464.8,-390.69 486.4,-377.38 507,-368.64 730.07,-273.89 1021.43,-246.92 1148.54,-239.42"/>
<polygon fill="#63b8ff" stroke="#63b8ff" points="447.2,-398.28 440.93,-406.82 451.16,-404.05 447.2,-398.28"/>
</a>
</g>
</g>
<!-- Node3&#45;&gt;Node1 -->
<g id="edge2_Node000001_Node000003" class="edge">
<title>Node3&#45;&gt;Node1</title>
<g id="a_edge2_Node000001_Node000003"><a xlink:title=" ">
<path fill="none" stroke="#9a32cd" stroke-dasharray="5,2" d="M1672.67,-184.48C1657.93,-174.77 1637.74,-163.25 1618,-157.64 1511.97,-127.5 1182.26,-127.49 1047.89,-128.82"/>
<polygon fill="#9a32cd" stroke="#9a32cd" points="1670.46,-187.21 1680.69,-189.96 1674.41,-181.43 1670.46,-187.21"/>
</a>
</g>
<text text-anchor="middle" x="1322" y="-133.64" font-family="Helvetica,sans-Serif" font-size="10.00" fill="grey"> statement_</text>
</g>
<!-- Node4&#45;&gt;Node3 -->
<g id="edge4_Node000003_Node000004" class="edge">
<title>Node4&#45;&gt;Node3</title>
<g id="a_edge4_Node000003_Node000004"><a xlink:title=" ">
<path fill="none" stroke="#9a32cd" stroke-dasharray="5,2" d="M1486.72,-416.61C1524.09,-401.69 1580.11,-375.05 1618,-337.64 1657.61,-298.53 1682.99,-234.75 1691.66,-210.46"/>
<polygon fill="#9a32cd" stroke="#9a32cd" points="1485.7,-413.26 1477.65,-420.14 1488.24,-419.78 1485.7,-413.26"/>
</a>
</g>
<text text-anchor="middle" x="1581.5" y="-389.64" font-family="Helvetica,sans-Serif" font-size="10.00" fill="grey"> serviceContext_</text>
</g>
<!-- Node5&#45;&gt;Node4 -->
<g id="edge6_Node000004_Node000005" class="edge">
<title>Node5&#45;&gt;Node4</title>
<g id="a_edge6_Node000004_Node000005"><a xlink:title=" ">
<path fill="none" stroke="#9a32cd" stroke-dasharray="5,2" d="M760.26,-367.05C768.87,-368.95 777.67,-370.86 786,-372.64 912,-399.5 941.83,-417.68 1070,-430.64 1176.37,-441.39 1300.56,-438.36 1376.08,-434.8"/>
<polygon fill="#9a32cd" stroke="#9a32cd" points="761.11,-363.65 750.59,-364.91 759.6,-370.49 761.11,-363.65"/>
</a>
</g>
<text text-anchor="middle" x="1100.5" y="-437.64" font-family="Helvetica,sans-Serif" font-size="10.00" fill="grey"> environment_</text>
</g>
<!-- Node5&#45;&gt;Node9 -->
<g id="edge13_Node000009_Node000005" class="edge">
<title>Node5&#45;&gt;Node9</title>
<g id="a_edge13_Node000009_Node000005"><a xlink:title=" ">
<path fill="none" stroke="#9a32cd" stroke-dasharray="5,2" d="M779.45,-355.95C824.92,-356.75 882.42,-357.77 925.52,-358.53"/>
<polygon fill="#9a32cd" stroke="#9a32cd" points="779.73,-352.46 769.67,-355.78 779.61,-359.45 779.73,-352.46"/>
</a>
</g>
<text text-anchor="middle" x="847" y="-360.64" font-family="Helvetica,sans-Serif" font-size="10.00" fill="grey"> environment_</text>
</g>
<!-- Node5&#45;&gt;Node10 -->
<g id="edge16_Node000010_Node000005" class="edge">
<title>Node5&#45;&gt;Node10</title>
<g id="a_edge16_Node000010_Node000005"><a xlink:title=" ">
<path fill="none" stroke="#9a32cd" stroke-dasharray="5,2" d="M725.57,-371.59C741.23,-383.66 763.8,-399.33 786,-408.64 915.06,-462.72 1080.32,-485.12 1162.06,-493.38"/>
<polygon fill="#9a32cd" stroke="#9a32cd" points="727.98,-369.04 717.97,-365.57 723.63,-374.52 727.98,-369.04"/>
</a>
</g>
<text text-anchor="middle" x="989" y="-480.64" font-family="Helvetica,sans-Serif" font-size="10.00" fill="grey"> environment_</text>
</g>
<!-- Node5&#45;&gt;Node11 -->
<g id="edge20_Node000011_Node000005" class="edge">
<title>Node5&#45;&gt;Node11</title>
<g id="a_edge20_Node000011_Node000005"><a xlink:title=" ">
<path fill="none" stroke="#9a32cd" stroke-dasharray="5,2" d="M744.94,-341.16C757.93,-337.09 772.49,-332.85 786,-329.64 861.31,-311.73 1059.35,-252.35 1131,-281.64 1166.24,-296.04 1194.46,-333.84 1206.37,-351.84"/>
<polygon fill="#9a32cd" stroke="#9a32cd" points="743.88,-337.83 735.43,-344.21 746.02,-344.49 743.88,-337.83"/>
</a>
</g>
<text text-anchor="middle" x="989" y="-296.64" font-family="Helvetica,sans-Serif" font-size="10.00" fill="grey"> environment_</text>
</g>
<!-- Node5&#45;&gt;Node12 -->
<g id="edge26_Node000012_Node000005" class="edge">
<title>Node5&#45;&gt;Node12</title>
<g id="a_edge26_Node000012_Node000005"><a xlink:title=" ">
<path fill="none" stroke="#9a32cd" stroke-dasharray="5,2" d="M723.33,-337.73C738.92,-324.22 762.45,-305.76 786,-294.64 905.09,-238.39 1062.36,-232.1 1148.79,-233.64"/>
<polygon fill="#9a32cd" stroke="#9a32cd" points="721.41,-334.76 716.26,-344.02 726.06,-339.99 721.41,-334.76"/>
</a>
</g>
<text text-anchor="middle" x="989" y="-252.64" font-family="Helvetica,sans-Serif" font-size="10.00" fill="grey"> environment_</text>
</g>
<!-- Node6 -->
<g id="Node000006" class="node">
<title>Node6</title>
<g id="a_Node000006"><a xlink:title=" ">
<polygon fill="white" stroke="#666666" points="489,-214.64 361,-214.64 361,-184.64 489,-184.64 489,-214.64"/>
<text text-anchor="start" x="369" y="-202.64" font-family="Helvetica,sans-Serif" font-size="10.00">std::atomic&lt; Environment</text>
<text text-anchor="middle" x="425" y="-191.64" font-family="Helvetica,sans-Serif" font-size="10.00">Mode &gt;</text>
</a>
</g>
</g>
<!-- Node6&#45;&gt;Node5 -->
<g id="edge8_Node000005_Node000006" class="edge">
<title>Node6&#45;&gt;Node5</title>
<g id="a_edge8_Node000005_Node000006"><a xlink:title=" ">
<path fill="none" stroke="#9a32cd" stroke-dasharray="5,2" d="M463.48,-220.61C524,-254.47 640.91,-319.89 685.31,-344.74"/>
<polygon fill="#9a32cd" stroke="#9a32cd" points="465.33,-217.63 454.89,-215.8 461.91,-223.74 465.33,-217.63"/>
</a>
</g>
<text text-anchor="middle" x="564.5" y="-311.64" font-family="Helvetica,sans-Serif" font-size="10.00" fill="grey"> defaultEnvironmentMode_</text>
</g>
<!-- Node7 -->
<g id="Node000007" class="node">
<title>Node7</title>
<g id="a_Node000007"><a xlink:title=" ">
<polygon fill="white" stroke="#666666" points="211.5,-171.14 122.5,-171.14 122.5,-152.14 211.5,-152.14 211.5,-171.14"/>
<text text-anchor="middle" x="167" y="-159.14" font-family="Helvetica,sans-Serif" font-size="10.00">std::atomic&lt; T &gt;</text>
</a>
</g>
</g>
<!-- Node7&#45;&gt;Node6 -->
<g id="edge9_Node000006_Node000007" class="edge">
<title>Node7&#45;&gt;Node6</title>
<g id="a_edge9_Node000006_Node000007"><a xlink:title=" ">
<path fill="none" stroke="orange" stroke-dasharray="5,2" d="M222.98,-169.8C263.44,-175.8 318.51,-183.98 360.79,-190.25"/>
<polygon fill="orange" stroke="orange" points="223.62,-166.35 213.21,-168.35 222.59,-173.28 223.62,-166.35"/>
</a>
</g>
<text text-anchor="middle" x="293.5" y="-189.64" font-family="Helvetica,sans-Serif" font-size="10.00" fill="grey"> &lt; EnvironmentMode &gt;</text>
</g>
<!-- Node8 -->
<g id="Node000008" class="node">
<title>Node8</title>
<g id="a_Node000008"><a xlink:title=" ">
<polygon fill="white" stroke="#666666" points="29,-80.14 0,-80.14 0,-61.14 29,-61.14 29,-80.14"/>
<text text-anchor="middle" x="14.5" y="-68.14" font-family="Helvetica,sans-Serif" font-size="10.00">T</text>
</a>
</g>
</g>
<!-- Node8&#45;&gt;Node7 -->
<g id="edge10_Node000007_Node000008" class="edge">
<title>Node8&#45;&gt;Node7</title>
<g id="a_edge10_Node000007_Node000008"><a xlink:title=" ">
<path fill="none" stroke="#9a32cd" stroke-dasharray="5,2" d="M33.06,-88.31C37.43,-92.27 42.23,-96.29 47,-99.64 78.08,-121.46 117.82,-140.63 142.6,-151.67"/>
<polygon fill="#9a32cd" stroke="#9a32cd" points="35.61,-85.9 25.96,-81.53 30.78,-90.97 35.61,-85.9"/>
</a>
</g>
<text text-anchor="middle" x="68.5" y="-127.64" font-family="Helvetica,sans-Serif" font-size="10.00" fill="grey"> ptr</text>
</g>
<!-- Node15 -->
<g id="Node000015" class="node">
<title>Node15</title>
<g id="a_Node000015"><a xlink:title=" ">
<polygon fill="white" stroke="#666666" points="616.5,-69.14 512.5,-69.14 512.5,-50.14 616.5,-50.14 616.5,-69.14"/>
<text text-anchor="middle" x="564.5" y="-57.14" font-family="Helvetica,sans-Serif" font-size="10.00">std::unique_ptr&lt; T &gt;</text>
</a>
</g>
</g>
<!-- Node8&#45;&gt;Node15 -->
<g id="edge32_Node000015_Node000008" class="edge">
<title>Node8&#45;&gt;Node15</title>
<g id="a_edge32_Node000015_Node000008"><a xlink:title=" ">
<path fill="none" stroke="#9a32cd" stroke-dasharray="5,2" d="M40.58,-68.28C59.17,-66.65 85.14,-64.6 108,-63.64 254.57,-57.45 427.89,-58.13 512.24,-58.97"/>
<polygon fill="#9a32cd" stroke="#9a32cd" points="40.43,-64.78 30.78,-69.17 41.06,-71.75 40.43,-64.78"/>
</a>
</g>
<text text-anchor="middle" x="167" y="-66.64" font-family="Helvetica,sans-Serif" font-size="10.00" fill="grey"> ptr</text>
</g>
<!-- Node16 -->
<g id="Node000016" class="node">
<title>Node16</title>
<g id="a_Node000016"><a xlink:title=" ">
<polygon fill="white" stroke="#666666" points="336,-20.14 251,-20.14 251,-1.14 336,-1.14 336,-20.14"/>
<text text-anchor="middle" x="293.5" y="-8.14" font-family="Helvetica,sans-Serif" font-size="10.00">std::vector&lt; T &gt;</text>
</a>
</g>
</g>
<!-- Node8&#45;&gt;Node16 -->
<g id="edge34_Node000016_Node000008" class="edge">
<title>Node8&#45;&gt;Node16</title>
<g id="a_edge34_Node000016_Node000008"><a xlink:title=" ">
<path fill="none" stroke="#9a32cd" stroke-dasharray="5,2" d="M25.71,-50.99C30.94,-42.97 38.11,-34.45 47,-29.64 111.28,5.18 199.22,1.96 250.54,-4.01"/>
<polygon fill="#9a32cd" stroke="#9a32cd" points="22.7,-49.2 20.71,-59.6 28.76,-52.71 22.7,-49.2"/>
</a>
</g>
<text text-anchor="middle" x="68.5" y="-32.64" font-family="Helvetica,sans-Serif" font-size="10.00" fill="grey"> elements</text>
</g>
<!-- Node18 -->
<g id="Node000018" class="node">
<title>Node18</title>
<g id="a_Node000018"><a xlink:href="struct_harlinn_1_1_common_1_1_core_1_1_internal_1_1_data.html" target="_top" xlink:title=" ">
<polygon fill="white" stroke="#666666" points="226,-113.64 108,-113.64 108,-83.64 226,-83.64 226,-113.64"/>
<text text-anchor="start" x="116" y="-101.64" font-family="Helvetica,sans-Serif" font-size="10.00">Harlinn::Common::Core</text>
<text text-anchor="middle" x="167" y="-90.64" font-family="Helvetica,sans-Serif" font-size="10.00">::Internal::Data&lt; T &gt;</text>
</a>
</g>
</g>
<!-- Node8&#45;&gt;Node18 -->
<g id="edge37_Node000018_Node000008" class="edge">
<title>Node8&#45;&gt;Node18</title>
<g id="a_edge37_Node000018_Node000008"><a xlink:title=" ">
<path fill="none" stroke="#9a32cd" stroke-dasharray="5,2" d="M40.54,-75.29C58.87,-78.7 84.51,-83.47 107.84,-87.82"/>
<polygon fill="#9a32cd" stroke="#9a32cd" points="41.35,-71.88 30.88,-73.5 40.07,-78.77 41.35,-71.88"/>
</a>
</g>
<text text-anchor="middle" x="68.5" y="-87.64" font-family="Helvetica,sans-Serif" font-size="10.00" fill="grey"> buffer_</text>
</g>
<!-- Node9&#45;&gt;Node3 -->
<g id="edge23_Node000003_Node000009" class="edge">
<title>Node9&#45;&gt;Node3</title>
<g id="a_edge23_Node000003_Node000009"><a xlink:title=" ">
<path fill="none" stroke="#9a32cd" stroke-dasharray="5,2" d="M1051.88,-347.49C1164.86,-325.03 1411.89,-274.51 1618,-222.64 1632.43,-219 1648.24,-214.57 1661.77,-210.63"/>
<polygon fill="#9a32cd" stroke="#9a32cd" points="1051.34,-344.03 1042.21,-349.41 1052.7,-350.9 1051.34,-344.03"/>
</a>
</g>
<text text-anchor="middle" x="1322" y="-297.64" font-family="Helvetica,sans-Serif" font-size="10.00" fill="grey"> error_</text>
</g>
<!-- Node9&#45;&gt;Node4 -->
<g id="edge22_Node000004_Node000009" class="edge">
<title>Node9&#45;&gt;Node4</title>
<g id="a_edge22_Node000004_Node000009"><a xlink:title=" ">
<path fill="none" stroke="#9a32cd" stroke-dasharray="5,2" d="M1063.63,-371.11C1151.82,-384.86 1298.08,-407.66 1381.68,-420.69"/>
<polygon fill="#9a32cd" stroke="#9a32cd" points="1064.3,-367.67 1053.88,-369.59 1063.22,-374.59 1064.3,-367.67"/>
</a>
</g>
<text text-anchor="middle" x="1213.5" y="-406.64" font-family="Helvetica,sans-Serif" font-size="10.00" fill="grey"> error_</text>
</g>
<!-- Node9&#45;&gt;Node5 -->
<g id="edge11_Node000005_Node000009" class="edge">
<title>Node9&#45;&gt;Node5</title>
<g id="a_edge11_Node000005_Node000009"><a xlink:title=" ">
<path fill="none" stroke="#9a32cd" stroke-dasharray="5,2" d="M946.7,-346.64C934.38,-343.35 920.76,-340.28 908,-338.64 854.22,-331.69 839.96,-333.36 786,-338.64 773.3,-339.88 759.64,-342.19 747.23,-344.68"/>
<polygon fill="#9a32cd" stroke="#9a32cd" points="945.56,-349.95 956.14,-349.28 947.45,-343.21 945.56,-349.95"/>
</a>
</g>
<text text-anchor="middle" x="847" y="-341.64" font-family="Helvetica,sans-Serif" font-size="10.00" fill="grey"> error_</text>
</g>
<!-- Node9&#45;&gt;Node10 -->
<g id="edge17_Node000010_Node000009" class="edge">
<title>Node9&#45;&gt;Node10</title>
<g id="a_edge17_Node000010_Node000009"><a xlink:title=" ">
<path fill="none" stroke="#9a32cd" stroke-dasharray="5,2" d="M1020.66,-374.45C1035.46,-381.44 1053.53,-389.73 1070,-396.64 1096.72,-407.84 1106.48,-404.2 1131,-419.64 1161.83,-439.05 1190.88,-471.43 1204.47,-487.68"/>
<polygon fill="#9a32cd" stroke="#9a32cd" points="1022.44,-371.42 1011.9,-370.28 1019.43,-377.74 1022.44,-371.42"/>
</a>
</g>
<text text-anchor="middle" x="1100.5" y="-422.64" font-family="Helvetica,sans-Serif" font-size="10.00" fill="grey"> error_</text>
</g>
<!-- Node9&#45;&gt;Node11 -->
<g id="edge21_Node000011_Node000009" class="edge">
<title>Node9&#45;&gt;Node11</title>
<g id="a_edge21_Node000011_Node000009"><a xlink:title=" ">
<path fill="none" stroke="#9a32cd" stroke-dasharray="5,2" d="M1063.91,-360.09C1085.53,-360.24 1109.21,-360.42 1131,-360.64 1139.77,-360.72 1149.08,-360.82 1158.14,-360.93"/>
<polygon fill="#9a32cd" stroke="#9a32cd" points="1064.01,-356.59 1053.98,-360.02 1063.96,-363.59 1064.01,-356.59"/>
</a>
</g>
<text text-anchor="middle" x="1100.5" y="-363.64" font-family="Helvetica,sans-Serif" font-size="10.00" fill="grey"> error_</text>
</g>
<!-- Node9&#45;&gt;Node12 -->
<g id="edge27_Node000012_Node000009" class="edge">
<title>Node9&#45;&gt;Node12</title>
<g id="a_edge27_Node000012_Node000009"><a xlink:title=" ">
<path fill="none" stroke="#9a32cd" stroke-dasharray="5,2" d="M1015.36,-343.54C1026.8,-336.01 1040.33,-326.71 1052,-317.64 1060.45,-311.06 1061.03,-307.48 1070,-301.64 1107.14,-277.45 1154.76,-257.71 1184.45,-246.56"/>
<polygon fill="#9a32cd" stroke="#9a32cd" points="1013.69,-340.45 1007.21,-348.83 1017.51,-346.32 1013.69,-340.45"/>
</a>
</g>
<text text-anchor="middle" x="1100.5" y="-304.64" font-family="Helvetica,sans-Serif" font-size="10.00" fill="grey"> error_</text>
</g>
<!-- Node10&#45;&gt;Node4 -->
<g id="edge14_Node000004_Node000010" class="edge">
<title>Node10&#45;&gt;Node4</title>
<g id="a_edge14_Node000004_Node000010"><a xlink:title=" ">
<path fill="none" stroke="#9a32cd" stroke-dasharray="5,2" d="M1275.03,-485.27C1298.04,-480.13 1324.4,-473.7 1348,-466.64 1373.41,-459.03 1401.79,-448.29 1421.34,-440.52"/>
<polygon fill="#9a32cd" stroke="#9a32cd" points="1274.52,-481.8 1265.5,-487.36 1276.02,-488.63 1274.52,-481.8"/>
</a>
</g>
<text text-anchor="middle" x="1322" y="-482.64" font-family="Helvetica,sans-Serif" font-size="10.00" fill="grey"> server_</text>
</g>
<!-- Node11&#45;&gt;Node4 -->
<g id="edge18_Node000004_Node000011" class="edge">
<title>Node11&#45;&gt;Node4</title>
<g id="a_edge18_Node000004_Node000011"><a xlink:title=" ">
<path fill="none" stroke="#9a32cd" stroke-dasharray="5,2" d="M1280.15,-367.96C1302.06,-371.12 1326.38,-375.79 1348,-382.64 1378.04,-392.15 1410.38,-409.68 1429.23,-420.71"/>
<polygon fill="#9a32cd" stroke="#9a32cd" points="1280.83,-364.52 1270.45,-366.64 1279.89,-371.45 1280.83,-364.52"/>
</a>
</g>
<text text-anchor="middle" x="1322" y="-385.64" font-family="Helvetica,sans-Serif" font-size="10.00" fill="grey"> session_</text>
</g>
<!-- Node12&#45;&gt;Node3 -->
<g id="edge24_Node000003_Node000012" class="edge">
<title>Node12&#45;&gt;Node3</title>
<g id="a_edge24_Node000003_Node000012"><a xlink:title=" ">
<path fill="none" stroke="#9a32cd" stroke-dasharray="5,2" d="M1289.63,-231.01C1385.27,-223.84 1548.54,-211.61 1635.84,-205.07"/>
<polygon fill="#9a32cd" stroke="#9a32cd" points="1289.53,-227.5 1279.82,-231.74 1290.05,-234.48 1289.53,-227.5"/>
</a>
</g>
<text text-anchor="middle" x="1446.5" y="-227.64" font-family="Helvetica,sans-Serif" font-size="10.00" fill="grey"> changeNotification_</text>
</g>
<!-- Node13 -->
<g id="Node000013" class="node">
<title>Node13</title>
<g id="a_Node000013"><a xlink:title=" ">
<polygon fill="white" stroke="#666666" points="1527,-92.64 1366,-92.64 1366,-62.64 1527,-62.64 1527,-92.64"/>
<text text-anchor="start" x="1374" y="-80.64" font-family="Helvetica,sans-Serif" font-size="10.00">std::vector&lt; std::unique</text>
<text text-anchor="middle" x="1446.5" y="-69.64" font-family="Helvetica,sans-Serif" font-size="10.00">_ptr&lt; Harlinn::OCI::BindBase &gt; &gt;</text>
</a>
</g>
</g>
<!-- Node13&#45;&gt;Node3 -->
<g id="edge28_Node000003_Node000013" class="edge">
<title>Node13&#45;&gt;Node3</title>
<g id="a_edge28_Node000003_Node000013"><a xlink:title=" ">
<path fill="none" stroke="#9a32cd" stroke-dasharray="5,2" d="M1538.83,-81.76C1565.7,-86.05 1594.24,-93.82 1618,-107.64 1653.34,-128.18 1679.52,-171.39 1689.99,-190.81"/>
<polygon fill="#9a32cd" stroke="#9a32cd" points="1539.33,-78.3 1528.93,-80.35 1538.34,-85.23 1539.33,-78.3"/>
</a>
</g>
<text text-anchor="middle" x="1581.5" y="-110.64" font-family="Helvetica,sans-Serif" font-size="10.00" fill="grey"> binds_</text>
</g>
<!-- Node14&#45;&gt;Node13 -->
<g id="edge29_Node000013_Node000014" class="edge">
<title>Node14&#45;&gt;Node13</title>
<g id="a_edge29_Node000013_Node000014"><a xlink:title=" ">
<path fill="none" stroke="#9a32cd" stroke-dasharray="5,2" d="M1285.4,-77.64C1310.82,-77.64 1339.63,-77.64 1365.75,-77.64"/>
<polygon fill="#9a32cd" stroke="#9a32cd" points="1285.5,-74.14 1275.5,-77.64 1285.5,-81.14 1285.5,-74.14"/>
</a>
</g>
<text text-anchor="middle" x="1322" y="-80.64" font-family="Helvetica,sans-Serif" font-size="10.00" fill="grey"> elements</text>
</g>
<!-- Node15&#45;&gt;Node14 -->
<g id="edge31_Node000014_Node000015" class="edge">
<title>Node15&#45;&gt;Node14</title>
<g id="a_edge31_Node000014_Node000015"><a xlink:title=" ">
<path fill="none" stroke="orange" stroke-dasharray="5,2" d="M628.04,-61.38C752.86,-64.85 1031.33,-72.6 1153.33,-75.99"/>
<polygon fill="orange" stroke="orange" points="628.42,-57.88 618.32,-61.11 628.22,-64.88 628.42,-57.88"/>
</a>
</g>
<text text-anchor="middle" x="847" y="-72.64" font-family="Helvetica,sans-Serif" font-size="10.00" fill="grey"> &lt; Harlinn::OCI::BindBase &gt;</text>
</g>
<!-- Node16&#45;&gt;Node13 -->
<g id="edge33_Node000013_Node000016" class="edge">
<title>Node16&#45;&gt;Node13</title>
<g id="a_edge33_Node000013_Node000016"><a xlink:title=" ">
<path fill="none" stroke="orange" stroke-dasharray="5,2" d="M347.84,-11.9C402.11,-13.07 488.66,-14.64 563.5,-14.64 563.5,-14.64 563.5,-14.64 1214.5,-14.64 1286.62,-14.64 1367.09,-43.57 1411.46,-62.22"/>
<polygon fill="orange" stroke="orange" points="348.02,-8.4 337.95,-11.68 347.87,-15.4 348.02,-8.4"/>
</a>
</g>
<text text-anchor="start" x="786" y="-28.64" font-family="Helvetica,sans-Serif" font-size="10.00" fill="grey"> &lt; std::unique_ptr&lt;</text>
<text text-anchor="middle" x="847" y="-17.64" font-family="Helvetica,sans-Serif" font-size="10.00" fill="grey"> Harlinn::OCI::BindBase &gt; &gt;</text>
</g>
<!-- Node17 -->
<g id="Node000017" class="node">
<title>Node17</title>
<g id="a_Node000017"><a xlink:href="class_harlinn_1_1_common_1_1_core_1_1_basic_string.html" target="_top" xlink:title=" ">
<polygon fill="white" stroke="#666666" points="766.5,-141.64 641.5,-141.64 641.5,-111.64 766.5,-111.64 766.5,-141.64"/>
<text text-anchor="start" x="649.5" y="-129.64" font-family="Helvetica,sans-Serif" font-size="10.00">Harlinn::Common::Core</text>
<text text-anchor="middle" x="704" y="-118.64" font-family="Helvetica,sans-Serif" font-size="10.00">::BasicString&lt; wchar_t &gt;</text>
</a>
</g>
</g>
<!-- Node17&#45;&gt;Node1 -->
<g id="edge35_Node000001_Node000017" class="edge">
<title>Node17&#45;&gt;Node1</title>
<g id="a_edge35_Node000001_Node000017"><a xlink:title=" ">
<path fill="none" stroke="#9a32cd" stroke-dasharray="5,2" d="M778.18,-127.41C825.52,-127.91 886.29,-128.56 930.24,-129.02"/>
<polygon fill="#9a32cd" stroke="#9a32cd" points="778.31,-123.91 768.27,-127.31 778.23,-130.91 778.31,-123.91"/>
</a>
</g>
<text text-anchor="middle" x="847" y="-131.64" font-family="Helvetica,sans-Serif" font-size="10.00" fill="grey"> name_</text>
</g>
<!-- Node18&#45;&gt;Node17 -->
<g id="edge36_Node000017_Node000018" class="edge">
<title>Node18&#45;&gt;Node17</title>
<g id="a_edge36_Node000017_Node000018"><a xlink:title=" ">
<path fill="none" stroke="#9a32cd" stroke-dasharray="5,2" d="M237.75,-112.76C239.85,-113.07 241.94,-113.36 244,-113.64 410.72,-135.7 453.88,-134.78 622,-130.64 628.19,-130.48 634.65,-130.26 641.1,-130.01"/>
<polygon fill="#9a32cd" stroke="#9a32cd" points="238.3,-109.3 227.88,-111.17 237.19,-116.21 238.3,-109.3"/>
</a>
</g>
<text text-anchor="middle" x="425" y="-135.64" font-family="Helvetica,sans-Serif" font-size="10.00" fill="grey"> data_</text>
</g>
<!-- Node19 -->
<g id="Node000019" class="node">
<title>Node19</title>
<g id="a_Node000019"><a xlink:href="class_harlinn_1_1_common_1_1_core_1_1_basic_string.html" target="_top" xlink:title="This is a reference counted string class.">
<polygon fill="white" stroke="#666666" points="484,-112.64 366,-112.64 366,-82.64 484,-82.64 484,-112.64"/>
<text text-anchor="start" x="374" y="-100.64" font-family="Helvetica,sans-Serif" font-size="10.00">Harlinn::Common::Core</text>
<text text-anchor="middle" x="425" y="-89.64" font-family="Helvetica,sans-Serif" font-size="10.00">::BasicString&lt; T &gt;</text>
</a>
</g>
</g>
<!-- Node18&#45;&gt;Node19 -->
<g id="edge39_Node000019_Node000018" class="edge">
<title>Node18&#45;&gt;Node19</title>
<g id="a_edge39_Node000019_Node000018"><a xlink:title=" ">
<path fill="none" stroke="#9a32cd" stroke-dasharray="5,2" d="M237.73,-98.36C277.9,-98.21 327.8,-98.01 365.84,-97.86"/>
<polygon fill="#9a32cd" stroke="#9a32cd" points="237.91,-94.86 227.92,-98.4 237.94,-101.86 237.91,-94.86"/>
</a>
</g>
<text text-anchor="middle" x="293.5" y="-101.64" font-family="Helvetica,sans-Serif" font-size="10.00" fill="grey"> data_</text>
</g>
<!-- Node19&#45;&gt;Node17 -->
<g id="edge38_Node000017_Node000019" class="edge">
<title>Node19&#45;&gt;Node17</title>
<g id="a_edge38_Node000017_Node000019"><a xlink:title=" ">
<path fill="none" stroke="orange" stroke-dasharray="5,2" d="M495.79,-104.94C540.58,-109.63 598.2,-115.66 641.31,-120.18"/>
<polygon fill="orange" stroke="orange" points="496.22,-101.47 485.91,-103.91 495.49,-108.43 496.22,-101.47"/>
</a>
</g>
<text text-anchor="middle" x="564.5" y="-120.64" font-family="Helvetica,sans-Serif" font-size="10.00" fill="grey"> &lt; wchar_t &gt;</text>
</g>
</g>
</svg>
