<?xml version="1.0" encoding="UTF-8" standalone="no"?>
<!DOCTYPE svg PUBLIC "-//W3C//DTD SVG 1.1//EN"
 "http://www.w3.org/Graphics/SVG/1.1/DTD/svg11.dtd">
<!-- Generated by graphviz version 7.0.1 (20221109.1506)
 -->
<!-- Title: Harlinn::Windows::Graphics::DirectComposition::Device2 Pages: 1 -->
<svg width="513pt" height="86pt"
 viewBox="0.00 0.00 513.00 86.00" xmlns="http://www.w3.org/2000/svg" xmlns:xlink="http://www.w3.org/1999/xlink">
<g id="graph0" class="graph" transform="scale(1 1) rotate(0) translate(4 82)">
<title>Harlinn::Windows::Graphics::DirectComposition::Device2</title>
<!-- Node1 -->
<g id="Node000001" class="node">
<title>Node1</title>
<g id="a_Node000001"><a xlink:title="Serves as a factory for all other Microsoft DirectComposition objects and provides methods to control...">
<polygon fill="#999999" stroke="#666666" points="296,-54 154,-54 154,-24 296,-24 296,-54"/>
<text text-anchor="start" x="162" y="-42" font-family="Helvetica,sans-Serif" font-size="10.00">Harlinn::Windows::Graphics</text>
<text text-anchor="middle" x="225" y="-31" font-family="Helvetica,sans-Serif" font-size="10.00">::DirectComposition::Device2</text>
</a>
</g>
</g>
<!-- Node3 -->
<g id="Node000003" class="node">
<title>Node3</title>
<g id="a_Node000003"><a xlink:href="class_harlinn_1_1_windows_1_1_graphics_1_1_direct_composition_1_1_desktop_device.html" target="_top" xlink:title="An application must use the DesktopDevice class in order to use DirectComposition in a Windows deskto...">
<polygon fill="white" stroke="#666666" points="505,-78 332,-78 332,-48 505,-48 505,-78"/>
<text text-anchor="start" x="340" y="-66" font-family="Helvetica,sans-Serif" font-size="10.00">Harlinn::Windows::Graphics</text>
<text text-anchor="middle" x="418.5" y="-55" font-family="Helvetica,sans-Serif" font-size="10.00">::DirectComposition::DesktopDevice</text>
</a>
</g>
</g>
<!-- Node1&#45;&gt;Node3 -->
<g id="edge2_Node000001_Node000003" class="edge">
<title>Node1&#45;&gt;Node3</title>
<g id="a_edge2_Node000001_Node000003"><a xlink:title=" ">
<path fill="none" stroke="#63b8ff" d="M307.87,-49.26C315.71,-50.24 323.68,-51.24 331.56,-52.23"/>
<polygon fill="#63b8ff" stroke="#63b8ff" points="308.35,-45.79 297.99,-48.02 307.48,-52.74 308.35,-45.79"/>
</a>
</g>
</g>
<!-- Node4 -->
<g id="Node000004" class="node">
<title>Node4</title>
<g id="a_Node000004"><a xlink:href="class_harlinn_1_1_windows_1_1_graphics_1_1_direct_composition_1_1_device3.html" target="_top" xlink:title="Serves as a factory for all other Microsoft DirectComposition objects and provides methods to control...">
<polygon fill="white" stroke="#666666" points="489.5,-30 347.5,-30 347.5,0 489.5,0 489.5,-30"/>
<text text-anchor="start" x="355.5" y="-18" font-family="Helvetica,sans-Serif" font-size="10.00">Harlinn::Windows::Graphics</text>
<text text-anchor="middle" x="418.5" y="-7" font-family="Helvetica,sans-Serif" font-size="10.00">::DirectComposition::Device3</text>
</a>
</g>
</g>
<!-- Node1&#45;&gt;Node4 -->
<g id="edge3_Node000001_Node000004" class="edge">
<title>Node1&#45;&gt;Node4</title>
<g id="a_edge3_Node000001_Node000004"><a xlink:title=" ">
<path fill="none" stroke="#63b8ff" d="M307.87,-28.74C320.95,-27.1 334.38,-25.42 347.16,-23.82"/>
<polygon fill="#63b8ff" stroke="#63b8ff" points="307.48,-25.26 297.99,-29.98 308.35,-32.21 307.48,-25.26"/>
</a>
</g>
</g>
<!-- Node2 -->
<g id="Node000002" class="node">
<title>Node2</title>
<g id="a_Node000002"><a xlink:href="class_harlinn_1_1_common_1_1_core_1_1_unknown.html" target="_top" xlink:title=" ">
<polygon fill="white" stroke="#666666" points="118,-54 0,-54 0,-24 118,-24 118,-54"/>
<text text-anchor="start" x="8" y="-42" font-family="Helvetica,sans-Serif" font-size="10.00">Harlinn::Common::Core</text>
<text text-anchor="middle" x="59" y="-31" font-family="Helvetica,sans-Serif" font-size="10.00">::Unknown</text>
</a>
</g>
</g>
<!-- Node2&#45;&gt;Node1 -->
<g id="edge1_Node000001_Node000002" class="edge">
<title>Node2&#45;&gt;Node1</title>
<g id="a_edge1_Node000001_Node000002"><a xlink:title=" ">
<path fill="none" stroke="#63b8ff" d="M129.7,-39C137.6,-39 145.65,-39 153.55,-39"/>
<polygon fill="#63b8ff" stroke="#63b8ff" points="129.8,-35.5 119.8,-39 129.8,-42.5 129.8,-35.5"/>
</a>
</g>
</g>
</g>
</svg>
