<?xml version="1.0" encoding="UTF-8" standalone="no"?>
<!DOCTYPE svg PUBLIC "-//W3C//DTD SVG 1.1//EN"
 "http://www.w3.org/Graphics/SVG/1.1/DTD/svg11.dtd">
<!-- Generated by graphviz version 7.0.1 (20221109.1506)
 -->
<!-- Title: Harlinn::Common::Core::Com::Internal::IStreamOnStreamImpl&lt; StreamT, DerivedT, InterfaceT &gt; Pages: 1 -->
<svg width="1360pt" height="108pt"
 viewBox="0.00 0.00 1360.00 108.00" xmlns="http://www.w3.org/2000/svg" xmlns:xlink="http://www.w3.org/1999/xlink">
<g id="graph0" class="graph" transform="scale(1 1) rotate(0) translate(4 104)">
<title>Harlinn::Common::Core::Com::Internal::IStreamOnStreamImpl&lt; StreamT, DerivedT, InterfaceT &gt;</title>
<!-- Node1 -->
<g id="Node000001" class="node">
<title>Node1</title>
<g id="a_Node000001"><a xlink:title=" ">
<polygon fill="#999999" stroke="#666666" points="819,-75.5 639,-75.5 639,-34.5 819,-34.5 819,-75.5"/>
<text text-anchor="start" x="647" y="-63.5" font-family="Helvetica,sans-Serif" font-size="10.00">Harlinn::Common::Core</text>
<text text-anchor="start" x="647" y="-52.5" font-family="Helvetica,sans-Serif" font-size="10.00">::Com::Internal::IStreamOnStream</text>
<text text-anchor="middle" x="729" y="-41.5" font-family="Helvetica,sans-Serif" font-size="10.00">Impl&lt; StreamT, DerivedT, InterfaceT &gt;</text>
</a>
</g>
</g>
<!-- Node6 -->
<g id="Node000006" class="node">
<title>Node6</title>
<g id="a_Node000006"><a xlink:href="class_harlinn_1_1_common_1_1_core_1_1_com_1_1_internal_1_1_i_stream_on_stream_impl.html" target="_top" xlink:title=" ">
<polygon fill="white" stroke="#666666" points="1170,-81 988,-81 988,-29 1170,-29 1170,-81"/>
<text text-anchor="start" x="996" y="-69" font-family="Helvetica,sans-Serif" font-size="10.00">Harlinn::Common::Core</text>
<text text-anchor="start" x="996" y="-58" font-family="Helvetica,sans-Serif" font-size="10.00">::Com::Internal::IStreamOnStream</text>
<text text-anchor="start" x="996" y="-47" font-family="Helvetica,sans-Serif" font-size="10.00">Impl&lt; StreamT, IStreamOnStreamImpl</text>
<text text-anchor="middle" x="1079" y="-36" font-family="Helvetica,sans-Serif" font-size="10.00">&lt; StreamT, IStream &gt;, IStream &gt;</text>
</a>
</g>
</g>
<!-- Node1&#45;&gt;Node6 -->
<g id="edge5_Node000001_Node000006" class="edge">
<title>Node1&#45;&gt;Node6</title>
<g id="a_edge5_Node000001_Node000006"><a xlink:title=" ">
<path fill="none" stroke="orange" stroke-dasharray="5,2" d="M830.56,-55C880.13,-55 939.43,-55 987.55,-55"/>
<polygon fill="orange" stroke="orange" points="830.68,-51.5 820.68,-55 830.68,-58.5 830.68,-51.5"/>
</a>
</g>
<text text-anchor="start" x="837" y="-80" font-family="Helvetica,sans-Serif" font-size="10.00" fill="grey"> &lt; StreamT, IStreamOnStream</text>
<text text-anchor="start" x="837" y="-69" font-family="Helvetica,sans-Serif" font-size="10.00" fill="grey">Impl&lt; StreamT, IStream</text>
<text text-anchor="middle" x="903.5" y="-58" font-family="Helvetica,sans-Serif" font-size="10.00" fill="grey"> &gt;, IStream &gt;</text>
</g>
<!-- Node2 -->
<g id="Node000002" class="node">
<title>Node2</title>
<g id="a_Node000002"><a xlink:href="class_harlinn_1_1_common_1_1_core_1_1_com_1_1_internal_1_1_i_sequential_stream_on_stream_impl.html" target="_top" xlink:title=" ">
<polygon fill="white" stroke="#666666" points="602,-81 443,-81 443,-29 602,-29 602,-81"/>
<text text-anchor="start" x="451" y="-69" font-family="Helvetica,sans-Serif" font-size="10.00">Harlinn::Common::Core</text>
<text text-anchor="start" x="451" y="-58" font-family="Helvetica,sans-Serif" font-size="10.00">::Com::Internal::ISequential</text>
<text text-anchor="start" x="451" y="-47" font-family="Helvetica,sans-Serif" font-size="10.00">StreamOnStreamImpl&lt; StreamT,</text>
<text text-anchor="middle" x="522.5" y="-36" font-family="Helvetica,sans-Serif" font-size="10.00"> DerivedT, IStream &gt;</text>
</a>
</g>
</g>
<!-- Node2&#45;&gt;Node1 -->
<g id="edge1_Node000001_Node000002" class="edge">
<title>Node2&#45;&gt;Node1</title>
<g id="a_edge1_Node000001_Node000002"><a xlink:title=" ">
<path fill="none" stroke="#63b8ff" d="M613.56,-55C621.91,-55 630.37,-55 638.71,-55"/>
<polygon fill="#63b8ff" stroke="#63b8ff" points="613.79,-51.5 603.79,-55 613.79,-58.5 613.79,-51.5"/>
</a>
</g>
</g>
<!-- Node3 -->
<g id="Node000003" class="node">
<title>Node3</title>
<g id="a_Node000003"><a xlink:title=" ">
<polygon fill="white" stroke="#666666" points="290.5,-100 174.5,-100 174.5,-70 290.5,-70 290.5,-100"/>
<text text-anchor="start" x="182.5" y="-88" font-family="Helvetica,sans-Serif" font-size="10.00">ObjectBase&lt; DerivedT,</text>
<text text-anchor="middle" x="232.5" y="-77" font-family="Helvetica,sans-Serif" font-size="10.00"> IStream &gt;</text>
</a>
</g>
</g>
<!-- Node3&#45;&gt;Node2 -->
<g id="edge2_Node000002_Node000003" class="edge">
<title>Node3&#45;&gt;Node2</title>
<g id="a_edge2_Node000002_Node000003"><a xlink:title=" ">
<path fill="none" stroke="#63b8ff" d="M301.64,-80.93C338.27,-78.42 384.18,-74.76 425,-70 430.73,-69.33 436.63,-68.58 442.57,-67.77"/>
<polygon fill="#63b8ff" stroke="#63b8ff" points="301.84,-77.41 292.1,-81.57 302.31,-84.39 301.84,-77.41"/>
</a>
</g>
</g>
<!-- Node4 -->
<g id="Node000004" class="node">
<title>Node4</title>
<g id="a_Node000004"><a xlink:href="class_harlinn_1_1_common_1_1_core_1_1_com_1_1_internal_1_1_i_sequential_stream_on_stream_impl.html" target="_top" xlink:title=" ">
<polygon fill="white" stroke="#666666" points="312,-52 153,-52 153,0 312,0 312,-52"/>
<text text-anchor="start" x="161" y="-40" font-family="Helvetica,sans-Serif" font-size="10.00">Harlinn::Common::Core</text>
<text text-anchor="start" x="161" y="-29" font-family="Helvetica,sans-Serif" font-size="10.00">::Com::Internal::ISequential</text>
<text text-anchor="start" x="161" y="-18" font-family="Helvetica,sans-Serif" font-size="10.00">StreamOnStreamImpl&lt; StreamT,</text>
<text text-anchor="middle" x="232.5" y="-7" font-family="Helvetica,sans-Serif" font-size="10.00"> DerivedT, InterfaceT &gt;</text>
</a>
</g>
</g>
<!-- Node4&#45;&gt;Node2 -->
<g id="edge3_Node000002_Node000004" class="edge">
<title>Node4&#45;&gt;Node2</title>
<g id="a_edge3_Node000002_Node000004"><a xlink:title=" ">
<path fill="none" stroke="orange" stroke-dasharray="5,2" d="M323.33,-35.05C361.54,-38.89 405.72,-43.34 442.65,-47.06"/>
<polygon fill="orange" stroke="orange" points="324,-31.6 313.7,-34.08 323.3,-38.56 324,-31.6"/>
</a>
</g>
<text text-anchor="start" x="330" y="-58" font-family="Helvetica,sans-Serif" font-size="10.00" fill="grey"> &lt; StreamT, DerivedT,</text>
<text text-anchor="middle" x="377.5" y="-47" font-family="Helvetica,sans-Serif" font-size="10.00" fill="grey"> IStream &gt;</text>
</g>
<!-- Node5 -->
<g id="Node000005" class="node">
<title>Node5</title>
<g id="a_Node000005"><a xlink:title=" ">
<polygon fill="white" stroke="#666666" points="116,-41 0,-41 0,-11 116,-11 116,-41"/>
<text text-anchor="start" x="8" y="-29" font-family="Helvetica,sans-Serif" font-size="10.00">ObjectBase&lt; DerivedT,</text>
<text text-anchor="middle" x="58" y="-18" font-family="Helvetica,sans-Serif" font-size="10.00"> ISequentialStream &gt;</text>
</a>
</g>
</g>
<!-- Node5&#45;&gt;Node4 -->
<g id="edge4_Node000004_Node000005" class="edge">
<title>Node5&#45;&gt;Node4</title>
<g id="a_edge4_Node000004_Node000005"><a xlink:title=" ">
<path fill="none" stroke="#63b8ff" d="M127.76,-26C135.89,-26 144.24,-26 152.5,-26"/>
<polygon fill="#63b8ff" stroke="#63b8ff" points="127.95,-22.5 117.95,-26 127.95,-29.5 127.95,-22.5"/>
</a>
</g>
</g>
<!-- Node7 -->
<g id="Node000007" class="node">
<title>Node7</title>
<g id="a_Node000007"><a xlink:href="class_harlinn_1_1_common_1_1_core_1_1_com_1_1_i_stream_on_stream_impl.html" target="_top" xlink:title=" ">
<polygon fill="white" stroke="#666666" points="1352,-75.5 1207,-75.5 1207,-34.5 1352,-34.5 1352,-75.5"/>
<text text-anchor="start" x="1215" y="-63.5" font-family="Helvetica,sans-Serif" font-size="10.00">Harlinn::Common::Core</text>
<text text-anchor="start" x="1215" y="-52.5" font-family="Helvetica,sans-Serif" font-size="10.00">::Com::IStreamOnStreamImpl</text>
<text text-anchor="middle" x="1279.5" y="-41.5" font-family="Helvetica,sans-Serif" font-size="10.00">&lt; StreamT, InterfaceT &gt;</text>
</a>
</g>
</g>
<!-- Node6&#45;&gt;Node7 -->
<g id="edge6_Node000006_Node000007" class="edge">
<title>Node6&#45;&gt;Node7</title>
<g id="a_edge6_Node000006_Node000007"><a xlink:title=" ">
<path fill="none" stroke="#63b8ff" d="M1181.7,-55C1190.11,-55 1198.49,-55 1206.61,-55"/>
<polygon fill="#63b8ff" stroke="#63b8ff" points="1181.76,-51.5 1171.76,-55 1181.76,-58.5 1181.76,-51.5"/>
</a>
</g>
</g>
</g>
</svg>
