<?xml version="1.0" encoding="UTF-8" standalone="no"?>
<!DOCTYPE svg PUBLIC "-//W3C//DTD SVG 1.1//EN"
 "http://www.w3.org/Graphics/SVG/1.1/DTD/svg11.dtd">
<!-- Generated by graphviz version 7.0.1 (20221109.1506)
 -->
<!-- Title: Harlinn::Common::Core::LMDBEx::HashIndex&lt; PrimaryKeyT &gt; Pages: 1 -->
<svg width="127pt" height="181pt"
 viewBox="0.00 0.00 127.00 181.00" xmlns="http://www.w3.org/2000/svg" xmlns:xlink="http://www.w3.org/1999/xlink">
<g id="graph0" class="graph" transform="scale(1 1) rotate(0) translate(4 177)">
<title>Harlinn::Common::Core::LMDBEx::HashIndex&lt; PrimaryKeyT &gt;</title>
<!-- Node1 -->
<g id="Node000001" class="node">
<title>Node1</title>
<g id="a_Node000001"><a xlink:title="HashIndex.">
<polygon fill="#999999" stroke="#666666" points="119,-41 0,-41 0,0 119,0 119,-41"/>
<text text-anchor="start" x="8" y="-29" font-family="Helvetica,sans-Serif" font-size="10.00">Harlinn::Common::Core</text>
<text text-anchor="start" x="8" y="-18" font-family="Helvetica,sans-Serif" font-size="10.00">::LMDBEx::HashIndex&lt;</text>
<text text-anchor="middle" x="59.5" y="-7" font-family="Helvetica,sans-Serif" font-size="10.00"> PrimaryKeyT &gt;</text>
</a>
</g>
</g>
<!-- Node2 -->
<g id="Node000002" class="node">
<title>Node2</title>
<g id="a_Node000002"><a xlink:href="class_harlinn_1_1_common_1_1_core_1_1_l_m_d_b_ex_1_1_index.html" target="_top" xlink:title="Index.">
<polygon fill="white" stroke="#666666" points="118.5,-107 0.5,-107 0.5,-77 118.5,-77 118.5,-107"/>
<text text-anchor="start" x="8.5" y="-95" font-family="Helvetica,sans-Serif" font-size="10.00">Harlinn::Common::Core</text>
<text text-anchor="middle" x="59.5" y="-84" font-family="Helvetica,sans-Serif" font-size="10.00">::LMDBEx::Index</text>
</a>
</g>
</g>
<!-- Node2&#45;&gt;Node1 -->
<g id="edge1_Node000001_Node000002" class="edge">
<title>Node2&#45;&gt;Node1</title>
<g id="a_edge1_Node000001_Node000002"><a xlink:title=" ">
<path fill="none" stroke="#63b8ff" d="M59.5,-65.36C59.5,-57.45 59.5,-48.87 59.5,-41.42"/>
<polygon fill="#63b8ff" stroke="#63b8ff" points="56,-65.09 59.5,-75.09 63,-65.09 56,-65.09"/>
</a>
</g>
</g>
<!-- Node3 -->
<g id="Node000003" class="node">
<title>Node3</title>
<g id="a_Node000003"><a xlink:href="class_harlinn_1_1_common_1_1_core_1_1_l_m_d_b_ex_1_1_table_base.html" target="_top" xlink:title="TableBase.">
<polygon fill="white" stroke="#666666" points="118.5,-173 0.5,-173 0.5,-143 118.5,-143 118.5,-173"/>
<text text-anchor="start" x="8.5" y="-161" font-family="Helvetica,sans-Serif" font-size="10.00">Harlinn::Common::Core</text>
<text text-anchor="middle" x="59.5" y="-150" font-family="Helvetica,sans-Serif" font-size="10.00">::LMDBEx::TableBase</text>
</a>
</g>
</g>
<!-- Node3&#45;&gt;Node2 -->
<g id="edge2_Node000002_Node000003" class="edge">
<title>Node3&#45;&gt;Node2</title>
<g id="a_edge2_Node000002_Node000003"><a xlink:title=" ">
<path fill="none" stroke="#63b8ff" d="M59.5,-131.39C59.5,-123.13 59.5,-114.28 59.5,-107.16"/>
<polygon fill="#63b8ff" stroke="#63b8ff" points="56,-131.28 59.5,-141.28 63,-131.28 56,-131.28"/>
</a>
</g>
</g>
</g>
</svg>
