<?xml version="1.0" encoding="UTF-8" standalone="no"?>
<!DOCTYPE svg PUBLIC "-//W3C//DTD SVG 1.1//EN"
 "http://www.w3.org/Graphics/SVG/1.1/DTD/svg11.dtd">
<!-- Generated by graphviz version 7.0.1 (20221109.1506)
 -->
<!-- Title: Harlinn::Common::Core::Environment::User Pages: 1 -->
<svg width="1135pt" height="138pt"
 viewBox="0.00 0.00 1135.00 138.00" xmlns="http://www.w3.org/2000/svg" xmlns:xlink="http://www.w3.org/1999/xlink">
<g id="graph0" class="graph" transform="scale(1 1) rotate(0) translate(4 134)">
<title>Harlinn::Common::Core::Environment::User</title>
<!-- Node1 -->
<g id="Node000001" class="node">
<title>Node1</title>
<g id="a_Node000001"><a xlink:title="Represents a local or domain user.">
<polygon fill="#999999" stroke="#666666" points="1127,-74 1009,-74 1009,-44 1127,-44 1127,-74"/>
<text text-anchor="start" x="1017" y="-62" font-family="Helvetica,sans-Serif" font-size="10.00">Harlinn::Common::Core</text>
<text text-anchor="middle" x="1068" y="-51" font-family="Helvetica,sans-Serif" font-size="10.00">::Environment::User</text>
</a>
</g>
</g>
<!-- Node2 -->
<g id="Node000002" class="node">
<title>Node2</title>
<g id="a_Node000002"><a xlink:href="class_harlinn_1_1_common_1_1_core_1_1_environment_1_1_domain_object.html" target="_top" xlink:title=" ">
<polygon fill="white" stroke="#666666" points="972,-74 829,-74 829,-44 972,-44 972,-74"/>
<text text-anchor="start" x="837" y="-62" font-family="Helvetica,sans-Serif" font-size="10.00">Harlinn::Common::Core</text>
<text text-anchor="middle" x="900.5" y="-51" font-family="Helvetica,sans-Serif" font-size="10.00">::Environment::DomainObject</text>
</a>
</g>
</g>
<!-- Node2&#45;&gt;Node1 -->
<g id="edge1_Node000001_Node000002" class="edge">
<title>Node2&#45;&gt;Node1</title>
<g id="a_edge1_Node000001_Node000002"><a xlink:title=" ">
<path fill="none" stroke="#63b8ff" d="M983.6,-59C992.02,-59 1000.44,-59 1008.53,-59"/>
<polygon fill="#63b8ff" stroke="#63b8ff" points="983.68,-55.5 973.68,-59 983.68,-62.5 983.68,-55.5"/>
</a>
</g>
</g>
<!-- Node3 -->
<g id="Node000003" class="node">
<title>Node3</title>
<g id="a_Node000003"><a xlink:href="class_harlinn_1_1_common_1_1_core_1_1_basic_string.html" target="_top" xlink:title=" ">
<polygon fill="white" stroke="#666666" points="675,-113 550,-113 550,-83 675,-83 675,-113"/>
<text text-anchor="start" x="558" y="-101" font-family="Helvetica,sans-Serif" font-size="10.00">Harlinn::Common::Core</text>
<text text-anchor="middle" x="612.5" y="-90" font-family="Helvetica,sans-Serif" font-size="10.00">::BasicString&lt; wchar_t &gt;</text>
</a>
</g>
</g>
<!-- Node3&#45;&gt;Node1 -->
<g id="edge11_Node000001_Node000003" class="edge">
<title>Node3&#45;&gt;Node1</title>
<g id="a_edge11_Node000001_Node000003"><a xlink:title=" ">
<path fill="none" stroke="#9a32cd" stroke-dasharray="5,2" d="M686.5,-100.13C759.32,-101.05 874.14,-99.2 972,-83 985.17,-80.82 999.2,-77.72 1012.32,-74.47"/>
<polygon fill="#9a32cd" stroke="#9a32cd" points="686.75,-96.64 676.69,-99.99 686.64,-103.64 686.75,-96.64"/>
</a>
</g>
<text text-anchor="middle" x="900.5" y="-122" font-family="Helvetica,sans-Serif" font-size="10.00" fill="grey"> comment_</text>
<text text-anchor="middle" x="900.5" y="-111" font-family="Helvetica,sans-Serif" font-size="10.00" fill="grey">homeDirectory_</text>
<text text-anchor="middle" x="900.5" y="-100" font-family="Helvetica,sans-Serif" font-size="10.00" fill="grey">scriptPath_</text>
</g>
<!-- Node3&#45;&gt;Node2 -->
<g id="edge2_Node000002_Node000003" class="edge">
<title>Node3&#45;&gt;Node2</title>
<g id="a_edge2_Node000002_Node000003"><a xlink:title=" ">
<path fill="none" stroke="#9a32cd" stroke-dasharray="5,2" d="M686.37,-85.97C688.61,-85.64 690.82,-85.32 693,-85 738.06,-78.48 788.79,-72.08 828.69,-67.26"/>
<polygon fill="#9a32cd" stroke="#9a32cd" points="685.95,-82.5 676.59,-87.47 687.01,-89.42 685.95,-82.5"/>
</a>
</g>
<text text-anchor="middle" x="752" y="-88" font-family="Helvetica,sans-Serif" font-size="10.00" fill="grey"> name_</text>
</g>
<!-- Node4 -->
<g id="Node000004" class="node">
<title>Node4</title>
<g id="a_Node000004"><a xlink:href="struct_harlinn_1_1_common_1_1_core_1_1_internal_1_1_data.html" target="_top" xlink:title=" ">
<polygon fill="white" stroke="#666666" points="226,-78 108,-78 108,-48 226,-48 226,-78"/>
<text text-anchor="start" x="116" y="-66" font-family="Helvetica,sans-Serif" font-size="10.00">Harlinn::Common::Core</text>
<text text-anchor="middle" x="167" y="-55" font-family="Helvetica,sans-Serif" font-size="10.00">::Internal::Data&lt; T &gt;</text>
</a>
</g>
</g>
<!-- Node4&#45;&gt;Node3 -->
<g id="edge3_Node000003_Node000004" class="edge">
<title>Node4&#45;&gt;Node3</title>
<g id="a_edge3_Node000003_Node000004"><a xlink:title=" ">
<path fill="none" stroke="#9a32cd" stroke-dasharray="5,2" d="M237.75,-77.05C239.86,-77.39 241.94,-77.7 244,-78 371.02,-96.38 403.66,-99.81 532,-99 537.8,-98.96 543.83,-98.91 549.87,-98.85"/>
<polygon fill="#9a32cd" stroke="#9a32cd" points="238.33,-73.6 227.89,-75.4 237.18,-80.51 238.33,-73.6"/>
</a>
</g>
<text text-anchor="middle" x="400" y="-101" font-family="Helvetica,sans-Serif" font-size="10.00" fill="grey"> data_</text>
</g>
<!-- Node6 -->
<g id="Node000006" class="node">
<title>Node6</title>
<g id="a_Node000006"><a xlink:href="class_harlinn_1_1_common_1_1_core_1_1_basic_string.html" target="_top" xlink:title="This is a reference counted string class.">
<polygon fill="white" stroke="#666666" points="459,-78 341,-78 341,-48 459,-48 459,-78"/>
<text text-anchor="start" x="349" y="-66" font-family="Helvetica,sans-Serif" font-size="10.00">Harlinn::Common::Core</text>
<text text-anchor="middle" x="400" y="-55" font-family="Helvetica,sans-Serif" font-size="10.00">::BasicString&lt; T &gt;</text>
</a>
</g>
</g>
<!-- Node4&#45;&gt;Node6 -->
<g id="edge6_Node000006_Node000004" class="edge">
<title>Node4&#45;&gt;Node6</title>
<g id="a_edge6_Node000006_Node000004"><a xlink:title=" ">
<path fill="none" stroke="#9a32cd" stroke-dasharray="5,2" d="M237.66,-63C270.57,-63 309.41,-63 340.73,-63"/>
<polygon fill="#9a32cd" stroke="#9a32cd" points="237.8,-59.5 227.8,-63 237.8,-66.5 237.8,-59.5"/>
</a>
</g>
<text text-anchor="middle" x="283.5" y="-66" font-family="Helvetica,sans-Serif" font-size="10.00" fill="grey"> data_</text>
</g>
<!-- Node5 -->
<g id="Node000005" class="node">
<title>Node5</title>
<g id="a_Node000005"><a xlink:title=" ">
<polygon fill="white" stroke="#666666" points="29,-49.5 0,-49.5 0,-30.5 29,-30.5 29,-49.5"/>
<text text-anchor="middle" x="14.5" y="-37.5" font-family="Helvetica,sans-Serif" font-size="10.00">T</text>
</a>
</g>
</g>
<!-- Node5&#45;&gt;Node4 -->
<g id="edge4_Node000004_Node000005" class="edge">
<title>Node5&#45;&gt;Node4</title>
<g id="a_edge4_Node000004_Node000005"><a xlink:title=" ">
<path fill="none" stroke="#9a32cd" stroke-dasharray="5,2" d="M40.54,-43.83C58.87,-46.63 84.51,-50.55 107.84,-54.11"/>
<polygon fill="#9a32cd" stroke="#9a32cd" points="41.3,-40.4 30.89,-42.35 40.24,-47.32 41.3,-40.4"/>
</a>
</g>
<text text-anchor="middle" x="68.5" y="-53" font-family="Helvetica,sans-Serif" font-size="10.00" fill="grey"> buffer_</text>
</g>
<!-- Node9 -->
<g id="Node000009" class="node">
<title>Node9</title>
<g id="a_Node000009"><a xlink:title=" ">
<polygon fill="white" stroke="#666666" points="207.5,-28.5 126.5,-28.5 126.5,-9.5 207.5,-9.5 207.5,-28.5"/>
<text text-anchor="middle" x="167" y="-16.5" font-family="Helvetica,sans-Serif" font-size="10.00">std::array&lt; T &gt;</text>
</a>
</g>
</g>
<!-- Node5&#45;&gt;Node9 -->
<g id="edge10_Node000009_Node000005" class="edge">
<title>Node5&#45;&gt;Node9</title>
<g id="a_edge10_Node000009_Node000005"><a xlink:title=" ">
<path fill="none" stroke="#9a32cd" stroke-dasharray="5,2" d="M39.57,-28.27C42.04,-27.38 44.54,-26.6 47,-26 72.84,-19.72 102.72,-17.98 126.08,-17.8"/>
<polygon fill="#9a32cd" stroke="#9a32cd" points="38.49,-24.92 30.63,-32.02 41.2,-31.38 38.49,-24.92"/>
</a>
</g>
<text text-anchor="middle" x="68.5" y="-29" font-family="Helvetica,sans-Serif" font-size="10.00" fill="grey"> elements</text>
</g>
<!-- Node6&#45;&gt;Node3 -->
<g id="edge5_Node000003_Node000006" class="edge">
<title>Node6&#45;&gt;Node3</title>
<g id="a_edge5_Node000003_Node000006"><a xlink:title=" ">
<path fill="none" stroke="orange" stroke-dasharray="5,2" d="M470.48,-74.55C496.07,-78.81 524.86,-83.59 549.72,-87.73"/>
<polygon fill="orange" stroke="orange" points="471.29,-71.14 460.85,-72.95 470.14,-78.04 471.29,-71.14"/>
</a>
</g>
<text text-anchor="middle" x="504.5" y="-87" font-family="Helvetica,sans-Serif" font-size="10.00" fill="grey"> &lt; wchar_t &gt;</text>
</g>
<!-- Node7 -->
<g id="Node000007" class="node">
<title>Node7</title>
<g id="a_Node000007"><a xlink:href="class_harlinn_1_1_common_1_1_core_1_1_time_span.html" target="_top" xlink:title=" ">
<polygon fill="white" stroke="#666666" points="811,-30 693,-30 693,0 811,0 811,-30"/>
<text text-anchor="start" x="701" y="-18" font-family="Helvetica,sans-Serif" font-size="10.00">Harlinn::Common::Core</text>
<text text-anchor="middle" x="752" y="-7" font-family="Helvetica,sans-Serif" font-size="10.00">::TimeSpan</text>
</a>
</g>
</g>
<!-- Node7&#45;&gt;Node1 -->
<g id="edge7_Node000001_Node000007" class="edge">
<title>Node7&#45;&gt;Node1</title>
<g id="a_edge7_Node000001_Node000007"><a xlink:title=" ">
<path fill="none" stroke="#9a32cd" stroke-dasharray="5,2" d="M822.51,-12.37C865.89,-12.08 922.67,-14.15 972,-24 992.86,-28.16 1015.22,-36.21 1033.01,-43.54"/>
<polygon fill="#9a32cd" stroke="#9a32cd" points="822.69,-8.87 812.73,-12.48 822.77,-15.87 822.69,-8.87"/>
</a>
</g>
<text text-anchor="middle" x="900.5" y="-27" font-family="Helvetica,sans-Serif" font-size="10.00" fill="grey"> passwordAge_</text>
</g>
<!-- Node8 -->
<g id="Node000008" class="node">
<title>Node8</title>
<g id="a_Node000008"><a xlink:href="class_harlinn_1_1_common_1_1_core_1_1_time_base.html" target="_top" xlink:title=" ">
<polygon fill="white" stroke="#666666" points="459,-30 341,-30 341,0 459,0 459,-30"/>
<text text-anchor="start" x="349" y="-18" font-family="Helvetica,sans-Serif" font-size="10.00">Harlinn::Common::Core</text>
<text text-anchor="middle" x="400" y="-7" font-family="Helvetica,sans-Serif" font-size="10.00">::TimeBase</text>
</a>
</g>
</g>
<!-- Node8&#45;&gt;Node7 -->
<g id="edge8_Node000007_Node000008" class="edge">
<title>Node8&#45;&gt;Node7</title>
<g id="a_edge8_Node000007_Node000008"><a xlink:title=" ">
<path fill="none" stroke="#63b8ff" d="M470.55,-15C535.57,-15 631.56,-15 692.67,-15"/>
<polygon fill="#63b8ff" stroke="#63b8ff" points="470.7,-11.5 460.7,-15 470.7,-18.5 470.7,-11.5"/>
</a>
</g>
</g>
<!-- Node9&#45;&gt;Node8 -->
<g id="edge9_Node000008_Node000009" class="edge">
<title>Node9&#45;&gt;Node8</title>
<g id="a_edge9_Node000008_Node000009"><a xlink:title=" ">
<path fill="none" stroke="#9a32cd" stroke-dasharray="5,2" d="M219.21,-18.11C255.22,-17.49 303.46,-16.65 340.91,-16.01"/>
<polygon fill="#9a32cd" stroke="#9a32cd" points="219.42,-14.61 209.49,-18.28 219.55,-21.61 219.42,-14.61"/>
</a>
</g>
<text text-anchor="middle" x="283.5" y="-32" font-family="Helvetica,sans-Serif" font-size="10.00" fill="grey"> DaysToMonth365</text>
<text text-anchor="middle" x="283.5" y="-21" font-family="Helvetica,sans-Serif" font-size="10.00" fill="grey">DaysToMonth366</text>
</g>
</g>
</svg>
