<?xml version="1.0" encoding="UTF-8" standalone="no"?>
<!DOCTYPE svg PUBLIC "-//W3C//DTD SVG 1.1//EN"
 "http://www.w3.org/Graphics/SVG/1.1/DTD/svg11.dtd">
<!-- Generated by graphviz version 7.0.1 (20221109.1506)
 -->
<!-- Title: Harlinn::Common::Core::Http::Server::RequestQueueHandler&lt; DerivedT &gt; Pages: 1 -->
<svg width="244pt" height="126pt"
 viewBox="0.00 0.00 243.50 126.00" xmlns="http://www.w3.org/2000/svg" xmlns:xlink="http://www.w3.org/1999/xlink">
<g id="graph0" class="graph" transform="scale(1 1) rotate(0) translate(4 122)">
<title>Harlinn::Common::Core::Http::Server::RequestQueueHandler&lt; DerivedT &gt;</title>
<!-- Node1 -->
<g id="Node000001" class="node">
<title>Node1</title>
<g id="a_Node000001"><a xlink:title=" ">
<polygon fill="#999999" stroke="#666666" points="184.5,-41 40.5,-41 40.5,0 184.5,0 184.5,-41"/>
<text text-anchor="start" x="48.5" y="-29" font-family="Helvetica,sans-Serif" font-size="10.00">Harlinn::Common::Core</text>
<text text-anchor="start" x="48.5" y="-18" font-family="Helvetica,sans-Serif" font-size="10.00">::Http::Server::RequestQueue</text>
<text text-anchor="middle" x="112.5" y="-7" font-family="Helvetica,sans-Serif" font-size="10.00">Handler&lt; DerivedT &gt;</text>
</a>
</g>
</g>
<!-- Node2 -->
<g id="Node000002" class="node">
<title>Node2</title>
<g id="a_Node000002"><a xlink:title=" ">
<polygon fill="white" stroke="#666666" points="99,-112.5 0,-112.5 0,-93.5 99,-93.5 99,-112.5"/>
<text text-anchor="middle" x="49.5" y="-100.5" font-family="Helvetica,sans-Serif" font-size="10.00">IO::ContextHandler</text>
</a>
</g>
</g>
<!-- Node2&#45;&gt;Node1 -->
<g id="edge1_Node000001_Node000002" class="edge">
<title>Node2&#45;&gt;Node1</title>
<g id="a_edge1_Node000001_Node000002"><a xlink:title=" ">
<path fill="none" stroke="#63b8ff" d="M63.32,-84.34C73.3,-71.59 86.78,-54.37 97.1,-41.18"/>
<polygon fill="#63b8ff" stroke="#63b8ff" points="60.82,-81.85 57.42,-91.89 66.34,-86.17 60.82,-81.85"/>
</a>
</g>
</g>
<!-- Node3 -->
<g id="Node000003" class="node">
<title>Node3</title>
<g id="a_Node000003"><a xlink:href="class_harlinn_1_1_common_1_1_core_1_1_http_1_1_request_queue.xhtml" target="_top" xlink:title=" ">
<polygon fill="white" stroke="#666666" points="235.5,-118 117.5,-118 117.5,-88 235.5,-88 235.5,-118"/>
<text text-anchor="start" x="125.5" y="-106" font-family="Helvetica,sans-Serif" font-size="10.00">Harlinn::Common::Core</text>
<text text-anchor="middle" x="176.5" y="-95" font-family="Helvetica,sans-Serif" font-size="10.00">::Http::RequestQueue</text>
</a>
</g>
</g>
<!-- Node3&#45;&gt;Node1 -->
<g id="edge2_Node000001_Node000003" class="edge">
<title>Node3&#45;&gt;Node1</title>
<g id="a_edge2_Node000001_Node000003"><a xlink:title=" ">
<path fill="none" stroke="#9a32cd" stroke-dasharray="5,2" d="M157.98,-78.7C148.53,-66.82 137.17,-52.53 128.17,-41.21"/>
<polygon fill="#9a32cd" stroke="#9a32cd" points="155.15,-80.77 164.12,-86.42 160.63,-76.42 155.15,-80.77"/>
</a>
</g>
<text text-anchor="middle" x="184.5" y="-62" font-family="Helvetica,sans-Serif" font-size="10.00" fill="grey"> requestQueue_</text>
</g>
</g>
</svg>
