<?xml version="1.0" encoding="UTF-8" standalone="no"?>
<!DOCTYPE svg PUBLIC "-//W3C//DTD SVG 1.1//EN"
 "http://www.w3.org/Graphics/SVG/1.1/DTD/svg11.dtd">
<!-- Generated by graphviz version 7.0.1 (20221109.1506)
 -->
<!-- Title: Harlinn::OCI::TimestampBaseBind&lt; handleType, externalType &gt; Pages: 1 -->
<svg width="2309pt" height="675pt"
 viewBox="0.00 0.00 2309.00 674.58" xmlns="http://www.w3.org/2000/svg" xmlns:xlink="http://www.w3.org/1999/xlink">
<g id="graph0" class="graph" transform="scale(1 1) rotate(0) translate(4 670.58)">
<title>Harlinn::OCI::TimestampBaseBind&lt; handleType, externalType &gt;</title>
<!-- Node1 -->
<g id="Node000001" class="node">
<title>Node1</title>
<g id="a_Node000001"><a xlink:title="TimeStampBaseBind.">
<polygon fill="#999999" stroke="#666666" points="2301,-628.08 2136,-628.08 2136,-598.08 2301,-598.08 2301,-628.08"/>
<text text-anchor="start" x="2144" y="-616.08" font-family="Helvetica,sans-Serif" font-size="10.00">Harlinn::OCI::TimestampBase</text>
<text text-anchor="middle" x="2218.5" y="-605.08" font-family="Helvetica,sans-Serif" font-size="10.00">Bind&lt; handleType, externalType &gt;</text>
</a>
</g>
</g>
<!-- Node2 -->
<g id="Node000002" class="node">
<title>Node2</title>
<g id="a_Node000002"><a xlink:href="class_harlinn_1_1_o_c_i_1_1_descriptor_bind.html" target="_top" xlink:title=" ">
<polygon fill="white" stroke="#666666" points="2099,-633.58 1938,-633.58 1938,-592.58 2099,-592.58 2099,-633.58"/>
<text text-anchor="start" x="1946" y="-621.58" font-family="Helvetica,sans-Serif" font-size="10.00">Harlinn::OCI::Descriptor</text>
<text text-anchor="start" x="1946" y="-610.58" font-family="Helvetica,sans-Serif" font-size="10.00">Bind&lt; OCIDateTime, handleType,</text>
<text text-anchor="middle" x="2018.5" y="-599.58" font-family="Helvetica,sans-Serif" font-size="10.00"> externalType &gt;</text>
</a>
</g>
</g>
<!-- Node2&#45;&gt;Node1 -->
<g id="edge1_Node000001_Node000002" class="edge">
<title>Node2&#45;&gt;Node1</title>
<g id="a_edge1_Node000001_Node000002"><a xlink:title=" ">
<path fill="none" stroke="#63b8ff" d="M2110.72,-613.08C2119.03,-613.08 2127.41,-613.08 2135.62,-613.08"/>
<polygon fill="#63b8ff" stroke="#63b8ff" points="2110.98,-609.58 2100.98,-613.08 2110.98,-616.58 2110.98,-609.58"/>
</a>
</g>
</g>
<!-- Node3 -->
<g id="Node000003" class="node">
<title>Node3</title>
<g id="a_Node000003"><a xlink:href="class_harlinn_1_1_o_c_i_1_1_descriptor_base_bind.html" target="_top" xlink:title="DescriptorBaseBind.">
<polygon fill="white" stroke="#666666" points="1506,-621.08 1387,-621.08 1387,-591.08 1506,-591.08 1506,-621.08"/>
<text text-anchor="start" x="1395" y="-609.08" font-family="Helvetica,sans-Serif" font-size="10.00">Harlinn::OCI::Descriptor</text>
<text text-anchor="middle" x="1446.5" y="-598.08" font-family="Helvetica,sans-Serif" font-size="10.00">BaseBind</text>
</a>
</g>
</g>
<!-- Node3&#45;&gt;Node2 -->
<g id="edge2_Node000002_Node000003" class="edge">
<title>Node3&#45;&gt;Node2</title>
<g id="a_edge2_Node000002_Node000003"><a xlink:title=" ">
<path fill="none" stroke="#63b8ff" d="M1517.6,-606.94C1624,-608.25 1825.7,-610.72 1937.62,-612.1"/>
<polygon fill="#63b8ff" stroke="#63b8ff" points="1517.91,-603.44 1507.87,-606.82 1517.82,-610.44 1517.91,-603.44"/>
</a>
</g>
</g>
<!-- Node24 -->
<g id="Node000024" class="node">
<title>Node24</title>
<g id="a_Node000024"><a xlink:href="class_harlinn_1_1_o_c_i_1_1_descriptor_bind.html" target="_top" xlink:title="DescriptorBind.">
<polygon fill="white" stroke="#666666" points="1773,-666.58 1636,-666.58 1636,-625.58 1773,-625.58 1773,-666.58"/>
<text text-anchor="start" x="1644" y="-654.58" font-family="Helvetica,sans-Serif" font-size="10.00">Harlinn::OCI::Descriptor</text>
<text text-anchor="start" x="1644" y="-643.58" font-family="Helvetica,sans-Serif" font-size="10.00">Bind&lt; OracleT, handleType,</text>
<text text-anchor="middle" x="1704.5" y="-632.58" font-family="Helvetica,sans-Serif" font-size="10.00"> externalType &gt;</text>
</a>
</g>
</g>
<!-- Node3&#45;&gt;Node24 -->
<g id="edge45_Node000024_Node000003" class="edge">
<title>Node3&#45;&gt;Node24</title>
<g id="a_edge45_Node000024_Node000003"><a xlink:title=" ">
<path fill="none" stroke="#63b8ff" d="M1517.37,-616.99C1554.14,-622.74 1599.04,-629.76 1635.53,-635.46"/>
<polygon fill="#63b8ff" stroke="#63b8ff" points="1518.15,-613.57 1507.73,-615.49 1517.07,-620.49 1518.15,-613.57"/>
</a>
</g>
</g>
<!-- Node4 -->
<g id="Node000004" class="node">
<title>Node4</title>
<g id="a_Node000004"><a xlink:href="class_harlinn_1_1_o_c_i_1_1_bind.html" target="_top" xlink:title="Bind, base class for binding a single value.">
<polygon fill="white" stroke="#666666" points="1261,-612.58 1166,-612.58 1166,-593.58 1261,-593.58 1261,-612.58"/>
<text text-anchor="middle" x="1213.5" y="-600.58" font-family="Helvetica,sans-Serif" font-size="10.00">Harlinn::OCI::Bind</text>
</a>
</g>
</g>
<!-- Node4&#45;&gt;Node3 -->
<g id="edge3_Node000003_Node000004" class="edge">
<title>Node4&#45;&gt;Node3</title>
<g id="a_edge3_Node000003_Node000004"><a xlink:title=" ">
<path fill="none" stroke="#63b8ff" d="M1272.71,-603.83C1307.63,-604.29 1351.92,-604.86 1386.91,-605.32"/>
<polygon fill="#63b8ff" stroke="#63b8ff" points="1272.8,-600.33 1262.76,-603.7 1272.71,-607.33 1272.8,-600.33"/>
</a>
</g>
</g>
<!-- Node5 -->
<g id="Node000005" class="node">
<title>Node5</title>
<g id="a_Node000005"><a xlink:href="class_harlinn_1_1_o_c_i_1_1_bind_base.html" target="_top" xlink:title="BindBase, base class for binds.">
<polygon fill="white" stroke="#666666" points="1047.5,-568.58 930.5,-568.58 930.5,-549.58 1047.5,-549.58 1047.5,-568.58"/>
<text text-anchor="middle" x="989" y="-556.58" font-family="Helvetica,sans-Serif" font-size="10.00">Harlinn::OCI::BindBase</text>
</a>
</g>
</g>
<!-- Node5&#45;&gt;Node4 -->
<g id="edge4_Node000004_Node000005" class="edge">
<title>Node5&#45;&gt;Node4</title>
<g id="a_edge4_Node000004_Node000005"><a xlink:title=" ">
<path fill="none" stroke="#63b8ff" d="M1043.65,-571.47C1052.44,-573.4 1061.47,-575.34 1070,-577.08 1101.79,-583.55 1137.72,-590.1 1165.56,-595.01"/>
<polygon fill="#63b8ff" stroke="#63b8ff" points="1044.69,-568.11 1034.17,-569.35 1043.17,-574.94 1044.69,-568.11"/>
</a>
</g>
</g>
<!-- Node18 -->
<g id="Node000018" class="node">
<title>Node18</title>
<g id="a_Node000018"><a xlink:title=" ">
<polygon fill="white" stroke="#666666" points="1273.5,-519.08 1153.5,-519.08 1153.5,-489.08 1273.5,-489.08 1273.5,-519.08"/>
<text text-anchor="start" x="1161.5" y="-507.08" font-family="Helvetica,sans-Serif" font-size="10.00">std::unique_ptr&lt; Harlinn</text>
<text text-anchor="middle" x="1213.5" y="-496.08" font-family="Helvetica,sans-Serif" font-size="10.00">::OCI::BindBase &gt;</text>
</a>
</g>
</g>
<!-- Node5&#45;&gt;Node18 -->
<g id="edge34_Node000018_Node000005" class="edge">
<title>Node5&#45;&gt;Node18</title>
<g id="a_edge34_Node000018_Node000005"><a xlink:title=" ">
<path fill="none" stroke="#9a32cd" stroke-dasharray="5,2" d="M1038.11,-546.26C1048.61,-543.52 1059.67,-540.67 1070,-538.08 1097.26,-531.25 1127.54,-523.98 1153.15,-517.92"/>
<polygon fill="#9a32cd" stroke="#9a32cd" points="1037.24,-542.87 1028.46,-548.8 1039.02,-549.64 1037.24,-542.87"/>
</a>
</g>
<text text-anchor="middle" x="1100.5" y="-541.08" font-family="Helvetica,sans-Serif" font-size="10.00" fill="grey"> ptr</text>
</g>
<!-- Node6 -->
<g id="Node000006" class="node">
<title>Node6</title>
<g id="a_Node000006"><a xlink:href="class_harlinn_1_1_o_c_i_1_1_handle_base.html" target="_top" xlink:title="Base class for OCI handle wrappers.">
<polygon fill="white" stroke="#666666" points="489,-161.58 361,-161.58 361,-142.58 489,-142.58 489,-161.58"/>
<text text-anchor="middle" x="425" y="-149.58" font-family="Helvetica,sans-Serif" font-size="10.00">Harlinn::OCI::HandleBase</text>
</a>
</g>
</g>
<!-- Node6&#45;&gt;Node5 -->
<g id="edge5_Node000005_Node000006" class="edge">
<title>Node6&#45;&gt;Node5</title>
<g id="a_edge5_Node000005_Node000006"><a xlink:title=" ">
<path fill="none" stroke="#63b8ff" d="M438.35,-171.26C452.87,-194.75 476.56,-236.24 489,-275.08 497.36,-301.18 487.17,-378.16 507,-397.08 636.59,-520.71 754.83,-344.24 908,-437.08 952.19,-463.86 976.75,-525.43 984.91,-549.34"/>
<polygon fill="#63b8ff" stroke="#63b8ff" points="441.49,-169.68 433.2,-163.08 435.57,-173.41 441.49,-169.68"/>
</a>
</g>
</g>
<!-- Node7 -->
<g id="Node000007" class="node">
<title>Node7</title>
<g id="a_Node000007"><a xlink:href="class_harlinn_1_1_o_c_i_1_1_statement.html" target="_top" xlink:title="Statement, the context that identifies a SQL or PL/SQL statement and its associated attributes.">
<polygon fill="white" stroke="#666666" points="1764.5,-361.58 1644.5,-361.58 1644.5,-342.58 1764.5,-342.58 1764.5,-361.58"/>
<text text-anchor="middle" x="1704.5" y="-349.58" font-family="Helvetica,sans-Serif" font-size="10.00">Harlinn::OCI::Statement</text>
</a>
</g>
</g>
<!-- Node6&#45;&gt;Node7 -->
<g id="edge7_Node000007_Node000006" class="edge">
<title>Node6&#45;&gt;Node7</title>
<g id="a_edge7_Node000007_Node000006"><a xlink:title=" ">
<path fill="none" stroke="#63b8ff" d="M434.11,-131.95C445.93,-105.39 470.53,-59.27 507,-36.08 581.6,11.37 614.59,-2.08 703,-2.08 703,-2.08 703,-2.08 1447.5,-2.08 1621.03,-2.08 1689.61,-285.82 1701.55,-342.35"/>
<polygon fill="#63b8ff" stroke="#63b8ff" points="430.98,-130.36 430.29,-140.93 437.43,-133.1 430.98,-130.36"/>
</a>
</g>
</g>
<!-- Node8 -->
<g id="Node000008" class="node">
<title>Node8</title>
<g id="a_Node000008"><a xlink:href="class_harlinn_1_1_o_c_i_1_1_service_context.html" target="_top" xlink:title="ServiceContext &#45; A service context handle defines attributes that determine the operational context f...">
<polygon fill="white" stroke="#666666" points="1516.5,-214.58 1376.5,-214.58 1376.5,-195.58 1516.5,-195.58 1516.5,-214.58"/>
<text text-anchor="middle" x="1446.5" y="-202.58" font-family="Helvetica,sans-Serif" font-size="10.00">Harlinn::OCI::ServiceContext</text>
</a>
</g>
</g>
<!-- Node6&#45;&gt;Node8 -->
<g id="edge9_Node000008_Node000006" class="edge">
<title>Node6&#45;&gt;Node8</title>
<g id="a_edge9_Node000008_Node000006"><a xlink:title=" ">
<path fill="none" stroke="#63b8ff" d="M439.45,-133.18C453.89,-114.45 478.63,-86.51 507,-72.08 585.67,-32.06 614.74,-40.08 703,-40.08 703,-40.08 703,-40.08 1214.5,-40.08 1321.94,-40.08 1413.91,-159.73 1438.84,-195.25"/>
<polygon fill="#63b8ff" stroke="#63b8ff" points="436.76,-130.93 433.6,-141.05 442.38,-135.11 436.76,-130.93"/>
</a>
</g>
</g>
<!-- Node9 -->
<g id="Node000009" class="node">
<title>Node9</title>
<g id="a_Node000009"><a xlink:href="class_harlinn_1_1_o_c_i_1_1_environment.html" target="_top" xlink:title="The environment handle defines a context in which all OCI functions are invoked.">
<polygon fill="white" stroke="#666666" points="768,-272.58 640,-272.58 640,-253.58 768,-253.58 768,-272.58"/>
<text text-anchor="middle" x="704" y="-260.58" font-family="Helvetica,sans-Serif" font-size="10.00">Harlinn::OCI::Environment</text>
</a>
</g>
</g>
<!-- Node6&#45;&gt;Node9 -->
<g id="edge11_Node000009_Node000006" class="edge">
<title>Node6&#45;&gt;Node9</title>
<g id="a_edge11_Node000009_Node000006"><a xlink:title=" ">
<path fill="none" stroke="#63b8ff" d="M449.51,-168.35C465.26,-178.73 486.74,-191.9 507,-201.08 558.53,-224.41 621.39,-242.62 661.79,-253.1"/>
<polygon fill="#63b8ff" stroke="#63b8ff" points="451.57,-165.52 441.32,-162.85 447.67,-171.33 451.57,-165.52"/>
</a>
</g>
</g>
<!-- Node13 -->
<g id="Node000013" class="node">
<title>Node13</title>
<g id="a_Node000013"><a xlink:href="class_harlinn_1_1_o_c_i_1_1_error_handle.html" target="_top" xlink:title="The error handle is passed as a parameter to most OCI calls.">
<polygon fill="white" stroke="#666666" points="1052,-305.58 926,-305.58 926,-286.58 1052,-286.58 1052,-305.58"/>
<text text-anchor="middle" x="989" y="-293.58" font-family="Helvetica,sans-Serif" font-size="10.00">Harlinn::OCI::ErrorHandle</text>
</a>
</g>
</g>
<!-- Node6&#45;&gt;Node13 -->
<g id="edge16_Node000013_Node000006" class="edge">
<title>Node6&#45;&gt;Node13</title>
<g id="a_edge16_Node000013_Node000006"><a xlink:title=" ">
<path fill="none" stroke="#63b8ff" d="M490.64,-164.25C583.87,-182.47 760.99,-219.61 908,-265.08 927.5,-271.11 949.04,-279.56 964.85,-286.12"/>
<polygon fill="#63b8ff" stroke="#63b8ff" points="491.4,-160.83 480.91,-162.36 490.06,-167.7 491.4,-160.83"/>
</a>
</g>
</g>
<!-- Node14 -->
<g id="Node000014" class="node">
<title>Node14</title>
<g id="a_Node000014"><a xlink:href="class_harlinn_1_1_o_c_i_1_1_server.html" target="_top" xlink:title="A server handle represents a connection between the client application and the Oracle database server...">
<polygon fill="white" stroke="#666666" points="1264.5,-250.58 1162.5,-250.58 1162.5,-231.58 1264.5,-231.58 1264.5,-250.58"/>
<text text-anchor="middle" x="1213.5" y="-238.58" font-family="Helvetica,sans-Serif" font-size="10.00">Harlinn::OCI::Server</text>
</a>
</g>
</g>
<!-- Node6&#45;&gt;Node14 -->
<g id="edge19_Node000014_Node000006" class="edge">
<title>Node6&#45;&gt;Node14</title>
<g id="a_edge19_Node000014_Node000006"><a xlink:title=" ">
<path fill="none" stroke="#63b8ff" d="M482.73,-139.86C594.16,-118.17 848.49,-80.14 1052,-135.08 1117.12,-152.66 1179.4,-208.49 1202.78,-231.26"/>
<polygon fill="#63b8ff" stroke="#63b8ff" points="482.06,-136.42 472.93,-141.8 483.42,-143.29 482.06,-136.42"/>
</a>
</g>
</g>
<!-- Node15 -->
<g id="Node000015" class="node">
<title>Node15</title>
<g id="a_Node000015"><a xlink:href="class_harlinn_1_1_o_c_i_1_1_session.html" target="_top" xlink:title="Session.">
<polygon fill="white" stroke="#666666" points="1268.5,-143.58 1158.5,-143.58 1158.5,-124.58 1268.5,-124.58 1268.5,-143.58"/>
<text text-anchor="middle" x="1213.5" y="-131.58" font-family="Helvetica,sans-Serif" font-size="10.00">Harlinn::OCI::Session</text>
</a>
</g>
</g>
<!-- Node6&#45;&gt;Node15 -->
<g id="edge23_Node000015_Node000006" class="edge">
<title>Node6&#45;&gt;Node15</title>
<g id="a_edge23_Node000015_Node000006"><a xlink:title=" ">
<path fill="none" stroke="#63b8ff" d="M446.04,-135.29C461.57,-123.43 484.22,-108.54 507,-102.08 740.02,-35.95 810.95,-78.28 1052,-102.08 1093.99,-106.22 1141.27,-116.33 1173.58,-124.08"/>
<polygon fill="#63b8ff" stroke="#63b8ff" points="444.2,-132.28 438.54,-141.24 448.55,-137.77 444.2,-132.28"/>
</a>
</g>
</g>
<!-- Node16 -->
<g id="Node000016" class="node">
<title>Node16</title>
<g id="a_Node000016"><a xlink:href="class_harlinn_1_1_o_c_i_1_1_subscription.html" target="_top" xlink:title="Subscription.">
<polygon fill="white" stroke="#666666" points="1278,-391.58 1149,-391.58 1149,-372.58 1278,-372.58 1278,-391.58"/>
<text text-anchor="middle" x="1213.5" y="-379.58" font-family="Helvetica,sans-Serif" font-size="10.00">Harlinn::OCI::Subscription</text>
</a>
</g>
</g>
<!-- Node6&#45;&gt;Node16 -->
<g id="edge29_Node000016_Node000006" class="edge">
<title>Node6&#45;&gt;Node16</title>
<g id="a_edge29_Node000016_Node000006"><a xlink:title=" ">
<path fill="none" stroke="#63b8ff" d="M435.98,-171.87C456.31,-212.02 501.1,-299.67 507,-304.08 709.92,-455.73 816.68,-390.44 1070,-393.08 1097.11,-393.36 1103.95,-394.89 1131,-393.08 1136.7,-392.69 1142.61,-392.16 1148.52,-391.54"/>
<polygon fill="#63b8ff" stroke="#63b8ff" points="439.16,-170.39 431.52,-163.05 432.91,-173.55 439.16,-170.39"/>
</a>
</g>
</g>
<!-- Node7&#45;&gt;Node5 -->
<g id="edge6_Node000005_Node000007" class="edge">
<title>Node7&#45;&gt;Node5</title>
<g id="a_edge6_Node000005_Node000007"><a xlink:title=" ">
<path fill="none" stroke="#9a32cd" stroke-dasharray="5,2" d="M1687.18,-370.39C1670.81,-388.07 1644.34,-414.91 1618,-434.08 1580.86,-461.11 1570.36,-467.92 1527,-483.08 1359.68,-541.58 1148.06,-555.14 1047.77,-558.22"/>
<polygon fill="#9a32cd" stroke="#9a32cd" points="1689.59,-372.94 1693.74,-363.19 1684.41,-368.22 1689.59,-372.94"/>
</a>
</g>
<text text-anchor="middle" x="1322" y="-539.08" font-family="Helvetica,sans-Serif" font-size="10.00" fill="grey"> statement_</text>
</g>
<!-- Node8&#45;&gt;Node7 -->
<g id="edge8_Node000007_Node000008" class="edge">
<title>Node8&#45;&gt;Node7</title>
<g id="a_edge8_Node000007_Node000008"><a xlink:title=" ">
<path fill="none" stroke="#9a32cd" stroke-dasharray="5,2" d="M1474.56,-220.34C1508.23,-239.36 1567.47,-272.93 1618,-302.08 1641.98,-315.91 1669.62,-332.12 1686.82,-342.25"/>
<polygon fill="#9a32cd" stroke="#9a32cd" points="1476.71,-217.54 1466.28,-215.67 1473.27,-223.63 1476.71,-217.54"/>
</a>
</g>
<text text-anchor="middle" x="1581.5" y="-305.08" font-family="Helvetica,sans-Serif" font-size="10.00" fill="grey"> serviceContext_</text>
</g>
<!-- Node9&#45;&gt;Node8 -->
<g id="edge10_Node000008_Node000009" class="edge">
<title>Node9&#45;&gt;Node8</title>
<g id="a_edge10_Node000008_Node000009"><a xlink:title=" ">
<path fill="none" stroke="#9a32cd" stroke-dasharray="5,2" d="M750.96,-250.16C819.68,-231.58 953.61,-198.22 1070,-186.08 1096.96,-183.26 1103.9,-185.26 1131,-186.08 1215.47,-188.63 1312.54,-195.02 1376.22,-199.69"/>
<polygon fill="#9a32cd" stroke="#9a32cd" points="750.29,-246.71 741.56,-252.72 752.13,-253.47 750.29,-246.71"/>
</a>
</g>
<text text-anchor="middle" x="1100.5" y="-189.08" font-family="Helvetica,sans-Serif" font-size="10.00" fill="grey"> environment_</text>
</g>
<!-- Node9&#45;&gt;Node13 -->
<g id="edge17_Node000013_Node000009" class="edge">
<title>Node9&#45;&gt;Node13</title>
<g id="a_edge17_Node000013_Node000009"><a xlink:title=" ">
<path fill="none" stroke="#9a32cd" stroke-dasharray="5,2" d="M737.3,-277.36C751.87,-283.09 769.49,-289.04 786,-292.08 832.23,-300.58 885.41,-301.27 925.59,-300.01"/>
<polygon fill="#9a32cd" stroke="#9a32cd" points="738.79,-274.19 728.21,-273.64 736.15,-280.67 738.79,-274.19"/>
</a>
</g>
<text text-anchor="middle" x="847" y="-304.08" font-family="Helvetica,sans-Serif" font-size="10.00" fill="grey"> environment_</text>
</g>
<!-- Node9&#45;&gt;Node14 -->
<g id="edge20_Node000014_Node000009" class="edge">
<title>Node9&#45;&gt;Node14</title>
<g id="a_edge20_Node000014_Node000009"><a xlink:title=" ">
<path fill="none" stroke="#9a32cd" stroke-dasharray="5,2" d="M779.68,-259.84C884.52,-255.3 1072.52,-247.15 1162.22,-243.26"/>
<polygon fill="#9a32cd" stroke="#9a32cd" points="779.6,-256.34 769.76,-260.27 779.9,-263.33 779.6,-256.34"/>
</a>
</g>
<text text-anchor="middle" x="989" y="-257.08" font-family="Helvetica,sans-Serif" font-size="10.00" fill="grey"> environment_</text>
</g>
<!-- Node9&#45;&gt;Node15 -->
<g id="edge24_Node000015_Node000009" class="edge">
<title>Node9&#45;&gt;Node15</title>
<g id="a_edge24_Node000015_Node000009"><a xlink:title=" ">
<path fill="none" stroke="#9a32cd" stroke-dasharray="5,2" d="M721.79,-245.14C737.03,-230.03 760.91,-209.16 786,-198.08 910.99,-142.85 1074.52,-133.84 1158.13,-133.22"/>
<polygon fill="#9a32cd" stroke="#9a32cd" points="719.41,-242.57 714.92,-252.17 724.42,-247.46 719.41,-242.57"/>
</a>
</g>
<text text-anchor="middle" x="989" y="-158.08" font-family="Helvetica,sans-Serif" font-size="10.00" fill="grey"> environment_</text>
</g>
<!-- Node9&#45;&gt;Node16 -->
<g id="edge30_Node000016_Node000009" class="edge">
<title>Node9&#45;&gt;Node16</title>
<g id="a_edge30_Node000016_Node000009"><a xlink:title=" ">
<path fill="none" stroke="#9a32cd" stroke-dasharray="5,2" d="M725.58,-279.8C741.24,-291.69 763.82,-307.08 786,-316.08 907.85,-365.5 1063.08,-378.18 1148.65,-381.27"/>
<polygon fill="#9a32cd" stroke="#9a32cd" points="728.02,-277.26 717.98,-273.87 723.71,-282.78 728.02,-277.26"/>
</a>
</g>
<text text-anchor="middle" x="989" y="-378.08" font-family="Helvetica,sans-Serif" font-size="10.00" fill="grey"> environment_</text>
</g>
<!-- Node10 -->
<g id="Node000010" class="node">
<title>Node10</title>
<g id="a_Node000010"><a xlink:title=" ">
<polygon fill="white" stroke="#666666" points="489,-314.08 361,-314.08 361,-284.08 489,-284.08 489,-314.08"/>
<text text-anchor="start" x="369" y="-302.08" font-family="Helvetica,sans-Serif" font-size="10.00">std::atomic&lt; Environment</text>
<text text-anchor="middle" x="425" y="-291.08" font-family="Helvetica,sans-Serif" font-size="10.00">Mode &gt;</text>
</a>
</g>
</g>
<!-- Node10&#45;&gt;Node9 -->
<g id="edge12_Node000009_Node000010" class="edge">
<title>Node10&#45;&gt;Node9</title>
<g id="a_edge12_Node000009_Node000010"><a xlink:title=" ">
<path fill="none" stroke="#9a32cd" stroke-dasharray="5,2" d="M500.57,-289.39C544.02,-283.74 598.21,-276.7 639.59,-271.32"/>
<polygon fill="#9a32cd" stroke="#9a32cd" points="500.17,-285.91 490.7,-290.67 501.07,-292.85 500.17,-285.91"/>
</a>
</g>
<text text-anchor="middle" x="564.5" y="-292.08" font-family="Helvetica,sans-Serif" font-size="10.00" fill="grey"> defaultEnvironmentMode_</text>
</g>
<!-- Node11 -->
<g id="Node000011" class="node">
<title>Node11</title>
<g id="a_Node000011"><a xlink:title=" ">
<polygon fill="white" stroke="#666666" points="211.5,-395.58 122.5,-395.58 122.5,-376.58 211.5,-376.58 211.5,-395.58"/>
<text text-anchor="middle" x="167" y="-383.58" font-family="Helvetica,sans-Serif" font-size="10.00">std::atomic&lt; T &gt;</text>
</a>
</g>
</g>
<!-- Node11&#45;&gt;Node10 -->
<g id="edge13_Node000010_Node000011" class="edge">
<title>Node11&#45;&gt;Node10</title>
<g id="a_edge13_Node000010_Node000011"><a xlink:title=" ">
<path fill="none" stroke="orange" stroke-dasharray="5,2" d="M208.18,-372.42C254.45,-356.7 330.29,-330.92 378.65,-314.49"/>
<polygon fill="orange" stroke="orange" points="207.14,-369.08 198.8,-375.61 209.39,-375.71 207.14,-369.08"/>
</a>
</g>
<text text-anchor="middle" x="293.5" y="-361.08" font-family="Helvetica,sans-Serif" font-size="10.00" fill="grey"> &lt; EnvironmentMode &gt;</text>
</g>
<!-- Node12 -->
<g id="Node000012" class="node">
<title>Node12</title>
<g id="a_Node000012"><a xlink:title=" ">
<polygon fill="white" stroke="#666666" points="29,-490.58 0,-490.58 0,-471.58 29,-471.58 29,-490.58"/>
<text text-anchor="middle" x="14.5" y="-478.58" font-family="Helvetica,sans-Serif" font-size="10.00">T</text>
</a>
</g>
</g>
<!-- Node12&#45;&gt;Node11 -->
<g id="edge14_Node000011_Node000012" class="edge">
<title>Node12&#45;&gt;Node11</title>
<g id="a_edge14_Node000011_Node000012"><a xlink:title=" ">
<path fill="none" stroke="#9a32cd" stroke-dasharray="5,2" d="M22.52,-460.93C27.62,-448.99 35.63,-434.41 47,-425.08 68.34,-407.55 97.79,-397.82 122.06,-392.46"/>
<polygon fill="#9a32cd" stroke="#9a32cd" points="19.39,-459.31 19.05,-469.9 25.92,-461.83 19.39,-459.31"/>
</a>
</g>
<text text-anchor="middle" x="68.5" y="-428.08" font-family="Helvetica,sans-Serif" font-size="10.00" fill="grey"> ptr</text>
</g>
<!-- Node19 -->
<g id="Node000019" class="node">
<title>Node19</title>
<g id="a_Node000019"><a xlink:title=" ">
<polygon fill="white" stroke="#666666" points="616.5,-513.58 512.5,-513.58 512.5,-494.58 616.5,-494.58 616.5,-513.58"/>
<text text-anchor="middle" x="564.5" y="-501.58" font-family="Helvetica,sans-Serif" font-size="10.00">std::unique_ptr&lt; T &gt;</text>
</a>
</g>
</g>
<!-- Node12&#45;&gt;Node19 -->
<g id="edge36_Node000019_Node000012" class="edge">
<title>Node12&#45;&gt;Node19</title>
<g id="a_edge36_Node000019_Node000012"><a xlink:title=" ">
<path fill="none" stroke="#9a32cd" stroke-dasharray="5,2" d="M40.3,-488.79C42.55,-489.3 44.81,-489.74 47,-490.08 215.67,-516.04 418.9,-511.14 512.17,-506.92"/>
<polygon fill="#9a32cd" stroke="#9a32cd" points="41.47,-485.48 30.91,-486.27 39.66,-492.24 41.47,-485.48"/>
</a>
</g>
<text text-anchor="middle" x="167" y="-509.08" font-family="Helvetica,sans-Serif" font-size="10.00" fill="grey"> ptr</text>
</g>
<!-- Node20 -->
<g id="Node000020" class="node">
<title>Node20</title>
<g id="a_Node000020"><a xlink:title=" ">
<polygon fill="white" stroke="#666666" points="336,-467.58 251,-467.58 251,-448.58 336,-448.58 336,-467.58"/>
<text text-anchor="middle" x="293.5" y="-455.58" font-family="Helvetica,sans-Serif" font-size="10.00">std::vector&lt; T &gt;</text>
</a>
</g>
</g>
<!-- Node12&#45;&gt;Node20 -->
<g id="edge38_Node000020_Node000012" class="edge">
<title>Node12&#45;&gt;Node20</title>
<g id="a_edge38_Node000020_Node000012"><a xlink:title=" ">
<path fill="none" stroke="#9a32cd" stroke-dasharray="5,2" d="M40.59,-478.99C88.28,-475.03 192.41,-466.39 250.76,-461.54"/>
<polygon fill="#9a32cd" stroke="#9a32cd" points="40.42,-475.5 30.74,-479.81 41,-482.47 40.42,-475.5"/>
</a>
</g>
<text text-anchor="middle" x="68.5" y="-481.08" font-family="Helvetica,sans-Serif" font-size="10.00" fill="grey"> elements</text>
</g>
<!-- Node22 -->
<g id="Node000022" class="node">
<title>Node22</title>
<g id="a_Node000022"><a xlink:href="struct_harlinn_1_1_common_1_1_core_1_1_internal_1_1_data.html" target="_top" xlink:title=" ">
<polygon fill="white" stroke="#666666" points="226,-563.08 108,-563.08 108,-533.08 226,-533.08 226,-563.08"/>
<text text-anchor="start" x="116" y="-551.08" font-family="Helvetica,sans-Serif" font-size="10.00">Harlinn::Common::Core</text>
<text text-anchor="middle" x="167" y="-540.08" font-family="Helvetica,sans-Serif" font-size="10.00">::Internal::Data&lt; T &gt;</text>
</a>
</g>
</g>
<!-- Node12&#45;&gt;Node22 -->
<g id="edge41_Node000022_Node000012" class="edge">
<title>Node12&#45;&gt;Node22</title>
<g id="a_edge41_Node000022_Node000012"><a xlink:title=" ">
<path fill="none" stroke="#9a32cd" stroke-dasharray="5,2" d="M27.83,-499.92C33.02,-506.54 39.59,-513.47 47,-518.08 65.18,-529.38 87.43,-536.44 107.75,-540.83"/>
<polygon fill="#9a32cd" stroke="#9a32cd" points="30.81,-498.08 22.14,-491.98 25.12,-502.15 30.81,-498.08"/>
</a>
</g>
<text text-anchor="middle" x="68.5" y="-539.08" font-family="Helvetica,sans-Serif" font-size="10.00" fill="grey"> buffer_</text>
</g>
<!-- Node13&#45;&gt;Node7 -->
<g id="edge27_Node000007_Node000013" class="edge">
<title>Node13&#45;&gt;Node7</title>
<g id="a_edge27_Node000007_Node000013"><a xlink:title=" ">
<path fill="none" stroke="#9a32cd" stroke-dasharray="5,2" d="M1063.78,-303.52C1065.87,-303.71 1067.95,-303.9 1070,-304.08 1280.96,-322.62 1531.82,-340.35 1644.07,-348.05"/>
<polygon fill="#9a32cd" stroke="#9a32cd" points="1064.23,-300.05 1053.95,-302.61 1063.58,-307.02 1064.23,-300.05"/>
</a>
</g>
<text text-anchor="middle" x="1322" y="-330.08" font-family="Helvetica,sans-Serif" font-size="10.00" fill="grey"> error_</text>
</g>
<!-- Node13&#45;&gt;Node8 -->
<g id="edge26_Node000008_Node000013" class="edge">
<title>Node13&#45;&gt;Node8</title>
<g id="a_edge26_Node000008_Node000013"><a xlink:title=" ">
<path fill="none" stroke="#9a32cd" stroke-dasharray="5,2" d="M1063.76,-293.11C1085.47,-291.76 1109.24,-289.83 1131,-287.08 1228.63,-274.71 1253.94,-271.99 1348,-243.08 1374.22,-235.02 1403.43,-223.25 1422.98,-214.94"/>
<polygon fill="#9a32cd" stroke="#9a32cd" points="1063.57,-289.61 1053.79,-293.69 1063.98,-296.6 1063.57,-289.61"/>
</a>
</g>
<text text-anchor="middle" x="1213.5" y="-288.08" font-family="Helvetica,sans-Serif" font-size="10.00" fill="grey"> error_</text>
</g>
<!-- Node13&#45;&gt;Node9 -->
<g id="edge15_Node000009_Node000013" class="edge">
<title>Node13&#45;&gt;Node9</title>
<g id="a_edge15_Node000009_Node000013"><a xlink:title=" ">
<path fill="none" stroke="#9a32cd" stroke-dasharray="5,2" d="M927.87,-284.16C921.18,-283.02 914.46,-281.97 908,-281.08 861.38,-274.66 808.41,-270.05 768.27,-267.1"/>
<polygon fill="#9a32cd" stroke="#9a32cd" points="927.1,-287.57 937.55,-285.86 928.31,-280.68 927.1,-287.57"/>
</a>
</g>
<text text-anchor="middle" x="847" y="-284.08" font-family="Helvetica,sans-Serif" font-size="10.00" fill="grey"> error_</text>
</g>
<!-- Node13&#45;&gt;Node14 -->
<g id="edge21_Node000014_Node000013" class="edge">
<title>Node13&#45;&gt;Node14</title>
<g id="a_edge21_Node000014_Node000013"><a xlink:title=" ">
<path fill="none" stroke="#9a32cd" stroke-dasharray="5,2" d="M1040.34,-283.46C1050.17,-281 1060.41,-278.45 1070,-276.08 1104.25,-267.59 1143.15,-258.04 1171.64,-251.07"/>
<polygon fill="#9a32cd" stroke="#9a32cd" points="1039.78,-279.99 1030.93,-285.81 1041.48,-286.78 1039.78,-279.99"/>
</a>
</g>
<text text-anchor="middle" x="1100.5" y="-279.08" font-family="Helvetica,sans-Serif" font-size="10.00" fill="grey"> error_</text>
</g>
<!-- Node13&#45;&gt;Node15 -->
<g id="edge25_Node000015_Node000013" class="edge">
<title>Node13&#45;&gt;Node15</title>
<g id="a_edge25_Node000015_Node000013"><a xlink:title=" ">
<path fill="none" stroke="#9a32cd" stroke-dasharray="5,2" d="M1020.58,-280.82C1030.82,-275.32 1042.14,-268.8 1052,-262.08 1060.61,-256.21 1061.92,-253.65 1070,-247.08 1117.53,-208.44 1174.86,-163.47 1199.84,-143.95"/>
<polygon fill="#9a32cd" stroke="#9a32cd" points="1018.98,-277.71 1011.75,-285.45 1022.23,-283.91 1018.98,-277.71"/>
</a>
</g>
<text text-anchor="middle" x="1100.5" y="-250.08" font-family="Helvetica,sans-Serif" font-size="10.00" fill="grey"> error_</text>
</g>
<!-- Node13&#45;&gt;Node16 -->
<g id="edge31_Node000016_Node000013" class="edge">
<title>Node13&#45;&gt;Node16</title>
<g id="a_edge31_Node000016_Node000013"><a xlink:title=" ">
<path fill="none" stroke="#9a32cd" stroke-dasharray="5,2" d="M1017.18,-311.45C1032.42,-319.7 1051.94,-329.66 1070,-337.08 1104.8,-351.37 1145.89,-363.91 1174.99,-372.1"/>
<polygon fill="#9a32cd" stroke="#9a32cd" points="1019.17,-308.55 1008.72,-306.8 1015.8,-314.68 1019.17,-308.55"/>
</a>
</g>
<text text-anchor="middle" x="1100.5" y="-361.08" font-family="Helvetica,sans-Serif" font-size="10.00" fill="grey"> error_</text>
</g>
<!-- Node14&#45;&gt;Node8 -->
<g id="edge18_Node000008_Node000014" class="edge">
<title>Node14&#45;&gt;Node8</title>
<g id="a_edge18_Node000008_Node000014"><a xlink:title=" ">
<path fill="none" stroke="#9a32cd" stroke-dasharray="5,2" d="M1276.1,-231.48C1308.68,-226.4 1348.63,-220.17 1381.55,-215.04"/>
<polygon fill="#9a32cd" stroke="#9a32cd" points="1275.75,-227.99 1266.4,-232.99 1276.82,-234.91 1275.75,-227.99"/>
</a>
</g>
<text text-anchor="middle" x="1322" y="-231.08" font-family="Helvetica,sans-Serif" font-size="10.00" fill="grey"> server_</text>
</g>
<!-- Node15&#45;&gt;Node8 -->
<g id="edge22_Node000008_Node000015" class="edge">
<title>Node15&#45;&gt;Node8</title>
<g id="a_edge22_Node000008_Node000015"><a xlink:title=" ">
<path fill="none" stroke="#9a32cd" stroke-dasharray="5,2" d="M1280.15,-141.56C1302.06,-145.06 1326.38,-150.06 1348,-157.08 1377.97,-166.81 1410.33,-184.27 1429.21,-195.24"/>
<polygon fill="#9a32cd" stroke="#9a32cd" points="1280.85,-138.12 1270.44,-140.09 1279.8,-145.04 1280.85,-138.12"/>
</a>
</g>
<text text-anchor="middle" x="1322" y="-160.08" font-family="Helvetica,sans-Serif" font-size="10.00" fill="grey"> session_</text>
</g>
<!-- Node16&#45;&gt;Node7 -->
<g id="edge28_Node000007_Node000016" class="edge">
<title>Node16&#45;&gt;Node7</title>
<g id="a_edge28_Node000007_Node000016"><a xlink:title=" ">
<path fill="none" stroke="#9a32cd" stroke-dasharray="5,2" d="M1289.66,-377.47C1387.13,-371.49 1555.13,-361.18 1644.15,-355.72"/>
<polygon fill="#9a32cd" stroke="#9a32cd" points="1289.71,-373.96 1279.94,-378.06 1290.13,-380.94 1289.71,-373.96"/>
</a>
</g>
<text text-anchor="middle" x="1446.5" y="-376.08" font-family="Helvetica,sans-Serif" font-size="10.00" fill="grey"> changeNotification_</text>
</g>
<!-- Node17 -->
<g id="Node000017" class="node">
<title>Node17</title>
<g id="a_Node000017"><a xlink:title=" ">
<polygon fill="white" stroke="#666666" points="1527,-474.08 1366,-474.08 1366,-444.08 1527,-444.08 1527,-474.08"/>
<text text-anchor="start" x="1374" y="-462.08" font-family="Helvetica,sans-Serif" font-size="10.00">std::vector&lt; std::unique</text>
<text text-anchor="middle" x="1446.5" y="-451.08" font-family="Helvetica,sans-Serif" font-size="10.00">_ptr&lt; Harlinn::OCI::BindBase &gt; &gt;</text>
</a>
</g>
</g>
<!-- Node17&#45;&gt;Node7 -->
<g id="edge32_Node000007_Node000017" class="edge">
<title>Node17&#45;&gt;Node7</title>
<g id="a_edge32_Node000007_Node000017"><a xlink:title=" ">
<path fill="none" stroke="#9a32cd" stroke-dasharray="5,2" d="M1497.22,-439.47C1531.32,-425.89 1577.55,-407.25 1618,-390.08 1639.83,-380.81 1664.57,-369.76 1681.8,-361.96"/>
<polygon fill="#9a32cd" stroke="#9a32cd" points="1496,-436.19 1488,-443.13 1498.58,-442.69 1496,-436.19"/>
</a>
</g>
<text text-anchor="middle" x="1581.5" y="-422.08" font-family="Helvetica,sans-Serif" font-size="10.00" fill="grey"> binds_</text>
</g>
<!-- Node18&#45;&gt;Node17 -->
<g id="edge33_Node000017_Node000018" class="edge">
<title>Node18&#45;&gt;Node17</title>
<g id="a_edge33_Node000017_Node000018"><a xlink:title=" ">
<path fill="none" stroke="#9a32cd" stroke-dasharray="5,2" d="M1285.11,-490.32C1310.74,-485.33 1339.85,-479.66 1366.18,-474.53"/>
<polygon fill="#9a32cd" stroke="#9a32cd" points="1284.62,-486.85 1275.47,-492.2 1285.96,-493.72 1284.62,-486.85"/>
</a>
</g>
<text text-anchor="middle" x="1322" y="-489.08" font-family="Helvetica,sans-Serif" font-size="10.00" fill="grey"> elements</text>
</g>
<!-- Node19&#45;&gt;Node18 -->
<g id="edge35_Node000018_Node000019" class="edge">
<title>Node19&#45;&gt;Node18</title>
<g id="a_edge35_Node000018_Node000019"><a xlink:title=" ">
<path fill="none" stroke="orange" stroke-dasharray="5,2" d="M628.04,-504.08C752.86,-504.08 1031.33,-504.08 1153.33,-504.08"/>
<polygon fill="orange" stroke="orange" points="628.32,-500.58 618.32,-504.08 628.32,-507.58 628.32,-500.58"/>
</a>
</g>
<text text-anchor="middle" x="847" y="-507.08" font-family="Helvetica,sans-Serif" font-size="10.00" fill="grey"> &lt; Harlinn::OCI::BindBase &gt;</text>
</g>
<!-- Node20&#45;&gt;Node17 -->
<g id="edge37_Node000017_Node000020" class="edge">
<title>Node20&#45;&gt;Node17</title>
<g id="a_edge37_Node000017_Node000020"><a xlink:title=" ">
<path fill="none" stroke="orange" stroke-dasharray="5,2" d="M347.84,-458.39C402.12,-458.69 488.66,-459.08 563.5,-459.08 563.5,-459.08 563.5,-459.08 1214.5,-459.08 1264.73,-459.08 1321.1,-459.08 1365.59,-459.08"/>
<polygon fill="orange" stroke="orange" points="347.97,-454.89 337.95,-458.34 347.93,-461.89 347.97,-454.89"/>
</a>
</g>
<text text-anchor="start" x="786" y="-473.08" font-family="Helvetica,sans-Serif" font-size="10.00" fill="grey"> &lt; std::unique_ptr&lt;</text>
<text text-anchor="middle" x="847" y="-462.08" font-family="Helvetica,sans-Serif" font-size="10.00" fill="grey"> Harlinn::OCI::BindBase &gt; &gt;</text>
</g>
<!-- Node21 -->
<g id="Node000021" class="node">
<title>Node21</title>
<g id="a_Node000021"><a xlink:href="class_harlinn_1_1_common_1_1_core_1_1_basic_string.html" target="_top" xlink:title=" ">
<polygon fill="white" stroke="#666666" points="766.5,-574.08 641.5,-574.08 641.5,-544.08 766.5,-544.08 766.5,-574.08"/>
<text text-anchor="start" x="649.5" y="-562.08" font-family="Helvetica,sans-Serif" font-size="10.00">Harlinn::Common::Core</text>
<text text-anchor="middle" x="704" y="-551.08" font-family="Helvetica,sans-Serif" font-size="10.00">::BasicString&lt; wchar_t &gt;</text>
</a>
</g>
</g>
<!-- Node21&#45;&gt;Node5 -->
<g id="edge39_Node000005_Node000021" class="edge">
<title>Node21&#45;&gt;Node5</title>
<g id="a_edge39_Node000005_Node000021"><a xlink:title=" ">
<path fill="none" stroke="#9a32cd" stroke-dasharray="5,2" d="M778.18,-559.08C825.52,-559.08 886.29,-559.08 930.24,-559.08"/>
<polygon fill="#9a32cd" stroke="#9a32cd" points="778.27,-555.58 768.27,-559.08 778.27,-562.58 778.27,-555.58"/>
</a>
</g>
<text text-anchor="middle" x="847" y="-562.08" font-family="Helvetica,sans-Serif" font-size="10.00" fill="grey"> name_</text>
</g>
<!-- Node22&#45;&gt;Node21 -->
<g id="edge40_Node000021_Node000022" class="edge">
<title>Node22&#45;&gt;Node21</title>
<g id="a_edge40_Node000021_Node000022"><a xlink:title=" ">
<path fill="none" stroke="#9a32cd" stroke-dasharray="5,2" d="M237.76,-561.22C239.86,-561.52 241.94,-561.81 244,-562.08 410.63,-583.77 454.39,-582.04 622,-570.08 628.23,-569.63 634.71,-569.02 641.17,-568.3"/>
<polygon fill="#9a32cd" stroke="#9a32cd" points="238.32,-557.77 227.9,-559.71 237.26,-564.69 238.32,-557.77"/>
</a>
</g>
<text text-anchor="middle" x="425" y="-581.08" font-family="Helvetica,sans-Serif" font-size="10.00" fill="grey"> data_</text>
</g>
<!-- Node23 -->
<g id="Node000023" class="node">
<title>Node23</title>
<g id="a_Node000023"><a xlink:href="class_harlinn_1_1_common_1_1_core_1_1_basic_string.html" target="_top" xlink:title="This is a reference counted string class.">
<polygon fill="white" stroke="#666666" points="484,-562.08 366,-562.08 366,-532.08 484,-532.08 484,-562.08"/>
<text text-anchor="start" x="374" y="-550.08" font-family="Helvetica,sans-Serif" font-size="10.00">Harlinn::Common::Core</text>
<text text-anchor="middle" x="425" y="-539.08" font-family="Helvetica,sans-Serif" font-size="10.00">::BasicString&lt; T &gt;</text>
</a>
</g>
</g>
<!-- Node22&#45;&gt;Node23 -->
<g id="edge43_Node000023_Node000022" class="edge">
<title>Node22&#45;&gt;Node23</title>
<g id="a_edge43_Node000023_Node000022"><a xlink:title=" ">
<path fill="none" stroke="#9a32cd" stroke-dasharray="5,2" d="M237.73,-547.81C277.9,-547.65 327.8,-547.45 365.84,-547.3"/>
<polygon fill="#9a32cd" stroke="#9a32cd" points="237.91,-544.3 227.92,-547.84 237.94,-551.3 237.91,-544.3"/>
</a>
</g>
<text text-anchor="middle" x="293.5" y="-550.08" font-family="Helvetica,sans-Serif" font-size="10.00" fill="grey"> data_</text>
</g>
<!-- Node23&#45;&gt;Node21 -->
<g id="edge42_Node000021_Node000023" class="edge">
<title>Node23&#45;&gt;Node21</title>
<g id="a_edge42_Node000021_Node000023"><a xlink:title=" ">
<path fill="none" stroke="orange" stroke-dasharray="5,2" d="M495.79,-550.1C540.58,-552.04 598.2,-554.54 641.31,-556.41"/>
<polygon fill="orange" stroke="orange" points="496.06,-546.61 485.92,-549.67 495.76,-553.6 496.06,-546.61"/>
</a>
</g>
<text text-anchor="middle" x="564.5" y="-558.08" font-family="Helvetica,sans-Serif" font-size="10.00" fill="grey"> &lt; wchar_t &gt;</text>
</g>
<!-- Node24&#45;&gt;Node2 -->
<g id="edge44_Node000002_Node000024" class="edge">
<title>Node24&#45;&gt;Node2</title>
<g id="a_edge44_Node000002_Node000024"><a xlink:title=" ">
<path fill="none" stroke="orange" stroke-dasharray="5,2" d="M1784.52,-637.72C1831.34,-632.77 1890.51,-626.51 1937.51,-621.54"/>
<polygon fill="orange" stroke="orange" points="1784.28,-634.23 1774.7,-638.76 1785.02,-641.19 1784.28,-634.23"/>
</a>
</g>
<text text-anchor="start" x="1791" y="-650.08" font-family="Helvetica,sans-Serif" font-size="10.00" fill="grey"> &lt; OCIDateTime, handleType,</text>
<text text-anchor="middle" x="1855.5" y="-639.08" font-family="Helvetica,sans-Serif" font-size="10.00" fill="grey"> externalType &gt;</text>
</g>
</g>
</svg>
