<?xml version="1.0" encoding="UTF-8" standalone="no"?>
<!DOCTYPE svg PUBLIC "-//W3C//DTD SVG 1.1//EN"
 "http://www.w3.org/Graphics/SVG/1.1/DTD/svg11.dtd">
<!-- Generated by graphviz version 7.0.1 (20221109.1506)
 -->
<!-- Title: Harlinn::Common::Core::VectorBase&lt; T, IteratorT, ConstIteratorT &gt; Pages: 1 -->
<svg width="1068pt" height="308pt"
 viewBox="0.00 0.00 1068.00 308.32" xmlns="http://www.w3.org/2000/svg" xmlns:xlink="http://www.w3.org/1999/xlink">
<g id="graph0" class="graph" transform="scale(1 1) rotate(0) translate(4 304.32)">
<title>Harlinn::Common::Core::VectorBase&lt; T, IteratorT, ConstIteratorT &gt;</title>
<!-- Node1 -->
<g id="Node000001" class="node">
<title>Node1</title>
<g id="a_Node000001"><a xlink:title=" ">
<polygon fill="#999999" stroke="#666666" points="132,-164.82 0,-164.82 0,-123.82 132,-123.82 132,-164.82"/>
<text text-anchor="start" x="8" y="-152.82" font-family="Helvetica,sans-Serif" font-size="10.00">Harlinn::Common::Core</text>
<text text-anchor="start" x="8" y="-141.82" font-family="Helvetica,sans-Serif" font-size="10.00">::VectorBase&lt; T, IteratorT,</text>
<text text-anchor="middle" x="66" y="-130.82" font-family="Helvetica,sans-Serif" font-size="10.00"> ConstIteratorT &gt;</text>
</a>
</g>
</g>
<!-- Node2 -->
<g id="Node000002" class="node">
<title>Node2</title>
<g id="a_Node000002"><a xlink:href="class_harlinn_1_1_common_1_1_core_1_1_vector_base.html" target="_top" xlink:title=" ">
<polygon fill="white" stroke="#666666" points="507,-282.32 316,-282.32 316,-230.32 507,-230.32 507,-282.32"/>
<text text-anchor="start" x="324" y="-270.32" font-family="Helvetica,sans-Serif" font-size="10.00">Harlinn::Common::Core</text>
<text text-anchor="start" x="324" y="-259.32" font-family="Helvetica,sans-Serif" font-size="10.00">::VectorBase&lt; T, VectorIterator</text>
<text text-anchor="start" x="324" y="-248.32" font-family="Helvetica,sans-Serif" font-size="10.00">&lt; OldVector&lt; T &gt; &gt;, VectorConstIterator</text>
<text text-anchor="middle" x="411.5" y="-237.32" font-family="Helvetica,sans-Serif" font-size="10.00">&lt; OldVector&lt; T &gt; &gt; &gt;</text>
</a>
</g>
</g>
<!-- Node1&#45;&gt;Node2 -->
<g id="edge1_Node000001_Node000002" class="edge">
<title>Node1&#45;&gt;Node2</title>
<g id="a_edge1_Node000001_Node000002"><a xlink:title=" ">
<path fill="none" stroke="orange" stroke-dasharray="5,2" d="M89.95,-173.63C105.08,-190.77 126.41,-211.15 150,-222.32 201.32,-246.61 264.34,-255.32 315.54,-257.85"/>
<polygon fill="orange" stroke="orange" points="92.76,-171.53 83.61,-166.19 87.43,-176.07 92.76,-171.53"/>
</a>
</g>
<text text-anchor="start" x="177" y="-292.32" font-family="Helvetica,sans-Serif" font-size="10.00" fill="grey"> &lt; T, VectorIterator</text>
<text text-anchor="start" x="177" y="-281.32" font-family="Helvetica,sans-Serif" font-size="10.00" fill="grey">&lt; OldVector&lt; T &gt; &gt;,</text>
<text text-anchor="start" x="177" y="-270.32" font-family="Helvetica,sans-Serif" font-size="10.00" fill="grey"> VectorConstIterator</text>
<text text-anchor="middle" x="224" y="-259.32" font-family="Helvetica,sans-Serif" font-size="10.00" fill="grey">&lt; OldVector&lt; T &gt; &gt; &gt;</text>
</g>
<!-- Node4 -->
<g id="Node000004" class="node">
<title>Node4</title>
<g id="a_Node000004"><a xlink:href="class_harlinn_1_1_common_1_1_core_1_1_vector_base.html" target="_top" xlink:title=" ">
<polygon fill="white" stroke="#666666" points="501,-211.82 322,-211.82 322,-148.82 501,-148.82 501,-211.82"/>
<text text-anchor="start" x="330" y="-199.82" font-family="Helvetica,sans-Serif" font-size="10.00">Harlinn::Common::Core</text>
<text text-anchor="start" x="330" y="-188.82" font-family="Helvetica,sans-Serif" font-size="10.00">::VectorBase&lt; T, Internal</text>
<text text-anchor="start" x="330" y="-177.82" font-family="Helvetica,sans-Serif" font-size="10.00">::PointerIterator&lt; Vector</text>
<text text-anchor="start" x="330" y="-166.82" font-family="Helvetica,sans-Serif" font-size="10.00">&lt; T &gt; &gt;, Internal::ConstPointerIterator</text>
<text text-anchor="middle" x="411.5" y="-155.82" font-family="Helvetica,sans-Serif" font-size="10.00">&lt; Vector&lt; T &gt; &gt; &gt;</text>
</a>
</g>
</g>
<!-- Node1&#45;&gt;Node4 -->
<g id="edge3_Node000001_Node000004" class="edge">
<title>Node1&#45;&gt;Node4</title>
<g id="a_edge3_Node000001_Node000004"><a xlink:title=" ">
<path fill="none" stroke="orange" stroke-dasharray="5,2" d="M143.37,-160.35C145.6,-160.69 147.81,-161.02 150,-161.32 206.82,-169.18 271.1,-173.91 321.58,-176.68"/>
<polygon fill="orange" stroke="orange" points="144.04,-156.91 133.6,-158.73 142.89,-163.82 144.04,-156.91"/>
</a>
</g>
<text text-anchor="start" x="159" y="-210.32" font-family="Helvetica,sans-Serif" font-size="10.00" fill="grey"> &lt; T, Internal::PointerIterator</text>
<text text-anchor="start" x="159" y="-199.32" font-family="Helvetica,sans-Serif" font-size="10.00" fill="grey">&lt; Vector&lt; T &gt; &gt;, Internal</text>
<text text-anchor="start" x="159" y="-188.32" font-family="Helvetica,sans-Serif" font-size="10.00" fill="grey">::ConstPointerIterator&lt; Vector</text>
<text text-anchor="middle" x="224" y="-177.32" font-family="Helvetica,sans-Serif" font-size="10.00" fill="grey">&lt; T &gt; &gt; &gt;</text>
</g>
<!-- Node9 -->
<g id="Node000009" class="node">
<title>Node9</title>
<g id="a_Node000009"><a xlink:href="class_harlinn_1_1_common_1_1_core_1_1_vector_base.html" target="_top" xlink:title=" ">
<polygon fill="white" stroke="#666666" points="695,-144.32 549,-144.32 549,-70.32 695,-70.32 695,-144.32"/>
<text text-anchor="start" x="557" y="-132.32" font-family="Helvetica,sans-Serif" font-size="10.00">Harlinn::Common::Core</text>
<text text-anchor="start" x="557" y="-121.32" font-family="Helvetica,sans-Serif" font-size="10.00">::VectorBase&lt; float,</text>
<text text-anchor="start" x="557" y="-110.32" font-family="Helvetica,sans-Serif" font-size="10.00"> Internal::PointerIterator</text>
<text text-anchor="start" x="557" y="-99.32" font-family="Helvetica,sans-Serif" font-size="10.00">&lt; Vector&lt; float &gt; &gt;, Internal</text>
<text text-anchor="start" x="557" y="-88.32" font-family="Helvetica,sans-Serif" font-size="10.00">::ConstPointerIterator&lt; Vector</text>
<text text-anchor="middle" x="622" y="-77.32" font-family="Helvetica,sans-Serif" font-size="10.00">&lt; float &gt; &gt; &gt;</text>
</a>
</g>
</g>
<!-- Node1&#45;&gt;Node9 -->
<g id="edge9_Node000001_Node000009" class="edge">
<title>Node1&#45;&gt;Node9</title>
<g id="a_edge9_Node000001_Node000009"><a xlink:title=" ">
<path fill="none" stroke="orange" stroke-dasharray="5,2" d="M109.67,-117.95C122.21,-111.54 136.25,-105.6 150,-102.32 223.48,-84.79 436.21,-95.16 548.93,-102.3"/>
<polygon fill="orange" stroke="orange" points="108.03,-114.86 100.87,-122.67 111.34,-121.02 108.03,-114.86"/>
</a>
</g>
<text text-anchor="start" x="162" y="-149.32" font-family="Helvetica,sans-Serif" font-size="10.00" fill="grey"> &lt; float, Internal::</text>
<text text-anchor="start" x="162" y="-138.32" font-family="Helvetica,sans-Serif" font-size="10.00" fill="grey">PointerIterator&lt; Vector</text>
<text text-anchor="start" x="162" y="-127.32" font-family="Helvetica,sans-Serif" font-size="10.00" fill="grey">&lt; float &gt; &gt;, Internal::</text>
<text text-anchor="start" x="162" y="-116.32" font-family="Helvetica,sans-Serif" font-size="10.00" fill="grey">ConstPointerIterator&lt; Vector</text>
<text text-anchor="middle" x="224" y="-105.32" font-family="Helvetica,sans-Serif" font-size="10.00" fill="grey">&lt; float &gt; &gt; &gt;</text>
</g>
<!-- Node10 -->
<g id="Node000010" class="node">
<title>Node10</title>
<g id="a_Node000010"><a xlink:href="class_harlinn_1_1_common_1_1_core_1_1_vector_base.html" target="_top" xlink:title=" ">
<polygon fill="white" stroke="#666666" points="719,-64.82 525,-64.82 525,-1.82 719,-1.82 719,-64.82"/>
<text text-anchor="start" x="533" y="-52.82" font-family="Helvetica,sans-Serif" font-size="10.00">Harlinn::Common::Core</text>
<text text-anchor="start" x="533" y="-41.82" font-family="Helvetica,sans-Serif" font-size="10.00">::VectorBase&lt; Byte, Internal</text>
<text text-anchor="start" x="533" y="-30.82" font-family="Helvetica,sans-Serif" font-size="10.00">::PointerIterator&lt; Vector</text>
<text text-anchor="start" x="533" y="-19.82" font-family="Helvetica,sans-Serif" font-size="10.00">&lt; Byte &gt; &gt;, Internal::ConstPointerIterator</text>
<text text-anchor="middle" x="622" y="-8.82" font-family="Helvetica,sans-Serif" font-size="10.00">&lt; Vector&lt; Byte &gt; &gt; &gt;</text>
</a>
</g>
</g>
<!-- Node1&#45;&gt;Node10 -->
<g id="edge11_Node000001_Node000010" class="edge">
<title>Node1&#45;&gt;Node10</title>
<g id="a_edge11_Node000001_Node000010"><a xlink:title=" ">
<path fill="none" stroke="orange" stroke-dasharray="5,2" d="M82.78,-113.75C96.87,-90.05 119.92,-58.87 150,-44.32 269.09,13.31 425.72,2.51 524.91,-13.26"/>
<polygon fill="orange" stroke="orange" points="79.77,-111.96 77.87,-122.39 85.85,-115.42 79.77,-111.96"/>
</a>
</g>
<text text-anchor="start" x="150" y="-80.32" font-family="Helvetica,sans-Serif" font-size="10.00" fill="grey"> &lt; Byte, Internal::Pointer</text>
<text text-anchor="start" x="150" y="-69.32" font-family="Helvetica,sans-Serif" font-size="10.00" fill="grey">Iterator&lt; Vector&lt; Byte</text>
<text text-anchor="start" x="150" y="-58.32" font-family="Helvetica,sans-Serif" font-size="10.00" fill="grey"> &gt; &gt;, Internal::ConstPointerIterator</text>
<text text-anchor="middle" x="224" y="-47.32" font-family="Helvetica,sans-Serif" font-size="10.00" fill="grey">&lt; Vector&lt; Byte &gt; &gt; &gt;</text>
</g>
<!-- Node3 -->
<g id="Node000003" class="node">
<title>Node3</title>
<g id="a_Node000003"><a xlink:href="class_harlinn_1_1_common_1_1_core_1_1_old_vector.html" target="_top" xlink:title=" ">
<polygon fill="white" stroke="#666666" points="855,-271.32 737,-271.32 737,-241.32 855,-241.32 855,-271.32"/>
<text text-anchor="start" x="745" y="-259.32" font-family="Helvetica,sans-Serif" font-size="10.00">Harlinn::Common::Core</text>
<text text-anchor="middle" x="796" y="-248.32" font-family="Helvetica,sans-Serif" font-size="10.00">::OldVector&lt; T &gt;</text>
</a>
</g>
</g>
<!-- Node2&#45;&gt;Node3 -->
<g id="edge2_Node000002_Node000003" class="edge">
<title>Node2&#45;&gt;Node3</title>
<g id="a_edge2_Node000002_Node000003"><a xlink:title=" ">
<path fill="none" stroke="#63b8ff" d="M518.19,-256.32C588.67,-256.32 678.69,-256.32 736.6,-256.32"/>
<polygon fill="#63b8ff" stroke="#63b8ff" points="518.56,-252.82 508.56,-256.32 518.56,-259.82 518.56,-252.82"/>
</a>
</g>
</g>
<!-- Node5 -->
<g id="Node000005" class="node">
<title>Node5</title>
<g id="a_Node000005"><a xlink:href="class_harlinn_1_1_common_1_1_core_1_1_vector.html" target="_top" xlink:title=" ">
<polygon fill="white" stroke="#666666" points="1060,-211.32 942,-211.32 942,-181.32 1060,-181.32 1060,-211.32"/>
<text text-anchor="start" x="950" y="-199.32" font-family="Helvetica,sans-Serif" font-size="10.00">Harlinn::Common::Core</text>
<text text-anchor="middle" x="1001" y="-188.32" font-family="Helvetica,sans-Serif" font-size="10.00">::Vector&lt; T * &gt;</text>
</a>
</g>
</g>
<!-- Node4&#45;&gt;Node5 -->
<g id="edge4_Node000004_Node000005" class="edge">
<title>Node4&#45;&gt;Node5</title>
<g id="a_edge4_Node000004_Node000005"><a xlink:title=" ">
<path fill="none" stroke="#63b8ff" d="M512.59,-184.8C605.86,-188.73 748.81,-194.16 873,-196.32 895.38,-196.71 919.97,-196.79 941.51,-196.74"/>
<polygon fill="#63b8ff" stroke="#63b8ff" points="512.84,-181.31 502.7,-184.38 512.54,-188.3 512.84,-181.31"/>
</a>
</g>
</g>
<!-- Node6 -->
<g id="Node000006" class="node">
<title>Node6</title>
<g id="a_Node000006"><a xlink:href="class_harlinn_1_1_common_1_1_core_1_1_vector.html" target="_top" xlink:title=" ">
<polygon fill="white" stroke="#666666" points="855,-173.32 737,-173.32 737,-143.32 855,-143.32 855,-173.32"/>
<text text-anchor="start" x="745" y="-161.32" font-family="Helvetica,sans-Serif" font-size="10.00">Harlinn::Common::Core</text>
<text text-anchor="middle" x="796" y="-150.32" font-family="Helvetica,sans-Serif" font-size="10.00">::Vector&lt; T &gt;</text>
</a>
</g>
</g>
<!-- Node4&#45;&gt;Node6 -->
<g id="edge5_Node000004_Node000006" class="edge">
<title>Node4&#45;&gt;Node6</title>
<g id="a_edge5_Node000004_Node000006"><a xlink:title=" ">
<path fill="none" stroke="#63b8ff" d="M512.47,-174.57C583.81,-170.46 677.3,-165.09 736.78,-161.67"/>
<polygon fill="#63b8ff" stroke="#63b8ff" points="512.51,-171.06 502.73,-175.13 512.91,-178.05 512.51,-171.06"/>
</a>
</g>
</g>
<!-- Node6&#45;&gt;Node5 -->
<g id="edge8_Node000006_Node000005" class="edge">
<title>Node6&#45;&gt;Node5</title>
<g id="a_edge8_Node000006_Node000005"><a xlink:title=" ">
<path fill="none" stroke="orange" stroke-dasharray="5,2" d="M866.47,-171.32C890.93,-175.9 918.16,-181 941.62,-185.39"/>
<polygon fill="orange" stroke="orange" points="867.4,-167.94 856.93,-169.54 866.12,-174.82 867.4,-167.94"/>
</a>
</g>
<text text-anchor="middle" x="898.5" y="-184.32" font-family="Helvetica,sans-Serif" font-size="10.00" fill="grey"> &lt; T * &gt;</text>
</g>
<!-- Node7 -->
<g id="Node000007" class="node">
<title>Node7</title>
<g id="a_Node000007"><a xlink:href="class_harlinn_1_1_common_1_1_core_1_1_vector.html" target="_top" xlink:title=" ">
<polygon fill="white" stroke="#666666" points="1060,-152.32 942,-152.32 942,-122.32 1060,-122.32 1060,-152.32"/>
<text text-anchor="start" x="950" y="-140.32" font-family="Helvetica,sans-Serif" font-size="10.00">Harlinn::Common::Core</text>
<text text-anchor="middle" x="1001" y="-129.32" font-family="Helvetica,sans-Serif" font-size="10.00">::Vector&lt; float, 2 &gt;</text>
</a>
</g>
</g>
<!-- Node6&#45;&gt;Node7 -->
<g id="edge6_Node000006_Node000007" class="edge">
<title>Node6&#45;&gt;Node7</title>
<g id="a_edge6_Node000006_Node000007"><a xlink:title=" ">
<path fill="none" stroke="orange" stroke-dasharray="5,2" d="M866.8,-151.1C891.18,-148.58 918.27,-145.77 941.62,-143.36"/>
<polygon fill="orange" stroke="orange" points="866.54,-147.61 856.95,-152.12 867.26,-154.57 866.54,-147.61"/>
</a>
</g>
<text text-anchor="middle" x="898.5" y="-152.32" font-family="Helvetica,sans-Serif" font-size="10.00" fill="grey"> &lt; float, 2 &gt;</text>
</g>
<!-- Node8 -->
<g id="Node000008" class="node">
<title>Node8</title>
<g id="a_Node000008"><a xlink:href="class_harlinn_1_1_common_1_1_core_1_1_vector.html" target="_top" xlink:title=" ">
<polygon fill="white" stroke="#666666" points="1060,-83.32 942,-83.32 942,-53.32 1060,-53.32 1060,-83.32"/>
<text text-anchor="start" x="950" y="-71.32" font-family="Helvetica,sans-Serif" font-size="10.00">Harlinn::Common::Core</text>
<text text-anchor="middle" x="1001" y="-60.32" font-family="Helvetica,sans-Serif" font-size="10.00">::Vector&lt; Byte &gt;</text>
</a>
</g>
</g>
<!-- Node6&#45;&gt;Node8 -->
<g id="edge7_Node000006_Node000008" class="edge">
<title>Node6&#45;&gt;Node8</title>
<g id="a_edge7_Node000006_Node000008"><a xlink:title=" ">
<path fill="none" stroke="orange" stroke-dasharray="5,2" d="M841.96,-138.38C879.14,-121.9 931.17,-98.83 965.22,-83.74"/>
<polygon fill="orange" stroke="orange" points="841,-134.98 833.28,-142.23 843.84,-141.38 841,-134.98"/>
</a>
</g>
<text text-anchor="middle" x="898.5" y="-126.32" font-family="Helvetica,sans-Serif" font-size="10.00" fill="grey"> &lt; Byte &gt;</text>
</g>
<!-- Node9&#45;&gt;Node7 -->
<g id="edge10_Node000009_Node000007" class="edge">
<title>Node9&#45;&gt;Node7</title>
<g id="a_edge10_Node000009_Node000007"><a xlink:title=" ">
<path fill="none" stroke="#63b8ff" d="M706.39,-93.13C767.5,-85.54 852,-80.92 924,-98.32 943.03,-102.92 962.64,-113.14 977.17,-121.97"/>
<polygon fill="#63b8ff" stroke="#63b8ff" points="706.22,-89.62 696.76,-94.38 707.13,-96.56 706.22,-89.62"/>
</a>
</g>
</g>
<!-- Node10&#45;&gt;Node8 -->
<g id="edge12_Node000010_Node000008" class="edge">
<title>Node10&#45;&gt;Node8</title>
<g id="a_edge12_Node000010_Node000008"><a xlink:title=" ">
<path fill="none" stroke="#63b8ff" d="M730.4,-43.29C799.07,-49.66 885.47,-57.69 941.68,-62.9"/>
<polygon fill="#63b8ff" stroke="#63b8ff" points="730.9,-39.82 720.62,-42.38 730.25,-46.79 730.9,-39.82"/>
</a>
</g>
</g>
</g>
</svg>
