<?xml version="1.0" encoding="UTF-8" standalone="no"?>
<!DOCTYPE svg PUBLIC "-//W3C//DTD SVG 1.1//EN"
 "http://www.w3.org/Graphics/SVG/1.1/DTD/svg11.dtd">
<!-- Generated by graphviz version 7.0.1 (20221109.1506)
 -->
<!-- Title: Harlinn::Common::Core::Data::DbException Pages: 1 -->
<svg width="139pt" height="379pt"
 viewBox="0.00 0.00 139.00 379.00" xmlns="http://www.w3.org/2000/svg" xmlns:xlink="http://www.w3.org/1999/xlink">
<g id="graph0" class="graph" transform="scale(1 1) rotate(0) translate(4 375)">
<title>Harlinn::Common::Core::Data::DbException</title>
<!-- Node1 -->
<g id="Node000001" class="node">
<title>Node1</title>
<g id="a_Node000001"><a xlink:title=" ">
<polygon fill="#999999" stroke="#666666" points="124.5,-107 6.5,-107 6.5,-77 124.5,-77 124.5,-107"/>
<text text-anchor="start" x="14.5" y="-95" font-family="Helvetica,sans-Serif" font-size="10.00">Harlinn::Common::Core</text>
<text text-anchor="middle" x="65.5" y="-84" font-family="Helvetica,sans-Serif" font-size="10.00">::Data::DbException</text>
</a>
</g>
</g>
<!-- Node6 -->
<g id="Node000006" class="node">
<title>Node6</title>
<g id="a_Node000006"><a xlink:href="class_harlinn_1_1_common_1_1_core_1_1_data_1_1_oracle_client_1_1_oracle_exception.html" target="_top" xlink:title=" ">
<polygon fill="white" stroke="#666666" points="124.5,-41 6.5,-41 6.5,0 124.5,0 124.5,-41"/>
<text text-anchor="start" x="14.5" y="-29" font-family="Helvetica,sans-Serif" font-size="10.00">Harlinn::Common::Core</text>
<text text-anchor="start" x="14.5" y="-18" font-family="Helvetica,sans-Serif" font-size="10.00">::Data::OracleClient</text>
<text text-anchor="middle" x="65.5" y="-7" font-family="Helvetica,sans-Serif" font-size="10.00">::OracleException</text>
</a>
</g>
</g>
<!-- Node1&#45;&gt;Node6 -->
<g id="edge5_Node000001_Node000006" class="edge">
<title>Node1&#45;&gt;Node6</title>
<g id="a_edge5_Node000001_Node000006"><a xlink:title=" ">
<path fill="none" stroke="#63b8ff" d="M65.5,-65.36C65.5,-57.45 65.5,-48.87 65.5,-41.42"/>
<polygon fill="#63b8ff" stroke="#63b8ff" points="62,-65.09 65.5,-75.09 69,-65.09 62,-65.09"/>
</a>
</g>
</g>
<!-- Node2 -->
<g id="Node000002" class="node">
<title>Node2</title>
<g id="a_Node000002"><a xlink:href="class_harlinn_1_1_common_1_1_core_1_1_runtime_1_1_interop_services_1_1_external_exception.html" target="_top" xlink:title=" ">
<polygon fill="white" stroke="#666666" points="131,-184 0,-184 0,-143 131,-143 131,-184"/>
<text text-anchor="start" x="8" y="-172" font-family="Helvetica,sans-Serif" font-size="10.00">Harlinn::Common::Core</text>
<text text-anchor="start" x="8" y="-161" font-family="Helvetica,sans-Serif" font-size="10.00">::Runtime::InteropServices</text>
<text text-anchor="middle" x="65.5" y="-150" font-family="Helvetica,sans-Serif" font-size="10.00">::ExternalException</text>
</a>
</g>
</g>
<!-- Node2&#45;&gt;Node1 -->
<g id="edge1_Node000001_Node000002" class="edge">
<title>Node2&#45;&gt;Node1</title>
<g id="a_edge1_Node000001_Node000002"><a xlink:title=" ">
<path fill="none" stroke="#63b8ff" d="M65.5,-131.38C65.5,-123.04 65.5,-114.43 65.5,-107.47"/>
<polygon fill="#63b8ff" stroke="#63b8ff" points="62,-131.26 65.5,-141.26 69,-131.26 62,-131.26"/>
</a>
</g>
</g>
<!-- Node3 -->
<g id="Node000003" class="node">
<title>Node3</title>
<g id="a_Node000003"><a xlink:href="class_harlinn_1_1_common_1_1_core_1_1_system_exception.html" target="_top" xlink:title=" ">
<polygon fill="white" stroke="#666666" points="124.5,-250 6.5,-250 6.5,-220 124.5,-220 124.5,-250"/>
<text text-anchor="start" x="14.5" y="-238" font-family="Helvetica,sans-Serif" font-size="10.00">Harlinn::Common::Core</text>
<text text-anchor="middle" x="65.5" y="-227" font-family="Helvetica,sans-Serif" font-size="10.00">::SystemException</text>
</a>
</g>
</g>
<!-- Node3&#45;&gt;Node2 -->
<g id="edge2_Node000002_Node000003" class="edge">
<title>Node3&#45;&gt;Node2</title>
<g id="a_edge2_Node000002_Node000003"><a xlink:title=" ">
<path fill="none" stroke="#63b8ff" d="M65.5,-208.36C65.5,-200.45 65.5,-191.87 65.5,-184.42"/>
<polygon fill="#63b8ff" stroke="#63b8ff" points="62,-208.09 65.5,-218.09 69,-208.09 62,-208.09"/>
</a>
</g>
</g>
<!-- Node4 -->
<g id="Node000004" class="node">
<title>Node4</title>
<g id="a_Node000004"><a xlink:href="class_harlinn_1_1_common_1_1_core_1_1_exception.html" target="_top" xlink:title=" ">
<polygon fill="white" stroke="#666666" points="124.5,-316 6.5,-316 6.5,-286 124.5,-286 124.5,-316"/>
<text text-anchor="start" x="14.5" y="-304" font-family="Helvetica,sans-Serif" font-size="10.00">Harlinn::Common::Core</text>
<text text-anchor="middle" x="65.5" y="-293" font-family="Helvetica,sans-Serif" font-size="10.00">::Exception</text>
</a>
</g>
</g>
<!-- Node4&#45;&gt;Node3 -->
<g id="edge3_Node000003_Node000004" class="edge">
<title>Node4&#45;&gt;Node3</title>
<g id="a_edge3_Node000003_Node000004"><a xlink:title=" ">
<path fill="none" stroke="#63b8ff" d="M65.5,-274.39C65.5,-266.13 65.5,-257.28 65.5,-250.16"/>
<polygon fill="#63b8ff" stroke="#63b8ff" points="62,-274.28 65.5,-284.28 69,-274.28 62,-274.28"/>
</a>
</g>
</g>
<!-- Node5 -->
<g id="Node000005" class="node">
<title>Node5</title>
<g id="a_Node000005"><a xlink:title=" ">
<polygon fill="white" stroke="#666666" points="104.5,-371 26.5,-371 26.5,-352 104.5,-352 104.5,-371"/>
<text text-anchor="middle" x="65.5" y="-359" font-family="Helvetica,sans-Serif" font-size="10.00">std::exception</text>
</a>
</g>
</g>
<!-- Node5&#45;&gt;Node4 -->
<g id="edge4_Node000004_Node000005" class="edge">
<title>Node5&#45;&gt;Node4</title>
<g id="a_edge4_Node000004_Node000005"><a xlink:title=" ">
<path fill="none" stroke="#63b8ff" d="M65.5,-340.51C65.5,-332.49 65.5,-323.43 65.5,-316.11"/>
<polygon fill="#63b8ff" stroke="#63b8ff" points="62,-340.35 65.5,-350.35 69,-340.35 62,-340.35"/>
</a>
</g>
</g>
</g>
</svg>
