<?xml version="1.0" encoding="UTF-8" standalone="no"?>
<!DOCTYPE svg PUBLIC "-//W3C//DTD SVG 1.1//EN"
 "http://www.w3.org/Graphics/SVG/1.1/DTD/svg11.dtd">
<!-- Generated by graphviz version 7.0.1 (20221109.1506)
 -->
<!-- Title: Harlinn::Common::Core::Doxygen::DocInternalS6Type Pages: 1 -->
<svg width="2031pt" height="357pt"
 viewBox="0.00 0.00 2031.00 356.50" xmlns="http://www.w3.org/2000/svg" xmlns:xlink="http://www.w3.org/1999/xlink">
<g id="graph0" class="graph" transform="scale(1 1) rotate(0) translate(4 352.5)">
<title>Harlinn::Common::Core::Doxygen::DocInternalS6Type</title>
<!-- Node1 -->
<g id="Node000001" class="node">
<title>Node1</title>
<g id="a_Node000001"><a xlink:title=" ">
<polygon fill="#999999" stroke="#666666" points="2023,-165.5 1874,-165.5 1874,-135.5 2023,-135.5 2023,-165.5"/>
<text text-anchor="start" x="1882" y="-153.5" font-family="Helvetica,sans-Serif" font-size="10.00">Harlinn::Common::Core</text>
<text text-anchor="middle" x="1948.5" y="-142.5" font-family="Helvetica,sans-Serif" font-size="10.00">::Doxygen::DocInternalS6Type</text>
</a>
</g>
</g>
<!-- Node2 -->
<g id="Node000002" class="node">
<title>Node2</title>
<g id="a_Node000002"><a xlink:href="class_harlinn_1_1_common_1_1_core_1_1_doxygen_1_1_internal_1_1_doc_internal_section_base_type.xhtml" target="_top" xlink:title=" ">
<polygon fill="white" stroke="#666666" points="1837,-182 1662,-182 1662,-119 1837,-119 1837,-182"/>
<text text-anchor="start" x="1670" y="-170" font-family="Helvetica,sans-Serif" font-size="10.00">Harlinn::Common::Core</text>
<text text-anchor="start" x="1670" y="-159" font-family="Helvetica,sans-Serif" font-size="10.00">::Doxygen::Internal::</text>
<text text-anchor="start" x="1670" y="-148" font-family="Helvetica,sans-Serif" font-size="10.00">DocInternalSectionBaseType</text>
<text text-anchor="start" x="1670" y="-137" font-family="Helvetica,sans-Serif" font-size="10.00">&lt; Doxygen::DoxType::DocInternalS6</text>
<text text-anchor="middle" x="1749.5" y="-126" font-family="Helvetica,sans-Serif" font-size="10.00">Type &gt;</text>
</a>
</g>
</g>
<!-- Node2&#45;&gt;Node1 -->
<g id="edge1_Node000001_Node000002" class="edge">
<title>Node2&#45;&gt;Node1</title>
<g id="a_edge1_Node000001_Node000002"><a xlink:title=" ">
<path fill="none" stroke="#63b8ff" d="M1848.83,-150.5C1857.17,-150.5 1865.52,-150.5 1873.62,-150.5"/>
<polygon fill="#63b8ff" stroke="#63b8ff" points="1848.99,-147 1838.99,-150.5 1848.99,-154 1848.99,-147"/>
</a>
</g>
</g>
<!-- Node3 -->
<g id="Node000003" class="node">
<title>Node3</title>
<g id="a_Node000003"><a xlink:href="class_harlinn_1_1_common_1_1_core_1_1_doxygen_1_1_internal_1_1_doc_base.xhtml" target="_top" xlink:title=" ">
<polygon fill="white" stroke="#666666" points="1312.5,-41 1194.5,-41 1194.5,0 1312.5,0 1312.5,-41"/>
<text text-anchor="start" x="1202.5" y="-29" font-family="Helvetica,sans-Serif" font-size="10.00">Harlinn::Common::Core</text>
<text text-anchor="start" x="1202.5" y="-18" font-family="Helvetica,sans-Serif" font-size="10.00">::Doxygen::Internal::</text>
<text text-anchor="middle" x="1253.5" y="-7" font-family="Helvetica,sans-Serif" font-size="10.00">DocBase&lt; doxType &gt;</text>
</a>
</g>
</g>
<!-- Node3&#45;&gt;Node2 -->
<g id="edge2_Node000002_Node000003" class="edge">
<title>Node3&#45;&gt;Node2</title>
<g id="a_edge2_Node000002_Node000003"><a xlink:title=" ">
<path fill="none" stroke="#63b8ff" d="M1324.35,-16.37C1404.73,-14.26 1539.13,-18.9 1644,-63.5 1673.33,-75.97 1700.78,-99.48 1720.19,-118.92"/>
<polygon fill="#63b8ff" stroke="#63b8ff" points="1324.29,-12.87 1314.4,-16.69 1324.51,-19.87 1324.29,-12.87"/>
</a>
</g>
</g>
<!-- Node19 -->
<g id="Node000019" class="node">
<title>Node19</title>
<g id="a_Node000019"><a xlink:href="class_harlinn_1_1_common_1_1_core_1_1_doxygen_1_1_internal_1_1_doc_internal_section_base_type.xhtml" target="_top" xlink:title=" ">
<polygon fill="white" stroke="#666666" points="1529,-204.5 1387,-204.5 1387,-152.5 1529,-152.5 1529,-204.5"/>
<text text-anchor="start" x="1395" y="-192.5" font-family="Helvetica,sans-Serif" font-size="10.00">Harlinn::Common::Core</text>
<text text-anchor="start" x="1395" y="-181.5" font-family="Helvetica,sans-Serif" font-size="10.00">::Doxygen::Internal::</text>
<text text-anchor="start" x="1395" y="-170.5" font-family="Helvetica,sans-Serif" font-size="10.00">DocInternalSectionBaseType</text>
<text text-anchor="middle" x="1458" y="-159.5" font-family="Helvetica,sans-Serif" font-size="10.00">&lt; doxType &gt;</text>
</a>
</g>
</g>
<!-- Node3&#45;&gt;Node19 -->
<g id="edge27_Node000019_Node000003" class="edge">
<title>Node3&#45;&gt;Node19</title>
<g id="a_edge27_Node000019_Node000003"><a xlink:title=" ">
<path fill="none" stroke="#63b8ff" d="M1312.04,-47.41C1315.88,-49.95 1319.57,-52.65 1323,-55.5 1358.83,-85.26 1351.87,-107.91 1387,-138.5 1392.59,-143.37 1398.87,-147.94 1405.31,-152.12"/>
<polygon fill="#63b8ff" stroke="#63b8ff" points="1313.92,-44.46 1303.57,-42.22 1310.26,-50.43 1313.92,-44.46"/>
</a>
</g>
</g>
<!-- Node4 -->
<g id="Node000004" class="node">
<title>Node4</title>
<g id="a_Node000004"><a xlink:href="class_harlinn_1_1_common_1_1_core_1_1_doxygen_1_1_doc_base_type.xhtml" target="_top" xlink:title=" ">
<polygon fill="white" stroke="#666666" points="347,-82.5 219,-82.5 219,-52.5 347,-52.5 347,-82.5"/>
<text text-anchor="start" x="227" y="-70.5" font-family="Helvetica,sans-Serif" font-size="10.00">Harlinn::Common::Core</text>
<text text-anchor="middle" x="283" y="-59.5" font-family="Helvetica,sans-Serif" font-size="10.00">::Doxygen::DocBaseType</text>
</a>
</g>
</g>
<!-- Node4&#45;&gt;Node3 -->
<g id="edge3_Node000003_Node000004" class="edge">
<title>Node4&#45;&gt;Node3</title>
<g id="a_edge3_Node000003_Node000004"><a xlink:title=" ">
<path fill="none" stroke="#63b8ff" d="M342.11,-48.95C390.72,-35.08 462.17,-18.5 526,-18.5 526,-18.5 526,-18.5 1035.5,-18.5 1089.19,-18.5 1150.34,-19.12 1194.02,-19.67"/>
<polygon fill="#63b8ff" stroke="#63b8ff" points="341.26,-45.55 332.64,-51.71 343.22,-52.27 341.26,-45.55"/>
</a>
</g>
</g>
<!-- Node13 -->
<g id="Node000013" class="node">
<title>Node13</title>
<g id="a_Node000013"><a xlink:href="class_harlinn_1_1_common_1_1_core_1_1_doxygen_1_1_internal_1_1_doc_base.xhtml" target="_top" xlink:title=" ">
<polygon fill="white" stroke="#666666" points="865,-128.5 717,-128.5 717,-76.5 865,-76.5 865,-128.5"/>
<text text-anchor="start" x="725" y="-116.5" font-family="Helvetica,sans-Serif" font-size="10.00">Harlinn::Common::Core</text>
<text text-anchor="start" x="725" y="-105.5" font-family="Helvetica,sans-Serif" font-size="10.00">::Doxygen::Internal::</text>
<text text-anchor="start" x="725" y="-94.5" font-family="Helvetica,sans-Serif" font-size="10.00">DocBase&lt; Doxygen::DoxType</text>
<text text-anchor="middle" x="791" y="-83.5" font-family="Helvetica,sans-Serif" font-size="10.00">::TitleType &gt;</text>
</a>
</g>
</g>
<!-- Node4&#45;&gt;Node13 -->
<g id="edge15_Node000013_Node000004" class="edge">
<title>Node4&#45;&gt;Node13</title>
<g id="a_edge15_Node000013_Node000004"><a xlink:title=" ">
<path fill="none" stroke="#63b8ff" d="M358.42,-80.44C360.63,-80.8 362.83,-81.16 365,-81.5 410.69,-88.77 421.95,-92.14 468,-96.5 528.23,-102.2 543.51,-101.17 604,-102.5 641.13,-103.32 682.43,-103.4 716.67,-103.24"/>
<polygon fill="#63b8ff" stroke="#63b8ff" points="359.14,-77.01 348.7,-78.84 358,-83.92 359.14,-77.01"/>
</a>
</g>
</g>
<!-- Node14 -->
<g id="Node000014" class="node">
<title>Node14</title>
<g id="a_Node000014"><a xlink:href="class_harlinn_1_1_common_1_1_core_1_1_doxygen_1_1_internal_1_1_doc_base.xhtml" target="_top" xlink:title=" ">
<polygon fill="white" stroke="#666666" points="586,-88 468,-88 468,-47 586,-47 586,-88"/>
<text text-anchor="start" x="476" y="-76" font-family="Helvetica,sans-Serif" font-size="10.00">Harlinn::Common::Core</text>
<text text-anchor="start" x="476" y="-65" font-family="Helvetica,sans-Serif" font-size="10.00">::Doxygen::Internal::</text>
<text text-anchor="middle" x="527" y="-54" font-family="Helvetica,sans-Serif" font-size="10.00">DocBase&lt; doxType &gt;</text>
</a>
</g>
</g>
<!-- Node4&#45;&gt;Node14 -->
<g id="edge17_Node000014_Node000004" class="edge">
<title>Node4&#45;&gt;Node14</title>
<g id="a_edge17_Node000014_Node000004"><a xlink:title=" ">
<path fill="none" stroke="#63b8ff" d="M358.43,-67.5C393.56,-67.5 434.86,-67.5 467.67,-67.5"/>
<polygon fill="#63b8ff" stroke="#63b8ff" points="358.78,-64 348.78,-67.5 358.78,-71 358.78,-64"/>
</a>
</g>
</g>
<!-- Node5 -->
<g id="Node000005" class="node">
<title>Node5</title>
<g id="a_Node000005"><a xlink:title=" ">
<polygon fill="white" stroke="#666666" points="140,-82.5 0,-82.5 0,-52.5 140,-52.5 140,-82.5"/>
<text text-anchor="start" x="8" y="-70.5" font-family="Helvetica,sans-Serif" font-size="10.00">std::enable_shared</text>
<text text-anchor="middle" x="70" y="-59.5" font-family="Helvetica,sans-Serif" font-size="10.00">_from_this&lt; DocBaseType &gt;</text>
</a>
</g>
</g>
<!-- Node5&#45;&gt;Node4 -->
<g id="edge4_Node000004_Node000005" class="edge">
<title>Node5&#45;&gt;Node4</title>
<g id="a_edge4_Node000004_Node000005"><a xlink:title=" ">
<path fill="none" stroke="#8b1a1a" d="M151.8,-67.5C173.94,-67.5 197.63,-67.5 218.64,-67.5"/>
<polygon fill="#8b1a1a" stroke="#8b1a1a" points="151.9,-64 141.9,-67.5 151.9,-71 151.9,-64"/>
</a>
</g>
</g>
<!-- Node6 -->
<g id="Node000006" class="node">
<title>Node6</title>
<g id="a_Node000006"><a xlink:title=" ">
<polygon fill="white" stroke="#666666" points="1296,-314 1211,-314 1211,-295 1296,-295 1296,-314"/>
<text text-anchor="middle" x="1253.5" y="-302" font-family="Helvetica,sans-Serif" font-size="10.00">std::vector&lt; T &gt;</text>
</a>
</g>
</g>
<!-- Node6&#45;&gt;Node2 -->
<g id="edge5_Node000002_Node000006" class="edge">
<title>Node6&#45;&gt;Node2</title>
<g id="a_edge5_Node000002_Node000006"><a xlink:title=" ">
<path fill="none" stroke="#63b8ff" d="M1307.82,-301.12C1385.39,-294.45 1532.28,-275.11 1644,-220.5 1665.68,-209.9 1688.11,-195.41 1706.61,-182.36"/>
<polygon fill="#63b8ff" stroke="#63b8ff" points="1307.63,-297.62 1297.94,-301.93 1308.2,-304.6 1307.63,-297.62"/>
</a>
</g>
</g>
<!-- Node6&#45;&gt;Node19 -->
<g id="edge28_Node000019_Node000006" class="edge">
<title>Node6&#45;&gt;Node19</title>
<g id="a_edge28_Node000019_Node000006"><a xlink:title=" ">
<path fill="none" stroke="#63b8ff" d="M1300.35,-290.69C1308.09,-287.72 1315.91,-284.32 1323,-280.5 1362.13,-259.44 1402.03,-227.43 1428,-204.9"/>
<polygon fill="#63b8ff" stroke="#63b8ff" points="1299.19,-287.38 1290.97,-294.06 1301.56,-293.97 1299.19,-287.38"/>
</a>
</g>
</g>
<!-- Node7 -->
<g id="Node000007" class="node">
<title>Node7</title>
<g id="a_Node000007"><a xlink:title=" ">
<polygon fill="white" stroke="#666666" points="84.5,-278 55.5,-278 55.5,-259 84.5,-259 84.5,-278"/>
<text text-anchor="middle" x="70" y="-266" font-family="Helvetica,sans-Serif" font-size="10.00">T</text>
</a>
</g>
</g>
<!-- Node7&#45;&gt;Node6 -->
<g id="edge6_Node000006_Node000007" class="edge">
<title>Node7&#45;&gt;Node6</title>
<g id="a_edge6_Node000006_Node000007"><a xlink:title=" ">
<path fill="none" stroke="#9a32cd" stroke-dasharray="5,2" d="M94.95,-281.85C133.23,-301.91 211.14,-337.5 282,-337.5 282,-337.5 282,-337.5 1035.5,-337.5 1097.42,-337.5 1168.17,-324.2 1211.59,-314.49"/>
<polygon fill="#9a32cd" stroke="#9a32cd" points="96.61,-278.77 86.15,-277.13 93.3,-284.94 96.61,-278.77"/>
</a>
</g>
<text text-anchor="middle" x="651.5" y="-340.5" font-family="Helvetica,sans-Serif" font-size="10.00" fill="grey"> elements</text>
</g>
<!-- Node9 -->
<g id="Node000009" class="node">
<title>Node9</title>
<g id="a_Node000009"><a xlink:href="struct_harlinn_1_1_common_1_1_core_1_1_internal_1_1_data.xhtml" target="_top" xlink:title=" ">
<polygon fill="white" stroke="#666666" points="342,-221.5 224,-221.5 224,-191.5 342,-191.5 342,-221.5"/>
<text text-anchor="start" x="232" y="-209.5" font-family="Helvetica,sans-Serif" font-size="10.00">Harlinn::Common::Core</text>
<text text-anchor="middle" x="283" y="-198.5" font-family="Helvetica,sans-Serif" font-size="10.00">::Internal::Data&lt; T &gt;</text>
</a>
</g>
</g>
<!-- Node7&#45;&gt;Node9 -->
<g id="edge9_Node000009_Node000007" class="edge">
<title>Node7&#45;&gt;Node9</title>
<g id="a_edge9_Node000009_Node000007"><a xlink:title=" ">
<path fill="none" stroke="#9a32cd" stroke-dasharray="5,2" d="M94.5,-253.97C111.52,-244.12 135.41,-231.64 158,-224.5 178.95,-217.88 202.67,-213.68 223.71,-211.02"/>
<polygon fill="#9a32cd" stroke="#9a32cd" points="92.98,-250.81 86.17,-258.92 96.55,-256.83 92.98,-250.81"/>
</a>
</g>
<text text-anchor="middle" x="179.5" y="-227.5" font-family="Helvetica,sans-Serif" font-size="10.00" fill="grey"> buffer_</text>
</g>
<!-- Node15 -->
<g id="Node000015" class="node">
<title>Node15</title>
<g id="a_Node000015"><a xlink:title=" ">
<polygon fill="white" stroke="#666666" points="843.5,-251 738.5,-251 738.5,-232 843.5,-232 843.5,-251"/>
<text text-anchor="middle" x="791" y="-239" font-family="Helvetica,sans-Serif" font-size="10.00">std::shared_ptr&lt; T &gt;</text>
</a>
</g>
</g>
<!-- Node7&#45;&gt;Node15 -->
<g id="edge20_Node000015_Node000007" class="edge">
<title>Node7&#45;&gt;Node15</title>
<g id="a_edge20_Node000015_Node000007"><a xlink:title=" ">
<path fill="none" stroke="#9a32cd" stroke-dasharray="5,2" d="M96.12,-267.56C199.73,-263.67 595.08,-248.82 738.03,-243.45"/>
<polygon fill="#9a32cd" stroke="#9a32cd" points="96.1,-264.06 86.23,-267.93 96.36,-271.05 96.1,-264.06"/>
</a>
</g>
<text text-anchor="middle" x="407.5" y="-259.5" font-family="Helvetica,sans-Serif" font-size="10.00" fill="grey"> ptr</text>
</g>
<!-- Node18 -->
<g id="Node000018" class="node">
<title>Node18</title>
<g id="a_Node000018"><a xlink:title=" ">
<polygon fill="white" stroke="#666666" points="450,-297 365,-297 365,-278 450,-278 450,-297"/>
<text text-anchor="middle" x="407.5" y="-285" font-family="Helvetica,sans-Serif" font-size="10.00">std::vector&lt; T &gt;</text>
</a>
</g>
</g>
<!-- Node7&#45;&gt;Node18 -->
<g id="edge25_Node000018_Node000007" class="edge">
<title>Node7&#45;&gt;Node18</title>
<g id="a_edge25_Node000018_Node000007"><a xlink:title=" ">
<path fill="none" stroke="#9a32cd" stroke-dasharray="5,2" d="M96.2,-269.93C153.49,-273.17 294.01,-281.13 364.6,-285.13"/>
<polygon fill="#9a32cd" stroke="#9a32cd" points="96.68,-266.45 86.5,-269.38 96.29,-273.44 96.68,-266.45"/>
</a>
</g>
<text text-anchor="middle" x="179.5" y="-278.5" font-family="Helvetica,sans-Serif" font-size="10.00" fill="grey"> elements</text>
</g>
<!-- Node8 -->
<g id="Node000008" class="node">
<title>Node8</title>
<g id="a_Node000008"><a xlink:href="class_harlinn_1_1_common_1_1_core_1_1_basic_string.xhtml" target="_top" xlink:title=" ">
<polygon fill="white" stroke="#666666" points="853.5,-176.5 728.5,-176.5 728.5,-146.5 853.5,-146.5 853.5,-176.5"/>
<text text-anchor="start" x="736.5" y="-164.5" font-family="Helvetica,sans-Serif" font-size="10.00">Harlinn::Common::Core</text>
<text text-anchor="middle" x="791" y="-153.5" font-family="Helvetica,sans-Serif" font-size="10.00">::BasicString&lt; wchar_t &gt;</text>
</a>
</g>
</g>
<!-- Node8&#45;&gt;Node2 -->
<g id="edge7_Node000002_Node000008" class="edge">
<title>Node8&#45;&gt;Node2</title>
<g id="a_edge7_Node000002_Node000008"><a xlink:title=" ">
<path fill="none" stroke="#9a32cd" stroke-dasharray="5,2" d="M854.69,-141.95C858.21,-140.53 861.67,-139.04 865,-137.5 873.51,-133.57 874.54,-130.55 883,-126.5 946.46,-96.14 963.16,-77.5 1033.5,-77.5 1033.5,-77.5 1033.5,-77.5 1459,-77.5 1530.92,-77.5 1609.92,-98.94 1667.2,-118.59"/>
<polygon fill="#9a32cd" stroke="#9a32cd" points="853.52,-138.65 845.44,-145.5 856.03,-145.19 853.52,-138.65"/>
</a>
</g>
<text text-anchor="middle" x="1253.5" y="-80.5" font-family="Helvetica,sans-Serif" font-size="10.00" fill="grey"> id_</text>
</g>
<!-- Node12 -->
<g id="Node000012" class="node">
<title>Node12</title>
<g id="a_Node000012"><a xlink:href="class_harlinn_1_1_common_1_1_core_1_1_doxygen_1_1_title_type.xhtml" target="_top" xlink:title=" ">
<polygon fill="white" stroke="#666666" points="1093.5,-136.5 975.5,-136.5 975.5,-106.5 1093.5,-106.5 1093.5,-136.5"/>
<text text-anchor="start" x="983.5" y="-124.5" font-family="Helvetica,sans-Serif" font-size="10.00">Harlinn::Common::Core</text>
<text text-anchor="middle" x="1034.5" y="-113.5" font-family="Helvetica,sans-Serif" font-size="10.00">::Doxygen::TitleType</text>
</a>
</g>
</g>
<!-- Node8&#45;&gt;Node12 -->
<g id="edge18_Node000012_Node000008" class="edge">
<title>Node8&#45;&gt;Node12</title>
<g id="a_edge18_Node000012_Node000008"><a xlink:title=" ">
<path fill="none" stroke="#9a32cd" stroke-dasharray="5,2" d="M862.37,-143.62C869.32,-142.11 876.28,-140.71 883,-139.5 913.17,-134.07 947.05,-129.85 975.01,-126.87"/>
<polygon fill="#9a32cd" stroke="#9a32cd" points="861.98,-140.12 852.98,-145.72 863.5,-146.95 861.98,-140.12"/>
</a>
</g>
<text text-anchor="middle" x="914.5" y="-142.5" font-family="Helvetica,sans-Serif" font-size="10.00" fill="grey"> text_</text>
</g>
<!-- Node8&#45;&gt;Node19 -->
<g id="edge29_Node000019_Node000008" class="edge">
<title>Node8&#45;&gt;Node19</title>
<g id="a_edge29_Node000019_Node000008"><a xlink:title=" ">
<path fill="none" stroke="#9a32cd" stroke-dasharray="5,2" d="M865.25,-163.37C994.1,-166.67 1259.63,-173.45 1386.5,-176.7"/>
<polygon fill="#9a32cd" stroke="#9a32cd" points="865.56,-159.88 855.48,-163.12 865.38,-166.88 865.56,-159.88"/>
</a>
</g>
<text text-anchor="middle" x="1144.5" y="-174.5" font-family="Helvetica,sans-Serif" font-size="10.00" fill="grey"> id_</text>
</g>
<!-- Node9&#45;&gt;Node8 -->
<g id="edge8_Node000008_Node000009" class="edge">
<title>Node9&#45;&gt;Node8</title>
<g id="a_edge8_Node000008_Node000009"><a xlink:title=" ">
<path fill="none" stroke="#9a32cd" stroke-dasharray="5,2" d="M353.51,-203.58C436.1,-199.63 577.96,-191.31 699,-176.5 708.54,-175.33 718.6,-173.89 728.42,-172.36"/>
<polygon fill="#9a32cd" stroke="#9a32cd" points="353.59,-200.08 343.77,-204.04 353.92,-207.07 353.59,-200.08"/>
</a>
</g>
<text text-anchor="middle" x="527" y="-199.5" font-family="Helvetica,sans-Serif" font-size="10.00" fill="grey"> data_</text>
</g>
<!-- Node10 -->
<g id="Node000010" class="node">
<title>Node10</title>
<g id="a_Node000010"><a xlink:href="class_harlinn_1_1_common_1_1_core_1_1_basic_string.xhtml" target="_top" xlink:title="This is a reference counted string class.">
<polygon fill="white" stroke="#666666" points="586,-174.5 468,-174.5 468,-144.5 586,-144.5 586,-174.5"/>
<text text-anchor="start" x="476" y="-162.5" font-family="Helvetica,sans-Serif" font-size="10.00">Harlinn::Common::Core</text>
<text text-anchor="middle" x="527" y="-151.5" font-family="Helvetica,sans-Serif" font-size="10.00">::BasicString&lt; T &gt;</text>
</a>
</g>
</g>
<!-- Node9&#45;&gt;Node10 -->
<g id="edge11_Node000010_Node000009" class="edge">
<title>Node9&#45;&gt;Node10</title>
<g id="a_edge11_Node000010_Node000009"><a xlink:title=" ">
<path fill="none" stroke="#9a32cd" stroke-dasharray="5,2" d="M351.92,-188.4C356.33,-187.37 360.72,-186.4 365,-185.5 398.81,-178.4 436.96,-172.17 467.63,-167.58"/>
<polygon fill="#9a32cd" stroke="#9a32cd" points="351.31,-184.94 342.4,-190.67 352.94,-191.75 351.31,-184.94"/>
</a>
</g>
<text text-anchor="middle" x="407.5" y="-188.5" font-family="Helvetica,sans-Serif" font-size="10.00" fill="grey"> data_</text>
</g>
<!-- Node10&#45;&gt;Node8 -->
<g id="edge10_Node000008_Node000010" class="edge">
<title>Node10&#45;&gt;Node8</title>
<g id="a_edge10_Node000008_Node000010"><a xlink:title=" ">
<path fill="none" stroke="orange" stroke-dasharray="5,2" d="M597.89,-160.03C638.4,-160.34 688.97,-160.73 728.06,-161.03"/>
<polygon fill="orange" stroke="orange" points="598.01,-156.53 587.99,-159.96 597.96,-163.53 598.01,-156.53"/>
</a>
</g>
<text text-anchor="middle" x="651.5" y="-164.5" font-family="Helvetica,sans-Serif" font-size="10.00" fill="grey"> &lt; wchar_t &gt;</text>
</g>
<!-- Node11 -->
<g id="Node000011" class="node">
<title>Node11</title>
<g id="a_Node000011"><a xlink:title=" ">
<polygon fill="white" stroke="#666666" points="1323,-143 1184,-143 1184,-124 1323,-124 1323,-143"/>
<text text-anchor="middle" x="1253.5" y="-131" font-family="Helvetica,sans-Serif" font-size="10.00">std::shared_ptr&lt; TitleType &gt;</text>
</a>
</g>
</g>
<!-- Node11&#45;&gt;Node2 -->
<g id="edge12_Node000002_Node000011" class="edge">
<title>Node11&#45;&gt;Node2</title>
<g id="a_edge12_Node000002_Node000011"><a xlink:title=" ">
<path fill="none" stroke="#9a32cd" stroke-dasharray="5,2" d="M1334.5,-132.8C1351.81,-132.67 1370.02,-132.56 1387,-132.5 1450.11,-132.26 1465.94,-129.92 1529,-132.5 1572.74,-134.29 1621.27,-138.08 1661.54,-141.72"/>
<polygon fill="#9a32cd" stroke="#9a32cd" points="1334.76,-129.3 1324.78,-132.87 1334.81,-136.3 1334.76,-129.3"/>
</a>
</g>
<text text-anchor="middle" x="1458" y="-135.5" font-family="Helvetica,sans-Serif" font-size="10.00" fill="grey"> title_</text>
</g>
<!-- Node11&#45;&gt;Node19 -->
<g id="edge30_Node000019_Node000011" class="edge">
<title>Node11&#45;&gt;Node19</title>
<g id="a_edge30_Node000019_Node000011"><a xlink:title=" ">
<path fill="none" stroke="#9a32cd" stroke-dasharray="5,2" d="M1318.04,-145.71C1334.65,-149.06 1352.53,-152.79 1369,-156.5 1374.84,-157.82 1380.88,-159.22 1386.94,-160.67"/>
<polygon fill="#9a32cd" stroke="#9a32cd" points="1318.74,-142.28 1308.25,-143.76 1317.37,-149.15 1318.74,-142.28"/>
</a>
</g>
<text text-anchor="middle" x="1355" y="-159.5" font-family="Helvetica,sans-Serif" font-size="10.00" fill="grey"> title_</text>
</g>
<!-- Node12&#45;&gt;Node11 -->
<g id="edge13_Node000011_Node000012" class="edge">
<title>Node12&#45;&gt;Node11</title>
<g id="a_edge13_Node000011_Node000012"><a xlink:title=" ">
<path fill="none" stroke="#9a32cd" stroke-dasharray="5,2" d="M1105.07,-121.28C1124.78,-121.57 1146.25,-122.21 1166,-123.5 1171.73,-123.87 1177.67,-124.36 1183.62,-124.91"/>
<polygon fill="#9a32cd" stroke="#9a32cd" points="1105.24,-117.78 1095.21,-121.17 1105.16,-124.78 1105.24,-117.78"/>
</a>
</g>
<text text-anchor="middle" x="1144.5" y="-126.5" font-family="Helvetica,sans-Serif" font-size="10.00" fill="grey"> ptr</text>
</g>
<!-- Node13&#45;&gt;Node12 -->
<g id="edge14_Node000012_Node000013" class="edge">
<title>Node13&#45;&gt;Node12</title>
<g id="a_edge14_Node000012_Node000013"><a xlink:title=" ">
<path fill="none" stroke="#63b8ff" d="M876.79,-109.17C909.38,-111.73 945.81,-114.6 975.34,-116.92"/>
<polygon fill="#63b8ff" stroke="#63b8ff" points="877.19,-105.69 866.95,-108.4 876.65,-112.67 877.19,-105.69"/>
</a>
</g>
</g>
<!-- Node14&#45;&gt;Node13 -->
<g id="edge16_Node000013_Node000014" class="edge">
<title>Node14&#45;&gt;Node13</title>
<g id="a_edge16_Node000013_Node000014"><a xlink:title=" ">
<path fill="none" stroke="orange" stroke-dasharray="5,2" d="M597.63,-70.24C628.78,-72.13 665.87,-75.27 699,-80.5 704.78,-81.41 710.73,-82.5 716.7,-83.7"/>
<polygon fill="orange" stroke="orange" points="598.14,-66.77 587.95,-69.69 597.74,-73.76 598.14,-66.77"/>
</a>
</g>
<text text-anchor="start" x="604" y="-94.5" font-family="Helvetica,sans-Serif" font-size="10.00" fill="grey"> &lt; Doxygen::DoxType</text>
<text text-anchor="middle" x="651.5" y="-83.5" font-family="Helvetica,sans-Serif" font-size="10.00" fill="grey">::TitleType &gt;</text>
</g>
<!-- Node15&#45;&gt;Node11 -->
<g id="edge19_Node000011_Node000015" class="edge">
<title>Node15&#45;&gt;Node11</title>
<g id="a_edge19_Node000011_Node000015"><a xlink:title=" ">
<path fill="none" stroke="orange" stroke-dasharray="5,2" d="M844.17,-228.81C909.34,-213.01 1024.31,-185.33 1123,-162.5 1150.95,-156.04 1182.34,-149 1207.22,-143.48"/>
<polygon fill="orange" stroke="orange" points="843.34,-225.41 834.45,-231.17 844.99,-232.21 843.34,-225.41"/>
</a>
</g>
<text text-anchor="middle" x="1034.5" y="-201.5" font-family="Helvetica,sans-Serif" font-size="10.00" fill="grey"> &lt; TitleType &gt;</text>
</g>
<!-- Node17 -->
<g id="Node000017" class="node">
<title>Node17</title>
<g id="a_Node000017"><a xlink:title=" ">
<polygon fill="white" stroke="#666666" points="1105,-259 964,-259 964,-240 1105,-240 1105,-259"/>
<text text-anchor="middle" x="1034.5" y="-247" font-family="Helvetica,sans-Serif" font-size="10.00">std::shared_ptr&lt; ParaType &gt;</text>
</a>
</g>
</g>
<!-- Node15&#45;&gt;Node17 -->
<g id="edge23_Node000017_Node000015" class="edge">
<title>Node15&#45;&gt;Node17</title>
<g id="a_edge23_Node000017_Node000015"><a xlink:title=" ">
<path fill="none" stroke="orange" stroke-dasharray="5,2" d="M855.27,-243.6C888.64,-244.7 929.64,-246.06 963.91,-247.19"/>
<polygon fill="orange" stroke="orange" points="855.43,-240.1 845.32,-243.27 855.2,-247.1 855.43,-240.1"/>
</a>
</g>
<text text-anchor="middle" x="914.5" y="-248.5" font-family="Helvetica,sans-Serif" font-size="10.00" fill="grey"> &lt; ParaType &gt;</text>
</g>
<!-- Node16 -->
<g id="Node000016" class="node">
<title>Node16</title>
<g id="a_Node000016"><a xlink:title=" ">
<polygon fill="white" stroke="#666666" points="1313,-271.5 1194,-271.5 1194,-241.5 1313,-241.5 1313,-271.5"/>
<text text-anchor="start" x="1202" y="-259.5" font-family="Helvetica,sans-Serif" font-size="10.00">std::vector&lt; std::shared</text>
<text text-anchor="middle" x="1253.5" y="-248.5" font-family="Helvetica,sans-Serif" font-size="10.00">_ptr&lt; ParaType &gt; &gt;</text>
</a>
</g>
</g>
<!-- Node16&#45;&gt;Node2 -->
<g id="edge21_Node000002_Node000016" class="edge">
<title>Node16&#45;&gt;Node2</title>
<g id="a_edge21_Node000002_Node000016"><a xlink:title=" ">
<path fill="none" stroke="#9a32cd" stroke-dasharray="5,2" d="M1324.48,-250.88C1403.34,-243.32 1534.78,-227.02 1644,-195.5 1656.24,-191.97 1668.95,-187.36 1681.11,-182.44"/>
<polygon fill="#9a32cd" stroke="#9a32cd" points="1324.37,-247.37 1314.74,-251.79 1325.02,-254.34 1324.37,-247.37"/>
</a>
</g>
<text text-anchor="middle" x="1458" y="-246.5" font-family="Helvetica,sans-Serif" font-size="10.00" fill="grey"> para_</text>
</g>
<!-- Node16&#45;&gt;Node19 -->
<g id="edge31_Node000019_Node000016" class="edge">
<title>Node16&#45;&gt;Node19</title>
<g id="a_edge31_Node000019_Node000016"><a xlink:title=" ">
<path fill="none" stroke="#9a32cd" stroke-dasharray="5,2" d="M1294.59,-236.13C1309.03,-229.15 1325.57,-221.58 1341,-215.5 1355.55,-209.76 1371.38,-204.25 1386.54,-199.31"/>
<polygon fill="#9a32cd" stroke="#9a32cd" points="1293.29,-232.87 1285.85,-240.41 1296.37,-239.15 1293.29,-232.87"/>
</a>
</g>
<text text-anchor="middle" x="1355" y="-218.5" font-family="Helvetica,sans-Serif" font-size="10.00" fill="grey"> para_</text>
</g>
<!-- Node17&#45;&gt;Node16 -->
<g id="edge22_Node000016_Node000017" class="edge">
<title>Node17&#45;&gt;Node16</title>
<g id="a_edge22_Node000016_Node000017"><a xlink:title=" ">
<path fill="none" stroke="#9a32cd" stroke-dasharray="5,2" d="M1116.56,-252.11C1142.16,-252.94 1169.95,-253.84 1193.69,-254.6"/>
<polygon fill="#9a32cd" stroke="#9a32cd" points="1116.98,-248.63 1106.87,-251.8 1116.75,-255.62 1116.98,-248.63"/>
</a>
</g>
<text text-anchor="middle" x="1144.5" y="-256.5" font-family="Helvetica,sans-Serif" font-size="10.00" fill="grey"> elements</text>
</g>
<!-- Node18&#45;&gt;Node16 -->
<g id="edge24_Node000016_Node000018" class="edge">
<title>Node18&#45;&gt;Node16</title>
<g id="a_edge24_Node000016_Node000018"><a xlink:title=" ">
<path fill="none" stroke="orange" stroke-dasharray="5,2" d="M461.75,-287.5C510.78,-287.5 585.54,-287.5 650.5,-287.5 650.5,-287.5 650.5,-287.5 1035.5,-287.5 1089.54,-287.5 1150.4,-277.96 1193.88,-269.47"/>
<polygon fill="orange" stroke="orange" points="461.98,-284 451.98,-287.5 461.98,-291 461.98,-284"/>
</a>
</g>
<text text-anchor="start" x="749" y="-301.5" font-family="Helvetica,sans-Serif" font-size="10.00" fill="grey"> &lt; std::shared_ptr&lt;</text>
<text text-anchor="middle" x="791" y="-290.5" font-family="Helvetica,sans-Serif" font-size="10.00" fill="grey"> ParaType &gt; &gt;</text>
</g>
<!-- Node19&#45;&gt;Node2 -->
<g id="edge26_Node000002_Node000019" class="edge">
<title>Node19&#45;&gt;Node2</title>
<g id="a_edge26_Node000002_Node000019"><a xlink:title=" ">
<path fill="none" stroke="orange" stroke-dasharray="5,2" d="M1540.91,-170.58C1578.61,-166.93 1623.38,-162.6 1661.67,-158.9"/>
<polygon fill="orange" stroke="orange" points="1540.57,-167.09 1530.96,-171.54 1541.25,-174.06 1540.57,-167.09"/>
</a>
</g>
<text text-anchor="start" x="1547" y="-183.5" font-family="Helvetica,sans-Serif" font-size="10.00" fill="grey"> &lt; Doxygen::DoxType</text>
<text text-anchor="middle" x="1595.5" y="-172.5" font-family="Helvetica,sans-Serif" font-size="10.00" fill="grey">::DocInternalS6Type &gt;</text>
</g>
</g>
</svg>
