<?xml version="1.0" encoding="UTF-8" standalone="no"?>
<!DOCTYPE svg PUBLIC "-//W3C//DTD SVG 1.1//EN"
 "http://www.w3.org/Graphics/SVG/1.1/DTD/svg11.dtd">
<!-- Generated by graphviz version 7.0.1 (20221109.1506)
 -->
<!-- Title: Harlinn::Common::Core::IO::Sockets::Server::TcpListener&lt; DerivedT, ConnectionHandlerT &gt; Pages: 1 -->
<svg width="1243pt" height="84pt"
 viewBox="0.00 0.00 1243.00 83.50" xmlns="http://www.w3.org/2000/svg" xmlns:xlink="http://www.w3.org/1999/xlink">
<g id="graph0" class="graph" transform="scale(1 1) rotate(0) translate(4 79.5)">
<title>Harlinn::Common::Core::IO::Sockets::Server::TcpListener&lt; DerivedT, ConnectionHandlerT &gt;</title>
<!-- Node1 -->
<g id="Node000001" class="node">
<title>Node1</title>
<g id="a_Node000001"><a xlink:title=" ">
<polygon fill="#999999" stroke="#666666" points="610,-57.5 488,-57.5 488,-5.5 610,-5.5 610,-57.5"/>
<text text-anchor="start" x="496" y="-45.5" font-family="Helvetica,sans-Serif" font-size="10.00">Harlinn::Common::Core</text>
<text text-anchor="start" x="496" y="-34.5" font-family="Helvetica,sans-Serif" font-size="10.00">::IO::Sockets::Server</text>
<text text-anchor="start" x="496" y="-23.5" font-family="Helvetica,sans-Serif" font-size="10.00">::TcpListener&lt; DerivedT,</text>
<text text-anchor="middle" x="549" y="-12.5" font-family="Helvetica,sans-Serif" font-size="10.00"> ConnectionHandlerT &gt;</text>
</a>
</g>
</g>
<!-- Node5 -->
<g id="Node000005" class="node">
<title>Node5</title>
<g id="a_Node000005"><a xlink:href="class_harlinn_1_1_common_1_1_core_1_1_i_o_1_1_sockets_1_1_server_1_1_tcp_listener.html" target="_top" xlink:title=" ">
<polygon fill="white" stroke="#666666" points="1036,-63 806,-63 806,0 1036,0 1036,-63"/>
<text text-anchor="start" x="814" y="-51" font-family="Helvetica,sans-Serif" font-size="10.00">Harlinn::Common::Core</text>
<text text-anchor="start" x="814" y="-40" font-family="Helvetica,sans-Serif" font-size="10.00">::IO::Sockets::Server</text>
<text text-anchor="start" x="814" y="-29" font-family="Helvetica,sans-Serif" font-size="10.00">::TcpListener&lt; TcpSimpleListener</text>
<text text-anchor="start" x="814" y="-18" font-family="Helvetica,sans-Serif" font-size="10.00">&lt; ProtocolT &gt;, TcpSimpleConnectionHandler</text>
<text text-anchor="middle" x="921" y="-7" font-family="Helvetica,sans-Serif" font-size="10.00">&lt; TcpSimpleListener&lt; ProtocolT &gt;, ProtocolT &gt; &gt;</text>
</a>
</g>
</g>
<!-- Node1&#45;&gt;Node5 -->
<g id="edge4_Node000001_Node000005" class="edge">
<title>Node1&#45;&gt;Node5</title>
<g id="a_edge4_Node000001_Node000005"><a xlink:title=" ">
<path fill="none" stroke="orange" stroke-dasharray="5,2" d="M621.75,-31.5C673.91,-31.5 745.57,-31.5 805.58,-31.5"/>
<polygon fill="orange" stroke="orange" points="621.78,-28 611.78,-31.5 621.78,-35 621.78,-28"/>
</a>
</g>
<text text-anchor="start" x="628" y="-67.5" font-family="Helvetica,sans-Serif" font-size="10.00" fill="grey"> &lt; TcpSimpleListener</text>
<text text-anchor="start" x="628" y="-56.5" font-family="Helvetica,sans-Serif" font-size="10.00" fill="grey">&lt; ProtocolT &gt;, TcpSimpleConnection</text>
<text text-anchor="start" x="628" y="-45.5" font-family="Helvetica,sans-Serif" font-size="10.00" fill="grey">Handler&lt; TcpSimpleListener&lt;</text>
<text text-anchor="middle" x="708" y="-34.5" font-family="Helvetica,sans-Serif" font-size="10.00" fill="grey"> ProtocolT &gt;, ProtocolT &gt; &gt;</text>
</g>
<!-- Node2 -->
<g id="Node000002" class="node">
<title>Node2</title>
<g id="a_Node000002"><a xlink:href="class_harlinn_1_1_common_1_1_core_1_1_i_o_1_1_sockets_1_1_server_1_1_tcp_listener_base.html" target="_top" xlink:title=" ">
<polygon fill="white" stroke="#666666" points="451,-52 301,-52 301,-11 451,-11 451,-52"/>
<text text-anchor="start" x="309" y="-40" font-family="Helvetica,sans-Serif" font-size="10.00">Harlinn::Common::Core</text>
<text text-anchor="start" x="309" y="-29" font-family="Helvetica,sans-Serif" font-size="10.00">::IO::Sockets::Server</text>
<text text-anchor="middle" x="376" y="-18" font-family="Helvetica,sans-Serif" font-size="10.00">::TcpListenerBase&lt; DerivedT &gt;</text>
</a>
</g>
</g>
<!-- Node2&#45;&gt;Node1 -->
<g id="edge1_Node000001_Node000002" class="edge">
<title>Node2&#45;&gt;Node1</title>
<g id="a_edge1_Node000001_Node000002"><a xlink:title=" ">
<path fill="none" stroke="#63b8ff" d="M462.49,-31.5C470.94,-31.5 479.39,-31.5 487.5,-31.5"/>
<polygon fill="#63b8ff" stroke="#63b8ff" points="462.52,-28 452.52,-31.5 462.52,-35 462.52,-28"/>
</a>
</g>
</g>
<!-- Node3 -->
<g id="Node000003" class="node">
<title>Node3</title>
<g id="a_Node000003"><a xlink:href="class_harlinn_1_1_common_1_1_core_1_1_i_o_1_1_sockets_1_1_socket_handler.html" target="_top" xlink:title="Classes derived from this template are used to implement asynchronous operations on sockets.">
<polygon fill="white" stroke="#666666" points="264,-52 120,-52 120,-11 264,-11 264,-52"/>
<text text-anchor="start" x="128" y="-40" font-family="Helvetica,sans-Serif" font-size="10.00">Harlinn::Common::Core</text>
<text text-anchor="start" x="128" y="-29" font-family="Helvetica,sans-Serif" font-size="10.00">::IO::Sockets::SocketHandler</text>
<text text-anchor="middle" x="192" y="-18" font-family="Helvetica,sans-Serif" font-size="10.00">&lt; DerivedT &gt;</text>
</a>
</g>
</g>
<!-- Node3&#45;&gt;Node2 -->
<g id="edge2_Node000002_Node000003" class="edge">
<title>Node3&#45;&gt;Node2</title>
<g id="a_edge2_Node000002_Node000003"><a xlink:title=" ">
<path fill="none" stroke="#63b8ff" d="M275.91,-31.5C284.11,-31.5 292.4,-31.5 300.5,-31.5"/>
<polygon fill="#63b8ff" stroke="#63b8ff" points="275.92,-28 265.92,-31.5 275.92,-35 275.92,-28"/>
</a>
</g>
</g>
<!-- Node4 -->
<g id="Node000004" class="node">
<title>Node4</title>
<g id="a_Node000004"><a xlink:title=" ">
<polygon fill="white" stroke="#666666" points="83,-41 0,-41 0,-22 83,-22 83,-41"/>
<text text-anchor="middle" x="41.5" y="-29" font-family="Helvetica,sans-Serif" font-size="10.00">ContextHandler</text>
</a>
</g>
</g>
<!-- Node4&#45;&gt;Node3 -->
<g id="edge3_Node000003_Node000004" class="edge">
<title>Node4&#45;&gt;Node3</title>
<g id="a_edge3_Node000003_Node000004"><a xlink:title=" ">
<path fill="none" stroke="#63b8ff" d="M94.91,-31.5C102.93,-31.5 111.32,-31.5 119.67,-31.5"/>
<polygon fill="#63b8ff" stroke="#63b8ff" points="94.98,-28 84.98,-31.5 94.98,-35 94.98,-28"/>
</a>
</g>
</g>
<!-- Node6 -->
<g id="Node000006" class="node">
<title>Node6</title>
<g id="a_Node000006"><a xlink:href="class_harlinn_1_1_common_1_1_core_1_1_i_o_1_1_sockets_1_1_server_1_1_tcp_simple_listener.html" target="_top" xlink:title=" ">
<polygon fill="white" stroke="#666666" points="1235,-52 1073,-52 1073,-11 1235,-11 1235,-52"/>
<text text-anchor="start" x="1081" y="-40" font-family="Helvetica,sans-Serif" font-size="10.00">Harlinn::Common::Core</text>
<text text-anchor="start" x="1081" y="-29" font-family="Helvetica,sans-Serif" font-size="10.00">::IO::Sockets::Server</text>
<text text-anchor="middle" x="1154" y="-18" font-family="Helvetica,sans-Serif" font-size="10.00">::TcpSimpleListener&lt; ProtocolT &gt;</text>
</a>
</g>
</g>
<!-- Node5&#45;&gt;Node6 -->
<g id="edge5_Node000005_Node000006" class="edge">
<title>Node5&#45;&gt;Node6</title>
<g id="a_edge5_Node000005_Node000006"><a xlink:title=" ">
<path fill="none" stroke="#63b8ff" d="M1047.96,-31.5C1056.35,-31.5 1064.67,-31.5 1072.74,-31.5"/>
<polygon fill="#63b8ff" stroke="#63b8ff" points="1048,-28 1038,-31.5 1048,-35 1048,-28"/>
</a>
</g>
</g>
</g>
</svg>
