<?xml version="1.0" encoding="UTF-8" standalone="no"?>
<!DOCTYPE svg PUBLIC "-//W3C//DTD SVG 1.1//EN"
 "http://www.w3.org/Graphics/SVG/1.1/DTD/svg11.dtd">
<!-- Generated by graphviz version 7.0.1 (20221109.1506)
 -->
<!-- Title: Harlinn::Common::Core::Security::AccessDeniedObjectAccessControlEntry Pages: 1 -->
<svg width="1050pt" height="79pt"
 viewBox="0.00 0.00 1050.00 78.50" xmlns="http://www.w3.org/2000/svg" xmlns:xlink="http://www.w3.org/1999/xlink">
<g id="graph0" class="graph" transform="scale(1 1) rotate(0) translate(4 74.5)">
<title>Harlinn::Common::Core::Security::AccessDeniedObjectAccessControlEntry</title>
<!-- Node1 -->
<g id="Node000001" class="node">
<title>Node1</title>
<g id="a_Node000001"><a xlink:title=" ">
<polygon fill="#999999" stroke="#666666" points="1042,-65 886,-65 886,-24 1042,-24 1042,-65"/>
<text text-anchor="start" x="894" y="-53" font-family="Helvetica,sans-Serif" font-size="10.00">Harlinn::Common::Core</text>
<text text-anchor="start" x="894" y="-42" font-family="Helvetica,sans-Serif" font-size="10.00">::Security::AccessDeniedObject</text>
<text text-anchor="middle" x="964" y="-31" font-family="Helvetica,sans-Serif" font-size="10.00">AccessControlEntry</text>
</a>
</g>
</g>
<!-- Node2 -->
<g id="Node000002" class="node">
<title>Node2</title>
<g id="a_Node000002"><a xlink:href="class_harlinn_1_1_common_1_1_core_1_1_security_1_1_object_access_control_entry_base.xhtml" target="_top" xlink:title=" ">
<polygon fill="white" stroke="#666666" points="849,-70.5 653,-70.5 653,-18.5 849,-18.5 849,-70.5"/>
<text text-anchor="start" x="661" y="-58.5" font-family="Helvetica,sans-Serif" font-size="10.00">Harlinn::Common::Core</text>
<text text-anchor="start" x="661" y="-47.5" font-family="Helvetica,sans-Serif" font-size="10.00">::Security::ObjectAccessControl</text>
<text text-anchor="start" x="661" y="-36.5" font-family="Helvetica,sans-Serif" font-size="10.00">EntryBase&lt; ACCESS_DENIED_OBJECT</text>
<text text-anchor="middle" x="751" y="-25.5" font-family="Helvetica,sans-Serif" font-size="10.00">_ACE, AccessMask &gt;</text>
</a>
</g>
</g>
<!-- Node2&#45;&gt;Node1 -->
<g id="edge1_Node000001_Node000002" class="edge">
<title>Node2&#45;&gt;Node1</title>
<g id="a_edge1_Node000001_Node000002"><a xlink:title=" ">
<path fill="none" stroke="#63b8ff" d="M860.83,-44.5C869.16,-44.5 877.47,-44.5 885.54,-44.5"/>
<polygon fill="#63b8ff" stroke="#63b8ff" points="860.98,-41 850.98,-44.5 860.98,-48 860.98,-41"/>
</a>
</g>
</g>
<!-- Node3 -->
<g id="Node000003" class="node">
<title>Node3</title>
<g id="a_Node000003"><a xlink:href="class_harlinn_1_1_common_1_1_core_1_1_security_1_1_access_control_entry.xhtml" target="_top" xlink:title="Base class for the various ACE wrappers.">
<polygon fill="white" stroke="#666666" points="272,-59.5 120,-59.5 120,-29.5 272,-29.5 272,-59.5"/>
<text text-anchor="start" x="128" y="-47.5" font-family="Helvetica,sans-Serif" font-size="10.00">Harlinn::Common::Core</text>
<text text-anchor="middle" x="196" y="-36.5" font-family="Helvetica,sans-Serif" font-size="10.00">::Security::AccessControlEntry</text>
</a>
</g>
</g>
<!-- Node3&#45;&gt;Node2 -->
<g id="edge2_Node000002_Node000003" class="edge">
<title>Node3&#45;&gt;Node2</title>
<g id="a_edge2_Node000002_Node000003"><a xlink:title=" ">
<path fill="none" stroke="#63b8ff" d="M283.53,-50.38C371.91,-55.52 513.08,-61.32 635,-55.5 640.81,-55.22 646.78,-54.87 652.8,-54.45"/>
<polygon fill="#63b8ff" stroke="#63b8ff" points="283.92,-46.9 273.73,-49.8 283.5,-53.89 283.92,-46.9"/>
</a>
</g>
</g>
<!-- Node5 -->
<g id="Node000005" class="node">
<title>Node5</title>
<g id="a_Node000005"><a xlink:href="class_harlinn_1_1_common_1_1_core_1_1_security_1_1_object_access_control_entry_base.xhtml" target="_top" xlink:title=" ">
<polygon fill="white" stroke="#666666" points="480,-41 309,-41 309,0 480,0 480,-41"/>
<text text-anchor="start" x="317" y="-29" font-family="Helvetica,sans-Serif" font-size="10.00">Harlinn::Common::Core</text>
<text text-anchor="start" x="317" y="-18" font-family="Helvetica,sans-Serif" font-size="10.00">::Security::ObjectAccessControl</text>
<text text-anchor="middle" x="394.5" y="-7" font-family="Helvetica,sans-Serif" font-size="10.00">EntryBase&lt; AceT, AccessMaskT &gt;</text>
</a>
</g>
</g>
<!-- Node3&#45;&gt;Node5 -->
<g id="edge5_Node000005_Node000003" class="edge">
<title>Node3&#45;&gt;Node5</title>
<g id="a_edge5_Node000005_Node000003"><a xlink:title=" ">
<path fill="none" stroke="#63b8ff" d="M283.69,-33.91C292.03,-32.89 300.48,-31.86 308.79,-30.85"/>
<polygon fill="#63b8ff" stroke="#63b8ff" points="283.41,-30.42 273.91,-35.11 284.26,-37.37 283.41,-30.42"/>
</a>
</g>
</g>
<!-- Node4 -->
<g id="Node000004" class="node">
<title>Node4</title>
<g id="a_Node000004"><a xlink:title=" ">
<polygon fill="white" stroke="#666666" points="83,-54 0,-54 0,-35 83,-35 83,-54"/>
<text text-anchor="middle" x="41.5" y="-42" font-family="Helvetica,sans-Serif" font-size="10.00">ACE_HEADER</text>
</a>
</g>
</g>
<!-- Node4&#45;&gt;Node3 -->
<g id="edge3_Node000003_Node000004" class="edge">
<title>Node4&#45;&gt;Node3</title>
<g id="a_edge3_Node000003_Node000004"><a xlink:title=" ">
<path fill="none" stroke="#8b1a1a" d="M94.77,-44.5C102.78,-44.5 111.18,-44.5 119.57,-44.5"/>
<polygon fill="#8b1a1a" stroke="#8b1a1a" points="94.88,-41 84.88,-44.5 94.88,-48 94.88,-41"/>
</a>
</g>
</g>
<!-- Node5&#45;&gt;Node2 -->
<g id="edge4_Node000002_Node000005" class="edge">
<title>Node5&#45;&gt;Node2</title>
<g id="a_edge4_Node000002_Node000005"><a xlink:title=" ">
<path fill="none" stroke="orange" stroke-dasharray="5,2" d="M491.57,-24.81C535.35,-27.01 587.82,-29.96 635,-33.5 640.8,-33.93 646.76,-34.41 652.77,-34.92"/>
<polygon fill="orange" stroke="orange" points="492.02,-21.33 481.86,-24.33 491.67,-28.32 492.02,-21.33"/>
</a>
</g>
<text text-anchor="start" x="498" y="-47.5" font-family="Helvetica,sans-Serif" font-size="10.00" fill="grey"> &lt; ACCESS_DENIED_OBJECT</text>
<text text-anchor="middle" x="566.5" y="-36.5" font-family="Helvetica,sans-Serif" font-size="10.00" fill="grey">_ACE, AccessMask &gt;</text>
</g>
</g>
</svg>
