<?xml version="1.0" encoding="UTF-8" standalone="no"?>
<!DOCTYPE svg PUBLIC "-//W3C//DTD SVG 1.1//EN"
 "http://www.w3.org/Graphics/SVG/1.1/DTD/svg11.dtd">
<!-- Generated by graphviz version 7.0.1 (20221109.1506)
 -->
<!-- Title: Harlinn::Windows::HeaderControlWindowClass Pages: 1 -->
<svg width="407pt" height="515pt"
 viewBox="0.00 0.00 407.00 515.00" xmlns="http://www.w3.org/2000/svg" xmlns:xlink="http://www.w3.org/1999/xlink">
<g id="graph0" class="graph" transform="scale(1 1) rotate(0) translate(4 511)">
<title>Harlinn::Windows::HeaderControlWindowClass</title>
<!-- Node1 -->
<g id="Node000001" class="node">
<title>Node1</title>
<g id="a_Node000001"><a xlink:title=" ">
<polygon fill="#999999" stroke="#666666" points="129,-30 0,-30 0,0 129,0 129,-30"/>
<text text-anchor="start" x="8" y="-18" font-family="Helvetica,sans-Serif" font-size="10.00">Harlinn::Windows::Header</text>
<text text-anchor="middle" x="64.5" y="-7" font-family="Helvetica,sans-Serif" font-size="10.00">ControlWindowClass</text>
</a>
</g>
</g>
<!-- Node2 -->
<g id="Node000002" class="node">
<title>Node2</title>
<g id="a_Node000002"><a xlink:href="class_harlinn_1_1_windows_1_1_window_class.xhtml" target="_top" xlink:title=" ">
<polygon fill="white" stroke="#666666" points="219,-97 86,-97 86,-67 219,-67 219,-97"/>
<text text-anchor="start" x="94" y="-85" font-family="Helvetica,sans-Serif" font-size="10.00">Harlinn::Windows::Window</text>
<text text-anchor="middle" x="152.5" y="-74" font-family="Helvetica,sans-Serif" font-size="10.00">Class</text>
</a>
</g>
</g>
<!-- Node2&#45;&gt;Node1 -->
<g id="edge1_Node000001_Node000002" class="edge">
<title>Node2&#45;&gt;Node1</title>
<g id="a_edge1_Node000001_Node000002"><a xlink:title=" ">
<path fill="none" stroke="#63b8ff" d="M123.9,-59.88C110.84,-50.23 95.7,-39.05 83.98,-30.39"/>
<polygon fill="#63b8ff" stroke="#63b8ff" points="121.63,-62.55 131.75,-65.68 125.79,-56.92 121.63,-62.55"/>
</a>
</g>
</g>
<!-- Node3 -->
<g id="Node000003" class="node">
<title>Node3</title>
<g id="a_Node000003"><a xlink:href="class_harlinn_1_1_common_1_1_core_1_1_basic_string.xhtml" target="_top" xlink:title=" ">
<polygon fill="white" stroke="#666666" points="399,-236 274,-236 274,-206 399,-206 399,-236"/>
<text text-anchor="start" x="282" y="-224" font-family="Helvetica,sans-Serif" font-size="10.00">Harlinn::Common::Core</text>
<text text-anchor="middle" x="336.5" y="-213" font-family="Helvetica,sans-Serif" font-size="10.00">::BasicString&lt; wchar_t &gt;</text>
</a>
</g>
</g>
<!-- Node3&#45;&gt;Node2 -->
<g id="edge2_Node000002_Node000003" class="edge">
<title>Node3&#45;&gt;Node2</title>
<g id="a_edge2_Node000002_Node000003"><a xlink:title=" ">
<path fill="none" stroke="#9a32cd" stroke-dasharray="5,2" d="M311.81,-197.98C296.98,-185.04 277.54,-168.62 259.5,-155 231.45,-133.82 197.56,-111.54 175.54,-97.47"/>
<polygon fill="#9a32cd" stroke="#9a32cd" points="309.44,-200.55 319.26,-204.52 314.06,-195.29 309.44,-200.55"/>
</a>
</g>
<text text-anchor="middle" x="263.5" y="-129" font-family="Helvetica,sans-Serif" font-size="10.00" fill="grey"> menuName_</text>
<text text-anchor="middle" x="263.5" y="-118" font-family="Helvetica,sans-Serif" font-size="10.00" fill="grey">name_</text>
</g>
<!-- Node4 -->
<g id="Node000004" class="node">
<title>Node4</title>
<g id="a_Node000004"><a xlink:href="struct_harlinn_1_1_common_1_1_core_1_1_internal_1_1_data.xhtml" target="_top" xlink:title=" ">
<polygon fill="white" stroke="#666666" points="303.5,-441 185.5,-441 185.5,-411 303.5,-411 303.5,-441"/>
<text text-anchor="start" x="193.5" y="-429" font-family="Helvetica,sans-Serif" font-size="10.00">Harlinn::Common::Core</text>
<text text-anchor="middle" x="244.5" y="-418" font-family="Helvetica,sans-Serif" font-size="10.00">::Internal::Data&lt; T &gt;</text>
</a>
</g>
</g>
<!-- Node4&#45;&gt;Node3 -->
<g id="edge3_Node000003_Node000004" class="edge">
<title>Node4&#45;&gt;Node3</title>
<g id="a_edge3_Node000003_Node000004"><a xlink:title=" ">
<path fill="none" stroke="#9a32cd" stroke-dasharray="5,2" d="M255.67,-400.36C275.1,-357.48 314.54,-270.46 330.04,-236.26"/>
<polygon fill="#9a32cd" stroke="#9a32cd" points="252.53,-398.79 251.59,-409.35 258.91,-401.68 252.53,-398.79"/>
</a>
</g>
<text text-anchor="middle" x="298.5" y="-346.5" font-family="Helvetica,sans-Serif" font-size="10.00" fill="grey"> data_</text>
</g>
<!-- Node6 -->
<g id="Node000006" class="node">
<title>Node6</title>
<g id="a_Node000006"><a xlink:href="class_harlinn_1_1_common_1_1_core_1_1_basic_string.xhtml" target="_top" xlink:title="This is a reference counted string class.">
<polygon fill="white" stroke="#666666" points="241.5,-364 123.5,-364 123.5,-334 241.5,-334 241.5,-364"/>
<text text-anchor="start" x="131.5" y="-352" font-family="Helvetica,sans-Serif" font-size="10.00">Harlinn::Common::Core</text>
<text text-anchor="middle" x="182.5" y="-341" font-family="Helvetica,sans-Serif" font-size="10.00">::BasicString&lt; T &gt;</text>
</a>
</g>
</g>
<!-- Node4&#45;&gt;Node6 -->
<g id="edge6_Node000006_Node000004" class="edge">
<title>Node4&#45;&gt;Node6</title>
<g id="a_edge6_Node000006_Node000004"><a xlink:title=" ">
<path fill="none" stroke="#9a32cd" stroke-dasharray="5,2" d="M225.3,-401.77C215.21,-389.57 203.16,-374.99 194.42,-364.42"/>
<polygon fill="#9a32cd" stroke="#9a32cd" points="222.51,-403.9 231.58,-409.37 227.91,-399.44 222.51,-403.9"/>
</a>
</g>
<text text-anchor="middle" x="231.5" y="-385" font-family="Helvetica,sans-Serif" font-size="10.00" fill="grey"> data_</text>
</g>
<!-- Node5 -->
<g id="Node000005" class="node">
<title>Node5</title>
<g id="a_Node000005"><a xlink:title=" ">
<polygon fill="white" stroke="#666666" points="259,-507 230,-507 230,-488 259,-488 259,-507"/>
<text text-anchor="middle" x="244.5" y="-495" font-family="Helvetica,sans-Serif" font-size="10.00">T</text>
</a>
</g>
</g>
<!-- Node5&#45;&gt;Node4 -->
<g id="edge4_Node000004_Node000005" class="edge">
<title>Node5&#45;&gt;Node4</title>
<g id="a_edge4_Node000004_Node000005"><a xlink:title=" ">
<path fill="none" stroke="#9a32cd" stroke-dasharray="5,2" d="M244.5,-476.39C244.5,-465.15 244.5,-451.41 244.5,-441.27"/>
<polygon fill="#9a32cd" stroke="#9a32cd" points="241,-476.18 244.5,-486.18 248,-476.18 241,-476.18"/>
</a>
</g>
<text text-anchor="middle" x="260.5" y="-462" font-family="Helvetica,sans-Serif" font-size="10.00" fill="grey"> buffer_</text>
</g>
<!-- Node6&#45;&gt;Node1 -->
<g id="edge8_Node000001_Node000006" class="edge">
<title>Node6&#45;&gt;Node1</title>
<g id="a_edge8_Node000001_Node000006"><a xlink:title=" ">
<path fill="none" stroke="#9a32cd" stroke-dasharray="5,2" d="M163.81,-324.88C135.25,-287.88 82,-211.87 62.5,-137 52.76,-99.59 58.05,-53.45 61.8,-30.45"/>
<polygon fill="#9a32cd" stroke="#9a32cd" points="160.98,-326.94 169.9,-332.65 166.48,-322.62 160.98,-326.94"/>
</a>
</g>
<text text-anchor="middle" x="105" y="-123.5" font-family="Helvetica,sans-Serif" font-size="10.00" fill="grey"> windowClassName</text>
</g>
<!-- Node6&#45;&gt;Node2 -->
<g id="edge7_Node000002_Node000006" class="edge">
<title>Node6&#45;&gt;Node2</title>
<g id="a_edge7_Node000002_Node000006"><a xlink:title=" ">
<path fill="none" stroke="#9a32cd" stroke-dasharray="5,2" d="M172.19,-323.31C168.1,-312.38 163.83,-299.25 161.5,-287 148.13,-216.65 150.26,-130.31 151.75,-97.01"/>
<polygon fill="#9a32cd" stroke="#9a32cd" points="168.83,-324.33 175.74,-332.37 175.35,-321.78 168.83,-324.33"/>
</a>
</g>
<text text-anchor="middle" x="213" y="-279" font-family="Helvetica,sans-Serif" font-size="10.00" fill="grey"> animate_class_name</text>
<text text-anchor="middle" x="213" y="-268" font-family="Helvetica,sans-Serif" font-size="10.00" fill="grey">button_class_name</text>
<text text-anchor="middle" x="213" y="-257" font-family="Helvetica,sans-Serif" font-size="10.00" fill="grey">combobox_class_name</text>
<text text-anchor="start" x="161.5" y="-246" font-family="Helvetica,sans-Serif" font-size="10.00" fill="grey">datetimepick_class</text>
<text text-anchor="middle" x="213" y="-235" font-family="Helvetica,sans-Serif" font-size="10.00" fill="grey">_name</text>
<text text-anchor="middle" x="213" y="-224" font-family="Helvetica,sans-Serif" font-size="10.00" fill="grey">edit_class_name</text>
<text text-anchor="middle" x="213" y="-213" font-family="Helvetica,sans-Serif" font-size="10.00" fill="grey">header_class_name</text>
<text text-anchor="middle" x="213" y="-202" font-family="Helvetica,sans-Serif" font-size="10.00" fill="grey">hotkey_class_name</text>
<text text-anchor="middle" x="213" y="-191" font-family="Helvetica,sans-Serif" font-size="10.00" fill="grey">ipaddress_class_name</text>
<text text-anchor="middle" x="213" y="-180" font-family="Helvetica,sans-Serif" font-size="10.00" fill="grey">link_class_name</text>
<text text-anchor="middle" x="213" y="-169" font-family="Helvetica,sans-Serif" font-size="10.00" fill="grey">listbox_class_name</text>
<text text-anchor="middle" x="213" y="-158" font-family="Helvetica,sans-Serif" font-size="10.00" fill="grey">...</text>
</g>
<!-- Node6&#45;&gt;Node3 -->
<g id="edge5_Node000003_Node000006" class="edge">
<title>Node6&#45;&gt;Node3</title>
<g id="a_edge5_Node000003_Node000006"><a xlink:title=" ">
<path fill="none" stroke="orange" stroke-dasharray="5,2" d="M209.67,-326.81C224.49,-315.17 243.1,-300.41 259.5,-287 280.49,-269.83 304.29,-249.63 319.8,-236.35"/>
<polygon fill="orange" stroke="orange" points="207.89,-323.76 202.18,-332.68 212.21,-329.27 207.89,-323.76"/>
</a>
</g>
<text text-anchor="middle" x="264" y="-308" font-family="Helvetica,sans-Serif" font-size="10.00" fill="grey"> &lt; wchar_t &gt;</text>
</g>
</g>
</svg>
