<?xml version="1.0" encoding="UTF-8" standalone="no"?>
<!DOCTYPE svg PUBLIC "-//W3C//DTD SVG 1.1//EN"
 "http://www.w3.org/Graphics/SVG/1.1/DTD/svg11.dtd">
<!-- Generated by graphviz version 7.0.1 (20221109.1506)
 -->
<!-- Title: Harlinn::OCI::FixedBinaryArrayBind&lt; size_ &gt; Pages: 1 -->
<svg width="1773pt" height="676pt"
 viewBox="0.00 0.00 1773.00 675.50" xmlns="http://www.w3.org/2000/svg" xmlns:xlink="http://www.w3.org/1999/xlink">
<g id="graph0" class="graph" transform="scale(1 1) rotate(0) translate(4 671.5)">
<title>Harlinn::OCI::FixedBinaryArrayBind&lt; size_ &gt;</title>
<!-- Node1 -->
<g id="Node000001" class="node">
<title>Node1</title>
<g id="a_Node000001"><a xlink:title="FixedBinaryArrayBind.">
<polygon fill="#999999" stroke="#666666" points="1519,-660 1392,-660 1392,-630 1519,-630 1519,-660"/>
<text text-anchor="start" x="1400" y="-648" font-family="Helvetica,sans-Serif" font-size="10.00">Harlinn::OCI::FixedBinary</text>
<text text-anchor="middle" x="1455.5" y="-637" font-family="Helvetica,sans-Serif" font-size="10.00">ArrayBind&lt; size_ &gt;</text>
</a>
</g>
</g>
<!-- Node2 -->
<g id="Node000002" class="node">
<title>Node2</title>
<g id="a_Node000002"><a xlink:href="class_harlinn_1_1_o_c_i_1_1_array_bind.xhtml" target="_top" xlink:title="ArrayBind, base class for binding an array of values.">
<polygon fill="white" stroke="#666666" points="1281.5,-621.5 1163.5,-621.5 1163.5,-602.5 1281.5,-602.5 1281.5,-621.5"/>
<text text-anchor="middle" x="1222.5" y="-609.5" font-family="Helvetica,sans-Serif" font-size="10.00">Harlinn::OCI::ArrayBind</text>
</a>
</g>
</g>
<!-- Node2&#45;&gt;Node1 -->
<g id="edge1_Node000001_Node000002" class="edge">
<title>Node2&#45;&gt;Node1</title>
<g id="a_edge1_Node000001_Node000002"><a xlink:title=" ">
<path fill="none" stroke="#63b8ff" d="M1293.09,-621.94C1324.47,-626.42 1361.25,-631.68 1391.77,-636.04"/>
<polygon fill="#63b8ff" stroke="#63b8ff" points="1293.68,-618.49 1283.29,-620.54 1292.69,-625.42 1293.68,-618.49"/>
</a>
</g>
</g>
<!-- Node3 -->
<g id="Node000003" class="node">
<title>Node3</title>
<g id="a_Node000003"><a xlink:href="class_harlinn_1_1_o_c_i_1_1_bind_base.xhtml" target="_top" xlink:title="BindBase, base class for binds.">
<polygon fill="white" stroke="#666666" points="989.5,-495.5 872.5,-495.5 872.5,-476.5 989.5,-476.5 989.5,-495.5"/>
<text text-anchor="middle" x="931" y="-483.5" font-family="Helvetica,sans-Serif" font-size="10.00">Harlinn::OCI::BindBase</text>
</a>
</g>
</g>
<!-- Node3&#45;&gt;Node2 -->
<g id="edge2_Node000002_Node000003" class="edge">
<title>Node3&#45;&gt;Node2</title>
<g id="a_edge2_Node000002_Node000003"><a xlink:title=" ">
<path fill="none" stroke="#63b8ff" d="M942.08,-506.09C954.89,-529.34 979.34,-566.75 1012,-585 1037.13,-599.04 1110.23,-606.02 1163.01,-609.31"/>
<polygon fill="#63b8ff" stroke="#63b8ff" points="945.2,-504.52 937.44,-497.31 939.01,-507.78 945.2,-504.52"/>
</a>
</g>
</g>
<!-- Node16 -->
<g id="Node000016" class="node">
<title>Node16</title>
<g id="a_Node000016"><a xlink:title=" ">
<polygon fill="white" stroke="#666666" points="1282.5,-522 1162.5,-522 1162.5,-492 1282.5,-492 1282.5,-522"/>
<text text-anchor="start" x="1170.5" y="-510" font-family="Helvetica,sans-Serif" font-size="10.00">std::unique_ptr&lt; Harlinn</text>
<text text-anchor="middle" x="1222.5" y="-499" font-family="Helvetica,sans-Serif" font-size="10.00">::OCI::BindBase &gt;</text>
</a>
</g>
</g>
<!-- Node3&#45;&gt;Node16 -->
<g id="edge32_Node000016_Node000003" class="edge">
<title>Node3&#45;&gt;Node16</title>
<g id="a_edge32_Node000016_Node000003"><a xlink:title=" ">
<path fill="none" stroke="#9a32cd" stroke-dasharray="5,2" d="M1001.37,-491.03C1050.45,-494.59 1115.56,-499.32 1162.22,-502.7"/>
<polygon fill="#9a32cd" stroke="#9a32cd" points="1001.63,-487.54 991.4,-490.31 1001.12,-494.52 1001.63,-487.54"/>
</a>
</g>
<text text-anchor="middle" x="1076" y="-503" font-family="Helvetica,sans-Serif" font-size="10.00" fill="grey"> ptr</text>
</g>
<!-- Node4 -->
<g id="Node000004" class="node">
<title>Node4</title>
<g id="a_Node000004"><a xlink:href="class_harlinn_1_1_o_c_i_1_1_handle_base.xhtml" target="_top" xlink:title="Base class for OCI handle wrappers.">
<polygon fill="white" stroke="#666666" points="483,-320.5 355,-320.5 355,-301.5 483,-301.5 483,-320.5"/>
<text text-anchor="middle" x="419" y="-308.5" font-family="Helvetica,sans-Serif" font-size="10.00">Harlinn::OCI::HandleBase</text>
</a>
</g>
</g>
<!-- Node4&#45;&gt;Node3 -->
<g id="edge3_Node000003_Node000004" class="edge">
<title>Node4&#45;&gt;Node3</title>
<g id="a_edge3_Node000003_Node000004"><a xlink:title=" ">
<path fill="none" stroke="#63b8ff" d="M428.97,-330.92C441.35,-355.92 466.16,-398.06 501,-419 508.93,-423.76 756.81,-460.6 872.09,-477.53"/>
<polygon fill="#63b8ff" stroke="#63b8ff" points="432.26,-329.68 424.81,-322.14 425.93,-332.68 432.26,-329.68"/>
</a>
</g>
</g>
<!-- Node5 -->
<g id="Node000005" class="node">
<title>Node5</title>
<g id="a_Node000005"><a xlink:href="class_harlinn_1_1_o_c_i_1_1_statement.xhtml" target="_top" xlink:title="Statement, the context that identifies a SQL or PL/SQL statement and its associated attributes.">
<polygon fill="white" stroke="#666666" points="1765,-401.5 1645,-401.5 1645,-382.5 1765,-382.5 1765,-401.5"/>
<text text-anchor="middle" x="1705" y="-389.5" font-family="Helvetica,sans-Serif" font-size="10.00">Harlinn::OCI::Statement</text>
</a>
</g>
</g>
<!-- Node4&#45;&gt;Node5 -->
<g id="edge5_Node000005_Node000004" class="edge">
<title>Node4&#45;&gt;Node5</title>
<g id="a_edge5_Node000005_Node000004"><a xlink:title=" ">
<path fill="none" stroke="#63b8ff" d="M439.62,-328.05C455.22,-340.72 478.16,-357.39 501,-367 582.79,-401.41 608.27,-405 697,-405 697,-405 697,-405 1456.5,-405 1520.83,-405 1594.43,-400.57 1644.53,-396.88"/>
<polygon fill="#63b8ff" stroke="#63b8ff" points="441.99,-325.48 432.08,-321.76 437.51,-330.85 441.99,-325.48"/>
</a>
</g>
</g>
<!-- Node6 -->
<g id="Node000006" class="node">
<title>Node6</title>
<g id="a_Node000006"><a xlink:href="class_harlinn_1_1_o_c_i_1_1_service_context.xhtml" target="_top" xlink:title="ServiceContext &#45; A service context handle defines attributes that determine the operational context f...">
<polygon fill="white" stroke="#666666" points="1525.5,-146.5 1385.5,-146.5 1385.5,-127.5 1525.5,-127.5 1525.5,-146.5"/>
<text text-anchor="middle" x="1455.5" y="-134.5" font-family="Helvetica,sans-Serif" font-size="10.00">Harlinn::OCI::ServiceContext</text>
</a>
</g>
</g>
<!-- Node4&#45;&gt;Node6 -->
<g id="edge7_Node000006_Node000004" class="edge">
<title>Node4&#45;&gt;Node6</title>
<g id="a_edge7_Node000006_Node000004"><a xlink:title=" ">
<path fill="none" stroke="#63b8ff" d="M447.11,-294.6C460.13,-285.25 474.68,-272.34 483,-257 512.06,-203.4 467.86,-172.18 501,-121 556.64,-35.07 594.63,0 697,0 697,0 697,0 1223.5,0 1323.28,0 1417.66,-95.73 1445.94,-127.15"/>
<polygon fill="#63b8ff" stroke="#63b8ff" points="445.16,-291.69 438.83,-300.19 449.08,-297.49 445.16,-291.69"/>
</a>
</g>
</g>
<!-- Node7 -->
<g id="Node000007" class="node">
<title>Node7</title>
<g id="a_Node000007"><a xlink:href="class_harlinn_1_1_o_c_i_1_1_environment.xhtml" target="_top" xlink:title="The environment handle defines a context in which all OCI functions are invoked.">
<polygon fill="white" stroke="#666666" points="762,-224.5 634,-224.5 634,-205.5 762,-205.5 762,-224.5"/>
<text text-anchor="middle" x="698" y="-212.5" font-family="Helvetica,sans-Serif" font-size="10.00">Harlinn::OCI::Environment</text>
</a>
</g>
</g>
<!-- Node4&#45;&gt;Node7 -->
<g id="edge9_Node000007_Node000004" class="edge">
<title>Node4&#45;&gt;Node7</title>
<g id="a_edge9_Node000007_Node000004"><a xlink:title=" ">
<path fill="none" stroke="#63b8ff" d="M439.91,-293.79C455.53,-281.19 478.34,-264.66 501,-255 524.64,-244.92 586.45,-233.12 634.4,-224.97"/>
<polygon fill="#63b8ff" stroke="#63b8ff" points="437.81,-290.99 432.35,-300.07 442.28,-296.38 437.81,-290.99"/>
</a>
</g>
</g>
<!-- Node11 -->
<g id="Node000011" class="node">
<title>Node11</title>
<g id="a_Node000011"><a xlink:href="class_harlinn_1_1_o_c_i_1_1_error_handle.xhtml" target="_top" xlink:title="The error handle is passed as a parameter to most OCI calls.">
<polygon fill="white" stroke="#666666" points="994,-200.5 868,-200.5 868,-181.5 994,-181.5 994,-200.5"/>
<text text-anchor="middle" x="931" y="-188.5" font-family="Helvetica,sans-Serif" font-size="10.00">Harlinn::OCI::ErrorHandle</text>
</a>
</g>
</g>
<!-- Node4&#45;&gt;Node11 -->
<g id="edge14_Node000011_Node000004" class="edge">
<title>Node4&#45;&gt;Node11</title>
<g id="a_edge14_Node000011_Node000004"><a xlink:title=" ">
<path fill="none" stroke="#63b8ff" d="M494.76,-299.39C581.27,-285.08 727.54,-258.13 850,-222 869.72,-216.18 891.42,-207.63 907.24,-200.98"/>
<polygon fill="#63b8ff" stroke="#63b8ff" points="494.27,-295.93 484.97,-301 495.4,-302.84 494.27,-295.93"/>
</a>
</g>
</g>
<!-- Node12 -->
<g id="Node000012" class="node">
<title>Node12</title>
<g id="a_Node000012"><a xlink:href="class_harlinn_1_1_o_c_i_1_1_server.xhtml" target="_top" xlink:title="A server handle represents a connection between the client application and the Oracle database server...">
<polygon fill="white" stroke="#666666" points="1273.5,-124.5 1171.5,-124.5 1171.5,-105.5 1273.5,-105.5 1273.5,-124.5"/>
<text text-anchor="middle" x="1222.5" y="-112.5" font-family="Helvetica,sans-Serif" font-size="10.00">Harlinn::OCI::Server</text>
</a>
</g>
</g>
<!-- Node4&#45;&gt;Node12 -->
<g id="edge17_Node000012_Node000004" class="edge">
<title>Node4&#45;&gt;Node12</title>
<g id="a_edge17_Node000012_Node000004"><a xlink:title=" ">
<path fill="none" stroke="#63b8ff" d="M444.75,-294.51C457.63,-284.86 472.78,-271.71 483,-257 496.24,-237.95 484.32,-224.13 501,-208 669.54,-45.02 778.36,-96.5 1012,-77 1068.69,-72.27 1084.46,-64.69 1140,-77 1164.23,-82.37 1189.8,-95.73 1205.7,-105.08"/>
<polygon fill="#63b8ff" stroke="#63b8ff" points="442.78,-291.62 436.69,-300.29 446.86,-297.31 442.78,-291.62"/>
</a>
</g>
</g>
<!-- Node13 -->
<g id="Node000013" class="node">
<title>Node13</title>
<g id="a_Node000013"><a xlink:href="class_harlinn_1_1_o_c_i_1_1_session.xhtml" target="_top" xlink:title="Session.">
<polygon fill="white" stroke="#666666" points="1277.5,-250.5 1167.5,-250.5 1167.5,-231.5 1277.5,-231.5 1277.5,-250.5"/>
<text text-anchor="middle" x="1222.5" y="-238.5" font-family="Helvetica,sans-Serif" font-size="10.00">Harlinn::OCI::Session</text>
</a>
</g>
</g>
<!-- Node4&#45;&gt;Node13 -->
<g id="edge21_Node000013_Node000004" class="edge">
<title>Node4&#45;&gt;Node13</title>
<g id="a_edge21_Node000013_Node000004"><a xlink:title=" ">
<path fill="none" stroke="#63b8ff" d="M494.54,-310.76C604.04,-310.2 814.83,-308.31 994,-302 1058.95,-299.71 1078.22,-314.17 1140,-294 1168.08,-284.83 1195.85,-263.43 1210.62,-250.81"/>
<polygon fill="#63b8ff" stroke="#63b8ff" points="494.8,-307.26 484.81,-310.81 494.83,-314.26 494.8,-307.26"/>
</a>
</g>
</g>
<!-- Node14 -->
<g id="Node000014" class="node">
<title>Node14</title>
<g id="a_Node000014"><a xlink:href="class_harlinn_1_1_o_c_i_1_1_subscription.xhtml" target="_top" xlink:title="Subscription.">
<polygon fill="white" stroke="#666666" points="1287,-326.5 1158,-326.5 1158,-307.5 1287,-307.5 1287,-326.5"/>
<text text-anchor="middle" x="1222.5" y="-314.5" font-family="Helvetica,sans-Serif" font-size="10.00">Harlinn::OCI::Subscription</text>
</a>
</g>
</g>
<!-- Node4&#45;&gt;Node14 -->
<g id="edge27_Node000014_Node000004" class="edge">
<title>Node4&#45;&gt;Node14</title>
<g id="a_edge27_Node000014_Node000004"><a xlink:title=" ">
<path fill="none" stroke="#63b8ff" d="M449.24,-325.64C464.3,-332.38 483.19,-339.61 501,-343 779.99,-396.11 859.38,-386.68 1140,-343 1159.81,-339.92 1181.39,-332.85 1197.37,-326.87"/>
<polygon fill="#63b8ff" stroke="#63b8ff" points="450.94,-322.57 440.4,-321.53 447.99,-328.92 450.94,-322.57"/>
</a>
</g>
</g>
<!-- Node5&#45;&gt;Node3 -->
<g id="edge4_Node000003_Node000005" class="edge">
<title>Node5&#45;&gt;Node3</title>
<g id="a_edge4_Node000003_Node000005"><a xlink:title=" ">
<path fill="none" stroke="#9a32cd" stroke-dasharray="5,2" d="M1669.98,-405.92C1656.77,-410.79 1641.38,-415.84 1627,-419 1394.67,-470.14 1110.11,-482.25 989.94,-485.11"/>
<polygon fill="#9a32cd" stroke="#9a32cd" points="1670.99,-409.28 1679.08,-402.44 1668.49,-402.74 1670.99,-409.28"/>
</a>
</g>
<text text-anchor="middle" x="1331" y="-469" font-family="Helvetica,sans-Serif" font-size="10.00" fill="grey"> statement_</text>
</g>
<!-- Node6&#45;&gt;Node5 -->
<g id="edge6_Node000005_Node000006" class="edge">
<title>Node6&#45;&gt;Node5</title>
<g id="a_edge6_Node000005_Node000006"><a xlink:title=" ">
<path fill="none" stroke="#9a32cd" stroke-dasharray="5,2" d="M1537.18,-138.68C1568.45,-143.18 1602.53,-153.34 1627,-175 1691.95,-232.5 1702.12,-348.44 1703.71,-382.43"/>
<polygon fill="#9a32cd" stroke="#9a32cd" points="1537.67,-135.21 1527.31,-137.45 1536.81,-142.16 1537.67,-135.21"/>
</a>
</g>
<text text-anchor="middle" x="1590.5" y="-178" font-family="Helvetica,sans-Serif" font-size="10.00" fill="grey"> serviceContext_</text>
</g>
<!-- Node7&#45;&gt;Node6 -->
<g id="edge8_Node000006_Node000007" class="edge">
<title>Node7&#45;&gt;Node6</title>
<g id="a_edge8_Node000006_Node000007"><a xlink:title=" ">
<path fill="none" stroke="#9a32cd" stroke-dasharray="5,2" d="M716.15,-197.07C731.63,-181.74 755.64,-160.02 780,-146 815.94,-125.32 827.67,-124.65 868,-115 1049.29,-71.61 1101.93,-73.68 1287,-96 1335.45,-101.84 1390.11,-116.87 1423.43,-127.01"/>
<polygon fill="#9a32cd" stroke="#9a32cd" points="713.68,-194.59 709.15,-204.16 718.66,-199.5 713.68,-194.59"/>
</a>
</g>
<text text-anchor="middle" x="1076" y="-90" font-family="Helvetica,sans-Serif" font-size="10.00" fill="grey"> environment_</text>
</g>
<!-- Node7&#45;&gt;Node11 -->
<g id="edge15_Node000011_Node000007" class="edge">
<title>Node7&#45;&gt;Node11</title>
<g id="a_edge15_Node000011_Node000007"><a xlink:title=" ">
<path fill="none" stroke="#9a32cd" stroke-dasharray="5,2" d="M773.8,-207.23C804.07,-204.08 838.62,-200.49 867.51,-197.49"/>
<polygon fill="#9a32cd" stroke="#9a32cd" points="773.52,-203.74 763.93,-208.25 774.24,-210.7 773.52,-203.74"/>
</a>
</g>
<text text-anchor="middle" x="815" y="-210" font-family="Helvetica,sans-Serif" font-size="10.00" fill="grey"> environment_</text>
</g>
<!-- Node7&#45;&gt;Node12 -->
<g id="edge18_Node000012_Node000007" class="edge">
<title>Node7&#45;&gt;Node12</title>
<g id="a_edge18_Node000012_Node000007"><a xlink:title=" ">
<path fill="none" stroke="#9a32cd" stroke-dasharray="5,2" d="M725.78,-199.54C741.24,-191.1 761.28,-180.98 780,-174 879.59,-136.88 906.54,-129.24 1012,-116 1066.13,-109.2 1128.76,-110.03 1171.33,-111.88"/>
<polygon fill="#9a32cd" stroke="#9a32cd" points="724.23,-196.39 717.2,-204.31 727.64,-202.51 724.23,-196.39"/>
</a>
</g>
<text text-anchor="middle" x="931" y="-146" font-family="Helvetica,sans-Serif" font-size="10.00" fill="grey"> environment_</text>
</g>
<!-- Node7&#45;&gt;Node13 -->
<g id="edge22_Node000013_Node000007" class="edge">
<title>Node7&#45;&gt;Node13</title>
<g id="a_edge22_Node000013_Node000007"><a xlink:title=" ">
<path fill="none" stroke="#9a32cd" stroke-dasharray="5,2" d="M773.42,-221.56C775.64,-221.71 777.83,-221.86 780,-222 919.34,-231.01 1083.7,-236.81 1167.08,-239.41"/>
<polygon fill="#9a32cd" stroke="#9a32cd" points="773.95,-218.09 763.72,-220.84 773.44,-225.07 773.95,-218.09"/>
</a>
</g>
<text text-anchor="middle" x="931" y="-236" font-family="Helvetica,sans-Serif" font-size="10.00" fill="grey"> environment_</text>
</g>
<!-- Node7&#45;&gt;Node14 -->
<g id="edge28_Node000014_Node000007" class="edge">
<title>Node7&#45;&gt;Node14</title>
<g id="a_edge28_Node000014_Node000007"><a xlink:title=" ">
<path fill="none" stroke="#9a32cd" stroke-dasharray="5,2" d="M743.39,-228.09C755.25,-231.45 768.08,-234.97 780,-238 882.42,-264 907.93,-271.67 1012,-290 1060.58,-298.56 1115.94,-305.57 1157.55,-310.31"/>
<polygon fill="#9a32cd" stroke="#9a32cd" points="744.42,-224.74 733.84,-225.35 742.49,-231.47 744.42,-224.74"/>
</a>
</g>
<text text-anchor="middle" x="931" y="-290" font-family="Helvetica,sans-Serif" font-size="10.00" fill="grey"> environment_</text>
</g>
<!-- Node8 -->
<g id="Node000008" class="node">
<title>Node8</title>
<g id="a_Node000008"><a xlink:title=" ">
<polygon fill="white" stroke="#666666" points="483,-248 355,-248 355,-218 483,-218 483,-248"/>
<text text-anchor="start" x="363" y="-236" font-family="Helvetica,sans-Serif" font-size="10.00">std::atomic&lt; Environment</text>
<text text-anchor="middle" x="419" y="-225" font-family="Helvetica,sans-Serif" font-size="10.00">Mode &gt;</text>
</a>
</g>
</g>
<!-- Node8&#45;&gt;Node7 -->
<g id="edge10_Node000007_Node000008" class="edge">
<title>Node8&#45;&gt;Node7</title>
<g id="a_edge10_Node000007_Node000008"><a xlink:title=" ">
<path fill="none" stroke="#9a32cd" stroke-dasharray="5,2" d="M494.77,-216.74C496.87,-216.47 498.95,-216.22 501,-216 545.16,-211.3 595.23,-211.13 633.71,-212.1"/>
<polygon fill="#9a32cd" stroke="#9a32cd" points="494.35,-213.26 484.98,-218.19 495.38,-220.19 494.35,-213.26"/>
</a>
</g>
<text text-anchor="middle" x="558.5" y="-219" font-family="Helvetica,sans-Serif" font-size="10.00" fill="grey"> defaultEnvironmentMode_</text>
</g>
<!-- Node9 -->
<g id="Node000009" class="node">
<title>Node9</title>
<g id="a_Node000009"><a xlink:title=" ">
<polygon fill="white" stroke="#666666" points="200.5,-395.5 111.5,-395.5 111.5,-376.5 200.5,-376.5 200.5,-395.5"/>
<text text-anchor="middle" x="156" y="-383.5" font-family="Helvetica,sans-Serif" font-size="10.00">std::atomic&lt; T &gt;</text>
</a>
</g>
</g>
<!-- Node9&#45;&gt;Node8 -->
<g id="edge11_Node000008_Node000009" class="edge">
<title>Node9&#45;&gt;Node8</title>
<g id="a_edge11_Node000008_Node000009"><a xlink:title=" ">
<path fill="none" stroke="orange" stroke-dasharray="5,2" d="M183.5,-370.47C233.62,-341.09 341.75,-277.7 391.71,-248.41"/>
<polygon fill="orange" stroke="orange" points="181.89,-367.35 175.03,-375.43 185.43,-373.39 181.89,-367.35"/>
</a>
</g>
<text text-anchor="middle" x="285" y="-344" font-family="Helvetica,sans-Serif" font-size="10.00" fill="grey"> &lt; EnvironmentMode &gt;</text>
</g>
<!-- Node10 -->
<g id="Node000010" class="node">
<title>Node10</title>
<g id="a_Node000010"><a xlink:title=" ">
<polygon fill="white" stroke="#666666" points="29,-525.5 0,-525.5 0,-506.5 29,-506.5 29,-525.5"/>
<text text-anchor="middle" x="14.5" y="-513.5" font-family="Helvetica,sans-Serif" font-size="10.00">T</text>
</a>
</g>
</g>
<!-- Node10&#45;&gt;Node9 -->
<g id="edge12_Node000009_Node000010" class="edge">
<title>Node10&#45;&gt;Node9</title>
<g id="a_edge12_Node000009_Node000010"><a xlink:title=" ">
<path fill="none" stroke="#9a32cd" stroke-dasharray="5,2" d="M32.22,-497.99C36.92,-493.05 42.1,-487.76 47,-483 81.01,-450.01 123.31,-413.16 143.39,-395.91"/>
<polygon fill="#9a32cd" stroke="#9a32cd" points="29.75,-495.5 25.45,-505.18 34.85,-500.3 29.75,-495.5"/>
</a>
</g>
<text text-anchor="middle" x="63" y="-486" font-family="Helvetica,sans-Serif" font-size="10.00" fill="grey"> ptr</text>
</g>
<!-- Node17 -->
<g id="Node000017" class="node">
<title>Node17</title>
<g id="a_Node000017"><a xlink:title=" ">
<polygon fill="white" stroke="#666666" points="337,-546.5 233,-546.5 233,-527.5 337,-527.5 337,-546.5"/>
<text text-anchor="middle" x="285" y="-534.5" font-family="Helvetica,sans-Serif" font-size="10.00">std::unique_ptr&lt; T &gt;</text>
</a>
</g>
</g>
<!-- Node10&#45;&gt;Node17 -->
<g id="edge34_Node000017_Node000010" class="edge">
<title>Node10&#45;&gt;Node17</title>
<g id="a_edge34_Node000017_Node000010"><a xlink:title=" ">
<path fill="none" stroke="#9a32cd" stroke-dasharray="5,2" d="M40.4,-517.95C84.02,-521.36 175.08,-528.48 232.67,-532.99"/>
<polygon fill="#9a32cd" stroke="#9a32cd" points="40.94,-514.48 30.69,-517.19 40.39,-521.46 40.94,-514.48"/>
</a>
</g>
<text text-anchor="middle" x="63" y="-523" font-family="Helvetica,sans-Serif" font-size="10.00" fill="grey"> ptr</text>
</g>
<!-- Node18 -->
<g id="Node000018" class="node">
<title>Node18</title>
<g id="a_Node000018"><a xlink:title=" ">
<polygon fill="white" stroke="#666666" points="740.5,-597.5 655.5,-597.5 655.5,-578.5 740.5,-578.5 740.5,-597.5"/>
<text text-anchor="middle" x="698" y="-585.5" font-family="Helvetica,sans-Serif" font-size="10.00">std::vector&lt; T &gt;</text>
</a>
</g>
</g>
<!-- Node10&#45;&gt;Node18 -->
<g id="edge36_Node000018_Node000010" class="edge">
<title>Node10&#45;&gt;Node18</title>
<g id="a_edge36_Node000018_Node000010"><a xlink:title=" ">
<path fill="none" stroke="#9a32cd" stroke-dasharray="5,2" d="M38.78,-531.55C41.47,-532.89 44.24,-534.08 47,-535 68.19,-542.05 74.77,-537.83 97,-540 157.43,-545.91 172.5,-547.83 233,-553 388.55,-566.3 573.66,-579.46 655.07,-585.12"/>
<polygon fill="#9a32cd" stroke="#9a32cd" points="40.69,-528.62 30.28,-526.68 37.21,-534.69 40.69,-528.62"/>
</a>
</g>
<text text-anchor="middle" x="285" y="-564" font-family="Helvetica,sans-Serif" font-size="10.00" fill="grey"> elements</text>
</g>
<!-- Node20 -->
<g id="Node000020" class="node">
<title>Node20</title>
<g id="a_Node000020"><a xlink:href="struct_harlinn_1_1_common_1_1_core_1_1_internal_1_1_data.xhtml" target="_top" xlink:title=" ">
<polygon fill="white" stroke="#666666" points="215,-509 97,-509 97,-479 215,-479 215,-509"/>
<text text-anchor="start" x="105" y="-497" font-family="Helvetica,sans-Serif" font-size="10.00">Harlinn::Common::Core</text>
<text text-anchor="middle" x="156" y="-486" font-family="Helvetica,sans-Serif" font-size="10.00">::Internal::Data&lt; T &gt;</text>
</a>
</g>
</g>
<!-- Node10&#45;&gt;Node20 -->
<g id="edge39_Node000020_Node000010" class="edge">
<title>Node10&#45;&gt;Node20</title>
<g id="a_edge39_Node000020_Node000010"><a xlink:title=" ">
<path fill="none" stroke="#9a32cd" stroke-dasharray="5,2" d="M39.95,-505.95C42.31,-505.21 44.68,-504.54 47,-504 62.87,-500.32 80.34,-497.98 96.52,-496.5"/>
<polygon fill="#9a32cd" stroke="#9a32cd" points="38.99,-502.58 30.78,-509.27 41.38,-509.16 38.99,-502.58"/>
</a>
</g>
<text text-anchor="middle" x="63" y="-507" font-family="Helvetica,sans-Serif" font-size="10.00" fill="grey"> buffer_</text>
</g>
<!-- Node11&#45;&gt;Node5 -->
<g id="edge25_Node000005_Node000011" class="edge">
<title>Node11&#45;&gt;Node5</title>
<g id="a_edge25_Node000005_Node000011"><a xlink:title=" ">
<path fill="none" stroke="#9a32cd" stroke-dasharray="5,2" d="M1005.39,-182.05C1091.32,-173.96 1237.14,-167.69 1357,-200 1500.26,-238.61 1648.22,-348.27 1691.45,-382"/>
<polygon fill="#9a32cd" stroke="#9a32cd" points="1005.3,-178.54 995.69,-183 1005.99,-185.51 1005.3,-178.54"/>
</a>
</g>
<text text-anchor="middle" x="1331" y="-203" font-family="Helvetica,sans-Serif" font-size="10.00" fill="grey"> error_</text>
</g>
<!-- Node11&#45;&gt;Node6 -->
<g id="edge24_Node000006_Node000011" class="edge">
<title>Node11&#45;&gt;Node6</title>
<g id="a_edge24_Node000006_Node000011"><a xlink:title=" ">
<path fill="none" stroke="#9a32cd" stroke-dasharray="5,2" d="M988.22,-178.93C996.18,-177.47 1004.28,-176.1 1012,-175 1082.13,-165.01 1279.56,-149.78 1385.42,-141.98"/>
<polygon fill="#9a32cd" stroke="#9a32cd" points="987.77,-175.46 978.6,-180.78 989.08,-182.33 987.77,-175.46"/>
</a>
</g>
<text text-anchor="middle" x="1222.5" y="-163" font-family="Helvetica,sans-Serif" font-size="10.00" fill="grey"> error_</text>
</g>
<!-- Node11&#45;&gt;Node7 -->
<g id="edge13_Node000007_Node000011" class="edge">
<title>Node11&#45;&gt;Node7</title>
<g id="a_edge13_Node000007_Node000011"><a xlink:title=" ">
<path fill="none" stroke="#9a32cd" stroke-dasharray="5,2" d="M863.04,-179.8C836.93,-177.3 806.87,-176.74 780,-182 757.5,-186.41 733.36,-197.1 717.35,-205.12"/>
<polygon fill="#9a32cd" stroke="#9a32cd" points="862.52,-183.27 872.84,-180.86 863.27,-176.31 862.52,-183.27"/>
</a>
</g>
<text text-anchor="middle" x="815" y="-185" font-family="Helvetica,sans-Serif" font-size="10.00" fill="grey"> error_</text>
</g>
<!-- Node11&#45;&gt;Node12 -->
<g id="edge19_Node000012_Node000011" class="edge">
<title>Node11&#45;&gt;Node12</title>
<g id="a_edge19_Node000012_Node000011"><a xlink:title=" ">
<path fill="none" stroke="#9a32cd" stroke-dasharray="5,2" d="M951.16,-173.67C966.46,-160.92 989.06,-144.4 1012,-136 1064,-116.95 1127.83,-113.1 1171.27,-113.12"/>
<polygon fill="#9a32cd" stroke="#9a32cd" points="949.07,-170.84 943.79,-180.02 953.65,-176.14 949.07,-170.84"/>
</a>
</g>
<text text-anchor="middle" x="1076" y="-139" font-family="Helvetica,sans-Serif" font-size="10.00" fill="grey"> error_</text>
</g>
<!-- Node11&#45;&gt;Node13 -->
<g id="edge23_Node000013_Node000011" class="edge">
<title>Node11&#45;&gt;Node13</title>
<g id="a_edge23_Node000013_Node000011"><a xlink:title=" ">
<path fill="none" stroke="#9a32cd" stroke-dasharray="5,2" d="M1005.45,-199.17C1045.42,-204.14 1095.63,-211.22 1140,-220 1155.34,-223.03 1172.09,-227.2 1186.4,-231.02"/>
<polygon fill="#9a32cd" stroke="#9a32cd" points="1006.05,-195.72 995.7,-197.98 1005.2,-202.67 1006.05,-195.72"/>
</a>
</g>
<text text-anchor="middle" x="1076" y="-223" font-family="Helvetica,sans-Serif" font-size="10.00" fill="grey"> error_</text>
</g>
<!-- Node11&#45;&gt;Node14 -->
<g id="edge29_Node000014_Node000011" class="edge">
<title>Node11&#45;&gt;Node14</title>
<g id="a_edge29_Node000014_Node000011"><a xlink:title=" ">
<path fill="none" stroke="#9a32cd" stroke-dasharray="5,2" d="M967.15,-205.53C976.15,-209.76 985.64,-214.69 994,-220 1002.79,-225.59 1002.93,-229.89 1012,-235 1064.42,-264.52 1084.22,-256.48 1140,-279 1161.43,-287.65 1185.32,-299 1201.66,-307.04"/>
<polygon fill="#9a32cd" stroke="#9a32cd" points="968.84,-202.45 958.29,-201.52 965.96,-208.83 968.84,-202.45"/>
</a>
</g>
<text text-anchor="middle" x="1076" y="-282" font-family="Helvetica,sans-Serif" font-size="10.00" fill="grey"> error_</text>
</g>
<!-- Node12&#45;&gt;Node6 -->
<g id="edge16_Node000006_Node000012" class="edge">
<title>Node12&#45;&gt;Node6</title>
<g id="a_edge16_Node000006_Node000012"><a xlink:title=" ">
<path fill="none" stroke="#9a32cd" stroke-dasharray="5,2" d="M1284.97,-120.85C1315.88,-123.8 1353.45,-127.38 1385.36,-130.42"/>
<polygon fill="#9a32cd" stroke="#9a32cd" points="1285.7,-117.41 1275.42,-119.94 1285.04,-124.38 1285.7,-117.41"/>
</a>
</g>
<text text-anchor="middle" x="1331" y="-131" font-family="Helvetica,sans-Serif" font-size="10.00" fill="grey"> server_</text>
</g>
<!-- Node13&#45;&gt;Node6 -->
<g id="edge20_Node000006_Node000013" class="edge">
<title>Node13&#45;&gt;Node6</title>
<g id="a_edge20_Node000006_Node000013"><a xlink:title=" ">
<path fill="none" stroke="#9a32cd" stroke-dasharray="5,2" d="M1289.03,-234.67C1311.33,-230.86 1335.92,-224.76 1357,-215 1393.98,-197.88 1429.23,-163.84 1445.34,-146.96"/>
<polygon fill="#9a32cd" stroke="#9a32cd" points="1288.79,-231.16 1279.45,-236.17 1289.88,-238.08 1288.79,-231.16"/>
</a>
</g>
<text text-anchor="middle" x="1331" y="-235" font-family="Helvetica,sans-Serif" font-size="10.00" fill="grey"> session_</text>
</g>
<!-- Node14&#45;&gt;Node5 -->
<g id="edge26_Node000005_Node000014" class="edge">
<title>Node14&#45;&gt;Node5</title>
<g id="a_edge26_Node000005_Node000014"><a xlink:title=" ">
<path fill="none" stroke="#9a32cd" stroke-dasharray="5,2" d="M1298.63,-328.73C1394.27,-343.65 1557.54,-369.14 1644.84,-382.77"/>
<polygon fill="#9a32cd" stroke="#9a32cd" points="1299.22,-325.28 1288.8,-327.19 1298.14,-332.19 1299.22,-325.28"/>
</a>
</g>
<text text-anchor="middle" x="1455.5" y="-369" font-family="Helvetica,sans-Serif" font-size="10.00" fill="grey"> changeNotification_</text>
</g>
<!-- Node15 -->
<g id="Node000015" class="node">
<title>Node15</title>
<g id="a_Node000015"><a xlink:title=" ">
<polygon fill="white" stroke="#666666" points="1536,-522 1375,-522 1375,-492 1536,-492 1536,-522"/>
<text text-anchor="start" x="1383" y="-510" font-family="Helvetica,sans-Serif" font-size="10.00">std::vector&lt; std::unique</text>
<text text-anchor="middle" x="1455.5" y="-499" font-family="Helvetica,sans-Serif" font-size="10.00">_ptr&lt; Harlinn::OCI::BindBase &gt; &gt;</text>
</a>
</g>
</g>
<!-- Node15&#45;&gt;Node5 -->
<g id="edge30_Node000005_Node000015" class="edge">
<title>Node15&#45;&gt;Node5</title>
<g id="a_edge30_Node000005_Node000015"><a xlink:title=" ">
<path fill="none" stroke="#9a32cd" stroke-dasharray="5,2" d="M1547.04,-494.52C1573.87,-488.41 1602.59,-479.36 1627,-466 1657.25,-449.44 1684.19,-417.88 1696.66,-401.86"/>
<polygon fill="#9a32cd" stroke="#9a32cd" points="1546.59,-491.03 1537.55,-496.56 1548.06,-497.88 1546.59,-491.03"/>
</a>
</g>
<text text-anchor="middle" x="1590.5" y="-495" font-family="Helvetica,sans-Serif" font-size="10.00" fill="grey"> binds_</text>
</g>
<!-- Node16&#45;&gt;Node15 -->
<g id="edge31_Node000015_Node000016" class="edge">
<title>Node16&#45;&gt;Node15</title>
<g id="a_edge31_Node000015_Node000016"><a xlink:title=" ">
<path fill="none" stroke="#9a32cd" stroke-dasharray="5,2" d="M1294.4,-507C1319.82,-507 1348.63,-507 1374.75,-507"/>
<polygon fill="#9a32cd" stroke="#9a32cd" points="1294.5,-503.5 1284.5,-507 1294.5,-510.5 1294.5,-503.5"/>
</a>
</g>
<text text-anchor="middle" x="1331" y="-510" font-family="Helvetica,sans-Serif" font-size="10.00" fill="grey"> elements</text>
</g>
<!-- Node17&#45;&gt;Node16 -->
<g id="edge33_Node000016_Node000017" class="edge">
<title>Node17&#45;&gt;Node16</title>
<g id="a_edge33_Node000016_Node000017"><a xlink:title=" ">
<path fill="none" stroke="orange" stroke-dasharray="5,2" d="M348.44,-536.22C489.57,-534.23 843.91,-528.05 1140,-513 1147.23,-512.63 1154.81,-512.17 1162.32,-511.67"/>
<polygon fill="orange" stroke="orange" points="348.51,-532.71 338.56,-536.35 348.61,-539.71 348.51,-532.71"/>
</a>
</g>
<text text-anchor="middle" x="698" y="-533" font-family="Helvetica,sans-Serif" font-size="10.00" fill="grey"> &lt; Harlinn::OCI::BindBase &gt;</text>
</g>
<!-- Node18&#45;&gt;Node15 -->
<g id="edge35_Node000015_Node000018" class="edge">
<title>Node18&#45;&gt;Node15</title>
<g id="a_edge35_Node000015_Node000018"><a xlink:title=" ">
<path fill="none" stroke="orange" stroke-dasharray="5,2" d="M752.09,-583.41C855.25,-574.38 1090,-553.21 1287,-531 1318.17,-527.49 1325.94,-526.39 1357,-522 1362.77,-521.19 1368.72,-520.32 1374.71,-519.44"/>
<polygon fill="orange" stroke="orange" points="751.92,-579.91 742.26,-584.27 752.53,-586.89 751.92,-579.91"/>
</a>
</g>
<text text-anchor="start" x="1015" y="-573" font-family="Helvetica,sans-Serif" font-size="10.00" fill="grey"> &lt; std::unique_ptr&lt;</text>
<text text-anchor="middle" x="1076" y="-562" font-family="Helvetica,sans-Serif" font-size="10.00" fill="grey"> Harlinn::OCI::BindBase &gt; &gt;</text>
</g>
<!-- Node22 -->
<g id="Node000022" class="node">
<title>Node22</title>
<g id="a_Node000022"><a xlink:title=" ">
<polygon fill="white" stroke="#666666" points="981.5,-619.5 880.5,-619.5 880.5,-600.5 981.5,-600.5 981.5,-619.5"/>
<text text-anchor="middle" x="931" y="-607.5" font-family="Helvetica,sans-Serif" font-size="10.00">std::vector&lt; Int16 &gt;</text>
</a>
</g>
</g>
<!-- Node18&#45;&gt;Node22 -->
<g id="edge43_Node000022_Node000018" class="edge">
<title>Node18&#45;&gt;Node22</title>
<g id="a_edge43_Node000022_Node000018"><a xlink:title=" ">
<path fill="none" stroke="orange" stroke-dasharray="5,2" d="M751.82,-593.03C790.34,-596.7 842.2,-601.64 880.04,-605.24"/>
<polygon fill="orange" stroke="orange" points="752.63,-589.59 742.34,-592.13 751.96,-596.56 752.63,-589.59"/>
</a>
</g>
<text text-anchor="middle" x="815" y="-605" font-family="Helvetica,sans-Serif" font-size="10.00" fill="grey"> &lt; Int16 &gt;</text>
</g>
<!-- Node23 -->
<g id="Node000023" class="node">
<title>Node23</title>
<g id="a_Node000023"><a xlink:title=" ">
<polygon fill="white" stroke="#666666" points="1140,-667.5 1012,-667.5 1012,-648.5 1140,-648.5 1140,-667.5"/>
<text text-anchor="middle" x="1076" y="-655.5" font-family="Helvetica,sans-Serif" font-size="10.00">std::vector&lt; BoundType &gt;</text>
</a>
</g>
</g>
<!-- Node18&#45;&gt;Node23 -->
<g id="edge45_Node000023_Node000018" class="edge">
<title>Node18&#45;&gt;Node23</title>
<g id="a_edge45_Node000023_Node000018"><a xlink:title=" ">
<path fill="none" stroke="orange" stroke-dasharray="5,2" d="M733.06,-601.96C747.35,-607.35 764.28,-613.14 780,-617 858.58,-636.31 951.34,-647.33 1011.56,-652.98"/>
<polygon fill="orange" stroke="orange" points="734.71,-598.84 724.12,-598.49 732.18,-605.37 734.71,-598.84"/>
</a>
</g>
<text text-anchor="middle" x="815" y="-634" font-family="Helvetica,sans-Serif" font-size="10.00" fill="grey"> &lt; BoundType &gt;</text>
</g>
<!-- Node19 -->
<g id="Node000019" class="node">
<title>Node19</title>
<g id="a_Node000019"><a xlink:href="class_harlinn_1_1_common_1_1_core_1_1_basic_string.xhtml" target="_top" xlink:title=" ">
<polygon fill="white" stroke="#666666" points="760.5,-501 635.5,-501 635.5,-471 760.5,-471 760.5,-501"/>
<text text-anchor="start" x="643.5" y="-489" font-family="Helvetica,sans-Serif" font-size="10.00">Harlinn::Common::Core</text>
<text text-anchor="middle" x="698" y="-478" font-family="Helvetica,sans-Serif" font-size="10.00">::BasicString&lt; wchar_t &gt;</text>
</a>
</g>
</g>
<!-- Node19&#45;&gt;Node3 -->
<g id="edge37_Node000003_Node000019" class="edge">
<title>Node19&#45;&gt;Node3</title>
<g id="a_edge37_Node000003_Node000019"><a xlink:title=" ">
<path fill="none" stroke="#9a32cd" stroke-dasharray="5,2" d="M772.11,-486C804.46,-486 841.96,-486 872.29,-486"/>
<polygon fill="#9a32cd" stroke="#9a32cd" points="772.42,-482.5 762.42,-486 772.42,-489.5 772.42,-482.5"/>
</a>
</g>
<text text-anchor="middle" x="815" y="-489" font-family="Helvetica,sans-Serif" font-size="10.00" fill="grey"> name_</text>
</g>
<!-- Node20&#45;&gt;Node19 -->
<g id="edge38_Node000019_Node000020" class="edge">
<title>Node20&#45;&gt;Node19</title>
<g id="a_edge38_Node000019_Node000020"><a xlink:title=" ">
<path fill="none" stroke="#9a32cd" stroke-dasharray="5,2" d="M226.03,-478.74C263.9,-471.14 311.8,-462.79 355,-459 452.9,-450.41 566.67,-464.11 635.19,-474.94"/>
<polygon fill="#9a32cd" stroke="#9a32cd" points="225.71,-475.23 216.61,-480.66 227.1,-482.09 225.71,-475.23"/>
</a>
</g>
<text text-anchor="middle" x="419" y="-462" font-family="Helvetica,sans-Serif" font-size="10.00" fill="grey"> data_</text>
</g>
<!-- Node21 -->
<g id="Node000021" class="node">
<title>Node21</title>
<g id="a_Node000021"><a xlink:href="class_harlinn_1_1_common_1_1_core_1_1_basic_string.xhtml" target="_top" xlink:title="This is a reference counted string class.">
<polygon fill="white" stroke="#666666" points="478,-509 360,-509 360,-479 478,-479 478,-509"/>
<text text-anchor="start" x="368" y="-497" font-family="Helvetica,sans-Serif" font-size="10.00">Harlinn::Common::Core</text>
<text text-anchor="middle" x="419" y="-486" font-family="Helvetica,sans-Serif" font-size="10.00">::BasicString&lt; T &gt;</text>
</a>
</g>
</g>
<!-- Node20&#45;&gt;Node21 -->
<g id="edge41_Node000021_Node000020" class="edge">
<title>Node20&#45;&gt;Node21</title>
<g id="a_edge41_Node000021_Node000020"><a xlink:title=" ">
<path fill="none" stroke="#9a32cd" stroke-dasharray="5,2" d="M226.69,-494C268.31,-494 320.55,-494 359.93,-494"/>
<polygon fill="#9a32cd" stroke="#9a32cd" points="226.76,-490.5 216.76,-494 226.76,-497.5 226.76,-490.5"/>
</a>
</g>
<text text-anchor="middle" x="285" y="-497" font-family="Helvetica,sans-Serif" font-size="10.00" fill="grey"> data_</text>
</g>
<!-- Node21&#45;&gt;Node19 -->
<g id="edge40_Node000019_Node000021" class="edge">
<title>Node21&#45;&gt;Node19</title>
<g id="a_edge40_Node000019_Node000021"><a xlink:title=" ">
<path fill="none" stroke="orange" stroke-dasharray="5,2" d="M489.79,-491.98C534.58,-490.69 592.2,-489.03 635.31,-487.78"/>
<polygon fill="orange" stroke="orange" points="489.81,-488.48 479.92,-492.27 490.02,-495.48 489.81,-488.48"/>
</a>
</g>
<text text-anchor="middle" x="558.5" y="-494" font-family="Helvetica,sans-Serif" font-size="10.00" fill="grey"> &lt; wchar_t &gt;</text>
</g>
<!-- Node22&#45;&gt;Node2 -->
<g id="edge42_Node000002_Node000022" class="edge">
<title>Node22&#45;&gt;Node2</title>
<g id="a_edge42_Node000002_Node000022"><a xlink:title=" ">
<path fill="none" stroke="#9a32cd" stroke-dasharray="5,2" d="M993.09,-610.42C1043.24,-610.77 1113.79,-611.26 1163.17,-611.6"/>
<polygon fill="#9a32cd" stroke="#9a32cd" points="993.3,-606.92 983.28,-610.35 993.26,-613.92 993.3,-606.92"/>
</a>
</g>
<text text-anchor="middle" x="1076" y="-614" font-family="Helvetica,sans-Serif" font-size="10.00" fill="grey"> indicator_</text>
</g>
<!-- Node23&#45;&gt;Node1 -->
<g id="edge44_Node000001_Node000023" class="edge">
<title>Node23&#45;&gt;Node1</title>
<g id="a_edge44_Node000001_Node000023"><a xlink:title=" ">
<path fill="none" stroke="#9a32cd" stroke-dasharray="5,2" d="M1151.58,-655.43C1221.77,-653.01 1325.69,-649.44 1391.74,-647.16"/>
<polygon fill="#9a32cd" stroke="#9a32cd" points="1151.57,-651.93 1141.7,-655.77 1151.81,-658.93 1151.57,-651.93"/>
</a>
</g>
<text text-anchor="middle" x="1222.5" y="-658" font-family="Helvetica,sans-Serif" font-size="10.00" fill="grey"> data_</text>
</g>
</g>
</svg>
