<?xml version="1.0" encoding="UTF-8" standalone="no"?>
<!DOCTYPE svg PUBLIC "-//W3C//DTD SVG 1.1//EN"
 "http://www.w3.org/Graphics/SVG/1.1/DTD/svg11.dtd">
<!-- Generated by graphviz version 7.0.1 (20221109.1506)
 -->
<!-- Title: Harlinn::Common::Core::IO::FileHandler&lt; DerivedT &gt; Pages: 1 -->
<svg width="176pt" height="238pt"
 viewBox="0.00 0.00 175.50 238.00" xmlns="http://www.w3.org/2000/svg" xmlns:xlink="http://www.w3.org/1999/xlink">
<g id="graph0" class="graph" transform="scale(1 1) rotate(0) translate(4 234)">
<title>Harlinn::Common::Core::IO::FileHandler&lt; DerivedT &gt;</title>
<!-- Node1 -->
<g id="Node000001" class="node">
<title>Node1</title>
<g id="a_Node000001"><a xlink:title=" ">
<polygon fill="#999999" stroke="#666666" points="154.5,-174 12.5,-174 12.5,-144 154.5,-144 154.5,-174"/>
<text text-anchor="start" x="20.5" y="-162" font-family="Helvetica,sans-Serif" font-size="10.00">Harlinn::Common::Core</text>
<text text-anchor="middle" x="83.5" y="-151" font-family="Helvetica,sans-Serif" font-size="10.00">::IO::FileHandler&lt; DerivedT &gt;</text>
</a>
</g>
</g>
<!-- Node3 -->
<g id="Node000003" class="node">
<title>Node3</title>
<g id="a_Node000003"><a xlink:href="class_harlinn_1_1_common_1_1_core_1_1_i_o_1_1_file_handler.xhtml" target="_top" xlink:title=" ">
<polygon fill="white" stroke="#666666" points="167,-97 0,-97 0,-67 167,-67 167,-97"/>
<text text-anchor="start" x="8" y="-85" font-family="Helvetica,sans-Serif" font-size="10.00">Harlinn::Common::Core</text>
<text text-anchor="middle" x="83.5" y="-74" font-family="Helvetica,sans-Serif" font-size="10.00">::IO::FileHandler&lt; FileDispatcher &gt;</text>
</a>
</g>
</g>
<!-- Node1&#45;&gt;Node3 -->
<g id="edge2_Node000001_Node000003" class="edge">
<title>Node1&#45;&gt;Node3</title>
<g id="a_edge2_Node000001_Node000003"><a xlink:title=" ">
<path fill="none" stroke="orange" stroke-dasharray="5,2" d="M83.5,-132.23C83.5,-120.58 83.5,-107.26 83.5,-97.42"/>
<polygon fill="orange" stroke="orange" points="80,-132.03 83.5,-142.03 87,-132.03 80,-132.03"/>
</a>
</g>
<text text-anchor="middle" x="125.5" y="-118" font-family="Helvetica,sans-Serif" font-size="10.00" fill="grey"> &lt; FileDispatcher &gt;</text>
</g>
<!-- Node2 -->
<g id="Node000002" class="node">
<title>Node2</title>
<g id="a_Node000002"><a xlink:title=" ">
<polygon fill="white" stroke="#666666" points="125,-230 42,-230 42,-211 125,-211 125,-230"/>
<text text-anchor="middle" x="83.5" y="-218" font-family="Helvetica,sans-Serif" font-size="10.00">ContextHandler</text>
</a>
</g>
</g>
<!-- Node2&#45;&gt;Node1 -->
<g id="edge1_Node000001_Node000002" class="edge">
<title>Node2&#45;&gt;Node1</title>
<g id="a_edge1_Node000001_Node000002"><a xlink:title=" ">
<path fill="none" stroke="#63b8ff" d="M83.5,-199.46C83.5,-191.23 83.5,-181.89 83.5,-174.36"/>
<polygon fill="#63b8ff" stroke="#63b8ff" points="80,-199.21 83.5,-209.21 87,-199.21 80,-199.21"/>
</a>
</g>
</g>
<!-- Node4 -->
<g id="Node000004" class="node">
<title>Node4</title>
<g id="a_Node000004"><a xlink:href="class_harlinn_1_1_common_1_1_core_1_1_i_o_1_1_file_dispatcher.xhtml" target="_top" xlink:title=" ">
<polygon fill="white" stroke="#666666" points="142.5,-30 24.5,-30 24.5,0 142.5,0 142.5,-30"/>
<text text-anchor="start" x="32.5" y="-18" font-family="Helvetica,sans-Serif" font-size="10.00">Harlinn::Common::Core</text>
<text text-anchor="middle" x="83.5" y="-7" font-family="Helvetica,sans-Serif" font-size="10.00">::IO::FileDispatcher</text>
</a>
</g>
</g>
<!-- Node3&#45;&gt;Node4 -->
<g id="edge3_Node000003_Node000004" class="edge">
<title>Node3&#45;&gt;Node4</title>
<g id="a_edge3_Node000003_Node000004"><a xlink:title=" ">
<path fill="none" stroke="#63b8ff" d="M83.5,-55.28C83.5,-46.81 83.5,-37.7 83.5,-30.39"/>
<polygon fill="#63b8ff" stroke="#63b8ff" points="80,-55.06 83.5,-65.06 87,-55.06 80,-55.06"/>
</a>
</g>
</g>
</g>
</svg>
