<?xml version="1.0" encoding="UTF-8" standalone="no"?>
<!DOCTYPE svg PUBLIC "-//W3C//DTD SVG 1.1//EN"
 "http://www.w3.org/Graphics/SVG/1.1/DTD/svg11.dtd">
<!-- Generated by graphviz version 7.0.1 (20221109.1506)
 -->
<!-- Title: Harlinn::Windows::Imaging::ImagingObject Pages: 1 -->
<svg width="834pt" height="806pt"
 viewBox="0.00 0.00 834.00 806.00" xmlns="http://www.w3.org/2000/svg" xmlns:xlink="http://www.w3.org/1999/xlink">
<g id="graph0" class="graph" transform="scale(1 1) rotate(0) translate(4 802)">
<title>Harlinn::Windows::Imaging::ImagingObject</title>
<!-- Node1 -->
<g id="Node000001" class="node">
<title>Node1</title>
<g id="a_Node000001"><a xlink:title=" ">
<polygon fill="#999999" stroke="#666666" points="286,-414 154,-414 154,-384 286,-384 286,-414"/>
<text text-anchor="start" x="162" y="-402" font-family="Helvetica,sans-Serif" font-size="10.00">Harlinn::Windows::Imaging</text>
<text text-anchor="middle" x="220" y="-391" font-family="Helvetica,sans-Serif" font-size="10.00">::ImagingObject</text>
</a>
</g>
</g>
<!-- Node3 -->
<g id="Node000003" class="node">
<title>Node3</title>
<g id="a_Node000003"><a xlink:href="class_harlinn_1_1_windows_1_1_imaging_1_1_bitmap_codec_progress_notification.xhtml" target="_top" xlink:title=" ">
<polygon fill="white" stroke="#666666" points="490,-798 322,-798 322,-768 490,-768 490,-798"/>
<text text-anchor="start" x="330" y="-786" font-family="Helvetica,sans-Serif" font-size="10.00">Harlinn::Windows::Imaging</text>
<text text-anchor="middle" x="406" y="-775" font-family="Helvetica,sans-Serif" font-size="10.00">::BitmapCodecProgressNotification</text>
</a>
</g>
</g>
<!-- Node1&#45;&gt;Node3 -->
<g id="edge2_Node000001_Node000003" class="edge">
<title>Node1&#45;&gt;Node3</title>
<g id="a_edge2_Node000001_Node000003"><a xlink:title=" ">
<path fill="none" stroke="#63b8ff" d="M220.27,-425.57C219.95,-491.64 228.58,-664.84 322,-759 325.27,-762.3 328.97,-765.15 332.95,-767.62"/>
<polygon fill="#63b8ff" stroke="#63b8ff" points="223.76,-425.74 220.4,-415.69 216.76,-425.64 223.76,-425.74"/>
</a>
</g>
</g>
<!-- Node4 -->
<g id="Node000004" class="node">
<title>Node4</title>
<g id="a_Node000004"><a xlink:href="class_harlinn_1_1_windows_1_1_imaging_1_1_bitmap_decoder.xhtml" target="_top" xlink:title=" ">
<polygon fill="white" stroke="#666666" points="472,-750 340,-750 340,-720 472,-720 472,-750"/>
<text text-anchor="start" x="348" y="-738" font-family="Helvetica,sans-Serif" font-size="10.00">Harlinn::Windows::Imaging</text>
<text text-anchor="middle" x="406" y="-727" font-family="Helvetica,sans-Serif" font-size="10.00">::BitmapDecoder</text>
</a>
</g>
</g>
<!-- Node1&#45;&gt;Node4 -->
<g id="edge3_Node000001_Node000004" class="edge">
<title>Node1&#45;&gt;Node4</title>
<g id="a_edge3_Node000001_Node000004"><a xlink:title=" ">
<path fill="none" stroke="#63b8ff" d="M221.63,-425.65C224.54,-485.53 240.12,-631.66 322,-711 327.17,-716.01 333.32,-719.99 339.9,-723.14"/>
<polygon fill="#63b8ff" stroke="#63b8ff" points="225.13,-425.61 221.25,-415.75 218.14,-425.88 225.13,-425.61"/>
</a>
</g>
</g>
<!-- Node5 -->
<g id="Node000005" class="node">
<title>Node5</title>
<g id="a_Node000005"><a xlink:href="class_harlinn_1_1_windows_1_1_imaging_1_1_bitmap_encoder.xhtml" target="_top" xlink:title=" ">
<polygon fill="white" stroke="#666666" points="472,-702 340,-702 340,-672 472,-672 472,-702"/>
<text text-anchor="start" x="348" y="-690" font-family="Helvetica,sans-Serif" font-size="10.00">Harlinn::Windows::Imaging</text>
<text text-anchor="middle" x="406" y="-679" font-family="Helvetica,sans-Serif" font-size="10.00">::BitmapEncoder</text>
</a>
</g>
</g>
<!-- Node1&#45;&gt;Node5 -->
<g id="edge4_Node000001_Node000005" class="edge">
<title>Node1&#45;&gt;Node5</title>
<g id="a_edge4_Node000001_Node000005"><a xlink:title=" ">
<path fill="none" stroke="#63b8ff" d="M223.44,-425.56C229.76,-478.61 251.45,-598.14 322,-663 327.19,-667.77 333.27,-671.6 339.74,-674.67"/>
<polygon fill="#63b8ff" stroke="#63b8ff" points="226.96,-425.5 222.4,-415.93 220,-426.25 226.96,-425.5"/>
</a>
</g>
</g>
<!-- Node6 -->
<g id="Node000006" class="node">
<title>Node6</title>
<g id="a_Node000006"><a xlink:href="class_harlinn_1_1_windows_1_1_imaging_1_1_bitmap_frame_encode.xhtml" target="_top" xlink:title=" ">
<polygon fill="white" stroke="#666666" points="472,-654 340,-654 340,-624 472,-624 472,-654"/>
<text text-anchor="start" x="348" y="-642" font-family="Helvetica,sans-Serif" font-size="10.00">Harlinn::Windows::Imaging</text>
<text text-anchor="middle" x="406" y="-631" font-family="Helvetica,sans-Serif" font-size="10.00">::BitmapFrameEncode</text>
</a>
</g>
</g>
<!-- Node1&#45;&gt;Node6 -->
<g id="edge5_Node000001_Node000006" class="edge">
<title>Node1&#45;&gt;Node6</title>
<g id="a_edge5_Node000001_Node000006"><a xlink:title=" ">
<path fill="none" stroke="#63b8ff" d="M225.97,-425.45C235.92,-471 262.65,-564.25 322,-615 327.24,-619.48 333.28,-623.13 339.66,-626.1"/>
<polygon fill="#63b8ff" stroke="#63b8ff" points="229.45,-425.01 224,-415.93 222.6,-426.43 229.45,-425.01"/>
</a>
</g>
</g>
<!-- Node7 -->
<g id="Node000007" class="node">
<title>Node7</title>
<g id="a_Node000007"><a xlink:href="class_harlinn_1_1_windows_1_1_imaging_1_1_bitmap_lock.xhtml" target="_top" xlink:title=" ">
<polygon fill="white" stroke="#666666" points="472,-606 340,-606 340,-576 472,-576 472,-606"/>
<text text-anchor="start" x="348" y="-594" font-family="Helvetica,sans-Serif" font-size="10.00">Harlinn::Windows::Imaging</text>
<text text-anchor="middle" x="406" y="-583" font-family="Helvetica,sans-Serif" font-size="10.00">::BitmapLock</text>
</a>
</g>
</g>
<!-- Node1&#45;&gt;Node7 -->
<g id="edge6_Node000001_Node000007" class="edge">
<title>Node1&#45;&gt;Node7</title>
<g id="a_edge6_Node000001_Node000007"><a xlink:title=" ">
<path fill="none" stroke="#63b8ff" d="M229.6,-424.82C243.27,-461.86 273.47,-529.68 322,-567 327.35,-571.11 333.39,-574.52 339.7,-577.35"/>
<polygon fill="#63b8ff" stroke="#63b8ff" points="233.05,-424.06 226.4,-415.81 226.45,-426.41 233.05,-424.06"/>
</a>
</g>
</g>
<!-- Node8 -->
<g id="Node000008" class="node">
<title>Node8</title>
<g id="a_Node000008"><a xlink:href="class_harlinn_1_1_windows_1_1_imaging_1_1_bitmap_source.xhtml" target="_top" xlink:title=" ">
<polygon fill="white" stroke="#666666" points="472,-558 340,-558 340,-528 472,-528 472,-558"/>
<text text-anchor="start" x="348" y="-546" font-family="Helvetica,sans-Serif" font-size="10.00">Harlinn::Windows::Imaging</text>
<text text-anchor="middle" x="406" y="-535" font-family="Helvetica,sans-Serif" font-size="10.00">::BitmapSource</text>
</a>
</g>
</g>
<!-- Node1&#45;&gt;Node8 -->
<g id="edge7_Node000001_Node000008" class="edge">
<title>Node1&#45;&gt;Node8</title>
<g id="a_edge7_Node000001_Node000008"><a xlink:title=" ">
<path fill="none" stroke="#63b8ff" d="M235.68,-424.02C252.95,-451.32 284.14,-494.39 322,-519 327.53,-522.6 333.62,-525.67 339.9,-528.28"/>
<polygon fill="#63b8ff" stroke="#63b8ff" points="238.77,-422.37 230.55,-415.69 232.81,-426.04 238.77,-422.37"/>
</a>
</g>
</g>
<!-- Node16 -->
<g id="Node000016" class="node">
<title>Node16</title>
<g id="a_Node000016"><a xlink:href="class_harlinn_1_1_windows_1_1_imaging_1_1_bitmap_source_transform.xhtml" target="_top" xlink:title=" ">
<polygon fill="white" stroke="#666666" points="472,-510 340,-510 340,-480 472,-480 472,-510"/>
<text text-anchor="start" x="348" y="-498" font-family="Helvetica,sans-Serif" font-size="10.00">Harlinn::Windows::Imaging</text>
<text text-anchor="middle" x="406" y="-487" font-family="Helvetica,sans-Serif" font-size="10.00">::BitmapSourceTransform</text>
</a>
</g>
</g>
<!-- Node1&#45;&gt;Node16 -->
<g id="edge15_Node000001_Node000016" class="edge">
<title>Node1&#45;&gt;Node16</title>
<g id="a_edge15_Node000001_Node000016"><a xlink:title=" ">
<path fill="none" stroke="#63b8ff" d="M247.31,-421.55C266.83,-437.3 294.68,-457.79 322,-471 328.62,-474.2 335.74,-477.05 342.94,-479.58"/>
<polygon fill="#63b8ff" stroke="#63b8ff" points="249.55,-418.87 239.61,-415.22 245.11,-424.27 249.55,-418.87"/>
</a>
</g>
</g>
<!-- Node17 -->
<g id="Node000017" class="node">
<title>Node17</title>
<g id="a_Node000017"><a xlink:href="class_harlinn_1_1_windows_1_1_imaging_1_1_color_context.xhtml" target="_top" xlink:title=" ">
<polygon fill="white" stroke="#666666" points="472,-462 340,-462 340,-432 472,-432 472,-462"/>
<text text-anchor="start" x="348" y="-450" font-family="Helvetica,sans-Serif" font-size="10.00">Harlinn::Windows::Imaging</text>
<text text-anchor="middle" x="406" y="-439" font-family="Helvetica,sans-Serif" font-size="10.00">::ColorContext</text>
</a>
</g>
</g>
<!-- Node1&#45;&gt;Node17 -->
<g id="edge16_Node000001_Node000017" class="edge">
<title>Node1&#45;&gt;Node17</title>
<g id="a_edge16_Node000001_Node000017"><a xlink:title=" ">
<path fill="none" stroke="#63b8ff" d="M291.27,-417.33C309.29,-422.03 328.49,-427.04 345.88,-431.58"/>
<polygon fill="#63b8ff" stroke="#63b8ff" points="292.26,-413.97 281.7,-414.83 290.49,-420.74 292.26,-413.97"/>
</a>
</g>
</g>
<!-- Node18 -->
<g id="Node000018" class="node">
<title>Node18</title>
<g id="a_Node000018"><a xlink:href="class_harlinn_1_1_windows_1_1_imaging_1_1_component_info.xhtml" target="_top" xlink:title=" ">
<polygon fill="white" stroke="#666666" points="472,-414 340,-414 340,-384 472,-384 472,-414"/>
<text text-anchor="start" x="348" y="-402" font-family="Helvetica,sans-Serif" font-size="10.00">Harlinn::Windows::Imaging</text>
<text text-anchor="middle" x="406" y="-391" font-family="Helvetica,sans-Serif" font-size="10.00">::ComponentInfo</text>
</a>
</g>
</g>
<!-- Node1&#45;&gt;Node18 -->
<g id="edge17_Node000001_Node000018" class="edge">
<title>Node1&#45;&gt;Node18</title>
<g id="a_edge17_Node000001_Node000018"><a xlink:title=" ">
<path fill="none" stroke="#63b8ff" d="M297.88,-399C311.72,-399 326.03,-399 339.51,-399"/>
<polygon fill="#63b8ff" stroke="#63b8ff" points="297.9,-395.5 287.9,-399 297.9,-402.5 297.9,-395.5"/>
</a>
</g>
</g>
<!-- Node24 -->
<g id="Node000024" class="node">
<title>Node24</title>
<g id="a_Node000024"><a xlink:href="class_harlinn_1_1_windows_1_1_imaging_1_1_enum_metadata_item.xhtml" target="_top" xlink:title=" ">
<polygon fill="white" stroke="#666666" points="472,-366 340,-366 340,-336 472,-336 472,-366"/>
<text text-anchor="start" x="348" y="-354" font-family="Helvetica,sans-Serif" font-size="10.00">Harlinn::Windows::Imaging</text>
<text text-anchor="middle" x="406" y="-343" font-family="Helvetica,sans-Serif" font-size="10.00">::EnumMetadataItem</text>
</a>
</g>
</g>
<!-- Node1&#45;&gt;Node24 -->
<g id="edge23_Node000001_Node000024" class="edge">
<title>Node1&#45;&gt;Node24</title>
<g id="a_edge23_Node000001_Node000024"><a xlink:title=" ">
<path fill="none" stroke="#63b8ff" d="M291.27,-380.67C309.29,-375.97 328.49,-370.96 345.88,-366.42"/>
<polygon fill="#63b8ff" stroke="#63b8ff" points="290.49,-377.26 281.7,-383.17 292.26,-384.03 290.49,-377.26"/>
</a>
</g>
</g>
<!-- Node25 -->
<g id="Node000025" class="node">
<title>Node25</title>
<g id="a_Node000025"><a xlink:href="class_harlinn_1_1_windows_1_1_imaging_1_1_fast_metadata_encoder.xhtml" target="_top" xlink:title=" ">
<polygon fill="white" stroke="#666666" points="472,-318 340,-318 340,-288 472,-288 472,-318"/>
<text text-anchor="start" x="348" y="-306" font-family="Helvetica,sans-Serif" font-size="10.00">Harlinn::Windows::Imaging</text>
<text text-anchor="middle" x="406" y="-295" font-family="Helvetica,sans-Serif" font-size="10.00">::FastMetadataEncoder</text>
</a>
</g>
</g>
<!-- Node1&#45;&gt;Node25 -->
<g id="edge24_Node000001_Node000025" class="edge">
<title>Node1&#45;&gt;Node25</title>
<g id="a_edge24_Node000001_Node000025"><a xlink:title=" ">
<path fill="none" stroke="#63b8ff" d="M247.31,-376.45C266.83,-360.7 294.68,-340.21 322,-327 328.62,-323.8 335.74,-320.95 342.94,-318.42"/>
<polygon fill="#63b8ff" stroke="#63b8ff" points="245.11,-373.73 239.61,-382.78 249.55,-379.13 245.11,-373.73"/>
</a>
</g>
</g>
<!-- Node26 -->
<g id="Node000026" class="node">
<title>Node26</title>
<g id="a_Node000026"><a xlink:href="class_harlinn_1_1_windows_1_1_imaging_1_1_image_encoder.xhtml" target="_top" xlink:title=" ">
<polygon fill="white" stroke="#666666" points="472,-270 340,-270 340,-240 472,-240 472,-270"/>
<text text-anchor="start" x="348" y="-258" font-family="Helvetica,sans-Serif" font-size="10.00">Harlinn::Windows::Imaging</text>
<text text-anchor="middle" x="406" y="-247" font-family="Helvetica,sans-Serif" font-size="10.00">::ImageEncoder</text>
</a>
</g>
</g>
<!-- Node1&#45;&gt;Node26 -->
<g id="edge25_Node000001_Node000026" class="edge">
<title>Node1&#45;&gt;Node26</title>
<g id="a_edge25_Node000001_Node000026"><a xlink:title=" ">
<path fill="none" stroke="#63b8ff" d="M235.68,-373.98C252.95,-346.68 284.14,-303.61 322,-279 327.53,-275.4 333.62,-272.33 339.9,-269.72"/>
<polygon fill="#63b8ff" stroke="#63b8ff" points="232.81,-371.96 230.55,-382.31 238.77,-375.63 232.81,-371.96"/>
</a>
</g>
</g>
<!-- Node27 -->
<g id="Node000027" class="node">
<title>Node27</title>
<g id="a_Node000027"><a xlink:href="class_harlinn_1_1_windows_1_1_imaging_1_1_imaging_factory.xhtml" target="_top" xlink:title=" ">
<polygon fill="white" stroke="#666666" points="472,-222 340,-222 340,-192 472,-192 472,-222"/>
<text text-anchor="start" x="348" y="-210" font-family="Helvetica,sans-Serif" font-size="10.00">Harlinn::Windows::Imaging</text>
<text text-anchor="middle" x="406" y="-199" font-family="Helvetica,sans-Serif" font-size="10.00">::ImagingFactory</text>
</a>
</g>
</g>
<!-- Node1&#45;&gt;Node27 -->
<g id="edge26_Node000001_Node000027" class="edge">
<title>Node1&#45;&gt;Node27</title>
<g id="a_edge26_Node000001_Node000027"><a xlink:title=" ">
<path fill="none" stroke="#63b8ff" d="M229.6,-373.18C243.27,-336.14 273.47,-268.32 322,-231 327.35,-226.89 333.39,-223.48 339.7,-220.65"/>
<polygon fill="#63b8ff" stroke="#63b8ff" points="226.45,-371.59 226.4,-382.19 233.05,-373.94 226.45,-371.59"/>
</a>
</g>
</g>
<!-- Node28 -->
<g id="Node000028" class="node">
<title>Node28</title>
<g id="a_Node000028"><a xlink:href="class_harlinn_1_1_windows_1_1_imaging_1_1_metadata_query_reader.xhtml" target="_top" xlink:title=" ">
<polygon fill="white" stroke="#666666" points="472,-174 340,-174 340,-144 472,-144 472,-174"/>
<text text-anchor="start" x="348" y="-162" font-family="Helvetica,sans-Serif" font-size="10.00">Harlinn::Windows::Imaging</text>
<text text-anchor="middle" x="406" y="-151" font-family="Helvetica,sans-Serif" font-size="10.00">::MetadataQueryReader</text>
</a>
</g>
</g>
<!-- Node1&#45;&gt;Node28 -->
<g id="edge27_Node000001_Node000028" class="edge">
<title>Node1&#45;&gt;Node28</title>
<g id="a_edge27_Node000001_Node000028"><a xlink:title=" ">
<path fill="none" stroke="#63b8ff" d="M225.97,-372.55C235.92,-327 262.65,-233.75 322,-183 327.24,-178.52 333.28,-174.87 339.66,-171.9"/>
<polygon fill="#63b8ff" stroke="#63b8ff" points="222.6,-371.57 224,-382.07 229.45,-372.99 222.6,-371.57"/>
</a>
</g>
</g>
<!-- Node30 -->
<g id="Node000030" class="node">
<title>Node30</title>
<g id="a_Node000030"><a xlink:href="class_harlinn_1_1_windows_1_1_imaging_1_1_palette.xhtml" target="_top" xlink:title=" ">
<polygon fill="white" stroke="#666666" points="472,-126 340,-126 340,-96 472,-96 472,-126"/>
<text text-anchor="start" x="348" y="-114" font-family="Helvetica,sans-Serif" font-size="10.00">Harlinn::Windows::Imaging</text>
<text text-anchor="middle" x="406" y="-103" font-family="Helvetica,sans-Serif" font-size="10.00">::Palette</text>
</a>
</g>
</g>
<!-- Node1&#45;&gt;Node30 -->
<g id="edge29_Node000001_Node000030" class="edge">
<title>Node1&#45;&gt;Node30</title>
<g id="a_edge29_Node000001_Node000030"><a xlink:title=" ">
<path fill="none" stroke="#63b8ff" d="M223.44,-372.44C229.76,-319.39 251.45,-199.86 322,-135 327.19,-130.23 333.27,-126.4 339.74,-123.33"/>
<polygon fill="#63b8ff" stroke="#63b8ff" points="220,-371.75 222.4,-382.07 226.96,-372.5 220,-371.75"/>
</a>
</g>
</g>
<!-- Node31 -->
<g id="Node000031" class="node">
<title>Node31</title>
<g id="a_Node000031"><a xlink:href="class_harlinn_1_1_windows_1_1_imaging_1_1_progressive_level_control.xhtml" target="_top" xlink:title=" ">
<polygon fill="white" stroke="#666666" points="472,-78 340,-78 340,-48 472,-48 472,-78"/>
<text text-anchor="start" x="348" y="-66" font-family="Helvetica,sans-Serif" font-size="10.00">Harlinn::Windows::Imaging</text>
<text text-anchor="middle" x="406" y="-55" font-family="Helvetica,sans-Serif" font-size="10.00">::ProgressiveLevelControl</text>
</a>
</g>
</g>
<!-- Node1&#45;&gt;Node31 -->
<g id="edge30_Node000001_Node000031" class="edge">
<title>Node1&#45;&gt;Node31</title>
<g id="a_edge30_Node000001_Node000031"><a xlink:title=" ">
<path fill="none" stroke="#63b8ff" d="M221.63,-372.35C224.54,-312.47 240.12,-166.34 322,-87 327.17,-81.99 333.32,-78.01 339.9,-74.86"/>
<polygon fill="#63b8ff" stroke="#63b8ff" points="218.14,-372.12 221.25,-382.25 225.13,-372.39 218.14,-372.12"/>
</a>
</g>
</g>
<!-- Node32 -->
<g id="Node000032" class="node">
<title>Node32</title>
<g id="a_Node000032"><a xlink:href="class_harlinn_1_1_windows_1_1_imaging_1_1_stream.xhtml" target="_top" xlink:title=" ">
<polygon fill="white" stroke="#666666" points="472,-30 340,-30 340,0 472,0 472,-30"/>
<text text-anchor="start" x="348" y="-18" font-family="Helvetica,sans-Serif" font-size="10.00">Harlinn::Windows::Imaging</text>
<text text-anchor="middle" x="406" y="-7" font-family="Helvetica,sans-Serif" font-size="10.00">::Stream</text>
</a>
</g>
</g>
<!-- Node1&#45;&gt;Node32 -->
<g id="edge31_Node000001_Node000032" class="edge">
<title>Node1&#45;&gt;Node32</title>
<g id="a_edge31_Node000001_Node000032"><a xlink:title=" ">
<path fill="none" stroke="#63b8ff" d="M220.27,-372.43C219.95,-306.36 228.58,-133.16 322,-39 327.07,-33.89 333.16,-29.85 339.7,-26.66"/>
<polygon fill="#63b8ff" stroke="#63b8ff" points="216.76,-372.36 220.4,-382.31 223.76,-372.26 216.76,-372.36"/>
</a>
</g>
</g>
<!-- Node2 -->
<g id="Node000002" class="node">
<title>Node2</title>
<g id="a_Node000002"><a xlink:href="class_harlinn_1_1_common_1_1_core_1_1_unknown.xhtml" target="_top" xlink:title=" ">
<polygon fill="white" stroke="#666666" points="118,-414 0,-414 0,-384 118,-384 118,-414"/>
<text text-anchor="start" x="8" y="-402" font-family="Helvetica,sans-Serif" font-size="10.00">Harlinn::Common::Core</text>
<text text-anchor="middle" x="59" y="-391" font-family="Helvetica,sans-Serif" font-size="10.00">::Unknown</text>
</a>
</g>
</g>
<!-- Node2&#45;&gt;Node1 -->
<g id="edge1_Node000001_Node000002" class="edge">
<title>Node2&#45;&gt;Node1</title>
<g id="a_edge1_Node000001_Node000002"><a xlink:title=" ">
<path fill="none" stroke="#63b8ff" d="M129.81,-399C137.76,-399 145.84,-399 153.72,-399"/>
<polygon fill="#63b8ff" stroke="#63b8ff" points="129.82,-395.5 119.82,-399 129.82,-402.5 129.82,-395.5"/>
</a>
</g>
</g>
<!-- Node9 -->
<g id="Node000009" class="node">
<title>Node9</title>
<g id="a_Node000009"><a xlink:href="class_harlinn_1_1_windows_1_1_imaging_1_1_bitmap.xhtml" target="_top" xlink:title=" ">
<polygon fill="white" stroke="#666666" points="658,-750 526,-750 526,-720 658,-720 658,-750"/>
<text text-anchor="start" x="534" y="-738" font-family="Helvetica,sans-Serif" font-size="10.00">Harlinn::Windows::Imaging</text>
<text text-anchor="middle" x="592" y="-727" font-family="Helvetica,sans-Serif" font-size="10.00">::Bitmap</text>
</a>
</g>
</g>
<!-- Node8&#45;&gt;Node9 -->
<g id="edge8_Node000008_Node000009" class="edge">
<title>Node8&#45;&gt;Node9</title>
<g id="a_edge8_Node000008_Node000009"><a xlink:title=" ">
<path fill="none" stroke="#63b8ff" d="M482.07,-560.22C484.91,-562.24 487.58,-564.49 490,-567 535.79,-614.49 481.96,-661.89 526,-711 528.97,-714.31 532.44,-717.17 536.2,-719.63"/>
<polygon fill="#63b8ff" stroke="#63b8ff" points="484.13,-557.37 473.75,-555.29 480.57,-563.4 484.13,-557.37"/>
</a>
</g>
</g>
<!-- Node10 -->
<g id="Node000010" class="node">
<title>Node10</title>
<g id="a_Node000010"><a xlink:href="class_harlinn_1_1_windows_1_1_imaging_1_1_bitmap_clipper.xhtml" target="_top" xlink:title=" ">
<polygon fill="white" stroke="#666666" points="658,-702 526,-702 526,-672 658,-672 658,-702"/>
<text text-anchor="start" x="534" y="-690" font-family="Helvetica,sans-Serif" font-size="10.00">Harlinn::Windows::Imaging</text>
<text text-anchor="middle" x="592" y="-679" font-family="Helvetica,sans-Serif" font-size="10.00">::BitmapClipper</text>
</a>
</g>
</g>
<!-- Node8&#45;&gt;Node10 -->
<g id="edge9_Node000008_Node000010" class="edge">
<title>Node8&#45;&gt;Node10</title>
<g id="a_edge9_Node000008_Node000010"><a xlink:title=" ">
<path fill="none" stroke="#63b8ff" d="M482.18,-560.87C484.95,-562.72 487.57,-564.76 490,-567 523.44,-597.95 493.7,-630.86 526,-663 529.33,-666.31 533.15,-669.17 537.23,-671.63"/>
<polygon fill="#63b8ff" stroke="#63b8ff" points="484.04,-557.9 473.61,-556.04 480.6,-564 484.04,-557.9"/>
</a>
</g>
</g>
<!-- Node11 -->
<g id="Node000011" class="node">
<title>Node11</title>
<g id="a_Node000011"><a xlink:href="class_harlinn_1_1_windows_1_1_imaging_1_1_bitmap_flip_rotator.xhtml" target="_top" xlink:title=" ">
<polygon fill="white" stroke="#666666" points="658,-654 526,-654 526,-624 658,-624 658,-654"/>
<text text-anchor="start" x="534" y="-642" font-family="Helvetica,sans-Serif" font-size="10.00">Harlinn::Windows::Imaging</text>
<text text-anchor="middle" x="592" y="-631" font-family="Helvetica,sans-Serif" font-size="10.00">::BitmapFlipRotator</text>
</a>
</g>
</g>
<!-- Node8&#45;&gt;Node11 -->
<g id="edge10_Node000008_Node000011" class="edge">
<title>Node8&#45;&gt;Node11</title>
<g id="a_edge10_Node000008_Node000011"><a xlink:title=" ">
<path fill="none" stroke="#63b8ff" d="M482.57,-562.4C485.14,-563.83 487.62,-565.36 490,-567 511.94,-582.15 504.62,-599.06 526,-615 530.34,-618.23 535.16,-621.07 540.16,-623.56"/>
<polygon fill="#63b8ff" stroke="#63b8ff" points="484.2,-559.3 473.67,-558.06 481.13,-565.6 484.2,-559.3"/>
</a>
</g>
</g>
<!-- Node12 -->
<g id="Node000012" class="node">
<title>Node12</title>
<g id="a_Node000012"><a xlink:href="class_harlinn_1_1_windows_1_1_imaging_1_1_bitmap_frame_decode.xhtml" target="_top" xlink:title=" ">
<polygon fill="white" stroke="#666666" points="658,-606 526,-606 526,-576 658,-576 658,-606"/>
<text text-anchor="start" x="534" y="-594" font-family="Helvetica,sans-Serif" font-size="10.00">Harlinn::Windows::Imaging</text>
<text text-anchor="middle" x="592" y="-583" font-family="Helvetica,sans-Serif" font-size="10.00">::BitmapFrameDecode</text>
</a>
</g>
</g>
<!-- Node8&#45;&gt;Node12 -->
<g id="edge11_Node000008_Node000012" class="edge">
<title>Node8&#45;&gt;Node12</title>
<g id="a_edge11_Node000008_Node000012"><a xlink:title=" ">
<path fill="none" stroke="#63b8ff" d="M477.27,-561.33C495.29,-566.03 514.49,-571.04 531.88,-575.58"/>
<polygon fill="#63b8ff" stroke="#63b8ff" points="478.26,-557.97 467.7,-558.83 476.49,-564.74 478.26,-557.97"/>
</a>
</g>
</g>
<!-- Node13 -->
<g id="Node000013" class="node">
<title>Node13</title>
<g id="a_Node000013"><a xlink:href="class_harlinn_1_1_windows_1_1_imaging_1_1_bitmap_scaler.xhtml" target="_top" xlink:title=" ">
<polygon fill="white" stroke="#666666" points="658,-558 526,-558 526,-528 658,-528 658,-558"/>
<text text-anchor="start" x="534" y="-546" font-family="Helvetica,sans-Serif" font-size="10.00">Harlinn::Windows::Imaging</text>
<text text-anchor="middle" x="592" y="-535" font-family="Helvetica,sans-Serif" font-size="10.00">::BitmapScaler</text>
</a>
</g>
</g>
<!-- Node8&#45;&gt;Node13 -->
<g id="edge12_Node000008_Node000013" class="edge">
<title>Node8&#45;&gt;Node13</title>
<g id="a_edge12_Node000008_Node000013"><a xlink:title=" ">
<path fill="none" stroke="#63b8ff" d="M483.88,-543C497.72,-543 512.03,-543 525.51,-543"/>
<polygon fill="#63b8ff" stroke="#63b8ff" points="483.9,-539.5 473.9,-543 483.9,-546.5 483.9,-539.5"/>
</a>
</g>
</g>
<!-- Node14 -->
<g id="Node000014" class="node">
<title>Node14</title>
<g id="a_Node000014"><a xlink:href="class_harlinn_1_1_windows_1_1_imaging_1_1_color_transform.xhtml" target="_top" xlink:title=" ">
<polygon fill="white" stroke="#666666" points="658,-510 526,-510 526,-480 658,-480 658,-510"/>
<text text-anchor="start" x="534" y="-498" font-family="Helvetica,sans-Serif" font-size="10.00">Harlinn::Windows::Imaging</text>
<text text-anchor="middle" x="592" y="-487" font-family="Helvetica,sans-Serif" font-size="10.00">::ColorTransform</text>
</a>
</g>
</g>
<!-- Node8&#45;&gt;Node14 -->
<g id="edge13_Node000008_Node000014" class="edge">
<title>Node8&#45;&gt;Node14</title>
<g id="a_edge13_Node000008_Node000014"><a xlink:title=" ">
<path fill="none" stroke="#63b8ff" d="M477.27,-524.67C495.29,-519.97 514.49,-514.96 531.88,-510.42"/>
<polygon fill="#63b8ff" stroke="#63b8ff" points="476.49,-521.26 467.7,-527.17 478.26,-528.03 476.49,-521.26"/>
</a>
</g>
</g>
<!-- Node15 -->
<g id="Node000015" class="node">
<title>Node15</title>
<g id="a_Node000015"><a xlink:href="class_harlinn_1_1_windows_1_1_imaging_1_1_format_converter.xhtml" target="_top" xlink:title=" ">
<polygon fill="white" stroke="#666666" points="658,-462 526,-462 526,-432 658,-432 658,-462"/>
<text text-anchor="start" x="534" y="-450" font-family="Helvetica,sans-Serif" font-size="10.00">Harlinn::Windows::Imaging</text>
<text text-anchor="middle" x="592" y="-439" font-family="Helvetica,sans-Serif" font-size="10.00">::FormatConverter</text>
</a>
</g>
</g>
<!-- Node8&#45;&gt;Node15 -->
<g id="edge14_Node000008_Node000015" class="edge">
<title>Node8&#45;&gt;Node15</title>
<g id="a_edge14_Node000008_Node000015"><a xlink:title=" ">
<path fill="none" stroke="#63b8ff" d="M482.57,-523.6C485.14,-522.17 487.62,-520.64 490,-519 511.94,-503.85 504.62,-486.94 526,-471 530.34,-467.77 535.16,-464.93 540.16,-462.44"/>
<polygon fill="#63b8ff" stroke="#63b8ff" points="481.13,-520.4 473.67,-527.94 484.2,-526.7 481.13,-520.4"/>
</a>
</g>
</g>
<!-- Node19 -->
<g id="Node000019" class="node">
<title>Node19</title>
<g id="a_Node000019"><a xlink:href="class_harlinn_1_1_windows_1_1_imaging_1_1_bitmap_codec_info.xhtml" target="_top" xlink:title=" ">
<polygon fill="white" stroke="#666666" points="658,-414 526,-414 526,-384 658,-384 658,-414"/>
<text text-anchor="start" x="534" y="-402" font-family="Helvetica,sans-Serif" font-size="10.00">Harlinn::Windows::Imaging</text>
<text text-anchor="middle" x="592" y="-391" font-family="Helvetica,sans-Serif" font-size="10.00">::BitmapCodecInfo</text>
</a>
</g>
</g>
<!-- Node18&#45;&gt;Node19 -->
<g id="edge18_Node000018_Node000019" class="edge">
<title>Node18&#45;&gt;Node19</title>
<g id="a_edge18_Node000018_Node000019"><a xlink:title=" ">
<path fill="none" stroke="#63b8ff" d="M483.88,-399C497.72,-399 512.03,-399 525.51,-399"/>
<polygon fill="#63b8ff" stroke="#63b8ff" points="483.9,-395.5 473.9,-399 483.9,-402.5 483.9,-395.5"/>
</a>
</g>
</g>
<!-- Node22 -->
<g id="Node000022" class="node">
<title>Node22</title>
<g id="a_Node000022"><a xlink:href="class_harlinn_1_1_windows_1_1_imaging_1_1_format_converter_info.xhtml" target="_top" xlink:title=" ">
<polygon fill="white" stroke="#666666" points="658,-366 526,-366 526,-336 658,-336 658,-366"/>
<text text-anchor="start" x="534" y="-354" font-family="Helvetica,sans-Serif" font-size="10.00">Harlinn::Windows::Imaging</text>
<text text-anchor="middle" x="592" y="-343" font-family="Helvetica,sans-Serif" font-size="10.00">::FormatConverterInfo</text>
</a>
</g>
</g>
<!-- Node18&#45;&gt;Node22 -->
<g id="edge21_Node000018_Node000022" class="edge">
<title>Node18&#45;&gt;Node22</title>
<g id="a_edge21_Node000018_Node000022"><a xlink:title=" ">
<path fill="none" stroke="#63b8ff" d="M477.27,-380.67C495.29,-375.97 514.49,-370.96 531.88,-366.42"/>
<polygon fill="#63b8ff" stroke="#63b8ff" points="476.49,-377.26 467.7,-383.17 478.26,-384.03 476.49,-377.26"/>
</a>
</g>
</g>
<!-- Node23 -->
<g id="Node000023" class="node">
<title>Node23</title>
<g id="a_Node000023"><a xlink:href="class_harlinn_1_1_windows_1_1_imaging_1_1_pixel_format_info.xhtml" target="_top" xlink:title=" ">
<polygon fill="white" stroke="#666666" points="658,-318 526,-318 526,-288 658,-288 658,-318"/>
<text text-anchor="start" x="534" y="-306" font-family="Helvetica,sans-Serif" font-size="10.00">Harlinn::Windows::Imaging</text>
<text text-anchor="middle" x="592" y="-295" font-family="Helvetica,sans-Serif" font-size="10.00">::PixelFormatInfo</text>
</a>
</g>
</g>
<!-- Node18&#45;&gt;Node23 -->
<g id="edge22_Node000018_Node000023" class="edge">
<title>Node18&#45;&gt;Node23</title>
<g id="a_edge22_Node000018_Node000023"><a xlink:title=" ">
<path fill="none" stroke="#63b8ff" d="M482.57,-379.6C485.14,-378.17 487.62,-376.64 490,-375 511.94,-359.85 504.62,-342.94 526,-327 530.34,-323.77 535.16,-320.93 540.16,-318.44"/>
<polygon fill="#63b8ff" stroke="#63b8ff" points="481.13,-376.4 473.67,-383.94 484.2,-382.7 481.13,-376.4"/>
</a>
</g>
</g>
<!-- Node20 -->
<g id="Node000020" class="node">
<title>Node20</title>
<g id="a_Node000020"><a xlink:href="class_harlinn_1_1_windows_1_1_imaging_1_1_bitmap_decoder_info.xhtml" target="_top" xlink:title=" ">
<polygon fill="white" stroke="#666666" points="826,-438 694,-438 694,-408 826,-408 826,-438"/>
<text text-anchor="start" x="702" y="-426" font-family="Helvetica,sans-Serif" font-size="10.00">Harlinn::Windows::Imaging</text>
<text text-anchor="middle" x="760" y="-415" font-family="Helvetica,sans-Serif" font-size="10.00">::BitmapDecoderInfo</text>
</a>
</g>
</g>
<!-- Node19&#45;&gt;Node20 -->
<g id="edge19_Node000019_Node000020" class="edge">
<title>Node19&#45;&gt;Node20</title>
<g id="a_edge19_Node000019_Node000020"><a xlink:title=" ">
<path fill="none" stroke="#63b8ff" d="M669.42,-410.05C677.47,-411.21 685.6,-412.39 693.51,-413.53"/>
<polygon fill="#63b8ff" stroke="#63b8ff" points="670.03,-406.6 659.63,-408.63 669.03,-413.53 670.03,-406.6"/>
</a>
</g>
</g>
<!-- Node21 -->
<g id="Node000021" class="node">
<title>Node21</title>
<g id="a_Node000021"><a xlink:href="class_harlinn_1_1_windows_1_1_imaging_1_1_bitmap_encoder_info.xhtml" target="_top" xlink:title=" ">
<polygon fill="white" stroke="#666666" points="826,-390 694,-390 694,-360 826,-360 826,-390"/>
<text text-anchor="start" x="702" y="-378" font-family="Helvetica,sans-Serif" font-size="10.00">Harlinn::Windows::Imaging</text>
<text text-anchor="middle" x="760" y="-367" font-family="Helvetica,sans-Serif" font-size="10.00">::BitmapEncoderInfo</text>
</a>
</g>
</g>
<!-- Node19&#45;&gt;Node21 -->
<g id="edge20_Node000019_Node000021" class="edge">
<title>Node19&#45;&gt;Node21</title>
<g id="a_edge20_Node000019_Node000021"><a xlink:title=" ">
<path fill="none" stroke="#63b8ff" d="M669.42,-387.95C677.47,-386.79 685.6,-385.61 693.51,-384.47"/>
<polygon fill="#63b8ff" stroke="#63b8ff" points="669.03,-384.47 659.63,-389.37 670.03,-391.4 669.03,-384.47"/>
</a>
</g>
</g>
<!-- Node29 -->
<g id="Node000029" class="node">
<title>Node29</title>
<g id="a_Node000029"><a xlink:href="class_harlinn_1_1_windows_1_1_imaging_1_1_metadata_query_writer.xhtml" target="_top" xlink:title=" ">
<polygon fill="white" stroke="#666666" points="658,-174 526,-174 526,-144 658,-144 658,-174"/>
<text text-anchor="start" x="534" y="-162" font-family="Helvetica,sans-Serif" font-size="10.00">Harlinn::Windows::Imaging</text>
<text text-anchor="middle" x="592" y="-151" font-family="Helvetica,sans-Serif" font-size="10.00">::MetadataQueryWriter</text>
</a>
</g>
</g>
<!-- Node28&#45;&gt;Node29 -->
<g id="edge28_Node000028_Node000029" class="edge">
<title>Node28&#45;&gt;Node29</title>
<g id="a_edge28_Node000028_Node000029"><a xlink:title=" ">
<path fill="none" stroke="#63b8ff" d="M483.88,-159C497.72,-159 512.03,-159 525.51,-159"/>
<polygon fill="#63b8ff" stroke="#63b8ff" points="483.9,-155.5 473.9,-159 483.9,-162.5 483.9,-155.5"/>
</a>
</g>
</g>
</g>
</svg>
