<?xml version="1.0" encoding="UTF-8" standalone="no"?>
<!DOCTYPE svg PUBLIC "-//W3C//DTD SVG 1.1//EN"
 "http://www.w3.org/Graphics/SVG/1.1/DTD/svg11.dtd">
<!-- Generated by graphviz version 7.0.1 (20221109.1506)
 -->
<!-- Title: Harlinn::Common::Core::Concurrency::ActiveObjectBase&lt; MessageT, maxQueueSize &gt; Pages: 1 -->
<svg width="1280pt" height="174pt"
 viewBox="0.00 0.00 1280.00 173.50" xmlns="http://www.w3.org/2000/svg" xmlns:xlink="http://www.w3.org/1999/xlink">
<g id="graph0" class="graph" transform="scale(1 1) rotate(0) translate(4 169.5)">
<title>Harlinn::Common::Core::Concurrency::ActiveObjectBase&lt; MessageT, maxQueueSize &gt;</title>
<!-- Node1 -->
<g id="Node000001" class="node">
<title>Node1</title>
<g id="a_Node000001"><a xlink:title="The base template class for the active object type.">
<polygon fill="#999999" stroke="#666666" points="175,-107.5 0,-107.5 0,-66.5 175,-66.5 175,-107.5"/>
<text text-anchor="start" x="8" y="-95.5" font-family="Helvetica,sans-Serif" font-size="10.00">Harlinn::Common::Core</text>
<text text-anchor="start" x="8" y="-84.5" font-family="Helvetica,sans-Serif" font-size="10.00">::Concurrency::ActiveObject</text>
<text text-anchor="middle" x="87.5" y="-73.5" font-family="Helvetica,sans-Serif" font-size="10.00">Base&lt; MessageT, maxQueueSize &gt;</text>
</a>
</g>
</g>
<!-- Node1&#45;&gt;Node1 -->
<g id="edge1_Node000001_Node000001" class="edge">
<title>Node1&#45;&gt;Node1</title>
<g id="a_edge1_Node000001_Node000001"><a xlink:title=" ">
<path fill="none" stroke="orange" stroke-dasharray="5,2" d="M74.68,-119.01C76.98,-122.93 81.25,-125.5 87.5,-125.5 98.61,-125.5 103.47,-117.38 102.08,-107.99"/>
<polygon fill="orange" stroke="orange" points="78.2,-118.8 73.16,-109.48 71.28,-119.91 78.2,-118.8"/>
</a>
</g>
<text text-anchor="middle" x="87.5" y="-128.5" font-family="Helvetica,sans-Serif" font-size="10.00" fill="grey"> &lt; MessageT, maxQueueSize &gt;</text>
</g>
<!-- Node1&#45;&gt;Node1 -->
<g id="edge12_Node000001_Node000001" class="edge">
<title>Node1&#45;&gt;Node1</title>
<g id="a_edge12_Node000001_Node000001"><a xlink:title=" ">
<path fill="none" stroke="orange" stroke-dasharray="5,2" d="M58.22,-118.42C55.85,-131.94 65.61,-143.5 87.5,-143.5 114.96,-143.5 123.33,-125.29 112.6,-107.86"/>
<polygon fill="orange" stroke="orange" points="61.42,-119.86 61.84,-109.27 54.91,-117.28 61.42,-119.86"/>
</a>
</g>
<text text-anchor="middle" x="87.5" y="-146.5" font-family="Helvetica,sans-Serif" font-size="10.00" fill="grey"> &lt; MessageT, maxQueueSize &gt;</text>
</g>
<!-- Node2 -->
<g id="Node000002" class="node">
<title>Node2</title>
<g id="a_Node000002"><a xlink:href="class_harlinn_1_1_common_1_1_core_1_1_concurrency_1_1_active_object_base.html" target="_top" xlink:title=" ">
<polygon fill="white" stroke="#666666" points="500,-148 316,-148 316,-96 500,-96 500,-148"/>
<text text-anchor="start" x="324" y="-136" font-family="Helvetica,sans-Serif" font-size="10.00">Harlinn::Common::Core</text>
<text text-anchor="start" x="324" y="-125" font-family="Helvetica,sans-Serif" font-size="10.00">::Concurrency::ActiveObject</text>
<text text-anchor="start" x="324" y="-114" font-family="Helvetica,sans-Serif" font-size="10.00">Base&lt; std::shared_ptr&lt; ComputeNode</text>
<text text-anchor="middle" x="408" y="-103" font-family="Helvetica,sans-Serif" font-size="10.00">Message &gt;, maxQueueSize &gt;</text>
</a>
</g>
</g>
<!-- Node1&#45;&gt;Node2 -->
<g id="edge2_Node000001_Node000002" class="edge">
<title>Node1&#45;&gt;Node2</title>
<g id="a_edge2_Node000001_Node000002"><a xlink:title=" ">
<path fill="none" stroke="orange" stroke-dasharray="5,2" d="M186.54,-97.77C227.69,-102.3 275.27,-107.52 315.67,-111.96"/>
<polygon fill="orange" stroke="orange" points="186.94,-94.3 176.62,-96.68 186.17,-101.25 186.94,-94.3"/>
</a>
</g>
<text text-anchor="start" x="193" y="-134" font-family="Helvetica,sans-Serif" font-size="10.00" fill="grey"> &lt; std::shared_ptr&lt;</text>
<text text-anchor="start" x="193" y="-123" font-family="Helvetica,sans-Serif" font-size="10.00" fill="grey"> ComputeNodeMessage</text>
<text text-anchor="middle" x="245.5" y="-112" font-family="Helvetica,sans-Serif" font-size="10.00" fill="grey"> &gt;, maxQueueSize &gt;</text>
</g>
<!-- Node5 -->
<g id="Node000005" class="node">
<title>Node5</title>
<g id="a_Node000005"><a xlink:href="class_harlinn_1_1_common_1_1_core_1_1_concurrency_1_1_active_object_base.html" target="_top" xlink:title=" ">
<polygon fill="white" stroke="#666666" points="493,-78 323,-78 323,-26 493,-26 493,-78"/>
<text text-anchor="start" x="331" y="-66" font-family="Helvetica,sans-Serif" font-size="10.00">Harlinn::Common::Core</text>
<text text-anchor="start" x="331" y="-55" font-family="Helvetica,sans-Serif" font-size="10.00">::Concurrency::ActiveObject</text>
<text text-anchor="start" x="331" y="-44" font-family="Helvetica,sans-Serif" font-size="10.00">Base&lt; std::shared_ptr&lt; Application</text>
<text text-anchor="middle" x="408" y="-33" font-family="Helvetica,sans-Serif" font-size="10.00">Message &gt;, maxQueueSize &gt;</text>
</a>
</g>
</g>
<!-- Node1&#45;&gt;Node5 -->
<g id="edge5_Node000001_Node000005" class="edge">
<title>Node1&#45;&gt;Node5</title>
<g id="a_edge5_Node000001_Node000005"><a xlink:title=" ">
<path fill="none" stroke="orange" stroke-dasharray="5,2" d="M180.61,-63.97C184.78,-63.24 188.93,-62.58 193,-62 235.44,-55.99 283.04,-53.36 322.55,-52.29"/>
<polygon fill="orange" stroke="orange" points="180.18,-60.49 171,-65.77 181.47,-67.37 180.18,-60.49"/>
</a>
</g>
<text text-anchor="start" x="200" y="-87" font-family="Helvetica,sans-Serif" font-size="10.00" fill="grey"> &lt; std::shared_ptr&lt;</text>
<text text-anchor="start" x="200" y="-76" font-family="Helvetica,sans-Serif" font-size="10.00" fill="grey"> ApplicationMessage</text>
<text text-anchor="middle" x="245.5" y="-65" font-family="Helvetica,sans-Serif" font-size="10.00" fill="grey"> &gt;, maxQueueSize &gt;</text>
</g>
<!-- Node3 -->
<g id="Node000003" class="node">
<title>Node3</title>
<g id="a_Node000003"><a xlink:href="class_harlinn_1_1_common_1_1_core_1_1_concurrency_1_1_active_object.html" target="_top" xlink:title=" ">
<polygon fill="white" stroke="#666666" points="756,-142.5 537,-142.5 537,-101.5 756,-101.5 756,-142.5"/>
<text text-anchor="start" x="545" y="-130.5" font-family="Helvetica,sans-Serif" font-size="10.00">Harlinn::Common::Core</text>
<text text-anchor="start" x="545" y="-119.5" font-family="Helvetica,sans-Serif" font-size="10.00">::Concurrency::ActiveObject</text>
<text text-anchor="middle" x="646.5" y="-108.5" font-family="Helvetica,sans-Serif" font-size="10.00">&lt; std::shared_ptr&lt; ComputeNodeMessage &gt; &gt;</text>
</a>
</g>
</g>
<!-- Node2&#45;&gt;Node3 -->
<g id="edge3_Node000002_Node000003" class="edge">
<title>Node2&#45;&gt;Node3</title>
<g id="a_edge3_Node000002_Node000003"><a xlink:title=" ">
<path fill="none" stroke="#63b8ff" d="M511.9,-122C520.07,-122 528.34,-122 536.55,-122"/>
<polygon fill="#63b8ff" stroke="#63b8ff" points="511.95,-118.5 501.95,-122 511.95,-125.5 511.95,-118.5"/>
</a>
</g>
</g>
<!-- Node4 -->
<g id="Node000004" class="node">
<title>Node4</title>
<g id="a_Node000004"><a xlink:href="class_harlinn_1_1_a_i_1_1_o_n_n_x_1_1_direct_m_l_1_1_compute_node.html" target="_top" xlink:title=" ">
<polygon fill="white" stroke="#666666" points="916,-137 793,-137 793,-107 916,-107 916,-137"/>
<text text-anchor="start" x="801" y="-125" font-family="Helvetica,sans-Serif" font-size="10.00">Harlinn::AI::ONNX::</text>
<text text-anchor="middle" x="854.5" y="-114" font-family="Helvetica,sans-Serif" font-size="10.00">DirectML::ComputeNode</text>
</a>
</g>
</g>
<!-- Node3&#45;&gt;Node4 -->
<g id="edge4_Node000003_Node000004" class="edge">
<title>Node3&#45;&gt;Node4</title>
<g id="a_edge4_Node000003_Node000004"><a xlink:title=" ">
<path fill="none" stroke="#63b8ff" d="M767.58,-122C776.16,-122 784.58,-122 792.59,-122"/>
<polygon fill="#63b8ff" stroke="#63b8ff" points="767.74,-118.5 757.74,-122 767.74,-125.5 767.74,-118.5"/>
</a>
</g>
</g>
<!-- Node6 -->
<g id="Node000006" class="node">
<title>Node6</title>
<g id="a_Node000006"><a xlink:href="class_harlinn_1_1_common_1_1_core_1_1_concurrency_1_1_active_object.html" target="_top" xlink:title=" ">
<polygon fill="white" stroke="#666666" points="749.5,-72.5 543.5,-72.5 543.5,-31.5 749.5,-31.5 749.5,-72.5"/>
<text text-anchor="start" x="551.5" y="-60.5" font-family="Helvetica,sans-Serif" font-size="10.00">Harlinn::Common::Core</text>
<text text-anchor="start" x="551.5" y="-49.5" font-family="Helvetica,sans-Serif" font-size="10.00">::Concurrency::ActiveObject</text>
<text text-anchor="middle" x="646.5" y="-38.5" font-family="Helvetica,sans-Serif" font-size="10.00">&lt; std::shared_ptr&lt; ApplicationMessage &gt; &gt;</text>
</a>
</g>
</g>
<!-- Node5&#45;&gt;Node6 -->
<g id="edge6_Node000005_Node000006" class="edge">
<title>Node5&#45;&gt;Node6</title>
<g id="a_edge6_Node000005_Node000006"><a xlink:title=" ">
<path fill="none" stroke="#63b8ff" d="M504.51,-52C517.29,-52 530.45,-52 543.35,-52"/>
<polygon fill="#63b8ff" stroke="#63b8ff" points="504.89,-48.5 494.89,-52 504.89,-55.5 504.89,-48.5"/>
</a>
</g>
</g>
<!-- Node7 -->
<g id="Node000007" class="node">
<title>Node7</title>
<g id="a_Node000007"><a xlink:href="class_harlinn_1_1_common_1_1_core_1_1_application.html" target="_top" xlink:title=" ">
<polygon fill="white" stroke="#666666" points="913.5,-67 795.5,-67 795.5,-37 913.5,-37 913.5,-67"/>
<text text-anchor="start" x="803.5" y="-55" font-family="Helvetica,sans-Serif" font-size="10.00">Harlinn::Common::Core</text>
<text text-anchor="middle" x="854.5" y="-44" font-family="Helvetica,sans-Serif" font-size="10.00">::Application</text>
</a>
</g>
</g>
<!-- Node6&#45;&gt;Node7 -->
<g id="edge7_Node000006_Node000007" class="edge">
<title>Node6&#45;&gt;Node7</title>
<g id="a_edge7_Node000006_Node000007"><a xlink:title=" ">
<path fill="none" stroke="#63b8ff" d="M761.18,-52C772.91,-52 784.45,-52 795.19,-52"/>
<polygon fill="#63b8ff" stroke="#63b8ff" points="761.41,-48.5 751.41,-52 761.41,-55.5 761.41,-48.5"/>
</a>
</g>
</g>
<!-- Node8 -->
<g id="Node000008" class="node">
<title>Node8</title>
<g id="a_Node000008"><a xlink:href="class_harlinn_1_1_common_1_1_core_1_1_services_1_1_application.html" target="_top" xlink:title=" ">
<polygon fill="white" stroke="#666666" points="1091,-110 973,-110 973,-80 1091,-80 1091,-110"/>
<text text-anchor="start" x="981" y="-98" font-family="Helvetica,sans-Serif" font-size="10.00">Harlinn::Common::Core</text>
<text text-anchor="middle" x="1032" y="-87" font-family="Helvetica,sans-Serif" font-size="10.00">::Services::Application</text>
</a>
</g>
</g>
<!-- Node7&#45;&gt;Node8 -->
<g id="edge8_Node000007_Node000008" class="edge">
<title>Node7&#45;&gt;Node8</title>
<g id="a_edge8_Node000007_Node000008"><a xlink:title=" ">
<path fill="none" stroke="#63b8ff" d="M924.73,-68.96C940.54,-72.84 957.2,-76.92 972.52,-80.67"/>
<polygon fill="#63b8ff" stroke="#63b8ff" points="925.95,-65.66 915.41,-66.68 924.29,-72.46 925.95,-65.66"/>
</a>
</g>
</g>
<!-- Node9 -->
<g id="Node000009" class="node">
<title>Node9</title>
<g id="a_Node000009"><a xlink:href="class_harlinn_1_1_windows_1_1_application.html" target="_top" xlink:title=" ">
<polygon fill="white" stroke="#666666" points="1105,-61.5 959,-61.5 959,-42.5 1105,-42.5 1105,-61.5"/>
<text text-anchor="middle" x="1032" y="-49.5" font-family="Helvetica,sans-Serif" font-size="10.00">Harlinn::Windows::Application</text>
</a>
</g>
</g>
<!-- Node7&#45;&gt;Node9 -->
<g id="edge9_Node000007_Node000009" class="edge">
<title>Node7&#45;&gt;Node9</title>
<g id="a_edge9_Node000007_Node000009"><a xlink:title=" ">
<path fill="none" stroke="#63b8ff" d="M925.25,-52C936.27,-52 947.69,-52 958.76,-52"/>
<polygon fill="#63b8ff" stroke="#63b8ff" points="925.45,-48.5 915.45,-52 925.45,-55.5 925.45,-48.5"/>
</a>
</g>
</g>
<!-- Node10 -->
<g id="Node000010" class="node">
<title>Node10</title>
<g id="a_Node000010"><a xlink:href="class_harlinn_1_1_windows_1_1_d_x_application.html" target="_top" xlink:title=" ">
<polygon fill="white" stroke="#666666" points="1111,-24.5 953,-24.5 953,-5.5 1111,-5.5 1111,-24.5"/>
<text text-anchor="middle" x="1032" y="-12.5" font-family="Helvetica,sans-Serif" font-size="10.00">Harlinn::Windows::DXApplication</text>
</a>
</g>
</g>
<!-- Node7&#45;&gt;Node10 -->
<g id="edge10_Node000007_Node000010" class="edge">
<title>Node7&#45;&gt;Node10</title>
<g id="a_edge10_Node000007_Node000010"><a xlink:title=" ">
<path fill="none" stroke="#63b8ff" d="M925.01,-37.35C944.66,-33.2 965.58,-28.79 983.61,-24.99"/>
<polygon fill="#63b8ff" stroke="#63b8ff" points="924.48,-33.88 915.42,-39.37 925.93,-40.73 924.48,-33.88"/>
</a>
</g>
</g>
<!-- Node11 -->
<g id="Node000011" class="node">
<title>Node11</title>
<g id="a_Node000011"><a xlink:href="class_harlinn_1_1_windows_1_1_im_gui_1_1_application.html" target="_top" xlink:title=" ">
<polygon fill="white" stroke="#666666" points="1272,-30 1148,-30 1148,0 1272,0 1272,-30"/>
<text text-anchor="start" x="1156" y="-18" font-family="Helvetica,sans-Serif" font-size="10.00">Harlinn::Windows::ImGui</text>
<text text-anchor="middle" x="1210" y="-7" font-family="Helvetica,sans-Serif" font-size="10.00">::Application</text>
</a>
</g>
</g>
<!-- Node10&#45;&gt;Node11 -->
<g id="edge11_Node000010_Node000011" class="edge">
<title>Node10&#45;&gt;Node11</title>
<g id="a_edge11_Node000010_Node000011"><a xlink:title=" ">
<path fill="none" stroke="#63b8ff" d="M1122.86,-15C1131.22,-15 1139.56,-15 1147.58,-15"/>
<polygon fill="#63b8ff" stroke="#63b8ff" points="1122.99,-11.5 1112.99,-15 1122.99,-18.5 1122.99,-11.5"/>
</a>
</g>
</g>
</g>
</svg>
