<?xml version="1.0" encoding="UTF-8" standalone="no"?>
<!DOCTYPE svg PUBLIC "-//W3C//DTD SVG 1.1//EN"
 "http://www.w3.org/Graphics/SVG/1.1/DTD/svg11.dtd">
<!-- Generated by graphviz version 7.0.1 (20221109.1506)
 -->
<!-- Title: Harlinn::Common::Core::Math::Vector&lt; double, 2 &gt; Pages: 1 -->
<svg width="771pt" height="102pt"
 viewBox="0.00 0.00 771.00 102.00" xmlns="http://www.w3.org/2000/svg" xmlns:xlink="http://www.w3.org/1999/xlink">
<g id="graph0" class="graph" transform="scale(1 1) rotate(0) translate(4 98)">
<title>Harlinn::Common::Core::Math::Vector&lt; double, 2 &gt;</title>
<!-- Node1 -->
<g id="Node000001" class="node">
<title>Node1</title>
<g id="a_Node000001"><a xlink:title=" ">
<polygon fill="#999999" stroke="#666666" points="763,-42 626,-42 626,-12 763,-12 763,-42"/>
<text text-anchor="start" x="634" y="-30" font-family="Helvetica,sans-Serif" font-size="10.00">Harlinn::Common::Core</text>
<text text-anchor="middle" x="694.5" y="-19" font-family="Helvetica,sans-Serif" font-size="10.00">::Math::Vector&lt; double, 2 &gt;</text>
</a>
</g>
</g>
<!-- Node2 -->
<g id="Node000002" class="node">
<title>Node2</title>
<g id="a_Node000002"><a xlink:href="class_harlinn_1_1_common_1_1_core_1_1_math_1_1_tuple2.html" target="_top" xlink:title=" ">
<polygon fill="white" stroke="#666666" points="578.5,-89.5 460.5,-89.5 460.5,-48.5 578.5,-48.5 578.5,-89.5"/>
<text text-anchor="start" x="468.5" y="-77.5" font-family="Helvetica,sans-Serif" font-size="10.00">Harlinn::Common::Core</text>
<text text-anchor="start" x="468.5" y="-66.5" font-family="Helvetica,sans-Serif" font-size="10.00">::Math::Tuple2&lt; Vector</text>
<text text-anchor="middle" x="519.5" y="-55.5" font-family="Helvetica,sans-Serif" font-size="10.00">&lt; double, 2 &gt;, double &gt;</text>
</a>
</g>
</g>
<!-- Node2&#45;&gt;Node1 -->
<g id="edge1_Node000001_Node000002" class="edge">
<title>Node2&#45;&gt;Node1</title>
<g id="a_edge1_Node000001_Node000002"><a xlink:title=" ">
<path fill="none" stroke="#63b8ff" d="M589.6,-52.22C602.91,-48.99 616.79,-45.62 629.92,-42.44"/>
<polygon fill="#63b8ff" stroke="#63b8ff" points="588.95,-48.78 580.06,-54.54 590.6,-55.58 588.95,-48.78"/>
</a>
</g>
</g>
<!-- Node3 -->
<g id="Node000003" class="node">
<title>Node3</title>
<g id="a_Node000003"><a xlink:href="struct_harlinn_1_1_common_1_1_core_1_1_math_1_1_internal_1_1_tuple_base.html" target="_top" xlink:title=" ">
<polygon fill="white" stroke="#666666" points="134,-94 0,-94 0,-64 134,-64 134,-94"/>
<text text-anchor="start" x="8" y="-82" font-family="Helvetica,sans-Serif" font-size="10.00">Harlinn::Common::Core</text>
<text text-anchor="middle" x="67" y="-71" font-family="Helvetica,sans-Serif" font-size="10.00">::Math::Internal::TupleBase</text>
</a>
</g>
</g>
<!-- Node3&#45;&gt;Node2 -->
<g id="edge2_Node000002_Node000003" class="edge">
<title>Node3&#45;&gt;Node2</title>
<g id="a_edge2_Node000002_Node000003"><a xlink:title=" ">
<path fill="none" stroke="#63b8ff" d="M145.93,-79.46C219.66,-79.58 333.4,-78.96 432,-75 441.18,-74.63 450.89,-74.1 460.36,-73.5"/>
<polygon fill="#63b8ff" stroke="#63b8ff" points="145.97,-75.96 135.96,-79.43 145.96,-82.96 145.97,-75.96"/>
</a>
</g>
</g>
<!-- Node4 -->
<g id="Node000004" class="node">
<title>Node4</title>
<g id="a_Node000004"><a xlink:href="class_harlinn_1_1_common_1_1_core_1_1_math_1_1_tuple2.html" target="_top" xlink:title="A tuple holding two numbers.">
<polygon fill="white" stroke="#666666" points="324,-61 179,-61 179,-31 324,-31 324,-61"/>
<text text-anchor="start" x="187" y="-49" font-family="Helvetica,sans-Serif" font-size="10.00">Harlinn::Common::Core</text>
<text text-anchor="middle" x="251.5" y="-38" font-family="Helvetica,sans-Serif" font-size="10.00">::Math::Tuple2&lt; DerivedT, T &gt;</text>
</a>
</g>
</g>
<!-- Node3&#45;&gt;Node4 -->
<g id="edge4_Node000004_Node000003" class="edge">
<title>Node3&#45;&gt;Node4</title>
<g id="a_edge4_Node000004_Node000003"><a xlink:title=" ">
<path fill="none" stroke="#63b8ff" d="M145.67,-64.96C156.6,-62.98 167.79,-60.96 178.6,-59"/>
<polygon fill="#63b8ff" stroke="#63b8ff" points="145.11,-61.5 135.89,-66.72 146.36,-68.39 145.11,-61.5"/>
</a>
</g>
</g>
<!-- Node4&#45;&gt;Node2 -->
<g id="edge3_Node000002_Node000004" class="edge">
<title>Node4&#45;&gt;Node2</title>
<g id="a_edge3_Node000002_Node000004"><a xlink:title=" ">
<path fill="none" stroke="orange" stroke-dasharray="5,2" d="M335.72,-46.75C366.09,-47.68 400.67,-49.51 432,-53 441.11,-54.01 450.7,-55.43 460.04,-57.01"/>
<polygon fill="orange" stroke="orange" points="335.91,-43.26 325.81,-46.48 335.71,-50.25 335.91,-43.26"/>
</a>
</g>
<text text-anchor="start" x="342" y="-67" font-family="Helvetica,sans-Serif" font-size="10.00" fill="grey"> &lt; Vector&lt; double, 2</text>
<text text-anchor="middle" x="387" y="-56" font-family="Helvetica,sans-Serif" font-size="10.00" fill="grey"> &gt;, double &gt;</text>
</g>
<!-- Node5 -->
<g id="Node000005" class="node">
<title>Node5</title>
<g id="a_Node000005"><a xlink:title=" ">
<polygon fill="white" stroke="#666666" points="81.5,-36.5 52.5,-36.5 52.5,-17.5 81.5,-17.5 81.5,-36.5"/>
<text text-anchor="middle" x="67" y="-24.5" font-family="Helvetica,sans-Serif" font-size="10.00">T</text>
</a>
</g>
</g>
<!-- Node5&#45;&gt;Node4 -->
<g id="edge5_Node000004_Node000005" class="edge">
<title>Node5&#45;&gt;Node4</title>
<g id="a_edge5_Node000004_Node000005"><a xlink:title=" ">
<path fill="none" stroke="#9a32cd" stroke-dasharray="5,2" d="M93.31,-25.99C112.06,-25.56 138.19,-25.6 161,-28 167.15,-28.65 173.5,-29.51 179.85,-30.52"/>
<polygon fill="#9a32cd" stroke="#9a32cd" points="93.31,-22.49 83.43,-26.29 93.53,-29.49 93.31,-22.49"/>
</a>
</g>
<text text-anchor="middle" x="156.5" y="-42" font-family="Helvetica,sans-Serif" font-size="10.00" fill="grey"> x</text>
<text text-anchor="middle" x="156.5" y="-31" font-family="Helvetica,sans-Serif" font-size="10.00" fill="grey">y</text>
</g>
<!-- Node6 -->
<g id="Node000006" class="node">
<title>Node6</title>
<g id="a_Node000006"><a xlink:href="struct_harlinn_1_1_common_1_1_core_1_1_math_1_1_internal_1_1_vector_base.html" target="_top" xlink:title=" ">
<polygon fill="white" stroke="#666666" points="589,-30 450,-30 450,0 589,0 589,-30"/>
<text text-anchor="start" x="458" y="-18" font-family="Helvetica,sans-Serif" font-size="10.00">Harlinn::Common::Core</text>
<text text-anchor="middle" x="519.5" y="-7" font-family="Helvetica,sans-Serif" font-size="10.00">::Math::Internal::VectorBase</text>
</a>
</g>
</g>
<!-- Node6&#45;&gt;Node1 -->
<g id="edge6_Node000001_Node000006" class="edge">
<title>Node6&#45;&gt;Node1</title>
<g id="a_edge6_Node000001_Node000006"><a xlink:title=" ">
<path fill="none" stroke="#63b8ff" d="M600.7,-20.56C609.06,-21.14 617.51,-21.73 625.71,-22.3"/>
<polygon fill="#63b8ff" stroke="#63b8ff" points="601.1,-17.08 590.88,-19.88 600.61,-24.07 601.1,-17.08"/>
</a>
</g>
</g>
</g>
</svg>
