<?xml version="1.0" encoding="UTF-8" standalone="no"?>
<!DOCTYPE svg PUBLIC "-//W3C//DTD SVG 1.1//EN"
 "http://www.w3.org/Graphics/SVG/1.1/DTD/svg11.dtd">
<!-- Generated by graphviz version 7.0.1 (20221109.1506)
 -->
<!-- Title: Harlinn::Common::Core::Concurrency::ActiveObject&lt; MessageT, maxQueueSize &gt; Pages: 1 -->
<svg width="1617pt" height="205pt"
 viewBox="0.00 0.00 1617.00 204.50" xmlns="http://www.w3.org/2000/svg" xmlns:xlink="http://www.w3.org/1999/xlink">
<g id="graph0" class="graph" transform="scale(1 1) rotate(0) translate(4 200.5)">
<title>Harlinn::Common::Core::Concurrency::ActiveObject&lt; MessageT, maxQueueSize &gt;</title>
<!-- Node1 -->
<g id="Node000001" class="node">
<title>Node1</title>
<g id="a_Node000001"><a xlink:title="Extends the ActiveObjectBase template, implementing the message processing thread and the Start and S...">
<polygon fill="#999999" stroke="#666666" points="714,-100 562,-100 562,-59 714,-59 714,-100"/>
<text text-anchor="start" x="570" y="-88" font-family="Helvetica,sans-Serif" font-size="10.00">Harlinn::Common::Core</text>
<text text-anchor="start" x="570" y="-77" font-family="Helvetica,sans-Serif" font-size="10.00">::Concurrency::ActiveObject</text>
<text text-anchor="middle" x="638" y="-66" font-family="Helvetica,sans-Serif" font-size="10.00">&lt; MessageT, maxQueueSize &gt;</text>
</a>
</g>
</g>
<!-- Node5 -->
<g id="Node000005" class="node">
<title>Node5</title>
<g id="a_Node000005"><a xlink:href="class_harlinn_1_1_common_1_1_core_1_1_concurrency_1_1_active_object.html" target="_top" xlink:title=" ">
<polygon fill="white" stroke="#666666" points="1073.5,-159 867.5,-159 867.5,-118 1073.5,-118 1073.5,-159"/>
<text text-anchor="start" x="875.5" y="-147" font-family="Helvetica,sans-Serif" font-size="10.00">Harlinn::Common::Core</text>
<text text-anchor="start" x="875.5" y="-136" font-family="Helvetica,sans-Serif" font-size="10.00">::Concurrency::ActiveObject</text>
<text text-anchor="middle" x="970.5" y="-125" font-family="Helvetica,sans-Serif" font-size="10.00">&lt; std::shared_ptr&lt; ApplicationMessage &gt; &gt;</text>
</a>
</g>
</g>
<!-- Node1&#45;&gt;Node5 -->
<g id="edge4_Node000001_Node000005" class="edge">
<title>Node1&#45;&gt;Node5</title>
<g id="a_edge4_Node000001_Node000005"><a xlink:title=" ">
<path fill="none" stroke="orange" stroke-dasharray="5,2" d="M721.26,-103.13C724.88,-103.97 728.47,-104.77 732,-105.5 776.01,-114.67 825.16,-121.97 867.28,-127.36"/>
<polygon fill="orange" stroke="orange" points="722.37,-99.8 711.82,-100.85 720.72,-106.6 722.37,-99.8"/>
</a>
</g>
<text text-anchor="start" x="735" y="-138.5" font-family="Helvetica,sans-Serif" font-size="10.00" fill="grey"> &lt; std::shared_ptr&lt;</text>
<text text-anchor="middle" x="789.5" y="-127.5" font-family="Helvetica,sans-Serif" font-size="10.00" fill="grey"> ApplicationMessage &gt; &gt;</text>
</g>
<!-- Node11 -->
<g id="Node000011" class="node">
<title>Node11</title>
<g id="a_Node000011"><a xlink:href="class_harlinn_1_1_common_1_1_core_1_1_concurrency_1_1_active_object.html" target="_top" xlink:title=" ">
<polygon fill="white" stroke="#666666" points="1076,-100 865,-100 865,-59 1076,-59 1076,-100"/>
<text text-anchor="start" x="873" y="-88" font-family="Helvetica,sans-Serif" font-size="10.00">Harlinn::Common::Core</text>
<text text-anchor="start" x="873" y="-77" font-family="Helvetica,sans-Serif" font-size="10.00">::Concurrency::ActiveObject</text>
<text text-anchor="middle" x="970.5" y="-66" font-family="Helvetica,sans-Serif" font-size="10.00">&lt; std::shared_ptr&lt; LogManagerMessage &gt; &gt;</text>
</a>
</g>
</g>
<!-- Node1&#45;&gt;Node11 -->
<g id="edge10_Node000001_Node000011" class="edge">
<title>Node1&#45;&gt;Node11</title>
<g id="a_edge10_Node000001_Node000011"><a xlink:title=" ">
<path fill="none" stroke="orange" stroke-dasharray="5,2" d="M725.87,-79.5C768.41,-79.5 819.96,-79.5 864.67,-79.5"/>
<polygon fill="orange" stroke="orange" points="725.92,-76 715.92,-79.5 725.92,-83 725.92,-76"/>
</a>
</g>
<text text-anchor="start" x="732" y="-93.5" font-family="Helvetica,sans-Serif" font-size="10.00" fill="grey"> &lt; std::shared_ptr&lt;</text>
<text text-anchor="middle" x="789.5" y="-82.5" font-family="Helvetica,sans-Serif" font-size="10.00" fill="grey"> LogManagerMessage &gt; &gt;</text>
</g>
<!-- Node13 -->
<g id="Node000013" class="node">
<title>Node13</title>
<g id="a_Node000013"><a xlink:href="class_harlinn_1_1_common_1_1_core_1_1_concurrency_1_1_active_object.html" target="_top" xlink:title=" ">
<polygon fill="white" stroke="#666666" points="1072.5,-41 868.5,-41 868.5,0 1072.5,0 1072.5,-41"/>
<text text-anchor="start" x="876.5" y="-29" font-family="Helvetica,sans-Serif" font-size="10.00">Harlinn::Common::Core</text>
<text text-anchor="start" x="876.5" y="-18" font-family="Helvetica,sans-Serif" font-size="10.00">::Concurrency::ActiveObject</text>
<text text-anchor="middle" x="970.5" y="-7" font-family="Helvetica,sans-Serif" font-size="10.00">&lt; std::shared_ptr&lt; LMDBSinkMessage &gt; &gt;</text>
</a>
</g>
</g>
<!-- Node1&#45;&gt;Node13 -->
<g id="edge12_Node000001_Node000013" class="edge">
<title>Node1&#45;&gt;Node13</title>
<g id="a_edge12_Node000001_Node000013"><a xlink:title=" ">
<path fill="none" stroke="orange" stroke-dasharray="5,2" d="M721.26,-55.87C724.88,-55.03 728.47,-54.23 732,-53.5 776.32,-44.27 825.84,-36.93 868.15,-31.53"/>
<polygon fill="orange" stroke="orange" points="720.72,-52.4 711.82,-58.15 722.37,-59.2 720.72,-52.4"/>
</a>
</g>
<text text-anchor="start" x="735.5" y="-67.5" font-family="Helvetica,sans-Serif" font-size="10.00" fill="grey"> &lt; std::shared_ptr&lt;</text>
<text text-anchor="middle" x="789.5" y="-56.5" font-family="Helvetica,sans-Serif" font-size="10.00" fill="grey"> LMDBSinkMessage &gt; &gt;</text>
</g>
<!-- Node2 -->
<g id="Node000002" class="node">
<title>Node2</title>
<g id="a_Node000002"><a xlink:href="class_harlinn_1_1_common_1_1_core_1_1_concurrency_1_1_active_object_base.html" target="_top" xlink:title=" ">
<polygon fill="white" stroke="#666666" points="525,-147 350,-147 350,-106 525,-106 525,-147"/>
<text text-anchor="start" x="358" y="-135" font-family="Helvetica,sans-Serif" font-size="10.00">Harlinn::Common::Core</text>
<text text-anchor="start" x="358" y="-124" font-family="Helvetica,sans-Serif" font-size="10.00">::Concurrency::ActiveObject</text>
<text text-anchor="middle" x="437.5" y="-113" font-family="Helvetica,sans-Serif" font-size="10.00">Base&lt; MessageT, maxQueueSize &gt;</text>
</a>
</g>
</g>
<!-- Node2&#45;&gt;Node1 -->
<g id="edge1_Node000001_Node000002" class="edge">
<title>Node2&#45;&gt;Node1</title>
<g id="a_edge1_Node000001_Node000002"><a xlink:title=" ">
<path fill="none" stroke="#63b8ff" d="M536.39,-103.32C544.86,-101.32 553.35,-99.31 561.6,-97.35"/>
<polygon fill="#63b8ff" stroke="#63b8ff" points="535.67,-99.89 526.75,-105.6 537.29,-106.71 535.67,-99.89"/>
</a>
</g>
</g>
<!-- Node3 -->
<g id="Node000003" class="node">
<title>Node3</title>
<g id="a_Node000003"><a xlink:href="class_harlinn_1_1_common_1_1_core_1_1_concurrency_1_1_active_object_base.html" target="_top" xlink:title="The base template class for the active object type.">
<polygon fill="white" stroke="#666666" points="175,-147 0,-147 0,-106 175,-106 175,-147"/>
<text text-anchor="start" x="8" y="-135" font-family="Helvetica,sans-Serif" font-size="10.00">Harlinn::Common::Core</text>
<text text-anchor="start" x="8" y="-124" font-family="Helvetica,sans-Serif" font-size="10.00">::Concurrency::ActiveObject</text>
<text text-anchor="middle" x="87.5" y="-113" font-family="Helvetica,sans-Serif" font-size="10.00">Base&lt; MessageT, maxQueueSize &gt;</text>
</a>
</g>
</g>
<!-- Node3&#45;&gt;Node2 -->
<g id="edge2_Node000002_Node000003" class="edge">
<title>Node3&#45;&gt;Node2</title>
<g id="a_edge2_Node000002_Node000003"><a xlink:title=" ">
<path fill="none" stroke="orange" stroke-dasharray="5,2" d="M186.86,-126.5C238.14,-126.5 300.32,-126.5 349.79,-126.5"/>
<polygon fill="orange" stroke="orange" points="186.93,-123 176.93,-126.5 186.93,-130 186.93,-123"/>
</a>
</g>
<text text-anchor="middle" x="262.5" y="-129.5" font-family="Helvetica,sans-Serif" font-size="10.00" fill="grey"> &lt; MessageT, maxQueueSize &gt;</text>
</g>
<!-- Node4 -->
<g id="Node000004" class="node">
<title>Node4</title>
<g id="a_Node000004"><a xlink:title=" ">
<polygon fill="white" stroke="#666666" points="518,-88 357,-88 357,-47 518,-47 518,-88"/>
<text text-anchor="start" x="365" y="-76" font-family="Helvetica,sans-Serif" font-size="10.00">std::enable_shared</text>
<text text-anchor="start" x="365" y="-65" font-family="Helvetica,sans-Serif" font-size="10.00">_from_this&lt; ActiveObject</text>
<text text-anchor="middle" x="437.5" y="-54" font-family="Helvetica,sans-Serif" font-size="10.00">&lt; MessageT, maxQueueSize &gt; &gt;</text>
</a>
</g>
</g>
<!-- Node4&#45;&gt;Node1 -->
<g id="edge3_Node000001_Node000004" class="edge">
<title>Node4&#45;&gt;Node1</title>
<g id="a_edge3_Node000001_Node000004"><a xlink:title=" ">
<path fill="none" stroke="#63b8ff" d="M529.55,-73C540.34,-73.66 551.25,-74.32 561.79,-74.95"/>
<polygon fill="#63b8ff" stroke="#63b8ff" points="530.08,-69.53 519.89,-72.42 529.66,-76.52 530.08,-69.53"/>
</a>
</g>
</g>
<!-- Node6 -->
<g id="Node000006" class="node">
<title>Node6</title>
<g id="a_Node000006"><a xlink:href="class_harlinn_1_1_common_1_1_core_1_1_application.html" target="_top" xlink:title=" ">
<polygon fill="white" stroke="#666666" points="1242,-153.5 1124,-153.5 1124,-123.5 1242,-123.5 1242,-153.5"/>
<text text-anchor="start" x="1132" y="-141.5" font-family="Helvetica,sans-Serif" font-size="10.00">Harlinn::Common::Core</text>
<text text-anchor="middle" x="1183" y="-130.5" font-family="Helvetica,sans-Serif" font-size="10.00">::Application</text>
</a>
</g>
</g>
<!-- Node5&#45;&gt;Node6 -->
<g id="edge5_Node000005_Node000006" class="edge">
<title>Node5&#45;&gt;Node6</title>
<g id="a_edge5_Node000005_Node000006"><a xlink:title=" ">
<path fill="none" stroke="#63b8ff" d="M1085.15,-138.5C1098.44,-138.5 1111.54,-138.5 1123.61,-138.5"/>
<polygon fill="#63b8ff" stroke="#63b8ff" points="1085.49,-135 1075.49,-138.5 1085.49,-142 1085.49,-135"/>
</a>
</g>
</g>
<!-- Node7 -->
<g id="Node000007" class="node">
<title>Node7</title>
<g id="a_Node000007"><a xlink:href="class_harlinn_1_1_common_1_1_core_1_1_services_1_1_application.html" target="_top" xlink:title=" ">
<polygon fill="white" stroke="#666666" points="1428,-196.5 1310,-196.5 1310,-166.5 1428,-166.5 1428,-196.5"/>
<text text-anchor="start" x="1318" y="-184.5" font-family="Helvetica,sans-Serif" font-size="10.00">Harlinn::Common::Core</text>
<text text-anchor="middle" x="1369" y="-173.5" font-family="Helvetica,sans-Serif" font-size="10.00">::Services::Application</text>
</a>
</g>
</g>
<!-- Node6&#45;&gt;Node7 -->
<g id="edge6_Node000006_Node000007" class="edge">
<title>Node6&#45;&gt;Node7</title>
<g id="a_edge6_Node000006_Node000007"><a xlink:title=" ">
<path fill="none" stroke="#63b8ff" d="M1253.5,-154.74C1272.02,-159.07 1291.83,-163.7 1309.68,-167.87"/>
<polygon fill="#63b8ff" stroke="#63b8ff" points="1254.48,-151.38 1243.95,-152.51 1252.89,-158.19 1254.48,-151.38"/>
</a>
</g>
</g>
<!-- Node8 -->
<g id="Node000008" class="node">
<title>Node8</title>
<g id="a_Node000008"><a xlink:href="class_harlinn_1_1_windows_1_1_application.html" target="_top" xlink:title=" ">
<polygon fill="white" stroke="#666666" points="1442,-148 1296,-148 1296,-129 1442,-129 1442,-148"/>
<text text-anchor="middle" x="1369" y="-136" font-family="Helvetica,sans-Serif" font-size="10.00">Harlinn::Windows::Application</text>
</a>
</g>
</g>
<!-- Node6&#45;&gt;Node8 -->
<g id="edge7_Node000006_Node000008" class="edge">
<title>Node6&#45;&gt;Node8</title>
<g id="a_edge7_Node000006_Node000008"><a xlink:title=" ">
<path fill="none" stroke="#63b8ff" d="M1253.81,-138.5C1267.55,-138.5 1281.98,-138.5 1295.79,-138.5"/>
<polygon fill="#63b8ff" stroke="#63b8ff" points="1253.99,-135 1243.99,-138.5 1253.99,-142 1253.99,-135"/>
</a>
</g>
</g>
<!-- Node9 -->
<g id="Node000009" class="node">
<title>Node9</title>
<g id="a_Node000009"><a xlink:href="class_harlinn_1_1_windows_1_1_d_x_application.html" target="_top" xlink:title=" ">
<polygon fill="white" stroke="#666666" points="1448,-111 1290,-111 1290,-92 1448,-92 1448,-111"/>
<text text-anchor="middle" x="1369" y="-99" font-family="Helvetica,sans-Serif" font-size="10.00">Harlinn::Windows::DXApplication</text>
</a>
</g>
</g>
<!-- Node6&#45;&gt;Node9 -->
<g id="edge8_Node000006_Node000009" class="edge">
<title>Node6&#45;&gt;Node9</title>
<g id="a_edge8_Node000006_Node000009"><a xlink:title=" ">
<path fill="none" stroke="#63b8ff" d="M1253.56,-124.51C1275.11,-120.18 1298.42,-115.49 1318.34,-111.49"/>
<polygon fill="#63b8ff" stroke="#63b8ff" points="1253.07,-121.04 1243.96,-126.44 1254.45,-127.9 1253.07,-121.04"/>
</a>
</g>
</g>
<!-- Node10 -->
<g id="Node000010" class="node">
<title>Node10</title>
<g id="a_Node000010"><a xlink:href="class_harlinn_1_1_windows_1_1_im_gui_1_1_application.html" target="_top" xlink:title=" ">
<polygon fill="white" stroke="#666666" points="1609,-116.5 1485,-116.5 1485,-86.5 1609,-86.5 1609,-116.5"/>
<text text-anchor="start" x="1493" y="-104.5" font-family="Helvetica,sans-Serif" font-size="10.00">Harlinn::Windows::ImGui</text>
<text text-anchor="middle" x="1547" y="-93.5" font-family="Helvetica,sans-Serif" font-size="10.00">::Application</text>
</a>
</g>
</g>
<!-- Node9&#45;&gt;Node10 -->
<g id="edge9_Node000009_Node000010" class="edge">
<title>Node9&#45;&gt;Node10</title>
<g id="a_edge9_Node000009_Node000010"><a xlink:title=" ">
<path fill="none" stroke="#63b8ff" d="M1459.86,-101.5C1468.22,-101.5 1476.56,-101.5 1484.58,-101.5"/>
<polygon fill="#63b8ff" stroke="#63b8ff" points="1459.99,-98 1449.99,-101.5 1459.99,-105 1459.99,-98"/>
</a>
</g>
</g>
<!-- Node12 -->
<g id="Node000012" class="node">
<title>Node12</title>
<g id="a_Node000012"><a xlink:href="class_harlinn_1_1_common_1_1_core_1_1_logging_1_1_log_manager.html" target="_top" xlink:title=" ">
<polygon fill="white" stroke="#666666" points="1242,-94.5 1124,-94.5 1124,-64.5 1242,-64.5 1242,-94.5"/>
<text text-anchor="start" x="1132" y="-82.5" font-family="Helvetica,sans-Serif" font-size="10.00">Harlinn::Common::Core</text>
<text text-anchor="middle" x="1183" y="-71.5" font-family="Helvetica,sans-Serif" font-size="10.00">::Logging::LogManager</text>
</a>
</g>
</g>
<!-- Node11&#45;&gt;Node12 -->
<g id="edge11_Node000011_Node000012" class="edge">
<title>Node11&#45;&gt;Node12</title>
<g id="a_edge11_Node000011_Node000012"><a xlink:title=" ">
<path fill="none" stroke="#63b8ff" d="M1087.86,-79.5C1100.26,-79.5 1112.45,-79.5 1123.73,-79.5"/>
<polygon fill="#63b8ff" stroke="#63b8ff" points="1087.96,-76 1077.96,-79.5 1087.96,-83 1087.96,-76"/>
</a>
</g>
</g>
<!-- Node14 -->
<g id="Node000014" class="node">
<title>Node14</title>
<g id="a_Node000014"><a xlink:href="class_harlinn_1_1_common_1_1_core_1_1_logging_1_1_sinks_1_1_l_m_d_b_sink.html" target="_top" xlink:title=" ">
<polygon fill="white" stroke="#666666" points="1253,-35.5 1113,-35.5 1113,-5.5 1253,-5.5 1253,-35.5"/>
<text text-anchor="start" x="1121" y="-23.5" font-family="Helvetica,sans-Serif" font-size="10.00">Harlinn::Common::Core</text>
<text text-anchor="middle" x="1183" y="-12.5" font-family="Helvetica,sans-Serif" font-size="10.00">::Logging::Sinks::LMDBSink</text>
</a>
</g>
</g>
<!-- Node13&#45;&gt;Node14 -->
<g id="edge13_Node000013_Node000014" class="edge">
<title>Node13&#45;&gt;Node14</title>
<g id="a_edge13_Node000013_Node000014"><a xlink:title=" ">
<path fill="none" stroke="#63b8ff" d="M1084.12,-20.5C1093.79,-20.5 1103.39,-20.5 1112.56,-20.5"/>
<polygon fill="#63b8ff" stroke="#63b8ff" points="1084.26,-17 1074.26,-20.5 1084.26,-24 1084.26,-17"/>
</a>
</g>
</g>
</g>
</svg>
