<?xml version="1.0" encoding="UTF-8" standalone="no"?>
<!DOCTYPE svg PUBLIC "-//W3C//DTD SVG 1.1//EN"
 "http://www.w3.org/Graphics/SVG/1.1/DTD/svg11.dtd">
<!-- Generated by graphviz version 7.0.1 (20221109.1506)
 -->
<!-- Title: Harlinn::Common::Core::Concurrency::ActiveObject&lt; MessageT, maxQueueSize &gt; Pages: 1 -->
<svg width="1917pt" height="830pt"
 viewBox="0.00 0.00 1917.00 830.00" xmlns="http://www.w3.org/2000/svg" xmlns:xlink="http://www.w3.org/1999/xlink">
<g id="graph0" class="graph" transform="scale(1 1) rotate(0) translate(4 826)">
<title>Harlinn::Common::Core::Concurrency::ActiveObject&lt; MessageT, maxQueueSize &gt;</title>
<!-- Node1 -->
<g id="Node000001" class="node">
<title>Node1</title>
<g id="a_Node000001"><a xlink:title="Extends the ActiveObjectBase template, implementing the message processing thread and the Start and S...">
<polygon fill="#999999" stroke="#666666" points="1909,-260.5 1757,-260.5 1757,-219.5 1909,-219.5 1909,-260.5"/>
<text text-anchor="start" x="1765" y="-248.5" font-family="Helvetica,sans-Serif" font-size="10.00">Harlinn::Common::Core</text>
<text text-anchor="start" x="1765" y="-237.5" font-family="Helvetica,sans-Serif" font-size="10.00">::Concurrency::ActiveObject</text>
<text text-anchor="middle" x="1833" y="-226.5" font-family="Helvetica,sans-Serif" font-size="10.00">&lt; MessageT, maxQueueSize &gt;</text>
</a>
</g>
</g>
<!-- Node2 -->
<g id="Node000002" class="node">
<title>Node2</title>
<g id="a_Node000002"><a xlink:href="class_harlinn_1_1_common_1_1_core_1_1_concurrency_1_1_active_object_base.html" target="_top" xlink:title=" ">
<polygon fill="white" stroke="#666666" points="1685,-399.5 1510,-399.5 1510,-358.5 1685,-358.5 1685,-399.5"/>
<text text-anchor="start" x="1518" y="-387.5" font-family="Helvetica,sans-Serif" font-size="10.00">Harlinn::Common::Core</text>
<text text-anchor="start" x="1518" y="-376.5" font-family="Helvetica,sans-Serif" font-size="10.00">::Concurrency::ActiveObject</text>
<text text-anchor="middle" x="1597.5" y="-365.5" font-family="Helvetica,sans-Serif" font-size="10.00">Base&lt; MessageT, maxQueueSize &gt;</text>
</a>
</g>
</g>
<!-- Node2&#45;&gt;Node1 -->
<g id="edge1_Node000001_Node000002" class="edge">
<title>Node2&#45;&gt;Node1</title>
<g id="a_edge1_Node000001_Node000002"><a xlink:title=" ">
<path fill="none" stroke="#63b8ff" d="M1643.45,-352.24C1688.19,-325.61 1755.95,-285.27 1796.89,-260.9"/>
<polygon fill="#63b8ff" stroke="#63b8ff" points="1641.81,-349.14 1635.01,-357.27 1645.39,-355.16 1641.81,-349.14"/>
</a>
</g>
</g>
<!-- Node3 -->
<g id="Node000003" class="node">
<title>Node3</title>
<g id="a_Node000003"><a xlink:href="class_harlinn_1_1_common_1_1_core_1_1_simple_concurrent_queue.html" target="_top" xlink:title=" ">
<polygon fill="white" stroke="#666666" points="1063,-257.5 911,-257.5 911,-216.5 1063,-216.5 1063,-257.5"/>
<text text-anchor="start" x="919" y="-245.5" font-family="Helvetica,sans-Serif" font-size="10.00">Harlinn::Common::Core</text>
<text text-anchor="start" x="919" y="-234.5" font-family="Helvetica,sans-Serif" font-size="10.00">::SimpleConcurrentQueue</text>
<text text-anchor="middle" x="987" y="-223.5" font-family="Helvetica,sans-Serif" font-size="10.00">&lt; MessageT, maxQueueSize &gt;</text>
</a>
</g>
</g>
<!-- Node3&#45;&gt;Node2 -->
<g id="edge2_Node000002_Node000003" class="edge">
<title>Node3&#45;&gt;Node2</title>
<g id="a_edge2_Node000002_Node000003"><a xlink:title=" ">
<path fill="none" stroke="#9a32cd" stroke-dasharray="5,2" d="M1074.13,-257.1C1189.68,-284.06 1393.76,-331.69 1509.68,-358.74"/>
<polygon fill="#9a32cd" stroke="#9a32cd" points="1075.23,-253.76 1064.7,-254.9 1073.64,-260.58 1075.23,-253.76"/>
</a>
</g>
<text text-anchor="middle" x="1247.5" y="-320" font-family="Helvetica,sans-Serif" font-size="10.00" fill="grey"> messages_</text>
</g>
<!-- Node4 -->
<g id="Node000004" class="node">
<title>Node4</title>
<g id="a_Node000004"><a xlink:href="class_harlinn_1_1_common_1_1_core_1_1_condition_variable.html" target="_top" xlink:title="Condition variables are synchronization primitives that enable threads to wait until a particular con...">
<polygon fill="white" stroke="#666666" points="469,-452 351,-452 351,-422 469,-422 469,-452"/>
<text text-anchor="start" x="359" y="-440" font-family="Helvetica,sans-Serif" font-size="10.00">Harlinn::Common::Core</text>
<text text-anchor="middle" x="410" y="-429" font-family="Helvetica,sans-Serif" font-size="10.00">::ConditionVariable</text>
</a>
</g>
</g>
<!-- Node4&#45;&gt;Node3 -->
<g id="edge3_Node000003_Node000004" class="edge">
<title>Node4&#45;&gt;Node3</title>
<g id="a_edge3_Node000003_Node000004"><a xlink:title=" ">
<path fill="none" stroke="#9a32cd" stroke-dasharray="5,2" d="M480.6,-446.34C515.92,-447.59 558,-443.43 590,-423 603.75,-414.22 594.12,-399.58 608,-391 715.87,-324.31 782.74,-439.66 893,-377 939.55,-350.55 967.15,-290.08 979.05,-257.96"/>
<polygon fill="#9a32cd" stroke="#9a32cd" points="481.07,-442.86 470.91,-445.83 480.71,-449.85 481.07,-442.86"/>
</a>
</g>
<text text-anchor="middle" x="672" y="-405" font-family="Helvetica,sans-Serif" font-size="10.00" fill="grey"> queueEmpty_</text>
<text text-anchor="middle" x="672" y="-394" font-family="Helvetica,sans-Serif" font-size="10.00" fill="grey">queueFull_</text>
</g>
<!-- Node12 -->
<g id="Node000012" class="node">
<title>Node12</title>
<g id="a_Node000012"><a xlink:href="class_harlinn_1_1_common_1_1_core_1_1_simple_concurrent_queue.html" target="_top" xlink:title="Simple blocking fixed size queue.">
<polygon fill="white" stroke="#666666" points="736,-354.5 608,-354.5 608,-313.5 736,-313.5 736,-354.5"/>
<text text-anchor="start" x="616" y="-342.5" font-family="Helvetica,sans-Serif" font-size="10.00">Harlinn::Common::Core</text>
<text text-anchor="start" x="616" y="-331.5" font-family="Helvetica,sans-Serif" font-size="10.00">::SimpleConcurrentQueue</text>
<text text-anchor="middle" x="672" y="-320.5" font-family="Helvetica,sans-Serif" font-size="10.00">&lt; T, maxQueueSize &gt;</text>
</a>
</g>
</g>
<!-- Node4&#45;&gt;Node12 -->
<g id="edge14_Node000012_Node000004" class="edge">
<title>Node4&#45;&gt;Node12</title>
<g id="a_edge14_Node000012_Node000004"><a xlink:title=" ">
<path fill="none" stroke="#9a32cd" stroke-dasharray="5,2" d="M460.35,-417.45C505.5,-399.56 572.11,-373.17 618.29,-354.88"/>
<polygon fill="#9a32cd" stroke="#9a32cd" points="459.34,-414.09 451.33,-421.02 461.92,-420.59 459.34,-414.09"/>
</a>
</g>
<text text-anchor="middle" x="547.5" y="-411" font-family="Helvetica,sans-Serif" font-size="10.00" fill="grey"> queueEmpty_</text>
<text text-anchor="middle" x="547.5" y="-400" font-family="Helvetica,sans-Serif" font-size="10.00" fill="grey">queueFull_</text>
</g>
<!-- Node18 -->
<g id="Node000018" class="node">
<title>Node18</title>
<g id="a_Node000018"><a xlink:href="class_harlinn_1_1_common_1_1_core_1_1_simple_concurrent_queue.html" target="_top" xlink:title=" ">
<polygon fill="white" stroke="#666666" points="1051,-449.5 923,-449.5 923,-408.5 1051,-408.5 1051,-449.5"/>
<text text-anchor="start" x="931" y="-437.5" font-family="Helvetica,sans-Serif" font-size="10.00">Harlinn::Common::Core</text>
<text text-anchor="start" x="931" y="-426.5" font-family="Helvetica,sans-Serif" font-size="10.00">::SimpleConcurrentQueue</text>
<text text-anchor="middle" x="987" y="-415.5" font-family="Helvetica,sans-Serif" font-size="10.00">&lt; MessageT, 10 *1024 &gt;</text>
</a>
</g>
</g>
<!-- Node4&#45;&gt;Node18 -->
<g id="edge30_Node000018_Node000004" class="edge">
<title>Node4&#45;&gt;Node18</title>
<g id="a_edge30_Node000018_Node000004"><a xlink:title=" ">
<path fill="none" stroke="#9a32cd" stroke-dasharray="5,2" d="M480.51,-450.74C574.75,-467.11 747.97,-489.16 893,-463 908.23,-460.25 924.24,-455.24 938.61,-449.88"/>
<polygon fill="#9a32cd" stroke="#9a32cd" points="481.36,-447.34 470.9,-449.04 480.14,-454.23 481.36,-447.34"/>
</a>
</g>
<text text-anchor="middle" x="672" y="-489" font-family="Helvetica,sans-Serif" font-size="10.00" fill="grey"> queueEmpty_</text>
<text text-anchor="middle" x="672" y="-478" font-family="Helvetica,sans-Serif" font-size="10.00" fill="grey">queueFull_</text>
</g>
<!-- Node5 -->
<g id="Node000005" class="node">
<title>Node5</title>
<g id="a_Node000005"><a xlink:href="class_harlinn_1_1_common_1_1_core_1_1_critical_section.html" target="_top" xlink:title="A critical section object provides synchronization similar to that provided by a mutex object,...">
<polygon fill="white" stroke="#666666" points="469,-360 351,-360 351,-330 469,-330 469,-360"/>
<text text-anchor="start" x="359" y="-348" font-family="Helvetica,sans-Serif" font-size="10.00">Harlinn::Common::Core</text>
<text text-anchor="middle" x="410" y="-337" font-family="Helvetica,sans-Serif" font-size="10.00">::CriticalSection</text>
</a>
</g>
</g>
<!-- Node5&#45;&gt;Node3 -->
<g id="edge4_Node000003_Node000005" class="edge">
<title>Node5&#45;&gt;Node3</title>
<g id="a_edge4_Node000003_Node000005"><a xlink:title=" ">
<path fill="none" stroke="#9a32cd" stroke-dasharray="5,2" d="M477.53,-325.39C480.77,-324 483.95,-322.53 487,-321 495.82,-316.57 496.67,-313.29 505,-308 510.52,-304.5 601.7,-252.75 608,-251 709.86,-222.67 833.11,-224.44 910.55,-229.65"/>
<polygon fill="#9a32cd" stroke="#9a32cd" points="476.42,-322.06 468.43,-329.01 479.01,-328.56 476.42,-322.06"/>
</a>
</g>
<text text-anchor="middle" x="672" y="-254" font-family="Helvetica,sans-Serif" font-size="10.00" fill="grey"> criticalSection_</text>
</g>
<!-- Node5&#45;&gt;Node12 -->
<g id="edge15_Node000012_Node000005" class="edge">
<title>Node5&#45;&gt;Node12</title>
<g id="a_edge15_Node000012_Node000005"><a xlink:title=" ">
<path fill="none" stroke="#9a32cd" stroke-dasharray="5,2" d="M480.76,-342.05C520.32,-340.37 569.43,-338.3 607.84,-336.67"/>
<polygon fill="#9a32cd" stroke="#9a32cd" points="480.7,-338.55 470.86,-342.47 481,-345.54 480.7,-338.55"/>
</a>
</g>
<text text-anchor="middle" x="547.5" y="-343" font-family="Helvetica,sans-Serif" font-size="10.00" fill="grey"> criticalSection_</text>
</g>
<!-- Node5&#45;&gt;Node18 -->
<g id="edge31_Node000018_Node000005" class="edge">
<title>Node5&#45;&gt;Node18</title>
<g id="a_edge31_Node000018_Node000005"><a xlink:title=" ">
<path fill="none" stroke="#9a32cd" stroke-dasharray="5,2" d="M480.53,-352.64C523.2,-358.52 572.84,-367.88 590,-381 604.21,-391.87 592.93,-407.36 608,-417 658.39,-449.26 828.61,-441.67 922.51,-434.62"/>
<polygon fill="#9a32cd" stroke="#9a32cd" points="481.17,-349.2 470.79,-351.35 480.24,-356.14 481.17,-349.2"/>
</a>
</g>
<text text-anchor="middle" x="672" y="-443" font-family="Helvetica,sans-Serif" font-size="10.00" fill="grey"> criticalSection_</text>
</g>
<!-- Node6 -->
<g id="Node000006" class="node">
<title>Node6</title>
<g id="a_Node000006"><a xlink:title=" ">
<polygon fill="white" stroke="#666666" points="465,-598.5 355,-598.5 355,-579.5 465,-579.5 465,-598.5"/>
<text text-anchor="middle" x="410" y="-586.5" font-family="Helvetica,sans-Serif" font-size="10.00">std::atomic&lt; size_t &gt;</text>
</a>
</g>
</g>
<!-- Node6&#45;&gt;Node2 -->
<g id="edge27_Node000002_Node000006" class="edge">
<title>Node6&#45;&gt;Node2</title>
<g id="a_edge27_Node000002_Node000006"><a xlink:title=" ">
<path fill="none" stroke="#9a32cd" stroke-dasharray="5,2" d="M429.77,-606.6C470.38,-642.75 570.81,-722 671,-722 671,-722 671,-722 1248.5,-722 1433.01,-722 1555.19,-474.41 1587.77,-399.94"/>
<polygon fill="#9a32cd" stroke="#9a32cd" points="432.28,-604.15 422.52,-600.01 427.57,-609.33 432.28,-604.15"/>
</a>
</g>
<text text-anchor="middle" x="987" y="-736" font-family="Helvetica,sans-Serif" font-size="10.00" fill="grey"> messagesPosted_</text>
<text text-anchor="middle" x="987" y="-725" font-family="Helvetica,sans-Serif" font-size="10.00" fill="grey">messagesProcessed_</text>
</g>
<!-- Node6&#45;&gt;Node3 -->
<g id="edge5_Node000003_Node000006" class="edge">
<title>Node6&#45;&gt;Node3</title>
<g id="a_edge5_Node000003_Node000006"><a xlink:title=" ">
<path fill="none" stroke="#9a32cd" stroke-dasharray="5,2" d="M476.36,-581.13C579.25,-565.31 778.99,-520.23 893,-400 934.36,-356.38 964.41,-290.97 977.97,-257.83"/>
<polygon fill="#9a32cd" stroke="#9a32cd" points="476.08,-577.63 466.7,-582.56 477.11,-584.55 476.08,-577.63"/>
</a>
</g>
<text text-anchor="middle" x="672" y="-576" font-family="Helvetica,sans-Serif" font-size="10.00" fill="grey"> lastItemProduced_</text>
<text text-anchor="middle" x="672" y="-565" font-family="Helvetica,sans-Serif" font-size="10.00" fill="grey">queueSize_</text>
<text text-anchor="middle" x="672" y="-554" font-family="Helvetica,sans-Serif" font-size="10.00" fill="grey">startOffset_</text>
</g>
<!-- Node6&#45;&gt;Node12 -->
<g id="edge16_Node000012_Node000006" class="edge">
<title>Node6&#45;&gt;Node12</title>
<g id="a_edge16_Node000012_Node000006"><a xlink:title=" ">
<path fill="none" stroke="#9a32cd" stroke-dasharray="5,2" d="M435.46,-572.57C473.73,-545.66 547.75,-488.57 590,-423 603.7,-401.73 591.84,-388.47 608,-369 612.47,-363.61 618.01,-358.9 623.92,-354.84"/>
<polygon fill="#9a32cd" stroke="#9a32cd" points="433.58,-569.62 427.35,-578.19 437.56,-575.37 433.58,-569.62"/>
</a>
</g>
<text text-anchor="middle" x="547.5" y="-541" font-family="Helvetica,sans-Serif" font-size="10.00" fill="grey"> lastItemProduced_</text>
<text text-anchor="middle" x="547.5" y="-530" font-family="Helvetica,sans-Serif" font-size="10.00" fill="grey">queueSize_</text>
<text text-anchor="middle" x="547.5" y="-519" font-family="Helvetica,sans-Serif" font-size="10.00" fill="grey">startOffset_</text>
</g>
<!-- Node17 -->
<g id="Node000017" class="node">
<title>Node17</title>
<g id="a_Node000017"><a xlink:href="class_harlinn_1_1_common_1_1_core_1_1_concurrency_1_1_active_object_base.html" target="_top" xlink:title="The base template class for the active object type.">
<polygon fill="white" stroke="#666666" points="1335,-449.5 1160,-449.5 1160,-408.5 1335,-408.5 1335,-449.5"/>
<text text-anchor="start" x="1168" y="-437.5" font-family="Helvetica,sans-Serif" font-size="10.00">Harlinn::Common::Core</text>
<text text-anchor="start" x="1168" y="-426.5" font-family="Helvetica,sans-Serif" font-size="10.00">::Concurrency::ActiveObject</text>
<text text-anchor="middle" x="1247.5" y="-415.5" font-family="Helvetica,sans-Serif" font-size="10.00">Base&lt; MessageT, maxQueueSize &gt;</text>
</a>
</g>
</g>
<!-- Node6&#45;&gt;Node17 -->
<g id="edge38_Node000017_Node000006" class="edge">
<title>Node6&#45;&gt;Node17</title>
<g id="a_edge38_Node000017_Node000006"><a xlink:title=" ">
<path fill="none" stroke="#9a32cd" stroke-dasharray="5,2" d="M441.9,-603.58C460.06,-611.88 483.58,-622.14 505,-630 602.24,-665.7 633.88,-678.37 736,-661 931.55,-627.74 1139.2,-500.46 1215.82,-449.89"/>
<polygon fill="#9a32cd" stroke="#9a32cd" points="443.54,-600.49 432.99,-599.47 440.61,-606.84 443.54,-600.49"/>
</a>
</g>
<text text-anchor="middle" x="823.5" y="-670" font-family="Helvetica,sans-Serif" font-size="10.00" fill="grey"> messagesPosted_</text>
<text text-anchor="middle" x="823.5" y="-659" font-family="Helvetica,sans-Serif" font-size="10.00" fill="grey">messagesProcessed_</text>
</g>
<!-- Node6&#45;&gt;Node18 -->
<g id="edge32_Node000018_Node000006" class="edge">
<title>Node6&#45;&gt;Node18</title>
<g id="a_edge32_Node000018_Node000006"><a xlink:title=" ">
<path fill="none" stroke="#9a32cd" stroke-dasharray="5,2" d="M459.44,-601.51C551.87,-622.44 756.35,-654.3 893,-568 937.8,-539.7 965.99,-481.11 978.48,-449.8"/>
<polygon fill="#9a32cd" stroke="#9a32cd" points="460.48,-598.16 449.95,-599.3 458.89,-604.98 460.48,-598.16"/>
</a>
</g>
<text text-anchor="middle" x="672" y="-649" font-family="Helvetica,sans-Serif" font-size="10.00" fill="grey"> lastItemProduced_</text>
<text text-anchor="middle" x="672" y="-638" font-family="Helvetica,sans-Serif" font-size="10.00" fill="grey">queueSize_</text>
<text text-anchor="middle" x="672" y="-627" font-family="Helvetica,sans-Serif" font-size="10.00" fill="grey">startOffset_</text>
</g>
<!-- Node7 -->
<g id="Node000007" class="node">
<title>Node7</title>
<g id="a_Node000007"><a xlink:title=" ">
<polygon fill="white" stroke="#666666" points="197,-290.5 108,-290.5 108,-271.5 197,-271.5 197,-290.5"/>
<text text-anchor="middle" x="152.5" y="-278.5" font-family="Helvetica,sans-Serif" font-size="10.00">std::atomic&lt; T &gt;</text>
</a>
</g>
</g>
<!-- Node7&#45;&gt;Node6 -->
<g id="edge6_Node000006_Node000007" class="edge">
<title>Node7&#45;&gt;Node6</title>
<g id="a_edge6_Node000006_Node000007"><a xlink:title=" ">
<path fill="none" stroke="orange" stroke-dasharray="5,2" d="M185.2,-296.37C189.36,-298.98 193.42,-301.88 197,-305 299.05,-393.94 382.27,-539.75 403.66,-579.01"/>
<polygon fill="orange" stroke="orange" points="187.2,-293.49 176.79,-291.55 183.72,-299.56 187.2,-293.49"/>
</a>
</g>
<text text-anchor="middle" x="265" y="-437" font-family="Helvetica,sans-Serif" font-size="10.00" fill="grey"> &lt; size_t &gt;</text>
</g>
<!-- Node9 -->
<g id="Node000009" class="node">
<title>Node9</title>
<g id="a_Node000009"><a xlink:title=" ">
<polygon fill="white" stroke="#666666" points="460.5,-211.5 359.5,-211.5 359.5,-192.5 460.5,-192.5 460.5,-211.5"/>
<text text-anchor="middle" x="410" y="-199.5" font-family="Helvetica,sans-Serif" font-size="10.00">std::atomic&lt; bool &gt;</text>
</a>
</g>
</g>
<!-- Node7&#45;&gt;Node9 -->
<g id="edge9_Node000009_Node000007" class="edge">
<title>Node7&#45;&gt;Node9</title>
<g id="a_edge9_Node000009_Node000007"><a xlink:title=" ">
<path fill="none" stroke="orange" stroke-dasharray="5,2" d="M192.71,-265.8C194.19,-264.91 195.62,-263.97 197,-263 206.77,-256.1 204.64,-248.97 215,-243 259.58,-217.29 318.25,-207.62 359.36,-204.03"/>
<polygon fill="orange" stroke="orange" points="191.12,-262.68 183.88,-270.42 194.36,-268.88 191.12,-262.68"/>
</a>
</g>
<text text-anchor="middle" x="265" y="-246" font-family="Helvetica,sans-Serif" font-size="10.00" fill="grey"> &lt; bool &gt;</text>
</g>
<!-- Node8 -->
<g id="Node000008" class="node">
<title>Node8</title>
<g id="a_Node000008"><a xlink:title=" ">
<polygon fill="white" stroke="#666666" points="29,-323.5 0,-323.5 0,-304.5 29,-304.5 29,-323.5"/>
<text text-anchor="middle" x="14.5" y="-311.5" font-family="Helvetica,sans-Serif" font-size="10.00">T</text>
</a>
</g>
</g>
<!-- Node8&#45;&gt;Node7 -->
<g id="edge7_Node000007_Node000008" class="edge">
<title>Node8&#45;&gt;Node7</title>
<g id="a_edge7_Node000007_Node000008"><a xlink:title=" ">
<path fill="none" stroke="#9a32cd" stroke-dasharray="5,2" d="M40.02,-304.21C42.36,-303.41 44.72,-302.66 47,-302 66.65,-296.33 88.8,-291.64 107.64,-288.14"/>
<polygon fill="#9a32cd" stroke="#9a32cd" points="39.03,-300.85 30.86,-307.59 41.46,-307.41 39.03,-300.85"/>
</a>
</g>
<text text-anchor="middle" x="68.5" y="-305" font-family="Helvetica,sans-Serif" font-size="10.00" fill="grey"> ptr</text>
</g>
<!-- Node11 -->
<g id="Node000011" class="node">
<title>Node11</title>
<g id="a_Node000011"><a xlink:title=" ">
<polygon fill="white" stroke="#666666" points="193,-253.5 112,-253.5 112,-234.5 193,-234.5 193,-253.5"/>
<text text-anchor="middle" x="152.5" y="-241.5" font-family="Helvetica,sans-Serif" font-size="10.00">std::array&lt; T &gt;</text>
</a>
</g>
</g>
<!-- Node8&#45;&gt;Node11 -->
<g id="edge12_Node000011_Node000008" class="edge">
<title>Node8&#45;&gt;Node11</title>
<g id="a_edge12_Node000011_Node000008"><a xlink:title=" ">
<path fill="none" stroke="#9a32cd" stroke-dasharray="5,2" d="M27.86,-294.84C33.06,-288.07 39.62,-280.92 47,-276 66.34,-263.11 91.1,-255.23 111.66,-250.51"/>
<polygon fill="#9a32cd" stroke="#9a32cd" points="25.05,-292.76 22.16,-302.96 30.77,-296.79 25.05,-292.76"/>
</a>
</g>
<text text-anchor="middle" x="68.5" y="-279" font-family="Helvetica,sans-Serif" font-size="10.00" fill="grey"> elements</text>
</g>
<!-- Node13 -->
<g id="Node000013" class="node">
<title>Node13</title>
<g id="a_Node000013"><a xlink:title=" ">
<polygon fill="white" stroke="#666666" points="487,-311.5 333,-311.5 333,-292.5 487,-292.5 487,-311.5"/>
<text text-anchor="middle" x="410" y="-299.5" font-family="Helvetica,sans-Serif" font-size="10.00">std::array&lt; T, MaxQueueSize &gt;</text>
</a>
</g>
</g>
<!-- Node8&#45;&gt;Node13 -->
<g id="edge19_Node000013_Node000008" class="edge">
<title>Node8&#45;&gt;Node13</title>
<g id="a_edge19_Node000013_Node000008"><a xlink:title=" ">
<path fill="none" stroke="#9a32cd" stroke-dasharray="5,2" d="M40.73,-313.79C55.16,-313.64 73.6,-313.39 90,-313 172.96,-311.01 268.02,-307.59 332.63,-305.08"/>
<polygon fill="#9a32cd" stroke="#9a32cd" points="40.71,-310.29 30.75,-313.89 40.78,-317.29 40.71,-310.29"/>
</a>
</g>
<text text-anchor="middle" x="152.5" y="-315" font-family="Helvetica,sans-Serif" font-size="10.00" fill="grey"> elements</text>
</g>
<!-- Node15 -->
<g id="Node000015" class="node">
<title>Node15</title>
<g id="a_Node000015"><a xlink:href="struct_harlinn_1_1_common_1_1_core_1_1_internal_1_1_data.html" target="_top" xlink:title=" ">
<polygon fill="white" stroke="#666666" points="469,-780 351,-780 351,-750 469,-750 469,-780"/>
<text text-anchor="start" x="359" y="-768" font-family="Helvetica,sans-Serif" font-size="10.00">Harlinn::Common::Core</text>
<text text-anchor="middle" x="410" y="-757" font-family="Helvetica,sans-Serif" font-size="10.00">::Internal::Data&lt; T &gt;</text>
</a>
</g>
</g>
<!-- Node8&#45;&gt;Node15 -->
<g id="edge23_Node000015_Node000008" class="edge">
<title>Node8&#45;&gt;Node15</title>
<g id="a_edge23_Node000015_Node000008"><a xlink:title=" ">
<path fill="none" stroke="#9a32cd" stroke-dasharray="5,2" d="M31.33,-332.15C95.58,-405.78 336.21,-681.58 395.66,-749.71"/>
<polygon fill="#9a32cd" stroke="#9a32cd" points="34.29,-330.21 25.08,-324.98 29.02,-334.82 34.29,-330.21"/>
</a>
</g>
<text text-anchor="middle" x="152.5" y="-519" font-family="Helvetica,sans-Serif" font-size="10.00" fill="grey"> buffer_</text>
</g>
<!-- Node9&#45;&gt;Node2 -->
<g id="edge26_Node000002_Node000009" class="edge">
<title>Node9&#45;&gt;Node2</title>
<g id="a_edge26_Node000002_Node000009"><a xlink:title=" ">
<path fill="none" stroke="#9a32cd" stroke-dasharray="5,2" d="M471.41,-192.65C477.16,-189.92 482.51,-186.43 487,-182 508.33,-160.94 484.99,-139.32 505,-117 557.28,-58.71 592.7,-58 671,-58 671,-58 671,-58 1248.5,-58 1337.48,-58 1524.85,-287.58 1580.56,-358.43"/>
<polygon fill="#9a32cd" stroke="#9a32cd" points="470.19,-189.37 462.14,-196.25 472.73,-195.89 470.19,-189.37"/>
</a>
</g>
<text text-anchor="middle" x="987" y="-72" font-family="Helvetica,sans-Serif" font-size="10.00" fill="grey"> started_</text>
<text text-anchor="middle" x="987" y="-61" font-family="Helvetica,sans-Serif" font-size="10.00" fill="grey">stopped_</text>
</g>
<!-- Node9&#45;&gt;Node3 -->
<g id="edge8_Node000003_Node000009" class="edge">
<title>Node9&#45;&gt;Node3</title>
<g id="a_edge8_Node000003_Node000009"><a xlink:title=" ">
<path fill="none" stroke="#9a32cd" stroke-dasharray="5,2" d="M472.21,-200.3C537.6,-198.96 644.23,-198.18 736,-204 806.15,-208.45 823.35,-213.55 893,-223 898.74,-223.78 904.68,-224.61 910.65,-225.47"/>
<polygon fill="#9a32cd" stroke="#9a32cd" points="472.33,-196.79 462.41,-200.51 472.48,-203.79 472.33,-196.79"/>
</a>
</g>
<text text-anchor="middle" x="672" y="-207" font-family="Helvetica,sans-Serif" font-size="10.00" fill="grey"> closed_</text>
</g>
<!-- Node9&#45;&gt;Node12 -->
<g id="edge17_Node000012_Node000009" class="edge">
<title>Node9&#45;&gt;Node12</title>
<g id="a_edge17_Node000012_Node000009"><a xlink:title=" ">
<path fill="none" stroke="#9a32cd" stroke-dasharray="5,2" d="M440.55,-217C486.97,-240.57 577.08,-286.32 629.82,-313.09"/>
<polygon fill="#9a32cd" stroke="#9a32cd" points="442.39,-214.01 431.89,-212.61 439.22,-220.25 442.39,-214.01"/>
</a>
</g>
<text text-anchor="middle" x="547.5" y="-294" font-family="Helvetica,sans-Serif" font-size="10.00" fill="grey"> closed_</text>
</g>
<!-- Node9&#45;&gt;Node17 -->
<g id="edge37_Node000017_Node000009" class="edge">
<title>Node9&#45;&gt;Node17</title>
<g id="a_edge37_Node000017_Node000009"><a xlink:title=" ">
<path fill="none" stroke="#9a32cd" stroke-dasharray="5,2" d="M466.92,-188.99C473.77,-186.9 480.6,-184.57 487,-182 544.05,-159.11 549.47,-133.8 608,-115 728.81,-76.19 771.3,-62.06 893,-98 1044.33,-142.69 1058.83,-210.91 1160,-332 1182.42,-358.84 1209.4,-388.74 1227.2,-408.15"/>
<polygon fill="#9a32cd" stroke="#9a32cd" points="466.3,-185.53 457.66,-191.66 468.24,-192.25 466.3,-185.53"/>
</a>
</g>
<text text-anchor="middle" x="823.5" y="-112" font-family="Helvetica,sans-Serif" font-size="10.00" fill="grey"> started_</text>
<text text-anchor="middle" x="823.5" y="-101" font-family="Helvetica,sans-Serif" font-size="10.00" fill="grey">stopped_</text>
</g>
<!-- Node9&#45;&gt;Node18 -->
<g id="edge33_Node000018_Node000009" class="edge">
<title>Node9&#45;&gt;Node18</title>
<g id="a_edge33_Node000018_Node000009"><a xlink:title=" ">
<path fill="none" stroke="#9a32cd" stroke-dasharray="5,2" d="M471.99,-211.26C507.66,-218.22 552.83,-229.76 590,-248 599.1,-252.47 598.64,-258.12 608,-262 725.92,-310.93 783.46,-232.41 893,-298 936.07,-323.79 964.55,-378.08 977.67,-408.04"/>
<polygon fill="#9a32cd" stroke="#9a32cd" points="472.72,-207.84 462.25,-209.44 471.44,-214.72 472.72,-207.84"/>
</a>
</g>
<text text-anchor="middle" x="672" y="-282" font-family="Helvetica,sans-Serif" font-size="10.00" fill="grey"> closed_</text>
</g>
<!-- Node10 -->
<g id="Node000010" class="node">
<title>Node10</title>
<g id="a_Node000010"><a xlink:title=" ">
<polygon fill="white" stroke="#666666" points="729.5,-154 614.5,-154 614.5,-124 729.5,-124 729.5,-154"/>
<text text-anchor="start" x="622.5" y="-142" font-family="Helvetica,sans-Serif" font-size="10.00">std::array&lt; MessageT,</text>
<text text-anchor="middle" x="672" y="-131" font-family="Helvetica,sans-Serif" font-size="10.00"> MaxQueueSize &gt;</text>
</a>
</g>
</g>
<!-- Node10&#45;&gt;Node3 -->
<g id="edge10_Node000003_Node000010" class="edge">
<title>Node10&#45;&gt;Node3</title>
<g id="a_edge10_Node000003_Node000010"><a xlink:title=" ">
<path fill="none" stroke="#9a32cd" stroke-dasharray="5,2" d="M741.08,-126.89C786.02,-121.97 845.2,-121.52 893,-142 928.43,-157.18 957.21,-192.98 972.94,-216.04"/>
<polygon fill="#9a32cd" stroke="#9a32cd" points="740.7,-123.41 731.19,-128.08 741.53,-130.36 740.7,-123.41"/>
</a>
</g>
<text text-anchor="middle" x="823.5" y="-145" font-family="Helvetica,sans-Serif" font-size="10.00" fill="grey"> conatainer_</text>
</g>
<!-- Node10&#45;&gt;Node18 -->
<g id="edge34_Node000018_Node000010" class="edge">
<title>Node10&#45;&gt;Node18</title>
<g id="a_edge34_Node000018_Node000010"><a xlink:title=" ">
<path fill="none" stroke="#9a32cd" stroke-dasharray="5,2" d="M728.67,-158.53C777.07,-177.83 846.54,-211.37 893,-259 936.81,-303.91 966.15,-373.61 978.85,-408.14"/>
<polygon fill="#9a32cd" stroke="#9a32cd" points="730.07,-155.32 719.48,-154.95 727.53,-161.84 730.07,-155.32"/>
</a>
</g>
<text text-anchor="middle" x="823.5" y="-262" font-family="Helvetica,sans-Serif" font-size="10.00" fill="grey"> conatainer_</text>
</g>
<!-- Node11&#45;&gt;Node10 -->
<g id="edge11_Node000010_Node000011" class="edge">
<title>Node11&#45;&gt;Node10</title>
<g id="a_edge11_Node000010_Node000011"><a xlink:title=" ">
<path fill="none" stroke="orange" stroke-dasharray="5,2" d="M176.49,-227.65C187.7,-220.25 201.62,-211.86 215,-206 349.48,-147.06 525.46,-138.19 614.35,-137.9"/>
<polygon fill="orange" stroke="orange" points="174.6,-224.7 168.3,-233.22 178.54,-230.49 174.6,-224.7"/>
</a>
</g>
<text text-anchor="middle" x="410" y="-170" font-family="Helvetica,sans-Serif" font-size="10.00" fill="grey"> &lt; MessageT, MaxQueueSize &gt;</text>
</g>
<!-- Node11&#45;&gt;Node13 -->
<g id="edge20_Node000013_Node000011" class="edge">
<title>Node11&#45;&gt;Node13</title>
<g id="a_edge20_Node000013_Node000011"><a xlink:title=" ">
<path fill="none" stroke="orange" stroke-dasharray="5,2" d="M204.57,-255.59C251.55,-266.26 320.5,-281.91 365.08,-292.03"/>
<polygon fill="orange" stroke="orange" points="205.42,-252.2 194.9,-253.4 203.87,-259.02 205.42,-252.2"/>
</a>
</g>
<text text-anchor="middle" x="265" y="-282" font-family="Helvetica,sans-Serif" font-size="10.00" fill="grey"> &lt; T, MaxQueueSize &gt;</text>
</g>
<!-- Node12&#45;&gt;Node3 -->
<g id="edge13_Node000003_Node000012" class="edge">
<title>Node12&#45;&gt;Node3</title>
<g id="a_edge13_Node000003_Node000012"><a xlink:title=" ">
<path fill="none" stroke="orange" stroke-dasharray="5,2" d="M747.16,-311.02C799.11,-294.92 867.98,-273.57 918.42,-257.94"/>
<polygon fill="orange" stroke="orange" points="746.3,-307.62 737.79,-313.92 748.37,-314.31 746.3,-307.62"/>
</a>
</g>
<text text-anchor="middle" x="823.5" y="-310" font-family="Helvetica,sans-Serif" font-size="10.00" fill="grey"> &lt; MessageT, maxQueueSize &gt;</text>
</g>
<!-- Node12&#45;&gt;Node18 -->
<g id="edge35_Node000018_Node000012" class="edge">
<title>Node12&#45;&gt;Node18</title>
<g id="a_edge35_Node000018_Node000012"><a xlink:title=" ">
<path fill="none" stroke="orange" stroke-dasharray="5,2" d="M747.12,-356.5C800.58,-372.72 871.98,-394.39 922.75,-409.8"/>
<polygon fill="orange" stroke="orange" points="748.37,-353.22 737.79,-353.66 746.34,-359.92 748.37,-353.22"/>
</a>
</g>
<text text-anchor="middle" x="823.5" y="-401" font-family="Helvetica,sans-Serif" font-size="10.00" fill="grey"> &lt; MessageT, 10 *1024 &gt;</text>
</g>
<!-- Node13&#45;&gt;Node12 -->
<g id="edge18_Node000012_Node000013" class="edge">
<title>Node13&#45;&gt;Node12</title>
<g id="a_edge18_Node000012_Node000013"><a xlink:title=" ">
<path fill="none" stroke="#9a32cd" stroke-dasharray="5,2" d="M498.67,-311.16C527.76,-314.37 560.3,-318.14 590,-322 595.78,-322.75 601.79,-323.57 607.8,-324.41"/>
<polygon fill="#9a32cd" stroke="#9a32cd" points="499.11,-307.69 488.79,-310.08 498.35,-314.65 499.11,-307.69"/>
</a>
</g>
<text text-anchor="middle" x="547.5" y="-325" font-family="Helvetica,sans-Serif" font-size="10.00" fill="grey"> conatainer_</text>
</g>
<!-- Node14 -->
<g id="Node000014" class="node">
<title>Node14</title>
<g id="a_Node000014"><a xlink:href="class_harlinn_1_1_common_1_1_core_1_1_basic_string.html" target="_top" xlink:title=" ">
<polygon fill="white" stroke="#666666" points="1049.5,-792 924.5,-792 924.5,-762 1049.5,-762 1049.5,-792"/>
<text text-anchor="start" x="932.5" y="-780" font-family="Helvetica,sans-Serif" font-size="10.00">Harlinn::Common::Core</text>
<text text-anchor="middle" x="987" y="-769" font-family="Helvetica,sans-Serif" font-size="10.00">::BasicString&lt; wchar_t &gt;</text>
</a>
</g>
</g>
<!-- Node14&#45;&gt;Node2 -->
<g id="edge21_Node000002_Node000014" class="edge">
<title>Node14&#45;&gt;Node2</title>
<g id="a_edge21_Node000002_Node000014"><a xlink:title=" ">
<path fill="none" stroke="#9a32cd" stroke-dasharray="5,2" d="M1060.97,-794.4C1168.2,-815.33 1368.91,-836.28 1492,-736 1545.95,-692.05 1583.12,-469.12 1593.53,-399.68"/>
<polygon fill="#9a32cd" stroke="#9a32cd" points="1061.93,-791.02 1051.43,-792.48 1060.55,-797.88 1061.93,-791.02"/>
</a>
</g>
<text text-anchor="middle" x="1247.5" y="-814" font-family="Helvetica,sans-Serif" font-size="10.00" fill="grey"> threadName_</text>
</g>
<!-- Node14&#45;&gt;Node17 -->
<g id="edge36_Node000017_Node000014" class="edge">
<title>Node14&#45;&gt;Node17</title>
<g id="a_edge36_Node000017_Node000014"><a xlink:title=" ">
<path fill="none" stroke="#9a32cd" stroke-dasharray="5,2" d="M1046.51,-756.95C1052.23,-754.23 1057.83,-751.25 1063,-748 1103.74,-722.41 1114.42,-713.42 1142,-674 1194.37,-599.18 1228.13,-493.98 1240.83,-449.81"/>
<polygon fill="#9a32cd" stroke="#9a32cd" points="1045.24,-753.68 1037.52,-760.94 1048.08,-760.08 1045.24,-753.68"/>
</a>
</g>
<text text-anchor="middle" x="1111.5" y="-738" font-family="Helvetica,sans-Serif" font-size="10.00" fill="grey"> threadName_</text>
</g>
<!-- Node15&#45;&gt;Node14 -->
<g id="edge22_Node000014_Node000015" class="edge">
<title>Node15&#45;&gt;Node14</title>
<g id="a_edge22_Node000014_Node000015"><a xlink:title=" ">
<path fill="none" stroke="#9a32cd" stroke-dasharray="5,2" d="M480.49,-776.66C488.74,-777.87 497.05,-779.02 505,-780 676.18,-801.11 720.85,-798.7 893,-788 903.06,-787.37 913.7,-786.41 924.06,-785.3"/>
<polygon fill="#9a32cd" stroke="#9a32cd" points="481.23,-773.23 470.82,-775.19 480.19,-780.15 481.23,-773.23"/>
</a>
</g>
<text text-anchor="middle" x="672" y="-799" font-family="Helvetica,sans-Serif" font-size="10.00" fill="grey"> data_</text>
</g>
<!-- Node16 -->
<g id="Node000016" class="node">
<title>Node16</title>
<g id="a_Node000016"><a xlink:href="class_harlinn_1_1_common_1_1_core_1_1_basic_string.html" target="_top" xlink:title="This is a reference counted string class.">
<polygon fill="white" stroke="#666666" points="731,-780 613,-780 613,-750 731,-750 731,-780"/>
<text text-anchor="start" x="621" y="-768" font-family="Helvetica,sans-Serif" font-size="10.00">Harlinn::Common::Core</text>
<text text-anchor="middle" x="672" y="-757" font-family="Helvetica,sans-Serif" font-size="10.00">::BasicString&lt; T &gt;</text>
</a>
</g>
</g>
<!-- Node15&#45;&gt;Node16 -->
<g id="edge25_Node000016_Node000015" class="edge">
<title>Node15&#45;&gt;Node16</title>
<g id="a_edge25_Node000016_Node000015"><a xlink:title=" ">
<path fill="none" stroke="#9a32cd" stroke-dasharray="5,2" d="M480.7,-765C522.01,-765 573.75,-765 612.85,-765"/>
<polygon fill="#9a32cd" stroke="#9a32cd" points="480.86,-761.5 470.86,-765 480.86,-768.5 480.86,-761.5"/>
</a>
</g>
<text text-anchor="middle" x="547.5" y="-768" font-family="Helvetica,sans-Serif" font-size="10.00" fill="grey"> data_</text>
</g>
<!-- Node16&#45;&gt;Node14 -->
<g id="edge24_Node000014_Node000016" class="edge">
<title>Node16&#45;&gt;Node14</title>
<g id="a_edge24_Node000014_Node000016"><a xlink:title=" ">
<path fill="none" stroke="orange" stroke-dasharray="5,2" d="M742.42,-767.66C796.82,-769.75 871.8,-772.62 924.15,-774.63"/>
<polygon fill="orange" stroke="orange" points="742.78,-764.17 732.65,-767.29 742.51,-771.17 742.78,-764.17"/>
</a>
</g>
<text text-anchor="middle" x="823.5" y="-776" font-family="Helvetica,sans-Serif" font-size="10.00" fill="grey"> &lt; wchar_t &gt;</text>
</g>
<!-- Node17&#45;&gt;Node2 -->
<g id="edge28_Node000002_Node000017" class="edge">
<title>Node17&#45;&gt;Node2</title>
<g id="a_edge28_Node000002_Node000017"><a xlink:title=" ">
<path fill="none" stroke="orange" stroke-dasharray="5,2" d="M1346.53,-414.91C1397.88,-407.54 1460.21,-398.58 1509.79,-391.46"/>
<polygon fill="orange" stroke="orange" points="1346.32,-411.41 1336.92,-416.3 1347.31,-418.34 1346.32,-411.41"/>
</a>
</g>
<text text-anchor="middle" x="1422.5" y="-415" font-family="Helvetica,sans-Serif" font-size="10.00" fill="grey"> &lt; MessageT, maxQueueSize &gt;</text>
</g>
<!-- Node18&#45;&gt;Node17 -->
<g id="edge29_Node000017_Node000018" class="edge">
<title>Node18&#45;&gt;Node17</title>
<g id="a_edge29_Node000017_Node000018"><a xlink:title=" ">
<path fill="none" stroke="#9a32cd" stroke-dasharray="5,2" d="M1062.59,-429C1092.88,-429 1128.07,-429 1159.52,-429"/>
<polygon fill="#9a32cd" stroke="#9a32cd" points="1062.75,-425.5 1052.75,-429 1062.75,-432.5 1062.75,-425.5"/>
</a>
</g>
<text text-anchor="middle" x="1111.5" y="-432" font-family="Helvetica,sans-Serif" font-size="10.00" fill="grey"> messages_</text>
</g>
<!-- Node19 -->
<g id="Node000019" class="node">
<title>Node19</title>
<g id="a_Node000019"><a xlink:title=" ">
<polygon fill="white" stroke="#666666" points="1678,-260.5 1517,-260.5 1517,-219.5 1678,-219.5 1678,-260.5"/>
<text text-anchor="start" x="1525" y="-248.5" font-family="Helvetica,sans-Serif" font-size="10.00">std::enable_shared</text>
<text text-anchor="start" x="1525" y="-237.5" font-family="Helvetica,sans-Serif" font-size="10.00">_from_this&lt; ActiveObject</text>
<text text-anchor="middle" x="1597.5" y="-226.5" font-family="Helvetica,sans-Serif" font-size="10.00">&lt; MessageT, maxQueueSize &gt; &gt;</text>
</a>
</g>
</g>
<!-- Node19&#45;&gt;Node1 -->
<g id="edge39_Node000001_Node000019" class="edge">
<title>Node19&#45;&gt;Node1</title>
<g id="a_edge39_Node000001_Node000019"><a xlink:title=" ">
<path fill="none" stroke="#63b8ff" d="M1689.65,-240C1711.81,-240 1735.26,-240 1756.59,-240"/>
<polygon fill="#63b8ff" stroke="#63b8ff" points="1689.72,-236.5 1679.72,-240 1689.72,-243.5 1689.72,-236.5"/>
</a>
</g>
</g>
<!-- Node20 -->
<g id="Node000020" class="node">
<title>Node20</title>
<g id="a_Node000020"><a xlink:href="class_harlinn_1_1_common_1_1_core_1_1_thread.html" target="_top" xlink:title=" ">
<polygon fill="white" stroke="#666666" points="1656.5,-41 1538.5,-41 1538.5,-11 1656.5,-11 1656.5,-41"/>
<text text-anchor="start" x="1546.5" y="-29" font-family="Helvetica,sans-Serif" font-size="10.00">Harlinn::Common::Core</text>
<text text-anchor="middle" x="1597.5" y="-18" font-family="Helvetica,sans-Serif" font-size="10.00">::Thread</text>
</a>
</g>
</g>
<!-- Node20&#45;&gt;Node1 -->
<g id="edge40_Node000001_Node000020" class="edge">
<title>Node20&#45;&gt;Node1</title>
<g id="a_edge40_Node000001_Node000020"><a xlink:title=" ">
<path fill="none" stroke="#9a32cd" stroke-dasharray="5,2" d="M1623.75,-49.14C1669.53,-91.09 1765.53,-179.08 1809.34,-219.23"/>
<polygon fill="#9a32cd" stroke="#9a32cd" points="1626.15,-46.59 1616.41,-42.41 1621.42,-51.75 1626.15,-46.59"/>
</a>
</g>
<text text-anchor="middle" x="1721" y="-155" font-family="Helvetica,sans-Serif" font-size="10.00" fill="grey"> thread_</text>
</g>
<!-- Node21 -->
<g id="Node000021" class="node">
<title>Node21</title>
<g id="a_Node000021"><a xlink:href="class_harlinn_1_1_common_1_1_core_1_1_waitable_handle.html" target="_top" xlink:title=" ">
<polygon fill="white" stroke="#666666" points="1306.5,-30 1188.5,-30 1188.5,0 1306.5,0 1306.5,-30"/>
<text text-anchor="start" x="1196.5" y="-18" font-family="Helvetica,sans-Serif" font-size="10.00">Harlinn::Common::Core</text>
<text text-anchor="middle" x="1247.5" y="-7" font-family="Helvetica,sans-Serif" font-size="10.00">::WaitableHandle</text>
</a>
</g>
</g>
<!-- Node21&#45;&gt;Node20 -->
<g id="edge41_Node000020_Node000021" class="edge">
<title>Node21&#45;&gt;Node20</title>
<g id="a_edge41_Node000020_Node000021"><a xlink:title=" ">
<path fill="none" stroke="#63b8ff" d="M1318.02,-17.2C1382.5,-19.24 1477.39,-22.24 1538.06,-24.15"/>
<polygon fill="#63b8ff" stroke="#63b8ff" points="1318.37,-13.71 1308.26,-16.89 1318.14,-20.7 1318.37,-13.71"/>
</a>
</g>
</g>
</g>
</svg>
