<?xml version="1.0" encoding="UTF-8" standalone="no"?>
<!DOCTYPE svg PUBLIC "-//W3C//DTD SVG 1.1//EN"
 "http://www.w3.org/Graphics/SVG/1.1/DTD/svg11.dtd">
<!-- Generated by graphviz version 7.0.1 (20221109.1506)
 -->
<!-- Title: Harlinn.Common.Core.Net.Data.DeleteTimeseriesRangeData&lt; TKind &gt; Pages: 1 -->
<svg width="171pt" height="259pt"
 viewBox="0.00 0.00 171.00 259.00" xmlns="http://www.w3.org/2000/svg" xmlns:xlink="http://www.w3.org/1999/xlink">
<g id="graph0" class="graph" transform="scale(1 1) rotate(0) translate(4 255)">
<title>Harlinn.Common.Core.Net.Data.DeleteTimeseriesRangeData&lt; TKind &gt;</title>
<!-- Node1 -->
<g id="Node000001" class="node">
<title>Node1</title>
<g id="a_Node000001"><a xlink:title=" ">
<polygon fill="#999999" stroke="#666666" points="163,-41 0,-41 0,0 163,0 163,-41"/>
<text text-anchor="start" x="8" y="-29" font-family="Helvetica,sans-Serif" font-size="10.00">Harlinn.Common.Core.Net.</text>
<text text-anchor="start" x="8" y="-18" font-family="Helvetica,sans-Serif" font-size="10.00">Data.DeleteTimeseriesRangeData</text>
<text text-anchor="middle" x="81.5" y="-7" font-family="Helvetica,sans-Serif" font-size="10.00">&lt; TKind &gt;</text>
</a>
</g>
</g>
<!-- Node2 -->
<g id="Node000002" class="node">
<title>Node2</title>
<g id="a_Node000002"><a xlink:href="class_harlinn_1_1_common_1_1_core_1_1_guid.xhtml" target="_top" xlink:title="Represents a globally unique identifier (GUID).">
<polygon fill="white" stroke="#666666" points="140.5,-118 22.5,-118 22.5,-88 140.5,-88 140.5,-118"/>
<text text-anchor="start" x="30.5" y="-106" font-family="Helvetica,sans-Serif" font-size="10.00">Harlinn::Common::Core</text>
<text text-anchor="middle" x="81.5" y="-95" font-family="Helvetica,sans-Serif" font-size="10.00">::Guid</text>
</a>
</g>
</g>
<!-- Node2&#45;&gt;Node1 -->
<g id="edge1_Node000001_Node000002" class="edge">
<title>Node2&#45;&gt;Node1</title>
<g id="a_edge1_Node000001_Node000002"><a xlink:title=" ">
<path fill="none" stroke="#9a32cd" stroke-dasharray="5,2" d="M81.5,-76.2C81.5,-64.86 81.5,-51.75 81.5,-41.21"/>
<polygon fill="#9a32cd" stroke="#9a32cd" points="78,-76.09 81.5,-86.09 85,-76.09 78,-76.09"/>
</a>
</g>
<text text-anchor="middle" x="112" y="-62" font-family="Helvetica,sans-Serif" font-size="10.00" fill="grey"> _timeseriesId</text>
</g>
<!-- Node3 -->
<g id="Node000003" class="node">
<title>Node3</title>
<g id="a_Node000003"><a xlink:href="struct_harlinn_1_1_common_1_1_core_1_1_guid_1_1_data_t.xhtml" target="_top" xlink:title=" ">
<polygon fill="white" stroke="#666666" points="140.5,-195 22.5,-195 22.5,-165 140.5,-165 140.5,-195"/>
<text text-anchor="start" x="30.5" y="-183" font-family="Helvetica,sans-Serif" font-size="10.00">Harlinn::Common::Core</text>
<text text-anchor="middle" x="81.5" y="-172" font-family="Helvetica,sans-Serif" font-size="10.00">::Guid::DataT</text>
</a>
</g>
</g>
<!-- Node3&#45;&gt;Node2 -->
<g id="edge2_Node000002_Node000003" class="edge">
<title>Node3&#45;&gt;Node2</title>
<g id="a_edge2_Node000002_Node000003"><a xlink:title=" ">
<path fill="none" stroke="#9a32cd" stroke-dasharray="5,2" d="M81.5,-153.23C81.5,-141.58 81.5,-128.26 81.5,-118.42"/>
<polygon fill="#9a32cd" stroke="#9a32cd" points="78,-153.03 81.5,-163.03 85,-153.03 78,-153.03"/>
</a>
</g>
<text text-anchor="middle" x="95.5" y="-139" font-family="Helvetica,sans-Serif" font-size="10.00" fill="grey"> data_</text>
</g>
<!-- Node4 -->
<g id="Node000004" class="node">
<title>Node4</title>
<g id="a_Node000004"><a xlink:title=" ">
<polygon fill="white" stroke="#666666" points="101.5,-251 61.5,-251 61.5,-232 101.5,-232 101.5,-251"/>
<text text-anchor="middle" x="81.5" y="-239" font-family="Helvetica,sans-Serif" font-size="10.00">GUID</text>
</a>
</g>
</g>
<!-- Node4&#45;&gt;Node3 -->
<g id="edge3_Node000003_Node000004" class="edge">
<title>Node4&#45;&gt;Node3</title>
<g id="a_edge3_Node000003_Node000004"><a xlink:title=" ">
<path fill="none" stroke="#63b8ff" d="M81.5,-220.46C81.5,-212.23 81.5,-202.89 81.5,-195.36"/>
<polygon fill="#63b8ff" stroke="#63b8ff" points="78,-220.21 81.5,-230.21 85,-220.21 78,-220.21"/>
</a>
</g>
</g>
</g>
</svg>
