<?xml version="1.0" encoding="UTF-8" standalone="no"?>
<!DOCTYPE svg PUBLIC "-//W3C//DTD SVG 1.1//EN"
 "http://www.w3.org/Graphics/SVG/1.1/DTD/svg11.dtd">
<!-- Generated by graphviz version 7.0.1 (20221109.1506)
 -->
<!-- Title: Harlinn::Windows::ControlWindowClass Pages: 1 -->
<svg width="376pt" height="515pt"
 viewBox="0.00 0.00 376.00 515.00" xmlns="http://www.w3.org/2000/svg" xmlns:xlink="http://www.w3.org/1999/xlink">
<g id="graph0" class="graph" transform="scale(1 1) rotate(0) translate(4 511)">
<title>Harlinn::Windows::ControlWindowClass</title>
<!-- Node1 -->
<g id="Node000001" class="node">
<title>Node1</title>
<g id="a_Node000001"><a xlink:title=" ">
<polygon fill="#999999" stroke="#666666" points="129,-30 0,-30 0,0 129,0 129,-30"/>
<text text-anchor="start" x="8" y="-18" font-family="Helvetica,sans-Serif" font-size="10.00">Harlinn::Windows::Control</text>
<text text-anchor="middle" x="64.5" y="-7" font-family="Helvetica,sans-Serif" font-size="10.00">WindowClass</text>
</a>
</g>
</g>
<!-- Node2 -->
<g id="Node000002" class="node">
<title>Node2</title>
<g id="a_Node000002"><a xlink:href="class_harlinn_1_1_windows_1_1_window_class.html" target="_top" xlink:title=" ">
<polygon fill="white" stroke="#666666" points="214,-97 81,-97 81,-67 214,-67 214,-97"/>
<text text-anchor="start" x="89" y="-85" font-family="Helvetica,sans-Serif" font-size="10.00">Harlinn::Windows::Window</text>
<text text-anchor="middle" x="147.5" y="-74" font-family="Helvetica,sans-Serif" font-size="10.00">Class</text>
</a>
</g>
</g>
<!-- Node2&#45;&gt;Node1 -->
<g id="edge1_Node000001_Node000002" class="edge">
<title>Node2&#45;&gt;Node1</title>
<g id="a_edge1_Node000001_Node000002"><a xlink:title=" ">
<path fill="none" stroke="#63b8ff" d="M120.17,-59.59C107.93,-50.01 93.82,-38.96 82.87,-30.39"/>
<polygon fill="#63b8ff" stroke="#63b8ff" points="117.86,-62.23 127.89,-65.64 122.17,-56.72 117.86,-62.23"/>
</a>
</g>
</g>
<!-- Node3 -->
<g id="Node000003" class="node">
<title>Node3</title>
<g id="a_Node000003"><a xlink:href="class_harlinn_1_1_common_1_1_core_1_1_basic_string.html" target="_top" xlink:title=" ">
<polygon fill="white" stroke="#666666" points="368,-236 243,-236 243,-206 368,-206 368,-236"/>
<text text-anchor="start" x="251" y="-224" font-family="Helvetica,sans-Serif" font-size="10.00">Harlinn::Common::Core</text>
<text text-anchor="middle" x="305.5" y="-213" font-family="Helvetica,sans-Serif" font-size="10.00">::BasicString&lt; wchar_t &gt;</text>
</a>
</g>
</g>
<!-- Node3&#45;&gt;Node2 -->
<g id="edge2_Node000002_Node000003" class="edge">
<title>Node3&#45;&gt;Node2</title>
<g id="a_edge2_Node000002_Node000003"><a xlink:title=" ">
<path fill="none" stroke="#9a32cd" stroke-dasharray="5,2" d="M280.34,-198.18C247.66,-169.85 191.55,-121.19 163.89,-97.21"/>
<polygon fill="#9a32cd" stroke="#9a32cd" points="277.9,-200.7 287.75,-204.61 282.48,-195.41 277.9,-200.7"/>
</a>
</g>
<text text-anchor="middle" x="237.5" y="-129" font-family="Helvetica,sans-Serif" font-size="10.00" fill="grey"> menuName_</text>
<text text-anchor="middle" x="237.5" y="-118" font-family="Helvetica,sans-Serif" font-size="10.00" fill="grey">name_</text>
</g>
<!-- Node4 -->
<g id="Node000004" class="node">
<title>Node4</title>
<g id="a_Node000004"><a xlink:href="struct_harlinn_1_1_common_1_1_core_1_1_internal_1_1_data.html" target="_top" xlink:title=" ">
<polygon fill="white" stroke="#666666" points="272.5,-441 154.5,-441 154.5,-411 272.5,-411 272.5,-441"/>
<text text-anchor="start" x="162.5" y="-429" font-family="Helvetica,sans-Serif" font-size="10.00">Harlinn::Common::Core</text>
<text text-anchor="middle" x="213.5" y="-418" font-family="Helvetica,sans-Serif" font-size="10.00">::Internal::Data&lt; T &gt;</text>
</a>
</g>
</g>
<!-- Node4&#45;&gt;Node3 -->
<g id="edge3_Node000003_Node000004" class="edge">
<title>Node4&#45;&gt;Node3</title>
<g id="a_edge3_Node000003_Node000004"><a xlink:title=" ">
<path fill="none" stroke="#9a32cd" stroke-dasharray="5,2" d="M224.67,-400.36C244.1,-357.48 283.54,-270.46 299.04,-236.26"/>
<polygon fill="#9a32cd" stroke="#9a32cd" points="221.53,-398.79 220.59,-409.35 227.91,-401.68 221.53,-398.79"/>
</a>
</g>
<text text-anchor="middle" x="267.5" y="-346.5" font-family="Helvetica,sans-Serif" font-size="10.00" fill="grey"> data_</text>
</g>
<!-- Node6 -->
<g id="Node000006" class="node">
<title>Node6</title>
<g id="a_Node000006"><a xlink:href="class_harlinn_1_1_common_1_1_core_1_1_basic_string.html" target="_top" xlink:title="This is a reference counted string class.">
<polygon fill="white" stroke="#666666" points="210.5,-364 92.5,-364 92.5,-334 210.5,-334 210.5,-364"/>
<text text-anchor="start" x="100.5" y="-352" font-family="Helvetica,sans-Serif" font-size="10.00">Harlinn::Common::Core</text>
<text text-anchor="middle" x="151.5" y="-341" font-family="Helvetica,sans-Serif" font-size="10.00">::BasicString&lt; T &gt;</text>
</a>
</g>
</g>
<!-- Node4&#45;&gt;Node6 -->
<g id="edge6_Node000006_Node000004" class="edge">
<title>Node4&#45;&gt;Node6</title>
<g id="a_edge6_Node000006_Node000004"><a xlink:title=" ">
<path fill="none" stroke="#9a32cd" stroke-dasharray="5,2" d="M194.3,-401.77C184.21,-389.57 172.16,-374.99 163.42,-364.42"/>
<polygon fill="#9a32cd" stroke="#9a32cd" points="191.51,-403.9 200.58,-409.37 196.91,-399.44 191.51,-403.9"/>
</a>
</g>
<text text-anchor="middle" x="200.5" y="-385" font-family="Helvetica,sans-Serif" font-size="10.00" fill="grey"> data_</text>
</g>
<!-- Node5 -->
<g id="Node000005" class="node">
<title>Node5</title>
<g id="a_Node000005"><a xlink:title=" ">
<polygon fill="white" stroke="#666666" points="228,-507 199,-507 199,-488 228,-488 228,-507"/>
<text text-anchor="middle" x="213.5" y="-495" font-family="Helvetica,sans-Serif" font-size="10.00">T</text>
</a>
</g>
</g>
<!-- Node5&#45;&gt;Node4 -->
<g id="edge4_Node000004_Node000005" class="edge">
<title>Node5&#45;&gt;Node4</title>
<g id="a_edge4_Node000004_Node000005"><a xlink:title=" ">
<path fill="none" stroke="#9a32cd" stroke-dasharray="5,2" d="M213.5,-476.39C213.5,-465.15 213.5,-451.41 213.5,-441.27"/>
<polygon fill="#9a32cd" stroke="#9a32cd" points="210,-476.18 213.5,-486.18 217,-476.18 210,-476.18"/>
</a>
</g>
<text text-anchor="middle" x="229.5" y="-462" font-family="Helvetica,sans-Serif" font-size="10.00" fill="grey"> buffer_</text>
</g>
<!-- Node6&#45;&gt;Node1 -->
<g id="edge8_Node000001_Node000006" class="edge">
<title>Node6&#45;&gt;Node1</title>
<g id="a_edge8_Node000001_Node000006"><a xlink:title=" ">
<path fill="none" stroke="#9a32cd" stroke-dasharray="5,2" d="M135.77,-323.93C134.25,-321.3 132.8,-318.62 131.5,-316 125.37,-303.65 124.89,-300.07 120.5,-287 98.39,-221.14 90.63,-205.02 76.5,-137 72.86,-119.46 73.38,-114.82 71.5,-97 69.04,-73.7 66.83,-46.56 65.57,-30.35"/>
<polygon fill="#9a32cd" stroke="#9a32cd" points="132.74,-325.68 140.93,-332.4 138.71,-322.04 132.74,-325.68"/>
</a>
</g>
<text text-anchor="middle" x="103.5" y="-123.5" font-family="Helvetica,sans-Serif" font-size="10.00" fill="grey"> ClassName</text>
</g>
<!-- Node6&#45;&gt;Node2 -->
<g id="edge7_Node000002_Node000006" class="edge">
<title>Node6&#45;&gt;Node2</title>
<g id="a_edge7_Node000002_Node000006"><a xlink:title=" ">
<path fill="none" stroke="#9a32cd" stroke-dasharray="5,2" d="M140.93,-323.36C136.8,-312.44 132.56,-299.3 130.5,-287 120.82,-229.14 123.71,-213.27 130.5,-155 132.86,-134.72 138.85,-111.85 143.04,-97.44"/>
<polygon fill="#9a32cd" stroke="#9a32cd" points="137.58,-324.41 144.54,-332.4 144.09,-321.82 137.58,-324.41"/>
</a>
</g>
<text text-anchor="middle" x="182" y="-279" font-family="Helvetica,sans-Serif" font-size="10.00" fill="grey"> animate_class_name</text>
<text text-anchor="middle" x="182" y="-268" font-family="Helvetica,sans-Serif" font-size="10.00" fill="grey">button_class_name</text>
<text text-anchor="middle" x="182" y="-257" font-family="Helvetica,sans-Serif" font-size="10.00" fill="grey">combobox_class_name</text>
<text text-anchor="start" x="130.5" y="-246" font-family="Helvetica,sans-Serif" font-size="10.00" fill="grey">datetimepick_class</text>
<text text-anchor="middle" x="182" y="-235" font-family="Helvetica,sans-Serif" font-size="10.00" fill="grey">_name</text>
<text text-anchor="middle" x="182" y="-224" font-family="Helvetica,sans-Serif" font-size="10.00" fill="grey">edit_class_name</text>
<text text-anchor="middle" x="182" y="-213" font-family="Helvetica,sans-Serif" font-size="10.00" fill="grey">header_class_name</text>
<text text-anchor="middle" x="182" y="-202" font-family="Helvetica,sans-Serif" font-size="10.00" fill="grey">hotkey_class_name</text>
<text text-anchor="middle" x="182" y="-191" font-family="Helvetica,sans-Serif" font-size="10.00" fill="grey">ipaddress_class_name</text>
<text text-anchor="middle" x="182" y="-180" font-family="Helvetica,sans-Serif" font-size="10.00" fill="grey">link_class_name</text>
<text text-anchor="middle" x="182" y="-169" font-family="Helvetica,sans-Serif" font-size="10.00" fill="grey">listbox_class_name</text>
<text text-anchor="middle" x="182" y="-158" font-family="Helvetica,sans-Serif" font-size="10.00" fill="grey">...</text>
</g>
<!-- Node6&#45;&gt;Node3 -->
<g id="edge5_Node000003_Node000006" class="edge">
<title>Node6&#45;&gt;Node3</title>
<g id="a_edge5_Node000003_Node000006"><a xlink:title=" ">
<path fill="none" stroke="orange" stroke-dasharray="5,2" d="M178.67,-326.81C193.49,-315.17 212.1,-300.41 228.5,-287 249.49,-269.83 273.29,-249.63 288.8,-236.35"/>
<polygon fill="orange" stroke="orange" points="176.89,-323.76 171.18,-332.68 181.21,-329.27 176.89,-323.76"/>
</a>
</g>
<text text-anchor="middle" x="233" y="-308" font-family="Helvetica,sans-Serif" font-size="10.00" fill="grey"> &lt; wchar_t &gt;</text>
</g>
</g>
</svg>
