<?xml version="1.0" encoding="UTF-8" standalone="no"?>
<!DOCTYPE svg PUBLIC "-//W3C//DTD SVG 1.1//EN"
 "http://www.w3.org/Graphics/SVG/1.1/DTD/svg11.dtd">
<!-- Generated by graphviz version 7.0.1 (20221109.1506)
 -->
<!-- Title: Harlinn::Common::Core::Math::Quaternion&lt; T &gt; Pages: 1 -->
<svg width="761pt" height="118pt"
 viewBox="0.00 0.00 761.00 118.00" xmlns="http://www.w3.org/2000/svg" xmlns:xlink="http://www.w3.org/1999/xlink">
<g id="graph0" class="graph" transform="scale(1 1) rotate(0) translate(4 114)">
<title>Harlinn::Common::Core::Math::Quaternion&lt; T &gt;</title>
<!-- Node1 -->
<g id="Node000001" class="node">
<title>Node1</title>
<g id="a_Node000001"><a xlink:title=" ">
<polygon fill="#999999" stroke="#666666" points="753,-83 632,-83 632,-53 753,-53 753,-83"/>
<text text-anchor="start" x="640" y="-71" font-family="Helvetica,sans-Serif" font-size="10.00">Harlinn::Common::Core</text>
<text text-anchor="middle" x="692.5" y="-60" font-family="Helvetica,sans-Serif" font-size="10.00">::Math::Quaternion&lt; T &gt;</text>
</a>
</g>
</g>
<!-- Node2 -->
<g id="Node000002" class="node">
<title>Node2</title>
<g id="a_Node000002"><a xlink:href="struct_harlinn_1_1_common_1_1_core_1_1_math_1_1_internal_1_1_quaternion_base.html" target="_top" xlink:title=" ">
<polygon fill="white" stroke="#666666" points="589,-110 431,-110 431,-80 589,-80 589,-110"/>
<text text-anchor="start" x="439" y="-98" font-family="Helvetica,sans-Serif" font-size="10.00">Harlinn::Common::Core</text>
<text text-anchor="middle" x="510" y="-87" font-family="Helvetica,sans-Serif" font-size="10.00">::Math::Internal::QuaternionBase</text>
</a>
</g>
</g>
<!-- Node2&#45;&gt;Node1 -->
<g id="edge1_Node000001_Node000002" class="edge">
<title>Node2&#45;&gt;Node1</title>
<g id="a_edge1_Node000001_Node000002"><a xlink:title=" ">
<path fill="none" stroke="#63b8ff" d="M600.74,-81.58C611.23,-80.01 621.73,-78.44 631.67,-76.95"/>
<polygon fill="#63b8ff" stroke="#63b8ff" points="600.25,-78.11 590.88,-83.05 601.29,-85.03 600.25,-78.11"/>
</a>
</g>
</g>
<!-- Node3 -->
<g id="Node000003" class="node">
<title>Node3</title>
<g id="a_Node000003"><a xlink:href="class_harlinn_1_1_common_1_1_core_1_1_math_1_1_vector.html" target="_top" xlink:title=" ">
<polygon fill="white" stroke="#666666" points="569,-61.5 451,-61.5 451,-20.5 569,-20.5 569,-61.5"/>
<text text-anchor="start" x="459" y="-49.5" font-family="Helvetica,sans-Serif" font-size="10.00">Harlinn::Common::Core</text>
<text text-anchor="start" x="459" y="-38.5" font-family="Helvetica,sans-Serif" font-size="10.00">::Math::Vector&lt; value</text>
<text text-anchor="middle" x="510" y="-27.5" font-family="Helvetica,sans-Serif" font-size="10.00">_type, 3 &gt;</text>
</a>
</g>
</g>
<!-- Node3&#45;&gt;Node1 -->
<g id="edge2_Node000001_Node000003" class="edge">
<title>Node3&#45;&gt;Node1</title>
<g id="a_edge2_Node000001_Node000003"><a xlink:title=" ">
<path fill="none" stroke="#9a32cd" stroke-dasharray="5,2" d="M580.09,-51.33C597.08,-53.88 615.13,-56.58 631.64,-59.05"/>
<polygon fill="#9a32cd" stroke="#9a32cd" points="581.01,-47.93 570.6,-49.92 579.97,-54.86 581.01,-47.93"/>
</a>
</g>
<text text-anchor="middle" x="610.5" y="-59" font-family="Helvetica,sans-Serif" font-size="10.00" fill="grey"> v</text>
</g>
<!-- Node4 -->
<g id="Node000004" class="node">
<title>Node4</title>
<g id="a_Node000004"><a xlink:href="struct_harlinn_1_1_common_1_1_core_1_1_math_1_1_internal_1_1_vector_base.html" target="_top" xlink:title=" ">
<polygon fill="white" stroke="#666666" points="139,-51 0,-51 0,-21 139,-21 139,-51"/>
<text text-anchor="start" x="8" y="-39" font-family="Helvetica,sans-Serif" font-size="10.00">Harlinn::Common::Core</text>
<text text-anchor="middle" x="69.5" y="-28" font-family="Helvetica,sans-Serif" font-size="10.00">::Math::Internal::VectorBase</text>
</a>
</g>
</g>
<!-- Node4&#45;&gt;Node3 -->
<g id="edge3_Node000003_Node000004" class="edge">
<title>Node4&#45;&gt;Node3</title>
<g id="a_edge3_Node000003_Node000004"><a xlink:title=" ">
<path fill="none" stroke="#63b8ff" d="M150.77,-39.78C152.87,-39.85 154.95,-39.93 157,-40 270.72,-43.91 299.22,-45.78 413,-44 425.17,-43.81 438.21,-43.48 450.62,-43.12"/>
<polygon fill="#63b8ff" stroke="#63b8ff" points="151.07,-36.29 140.94,-39.39 150.8,-43.28 151.07,-36.29"/>
</a>
</g>
</g>
<!-- Node5 -->
<g id="Node000005" class="node">
<title>Node5</title>
<g id="a_Node000005"><a xlink:href="class_harlinn_1_1_common_1_1_core_1_1_math_1_1_vector.html" target="_top" xlink:title=" ">
<polygon fill="white" stroke="#666666" points="316,-30 176,-30 176,0 316,0 316,-30"/>
<text text-anchor="start" x="184" y="-18" font-family="Helvetica,sans-Serif" font-size="10.00">Harlinn::Common::Core</text>
<text text-anchor="middle" x="246" y="-7" font-family="Helvetica,sans-Serif" font-size="10.00">::Math::Vector&lt; ValueT, N &gt;</text>
</a>
</g>
</g>
<!-- Node4&#45;&gt;Node5 -->
<g id="edge5_Node000005_Node000004" class="edge">
<title>Node4&#45;&gt;Node5</title>
<g id="a_edge5_Node000005_Node000004"><a xlink:title=" ">
<path fill="none" stroke="#63b8ff" d="M150.74,-26.34C159.07,-25.34 167.48,-24.33 175.68,-23.34"/>
<polygon fill="#63b8ff" stroke="#63b8ff" points="150.48,-22.85 140.97,-27.52 151.32,-29.8 150.48,-22.85"/>
</a>
</g>
</g>
<!-- Node5&#45;&gt;Node3 -->
<g id="edge4_Node000003_Node000005" class="edge">
<title>Node5&#45;&gt;Node3</title>
<g id="a_edge4_Node000003_Node000005"><a xlink:title=" ">
<path fill="none" stroke="orange" stroke-dasharray="5,2" d="M327.45,-22.98C367.2,-26.93 414.28,-31.6 450.54,-35.2"/>
<polygon fill="orange" stroke="orange" points="327.98,-19.52 317.69,-22.01 327.29,-26.49 327.98,-19.52"/>
</a>
</g>
<text text-anchor="middle" x="373.5" y="-35" font-family="Helvetica,sans-Serif" font-size="10.00" fill="grey"> &lt; value_type, 3 &gt;</text>
</g>
</g>
</svg>
