<?xml version="1.0" encoding="UTF-8" standalone="no"?>
<!DOCTYPE svg PUBLIC "-//W3C//DTD SVG 1.1//EN"
 "http://www.w3.org/Graphics/SVG/1.1/DTD/svg11.dtd">
<!-- Generated by graphviz version 7.0.1 (20221109.1506)
 -->
<!-- Title: Harlinn::Windows::DeviceContextHandle Pages: 1 -->
<svg width="195pt" height="204pt"
 viewBox="0.00 0.00 194.50 204.00" xmlns="http://www.w3.org/2000/svg" xmlns:xlink="http://www.w3.org/1999/xlink">
<g id="graph0" class="graph" transform="scale(1 1) rotate(0) translate(4 200)">
<title>Harlinn::Windows::DeviceContextHandle</title>
<!-- Node1 -->
<g id="Node000001" class="node">
<title>Node1</title>
<g id="a_Node000001"><a xlink:title=" ">
<polygon fill="#999999" stroke="#666666" points="142,-30 15,-30 15,0 142,0 142,-30"/>
<text text-anchor="start" x="23" y="-18" font-family="Helvetica,sans-Serif" font-size="10.00">Harlinn::Windows::Device</text>
<text text-anchor="middle" x="78.5" y="-7" font-family="Helvetica,sans-Serif" font-size="10.00">ContextHandle</text>
</a>
</g>
</g>
<!-- Node2 -->
<g id="Node000002" class="node">
<title>Node2</title>
<g id="a_Node000002"><a xlink:href="class_harlinn_1_1_common_1_1_core_1_1_handle.html" target="_top" xlink:title=" ">
<polygon fill="white" stroke="#666666" points="157,-108 0,-108 0,-67 157,-67 157,-108"/>
<text text-anchor="start" x="8" y="-96" font-family="Helvetica,sans-Serif" font-size="10.00">Harlinn::Common::Core</text>
<text text-anchor="start" x="8" y="-85" font-family="Helvetica,sans-Serif" font-size="10.00">::Handle&lt; DeviceContextHandle,</text>
<text text-anchor="middle" x="78.5" y="-74" font-family="Helvetica,sans-Serif" font-size="10.00"> HDC &gt;</text>
</a>
</g>
</g>
<!-- Node2&#45;&gt;Node1 -->
<g id="edge1_Node000001_Node000002" class="edge">
<title>Node2&#45;&gt;Node1</title>
<g id="a_edge1_Node000001_Node000002"><a xlink:title=" ">
<path fill="none" stroke="#63b8ff" d="M78.5,-55.39C78.5,-46.68 78.5,-37.62 78.5,-30.39"/>
<polygon fill="#63b8ff" stroke="#63b8ff" points="75,-55.35 78.5,-65.35 82,-55.35 75,-55.35"/>
</a>
</g>
</g>
<!-- Node3 -->
<g id="Node000003" class="node">
<title>Node3</title>
<g id="a_Node000003"><a xlink:href="class_harlinn_1_1_common_1_1_core_1_1_handle.html" target="_top" xlink:title=" ">
<polygon fill="white" stroke="#666666" points="153,-196 4,-196 4,-166 153,-166 153,-196"/>
<text text-anchor="start" x="12" y="-184" font-family="Helvetica,sans-Serif" font-size="10.00">Harlinn::Common::Core</text>
<text text-anchor="middle" x="78.5" y="-173" font-family="Helvetica,sans-Serif" font-size="10.00">::Handle&lt; DerivedT, HandleT &gt;</text>
</a>
</g>
</g>
<!-- Node3&#45;&gt;Node2 -->
<g id="edge2_Node000002_Node000003" class="edge">
<title>Node3&#45;&gt;Node2</title>
<g id="a_edge2_Node000002_Node000003"><a xlink:title=" ">
<path fill="none" stroke="orange" stroke-dasharray="5,2" d="M78.5,-154.46C78.5,-139.92 78.5,-121.97 78.5,-108.47"/>
<polygon fill="orange" stroke="orange" points="75,-154.19 78.5,-164.19 82,-154.19 75,-154.19"/>
</a>
</g>
<text text-anchor="start" x="78.5" y="-140" font-family="Helvetica,sans-Serif" font-size="10.00" fill="grey"> &lt; DeviceContextHandle,</text>
<text text-anchor="middle" x="132.5" y="-129" font-family="Helvetica,sans-Serif" font-size="10.00" fill="grey"> HDC &gt;</text>
</g>
</g>
</svg>
