<?xml version="1.0" encoding="UTF-8" standalone="no"?>
<!DOCTYPE svg PUBLIC "-//W3C//DTD SVG 1.1//EN"
 "http://www.w3.org/Graphics/SVG/1.1/DTD/svg11.dtd">
<!-- Generated by graphviz version 7.0.1 (20221109.1506)
 -->
<!-- Title: Harlinn::Windows::Imaging::BitmapSource Pages: 1 -->
<svg width="630pt" height="326pt"
 viewBox="0.00 0.00 630.00 326.00" xmlns="http://www.w3.org/2000/svg" xmlns:xlink="http://www.w3.org/1999/xlink">
<g id="graph0" class="graph" transform="scale(1 1) rotate(0) translate(4 322)">
<title>Harlinn::Windows::Imaging::BitmapSource</title>
<!-- Node1 -->
<g id="Node000001" class="node">
<title>Node1</title>
<g id="a_Node000001"><a xlink:title=" ">
<polygon fill="#999999" stroke="#666666" points="454,-174 322,-174 322,-144 454,-144 454,-174"/>
<text text-anchor="start" x="330" y="-162" font-family="Helvetica,sans-Serif" font-size="10.00">Harlinn::Windows::Imaging</text>
<text text-anchor="middle" x="388" y="-151" font-family="Helvetica,sans-Serif" font-size="10.00">::BitmapSource</text>
</a>
</g>
</g>
<!-- Node4 -->
<g id="Node000004" class="node">
<title>Node4</title>
<g id="a_Node000004"><a xlink:href="class_harlinn_1_1_windows_1_1_imaging_1_1_bitmap.xhtml" target="_top" xlink:title=" ">
<polygon fill="white" stroke="#666666" points="622,-318 490,-318 490,-288 622,-288 622,-318"/>
<text text-anchor="start" x="498" y="-306" font-family="Helvetica,sans-Serif" font-size="10.00">Harlinn::Windows::Imaging</text>
<text text-anchor="middle" x="556" y="-295" font-family="Helvetica,sans-Serif" font-size="10.00">::Bitmap</text>
</a>
</g>
</g>
<!-- Node1&#45;&gt;Node4 -->
<g id="edge3_Node000001_Node000004" class="edge">
<title>Node1&#45;&gt;Node4</title>
<g id="a_edge3_Node000001_Node000004"><a xlink:title=" ">
<path fill="none" stroke="#63b8ff" d="M404.3,-183.95C421.93,-210.82 453.25,-253.18 490,-279 494.63,-282.25 499.74,-285.12 505.02,-287.63"/>
<polygon fill="#63b8ff" stroke="#63b8ff" points="407.39,-182.28 399.05,-175.75 401.49,-186.06 407.39,-182.28"/>
</a>
</g>
</g>
<!-- Node5 -->
<g id="Node000005" class="node">
<title>Node5</title>
<g id="a_Node000005"><a xlink:href="class_harlinn_1_1_windows_1_1_imaging_1_1_bitmap_clipper.xhtml" target="_top" xlink:title=" ">
<polygon fill="white" stroke="#666666" points="622,-270 490,-270 490,-240 622,-240 622,-270"/>
<text text-anchor="start" x="498" y="-258" font-family="Helvetica,sans-Serif" font-size="10.00">Harlinn::Windows::Imaging</text>
<text text-anchor="middle" x="556" y="-247" font-family="Helvetica,sans-Serif" font-size="10.00">::BitmapClipper</text>
</a>
</g>
</g>
<!-- Node1&#45;&gt;Node5 -->
<g id="edge4_Node000001_Node000005" class="edge">
<title>Node1&#45;&gt;Node5</title>
<g id="a_edge4_Node000001_Node000005"><a xlink:title=" ">
<path fill="none" stroke="#63b8ff" d="M416.33,-181.53C435.95,-196.92 463.5,-216.98 490,-231 495.85,-234.09 502.18,-236.97 508.53,-239.57"/>
<polygon fill="#63b8ff" stroke="#63b8ff" points="418.57,-178.83 408.56,-175.34 414.2,-184.31 418.57,-178.83"/>
</a>
</g>
</g>
<!-- Node6 -->
<g id="Node000006" class="node">
<title>Node6</title>
<g id="a_Node000006"><a xlink:href="class_harlinn_1_1_windows_1_1_imaging_1_1_bitmap_flip_rotator.xhtml" target="_top" xlink:title=" ">
<polygon fill="white" stroke="#666666" points="622,-222 490,-222 490,-192 622,-192 622,-222"/>
<text text-anchor="start" x="498" y="-210" font-family="Helvetica,sans-Serif" font-size="10.00">Harlinn::Windows::Imaging</text>
<text text-anchor="middle" x="556" y="-199" font-family="Helvetica,sans-Serif" font-size="10.00">::BitmapFlipRotator</text>
</a>
</g>
</g>
<!-- Node1&#45;&gt;Node6 -->
<g id="edge5_Node000001_Node000006" class="edge">
<title>Node1&#45;&gt;Node6</title>
<g id="a_edge5_Node000001_Node000006"><a xlink:title=" ">
<path fill="none" stroke="#63b8ff" d="M453.32,-177.6C469.31,-182.22 486.27,-187.13 501.66,-191.58"/>
<polygon fill="#63b8ff" stroke="#63b8ff" points="454.47,-174.29 443.89,-174.87 452.53,-181.01 454.47,-174.29"/>
</a>
</g>
</g>
<!-- Node7 -->
<g id="Node000007" class="node">
<title>Node7</title>
<g id="a_Node000007"><a xlink:href="class_harlinn_1_1_windows_1_1_imaging_1_1_bitmap_frame_decode.xhtml" target="_top" xlink:title=" ">
<polygon fill="white" stroke="#666666" points="622,-174 490,-174 490,-144 622,-144 622,-174"/>
<text text-anchor="start" x="498" y="-162" font-family="Helvetica,sans-Serif" font-size="10.00">Harlinn::Windows::Imaging</text>
<text text-anchor="middle" x="556" y="-151" font-family="Helvetica,sans-Serif" font-size="10.00">::BitmapFrameDecode</text>
</a>
</g>
</g>
<!-- Node1&#45;&gt;Node7 -->
<g id="edge6_Node000001_Node000007" class="edge">
<title>Node1&#45;&gt;Node7</title>
<g id="a_edge6_Node000001_Node000007"><a xlink:title=" ">
<path fill="none" stroke="#63b8ff" d="M465.42,-159C473.47,-159 481.6,-159 489.51,-159"/>
<polygon fill="#63b8ff" stroke="#63b8ff" points="465.64,-155.5 455.64,-159 465.64,-162.5 465.64,-155.5"/>
</a>
</g>
</g>
<!-- Node8 -->
<g id="Node000008" class="node">
<title>Node8</title>
<g id="a_Node000008"><a xlink:href="class_harlinn_1_1_windows_1_1_imaging_1_1_bitmap_scaler.xhtml" target="_top" xlink:title=" ">
<polygon fill="white" stroke="#666666" points="622,-126 490,-126 490,-96 622,-96 622,-126"/>
<text text-anchor="start" x="498" y="-114" font-family="Helvetica,sans-Serif" font-size="10.00">Harlinn::Windows::Imaging</text>
<text text-anchor="middle" x="556" y="-103" font-family="Helvetica,sans-Serif" font-size="10.00">::BitmapScaler</text>
</a>
</g>
</g>
<!-- Node1&#45;&gt;Node8 -->
<g id="edge7_Node000001_Node000008" class="edge">
<title>Node1&#45;&gt;Node8</title>
<g id="a_edge7_Node000001_Node000008"><a xlink:title=" ">
<path fill="none" stroke="#63b8ff" d="M453.32,-140.4C469.31,-135.78 486.27,-130.87 501.66,-126.42"/>
<polygon fill="#63b8ff" stroke="#63b8ff" points="452.53,-136.99 443.89,-143.13 454.47,-143.71 452.53,-136.99"/>
</a>
</g>
</g>
<!-- Node9 -->
<g id="Node000009" class="node">
<title>Node9</title>
<g id="a_Node000009"><a xlink:href="class_harlinn_1_1_windows_1_1_imaging_1_1_color_transform.xhtml" target="_top" xlink:title=" ">
<polygon fill="white" stroke="#666666" points="622,-78 490,-78 490,-48 622,-48 622,-78"/>
<text text-anchor="start" x="498" y="-66" font-family="Helvetica,sans-Serif" font-size="10.00">Harlinn::Windows::Imaging</text>
<text text-anchor="middle" x="556" y="-55" font-family="Helvetica,sans-Serif" font-size="10.00">::ColorTransform</text>
</a>
</g>
</g>
<!-- Node1&#45;&gt;Node9 -->
<g id="edge8_Node000001_Node000009" class="edge">
<title>Node1&#45;&gt;Node9</title>
<g id="a_edge8_Node000001_Node000009"><a xlink:title=" ">
<path fill="none" stroke="#63b8ff" d="M416.33,-136.47C435.95,-121.08 463.5,-101.02 490,-87 495.85,-83.91 502.18,-81.03 508.53,-78.43"/>
<polygon fill="#63b8ff" stroke="#63b8ff" points="414.2,-133.69 408.56,-142.66 418.57,-139.17 414.2,-133.69"/>
</a>
</g>
</g>
<!-- Node10 -->
<g id="Node000010" class="node">
<title>Node10</title>
<g id="a_Node000010"><a xlink:href="class_harlinn_1_1_windows_1_1_imaging_1_1_format_converter.xhtml" target="_top" xlink:title=" ">
<polygon fill="white" stroke="#666666" points="622,-30 490,-30 490,0 622,0 622,-30"/>
<text text-anchor="start" x="498" y="-18" font-family="Helvetica,sans-Serif" font-size="10.00">Harlinn::Windows::Imaging</text>
<text text-anchor="middle" x="556" y="-7" font-family="Helvetica,sans-Serif" font-size="10.00">::FormatConverter</text>
</a>
</g>
</g>
<!-- Node1&#45;&gt;Node10 -->
<g id="edge9_Node000001_Node000010" class="edge">
<title>Node1&#45;&gt;Node10</title>
<g id="a_edge9_Node000001_Node000010"><a xlink:title=" ">
<path fill="none" stroke="#63b8ff" d="M404.3,-134.05C421.93,-107.18 453.25,-64.82 490,-39 494.63,-35.75 499.74,-32.88 505.02,-30.37"/>
<polygon fill="#63b8ff" stroke="#63b8ff" points="401.49,-131.94 399.05,-142.25 407.39,-135.72 401.49,-131.94"/>
</a>
</g>
</g>
<!-- Node2 -->
<g id="Node000002" class="node">
<title>Node2</title>
<g id="a_Node000002"><a xlink:href="class_harlinn_1_1_windows_1_1_imaging_1_1_imaging_object.xhtml" target="_top" xlink:title=" ">
<polygon fill="white" stroke="#666666" points="286,-174 154,-174 154,-144 286,-144 286,-174"/>
<text text-anchor="start" x="162" y="-162" font-family="Helvetica,sans-Serif" font-size="10.00">Harlinn::Windows::Imaging</text>
<text text-anchor="middle" x="220" y="-151" font-family="Helvetica,sans-Serif" font-size="10.00">::ImagingObject</text>
</a>
</g>
</g>
<!-- Node2&#45;&gt;Node1 -->
<g id="edge1_Node000001_Node000002" class="edge">
<title>Node2&#45;&gt;Node1</title>
<g id="a_edge1_Node000001_Node000002"><a xlink:title=" ">
<path fill="none" stroke="#63b8ff" d="M297.42,-159C305.47,-159 313.6,-159 321.51,-159"/>
<polygon fill="#63b8ff" stroke="#63b8ff" points="297.64,-155.5 287.64,-159 297.64,-162.5 297.64,-155.5"/>
</a>
</g>
</g>
<!-- Node3 -->
<g id="Node000003" class="node">
<title>Node3</title>
<g id="a_Node000003"><a xlink:href="class_harlinn_1_1_common_1_1_core_1_1_unknown.xhtml" target="_top" xlink:title=" ">
<polygon fill="white" stroke="#666666" points="118,-174 0,-174 0,-144 118,-144 118,-174"/>
<text text-anchor="start" x="8" y="-162" font-family="Helvetica,sans-Serif" font-size="10.00">Harlinn::Common::Core</text>
<text text-anchor="middle" x="59" y="-151" font-family="Helvetica,sans-Serif" font-size="10.00">::Unknown</text>
</a>
</g>
</g>
<!-- Node3&#45;&gt;Node2 -->
<g id="edge2_Node000002_Node000003" class="edge">
<title>Node3&#45;&gt;Node2</title>
<g id="a_edge2_Node000002_Node000003"><a xlink:title=" ">
<path fill="none" stroke="#63b8ff" d="M129.81,-159C137.76,-159 145.84,-159 153.72,-159"/>
<polygon fill="#63b8ff" stroke="#63b8ff" points="129.82,-155.5 119.82,-159 129.82,-162.5 129.82,-155.5"/>
</a>
</g>
</g>
</g>
</svg>
