<?xml version="1.0" encoding="UTF-8" standalone="no"?>
<!DOCTYPE svg PUBLIC "-//W3C//DTD SVG 1.1//EN"
 "http://www.w3.org/Graphics/SVG/1.1/DTD/svg11.dtd">
<!-- Generated by graphviz version 7.0.1 (20221109.1506)
 -->
<!-- Title: Harlinn::Common::Core::Com::EnumConnectionsImpl&lt; DerivedT, ObjectBaseT, ConnectionInterfaceT, InterfaceT &gt; Pages: 1 -->
<svg width="393pt" height="86pt"
 viewBox="0.00 0.00 393.00 86.00" xmlns="http://www.w3.org/2000/svg" xmlns:xlink="http://www.w3.org/1999/xlink">
<g id="graph0" class="graph" transform="scale(1 1) rotate(0) translate(4 82)">
<title>Harlinn::Common::Core::Com::EnumConnectionsImpl&lt; DerivedT, ObjectBaseT, ConnectionInterfaceT, InterfaceT &gt;</title>
<!-- Node1 -->
<g id="Node000001" class="node">
<title>Node1</title>
<g id="a_Node000001"><a xlink:title=" ">
<polygon fill="#999999" stroke="#666666" points="385,-70.5 218,-70.5 218,-18.5 385,-18.5 385,-70.5"/>
<text text-anchor="start" x="226" y="-58.5" font-family="Helvetica,sans-Serif" font-size="10.00">Harlinn::Common::Core</text>
<text text-anchor="start" x="226" y="-47.5" font-family="Helvetica,sans-Serif" font-size="10.00">::Com::EnumConnectionsImpl</text>
<text text-anchor="start" x="226" y="-36.5" font-family="Helvetica,sans-Serif" font-size="10.00">&lt; DerivedT, ObjectBaseT,</text>
<text text-anchor="middle" x="301.5" y="-25.5" font-family="Helvetica,sans-Serif" font-size="10.00"> ConnectionInterfaceT, InterfaceT &gt;</text>
</a>
</g>
</g>
<!-- Node2 -->
<g id="Node000002" class="node">
<title>Node2</title>
<g id="a_Node000002"><a xlink:title=" ">
<polygon fill="white" stroke="#666666" points="127.5,-78 54.5,-78 54.5,-59 127.5,-59 127.5,-78"/>
<text text-anchor="middle" x="91" y="-66" font-family="Helvetica,sans-Serif" font-size="10.00">ObjectBaseT</text>
</a>
</g>
</g>
<!-- Node2&#45;&gt;Node1 -->
<g id="edge1_Node000001_Node000002" class="edge">
<title>Node2&#45;&gt;Node1</title>
<g id="a_edge1_Node000001_Node000002"><a xlink:title=" ">
<path fill="none" stroke="#63b8ff" d="M139.08,-63.08C162.25,-60.41 190.88,-57.12 217.56,-54.05"/>
<polygon fill="#63b8ff" stroke="#63b8ff" points="138.88,-59.58 129.35,-64.2 139.68,-66.53 138.88,-59.58"/>
</a>
</g>
</g>
<!-- Node3 -->
<g id="Node000003" class="node">
<title>Node3</title>
<g id="a_Node000003"><a xlink:title=" ">
<polygon fill="white" stroke="#666666" points="182,-41 0,-41 0,0 182,0 182,-41"/>
<text text-anchor="start" x="8" y="-29" font-family="Helvetica,sans-Serif" font-size="10.00">ObjectBase&lt; EnumConnections</text>
<text text-anchor="start" x="8" y="-18" font-family="Helvetica,sans-Serif" font-size="10.00">Impl&lt; ConnectionPointT,</text>
<text text-anchor="middle" x="91" y="-7" font-family="Helvetica,sans-Serif" font-size="10.00"> ObjectBaseT &gt;, IEnumConnections &gt;</text>
</a>
</g>
</g>
<!-- Node3&#45;&gt;Node1 -->
<g id="edge2_Node000001_Node000003" class="edge">
<title>Node3&#45;&gt;Node1</title>
<g id="a_edge2_Node000001_Node000003"><a xlink:title=" ">
<path fill="none" stroke="#63b8ff" d="M193.61,-32.2C201.68,-33.12 209.76,-34.06 217.68,-34.97"/>
<polygon fill="#63b8ff" stroke="#63b8ff" points="194.08,-28.73 183.74,-31.06 193.28,-35.68 194.08,-28.73"/>
</a>
</g>
</g>
</g>
</svg>
