<?xml version="1.0" encoding="UTF-8" standalone="no"?>
<!DOCTYPE svg PUBLIC "-//W3C//DTD SVG 1.1//EN"
 "http://www.w3.org/Graphics/SVG/1.1/DTD/svg11.dtd">
<!-- Generated by graphviz version 7.0.1 (20221109.1506)
 -->
<!-- Title: Harlinn::Math::Point&lt; float, 2 &gt; Pages: 1 -->
<svg width="636pt" height="98pt"
 viewBox="0.00 0.00 636.00 97.50" xmlns="http://www.w3.org/2000/svg" xmlns:xlink="http://www.w3.org/1999/xlink">
<g id="graph0" class="graph" transform="scale(1 1) rotate(0) translate(4 93.5)">
<title>Harlinn::Math::Point&lt; float, 2 &gt;</title>
<!-- Node1 -->
<g id="Node000001" class="node">
<title>Node1</title>
<g id="a_Node000001"><a xlink:title=" ">
<polygon fill="#999999" stroke="#666666" points="628,-42 525,-42 525,-12 628,-12 628,-42"/>
<text text-anchor="start" x="533" y="-30" font-family="Helvetica,sans-Serif" font-size="10.00">Harlinn::Math::Point</text>
<text text-anchor="middle" x="576.5" y="-19" font-family="Helvetica,sans-Serif" font-size="10.00">&lt; float, 2 &gt;</text>
</a>
</g>
</g>
<!-- Node2 -->
<g id="Node000002" class="node">
<title>Node2</title>
<g id="a_Node000002"><a xlink:href="class_harlinn_1_1_math_1_1_tuple2.html" target="_top" xlink:title=" ">
<polygon fill="white" stroke="#666666" points="486.5,-89.5 377.5,-89.5 377.5,-48.5 486.5,-48.5 486.5,-89.5"/>
<text text-anchor="start" x="385.5" y="-77.5" font-family="Helvetica,sans-Serif" font-size="10.00">Harlinn::Math::Tuple2</text>
<text text-anchor="start" x="385.5" y="-66.5" font-family="Helvetica,sans-Serif" font-size="10.00">&lt; Point&lt; float, 2 &gt;,</text>
<text text-anchor="middle" x="432" y="-55.5" font-family="Helvetica,sans-Serif" font-size="10.00"> float &gt;</text>
</a>
</g>
</g>
<!-- Node2&#45;&gt;Node1 -->
<g id="edge1_Node000001_Node000002" class="edge">
<title>Node2&#45;&gt;Node1</title>
<g id="a_edge1_Node000001_Node000002"><a xlink:title=" ">
<path fill="none" stroke="#63b8ff" d="M497.82,-49.89C506.89,-47.22 516.09,-44.51 524.84,-41.93"/>
<polygon fill="#63b8ff" stroke="#63b8ff" points="496.93,-46.51 488.32,-52.69 498.91,-53.22 496.93,-46.51"/>
</a>
</g>
</g>
<!-- Node3 -->
<g id="Node000003" class="node">
<title>Node3</title>
<g id="a_Node000003"><a xlink:href="struct_harlinn_1_1_math_1_1_internal_1_1_tuple_base.html" target="_top" xlink:title=" ">
<polygon fill="white" stroke="#666666" points="112,-82 0,-82 0,-52 112,-52 112,-82"/>
<text text-anchor="start" x="8" y="-70" font-family="Helvetica,sans-Serif" font-size="10.00">Harlinn::Math::Internal</text>
<text text-anchor="middle" x="56" y="-59" font-family="Helvetica,sans-Serif" font-size="10.00">::TupleBase</text>
</a>
</g>
</g>
<!-- Node3&#45;&gt;Node2 -->
<g id="edge2_Node000002_Node000003" class="edge">
<title>Node3&#45;&gt;Node2</title>
<g id="a_edge2_Node000002_Node000003"><a xlink:title=" ">
<path fill="none" stroke="#63b8ff" d="M123.88,-71.37C184.89,-74.73 277.53,-78.3 358,-75 364.23,-74.74 370.74,-74.37 377.21,-73.92"/>
<polygon fill="#63b8ff" stroke="#63b8ff" points="124.19,-67.88 114,-70.8 123.79,-74.87 124.19,-67.88"/>
</a>
</g>
</g>
<!-- Node4 -->
<g id="Node000004" class="node">
<title>Node4</title>
<g id="a_Node000004"><a xlink:href="class_harlinn_1_1_math_1_1_tuple2.html" target="_top" xlink:title="A tuple holding two numbers.">
<polygon fill="white" stroke="#666666" points="258,-61 149,-61 149,-31 258,-31 258,-61"/>
<text text-anchor="start" x="157" y="-49" font-family="Helvetica,sans-Serif" font-size="10.00">Harlinn::Math::Tuple2</text>
<text text-anchor="middle" x="203.5" y="-38" font-family="Helvetica,sans-Serif" font-size="10.00">&lt; DerivedT, T &gt;</text>
</a>
</g>
</g>
<!-- Node3&#45;&gt;Node4 -->
<g id="edge4_Node000004_Node000003" class="edge">
<title>Node3&#45;&gt;Node4</title>
<g id="a_edge4_Node000004_Node000003"><a xlink:title=" ">
<path fill="none" stroke="#63b8ff" d="M123.72,-57.37C132.08,-56.16 140.54,-54.94 148.67,-53.77"/>
<polygon fill="#63b8ff" stroke="#63b8ff" points="123.32,-53.89 113.92,-58.78 124.32,-60.82 123.32,-53.89"/>
</a>
</g>
</g>
<!-- Node4&#45;&gt;Node2 -->
<g id="edge3_Node000002_Node000004" class="edge">
<title>Node4&#45;&gt;Node2</title>
<g id="a_edge3_Node000002_Node000004"><a xlink:title=" ">
<path fill="none" stroke="orange" stroke-dasharray="5,2" d="M269.74,-46.53C297.1,-47.38 329.19,-49.21 358,-53 364.3,-53.83 370.87,-54.93 377.36,-56.16"/>
<polygon fill="orange" stroke="orange" points="269.93,-43.03 259.84,-46.26 269.75,-50.03 269.93,-43.03"/>
</a>
</g>
<text text-anchor="start" x="276" y="-67" font-family="Helvetica,sans-Serif" font-size="10.00" fill="grey"> &lt; Point&lt; float, 2 &gt;</text>
<text text-anchor="middle" x="317" y="-56" font-family="Helvetica,sans-Serif" font-size="10.00" fill="grey">, float &gt;</text>
</g>
<!-- Node5 -->
<g id="Node000005" class="node">
<title>Node5</title>
<g id="a_Node000005"><a xlink:href="struct_harlinn_1_1_math_1_1_internal_1_1_point_base.html" target="_top" xlink:title=" ">
<polygon fill="white" stroke="#666666" points="488,-30 376,-30 376,0 488,0 488,-30"/>
<text text-anchor="start" x="384" y="-18" font-family="Helvetica,sans-Serif" font-size="10.00">Harlinn::Math::Internal</text>
<text text-anchor="middle" x="432" y="-7" font-family="Helvetica,sans-Serif" font-size="10.00">::PointBase</text>
</a>
</g>
</g>
<!-- Node5&#45;&gt;Node1 -->
<g id="edge5_Node000001_Node000005" class="edge">
<title>Node5&#45;&gt;Node1</title>
<g id="a_edge5_Node000001_Node000005"><a xlink:title=" ">
<path fill="none" stroke="#63b8ff" d="M499.55,-20.6C508.02,-21.32 516.58,-22.04 524.75,-22.73"/>
<polygon fill="#63b8ff" stroke="#63b8ff" points="499.86,-17.12 489.6,-19.77 499.27,-24.09 499.86,-17.12"/>
</a>
</g>
</g>
</g>
</svg>
