<?xml version="1.0" encoding="UTF-8" standalone="no"?>
<!DOCTYPE svg PUBLIC "-//W3C//DTD SVG 1.1//EN"
 "http://www.w3.org/Graphics/SVG/1.1/DTD/svg11.dtd">
<!-- Generated by graphviz version 7.0.1 (20221109.1506)
 -->
<!-- Title: Harlinn::Math::Normal&lt; float, 3 &gt; Pages: 1 -->
<svg width="652pt" height="122pt"
 viewBox="0.00 0.00 652.00 122.00" xmlns="http://www.w3.org/2000/svg" xmlns:xlink="http://www.w3.org/1999/xlink">
<g id="graph0" class="graph" transform="scale(1 1) rotate(0) translate(4 118)">
<title>Harlinn::Math::Normal&lt; float, 3 &gt;</title>
<!-- Node1 -->
<g id="Node000001" class="node">
<title>Node1</title>
<g id="a_Node000001"><a xlink:title=" ">
<polygon fill="#999999" stroke="#666666" points="644,-42 533,-42 533,-12 644,-12 644,-42"/>
<text text-anchor="start" x="541" y="-30" font-family="Helvetica,sans-Serif" font-size="10.00">Harlinn::Math::Normal</text>
<text text-anchor="middle" x="588.5" y="-19" font-family="Helvetica,sans-Serif" font-size="10.00">&lt; float, 3 &gt;</text>
</a>
</g>
</g>
<!-- Node2 -->
<g id="Node000002" class="node">
<title>Node2</title>
<g id="a_Node000002"><a xlink:href="class_harlinn_1_1_math_1_1_tuple3.html" target="_top" xlink:title=" ">
<polygon fill="white" stroke="#666666" points="494.5,-89.5 385.5,-89.5 385.5,-48.5 494.5,-48.5 494.5,-89.5"/>
<text text-anchor="start" x="393.5" y="-77.5" font-family="Helvetica,sans-Serif" font-size="10.00">Harlinn::Math::Tuple3</text>
<text text-anchor="start" x="393.5" y="-66.5" font-family="Helvetica,sans-Serif" font-size="10.00">&lt; Normal&lt; float, 3 &gt;,</text>
<text text-anchor="middle" x="440" y="-55.5" font-family="Helvetica,sans-Serif" font-size="10.00"> float &gt;</text>
</a>
</g>
</g>
<!-- Node2&#45;&gt;Node1 -->
<g id="edge1_Node000001_Node000002" class="edge">
<title>Node2&#45;&gt;Node1</title>
<g id="a_edge1_Node000001_Node000002"><a xlink:title=" ">
<path fill="none" stroke="#63b8ff" d="M505.63,-50.47C515.04,-47.77 524.63,-45.02 533.79,-42.4"/>
<polygon fill="#63b8ff" stroke="#63b8ff" points="504.82,-47.06 496.17,-53.18 506.75,-53.79 504.82,-47.06"/>
</a>
</g>
</g>
<!-- Node3 -->
<g id="Node000003" class="node">
<title>Node3</title>
<g id="a_Node000003"><a xlink:href="struct_harlinn_1_1_math_1_1_internal_1_1_tuple_base.html" target="_top" xlink:title=" ">
<polygon fill="white" stroke="#666666" points="112,-114 0,-114 0,-84 112,-84 112,-114"/>
<text text-anchor="start" x="8" y="-102" font-family="Helvetica,sans-Serif" font-size="10.00">Harlinn::Math::Internal</text>
<text text-anchor="middle" x="56" y="-91" font-family="Helvetica,sans-Serif" font-size="10.00">::TupleBase</text>
</a>
</g>
</g>
<!-- Node3&#45;&gt;Node2 -->
<g id="edge2_Node000002_Node000003" class="edge">
<title>Node3&#45;&gt;Node2</title>
<g id="a_edge2_Node000002_Node000003"><a xlink:title=" ">
<path fill="none" stroke="#63b8ff" d="M123.86,-104.41C186.85,-108.03 283.6,-109.79 366,-95 372.75,-93.79 379.71,-92.03 386.53,-89.98"/>
<polygon fill="#63b8ff" stroke="#63b8ff" points="124.2,-100.92 114.01,-103.81 123.78,-107.91 124.2,-100.92"/>
</a>
</g>
</g>
<!-- Node5 -->
<g id="Node000005" class="node">
<title>Node5</title>
<g id="a_Node000005"><a xlink:href="class_harlinn_1_1_math_1_1_tuple3.html" target="_top" xlink:title=" ">
<polygon fill="white" stroke="#666666" points="266,-84 157,-84 157,-54 266,-54 266,-84"/>
<text text-anchor="start" x="165" y="-72" font-family="Helvetica,sans-Serif" font-size="10.00">Harlinn::Math::Tuple3</text>
<text text-anchor="middle" x="211.5" y="-61" font-family="Helvetica,sans-Serif" font-size="10.00">&lt; DerivedT, T &gt;</text>
</a>
</g>
</g>
<!-- Node3&#45;&gt;Node5 -->
<g id="edge5_Node000005_Node000003" class="edge">
<title>Node3&#45;&gt;Node5</title>
<g id="a_edge5_Node000005_Node000003"><a xlink:title=" ">
<path fill="none" stroke="#63b8ff" d="M123.41,-86.02C134.53,-83.85 145.95,-81.62 156.71,-79.51"/>
<polygon fill="#63b8ff" stroke="#63b8ff" points="123.05,-82.53 113.9,-87.88 124.39,-89.4 123.05,-82.53"/>
</a>
</g>
</g>
<!-- Node4 -->
<g id="Node000004" class="node">
<title>Node4</title>
<g id="a_Node000004"><a xlink:title=" ">
<polygon fill="white" stroke="#666666" points="70.5,-30.5 41.5,-30.5 41.5,-11.5 70.5,-11.5 70.5,-30.5"/>
<text text-anchor="middle" x="56" y="-18.5" font-family="Helvetica,sans-Serif" font-size="10.00">T</text>
</a>
</g>
</g>
<!-- Node4&#45;&gt;Node2 -->
<g id="edge3_Node000002_Node000004" class="edge">
<title>Node4&#45;&gt;Node2</title>
<g id="a_edge3_Node000002_Node000004"><a xlink:title=" ">
<path fill="none" stroke="#9a32cd" stroke-dasharray="5,2" d="M82.2,-18.1C102.4,-15.93 131.48,-13.15 157,-12 205.4,-9.83 218.17,-4.32 266,-12 308.93,-18.89 355.65,-34.82 389.71,-48.1"/>
<polygon fill="#9a32cd" stroke="#9a32cd" points="81.94,-14.61 72.39,-19.19 82.71,-21.57 81.94,-14.61"/>
</a>
</g>
<text text-anchor="middle" x="211.5" y="-37" font-family="Helvetica,sans-Serif" font-size="10.00" fill="grey"> x</text>
<text text-anchor="middle" x="211.5" y="-26" font-family="Helvetica,sans-Serif" font-size="10.00" fill="grey">y</text>
<text text-anchor="middle" x="211.5" y="-15" font-family="Helvetica,sans-Serif" font-size="10.00" fill="grey">z</text>
</g>
<!-- Node4&#45;&gt;Node5 -->
<g id="edge6_Node000005_Node000004" class="edge">
<title>Node4&#45;&gt;Node5</title>
<g id="a_edge6_Node000005_Node000004"><a xlink:title=" ">
<path fill="none" stroke="#9a32cd" stroke-dasharray="5,2" d="M81.72,-28.43C98.01,-33.35 119.8,-39.99 139,-46 146.71,-48.42 154.89,-51.01 162.84,-53.56"/>
<polygon fill="#9a32cd" stroke="#9a32cd" points="82.98,-25.15 72.4,-25.62 80.96,-31.86 82.98,-25.15"/>
</a>
</g>
<text text-anchor="middle" x="134.5" y="-71" font-family="Helvetica,sans-Serif" font-size="10.00" fill="grey"> x</text>
<text text-anchor="middle" x="134.5" y="-60" font-family="Helvetica,sans-Serif" font-size="10.00" fill="grey">y</text>
<text text-anchor="middle" x="134.5" y="-49" font-family="Helvetica,sans-Serif" font-size="10.00" fill="grey">z</text>
</g>
<!-- Node5&#45;&gt;Node2 -->
<g id="edge4_Node000002_Node000005" class="edge">
<title>Node5&#45;&gt;Node2</title>
<g id="a_edge4_Node000002_Node000005"><a xlink:title=" ">
<path fill="none" stroke="orange" stroke-dasharray="5,2" d="M277.71,-69C311.73,-69 352.85,-69 385.06,-69"/>
<polygon fill="orange" stroke="orange" points="277.98,-65.5 267.98,-69 277.98,-72.5 277.98,-65.5"/>
</a>
</g>
<text text-anchor="start" x="284" y="-83" font-family="Helvetica,sans-Serif" font-size="10.00" fill="grey"> &lt; Normal&lt; float, 3</text>
<text text-anchor="middle" x="325" y="-72" font-family="Helvetica,sans-Serif" font-size="10.00" fill="grey"> &gt;, float &gt;</text>
</g>
<!-- Node6 -->
<g id="Node000006" class="node">
<title>Node6</title>
<g id="a_Node000006"><a xlink:href="struct_harlinn_1_1_math_1_1_internal_1_1_normal_base.html" target="_top" xlink:title=" ">
<polygon fill="white" stroke="#666666" points="496,-30 384,-30 384,0 496,0 496,-30"/>
<text text-anchor="start" x="392" y="-18" font-family="Helvetica,sans-Serif" font-size="10.00">Harlinn::Math::Internal</text>
<text text-anchor="middle" x="440" y="-7" font-family="Helvetica,sans-Serif" font-size="10.00">::NormalBase</text>
</a>
</g>
</g>
<!-- Node6&#45;&gt;Node1 -->
<g id="edge7_Node000001_Node000006" class="edge">
<title>Node6&#45;&gt;Node1</title>
<g id="a_edge7_Node000001_Node000006"><a xlink:title=" ">
<path fill="none" stroke="#63b8ff" d="M507.63,-20.46C515.96,-21.14 524.4,-21.83 532.52,-22.5"/>
<polygon fill="#63b8ff" stroke="#63b8ff" points="508.15,-16.99 497.89,-19.66 507.57,-23.97 508.15,-16.99"/>
</a>
</g>
</g>
</g>
</svg>
