<?xml version="1.0" encoding="UTF-8" standalone="no"?>
<!DOCTYPE svg PUBLIC "-//W3C//DTD SVG 1.1//EN"
 "http://www.w3.org/Graphics/SVG/1.1/DTD/svg11.dtd">
<!-- Generated by graphviz version 7.0.1 (20221109.1506)
 -->
<!-- Title: Harlinn::Common::Core::IO::DirectoryAccessMask Pages: 1 -->
<svg width="787pt" height="108pt"
 viewBox="0.00 0.00 787.00 108.00" xmlns="http://www.w3.org/2000/svg" xmlns:xlink="http://www.w3.org/1999/xlink">
<g id="graph0" class="graph" transform="scale(1 1) rotate(0) translate(4 104)">
<title>Harlinn::Common::Core::IO::DirectoryAccessMask</title>
<!-- Node1 -->
<g id="Node000001" class="node">
<title>Node1</title>
<g id="a_Node000001"><a xlink:title="The access mask for a directory.">
<polygon fill="#999999" stroke="#666666" points="779,-43 645,-43 645,-13 779,-13 779,-43"/>
<text text-anchor="start" x="653" y="-31" font-family="Helvetica,sans-Serif" font-size="10.00">Harlinn::Common::Core</text>
<text text-anchor="middle" x="712" y="-20" font-family="Helvetica,sans-Serif" font-size="10.00">::IO::DirectoryAccessMask</text>
</a>
</g>
</g>
<!-- Node2 -->
<g id="Node000002" class="node">
<title>Node2</title>
<g id="a_Node000002"><a xlink:href="class_harlinn_1_1_common_1_1_core_1_1_security_1_1_access_mask_t.xhtml" target="_top" xlink:title=" ">
<polygon fill="white" stroke="#666666" points="565.5,-100 437.5,-100 437.5,-48 565.5,-48 565.5,-100"/>
<text text-anchor="start" x="445.5" y="-88" font-family="Helvetica,sans-Serif" font-size="10.00">Harlinn::Common::Core</text>
<text text-anchor="start" x="445.5" y="-77" font-family="Helvetica,sans-Serif" font-size="10.00">::Security::AccessMaskT</text>
<text text-anchor="start" x="445.5" y="-66" font-family="Helvetica,sans-Serif" font-size="10.00">&lt; DirectoryAccessMask,</text>
<text text-anchor="middle" x="501.5" y="-55" font-family="Helvetica,sans-Serif" font-size="10.00"> DirectoryAccessRights &gt;</text>
</a>
</g>
</g>
<!-- Node2&#45;&gt;Node1 -->
<g id="edge1_Node000001_Node000002" class="edge">
<title>Node2&#45;&gt;Node1</title>
<g id="a_edge1_Node000001_Node000002"><a xlink:title=" ">
<path fill="none" stroke="#63b8ff" d="M576.92,-57.58C599.03,-52.7 623.09,-47.4 644.64,-42.64"/>
<polygon fill="#63b8ff" stroke="#63b8ff" points="576.4,-54.11 567.38,-59.69 577.9,-60.95 576.4,-54.11"/>
</a>
</g>
</g>
<!-- Node3 -->
<g id="Node000003" class="node">
<title>Node3</title>
<g id="a_Node000003"><a xlink:href="class_harlinn_1_1_common_1_1_core_1_1_security_1_1_access_mask.xhtml" target="_top" xlink:title="An ACCESS_MASK wrapper class. The ACCESS_MASK data type is a DWORD value that defines standard,...">
<polygon fill="white" stroke="#666666" points="122,-85 0,-85 0,-55 122,-55 122,-85"/>
<text text-anchor="start" x="8" y="-73" font-family="Helvetica,sans-Serif" font-size="10.00">Harlinn::Common::Core</text>
<text text-anchor="middle" x="61" y="-62" font-family="Helvetica,sans-Serif" font-size="10.00">::Security::AccessMask</text>
</a>
</g>
</g>
<!-- Node3&#45;&gt;Node2 -->
<g id="edge2_Node000002_Node000003" class="edge">
<title>Node3&#45;&gt;Node2</title>
<g id="a_edge2_Node000002_Node000003"><a xlink:title=" ">
<path fill="none" stroke="#63b8ff" d="M133.49,-74.64C142.08,-75.14 150.74,-75.6 159,-76 273.11,-81.5 301.85,-85.72 416,-81 422.91,-80.71 430.14,-80.3 437.32,-79.81"/>
<polygon fill="#63b8ff" stroke="#63b8ff" points="133.97,-71.17 123.78,-74.07 133.56,-78.15 133.97,-71.17"/>
</a>
</g>
</g>
<!-- Node4 -->
<g id="Node000004" class="node">
<title>Node4</title>
<g id="a_Node000004"><a xlink:href="class_harlinn_1_1_common_1_1_core_1_1_security_1_1_access_mask_t.xhtml" target="_top" xlink:title=" ">
<polygon fill="white" stroke="#666666" points="286,-66.5 159,-66.5 159,-25.5 286,-25.5 286,-66.5"/>
<text text-anchor="start" x="167" y="-54.5" font-family="Helvetica,sans-Serif" font-size="10.00">Harlinn::Common::Core</text>
<text text-anchor="start" x="167" y="-43.5" font-family="Helvetica,sans-Serif" font-size="10.00">::Security::AccessMaskT</text>
<text text-anchor="middle" x="222.5" y="-32.5" font-family="Helvetica,sans-Serif" font-size="10.00">&lt; DerivedT, RightsT &gt;</text>
</a>
</g>
</g>
<!-- Node3&#45;&gt;Node4 -->
<g id="edge4_Node000004_Node000003" class="edge">
<title>Node3&#45;&gt;Node4</title>
<g id="a_edge4_Node000004_Node000003"><a xlink:title=" ">
<path fill="none" stroke="#63b8ff" d="M133.61,-59.22C141.99,-57.96 150.48,-56.69 158.72,-55.45"/>
<polygon fill="#63b8ff" stroke="#63b8ff" points="133.16,-55.75 123.8,-60.7 134.21,-62.67 133.16,-55.75"/>
</a>
</g>
</g>
<!-- Node4&#45;&gt;Node2 -->
<g id="edge3_Node000002_Node000004" class="edge">
<title>Node4&#45;&gt;Node2</title>
<g id="a_edge3_Node000002_Node000004"><a xlink:title=" ">
<path fill="none" stroke="orange" stroke-dasharray="5,2" d="M297.44,-49.12C333.32,-51.11 377,-54.24 416,-59 422.95,-59.85 430.2,-60.89 437.4,-62.03"/>
<polygon fill="orange" stroke="orange" points="297.77,-45.63 287.59,-48.59 297.39,-52.62 297.77,-45.63"/>
</a>
</g>
<text text-anchor="start" x="304" y="-73" font-family="Helvetica,sans-Serif" font-size="10.00" fill="grey"> &lt; DirectoryAccessMask,</text>
<text text-anchor="middle" x="360" y="-62" font-family="Helvetica,sans-Serif" font-size="10.00" fill="grey"> DirectoryAccessRights &gt;</text>
</g>
<!-- Node5 -->
<g id="Node000005" class="node">
<title>Node5</title>
<g id="a_Node000005"><a xlink:href="class_harlinn_1_1_common_1_1_core_1_1_security_1_1_generic_mapping.xhtml" target="_top" xlink:title=" ">
<polygon fill="white" stroke="#666666" points="569,-30 434,-30 434,0 569,0 569,-30"/>
<text text-anchor="start" x="442" y="-18" font-family="Helvetica,sans-Serif" font-size="10.00">Harlinn::Common::Core</text>
<text text-anchor="middle" x="501.5" y="-7" font-family="Helvetica,sans-Serif" font-size="10.00">::Security::GenericMapping</text>
</a>
</g>
</g>
<!-- Node5&#45;&gt;Node1 -->
<g id="edge5_Node000001_Node000005" class="edge">
<title>Node5&#45;&gt;Node1</title>
<g id="a_edge5_Node000001_Node000005"><a xlink:title=" ">
<path fill="none" stroke="#9a32cd" stroke-dasharray="5,2" d="M580.81,-19.88C601.79,-21.19 624.27,-22.59 644.55,-23.86"/>
<polygon fill="#9a32cd" stroke="#9a32cd" points="581.04,-16.39 570.84,-19.26 580.6,-23.38 581.04,-16.39"/>
</a>
</g>
<text text-anchor="middle" x="607" y="-26" font-family="Helvetica,sans-Serif" font-size="10.00" fill="grey"> Mapping</text>
</g>
</g>
</svg>
