<?xml version="1.0" encoding="UTF-8" standalone="no"?>
<!DOCTYPE svg PUBLIC "-//W3C//DTD SVG 1.1//EN"
 "http://www.w3.org/Graphics/SVG/1.1/DTD/svg11.dtd">
<!-- Generated by graphviz version 7.0.1 (20221109.1506)
 -->
<!-- Title: Harlinn::Common::Core::Doxygen::CompoundRefType Pages: 1 -->
<svg width="1033pt" height="177pt"
 viewBox="0.00 0.00 1033.00 177.00" xmlns="http://www.w3.org/2000/svg" xmlns:xlink="http://www.w3.org/1999/xlink">
<g id="graph0" class="graph" transform="scale(1 1) rotate(0) translate(4 173)">
<title>Harlinn::Common::Core::Doxygen::CompoundRefType</title>
<!-- Node1 -->
<g id="Node000001" class="node">
<title>Node1</title>
<g id="a_Node000001"><a xlink:title=" ">
<polygon fill="#999999" stroke="#666666" points="1025,-108 876,-108 876,-78 1025,-78 1025,-108"/>
<text text-anchor="start" x="884" y="-96" font-family="Helvetica,sans-Serif" font-size="10.00">Harlinn::Common::Core</text>
<text text-anchor="middle" x="950.5" y="-85" font-family="Helvetica,sans-Serif" font-size="10.00">::Doxygen::CompoundRefType</text>
</a>
</g>
</g>
<!-- Node2 -->
<g id="Node000002" class="node">
<title>Node2</title>
<g id="a_Node000002"><a xlink:href="class_harlinn_1_1_common_1_1_core_1_1_doxygen_1_1_internal_1_1_doc_base.xhtml" target="_top" xlink:title=" ">
<polygon fill="white" stroke="#666666" points="799,-149 651,-149 651,-97 799,-97 799,-149"/>
<text text-anchor="start" x="659" y="-137" font-family="Helvetica,sans-Serif" font-size="10.00">Harlinn::Common::Core</text>
<text text-anchor="start" x="659" y="-126" font-family="Helvetica,sans-Serif" font-size="10.00">::Doxygen::Internal::</text>
<text text-anchor="start" x="659" y="-115" font-family="Helvetica,sans-Serif" font-size="10.00">DocBase&lt; Doxygen::DoxType</text>
<text text-anchor="middle" x="725" y="-104" font-family="Helvetica,sans-Serif" font-size="10.00">::CompoundRefType &gt;</text>
</a>
</g>
</g>
<!-- Node2&#45;&gt;Node1 -->
<g id="edge1_Node000001_Node000002" class="edge">
<title>Node2&#45;&gt;Node1</title>
<g id="a_edge1_Node000001_Node000002"><a xlink:title=" ">
<path fill="none" stroke="#63b8ff" d="M810.83,-111.61C832.14,-108.75 854.85,-105.7 875.58,-102.92"/>
<polygon fill="#63b8ff" stroke="#63b8ff" points="810.44,-108.13 800.99,-112.93 811.37,-115.07 810.44,-108.13"/>
</a>
</g>
</g>
<!-- Node3 -->
<g id="Node000003" class="node">
<title>Node3</title>
<g id="a_Node000003"><a xlink:href="class_harlinn_1_1_common_1_1_core_1_1_doxygen_1_1_doc_base_type.xhtml" target="_top" xlink:title=" ">
<polygon fill="white" stroke="#666666" points="336,-169 208,-169 208,-139 336,-139 336,-169"/>
<text text-anchor="start" x="216" y="-157" font-family="Helvetica,sans-Serif" font-size="10.00">Harlinn::Common::Core</text>
<text text-anchor="middle" x="272" y="-146" font-family="Helvetica,sans-Serif" font-size="10.00">::Doxygen::DocBaseType</text>
</a>
</g>
</g>
<!-- Node3&#45;&gt;Node2 -->
<g id="edge2_Node000002_Node000003" class="edge">
<title>Node3&#45;&gt;Node2</title>
<g id="a_edge2_Node000002_Node000003"><a xlink:title=" ">
<path fill="none" stroke="#63b8ff" d="M347.81,-157.71C420.91,-160.12 535.15,-160.65 633,-147 638.83,-146.19 644.81,-145.13 650.8,-143.91"/>
<polygon fill="#63b8ff" stroke="#63b8ff" points="348.07,-154.21 337.95,-157.36 347.82,-161.21 348.07,-154.21"/>
</a>
</g>
</g>
<!-- Node5 -->
<g id="Node000005" class="node">
<title>Node5</title>
<g id="a_Node000005"><a xlink:href="class_harlinn_1_1_common_1_1_core_1_1_doxygen_1_1_internal_1_1_doc_base.xhtml" target="_top" xlink:title=" ">
<polygon fill="white" stroke="#666666" points="518,-138.5 400,-138.5 400,-97.5 518,-97.5 518,-138.5"/>
<text text-anchor="start" x="408" y="-126.5" font-family="Helvetica,sans-Serif" font-size="10.00">Harlinn::Common::Core</text>
<text text-anchor="start" x="408" y="-115.5" font-family="Helvetica,sans-Serif" font-size="10.00">::Doxygen::Internal::</text>
<text text-anchor="middle" x="459" y="-104.5" font-family="Helvetica,sans-Serif" font-size="10.00">DocBase&lt; doxType &gt;</text>
</a>
</g>
</g>
<!-- Node3&#45;&gt;Node5 -->
<g id="edge5_Node000005_Node000003" class="edge">
<title>Node3&#45;&gt;Node5</title>
<g id="a_edge5_Node000005_Node000003"><a xlink:title=" ">
<path fill="none" stroke="#63b8ff" d="M347.64,-139.48C364.96,-136.11 383.15,-132.57 399.65,-129.35"/>
<polygon fill="#63b8ff" stroke="#63b8ff" points="347.04,-136.03 337.89,-141.37 348.38,-142.9 347.04,-136.03"/>
</a>
</g>
</g>
<!-- Node4 -->
<g id="Node000004" class="node">
<title>Node4</title>
<g id="a_Node000004"><a xlink:title=" ">
<polygon fill="white" stroke="#666666" points="140,-169 0,-169 0,-139 140,-139 140,-169"/>
<text text-anchor="start" x="8" y="-157" font-family="Helvetica,sans-Serif" font-size="10.00">std::enable_shared</text>
<text text-anchor="middle" x="70" y="-146" font-family="Helvetica,sans-Serif" font-size="10.00">_from_this&lt; DocBaseType &gt;</text>
</a>
</g>
</g>
<!-- Node4&#45;&gt;Node3 -->
<g id="edge3_Node000003_Node000004" class="edge">
<title>Node4&#45;&gt;Node3</title>
<g id="a_edge3_Node000003_Node000004"><a xlink:title=" ">
<path fill="none" stroke="#8b1a1a" d="M151.84,-154C170.47,-154 190.01,-154 207.76,-154"/>
<polygon fill="#8b1a1a" stroke="#8b1a1a" points="151.9,-150.5 141.9,-154 151.9,-157.5 151.9,-150.5"/>
</a>
</g>
</g>
<!-- Node5&#45;&gt;Node2 -->
<g id="edge4_Node000002_Node000005" class="edge">
<title>Node5&#45;&gt;Node2</title>
<g id="a_edge4_Node000002_Node000005"><a xlink:title=" ">
<path fill="none" stroke="orange" stroke-dasharray="5,2" d="M529.55,-119.32C566.89,-120.02 612.89,-120.9 650.77,-121.61"/>
<polygon fill="orange" stroke="orange" points="529.84,-115.82 519.78,-119.13 529.71,-122.82 529.84,-115.82"/>
</a>
</g>
<text text-anchor="start" x="536" y="-135" font-family="Helvetica,sans-Serif" font-size="10.00" fill="grey"> &lt; Doxygen::DoxType</text>
<text text-anchor="middle" x="584.5" y="-124" font-family="Helvetica,sans-Serif" font-size="10.00" fill="grey">::CompoundRefType &gt;</text>
</g>
<!-- Node6 -->
<g id="Node000006" class="node">
<title>Node6</title>
<g id="a_Node000006"><a xlink:href="class_harlinn_1_1_common_1_1_core_1_1_basic_string.xhtml" target="_top" xlink:title=" ">
<polygon fill="white" stroke="#666666" points="787.5,-79 662.5,-79 662.5,-49 787.5,-49 787.5,-79"/>
<text text-anchor="start" x="670.5" y="-67" font-family="Helvetica,sans-Serif" font-size="10.00">Harlinn::Common::Core</text>
<text text-anchor="middle" x="725" y="-56" font-family="Helvetica,sans-Serif" font-size="10.00">::BasicString&lt; wchar_t &gt;</text>
</a>
</g>
</g>
<!-- Node6&#45;&gt;Node1 -->
<g id="edge6_Node000001_Node000006" class="edge">
<title>Node6&#45;&gt;Node1</title>
<g id="a_edge6_Node000001_Node000006"><a xlink:title=" ">
<path fill="none" stroke="#9a32cd" stroke-dasharray="5,2" d="M799.18,-73.39C818.32,-75.86 838.94,-78.52 858,-81 863.72,-81.74 869.64,-82.51 875.59,-83.29"/>
<polygon fill="#9a32cd" stroke="#9a32cd" points="799.65,-69.93 789.29,-72.12 798.76,-76.87 799.65,-69.93"/>
</a>
</g>
<text text-anchor="middle" x="837.5" y="-95" font-family="Helvetica,sans-Serif" font-size="10.00" fill="grey"> content_</text>
<text text-anchor="middle" x="837.5" y="-84" font-family="Helvetica,sans-Serif" font-size="10.00" fill="grey">refId_</text>
</g>
<!-- Node7 -->
<g id="Node000007" class="node">
<title>Node7</title>
<g id="a_Node000007"><a xlink:href="struct_harlinn_1_1_common_1_1_core_1_1_internal_1_1_data.xhtml" target="_top" xlink:title=" ">
<polygon fill="white" stroke="#666666" points="331,-68 213,-68 213,-38 331,-38 331,-68"/>
<text text-anchor="start" x="221" y="-56" font-family="Helvetica,sans-Serif" font-size="10.00">Harlinn::Common::Core</text>
<text text-anchor="middle" x="272" y="-45" font-family="Helvetica,sans-Serif" font-size="10.00">::Internal::Data&lt; T &gt;</text>
</a>
</g>
</g>
<!-- Node7&#45;&gt;Node6 -->
<g id="edge7_Node000006_Node000007" class="edge">
<title>Node7&#45;&gt;Node6</title>
<g id="a_edge7_Node000006_Node000007"><a xlink:title=" ">
<path fill="none" stroke="#9a32cd" stroke-dasharray="5,2" d="M342.9,-54.7C430.41,-56.84 578.91,-60.46 662.36,-62.5"/>
<polygon fill="#9a32cd" stroke="#9a32cd" points="343.09,-51.21 333.01,-54.46 342.92,-58.21 343.09,-51.21"/>
</a>
</g>
<text text-anchor="middle" x="459" y="-62" font-family="Helvetica,sans-Serif" font-size="10.00" fill="grey"> data_</text>
</g>
<!-- Node9 -->
<g id="Node000009" class="node">
<title>Node9</title>
<g id="a_Node000009"><a xlink:href="class_harlinn_1_1_common_1_1_core_1_1_basic_string.xhtml" target="_top" xlink:title="This is a reference counted string class.">
<polygon fill="white" stroke="#666666" points="518,-30 400,-30 400,0 518,0 518,-30"/>
<text text-anchor="start" x="408" y="-18" font-family="Helvetica,sans-Serif" font-size="10.00">Harlinn::Common::Core</text>
<text text-anchor="middle" x="459" y="-7" font-family="Helvetica,sans-Serif" font-size="10.00">::BasicString&lt; T &gt;</text>
</a>
</g>
</g>
<!-- Node7&#45;&gt;Node9 -->
<g id="edge10_Node000009_Node000007" class="edge">
<title>Node7&#45;&gt;Node9</title>
<g id="a_edge10_Node000009_Node000007"><a xlink:title=" ">
<path fill="none" stroke="#9a32cd" stroke-dasharray="5,2" d="M342.5,-38.72C361.34,-34.85 381.54,-30.71 399.69,-26.98"/>
<polygon fill="#9a32cd" stroke="#9a32cd" points="341.86,-35.28 332.76,-40.72 343.26,-42.14 341.86,-35.28"/>
</a>
</g>
<text text-anchor="middle" x="368" y="-40" font-family="Helvetica,sans-Serif" font-size="10.00" fill="grey"> data_</text>
</g>
<!-- Node8 -->
<g id="Node000008" class="node">
<title>Node8</title>
<g id="a_Node000008"><a xlink:title=" ">
<polygon fill="white" stroke="#666666" points="84.5,-62.5 55.5,-62.5 55.5,-43.5 84.5,-43.5 84.5,-62.5"/>
<text text-anchor="middle" x="70" y="-50.5" font-family="Helvetica,sans-Serif" font-size="10.00">T</text>
</a>
</g>
</g>
<!-- Node8&#45;&gt;Node7 -->
<g id="edge8_Node000007_Node000008" class="edge">
<title>Node8&#45;&gt;Node7</title>
<g id="a_edge8_Node000007_Node000008"><a xlink:title=" ">
<path fill="none" stroke="#9a32cd" stroke-dasharray="5,2" d="M95.87,-53C124.88,-53 173.79,-53 212.57,-53"/>
<polygon fill="#9a32cd" stroke="#9a32cd" points="96.26,-49.5 86.26,-53 96.26,-56.5 96.26,-49.5"/>
</a>
</g>
<text text-anchor="middle" x="174" y="-56" font-family="Helvetica,sans-Serif" font-size="10.00" fill="grey"> buffer_</text>
</g>
<!-- Node9&#45;&gt;Node6 -->
<g id="edge9_Node000006_Node000009" class="edge">
<title>Node9&#45;&gt;Node6</title>
<g id="a_edge9_Node000006_Node000009"><a xlink:title=" ">
<path fill="none" stroke="orange" stroke-dasharray="5,2" d="M529.67,-23.88C561.33,-28.32 599.19,-34.2 633,-41 643.86,-43.18 655.38,-45.83 666.43,-48.54"/>
<polygon fill="orange" stroke="orange" points="530.19,-20.42 519.81,-22.52 529.24,-27.35 530.19,-20.42"/>
</a>
</g>
<text text-anchor="middle" x="584.5" y="-44" font-family="Helvetica,sans-Serif" font-size="10.00" fill="grey"> &lt; wchar_t &gt;</text>
</g>
</g>
</svg>
