<?xml version="1.0" encoding="UTF-8" standalone="no"?>
<!DOCTYPE svg PUBLIC "-//W3C//DTD SVG 1.1//EN"
 "http://www.w3.org/Graphics/SVG/1.1/DTD/svg11.dtd">
<!-- Generated by graphviz version 7.0.1 (20221109.1506)
 -->
<!-- Title: Harlinn::Windows::Graphics::D3D12::Device7 Pages: 1 -->
<svg width="145pt" height="698pt"
 viewBox="0.00 0.00 145.00 698.00" xmlns="http://www.w3.org/2000/svg" xmlns:xlink="http://www.w3.org/1999/xlink">
<g id="graph0" class="graph" transform="scale(1 1) rotate(0) translate(4 694)">
<title>Harlinn::Windows::Graphics::D3D12::Device7</title>
<!-- Node1 -->
<g id="Node000001" class="node">
<title>Node1</title>
<g id="a_Node000001"><a xlink:title="Represents a virtual adapter.">
<polygon fill="#999999" stroke="#666666" points="137,-96 0,-96 0,-66 137,-66 137,-96"/>
<text text-anchor="start" x="8" y="-84" font-family="Helvetica,sans-Serif" font-size="10.00">Harlinn::Windows::Graphics</text>
<text text-anchor="middle" x="68.5" y="-73" font-family="Helvetica,sans-Serif" font-size="10.00">::D3D12::Device7</text>
</a>
</g>
</g>
<!-- Node11 -->
<g id="Node000011" class="node">
<title>Node11</title>
<g id="a_Node000011"><a xlink:href="class_harlinn_1_1_windows_1_1_graphics_1_1_d3_d12_1_1_device8.html" target="_top" xlink:title="Represents a virtual adapter.">
<polygon fill="white" stroke="#666666" points="137,-30 0,-30 0,0 137,0 137,-30"/>
<text text-anchor="start" x="8" y="-18" font-family="Helvetica,sans-Serif" font-size="10.00">Harlinn::Windows::Graphics</text>
<text text-anchor="middle" x="68.5" y="-7" font-family="Helvetica,sans-Serif" font-size="10.00">::D3D12::Device8</text>
</a>
</g>
</g>
<!-- Node1&#45;&gt;Node11 -->
<g id="edge10_Node000001_Node000011" class="edge">
<title>Node1&#45;&gt;Node11</title>
<g id="a_edge10_Node000001_Node000011"><a xlink:title=" ">
<path fill="none" stroke="#63b8ff" d="M68.5,-54.39C68.5,-46.13 68.5,-37.28 68.5,-30.16"/>
<polygon fill="#63b8ff" stroke="#63b8ff" points="65,-54.28 68.5,-64.28 72,-54.28 65,-54.28"/>
</a>
</g>
</g>
<!-- Node2 -->
<g id="Node000002" class="node">
<title>Node2</title>
<g id="a_Node000002"><a xlink:href="class_harlinn_1_1_windows_1_1_graphics_1_1_d3_d12_1_1_device6.html" target="_top" xlink:title="Represents a virtual adapter.">
<polygon fill="white" stroke="#666666" points="137,-162 0,-162 0,-132 137,-132 137,-162"/>
<text text-anchor="start" x="8" y="-150" font-family="Helvetica,sans-Serif" font-size="10.00">Harlinn::Windows::Graphics</text>
<text text-anchor="middle" x="68.5" y="-139" font-family="Helvetica,sans-Serif" font-size="10.00">::D3D12::Device6</text>
</a>
</g>
</g>
<!-- Node2&#45;&gt;Node1 -->
<g id="edge1_Node000001_Node000002" class="edge">
<title>Node2&#45;&gt;Node1</title>
<g id="a_edge1_Node000001_Node000002"><a xlink:title=" ">
<path fill="none" stroke="#63b8ff" d="M68.5,-120.39C68.5,-112.13 68.5,-103.28 68.5,-96.16"/>
<polygon fill="#63b8ff" stroke="#63b8ff" points="65,-120.28 68.5,-130.28 72,-120.28 65,-120.28"/>
</a>
</g>
</g>
<!-- Node3 -->
<g id="Node000003" class="node">
<title>Node3</title>
<g id="a_Node000003"><a xlink:href="class_harlinn_1_1_windows_1_1_graphics_1_1_d3_d12_1_1_device5.html" target="_top" xlink:title="Represents a virtual adapter.">
<polygon fill="white" stroke="#666666" points="137,-228 0,-228 0,-198 137,-198 137,-228"/>
<text text-anchor="start" x="8" y="-216" font-family="Helvetica,sans-Serif" font-size="10.00">Harlinn::Windows::Graphics</text>
<text text-anchor="middle" x="68.5" y="-205" font-family="Helvetica,sans-Serif" font-size="10.00">::D3D12::Device5</text>
</a>
</g>
</g>
<!-- Node3&#45;&gt;Node2 -->
<g id="edge2_Node000002_Node000003" class="edge">
<title>Node3&#45;&gt;Node2</title>
<g id="a_edge2_Node000002_Node000003"><a xlink:title=" ">
<path fill="none" stroke="#63b8ff" d="M68.5,-186.39C68.5,-178.13 68.5,-169.28 68.5,-162.16"/>
<polygon fill="#63b8ff" stroke="#63b8ff" points="65,-186.28 68.5,-196.28 72,-186.28 65,-186.28"/>
</a>
</g>
</g>
<!-- Node4 -->
<g id="Node000004" class="node">
<title>Node4</title>
<g id="a_Node000004"><a xlink:href="class_harlinn_1_1_windows_1_1_graphics_1_1_d3_d12_1_1_device4.html" target="_top" xlink:title="Represents a virtual adapter.">
<polygon fill="white" stroke="#666666" points="137,-294 0,-294 0,-264 137,-264 137,-294"/>
<text text-anchor="start" x="8" y="-282" font-family="Helvetica,sans-Serif" font-size="10.00">Harlinn::Windows::Graphics</text>
<text text-anchor="middle" x="68.5" y="-271" font-family="Helvetica,sans-Serif" font-size="10.00">::D3D12::Device4</text>
</a>
</g>
</g>
<!-- Node4&#45;&gt;Node3 -->
<g id="edge3_Node000003_Node000004" class="edge">
<title>Node4&#45;&gt;Node3</title>
<g id="a_edge3_Node000003_Node000004"><a xlink:title=" ">
<path fill="none" stroke="#63b8ff" d="M68.5,-252.39C68.5,-244.13 68.5,-235.28 68.5,-228.16"/>
<polygon fill="#63b8ff" stroke="#63b8ff" points="65,-252.28 68.5,-262.28 72,-252.28 65,-252.28"/>
</a>
</g>
</g>
<!-- Node5 -->
<g id="Node000005" class="node">
<title>Node5</title>
<g id="a_Node000005"><a xlink:href="class_harlinn_1_1_windows_1_1_graphics_1_1_d3_d12_1_1_device3.html" target="_top" xlink:title="Represents a virtual adapter. This class extends the Device2 class to support the creation of special...">
<polygon fill="white" stroke="#666666" points="137,-360 0,-360 0,-330 137,-330 137,-360"/>
<text text-anchor="start" x="8" y="-348" font-family="Helvetica,sans-Serif" font-size="10.00">Harlinn::Windows::Graphics</text>
<text text-anchor="middle" x="68.5" y="-337" font-family="Helvetica,sans-Serif" font-size="10.00">::D3D12::Device3</text>
</a>
</g>
</g>
<!-- Node5&#45;&gt;Node4 -->
<g id="edge4_Node000004_Node000005" class="edge">
<title>Node5&#45;&gt;Node4</title>
<g id="a_edge4_Node000004_Node000005"><a xlink:title=" ">
<path fill="none" stroke="#63b8ff" d="M68.5,-318.39C68.5,-310.13 68.5,-301.28 68.5,-294.16"/>
<polygon fill="#63b8ff" stroke="#63b8ff" points="65,-318.28 68.5,-328.28 72,-318.28 65,-318.28"/>
</a>
</g>
</g>
<!-- Node6 -->
<g id="Node000006" class="node">
<title>Node6</title>
<g id="a_Node000006"><a xlink:href="class_harlinn_1_1_windows_1_1_graphics_1_1_d3_d12_1_1_device2.html" target="_top" xlink:title="Represents a virtual adapter. This class extends the Device1 class to create pipeline state objects f...">
<polygon fill="white" stroke="#666666" points="137,-426 0,-426 0,-396 137,-396 137,-426"/>
<text text-anchor="start" x="8" y="-414" font-family="Helvetica,sans-Serif" font-size="10.00">Harlinn::Windows::Graphics</text>
<text text-anchor="middle" x="68.5" y="-403" font-family="Helvetica,sans-Serif" font-size="10.00">::D3D12::Device2</text>
</a>
</g>
</g>
<!-- Node6&#45;&gt;Node5 -->
<g id="edge5_Node000005_Node000006" class="edge">
<title>Node6&#45;&gt;Node5</title>
<g id="a_edge5_Node000005_Node000006"><a xlink:title=" ">
<path fill="none" stroke="#63b8ff" d="M68.5,-384.39C68.5,-376.13 68.5,-367.28 68.5,-360.16"/>
<polygon fill="#63b8ff" stroke="#63b8ff" points="65,-384.28 68.5,-394.28 72,-384.28 65,-384.28"/>
</a>
</g>
</g>
<!-- Node7 -->
<g id="Node000007" class="node">
<title>Node7</title>
<g id="a_Node000007"><a xlink:href="class_harlinn_1_1_windows_1_1_graphics_1_1_d3_d12_1_1_device1.html" target="_top" xlink:title="Represents a virtual adapter, and expands on the range of methods provided by the Device class.">
<polygon fill="white" stroke="#666666" points="137,-492 0,-492 0,-462 137,-462 137,-492"/>
<text text-anchor="start" x="8" y="-480" font-family="Helvetica,sans-Serif" font-size="10.00">Harlinn::Windows::Graphics</text>
<text text-anchor="middle" x="68.5" y="-469" font-family="Helvetica,sans-Serif" font-size="10.00">::D3D12::Device1</text>
</a>
</g>
</g>
<!-- Node7&#45;&gt;Node6 -->
<g id="edge6_Node000006_Node000007" class="edge">
<title>Node7&#45;&gt;Node6</title>
<g id="a_edge6_Node000006_Node000007"><a xlink:title=" ">
<path fill="none" stroke="#63b8ff" d="M68.5,-450.39C68.5,-442.13 68.5,-433.28 68.5,-426.16"/>
<polygon fill="#63b8ff" stroke="#63b8ff" points="65,-450.28 68.5,-460.28 72,-450.28 65,-450.28"/>
</a>
</g>
</g>
<!-- Node8 -->
<g id="Node000008" class="node">
<title>Node8</title>
<g id="a_Node000008"><a xlink:href="class_harlinn_1_1_windows_1_1_graphics_1_1_d3_d12_1_1_device.html" target="_top" xlink:title="Represents a virtual adapter; it is used to create command allocators, command lists,...">
<polygon fill="white" stroke="#666666" points="137,-558 0,-558 0,-528 137,-528 137,-558"/>
<text text-anchor="start" x="8" y="-546" font-family="Helvetica,sans-Serif" font-size="10.00">Harlinn::Windows::Graphics</text>
<text text-anchor="middle" x="68.5" y="-535" font-family="Helvetica,sans-Serif" font-size="10.00">::D3D12::Device</text>
</a>
</g>
</g>
<!-- Node8&#45;&gt;Node7 -->
<g id="edge7_Node000007_Node000008" class="edge">
<title>Node8&#45;&gt;Node7</title>
<g id="a_edge7_Node000007_Node000008"><a xlink:title=" ">
<path fill="none" stroke="#63b8ff" d="M68.5,-516.39C68.5,-508.13 68.5,-499.28 68.5,-492.16"/>
<polygon fill="#63b8ff" stroke="#63b8ff" points="65,-516.28 68.5,-526.28 72,-516.28 65,-516.28"/>
</a>
</g>
</g>
<!-- Node9 -->
<g id="Node000009" class="node">
<title>Node9</title>
<g id="a_Node000009"><a xlink:href="class_harlinn_1_1_windows_1_1_graphics_1_1_d3_d12_1_1_object.html" target="_top" xlink:title="A base class from which Device and DeviceChild inherit from. It provides methods to associate private...">
<polygon fill="white" stroke="#666666" points="137,-624 0,-624 0,-594 137,-594 137,-624"/>
<text text-anchor="start" x="8" y="-612" font-family="Helvetica,sans-Serif" font-size="10.00">Harlinn::Windows::Graphics</text>
<text text-anchor="middle" x="68.5" y="-601" font-family="Helvetica,sans-Serif" font-size="10.00">::D3D12::Object</text>
</a>
</g>
</g>
<!-- Node9&#45;&gt;Node8 -->
<g id="edge8_Node000008_Node000009" class="edge">
<title>Node9&#45;&gt;Node8</title>
<g id="a_edge8_Node000008_Node000009"><a xlink:title=" ">
<path fill="none" stroke="#63b8ff" d="M68.5,-582.39C68.5,-574.13 68.5,-565.28 68.5,-558.16"/>
<polygon fill="#63b8ff" stroke="#63b8ff" points="65,-582.28 68.5,-592.28 72,-582.28 65,-582.28"/>
</a>
</g>
</g>
<!-- Node10 -->
<g id="Node000010" class="node">
<title>Node10</title>
<g id="a_Node000010"><a xlink:href="class_harlinn_1_1_common_1_1_core_1_1_unknown.html" target="_top" xlink:title="Base class for COM interface wrappers.">
<polygon fill="white" stroke="#666666" points="127.5,-690 9.5,-690 9.5,-660 127.5,-660 127.5,-690"/>
<text text-anchor="start" x="17.5" y="-678" font-family="Helvetica,sans-Serif" font-size="10.00">Harlinn::Common::Core</text>
<text text-anchor="middle" x="68.5" y="-667" font-family="Helvetica,sans-Serif" font-size="10.00">::Unknown</text>
</a>
</g>
</g>
<!-- Node10&#45;&gt;Node9 -->
<g id="edge9_Node000009_Node000010" class="edge">
<title>Node10&#45;&gt;Node9</title>
<g id="a_edge9_Node000009_Node000010"><a xlink:title=" ">
<path fill="none" stroke="#63b8ff" d="M68.5,-648.39C68.5,-640.13 68.5,-631.28 68.5,-624.16"/>
<polygon fill="#63b8ff" stroke="#63b8ff" points="65,-648.28 68.5,-658.28 72,-648.28 65,-648.28"/>
</a>
</g>
</g>
</g>
</svg>
