<?xml version="1.0" encoding="UTF-8" standalone="no"?>
<!DOCTYPE svg PUBLIC "-//W3C//DTD SVG 1.1//EN"
 "http://www.w3.org/Graphics/SVG/1.1/DTD/svg11.dtd">
<!-- Generated by graphviz version 7.0.1 (20221109.1506)
 -->
<!-- Title: Harlinn::Common::Core::Doxygen::Structure::TypeSystem Pages: 1 -->
<svg width="1903pt" height="543pt"
 viewBox="0.00 0.00 1903.00 542.99" xmlns="http://www.w3.org/2000/svg" xmlns:xlink="http://www.w3.org/1999/xlink">
<g id="graph0" class="graph" transform="scale(1 1) rotate(0) translate(4 538.99)">
<title>Harlinn::Common::Core::Doxygen::Structure::TypeSystem</title>
<!-- Node1 -->
<g id="Node000001" class="node">
<title>Node1</title>
<g id="a_Node000001"><a xlink:title=" ">
<polygon fill="#999999" stroke="#666666" points="1084,-421.49 966,-421.49 966,-380.49 1084,-380.49 1084,-421.49"/>
<text text-anchor="start" x="974" y="-409.49" font-family="Helvetica,sans-Serif" font-size="10.00">Harlinn::Common::Core</text>
<text text-anchor="start" x="974" y="-398.49" font-family="Helvetica,sans-Serif" font-size="10.00">::Doxygen::Structure</text>
<text text-anchor="middle" x="1025" y="-387.49" font-family="Helvetica,sans-Serif" font-size="10.00">::TypeSystem</text>
</a>
</g>
</g>
<!-- Node4 -->
<g id="Node000004" class="node">
<title>Node4</title>
<g id="a_Node000004"><a xlink:href="class_harlinn_1_1_common_1_1_core_1_1_doxygen_1_1_structure_1_1_member.html" target="_top" xlink:title=" ">
<polygon fill="white" stroke="#666666" points="1320,-300.49 1202,-300.49 1202,-259.49 1320,-259.49 1320,-300.49"/>
<text text-anchor="start" x="1210" y="-288.49" font-family="Helvetica,sans-Serif" font-size="10.00">Harlinn::Common::Core</text>
<text text-anchor="start" x="1210" y="-277.49" font-family="Helvetica,sans-Serif" font-size="10.00">::Doxygen::Structure</text>
<text text-anchor="middle" x="1261" y="-266.49" font-family="Helvetica,sans-Serif" font-size="10.00">::Member</text>
</a>
</g>
</g>
<!-- Node1&#45;&gt;Node4 -->
<g id="edge4_Node000004_Node000001" class="edge">
<title>Node1&#45;&gt;Node4</title>
<g id="a_edge4_Node000004_Node000001"><a xlink:title=" ">
<path fill="none" stroke="#9a32cd" stroke-dasharray="5,2" d="M1083.68,-374.78C1088.94,-371.96 1094.12,-369.01 1099,-365.99 1107.62,-360.66 1108.43,-357.41 1117,-351.99 1147.66,-332.61 1184.22,-314.28 1212.7,-300.96"/>
<polygon fill="#9a32cd" stroke="#9a32cd" points="1082.14,-371.63 1074.87,-379.33 1085.36,-377.85 1082.14,-371.63"/>
</a>
</g>
<text text-anchor="middle" x="1150.5" y="-354.99" font-family="Helvetica,sans-Serif" font-size="10.00" fill="grey"> typeSystem_</text>
</g>
<!-- Node2 -->
<g id="Node000002" class="node">
<title>Node2</title>
<g id="a_Node000002"><a xlink:title=" ">
<polygon fill="white" stroke="#666666" points="1895,-110.99 1768,-110.99 1768,-58.99 1895,-58.99 1895,-110.99"/>
<text text-anchor="start" x="1776" y="-98.99" font-family="Helvetica,sans-Serif" font-size="10.00">std::vector&lt; std::unique</text>
<text text-anchor="start" x="1776" y="-87.99" font-family="Helvetica,sans-Serif" font-size="10.00">_ptr&lt; Harlinn::Common::</text>
<text text-anchor="start" x="1776" y="-76.99" font-family="Helvetica,sans-Serif" font-size="10.00">Core::Doxygen::Structure</text>
<text text-anchor="middle" x="1831.5" y="-65.99" font-family="Helvetica,sans-Serif" font-size="10.00">::Member &gt; &gt;</text>
</a>
</g>
</g>
<!-- Node2&#45;&gt;Node1 -->
<g id="edge1_Node000001_Node000002" class="edge">
<title>Node2&#45;&gt;Node1</title>
<g id="a_edge1_Node000001_Node000002"><a xlink:title=" ">
<path fill="none" stroke="#9a32cd" stroke-dasharray="5,2" d="M1821.8,-122.18C1811.19,-159.07 1789.56,-214.38 1750,-244.99 1723.26,-265.68 1251.54,-357.71 1084.24,-389.86"/>
<polygon fill="#9a32cd" stroke="#9a32cd" points="1825.1,-123.4 1824.35,-112.83 1818.34,-121.56 1825.1,-123.4"/>
</a>
</g>
<text text-anchor="middle" x="1393.5" y="-341.99" font-family="Helvetica,sans-Serif" font-size="10.00" fill="grey"> all_</text>
</g>
<!-- Node3 -->
<g id="Node000003" class="node">
<title>Node3</title>
<g id="a_Node000003"><a xlink:title=" ">
<polygon fill="white" stroke="#666666" points="1622,-105.49 1490,-105.49 1490,-64.49 1622,-64.49 1622,-105.49"/>
<text text-anchor="start" x="1498" y="-93.49" font-family="Helvetica,sans-Serif" font-size="10.00">std::unique_ptr&lt; Harlinn</text>
<text text-anchor="start" x="1498" y="-82.49" font-family="Helvetica,sans-Serif" font-size="10.00">::Common::Core::Doxygen</text>
<text text-anchor="middle" x="1556" y="-71.49" font-family="Helvetica,sans-Serif" font-size="10.00">::Structure::Member &gt;</text>
</a>
</g>
</g>
<!-- Node3&#45;&gt;Node2 -->
<g id="edge2_Node000002_Node000003" class="edge">
<title>Node3&#45;&gt;Node2</title>
<g id="a_edge2_Node000002_Node000003"><a xlink:title=" ">
<path fill="none" stroke="#9a32cd" stroke-dasharray="5,2" d="M1633.54,-84.99C1675.87,-84.99 1727.81,-84.99 1767.72,-84.99"/>
<polygon fill="#9a32cd" stroke="#9a32cd" points="1633.68,-81.49 1623.68,-84.99 1633.68,-88.49 1633.68,-81.49"/>
</a>
</g>
<text text-anchor="middle" x="1706.5" y="-87.99" font-family="Helvetica,sans-Serif" font-size="10.00" fill="grey"> elements</text>
</g>
<!-- Node4&#45;&gt;Node3 -->
<g id="edge3_Node000003_Node000004" class="edge">
<title>Node4&#45;&gt;Node3</title>
<g id="a_edge3_Node000003_Node000004"><a xlink:title=" ">
<path fill="none" stroke="#9a32cd" stroke-dasharray="5,2" d="M1267.59,-248.37C1275.97,-210.93 1295.59,-149.66 1338,-117.99 1381.2,-85.72 1442.94,-79.04 1489.53,-79.52"/>
<polygon fill="#9a32cd" stroke="#9a32cd" points="1264.26,-247.18 1265.64,-257.69 1271.11,-248.61 1264.26,-247.18"/>
</a>
</g>
<text text-anchor="middle" x="1393.5" y="-120.99" font-family="Helvetica,sans-Serif" font-size="10.00" fill="grey"> ptr</text>
</g>
<!-- Node5 -->
<g id="Node000005" class="node">
<title>Node5</title>
<g id="a_Node000005"><a xlink:href="class_harlinn_1_1_common_1_1_core_1_1_doxygen_1_1_structure_1_1_container.html" target="_top" xlink:title=" ">
<polygon fill="white" stroke="#666666" points="1890.5,-325.49 1772.5,-325.49 1772.5,-284.49 1890.5,-284.49 1890.5,-325.49"/>
<text text-anchor="start" x="1780.5" y="-313.49" font-family="Helvetica,sans-Serif" font-size="10.00">Harlinn::Common::Core</text>
<text text-anchor="start" x="1780.5" y="-302.49" font-family="Helvetica,sans-Serif" font-size="10.00">::Doxygen::Structure</text>
<text text-anchor="middle" x="1831.5" y="-291.49" font-family="Helvetica,sans-Serif" font-size="10.00">::Container</text>
</a>
</g>
</g>
<!-- Node4&#45;&gt;Node5 -->
<g id="edge6_Node000005_Node000004" class="edge">
<title>Node4&#45;&gt;Node5</title>
<g id="a_edge6_Node000005_Node000004"><a xlink:title=" ">
<path fill="none" stroke="#63b8ff" d="M1331.79,-286.57C1333.88,-286.72 1335.96,-286.86 1338,-286.99 1494.68,-297.06 1679.79,-301.94 1772.07,-303.9"/>
<polygon fill="#63b8ff" stroke="#63b8ff" points="1332.23,-283.09 1321.99,-285.82 1331.69,-290.07 1332.23,-283.09"/>
</a>
</g>
</g>
<!-- Node6 -->
<g id="Node000006" class="node">
<title>Node6</title>
<g id="a_Node000006"><a xlink:title=" ">
<polygon fill="white" stroke="#666666" points="1622,-251.49 1490,-251.49 1490,-210.49 1622,-210.49 1622,-251.49"/>
<text text-anchor="start" x="1498" y="-239.49" font-family="Helvetica,sans-Serif" font-size="10.00">std::vector&lt; Harlinn</text>
<text text-anchor="start" x="1498" y="-228.49" font-family="Helvetica,sans-Serif" font-size="10.00">::Common::Core::Doxygen</text>
<text text-anchor="middle" x="1556" y="-217.49" font-family="Helvetica,sans-Serif" font-size="10.00">::Structure::Member * &gt;</text>
</a>
</g>
</g>
<!-- Node4&#45;&gt;Node6 -->
<g id="edge8_Node000006_Node000004" class="edge">
<title>Node4&#45;&gt;Node6</title>
<g id="a_edge8_Node000006_Node000004"><a xlink:title=" ">
<path fill="none" stroke="#9a32cd" stroke-dasharray="5,2" d="M1331.56,-273.41C1366.88,-269.57 1410.39,-264.07 1449,-256.99 1462.23,-254.56 1476.28,-251.48 1489.67,-248.3"/>
<polygon fill="#9a32cd" stroke="#9a32cd" points="1331.47,-269.9 1321.9,-274.44 1332.21,-276.86 1331.47,-269.9"/>
</a>
</g>
<text text-anchor="middle" x="1393.5" y="-274.99" font-family="Helvetica,sans-Serif" font-size="10.00" fill="grey"> elements</text>
</g>
<!-- Node9 -->
<g id="Node000009" class="node">
<title>Node9</title>
<g id="a_Node000009"><a xlink:title=" ">
<polygon fill="white" stroke="#666666" points="1622,-192.49 1490,-192.49 1490,-129.49 1622,-129.49 1622,-192.49"/>
<text text-anchor="start" x="1498" y="-180.49" font-family="Helvetica,sans-Serif" font-size="10.00">std::unordered_map</text>
<text text-anchor="start" x="1498" y="-169.49" font-family="Helvetica,sans-Serif" font-size="10.00">&lt; Harlinn::Common::Core</text>
<text text-anchor="start" x="1498" y="-158.49" font-family="Helvetica,sans-Serif" font-size="10.00">::BasicString, Harlinn</text>
<text text-anchor="start" x="1498" y="-147.49" font-family="Helvetica,sans-Serif" font-size="10.00">::Common::Core::Doxygen</text>
<text text-anchor="middle" x="1556" y="-136.49" font-family="Helvetica,sans-Serif" font-size="10.00">::Structure::Member * &gt;</text>
</a>
</g>
</g>
<!-- Node4&#45;&gt;Node9 -->
<g id="edge15_Node000009_Node000004" class="edge">
<title>Node4&#45;&gt;Node9</title>
<g id="a_edge15_Node000009_Node000004"><a xlink:title=" ">
<path fill="none" stroke="#9a32cd" stroke-dasharray="5,2" d="M1311.43,-254.36C1320.13,-250.49 1329.22,-246.85 1338,-243.99 1385.74,-228.45 1405.54,-248.14 1449,-222.99 1459.64,-216.83 1457.21,-209.42 1467,-201.99 1473.98,-196.69 1481.76,-191.86 1489.72,-187.51"/>
<polygon fill="#9a32cd" stroke="#9a32cd" points="1310.04,-251.15 1302.43,-258.52 1312.98,-257.5 1310.04,-251.15"/>
</a>
</g>
<text text-anchor="middle" x="1393.5" y="-246.99" font-family="Helvetica,sans-Serif" font-size="10.00" fill="grey"> elements</text>
</g>
<!-- Node16 -->
<g id="Node000016" class="node">
<title>Node16</title>
<g id="a_Node000016"><a xlink:title=" ">
<polygon fill="white" stroke="#666666" points="1645,-468.49 1467,-468.49 1467,-405.49 1645,-405.49 1645,-468.49"/>
<text text-anchor="start" x="1475" y="-456.49" font-family="Helvetica,sans-Serif" font-size="10.00">std::unordered_map</text>
<text text-anchor="start" x="1475" y="-445.49" font-family="Helvetica,sans-Serif" font-size="10.00">&lt; Harlinn::Common::Core</text>
<text text-anchor="start" x="1475" y="-434.49" font-family="Helvetica,sans-Serif" font-size="10.00">::BasicStringView, Harlinn</text>
<text text-anchor="start" x="1475" y="-423.49" font-family="Helvetica,sans-Serif" font-size="10.00">::Common::Core::Doxygen::Structure</text>
<text text-anchor="middle" x="1556" y="-412.49" font-family="Helvetica,sans-Serif" font-size="10.00">::Member * &gt;</text>
</a>
</g>
</g>
<!-- Node4&#45;&gt;Node16 -->
<g id="edge28_Node000016_Node000004" class="edge">
<title>Node4&#45;&gt;Node16</title>
<g id="a_edge28_Node000016_Node000004"><a xlink:title=" ">
<path fill="none" stroke="#9a32cd" stroke-dasharray="5,2" d="M1312.6,-307.91C1315.29,-310.43 1317.8,-313.13 1320,-315.99 1336.72,-337.72 1317.75,-356.51 1338,-374.99 1375.22,-408.94 1400.56,-384.14 1449,-397.99 1456.45,-400.12 1464.12,-402.52 1471.77,-405.06"/>
<polygon fill="#9a32cd" stroke="#9a32cd" points="1315.13,-305.47 1305.19,-301.82 1310.69,-310.87 1315.13,-305.47"/>
</a>
</g>
<text text-anchor="middle" x="1393.5" y="-400.99" font-family="Helvetica,sans-Serif" font-size="10.00" fill="grey"> elements</text>
</g>
<!-- Node5&#45;&gt;Node4 -->
<g id="edge5_Node000004_Node000005" class="edge">
<title>Node5&#45;&gt;Node4</title>
<g id="a_edge5_Node000004_Node000005"><a xlink:title=" ">
<path fill="none" stroke="#9a32cd" stroke-dasharray="5,2" d="M1763.24,-328.99C1758.79,-330.13 1754.35,-331.15 1750,-331.99 1545.22,-371.73 1378.77,-374.54 1338,-349.99 1323.35,-341.17 1331.67,-328.49 1320,-315.99 1314.74,-310.36 1308.42,-305.27 1301.9,-300.8"/>
<polygon fill="#9a32cd" stroke="#9a32cd" points="1764.11,-332.38 1772.81,-326.33 1762.24,-325.63 1764.11,-332.38"/>
</a>
</g>
<text text-anchor="middle" x="1556" y="-367.99" font-family="Helvetica,sans-Serif" font-size="10.00" fill="grey"> owner_</text>
</g>
<!-- Node6&#45;&gt;Node5 -->
<g id="edge7_Node000005_Node000006" class="edge">
<title>Node6&#45;&gt;Node5</title>
<g id="a_edge7_Node000005_Node000006"><a xlink:title=" ">
<path fill="none" stroke="#9a32cd" stroke-dasharray="5,2" d="M1633.12,-251.59C1677.18,-263.51 1731.76,-278.27 1772.35,-289.26"/>
<polygon fill="#9a32cd" stroke="#9a32cd" points="1634.19,-248.25 1623.62,-249.02 1632.36,-255.01 1634.19,-248.25"/>
</a>
</g>
<text text-anchor="middle" x="1706.5" y="-285.99" font-family="Helvetica,sans-Serif" font-size="10.00" fill="grey"> members_</text>
</g>
<!-- Node7 -->
<g id="Node000007" class="node">
<title>Node7</title>
<g id="a_Node000007"><a xlink:title=" ">
<polygon fill="white" stroke="#666666" points="1303.5,-115.49 1218.5,-115.49 1218.5,-96.49 1303.5,-96.49 1303.5,-115.49"/>
<text text-anchor="middle" x="1261" y="-103.49" font-family="Helvetica,sans-Serif" font-size="10.00">std::vector&lt; T &gt;</text>
</a>
</g>
</g>
<!-- Node7&#45;&gt;Node2 -->
<g id="edge24_Node000002_Node000007" class="edge">
<title>Node7&#45;&gt;Node2</title>
<g id="a_edge24_Node000002_Node000007"><a xlink:title=" ">
<path fill="none" stroke="orange" stroke-dasharray="5,2" d="M1286.94,-90.23C1324.34,-67.63 1397.94,-27.07 1467,-11.99 1544.29,4.89 1567.27,2.75 1645,-11.99 1692.09,-20.92 1742.53,-41.56 1778.9,-58.62"/>
<polygon fill="orange" stroke="orange" points="1285.37,-87.09 1278.68,-95.3 1289.03,-93.05 1285.37,-87.09"/>
</a>
</g>
<text text-anchor="start" x="1503.5" y="-47.99" font-family="Helvetica,sans-Serif" font-size="10.00" fill="grey"> &lt; std::unique_ptr&lt;</text>
<text text-anchor="start" x="1503.5" y="-36.99" font-family="Helvetica,sans-Serif" font-size="10.00" fill="grey"> Harlinn::Common::Core</text>
<text text-anchor="start" x="1503.5" y="-25.99" font-family="Helvetica,sans-Serif" font-size="10.00" fill="grey">::Doxygen::Structure::</text>
<text text-anchor="middle" x="1556" y="-14.99" font-family="Helvetica,sans-Serif" font-size="10.00" fill="grey">Member &gt; &gt;</text>
</g>
<!-- Node7&#45;&gt;Node6 -->
<g id="edge9_Node000006_Node000007" class="edge">
<title>Node7&#45;&gt;Node6</title>
<g id="a_edge9_Node000006_Node000007"><a xlink:title=" ">
<path fill="none" stroke="orange" stroke-dasharray="5,2" d="M1304.04,-119.57C1343.24,-133.23 1402.5,-156.48 1449,-185.99 1458.04,-191.73 1457.72,-196.65 1467,-201.99 1474.11,-206.08 1481.88,-209.7 1489.76,-212.86"/>
<polygon fill="orange" stroke="orange" points="1305.32,-116.31 1294.73,-116.38 1303.05,-122.93 1305.32,-116.31"/>
</a>
</g>
<text text-anchor="start" x="1338" y="-210.99" font-family="Helvetica,sans-Serif" font-size="10.00" fill="grey"> &lt; Harlinn::Common::</text>
<text text-anchor="start" x="1338" y="-199.99" font-family="Helvetica,sans-Serif" font-size="10.00" fill="grey">Core::Doxygen::Structure</text>
<text text-anchor="middle" x="1393.5" y="-188.99" font-family="Helvetica,sans-Serif" font-size="10.00" fill="grey">::Member * &gt;</text>
</g>
<!-- Node8 -->
<g id="Node000008" class="node">
<title>Node8</title>
<g id="a_Node000008"><a xlink:title=" ">
<polygon fill="white" stroke="#666666" points="165,-136.49 136,-136.49 136,-117.49 165,-117.49 165,-136.49"/>
<text text-anchor="middle" x="150.5" y="-124.49" font-family="Helvetica,sans-Serif" font-size="10.00">T</text>
</a>
</g>
</g>
<!-- Node8&#45;&gt;Node7 -->
<g id="edge10_Node000007_Node000008" class="edge">
<title>Node8&#45;&gt;Node7</title>
<g id="a_edge10_Node000007_Node000008"><a xlink:title=" ">
<path fill="none" stroke="#9a32cd" stroke-dasharray="5,2" d="M176.55,-122.77C215.17,-116.64 291.63,-105.99 357,-105.99 357,-105.99 357,-105.99 1026,-105.99 1093.23,-105.99 1171.34,-105.99 1218.15,-105.99"/>
<polygon fill="#9a32cd" stroke="#9a32cd" points="176.21,-119.28 166.9,-124.34 177.33,-126.19 176.21,-119.28"/>
</a>
</g>
<text text-anchor="middle" x="706" y="-108.99" font-family="Helvetica,sans-Serif" font-size="10.00" fill="grey"> elements</text>
</g>
<!-- Node11 -->
<g id="Node000011" class="node">
<title>Node11</title>
<g id="a_Node000011"><a xlink:href="struct_harlinn_1_1_common_1_1_core_1_1_internal_1_1_data.html" target="_top" xlink:title=" ">
<polygon fill="white" stroke="#666666" points="417,-165.99 299,-165.99 299,-135.99 417,-135.99 417,-165.99"/>
<text text-anchor="start" x="307" y="-153.99" font-family="Helvetica,sans-Serif" font-size="10.00">Harlinn::Common::Core</text>
<text text-anchor="middle" x="358" y="-142.99" font-family="Helvetica,sans-Serif" font-size="10.00">::Internal::Data&lt; T &gt;</text>
</a>
</g>
</g>
<!-- Node8&#45;&gt;Node11 -->
<g id="edge14_Node000011_Node000008" class="edge">
<title>Node8&#45;&gt;Node11</title>
<g id="a_edge14_Node000011_Node000008"><a xlink:title=" ">
<path fill="none" stroke="#9a32cd" stroke-dasharray="5,2" d="M176.44,-129.9C206.57,-133.42 258.22,-139.45 298.58,-144.17"/>
<polygon fill="#9a32cd" stroke="#9a32cd" points="177.14,-126.46 166.81,-128.78 176.33,-133.41 177.14,-126.46"/>
</a>
</g>
<text text-anchor="middle" x="259.5" y="-143.99" font-family="Helvetica,sans-Serif" font-size="10.00" fill="grey"> buffer_</text>
</g>
<!-- Node12 -->
<g id="Node000012" class="node">
<title>Node12</title>
<g id="a_Node000012"><a xlink:title=" ">
<polygon fill="white" stroke="#666666" points="409.5,-290.99 306.5,-290.99 306.5,-260.99 409.5,-260.99 409.5,-290.99"/>
<text text-anchor="start" x="314.5" y="-278.99" font-family="Helvetica,sans-Serif" font-size="10.00">std::unordered_map</text>
<text text-anchor="middle" x="358" y="-267.99" font-family="Helvetica,sans-Serif" font-size="10.00">&lt; K, T &gt;</text>
</a>
</g>
</g>
<!-- Node8&#45;&gt;Node12 -->
<g id="edge18_Node000012_Node000008" class="edge">
<title>Node8&#45;&gt;Node12</title>
<g id="a_edge18_Node000012_Node000008"><a xlink:title=" ">
<path fill="none" stroke="#9a32cd" stroke-dasharray="5,2" d="M174.19,-143.44C214.2,-172.45 296.77,-232.32 335.75,-260.58"/>
<polygon fill="#9a32cd" stroke="#9a32cd" points="176.36,-140.69 166.21,-137.66 172.25,-146.36 176.36,-140.69"/>
</a>
</g>
<text text-anchor="middle" x="259.5" y="-221.99" font-family="Helvetica,sans-Serif" font-size="10.00" fill="grey"> elements</text>
</g>
<!-- Node15 -->
<g id="Node000015" class="node">
<title>Node15</title>
<g id="a_Node000015"><a xlink:title=" ">
<polygon fill="white" stroke="#666666" points="569,-60.49 465,-60.49 465,-41.49 569,-41.49 569,-60.49"/>
<text text-anchor="middle" x="517" y="-48.49" font-family="Helvetica,sans-Serif" font-size="10.00">std::unique_ptr&lt; T &gt;</text>
</a>
</g>
</g>
<!-- Node8&#45;&gt;Node15 -->
<g id="edge23_Node000015_Node000008" class="edge">
<title>Node8&#45;&gt;Node15</title>
<g id="a_edge23_Node000015_Node000008"><a xlink:title=" ">
<path fill="none" stroke="#9a32cd" stroke-dasharray="5,2" d="M174.98,-111.33C191.8,-100.92 215.38,-87.94 238,-80.99 314.56,-57.46 407.92,-51.8 464.61,-50.75"/>
<polygon fill="#9a32cd" stroke="#9a32cd" points="173.28,-108.26 166.73,-116.58 177.05,-114.16 173.28,-108.26"/>
</a>
</g>
<text text-anchor="middle" x="259.5" y="-83.99" font-family="Helvetica,sans-Serif" font-size="10.00" fill="grey"> ptr</text>
</g>
<!-- Node9&#45;&gt;Node5 -->
<g id="edge11_Node000005_Node000009" class="edge">
<title>Node9&#45;&gt;Node5</title>
<g id="a_edge11_Node000005_Node000009"><a xlink:title=" ">
<path fill="none" stroke="#9a32cd" stroke-dasharray="5,2" d="M1632.72,-189.85C1669.1,-204.84 1712.77,-224.49 1750,-245.99 1769.36,-257.17 1789.65,-272.06 1805.01,-284.09"/>
<polygon fill="#9a32cd" stroke="#9a32cd" points="1634.15,-186.66 1623.57,-186.13 1631.51,-193.14 1634.15,-186.66"/>
</a>
</g>
<text text-anchor="middle" x="1706.5" y="-248.99" font-family="Helvetica,sans-Serif" font-size="10.00" fill="grey"> membersByName_</text>
</g>
<!-- Node10 -->
<g id="Node000010" class="node">
<title>Node10</title>
<g id="a_Node000010"><a xlink:href="class_harlinn_1_1_common_1_1_core_1_1_basic_string.html" target="_top" xlink:title="This is a reference counted string class.">
<polygon fill="white" stroke="#666666" points="765,-165.99 647,-165.99 647,-135.99 765,-135.99 765,-165.99"/>
<text text-anchor="start" x="655" y="-153.99" font-family="Helvetica,sans-Serif" font-size="10.00">Harlinn::Common::Core</text>
<text text-anchor="middle" x="706" y="-142.99" font-family="Helvetica,sans-Serif" font-size="10.00">::BasicString&lt; T &gt;</text>
</a>
</g>
</g>
<!-- Node10&#45;&gt;Node9 -->
<g id="edge12_Node000009_Node000010" class="edge">
<title>Node10&#45;&gt;Node9</title>
<g id="a_edge12_Node000009_Node000010"><a xlink:title=" ">
<path fill="none" stroke="#9a32cd" stroke-dasharray="5,2" d="M776.45,-151.81C937.19,-153.7 1333.05,-158.37 1489.68,-160.22"/>
<polygon fill="#9a32cd" stroke="#9a32cd" points="776.84,-148.31 766.8,-151.7 776.76,-155.31 776.84,-148.31"/>
</a>
</g>
<text text-anchor="middle" x="1150.5" y="-158.99" font-family="Helvetica,sans-Serif" font-size="10.00" fill="grey"> keys</text>
</g>
<!-- Node14 -->
<g id="Node000014" class="node">
<title>Node14</title>
<g id="a_Node000014"><a xlink:href="class_harlinn_1_1_common_1_1_core_1_1_basic_string.html" target="_top" xlink:title=" ">
<polygon fill="white" stroke="#666666" points="1087.5,-201.99 962.5,-201.99 962.5,-171.99 1087.5,-171.99 1087.5,-201.99"/>
<text text-anchor="start" x="970.5" y="-189.99" font-family="Helvetica,sans-Serif" font-size="10.00">Harlinn::Common::Core</text>
<text text-anchor="middle" x="1025" y="-178.99" font-family="Helvetica,sans-Serif" font-size="10.00">::BasicString&lt; wchar_t &gt;</text>
</a>
</g>
</g>
<!-- Node10&#45;&gt;Node14 -->
<g id="edge21_Node000014_Node000010" class="edge">
<title>Node10&#45;&gt;Node14</title>
<g id="a_edge21_Node000014_Node000010"><a xlink:title=" ">
<path fill="none" stroke="orange" stroke-dasharray="5,2" d="M776.28,-158.86C831.73,-165.16 908.78,-173.91 962.16,-179.97"/>
<polygon fill="orange" stroke="orange" points="776.98,-155.41 766.65,-157.76 776.19,-162.37 776.98,-155.41"/>
</a>
</g>
<text text-anchor="middle" x="873" y="-178.99" font-family="Helvetica,sans-Serif" font-size="10.00" fill="grey"> &lt; wchar_t &gt;</text>
</g>
<!-- Node11&#45;&gt;Node10 -->
<g id="edge13_Node000010_Node000011" class="edge">
<title>Node11&#45;&gt;Node10</title>
<g id="a_edge13_Node000010_Node000011"><a xlink:title=" ">
<path fill="none" stroke="#9a32cd" stroke-dasharray="5,2" d="M428.5,-150.99C492.55,-150.99 586.54,-150.99 646.75,-150.99"/>
<polygon fill="#9a32cd" stroke="#9a32cd" points="428.82,-147.49 418.82,-150.99 428.82,-154.49 428.82,-147.49"/>
</a>
</g>
<text text-anchor="middle" x="517" y="-153.99" font-family="Helvetica,sans-Serif" font-size="10.00" fill="grey"> data_</text>
</g>
<!-- Node11&#45;&gt;Node14 -->
<g id="edge20_Node000014_Node000011" class="edge">
<title>Node11&#45;&gt;Node14</title>
<g id="a_edge20_Node000014_Node000011"><a xlink:title=" ">
<path fill="none" stroke="#9a32cd" stroke-dasharray="5,2" d="M428.74,-165.14C430.85,-165.44 432.94,-165.73 435,-165.99 654.78,-193.94 711.45,-189.21 933,-187.99 942.48,-187.94 952.51,-187.86 962.32,-187.76"/>
<polygon fill="#9a32cd" stroke="#9a32cd" points="429.29,-161.68 418.87,-163.58 428.2,-168.6 429.29,-161.68"/>
</a>
</g>
<text text-anchor="middle" x="706" y="-191.99" font-family="Helvetica,sans-Serif" font-size="10.00" fill="grey"> data_</text>
</g>
<!-- Node12&#45;&gt;Node9 -->
<g id="edge16_Node000009_Node000012" class="edge">
<title>Node12&#45;&gt;Node9</title>
<g id="a_edge16_Node000009_Node000012"><a xlink:title=" ">
<path fill="none" stroke="orange" stroke-dasharray="5,2" d="M421.13,-270.97C548.4,-260.58 847.89,-235.65 1099,-210.99 1254.72,-195.7 1293.48,-190.24 1449,-172.99 1462.16,-171.53 1476.24,-169.95 1489.7,-168.43"/>
<polygon fill="orange" stroke="orange" points="420.92,-267.47 411.23,-271.77 421.48,-274.45 420.92,-267.47"/>
</a>
</g>
<text text-anchor="start" x="967" y="-259.99" font-family="Helvetica,sans-Serif" font-size="10.00" fill="grey"> &lt; Harlinn::Common::</text>
<text text-anchor="start" x="967" y="-248.99" font-family="Helvetica,sans-Serif" font-size="10.00" fill="grey">Core::BasicString, Harlinn</text>
<text text-anchor="start" x="967" y="-237.99" font-family="Helvetica,sans-Serif" font-size="10.00" fill="grey">::Common::Core::Doxygen</text>
<text text-anchor="middle" x="1025" y="-226.99" font-family="Helvetica,sans-Serif" font-size="10.00" fill="grey">::Structure::Member * &gt;</text>
</g>
<!-- Node12&#45;&gt;Node16 -->
<g id="edge29_Node000016_Node000012" class="edge">
<title>Node12&#45;&gt;Node16</title>
<g id="a_edge29_Node000016_Node000012"><a xlink:title=" ">
<path fill="none" stroke="orange" stroke-dasharray="5,2" d="M421.39,-277.05C587.98,-280.39 1040.36,-292.9 1184,-331.99 1257.84,-352.08 1264.8,-386.67 1338,-408.99 1379.33,-421.59 1426.77,-428.52 1466.74,-432.34"/>
<polygon fill="orange" stroke="orange" points="421.47,-273.55 411.41,-276.86 421.34,-280.55 421.47,-273.55"/>
</a>
</g>
<text text-anchor="start" x="951" y="-350.99" font-family="Helvetica,sans-Serif" font-size="10.00" fill="grey"> &lt; Harlinn::Common::</text>
<text text-anchor="start" x="951" y="-339.99" font-family="Helvetica,sans-Serif" font-size="10.00" fill="grey">Core::BasicStringView,</text>
<text text-anchor="start" x="951" y="-328.99" font-family="Helvetica,sans-Serif" font-size="10.00" fill="grey"> Harlinn::Common::Core</text>
<text text-anchor="middle" x="1025" y="-317.99" font-family="Helvetica,sans-Serif" font-size="10.00" fill="grey">::Doxygen::Structure::Member * &gt;</text>
</g>
<!-- Node19 -->
<g id="Node000019" class="node">
<title>Node19</title>
<g id="a_Node000019"><a xlink:title=" ">
<polygon fill="white" stroke="#666666" points="795,-475.49 617,-475.49 617,-412.49 795,-412.49 795,-475.49"/>
<text text-anchor="start" x="625" y="-463.49" font-family="Helvetica,sans-Serif" font-size="10.00">std::unordered_map</text>
<text text-anchor="start" x="625" y="-452.49" font-family="Helvetica,sans-Serif" font-size="10.00">&lt; Harlinn::Common::Core</text>
<text text-anchor="start" x="625" y="-441.49" font-family="Helvetica,sans-Serif" font-size="10.00">::BasicStringView, Harlinn</text>
<text text-anchor="start" x="625" y="-430.49" font-family="Helvetica,sans-Serif" font-size="10.00">::Common::Core::Doxygen::Structure</text>
<text text-anchor="middle" x="706" y="-419.49" font-family="Helvetica,sans-Serif" font-size="10.00">::Namespace * &gt;</text>
</a>
</g>
</g>
<!-- Node12&#45;&gt;Node19 -->
<g id="edge35_Node000019_Node000012" class="edge">
<title>Node12&#45;&gt;Node19</title>
<g id="a_edge35_Node000019_Node000012"><a xlink:title=" ">
<path fill="none" stroke="orange" stroke-dasharray="5,2" d="M385.44,-298.27C399.53,-309.4 417.52,-322.48 435,-331.99 503.45,-369.23 527.26,-363.57 599,-393.99 612.21,-399.59 626.18,-405.9 639.49,-412.1"/>
<polygon fill="orange" stroke="orange" points="387.95,-295.79 377.97,-292.24 383.56,-301.24 387.95,-295.79"/>
</a>
</g>
<text text-anchor="start" x="435" y="-429.99" font-family="Helvetica,sans-Serif" font-size="10.00" fill="grey"> &lt; Harlinn::Common::</text>
<text text-anchor="start" x="435" y="-418.99" font-family="Helvetica,sans-Serif" font-size="10.00" fill="grey">Core::BasicStringView,</text>
<text text-anchor="start" x="435" y="-407.99" font-family="Helvetica,sans-Serif" font-size="10.00" fill="grey"> Harlinn::Common::Core</text>
<text text-anchor="middle" x="517" y="-396.99" font-family="Helvetica,sans-Serif" font-size="10.00" fill="grey">::Doxygen::Structure::Namespace * &gt;</text>
</g>
<!-- Node13 -->
<g id="Node000013" class="node">
<title>Node13</title>
<g id="a_Node000013"><a xlink:title=" ">
<polygon fill="white" stroke="#666666" points="165,-285.49 136,-285.49 136,-266.49 165,-266.49 165,-285.49"/>
<text text-anchor="middle" x="150.5" y="-273.49" font-family="Helvetica,sans-Serif" font-size="10.00">K</text>
</a>
</g>
</g>
<!-- Node13&#45;&gt;Node12 -->
<g id="edge17_Node000012_Node000013" class="edge">
<title>Node13&#45;&gt;Node12</title>
<g id="a_edge17_Node000012_Node000013"><a xlink:title=" ">
<path fill="none" stroke="#9a32cd" stroke-dasharray="5,2" d="M176.73,-275.99C208.86,-275.99 265.14,-275.99 306.29,-275.99"/>
<polygon fill="#9a32cd" stroke="#9a32cd" points="176.82,-272.49 166.82,-275.99 176.82,-279.49 176.82,-272.49"/>
</a>
</g>
<text text-anchor="middle" x="259.5" y="-278.99" font-family="Helvetica,sans-Serif" font-size="10.00" fill="grey"> keys</text>
</g>
<!-- Node14&#45;&gt;Node4 -->
<g id="edge19_Node000004_Node000014" class="edge">
<title>Node14&#45;&gt;Node4</title>
<g id="a_edge19_Node000004_Node000014"><a xlink:title=" ">
<path fill="none" stroke="#9a32cd" stroke-dasharray="5,2" d="M1075.28,-206.57C1083.21,-209.72 1091.33,-212.94 1099,-215.99 1135.2,-230.38 1175.97,-246.58 1207.43,-259.09"/>
<polygon fill="#9a32cd" stroke="#9a32cd" points="1076.64,-203.34 1066.05,-202.9 1074.05,-209.84 1076.64,-203.34"/>
</a>
</g>
<text text-anchor="middle" x="1150.5" y="-262.99" font-family="Helvetica,sans-Serif" font-size="10.00" fill="grey"> name_</text>
<text text-anchor="middle" x="1150.5" y="-251.99" font-family="Helvetica,sans-Serif" font-size="10.00" fill="grey">qualifiedName_</text>
</g>
<!-- Node15&#45;&gt;Node3 -->
<g id="edge22_Node000003_Node000015" class="edge">
<title>Node15&#45;&gt;Node3</title>
<g id="a_edge22_Node000003_Node000015"><a xlink:title=" ">
<path fill="none" stroke="orange" stroke-dasharray="5,2" d="M580.65,-49.29C651.4,-47.51 769.96,-44.99 872,-44.99 872,-44.99 872,-44.99 1262,-44.99 1340.81,-44.99 1430.45,-59.37 1489.6,-70.89"/>
<polygon fill="orange" stroke="orange" points="580.71,-45.78 570.8,-49.54 580.89,-52.78 580.71,-45.78"/>
</a>
</g>
<text text-anchor="start" x="969.5" y="-69.99" font-family="Helvetica,sans-Serif" font-size="10.00" fill="grey"> &lt; Harlinn::Common::</text>
<text text-anchor="start" x="969.5" y="-58.99" font-family="Helvetica,sans-Serif" font-size="10.00" fill="grey">Core::Doxygen::Structure</text>
<text text-anchor="middle" x="1025" y="-47.99" font-family="Helvetica,sans-Serif" font-size="10.00" fill="grey">::Member &gt;</text>
</g>
<!-- Node16&#45;&gt;Node1 -->
<g id="edge25_Node000001_Node000016" class="edge">
<title>Node16&#45;&gt;Node1</title>
<g id="a_edge25_Node000001_Node000016"><a xlink:title=" ">
<path fill="none" stroke="#9a32cd" stroke-dasharray="5,2" d="M1455.25,-437.52C1418.38,-437.22 1376.26,-436.27 1338,-433.99 1249.24,-428.69 1146.81,-416.73 1084.23,-408.76"/>
<polygon fill="#9a32cd" stroke="#9a32cd" points="1454.97,-441.02 1465,-437.59 1455.02,-434.02 1454.97,-441.02"/>
</a>
</g>
<text text-anchor="start" x="1203.5" y="-456.99" font-family="Helvetica,sans-Serif" font-size="10.00" fill="grey"> allTypesByQualifiedName</text>
<text text-anchor="middle" x="1261" y="-445.99" font-family="Helvetica,sans-Serif" font-size="10.00" fill="grey">_</text>
<text text-anchor="middle" x="1261" y="-434.99" font-family="Helvetica,sans-Serif" font-size="10.00" fill="grey">allTypes_</text>
</g>
<!-- Node17 -->
<g id="Node000017" class="node">
<title>Node17</title>
<g id="a_Node000017"><a xlink:href="class_harlinn_1_1_common_1_1_core_1_1_basic_string_view.html" target="_top" xlink:title=" ">
<polygon fill="white" stroke="#666666" points="417,-525.99 299,-525.99 299,-495.99 417,-495.99 417,-525.99"/>
<text text-anchor="start" x="307" y="-513.99" font-family="Helvetica,sans-Serif" font-size="10.00">Harlinn::Common::Core</text>
<text text-anchor="middle" x="358" y="-502.99" font-family="Helvetica,sans-Serif" font-size="10.00">::BasicStringView&lt; T &gt;</text>
</a>
</g>
</g>
<!-- Node17&#45;&gt;Node16 -->
<g id="edge26_Node000016_Node000017" class="edge">
<title>Node17&#45;&gt;Node16</title>
<g id="a_edge26_Node000016_Node000017"><a xlink:title=" ">
<path fill="none" stroke="#9a32cd" stroke-dasharray="5,2" d="M428.72,-515.15C498.57,-518.95 609.2,-523.99 705,-523.99 705,-523.99 705,-523.99 1262,-523.99 1342.13,-523.99 1429.67,-493.72 1488,-468.89"/>
<polygon fill="#9a32cd" stroke="#9a32cd" points="429.13,-511.67 418.95,-514.61 428.74,-518.65 429.13,-511.67"/>
</a>
</g>
<text text-anchor="middle" x="1025" y="-526.99" font-family="Helvetica,sans-Serif" font-size="10.00" fill="grey"> keys</text>
</g>
<!-- Node17&#45;&gt;Node19 -->
<g id="edge31_Node000019_Node000017" class="edge">
<title>Node17&#45;&gt;Node19</title>
<g id="a_edge31_Node000019_Node000017"><a xlink:title=" ">
<path fill="none" stroke="#9a32cd" stroke-dasharray="5,2" d="M428.58,-499.92C476.6,-492 541.84,-480.72 599,-468.99 604.74,-467.81 610.65,-466.55 616.59,-465.25"/>
<polygon fill="#9a32cd" stroke="#9a32cd" points="428.17,-496.44 418.87,-501.51 429.3,-503.34 428.17,-496.44"/>
</a>
</g>
<text text-anchor="middle" x="517" y="-500.99" font-family="Helvetica,sans-Serif" font-size="10.00" fill="grey"> keys</text>
</g>
<!-- Node18 -->
<g id="Node000018" class="node">
<title>Node18</title>
<g id="a_Node000018"><a xlink:title=" ">
<polygon fill="white" stroke="#666666" points="206.5,-525.99 94.5,-525.99 94.5,-495.99 206.5,-495.99 206.5,-525.99"/>
<text text-anchor="start" x="102.5" y="-513.99" font-family="Helvetica,sans-Serif" font-size="10.00">std::basic_string_view</text>
<text text-anchor="middle" x="150.5" y="-502.99" font-family="Helvetica,sans-Serif" font-size="10.00">&lt; Char &gt;</text>
</a>
</g>
</g>
<!-- Node18&#45;&gt;Node17 -->
<g id="edge27_Node000017_Node000018" class="edge">
<title>Node18&#45;&gt;Node17</title>
<g id="a_edge27_Node000017_Node000018"><a xlink:title=" ">
<path fill="none" stroke="#63b8ff" d="M218.11,-510.99C244.08,-510.99 273.57,-510.99 298.69,-510.99"/>
<polygon fill="#63b8ff" stroke="#63b8ff" points="218.35,-507.49 208.35,-510.99 218.35,-514.49 218.35,-507.49"/>
</a>
</g>
</g>
<!-- Node19&#45;&gt;Node1 -->
<g id="edge30_Node000001_Node000019" class="edge">
<title>Node19&#45;&gt;Node1</title>
<g id="a_edge30_Node000001_Node000019"><a xlink:title=" ">
<path fill="none" stroke="#9a32cd" stroke-dasharray="5,2" d="M806.64,-430.47C858.95,-423.38 921.21,-414.93 965.67,-408.9"/>
<polygon fill="#9a32cd" stroke="#9a32cd" points="806.24,-427 796.8,-431.81 807.18,-433.93 806.24,-427"/>
</a>
</g>
<text text-anchor="start" x="813" y="-452.99" font-family="Helvetica,sans-Serif" font-size="10.00" fill="grey"> allNamespacesByQualified</text>
<text text-anchor="middle" x="873" y="-441.99" font-family="Helvetica,sans-Serif" font-size="10.00" fill="grey">Name_</text>
<text text-anchor="middle" x="873" y="-430.99" font-family="Helvetica,sans-Serif" font-size="10.00" fill="grey">allNamespaces_</text>
</g>
<!-- Node20 -->
<g id="Node000020" class="node">
<title>Node20</title>
<g id="a_Node000020"><a xlink:href="class_harlinn_1_1_common_1_1_core_1_1_doxygen_1_1_structure_1_1_namespace.html" target="_top" xlink:title=" ">
<polygon fill="white" stroke="#666666" points="417,-424.49 299,-424.49 299,-383.49 417,-383.49 417,-424.49"/>
<text text-anchor="start" x="307" y="-412.49" font-family="Helvetica,sans-Serif" font-size="10.00">Harlinn::Common::Core</text>
<text text-anchor="start" x="307" y="-401.49" font-family="Helvetica,sans-Serif" font-size="10.00">::Doxygen::Structure</text>
<text text-anchor="middle" x="358" y="-390.49" font-family="Helvetica,sans-Serif" font-size="10.00">::Namespace</text>
</a>
</g>
</g>
<!-- Node20&#45;&gt;Node1 -->
<g id="edge36_Node000001_Node000020" class="edge">
<title>Node20&#45;&gt;Node1</title>
<g id="a_edge36_Node000001_Node000020"><a xlink:title=" ">
<path fill="none" stroke="#9a32cd" stroke-dasharray="5,2" d="M424.15,-380.18C427.79,-379.33 431.42,-378.59 435,-377.99 627.31,-346.01 859.56,-374.36 965.82,-390.96"/>
<polygon fill="#9a32cd" stroke="#9a32cd" points="423.49,-376.73 414.7,-382.66 425.26,-383.51 423.49,-376.73"/>
</a>
</g>
<text text-anchor="middle" x="706" y="-371.99" font-family="Helvetica,sans-Serif" font-size="10.00" fill="grey"> global_</text>
</g>
<!-- Node20&#45;&gt;Node19 -->
<g id="edge32_Node000019_Node000020" class="edge">
<title>Node20&#45;&gt;Node19</title>
<g id="a_edge32_Node000019_Node000020"><a xlink:title=" ">
<path fill="none" stroke="#9a32cd" stroke-dasharray="5,2" d="M402.51,-429.95C412.82,-434.9 424.03,-439.36 435,-441.99 494.37,-456.24 563.22,-456.51 616.54,-453.33"/>
<polygon fill="#9a32cd" stroke="#9a32cd" points="404.38,-426.98 393.88,-425.57 401.22,-433.22 404.38,-426.98"/>
</a>
</g>
<text text-anchor="middle" x="517" y="-456.99" font-family="Helvetica,sans-Serif" font-size="10.00" fill="grey"> elements</text>
</g>
<!-- Node21 -->
<g id="Node000021" class="node">
<title>Node21</title>
<g id="a_Node000021"><a xlink:href="class_harlinn_1_1_common_1_1_core_1_1_doxygen_1_1_structure_1_1_internal_1_1_base.html" target="_top" xlink:title=" ">
<polygon fill="white" stroke="#666666" points="220,-424.49 81,-424.49 81,-383.49 220,-383.49 220,-424.49"/>
<text text-anchor="start" x="89" y="-412.49" font-family="Helvetica,sans-Serif" font-size="10.00">Internal::TypeContainerBase</text>
<text text-anchor="start" x="89" y="-401.49" font-family="Helvetica,sans-Serif" font-size="10.00">&lt; Structure::MemberType</text>
<text text-anchor="middle" x="150.5" y="-390.49" font-family="Helvetica,sans-Serif" font-size="10.00">::Namespace &gt;</text>
</a>
</g>
</g>
<!-- Node21&#45;&gt;Node20 -->
<g id="edge33_Node000020_Node000021" class="edge">
<title>Node21&#45;&gt;Node20</title>
<g id="a_edge33_Node000020_Node000021"><a xlink:title=" ">
<path fill="none" stroke="#63b8ff" d="M231.72,-403.99C254.04,-403.99 277.85,-403.99 298.65,-403.99"/>
<polygon fill="#63b8ff" stroke="#63b8ff" points="231.73,-400.49 221.73,-403.99 231.73,-407.49 231.73,-400.49"/>
</a>
</g>
</g>
<!-- Node22 -->
<g id="Node000022" class="node">
<title>Node22</title>
<g id="a_Node000022"><a xlink:title=" ">
<polygon fill="white" stroke="#666666" points="44,-413.49 0,-413.49 0,-394.49 44,-394.49 44,-413.49"/>
<text text-anchor="middle" x="22" y="-401.49" font-family="Helvetica,sans-Serif" font-size="10.00">BaseT</text>
</a>
</g>
</g>
<!-- Node22&#45;&gt;Node21 -->
<g id="edge34_Node000021_Node000022" class="edge">
<title>Node22&#45;&gt;Node21</title>
<g id="a_edge34_Node000021_Node000022"><a xlink:title=" ">
<path fill="none" stroke="#63b8ff" d="M55.84,-403.99C63.56,-403.99 72.07,-403.99 80.72,-403.99"/>
<polygon fill="#63b8ff" stroke="#63b8ff" points="55.97,-400.49 45.97,-403.99 55.97,-407.49 55.97,-400.49"/>
</a>
</g>
</g>
</g>
</svg>
