<?xml version="1.0" encoding="UTF-8" standalone="no"?>
<!DOCTYPE svg PUBLIC "-//W3C//DTD SVG 1.1//EN"
 "http://www.w3.org/Graphics/SVG/1.1/DTD/svg11.dtd">
<!-- Generated by graphviz version 7.0.1 (20221109.1506)
 -->
<!-- Title: Harlinn::Windows::Graphics::Imaging::ComponentInfo Pages: 1 -->
<svg width="837pt" height="158pt"
 viewBox="0.00 0.00 837.00 158.00" xmlns="http://www.w3.org/2000/svg" xmlns:xlink="http://www.w3.org/1999/xlink">
<g id="graph0" class="graph" transform="scale(1 1) rotate(0) translate(4 154)">
<title>Harlinn::Windows::Graphics::Imaging::ComponentInfo</title>
<!-- Node1 -->
<g id="Node000001" class="node">
<title>Node1</title>
<g id="a_Node000001"><a xlink:title="Exposes methods that provide component information.">
<polygon fill="#999999" stroke="#666666" points="464,-78 327,-78 327,-48 464,-48 464,-78"/>
<text text-anchor="start" x="335" y="-66" font-family="Helvetica,sans-Serif" font-size="10.00">Harlinn::Windows::Graphics</text>
<text text-anchor="middle" x="395.5" y="-55" font-family="Helvetica,sans-Serif" font-size="10.00">::Imaging::ComponentInfo</text>
</a>
</g>
</g>
<!-- Node4 -->
<g id="Node000004" class="node">
<title>Node4</title>
<g id="a_Node000004"><a xlink:href="class_harlinn_1_1_windows_1_1_graphics_1_1_imaging_1_1_bitmap_codec_info.html" target="_top" xlink:title="Exposes methods that provide information about a particular codec.">
<polygon fill="white" stroke="#666666" points="643,-126 506,-126 506,-96 643,-96 643,-126"/>
<text text-anchor="start" x="514" y="-114" font-family="Helvetica,sans-Serif" font-size="10.00">Harlinn::Windows::Graphics</text>
<text text-anchor="middle" x="574.5" y="-103" font-family="Helvetica,sans-Serif" font-size="10.00">::Imaging::BitmapCodecInfo</text>
</a>
</g>
</g>
<!-- Node1&#45;&gt;Node4 -->
<g id="edge3_Node000001_Node000004" class="edge">
<title>Node1&#45;&gt;Node4</title>
<g id="a_edge3_Node000001_Node000004"><a xlink:title=" ">
<path fill="none" stroke="#63b8ff" d="M464.59,-81.46C481.78,-86.13 500.06,-91.08 516.63,-95.58"/>
<polygon fill="#63b8ff" stroke="#63b8ff" points="465.51,-78.09 454.94,-78.85 463.67,-84.84 465.51,-78.09"/>
</a>
</g>
</g>
<!-- Node7 -->
<g id="Node000007" class="node">
<title>Node7</title>
<g id="a_Node000007"><a xlink:href="class_harlinn_1_1_windows_1_1_graphics_1_1_imaging_1_1_format_converter_info.html" target="_top" xlink:title="Exposes methods that provide information about a pixel format converter.">
<polygon fill="white" stroke="#666666" points="649,-78 500,-78 500,-48 649,-48 649,-78"/>
<text text-anchor="start" x="508" y="-66" font-family="Helvetica,sans-Serif" font-size="10.00">Harlinn::Windows::Graphics</text>
<text text-anchor="middle" x="574.5" y="-55" font-family="Helvetica,sans-Serif" font-size="10.00">::Imaging::FormatConverterInfo</text>
</a>
</g>
</g>
<!-- Node1&#45;&gt;Node7 -->
<g id="edge6_Node000001_Node000007" class="edge">
<title>Node1&#45;&gt;Node7</title>
<g id="a_edge6_Node000001_Node000007"><a xlink:title=" ">
<path fill="none" stroke="#63b8ff" d="M475.88,-63C483.76,-63 491.75,-63 499.57,-63"/>
<polygon fill="#63b8ff" stroke="#63b8ff" points="475.94,-59.5 465.94,-63 475.94,-66.5 475.94,-59.5"/>
</a>
</g>
</g>
<!-- Node8 -->
<g id="Node000008" class="node">
<title>Node8</title>
<g id="a_Node000008"><a xlink:href="class_harlinn_1_1_windows_1_1_graphics_1_1_imaging_1_1_pixel_format_info.html" target="_top" xlink:title="Exposes methods that provide information about a pixel format.">
<polygon fill="white" stroke="#666666" points="643,-30 506,-30 506,0 643,0 643,-30"/>
<text text-anchor="start" x="514" y="-18" font-family="Helvetica,sans-Serif" font-size="10.00">Harlinn::Windows::Graphics</text>
<text text-anchor="middle" x="574.5" y="-7" font-family="Helvetica,sans-Serif" font-size="10.00">::Imaging::PixelFormatInfo</text>
</a>
</g>
</g>
<!-- Node1&#45;&gt;Node8 -->
<g id="edge7_Node000001_Node000008" class="edge">
<title>Node1&#45;&gt;Node8</title>
<g id="a_edge7_Node000001_Node000008"><a xlink:title=" ">
<path fill="none" stroke="#63b8ff" d="M464.59,-44.54C481.78,-39.87 500.06,-34.92 516.63,-30.42"/>
<polygon fill="#63b8ff" stroke="#63b8ff" points="463.67,-41.16 454.94,-47.15 465.51,-47.91 463.67,-41.16"/>
</a>
</g>
</g>
<!-- Node2 -->
<g id="Node000002" class="node">
<title>Node2</title>
<g id="a_Node000002"><a xlink:href="class_harlinn_1_1_windows_1_1_graphics_1_1_imaging_1_1_imaging_object.html" target="_top" xlink:title=" ">
<polygon fill="white" stroke="#666666" points="291,-78 154,-78 154,-48 291,-48 291,-78"/>
<text text-anchor="start" x="162" y="-66" font-family="Helvetica,sans-Serif" font-size="10.00">Harlinn::Windows::Graphics</text>
<text text-anchor="middle" x="222.5" y="-55" font-family="Helvetica,sans-Serif" font-size="10.00">::Imaging::ImagingObject</text>
</a>
</g>
</g>
<!-- Node2&#45;&gt;Node1 -->
<g id="edge1_Node000001_Node000002" class="edge">
<title>Node2&#45;&gt;Node1</title>
<g id="a_edge1_Node000001_Node000002"><a xlink:title=" ">
<path fill="none" stroke="#63b8ff" d="M302.41,-63C310.48,-63 318.63,-63 326.57,-63"/>
<polygon fill="#63b8ff" stroke="#63b8ff" points="302.6,-59.5 292.6,-63 302.6,-66.5 302.6,-59.5"/>
</a>
</g>
</g>
<!-- Node3 -->
<g id="Node000003" class="node">
<title>Node3</title>
<g id="a_Node000003"><a xlink:href="class_harlinn_1_1_common_1_1_core_1_1_unknown.html" target="_top" xlink:title="Base class for COM interface wrappers.">
<polygon fill="white" stroke="#666666" points="118,-78 0,-78 0,-48 118,-48 118,-78"/>
<text text-anchor="start" x="8" y="-66" font-family="Helvetica,sans-Serif" font-size="10.00">Harlinn::Common::Core</text>
<text text-anchor="middle" x="59" y="-55" font-family="Helvetica,sans-Serif" font-size="10.00">::Unknown</text>
</a>
</g>
</g>
<!-- Node3&#45;&gt;Node2 -->
<g id="edge2_Node000002_Node000003" class="edge">
<title>Node3&#45;&gt;Node2</title>
<g id="a_edge2_Node000002_Node000003"><a xlink:title=" ">
<path fill="none" stroke="#63b8ff" d="M129.78,-63C137.7,-63 145.77,-63 153.67,-63"/>
<polygon fill="#63b8ff" stroke="#63b8ff" points="129.82,-59.5 119.82,-63 129.82,-66.5 129.82,-59.5"/>
</a>
</g>
</g>
<!-- Node5 -->
<g id="Node000005" class="node">
<title>Node5</title>
<g id="a_Node000005"><a xlink:href="class_harlinn_1_1_windows_1_1_graphics_1_1_imaging_1_1_bitmap_decoder_info.html" target="_top" xlink:title="Exposes methods that provide information about a decoder.">
<polygon fill="white" stroke="#666666" points="829,-150 685,-150 685,-120 829,-120 829,-150"/>
<text text-anchor="start" x="693" y="-138" font-family="Helvetica,sans-Serif" font-size="10.00">Harlinn::Windows::Graphics</text>
<text text-anchor="middle" x="757" y="-127" font-family="Helvetica,sans-Serif" font-size="10.00">::Imaging::BitmapDecoderInfo</text>
</a>
</g>
</g>
<!-- Node4&#45;&gt;Node5 -->
<g id="edge4_Node000004_Node000005" class="edge">
<title>Node4&#45;&gt;Node5</title>
<g id="a_edge4_Node000004_Node000005"><a xlink:title=" ">
<path fill="none" stroke="#63b8ff" d="M654.68,-121.53C664.69,-122.86 674.89,-124.22 684.77,-125.53"/>
<polygon fill="#63b8ff" stroke="#63b8ff" points="655.36,-118.09 644.98,-120.24 654.43,-125.03 655.36,-118.09"/>
</a>
</g>
</g>
<!-- Node6 -->
<g id="Node000006" class="node">
<title>Node6</title>
<g id="a_Node000006"><a xlink:href="class_harlinn_1_1_windows_1_1_graphics_1_1_imaging_1_1_bitmap_encoder_info.html" target="_top" xlink:title="Exposes methods that provide information about an encoder.">
<polygon fill="white" stroke="#666666" points="829,-102 685,-102 685,-72 829,-72 829,-102"/>
<text text-anchor="start" x="693" y="-90" font-family="Helvetica,sans-Serif" font-size="10.00">Harlinn::Windows::Graphics</text>
<text text-anchor="middle" x="757" y="-79" font-family="Helvetica,sans-Serif" font-size="10.00">::Imaging::BitmapEncoderInfo</text>
</a>
</g>
</g>
<!-- Node4&#45;&gt;Node6 -->
<g id="edge5_Node000004_Node000006" class="edge">
<title>Node4&#45;&gt;Node6</title>
<g id="a_edge5_Node000004_Node000006"><a xlink:title=" ">
<path fill="none" stroke="#63b8ff" d="M654.68,-100.47C664.69,-99.14 674.89,-97.78 684.77,-96.47"/>
<polygon fill="#63b8ff" stroke="#63b8ff" points="654.43,-96.97 644.98,-101.76 655.36,-103.91 654.43,-96.97"/>
</a>
</g>
</g>
</g>
</svg>
