<?xml version="1.0" encoding="UTF-8" standalone="no"?>
<!DOCTYPE svg PUBLIC "-//W3C//DTD SVG 1.1//EN"
 "http://www.w3.org/Graphics/SVG/1.1/DTD/svg11.dtd">
<!-- Generated by graphviz version 7.0.1 (20221109.1506)
 -->
<!-- Title: Harlinn::Common::Core::EventWaitHandleAccessMask Pages: 1 -->
<svg width="828pt" height="82pt"
 viewBox="0.00 0.00 828.00 81.50" xmlns="http://www.w3.org/2000/svg" xmlns:xlink="http://www.w3.org/1999/xlink">
<g id="graph0" class="graph" transform="scale(1 1) rotate(0) translate(4 77.5)">
<title>Harlinn::Common::Core::EventWaitHandleAccessMask</title>
<!-- Node1 -->
<g id="Node000001" class="node">
<title>Node1</title>
<g id="a_Node000001"><a xlink:title=" ">
<polygon fill="#999999" stroke="#666666" points="820,-62.5 666,-62.5 666,-32.5 820,-32.5 820,-62.5"/>
<text text-anchor="start" x="674" y="-50.5" font-family="Helvetica,sans-Serif" font-size="10.00">Harlinn::Common::Core</text>
<text text-anchor="middle" x="743" y="-39.5" font-family="Helvetica,sans-Serif" font-size="10.00">::EventWaitHandleAccessMask</text>
</a>
</g>
</g>
<!-- Node2 -->
<g id="Node000002" class="node">
<title>Node2</title>
<g id="a_Node000002"><a xlink:href="class_harlinn_1_1_common_1_1_core_1_1_security_1_1_access_mask_t.html" target="_top" xlink:title=" ">
<polygon fill="white" stroke="#666666" points="629,-73.5 469,-73.5 469,-21.5 629,-21.5 629,-73.5"/>
<text text-anchor="start" x="477" y="-61.5" font-family="Helvetica,sans-Serif" font-size="10.00">Harlinn::Common::Core</text>
<text text-anchor="start" x="477" y="-50.5" font-family="Helvetica,sans-Serif" font-size="10.00">::Security::AccessMaskT</text>
<text text-anchor="start" x="477" y="-39.5" font-family="Helvetica,sans-Serif" font-size="10.00">&lt; EventWaitHandleAccessMask,</text>
<text text-anchor="middle" x="549" y="-28.5" font-family="Helvetica,sans-Serif" font-size="10.00"> EventWaitHandleRights &gt;</text>
</a>
</g>
</g>
<!-- Node2&#45;&gt;Node1 -->
<g id="edge1_Node000001_Node000002" class="edge">
<title>Node2&#45;&gt;Node1</title>
<g id="a_edge1_Node000001_Node000002"><a xlink:title=" ">
<path fill="none" stroke="#63b8ff" d="M640.78,-47.5C649.11,-47.5 657.49,-47.5 665.67,-47.5"/>
<polygon fill="#63b8ff" stroke="#63b8ff" points="640.99,-44 630.99,-47.5 640.99,-51 640.99,-44"/>
</a>
</g>
</g>
<!-- Node3 -->
<g id="Node000003" class="node">
<title>Node3</title>
<g id="a_Node000003"><a xlink:href="class_harlinn_1_1_common_1_1_core_1_1_security_1_1_access_mask.html" target="_top" xlink:title="An ACCESS_MASK wrapper class. The ACCESS_MASK data type is a DWORD value that defines standard,...">
<polygon fill="white" stroke="#666666" points="122,-59.5 0,-59.5 0,-29.5 122,-29.5 122,-59.5"/>
<text text-anchor="start" x="8" y="-47.5" font-family="Helvetica,sans-Serif" font-size="10.00">Harlinn::Common::Core</text>
<text text-anchor="middle" x="61" y="-36.5" font-family="Helvetica,sans-Serif" font-size="10.00">::Security::AccessMask</text>
</a>
</g>
</g>
<!-- Node3&#45;&gt;Node2 -->
<g id="edge2_Node000002_Node000003" class="edge">
<title>Node3&#45;&gt;Node2</title>
<g id="a_edge2_Node000002_Node000003"><a xlink:title=" ">
<path fill="none" stroke="#63b8ff" d="M133.46,-49.49C211.51,-54.25 340.17,-60.06 451,-55.5 456.74,-55.26 462.67,-54.95 468.63,-54.58"/>
<polygon fill="#63b8ff" stroke="#63b8ff" points="134.03,-46.02 123.84,-48.89 133.6,-53.01 134.03,-46.02"/>
</a>
</g>
</g>
<!-- Node4 -->
<g id="Node000004" class="node">
<title>Node4</title>
<g id="a_Node000004"><a xlink:href="class_harlinn_1_1_common_1_1_core_1_1_security_1_1_access_mask_t.html" target="_top" xlink:title=" ">
<polygon fill="white" stroke="#666666" points="286,-41 159,-41 159,0 286,0 286,-41"/>
<text text-anchor="start" x="167" y="-29" font-family="Helvetica,sans-Serif" font-size="10.00">Harlinn::Common::Core</text>
<text text-anchor="start" x="167" y="-18" font-family="Helvetica,sans-Serif" font-size="10.00">::Security::AccessMaskT</text>
<text text-anchor="middle" x="222.5" y="-7" font-family="Helvetica,sans-Serif" font-size="10.00">&lt; DerivedT, RightsT &gt;</text>
</a>
</g>
</g>
<!-- Node3&#45;&gt;Node4 -->
<g id="edge4_Node000004_Node000003" class="edge">
<title>Node3&#45;&gt;Node4</title>
<g id="a_edge4_Node000004_Node000003"><a xlink:title=" ">
<path fill="none" stroke="#63b8ff" d="M133.61,-33.72C141.99,-32.46 150.48,-31.19 158.72,-29.95"/>
<polygon fill="#63b8ff" stroke="#63b8ff" points="133.16,-30.25 123.8,-35.2 134.21,-37.17 133.16,-30.25"/>
</a>
</g>
</g>
<!-- Node4&#45;&gt;Node2 -->
<g id="edge3_Node000002_Node000004" class="edge">
<title>Node4&#45;&gt;Node2</title>
<g id="a_edge3_Node000002_Node000004"><a xlink:title=" ">
<path fill="none" stroke="orange" stroke-dasharray="5,2" d="M297.7,-23.12C342.22,-25.1 399.94,-28.37 451,-33.5 456.76,-34.08 462.69,-34.75 468.66,-35.48"/>
<polygon fill="orange" stroke="orange" points="298.03,-19.63 287.89,-22.7 297.73,-26.63 298.03,-19.63"/>
</a>
</g>
<text text-anchor="start" x="304" y="-47.5" font-family="Helvetica,sans-Serif" font-size="10.00" fill="grey"> &lt; EventWaitHandleAccessMask,</text>
<text text-anchor="middle" x="377.5" y="-36.5" font-family="Helvetica,sans-Serif" font-size="10.00" fill="grey"> EventWaitHandleRights &gt;</text>
</g>
</g>
</svg>
