<?xml version="1.0" encoding="UTF-8" standalone="no"?>
<!DOCTYPE svg PUBLIC "-//W3C//DTD SVG 1.1//EN"
 "http://www.w3.org/Graphics/SVG/1.1/DTD/svg11.dtd">
<!-- Generated by graphviz version 7.0.1 (20221109.1506)
 -->
<!-- Title: Harlinn.Common.Core.Net.Collections.Generic.SortedListEx&lt; TKey, TValue &gt; Pages: 1 -->
<svg width="637pt" height="124pt"
 viewBox="0.00 0.00 637.00 124.00" xmlns="http://www.w3.org/2000/svg" xmlns:xlink="http://www.w3.org/1999/xlink">
<g id="graph0" class="graph" transform="scale(1 1) rotate(0) translate(4 120)">
<title>Harlinn.Common.Core.Net.Collections.Generic.SortedListEx&lt; TKey, TValue &gt;</title>
<!-- Node1 -->
<g id="Node000001" class="node">
<title>Node1</title>
<g id="a_Node000001"><a xlink:title=" ">
<polygon fill="#999999" stroke="#666666" points="291,-78.5 142,-78.5 142,-37.5 291,-37.5 291,-78.5"/>
<text text-anchor="start" x="150" y="-66.5" font-family="Helvetica,sans-Serif" font-size="10.00">Harlinn.Common.Core.Net.</text>
<text text-anchor="start" x="150" y="-55.5" font-family="Helvetica,sans-Serif" font-size="10.00">Collections.Generic.SortedList</text>
<text text-anchor="middle" x="216.5" y="-44.5" font-family="Helvetica,sans-Serif" font-size="10.00">Ex&lt; TKey, TValue &gt;</text>
</a>
</g>
</g>
<!-- Node5 -->
<g id="Node000005" class="node">
<title>Node5</title>
<g id="a_Node000005"><a xlink:href="class_harlinn_1_1_common_1_1_core_1_1_net_1_1_collections_1_1_generic_1_1_sorted_list_ex.html" target="_top" xlink:title=" ">
<polygon fill="white" stroke="#666666" points="629,-78.5 437,-78.5 437,-37.5 629,-37.5 629,-78.5"/>
<text text-anchor="start" x="445" y="-66.5" font-family="Helvetica,sans-Serif" font-size="10.00">Harlinn.Common.Core.Net.</text>
<text text-anchor="start" x="445" y="-55.5" font-family="Helvetica,sans-Serif" font-size="10.00">Collections.Generic.SortedList</text>
<text text-anchor="middle" x="533" y="-44.5" font-family="Helvetica,sans-Serif" font-size="10.00">Ex&lt; TKey, WeakReference&lt; TValue &gt; &gt;</text>
</a>
</g>
</g>
<!-- Node1&#45;&gt;Node5 -->
<g id="edge4_Node000001_Node000005" class="edge">
<title>Node1&#45;&gt;Node5</title>
<g id="a_edge4_Node000001_Node000005"><a xlink:title=" ">
<path fill="none" stroke="orange" stroke-dasharray="5,2" d="M302.67,-58C344.08,-58 393.98,-58 436.65,-58"/>
<polygon fill="orange" stroke="orange" points="302.75,-54.5 292.75,-58 302.75,-61.5 302.75,-54.5"/>
</a>
</g>
<text text-anchor="start" x="309" y="-72" font-family="Helvetica,sans-Serif" font-size="10.00" fill="grey"> &lt; TKey, WeakReference</text>
<text text-anchor="middle" x="364" y="-61" font-family="Helvetica,sans-Serif" font-size="10.00" fill="grey">&lt; TValue &gt; &gt;</text>
</g>
<!-- Node2 -->
<g id="Node000002" class="node">
<title>Node2</title>
<g id="a_Node000002"><a xlink:title=" ">
<polygon fill="white" stroke="#666666" points="101,-116 4,-116 4,-86 101,-86 101,-116"/>
<text text-anchor="start" x="12" y="-104" font-family="Helvetica,sans-Serif" font-size="10.00">IDictionary&lt; TKey,</text>
<text text-anchor="middle" x="52.5" y="-93" font-family="Helvetica,sans-Serif" font-size="10.00"> TValue &gt;</text>
</a>
</g>
</g>
<!-- Node2&#45;&gt;Node1 -->
<g id="edge1_Node000001_Node000002" class="edge">
<title>Node2&#45;&gt;Node1</title>
<g id="a_edge1_Node000001_Node000002"><a xlink:title=" ">
<path fill="none" stroke="#63b8ff" d="M112.22,-85.41C121.78,-82.88 131.8,-80.22 141.67,-77.6"/>
<polygon fill="#63b8ff" stroke="#63b8ff" points="111.46,-81.99 102.69,-87.94 113.26,-88.76 111.46,-81.99"/>
</a>
</g>
</g>
<!-- Node3 -->
<g id="Node000003" class="node">
<title>Node3</title>
<g id="a_Node000003"><a xlink:title=" ">
<polygon fill="white" stroke="#666666" points="83.5,-67.5 21.5,-67.5 21.5,-48.5 83.5,-48.5 83.5,-67.5"/>
<text text-anchor="middle" x="52.5" y="-55.5" font-family="Helvetica,sans-Serif" font-size="10.00">IDictionary</text>
</a>
</g>
</g>
<!-- Node3&#45;&gt;Node1 -->
<g id="edge2_Node000001_Node000003" class="edge">
<title>Node3&#45;&gt;Node1</title>
<g id="a_edge2_Node000001_Node000003"><a xlink:title=" ">
<path fill="none" stroke="#63b8ff" d="M95.34,-58C109.54,-58 125.85,-58 141.78,-58"/>
<polygon fill="#63b8ff" stroke="#63b8ff" points="95.48,-54.5 85.48,-58 95.48,-61.5 95.48,-54.5"/>
</a>
</g>
</g>
<!-- Node4 -->
<g id="Node000004" class="node">
<title>Node4</title>
<g id="a_Node000004"><a xlink:title=" ">
<polygon fill="white" stroke="#666666" points="105,-30 0,-30 0,0 105,0 105,-30"/>
<text text-anchor="start" x="8" y="-18" font-family="Helvetica,sans-Serif" font-size="10.00">IReadOnlyDictionary</text>
<text text-anchor="middle" x="52.5" y="-7" font-family="Helvetica,sans-Serif" font-size="10.00">&lt; TKey, TValue &gt;</text>
</a>
</g>
</g>
<!-- Node4&#45;&gt;Node1 -->
<g id="edge3_Node000001_Node000004" class="edge">
<title>Node4&#45;&gt;Node1</title>
<g id="a_edge3_Node000001_Node000004"><a xlink:title=" ">
<path fill="none" stroke="#63b8ff" d="M116.29,-31.67C124.57,-33.86 133.11,-36.13 141.55,-38.37"/>
<polygon fill="#63b8ff" stroke="#63b8ff" points="117.23,-28.29 106.67,-29.11 115.43,-35.06 117.23,-28.29"/>
</a>
</g>
</g>
</g>
</svg>
