<?xml version="1.0" encoding="UTF-8" standalone="no"?>
<!DOCTYPE svg PUBLIC "-//W3C//DTD SVG 1.1//EN"
 "http://www.w3.org/Graphics/SVG/1.1/DTD/svg11.dtd">
<!-- Generated by graphviz version 7.0.1 (20221109.1506)
 -->
<!-- Title: Harlinn::Windows::Graphics::Imaging::MetadataQueryReader Pages: 1 -->
<svg width="534pt" height="87pt"
 viewBox="0.00 0.00 534.00 87.00" xmlns="http://www.w3.org/2000/svg" xmlns:xlink="http://www.w3.org/1999/xlink">
<g id="graph0" class="graph" transform="scale(1 1) rotate(0) translate(4 83)">
<title>Harlinn::Windows::Graphics::Imaging::MetadataQueryReader</title>
<!-- Node1 -->
<g id="Node000001" class="node">
<title>Node1</title>
<g id="a_Node000001"><a xlink:title="Exposes methods for retrieving metadata blocks and items from a decoder or its image frames using a m...">
<polygon fill="#999999" stroke="#666666" points="526,-79 366,-79 366,-49 526,-49 526,-79"/>
<text text-anchor="start" x="374" y="-67" font-family="Helvetica,sans-Serif" font-size="10.00">Harlinn::Windows::Graphics</text>
<text text-anchor="middle" x="446" y="-56" font-family="Helvetica,sans-Serif" font-size="10.00">::Imaging::MetadataQueryReader</text>
</a>
</g>
</g>
<!-- Node2 -->
<g id="Node000002" class="node">
<title>Node2</title>
<g id="a_Node000002"><a xlink:href="class_harlinn_1_1_windows_1_1_graphics_1_1_imaging_1_1_imaging_object.html" target="_top" xlink:title=" ">
<polygon fill="white" stroke="#666666" points="292,-54 155,-54 155,-24 292,-24 292,-54"/>
<text text-anchor="start" x="163" y="-42" font-family="Helvetica,sans-Serif" font-size="10.00">Harlinn::Windows::Graphics</text>
<text text-anchor="middle" x="223.5" y="-31" font-family="Helvetica,sans-Serif" font-size="10.00">::Imaging::ImagingObject</text>
</a>
</g>
</g>
<!-- Node2&#45;&gt;Node1 -->
<g id="edge1_Node000001_Node000002" class="edge">
<title>Node2&#45;&gt;Node1</title>
<g id="a_edge1_Node000001_Node000002"><a xlink:title=" ">
<path fill="none" stroke="#63b8ff" d="M303.79,-47.99C323.92,-50.27 345.54,-52.72 365.67,-55.01"/>
<polygon fill="#63b8ff" stroke="#63b8ff" points="304.29,-44.52 293.96,-46.88 303.5,-51.48 304.29,-44.52"/>
</a>
</g>
</g>
<!-- Node4 -->
<g id="Node000004" class="node">
<title>Node4</title>
<g id="a_Node000004"><a xlink:href="class_harlinn_1_1_windows_1_1_graphics_1_1_imaging_1_1_imaging_factory.html" target="_top" xlink:title="Exposes methods used to create components for the Windows Imaging Component (WIC) such as decoders,...">
<polygon fill="white" stroke="#666666" points="514.5,-30 377.5,-30 377.5,0 514.5,0 514.5,-30"/>
<text text-anchor="start" x="385.5" y="-18" font-family="Helvetica,sans-Serif" font-size="10.00">Harlinn::Windows::Graphics</text>
<text text-anchor="middle" x="446" y="-7" font-family="Helvetica,sans-Serif" font-size="10.00">::Imaging::ImagingFactory</text>
</a>
</g>
</g>
<!-- Node2&#45;&gt;Node4 -->
<g id="edge4_Node000004_Node000002" class="edge">
<title>Node2&#45;&gt;Node4</title>
<g id="a_edge4_Node000004_Node000002"><a xlink:title=" ">
<path fill="none" stroke="#63b8ff" d="M303.71,-30.38C327.79,-27.76 354.02,-24.9 377.27,-22.37"/>
<polygon fill="#63b8ff" stroke="#63b8ff" points="303.52,-26.88 293.96,-31.44 304.28,-33.84 303.52,-26.88"/>
</a>
</g>
</g>
<!-- Node3 -->
<g id="Node000003" class="node">
<title>Node3</title>
<g id="a_Node000003"><a xlink:href="class_harlinn_1_1_common_1_1_core_1_1_unknown.html" target="_top" xlink:title="Base class for COM interface wrappers.">
<polygon fill="white" stroke="#666666" points="118,-54 0,-54 0,-24 118,-24 118,-54"/>
<text text-anchor="start" x="8" y="-42" font-family="Helvetica,sans-Serif" font-size="10.00">Harlinn::Common::Core</text>
<text text-anchor="middle" x="59" y="-31" font-family="Helvetica,sans-Serif" font-size="10.00">::Unknown</text>
</a>
</g>
</g>
<!-- Node3&#45;&gt;Node2 -->
<g id="edge2_Node000002_Node000003" class="edge">
<title>Node3&#45;&gt;Node2</title>
<g id="a_edge2_Node000002_Node000003"><a xlink:title=" ">
<path fill="none" stroke="#63b8ff" d="M129.48,-39C137.85,-39 146.39,-39 154.73,-39"/>
<polygon fill="#63b8ff" stroke="#63b8ff" points="129.72,-35.5 119.72,-39 129.72,-42.5 129.72,-35.5"/>
</a>
</g>
</g>
<!-- Node4&#45;&gt;Node2 -->
<g id="edge3_Node000002_Node000004" class="edge">
<title>Node4&#45;&gt;Node2</title>
<g id="a_edge3_Node000002_Node000004"><a xlink:title=" ">
<path fill="none" stroke="#9a32cd" stroke-dasharray="5,2" d="M365.8,-10.46C347.41,-10.5 327.96,-11.43 310,-14 296.22,-15.97 281.56,-19.65 268.35,-23.59"/>
<polygon fill="#9a32cd" stroke="#9a32cd" points="365.55,-13.96 375.58,-10.54 365.61,-6.96 365.55,-13.96"/>
</a>
</g>
<text text-anchor="middle" x="329" y="-17" font-family="Helvetica,sans-Serif" font-size="10.00" fill="grey"> factory_</text>
</g>
</g>
</svg>
