<?xml version="1.0" encoding="UTF-8" standalone="no"?>
<!DOCTYPE svg PUBLIC "-//W3C//DTD SVG 1.1//EN"
 "http://www.w3.org/Graphics/SVG/1.1/DTD/svg11.dtd">
<!-- Generated by graphviz version 7.0.1 (20221109.1506)
 -->
<!-- Title: Harlinn::OCI::Bind Pages: 1 -->
<svg width="1578pt" height="485pt"
 viewBox="0.00 0.00 1578.00 485.00" xmlns="http://www.w3.org/2000/svg" xmlns:xlink="http://www.w3.org/1999/xlink">
<g id="graph0" class="graph" transform="scale(1 1) rotate(0) translate(4 481)">
<title>Harlinn::OCI::Bind</title>
<!-- Node1 -->
<g id="Node000001" class="node">
<title>Node1</title>
<g id="a_Node000001"><a xlink:title="Bind, base class for binding a single value.">
<polygon fill="#999999" stroke="#666666" points="414,-234 319,-234 319,-215 414,-215 414,-234"/>
<text text-anchor="middle" x="366.5" y="-222" font-family="Helvetica,sans-Serif" font-size="10.00">Harlinn::OCI::Bind</text>
</a>
</g>
</g>
<!-- Node4 -->
<g id="Node000004" class="node">
<title>Node4</title>
<g id="a_Node000004"><a xlink:href="class_harlinn_1_1_o_c_i_1_1_fixed_binary_bind.html" target="_top" xlink:title=" ">
<polygon fill="white" stroke="#666666" points="826,-215.5 699,-215.5 699,-185.5 826,-185.5 826,-215.5"/>
<text text-anchor="start" x="707" y="-203.5" font-family="Helvetica,sans-Serif" font-size="10.00">Harlinn::OCI::FixedBinary</text>
<text text-anchor="middle" x="762.5" y="-192.5" font-family="Helvetica,sans-Serif" font-size="10.00">Bind&lt; sizeof(Guid)&gt;</text>
</a>
</g>
</g>
<!-- Node1&#45;&gt;Node4 -->
<g id="edge3_Node000001_Node000004" class="edge">
<title>Node1&#45;&gt;Node4</title>
<g id="a_edge3_Node000001_Node000004"><a xlink:title=" ">
<path fill="none" stroke="#63b8ff" d="M405.67,-211.1C419.74,-206.81 435.91,-202.62 451,-200.5 536.14,-188.51 635.72,-191.46 698.7,-195.39"/>
<polygon fill="#63b8ff" stroke="#63b8ff" points="404.82,-207.69 396.35,-214.06 406.94,-214.36 404.82,-207.69"/>
</a>
</g>
</g>
<!-- Node6 -->
<g id="Node000006" class="node">
<title>Node6</title>
<g id="a_Node000006"><a xlink:href="class_harlinn_1_1_o_c_i_1_1_binary_bind.html" target="_top" xlink:title="BinaryBind.">
<polygon fill="white" stroke="#666666" points="580.5,-388 458.5,-388 458.5,-369 580.5,-369 580.5,-388"/>
<text text-anchor="middle" x="519.5" y="-376" font-family="Helvetica,sans-Serif" font-size="10.00">Harlinn::OCI::BinaryBind</text>
</a>
</g>
</g>
<!-- Node1&#45;&gt;Node6 -->
<g id="edge5_Node000001_Node000006" class="edge">
<title>Node1&#45;&gt;Node6</title>
<g id="a_edge5_Node000001_Node000006"><a xlink:title=" ">
<path fill="none" stroke="#63b8ff" d="M374.44,-244.94C385.68,-274.92 410.78,-330.53 451,-360.5 455.38,-363.76 460.3,-366.43 465.44,-368.62"/>
<polygon fill="#63b8ff" stroke="#63b8ff" points="377.75,-243.8 371.08,-235.56 371.16,-246.15 377.75,-243.8"/>
</a>
</g>
</g>
<!-- Node7 -->
<g id="Node000007" class="node">
<title>Node7</title>
<g id="a_Node000007"><a xlink:href="class_harlinn_1_1_o_c_i_1_1_blob_bind.html" target="_top" xlink:title="BlobBind.">
<polygon fill="white" stroke="#666666" points="576.5,-351 462.5,-351 462.5,-332 576.5,-332 576.5,-351"/>
<text text-anchor="middle" x="519.5" y="-339" font-family="Helvetica,sans-Serif" font-size="10.00">Harlinn::OCI::BlobBind</text>
</a>
</g>
</g>
<!-- Node1&#45;&gt;Node7 -->
<g id="edge6_Node000001_Node000007" class="edge">
<title>Node1&#45;&gt;Node7</title>
<g id="a_edge6_Node000001_Node000007"><a xlink:title=" ">
<path fill="none" stroke="#63b8ff" d="M378.9,-244.2C392.98,-266.76 419.02,-303.21 451,-323.5 456.12,-326.75 461.82,-329.42 467.67,-331.6"/>
<polygon fill="#63b8ff" stroke="#63b8ff" points="381.92,-242.43 373.76,-235.67 375.92,-246.04 381.92,-242.43"/>
</a>
</g>
</g>
<!-- Node8 -->
<g id="Node000008" class="node">
<title>Node8</title>
<g id="a_Node000008"><a xlink:href="class_harlinn_1_1_o_c_i_1_1_c_string_bind.html" target="_top" xlink:title="CStringBind, a bind type for a zero terminated wide c string.">
<polygon fill="white" stroke="#666666" points="583,-314 456,-314 456,-295 583,-295 583,-314"/>
<text text-anchor="middle" x="519.5" y="-302" font-family="Helvetica,sans-Serif" font-size="10.00">Harlinn::OCI::CStringBind</text>
</a>
</g>
</g>
<!-- Node1&#45;&gt;Node8 -->
<g id="edge7_Node000001_Node000008" class="edge">
<title>Node1&#45;&gt;Node8</title>
<g id="a_edge7_Node000001_Node000008"><a xlink:title=" ">
<path fill="none" stroke="#63b8ff" d="M386.44,-241.87C402.53,-255.77 426.8,-274.82 451,-286.5 457.55,-289.66 464.74,-292.33 471.91,-294.56"/>
<polygon fill="#63b8ff" stroke="#63b8ff" points="388.91,-239.38 379.1,-235.37 384.27,-244.62 388.91,-239.38"/>
</a>
</g>
</g>
<!-- Node9 -->
<g id="Node000009" class="node">
<title>Node9</title>
<g id="a_Node000009"><a xlink:href="class_harlinn_1_1_o_c_i_1_1_date_bind.html" target="_top" xlink:title="DateBind.">
<polygon fill="white" stroke="#666666" points="577,-277 462,-277 462,-258 577,-258 577,-277"/>
<text text-anchor="middle" x="519.5" y="-265" font-family="Helvetica,sans-Serif" font-size="10.00">Harlinn::OCI::DateBind</text>
</a>
</g>
</g>
<!-- Node1&#45;&gt;Node9 -->
<g id="edge8_Node000001_Node000009" class="edge">
<title>Node1&#45;&gt;Node9</title>
<g id="a_edge8_Node000001_Node000009"><a xlink:title=" ">
<path fill="none" stroke="#63b8ff" d="M413,-237.63C425.33,-241.17 438.67,-244.99 451,-248.5 461.42,-251.46 472.76,-254.66 483.11,-257.58"/>
<polygon fill="#63b8ff" stroke="#63b8ff" points="414.05,-234.29 403.47,-234.89 412.12,-241.01 414.05,-234.29"/>
</a>
</g>
</g>
<!-- Node10 -->
<g id="Node000010" class="node">
<title>Node10</title>
<g id="a_Node000010"><a xlink:href="class_harlinn_1_1_o_c_i_1_1_descriptor_base_bind.html" target="_top" xlink:title="DescriptorBaseBind.">
<polygon fill="white" stroke="#666666" points="579,-436.5 460,-436.5 460,-406.5 579,-406.5 579,-436.5"/>
<text text-anchor="start" x="468" y="-424.5" font-family="Helvetica,sans-Serif" font-size="10.00">Harlinn::OCI::Descriptor</text>
<text text-anchor="middle" x="519.5" y="-413.5" font-family="Helvetica,sans-Serif" font-size="10.00">BaseBind</text>
</a>
</g>
</g>
<!-- Node1&#45;&gt;Node10 -->
<g id="edge9_Node000001_Node000010" class="edge">
<title>Node1&#45;&gt;Node10</title>
<g id="a_edge9_Node000001_Node000010"><a xlink:title=" ">
<path fill="none" stroke="#63b8ff" d="M372.06,-245.34C380.99,-281.37 404.15,-355.46 451,-397.5 454.7,-400.82 458.9,-403.69 463.34,-406.17"/>
<polygon fill="#63b8ff" stroke="#63b8ff" points="375.51,-244.71 369.82,-235.77 368.69,-246.31 375.51,-244.71"/>
</a>
</g>
</g>
<!-- Node17 -->
<g id="Node000017" class="node">
<title>Node17</title>
<g id="a_Node000017"><a xlink:href="class_harlinn_1_1_o_c_i_1_1_fixed_binary_bind.html" target="_top" xlink:title="FixedBinaryBind.">
<polygon fill="white" stroke="#666666" points="583,-239.5 456,-239.5 456,-209.5 583,-209.5 583,-239.5"/>
<text text-anchor="start" x="464" y="-227.5" font-family="Helvetica,sans-Serif" font-size="10.00">Harlinn::OCI::FixedBinary</text>
<text text-anchor="middle" x="519.5" y="-216.5" font-family="Helvetica,sans-Serif" font-size="10.00">Bind&lt; size_ &gt;</text>
</a>
</g>
</g>
<!-- Node1&#45;&gt;Node17 -->
<g id="edge18_Node000001_Node000017" class="edge">
<title>Node1&#45;&gt;Node17</title>
<g id="a_edge18_Node000001_Node000017"><a xlink:title=" ">
<path fill="none" stroke="#63b8ff" d="M425.75,-224.5C435.58,-224.5 445.82,-224.5 455.76,-224.5"/>
<polygon fill="#63b8ff" stroke="#63b8ff" points="425.96,-221 415.96,-224.5 425.96,-228 425.96,-221"/>
</a>
</g>
</g>
<!-- Node18 -->
<g id="Node000018" class="node">
<title>Node18</title>
<g id="a_Node000018"><a xlink:href="class_harlinn_1_1_o_c_i_1_1_large_binary_ref_bind.html" target="_top" xlink:title="LargeBinaryRefBind.">
<polygon fill="white" stroke="#666666" points="583,-153.5 456,-153.5 456,-123.5 583,-123.5 583,-153.5"/>
<text text-anchor="start" x="464" y="-141.5" font-family="Helvetica,sans-Serif" font-size="10.00">Harlinn::OCI::LargeBinary</text>
<text text-anchor="middle" x="519.5" y="-130.5" font-family="Helvetica,sans-Serif" font-size="10.00">RefBind</text>
</a>
</g>
</g>
<!-- Node1&#45;&gt;Node18 -->
<g id="edge20_Node000001_Node000018" class="edge">
<title>Node1&#45;&gt;Node18</title>
<g id="a_edge20_Node000001_Node000018"><a xlink:title=" ">
<path fill="none" stroke="#63b8ff" d="M384.06,-206.44C396.29,-194.03 413.88,-177.96 432,-167.5 441.19,-162.19 451.49,-157.68 461.7,-153.9"/>
<polygon fill="#63b8ff" stroke="#63b8ff" points="381.6,-203.96 377.23,-213.61 386.66,-208.79 381.6,-203.96"/>
</a>
</g>
</g>
<!-- Node19 -->
<g id="Node000019" class="node">
<title>Node19</title>
<g id="a_Node000019"><a xlink:href="class_harlinn_1_1_o_c_i_1_1_ref_cursor_bind.html" target="_top" xlink:title="RefCursorBind.">
<polygon fill="white" stroke="#666666" points="588,-105 451,-105 451,-86 588,-86 588,-105"/>
<text text-anchor="middle" x="519.5" y="-93" font-family="Helvetica,sans-Serif" font-size="10.00">Harlinn::OCI::RefCursorBind</text>
</a>
</g>
</g>
<!-- Node1&#45;&gt;Node19 -->
<g id="edge21_Node000001_Node000019" class="edge">
<title>Node1&#45;&gt;Node19</title>
<g id="a_edge21_Node000001_Node000019"><a xlink:title=" ">
<path fill="none" stroke="#63b8ff" d="M377.43,-204.49C390.77,-179.67 416.8,-137.79 451,-114.5 456.43,-110.8 462.58,-107.81 468.89,-105.41"/>
<polygon fill="#63b8ff" stroke="#63b8ff" points="374.4,-202.73 372.91,-213.22 380.61,-205.95 374.4,-202.73"/>
</a>
</g>
</g>
<!-- Node20 -->
<g id="Node000020" class="node">
<title>Node20</title>
<g id="a_Node000020"><a xlink:href="class_harlinn_1_1_o_c_i_1_1_simple_bind.html" target="_top" xlink:title="SimpleBind, template for binding a single basic data type">
<polygon fill="white" stroke="#666666" points="582,-67.5 457,-67.5 457,-37.5 582,-37.5 582,-67.5"/>
<text text-anchor="start" x="465" y="-55.5" font-family="Helvetica,sans-Serif" font-size="10.00">Harlinn::OCI::SimpleBind</text>
<text text-anchor="middle" x="519.5" y="-44.5" font-family="Helvetica,sans-Serif" font-size="10.00">&lt; BT, externalType, IT &gt;</text>
</a>
</g>
</g>
<!-- Node1&#45;&gt;Node20 -->
<g id="edge22_Node000001_Node000020" class="edge">
<title>Node1&#45;&gt;Node20</title>
<g id="a_edge22_Node000001_Node000020"><a xlink:title=" ">
<path fill="none" stroke="#63b8ff" d="M373.82,-204.02C384.62,-172.31 409.56,-111.36 451,-76.5 454.9,-73.22 459.29,-70.37 463.9,-67.9"/>
<polygon fill="#63b8ff" stroke="#63b8ff" points="370.6,-202.6 370.84,-213.19 377.26,-204.76 370.6,-202.6"/>
</a>
</g>
</g>
<!-- Node21 -->
<g id="Node000021" class="node">
<title>Node21</title>
<g id="a_Node000021"><a xlink:href="class_harlinn_1_1_o_c_i_1_1_string_bind.html" target="_top" xlink:title="StringBind.">
<polygon fill="white" stroke="#666666" points="579.5,-19 459.5,-19 459.5,0 579.5,0 579.5,-19"/>
<text text-anchor="middle" x="519.5" y="-7" font-family="Helvetica,sans-Serif" font-size="10.00">Harlinn::OCI::StringBind</text>
</a>
</g>
</g>
<!-- Node1&#45;&gt;Node21 -->
<g id="edge23_Node000001_Node000021" class="edge">
<title>Node1&#45;&gt;Node21</title>
<g id="a_edge23_Node000001_Node000021"><a xlink:title=" ">
<path fill="none" stroke="#63b8ff" d="M370.43,-203.36C377.13,-163.19 397.36,-75.66 451,-28.5 455.21,-24.8 460.08,-21.82 465.25,-19.42"/>
<polygon fill="#63b8ff" stroke="#63b8ff" points="366.99,-202.71 368.93,-213.13 373.91,-203.77 366.99,-202.71"/>
</a>
</g>
</g>
<!-- Node2 -->
<g id="Node000002" class="node">
<title>Node2</title>
<g id="a_Node000002"><a xlink:href="class_harlinn_1_1_o_c_i_1_1_bind_base.html" target="_top" xlink:title="BindBase, base class for binds.">
<polygon fill="white" stroke="#666666" points="282,-234 165,-234 165,-215 282,-215 282,-234"/>
<text text-anchor="middle" x="223.5" y="-222" font-family="Helvetica,sans-Serif" font-size="10.00">Harlinn::OCI::BindBase</text>
</a>
</g>
</g>
<!-- Node2&#45;&gt;Node1 -->
<g id="edge1_Node000001_Node000002" class="edge">
<title>Node2&#45;&gt;Node1</title>
<g id="a_edge1_Node000001_Node000002"><a xlink:title=" ">
<path fill="none" stroke="#63b8ff" d="M293.48,-224.5C302.07,-224.5 310.68,-224.5 318.82,-224.5"/>
<polygon fill="#63b8ff" stroke="#63b8ff" points="293.77,-221 283.77,-224.5 293.77,-228 293.77,-221"/>
</a>
</g>
</g>
<!-- Node3 -->
<g id="Node000003" class="node">
<title>Node3</title>
<g id="a_Node000003"><a xlink:href="class_harlinn_1_1_o_c_i_1_1_handle_base.html" target="_top" xlink:title="Base class for OCI handle wrappers.">
<polygon fill="white" stroke="#666666" points="128,-234 0,-234 0,-215 128,-215 128,-234"/>
<text text-anchor="middle" x="64" y="-222" font-family="Helvetica,sans-Serif" font-size="10.00">Harlinn::OCI::HandleBase</text>
</a>
</g>
</g>
<!-- Node3&#45;&gt;Node2 -->
<g id="edge2_Node000002_Node000003" class="edge">
<title>Node3&#45;&gt;Node2</title>
<g id="a_edge2_Node000002_Node000003"><a xlink:title=" ">
<path fill="none" stroke="#63b8ff" d="M139.58,-224.5C148.01,-224.5 156.51,-224.5 164.69,-224.5"/>
<polygon fill="#63b8ff" stroke="#63b8ff" points="139.67,-221 129.67,-224.5 139.67,-228 139.67,-221"/>
</a>
</g>
</g>
<!-- Node5 -->
<g id="Node000005" class="node">
<title>Node5</title>
<g id="a_Node000005"><a xlink:href="class_harlinn_1_1_o_c_i_1_1_guid_bind.html" target="_top" xlink:title="GuidBind.">
<polygon fill="white" stroke="#666666" points="1138.5,-210 1023.5,-210 1023.5,-191 1138.5,-191 1138.5,-210"/>
<text text-anchor="middle" x="1081" y="-198" font-family="Helvetica,sans-Serif" font-size="10.00">Harlinn::OCI::GuidBind</text>
</a>
</g>
</g>
<!-- Node4&#45;&gt;Node5 -->
<g id="edge4_Node000004_Node000005" class="edge">
<title>Node4&#45;&gt;Node5</title>
<g id="a_edge4_Node000004_Node000005"><a xlink:title=" ">
<path fill="none" stroke="#63b8ff" d="M837.81,-200.5C894.44,-200.5 971.25,-200.5 1023.06,-200.5"/>
<polygon fill="#63b8ff" stroke="#63b8ff" points="837.92,-197 827.92,-200.5 837.92,-204 837.92,-197"/>
</a>
</g>
</g>
<!-- Node11 -->
<g id="Node000011" class="node">
<title>Node11</title>
<g id="a_Node000011"><a xlink:href="class_harlinn_1_1_o_c_i_1_1_descriptor_bind.html" target="_top" xlink:title=" ">
<polygon fill="white" stroke="#666666" points="1166,-403 996,-403 996,-362 1166,-362 1166,-403"/>
<text text-anchor="start" x="1004" y="-391" font-family="Helvetica,sans-Serif" font-size="10.00">Harlinn::OCI::Descriptor</text>
<text text-anchor="start" x="1004" y="-380" font-family="Helvetica,sans-Serif" font-size="10.00">Bind&lt; OCILobLocator, OCI</text>
<text text-anchor="middle" x="1081" y="-369" font-family="Helvetica,sans-Serif" font-size="10.00">::HandleType::LOB, externalType &gt;</text>
</a>
</g>
</g>
<!-- Node10&#45;&gt;Node11 -->
<g id="edge10_Node000010_Node000011" class="edge">
<title>Node10&#45;&gt;Node11</title>
<g id="a_edge10_Node000010_Node000011"><a xlink:title=" ">
<path fill="none" stroke="#63b8ff" d="M590.68,-408.63C622.2,-403.15 659.89,-397 694,-392.5 819.31,-375.98 851.64,-374.4 978,-377.5 983.76,-377.64 989.7,-377.83 995.69,-378.04"/>
<polygon fill="#63b8ff" stroke="#63b8ff" points="590.11,-405.18 580.86,-410.36 591.32,-412.08 590.11,-405.18"/>
</a>
</g>
</g>
<!-- Node14 -->
<g id="Node000014" class="node">
<title>Node14</title>
<g id="a_Node000014"><a xlink:href="class_harlinn_1_1_o_c_i_1_1_descriptor_bind.html" target="_top" xlink:title=" ">
<polygon fill="white" stroke="#666666" points="1161.5,-477 1000.5,-477 1000.5,-436 1161.5,-436 1161.5,-477"/>
<text text-anchor="start" x="1008.5" y="-465" font-family="Helvetica,sans-Serif" font-size="10.00">Harlinn::OCI::Descriptor</text>
<text text-anchor="start" x="1008.5" y="-454" font-family="Helvetica,sans-Serif" font-size="10.00">Bind&lt; OCIDateTime, handleType,</text>
<text text-anchor="middle" x="1081" y="-443" font-family="Helvetica,sans-Serif" font-size="10.00"> externalType &gt;</text>
</a>
</g>
</g>
<!-- Node10&#45;&gt;Node14 -->
<g id="edge13_Node000010_Node000014" class="edge">
<title>Node10&#45;&gt;Node14</title>
<g id="a_edge13_Node000010_Node000014"><a xlink:title=" ">
<path fill="none" stroke="#63b8ff" d="M590.33,-436.63C679.93,-454.27 840.24,-479.91 978,-470.5 985.22,-470.01 992.71,-469.32 1000.2,-468.51"/>
<polygon fill="#63b8ff" stroke="#63b8ff" points="591.21,-433.23 580.72,-434.71 589.84,-440.1 591.21,-433.23"/>
</a>
</g>
</g>
<!-- Node16 -->
<g id="Node000016" class="node">
<title>Node16</title>
<g id="a_Node000016"><a xlink:href="class_harlinn_1_1_o_c_i_1_1_descriptor_bind.html" target="_top" xlink:title="DescriptorBind.">
<polygon fill="white" stroke="#666666" points="831,-442 694,-442 694,-401 831,-401 831,-442"/>
<text text-anchor="start" x="702" y="-430" font-family="Helvetica,sans-Serif" font-size="10.00">Harlinn::OCI::Descriptor</text>
<text text-anchor="start" x="702" y="-419" font-family="Helvetica,sans-Serif" font-size="10.00">Bind&lt; OracleT, handleType,</text>
<text text-anchor="middle" x="762.5" y="-408" font-family="Helvetica,sans-Serif" font-size="10.00"> externalType &gt;</text>
</a>
</g>
</g>
<!-- Node10&#45;&gt;Node16 -->
<g id="edge15_Node000010_Node000016" class="edge">
<title>Node10&#45;&gt;Node16</title>
<g id="a_edge15_Node000010_Node000016"><a xlink:title=" ">
<path fill="none" stroke="#63b8ff" d="M590.68,-421.5C623.16,-421.5 661.6,-421.5 693.78,-421.5"/>
<polygon fill="#63b8ff" stroke="#63b8ff" points="590.97,-418 580.97,-421.5 590.97,-425 590.97,-418"/>
</a>
</g>
</g>
<!-- Node12 -->
<g id="Node000012" class="node">
<title>Node12</title>
<g id="a_Node000012"><a xlink:href="class_harlinn_1_1_o_c_i_1_1_lob_base_bind.html" target="_top" xlink:title="LobBaseBind.">
<polygon fill="white" stroke="#666666" points="1352,-397.5 1219,-397.5 1219,-367.5 1352,-367.5 1352,-397.5"/>
<text text-anchor="start" x="1227" y="-385.5" font-family="Helvetica,sans-Serif" font-size="10.00">Harlinn::OCI::LobBaseBind</text>
<text text-anchor="middle" x="1285.5" y="-374.5" font-family="Helvetica,sans-Serif" font-size="10.00">&lt; externalType &gt;</text>
</a>
</g>
</g>
<!-- Node11&#45;&gt;Node12 -->
<g id="edge11_Node000011_Node000012" class="edge">
<title>Node11&#45;&gt;Node12</title>
<g id="a_edge11_Node000011_Node000012"><a xlink:title=" ">
<path fill="none" stroke="#63b8ff" d="M1177.54,-382.5C1191.48,-382.5 1205.56,-382.5 1218.73,-382.5"/>
<polygon fill="#63b8ff" stroke="#63b8ff" points="1177.93,-379 1167.93,-382.5 1177.93,-386 1177.93,-379"/>
</a>
</g>
</g>
<!-- Node13 -->
<g id="Node000013" class="node">
<title>Node13</title>
<g id="a_Node000013"><a xlink:href="class_harlinn_1_1_o_c_i_1_1_c_lob_base_bind.html" target="_top" xlink:title="CLobBaseBind.">
<polygon fill="white" stroke="#666666" points="1570,-403 1405,-403 1405,-362 1570,-362 1570,-403"/>
<text text-anchor="start" x="1413" y="-391" font-family="Helvetica,sans-Serif" font-size="10.00">Harlinn::OCI::CLobBaseBind</text>
<text text-anchor="start" x="1413" y="-380" font-family="Helvetica,sans-Serif" font-size="10.00">&lt; externalType, characterSetForm</text>
<text text-anchor="middle" x="1487.5" y="-369" font-family="Helvetica,sans-Serif" font-size="10.00">Default &gt;</text>
</a>
</g>
</g>
<!-- Node12&#45;&gt;Node13 -->
<g id="edge12_Node000012_Node000013" class="edge">
<title>Node12&#45;&gt;Node13</title>
<g id="a_edge12_Node000012_Node000013"><a xlink:title=" ">
<path fill="none" stroke="#63b8ff" d="M1363.43,-382.5C1376.92,-382.5 1391.01,-382.5 1404.62,-382.5"/>
<polygon fill="#63b8ff" stroke="#63b8ff" points="1363.78,-379 1353.78,-382.5 1363.78,-386 1363.78,-379"/>
</a>
</g>
</g>
<!-- Node15 -->
<g id="Node000015" class="node">
<title>Node15</title>
<g id="a_Node000015"><a xlink:href="class_harlinn_1_1_o_c_i_1_1_timestamp_base_bind.html" target="_top" xlink:title="TimeStampBaseBind.">
<polygon fill="white" stroke="#666666" points="1368,-471.5 1203,-471.5 1203,-441.5 1368,-441.5 1368,-471.5"/>
<text text-anchor="start" x="1211" y="-459.5" font-family="Helvetica,sans-Serif" font-size="10.00">Harlinn::OCI::TimestampBase</text>
<text text-anchor="middle" x="1285.5" y="-448.5" font-family="Helvetica,sans-Serif" font-size="10.00">Bind&lt; handleType, externalType &gt;</text>
</a>
</g>
</g>
<!-- Node14&#45;&gt;Node15 -->
<g id="edge14_Node000014_Node000015" class="edge">
<title>Node14&#45;&gt;Node15</title>
<g id="a_edge14_Node000014_Node000015"><a xlink:title=" ">
<path fill="none" stroke="#63b8ff" d="M1173.14,-456.5C1182.93,-456.5 1192.84,-456.5 1202.5,-456.5"/>
<polygon fill="#63b8ff" stroke="#63b8ff" points="1173.26,-453 1163.26,-456.5 1173.26,-460 1173.26,-453"/>
</a>
</g>
</g>
<!-- Node16&#45;&gt;Node11 -->
<g id="edge16_Node000016_Node000011" class="edge">
<title>Node16&#45;&gt;Node11</title>
<g id="a_edge16_Node000016_Node000011"><a xlink:title=" ">
<path fill="none" stroke="orange" stroke-dasharray="5,2" d="M834.16,-397.67C839.15,-396.46 844.13,-395.38 849,-394.5 897.11,-385.8 951.71,-382.66 995.74,-381.76"/>
<polygon fill="orange" stroke="orange" points="833.53,-394.22 824.74,-400.14 835.3,-400.99 833.53,-394.22"/>
</a>
</g>
<text text-anchor="start" x="851.5" y="-419.5" font-family="Helvetica,sans-Serif" font-size="10.00" fill="grey"> &lt; OCILobLocator, OCI</text>
<text text-anchor="start" x="851.5" y="-408.5" font-family="Helvetica,sans-Serif" font-size="10.00" fill="grey">::HandleType::LOB, external</text>
<text text-anchor="middle" x="913.5" y="-397.5" font-family="Helvetica,sans-Serif" font-size="10.00" fill="grey">Type &gt;</text>
</g>
<!-- Node16&#45;&gt;Node14 -->
<g id="edge17_Node000016_Node000014" class="edge">
<title>Node16&#45;&gt;Node14</title>
<g id="a_edge17_Node000016_Node000014"><a xlink:title=" ">
<path fill="none" stroke="orange" stroke-dasharray="5,2" d="M842.7,-430.26C890.79,-435.58 951.99,-442.34 1000.19,-447.67"/>
<polygon fill="orange" stroke="orange" points="843.23,-426.8 832.9,-429.17 842.46,-433.75 843.23,-426.8"/>
</a>
</g>
<text text-anchor="start" x="849" y="-458.5" font-family="Helvetica,sans-Serif" font-size="10.00" fill="grey"> &lt; OCIDateTime, handleType,</text>
<text text-anchor="middle" x="913.5" y="-447.5" font-family="Helvetica,sans-Serif" font-size="10.00" fill="grey"> externalType &gt;</text>
</g>
<!-- Node17&#45;&gt;Node4 -->
<g id="edge19_Node000017_Node000004" class="edge">
<title>Node17&#45;&gt;Node4</title>
<g id="a_edge19_Node000017_Node000004"><a xlink:title=" ">
<path fill="none" stroke="orange" stroke-dasharray="5,2" d="M594.28,-217.15C627.68,-213.83 666.74,-209.94 698.7,-206.75"/>
<polygon fill="orange" stroke="orange" points="594.3,-213.63 584.7,-218.11 594.99,-220.6 594.3,-213.63"/>
</a>
</g>
<text text-anchor="middle" x="641" y="-218.5" font-family="Helvetica,sans-Serif" font-size="10.00" fill="grey"> &lt; sizeof(Guid)&gt;</text>
</g>
</g>
</svg>
