<?xml version="1.0" encoding="UTF-8" standalone="no"?>
<!DOCTYPE svg PUBLIC "-//W3C//DTD SVG 1.1//EN"
 "http://www.w3.org/Graphics/SVG/1.1/DTD/svg11.dtd">
<!-- Generated by graphviz version 7.0.1 (20221109.1506)
 -->
<!-- Title: Harlinn::Common::Core::IO::Sockets::Server::BufferedSocketStream&lt; ConnectionHandlerT &gt; Pages: 1 -->
<svg width="908pt" height="138pt"
 viewBox="0.00 0.00 908.00 137.50" xmlns="http://www.w3.org/2000/svg" xmlns:xlink="http://www.w3.org/1999/xlink">
<g id="graph0" class="graph" transform="scale(1 1) rotate(0) translate(4 133.5)">
<title>Harlinn::Common::Core::IO::Sockets::Server::BufferedSocketStream&lt; ConnectionHandlerT &gt;</title>
<!-- Node1 -->
<g id="Node000001" class="node">
<title>Node1</title>
<g id="a_Node000001"><a xlink:title=" ">
<polygon fill="#999999" stroke="#666666" points="900,-92.5 778,-92.5 778,-40.5 900,-40.5 900,-92.5"/>
<text text-anchor="start" x="786" y="-80.5" font-family="Helvetica,sans-Serif" font-size="10.00">Harlinn::Common::Core</text>
<text text-anchor="start" x="786" y="-69.5" font-family="Helvetica,sans-Serif" font-size="10.00">::IO::Sockets::Server</text>
<text text-anchor="start" x="786" y="-58.5" font-family="Helvetica,sans-Serif" font-size="10.00">::BufferedSocketStream</text>
<text text-anchor="middle" x="839" y="-47.5" font-family="Helvetica,sans-Serif" font-size="10.00">&lt; ConnectionHandlerT &gt;</text>
</a>
</g>
</g>
<!-- Node2 -->
<g id="Node000002" class="node">
<title>Node2</title>
<g id="a_Node000002"><a xlink:href="class_harlinn_1_1_common_1_1_core_1_1_i_o_1_1_sockets_1_1_tcp_socket.html" target="_top" xlink:title="Encapsulates a TCP socket descriptor.">
<polygon fill="white" stroke="#666666" points="690,-129.5 563,-129.5 563,-99.5 690,-99.5 690,-129.5"/>
<text text-anchor="start" x="571" y="-117.5" font-family="Helvetica,sans-Serif" font-size="10.00">Harlinn::Common::Core</text>
<text text-anchor="middle" x="626.5" y="-106.5" font-family="Helvetica,sans-Serif" font-size="10.00">::IO::Sockets::TcpSocket</text>
</a>
</g>
</g>
<!-- Node2&#45;&gt;Node1 -->
<g id="edge1_Node000001_Node000002" class="edge">
<title>Node2&#45;&gt;Node1</title>
<g id="a_edge1_Node000001_Node000002"><a xlink:title=" ">
<path fill="none" stroke="#9a32cd" stroke-dasharray="5,2" d="M701.27,-97.68C726.24,-91.99 753.81,-85.7 777.62,-80.27"/>
<polygon fill="#9a32cd" stroke="#9a32cd" points="700.82,-94.19 691.85,-99.83 702.38,-101.02 700.82,-94.19"/>
</a>
</g>
<text text-anchor="middle" x="734" y="-97.5" font-family="Helvetica,sans-Serif" font-size="10.00" fill="grey"> socket_</text>
</g>
<!-- Node3 -->
<g id="Node000003" class="node">
<title>Node3</title>
<g id="a_Node000003"><a xlink:href="class_harlinn_1_1_common_1_1_core_1_1_i_o_1_1_sockets_1_1_socket_t.html" target="_top" xlink:title="Specializes a Socket for a particular SocketType and a particular ProtocolType.">
<polygon fill="white" stroke="#666666" points="499,-129.5 354,-129.5 354,-99.5 499,-99.5 499,-129.5"/>
<text text-anchor="start" x="362" y="-117.5" font-family="Helvetica,sans-Serif" font-size="10.00">StreamSocket&lt; ProtocolType</text>
<text text-anchor="middle" x="426.5" y="-106.5" font-family="Helvetica,sans-Serif" font-size="10.00">::Tcp &gt;</text>
</a>
</g>
</g>
<!-- Node3&#45;&gt;Node2 -->
<g id="edge2_Node000002_Node000003" class="edge">
<title>Node3&#45;&gt;Node2</title>
<g id="a_edge2_Node000002_Node000003"><a xlink:title=" ">
<path fill="none" stroke="#63b8ff" d="M510.62,-114.5C528.1,-114.5 546.25,-114.5 562.82,-114.5"/>
<polygon fill="#63b8ff" stroke="#63b8ff" points="510.78,-111 500.78,-114.5 510.78,-118 510.78,-111"/>
</a>
</g>
</g>
<!-- Node4 -->
<g id="Node000004" class="node">
<title>Node4</title>
<g id="a_Node000004"><a xlink:href="class_harlinn_1_1_common_1_1_core_1_1_i_o_1_1_sockets_1_1_socket.html" target="_top" xlink:title="Represents a socket descriptor that is bound to a specific transport&#45;service provider.">
<polygon fill="white" stroke="#666666" points="226,-129.5 108,-129.5 108,-99.5 226,-99.5 226,-129.5"/>
<text text-anchor="start" x="116" y="-117.5" font-family="Helvetica,sans-Serif" font-size="10.00">Harlinn::Common::Core</text>
<text text-anchor="middle" x="167" y="-106.5" font-family="Helvetica,sans-Serif" font-size="10.00">::IO::Sockets::Socket</text>
</a>
</g>
</g>
<!-- Node4&#45;&gt;Node3 -->
<g id="edge3_Node000003_Node000004" class="edge">
<title>Node4&#45;&gt;Node3</title>
<g id="a_edge3_Node000003_Node000004"><a xlink:title=" ">
<path fill="none" stroke="#63b8ff" d="M237.79,-114.5C273.66,-114.5 317.32,-114.5 353.51,-114.5"/>
<polygon fill="#63b8ff" stroke="#63b8ff" points="237.94,-111 227.94,-114.5 237.94,-118 237.94,-111"/>
</a>
</g>
</g>
<!-- Node5 -->
<g id="Node000005" class="node">
<title>Node5</title>
<g id="a_Node000005"><a xlink:href="class_harlinn_1_1_common_1_1_core_1_1_i_o_1_1_sockets_1_1_server_1_1_buffer.html" target="_top" xlink:title=" ">
<polygon fill="white" stroke="#666666" points="685.5,-41 567.5,-41 567.5,0 685.5,0 685.5,-41"/>
<text text-anchor="start" x="575.5" y="-29" font-family="Helvetica,sans-Serif" font-size="10.00">Harlinn::Common::Core</text>
<text text-anchor="start" x="575.5" y="-18" font-family="Helvetica,sans-Serif" font-size="10.00">::IO::Sockets::Server</text>
<text text-anchor="middle" x="626.5" y="-7" font-family="Helvetica,sans-Serif" font-size="10.00">::Buffer</text>
</a>
</g>
</g>
<!-- Node5&#45;&gt;Node1 -->
<g id="edge4_Node000001_Node000005" class="edge">
<title>Node5&#45;&gt;Node1</title>
<g id="a_edge4_Node000001_Node000005"><a xlink:title=" ">
<path fill="none" stroke="#9a32cd" stroke-dasharray="5,2" d="M696.83,-35.65C722.96,-41.36 752.45,-47.81 777.7,-53.32"/>
<polygon fill="#9a32cd" stroke="#9a32cd" points="697.85,-32.29 687.34,-33.58 696.36,-39.13 697.85,-32.29"/>
</a>
</g>
<text text-anchor="middle" x="734" y="-62.5" font-family="Helvetica,sans-Serif" font-size="10.00" fill="grey"> readBuffer_</text>
<text text-anchor="middle" x="734" y="-51.5" font-family="Helvetica,sans-Serif" font-size="10.00" fill="grey">writeBuffer_</text>
</g>
<!-- Node5&#45;&gt;Node5 -->
<g id="edge5_Node000005_Node000005" class="edge">
<title>Node5&#45;&gt;Node5</title>
<g id="a_edge5_Node000005_Node000005"><a xlink:title=" ">
<path fill="none" stroke="#9a32cd" stroke-dasharray="5,2" d="M611.01,-52.51C613.78,-56.43 618.95,-59 626.5,-59 639.93,-59 645.81,-50.88 644.13,-41.49"/>
<polygon fill="#9a32cd" stroke="#9a32cd" points="614.5,-52.13 609.16,-42.97 607.63,-53.46 614.5,-52.13"/>
</a>
</g>
<text text-anchor="middle" x="626.5" y="-73" font-family="Helvetica,sans-Serif" font-size="10.00" fill="grey"> next_</text>
<text text-anchor="middle" x="626.5" y="-62" font-family="Helvetica,sans-Serif" font-size="10.00" fill="grey">previous_</text>
</g>
<!-- Node6 -->
<g id="Node000006" class="node">
<title>Node6</title>
<g id="a_Node000006"><a xlink:title=" ">
<polygon fill="white" stroke="#666666" points="485.5,-35.5 367.5,-35.5 367.5,-5.5 485.5,-5.5 485.5,-35.5"/>
<text text-anchor="start" x="375.5" y="-23.5" font-family="Helvetica,sans-Serif" font-size="10.00">std::array&lt; Byte, Buffer</text>
<text text-anchor="middle" x="426.5" y="-12.5" font-family="Helvetica,sans-Serif" font-size="10.00">Size &gt;</text>
</a>
</g>
</g>
<!-- Node6&#45;&gt;Node5 -->
<g id="edge6_Node000005_Node000006" class="edge">
<title>Node6&#45;&gt;Node5</title>
<g id="a_edge6_Node000005_Node000006"><a xlink:title=" ">
<path fill="none" stroke="#9a32cd" stroke-dasharray="5,2" d="M497.21,-20.5C520.1,-20.5 545.29,-20.5 567.24,-20.5"/>
<polygon fill="#9a32cd" stroke="#9a32cd" points="497.35,-17 487.35,-20.5 497.35,-24 497.35,-17"/>
</a>
</g>
<text text-anchor="middle" x="531" y="-23.5" font-family="Helvetica,sans-Serif" font-size="10.00" fill="grey"> data_</text>
</g>
<!-- Node7 -->
<g id="Node000007" class="node">
<title>Node7</title>
<g id="a_Node000007"><a xlink:title=" ">
<polygon fill="white" stroke="#666666" points="207.5,-30 126.5,-30 126.5,-11 207.5,-11 207.5,-30"/>
<text text-anchor="middle" x="167" y="-18" font-family="Helvetica,sans-Serif" font-size="10.00">std::array&lt; T &gt;</text>
</a>
</g>
</g>
<!-- Node7&#45;&gt;Node6 -->
<g id="edge7_Node000006_Node000007" class="edge">
<title>Node7&#45;&gt;Node6</title>
<g id="a_edge7_Node000006_Node000007"><a xlink:title=" ">
<path fill="none" stroke="orange" stroke-dasharray="5,2" d="M219.21,-20.5C261.9,-20.5 322.72,-20.5 367.26,-20.5"/>
<polygon fill="orange" stroke="orange" points="219.47,-17 209.47,-20.5 219.47,-24 219.47,-17"/>
</a>
</g>
<text text-anchor="middle" x="290" y="-23.5" font-family="Helvetica,sans-Serif" font-size="10.00" fill="grey"> &lt; Byte, BufferSize &gt;</text>
</g>
<!-- Node8 -->
<g id="Node000008" class="node">
<title>Node8</title>
<g id="a_Node000008"><a xlink:title=" ">
<polygon fill="white" stroke="#666666" points="29,-30 0,-30 0,-11 29,-11 29,-30"/>
<text text-anchor="middle" x="14.5" y="-18" font-family="Helvetica,sans-Serif" font-size="10.00">T</text>
</a>
</g>
</g>
<!-- Node8&#45;&gt;Node7 -->
<g id="edge8_Node000007_Node000008" class="edge">
<title>Node8&#45;&gt;Node7</title>
<g id="a_edge8_Node000007_Node000008"><a xlink:title=" ">
<path fill="none" stroke="#9a32cd" stroke-dasharray="5,2" d="M40.69,-20.5C63.97,-20.5 98.95,-20.5 126.04,-20.5"/>
<polygon fill="#9a32cd" stroke="#9a32cd" points="40.9,-17 30.9,-20.5 40.9,-24 40.9,-17"/>
</a>
</g>
<text text-anchor="middle" x="68.5" y="-23.5" font-family="Helvetica,sans-Serif" font-size="10.00" fill="grey"> elements</text>
</g>
</g>
</svg>
