<?xml version="1.0" encoding="UTF-8" standalone="no"?>
<!DOCTYPE svg PUBLIC "-//W3C//DTD SVG 1.1//EN"
 "http://www.w3.org/Graphics/SVG/1.1/DTD/svg11.dtd">
<!-- Generated by graphviz version 7.0.1 (20221109.1506)
 -->
<!-- Title: Harlinn::Common::Core::Security::SchannelClientSecurityContext Pages: 1 -->
<svg width="174pt" height="192pt"
 viewBox="0.00 0.00 174.00 192.00" xmlns="http://www.w3.org/2000/svg" xmlns:xlink="http://www.w3.org/1999/xlink">
<g id="graph0" class="graph" transform="scale(1 1) rotate(0) translate(4 188)">
<title>Harlinn::Common::Core::Security::SchannelClientSecurityContext</title>
<!-- Node1 -->
<g id="Node000001" class="node">
<title>Node1</title>
<g id="a_Node000001"><a xlink:title="A client security context for Schannel SSPI.">
<polygon fill="#999999" stroke="#666666" points="166,-41 0,-41 0,0 166,0 166,-41"/>
<text text-anchor="start" x="8" y="-29" font-family="Helvetica,sans-Serif" font-size="10.00">Harlinn::Common::Core</text>
<text text-anchor="start" x="8" y="-18" font-family="Helvetica,sans-Serif" font-size="10.00">::Security::SchannelClientSecurity</text>
<text text-anchor="middle" x="83" y="-7" font-family="Helvetica,sans-Serif" font-size="10.00">Context</text>
</a>
</g>
</g>
<!-- Node2 -->
<g id="Node000002" class="node">
<title>Node2</title>
<g id="a_Node000002"><a xlink:href="class_harlinn_1_1_common_1_1_core_1_1_security_1_1_schannel_security_context.html" target="_top" xlink:title="A security context for Schannel SSPI.">
<polygon fill="white" stroke="#666666" points="153.5,-118 12.5,-118 12.5,-77 153.5,-77 153.5,-118"/>
<text text-anchor="start" x="20.5" y="-106" font-family="Helvetica,sans-Serif" font-size="10.00">Harlinn::Common::Core</text>
<text text-anchor="start" x="20.5" y="-95" font-family="Helvetica,sans-Serif" font-size="10.00">::Security::SchannelSecurity</text>
<text text-anchor="middle" x="83" y="-84" font-family="Helvetica,sans-Serif" font-size="10.00">Context</text>
</a>
</g>
</g>
<!-- Node2&#45;&gt;Node1 -->
<g id="edge1_Node000001_Node000002" class="edge">
<title>Node2&#45;&gt;Node1</title>
<g id="a_edge1_Node000001_Node000002"><a xlink:title=" ">
<path fill="none" stroke="#63b8ff" d="M83,-65.36C83,-57.24 83,-48.7 83,-41.33"/>
<polygon fill="#63b8ff" stroke="#63b8ff" points="79.5,-65.28 83,-75.28 86.5,-65.28 79.5,-65.28"/>
</a>
</g>
</g>
<!-- Node3 -->
<g id="Node000003" class="node">
<title>Node3</title>
<g id="a_Node000003"><a xlink:href="class_harlinn_1_1_common_1_1_core_1_1_security_1_1_security_context.html" target="_top" xlink:title="A wrapper for the Windows CtxtHandle type.">
<polygon fill="white" stroke="#666666" points="150,-184 16,-184 16,-154 150,-154 150,-184"/>
<text text-anchor="start" x="24" y="-172" font-family="Helvetica,sans-Serif" font-size="10.00">Harlinn::Common::Core</text>
<text text-anchor="middle" x="83" y="-161" font-family="Helvetica,sans-Serif" font-size="10.00">::Security::SecurityContext</text>
</a>
</g>
</g>
<!-- Node3&#45;&gt;Node2 -->
<g id="edge2_Node000002_Node000003" class="edge">
<title>Node3&#45;&gt;Node2</title>
<g id="a_edge2_Node000002_Node000003"><a xlink:title=" ">
<path fill="none" stroke="#63b8ff" d="M83,-142.36C83,-134.45 83,-125.87 83,-118.42"/>
<polygon fill="#63b8ff" stroke="#63b8ff" points="79.5,-142.09 83,-152.09 86.5,-142.09 79.5,-142.09"/>
</a>
</g>
</g>
</g>
</svg>
