<?xml version="1.0" encoding="UTF-8" standalone="no"?>
<!DOCTYPE svg PUBLIC "-//W3C//DTD SVG 1.1//EN"
 "http://www.w3.org/Graphics/SVG/1.1/DTD/svg11.dtd">
<!-- Generated by graphviz version 7.0.1 (20221109.1506)
 -->
<!-- Title: Harlinn::Common::Core::IWbemObjectSinkDispatcher&lt; ContainerT &gt; Pages: 1 -->
<svg width="764pt" height="60pt"
 viewBox="0.00 0.00 764.00 60.00" xmlns="http://www.w3.org/2000/svg" xmlns:xlink="http://www.w3.org/1999/xlink">
<g id="graph0" class="graph" transform="scale(1 1) rotate(0) translate(4 56)">
<title>Harlinn::Common::Core::IWbemObjectSinkDispatcher&lt; ContainerT &gt;</title>
<!-- Node1 -->
<g id="Node000001" class="node">
<title>Node1</title>
<g id="a_Node000001"><a xlink:title=" ">
<polygon fill="#999999" stroke="#666666" points="756,-46.5 608,-46.5 608,-5.5 756,-5.5 756,-46.5"/>
<text text-anchor="start" x="616" y="-34.5" font-family="Helvetica,sans-Serif" font-size="10.00">Harlinn::Common::Core</text>
<text text-anchor="start" x="616" y="-23.5" font-family="Helvetica,sans-Serif" font-size="10.00">::IWbemObjectSinkDispatcher</text>
<text text-anchor="middle" x="682" y="-12.5" font-family="Helvetica,sans-Serif" font-size="10.00">&lt; ContainerT &gt;</text>
</a>
</g>
</g>
<!-- Node2 -->
<g id="Node000002" class="node">
<title>Node2</title>
<g id="a_Node000002"><a xlink:href="class_harlinn_1_1_common_1_1_core_1_1_i_wbem_object_sink_dispatcher_base.html" target="_top" xlink:title=" ">
<polygon fill="white" stroke="#666666" points="572,-52 424,-52 424,0 572,0 572,-52"/>
<text text-anchor="start" x="432" y="-40" font-family="Helvetica,sans-Serif" font-size="10.00">Harlinn::Common::Core</text>
<text text-anchor="start" x="432" y="-29" font-family="Helvetica,sans-Serif" font-size="10.00">::IWbemObjectSinkDispatcher</text>
<text text-anchor="start" x="432" y="-18" font-family="Helvetica,sans-Serif" font-size="10.00">Base&lt; DerivedT, InterfaceT,</text>
<text text-anchor="middle" x="498" y="-7" font-family="Helvetica,sans-Serif" font-size="10.00"> ContainerT, InterfaceTypes &gt;</text>
</a>
</g>
</g>
<!-- Node2&#45;&gt;Node1 -->
<g id="edge1_Node000001_Node000002" class="edge">
<title>Node2&#45;&gt;Node1</title>
<g id="a_edge1_Node000001_Node000002"><a xlink:title=" ">
<path fill="none" stroke="#63b8ff" d="M583.54,-26C591.58,-26 599.69,-26 607.61,-26"/>
<polygon fill="#63b8ff" stroke="#63b8ff" points="583.75,-22.5 573.75,-26 583.75,-29.5 583.75,-22.5"/>
</a>
</g>
</g>
<!-- Node3 -->
<g id="Node000003" class="node">
<title>Node3</title>
<g id="a_Node000003"><a xlink:href="class_harlinn_1_1_common_1_1_core_1_1_i_wbem_object_sink_implementation_base.html" target="_top" xlink:title=" ">
<polygon fill="white" stroke="#666666" points="388,-52 221,-52 221,0 388,0 388,-52"/>
<text text-anchor="start" x="229" y="-40" font-family="Helvetica,sans-Serif" font-size="10.00">Harlinn::Common::Core</text>
<text text-anchor="start" x="229" y="-29" font-family="Helvetica,sans-Serif" font-size="10.00">::IWbemObjectSinkImplementation</text>
<text text-anchor="start" x="229" y="-18" font-family="Helvetica,sans-Serif" font-size="10.00">Base&lt; DerivedT, InterfaceT,</text>
<text text-anchor="middle" x="304.5" y="-7" font-family="Helvetica,sans-Serif" font-size="10.00"> ContainerT, InterfaceTypes &gt;</text>
</a>
</g>
</g>
<!-- Node3&#45;&gt;Node2 -->
<g id="edge2_Node000002_Node000003" class="edge">
<title>Node3&#45;&gt;Node2</title>
<g id="a_edge2_Node000002_Node000003"><a xlink:title=" ">
<path fill="none" stroke="#63b8ff" d="M399.71,-26C407.74,-26 415.79,-26 423.62,-26"/>
<polygon fill="#63b8ff" stroke="#63b8ff" points="399.89,-22.5 389.89,-26 399.89,-29.5 399.89,-22.5"/>
</a>
</g>
</g>
<!-- Node4 -->
<g id="Node000004" class="node">
<title>Node4</title>
<g id="a_Node000004"><a xlink:title=" ">
<polygon fill="white" stroke="#666666" points="185,-46.5 0,-46.5 0,-5.5 185,-5.5 185,-46.5"/>
<text text-anchor="start" x="8" y="-34.5" font-family="Helvetica,sans-Serif" font-size="10.00">IUnknownImplementation</text>
<text text-anchor="start" x="8" y="-23.5" font-family="Helvetica,sans-Serif" font-size="10.00">&lt; DerivedT, IWbemObjectSink,</text>
<text text-anchor="middle" x="92.5" y="-12.5" font-family="Helvetica,sans-Serif" font-size="10.00"> IWbemObjectSink, InterfaceTypes... &gt;</text>
</a>
</g>
</g>
<!-- Node4&#45;&gt;Node3 -->
<g id="edge3_Node000003_Node000004" class="edge">
<title>Node4&#45;&gt;Node3</title>
<g id="a_edge3_Node000003_Node000004"><a xlink:title=" ">
<path fill="none" stroke="#63b8ff" d="M196.7,-26C204.78,-26 212.88,-26 220.8,-26"/>
<polygon fill="#63b8ff" stroke="#63b8ff" points="196.82,-22.5 186.82,-26 196.82,-29.5 196.82,-22.5"/>
</a>
</g>
</g>
</g>
</svg>
