<?xml version="1.0" encoding="UTF-8" standalone="no"?>
<!DOCTYPE svg PUBLIC "-//W3C//DTD SVG 1.1//EN"
 "http://www.w3.org/Graphics/SVG/1.1/DTD/svg11.dtd">
<!-- Generated by graphviz version 7.0.1 (20221109.1506)
 -->
<!-- Title: Harlinn::Common::Core::Logging::Sinks::LMDBSink Pages: 1 -->
<svg width="1489pt" height="174pt"
 viewBox="0.00 0.00 1489.00 174.00" xmlns="http://www.w3.org/2000/svg" xmlns:xlink="http://www.w3.org/1999/xlink">
<g id="graph0" class="graph" transform="scale(1 1) rotate(0) translate(4 170)">
<title>Harlinn::Common::Core::Logging::Sinks::LMDBSink</title>
<!-- Node1 -->
<g id="Node000001" class="node">
<title>Node1</title>
<g id="a_Node000001"><a xlink:title=" ">
<polygon fill="#999999" stroke="#666666" points="1481,-106 1341,-106 1341,-76 1481,-76 1481,-106"/>
<text text-anchor="start" x="1349" y="-94" font-family="Helvetica,sans-Serif" font-size="10.00">Harlinn::Common::Core</text>
<text text-anchor="middle" x="1411" y="-83" font-family="Helvetica,sans-Serif" font-size="10.00">::Logging::Sinks::LMDBSink</text>
</a>
</g>
</g>
<!-- Node2 -->
<g id="Node000002" class="node">
<title>Node2</title>
<g id="a_Node000002"><a xlink:href="class_harlinn_1_1_common_1_1_core_1_1_concurrency_1_1_active_object.xhtml" target="_top" xlink:title=" ">
<polygon fill="white" stroke="#666666" points="1304,-111.5 1100,-111.5 1100,-70.5 1304,-70.5 1304,-111.5"/>
<text text-anchor="start" x="1108" y="-99.5" font-family="Helvetica,sans-Serif" font-size="10.00">Harlinn::Common::Core</text>
<text text-anchor="start" x="1108" y="-88.5" font-family="Helvetica,sans-Serif" font-size="10.00">::Concurrency::ActiveObject</text>
<text text-anchor="middle" x="1202" y="-77.5" font-family="Helvetica,sans-Serif" font-size="10.00">&lt; std::shared_ptr&lt; LMDBSinkMessage &gt; &gt;</text>
</a>
</g>
</g>
<!-- Node2&#45;&gt;Node1 -->
<g id="edge1_Node000001_Node000002" class="edge">
<title>Node2&#45;&gt;Node1</title>
<g id="a_edge1_Node000001_Node000002"><a xlink:title=" ">
<path fill="none" stroke="#63b8ff" d="M1315.61,-91C1324.12,-91 1332.56,-91 1340.68,-91"/>
<polygon fill="#63b8ff" stroke="#63b8ff" points="1315.89,-87.5 1305.89,-91 1315.89,-94.5 1315.89,-87.5"/>
</a>
</g>
</g>
<!-- Node3 -->
<g id="Node000003" class="node">
<title>Node3</title>
<g id="a_Node000003"><a xlink:href="class_harlinn_1_1_common_1_1_core_1_1_concurrency_1_1_active_object_base.xhtml" target="_top" xlink:title=" ">
<polygon fill="white" stroke="#666666" points="752,-166 543,-166 543,-114 752,-114 752,-166"/>
<text text-anchor="start" x="551" y="-154" font-family="Helvetica,sans-Serif" font-size="10.00">Harlinn::Common::Core</text>
<text text-anchor="start" x="551" y="-143" font-family="Helvetica,sans-Serif" font-size="10.00">::Concurrency::ActiveObject</text>
<text text-anchor="start" x="551" y="-132" font-family="Helvetica,sans-Serif" font-size="10.00">Base&lt; std::shared_ptr&lt; LMDBSinkMessage</text>
<text text-anchor="middle" x="647.5" y="-121" font-family="Helvetica,sans-Serif" font-size="10.00"> &gt;, maxQueueSize &gt;</text>
</a>
</g>
</g>
<!-- Node3&#45;&gt;Node2 -->
<g id="edge2_Node000002_Node000003" class="edge">
<title>Node3&#45;&gt;Node2</title>
<g id="a_edge2_Node000002_Node000003"><a xlink:title=" ">
<path fill="none" stroke="#63b8ff" d="M763.61,-138.96C851.24,-136.95 974.67,-131.48 1082,-117 1091.95,-115.66 1102.31,-113.92 1112.58,-111.98"/>
<polygon fill="#63b8ff" stroke="#63b8ff" points="763.73,-135.46 753.81,-139.17 763.88,-142.46 763.73,-135.46"/>
</a>
</g>
</g>
<!-- Node4 -->
<g id="Node000004" class="node">
<title>Node4</title>
<g id="a_Node000004"><a xlink:href="class_harlinn_1_1_common_1_1_core_1_1_concurrency_1_1_active_object_base.xhtml" target="_top" xlink:title=" ">
<polygon fill="white" stroke="#666666" points="175,-136.5 0,-136.5 0,-95.5 175,-95.5 175,-136.5"/>
<text text-anchor="start" x="8" y="-124.5" font-family="Helvetica,sans-Serif" font-size="10.00">Harlinn::Common::Core</text>
<text text-anchor="start" x="8" y="-113.5" font-family="Helvetica,sans-Serif" font-size="10.00">::Concurrency::ActiveObject</text>
<text text-anchor="middle" x="87.5" y="-102.5" font-family="Helvetica,sans-Serif" font-size="10.00">Base&lt; MessageT, maxQueueSize &gt;</text>
</a>
</g>
</g>
<!-- Node4&#45;&gt;Node3 -->
<g id="edge3_Node000003_Node000004" class="edge">
<title>Node4&#45;&gt;Node3</title>
<g id="a_edge3_Node000003_Node000004"><a xlink:title=" ">
<path fill="none" stroke="orange" stroke-dasharray="5,2" d="M186.68,-120.22C286.6,-124.52 440.85,-131.15 542.73,-135.54"/>
<polygon fill="orange" stroke="orange" points="187.03,-116.73 176.89,-119.8 186.73,-123.73 187.03,-116.73"/>
</a>
</g>
<text text-anchor="start" x="211.5" y="-151" font-family="Helvetica,sans-Serif" font-size="10.00" fill="grey"> &lt; std::shared_ptr&lt;</text>
<text text-anchor="start" x="211.5" y="-140" font-family="Helvetica,sans-Serif" font-size="10.00" fill="grey"> LMDBSinkMessage &gt;,</text>
<text text-anchor="middle" x="262.5" y="-129" font-family="Helvetica,sans-Serif" font-size="10.00" fill="grey"> maxQueueSize &gt;</text>
</g>
<!-- Node7 -->
<g id="Node000007" class="node">
<title>Node7</title>
<g id="a_Node000007"><a xlink:href="class_harlinn_1_1_common_1_1_core_1_1_concurrency_1_1_active_object_base.xhtml" target="_top" xlink:title=" ">
<polygon fill="white" stroke="#666666" points="525,-111.5 350,-111.5 350,-70.5 525,-70.5 525,-111.5"/>
<text text-anchor="start" x="358" y="-99.5" font-family="Helvetica,sans-Serif" font-size="10.00">Harlinn::Common::Core</text>
<text text-anchor="start" x="358" y="-88.5" font-family="Helvetica,sans-Serif" font-size="10.00">::Concurrency::ActiveObject</text>
<text text-anchor="middle" x="437.5" y="-77.5" font-family="Helvetica,sans-Serif" font-size="10.00">Base&lt; MessageT, maxQueueSize &gt;</text>
</a>
</g>
</g>
<!-- Node4&#45;&gt;Node7 -->
<g id="edge7_Node000007_Node000004" class="edge">
<title>Node4&#45;&gt;Node7</title>
<g id="a_edge7_Node000007_Node000004"><a xlink:title=" ">
<path fill="none" stroke="orange" stroke-dasharray="5,2" d="M186.77,-107.48C188.87,-107.32 190.94,-107.16 193,-107 244.96,-103.06 303.2,-99.21 349.69,-96.27"/>
<polygon fill="orange" stroke="orange" points="186.65,-103.98 176.96,-108.26 187.2,-110.96 186.65,-103.98"/>
</a>
</g>
<text text-anchor="middle" x="262.5" y="-110" font-family="Helvetica,sans-Serif" font-size="10.00" fill="grey"> &lt; MessageT, maxQueueSize &gt;</text>
</g>
<!-- Node5 -->
<g id="Node000005" class="node">
<title>Node5</title>
<g id="a_Node000005"><a xlink:title=" ">
<polygon fill="white" stroke="#666666" points="956,-52 770,-52 770,0 956,0 956,-52"/>
<text text-anchor="start" x="778" y="-40" font-family="Helvetica,sans-Serif" font-size="10.00">std::enable_shared</text>
<text text-anchor="start" x="778" y="-29" font-family="Helvetica,sans-Serif" font-size="10.00">_from_this&lt; ActiveObject</text>
<text text-anchor="start" x="778" y="-18" font-family="Helvetica,sans-Serif" font-size="10.00">&lt; std::shared_ptr&lt; LMDBSinkMessage</text>
<text text-anchor="middle" x="863" y="-7" font-family="Helvetica,sans-Serif" font-size="10.00"> &gt;, maxQueueSize &gt; &gt;</text>
</a>
</g>
</g>
<!-- Node5&#45;&gt;Node2 -->
<g id="edge4_Node000002_Node000005" class="edge">
<title>Node5&#45;&gt;Node2</title>
<g id="a_edge4_Node000002_Node000005"><a xlink:title=" ">
<path fill="none" stroke="#63b8ff" d="M967.19,-45.9C1009.23,-54.01 1057.69,-63.36 1099.55,-71.43"/>
<polygon fill="#63b8ff" stroke="#63b8ff" points="968.05,-42.51 957.57,-44.05 966.73,-49.38 968.05,-42.51"/>
</a>
</g>
</g>
<!-- Node6 -->
<g id="Node000006" class="node">
<title>Node6</title>
<g id="a_Node000006"><a xlink:href="class_harlinn_1_1_common_1_1_core_1_1_concurrency_1_1_active_object.xhtml" target="_top" xlink:title=" ">
<polygon fill="white" stroke="#666666" points="939,-111.5 787,-111.5 787,-70.5 939,-70.5 939,-111.5"/>
<text text-anchor="start" x="795" y="-99.5" font-family="Helvetica,sans-Serif" font-size="10.00">Harlinn::Common::Core</text>
<text text-anchor="start" x="795" y="-88.5" font-family="Helvetica,sans-Serif" font-size="10.00">::Concurrency::ActiveObject</text>
<text text-anchor="middle" x="863" y="-77.5" font-family="Helvetica,sans-Serif" font-size="10.00">&lt; MessageT, maxQueueSize &gt;</text>
</a>
</g>
</g>
<!-- Node6&#45;&gt;Node2 -->
<g id="edge5_Node000002_Node000006" class="edge">
<title>Node6&#45;&gt;Node2</title>
<g id="a_edge5_Node000002_Node000006"><a xlink:title=" ">
<path fill="none" stroke="orange" stroke-dasharray="5,2" d="M950.55,-91C996.12,-91 1052.25,-91 1099.81,-91"/>
<polygon fill="orange" stroke="orange" points="950.72,-87.5 940.72,-91 950.72,-94.5 950.72,-87.5"/>
</a>
</g>
<text text-anchor="start" x="974" y="-105" font-family="Helvetica,sans-Serif" font-size="10.00" fill="grey"> &lt; std::shared_ptr&lt;</text>
<text text-anchor="middle" x="1028" y="-94" font-family="Helvetica,sans-Serif" font-size="10.00" fill="grey"> LMDBSinkMessage &gt; &gt;</text>
</g>
<!-- Node7&#45;&gt;Node6 -->
<g id="edge6_Node000006_Node000007" class="edge">
<title>Node7&#45;&gt;Node6</title>
<g id="a_edge6_Node000006_Node000007"><a xlink:title=" ">
<path fill="none" stroke="#63b8ff" d="M536.99,-91C613.22,-91 717.2,-91 786.83,-91"/>
<polygon fill="#63b8ff" stroke="#63b8ff" points="536.99,-87.5 526.99,-91 536.99,-94.5 536.99,-87.5"/>
</a>
</g>
</g>
<!-- Node8 -->
<g id="Node000008" class="node">
<title>Node8</title>
<g id="a_Node000008"><a xlink:title=" ">
<polygon fill="white" stroke="#666666" points="518,-52.5 357,-52.5 357,-11.5 518,-11.5 518,-52.5"/>
<text text-anchor="start" x="365" y="-40.5" font-family="Helvetica,sans-Serif" font-size="10.00">std::enable_shared</text>
<text text-anchor="start" x="365" y="-29.5" font-family="Helvetica,sans-Serif" font-size="10.00">_from_this&lt; ActiveObject</text>
<text text-anchor="middle" x="437.5" y="-18.5" font-family="Helvetica,sans-Serif" font-size="10.00">&lt; MessageT, maxQueueSize &gt; &gt;</text>
</a>
</g>
</g>
<!-- Node8&#45;&gt;Node6 -->
<g id="edge8_Node000006_Node000008" class="edge">
<title>Node8&#45;&gt;Node6</title>
<g id="a_edge8_Node000006_Node000008"><a xlink:title=" ">
<path fill="none" stroke="#63b8ff" d="M529.24,-44.64C605.96,-55.33 714.6,-70.46 786.61,-80.5"/>
<polygon fill="#63b8ff" stroke="#63b8ff" points="530.04,-41.22 519.66,-43.31 529.08,-48.15 530.04,-41.22"/>
</a>
</g>
</g>
</g>
</svg>
