<?xml version="1.0" encoding="UTF-8" standalone="no"?>
<!DOCTYPE svg PUBLIC "-//W3C//DTD SVG 1.1//EN"
 "http://www.w3.org/Graphics/SVG/1.1/DTD/svg11.dtd">
<!-- Generated by graphviz version 7.0.1 (20221109.1506)
 -->
<!-- Title: Harlinn::Common::Core::AccessViolationException Pages: 1 -->
<svg width="1759pt" height="206pt"
 viewBox="0.00 0.00 1759.00 206.19" xmlns="http://www.w3.org/2000/svg" xmlns:xlink="http://www.w3.org/1999/xlink">
<g id="graph0" class="graph" transform="scale(1 1) rotate(0) translate(4 202.19)">
<title>Harlinn::Common::Core::AccessViolationException</title>
<!-- Node1 -->
<g id="Node000001" class="node">
<title>Node1</title>
<g id="a_Node000001"><a xlink:title=" ">
<polygon fill="#999999" stroke="#666666" points="1751,-96.19 1614,-96.19 1614,-66.19 1751,-66.19 1751,-96.19"/>
<text text-anchor="start" x="1622" y="-84.19" font-family="Helvetica,sans-Serif" font-size="10.00">Harlinn::Common::Core</text>
<text text-anchor="middle" x="1682.5" y="-73.19" font-family="Helvetica,sans-Serif" font-size="10.00">::AccessViolationException</text>
</a>
</g>
</g>
<!-- Node2 -->
<g id="Node000002" class="node">
<title>Node2</title>
<g id="a_Node000002"><a xlink:href="class_harlinn_1_1_common_1_1_core_1_1_system_exception.html" target="_top" xlink:title=" ">
<polygon fill="white" stroke="#666666" points="1577,-96.19 1459,-96.19 1459,-66.19 1577,-66.19 1577,-96.19"/>
<text text-anchor="start" x="1467" y="-84.19" font-family="Helvetica,sans-Serif" font-size="10.00">Harlinn::Common::Core</text>
<text text-anchor="middle" x="1518" y="-73.19" font-family="Helvetica,sans-Serif" font-size="10.00">::SystemException</text>
</a>
</g>
</g>
<!-- Node2&#45;&gt;Node1 -->
<g id="edge1_Node000001_Node000002" class="edge">
<title>Node2&#45;&gt;Node1</title>
<g id="a_edge1_Node000001_Node000002"><a xlink:title=" ">
<path fill="none" stroke="#63b8ff" d="M1588.48,-81.19C1596.85,-81.19 1605.39,-81.19 1613.73,-81.19"/>
<polygon fill="#63b8ff" stroke="#63b8ff" points="1588.72,-77.69 1578.72,-81.19 1588.72,-84.69 1588.72,-77.69"/>
</a>
</g>
</g>
<!-- Node3 -->
<g id="Node000003" class="node">
<title>Node3</title>
<g id="a_Node000003"><a xlink:href="class_harlinn_1_1_common_1_1_core_1_1_exception.html" target="_top" xlink:title=" ">
<polygon fill="white" stroke="#666666" points="1422,-96.19 1304,-96.19 1304,-66.19 1422,-66.19 1422,-96.19"/>
<text text-anchor="start" x="1312" y="-84.19" font-family="Helvetica,sans-Serif" font-size="10.00">Harlinn::Common::Core</text>
<text text-anchor="middle" x="1363" y="-73.19" font-family="Helvetica,sans-Serif" font-size="10.00">::Exception</text>
</a>
</g>
</g>
<!-- Node3&#45;&gt;Node2 -->
<g id="edge2_Node000002_Node000003" class="edge">
<title>Node3&#45;&gt;Node2</title>
<g id="a_edge2_Node000002_Node000003"><a xlink:title=" ">
<path fill="none" stroke="#63b8ff" d="M1433.59,-81.19C1441.96,-81.19 1450.44,-81.19 1458.63,-81.19"/>
<polygon fill="#63b8ff" stroke="#63b8ff" points="1433.79,-77.69 1423.79,-81.19 1433.79,-84.69 1433.79,-77.69"/>
</a>
</g>
</g>
<!-- Node4 -->
<g id="Node000004" class="node">
<title>Node4</title>
<g id="a_Node000004"><a xlink:title=" ">
<polygon fill="white" stroke="#666666" points="1226,-162.69 1148,-162.69 1148,-143.69 1226,-143.69 1226,-162.69"/>
<text text-anchor="middle" x="1187" y="-150.69" font-family="Helvetica,sans-Serif" font-size="10.00">std::exception</text>
</a>
</g>
</g>
<!-- Node4&#45;&gt;Node3 -->
<g id="edge3_Node000003_Node000004" class="edge">
<title>Node4&#45;&gt;Node3</title>
<g id="a_edge3_Node000003_Node000004"><a xlink:title=" ">
<path fill="none" stroke="#63b8ff" d="M1231.27,-139.61C1236.27,-137.87 1241.26,-136.04 1246,-134.19 1275.28,-122.75 1307.77,-107.69 1330.9,-96.55"/>
<polygon fill="#63b8ff" stroke="#63b8ff" points="1230.22,-136.27 1221.87,-142.79 1232.47,-142.9 1230.22,-136.27"/>
</a>
</g>
</g>
<!-- Node5 -->
<g id="Node000005" class="node">
<title>Node5</title>
<g id="a_Node000005"><a xlink:href="class_harlinn_1_1_common_1_1_core_1_1_exception_data.html" target="_top" xlink:title=" ">
<polygon fill="white" stroke="#666666" points="1246,-96.19 1128,-96.19 1128,-66.19 1246,-66.19 1246,-96.19"/>
<text text-anchor="start" x="1136" y="-84.19" font-family="Helvetica,sans-Serif" font-size="10.00">Harlinn::Common::Core</text>
<text text-anchor="middle" x="1187" y="-73.19" font-family="Helvetica,sans-Serif" font-size="10.00">::ExceptionData</text>
</a>
</g>
</g>
<!-- Node5&#45;&gt;Node3 -->
<g id="edge4_Node000003_Node000005" class="edge">
<title>Node5&#45;&gt;Node3</title>
<g id="a_edge4_Node000003_Node000005"><a xlink:title=" ">
<path fill="none" stroke="#9a32cd" stroke-dasharray="5,2" d="M1257.88,-81.19C1273.09,-81.19 1289.03,-81.19 1303.73,-81.19"/>
<polygon fill="#9a32cd" stroke="#9a32cd" points="1257.94,-77.69 1247.94,-81.19 1257.94,-84.69 1257.94,-77.69"/>
</a>
</g>
<text text-anchor="middle" x="1275" y="-84.19" font-family="Helvetica,sans-Serif" font-size="10.00" fill="grey"> data</text>
</g>
<!-- Node5&#45;&gt;Node5 -->
<g id="edge13_Node000005_Node000005" class="edge">
<title>Node5&#45;&gt;Node5</title>
<g id="a_edge13_Node000005_Node000005"><a xlink:title=" ">
<path fill="none" stroke="#9a32cd" stroke-dasharray="5,2" d="M1172.15,-107.8C1174.53,-111.62 1179.48,-114.19 1187,-114.19 1200.75,-114.19 1205.91,-105.6 1202.47,-96.47"/>
<polygon fill="#9a32cd" stroke="#9a32cd" points="1175.66,-107.77 1171.61,-97.98 1168.67,-108.15 1175.66,-107.77"/>
</a>
</g>
<text text-anchor="middle" x="1187" y="-117.19" font-family="Helvetica,sans-Serif" font-size="10.00" fill="grey"> innerException_</text>
</g>
<!-- Node6 -->
<g id="Node000006" class="node">
<title>Node6</title>
<g id="a_Node000006"><a xlink:href="class_harlinn_1_1_common_1_1_core_1_1_basic_string.html" target="_top" xlink:title=" ">
<polygon fill="white" stroke="#666666" points="620.5,-58.19 502.5,-58.19 502.5,-28.19 620.5,-28.19 620.5,-58.19"/>
<text text-anchor="start" x="510.5" y="-46.19" font-family="Helvetica,sans-Serif" font-size="10.00">Harlinn::Common::Core</text>
<text text-anchor="middle" x="561.5" y="-35.19" font-family="Helvetica,sans-Serif" font-size="10.00">::BasicString&lt; char &gt;</text>
</a>
</g>
</g>
<!-- Node6&#45;&gt;Node5 -->
<g id="edge5_Node000005_Node000006" class="edge">
<title>Node6&#45;&gt;Node5</title>
<g id="a_edge5_Node000005_Node000006"><a xlink:title=" ">
<path fill="none" stroke="#9a32cd" stroke-dasharray="5,2" d="M632.13,-42.04C726.75,-41.19 901.12,-42.19 1049,-57.19 1074.95,-59.82 1103.38,-64.51 1127.59,-69.04"/>
<polygon fill="#9a32cd" stroke="#9a32cd" points="632.19,-38.54 622.23,-42.14 632.26,-45.54 632.19,-38.54"/>
</a>
</g>
<text text-anchor="middle" x="879.5" y="-50.19" font-family="Helvetica,sans-Serif" font-size="10.00" fill="grey"> ansiMessage_</text>
</g>
<!-- Node7 -->
<g id="Node000007" class="node">
<title>Node7</title>
<g id="a_Node000007"><a xlink:href="struct_harlinn_1_1_common_1_1_core_1_1_internal_1_1_data.html" target="_top" xlink:title=" ">
<polygon fill="white" stroke="#666666" points="226,-87.19 108,-87.19 108,-57.19 226,-57.19 226,-87.19"/>
<text text-anchor="start" x="116" y="-75.19" font-family="Helvetica,sans-Serif" font-size="10.00">Harlinn::Common::Core</text>
<text text-anchor="middle" x="167" y="-64.19" font-family="Helvetica,sans-Serif" font-size="10.00">::Internal::Data&lt; T &gt;</text>
</a>
</g>
</g>
<!-- Node7&#45;&gt;Node6 -->
<g id="edge6_Node000006_Node000007" class="edge">
<title>Node7&#45;&gt;Node6</title>
<g id="a_edge6_Node000006_Node000007"><a xlink:title=" ">
<path fill="none" stroke="#9a32cd" stroke-dasharray="5,2" d="M219.17,-53.02C240.73,-45.8 266.27,-38.34 290,-34.19 373.66,-19.57 396.44,-20.28 481,-28.19 487.85,-28.83 494.99,-29.78 502.06,-30.89"/>
<polygon fill="#9a32cd" stroke="#9a32cd" points="218.05,-49.71 209.73,-56.27 220.32,-56.33 218.05,-49.71"/>
</a>
</g>
<text text-anchor="middle" x="349" y="-37.19" font-family="Helvetica,sans-Serif" font-size="10.00" fill="grey"> data_</text>
</g>
<!-- Node9 -->
<g id="Node000009" class="node">
<title>Node9</title>
<g id="a_Node000009"><a xlink:href="class_harlinn_1_1_common_1_1_core_1_1_basic_string.html" target="_top" xlink:title="This is a reference counted string class.">
<polygon fill="white" stroke="#666666" points="408,-84.19 290,-84.19 290,-54.19 408,-54.19 408,-84.19"/>
<text text-anchor="start" x="298" y="-72.19" font-family="Helvetica,sans-Serif" font-size="10.00">Harlinn::Common::Core</text>
<text text-anchor="middle" x="349" y="-61.19" font-family="Helvetica,sans-Serif" font-size="10.00">::BasicString&lt; T &gt;</text>
</a>
</g>
</g>
<!-- Node7&#45;&gt;Node9 -->
<g id="edge9_Node000009_Node000007" class="edge">
<title>Node7&#45;&gt;Node9</title>
<g id="a_edge9_Node000009_Node000007"><a xlink:title=" ">
<path fill="none" stroke="#9a32cd" stroke-dasharray="5,2" d="M237.55,-71.03C254.73,-70.75 272.95,-70.44 289.54,-70.17"/>
<polygon fill="#9a32cd" stroke="#9a32cd" points="237.89,-67.53 227.95,-71.19 238.01,-74.52 237.89,-67.53"/>
</a>
</g>
<text text-anchor="middle" x="258" y="-74.19" font-family="Helvetica,sans-Serif" font-size="10.00" fill="grey"> data_</text>
</g>
<!-- Node10 -->
<g id="Node000010" class="node">
<title>Node10</title>
<g id="a_Node000010"><a xlink:href="class_harlinn_1_1_common_1_1_core_1_1_basic_string.html" target="_top" xlink:title=" ">
<polygon fill="white" stroke="#666666" points="624,-122.19 499,-122.19 499,-92.19 624,-92.19 624,-122.19"/>
<text text-anchor="start" x="507" y="-110.19" font-family="Helvetica,sans-Serif" font-size="10.00">Harlinn::Common::Core</text>
<text text-anchor="middle" x="561.5" y="-99.19" font-family="Helvetica,sans-Serif" font-size="10.00">::BasicString&lt; wchar_t &gt;</text>
</a>
</g>
</g>
<!-- Node7&#45;&gt;Node10 -->
<g id="edge11_Node000010_Node000007" class="edge">
<title>Node7&#45;&gt;Node10</title>
<g id="a_edge11_Node000010_Node000007"><a xlink:title=" ">
<path fill="none" stroke="#9a32cd" stroke-dasharray="5,2" d="M237.29,-89.25C300.5,-103 396.63,-119.43 481,-115.19 486.82,-114.9 492.87,-114.49 498.92,-114"/>
<polygon fill="#9a32cd" stroke="#9a32cd" points="238.27,-85.88 227.75,-87.13 236.75,-92.71 238.27,-85.88"/>
</a>
</g>
<text text-anchor="middle" x="349" y="-117.19" font-family="Helvetica,sans-Serif" font-size="10.00" fill="grey"> data_</text>
</g>
<!-- Node8 -->
<g id="Node000008" class="node">
<title>Node8</title>
<g id="a_Node000008"><a xlink:title=" ">
<polygon fill="white" stroke="#666666" points="29,-131.69 0,-131.69 0,-112.69 29,-112.69 29,-131.69"/>
<text text-anchor="middle" x="14.5" y="-119.69" font-family="Helvetica,sans-Serif" font-size="10.00">T</text>
</a>
</g>
</g>
<!-- Node8&#45;&gt;Node7 -->
<g id="edge7_Node000007_Node000008" class="edge">
<title>Node8&#45;&gt;Node7</title>
<g id="a_edge7_Node000007_Node000008"><a xlink:title=" ">
<path fill="none" stroke="#9a32cd" stroke-dasharray="5,2" d="M38.88,-106.23C41.55,-104.74 44.29,-103.36 47,-102.19 66.08,-93.98 87.89,-87.67 107.58,-83.01"/>
<polygon fill="#9a32cd" stroke="#9a32cd" points="37.07,-103.23 30.37,-111.44 40.73,-109.2 37.07,-103.23"/>
</a>
</g>
<text text-anchor="middle" x="68.5" y="-105.19" font-family="Helvetica,sans-Serif" font-size="10.00" fill="grey"> buffer_</text>
</g>
<!-- Node12 -->
<g id="Node000012" class="node">
<title>Node12</title>
<g id="a_Node000012"><a xlink:title=" ">
<polygon fill="white" stroke="#666666" points="218.5,-189.19 115.5,-189.19 115.5,-159.19 218.5,-159.19 218.5,-189.19"/>
<text text-anchor="start" x="123.5" y="-177.19" font-family="Helvetica,sans-Serif" font-size="10.00">std::unordered_map</text>
<text text-anchor="middle" x="167" y="-166.19" font-family="Helvetica,sans-Serif" font-size="10.00">&lt; K, T &gt;</text>
</a>
</g>
</g>
<!-- Node8&#45;&gt;Node12 -->
<g id="edge18_Node000012_Node000008" class="edge">
<title>Node8&#45;&gt;Node12</title>
<g id="a_edge18_Node000012_Node000008"><a xlink:title=" ">
<path fill="none" stroke="#9a32cd" stroke-dasharray="5,2" d="M40.07,-130.68C61.98,-138.25 94.6,-149.52 121.15,-158.7"/>
<polygon fill="#9a32cd" stroke="#9a32cd" points="41.41,-127.44 30.82,-127.48 39.13,-134.06 41.41,-127.44"/>
</a>
</g>
<text text-anchor="middle" x="68.5" y="-150.19" font-family="Helvetica,sans-Serif" font-size="10.00" fill="grey"> elements</text>
</g>
<!-- Node9&#45;&gt;Node3 -->
<g id="edge22_Node000003_Node000009" class="edge">
<title>Node9&#45;&gt;Node3</title>
<g id="a_edge22_Node000003_Node000009"><a xlink:title=" ">
<path fill="none" stroke="#9a32cd" stroke-dasharray="5,2" d="M409.51,-46.7C417.6,-38.93 417.73,-33.08 426,-28.19 478.57,2.87 499.44,-0.19 560.5,-0.19 560.5,-0.19 560.5,-0.19 1188,-0.19 1249.64,-0.19 1313.06,-42.49 1343.5,-65.96"/>
<polygon fill="#9a32cd" stroke="#9a32cd" points="407.44,-43.87 401.69,-52.77 411.73,-49.4 407.44,-43.87"/>
</a>
</g>
<text text-anchor="middle" x="879.5" y="-3.19" font-family="Helvetica,sans-Serif" font-size="10.00" fill="grey"> empty</text>
</g>
<!-- Node9&#45;&gt;Node6 -->
<g id="edge8_Node000006_Node000009" class="edge">
<title>Node9&#45;&gt;Node6</title>
<g id="a_edge8_Node000006_Node000009"><a xlink:title=" ">
<path fill="none" stroke="orange" stroke-dasharray="5,2" d="M388.3,-48.94C400.07,-43.72 413.28,-38.83 426,-36.19 450.61,-31.08 478.27,-31.49 502.08,-33.7"/>
<polygon fill="orange" stroke="orange" points="386.91,-45.73 379.33,-53.13 389.87,-52.07 386.91,-45.73"/>
</a>
</g>
<text text-anchor="middle" x="453.5" y="-39.19" font-family="Helvetica,sans-Serif" font-size="10.00" fill="grey"> &lt; char &gt;</text>
</g>
<!-- Node9&#45;&gt;Node10 -->
<g id="edge12_Node000010_Node000009" class="edge">
<title>Node9&#45;&gt;Node10</title>
<g id="a_edge12_Node000010_Node000009"><a xlink:title=" ">
<path fill="none" stroke="orange" stroke-dasharray="5,2" d="M419.57,-64.23C439.6,-64.28 461.34,-65.76 481,-70.19 499.86,-74.44 519.57,-83.58 534.65,-91.71"/>
<polygon fill="orange" stroke="orange" points="419.8,-60.73 409.84,-64.34 419.87,-67.73 419.8,-60.73"/>
</a>
</g>
<text text-anchor="middle" x="453.5" y="-73.19" font-family="Helvetica,sans-Serif" font-size="10.00" fill="grey"> &lt; wchar_t &gt;</text>
</g>
<!-- Node11 -->
<g id="Node000011" class="node">
<title>Node11</title>
<g id="a_Node000011"><a xlink:title=" ">
<polygon fill="white" stroke="#666666" points="620,-196.69 503,-196.69 503,-155.69 620,-155.69 620,-196.69"/>
<text text-anchor="start" x="511" y="-184.69" font-family="Helvetica,sans-Serif" font-size="10.00">std::unordered_map</text>
<text text-anchor="start" x="511" y="-173.69" font-family="Helvetica,sans-Serif" font-size="10.00">&lt; int, Harlinn::Common</text>
<text text-anchor="middle" x="561.5" y="-162.69" font-family="Helvetica,sans-Serif" font-size="10.00">::Core::BasicString &gt;</text>
</a>
</g>
</g>
<!-- Node9&#45;&gt;Node11 -->
<g id="edge15_Node000011_Node000009" class="edge">
<title>Node9&#45;&gt;Node11</title>
<g id="a_edge15_Node000011_Node000009"><a xlink:title=" ">
<path fill="none" stroke="#9a32cd" stroke-dasharray="5,2" d="M390.13,-89.59C427.25,-108.46 482.17,-136.38 519.55,-155.38"/>
<polygon fill="#9a32cd" stroke="#9a32cd" points="392.01,-86.62 381.51,-85.21 388.84,-92.86 392.01,-86.62"/>
</a>
</g>
<text text-anchor="middle" x="453.5" y="-139.19" font-family="Helvetica,sans-Serif" font-size="10.00" fill="grey"> elements</text>
</g>
<!-- Node10&#45;&gt;Node5 -->
<g id="edge10_Node000005_Node000010" class="edge">
<title>Node10&#45;&gt;Node5</title>
<g id="a_edge10_Node000005_Node000010"><a xlink:title=" ">
<path fill="none" stroke="#9a32cd" stroke-dasharray="5,2" d="M635.69,-110.35C731.02,-113.66 902.77,-116.94 1049,-105.19 1074.99,-103.1 1103.44,-98.51 1127.64,-93.89"/>
<polygon fill="#9a32cd" stroke="#9a32cd" points="636.08,-106.86 625.96,-110 635.83,-113.85 636.08,-106.86"/>
</a>
</g>
<text text-anchor="middle" x="879.5" y="-139.19" font-family="Helvetica,sans-Serif" font-size="10.00" fill="grey"> helpLink_</text>
<text text-anchor="middle" x="879.5" y="-128.19" font-family="Helvetica,sans-Serif" font-size="10.00" fill="grey">message_</text>
<text text-anchor="middle" x="879.5" y="-117.19" font-family="Helvetica,sans-Serif" font-size="10.00" fill="grey">source_</text>
</g>
<!-- Node15 -->
<g id="Node000015" class="node">
<title>Node15</title>
<g id="a_Node000015"><a xlink:href="class_harlinn_1_1_common_1_1_core_1_1_exception_location_data.html" target="_top" xlink:title=" ">
<polygon fill="white" stroke="#666666" points="828,-96.19 705,-96.19 705,-66.19 828,-66.19 828,-96.19"/>
<text text-anchor="start" x="713" y="-84.19" font-family="Helvetica,sans-Serif" font-size="10.00">Harlinn::Common::Core</text>
<text text-anchor="middle" x="766.5" y="-73.19" font-family="Helvetica,sans-Serif" font-size="10.00">::ExceptionLocationData</text>
</a>
</g>
</g>
<!-- Node10&#45;&gt;Node15 -->
<g id="edge21_Node000015_Node000010" class="edge">
<title>Node10&#45;&gt;Node15</title>
<g id="a_edge21_Node000015_Node000010"><a xlink:title=" ">
<path fill="none" stroke="#9a32cd" stroke-dasharray="5,2" d="M633.41,-89.58C636.3,-89.07 639.17,-88.61 642,-88.19 662.29,-85.22 684.63,-83.49 704.67,-82.49"/>
<polygon fill="#9a32cd" stroke="#9a32cd" points="632.84,-86.13 623.67,-91.44 634.15,-93 632.84,-86.13"/>
</a>
</g>
<text text-anchor="middle" x="664.5" y="-102.19" font-family="Helvetica,sans-Serif" font-size="10.00" fill="grey"> filename_</text>
<text text-anchor="middle" x="664.5" y="-91.19" font-family="Helvetica,sans-Serif" font-size="10.00" fill="grey">function_</text>
</g>
<!-- Node11&#45;&gt;Node5 -->
<g id="edge14_Node000005_Node000011" class="edge">
<title>Node11&#45;&gt;Node5</title>
<g id="a_edge14_Node000005_Node000011"><a xlink:title=" ">
<path fill="none" stroke="#9a32cd" stroke-dasharray="5,2" d="M631.74,-176.77C737.32,-175.82 943.81,-166.73 1110,-115.19 1125.6,-110.35 1142.24,-103.16 1155.95,-96.64"/>
<polygon fill="#9a32cd" stroke="#9a32cd" points="631.79,-173.27 621.81,-176.83 631.84,-180.27 631.79,-173.27"/>
</a>
</g>
<text text-anchor="middle" x="879.5" y="-168.19" font-family="Helvetica,sans-Serif" font-size="10.00" fill="grey"> data_</text>
</g>
<!-- Node12&#45;&gt;Node11 -->
<g id="edge16_Node000011_Node000012" class="edge">
<title>Node12&#45;&gt;Node11</title>
<g id="a_edge16_Node000011_Node000012"><a xlink:title=" ">
<path fill="none" stroke="orange" stroke-dasharray="5,2" d="M230.03,-174.51C304.88,-174.89 429.74,-175.53 502.66,-175.9"/>
<polygon fill="orange" stroke="orange" points="230.44,-171.01 220.42,-174.46 230.41,-178.01 230.44,-171.01"/>
</a>
</g>
<text text-anchor="start" x="297" y="-190.19" font-family="Helvetica,sans-Serif" font-size="10.00" fill="grey"> &lt; int, Harlinn::Common</text>
<text text-anchor="middle" x="349" y="-179.19" font-family="Helvetica,sans-Serif" font-size="10.00" fill="grey">::Core::BasicString &gt;</text>
</g>
<!-- Node13 -->
<g id="Node000013" class="node">
<title>Node13</title>
<g id="a_Node000013"><a xlink:title=" ">
<polygon fill="white" stroke="#666666" points="29,-183.69 0,-183.69 0,-164.69 29,-164.69 29,-183.69"/>
<text text-anchor="middle" x="14.5" y="-171.69" font-family="Helvetica,sans-Serif" font-size="10.00">K</text>
</a>
</g>
</g>
<!-- Node13&#45;&gt;Node12 -->
<g id="edge17_Node000012_Node000013" class="edge">
<title>Node13&#45;&gt;Node12</title>
<g id="a_edge17_Node000012_Node000013"><a xlink:title=" ">
<path fill="none" stroke="#9a32cd" stroke-dasharray="5,2" d="M40.74,-174.19C60.99,-174.19 90.06,-174.19 115.1,-174.19"/>
<polygon fill="#9a32cd" stroke="#9a32cd" points="40.9,-170.69 30.9,-174.19 40.9,-177.69 40.9,-170.69"/>
</a>
</g>
<text text-anchor="middle" x="68.5" y="-177.19" font-family="Helvetica,sans-Serif" font-size="10.00" fill="grey"> keys</text>
</g>
<!-- Node14 -->
<g id="Node000014" class="node">
<title>Node14</title>
<g id="a_Node000014"><a xlink:href="class_harlinn_1_1_common_1_1_core_1_1_exception_location.html" target="_top" xlink:title=" ">
<polygon fill="white" stroke="#666666" points="1049,-96.19 931,-96.19 931,-66.19 1049,-66.19 1049,-96.19"/>
<text text-anchor="start" x="939" y="-84.19" font-family="Helvetica,sans-Serif" font-size="10.00">Harlinn::Common::Core</text>
<text text-anchor="middle" x="990" y="-73.19" font-family="Helvetica,sans-Serif" font-size="10.00">::ExceptionLocation</text>
</a>
</g>
</g>
<!-- Node14&#45;&gt;Node5 -->
<g id="edge19_Node000005_Node000014" class="edge">
<title>Node14&#45;&gt;Node5</title>
<g id="a_edge19_Node000005_Node000014"><a xlink:title=" ">
<path fill="none" stroke="#9a32cd" stroke-dasharray="5,2" d="M1060.53,-81.19C1082.53,-81.19 1106.6,-81.19 1127.72,-81.19"/>
<polygon fill="#9a32cd" stroke="#9a32cd" points="1060.76,-77.69 1050.76,-81.19 1060.76,-84.69 1060.76,-77.69"/>
</a>
</g>
<text text-anchor="middle" x="1088.5" y="-84.19" font-family="Helvetica,sans-Serif" font-size="10.00" fill="grey"> location_</text>
</g>
<!-- Node15&#45;&gt;Node14 -->
<g id="edge20_Node000014_Node000015" class="edge">
<title>Node15&#45;&gt;Node14</title>
<g id="a_edge20_Node000014_Node000015"><a xlink:title=" ">
<path fill="none" stroke="#9a32cd" stroke-dasharray="5,2" d="M839.79,-81.19C869.22,-81.19 902.78,-81.19 930.61,-81.19"/>
<polygon fill="#9a32cd" stroke="#9a32cd" points="839.83,-77.69 829.83,-81.19 839.83,-84.69 839.83,-77.69"/>
</a>
</g>
<text text-anchor="middle" x="879.5" y="-84.19" font-family="Helvetica,sans-Serif" font-size="10.00" fill="grey"> data_</text>
</g>
</g>
</svg>
