<?xml version="1.0" encoding="UTF-8" standalone="no"?>
<!DOCTYPE svg PUBLIC "-//W3C//DTD SVG 1.1//EN"
 "http://www.w3.org/Graphics/SVG/1.1/DTD/svg11.dtd">
<!-- Generated by graphviz version 7.0.1 (20221109.1506)
 -->
<!-- Title: Harlinn::OCI::DynamicDefine Pages: 1 -->
<svg width="2403pt" height="668pt"
 viewBox="0.00 0.00 2403.00 667.54" xmlns="http://www.w3.org/2000/svg" xmlns:xlink="http://www.w3.org/1999/xlink">
<g id="graph0" class="graph" transform="scale(1 1) rotate(0) translate(4 663.54)">
<title>Harlinn::OCI::DynamicDefine</title>
<!-- Node1 -->
<g id="Node000001" class="node">
<title>Node1</title>
<g id="a_Node000001"><a xlink:title="DynamicDefine.">
<polygon fill="#999999" stroke="#666666" points="2384.5,-22.04 2244.5,-22.04 2244.5,-3.04 2384.5,-3.04 2384.5,-22.04"/>
<text text-anchor="middle" x="2314.5" y="-10.04" font-family="Helvetica,sans-Serif" font-size="10.00">Harlinn::OCI::DynamicDefine</text>
</a>
</g>
</g>
<!-- Node2 -->
<g id="Node000002" class="node">
<title>Node2</title>
<g id="a_Node000002"><a xlink:href="class_harlinn_1_1_o_c_i_1_1_array_define.xhtml" target="_top" xlink:title="ArrayDefine, base class for defines for use with the ArrayDataReader class.">
<polygon fill="white" stroke="#666666" points="2155,-22.04 2030,-22.04 2030,-3.04 2155,-3.04 2155,-22.04"/>
<text text-anchor="middle" x="2092.5" y="-10.04" font-family="Helvetica,sans-Serif" font-size="10.00">Harlinn::OCI::ArrayDefine</text>
</a>
</g>
</g>
<!-- Node2&#45;&gt;Node1 -->
<g id="edge1_Node000001_Node000002" class="edge">
<title>Node2&#45;&gt;Node1</title>
<g id="a_edge1_Node000001_Node000002"><a xlink:title=" ">
<path fill="none" stroke="#63b8ff" d="M2166.65,-12.54C2191.71,-12.54 2219.64,-12.54 2244.36,-12.54"/>
<polygon fill="#63b8ff" stroke="#63b8ff" points="2166.88,-9.04 2156.88,-12.54 2166.88,-16.04 2166.88,-9.04"/>
</a>
</g>
</g>
<!-- Node3 -->
<g id="Node000003" class="node">
<title>Node3</title>
<g id="a_Node000003"><a xlink:href="class_harlinn_1_1_o_c_i_1_1_define_base.xhtml" target="_top" xlink:title="DefineBase, base class for all defines.">
<polygon fill="white" stroke="#666666" points="1872,-108.04 1747,-108.04 1747,-89.04 1872,-89.04 1872,-108.04"/>
<text text-anchor="middle" x="1809.5" y="-96.04" font-family="Helvetica,sans-Serif" font-size="10.00">Harlinn::OCI::DefineBase</text>
</a>
</g>
</g>
<!-- Node3&#45;&gt;Node2 -->
<g id="edge2_Node000002_Node000003" class="edge">
<title>Node3&#45;&gt;Node2</title>
<g id="a_edge2_Node000002_Node000003"><a xlink:title=" ">
<path fill="none" stroke="#63b8ff" d="M1829.26,-81.07C1844.45,-67.98 1867.04,-50.78 1890,-41.54 1934.59,-23.6 1988.67,-16.54 2029.58,-13.86"/>
<polygon fill="#63b8ff" stroke="#63b8ff" points="1827.09,-78.32 1821.94,-87.58 1831.74,-83.55 1827.09,-78.32"/>
</a>
</g>
</g>
<!-- Node4 -->
<g id="Node000004" class="node">
<title>Node4</title>
<g id="a_Node000004"><a xlink:href="class_harlinn_1_1_o_c_i_1_1_handle_base.xhtml" target="_top" xlink:title="Base class for OCI handle wrappers.">
<polygon fill="white" stroke="#666666" points="483,-248.04 355,-248.04 355,-229.04 483,-229.04 483,-248.04"/>
<text text-anchor="middle" x="419" y="-236.04" font-family="Helvetica,sans-Serif" font-size="10.00">Harlinn::OCI::HandleBase</text>
</a>
</g>
</g>
<!-- Node4&#45;&gt;Node3 -->
<g id="edge3_Node000003_Node000004" class="edge">
<title>Node4&#45;&gt;Node3</title>
<g id="a_edge3_Node000003_Node000004"><a xlink:title=" ">
<path fill="none" stroke="#63b8ff" d="M430.03,-218.79C443.1,-195.09 468.22,-155.88 501,-134.54 576.25,-85.56 607.21,-85.54 697,-85.54 697,-85.54 697,-85.54 1600,-85.54 1649.32,-85.54 1705.09,-89.21 1746.52,-92.65"/>
<polygon fill="#63b8ff" stroke="#63b8ff" points="427.05,-216.94 425.45,-227.42 433.23,-220.22 427.05,-216.94"/>
</a>
</g>
</g>
<!-- Node5 -->
<g id="Node000005" class="node">
<title>Node5</title>
<g id="a_Node000005"><a xlink:href="class_harlinn_1_1_o_c_i_1_1_statement.xhtml" target="_top" xlink:title="Statement, the context that identifies a SQL or PL/SQL statement and its associated attributes.">
<polygon fill="white" stroke="#666666" points="1659,-247.04 1539,-247.04 1539,-228.04 1659,-228.04 1659,-247.04"/>
<text text-anchor="middle" x="1599" y="-235.04" font-family="Helvetica,sans-Serif" font-size="10.00">Harlinn::OCI::Statement</text>
</a>
</g>
</g>
<!-- Node4&#45;&gt;Node5 -->
<g id="edge5_Node000005_Node000004" class="edge">
<title>Node4&#45;&gt;Node5</title>
<g id="a_edge5_Node000005_Node000004"><a xlink:title=" ">
<path fill="none" stroke="#63b8ff" d="M442.23,-222.18C487.63,-190.43 595.34,-123.54 697,-123.54 697,-123.54 697,-123.54 1361,-123.54 1456.88,-123.54 1554.94,-200.25 1587.08,-227.82"/>
<polygon fill="#63b8ff" stroke="#63b8ff" points="440.37,-219.21 434.26,-227.86 444.43,-224.91 440.37,-219.21"/>
</a>
</g>
</g>
<!-- Node6 -->
<g id="Node000006" class="node">
<title>Node6</title>
<g id="a_Node000006"><a xlink:href="class_harlinn_1_1_o_c_i_1_1_service_context.xhtml" target="_top" xlink:title="ServiceContext &#45; A service context handle defines attributes that determine the operational context f...">
<polygon fill="white" stroke="#666666" points="1430,-290.04 1290,-290.04 1290,-271.04 1430,-271.04 1430,-290.04"/>
<text text-anchor="middle" x="1360" y="-278.04" font-family="Helvetica,sans-Serif" font-size="10.00">Harlinn::OCI::ServiceContext</text>
</a>
</g>
</g>
<!-- Node4&#45;&gt;Node6 -->
<g id="edge7_Node000006_Node000004" class="edge">
<title>Node4&#45;&gt;Node6</title>
<g id="a_edge7_Node000006_Node000004"><a xlink:title=" ">
<path fill="none" stroke="#63b8ff" d="M464.85,-225.86C476.53,-223 489.16,-220.3 501,-218.54 559.55,-209.85 574.88,-214.48 634,-211.54 762.15,-205.17 1099.35,-127.33 1211,-190.54 1224.53,-198.2 1217.43,-210.16 1229,-220.54 1245.14,-235.03 1299.68,-257.64 1332.77,-270.58"/>
<polygon fill="#63b8ff" stroke="#63b8ff" points="464.3,-222.39 455.47,-228.25 466.02,-229.18 464.3,-222.39"/>
</a>
</g>
</g>
<!-- Node7 -->
<g id="Node000007" class="node">
<title>Node7</title>
<g id="a_Node000007"><a xlink:href="class_harlinn_1_1_o_c_i_1_1_environment.xhtml" target="_top" xlink:title="The environment handle defines a context in which all OCI functions are invoked.">
<polygon fill="white" stroke="#666666" points="762,-391.04 634,-391.04 634,-372.04 762,-372.04 762,-391.04"/>
<text text-anchor="middle" x="698" y="-379.04" font-family="Helvetica,sans-Serif" font-size="10.00">Harlinn::OCI::Environment</text>
</a>
</g>
</g>
<!-- Node4&#45;&gt;Node7 -->
<g id="edge9_Node000007_Node000004" class="edge">
<title>Node4&#45;&gt;Node7</title>
<g id="a_edge9_Node000007_Node000004"><a xlink:title=" ">
<path fill="none" stroke="#63b8ff" d="M443.07,-254.54C459,-265.3 480.87,-279.47 501,-290.54 561.16,-323.62 635.47,-355.91 672.95,-371.63"/>
<polygon fill="#63b8ff" stroke="#63b8ff" points="445.47,-251.94 435.23,-249.2 441.52,-257.73 445.47,-251.94"/>
</a>
</g>
</g>
<!-- Node11 -->
<g id="Node000011" class="node">
<title>Node11</title>
<g id="a_Node000011"><a xlink:href="class_harlinn_1_1_o_c_i_1_1_error_handle.xhtml" target="_top" xlink:title="The error handle is passed as a parameter to most OCI calls.">
<polygon fill="white" stroke="#666666" points="985,-311.04 859,-311.04 859,-292.04 985,-292.04 985,-311.04"/>
<text text-anchor="middle" x="922" y="-299.04" font-family="Helvetica,sans-Serif" font-size="10.00">Harlinn::OCI::ErrorHandle</text>
</a>
</g>
</g>
<!-- Node4&#45;&gt;Node11 -->
<g id="edge14_Node000011_Node000004" class="edge">
<title>Node4&#45;&gt;Node11</title>
<g id="a_edge14_Node000011_Node000004"><a xlink:title=" ">
<path fill="none" stroke="#63b8ff" d="M494.64,-234.02C579.88,-230.87 722.82,-231.7 841,-262.54 864.77,-268.75 889.88,-282.29 905.49,-291.66"/>
<polygon fill="#63b8ff" stroke="#63b8ff" points="494.62,-230.52 484.77,-234.42 494.9,-237.52 494.62,-230.52"/>
</a>
</g>
</g>
<!-- Node12 -->
<g id="Node000012" class="node">
<title>Node12</title>
<g id="a_Node000012"><a xlink:href="class_harlinn_1_1_o_c_i_1_1_server.xhtml" target="_top" xlink:title="A server handle represents a connection between the client application and the Oracle database server...">
<polygon fill="white" stroke="#666666" points="1197.5,-219.04 1095.5,-219.04 1095.5,-200.04 1197.5,-200.04 1197.5,-219.04"/>
<text text-anchor="middle" x="1146.5" y="-207.04" font-family="Helvetica,sans-Serif" font-size="10.00">Harlinn::OCI::Server</text>
</a>
</g>
</g>
<!-- Node4&#45;&gt;Node12 -->
<g id="edge17_Node000012_Node000004" class="edge">
<title>Node4&#45;&gt;Node12</title>
<g id="a_edge17_Node000012_Node000004"><a xlink:title=" ">
<path fill="none" stroke="#63b8ff" d="M494.41,-230.06C496.63,-229.88 498.83,-229.7 501,-229.54 723.66,-212.98 779.79,-215.55 1003,-210.54 1033.55,-209.86 1067.78,-209.6 1095.04,-209.52"/>
<polygon fill="#63b8ff" stroke="#63b8ff" points="494.35,-226.56 484.7,-230.94 494.97,-233.53 494.35,-226.56"/>
</a>
</g>
</g>
<!-- Node13 -->
<g id="Node000013" class="node">
<title>Node13</title>
<g id="a_Node000013"><a xlink:href="class_harlinn_1_1_o_c_i_1_1_session.xhtml" target="_top" xlink:title="Session.">
<polygon fill="white" stroke="#666666" points="1201.5,-381.04 1091.5,-381.04 1091.5,-362.04 1201.5,-362.04 1201.5,-381.04"/>
<text text-anchor="middle" x="1146.5" y="-369.04" font-family="Helvetica,sans-Serif" font-size="10.00">Harlinn::OCI::Session</text>
</a>
</g>
</g>
<!-- Node4&#45;&gt;Node13 -->
<g id="edge21_Node000013_Node000004" class="edge">
<title>Node4&#45;&gt;Node13</title>
<g id="a_edge21_Node000013_Node000004"><a xlink:title=" ">
<path fill="none" stroke="#63b8ff" d="M494.46,-249.2C597.36,-264.31 777.55,-292.26 841,-311.54 849.38,-314.09 850.89,-316.25 859,-319.54 922.19,-345.18 935.86,-360.58 1003,-372.54 1031.86,-377.69 1064.54,-377.85 1091.31,-376.55"/>
<polygon fill="#63b8ff" stroke="#63b8ff" points="495.12,-245.76 484.72,-247.77 494.11,-252.68 495.12,-245.76"/>
</a>
</g>
</g>
<!-- Node14 -->
<g id="Node000014" class="node">
<title>Node14</title>
<g id="a_Node000014"><a xlink:href="class_harlinn_1_1_o_c_i_1_1_subscription.xhtml" target="_top" xlink:title="Subscription.">
<polygon fill="white" stroke="#666666" points="1211,-492.04 1082,-492.04 1082,-473.04 1211,-473.04 1211,-492.04"/>
<text text-anchor="middle" x="1146.5" y="-480.04" font-family="Helvetica,sans-Serif" font-size="10.00">Harlinn::OCI::Subscription</text>
</a>
</g>
</g>
<!-- Node4&#45;&gt;Node14 -->
<g id="edge27_Node000014_Node000004" class="edge">
<title>Node4&#45;&gt;Node14</title>
<g id="a_edge27_Node000014_Node000004"><a xlink:title=" ">
<path fill="none" stroke="#63b8ff" d="M425.75,-259.47C438.84,-305.64 472.02,-414.01 501,-437.54 685.18,-587.06 1004.94,-520.24 1110.54,-492.49"/>
<polygon fill="#63b8ff" stroke="#63b8ff" points="429.14,-258.6 423.08,-249.91 422.39,-260.48 429.14,-258.6"/>
</a>
</g>
</g>
<!-- Node17 -->
<g id="Node000017" class="node">
<title>Node17</title>
<g id="a_Node000017"><a xlink:href="class_harlinn_1_1_o_c_i_1_1_bind_base.xhtml" target="_top" xlink:title="BindBase, base class for binds.">
<polygon fill="white" stroke="#666666" points="1868,-566.04 1751,-566.04 1751,-547.04 1868,-547.04 1868,-566.04"/>
<text text-anchor="middle" x="1809.5" y="-554.04" font-family="Helvetica,sans-Serif" font-size="10.00">Harlinn::OCI::BindBase</text>
</a>
</g>
</g>
<!-- Node4&#45;&gt;Node17 -->
<g id="edge33_Node000017_Node000004" class="edge">
<title>Node4&#45;&gt;Node17</title>
<g id="a_edge33_Node000017_Node000004"><a xlink:title=" ">
<path fill="none" stroke="#63b8ff" d="M427.86,-258.87C440.37,-291.6 465.21,-358.1 483,-415.54 492.25,-445.41 479.96,-460.42 501,-483.54 595.83,-587.75 668.6,-556.54 809.5,-556.54 809.5,-556.54 809.5,-556.54 1600,-556.54 1650.86,-556.54 1708.69,-556.54 1750.53,-556.54"/>
<polygon fill="#63b8ff" stroke="#63b8ff" points="431.24,-257.92 424.39,-249.84 424.71,-260.43 431.24,-257.92"/>
</a>
</g>
</g>
<!-- Node5&#45;&gt;Node3 -->
<g id="edge4_Node000003_Node000005" class="edge">
<title>Node5&#45;&gt;Node3</title>
<g id="a_edge4_Node000003_Node000005"><a xlink:title=" ">
<path fill="none" stroke="#9a32cd" stroke-dasharray="5,2" d="M1624.56,-221.17C1668.23,-192.05 1758.17,-132.1 1793.64,-108.45"/>
<polygon fill="#9a32cd" stroke="#9a32cd" points="1622.63,-218.25 1616.25,-226.71 1626.52,-224.07 1622.63,-218.25"/>
</a>
</g>
<text text-anchor="middle" x="1703" y="-188.54" font-family="Helvetica,sans-Serif" font-size="10.00" fill="grey"> statement_</text>
</g>
<!-- Node5&#45;&gt;Node17 -->
<g id="edge34_Node000017_Node000005" class="edge">
<title>Node5&#45;&gt;Node17</title>
<g id="a_edge34_Node000017_Node000005"><a xlink:title=" ">
<path fill="none" stroke="#9a32cd" stroke-dasharray="5,2" d="M1612.7,-256.97C1652.35,-317.64 1772.96,-502.16 1802.11,-546.76"/>
<polygon fill="#9a32cd" stroke="#9a32cd" points="1615.7,-255.16 1607.3,-248.71 1609.84,-258.99 1615.7,-255.16"/>
</a>
</g>
<text text-anchor="middle" x="1703" y="-429.54" font-family="Helvetica,sans-Serif" font-size="10.00" fill="grey"> statement_</text>
</g>
<!-- Node6&#45;&gt;Node5 -->
<g id="edge6_Node000005_Node000006" class="edge">
<title>Node6&#45;&gt;Node5</title>
<g id="a_edge6_Node000005_Node000006"><a xlink:title=" ">
<path fill="none" stroke="#9a32cd" stroke-dasharray="5,2" d="M1427.01,-268.57C1463.5,-261.95 1508.32,-253.81 1542.92,-247.54"/>
<polygon fill="#9a32cd" stroke="#9a32cd" points="1426.67,-265.07 1417.46,-270.3 1427.92,-271.96 1426.67,-265.07"/>
</a>
</g>
<text text-anchor="middle" x="1484.5" y="-267.54" font-family="Helvetica,sans-Serif" font-size="10.00" fill="grey"> serviceContext_</text>
</g>
<!-- Node7&#45;&gt;Node6 -->
<g id="edge8_Node000006_Node000007" class="edge">
<title>Node7&#45;&gt;Node6</title>
<g id="a_edge8_Node000006_Node000007"><a xlink:title=" ">
<path fill="none" stroke="#9a32cd" stroke-dasharray="5,2" d="M730.7,-396.02C745.4,-402.12 763.28,-408.68 780,-412.54 814.34,-420.47 823.79,-417.99 859,-419.54 1015.86,-426.48 1065.06,-447.45 1211,-389.54 1270.32,-366 1327.29,-312.72 1349.37,-290.53"/>
<polygon fill="#9a32cd" stroke="#9a32cd" points="732.11,-392.82 721.54,-392.09 729.36,-399.25 732.11,-392.82"/>
</a>
</g>
<text text-anchor="middle" x="1033.5" y="-432.54" font-family="Helvetica,sans-Serif" font-size="10.00" fill="grey"> environment_</text>
</g>
<!-- Node7&#45;&gt;Node11 -->
<g id="edge15_Node000011_Node000007" class="edge">
<title>Node7&#45;&gt;Node11</title>
<g id="a_edge15_Node000011_Node000007"><a xlink:title=" ">
<path fill="none" stroke="#9a32cd" stroke-dasharray="5,2" d="M722.03,-365.25C737.72,-354.83 759.32,-341.78 780,-333.54 804.95,-323.6 833.68,-316.38 858.66,-311.34"/>
<polygon fill="#9a32cd" stroke="#9a32cd" points="720.2,-362.27 713.9,-370.79 724.14,-368.06 720.2,-362.27"/>
</a>
</g>
<text text-anchor="middle" x="810.5" y="-336.54" font-family="Helvetica,sans-Serif" font-size="10.00" fill="grey"> environment_</text>
</g>
<!-- Node7&#45;&gt;Node12 -->
<g id="edge18_Node000012_Node000007" class="edge">
<title>Node7&#45;&gt;Node12</title>
<g id="a_edge18_Node000012_Node000007"><a xlink:title=" ">
<path fill="none" stroke="#9a32cd" stroke-dasharray="5,2" d="M718.23,-364.25C734.19,-350.31 757.79,-330.61 780,-315.54 868.73,-255.36 898.14,-245.88 1003,-223.54 1033.27,-217.1 1067.8,-213.61 1095.29,-211.73"/>
<polygon fill="#9a32cd" stroke="#9a32cd" points="716.1,-361.47 710.92,-370.71 720.73,-366.71 716.1,-361.47"/>
</a>
</g>
<text text-anchor="middle" x="922" y="-270.54" font-family="Helvetica,sans-Serif" font-size="10.00" fill="grey"> environment_</text>
</g>
<!-- Node7&#45;&gt;Node13 -->
<g id="edge22_Node000013_Node000007" class="edge">
<title>Node7&#45;&gt;Node13</title>
<g id="a_edge22_Node000013_Node000007"><a xlink:title=" ">
<path fill="none" stroke="#9a32cd" stroke-dasharray="5,2" d="M771.15,-393.05C845.11,-402.9 963.25,-413.22 1064,-397.54 1083.81,-394.46 1105.39,-387.4 1121.37,-381.41"/>
<polygon fill="#9a32cd" stroke="#9a32cd" points="772,-389.64 761.61,-391.75 771.05,-396.57 772,-389.64"/>
</a>
</g>
<text text-anchor="middle" x="922" y="-409.54" font-family="Helvetica,sans-Serif" font-size="10.00" fill="grey"> environment_</text>
</g>
<!-- Node7&#45;&gt;Node14 -->
<g id="edge28_Node000014_Node000007" class="edge">
<title>Node7&#45;&gt;Node14</title>
<g id="a_edge28_Node000014_Node000007"><a xlink:title=" ">
<path fill="none" stroke="#9a32cd" stroke-dasharray="5,2" d="M715.32,-399.89C730.42,-415.49 754.33,-437 780,-447.54 879.51,-488.4 1006.65,-490.6 1081.75,-487.35"/>
<polygon fill="#9a32cd" stroke="#9a32cd" points="717.92,-397.54 708.54,-392.61 712.8,-402.31 717.92,-397.54"/>
</a>
</g>
<text text-anchor="middle" x="922" y="-490.54" font-family="Helvetica,sans-Serif" font-size="10.00" fill="grey"> environment_</text>
</g>
<!-- Node8 -->
<g id="Node000008" class="node">
<title>Node8</title>
<g id="a_Node000008"><a xlink:title=" ">
<polygon fill="white" stroke="#666666" points="483,-454.54 355,-454.54 355,-424.54 483,-424.54 483,-454.54"/>
<text text-anchor="start" x="363" y="-442.54" font-family="Helvetica,sans-Serif" font-size="10.00">std::atomic&lt; Environment</text>
<text text-anchor="middle" x="419" y="-431.54" font-family="Helvetica,sans-Serif" font-size="10.00">Mode &gt;</text>
</a>
</g>
</g>
<!-- Node8&#45;&gt;Node7 -->
<g id="edge10_Node000007_Node000008" class="edge">
<title>Node8&#45;&gt;Node7</title>
<g id="a_edge10_Node000007_Node000008"><a xlink:title=" ">
<path fill="none" stroke="#9a32cd" stroke-dasharray="5,2" d="M494.46,-423.95C543.8,-413.62 607.03,-400.38 649.61,-391.46"/>
<polygon fill="#9a32cd" stroke="#9a32cd" points="493.75,-420.52 484.68,-426 495.19,-427.37 493.75,-420.52"/>
</a>
</g>
<text text-anchor="middle" x="558.5" y="-425.54" font-family="Helvetica,sans-Serif" font-size="10.00" fill="grey"> defaultEnvironmentMode_</text>
</g>
<!-- Node9 -->
<g id="Node000009" class="node">
<title>Node9</title>
<g id="a_Node000009"><a xlink:title=" ">
<polygon fill="white" stroke="#666666" points="200.5,-487.04 111.5,-487.04 111.5,-468.04 200.5,-468.04 200.5,-487.04"/>
<text text-anchor="middle" x="156" y="-475.04" font-family="Helvetica,sans-Serif" font-size="10.00">std::atomic&lt; T &gt;</text>
</a>
</g>
</g>
<!-- Node9&#45;&gt;Node8 -->
<g id="edge11_Node000008_Node000009" class="edge">
<title>Node9&#45;&gt;Node8</title>
<g id="a_edge11_Node000008_Node000009"><a xlink:title=" ">
<path fill="none" stroke="orange" stroke-dasharray="5,2" d="M212.3,-469.49C253.99,-463.42 311.23,-455.09 354.74,-448.75"/>
<polygon fill="orange" stroke="orange" points="211.87,-466.02 202.48,-470.92 212.88,-472.94 211.87,-466.02"/>
</a>
</g>
<text text-anchor="middle" x="285" y="-469.54" font-family="Helvetica,sans-Serif" font-size="10.00" fill="grey"> &lt; EnvironmentMode &gt;</text>
</g>
<!-- Node10 -->
<g id="Node000010" class="node">
<title>Node10</title>
<g id="a_Node000010"><a xlink:title=" ">
<polygon fill="white" stroke="#666666" points="29,-520.04 0,-520.04 0,-501.04 29,-501.04 29,-520.04"/>
<text text-anchor="middle" x="14.5" y="-508.04" font-family="Helvetica,sans-Serif" font-size="10.00">T</text>
</a>
</g>
</g>
<!-- Node10&#45;&gt;Node9 -->
<g id="edge12_Node000009_Node000010" class="edge">
<title>Node10&#45;&gt;Node9</title>
<g id="a_edge12_Node000009_Node000010"><a xlink:title=" ">
<path fill="none" stroke="#9a32cd" stroke-dasharray="5,2" d="M40.29,-504.19C42.56,-503.63 44.82,-503.07 47,-502.54 68.04,-497.44 91.45,-491.99 111.07,-487.49"/>
<polygon fill="#9a32cd" stroke="#9a32cd" points="39.59,-500.76 30.75,-506.6 41.3,-507.55 39.59,-500.76"/>
</a>
</g>
<text text-anchor="middle" x="63" y="-505.54" font-family="Helvetica,sans-Serif" font-size="10.00" fill="grey"> ptr</text>
</g>
<!-- Node19 -->
<g id="Node000019" class="node">
<title>Node19</title>
<g id="a_Node000019"><a xlink:href="struct_harlinn_1_1_common_1_1_core_1_1_internal_1_1_data.xhtml" target="_top" xlink:title=" ">
<polygon fill="white" stroke="#666666" points="215,-573.54 97,-573.54 97,-543.54 215,-543.54 215,-573.54"/>
<text text-anchor="start" x="105" y="-561.54" font-family="Helvetica,sans-Serif" font-size="10.00">Harlinn::Common::Core</text>
<text text-anchor="middle" x="156" y="-550.54" font-family="Helvetica,sans-Serif" font-size="10.00">::Internal::Data&lt; T &gt;</text>
</a>
</g>
</g>
<!-- Node10&#45;&gt;Node19 -->
<g id="edge37_Node000019_Node000010" class="edge">
<title>Node10&#45;&gt;Node19</title>
<g id="a_edge37_Node000019_Node000010"><a xlink:title=" ">
<path fill="none" stroke="#9a32cd" stroke-dasharray="5,2" d="M40,-518.97C59.34,-525.63 86.86,-535.1 110.12,-543.1"/>
<polygon fill="#9a32cd" stroke="#9a32cd" points="41.41,-515.76 30.82,-515.81 39.13,-522.38 41.41,-515.76"/>
</a>
</g>
<text text-anchor="middle" x="63" y="-535.54" font-family="Helvetica,sans-Serif" font-size="10.00" fill="grey"> buffer_</text>
</g>
<!-- Node21 -->
<g id="Node000021" class="node">
<title>Node21</title>
<g id="a_Node000021"><a xlink:title=" ">
<polygon fill="white" stroke="#666666" points="337,-651.04 233,-651.04 233,-632.04 337,-632.04 337,-651.04"/>
<text text-anchor="middle" x="285" y="-639.04" font-family="Helvetica,sans-Serif" font-size="10.00">std::unique_ptr&lt; T &gt;</text>
</a>
</g>
</g>
<!-- Node10&#45;&gt;Node21 -->
<g id="edge41_Node000021_Node000010" class="edge">
<title>Node10&#45;&gt;Node21</title>
<g id="a_edge41_Node000021_Node000010"><a xlink:title=" ">
<path fill="none" stroke="#9a32cd" stroke-dasharray="5,2" d="M29.83,-529.24C34.94,-535.37 40.94,-542.03 47,-547.54 67.07,-565.8 72.67,-570.54 97,-582.54 143.41,-605.43 200.63,-621.94 239.47,-631.57"/>
<polygon fill="#9a32cd" stroke="#9a32cd" points="32.58,-527.06 23.6,-521.44 27.11,-531.43 32.58,-527.06"/>
</a>
</g>
<text text-anchor="middle" x="63" y="-576.54" font-family="Helvetica,sans-Serif" font-size="10.00" fill="grey"> ptr</text>
</g>
<!-- Node22 -->
<g id="Node000022" class="node">
<title>Node22</title>
<g id="a_Node000022"><a xlink:title=" ">
<polygon fill="white" stroke="#666666" points="1641.5,-57.04 1556.5,-57.04 1556.5,-38.04 1641.5,-38.04 1641.5,-57.04"/>
<text text-anchor="middle" x="1599" y="-45.04" font-family="Helvetica,sans-Serif" font-size="10.00">std::vector&lt; T &gt;</text>
</a>
</g>
</g>
<!-- Node10&#45;&gt;Node22 -->
<g id="edge43_Node000022_Node000010" class="edge">
<title>Node10&#45;&gt;Node22</title>
<g id="a_edge43_Node000022_Node000010"><a xlink:title=" ">
<path fill="none" stroke="#9a32cd" stroke-dasharray="5,2" d="M17.19,-489.48C25,-398.97 61.38,-47.54 155,-47.54 155,-47.54 155,-47.54 1361,-47.54 1429.3,-47.54 1508.68,-47.54 1556.04,-47.54"/>
<polygon fill="#9a32cd" stroke="#9a32cd" points="13.71,-489.11 16.36,-499.36 20.68,-489.69 13.71,-489.11"/>
</a>
</g>
<text text-anchor="middle" x="810.5" y="-50.54" font-family="Helvetica,sans-Serif" font-size="10.00" fill="grey"> elements</text>
</g>
<!-- Node11&#45;&gt;Node5 -->
<g id="edge25_Node000005_Node000011" class="edge">
<title>Node11&#45;&gt;Node5</title>
<g id="a_edge25_Node000005_Node000011"><a xlink:title=" ">
<path fill="none" stroke="#9a32cd" stroke-dasharray="5,2" d="M965.42,-288.46C1024,-271.13 1133.3,-241.5 1229,-230.54 1337.7,-218.1 1465.55,-225.37 1538.65,-231.59"/>
<polygon fill="#9a32cd" stroke="#9a32cd" points="964.77,-285 956.19,-291.21 966.77,-291.7 964.77,-285"/>
</a>
</g>
<text text-anchor="middle" x="1250.5" y="-233.54" font-family="Helvetica,sans-Serif" font-size="10.00" fill="grey"> error_</text>
</g>
<!-- Node11&#45;&gt;Node6 -->
<g id="edge24_Node000006_Node000011" class="edge">
<title>Node11&#45;&gt;Node6</title>
<g id="a_edge24_Node000006_Node000011"><a xlink:title=" ">
<path fill="none" stroke="#9a32cd" stroke-dasharray="5,2" d="M996.94,-297.98C1078.84,-294.04 1209.86,-287.73 1289.81,-283.88"/>
<polygon fill="#9a32cd" stroke="#9a32cd" points="996.8,-294.48 986.98,-298.46 997.14,-301.48 996.8,-294.48"/>
</a>
</g>
<text text-anchor="middle" x="1146.5" y="-297.54" font-family="Helvetica,sans-Serif" font-size="10.00" fill="grey"> error_</text>
</g>
<!-- Node11&#45;&gt;Node7 -->
<g id="edge13_Node000007_Node000011" class="edge">
<title>Node11&#45;&gt;Node7</title>
<g id="a_edge13_Node000007_Node000011"><a xlink:title=" ">
<path fill="none" stroke="#9a32cd" stroke-dasharray="5,2" d="M896.95,-317.34C881.49,-326.92 860.69,-338.75 841,-346.54 813.14,-357.57 780.8,-365.87 754.02,-371.61"/>
<polygon fill="#9a32cd" stroke="#9a32cd" points="898.42,-320.56 904.99,-312.25 894.67,-314.65 898.42,-320.56"/>
</a>
</g>
<text text-anchor="middle" x="810.5" y="-368.54" font-family="Helvetica,sans-Serif" font-size="10.00" fill="grey"> error_</text>
</g>
<!-- Node11&#45;&gt;Node12 -->
<g id="edge19_Node000012_Node000011" class="edge">
<title>Node11&#45;&gt;Node12</title>
<g id="a_edge19_Node000012_Node000011"><a xlink:title=" ">
<path fill="none" stroke="#9a32cd" stroke-dasharray="5,2" d="M954.25,-286.28C964.57,-280.51 975.76,-273.41 985,-265.54 994.62,-257.35 992.29,-250.25 1003,-243.54 1018.36,-233.92 1060.77,-224.48 1095.36,-217.99"/>
<polygon fill="#9a32cd" stroke="#9a32cd" points="952.82,-283.07 945.66,-290.88 956.12,-289.25 952.82,-283.07"/>
</a>
</g>
<text text-anchor="middle" x="1033.5" y="-246.54" font-family="Helvetica,sans-Serif" font-size="10.00" fill="grey"> error_</text>
</g>
<!-- Node11&#45;&gt;Node13 -->
<g id="edge23_Node000013_Node000011" class="edge">
<title>Node11&#45;&gt;Node13</title>
<g id="a_edge23_Node000013_Node000011"><a xlink:title=" ">
<path fill="none" stroke="#9a32cd" stroke-dasharray="5,2" d="M996.51,-310.63C1018.58,-314.54 1042.61,-320.01 1064,-327.54 1088.57,-336.2 1114.68,-351.52 1130.54,-361.6"/>
<polygon fill="#9a32cd" stroke="#9a32cd" points="997.1,-307.18 986.66,-308.97 995.94,-314.08 997.1,-307.18"/>
</a>
</g>
<text text-anchor="middle" x="1033.5" y="-330.54" font-family="Helvetica,sans-Serif" font-size="10.00" fill="grey"> error_</text>
</g>
<!-- Node11&#45;&gt;Node14 -->
<g id="edge29_Node000014_Node000011" class="edge">
<title>Node11&#45;&gt;Node14</title>
<g id="a_edge29_Node000014_Node000011"><a xlink:title=" ">
<path fill="none" stroke="#9a32cd" stroke-dasharray="5,2" d="M944.96,-318.09C972.94,-339.31 1022.65,-377.44 1064,-411.54 1089.77,-432.79 1119.11,-458.82 1134.59,-472.7"/>
<polygon fill="#9a32cd" stroke="#9a32cd" points="947.31,-315.48 937.22,-312.24 943.09,-321.06 947.31,-315.48"/>
</a>
</g>
<text text-anchor="middle" x="1033.5" y="-414.54" font-family="Helvetica,sans-Serif" font-size="10.00" fill="grey"> error_</text>
</g>
<!-- Node12&#45;&gt;Node6 -->
<g id="edge16_Node000006_Node000012" class="edge">
<title>Node12&#45;&gt;Node6</title>
<g id="a_edge16_Node000006_Node000012"><a xlink:title=" ">
<path fill="none" stroke="#9a32cd" stroke-dasharray="5,2" d="M1177.9,-224.3C1193.04,-231.3 1211.75,-239.45 1229,-245.54 1257.32,-255.54 1289.96,-264.32 1315.46,-270.59"/>
<polygon fill="#9a32cd" stroke="#9a32cd" points="1179.49,-221.18 1168.95,-220.09 1176.51,-227.51 1179.49,-221.18"/>
</a>
</g>
<text text-anchor="middle" x="1250.5" y="-262.54" font-family="Helvetica,sans-Serif" font-size="10.00" fill="grey"> server_</text>
</g>
<!-- Node13&#45;&gt;Node6 -->
<g id="edge20_Node000006_Node000013" class="edge">
<title>Node13&#45;&gt;Node6</title>
<g id="a_edge20_Node000006_Node000013"><a xlink:title=" ">
<path fill="none" stroke="#9a32cd" stroke-dasharray="5,2" d="M1181.1,-357.09C1224.41,-338.45 1298.58,-306.54 1335.99,-290.44"/>
<polygon fill="#9a32cd" stroke="#9a32cd" points="1179.73,-353.87 1171.93,-361.03 1182.5,-360.3 1179.73,-353.87"/>
</a>
</g>
<text text-anchor="middle" x="1250.5" y="-337.54" font-family="Helvetica,sans-Serif" font-size="10.00" fill="grey"> session_</text>
</g>
<!-- Node14&#45;&gt;Node5 -->
<g id="edge26_Node000005_Node000014" class="edge">
<title>Node14&#45;&gt;Node5</title>
<g id="a_edge26_Node000005_Node000014"><a xlink:title=" ">
<path fill="none" stroke="#9a32cd" stroke-dasharray="5,2" d="M1222.22,-473.23C1238.98,-469.76 1256.4,-465.01 1272,-458.54 1409.06,-401.71 1548,-282.43 1587.15,-247.41"/>
<polygon fill="#9a32cd" stroke="#9a32cd" points="1221.97,-469.72 1212.81,-475.05 1223.3,-476.59 1221.97,-469.72"/>
</a>
</g>
<text text-anchor="middle" x="1360" y="-452.54" font-family="Helvetica,sans-Serif" font-size="10.00" fill="grey"> changeNotification_</text>
</g>
<!-- Node15 -->
<g id="Node000015" class="node">
<title>Node15</title>
<g id="a_Node000015"><a xlink:title=" ">
<polygon fill="white" stroke="#666666" points="2395,-252.54 2234,-252.54 2234,-222.54 2395,-222.54 2395,-252.54"/>
<text text-anchor="start" x="2242" y="-240.54" font-family="Helvetica,sans-Serif" font-size="10.00">std::vector&lt; std::unique</text>
<text text-anchor="middle" x="2314.5" y="-229.54" font-family="Helvetica,sans-Serif" font-size="10.00">_ptr&lt; Harlinn::OCI::BindBase &gt; &gt;</text>
</a>
</g>
</g>
<!-- Node15&#45;&gt;Node5 -->
<g id="edge30_Node000005_Node000015" class="edge">
<title>Node15&#45;&gt;Node5</title>
<g id="a_edge30_Node000005_Node000015"><a xlink:title=" ">
<path fill="none" stroke="#9a32cd" stroke-dasharray="5,2" d="M2222.36,-237.54C2073.9,-237.54 1783.96,-237.54 1659.3,-237.54"/>
<polygon fill="#9a32cd" stroke="#9a32cd" points="2222.15,-241.04 2232.15,-237.54 2222.15,-234.04 2222.15,-241.04"/>
</a>
</g>
<text text-anchor="middle" x="1951" y="-240.54" font-family="Helvetica,sans-Serif" font-size="10.00" fill="grey"> binds_</text>
</g>
<!-- Node16 -->
<g id="Node000016" class="node">
<title>Node16</title>
<g id="a_Node000016"><a xlink:title=" ">
<polygon fill="white" stroke="#666666" points="2152.5,-571.54 2032.5,-571.54 2032.5,-541.54 2152.5,-541.54 2152.5,-571.54"/>
<text text-anchor="start" x="2040.5" y="-559.54" font-family="Helvetica,sans-Serif" font-size="10.00">std::unique_ptr&lt; Harlinn</text>
<text text-anchor="middle" x="2092.5" y="-548.54" font-family="Helvetica,sans-Serif" font-size="10.00">::OCI::BindBase &gt;</text>
</a>
</g>
</g>
<!-- Node16&#45;&gt;Node15 -->
<g id="edge31_Node000015_Node000016" class="edge">
<title>Node16&#45;&gt;Node15</title>
<g id="a_edge31_Node000015_Node000016"><a xlink:title=" ">
<path fill="none" stroke="#9a32cd" stroke-dasharray="5,2" d="M2110.44,-531.98C2153.79,-469.13 2267.79,-303.82 2303,-252.77"/>
<polygon fill="#9a32cd" stroke="#9a32cd" points="2107.77,-529.69 2104.97,-539.91 2113.53,-533.67 2107.77,-529.69"/>
</a>
</g>
<text text-anchor="middle" x="2194.5" y="-438.54" font-family="Helvetica,sans-Serif" font-size="10.00" fill="grey"> elements</text>
</g>
<!-- Node17&#45;&gt;Node16 -->
<g id="edge32_Node000016_Node000017" class="edge">
<title>Node17&#45;&gt;Node16</title>
<g id="a_edge32_Node000016_Node000017"><a xlink:title=" ">
<path fill="none" stroke="#9a32cd" stroke-dasharray="5,2" d="M1879.65,-556.54C1926.47,-556.54 1987.66,-556.54 2032.24,-556.54"/>
<polygon fill="#9a32cd" stroke="#9a32cd" points="1879.9,-553.04 1869.9,-556.54 1879.9,-560.04 1879.9,-553.04"/>
</a>
</g>
<text text-anchor="middle" x="1951" y="-559.54" font-family="Helvetica,sans-Serif" font-size="10.00" fill="grey"> ptr</text>
</g>
<!-- Node18 -->
<g id="Node000018" class="node">
<title>Node18</title>
<g id="a_Node000018"><a xlink:href="class_harlinn_1_1_common_1_1_core_1_1_basic_string.xhtml" target="_top" xlink:title=" ">
<polygon fill="white" stroke="#666666" points="760.5,-614.54 635.5,-614.54 635.5,-584.54 760.5,-584.54 760.5,-614.54"/>
<text text-anchor="start" x="643.5" y="-602.54" font-family="Helvetica,sans-Serif" font-size="10.00">Harlinn::Common::Core</text>
<text text-anchor="middle" x="698" y="-591.54" font-family="Helvetica,sans-Serif" font-size="10.00">::BasicString&lt; wchar_t &gt;</text>
</a>
</g>
</g>
<!-- Node18&#45;&gt;Node17 -->
<g id="edge35_Node000017_Node000018" class="edge">
<title>Node18&#45;&gt;Node17</title>
<g id="a_edge35_Node000017_Node000018"><a xlink:title=" ">
<path fill="none" stroke="#9a32cd" stroke-dasharray="5,2" d="M772.01,-597.57C815.31,-596.56 871.28,-595.54 921,-595.54 921,-595.54 921,-595.54 1600,-595.54 1663.16,-595.54 1735.27,-578.04 1775.99,-566.48"/>
<polygon fill="#9a32cd" stroke="#9a32cd" points="772.15,-594.06 762.23,-597.8 772.31,-601.06 772.15,-594.06"/>
</a>
</g>
<text text-anchor="middle" x="1250.5" y="-598.54" font-family="Helvetica,sans-Serif" font-size="10.00" fill="grey"> name_</text>
</g>
<!-- Node19&#45;&gt;Node18 -->
<g id="edge36_Node000018_Node000019" class="edge">
<title>Node19&#45;&gt;Node18</title>
<g id="a_edge36_Node000018_Node000019"><a xlink:title=" ">
<path fill="none" stroke="#9a32cd" stroke-dasharray="5,2" d="M226.75,-572.63C228.85,-572.95 230.94,-573.26 233,-573.54 376.04,-593.46 545.9,-598.24 635.14,-599.31"/>
<polygon fill="#9a32cd" stroke="#9a32cd" points="227.32,-569.17 216.89,-571 226.19,-576.08 227.32,-569.17"/>
</a>
</g>
<text text-anchor="middle" x="419" y="-598.54" font-family="Helvetica,sans-Serif" font-size="10.00" fill="grey"> data_</text>
</g>
<!-- Node20 -->
<g id="Node000020" class="node">
<title>Node20</title>
<g id="a_Node000020"><a xlink:href="class_harlinn_1_1_common_1_1_core_1_1_basic_string.xhtml" target="_top" xlink:title="This is a reference counted string class.">
<polygon fill="white" stroke="#666666" points="478,-573.54 360,-573.54 360,-543.54 478,-543.54 478,-573.54"/>
<text text-anchor="start" x="368" y="-561.54" font-family="Helvetica,sans-Serif" font-size="10.00">Harlinn::Common::Core</text>
<text text-anchor="middle" x="419" y="-550.54" font-family="Helvetica,sans-Serif" font-size="10.00">::BasicString&lt; T &gt;</text>
</a>
</g>
</g>
<!-- Node19&#45;&gt;Node20 -->
<g id="edge39_Node000020_Node000019" class="edge">
<title>Node19&#45;&gt;Node20</title>
<g id="a_edge39_Node000020_Node000019"><a xlink:title=" ">
<path fill="none" stroke="#9a32cd" stroke-dasharray="5,2" d="M226.69,-558.54C268.31,-558.54 320.55,-558.54 359.93,-558.54"/>
<polygon fill="#9a32cd" stroke="#9a32cd" points="226.76,-555.04 216.76,-558.54 226.76,-562.04 226.76,-555.04"/>
</a>
</g>
<text text-anchor="middle" x="285" y="-561.54" font-family="Helvetica,sans-Serif" font-size="10.00" fill="grey"> data_</text>
</g>
<!-- Node20&#45;&gt;Node18 -->
<g id="edge38_Node000018_Node000020" class="edge">
<title>Node20&#45;&gt;Node18</title>
<g id="a_edge38_Node000018_Node000020"><a xlink:title=" ">
<path fill="none" stroke="orange" stroke-dasharray="5,2" d="M489.75,-566.91C527.24,-571.63 574.22,-577.91 616,-584.54 622.21,-585.53 628.69,-586.62 635.14,-587.75"/>
<polygon fill="orange" stroke="orange" points="490.29,-563.45 479.93,-565.69 489.42,-570.4 490.29,-563.45"/>
</a>
</g>
<text text-anchor="middle" x="558.5" y="-587.54" font-family="Helvetica,sans-Serif" font-size="10.00" fill="grey"> &lt; wchar_t &gt;</text>
</g>
<!-- Node21&#45;&gt;Node16 -->
<g id="edge40_Node000016_Node000021" class="edge">
<title>Node21&#45;&gt;Node16</title>
<g id="a_edge40_Node000016_Node000021"><a xlink:title=" ">
<path fill="none" stroke="orange" stroke-dasharray="5,2" d="M348.6,-644.07C403.62,-646.08 485.86,-648.54 557.5,-648.54 557.5,-648.54 557.5,-648.54 1810.5,-648.54 1907.78,-648.54 2015.01,-598.13 2064.16,-571.94"/>
<polygon fill="orange" stroke="orange" points="348.92,-640.58 338.79,-643.71 348.66,-647.58 348.92,-640.58"/>
</a>
</g>
<text text-anchor="middle" x="1146.5" y="-651.54" font-family="Helvetica,sans-Serif" font-size="10.00" fill="grey"> &lt; Harlinn::OCI::BindBase &gt;</text>
</g>
<!-- Node22&#45;&gt;Node15 -->
<g id="edge42_Node000015_Node000022" class="edge">
<title>Node22&#45;&gt;Node15</title>
<g id="a_edge42_Node000015_Node000022"><a xlink:title=" ">
<path fill="none" stroke="orange" stroke-dasharray="5,2" d="M1653.25,-50.24C1708.54,-53.86 1797.23,-62.01 1872,-79.54 2028.14,-116.17 2205.42,-189.99 2278.84,-222.07"/>
<polygon fill="orange" stroke="orange" points="1653.69,-46.76 1643.49,-49.62 1653.25,-53.74 1653.69,-46.76"/>
</a>
</g>
<text text-anchor="start" x="1890" y="-133.54" font-family="Helvetica,sans-Serif" font-size="10.00" fill="grey"> &lt; std::unique_ptr&lt;</text>
<text text-anchor="middle" x="1951" y="-122.54" font-family="Helvetica,sans-Serif" font-size="10.00" fill="grey"> Harlinn::OCI::BindBase &gt; &gt;</text>
</g>
<!-- Node23 -->
<g id="Node000023" class="node">
<title>Node23</title>
<g id="a_Node000023"><a xlink:title=" ">
<polygon fill="white" stroke="#666666" points="1860,-22.04 1759,-22.04 1759,-3.04 1860,-3.04 1860,-22.04"/>
<text text-anchor="middle" x="1809.5" y="-10.04" font-family="Helvetica,sans-Serif" font-size="10.00">std::vector&lt; Int16 &gt;</text>
</a>
</g>
</g>
<!-- Node22&#45;&gt;Node23 -->
<g id="edge45_Node000023_Node000022" class="edge">
<title>Node22&#45;&gt;Node23</title>
<g id="a_edge45_Node000023_Node000022"><a xlink:title=" ">
<path fill="none" stroke="orange" stroke-dasharray="5,2" d="M1652.8,-38.68C1685.36,-33.21 1726.84,-26.25 1758.8,-20.89"/>
<polygon fill="orange" stroke="orange" points="1652.47,-35.19 1643.18,-40.29 1653.63,-42.09 1652.47,-35.19"/>
</a>
</g>
<text text-anchor="middle" x="1703" y="-37.54" font-family="Helvetica,sans-Serif" font-size="10.00" fill="grey"> &lt; Int16 &gt;</text>
</g>
<!-- Node23&#45;&gt;Node2 -->
<g id="edge44_Node000002_Node000023" class="edge">
<title>Node23&#45;&gt;Node2</title>
<g id="a_edge44_Node000002_Node000023"><a xlink:title=" ">
<path fill="none" stroke="#9a32cd" stroke-dasharray="5,2" d="M1871.57,-4.08C1877.79,-3.45 1884.01,-2.92 1890,-2.54 1944.12,0.85 1957.88,0.85 2012,-2.54 2017.69,-2.9 2023.6,-3.4 2029.51,-3.98"/>
<polygon fill="#9a32cd" stroke="#9a32cd" points="1871.52,-0.56 1861.96,-5.13 1872.28,-7.52 1871.52,-0.56"/>
</a>
</g>
<text text-anchor="middle" x="1951" y="-5.54" font-family="Helvetica,sans-Serif" font-size="10.00" fill="grey"> indicator_</text>
</g>
</g>
</svg>
