<?xml version="1.0" encoding="UTF-8" standalone="no"?>
<!DOCTYPE svg PUBLIC "-//W3C//DTD SVG 1.1//EN"
 "http://www.w3.org/Graphics/SVG/1.1/DTD/svg11.dtd">
<!-- Generated by graphviz version 7.0.1 (20221109.1506)
 -->
<!-- Title: Harlinn::Common::Core::TimeSpan Pages: 1 -->
<svg width="146pt" height="248pt"
 viewBox="0.00 0.00 146.00 248.00" xmlns="http://www.w3.org/2000/svg" xmlns:xlink="http://www.w3.org/1999/xlink">
<g id="graph0" class="graph" transform="scale(1 1) rotate(0) translate(4 244)">
<title>Harlinn::Common::Core::TimeSpan</title>
<!-- Node1 -->
<g id="Node000001" class="node">
<title>Node1</title>
<g id="a_Node000001"><a xlink:title=" ">
<polygon fill="#999999" stroke="#666666" points="118,-30 0,-30 0,0 118,0 118,-30"/>
<text text-anchor="start" x="8" y="-18" font-family="Helvetica,sans-Serif" font-size="10.00">Harlinn::Common::Core</text>
<text text-anchor="middle" x="59" y="-7" font-family="Helvetica,sans-Serif" font-size="10.00">::TimeSpan</text>
</a>
</g>
</g>
<!-- Node2 -->
<g id="Node000002" class="node">
<title>Node2</title>
<g id="a_Node000002"><a xlink:href="class_harlinn_1_1_common_1_1_core_1_1_time_base.xhtml" target="_top" xlink:title=" ">
<polygon fill="white" stroke="#666666" points="118,-97 0,-97 0,-67 118,-67 118,-97"/>
<text text-anchor="start" x="8" y="-85" font-family="Helvetica,sans-Serif" font-size="10.00">Harlinn::Common::Core</text>
<text text-anchor="middle" x="59" y="-74" font-family="Helvetica,sans-Serif" font-size="10.00">::TimeBase</text>
</a>
</g>
</g>
<!-- Node2&#45;&gt;Node1 -->
<g id="edge1_Node000001_Node000002" class="edge">
<title>Node2&#45;&gt;Node1</title>
<g id="a_edge1_Node000001_Node000002"><a xlink:title=" ">
<path fill="none" stroke="#63b8ff" d="M59,-55.28C59,-46.81 59,-37.7 59,-30.39"/>
<polygon fill="#63b8ff" stroke="#63b8ff" points="55.5,-55.06 59,-65.06 62.5,-55.06 55.5,-55.06"/>
</a>
</g>
</g>
<!-- Node3 -->
<g id="Node000003" class="node">
<title>Node3</title>
<g id="a_Node000003"><a xlink:title=" ">
<polygon fill="white" stroke="#666666" points="99.5,-174 18.5,-174 18.5,-155 99.5,-155 99.5,-174"/>
<text text-anchor="middle" x="59" y="-162" font-family="Helvetica,sans-Serif" font-size="10.00">std::array&lt; T &gt;</text>
</a>
</g>
</g>
<!-- Node3&#45;&gt;Node2 -->
<g id="edge2_Node000002_Node000003" class="edge">
<title>Node3&#45;&gt;Node2</title>
<g id="a_edge2_Node000002_Node000003"><a xlink:title=" ">
<path fill="none" stroke="#9a32cd" stroke-dasharray="5,2" d="M59,-143.45C59,-129.14 59,-110.22 59,-97.39"/>
<polygon fill="#9a32cd" stroke="#9a32cd" points="55.5,-143.06 59,-153.06 62.5,-143.06 55.5,-143.06"/>
</a>
</g>
<text text-anchor="middle" x="98.5" y="-129" font-family="Helvetica,sans-Serif" font-size="10.00" fill="grey"> DaysToMonth365</text>
<text text-anchor="middle" x="98.5" y="-118" font-family="Helvetica,sans-Serif" font-size="10.00" fill="grey">DaysToMonth366</text>
</g>
<!-- Node4 -->
<g id="Node000004" class="node">
<title>Node4</title>
<g id="a_Node000004"><a xlink:title=" ">
<polygon fill="white" stroke="#666666" points="73.5,-240 44.5,-240 44.5,-221 73.5,-221 73.5,-240"/>
<text text-anchor="middle" x="59" y="-228" font-family="Helvetica,sans-Serif" font-size="10.00">T</text>
</a>
</g>
</g>
<!-- Node4&#45;&gt;Node3 -->
<g id="edge3_Node000003_Node000004" class="edge">
<title>Node4&#45;&gt;Node3</title>
<g id="a_edge3_Node000003_Node000004"><a xlink:title=" ">
<path fill="none" stroke="#9a32cd" stroke-dasharray="5,2" d="M59,-209.18C59,-197.44 59,-183.27 59,-174.32"/>
<polygon fill="#9a32cd" stroke="#9a32cd" points="55.5,-209.09 59,-219.09 62.5,-209.09 55.5,-209.09"/>
</a>
</g>
<text text-anchor="middle" x="80.5" y="-195" font-family="Helvetica,sans-Serif" font-size="10.00" fill="grey"> elements</text>
</g>
</g>
</svg>
