<?xml version="1.0" encoding="UTF-8" standalone="no"?>
<!DOCTYPE svg PUBLIC "-//W3C//DTD SVG 1.1//EN"
 "http://www.w3.org/Graphics/SVG/1.1/DTD/svg11.dtd">
<!-- Generated by graphviz version 7.0.1 (20221109.1506)
 -->
<!-- Title: Harlinn::Common::Core::Doxygen::ListOfAllMembersType Pages: 1 -->
<svg width="968pt" height="108pt"
 viewBox="0.00 0.00 968.00 107.50" xmlns="http://www.w3.org/2000/svg" xmlns:xlink="http://www.w3.org/1999/xlink">
<g id="graph0" class="graph" transform="scale(1 1) rotate(0) translate(4 103.5)">
<title>Harlinn::Common::Core::Doxygen::ListOfAllMembersType</title>
<!-- Node1 -->
<g id="Node000001" class="node">
<title>Node1</title>
<g id="a_Node000001"><a xlink:title=" ">
<polygon fill="#999999" stroke="#666666" points="960,-50.5 795,-50.5 795,-20.5 960,-20.5 960,-50.5"/>
<text text-anchor="start" x="803" y="-38.5" font-family="Helvetica,sans-Serif" font-size="10.00">Harlinn::Common::Core</text>
<text text-anchor="middle" x="877.5" y="-27.5" font-family="Helvetica,sans-Serif" font-size="10.00">::Doxygen::ListOfAllMembersType</text>
</a>
</g>
</g>
<!-- Node2 -->
<g id="Node000002" class="node">
<title>Node2</title>
<g id="a_Node000002"><a xlink:href="class_harlinn_1_1_common_1_1_core_1_1_doxygen_1_1_internal_1_1_doc_base.html" target="_top" xlink:title=" ">
<polygon fill="white" stroke="#666666" points="758,-89.5 610,-89.5 610,-37.5 758,-37.5 758,-89.5"/>
<text text-anchor="start" x="618" y="-77.5" font-family="Helvetica,sans-Serif" font-size="10.00">Harlinn::Common::Core</text>
<text text-anchor="start" x="618" y="-66.5" font-family="Helvetica,sans-Serif" font-size="10.00">::Doxygen::Internal::</text>
<text text-anchor="start" x="618" y="-55.5" font-family="Helvetica,sans-Serif" font-size="10.00">DocBase&lt; Doxygen::DoxType</text>
<text text-anchor="middle" x="684" y="-44.5" font-family="Helvetica,sans-Serif" font-size="10.00">::ListOfAllMembersType &gt;</text>
</a>
</g>
</g>
<!-- Node2&#45;&gt;Node1 -->
<g id="edge1_Node000001_Node000002" class="edge">
<title>Node2&#45;&gt;Node1</title>
<g id="a_edge1_Node000001_Node000002"><a xlink:title=" ">
<path fill="none" stroke="#63b8ff" d="M769.68,-51.12C777.96,-49.91 786.35,-48.68 794.59,-47.48"/>
<polygon fill="#63b8ff" stroke="#63b8ff" points="769.38,-47.63 759.99,-52.54 770.39,-54.55 769.38,-47.63"/>
</a>
</g>
</g>
<!-- Node3 -->
<g id="Node000003" class="node">
<title>Node3</title>
<g id="a_Node000003"><a xlink:href="class_harlinn_1_1_common_1_1_core_1_1_doxygen_1_1_doc_base_type.html" target="_top" xlink:title=" ">
<polygon fill="white" stroke="#666666" points="305,-99.5 177,-99.5 177,-69.5 305,-69.5 305,-99.5"/>
<text text-anchor="start" x="185" y="-87.5" font-family="Helvetica,sans-Serif" font-size="10.00">Harlinn::Common::Core</text>
<text text-anchor="middle" x="241" y="-76.5" font-family="Helvetica,sans-Serif" font-size="10.00">::Doxygen::DocBaseType</text>
</a>
</g>
</g>
<!-- Node3&#45;&gt;Node2 -->
<g id="edge2_Node000002_Node000003" class="edge">
<title>Node3&#45;&gt;Node2</title>
<g id="a_edge2_Node000002_Node000003"><a xlink:title=" ">
<path fill="none" stroke="#63b8ff" d="M316.36,-91.5C387.5,-96.7 497.62,-100.83 592,-87.5 597.82,-86.68 603.81,-85.61 609.8,-84.39"/>
<polygon fill="#63b8ff" stroke="#63b8ff" points="317.03,-88.04 306.79,-90.77 316.5,-95.02 317.03,-88.04"/>
</a>
</g>
</g>
<!-- Node5 -->
<g id="Node000005" class="node">
<title>Node5</title>
<g id="a_Node000005"><a xlink:href="class_harlinn_1_1_common_1_1_core_1_1_doxygen_1_1_internal_1_1_doc_base.html" target="_top" xlink:title=" ">
<polygon fill="white" stroke="#666666" points="460,-81 342,-81 342,-40 460,-40 460,-81"/>
<text text-anchor="start" x="350" y="-69" font-family="Helvetica,sans-Serif" font-size="10.00">Harlinn::Common::Core</text>
<text text-anchor="start" x="350" y="-58" font-family="Helvetica,sans-Serif" font-size="10.00">::Doxygen::Internal::</text>
<text text-anchor="middle" x="401" y="-47" font-family="Helvetica,sans-Serif" font-size="10.00">DocBase&lt; doxType &gt;</text>
</a>
</g>
</g>
<!-- Node3&#45;&gt;Node5 -->
<g id="edge5_Node000005_Node000003" class="edge">
<title>Node3&#45;&gt;Node5</title>
<g id="a_edge5_Node000005_Node000003"><a xlink:title=" ">
<path fill="none" stroke="#63b8ff" d="M316.73,-73.15C325.13,-71.87 333.6,-70.59 341.75,-69.35"/>
<polygon fill="#63b8ff" stroke="#63b8ff" points="316.21,-69.69 306.85,-74.65 317.26,-76.61 316.21,-69.69"/>
</a>
</g>
</g>
<!-- Node4 -->
<g id="Node000004" class="node">
<title>Node4</title>
<g id="a_Node000004"><a xlink:title=" ">
<polygon fill="white" stroke="#666666" points="140,-99.5 0,-99.5 0,-69.5 140,-69.5 140,-99.5"/>
<text text-anchor="start" x="8" y="-87.5" font-family="Helvetica,sans-Serif" font-size="10.00">std::enable_shared</text>
<text text-anchor="middle" x="70" y="-76.5" font-family="Helvetica,sans-Serif" font-size="10.00">_from_this&lt; DocBaseType &gt;</text>
</a>
</g>
</g>
<!-- Node4&#45;&gt;Node3 -->
<g id="edge3_Node000003_Node000004" class="edge">
<title>Node4&#45;&gt;Node3</title>
<g id="a_edge3_Node000003_Node000004"><a xlink:title=" ">
<path fill="none" stroke="#8b1a1a" d="M151.6,-84.5C159.99,-84.5 168.43,-84.5 176.59,-84.5"/>
<polygon fill="#8b1a1a" stroke="#8b1a1a" points="151.74,-81 141.74,-84.5 151.74,-88 151.74,-81"/>
</a>
</g>
</g>
<!-- Node5&#45;&gt;Node2 -->
<g id="edge4_Node000002_Node000005" class="edge">
<title>Node5&#45;&gt;Node2</title>
<g id="a_edge4_Node000002_Node000005"><a xlink:title=" ">
<path fill="none" stroke="orange" stroke-dasharray="5,2" d="M471.73,-61.24C513.67,-61.69 566.99,-62.26 609.57,-62.72"/>
<polygon fill="orange" stroke="orange" points="471.77,-57.74 461.74,-61.14 471.7,-64.74 471.77,-57.74"/>
</a>
</g>
<text text-anchor="start" x="478" y="-75.5" font-family="Helvetica,sans-Serif" font-size="10.00" fill="grey"> &lt; Doxygen::DoxType</text>
<text text-anchor="middle" x="535" y="-64.5" font-family="Helvetica,sans-Serif" font-size="10.00" fill="grey">::ListOfAllMembersType &gt;</text>
</g>
<!-- Node6 -->
<g id="Node000006" class="node">
<title>Node6</title>
<g id="a_Node000006"><a xlink:title=" ">
<polygon fill="white" stroke="#666666" points="726.5,-19 641.5,-19 641.5,0 726.5,0 726.5,-19"/>
<text text-anchor="middle" x="684" y="-7" font-family="Helvetica,sans-Serif" font-size="10.00">std::vector&lt; T &gt;</text>
</a>
</g>
</g>
<!-- Node6&#45;&gt;Node1 -->
<g id="edge6_Node000001_Node000006" class="edge">
<title>Node6&#45;&gt;Node1</title>
<g id="a_edge6_Node000001_Node000006"><a xlink:title=" ">
<path fill="none" stroke="#63b8ff" d="M737.77,-16.66C755.42,-19.06 775.54,-21.79 794.87,-24.42"/>
<polygon fill="#63b8ff" stroke="#63b8ff" points="738.43,-13.22 728.05,-15.35 737.49,-20.16 738.43,-13.22"/>
</a>
</g>
</g>
<!-- Node7 -->
<g id="Node000007" class="node">
<title>Node7</title>
<g id="a_Node000007"><a xlink:title=" ">
<polygon fill="white" stroke="#666666" points="415.5,-19 386.5,-19 386.5,0 415.5,0 415.5,-19"/>
<text text-anchor="middle" x="401" y="-7" font-family="Helvetica,sans-Serif" font-size="10.00">T</text>
</a>
</g>
</g>
<!-- Node7&#45;&gt;Node6 -->
<g id="edge7_Node000006_Node000007" class="edge">
<title>Node7&#45;&gt;Node6</title>
<g id="a_edge7_Node000006_Node000007"><a xlink:title=" ">
<path fill="none" stroke="#9a32cd" stroke-dasharray="5,2" d="M427.18,-9.5C475.57,-9.5 581.98,-9.5 641.18,-9.5"/>
<polygon fill="#9a32cd" stroke="#9a32cd" points="427.45,-6 417.45,-9.5 427.45,-13 427.45,-6"/>
</a>
</g>
<text text-anchor="middle" x="535" y="-12.5" font-family="Helvetica,sans-Serif" font-size="10.00" fill="grey"> elements</text>
</g>
</g>
</svg>
