<?xml version="1.0" encoding="UTF-8" standalone="no"?>
<!DOCTYPE svg PUBLIC "-//W3C//DTD SVG 1.1//EN"
 "http://www.w3.org/Graphics/SVG/1.1/DTD/svg11.dtd">
<!-- Generated by graphviz version 7.0.1 (20221109.1506)
 -->
<!-- Title: Harlinn::Common::Core::Doxygen::Internal::DocInternalSectionType&lt; doxType, SubSectT &gt; Pages: 1 -->
<svg width="1320pt" height="476pt"
 viewBox="0.00 0.00 1320.00 476.00" xmlns="http://www.w3.org/2000/svg" xmlns:xlink="http://www.w3.org/1999/xlink">
<g id="graph0" class="graph" transform="scale(1 1) rotate(0) translate(4 472)">
<title>Harlinn::Common::Core::Doxygen::Internal::DocInternalSectionType&lt; doxType, SubSectT &gt;</title>
<!-- Node1 -->
<g id="Node000001" class="node">
<title>Node1</title>
<g id="a_Node000001"><a xlink:title=" ">
<polygon fill="#999999" stroke="#666666" points="796,-259.5 676,-259.5 676,-207.5 796,-207.5 796,-259.5"/>
<text text-anchor="start" x="684" y="-247.5" font-family="Helvetica,sans-Serif" font-size="10.00">Harlinn::Common::Core</text>
<text text-anchor="start" x="684" y="-236.5" font-family="Helvetica,sans-Serif" font-size="10.00">::Doxygen::Internal::</text>
<text text-anchor="start" x="684" y="-225.5" font-family="Helvetica,sans-Serif" font-size="10.00">DocInternalSectionType</text>
<text text-anchor="middle" x="736" y="-214.5" font-family="Helvetica,sans-Serif" font-size="10.00">&lt; doxType, SubSectT &gt;</text>
</a>
</g>
</g>
<!-- Node7 -->
<g id="Node000007" class="node">
<title>Node7</title>
<g id="a_Node000007"><a xlink:href="class_harlinn_1_1_common_1_1_core_1_1_doxygen_1_1_internal_1_1_doc_internal_section_type.xhtml" target="_top" xlink:title=" ">
<polygon fill="white" stroke="#666666" points="1126,-468 963,-468 963,-405 1126,-405 1126,-468"/>
<text text-anchor="start" x="971" y="-456" font-family="Helvetica,sans-Serif" font-size="10.00">Harlinn::Common::Core</text>
<text text-anchor="start" x="971" y="-445" font-family="Helvetica,sans-Serif" font-size="10.00">::Doxygen::Internal::</text>
<text text-anchor="start" x="971" y="-434" font-family="Helvetica,sans-Serif" font-size="10.00">DocInternalSectionType</text>
<text text-anchor="start" x="971" y="-423" font-family="Helvetica,sans-Serif" font-size="10.00">&lt; Doxygen::DoxType::DocInternal</text>
<text text-anchor="middle" x="1044.5" y="-412" font-family="Helvetica,sans-Serif" font-size="10.00">S1Type, DocInternalS2Type &gt;</text>
</a>
</g>
</g>
<!-- Node1&#45;&gt;Node7 -->
<g id="edge6_Node000001_Node000007" class="edge">
<title>Node1&#45;&gt;Node7</title>
<g id="a_edge6_Node000001_Node000007"><a xlink:title=" ">
<path fill="none" stroke="orange" stroke-dasharray="5,2" d="M747.17,-270.39C758.23,-303.57 779.14,-351.16 814,-378.5 856.2,-411.6 915.01,-426.02 962.54,-432.21"/>
<polygon fill="orange" stroke="orange" points="750.61,-269.66 744.26,-261.19 743.94,-271.78 750.61,-269.66"/>
</a>
</g>
<text text-anchor="start" x="832" y="-453.5" font-family="Helvetica,sans-Serif" font-size="10.00" fill="grey"> &lt; Doxygen::DoxType</text>
<text text-anchor="start" x="832" y="-442.5" font-family="Helvetica,sans-Serif" font-size="10.00" fill="grey">::DocInternalS1Type,</text>
<text text-anchor="middle" x="879.5" y="-431.5" font-family="Helvetica,sans-Serif" font-size="10.00" fill="grey"> DocInternalS2Type &gt;</text>
</g>
<!-- Node9 -->
<g id="Node000009" class="node">
<title>Node9</title>
<g id="a_Node000009"><a xlink:href="class_harlinn_1_1_common_1_1_core_1_1_doxygen_1_1_internal_1_1_doc_internal_section_type.xhtml" target="_top" xlink:title=" ">
<polygon fill="white" stroke="#666666" points="1126,-387 963,-387 963,-324 1126,-324 1126,-387"/>
<text text-anchor="start" x="971" y="-375" font-family="Helvetica,sans-Serif" font-size="10.00">Harlinn::Common::Core</text>
<text text-anchor="start" x="971" y="-364" font-family="Helvetica,sans-Serif" font-size="10.00">::Doxygen::Internal::</text>
<text text-anchor="start" x="971" y="-353" font-family="Helvetica,sans-Serif" font-size="10.00">DocInternalSectionType</text>
<text text-anchor="start" x="971" y="-342" font-family="Helvetica,sans-Serif" font-size="10.00">&lt; Doxygen::DoxType::DocInternal</text>
<text text-anchor="middle" x="1044.5" y="-331" font-family="Helvetica,sans-Serif" font-size="10.00">S2Type, DocInternalS3Type &gt;</text>
</a>
</g>
</g>
<!-- Node1&#45;&gt;Node9 -->
<g id="edge8_Node000001_Node000009" class="edge">
<title>Node1&#45;&gt;Node9</title>
<g id="a_edge8_Node000001_Node000009"><a xlink:title=" ">
<path fill="none" stroke="orange" stroke-dasharray="5,2" d="M769.11,-267.61C782.03,-279.58 797.72,-292.11 814,-300.5 860.26,-324.33 917.1,-338.05 962.64,-345.83"/>
<polygon fill="orange" stroke="orange" points="771.78,-265.32 762.14,-260.92 766.94,-270.37 771.78,-265.32"/>
</a>
</g>
<text text-anchor="start" x="832" y="-366.5" font-family="Helvetica,sans-Serif" font-size="10.00" fill="grey"> &lt; Doxygen::DoxType</text>
<text text-anchor="start" x="832" y="-355.5" font-family="Helvetica,sans-Serif" font-size="10.00" fill="grey">::DocInternalS2Type,</text>
<text text-anchor="middle" x="879.5" y="-344.5" font-family="Helvetica,sans-Serif" font-size="10.00" fill="grey"> DocInternalS3Type &gt;</text>
</g>
<!-- Node11 -->
<g id="Node000011" class="node">
<title>Node11</title>
<g id="a_Node000011"><a xlink:href="class_harlinn_1_1_common_1_1_core_1_1_doxygen_1_1_internal_1_1_doc_internal_section_type.xhtml" target="_top" xlink:title=" ">
<polygon fill="white" stroke="#666666" points="1126,-306 963,-306 963,-243 1126,-243 1126,-306"/>
<text text-anchor="start" x="971" y="-294" font-family="Helvetica,sans-Serif" font-size="10.00">Harlinn::Common::Core</text>
<text text-anchor="start" x="971" y="-283" font-family="Helvetica,sans-Serif" font-size="10.00">::Doxygen::Internal::</text>
<text text-anchor="start" x="971" y="-272" font-family="Helvetica,sans-Serif" font-size="10.00">DocInternalSectionType</text>
<text text-anchor="start" x="971" y="-261" font-family="Helvetica,sans-Serif" font-size="10.00">&lt; Doxygen::DoxType::DocInternal</text>
<text text-anchor="middle" x="1044.5" y="-250" font-family="Helvetica,sans-Serif" font-size="10.00">S3Type, DocInternalS4Type &gt;</text>
</a>
</g>
</g>
<!-- Node1&#45;&gt;Node11 -->
<g id="edge10_Node000001_Node000011" class="edge">
<title>Node1&#45;&gt;Node11</title>
<g id="a_edge10_Node000001_Node000011"><a xlink:title=" ">
<path fill="none" stroke="orange" stroke-dasharray="5,2" d="M807.43,-244.56C809.65,-244.88 811.84,-245.2 814,-245.5 863.31,-252.46 918.7,-259.48 962.7,-264.87"/>
<polygon fill="orange" stroke="orange" points="808.15,-241.13 797.75,-243.13 807.13,-248.05 808.15,-241.13"/>
</a>
</g>
<text text-anchor="start" x="832" y="-288.5" font-family="Helvetica,sans-Serif" font-size="10.00" fill="grey"> &lt; Doxygen::DoxType</text>
<text text-anchor="start" x="832" y="-277.5" font-family="Helvetica,sans-Serif" font-size="10.00" fill="grey">::DocInternalS3Type,</text>
<text text-anchor="middle" x="879.5" y="-266.5" font-family="Helvetica,sans-Serif" font-size="10.00" fill="grey"> DocInternalS4Type &gt;</text>
</g>
<!-- Node13 -->
<g id="Node000013" class="node">
<title>Node13</title>
<g id="a_Node000013"><a xlink:href="class_harlinn_1_1_common_1_1_core_1_1_doxygen_1_1_internal_1_1_doc_internal_section_type.xhtml" target="_top" xlink:title=" ">
<polygon fill="white" stroke="#666666" points="1126,-225 963,-225 963,-162 1126,-162 1126,-225"/>
<text text-anchor="start" x="971" y="-213" font-family="Helvetica,sans-Serif" font-size="10.00">Harlinn::Common::Core</text>
<text text-anchor="start" x="971" y="-202" font-family="Helvetica,sans-Serif" font-size="10.00">::Doxygen::Internal::</text>
<text text-anchor="start" x="971" y="-191" font-family="Helvetica,sans-Serif" font-size="10.00">DocInternalSectionType</text>
<text text-anchor="start" x="971" y="-180" font-family="Helvetica,sans-Serif" font-size="10.00">&lt; Doxygen::DoxType::DocInternal</text>
<text text-anchor="middle" x="1044.5" y="-169" font-family="Helvetica,sans-Serif" font-size="10.00">S4Type, DocInternalS5Type &gt;</text>
</a>
</g>
</g>
<!-- Node1&#45;&gt;Node13 -->
<g id="edge12_Node000001_Node000013" class="edge">
<title>Node1&#45;&gt;Node13</title>
<g id="a_edge12_Node000001_Node000013"><a xlink:title=" ">
<path fill="none" stroke="orange" stroke-dasharray="5,2" d="M807.48,-213.73C809.67,-213.29 811.85,-212.88 814,-212.5 862.92,-203.88 918.42,-199.15 962.58,-196.57"/>
<polygon fill="orange" stroke="orange" points="806.95,-210.26 797.93,-215.81 808.44,-217.1 806.95,-210.26"/>
</a>
</g>
<text text-anchor="start" x="832" y="-237.5" font-family="Helvetica,sans-Serif" font-size="10.00" fill="grey"> &lt; Doxygen::DoxType</text>
<text text-anchor="start" x="832" y="-226.5" font-family="Helvetica,sans-Serif" font-size="10.00" fill="grey">::DocInternalS4Type,</text>
<text text-anchor="middle" x="879.5" y="-215.5" font-family="Helvetica,sans-Serif" font-size="10.00" fill="grey"> DocInternalS5Type &gt;</text>
</g>
<!-- Node15 -->
<g id="Node000015" class="node">
<title>Node15</title>
<g id="a_Node000015"><a xlink:href="class_harlinn_1_1_common_1_1_core_1_1_doxygen_1_1_internal_1_1_doc_internal_section_type.xhtml" target="_top" xlink:title=" ">
<polygon fill="white" stroke="#666666" points="1126,-144 963,-144 963,-81 1126,-81 1126,-144"/>
<text text-anchor="start" x="971" y="-132" font-family="Helvetica,sans-Serif" font-size="10.00">Harlinn::Common::Core</text>
<text text-anchor="start" x="971" y="-121" font-family="Helvetica,sans-Serif" font-size="10.00">::Doxygen::Internal::</text>
<text text-anchor="start" x="971" y="-110" font-family="Helvetica,sans-Serif" font-size="10.00">DocInternalSectionType</text>
<text text-anchor="start" x="971" y="-99" font-family="Helvetica,sans-Serif" font-size="10.00">&lt; Doxygen::DoxType::DocInternal</text>
<text text-anchor="middle" x="1044.5" y="-88" font-family="Helvetica,sans-Serif" font-size="10.00">S5Type, DocInternalS6Type &gt;</text>
</a>
</g>
</g>
<!-- Node1&#45;&gt;Node15 -->
<g id="edge14_Node000001_Node000015" class="edge">
<title>Node1&#45;&gt;Node15</title>
<g id="a_edge14_Node000001_Node000015"><a xlink:title=" ">
<path fill="none" stroke="orange" stroke-dasharray="5,2" d="M766.4,-198.79C779.64,-185.24 796.26,-170.76 814,-161.5 859.96,-137.51 916.93,-125.26 962.62,-119.01"/>
<polygon fill="orange" stroke="orange" points="763.97,-196.27 759.66,-205.95 769.06,-201.07 763.97,-196.27"/>
</a>
</g>
<text text-anchor="start" x="832" y="-186.5" font-family="Helvetica,sans-Serif" font-size="10.00" fill="grey"> &lt; Doxygen::DoxType</text>
<text text-anchor="start" x="832" y="-175.5" font-family="Helvetica,sans-Serif" font-size="10.00" fill="grey">::DocInternalS5Type,</text>
<text text-anchor="middle" x="879.5" y="-164.5" font-family="Helvetica,sans-Serif" font-size="10.00" fill="grey"> DocInternalS6Type &gt;</text>
</g>
<!-- Node17 -->
<g id="Node000017" class="node">
<title>Node17</title>
<g id="a_Node000017"><a xlink:href="class_harlinn_1_1_common_1_1_core_1_1_doxygen_1_1_internal_1_1_doc_internal_section_type.xhtml" target="_top" xlink:title=" ">
<polygon fill="white" stroke="#666666" points="1126,-63 963,-63 963,0 1126,0 1126,-63"/>
<text text-anchor="start" x="971" y="-51" font-family="Helvetica,sans-Serif" font-size="10.00">Harlinn::Common::Core</text>
<text text-anchor="start" x="971" y="-40" font-family="Helvetica,sans-Serif" font-size="10.00">::Doxygen::Internal::</text>
<text text-anchor="start" x="971" y="-29" font-family="Helvetica,sans-Serif" font-size="10.00">DocInternalSectionType</text>
<text text-anchor="start" x="971" y="-18" font-family="Helvetica,sans-Serif" font-size="10.00">&lt; Doxygen::DoxType::DocInternal</text>
<text text-anchor="middle" x="1044.5" y="-7" font-family="Helvetica,sans-Serif" font-size="10.00">Type, DocInternalS1Type &gt;</text>
</a>
</g>
</g>
<!-- Node1&#45;&gt;Node17 -->
<g id="edge16_Node000001_Node000017" class="edge">
<title>Node1&#45;&gt;Node17</title>
<g id="a_edge16_Node000001_Node000017"><a xlink:title=" ">
<path fill="none" stroke="orange" stroke-dasharray="5,2" d="M746.67,-196.31C757.46,-162.34 778.26,-113.3 814,-85.5 856.16,-52.7 914.98,-39.31 962.51,-34.06"/>
<polygon fill="orange" stroke="orange" points="743.36,-195.16 743.83,-205.75 750.07,-197.18 743.36,-195.16"/>
</a>
</g>
<text text-anchor="start" x="814" y="-110.5" font-family="Helvetica,sans-Serif" font-size="10.00" fill="grey"> &lt; Doxygen::DoxType</text>
<text text-anchor="start" x="814" y="-99.5" font-family="Helvetica,sans-Serif" font-size="10.00" fill="grey">::DocInternalType, DocInternal</text>
<text text-anchor="middle" x="879.5" y="-88.5" font-family="Helvetica,sans-Serif" font-size="10.00" fill="grey">S1Type &gt;</text>
</g>
<!-- Node2 -->
<g id="Node000002" class="node">
<title>Node2</title>
<g id="a_Node000002"><a xlink:href="class_harlinn_1_1_common_1_1_core_1_1_doxygen_1_1_internal_1_1_doc_internal_section_base_type.xhtml" target="_top" xlink:title=" ">
<polygon fill="white" stroke="#666666" points="639,-259.5 497,-259.5 497,-207.5 639,-207.5 639,-259.5"/>
<text text-anchor="start" x="505" y="-247.5" font-family="Helvetica,sans-Serif" font-size="10.00">Harlinn::Common::Core</text>
<text text-anchor="start" x="505" y="-236.5" font-family="Helvetica,sans-Serif" font-size="10.00">::Doxygen::Internal::</text>
<text text-anchor="start" x="505" y="-225.5" font-family="Helvetica,sans-Serif" font-size="10.00">DocInternalSectionBaseType</text>
<text text-anchor="middle" x="568" y="-214.5" font-family="Helvetica,sans-Serif" font-size="10.00">&lt; doxType &gt;</text>
</a>
</g>
</g>
<!-- Node2&#45;&gt;Node1 -->
<g id="edge1_Node000001_Node000002" class="edge">
<title>Node2&#45;&gt;Node1</title>
<g id="a_edge1_Node000001_Node000002"><a xlink:title=" ">
<path fill="none" stroke="#63b8ff" d="M650.82,-233.5C659.23,-233.5 667.66,-233.5 675.75,-233.5"/>
<polygon fill="#63b8ff" stroke="#63b8ff" points="650.91,-230 640.91,-233.5 650.91,-237 650.91,-230"/>
</a>
</g>
</g>
<!-- Node3 -->
<g id="Node000003" class="node">
<title>Node3</title>
<g id="a_Node000003"><a xlink:href="class_harlinn_1_1_common_1_1_core_1_1_doxygen_1_1_internal_1_1_doc_base.xhtml" target="_top" xlink:title=" ">
<polygon fill="white" stroke="#666666" points="460,-290 342,-290 342,-249 460,-249 460,-290"/>
<text text-anchor="start" x="350" y="-278" font-family="Helvetica,sans-Serif" font-size="10.00">Harlinn::Common::Core</text>
<text text-anchor="start" x="350" y="-267" font-family="Helvetica,sans-Serif" font-size="10.00">::Doxygen::Internal::</text>
<text text-anchor="middle" x="401" y="-256" font-family="Helvetica,sans-Serif" font-size="10.00">DocBase&lt; doxType &gt;</text>
</a>
</g>
</g>
<!-- Node3&#45;&gt;Node2 -->
<g id="edge2_Node000002_Node000003" class="edge">
<title>Node3&#45;&gt;Node2</title>
<g id="a_edge2_Node000002_Node000003"><a xlink:title=" ">
<path fill="none" stroke="#63b8ff" d="M471.4,-254.36C479.74,-252.54 488.26,-250.68 496.62,-248.86"/>
<polygon fill="#63b8ff" stroke="#63b8ff" points="470.68,-250.93 461.65,-256.49 472.17,-257.77 470.68,-250.93"/>
</a>
</g>
</g>
<!-- Node4 -->
<g id="Node000004" class="node">
<title>Node4</title>
<g id="a_Node000004"><a xlink:href="class_harlinn_1_1_common_1_1_core_1_1_doxygen_1_1_doc_base_type.xhtml" target="_top" xlink:title=" ">
<polygon fill="white" stroke="#666666" points="305,-284.5 177,-284.5 177,-254.5 305,-254.5 305,-284.5"/>
<text text-anchor="start" x="185" y="-272.5" font-family="Helvetica,sans-Serif" font-size="10.00">Harlinn::Common::Core</text>
<text text-anchor="middle" x="241" y="-261.5" font-family="Helvetica,sans-Serif" font-size="10.00">::Doxygen::DocBaseType</text>
</a>
</g>
</g>
<!-- Node4&#45;&gt;Node3 -->
<g id="edge3_Node000003_Node000004" class="edge">
<title>Node4&#45;&gt;Node3</title>
<g id="a_edge3_Node000003_Node000004"><a xlink:title=" ">
<path fill="none" stroke="#63b8ff" d="M316.73,-269.5C325.13,-269.5 333.6,-269.5 341.75,-269.5"/>
<polygon fill="#63b8ff" stroke="#63b8ff" points="316.87,-266 306.87,-269.5 316.87,-273 316.87,-266"/>
</a>
</g>
</g>
<!-- Node5 -->
<g id="Node000005" class="node">
<title>Node5</title>
<g id="a_Node000005"><a xlink:title=" ">
<polygon fill="white" stroke="#666666" points="140,-284.5 0,-284.5 0,-254.5 140,-254.5 140,-284.5"/>
<text text-anchor="start" x="8" y="-272.5" font-family="Helvetica,sans-Serif" font-size="10.00">std::enable_shared</text>
<text text-anchor="middle" x="70" y="-261.5" font-family="Helvetica,sans-Serif" font-size="10.00">_from_this&lt; DocBaseType &gt;</text>
</a>
</g>
</g>
<!-- Node5&#45;&gt;Node4 -->
<g id="edge4_Node000004_Node000005" class="edge">
<title>Node5&#45;&gt;Node4</title>
<g id="a_edge4_Node000004_Node000005"><a xlink:title=" ">
<path fill="none" stroke="#8b1a1a" d="M151.6,-269.5C159.99,-269.5 168.43,-269.5 176.59,-269.5"/>
<polygon fill="#8b1a1a" stroke="#8b1a1a" points="151.74,-266 141.74,-269.5 151.74,-273 151.74,-266"/>
</a>
</g>
</g>
<!-- Node6 -->
<g id="Node000006" class="node">
<title>Node6</title>
<g id="a_Node000006"><a xlink:title=" ">
<polygon fill="white" stroke="#666666" points="443.5,-231 358.5,-231 358.5,-212 443.5,-212 443.5,-231"/>
<text text-anchor="middle" x="401" y="-219" font-family="Helvetica,sans-Serif" font-size="10.00">std::vector&lt; T &gt;</text>
</a>
</g>
</g>
<!-- Node6&#45;&gt;Node2 -->
<g id="edge5_Node000002_Node000006" class="edge">
<title>Node6&#45;&gt;Node2</title>
<g id="a_edge5_Node000002_Node000006"><a xlink:title=" ">
<path fill="none" stroke="#63b8ff" d="M454.99,-225.35C468.3,-226.32 482.8,-227.38 496.81,-228.4"/>
<polygon fill="#63b8ff" stroke="#63b8ff" points="455.37,-221.87 445.15,-224.64 454.87,-228.85 455.37,-221.87"/>
</a>
</g>
</g>
<!-- Node8 -->
<g id="Node000008" class="node">
<title>Node8</title>
<g id="a_Node000008"><a xlink:href="class_harlinn_1_1_common_1_1_core_1_1_doxygen_1_1_doc_internal_s1_type.xhtml" target="_top" xlink:title=" ">
<polygon fill="white" stroke="#666666" points="1312,-451.5 1163,-451.5 1163,-421.5 1312,-421.5 1312,-451.5"/>
<text text-anchor="start" x="1171" y="-439.5" font-family="Helvetica,sans-Serif" font-size="10.00">Harlinn::Common::Core</text>
<text text-anchor="middle" x="1237.5" y="-428.5" font-family="Helvetica,sans-Serif" font-size="10.00">::Doxygen::DocInternalS1Type</text>
</a>
</g>
</g>
<!-- Node7&#45;&gt;Node8 -->
<g id="edge7_Node000007_Node000008" class="edge">
<title>Node7&#45;&gt;Node8</title>
<g id="a_edge7_Node000007_Node000008"><a xlink:title=" ">
<path fill="none" stroke="#63b8ff" d="M1137.65,-436.5C1146.07,-436.5 1154.52,-436.5 1162.74,-436.5"/>
<polygon fill="#63b8ff" stroke="#63b8ff" points="1137.74,-433 1127.74,-436.5 1137.74,-440 1137.74,-433"/>
</a>
</g>
</g>
<!-- Node10 -->
<g id="Node000010" class="node">
<title>Node10</title>
<g id="a_Node000010"><a xlink:href="class_harlinn_1_1_common_1_1_core_1_1_doxygen_1_1_doc_internal_s2_type.xhtml" target="_top" xlink:title=" ">
<polygon fill="white" stroke="#666666" points="1312,-370.5 1163,-370.5 1163,-340.5 1312,-340.5 1312,-370.5"/>
<text text-anchor="start" x="1171" y="-358.5" font-family="Helvetica,sans-Serif" font-size="10.00">Harlinn::Common::Core</text>
<text text-anchor="middle" x="1237.5" y="-347.5" font-family="Helvetica,sans-Serif" font-size="10.00">::Doxygen::DocInternalS2Type</text>
</a>
</g>
</g>
<!-- Node9&#45;&gt;Node10 -->
<g id="edge9_Node000009_Node000010" class="edge">
<title>Node9&#45;&gt;Node10</title>
<g id="a_edge9_Node000009_Node000010"><a xlink:title=" ">
<path fill="none" stroke="#63b8ff" d="M1137.65,-355.5C1146.07,-355.5 1154.52,-355.5 1162.74,-355.5"/>
<polygon fill="#63b8ff" stroke="#63b8ff" points="1137.74,-352 1127.74,-355.5 1137.74,-359 1137.74,-352"/>
</a>
</g>
</g>
<!-- Node12 -->
<g id="Node000012" class="node">
<title>Node12</title>
<g id="a_Node000012"><a xlink:href="class_harlinn_1_1_common_1_1_core_1_1_doxygen_1_1_doc_internal_s3_type.xhtml" target="_top" xlink:title=" ">
<polygon fill="white" stroke="#666666" points="1312,-289.5 1163,-289.5 1163,-259.5 1312,-259.5 1312,-289.5"/>
<text text-anchor="start" x="1171" y="-277.5" font-family="Helvetica,sans-Serif" font-size="10.00">Harlinn::Common::Core</text>
<text text-anchor="middle" x="1237.5" y="-266.5" font-family="Helvetica,sans-Serif" font-size="10.00">::Doxygen::DocInternalS3Type</text>
</a>
</g>
</g>
<!-- Node11&#45;&gt;Node12 -->
<g id="edge11_Node000011_Node000012" class="edge">
<title>Node11&#45;&gt;Node12</title>
<g id="a_edge11_Node000011_Node000012"><a xlink:title=" ">
<path fill="none" stroke="#63b8ff" d="M1137.65,-274.5C1146.07,-274.5 1154.52,-274.5 1162.74,-274.5"/>
<polygon fill="#63b8ff" stroke="#63b8ff" points="1137.74,-271 1127.74,-274.5 1137.74,-278 1137.74,-271"/>
</a>
</g>
</g>
<!-- Node14 -->
<g id="Node000014" class="node">
<title>Node14</title>
<g id="a_Node000014"><a xlink:href="class_harlinn_1_1_common_1_1_core_1_1_doxygen_1_1_doc_internal_s4_type.xhtml" target="_top" xlink:title=" ">
<polygon fill="white" stroke="#666666" points="1312,-208.5 1163,-208.5 1163,-178.5 1312,-178.5 1312,-208.5"/>
<text text-anchor="start" x="1171" y="-196.5" font-family="Helvetica,sans-Serif" font-size="10.00">Harlinn::Common::Core</text>
<text text-anchor="middle" x="1237.5" y="-185.5" font-family="Helvetica,sans-Serif" font-size="10.00">::Doxygen::DocInternalS4Type</text>
</a>
</g>
</g>
<!-- Node13&#45;&gt;Node14 -->
<g id="edge13_Node000013_Node000014" class="edge">
<title>Node13&#45;&gt;Node14</title>
<g id="a_edge13_Node000013_Node000014"><a xlink:title=" ">
<path fill="none" stroke="#63b8ff" d="M1137.65,-193.5C1146.07,-193.5 1154.52,-193.5 1162.74,-193.5"/>
<polygon fill="#63b8ff" stroke="#63b8ff" points="1137.74,-190 1127.74,-193.5 1137.74,-197 1137.74,-190"/>
</a>
</g>
</g>
<!-- Node16 -->
<g id="Node000016" class="node">
<title>Node16</title>
<g id="a_Node000016"><a xlink:href="class_harlinn_1_1_common_1_1_core_1_1_doxygen_1_1_doc_internal_s5_type.xhtml" target="_top" xlink:title=" ">
<polygon fill="white" stroke="#666666" points="1312,-127.5 1163,-127.5 1163,-97.5 1312,-97.5 1312,-127.5"/>
<text text-anchor="start" x="1171" y="-115.5" font-family="Helvetica,sans-Serif" font-size="10.00">Harlinn::Common::Core</text>
<text text-anchor="middle" x="1237.5" y="-104.5" font-family="Helvetica,sans-Serif" font-size="10.00">::Doxygen::DocInternalS5Type</text>
</a>
</g>
</g>
<!-- Node15&#45;&gt;Node16 -->
<g id="edge15_Node000015_Node000016" class="edge">
<title>Node15&#45;&gt;Node16</title>
<g id="a_edge15_Node000015_Node000016"><a xlink:title=" ">
<path fill="none" stroke="#63b8ff" d="M1137.65,-112.5C1146.07,-112.5 1154.52,-112.5 1162.74,-112.5"/>
<polygon fill="#63b8ff" stroke="#63b8ff" points="1137.74,-109 1127.74,-112.5 1137.74,-116 1137.74,-109"/>
</a>
</g>
</g>
<!-- Node18 -->
<g id="Node000018" class="node">
<title>Node18</title>
<g id="a_Node000018"><a xlink:href="class_harlinn_1_1_common_1_1_core_1_1_doxygen_1_1_doc_internal_type.xhtml" target="_top" xlink:title=" ">
<polygon fill="white" stroke="#666666" points="1306,-46.5 1169,-46.5 1169,-16.5 1306,-16.5 1306,-46.5"/>
<text text-anchor="start" x="1177" y="-34.5" font-family="Helvetica,sans-Serif" font-size="10.00">Harlinn::Common::Core</text>
<text text-anchor="middle" x="1237.5" y="-23.5" font-family="Helvetica,sans-Serif" font-size="10.00">::Doxygen::DocInternalType</text>
</a>
</g>
</g>
<!-- Node17&#45;&gt;Node18 -->
<g id="edge17_Node000017_Node000018" class="edge">
<title>Node17&#45;&gt;Node18</title>
<g id="a_edge17_Node000017_Node000018"><a xlink:title=" ">
<path fill="none" stroke="#63b8ff" d="M1137.57,-31.5C1148.07,-31.5 1158.63,-31.5 1168.73,-31.5"/>
<polygon fill="#63b8ff" stroke="#63b8ff" points="1137.74,-28 1127.74,-31.5 1137.74,-35 1137.74,-28"/>
</a>
</g>
</g>
</g>
</svg>
