<?xml version="1.0" encoding="UTF-8" standalone="no"?>
<!DOCTYPE svg PUBLIC "-//W3C//DTD SVG 1.1//EN"
 "http://www.w3.org/Graphics/SVG/1.1/DTD/svg11.dtd">
<!-- Generated by graphviz version 7.0.1 (20221109.1506)
 -->
<!-- Title: Harlinn::Common::Core::Security::AccessAllowedObjectAccessControlEntry Pages: 1 -->
<svg width="1078pt" height="79pt"
 viewBox="0.00 0.00 1078.00 78.50" xmlns="http://www.w3.org/2000/svg" xmlns:xlink="http://www.w3.org/1999/xlink">
<g id="graph0" class="graph" transform="scale(1 1) rotate(0) translate(4 74.5)">
<title>Harlinn::Common::Core::Security::AccessAllowedObjectAccessControlEntry</title>
<!-- Node1 -->
<g id="Node000001" class="node">
<title>Node1</title>
<g id="a_Node000001"><a xlink:title=" ">
<polygon fill="#999999" stroke="#666666" points="1070,-65 910,-65 910,-24 1070,-24 1070,-65"/>
<text text-anchor="start" x="918" y="-53" font-family="Helvetica,sans-Serif" font-size="10.00">Harlinn::Common::Core</text>
<text text-anchor="start" x="918" y="-42" font-family="Helvetica,sans-Serif" font-size="10.00">::Security::AccessAllowedObject</text>
<text text-anchor="middle" x="990" y="-31" font-family="Helvetica,sans-Serif" font-size="10.00">AccessControlEntry</text>
</a>
</g>
</g>
<!-- Node2 -->
<g id="Node000002" class="node">
<title>Node2</title>
<g id="a_Node000002"><a xlink:href="class_harlinn_1_1_common_1_1_core_1_1_security_1_1_object_access_control_entry_base.xhtml" target="_top" xlink:title=" ">
<polygon fill="white" stroke="#666666" points="873,-70.5 665,-70.5 665,-18.5 873,-18.5 873,-70.5"/>
<text text-anchor="start" x="673" y="-58.5" font-family="Helvetica,sans-Serif" font-size="10.00">Harlinn::Common::Core</text>
<text text-anchor="start" x="673" y="-47.5" font-family="Helvetica,sans-Serif" font-size="10.00">::Security::ObjectAccessControl</text>
<text text-anchor="start" x="673" y="-36.5" font-family="Helvetica,sans-Serif" font-size="10.00">EntryBase&lt; ACCESS_ALLOWED_OBJECT</text>
<text text-anchor="middle" x="769" y="-25.5" font-family="Helvetica,sans-Serif" font-size="10.00">_ACE, AccessMask &gt;</text>
</a>
</g>
</g>
<!-- Node2&#45;&gt;Node1 -->
<g id="edge1_Node000001_Node000002" class="edge">
<title>Node2&#45;&gt;Node1</title>
<g id="a_edge1_Node000001_Node000002"><a xlink:title=" ">
<path fill="none" stroke="#63b8ff" d="M884.84,-44.5C893.22,-44.5 901.55,-44.5 909.65,-44.5"/>
<polygon fill="#63b8ff" stroke="#63b8ff" points="884.92,-41 874.92,-44.5 884.92,-48 884.92,-41"/>
</a>
</g>
</g>
<!-- Node3 -->
<g id="Node000003" class="node">
<title>Node3</title>
<g id="a_Node000003"><a xlink:href="class_harlinn_1_1_common_1_1_core_1_1_security_1_1_access_control_entry.xhtml" target="_top" xlink:title="Base class for the various ACE wrappers.">
<polygon fill="white" stroke="#666666" points="272,-59.5 120,-59.5 120,-29.5 272,-29.5 272,-59.5"/>
<text text-anchor="start" x="128" y="-47.5" font-family="Helvetica,sans-Serif" font-size="10.00">Harlinn::Common::Core</text>
<text text-anchor="middle" x="196" y="-36.5" font-family="Helvetica,sans-Serif" font-size="10.00">::Security::AccessControlEntry</text>
</a>
</g>
</g>
<!-- Node3&#45;&gt;Node2 -->
<g id="edge2_Node000002_Node000003" class="edge">
<title>Node3&#45;&gt;Node2</title>
<g id="a_edge2_Node000002_Node000003"><a xlink:title=" ">
<path fill="none" stroke="#63b8ff" d="M283.59,-50.2C374.23,-55.32 520.66,-61.23 647,-55.5 652.79,-55.24 658.74,-54.9 664.74,-54.52"/>
<polygon fill="#63b8ff" stroke="#63b8ff" points="283.97,-46.71 273.79,-49.63 283.57,-53.7 283.97,-46.71"/>
</a>
</g>
</g>
<!-- Node5 -->
<g id="Node000005" class="node">
<title>Node5</title>
<g id="a_Node000005"><a xlink:href="class_harlinn_1_1_common_1_1_core_1_1_security_1_1_object_access_control_entry_base.xhtml" target="_top" xlink:title=" ">
<polygon fill="white" stroke="#666666" points="480,-41 309,-41 309,0 480,0 480,-41"/>
<text text-anchor="start" x="317" y="-29" font-family="Helvetica,sans-Serif" font-size="10.00">Harlinn::Common::Core</text>
<text text-anchor="start" x="317" y="-18" font-family="Helvetica,sans-Serif" font-size="10.00">::Security::ObjectAccessControl</text>
<text text-anchor="middle" x="394.5" y="-7" font-family="Helvetica,sans-Serif" font-size="10.00">EntryBase&lt; AceT, AccessMaskT &gt;</text>
</a>
</g>
</g>
<!-- Node3&#45;&gt;Node5 -->
<g id="edge5_Node000005_Node000003" class="edge">
<title>Node3&#45;&gt;Node5</title>
<g id="a_edge5_Node000005_Node000003"><a xlink:title=" ">
<path fill="none" stroke="#63b8ff" d="M283.69,-33.91C292.03,-32.89 300.48,-31.86 308.79,-30.85"/>
<polygon fill="#63b8ff" stroke="#63b8ff" points="283.41,-30.42 273.91,-35.11 284.26,-37.37 283.41,-30.42"/>
</a>
</g>
</g>
<!-- Node4 -->
<g id="Node000004" class="node">
<title>Node4</title>
<g id="a_Node000004"><a xlink:title=" ">
<polygon fill="white" stroke="#666666" points="83,-54 0,-54 0,-35 83,-35 83,-54"/>
<text text-anchor="middle" x="41.5" y="-42" font-family="Helvetica,sans-Serif" font-size="10.00">ACE_HEADER</text>
</a>
</g>
</g>
<!-- Node4&#45;&gt;Node3 -->
<g id="edge3_Node000003_Node000004" class="edge">
<title>Node4&#45;&gt;Node3</title>
<g id="a_edge3_Node000003_Node000004"><a xlink:title=" ">
<path fill="none" stroke="#8b1a1a" d="M94.77,-44.5C102.78,-44.5 111.18,-44.5 119.57,-44.5"/>
<polygon fill="#8b1a1a" stroke="#8b1a1a" points="94.88,-41 84.88,-44.5 94.88,-48 94.88,-41"/>
</a>
</g>
</g>
<!-- Node5&#45;&gt;Node2 -->
<g id="edge4_Node000002_Node000005" class="edge">
<title>Node5&#45;&gt;Node2</title>
<g id="a_edge4_Node000002_Node000005"><a xlink:title=" ">
<path fill="none" stroke="orange" stroke-dasharray="5,2" d="M491.62,-24.59C538.52,-26.81 595.73,-29.85 647,-33.5 652.79,-33.91 658.73,-34.36 664.72,-34.84"/>
<polygon fill="orange" stroke="orange" points="491.91,-21.1 481.76,-24.13 491.58,-28.09 491.91,-21.1"/>
</a>
</g>
<text text-anchor="start" x="498" y="-47.5" font-family="Helvetica,sans-Serif" font-size="10.00" fill="grey"> &lt; ACCESS_ALLOWED_OBJECT</text>
<text text-anchor="middle" x="572.5" y="-36.5" font-family="Helvetica,sans-Serif" font-size="10.00" fill="grey">_ACE, AccessMask &gt;</text>
</g>
</g>
</svg>
