<?xml version="1.0" encoding="UTF-8" standalone="no"?>
<!DOCTYPE svg PUBLIC "-//W3C//DTD SVG 1.1//EN"
 "http://www.w3.org/Graphics/SVG/1.1/DTD/svg11.dtd">
<!-- Generated by graphviz version 7.0.1 (20221109.1506)
 -->
<!-- Title: Harlinn::Common::Core::Doxygen::DocSect1Type Pages: 1 -->
<svg width="2455pt" height="688pt"
 viewBox="0.00 0.00 2455.00 688.10" xmlns="http://www.w3.org/2000/svg" xmlns:xlink="http://www.w3.org/1999/xlink">
<g id="graph0" class="graph" transform="scale(1 1) rotate(0) translate(4 684.1)">
<title>Harlinn::Common::Core::Doxygen::DocSect1Type</title>
<!-- Node1 -->
<g id="Node000001" class="node">
<title>Node1</title>
<g id="a_Node000001"><a xlink:title=" ">
<polygon fill="#999999" stroke="#666666" points="2447,-574.1 2316,-574.1 2316,-544.1 2447,-544.1 2447,-574.1"/>
<text text-anchor="start" x="2324" y="-562.1" font-family="Helvetica,sans-Serif" font-size="10.00">Harlinn::Common::Core</text>
<text text-anchor="middle" x="2381.5" y="-551.1" font-family="Helvetica,sans-Serif" font-size="10.00">::Doxygen::DocSect1Type</text>
</a>
</g>
</g>
<!-- Node2 -->
<g id="Node000002" class="node">
<title>Node2</title>
<g id="a_Node000002"><a xlink:href="class_harlinn_1_1_common_1_1_core_1_1_doxygen_1_1_internal_1_1_doc_section_type.html" target="_top" xlink:title=" ">
<polygon fill="white" stroke="#666666" points="2279,-590.6 2099,-590.6 2099,-527.6 2279,-527.6 2279,-590.6"/>
<text text-anchor="start" x="2107" y="-578.6" font-family="Helvetica,sans-Serif" font-size="10.00">Harlinn::Common::Core</text>
<text text-anchor="start" x="2107" y="-567.6" font-family="Helvetica,sans-Serif" font-size="10.00">::Doxygen::Internal::</text>
<text text-anchor="start" x="2107" y="-556.6" font-family="Helvetica,sans-Serif" font-size="10.00">DocSectionType&lt; Doxygen</text>
<text text-anchor="start" x="2107" y="-545.6" font-family="Helvetica,sans-Serif" font-size="10.00">::DoxType::DocSect1Type,</text>
<text text-anchor="middle" x="2189" y="-534.6" font-family="Helvetica,sans-Serif" font-size="10.00"> DocInternalS1Type, DocSect2Type &gt;</text>
</a>
</g>
</g>
<!-- Node2&#45;&gt;Node1 -->
<g id="edge1_Node000001_Node000002" class="edge">
<title>Node2&#45;&gt;Node1</title>
<g id="a_edge1_Node000001_Node000002"><a xlink:title=" ">
<path fill="none" stroke="#63b8ff" d="M2290.83,-559.1C2299.2,-559.1 2307.52,-559.1 2315.52,-559.1"/>
<polygon fill="#63b8ff" stroke="#63b8ff" points="2290.91,-555.6 2280.91,-559.1 2290.91,-562.6 2290.91,-555.6"/>
</a>
</g>
</g>
<!-- Node3 -->
<g id="Node000003" class="node">
<title>Node3</title>
<g id="a_Node000003"><a xlink:href="class_harlinn_1_1_common_1_1_core_1_1_doxygen_1_1_internal_1_1_doc_section_base_type.html" target="_top" xlink:title=" ">
<polygon fill="white" stroke="#666666" points="1938,-344.1 1779,-344.1 1779,-292.1 1938,-292.1 1938,-344.1"/>
<text text-anchor="start" x="1787" y="-332.1" font-family="Helvetica,sans-Serif" font-size="10.00">Harlinn::Common::Core</text>
<text text-anchor="start" x="1787" y="-321.1" font-family="Helvetica,sans-Serif" font-size="10.00">::Doxygen::Internal::</text>
<text text-anchor="start" x="1787" y="-310.1" font-family="Helvetica,sans-Serif" font-size="10.00">DocSectionBaseType&lt; doxType,</text>
<text text-anchor="middle" x="1858.5" y="-299.1" font-family="Helvetica,sans-Serif" font-size="10.00"> DocInternalS1Type &gt;</text>
</a>
</g>
</g>
<!-- Node3&#45;&gt;Node2 -->
<g id="edge2_Node000002_Node000003" class="edge">
<title>Node3&#45;&gt;Node2</title>
<g id="a_edge2_Node000002_Node000003"><a xlink:title=" ">
<path fill="none" stroke="#63b8ff" d="M1904.55,-351.14C1967.81,-397.55 2082.2,-481.48 2144.57,-527.24"/>
<polygon fill="#63b8ff" stroke="#63b8ff" points="1906.95,-348.57 1896.82,-345.47 1902.81,-354.21 1906.95,-348.57"/>
</a>
</g>
</g>
<!-- Node4 -->
<g id="Node000004" class="node">
<title>Node4</title>
<g id="a_Node000004"><a xlink:href="class_harlinn_1_1_common_1_1_core_1_1_doxygen_1_1_internal_1_1_doc_base.html" target="_top" xlink:title=" ">
<polygon fill="white" stroke="#666666" points="1302.5,-191.6 1184.5,-191.6 1184.5,-150.6 1302.5,-150.6 1302.5,-191.6"/>
<text text-anchor="start" x="1192.5" y="-179.6" font-family="Helvetica,sans-Serif" font-size="10.00">Harlinn::Common::Core</text>
<text text-anchor="start" x="1192.5" y="-168.6" font-family="Helvetica,sans-Serif" font-size="10.00">::Doxygen::Internal::</text>
<text text-anchor="middle" x="1243.5" y="-157.6" font-family="Helvetica,sans-Serif" font-size="10.00">DocBase&lt; doxType &gt;</text>
</a>
</g>
</g>
<!-- Node4&#45;&gt;Node3 -->
<g id="edge3_Node000003_Node000004" class="edge">
<title>Node4&#45;&gt;Node3</title>
<g id="a_edge3_Node000003_Node000004"><a xlink:title=" ">
<path fill="none" stroke="#63b8ff" d="M1314.21,-166.56C1417.11,-162.73 1613.43,-166.48 1761,-236.1 1789.23,-249.42 1815.84,-273.19 1833.93,-291.72"/>
<polygon fill="#63b8ff" stroke="#63b8ff" points="1314.09,-163.07 1304.24,-166.98 1314.38,-170.06 1314.09,-163.07"/>
</a>
</g>
</g>
<!-- Node22 -->
<g id="Node000022" class="node">
<title>Node22</title>
<g id="a_Node000022"><a xlink:href="class_harlinn_1_1_common_1_1_core_1_1_doxygen_1_1_internal_1_1_doc_section_base_type.html" target="_top" xlink:title=" ">
<polygon fill="white" stroke="#666666" points="1627,-306.1 1468,-306.1 1468,-254.1 1627,-254.1 1627,-306.1"/>
<text text-anchor="start" x="1476" y="-294.1" font-family="Helvetica,sans-Serif" font-size="10.00">Harlinn::Common::Core</text>
<text text-anchor="start" x="1476" y="-283.1" font-family="Helvetica,sans-Serif" font-size="10.00">::Doxygen::Internal::</text>
<text text-anchor="start" x="1476" y="-272.1" font-family="Helvetica,sans-Serif" font-size="10.00">DocSectionBaseType&lt; doxType,</text>
<text text-anchor="middle" x="1547.5" y="-261.1" font-family="Helvetica,sans-Serif" font-size="10.00"> InternalT &gt;</text>
</a>
</g>
</g>
<!-- Node4&#45;&gt;Node22 -->
<g id="edge32_Node000022_Node000004" class="edge">
<title>Node4&#45;&gt;Node22</title>
<g id="a_edge32_Node000022_Node000004"><a xlink:title=" ">
<path fill="none" stroke="#63b8ff" d="M1314.17,-179.26C1354.93,-185.68 1406.72,-196.7 1450,-215.1 1473.05,-224.89 1496.41,-240.45 1514.38,-253.89"/>
<polygon fill="#63b8ff" stroke="#63b8ff" points="1314.89,-175.83 1304.48,-177.8 1313.85,-182.76 1314.89,-175.83"/>
</a>
</g>
</g>
<!-- Node26 -->
<g id="Node000026" class="node">
<title>Node26</title>
<g id="a_Node000026"><a xlink:href="class_harlinn_1_1_common_1_1_core_1_1_doxygen_1_1_internal_1_1_doc_section_base_type.html" target="_top" xlink:title=" ">
<polygon fill="white" stroke="#666666" points="1627,-492.1 1468,-492.1 1468,-440.1 1627,-440.1 1627,-492.1"/>
<text text-anchor="start" x="1476" y="-480.1" font-family="Helvetica,sans-Serif" font-size="10.00">Harlinn::Common::Core</text>
<text text-anchor="start" x="1476" y="-469.1" font-family="Helvetica,sans-Serif" font-size="10.00">::Doxygen::Internal::</text>
<text text-anchor="start" x="1476" y="-458.1" font-family="Helvetica,sans-Serif" font-size="10.00">DocSectionBaseType&lt; doxType,</text>
<text text-anchor="middle" x="1547.5" y="-447.1" font-family="Helvetica,sans-Serif" font-size="10.00"> InternalT &gt;</text>
</a>
</g>
</g>
<!-- Node4&#45;&gt;Node26 -->
<g id="edge44_Node000026_Node000004" class="edge">
<title>Node4&#45;&gt;Node26</title>
<g id="a_edge44_Node000026_Node000004"><a xlink:title=" ">
<path fill="none" stroke="#63b8ff" d="M1310.82,-198.93C1311.57,-199.63 1312.29,-200.36 1313,-201.1 1328.44,-217.28 1315.38,-232.08 1331,-248.1 1370.94,-289.04 1411.61,-254.7 1450,-297.1 1468.69,-317.73 1455.7,-332.12 1468,-357.1 1483.05,-387.64 1506.46,-418.8 1523.81,-439.93"/>
<polygon fill="#63b8ff" stroke="#63b8ff" points="1313.34,-196.46 1303.35,-192.94 1308.96,-201.92 1313.34,-196.46"/>
</a>
</g>
</g>
<!-- Node5 -->
<g id="Node000005" class="node">
<title>Node5</title>
<g id="a_Node000005"><a xlink:href="class_harlinn_1_1_common_1_1_core_1_1_doxygen_1_1_doc_base_type.html" target="_top" xlink:title=" ">
<polygon fill="white" stroke="#666666" points="336,-49.1 208,-49.1 208,-19.1 336,-19.1 336,-49.1"/>
<text text-anchor="start" x="216" y="-37.1" font-family="Helvetica,sans-Serif" font-size="10.00">Harlinn::Common::Core</text>
<text text-anchor="middle" x="272" y="-26.1" font-family="Helvetica,sans-Serif" font-size="10.00">::Doxygen::DocBaseType</text>
</a>
</g>
</g>
<!-- Node5&#45;&gt;Node4 -->
<g id="edge4_Node000004_Node000005" class="edge">
<title>Node5&#45;&gt;Node4</title>
<g id="a_edge4_Node000004_Node000005"><a xlink:title=" ">
<path fill="none" stroke="#63b8ff" d="M319.19,-53.44C356.08,-67.14 409.46,-83.1 458,-83.1 458,-83.1 458,-83.1 984.5,-83.1 1016.52,-83.1 1023.49,-92.36 1054,-102.1 1079.23,-110.15 1140.95,-132.96 1186.94,-150.17"/>
<polygon fill="#63b8ff" stroke="#63b8ff" points="320.77,-50.3 310.18,-50.01 318.28,-56.84 320.77,-50.3"/>
</a>
</g>
</g>
<!-- Node14 -->
<g id="Node000014" class="node">
<title>Node14</title>
<g id="a_Node000014"><a xlink:href="class_harlinn_1_1_common_1_1_core_1_1_doxygen_1_1_internal_1_1_doc_base.html" target="_top" xlink:title=" ">
<polygon fill="white" stroke="#666666" points="797,-55.1 649,-55.1 649,-3.1 797,-3.1 797,-55.1"/>
<text text-anchor="start" x="657" y="-43.1" font-family="Helvetica,sans-Serif" font-size="10.00">Harlinn::Common::Core</text>
<text text-anchor="start" x="657" y="-32.1" font-family="Helvetica,sans-Serif" font-size="10.00">::Doxygen::Internal::</text>
<text text-anchor="start" x="657" y="-21.1" font-family="Helvetica,sans-Serif" font-size="10.00">DocBase&lt; Doxygen::DoxType</text>
<text text-anchor="middle" x="723" y="-10.1" font-family="Helvetica,sans-Serif" font-size="10.00">::TitleType &gt;</text>
</a>
</g>
</g>
<!-- Node5&#45;&gt;Node14 -->
<g id="edge16_Node000014_Node000005" class="edge">
<title>Node5&#45;&gt;Node14</title>
<g id="a_edge16_Node000014_Node000005"><a xlink:title=" ">
<path fill="none" stroke="#63b8ff" d="M337.39,-15.83C357.29,-11.02 379.4,-6.5 400,-4.1 485.07,5.81 583.26,-5 648.63,-15.34"/>
<polygon fill="#63b8ff" stroke="#63b8ff" points="336.59,-12.42 327.74,-18.24 338.29,-19.22 336.59,-12.42"/>
</a>
</g>
</g>
<!-- Node15 -->
<g id="Node000015" class="node">
<title>Node15</title>
<g id="a_Node000015"><a xlink:href="class_harlinn_1_1_common_1_1_core_1_1_doxygen_1_1_internal_1_1_doc_base.html" target="_top" xlink:title=" ">
<polygon fill="white" stroke="#666666" points="518,-54.6 400,-54.6 400,-13.6 518,-13.6 518,-54.6"/>
<text text-anchor="start" x="408" y="-42.6" font-family="Helvetica,sans-Serif" font-size="10.00">Harlinn::Common::Core</text>
<text text-anchor="start" x="408" y="-31.6" font-family="Helvetica,sans-Serif" font-size="10.00">::Doxygen::Internal::</text>
<text text-anchor="middle" x="459" y="-20.6" font-family="Helvetica,sans-Serif" font-size="10.00">DocBase&lt; doxType &gt;</text>
</a>
</g>
</g>
<!-- Node5&#45;&gt;Node15 -->
<g id="edge18_Node000015_Node000005" class="edge">
<title>Node5&#45;&gt;Node15</title>
<g id="a_edge18_Node000015_Node000005"><a xlink:title=" ">
<path fill="none" stroke="#63b8ff" d="M347.64,-34.1C364.96,-34.1 383.15,-34.1 399.65,-34.1"/>
<polygon fill="#63b8ff" stroke="#63b8ff" points="347.92,-30.6 337.92,-34.1 347.92,-37.6 347.92,-30.6"/>
</a>
</g>
</g>
<!-- Node6 -->
<g id="Node000006" class="node">
<title>Node6</title>
<g id="a_Node000006"><a xlink:title=" ">
<polygon fill="white" stroke="#666666" points="140,-49.1 0,-49.1 0,-19.1 140,-19.1 140,-49.1"/>
<text text-anchor="start" x="8" y="-37.1" font-family="Helvetica,sans-Serif" font-size="10.00">std::enable_shared</text>
<text text-anchor="middle" x="70" y="-26.1" font-family="Helvetica,sans-Serif" font-size="10.00">_from_this&lt; DocBaseType &gt;</text>
</a>
</g>
</g>
<!-- Node6&#45;&gt;Node5 -->
<g id="edge5_Node000005_Node000006" class="edge">
<title>Node6&#45;&gt;Node5</title>
<g id="a_edge5_Node000005_Node000006"><a xlink:title=" ">
<path fill="none" stroke="#8b1a1a" d="M151.84,-34.1C170.47,-34.1 190.01,-34.1 207.76,-34.1"/>
<polygon fill="#8b1a1a" stroke="#8b1a1a" points="151.9,-30.6 141.9,-34.1 151.9,-37.6 151.9,-30.6"/>
</a>
</g>
</g>
<!-- Node7 -->
<g id="Node000007" class="node">
<title>Node7</title>
<g id="a_Node000007"><a xlink:title=" ">
<polygon fill="white" stroke="#666666" points="1286,-587.6 1201,-587.6 1201,-568.6 1286,-568.6 1286,-587.6"/>
<text text-anchor="middle" x="1243.5" y="-575.6" font-family="Helvetica,sans-Serif" font-size="10.00">std::vector&lt; T &gt;</text>
</a>
</g>
</g>
<!-- Node7&#45;&gt;Node3 -->
<g id="edge6_Node000003_Node000007" class="edge">
<title>Node7&#45;&gt;Node3</title>
<g id="a_edge6_Node000003_Node000007"><a xlink:title=" ">
<path fill="none" stroke="#63b8ff" d="M1297.51,-583.78C1308.57,-584.74 1320.15,-585.6 1331,-586.1 1463.86,-592.23 1502.78,-589.63 1627,-542.1 1689.95,-518.01 1711.58,-516.92 1761,-471.1 1800.72,-434.26 1830.73,-377.6 1846.08,-344.55"/>
<polygon fill="#63b8ff" stroke="#63b8ff" points="1298.03,-580.31 1287.75,-582.88 1297.39,-587.28 1298.03,-580.31"/>
</a>
</g>
</g>
<!-- Node7&#45;&gt;Node22 -->
<g id="edge33_Node000022_Node000007" class="edge">
<title>Node7&#45;&gt;Node22</title>
<g id="a_edge33_Node000022_Node000007"><a xlink:title=" ">
<path fill="none" stroke="#63b8ff" d="M1297.32,-566.67C1351.6,-553.8 1430.81,-531.46 1450,-507.1 1475.83,-474.3 1444.51,-354.61 1468,-320.1 1471.53,-314.91 1475.94,-310.36 1480.86,-306.38"/>
<polygon fill="#63b8ff" stroke="#63b8ff" points="1296.56,-563.26 1287.62,-568.93 1298.15,-570.07 1296.56,-563.26"/>
</a>
</g>
</g>
<!-- Node7&#45;&gt;Node26 -->
<g id="edge45_Node000026_Node000007" class="edge">
<title>Node7&#45;&gt;Node26</title>
<g id="a_edge45_Node000026_Node000007"><a xlink:title=" ">
<path fill="none" stroke="#63b8ff" d="M1297.52,-581.07C1350.48,-582.9 1427.2,-582.12 1450,-564.1 1471.17,-547.36 1450.61,-526.74 1468,-506.1 1472.34,-500.95 1477.5,-496.39 1483.08,-492.37"/>
<polygon fill="#63b8ff" stroke="#63b8ff" points="1297.92,-577.58 1287.79,-580.69 1297.65,-584.57 1297.92,-577.58"/>
</a>
</g>
</g>
<!-- Node8 -->
<g id="Node000008" class="node">
<title>Node8</title>
<g id="a_Node000008"><a xlink:title=" ">
<polygon fill="white" stroke="#666666" points="84.5,-526.6 55.5,-526.6 55.5,-507.6 84.5,-507.6 84.5,-526.6"/>
<text text-anchor="middle" x="70" y="-514.6" font-family="Helvetica,sans-Serif" font-size="10.00">T</text>
</a>
</g>
</g>
<!-- Node8&#45;&gt;Node7 -->
<g id="edge7_Node000007_Node000008" class="edge">
<title>Node8&#45;&gt;Node7</title>
<g id="a_edge7_Node000007_Node000008"><a xlink:title=" ">
<path fill="none" stroke="#9a32cd" stroke-dasharray="5,2" d="M94.23,-530.15C130.69,-549.39 204.11,-583.1 271,-583.1 271,-583.1 271,-583.1 984.5,-583.1 1060.88,-583.1 1149.97,-580.88 1200.95,-579.4"/>
<polygon fill="#9a32cd" stroke="#9a32cd" points="96.34,-527.32 85.88,-525.65 93.02,-533.48 96.34,-527.32"/>
</a>
</g>
<text text-anchor="middle" x="583.5" y="-586.1" font-family="Helvetica,sans-Serif" font-size="10.00" fill="grey"> elements</text>
</g>
<!-- Node10 -->
<g id="Node000010" class="node">
<title>Node10</title>
<g id="a_Node000010"><a xlink:href="struct_harlinn_1_1_common_1_1_core_1_1_internal_1_1_data.html" target="_top" xlink:title=" ">
<polygon fill="white" stroke="#666666" points="331,-317.1 213,-317.1 213,-287.1 331,-287.1 331,-317.1"/>
<text text-anchor="start" x="221" y="-305.1" font-family="Helvetica,sans-Serif" font-size="10.00">Harlinn::Common::Core</text>
<text text-anchor="middle" x="272" y="-294.1" font-family="Helvetica,sans-Serif" font-size="10.00">::Internal::Data&lt; T &gt;</text>
</a>
</g>
</g>
<!-- Node8&#45;&gt;Node10 -->
<g id="edge10_Node000010_Node000008" class="edge">
<title>Node8&#45;&gt;Node10</title>
<g id="a_edge10_Node000010_Node000008"><a xlink:title=" ">
<path fill="none" stroke="#9a32cd" stroke-dasharray="5,2" d="M87.87,-498.96C126.5,-457.44 220.77,-356.09 256.74,-317.43"/>
<polygon fill="#9a32cd" stroke="#9a32cd" points="85.39,-496.49 81.14,-506.19 90.52,-501.25 85.39,-496.49"/>
</a>
</g>
<text text-anchor="middle" x="174" y="-426.1" font-family="Helvetica,sans-Serif" font-size="10.00" fill="grey"> buffer_</text>
</g>
<!-- Node16 -->
<g id="Node000016" class="node">
<title>Node16</title>
<g id="a_Node000016"><a xlink:title=" ">
<polygon fill="white" stroke="#666666" points="775.5,-493.6 670.5,-493.6 670.5,-474.6 775.5,-474.6 775.5,-493.6"/>
<text text-anchor="middle" x="723" y="-481.6" font-family="Helvetica,sans-Serif" font-size="10.00">std::shared_ptr&lt; T &gt;</text>
</a>
</g>
</g>
<!-- Node8&#45;&gt;Node16 -->
<g id="edge21_Node000016_Node000008" class="edge">
<title>Node8&#45;&gt;Node16</title>
<g id="a_edge21_Node000016_Node000008"><a xlink:title=" ">
<path fill="none" stroke="#9a32cd" stroke-dasharray="5,2" d="M96.35,-515.81C192.83,-510.92 538.36,-493.41 670.3,-486.72"/>
<polygon fill="#9a32cd" stroke="#9a32cd" points="96.22,-512.31 86.41,-516.32 96.57,-519.3 96.22,-512.31"/>
</a>
</g>
<text text-anchor="middle" x="368" y="-506.1" font-family="Helvetica,sans-Serif" font-size="10.00" fill="grey"> ptr</text>
</g>
<!-- Node19 -->
<g id="Node000019" class="node">
<title>Node19</title>
<g id="a_Node000019"><a xlink:title=" ">
<polygon fill="white" stroke="#666666" points="1026,-554.6 941,-554.6 941,-535.6 1026,-535.6 1026,-554.6"/>
<text text-anchor="middle" x="983.5" y="-542.6" font-family="Helvetica,sans-Serif" font-size="10.00">std::vector&lt; T &gt;</text>
</a>
</g>
</g>
<!-- Node8&#45;&gt;Node19 -->
<g id="edge26_Node000019_Node000008" class="edge">
<title>Node8&#45;&gt;Node19</title>
<g id="a_edge26_Node000019_Node000008"><a xlink:title=" ">
<path fill="none" stroke="#9a32cd" stroke-dasharray="5,2" d="M95.88,-522.64C133.56,-530.54 207.45,-544.1 271,-544.1 271,-544.1 271,-544.1 724,-544.1 800.52,-544.1 889.78,-544.54 940.86,-544.84"/>
<polygon fill="#9a32cd" stroke="#9a32cd" points="96.97,-519.3 86.46,-520.62 95.5,-526.14 96.97,-519.3"/>
</a>
</g>
<text text-anchor="middle" x="459" y="-547.1" font-family="Helvetica,sans-Serif" font-size="10.00" fill="grey"> elements</text>
</g>
<!-- Node9 -->
<g id="Node000009" class="node">
<title>Node9</title>
<g id="a_Node000009"><a xlink:href="class_harlinn_1_1_common_1_1_core_1_1_basic_string.html" target="_top" xlink:title=" ">
<polygon fill="white" stroke="#666666" points="785.5,-273.1 660.5,-273.1 660.5,-243.1 785.5,-243.1 785.5,-273.1"/>
<text text-anchor="start" x="668.5" y="-261.1" font-family="Helvetica,sans-Serif" font-size="10.00">Harlinn::Common::Core</text>
<text text-anchor="middle" x="723" y="-250.1" font-family="Helvetica,sans-Serif" font-size="10.00">::BasicString&lt; wchar_t &gt;</text>
</a>
</g>
</g>
<!-- Node9&#45;&gt;Node3 -->
<g id="edge8_Node000003_Node000009" class="edge">
<title>Node9&#45;&gt;Node3</title>
<g id="a_edge8_Node000003_Node000009"><a xlink:title=" ">
<path fill="none" stroke="#9a32cd" stroke-dasharray="5,2" d="M797.27,-250.62C886.68,-239.02 1040.22,-210.98 1156,-147.1 1165.63,-141.78 1163.77,-134.16 1174,-130.1 1417.82,-33.16 1538.15,-54.59 1761,-193.1 1799.77,-217.19 1828.93,-262.82 1844.58,-291.78"/>
<polygon fill="#9a32cd" stroke="#9a32cd" points="796.88,-247.14 787.4,-251.86 797.76,-254.09 796.88,-247.14"/>
</a>
</g>
<text text-anchor="middle" x="1243.5" y="-133.1" font-family="Helvetica,sans-Serif" font-size="10.00" fill="grey"> id_</text>
</g>
<!-- Node13 -->
<g id="Node000013" class="node">
<title>Node13</title>
<g id="a_Node000013"><a xlink:href="class_harlinn_1_1_common_1_1_core_1_1_doxygen_1_1_title_type.html" target="_top" xlink:title=" ">
<polygon fill="white" stroke="#666666" points="1042.5,-141.1 924.5,-141.1 924.5,-111.1 1042.5,-111.1 1042.5,-141.1"/>
<text text-anchor="start" x="932.5" y="-129.1" font-family="Helvetica,sans-Serif" font-size="10.00">Harlinn::Common::Core</text>
<text text-anchor="middle" x="983.5" y="-118.1" font-family="Helvetica,sans-Serif" font-size="10.00">::Doxygen::TitleType</text>
</a>
</g>
</g>
<!-- Node9&#45;&gt;Node13 -->
<g id="edge19_Node000013_Node000009" class="edge">
<title>Node9&#45;&gt;Node13</title>
<g id="a_edge19_Node000013_Node000009"><a xlink:title=" ">
<path fill="none" stroke="#9a32cd" stroke-dasharray="5,2" d="M736.41,-232.79C751.13,-205.79 778.35,-164.22 815,-144.1 848.07,-125.94 890.35,-121.51 924.15,-121.59"/>
<polygon fill="#9a32cd" stroke="#9a32cd" points="733.47,-230.86 731.93,-241.34 739.67,-234.11 733.47,-230.86"/>
</a>
</g>
<text text-anchor="middle" x="855" y="-147.1" font-family="Helvetica,sans-Serif" font-size="10.00" fill="grey"> text_</text>
</g>
<!-- Node9&#45;&gt;Node22 -->
<g id="edge34_Node000022_Node000009" class="edge">
<title>Node9&#45;&gt;Node22</title>
<g id="a_edge34_Node000022_Node000009"><a xlink:title=" ">
<path fill="none" stroke="#9a32cd" stroke-dasharray="5,2" d="M797,-260.05C951.13,-264.17 1308.58,-273.73 1467.68,-277.99"/>
<polygon fill="#9a32cd" stroke="#9a32cd" points="797.42,-256.56 787.33,-259.79 797.24,-263.56 797.42,-256.56"/>
</a>
</g>
<text text-anchor="middle" x="1114" y="-273.1" font-family="Helvetica,sans-Serif" font-size="10.00" fill="grey"> id_</text>
</g>
<!-- Node9&#45;&gt;Node26 -->
<g id="edge46_Node000026_Node000009" class="edge">
<title>Node9&#45;&gt;Node26</title>
<g id="a_edge46_Node000026_Node000009"><a xlink:title=" ">
<path fill="none" stroke="#9a32cd" stroke-dasharray="5,2" d="M796.9,-273.59C977.91,-312.09 1434.47,-409.44 1450,-415.1 1467.98,-421.65 1486.79,-430.97 1502.99,-439.86"/>
<polygon fill="#9a32cd" stroke="#9a32cd" points="797.89,-270.22 787.38,-271.56 796.43,-277.07 797.89,-270.22"/>
</a>
</g>
<text text-anchor="middle" x="1114" y="-353.1" font-family="Helvetica,sans-Serif" font-size="10.00" fill="grey"> id_</text>
</g>
<!-- Node10&#45;&gt;Node9 -->
<g id="edge9_Node000009_Node000010" class="edge">
<title>Node10&#45;&gt;Node9</title>
<g id="a_edge9_Node000009_Node000010"><a xlink:title=" ">
<path fill="none" stroke="#9a32cd" stroke-dasharray="5,2" d="M329.31,-283.44C351.13,-277.04 376.49,-270.61 400,-267.1 489.74,-253.68 595.07,-253.65 660.18,-255.43"/>
<polygon fill="#9a32cd" stroke="#9a32cd" points="328.59,-280 320.02,-286.23 330.61,-286.71 328.59,-280"/>
</a>
</g>
<text text-anchor="middle" x="459" y="-270.1" font-family="Helvetica,sans-Serif" font-size="10.00" fill="grey"> data_</text>
</g>
<!-- Node11 -->
<g id="Node000011" class="node">
<title>Node11</title>
<g id="a_Node000011"><a xlink:href="class_harlinn_1_1_common_1_1_core_1_1_basic_string.html" target="_top" xlink:title="This is a reference counted string class.">
<polygon fill="white" stroke="#666666" points="518,-317.1 400,-317.1 400,-287.1 518,-287.1 518,-317.1"/>
<text text-anchor="start" x="408" y="-305.1" font-family="Helvetica,sans-Serif" font-size="10.00">Harlinn::Common::Core</text>
<text text-anchor="middle" x="459" y="-294.1" font-family="Helvetica,sans-Serif" font-size="10.00">::BasicString&lt; T &gt;</text>
</a>
</g>
</g>
<!-- Node10&#45;&gt;Node11 -->
<g id="edge12_Node000011_Node000010" class="edge">
<title>Node10&#45;&gt;Node11</title>
<g id="a_edge12_Node000011_Node000010"><a xlink:title=" ">
<path fill="none" stroke="#9a32cd" stroke-dasharray="5,2" d="M342.76,-302.1C361.53,-302.1 381.62,-302.1 399.69,-302.1"/>
<polygon fill="#9a32cd" stroke="#9a32cd" points="342.79,-298.6 332.79,-302.1 342.79,-305.6 342.79,-298.6"/>
</a>
</g>
<text text-anchor="middle" x="368" y="-305.1" font-family="Helvetica,sans-Serif" font-size="10.00" fill="grey"> data_</text>
</g>
<!-- Node11&#45;&gt;Node9 -->
<g id="edge11_Node000009_Node000011" class="edge">
<title>Node11&#45;&gt;Node9</title>
<g id="a_edge11_Node000009_Node000011"><a xlink:title=" ">
<path fill="none" stroke="orange" stroke-dasharray="5,2" d="M529.62,-290.4C570.18,-283.59 620.89,-275.08 660.06,-268.5"/>
<polygon fill="orange" stroke="orange" points="529.25,-286.92 519.96,-292.03 530.41,-293.82 529.25,-286.92"/>
</a>
</g>
<text text-anchor="middle" x="583.5" y="-292.1" font-family="Helvetica,sans-Serif" font-size="10.00" fill="grey"> &lt; wchar_t &gt;</text>
</g>
<!-- Node12 -->
<g id="Node000012" class="node">
<title>Node12</title>
<g id="a_Node000012"><a xlink:title=" ">
<polygon fill="white" stroke="#666666" points="1313,-229.6 1174,-229.6 1174,-210.6 1313,-210.6 1313,-229.6"/>
<text text-anchor="middle" x="1243.5" y="-217.6" font-family="Helvetica,sans-Serif" font-size="10.00">std::shared_ptr&lt; TitleType &gt;</text>
</a>
</g>
</g>
<!-- Node12&#45;&gt;Node3 -->
<g id="edge13_Node000003_Node000012" class="edge">
<title>Node12&#45;&gt;Node3</title>
<g id="a_edge13_Node000003_Node000012"><a xlink:title=" ">
<path fill="none" stroke="#9a32cd" stroke-dasharray="5,2" d="M1324.08,-215.28C1362.2,-213.71 1408.48,-212.87 1450,-215.1 1529.01,-219.32 1549.93,-216.2 1627,-234.1 1686.53,-247.92 1751.75,-272.64 1797.57,-291.7"/>
<polygon fill="#9a32cd" stroke="#9a32cd" points="1324.39,-211.76 1314.55,-215.7 1324.69,-218.76 1324.39,-211.76"/>
</a>
</g>
<text text-anchor="middle" x="1547.5" y="-237.1" font-family="Helvetica,sans-Serif" font-size="10.00" fill="grey"> title_</text>
</g>
<!-- Node12&#45;&gt;Node22 -->
<g id="edge35_Node000022_Node000012" class="edge">
<title>Node12&#45;&gt;Node22</title>
<g id="a_edge35_Node000022_Node000012"><a xlink:title=" ">
<path fill="none" stroke="#9a32cd" stroke-dasharray="5,2" d="M1324.29,-217.98C1362.84,-218.76 1409.42,-222.38 1450,-233.1 1467.66,-237.76 1485.94,-245.74 1501.78,-253.82"/>
<polygon fill="#9a32cd" stroke="#9a32cd" points="1324.69,-214.48 1314.64,-217.85 1324.59,-221.48 1324.69,-214.48"/>
</a>
</g>
<text text-anchor="middle" x="1390.5" y="-236.1" font-family="Helvetica,sans-Serif" font-size="10.00" fill="grey"> title_</text>
</g>
<!-- Node12&#45;&gt;Node26 -->
<g id="edge47_Node000026_Node000012" class="edge">
<title>Node12&#45;&gt;Node26</title>
<g id="a_edge47_Node000026_Node000012"><a xlink:title=" ">
<path fill="none" stroke="#9a32cd" stroke-dasharray="5,2" d="M1255.19,-240.03C1269.42,-264.84 1296.83,-306.99 1331,-332.1 1376.44,-365.48 1402,-346.51 1450,-376.1 1478.28,-393.53 1505.48,-420.08 1523.75,-439.84"/>
<polygon fill="#9a32cd" stroke="#9a32cd" points="1258.25,-238.34 1250.33,-231.3 1252.13,-241.74 1258.25,-238.34"/>
</a>
</g>
<text text-anchor="middle" x="1390.5" y="-379.1" font-family="Helvetica,sans-Serif" font-size="10.00" fill="grey"> title_</text>
</g>
<!-- Node13&#45;&gt;Node12 -->
<g id="edge14_Node000012_Node000013" class="edge">
<title>Node13&#45;&gt;Node12</title>
<g id="a_edge14_Node000012_Node000013"><a xlink:title=" ">
<path fill="none" stroke="#9a32cd" stroke-dasharray="5,2" d="M1031.45,-145.77C1069.54,-161.4 1124.8,-183.34 1174,-200.1 1184.32,-203.61 1195.64,-207.07 1206.05,-210.1"/>
<polygon fill="#9a32cd" stroke="#9a32cd" points="1033.16,-142.68 1022.58,-142.11 1030.49,-149.16 1033.16,-142.68"/>
</a>
</g>
<text text-anchor="middle" x="1114" y="-196.1" font-family="Helvetica,sans-Serif" font-size="10.00" fill="grey"> ptr</text>
</g>
<!-- Node14&#45;&gt;Node13 -->
<g id="edge15_Node000013_Node000014" class="edge">
<title>Node14&#45;&gt;Node13</title>
<g id="a_edge15_Node000013_Node000014"><a xlink:title=" ">
<path fill="none" stroke="#63b8ff" d="M804.99,-59.49C850.24,-76.47 904.7,-96.9 941.27,-110.63"/>
<polygon fill="#63b8ff" stroke="#63b8ff" points="806.3,-56.24 795.71,-56.01 803.84,-62.8 806.3,-56.24"/>
</a>
</g>
</g>
<!-- Node15&#45;&gt;Node14 -->
<g id="edge17_Node000014_Node000015" class="edge">
<title>Node15&#45;&gt;Node14</title>
<g id="a_edge17_Node000014_Node000015"><a xlink:title=" ">
<path fill="none" stroke="orange" stroke-dasharray="5,2" d="M529.59,-32.77C566.34,-32.07 611.42,-31.21 648.71,-30.5"/>
<polygon fill="orange" stroke="orange" points="529.92,-29.26 519.99,-32.95 530.05,-36.26 529.92,-29.26"/>
</a>
</g>
<text text-anchor="start" x="536" y="-47.1" font-family="Helvetica,sans-Serif" font-size="10.00" fill="grey"> &lt; Doxygen::DoxType</text>
<text text-anchor="middle" x="583.5" y="-36.1" font-family="Helvetica,sans-Serif" font-size="10.00" fill="grey">::TitleType &gt;</text>
</g>
<!-- Node16&#45;&gt;Node12 -->
<g id="edge20_Node000012_Node000016" class="edge">
<title>Node16&#45;&gt;Node12</title>
<g id="a_edge20_Node000012_Node000016"><a xlink:title=" ">
<path fill="none" stroke="orange" stroke-dasharray="5,2" d="M754.15,-469.39C790.8,-452.15 854.98,-424.06 913,-409.1 1018.43,-381.92 1066.04,-439.43 1156,-378.1 1210.26,-341.1 1233.71,-258.48 1240.38,-229.98"/>
<polygon fill="orange" stroke="orange" points="753.03,-466.04 745.5,-473.5 756.03,-472.37 753.03,-466.04"/>
</a>
</g>
<text text-anchor="middle" x="983.5" y="-412.1" font-family="Helvetica,sans-Serif" font-size="10.00" fill="grey"> &lt; TitleType &gt;</text>
</g>
<!-- Node18 -->
<g id="Node000018" class="node">
<title>Node18</title>
<g id="a_Node000018"><a xlink:title=" ">
<polygon fill="white" stroke="#666666" points="1054,-496.6 913,-496.6 913,-477.6 1054,-477.6 1054,-496.6"/>
<text text-anchor="middle" x="983.5" y="-484.6" font-family="Helvetica,sans-Serif" font-size="10.00">std::shared_ptr&lt; ParaType &gt;</text>
</a>
</g>
</g>
<!-- Node16&#45;&gt;Node18 -->
<g id="edge24_Node000018_Node000016" class="edge">
<title>Node16&#45;&gt;Node18</title>
<g id="a_edge24_Node000018_Node000016"><a xlink:title=" ">
<path fill="none" stroke="orange" stroke-dasharray="5,2" d="M786.73,-484.21C819.07,-484.33 859.15,-484.58 895,-485.1 900.77,-485.18 906.76,-485.28 912.77,-485.4"/>
<polygon fill="orange" stroke="orange" points="787.16,-480.71 777.15,-484.18 787.14,-487.71 787.16,-480.71"/>
</a>
</g>
<text text-anchor="middle" x="855" y="-488.1" font-family="Helvetica,sans-Serif" font-size="10.00" fill="grey"> &lt; ParaType &gt;</text>
</g>
<!-- Node21 -->
<g id="Node000021" class="node">
<title>Node21</title>
<g id="a_Node000021"><a xlink:title=" ">
<polygon fill="white" stroke="#666666" points="1044.5,-459.1 922.5,-459.1 922.5,-429.1 1044.5,-429.1 1044.5,-459.1"/>
<text text-anchor="start" x="930.5" y="-447.1" font-family="Helvetica,sans-Serif" font-size="10.00">std::shared_ptr&lt; Internal</text>
<text text-anchor="middle" x="983.5" y="-436.1" font-family="Helvetica,sans-Serif" font-size="10.00">Type &gt;</text>
</a>
</g>
</g>
<!-- Node16&#45;&gt;Node21 -->
<g id="edge29_Node000021_Node000016" class="edge">
<title>Node16&#45;&gt;Node21</title>
<g id="a_edge29_Node000021_Node000016"><a xlink:title=" ">
<path fill="none" stroke="orange" stroke-dasharray="5,2" d="M786.96,-474.35C828.15,-467.98 881.66,-459.7 922.28,-453.41"/>
<polygon fill="orange" stroke="orange" points="786.53,-470.88 777.19,-475.87 787.6,-477.8 786.53,-470.88"/>
</a>
</g>
<text text-anchor="middle" x="855" y="-472.1" font-family="Helvetica,sans-Serif" font-size="10.00" fill="grey"> &lt; InternalType &gt;</text>
</g>
<!-- Node24 -->
<g id="Node000024" class="node">
<title>Node24</title>
<g id="a_Node000024"><a xlink:title=" ">
<polygon fill="white" stroke="#666666" points="1047.5,-658.1 919.5,-658.1 919.5,-628.1 1047.5,-628.1 1047.5,-658.1"/>
<text text-anchor="start" x="927.5" y="-646.1" font-family="Helvetica,sans-Serif" font-size="10.00">std::shared_ptr&lt; SubSect</text>
<text text-anchor="middle" x="983.5" y="-635.1" font-family="Helvetica,sans-Serif" font-size="10.00">Type &gt;</text>
</a>
</g>
</g>
<!-- Node16&#45;&gt;Node24 -->
<g id="edge40_Node000024_Node000016" class="edge">
<title>Node16&#45;&gt;Node24</title>
<g id="a_edge40_Node000024_Node000016"><a xlink:title=" ">
<path fill="none" stroke="orange" stroke-dasharray="5,2" d="M749.87,-500.01C799.71,-530.67 908.46,-597.56 957.56,-627.76"/>
<polygon fill="orange" stroke="orange" points="751.81,-497.09 741.46,-494.84 748.14,-503.06 751.81,-497.09"/>
</a>
</g>
<text text-anchor="middle" x="855" y="-590.1" font-family="Helvetica,sans-Serif" font-size="10.00" fill="grey"> &lt; SubSectType &gt;</text>
</g>
<!-- Node17 -->
<g id="Node000017" class="node">
<title>Node17</title>
<g id="a_Node000017"><a xlink:title=" ">
<polygon fill="white" stroke="#666666" points="1303,-517.1 1184,-517.1 1184,-487.1 1303,-487.1 1303,-517.1"/>
<text text-anchor="start" x="1192" y="-505.1" font-family="Helvetica,sans-Serif" font-size="10.00">std::vector&lt; std::shared</text>
<text text-anchor="middle" x="1243.5" y="-494.1" font-family="Helvetica,sans-Serif" font-size="10.00">_ptr&lt; ParaType &gt; &gt;</text>
</a>
</g>
</g>
<!-- Node17&#45;&gt;Node3 -->
<g id="edge22_Node000003_Node000017" class="edge">
<title>Node17&#45;&gt;Node3</title>
<g id="a_edge22_Node000003_Node000017"><a xlink:title=" ">
<path fill="none" stroke="#9a32cd" stroke-dasharray="5,2" d="M1314.61,-515.9C1393.3,-528.26 1523.49,-539.17 1627,-501.1 1716.2,-468.29 1797.46,-386.55 1835.23,-344.3"/>
<polygon fill="#9a32cd" stroke="#9a32cd" points="1315.31,-512.47 1304.88,-514.32 1314.18,-519.38 1315.31,-512.47"/>
</a>
</g>
<text text-anchor="middle" x="1547.5" y="-530.1" font-family="Helvetica,sans-Serif" font-size="10.00" fill="grey"> para_</text>
</g>
<!-- Node17&#45;&gt;Node22 -->
<g id="edge36_Node000022_Node000017" class="edge">
<title>Node17&#45;&gt;Node22</title>
<g id="a_edge36_Node000022_Node000017"><a xlink:title=" ">
<path fill="none" stroke="#9a32cd" stroke-dasharray="5,2" d="M1281.93,-480.84C1292.54,-473.95 1303.71,-465.82 1313,-457.1 1322.72,-447.97 1320.28,-441.03 1331,-433.1 1376.21,-399.65 1412.17,-431.71 1450,-390.1 1471.61,-366.33 1447.91,-345.16 1468,-320.1 1472.11,-314.96 1477.06,-310.43 1482.44,-306.43"/>
<polygon fill="#9a32cd" stroke="#9a32cd" points="1280.33,-477.71 1273.71,-485.98 1284.04,-483.64 1280.33,-477.71"/>
</a>
</g>
<text text-anchor="middle" x="1390.5" y="-436.1" font-family="Helvetica,sans-Serif" font-size="10.00" fill="grey"> para_</text>
</g>
<!-- Node17&#45;&gt;Node26 -->
<g id="edge48_Node000026_Node000017" class="edge">
<title>Node17&#45;&gt;Node26</title>
<g id="a_edge48_Node000026_Node000017"><a xlink:title=" ">
<path fill="none" stroke="#9a32cd" stroke-dasharray="5,2" d="M1314.76,-493.72C1360.53,-488.27 1420.31,-481.14 1467.69,-475.49"/>
<polygon fill="#9a32cd" stroke="#9a32cd" points="1314.46,-490.23 1304.95,-494.89 1315.29,-497.18 1314.46,-490.23"/>
</a>
</g>
<text text-anchor="middle" x="1390.5" y="-495.1" font-family="Helvetica,sans-Serif" font-size="10.00" fill="grey"> para_</text>
</g>
<!-- Node18&#45;&gt;Node17 -->
<g id="edge23_Node000017_Node000018" class="edge">
<title>Node18&#45;&gt;Node17</title>
<g id="a_edge23_Node000017_Node000018"><a xlink:title=" ">
<path fill="none" stroke="#9a32cd" stroke-dasharray="5,2" d="M1030.75,-474.57C1065.43,-466.97 1113.95,-460.13 1156,-468.1 1175.18,-471.73 1195.56,-479.53 1211.71,-486.74"/>
<polygon fill="#9a32cd" stroke="#9a32cd" points="1029.98,-471.16 1021.03,-476.82 1031.56,-477.98 1029.98,-471.16"/>
</a>
</g>
<text text-anchor="middle" x="1114" y="-471.1" font-family="Helvetica,sans-Serif" font-size="10.00" fill="grey"> elements</text>
</g>
<!-- Node19&#45;&gt;Node17 -->
<g id="edge25_Node000017_Node000019" class="edge">
<title>Node19&#45;&gt;Node17</title>
<g id="a_edge25_Node000017_Node000019"><a xlink:title=" ">
<path fill="none" stroke="orange" stroke-dasharray="5,2" d="M1037.41,-540.37C1071.45,-536.9 1116.53,-531.5 1156,-524.1 1165.75,-522.27 1176.03,-519.98 1185.96,-517.57"/>
<polygon fill="orange" stroke="orange" points="1037.42,-536.85 1027.82,-541.33 1038.12,-543.82 1037.42,-536.85"/>
</a>
</g>
<text text-anchor="start" x="1072" y="-549.1" font-family="Helvetica,sans-Serif" font-size="10.00" fill="grey"> &lt; std::shared_ptr&lt;</text>
<text text-anchor="middle" x="1114" y="-538.1" font-family="Helvetica,sans-Serif" font-size="10.00" fill="grey"> ParaType &gt; &gt;</text>
</g>
<!-- Node20 -->
<g id="Node000020" class="node">
<title>Node20</title>
<g id="a_Node000020"><a xlink:title=" ">
<polygon fill="white" stroke="#666666" points="1303,-448.1 1184,-448.1 1184,-418.1 1303,-418.1 1303,-448.1"/>
<text text-anchor="start" x="1192" y="-436.1" font-family="Helvetica,sans-Serif" font-size="10.00">std::vector&lt; std::shared</text>
<text text-anchor="middle" x="1243.5" y="-425.1" font-family="Helvetica,sans-Serif" font-size="10.00">_ptr&lt; InternalType &gt; &gt;</text>
</a>
</g>
</g>
<!-- Node19&#45;&gt;Node20 -->
<g id="edge30_Node000020_Node000019" class="edge">
<title>Node19&#45;&gt;Node20</title>
<g id="a_edge30_Node000020_Node000019"><a xlink:title=" ">
<path fill="none" stroke="orange" stroke-dasharray="5,2" d="M1009.43,-529.35C1026.49,-519.18 1049.93,-506.35 1072,-498.1 1107.85,-484.7 1120.12,-492.42 1156,-479.1 1177.84,-470.98 1201.08,-458.38 1217.96,-448.42"/>
<polygon fill="orange" stroke="orange" points="1007.72,-526.3 1001,-534.49 1011.36,-532.28 1007.72,-526.3"/>
</a>
</g>
<text text-anchor="start" x="1072" y="-512.1" font-family="Helvetica,sans-Serif" font-size="10.00" fill="grey"> &lt; std::shared_ptr&lt;</text>
<text text-anchor="middle" x="1114" y="-501.1" font-family="Helvetica,sans-Serif" font-size="10.00" fill="grey"> InternalType &gt; &gt;</text>
</g>
<!-- Node23 -->
<g id="Node000023" class="node">
<title>Node23</title>
<g id="a_Node000023"><a xlink:title=" ">
<polygon fill="white" stroke="#666666" points="1450,-670.1 1331,-670.1 1331,-640.1 1450,-640.1 1450,-670.1"/>
<text text-anchor="start" x="1339" y="-658.1" font-family="Helvetica,sans-Serif" font-size="10.00">std::vector&lt; std::shared</text>
<text text-anchor="middle" x="1390.5" y="-647.1" font-family="Helvetica,sans-Serif" font-size="10.00">_ptr&lt; SubSectType &gt; &gt;</text>
</a>
</g>
</g>
<!-- Node19&#45;&gt;Node23 -->
<g id="edge41_Node000023_Node000019" class="edge">
<title>Node19&#45;&gt;Node23</title>
<g id="a_edge41_Node000023_Node000019"><a xlink:title=" ">
<path fill="none" stroke="orange" stroke-dasharray="5,2" d="M1031.29,-558C1069.63,-568.56 1125.31,-583.86 1174,-597.1 1227.47,-611.63 1288.44,-628.02 1331.86,-639.66"/>
<polygon fill="orange" stroke="orange" points="1032.49,-554.71 1021.92,-555.42 1030.63,-561.45 1032.49,-554.71"/>
</a>
</g>
<text text-anchor="start" x="1072" y="-606.1" font-family="Helvetica,sans-Serif" font-size="10.00" fill="grey"> &lt; std::shared_ptr&lt;</text>
<text text-anchor="middle" x="1114" y="-595.1" font-family="Helvetica,sans-Serif" font-size="10.00" fill="grey"> SubSectType &gt; &gt;</text>
</g>
<!-- Node20&#45;&gt;Node3 -->
<g id="edge27_Node000003_Node000020" class="edge">
<title>Node20&#45;&gt;Node3</title>
<g id="a_edge27_Node000003_Node000020"><a xlink:title=" ">
<path fill="none" stroke="#9a32cd" stroke-dasharray="5,2" d="M1263.38,-409.29C1279.28,-391.18 1303.74,-367.5 1331,-356.1 1419.34,-319.14 1665.58,-336.14 1761,-328.1 1766.71,-327.62 1772.6,-327.09 1778.53,-326.53"/>
<polygon fill="#9a32cd" stroke="#9a32cd" points="1261.06,-406.61 1257.26,-416.5 1266.4,-411.14 1261.06,-406.61"/>
</a>
</g>
<text text-anchor="middle" x="1547.5" y="-337.1" font-family="Helvetica,sans-Serif" font-size="10.00" fill="grey"> internal_</text>
</g>
<!-- Node20&#45;&gt;Node22 -->
<g id="edge37_Node000022_Node000020" class="edge">
<title>Node20&#45;&gt;Node22</title>
<g id="a_edge37_Node000022_Node000020"><a xlink:title=" ">
<path fill="none" stroke="#9a32cd" stroke-dasharray="5,2" d="M1256.29,-407.44C1270.15,-380.36 1295.8,-338.68 1331,-317.1 1371.69,-292.14 1424.41,-282.78 1467.51,-279.71"/>
<polygon fill="#9a32cd" stroke="#9a32cd" points="1253.18,-405.83 1251.9,-416.35 1259.46,-408.92 1253.18,-405.83"/>
</a>
</g>
<text text-anchor="middle" x="1390.5" y="-320.1" font-family="Helvetica,sans-Serif" font-size="10.00" fill="grey"> internal_</text>
</g>
<!-- Node20&#45;&gt;Node26 -->
<g id="edge49_Node000026_Node000020" class="edge">
<title>Node20&#45;&gt;Node26</title>
<g id="a_edge49_Node000026_Node000020"><a xlink:title=" ">
<path fill="none" stroke="#9a32cd" stroke-dasharray="5,2" d="M1314.06,-443.9C1319.79,-444.68 1325.49,-445.43 1331,-446.1 1376.13,-451.58 1426.74,-456.35 1467.57,-459.85"/>
<polygon fill="#9a32cd" stroke="#9a32cd" points="1314.95,-440.49 1304.57,-442.57 1313.98,-447.42 1314.95,-440.49"/>
</a>
</g>
<text text-anchor="middle" x="1390.5" y="-462.1" font-family="Helvetica,sans-Serif" font-size="10.00" fill="grey"> internal_</text>
</g>
<!-- Node21&#45;&gt;Node20 -->
<g id="edge28_Node000020_Node000021" class="edge">
<title>Node21&#45;&gt;Node20</title>
<g id="a_edge28_Node000020_Node000021"><a xlink:title=" ">
<path fill="none" stroke="#9a32cd" stroke-dasharray="5,2" d="M1055.86,-435.3C1061.32,-434.82 1066.74,-434.41 1072,-434.1 1109.08,-431.88 1150.78,-431.59 1183.66,-431.88"/>
<polygon fill="#9a32cd" stroke="#9a32cd" points="1055.81,-431.79 1046.18,-436.21 1056.47,-438.76 1055.81,-431.79"/>
</a>
</g>
<text text-anchor="middle" x="1114" y="-437.1" font-family="Helvetica,sans-Serif" font-size="10.00" fill="grey"> elements</text>
</g>
<!-- Node22&#45;&gt;Node3 -->
<g id="edge31_Node000003_Node000022" class="edge">
<title>Node22&#45;&gt;Node3</title>
<g id="a_edge31_Node000003_Node000022"><a xlink:title=" ">
<path fill="none" stroke="orange" stroke-dasharray="5,2" d="M1638.47,-291.06C1676.31,-295.69 1720.8,-301.14 1761,-306.1 1766.7,-306.8 1772.58,-307.53 1778.51,-308.26"/>
<polygon fill="orange" stroke="orange" points="1639.32,-287.64 1628.97,-289.9 1638.47,-294.59 1639.32,-287.64"/>
</a>
</g>
<text text-anchor="start" x="1645" y="-320.1" font-family="Helvetica,sans-Serif" font-size="10.00" fill="grey"> &lt; doxType, DocInternalS1</text>
<text text-anchor="middle" x="1703" y="-309.1" font-family="Helvetica,sans-Serif" font-size="10.00" fill="grey">Type &gt;</text>
</g>
<!-- Node23&#45;&gt;Node2 -->
<g id="edge38_Node000002_Node000023" class="edge">
<title>Node23&#45;&gt;Node2</title>
<g id="a_edge38_Node000002_Node000023"><a xlink:title=" ">
<path fill="none" stroke="#9a32cd" stroke-dasharray="5,2" d="M1461.4,-670.32C1463.62,-670.61 1465.82,-670.87 1468,-671.1 1538.29,-678.37 1556.57,-676.87 1627,-671.1 1830.83,-654.37 1882.76,-646.36 2081,-596.1 2087,-594.57 2093.15,-592.87 2099.31,-591.04"/>
<polygon fill="#9a32cd" stroke="#9a32cd" points="1462.1,-666.89 1451.69,-668.87 1461.07,-673.81 1462.1,-666.89"/>
</a>
</g>
<text text-anchor="middle" x="1703" y="-672.1" font-family="Helvetica,sans-Serif" font-size="10.00" fill="grey"> subSections_</text>
</g>
<!-- Node25 -->
<g id="Node000025" class="node">
<title>Node25</title>
<g id="a_Node000025"><a xlink:href="class_harlinn_1_1_common_1_1_core_1_1_doxygen_1_1_internal_1_1_doc_section_type.html" target="_top" xlink:title=" ">
<polygon fill="white" stroke="#666666" points="1927,-585.1 1790,-585.1 1790,-533.1 1927,-533.1 1927,-585.1"/>
<text text-anchor="start" x="1798" y="-573.1" font-family="Helvetica,sans-Serif" font-size="10.00">Harlinn::Common::Core</text>
<text text-anchor="start" x="1798" y="-562.1" font-family="Helvetica,sans-Serif" font-size="10.00">::Doxygen::Internal::</text>
<text text-anchor="start" x="1798" y="-551.1" font-family="Helvetica,sans-Serif" font-size="10.00">DocSectionType&lt; doxType,</text>
<text text-anchor="middle" x="1858.5" y="-540.1" font-family="Helvetica,sans-Serif" font-size="10.00"> InternalT, SubSectT &gt;</text>
</a>
</g>
</g>
<!-- Node23&#45;&gt;Node25 -->
<g id="edge50_Node000025_Node000023" class="edge">
<title>Node23&#45;&gt;Node25</title>
<g id="a_edge50_Node000025_Node000023"><a xlink:title=" ">
<path fill="none" stroke="#9a32cd" stroke-dasharray="5,2" d="M1461.71,-656.86C1537.49,-656.72 1660.77,-650.52 1761,-617.1 1782.7,-609.86 1804.72,-597.13 1822.23,-585.43"/>
<polygon fill="#9a32cd" stroke="#9a32cd" points="1461.95,-653.36 1451.94,-656.84 1461.94,-660.36 1461.95,-653.36"/>
</a>
</g>
<text text-anchor="middle" x="1547.5" y="-659.1" font-family="Helvetica,sans-Serif" font-size="10.00" fill="grey"> subSections_</text>
</g>
<!-- Node24&#45;&gt;Node23 -->
<g id="edge39_Node000023_Node000024" class="edge">
<title>Node24&#45;&gt;Node23</title>
<g id="a_edge39_Node000023_Node000024"><a xlink:title=" ">
<path fill="none" stroke="#9a32cd" stroke-dasharray="5,2" d="M1059,-645.3C1137.27,-647.62 1258.78,-651.22 1330.61,-653.35"/>
<polygon fill="#9a32cd" stroke="#9a32cd" points="1059.39,-641.81 1049.29,-645.02 1059.19,-648.81 1059.39,-641.81"/>
</a>
</g>
<text text-anchor="middle" x="1114" y="-650.1" font-family="Helvetica,sans-Serif" font-size="10.00" fill="grey"> elements</text>
</g>
<!-- Node25&#45;&gt;Node2 -->
<g id="edge42_Node000002_Node000025" class="edge">
<title>Node25&#45;&gt;Node2</title>
<g id="a_edge42_Node000002_Node000025"><a xlink:title=" ">
<path fill="none" stroke="orange" stroke-dasharray="5,2" d="M1938.5,-559.1C1986.74,-559.1 2048.56,-559.1 2098.6,-559.1"/>
<polygon fill="orange" stroke="orange" points="1938.68,-555.6 1928.68,-559.1 1938.68,-562.6 1938.68,-555.6"/>
</a>
</g>
<text text-anchor="start" x="1956" y="-584.1" font-family="Helvetica,sans-Serif" font-size="10.00" fill="grey"> &lt; Doxygen::DoxType</text>
<text text-anchor="start" x="1956" y="-573.1" font-family="Helvetica,sans-Serif" font-size="10.00" fill="grey">::DocSect1Type, DocInternal</text>
<text text-anchor="middle" x="2018.5" y="-562.1" font-family="Helvetica,sans-Serif" font-size="10.00" fill="grey">S1Type, DocSect2Type &gt;</text>
</g>
<!-- Node26&#45;&gt;Node25 -->
<g id="edge43_Node000025_Node000026" class="edge">
<title>Node26&#45;&gt;Node25</title>
<g id="a_edge43_Node000025_Node000026"><a xlink:title=" ">
<path fill="none" stroke="#63b8ff" d="M1638.05,-493.05C1686.39,-507.6 1745.1,-525.27 1789.62,-538.67"/>
<polygon fill="#63b8ff" stroke="#63b8ff" points="1639.31,-489.77 1628.72,-490.24 1637.29,-496.47 1639.31,-489.77"/>
</a>
</g>
</g>
</g>
</svg>
