<?xml version="1.0" encoding="UTF-8" standalone="no"?>
<!DOCTYPE svg PUBLIC "-//W3C//DTD SVG 1.1//EN"
 "http://www.w3.org/Graphics/SVG/1.1/DTD/svg11.dtd">
<!-- Generated by graphviz version 7.0.1 (20221109.1506)
 -->
<!-- Title: Harlinn::ODBC::Descriptor Pages: 1 -->
<svg width="190pt" height="182pt"
 viewBox="0.00 0.00 190.00 182.00" xmlns="http://www.w3.org/2000/svg" xmlns:xlink="http://www.w3.org/1999/xlink">
<g id="graph0" class="graph" transform="scale(1 1) rotate(0) translate(4 178)">
<title>Harlinn::ODBC::Descriptor</title>
<!-- Node1 -->
<g id="Node000001" class="node">
<title>Node1</title>
<g id="a_Node000001"><a xlink:title="A descriptor is a collection of metadata that describes the parameters of an SQL statement or the col...">
<polygon fill="#999999" stroke="#666666" points="150.5,-19 19.5,-19 19.5,0 150.5,0 150.5,-19"/>
<text text-anchor="middle" x="85" y="-7" font-family="Helvetica,sans-Serif" font-size="10.00">Harlinn::ODBC::Descriptor</text>
</a>
</g>
</g>
<!-- Node2 -->
<g id="Node000002" class="node">
<title>Node2</title>
<g id="a_Node000002"><a xlink:href="class_harlinn_1_1_o_d_b_c_1_1_sql_handle.html" target="_top" xlink:title=" ">
<polygon fill="white" stroke="#666666" points="170,-86 0,-86 0,-56 170,-56 170,-86"/>
<text text-anchor="start" x="8" y="-74" font-family="Helvetica,sans-Serif" font-size="10.00">Harlinn::ODBC::SqlHandle</text>
<text text-anchor="middle" x="85" y="-63" font-family="Helvetica,sans-Serif" font-size="10.00">&lt; ODBC::HandleType::Descriptor &gt;</text>
</a>
</g>
</g>
<!-- Node2&#45;&gt;Node1 -->
<g id="edge1_Node000001_Node000002" class="edge">
<title>Node2&#45;&gt;Node1</title>
<g id="a_edge1_Node000001_Node000002"><a xlink:title=" ">
<path fill="none" stroke="#63b8ff" d="M85,-44.13C85,-35.29 85,-25.99 85,-19.42"/>
<polygon fill="#63b8ff" stroke="#63b8ff" points="81.5,-44.08 85,-54.08 88.5,-44.08 81.5,-44.08"/>
</a>
</g>
</g>
<!-- Node3 -->
<g id="Node000003" class="node">
<title>Node3</title>
<g id="a_Node000003"><a xlink:href="class_harlinn_1_1_o_d_b_c_1_1_sql_handle.html" target="_top" xlink:title="This template implements functionality common to the ODBC handle wrapper classes.">
<polygon fill="white" stroke="#666666" points="150.5,-174 19.5,-174 19.5,-144 150.5,-144 150.5,-174"/>
<text text-anchor="start" x="27.5" y="-162" font-family="Helvetica,sans-Serif" font-size="10.00">Harlinn::ODBC::SqlHandle</text>
<text text-anchor="middle" x="85" y="-151" font-family="Helvetica,sans-Serif" font-size="10.00">&lt; handleType &gt;</text>
</a>
</g>
</g>
<!-- Node3&#45;&gt;Node2 -->
<g id="edge2_Node000002_Node000003" class="edge">
<title>Node3&#45;&gt;Node2</title>
<g id="a_edge2_Node000002_Node000003"><a xlink:title=" ">
<path fill="none" stroke="orange" stroke-dasharray="5,2" d="M85,-132.6C85,-117.46 85,-98.8 85,-86.22"/>
<polygon fill="orange" stroke="orange" points="81.5,-132.29 85,-142.29 88.5,-132.29 81.5,-132.29"/>
</a>
</g>
<text text-anchor="start" x="85" y="-118" font-family="Helvetica,sans-Serif" font-size="10.00" fill="grey"> &lt; ODBC::HandleType</text>
<text text-anchor="middle" x="133.5" y="-107" font-family="Helvetica,sans-Serif" font-size="10.00" fill="grey">::Descriptor &gt;</text>
</g>
</g>
</svg>
