<?xml version="1.0" encoding="UTF-8" standalone="no"?>
<!DOCTYPE svg PUBLIC "-//W3C//DTD SVG 1.1//EN"
 "http://www.w3.org/Graphics/SVG/1.1/DTD/svg11.dtd">
<!-- Generated by graphviz version 7.0.1 (20221109.1506)
 -->
<!-- Title: Harlinn::OCI::DescriptorArrayBaseBind Pages: 1 -->
<svg width="1758pt" height="623pt"
 viewBox="0.00 0.00 1758.00 623.02" xmlns="http://www.w3.org/2000/svg" xmlns:xlink="http://www.w3.org/1999/xlink">
<g id="graph0" class="graph" transform="scale(1 1) rotate(0) translate(4 619.02)">
<title>Harlinn::OCI::DescriptorArrayBaseBind</title>
<!-- Node1 -->
<g id="Node000001" class="node">
<title>Node1</title>
<g id="a_Node000001"><a xlink:title="DescriptorArrayBaseBind.">
<polygon fill="#999999" stroke="#666666" points="1500,-615.02 1381,-615.02 1381,-585.02 1500,-585.02 1500,-615.02"/>
<text text-anchor="start" x="1389" y="-603.02" font-family="Helvetica,sans-Serif" font-size="10.00">Harlinn::OCI::Descriptor</text>
<text text-anchor="middle" x="1440.5" y="-592.02" font-family="Helvetica,sans-Serif" font-size="10.00">ArrayBaseBind</text>
</a>
</g>
</g>
<!-- Node2 -->
<g id="Node000002" class="node">
<title>Node2</title>
<g id="a_Node000002"><a xlink:href="class_harlinn_1_1_o_c_i_1_1_array_bind.xhtml" target="_top" xlink:title="ArrayBind, base class for binding an array of values.">
<polygon fill="white" stroke="#666666" points="1266.5,-609.52 1148.5,-609.52 1148.5,-590.52 1266.5,-590.52 1266.5,-609.52"/>
<text text-anchor="middle" x="1207.5" y="-597.52" font-family="Helvetica,sans-Serif" font-size="10.00">Harlinn::OCI::ArrayBind</text>
</a>
</g>
</g>
<!-- Node2&#45;&gt;Node1 -->
<g id="edge1_Node000001_Node000002" class="edge">
<title>Node2&#45;&gt;Node1</title>
<g id="a_edge1_Node000001_Node000002"><a xlink:title=" ">
<path fill="none" stroke="#63b8ff" d="M1278.12,-600.02C1310.9,-600.02 1349.56,-600.02 1380.83,-600.02"/>
<polygon fill="#63b8ff" stroke="#63b8ff" points="1278.3,-596.52 1268.3,-600.02 1278.3,-603.52 1278.3,-596.52"/>
</a>
</g>
</g>
<!-- Node3 -->
<g id="Node000003" class="node">
<title>Node3</title>
<g id="a_Node000003"><a xlink:href="class_harlinn_1_1_o_c_i_1_1_bind_base.xhtml" target="_top" xlink:title="BindBase, base class for binds.">
<polygon fill="white" stroke="#666666" points="980.5,-559.52 863.5,-559.52 863.5,-540.52 980.5,-540.52 980.5,-559.52"/>
<text text-anchor="middle" x="922" y="-547.52" font-family="Helvetica,sans-Serif" font-size="10.00">Harlinn::OCI::BindBase</text>
</a>
</g>
</g>
<!-- Node3&#45;&gt;Node2 -->
<g id="edge2_Node000002_Node000003" class="edge">
<title>Node3&#45;&gt;Node2</title>
<g id="a_edge2_Node000002_Node000003"><a xlink:title=" ">
<path fill="none" stroke="#63b8ff" d="M990.74,-561.97C1039.33,-570.54 1104.06,-581.96 1149.91,-590.04"/>
<polygon fill="#63b8ff" stroke="#63b8ff" points="991.64,-558.58 981.18,-560.29 990.42,-565.47 991.64,-558.58"/>
</a>
</g>
</g>
<!-- Node16 -->
<g id="Node000016" class="node">
<title>Node16</title>
<g id="a_Node000016"><a xlink:title=" ">
<polygon fill="white" stroke="#666666" points="1267.5,-450.02 1147.5,-450.02 1147.5,-420.02 1267.5,-420.02 1267.5,-450.02"/>
<text text-anchor="start" x="1155.5" y="-438.02" font-family="Helvetica,sans-Serif" font-size="10.00">std::unique_ptr&lt; Harlinn</text>
<text text-anchor="middle" x="1207.5" y="-427.02" font-family="Helvetica,sans-Serif" font-size="10.00">::OCI::BindBase &gt;</text>
</a>
</g>
</g>
<!-- Node3&#45;&gt;Node16 -->
<g id="edge32_Node000016_Node000003" class="edge">
<title>Node3&#45;&gt;Node16</title>
<g id="a_edge32_Node000016_Node000003"><a xlink:title=" ">
<path fill="none" stroke="#9a32cd" stroke-dasharray="5,2" d="M962.79,-536.59C975.54,-532.55 989.79,-528.32 1003,-525.02 1056.53,-511.66 1075.01,-525.39 1125,-502.02 1151.88,-489.46 1177.38,-465.97 1192.48,-450.41"/>
<polygon fill="#9a32cd" stroke="#9a32cd" points="961.91,-533.19 953.47,-539.59 964.06,-539.86 961.91,-533.19"/>
</a>
</g>
<text text-anchor="middle" x="1064" y="-528.02" font-family="Helvetica,sans-Serif" font-size="10.00" fill="grey"> ptr</text>
</g>
<!-- Node4 -->
<g id="Node000004" class="node">
<title>Node4</title>
<g id="a_Node000004"><a xlink:href="class_harlinn_1_1_o_c_i_1_1_handle_base.xhtml" target="_top" xlink:title="Base class for OCI handle wrappers.">
<polygon fill="white" stroke="#666666" points="483,-159.52 355,-159.52 355,-140.52 483,-140.52 483,-159.52"/>
<text text-anchor="middle" x="419" y="-147.52" font-family="Helvetica,sans-Serif" font-size="10.00">Harlinn::OCI::HandleBase</text>
</a>
</g>
</g>
<!-- Node4&#45;&gt;Node3 -->
<g id="edge3_Node000003_Node000004" class="edge">
<title>Node4&#45;&gt;Node3</title>
<g id="a_edge3_Node000003_Node000004"><a xlink:title=" ">
<path fill="none" stroke="#63b8ff" d="M420.78,-171.13C423.68,-217.41 437.28,-328.31 501,-387.02 588.99,-468.11 651.69,-406.68 762,-453.02 820.13,-477.45 881.96,-520.94 908.12,-540.29"/>
<polygon fill="#63b8ff" stroke="#63b8ff" points="424.29,-171.22 420.29,-161.41 417.3,-171.57 424.29,-171.22"/>
</a>
</g>
</g>
<!-- Node5 -->
<g id="Node000005" class="node">
<title>Node5</title>
<g id="a_Node000005"><a xlink:href="class_harlinn_1_1_o_c_i_1_1_statement.xhtml" target="_top" xlink:title="Statement, the context that identifies a SQL or PL/SQL statement and its associated attributes.">
<polygon fill="white" stroke="#666666" points="1750,-330.52 1630,-330.52 1630,-311.52 1750,-311.52 1750,-330.52"/>
<text text-anchor="middle" x="1690" y="-318.52" font-family="Helvetica,sans-Serif" font-size="10.00">Harlinn::OCI::Statement</text>
</a>
</g>
</g>
<!-- Node4&#45;&gt;Node5 -->
<g id="edge5_Node000005_Node000004" class="edge">
<title>Node4&#45;&gt;Node5</title>
<g id="a_edge5_Node000005_Node000004"><a xlink:title=" ">
<path fill="none" stroke="#63b8ff" d="M430.31,-130.27C443.52,-106.97 468.62,-68.77 501,-48.02 576.51,0.37 607.31,-0.02 697,-0.02 697,-0.02 697,-0.02 1441.5,-0.02 1602.65,-0.02 1673.54,-256.88 1686.7,-311.07"/>
<polygon fill="#63b8ff" stroke="#63b8ff" points="427.39,-128.32 425.67,-138.77 433.54,-131.67 427.39,-128.32"/>
</a>
</g>
</g>
<!-- Node6 -->
<g id="Node000006" class="node">
<title>Node6</title>
<g id="a_Node000006"><a xlink:href="class_harlinn_1_1_o_c_i_1_1_service_context.xhtml" target="_top" xlink:title="ServiceContext &#45; A service context handle defines attributes that determine the operational context f...">
<polygon fill="white" stroke="#666666" points="1510.5,-212.52 1370.5,-212.52 1370.5,-193.52 1510.5,-193.52 1510.5,-212.52"/>
<text text-anchor="middle" x="1440.5" y="-200.52" font-family="Helvetica,sans-Serif" font-size="10.00">Harlinn::OCI::ServiceContext</text>
</a>
</g>
</g>
<!-- Node4&#45;&gt;Node6 -->
<g id="edge7_Node000006_Node000004" class="edge">
<title>Node4&#45;&gt;Node6</title>
<g id="a_edge7_Node000006_Node000004"><a xlink:title=" ">
<path fill="none" stroke="#63b8ff" d="M442.95,-133.64C488.84,-102.55 596.21,-38.02 697,-38.02 697,-38.02 697,-38.02 1208.5,-38.02 1315.94,-38.02 1407.91,-157.68 1432.84,-193.2"/>
<polygon fill="#63b8ff" stroke="#63b8ff" points="441.11,-130.66 434.86,-139.23 445.08,-136.42 441.11,-130.66"/>
</a>
</g>
</g>
<!-- Node7 -->
<g id="Node000007" class="node">
<title>Node7</title>
<g id="a_Node000007"><a xlink:href="class_harlinn_1_1_o_c_i_1_1_environment.xhtml" target="_top" xlink:title="The environment handle defines a context in which all OCI functions are invoked.">
<polygon fill="white" stroke="#666666" points="762,-270.52 634,-270.52 634,-251.52 762,-251.52 762,-270.52"/>
<text text-anchor="middle" x="698" y="-258.52" font-family="Helvetica,sans-Serif" font-size="10.00">Harlinn::OCI::Environment</text>
</a>
</g>
</g>
<!-- Node4&#45;&gt;Node7 -->
<g id="edge9_Node000007_Node000004" class="edge">
<title>Node4&#45;&gt;Node7</title>
<g id="a_edge9_Node000007_Node000004"><a xlink:title=" ">
<path fill="none" stroke="#63b8ff" d="M443.51,-166.3C459.26,-176.68 480.74,-189.85 501,-199.02 552.53,-222.36 615.39,-240.57 655.79,-251.05"/>
<polygon fill="#63b8ff" stroke="#63b8ff" points="445.57,-163.47 435.32,-160.8 441.67,-169.28 445.57,-163.47"/>
</a>
</g>
</g>
<!-- Node11 -->
<g id="Node000011" class="node">
<title>Node11</title>
<g id="a_Node000011"><a xlink:href="class_harlinn_1_1_o_c_i_1_1_error_handle.xhtml" target="_top" xlink:title="The error handle is passed as a parameter to most OCI calls.">
<polygon fill="white" stroke="#666666" points="985,-255.52 859,-255.52 859,-236.52 985,-236.52 985,-255.52"/>
<text text-anchor="middle" x="922" y="-243.52" font-family="Helvetica,sans-Serif" font-size="10.00">Harlinn::OCI::ErrorHandle</text>
</a>
</g>
</g>
<!-- Node4&#45;&gt;Node11 -->
<g id="edge14_Node000011_Node000004" class="edge">
<title>Node4&#45;&gt;Node11</title>
<g id="a_edge14_Node000011_Node000004"><a xlink:title=" ">
<path fill="none" stroke="#63b8ff" d="M482.87,-162.07C582.93,-181.24 776.55,-218.35 869.18,-236.09"/>
<polygon fill="#63b8ff" stroke="#63b8ff" points="483.7,-158.67 473.22,-160.22 482.38,-165.54 483.7,-158.67"/>
</a>
</g>
</g>
<!-- Node12 -->
<g id="Node000012" class="node">
<title>Node12</title>
<g id="a_Node000012"><a xlink:href="class_harlinn_1_1_o_c_i_1_1_server.xhtml" target="_top" xlink:title="A server handle represents a connection between the client application and the Oracle database server...">
<polygon fill="white" stroke="#666666" points="1258.5,-118.52 1156.5,-118.52 1156.5,-99.52 1258.5,-99.52 1258.5,-118.52"/>
<text text-anchor="middle" x="1207.5" y="-106.52" font-family="Helvetica,sans-Serif" font-size="10.00">Harlinn::OCI::Server</text>
</a>
</g>
</g>
<!-- Node4&#45;&gt;Node12 -->
<g id="edge17_Node000012_Node000004" class="edge">
<title>Node4&#45;&gt;Node12</title>
<g id="a_edge17_Node000012_Node000004"><a xlink:title=" ">
<path fill="none" stroke="#63b8ff" d="M458.43,-136.62C471.75,-132.52 486.88,-128.45 501,-126.02 564.08,-115.18 783.31,-111.3 1003,-108.02 1055.28,-107.25 1115.13,-107.7 1156.32,-108.22"/>
<polygon fill="#63b8ff" stroke="#63b8ff" points="457.63,-133.2 449.17,-139.58 459.76,-139.87 457.63,-133.2"/>
</a>
</g>
</g>
<!-- Node13 -->
<g id="Node000013" class="node">
<title>Node13</title>
<g id="a_Node000013"><a xlink:href="class_harlinn_1_1_o_c_i_1_1_session.xhtml" target="_top" xlink:title="Session.">
<polygon fill="white" stroke="#666666" points="1262.5,-185.52 1152.5,-185.52 1152.5,-166.52 1262.5,-166.52 1262.5,-185.52"/>
<text text-anchor="middle" x="1207.5" y="-173.52" font-family="Helvetica,sans-Serif" font-size="10.00">Harlinn::OCI::Session</text>
</a>
</g>
</g>
<!-- Node4&#45;&gt;Node13 -->
<g id="edge21_Node000013_Node000004" class="edge">
<title>Node4&#45;&gt;Node13</title>
<g id="a_edge21_Node000013_Node000004"><a xlink:title=" ">
<path fill="none" stroke="#63b8ff" d="M494.71,-140.92C603,-129.13 809.81,-111.89 985,-128.02 1052.78,-134.27 1130.11,-153.99 1173.12,-166.13"/>
<polygon fill="#63b8ff" stroke="#63b8ff" points="494.33,-137.44 484.77,-142.02 495.1,-144.4 494.33,-137.44"/>
</a>
</g>
</g>
<!-- Node14 -->
<g id="Node000014" class="node">
<title>Node14</title>
<g id="a_Node000014"><a xlink:href="class_harlinn_1_1_o_c_i_1_1_subscription.xhtml" target="_top" xlink:title="Subscription.">
<polygon fill="white" stroke="#666666" points="1272,-383.52 1143,-383.52 1143,-364.52 1272,-364.52 1272,-383.52"/>
<text text-anchor="middle" x="1207.5" y="-371.52" font-family="Helvetica,sans-Serif" font-size="10.00">Harlinn::OCI::Subscription</text>
</a>
</g>
</g>
<!-- Node4&#45;&gt;Node14 -->
<g id="edge27_Node000014_Node000004" class="edge">
<title>Node4&#45;&gt;Node14</title>
<g id="a_edge27_Node000014_Node000004"><a xlink:title=" ">
<path fill="none" stroke="#63b8ff" d="M434.23,-168.89C449.13,-187.56 474.08,-215.9 501,-234.02 642.71,-329.45 691.27,-341.57 859,-374.02 956.58,-392.91 1072.49,-387.48 1142.72,-381.22"/>
<polygon fill="#63b8ff" stroke="#63b8ff" points="437.05,-166.82 428.14,-161.07 431.52,-171.11 437.05,-166.82"/>
</a>
</g>
</g>
<!-- Node5&#45;&gt;Node3 -->
<g id="edge4_Node000003_Node000005" class="edge">
<title>Node5&#45;&gt;Node3</title>
<g id="a_edge4_Node000003_Node000005"><a xlink:title=" ">
<path fill="none" stroke="#9a32cd" stroke-dasharray="5,2" d="M1679.3,-340.99C1666.83,-364.69 1643.04,-403.9 1612,-427.02 1577.62,-452.64 1562.37,-447.79 1521,-459.02 1347.97,-506 1302.77,-512.67 1125,-536.02 1076.55,-542.39 1021.16,-545.97 980.65,-547.91"/>
<polygon fill="#9a32cd" stroke="#9a32cd" points="1682.41,-342.59 1683.81,-332.09 1676.17,-339.43 1682.41,-342.59"/>
</a>
</g>
<text text-anchor="middle" x="1316" y="-515.02" font-family="Helvetica,sans-Serif" font-size="10.00" fill="grey"> statement_</text>
</g>
<!-- Node6&#45;&gt;Node5 -->
<g id="edge6_Node000005_Node000006" class="edge">
<title>Node6&#45;&gt;Node5</title>
<g id="a_edge6_Node000005_Node000006"><a xlink:title=" ">
<path fill="none" stroke="#9a32cd" stroke-dasharray="5,2" d="M1513.08,-215.42C1544.72,-222.82 1581.56,-234.15 1612,-251.02 1640.92,-267.05 1667.84,-295.94 1680.84,-311.1"/>
<polygon fill="#9a32cd" stroke="#9a32cd" points="1514.13,-212.07 1503.61,-213.3 1512.6,-218.9 1514.13,-212.07"/>
</a>
</g>
<text text-anchor="middle" x="1575.5" y="-254.02" font-family="Helvetica,sans-Serif" font-size="10.00" fill="grey"> serviceContext_</text>
</g>
<!-- Node7&#45;&gt;Node6 -->
<g id="edge8_Node000006_Node000007" class="edge">
<title>Node7&#45;&gt;Node6</title>
<g id="a_edge8_Node000006_Node000007"><a xlink:title=" ">
<path fill="none" stroke="#9a32cd" stroke-dasharray="5,2" d="M738.18,-274.5C842.11,-307.88 1131.27,-385.11 1342,-291.02 1382.39,-272.99 1417.56,-231.75 1432.22,-212.84"/>
<polygon fill="#9a32cd" stroke="#9a32cd" points="739.31,-271.19 728.72,-271.42 737.14,-277.85 739.31,-271.19"/>
</a>
</g>
<text text-anchor="middle" x="1064" y="-340.02" font-family="Helvetica,sans-Serif" font-size="10.00" fill="grey"> environment_</text>
</g>
<!-- Node7&#45;&gt;Node11 -->
<g id="edge15_Node000011_Node000007" class="edge">
<title>Node7&#45;&gt;Node11</title>
<g id="a_edge15_Node000011_Node000007"><a xlink:title=" ">
<path fill="none" stroke="#9a32cd" stroke-dasharray="5,2" d="M746.81,-248.59C757.65,-246.27 769.16,-244.21 780,-243.02 805.68,-240.21 834.14,-240.22 858.73,-241.21"/>
<polygon fill="#9a32cd" stroke="#9a32cd" points="746.28,-245.12 737.29,-250.73 747.81,-251.95 746.28,-245.12"/>
</a>
</g>
<text text-anchor="middle" x="810.5" y="-246.02" font-family="Helvetica,sans-Serif" font-size="10.00" fill="grey"> environment_</text>
</g>
<!-- Node7&#45;&gt;Node12 -->
<g id="edge18_Node000012_Node000007" class="edge">
<title>Node7&#45;&gt;Node12</title>
<g id="a_edge18_Node000012_Node000007"><a xlink:title=" ">
<path fill="none" stroke="#9a32cd" stroke-dasharray="5,2" d="M719.29,-244.22C748.3,-221.17 804.2,-180.3 859,-160.02 960.08,-122.62 1087.23,-112.56 1156.27,-109.91"/>
<polygon fill="#9a32cd" stroke="#9a32cd" points="717.28,-241.34 711.7,-250.35 721.68,-246.79 717.28,-241.34"/>
</a>
</g>
<text text-anchor="middle" x="922" y="-163.02" font-family="Helvetica,sans-Serif" font-size="10.00" fill="grey"> environment_</text>
</g>
<!-- Node7&#45;&gt;Node13 -->
<g id="edge22_Node000013_Node000007" class="edge">
<title>Node7&#45;&gt;Node13</title>
<g id="a_edge22_Node000013_Node000007"><a xlink:title=" ">
<path fill="none" stroke="#9a32cd" stroke-dasharray="5,2" d="M742.94,-247.94C821.7,-224.48 979.28,-177.44 985,-175.02 993.43,-171.46 994.14,-167.32 1003,-165.02 1056.6,-151.13 1120.72,-158.34 1162.46,-166.04"/>
<polygon fill="#9a32cd" stroke="#9a32cd" points="742.41,-244.45 733.83,-250.66 744.41,-251.16 742.41,-244.45"/>
</a>
</g>
<text text-anchor="middle" x="922" y="-216.02" font-family="Helvetica,sans-Serif" font-size="10.00" fill="grey"> environment_</text>
</g>
<!-- Node7&#45;&gt;Node14 -->
<g id="edge28_Node000014_Node000007" class="edge">
<title>Node7&#45;&gt;Node14</title>
<g id="a_edge28_Node000014_Node000007"><a xlink:title=" ">
<path fill="none" stroke="#9a32cd" stroke-dasharray="5,2" d="M715.79,-278.64C731.04,-293.44 754.92,-313.75 780,-324.02 844.16,-350.31 1040.23,-364.8 1142.66,-370.75"/>
<polygon fill="#9a32cd" stroke="#9a32cd" points="718.48,-276.38 708.94,-271.76 713.52,-281.32 718.48,-276.38"/>
</a>
</g>
<text text-anchor="middle" x="922" y="-362.02" font-family="Helvetica,sans-Serif" font-size="10.00" fill="grey"> environment_</text>
</g>
<!-- Node8 -->
<g id="Node000008" class="node">
<title>Node8</title>
<g id="a_Node000008"><a xlink:title=" ">
<polygon fill="white" stroke="#666666" points="483,-433.02 355,-433.02 355,-403.02 483,-403.02 483,-433.02"/>
<text text-anchor="start" x="363" y="-421.02" font-family="Helvetica,sans-Serif" font-size="10.00">std::atomic&lt; Environment</text>
<text text-anchor="middle" x="419" y="-410.02" font-family="Helvetica,sans-Serif" font-size="10.00">Mode &gt;</text>
</a>
</g>
</g>
<!-- Node8&#45;&gt;Node7 -->
<g id="edge10_Node000007_Node000008" class="edge">
<title>Node8&#45;&gt;Node7</title>
<g id="a_edge10_Node000007_Node000008"><a xlink:title=" ">
<path fill="none" stroke="#9a32cd" stroke-dasharray="5,2" d="M457.23,-396.92C517.81,-362.59 635.38,-295.95 679.61,-270.88"/>
<polygon fill="#9a32cd" stroke="#9a32cd" points="455.61,-393.82 448.63,-401.79 459.06,-399.91 455.61,-393.82"/>
</a>
</g>
<text text-anchor="middle" x="558.5" y="-375.02" font-family="Helvetica,sans-Serif" font-size="10.00" fill="grey"> defaultEnvironmentMode_</text>
</g>
<!-- Node9 -->
<g id="Node000009" class="node">
<title>Node9</title>
<g id="a_Node000009"><a xlink:title=" ">
<polygon fill="white" stroke="#666666" points="200.5,-441.52 111.5,-441.52 111.5,-422.52 200.5,-422.52 200.5,-441.52"/>
<text text-anchor="middle" x="156" y="-429.52" font-family="Helvetica,sans-Serif" font-size="10.00">std::atomic&lt; T &gt;</text>
</a>
</g>
</g>
<!-- Node9&#45;&gt;Node8 -->
<g id="edge11_Node000008_Node000009" class="edge">
<title>Node9&#45;&gt;Node8</title>
<g id="a_edge11_Node000008_Node000009"><a xlink:title=" ">
<path fill="none" stroke="orange" stroke-dasharray="5,2" d="M212.3,-429.06C253.99,-426.82 311.23,-423.75 354.74,-421.42"/>
<polygon fill="orange" stroke="orange" points="212.29,-425.55 202.49,-429.58 212.66,-432.54 212.29,-425.55"/>
</a>
</g>
<text text-anchor="middle" x="285" y="-431.02" font-family="Helvetica,sans-Serif" font-size="10.00" fill="grey"> &lt; EnvironmentMode &gt;</text>
</g>
<!-- Node10 -->
<g id="Node000010" class="node">
<title>Node10</title>
<g id="a_Node000010"><a xlink:title=" ">
<polygon fill="white" stroke="#666666" points="29,-503.52 0,-503.52 0,-484.52 29,-484.52 29,-503.52"/>
<text text-anchor="middle" x="14.5" y="-491.52" font-family="Helvetica,sans-Serif" font-size="10.00">T</text>
</a>
</g>
</g>
<!-- Node10&#45;&gt;Node9 -->
<g id="edge12_Node000009_Node000010" class="edge">
<title>Node10&#45;&gt;Node9</title>
<g id="a_edge12_Node000009_Node000010"><a xlink:title=" ">
<path fill="none" stroke="#9a32cd" stroke-dasharray="5,2" d="M22.37,-474.05C27.37,-462.7 35.32,-449.33 47,-442.02 65.83,-430.24 90.25,-427.19 111.1,-427.33"/>
<polygon fill="#9a32cd" stroke="#9a32cd" points="19.24,-472.44 18.88,-483.03 25.77,-474.97 19.24,-472.44"/>
</a>
</g>
<text text-anchor="middle" x="63" y="-445.02" font-family="Helvetica,sans-Serif" font-size="10.00" fill="grey"> ptr</text>
</g>
<!-- Node17 -->
<g id="Node000017" class="node">
<title>Node17</title>
<g id="a_Node000017"><a xlink:title=" ">
<polygon fill="white" stroke="#666666" points="337,-484.52 233,-484.52 233,-465.52 337,-465.52 337,-484.52"/>
<text text-anchor="middle" x="285" y="-472.52" font-family="Helvetica,sans-Serif" font-size="10.00">std::unique_ptr&lt; T &gt;</text>
</a>
</g>
</g>
<!-- Node10&#45;&gt;Node17 -->
<g id="edge34_Node000017_Node000010" class="edge">
<title>Node10&#45;&gt;Node17</title>
<g id="a_edge34_Node000017_Node000010"><a xlink:title=" ">
<path fill="none" stroke="#9a32cd" stroke-dasharray="5,2" d="M40.54,-488.94C42.72,-488.59 44.89,-488.28 47,-488.02 110.61,-480.26 184.38,-477.13 232.51,-475.87"/>
<polygon fill="#9a32cd" stroke="#9a32cd" points="39.94,-485.49 30.73,-490.72 41.19,-492.38 39.94,-485.49"/>
</a>
</g>
<text text-anchor="middle" x="63" y="-491.02" font-family="Helvetica,sans-Serif" font-size="10.00" fill="grey"> ptr</text>
</g>
<!-- Node18 -->
<g id="Node000018" class="node">
<title>Node18</title>
<g id="a_Node000018"><a xlink:title=" ">
<polygon fill="white" stroke="#666666" points="740.5,-523.52 655.5,-523.52 655.5,-504.52 740.5,-504.52 740.5,-523.52"/>
<text text-anchor="middle" x="698" y="-511.52" font-family="Helvetica,sans-Serif" font-size="10.00">std::vector&lt; T &gt;</text>
</a>
</g>
</g>
<!-- Node10&#45;&gt;Node18 -->
<g id="edge36_Node000018_Node000010" class="edge">
<title>Node10&#45;&gt;Node18</title>
<g id="a_edge36_Node000018_Node000010"><a xlink:title=" ">
<path fill="none" stroke="#9a32cd" stroke-dasharray="5,2" d="M40.55,-498.31C42.73,-498.59 44.9,-498.83 47,-499.02 275.77,-519.73 551.57,-516.99 655.07,-515"/>
<polygon fill="#9a32cd" stroke="#9a32cd" points="41.16,-494.86 30.75,-496.84 40.12,-501.79 41.16,-494.86"/>
</a>
</g>
<text text-anchor="middle" x="285" y="-517.02" font-family="Helvetica,sans-Serif" font-size="10.00" fill="grey"> elements</text>
</g>
<!-- Node20 -->
<g id="Node000020" class="node">
<title>Node20</title>
<g id="a_Node000020"><a xlink:href="struct_harlinn_1_1_common_1_1_core_1_1_internal_1_1_data.xhtml" target="_top" xlink:title=" ">
<polygon fill="white" stroke="#666666" points="215,-571.02 97,-571.02 97,-541.02 215,-541.02 215,-571.02"/>
<text text-anchor="start" x="105" y="-559.02" font-family="Helvetica,sans-Serif" font-size="10.00">Harlinn::Common::Core</text>
<text text-anchor="middle" x="156" y="-548.02" font-family="Helvetica,sans-Serif" font-size="10.00">::Internal::Data&lt; T &gt;</text>
</a>
</g>
</g>
<!-- Node10&#45;&gt;Node20 -->
<g id="edge39_Node000020_Node000010" class="edge">
<title>Node10&#45;&gt;Node20</title>
<g id="a_edge39_Node000020_Node000010"><a xlink:title=" ">
<path fill="none" stroke="#9a32cd" stroke-dasharray="5,2" d="M29.76,-512.46C34.71,-517.82 40.63,-523.24 47,-527.02 62.03,-535.94 79.84,-542.17 96.61,-546.5"/>
<polygon fill="#9a32cd" stroke="#9a32cd" points="32.55,-510.33 23.42,-504.95 27.2,-514.85 32.55,-510.33"/>
</a>
</g>
<text text-anchor="middle" x="63" y="-543.02" font-family="Helvetica,sans-Serif" font-size="10.00" fill="grey"> buffer_</text>
</g>
<!-- Node11&#45;&gt;Node5 -->
<g id="edge25_Node000005_Node000011" class="edge">
<title>Node11&#45;&gt;Node5</title>
<g id="a_edge25_Node000005_Node000011"><a xlink:title=" ">
<path fill="none" stroke="#9a32cd" stroke-dasharray="5,2" d="M996.8,-253.25C1148.22,-268.08 1491.38,-301.68 1629.63,-315.21"/>
<polygon fill="#9a32cd" stroke="#9a32cd" points="997.16,-249.77 986.87,-252.28 996.48,-256.74 997.16,-249.77"/>
</a>
</g>
<text text-anchor="middle" x="1316" y="-290.02" font-family="Helvetica,sans-Serif" font-size="10.00" fill="grey"> error_</text>
</g>
<!-- Node11&#45;&gt;Node6 -->
<g id="edge24_Node000006_Node000011" class="edge">
<title>Node11&#45;&gt;Node6</title>
<g id="a_edge24_Node000006_Node000011"><a xlink:title=" ">
<path fill="none" stroke="#9a32cd" stroke-dasharray="5,2" d="M996.41,-240.33C1034.73,-237.32 1082.4,-233.54 1125,-230.02 1209.38,-223.06 1306.46,-214.67 1370.18,-209.11"/>
<polygon fill="#9a32cd" stroke="#9a32cd" points="996.55,-236.81 986.85,-241.08 997.09,-243.78 996.55,-236.81"/>
</a>
</g>
<text text-anchor="middle" x="1207.5" y="-232.02" font-family="Helvetica,sans-Serif" font-size="10.00" fill="grey"> error_</text>
</g>
<!-- Node11&#45;&gt;Node7 -->
<g id="edge13_Node000007_Node000011" class="edge">
<title>Node11&#45;&gt;Node7</title>
<g id="a_edge13_Node000007_Node000011"><a xlink:title=" ">
<path fill="none" stroke="#9a32cd" stroke-dasharray="5,2" d="M847.24,-255.49C845.14,-255.68 843.06,-255.86 841,-256.02 815.3,-258.08 786.92,-259.29 762.33,-260"/>
<polygon fill="#9a32cd" stroke="#9a32cd" points="847.49,-258.98 857.1,-254.52 846.8,-252.02 847.49,-258.98"/>
</a>
</g>
<text text-anchor="middle" x="810.5" y="-263.02" font-family="Helvetica,sans-Serif" font-size="10.00" fill="grey"> error_</text>
</g>
<!-- Node11&#45;&gt;Node12 -->
<g id="edge19_Node000012_Node000011" class="edge">
<title>Node11&#45;&gt;Node12</title>
<g id="a_edge19_Node000012_Node000011"><a xlink:title=" ">
<path fill="none" stroke="#9a32cd" stroke-dasharray="5,2" d="M972.36,-231.15C976.94,-228.56 981.25,-225.54 985,-222.02 998.92,-208.96 988.95,-195.95 1003,-183.02 1045.75,-143.71 1111.02,-124.89 1156.06,-116.16"/>
<polygon fill="#9a32cd" stroke="#9a32cd" points="970.87,-227.98 963.41,-235.49 973.93,-234.28 970.87,-227.98"/>
</a>
</g>
<text text-anchor="middle" x="1064" y="-186.02" font-family="Helvetica,sans-Serif" font-size="10.00" fill="grey"> error_</text>
</g>
<!-- Node11&#45;&gt;Node13 -->
<g id="edge23_Node000013_Node000011" class="edge">
<title>Node11&#45;&gt;Node13</title>
<g id="a_edge23_Node000013_Node000011"><a xlink:title=" ">
<path fill="none" stroke="#9a32cd" stroke-dasharray="5,2" d="M960.12,-232.3C973.51,-227.67 988.82,-222.73 1003,-219.02 1056.38,-205.06 1071.08,-207.71 1125,-196.02 1138.95,-193 1154.17,-189.36 1167.63,-186.02"/>
<polygon fill="#9a32cd" stroke="#9a32cd" points="959.08,-228.95 950.81,-235.58 961.41,-235.56 959.08,-228.95"/>
</a>
</g>
<text text-anchor="middle" x="1064" y="-222.02" font-family="Helvetica,sans-Serif" font-size="10.00" fill="grey"> error_</text>
</g>
<!-- Node11&#45;&gt;Node14 -->
<g id="edge29_Node000014_Node000011" class="edge">
<title>Node11&#45;&gt;Node14</title>
<g id="a_edge29_Node000014_Node000011"><a xlink:title=" ">
<path fill="none" stroke="#9a32cd" stroke-dasharray="5,2" d="M953.01,-260.6C967.79,-267.3 986.03,-274.88 1003,-280.02 1055.81,-296.02 1075.35,-278.95 1125,-303.02 1156.41,-318.25 1185.2,-348.83 1198.6,-364.42"/>
<polygon fill="#9a32cd" stroke="#9a32cd" points="954.86,-257.6 944.31,-256.56 951.91,-263.95 954.86,-257.6"/>
</a>
</g>
<text text-anchor="middle" x="1064" y="-306.02" font-family="Helvetica,sans-Serif" font-size="10.00" fill="grey"> error_</text>
</g>
<!-- Node12&#45;&gt;Node6 -->
<g id="edge16_Node000006_Node000012" class="edge">
<title>Node12&#45;&gt;Node6</title>
<g id="a_edge16_Node000006_Node000012"><a xlink:title=" ">
<path fill="none" stroke="#9a32cd" stroke-dasharray="5,2" d="M1243.44,-123.24C1290.78,-142.51 1374.11,-176.41 1415.19,-193.13"/>
<polygon fill="#9a32cd" stroke="#9a32cd" points="1244.77,-120 1234.19,-119.48 1242.13,-126.49 1244.77,-120"/>
</a>
</g>
<text text-anchor="middle" x="1316" y="-165.02" font-family="Helvetica,sans-Serif" font-size="10.00" fill="grey"> server_</text>
</g>
<!-- Node13&#45;&gt;Node6 -->
<g id="edge20_Node000006_Node000013" class="edge">
<title>Node13&#45;&gt;Node6</title>
<g id="a_edge20_Node000006_Node000013"><a xlink:title=" ">
<path fill="none" stroke="#9a32cd" stroke-dasharray="5,2" d="M1274.15,-183.7C1304.12,-187.2 1339.64,-191.35 1370.07,-194.91"/>
<polygon fill="#9a32cd" stroke="#9a32cd" points="1274.79,-180.25 1264.45,-182.56 1273.98,-187.2 1274.79,-180.25"/>
</a>
</g>
<text text-anchor="middle" x="1316" y="-195.02" font-family="Helvetica,sans-Serif" font-size="10.00" fill="grey"> session_</text>
</g>
<!-- Node14&#45;&gt;Node5 -->
<g id="edge26_Node000005_Node000014" class="edge">
<title>Node14&#45;&gt;Node5</title>
<g id="a_edge26_Node000005_Node000014"><a xlink:title=" ">
<path fill="none" stroke="#9a32cd" stroke-dasharray="5,2" d="M1283.63,-365.74C1379.27,-355.19 1542.54,-337.18 1629.84,-327.55"/>
<polygon fill="#9a32cd" stroke="#9a32cd" points="1283.37,-362.25 1273.81,-366.82 1284.13,-369.2 1283.37,-362.25"/>
</a>
</g>
<text text-anchor="middle" x="1440.5" y="-361.02" font-family="Helvetica,sans-Serif" font-size="10.00" fill="grey"> changeNotification_</text>
</g>
<!-- Node15 -->
<g id="Node000015" class="node">
<title>Node15</title>
<g id="a_Node000015"><a xlink:title=" ">
<polygon fill="white" stroke="#666666" points="1521,-450.02 1360,-450.02 1360,-420.02 1521,-420.02 1521,-450.02"/>
<text text-anchor="start" x="1368" y="-438.02" font-family="Helvetica,sans-Serif" font-size="10.00">std::vector&lt; std::unique</text>
<text text-anchor="middle" x="1440.5" y="-427.02" font-family="Helvetica,sans-Serif" font-size="10.00">_ptr&lt; Harlinn::OCI::BindBase &gt; &gt;</text>
</a>
</g>
</g>
<!-- Node15&#45;&gt;Node5 -->
<g id="edge30_Node000005_Node000015" class="edge">
<title>Node15&#45;&gt;Node5</title>
<g id="a_edge30_Node000005_Node000015"><a xlink:title=" ">
<path fill="none" stroke="#9a32cd" stroke-dasharray="5,2" d="M1522.42,-416.47C1551.59,-408.09 1584.17,-396.72 1612,-382.02 1638.85,-367.85 1665.59,-343.9 1679.39,-330.62"/>
<polygon fill="#9a32cd" stroke="#9a32cd" points="1521.57,-413.07 1512.88,-419.13 1523.45,-419.81 1521.57,-413.07"/>
</a>
</g>
<text text-anchor="middle" x="1575.5" y="-415.02" font-family="Helvetica,sans-Serif" font-size="10.00" fill="grey"> binds_</text>
</g>
<!-- Node16&#45;&gt;Node15 -->
<g id="edge31_Node000015_Node000016" class="edge">
<title>Node16&#45;&gt;Node15</title>
<g id="a_edge31_Node000015_Node000016"><a xlink:title=" ">
<path fill="none" stroke="#9a32cd" stroke-dasharray="5,2" d="M1279.4,-435.02C1304.82,-435.02 1333.63,-435.02 1359.75,-435.02"/>
<polygon fill="#9a32cd" stroke="#9a32cd" points="1279.5,-431.52 1269.5,-435.02 1279.5,-438.52 1279.5,-431.52"/>
</a>
</g>
<text text-anchor="middle" x="1316" y="-438.02" font-family="Helvetica,sans-Serif" font-size="10.00" fill="grey"> elements</text>
</g>
<!-- Node17&#45;&gt;Node16 -->
<g id="edge33_Node000016_Node000017" class="edge">
<title>Node17&#45;&gt;Node16</title>
<g id="a_edge33_Node000016_Node000017"><a xlink:title=" ">
<path fill="none" stroke="orange" stroke-dasharray="5,2" d="M348.9,-472.29C518.25,-464.93 982.12,-444.77 1147.21,-437.6"/>
<polygon fill="orange" stroke="orange" points="348.81,-468.79 338.97,-472.72 349.12,-475.78 348.81,-468.79"/>
</a>
</g>
<text text-anchor="middle" x="698" y="-462.02" font-family="Helvetica,sans-Serif" font-size="10.00" fill="grey"> &lt; Harlinn::OCI::BindBase &gt;</text>
</g>
<!-- Node18&#45;&gt;Node15 -->
<g id="edge35_Node000015_Node000018" class="edge">
<title>Node18&#45;&gt;Node15</title>
<g id="a_edge35_Node000015_Node000018"><a xlink:title=" ">
<path fill="none" stroke="orange" stroke-dasharray="5,2" d="M751.88,-506.42C812.45,-497.94 914.7,-484.33 1003,-476.02 1122.27,-464.81 1152.75,-470.45 1272,-459.02 1300.66,-456.28 1331.92,-452.12 1359.6,-448.03"/>
<polygon fill="orange" stroke="orange" points="751.62,-502.92 742.21,-507.78 752.6,-509.85 751.62,-502.92"/>
</a>
</g>
<text text-anchor="start" x="1003" y="-490.02" font-family="Helvetica,sans-Serif" font-size="10.00" fill="grey"> &lt; std::unique_ptr&lt;</text>
<text text-anchor="middle" x="1064" y="-479.02" font-family="Helvetica,sans-Serif" font-size="10.00" fill="grey"> Harlinn::OCI::BindBase &gt; &gt;</text>
</g>
<!-- Node22 -->
<g id="Node000022" class="node">
<title>Node22</title>
<g id="a_Node000022"><a xlink:title=" ">
<polygon fill="white" stroke="#666666" points="972.5,-606.52 871.5,-606.52 871.5,-587.52 972.5,-587.52 972.5,-606.52"/>
<text text-anchor="middle" x="922" y="-594.52" font-family="Helvetica,sans-Serif" font-size="10.00">std::vector&lt; Int16 &gt;</text>
</a>
</g>
</g>
<!-- Node18&#45;&gt;Node22 -->
<g id="edge43_Node000022_Node000018" class="edge">
<title>Node18&#45;&gt;Node22</title>
<g id="a_edge43_Node000022_Node000018"><a xlink:title=" ">
<path fill="none" stroke="orange" stroke-dasharray="5,2" d="M752.22,-511.88C780.81,-513.23 815.35,-519.12 841,-537.02 854.38,-546.37 846.96,-558.01 859,-569.02 867.54,-576.84 878.62,-582.78 889.06,-587.12"/>
<polygon fill="orange" stroke="orange" points="752.39,-508.39 742.29,-511.61 752.19,-515.38 752.39,-508.39"/>
</a>
</g>
<text text-anchor="middle" x="810.5" y="-540.02" font-family="Helvetica,sans-Serif" font-size="10.00" fill="grey"> &lt; Int16 &gt;</text>
</g>
<!-- Node19 -->
<g id="Node000019" class="node">
<title>Node19</title>
<g id="a_Node000019"><a xlink:href="class_harlinn_1_1_common_1_1_core_1_1_basic_string.xhtml" target="_top" xlink:title=" ">
<polygon fill="white" stroke="#666666" points="760.5,-572.02 635.5,-572.02 635.5,-542.02 760.5,-542.02 760.5,-572.02"/>
<text text-anchor="start" x="643.5" y="-560.02" font-family="Helvetica,sans-Serif" font-size="10.00">Harlinn::Common::Core</text>
<text text-anchor="middle" x="698" y="-549.02" font-family="Helvetica,sans-Serif" font-size="10.00">::BasicString&lt; wchar_t &gt;</text>
</a>
</g>
</g>
<!-- Node19&#45;&gt;Node3 -->
<g id="edge37_Node000003_Node000019" class="edge">
<title>Node19&#45;&gt;Node3</title>
<g id="a_edge37_Node000003_Node000019"><a xlink:title=" ">
<path fill="none" stroke="#9a32cd" stroke-dasharray="5,2" d="M771.98,-554.72C801.64,-553.79 835.41,-552.72 863.3,-551.84"/>
<polygon fill="#9a32cd" stroke="#9a32cd" points="772.24,-551.21 762.35,-555.03 772.46,-558.21 772.24,-551.21"/>
</a>
</g>
<text text-anchor="middle" x="810.5" y="-557.02" font-family="Helvetica,sans-Serif" font-size="10.00" fill="grey"> name_</text>
</g>
<!-- Node20&#45;&gt;Node19 -->
<g id="edge38_Node000019_Node000020" class="edge">
<title>Node20&#45;&gt;Node19</title>
<g id="a_edge38_Node000019_Node000020"><a xlink:title=" ">
<path fill="none" stroke="#9a32cd" stroke-dasharray="5,2" d="M226.75,-570.13C228.85,-570.45 230.94,-570.75 233,-571.02 401.69,-593.81 446.99,-591.29 616,-571.02 622.23,-570.28 628.72,-569.37 635.18,-568.39"/>
<polygon fill="#9a32cd" stroke="#9a32cd" points="227.31,-566.68 216.88,-568.53 226.19,-573.59 227.31,-566.68"/>
</a>
</g>
<text text-anchor="middle" x="419" y="-590.02" font-family="Helvetica,sans-Serif" font-size="10.00" fill="grey"> data_</text>
</g>
<!-- Node21 -->
<g id="Node000021" class="node">
<title>Node21</title>
<g id="a_Node000021"><a xlink:href="class_harlinn_1_1_common_1_1_core_1_1_basic_string.xhtml" target="_top" xlink:title="This is a reference counted string class.">
<polygon fill="white" stroke="#666666" points="478,-571.02 360,-571.02 360,-541.02 478,-541.02 478,-571.02"/>
<text text-anchor="start" x="368" y="-559.02" font-family="Helvetica,sans-Serif" font-size="10.00">Harlinn::Common::Core</text>
<text text-anchor="middle" x="419" y="-548.02" font-family="Helvetica,sans-Serif" font-size="10.00">::BasicString&lt; T &gt;</text>
</a>
</g>
</g>
<!-- Node20&#45;&gt;Node21 -->
<g id="edge41_Node000021_Node000020" class="edge">
<title>Node20&#45;&gt;Node21</title>
<g id="a_edge41_Node000021_Node000020"><a xlink:title=" ">
<path fill="none" stroke="#9a32cd" stroke-dasharray="5,2" d="M226.69,-556.02C268.31,-556.02 320.55,-556.02 359.93,-556.02"/>
<polygon fill="#9a32cd" stroke="#9a32cd" points="226.76,-552.52 216.76,-556.02 226.76,-559.52 226.76,-552.52"/>
</a>
</g>
<text text-anchor="middle" x="285" y="-559.02" font-family="Helvetica,sans-Serif" font-size="10.00" fill="grey"> data_</text>
</g>
<!-- Node21&#45;&gt;Node19 -->
<g id="edge40_Node000019_Node000021" class="edge">
<title>Node21&#45;&gt;Node19</title>
<g id="a_edge40_Node000019_Node000021"><a xlink:title=" ">
<path fill="none" stroke="orange" stroke-dasharray="5,2" d="M489.79,-556.28C534.58,-556.44 592.2,-556.65 635.31,-556.8"/>
<polygon fill="orange" stroke="orange" points="489.93,-552.78 479.92,-556.24 489.91,-559.78 489.93,-552.78"/>
</a>
</g>
<text text-anchor="middle" x="558.5" y="-559.02" font-family="Helvetica,sans-Serif" font-size="10.00" fill="grey"> &lt; wchar_t &gt;</text>
</g>
<!-- Node22&#45;&gt;Node2 -->
<g id="edge42_Node000002_Node000022" class="edge">
<title>Node22&#45;&gt;Node2</title>
<g id="a_edge42_Node000002_Node000022"><a xlink:title=" ">
<path fill="none" stroke="#9a32cd" stroke-dasharray="5,2" d="M984,-597.67C1032.57,-598.18 1100.13,-598.9 1148.02,-599.41"/>
<polygon fill="#9a32cd" stroke="#9a32cd" points="984.26,-594.17 974.22,-597.57 984.18,-601.17 984.26,-594.17"/>
</a>
</g>
<text text-anchor="middle" x="1064" y="-602.02" font-family="Helvetica,sans-Serif" font-size="10.00" fill="grey"> indicator_</text>
</g>
</g>
</svg>
