<?xml version="1.0" encoding="UTF-8" standalone="no"?>
<!DOCTYPE svg PUBLIC "-//W3C//DTD SVG 1.1//EN"
 "http://www.w3.org/Graphics/SVG/1.1/DTD/svg11.dtd">
<!-- Generated by graphviz version 7.0.1 (20221109.1506)
 -->
<!-- Title: Harlinn::Windows::BrushSelection Pages: 1 -->
<svg width="980pt" height="108pt"
 viewBox="0.00 0.00 980.00 108.00" xmlns="http://www.w3.org/2000/svg" xmlns:xlink="http://www.w3.org/1999/xlink">
<g id="graph0" class="graph" transform="scale(1 1) rotate(0) translate(4 104)">
<title>Harlinn::Windows::BrushSelection</title>
<!-- Node1 -->
<g id="Node000001" class="node">
<title>Node1</title>
<g id="a_Node000001"><a xlink:title=" ">
<polygon fill="#999999" stroke="#666666" points="972,-64 808,-64 808,-45 972,-45 972,-64"/>
<text text-anchor="middle" x="890" y="-52" font-family="Helvetica,sans-Serif" font-size="10.00">Harlinn::Windows::BrushSelection</text>
</a>
</g>
</g>
<!-- Node2 -->
<g id="Node000002" class="node">
<title>Node2</title>
<g id="a_Node000002"><a xlink:href="class_harlinn_1_1_windows_1_1_device_context_handle.xhtml" target="_top" xlink:title=" ">
<polygon fill="white" stroke="#666666" points="643.5,-92.5 516.5,-92.5 516.5,-62.5 643.5,-62.5 643.5,-92.5"/>
<text text-anchor="start" x="524.5" y="-80.5" font-family="Helvetica,sans-Serif" font-size="10.00">Harlinn::Windows::Device</text>
<text text-anchor="middle" x="580" y="-69.5" font-family="Helvetica,sans-Serif" font-size="10.00">ContextHandle</text>
</a>
</g>
</g>
<!-- Node2&#45;&gt;Node1 -->
<g id="edge1_Node000001_Node000002" class="edge">
<title>Node2&#45;&gt;Node1</title>
<g id="a_edge1_Node000001_Node000002"><a xlink:title=" ">
<path fill="none" stroke="#9a32cd" stroke-dasharray="5,2" d="M655.1,-71.97C701.13,-68.53 760.33,-64.11 807.66,-60.57"/>
<polygon fill="#9a32cd" stroke="#9a32cd" points="654.92,-68.47 645.21,-72.71 655.44,-75.45 654.92,-68.47"/>
</a>
</g>
<text text-anchor="middle" x="732.5" y="-72.5" font-family="Helvetica,sans-Serif" font-size="10.00" fill="grey"> deviceContext_</text>
</g>
<!-- Node3 -->
<g id="Node000003" class="node">
<title>Node3</title>
<g id="a_Node000003"><a xlink:href="class_harlinn_1_1_common_1_1_core_1_1_handle.xhtml" target="_top" xlink:title=" ">
<polygon fill="white" stroke="#666666" points="466,-100 309,-100 309,-59 466,-59 466,-100"/>
<text text-anchor="start" x="317" y="-88" font-family="Helvetica,sans-Serif" font-size="10.00">Harlinn::Common::Core</text>
<text text-anchor="start" x="317" y="-77" font-family="Helvetica,sans-Serif" font-size="10.00">::Handle&lt; DeviceContextHandle,</text>
<text text-anchor="middle" x="387.5" y="-66" font-family="Helvetica,sans-Serif" font-size="10.00"> HDC &gt;</text>
</a>
</g>
</g>
<!-- Node3&#45;&gt;Node2 -->
<g id="edge2_Node000002_Node000003" class="edge">
<title>Node3&#45;&gt;Node2</title>
<g id="a_edge2_Node000002_Node000003"><a xlink:title=" ">
<path fill="none" stroke="#63b8ff" d="M477.6,-78.56C490.59,-78.43 503.73,-78.29 516.05,-78.16"/>
<polygon fill="#63b8ff" stroke="#63b8ff" points="477.73,-75.06 467.77,-78.67 477.81,-82.06 477.73,-75.06"/>
</a>
</g>
</g>
<!-- Node4 -->
<g id="Node000004" class="node">
<title>Node4</title>
<g id="a_Node000004"><a xlink:href="class_harlinn_1_1_common_1_1_core_1_1_handle.xhtml" target="_top" xlink:title=" ">
<polygon fill="white" stroke="#666666" points="149,-64.5 0,-64.5 0,-34.5 149,-34.5 149,-64.5"/>
<text text-anchor="start" x="8" y="-52.5" font-family="Helvetica,sans-Serif" font-size="10.00">Harlinn::Common::Core</text>
<text text-anchor="middle" x="74.5" y="-41.5" font-family="Helvetica,sans-Serif" font-size="10.00">::Handle&lt; DerivedT, HandleT &gt;</text>
</a>
</g>
</g>
<!-- Node4&#45;&gt;Node3 -->
<g id="edge3_Node000003_Node000004" class="edge">
<title>Node4&#45;&gt;Node3</title>
<g id="a_edge3_Node000003_Node000004"><a xlink:title=" ">
<path fill="none" stroke="orange" stroke-dasharray="5,2" d="M160.42,-57.69C206.71,-62.16 263.59,-67.64 308.71,-72"/>
<polygon fill="orange" stroke="orange" points="161,-54.23 150.71,-56.75 160.33,-61.2 161,-54.23"/>
</a>
</g>
<text text-anchor="start" x="175" y="-83.5" font-family="Helvetica,sans-Serif" font-size="10.00" fill="grey"> &lt; DeviceContextHandle,</text>
<text text-anchor="middle" x="229" y="-72.5" font-family="Helvetica,sans-Serif" font-size="10.00" fill="grey"> HDC &gt;</text>
</g>
<!-- Node6 -->
<g id="Node000006" class="node">
<title>Node6</title>
<g id="a_Node000006"><a xlink:href="class_harlinn_1_1_common_1_1_core_1_1_handle.xhtml" target="_top" xlink:title=" ">
<polygon fill="white" stroke="#666666" points="447.5,-41 327.5,-41 327.5,0 447.5,0 447.5,-41"/>
<text text-anchor="start" x="335.5" y="-29" font-family="Helvetica,sans-Serif" font-size="10.00">Harlinn::Common::Core</text>
<text text-anchor="start" x="335.5" y="-18" font-family="Helvetica,sans-Serif" font-size="10.00">::Handle&lt; BrushHandle,</text>
<text text-anchor="middle" x="387.5" y="-7" font-family="Helvetica,sans-Serif" font-size="10.00"> HBRUSH &gt;</text>
</a>
</g>
</g>
<!-- Node4&#45;&gt;Node6 -->
<g id="edge6_Node000006_Node000004" class="edge">
<title>Node4&#45;&gt;Node6</title>
<g id="a_edge6_Node000006_Node000004"><a xlink:title=" ">
<path fill="none" stroke="orange" stroke-dasharray="5,2" d="M160.76,-40.12C162.86,-39.91 164.94,-39.7 167,-39.5 221.25,-34.19 283.11,-28.9 327.31,-25.26"/>
<polygon fill="orange" stroke="orange" points="160.49,-36.63 150.9,-41.13 161.21,-43.59 160.49,-36.63"/>
</a>
</g>
<text text-anchor="middle" x="229" y="-42.5" font-family="Helvetica,sans-Serif" font-size="10.00" fill="grey"> &lt; BrushHandle, HBRUSH &gt;</text>
</g>
<!-- Node5 -->
<g id="Node000005" class="node">
<title>Node5</title>
<g id="a_Node000005"><a xlink:href="class_harlinn_1_1_windows_1_1_brush_handle.xhtml" target="_top" xlink:title=" ">
<polygon fill="white" stroke="#666666" points="657,-42 503,-42 503,-23 657,-23 657,-42"/>
<text text-anchor="middle" x="580" y="-30" font-family="Helvetica,sans-Serif" font-size="10.00">Harlinn::Windows::BrushHandle</text>
</a>
</g>
</g>
<!-- Node5&#45;&gt;Node1 -->
<g id="edge4_Node000001_Node000005" class="edge">
<title>Node5&#45;&gt;Node1</title>
<g id="a_edge4_Node000001_Node000005"><a xlink:title=" ">
<path fill="none" stroke="#9a32cd" stroke-dasharray="5,2" d="M668.47,-33.86C705.95,-34.95 750.18,-36.93 790,-40.5 801.41,-41.52 813.52,-42.95 825.2,-44.5"/>
<polygon fill="#9a32cd" stroke="#9a32cd" points="668.67,-30.36 658.58,-33.59 668.48,-37.36 668.67,-30.36"/>
</a>
</g>
<text text-anchor="middle" x="732.5" y="-43.5" font-family="Helvetica,sans-Serif" font-size="10.00" fill="grey"> previouslySelectedBrush_</text>
</g>
<!-- Node6&#45;&gt;Node5 -->
<g id="edge5_Node000005_Node000006" class="edge">
<title>Node6&#45;&gt;Node5</title>
<g id="a_edge5_Node000005_Node000006"><a xlink:title=" ">
<path fill="none" stroke="#63b8ff" d="M459.2,-24.95C473.41,-25.85 488.41,-26.79 502.8,-27.7"/>
<polygon fill="#63b8ff" stroke="#63b8ff" points="459.7,-21.48 449.5,-24.34 459.26,-28.46 459.7,-21.48"/>
</a>
</g>
</g>
</g>
</svg>
