<?xml version="1.0" encoding="UTF-8" standalone="no"?>
<!DOCTYPE svg PUBLIC "-//W3C//DTD SVG 1.1//EN"
 "http://www.w3.org/Graphics/SVG/1.1/DTD/svg11.dtd">
<!-- Generated by graphviz version 7.0.1 (20221109.1506)
 -->
<!-- Title: Harlinn::Common::Core::IO::Sockets::Server::TcpListenerBase&lt; DerivedT &gt; Pages: 1 -->
<svg width="1363pt" height="139pt"
 viewBox="0.00 0.00 1363.00 139.00" xmlns="http://www.w3.org/2000/svg" xmlns:xlink="http://www.w3.org/1999/xlink">
<g id="graph0" class="graph" transform="scale(1 1) rotate(0) translate(4 135)">
<title>Harlinn::Common::Core::IO::Sockets::Server::TcpListenerBase&lt; DerivedT &gt;</title>
<!-- Node1 -->
<g id="Node000001" class="node">
<title>Node1</title>
<g id="a_Node000001"><a xlink:title=" ">
<polygon fill="#999999" stroke="#666666" points="451,-80.5 301,-80.5 301,-39.5 451,-39.5 451,-80.5"/>
<text text-anchor="start" x="309" y="-68.5" font-family="Helvetica,sans-Serif" font-size="10.00">Harlinn::Common::Core</text>
<text text-anchor="start" x="309" y="-57.5" font-family="Helvetica,sans-Serif" font-size="10.00">::IO::Sockets::Server</text>
<text text-anchor="middle" x="376" y="-46.5" font-family="Helvetica,sans-Serif" font-size="10.00">::TcpListenerBase&lt; DerivedT &gt;</text>
</a>
</g>
</g>
<!-- Node4 -->
<g id="Node000004" class="node">
<title>Node4</title>
<g id="a_Node000004"><a xlink:href="class_harlinn_1_1_common_1_1_core_1_1_i_o_1_1_sockets_1_1_server_1_1_tcp_listener.xhtml" target="_top" xlink:title=" ">
<polygon fill="white" stroke="#666666" points="716,-122 594,-122 594,-70 716,-70 716,-122"/>
<text text-anchor="start" x="602" y="-110" font-family="Helvetica,sans-Serif" font-size="10.00">Harlinn::Common::Core</text>
<text text-anchor="start" x="602" y="-99" font-family="Helvetica,sans-Serif" font-size="10.00">::IO::Sockets::Server</text>
<text text-anchor="start" x="602" y="-88" font-family="Helvetica,sans-Serif" font-size="10.00">::TcpListener&lt; DerivedT,</text>
<text text-anchor="middle" x="655" y="-77" font-family="Helvetica,sans-Serif" font-size="10.00"> ConnectionHandlerT &gt;</text>
</a>
</g>
</g>
<!-- Node1&#45;&gt;Node4 -->
<g id="edge3_Node000001_Node000004" class="edge">
<title>Node1&#45;&gt;Node4</title>
<g id="a_edge3_Node000001_Node000004"><a xlink:title=" ">
<path fill="none" stroke="#63b8ff" d="M462.45,-72.12C464.65,-72.42 466.84,-72.71 469,-73 510.55,-78.52 557.4,-84.34 593.56,-88.74"/>
<polygon fill="#63b8ff" stroke="#63b8ff" points="463.18,-68.69 452.8,-70.81 462.24,-75.63 463.18,-68.69"/>
</a>
</g>
</g>
<!-- Node7 -->
<g id="Node000007" class="node">
<title>Node7</title>
<g id="a_Node000007"><a xlink:href="class_harlinn_1_1_common_1_1_core_1_1_i_o_1_1_sockets_1_1_server_1_1_tcp_listener_base.xhtml" target="_top" xlink:title=" ">
<polygon fill="white" stroke="#666666" points="730,-52 580,-52 580,0 730,0 730,-52"/>
<text text-anchor="start" x="588" y="-40" font-family="Helvetica,sans-Serif" font-size="10.00">Harlinn::Common::Core</text>
<text text-anchor="start" x="588" y="-29" font-family="Helvetica,sans-Serif" font-size="10.00">::IO::Sockets::Server</text>
<text text-anchor="start" x="588" y="-18" font-family="Helvetica,sans-Serif" font-size="10.00">::TcpListenerBase&lt; TcpSimple</text>
<text text-anchor="middle" x="655" y="-7" font-family="Helvetica,sans-Serif" font-size="10.00">Listener&lt; ProtocolT &gt; &gt;</text>
</a>
</g>
</g>
<!-- Node1&#45;&gt;Node7 -->
<g id="edge6_Node000001_Node000007" class="edge">
<title>Node1&#45;&gt;Node7</title>
<g id="a_edge6_Node000001_Node000007"><a xlink:title=" ">
<path fill="none" stroke="orange" stroke-dasharray="5,2" d="M462.63,-49.49C500.05,-44.9 543.52,-39.56 579.56,-35.14"/>
<polygon fill="orange" stroke="orange" points="462.23,-46.01 452.73,-50.7 463.09,-52.96 462.23,-46.01"/>
</a>
</g>
<text text-anchor="start" x="469" y="-63" font-family="Helvetica,sans-Serif" font-size="10.00" fill="grey"> &lt; TcpSimpleListener</text>
<text text-anchor="middle" x="515.5" y="-52" font-family="Helvetica,sans-Serif" font-size="10.00" fill="grey">&lt; ProtocolT &gt; &gt;</text>
</g>
<!-- Node2 -->
<g id="Node000002" class="node">
<title>Node2</title>
<g id="a_Node000002"><a xlink:href="class_harlinn_1_1_common_1_1_core_1_1_i_o_1_1_sockets_1_1_socket_handler.xhtml" target="_top" xlink:title="Classes derived from this template are used to implement asynchronous operations on sockets.">
<polygon fill="white" stroke="#666666" points="264,-80.5 120,-80.5 120,-39.5 264,-39.5 264,-80.5"/>
<text text-anchor="start" x="128" y="-68.5" font-family="Helvetica,sans-Serif" font-size="10.00">Harlinn::Common::Core</text>
<text text-anchor="start" x="128" y="-57.5" font-family="Helvetica,sans-Serif" font-size="10.00">::IO::Sockets::SocketHandler</text>
<text text-anchor="middle" x="192" y="-46.5" font-family="Helvetica,sans-Serif" font-size="10.00">&lt; DerivedT &gt;</text>
</a>
</g>
</g>
<!-- Node2&#45;&gt;Node1 -->
<g id="edge1_Node000001_Node000002" class="edge">
<title>Node2&#45;&gt;Node1</title>
<g id="a_edge1_Node000001_Node000002"><a xlink:title=" ">
<path fill="none" stroke="#63b8ff" d="M275.91,-60C284.11,-60 292.4,-60 300.5,-60"/>
<polygon fill="#63b8ff" stroke="#63b8ff" points="275.92,-56.5 265.92,-60 275.92,-63.5 275.92,-56.5"/>
</a>
</g>
</g>
<!-- Node3 -->
<g id="Node000003" class="node">
<title>Node3</title>
<g id="a_Node000003"><a xlink:title=" ">
<polygon fill="white" stroke="#666666" points="83,-69.5 0,-69.5 0,-50.5 83,-50.5 83,-69.5"/>
<text text-anchor="middle" x="41.5" y="-57.5" font-family="Helvetica,sans-Serif" font-size="10.00">ContextHandler</text>
</a>
</g>
</g>
<!-- Node3&#45;&gt;Node2 -->
<g id="edge2_Node000002_Node000003" class="edge">
<title>Node3&#45;&gt;Node2</title>
<g id="a_edge2_Node000002_Node000003"><a xlink:title=" ">
<path fill="none" stroke="#63b8ff" d="M94.91,-60C102.93,-60 111.32,-60 119.67,-60"/>
<polygon fill="#63b8ff" stroke="#63b8ff" points="94.98,-56.5 84.98,-60 94.98,-63.5 94.98,-56.5"/>
</a>
</g>
</g>
<!-- Node5 -->
<g id="Node000005" class="node">
<title>Node5</title>
<g id="a_Node000005"><a xlink:href="class_harlinn_1_1_common_1_1_core_1_1_i_o_1_1_sockets_1_1_server_1_1_tcp_listener.xhtml" target="_top" xlink:title=" ">
<polygon fill="white" stroke="#666666" points="1156,-91.5 926,-91.5 926,-28.5 1156,-28.5 1156,-91.5"/>
<text text-anchor="start" x="934" y="-79.5" font-family="Helvetica,sans-Serif" font-size="10.00">Harlinn::Common::Core</text>
<text text-anchor="start" x="934" y="-68.5" font-family="Helvetica,sans-Serif" font-size="10.00">::IO::Sockets::Server</text>
<text text-anchor="start" x="934" y="-57.5" font-family="Helvetica,sans-Serif" font-size="10.00">::TcpListener&lt; TcpSimpleListener</text>
<text text-anchor="start" x="934" y="-46.5" font-family="Helvetica,sans-Serif" font-size="10.00">&lt; ProtocolT &gt;, TcpSimpleConnectionHandler</text>
<text text-anchor="middle" x="1041" y="-35.5" font-family="Helvetica,sans-Serif" font-size="10.00">&lt; TcpSimpleListener&lt; ProtocolT &gt;, ProtocolT &gt; &gt;</text>
</a>
</g>
</g>
<!-- Node4&#45;&gt;Node5 -->
<g id="edge4_Node000004_Node000005" class="edge">
<title>Node4&#45;&gt;Node5</title>
<g id="a_edge4_Node000004_Node000005"><a xlink:title=" ">
<path fill="none" stroke="orange" stroke-dasharray="5,2" d="M727.59,-89.29C783.25,-84.07 861.54,-76.73 925.82,-70.7"/>
<polygon fill="orange" stroke="orange" points="727.56,-85.78 717.93,-90.19 728.21,-92.75 727.56,-85.78"/>
</a>
</g>
<text text-anchor="start" x="748" y="-123" font-family="Helvetica,sans-Serif" font-size="10.00" fill="grey"> &lt; TcpSimpleListener</text>
<text text-anchor="start" x="748" y="-112" font-family="Helvetica,sans-Serif" font-size="10.00" fill="grey">&lt; ProtocolT &gt;, TcpSimpleConnection</text>
<text text-anchor="start" x="748" y="-101" font-family="Helvetica,sans-Serif" font-size="10.00" fill="grey">Handler&lt; TcpSimpleListener&lt;</text>
<text text-anchor="middle" x="828" y="-90" font-family="Helvetica,sans-Serif" font-size="10.00" fill="grey"> ProtocolT &gt;, ProtocolT &gt; &gt;</text>
</g>
<!-- Node6 -->
<g id="Node000006" class="node">
<title>Node6</title>
<g id="a_Node000006"><a xlink:href="class_harlinn_1_1_common_1_1_core_1_1_i_o_1_1_sockets_1_1_server_1_1_tcp_simple_listener.xhtml" target="_top" xlink:title=" ">
<polygon fill="white" stroke="#666666" points="1355,-80.5 1193,-80.5 1193,-39.5 1355,-39.5 1355,-80.5"/>
<text text-anchor="start" x="1201" y="-68.5" font-family="Helvetica,sans-Serif" font-size="10.00">Harlinn::Common::Core</text>
<text text-anchor="start" x="1201" y="-57.5" font-family="Helvetica,sans-Serif" font-size="10.00">::IO::Sockets::Server</text>
<text text-anchor="middle" x="1274" y="-46.5" font-family="Helvetica,sans-Serif" font-size="10.00">::TcpSimpleListener&lt; ProtocolT &gt;</text>
</a>
</g>
</g>
<!-- Node5&#45;&gt;Node6 -->
<g id="edge5_Node000005_Node000006" class="edge">
<title>Node5&#45;&gt;Node6</title>
<g id="a_edge5_Node000005_Node000006"><a xlink:title=" ">
<path fill="none" stroke="#63b8ff" d="M1167.96,-60C1176.35,-60 1184.67,-60 1192.74,-60"/>
<polygon fill="#63b8ff" stroke="#63b8ff" points="1168,-56.5 1158,-60 1168,-63.5 1168,-56.5"/>
</a>
</g>
</g>
<!-- Node7&#45;&gt;Node5 -->
<g id="edge7_Node000007_Node000005" class="edge">
<title>Node7&#45;&gt;Node5</title>
<g id="a_edge7_Node000007_Node000005"><a xlink:title=" ">
<path fill="none" stroke="#63b8ff" d="M741.8,-33.6C796.01,-38.4 866.69,-44.65 925.63,-49.87"/>
<polygon fill="#63b8ff" stroke="#63b8ff" points="742.27,-30.13 732,-32.73 741.65,-37.1 742.27,-30.13"/>
</a>
</g>
</g>
</g>
</svg>
