<?xml version="1.0" encoding="UTF-8" standalone="no"?>
<!DOCTYPE svg PUBLIC "-//W3C//DTD SVG 1.1//EN"
 "http://www.w3.org/Graphics/SVG/1.1/DTD/svg11.dtd">
<!-- Generated by graphviz version 7.0.1 (20221109.1506)
 -->
<!-- Title: Harlinn::Common::Core::Doxygen::DocBlockQuoteType Pages: 1 -->
<svg width="950pt" height="79pt"
 viewBox="0.00 0.00 950.00 78.50" xmlns="http://www.w3.org/2000/svg" xmlns:xlink="http://www.w3.org/1999/xlink">
<g id="graph0" class="graph" transform="scale(1 1) rotate(0) translate(4 74.5)">
<title>Harlinn::Common::Core::Doxygen::DocBlockQuoteType</title>
<!-- Node1 -->
<g id="Node000001" class="node">
<title>Node1</title>
<g id="a_Node000001"><a xlink:title=" ">
<polygon fill="#999999" stroke="#666666" points="942,-59.5 786,-59.5 786,-29.5 942,-29.5 942,-59.5"/>
<text text-anchor="start" x="794" y="-47.5" font-family="Helvetica,sans-Serif" font-size="10.00">Harlinn::Common::Core</text>
<text text-anchor="middle" x="864" y="-36.5" font-family="Helvetica,sans-Serif" font-size="10.00">::Doxygen::DocBlockQuoteType</text>
</a>
</g>
</g>
<!-- Node2 -->
<g id="Node000002" class="node">
<title>Node2</title>
<g id="a_Node000002"><a xlink:href="class_harlinn_1_1_common_1_1_core_1_1_doxygen_1_1_internal_1_1_doc_base.xhtml" target="_top" xlink:title=" ">
<polygon fill="white" stroke="#666666" points="749,-70.5 601,-70.5 601,-18.5 749,-18.5 749,-70.5"/>
<text text-anchor="start" x="609" y="-58.5" font-family="Helvetica,sans-Serif" font-size="10.00">Harlinn::Common::Core</text>
<text text-anchor="start" x="609" y="-47.5" font-family="Helvetica,sans-Serif" font-size="10.00">::Doxygen::Internal::</text>
<text text-anchor="start" x="609" y="-36.5" font-family="Helvetica,sans-Serif" font-size="10.00">DocBase&lt; Doxygen::DoxType</text>
<text text-anchor="middle" x="675" y="-25.5" font-family="Helvetica,sans-Serif" font-size="10.00">::DocBlockQuoteType &gt;</text>
</a>
</g>
</g>
<!-- Node2&#45;&gt;Node1 -->
<g id="edge1_Node000001_Node000002" class="edge">
<title>Node2&#45;&gt;Node1</title>
<g id="a_edge1_Node000001_Node000002"><a xlink:title=" ">
<path fill="none" stroke="#63b8ff" d="M760.61,-44.5C768.91,-44.5 777.3,-44.5 785.53,-44.5"/>
<polygon fill="#63b8ff" stroke="#63b8ff" points="760.88,-41 750.88,-44.5 760.88,-48 760.88,-41"/>
</a>
</g>
</g>
<!-- Node3 -->
<g id="Node000003" class="node">
<title>Node3</title>
<g id="a_Node000003"><a xlink:href="class_harlinn_1_1_common_1_1_core_1_1_doxygen_1_1_doc_base_type.xhtml" target="_top" xlink:title=" ">
<polygon fill="white" stroke="#666666" points="305,-59.5 177,-59.5 177,-29.5 305,-29.5 305,-59.5"/>
<text text-anchor="start" x="185" y="-47.5" font-family="Helvetica,sans-Serif" font-size="10.00">Harlinn::Common::Core</text>
<text text-anchor="middle" x="241" y="-36.5" font-family="Helvetica,sans-Serif" font-size="10.00">::Doxygen::DocBaseType</text>
</a>
</g>
</g>
<!-- Node3&#45;&gt;Node2 -->
<g id="edge2_Node000002_Node000003" class="edge">
<title>Node3&#45;&gt;Node2</title>
<g id="a_edge2_Node000002_Node000003"><a xlink:title=" ">
<path fill="none" stroke="#63b8ff" d="M316.4,-50.85C385.52,-55.81 491.29,-61.02 583,-55.5 588.72,-55.16 594.63,-54.69 600.56,-54.15"/>
<polygon fill="#63b8ff" stroke="#63b8ff" points="316.95,-47.38 306.72,-50.14 316.44,-54.36 316.95,-47.38"/>
</a>
</g>
</g>
<!-- Node5 -->
<g id="Node000005" class="node">
<title>Node5</title>
<g id="a_Node000005"><a xlink:href="class_harlinn_1_1_common_1_1_core_1_1_doxygen_1_1_internal_1_1_doc_base.xhtml" target="_top" xlink:title=" ">
<polygon fill="white" stroke="#666666" points="460,-41 342,-41 342,0 460,0 460,-41"/>
<text text-anchor="start" x="350" y="-29" font-family="Helvetica,sans-Serif" font-size="10.00">Harlinn::Common::Core</text>
<text text-anchor="start" x="350" y="-18" font-family="Helvetica,sans-Serif" font-size="10.00">::Doxygen::Internal::</text>
<text text-anchor="middle" x="401" y="-7" font-family="Helvetica,sans-Serif" font-size="10.00">DocBase&lt; doxType &gt;</text>
</a>
</g>
</g>
<!-- Node3&#45;&gt;Node5 -->
<g id="edge5_Node000005_Node000003" class="edge">
<title>Node3&#45;&gt;Node5</title>
<g id="a_edge5_Node000005_Node000003"><a xlink:title=" ">
<path fill="none" stroke="#63b8ff" d="M316.73,-33.15C325.13,-31.87 333.6,-30.59 341.75,-29.35"/>
<polygon fill="#63b8ff" stroke="#63b8ff" points="316.21,-29.69 306.85,-34.65 317.26,-36.61 316.21,-29.69"/>
</a>
</g>
</g>
<!-- Node4 -->
<g id="Node000004" class="node">
<title>Node4</title>
<g id="a_Node000004"><a xlink:title=" ">
<polygon fill="white" stroke="#666666" points="140,-59.5 0,-59.5 0,-29.5 140,-29.5 140,-59.5"/>
<text text-anchor="start" x="8" y="-47.5" font-family="Helvetica,sans-Serif" font-size="10.00">std::enable_shared</text>
<text text-anchor="middle" x="70" y="-36.5" font-family="Helvetica,sans-Serif" font-size="10.00">_from_this&lt; DocBaseType &gt;</text>
</a>
</g>
</g>
<!-- Node4&#45;&gt;Node3 -->
<g id="edge3_Node000003_Node000004" class="edge">
<title>Node4&#45;&gt;Node3</title>
<g id="a_edge3_Node000003_Node000004"><a xlink:title=" ">
<path fill="none" stroke="#8b1a1a" d="M151.6,-44.5C159.99,-44.5 168.43,-44.5 176.59,-44.5"/>
<polygon fill="#8b1a1a" stroke="#8b1a1a" points="151.74,-41 141.74,-44.5 151.74,-48 151.74,-41"/>
</a>
</g>
</g>
<!-- Node5&#45;&gt;Node2 -->
<g id="edge4_Node000002_Node000005" class="edge">
<title>Node5&#45;&gt;Node2</title>
<g id="a_edge4_Node000002_Node000005"><a xlink:title=" ">
<path fill="none" stroke="orange" stroke-dasharray="5,2" d="M471.47,-24.7C505.18,-26.94 546.23,-29.96 583,-33.5 588.7,-34.05 594.6,-34.66 600.53,-35.31"/>
<polygon fill="orange" stroke="orange" points="472.06,-21.23 461.85,-24.07 471.6,-28.21 472.06,-21.23"/>
</a>
</g>
<text text-anchor="start" x="478" y="-47.5" font-family="Helvetica,sans-Serif" font-size="10.00" fill="grey"> &lt; Doxygen::DoxType</text>
<text text-anchor="middle" x="530.5" y="-36.5" font-family="Helvetica,sans-Serif" font-size="10.00" fill="grey">::DocBlockQuoteType &gt;</text>
</g>
</g>
</svg>
