<?xml version="1.0" encoding="UTF-8" standalone="no"?>
<!DOCTYPE svg PUBLIC "-//W3C//DTD SVG 1.1//EN"
 "http://www.w3.org/Graphics/SVG/1.1/DTD/svg11.dtd">
<!-- Generated by graphviz version 7.0.1 (20221109.1506)
 -->
<!-- Title: Harlinn::Common::Core::Logging::Sinks::Storage::LogTableInfoT&lt; DataT, PrimaryKeyT, ValueFormatT, maxKeyEncodingSize, maxValueEncodingSize &gt; Pages: 1 -->
<svg width="1068pt" height="85pt"
 viewBox="0.00 0.00 1068.00 85.00" xmlns="http://www.w3.org/2000/svg" xmlns:xlink="http://www.w3.org/1999/xlink">
<g id="graph0" class="graph" transform="scale(1 1) rotate(0) translate(4 81)">
<title>Harlinn::Common::Core::Logging::Sinks::Storage::LogTableInfoT&lt; DataT, PrimaryKeyT, ValueFormatT, maxKeyEncodingSize, maxValueEncodingSize &gt;</title>
<!-- Node1 -->
<g id="Node000001" class="node">
<title>Node1</title>
<g id="a_Node000001"><a xlink:title="LogTableInfoT.">
<polygon fill="#999999" stroke="#666666" points="1060,-77 826,-77 826,-14 1060,-14 1060,-77"/>
<text text-anchor="start" x="834" y="-65" font-family="Helvetica,sans-Serif" font-size="10.00">Harlinn::Common::Core</text>
<text text-anchor="start" x="834" y="-54" font-family="Helvetica,sans-Serif" font-size="10.00">::Logging::Sinks::Storage</text>
<text text-anchor="start" x="834" y="-43" font-family="Helvetica,sans-Serif" font-size="10.00">::LogTableInfoT&lt; DataT,</text>
<text text-anchor="start" x="834" y="-32" font-family="Helvetica,sans-Serif" font-size="10.00"> PrimaryKeyT, ValueFormatT,</text>
<text text-anchor="middle" x="943" y="-21" font-family="Helvetica,sans-Serif" font-size="10.00"> maxKeyEncodingSize, maxValueEncodingSize &gt;</text>
</a>
</g>
</g>
<!-- Node2 -->
<g id="Node000002" class="node">
<title>Node2</title>
<g id="a_Node000002"><a xlink:href="class_harlinn_1_1_common_1_1_core_1_1_l_m_d_b_ex_1_1_table_info_t.xhtml" target="_top" xlink:title=" ">
<polygon fill="white" stroke="#666666" points="789,-77 614,-77 614,-14 789,-14 789,-77"/>
<text text-anchor="start" x="622" y="-65" font-family="Helvetica,sans-Serif" font-size="10.00">Harlinn::Common::Core</text>
<text text-anchor="start" x="622" y="-54" font-family="Helvetica,sans-Serif" font-size="10.00">::LMDBEx::TableInfoT</text>
<text text-anchor="start" x="622" y="-43" font-family="Helvetica,sans-Serif" font-size="10.00">&lt; LogTableT&lt; LogTableInfoT</text>
<text text-anchor="start" x="622" y="-32" font-family="Helvetica,sans-Serif" font-size="10.00">&lt; DataT, PrimaryKeyT, ValueFormat</text>
<text text-anchor="middle" x="701.5" y="-21" font-family="Helvetica,sans-Serif" font-size="10.00">T, 128, 4096 &gt; &gt; &gt;</text>
</a>
</g>
</g>
<!-- Node2&#45;&gt;Node1 -->
<g id="edge1_Node000001_Node000002" class="edge">
<title>Node2&#45;&gt;Node1</title>
<g id="a_edge1_Node000001_Node000002"><a xlink:title=" ">
<path fill="none" stroke="#63b8ff" d="M800.75,-45.5C808.92,-45.5 817.23,-45.5 825.52,-45.5"/>
<polygon fill="#63b8ff" stroke="#63b8ff" points="800.82,-42 790.82,-45.5 800.82,-49 800.82,-42"/>
</a>
</g>
</g>
<!-- Node3 -->
<g id="Node000003" class="node">
<title>Node3</title>
<g id="a_Node000003"><a xlink:href="class_harlinn_1_1_common_1_1_core_1_1_l_m_d_b_ex_1_1_table_info.xhtml" target="_top" xlink:title="TableInfo.">
<polygon fill="white" stroke="#666666" points="283,-59.5 165,-59.5 165,-29.5 283,-29.5 283,-59.5"/>
<text text-anchor="start" x="173" y="-47.5" font-family="Helvetica,sans-Serif" font-size="10.00">Harlinn::Common::Core</text>
<text text-anchor="middle" x="224" y="-36.5" font-family="Helvetica,sans-Serif" font-size="10.00">::LMDBEx::TableInfo</text>
</a>
</g>
</g>
<!-- Node3&#45;&gt;Node2 -->
<g id="edge2_Node000002_Node000003" class="edge">
<title>Node3&#45;&gt;Node2</title>
<g id="a_edge2_Node000002_Node000003"><a xlink:title=" ">
<path fill="none" stroke="#63b8ff" d="M294.6,-49.77C369.18,-54.67 491,-60.51 596,-55.5 601.73,-55.23 607.64,-54.87 613.59,-54.45"/>
<polygon fill="#63b8ff" stroke="#63b8ff" points="295.22,-46.31 285.01,-49.13 294.75,-53.29 295.22,-46.31"/>
</a>
</g>
</g>
<!-- Node5 -->
<g id="Node000005" class="node">
<title>Node5</title>
<g id="a_Node000005"><a xlink:href="class_harlinn_1_1_common_1_1_core_1_1_l_m_d_b_ex_1_1_table_info_t.xhtml" target="_top" xlink:title=" ">
<polygon fill="white" stroke="#666666" points="438,-41 320,-41 320,0 438,0 438,-41"/>
<text text-anchor="start" x="328" y="-29" font-family="Helvetica,sans-Serif" font-size="10.00">Harlinn::Common::Core</text>
<text text-anchor="start" x="328" y="-18" font-family="Helvetica,sans-Serif" font-size="10.00">::LMDBEx::TableInfoT</text>
<text text-anchor="middle" x="379" y="-7" font-family="Helvetica,sans-Serif" font-size="10.00">&lt; TableT &gt;</text>
</a>
</g>
</g>
<!-- Node3&#45;&gt;Node5 -->
<g id="edge5_Node000005_Node000003" class="edge">
<title>Node3&#45;&gt;Node5</title>
<g id="a_edge5_Node000005_Node000003"><a xlink:title=" ">
<path fill="none" stroke="#63b8ff" d="M294.59,-33.58C302.96,-32.27 311.44,-30.94 319.63,-29.66"/>
<polygon fill="#63b8ff" stroke="#63b8ff" points="294.11,-30.12 284.77,-35.12 295.2,-37.03 294.11,-30.12"/>
</a>
</g>
</g>
<!-- Node4 -->
<g id="Node000004" class="node">
<title>Node4</title>
<g id="a_Node000004"><a xlink:href="class_harlinn_1_1_common_1_1_core_1_1_l_m_d_b_ex_1_1_table_info_base.xhtml" target="_top" xlink:title="TableInfoBase.">
<polygon fill="white" stroke="#666666" points="128,-59.5 0,-59.5 0,-29.5 128,-29.5 128,-59.5"/>
<text text-anchor="start" x="8" y="-47.5" font-family="Helvetica,sans-Serif" font-size="10.00">Harlinn::Common::Core</text>
<text text-anchor="middle" x="64" y="-36.5" font-family="Helvetica,sans-Serif" font-size="10.00">::LMDBEx::TableInfoBase</text>
</a>
</g>
</g>
<!-- Node4&#45;&gt;Node3 -->
<g id="edge3_Node000003_Node000004" class="edge">
<title>Node4&#45;&gt;Node3</title>
<g id="a_edge3_Node000003_Node000004"><a xlink:title=" ">
<path fill="none" stroke="#63b8ff" d="M139.73,-44.5C148.13,-44.5 156.6,-44.5 164.75,-44.5"/>
<polygon fill="#63b8ff" stroke="#63b8ff" points="139.87,-41 129.87,-44.5 139.87,-48 139.87,-41"/>
</a>
</g>
</g>
<!-- Node5&#45;&gt;Node2 -->
<g id="edge4_Node000002_Node000005" class="edge">
<title>Node5&#45;&gt;Node2</title>
<g id="a_edge4_Node000002_Node000005"><a xlink:title=" ">
<path fill="none" stroke="orange" stroke-dasharray="5,2" d="M449.74,-17.49C492.16,-16.57 547.36,-16.98 596,-22.5 601.81,-23.16 607.78,-24.01 613.77,-24.98"/>
<polygon fill="orange" stroke="orange" points="449.84,-13.99 439.93,-17.74 450.01,-20.99 449.84,-13.99"/>
</a>
</g>
<text text-anchor="start" x="456" y="-47.5" font-family="Helvetica,sans-Serif" font-size="10.00" fill="grey"> &lt; LogTableT&lt; LogTableInfo</text>
<text text-anchor="start" x="456" y="-36.5" font-family="Helvetica,sans-Serif" font-size="10.00" fill="grey">T&lt; DataT, PrimaryKeyT,</text>
<text text-anchor="middle" x="526" y="-25.5" font-family="Helvetica,sans-Serif" font-size="10.00" fill="grey"> ValueFormatT, 128, 4096 &gt; &gt; &gt;</text>
</g>
</g>
</svg>
