<?xml version="1.0" encoding="UTF-8" standalone="no"?>
<!DOCTYPE svg PUBLIC "-//W3C//DTD SVG 1.1//EN"
 "http://www.w3.org/Graphics/SVG/1.1/DTD/svg11.dtd">
<!-- Generated by graphviz version 7.0.1 (20221109.1506)
 -->
<!-- Title: Harlinn::OCI::Metadata::ArgumentOrResult Pages: 1 -->
<svg width="258pt" height="170pt"
 viewBox="0.00 0.00 258.00 170.00" xmlns="http://www.w3.org/2000/svg" xmlns:xlink="http://www.w3.org/1999/xlink">
<g id="graph0" class="graph" transform="scale(1 1) rotate(0) translate(4 166)">
<title>Harlinn::OCI::Metadata::ArgumentOrResult</title>
<!-- Node1 -->
<g id="Node000001" class="node">
<title>Node1</title>
<g id="a_Node000001"><a xlink:title=" ">
<polygon fill="#999999" stroke="#666666" points="183,-96 67,-96 67,-66 183,-66 183,-96"/>
<text text-anchor="start" x="75" y="-84" font-family="Helvetica,sans-Serif" font-size="10.00">Harlinn::OCI::Metadata</text>
<text text-anchor="middle" x="125" y="-73" font-family="Helvetica,sans-Serif" font-size="10.00">::ArgumentOrResult</text>
</a>
</g>
</g>
<!-- Node3 -->
<g id="Node000003" class="node">
<title>Node3</title>
<g id="a_Node000003"><a xlink:href="class_harlinn_1_1_o_c_i_1_1_metadata_1_1_argument.html" target="_top" xlink:title=" ">
<polygon fill="white" stroke="#666666" points="116,-30 0,-30 0,0 116,0 116,-30"/>
<text text-anchor="start" x="8" y="-18" font-family="Helvetica,sans-Serif" font-size="10.00">Harlinn::OCI::Metadata</text>
<text text-anchor="middle" x="58" y="-7" font-family="Helvetica,sans-Serif" font-size="10.00">::Argument</text>
</a>
</g>
</g>
<!-- Node1&#45;&gt;Node3 -->
<g id="edge2_Node000001_Node000003" class="edge">
<title>Node1&#45;&gt;Node3</title>
<g id="a_edge2_Node000001_Node000003"><a xlink:title=" ">
<path fill="none" stroke="#63b8ff" d="M102.06,-58.09C92.39,-48.85 81.41,-38.36 72.83,-30.16"/>
<polygon fill="#63b8ff" stroke="#63b8ff" points="99.39,-60.37 109.04,-64.75 104.22,-55.31 99.39,-60.37"/>
</a>
</g>
</g>
<!-- Node4 -->
<g id="Node000004" class="node">
<title>Node4</title>
<g id="a_Node000004"><a xlink:href="class_harlinn_1_1_o_c_i_1_1_metadata_1_1_result.html" target="_top" xlink:title=" ">
<polygon fill="white" stroke="#666666" points="250,-30 134,-30 134,0 250,0 250,-30"/>
<text text-anchor="start" x="142" y="-18" font-family="Helvetica,sans-Serif" font-size="10.00">Harlinn::OCI::Metadata</text>
<text text-anchor="middle" x="192" y="-7" font-family="Helvetica,sans-Serif" font-size="10.00">::Result</text>
</a>
</g>
</g>
<!-- Node1&#45;&gt;Node4 -->
<g id="edge3_Node000001_Node000004" class="edge">
<title>Node1&#45;&gt;Node4</title>
<g id="a_edge3_Node000001_Node000004"><a xlink:title=" ">
<path fill="none" stroke="#63b8ff" d="M147.94,-58.09C157.61,-48.85 168.59,-38.36 177.17,-30.16"/>
<polygon fill="#63b8ff" stroke="#63b8ff" points="145.78,-55.31 140.96,-64.75 150.61,-60.37 145.78,-55.31"/>
</a>
</g>
</g>
<!-- Node2 -->
<g id="Node000002" class="node">
<title>Node2</title>
<g id="a_Node000002"><a xlink:href="class_harlinn_1_1_o_c_i_1_1_metadata_1_1_metadata_object.html" target="_top" xlink:title=" ">
<polygon fill="white" stroke="#666666" points="183,-162 67,-162 67,-132 183,-132 183,-162"/>
<text text-anchor="start" x="75" y="-150" font-family="Helvetica,sans-Serif" font-size="10.00">Harlinn::OCI::Metadata</text>
<text text-anchor="middle" x="125" y="-139" font-family="Helvetica,sans-Serif" font-size="10.00">::MetadataObject</text>
</a>
</g>
</g>
<!-- Node2&#45;&gt;Node1 -->
<g id="edge1_Node000001_Node000002" class="edge">
<title>Node2&#45;&gt;Node1</title>
<g id="a_edge1_Node000001_Node000002"><a xlink:title=" ">
<path fill="none" stroke="#63b8ff" d="M125,-120.39C125,-112.13 125,-103.28 125,-96.16"/>
<polygon fill="#63b8ff" stroke="#63b8ff" points="121.5,-120.28 125,-130.28 128.5,-120.28 121.5,-120.28"/>
</a>
</g>
</g>
</g>
</svg>
