<?xml version="1.0" encoding="UTF-8" standalone="no"?>
<!DOCTYPE svg PUBLIC "-//W3C//DTD SVG 1.1//EN"
 "http://www.w3.org/Graphics/SVG/1.1/DTD/svg11.dtd">
<!-- Generated by graphviz version 7.0.1 (20221109.1506)
 -->
<!-- Title: Harlinn::Windows::Graphics::DirectComposition::MatrixTransform3D Pages: 1 -->
<svg width="198pt" height="236pt"
 viewBox="0.00 0.00 198.00 236.00" xmlns="http://www.w3.org/2000/svg" xmlns:xlink="http://www.w3.org/1999/xlink">
<g id="graph0" class="graph" transform="scale(1 1) rotate(0) translate(4 232)">
<title>Harlinn::Windows::Graphics::DirectComposition::MatrixTransform3D</title>
<!-- Node1 -->
<g id="Node000001" class="node">
<title>Node1</title>
<g id="a_Node000001"><a xlink:title="Represents an arbitrary 3D transformation defined by a 4&#45;by&#45;4 matrix.">
<polygon fill="#999999" stroke="#666666" points="190,-30 0,-30 0,0 190,0 190,-30"/>
<text text-anchor="start" x="8" y="-18" font-family="Helvetica,sans-Serif" font-size="10.00">Harlinn::Windows::Graphics</text>
<text text-anchor="middle" x="95" y="-7" font-family="Helvetica,sans-Serif" font-size="10.00">::DirectComposition::MatrixTransform3D</text>
</a>
</g>
</g>
<!-- Node2 -->
<g id="Node000002" class="node">
<title>Node2</title>
<g id="a_Node000002"><a xlink:href="class_harlinn_1_1_windows_1_1_graphics_1_1_direct_composition_1_1_transform3_d.html" target="_top" xlink:title="Represents a 3D transformation effect that can be used to modify the rasterization of a visual subtre...">
<polygon fill="white" stroke="#666666" points="176.5,-96 13.5,-96 13.5,-66 176.5,-66 176.5,-96"/>
<text text-anchor="start" x="21.5" y="-84" font-family="Helvetica,sans-Serif" font-size="10.00">Harlinn::Windows::Graphics</text>
<text text-anchor="middle" x="95" y="-73" font-family="Helvetica,sans-Serif" font-size="10.00">::DirectComposition::Transform3D</text>
</a>
</g>
</g>
<!-- Node2&#45;&gt;Node1 -->
<g id="edge1_Node000001_Node000002" class="edge">
<title>Node2&#45;&gt;Node1</title>
<g id="a_edge1_Node000001_Node000002"><a xlink:title=" ">
<path fill="none" stroke="#63b8ff" d="M95,-54.39C95,-46.13 95,-37.28 95,-30.16"/>
<polygon fill="#63b8ff" stroke="#63b8ff" points="91.5,-54.28 95,-64.28 98.5,-54.28 91.5,-54.28"/>
</a>
</g>
</g>
<!-- Node3 -->
<g id="Node000003" class="node">
<title>Node3</title>
<g id="a_Node000003"><a xlink:href="class_harlinn_1_1_windows_1_1_graphics_1_1_direct_composition_1_1_effect.html" target="_top" xlink:title="Represents a bitmap effect that modifies the rasterization of a visual&#39;s subtree.">
<polygon fill="white" stroke="#666666" points="163.5,-162 26.5,-162 26.5,-132 163.5,-132 163.5,-162"/>
<text text-anchor="start" x="34.5" y="-150" font-family="Helvetica,sans-Serif" font-size="10.00">Harlinn::Windows::Graphics</text>
<text text-anchor="middle" x="95" y="-139" font-family="Helvetica,sans-Serif" font-size="10.00">::DirectComposition::Effect</text>
</a>
</g>
</g>
<!-- Node3&#45;&gt;Node2 -->
<g id="edge2_Node000002_Node000003" class="edge">
<title>Node3&#45;&gt;Node2</title>
<g id="a_edge2_Node000002_Node000003"><a xlink:title=" ">
<path fill="none" stroke="#63b8ff" d="M95,-120.39C95,-112.13 95,-103.28 95,-96.16"/>
<polygon fill="#63b8ff" stroke="#63b8ff" points="91.5,-120.28 95,-130.28 98.5,-120.28 91.5,-120.28"/>
</a>
</g>
</g>
<!-- Node4 -->
<g id="Node000004" class="node">
<title>Node4</title>
<g id="a_Node000004"><a xlink:href="class_harlinn_1_1_common_1_1_core_1_1_unknown.html" target="_top" xlink:title="Base class for COM interface wrappers.">
<polygon fill="white" stroke="#666666" points="154,-228 36,-228 36,-198 154,-198 154,-228"/>
<text text-anchor="start" x="44" y="-216" font-family="Helvetica,sans-Serif" font-size="10.00">Harlinn::Common::Core</text>
<text text-anchor="middle" x="95" y="-205" font-family="Helvetica,sans-Serif" font-size="10.00">::Unknown</text>
</a>
</g>
</g>
<!-- Node4&#45;&gt;Node3 -->
<g id="edge3_Node000003_Node000004" class="edge">
<title>Node4&#45;&gt;Node3</title>
<g id="a_edge3_Node000003_Node000004"><a xlink:title=" ">
<path fill="none" stroke="#63b8ff" d="M95,-186.39C95,-178.13 95,-169.28 95,-162.16"/>
<polygon fill="#63b8ff" stroke="#63b8ff" points="91.5,-186.28 95,-196.28 98.5,-186.28 91.5,-186.28"/>
</a>
</g>
</g>
</g>
</svg>
