<?xml version="1.0" encoding="UTF-8" standalone="no"?>
<!DOCTYPE svg PUBLIC "-//W3C//DTD SVG 1.1//EN"
 "http://www.w3.org/Graphics/SVG/1.1/DTD/svg11.dtd">
<!-- Generated by graphviz version 7.0.1 (20221109.1506)
 -->
<!-- Title: Harlinn::Common::Core::Security::PKU2USecurityContext Pages: 1 -->
<svg width="541pt" height="108pt"
 viewBox="0.00 0.00 541.00 108.00" xmlns="http://www.w3.org/2000/svg" xmlns:xlink="http://www.w3.org/1999/xlink">
<g id="graph0" class="graph" transform="scale(1 1) rotate(0) translate(4 104)">
<title>Harlinn::Common::Core::Security::PKU2USecurityContext</title>
<!-- Node1 -->
<g id="Node000001" class="node">
<title>Node1</title>
<g id="a_Node000001"><a xlink:title="A security context for PKU2U SSPI.">
<polygon fill="#999999" stroke="#666666" points="337,-64.5 170,-64.5 170,-34.5 337,-34.5 337,-64.5"/>
<text text-anchor="start" x="178" y="-52.5" font-family="Helvetica,sans-Serif" font-size="10.00">Harlinn::Common::Core</text>
<text text-anchor="middle" x="253.5" y="-41.5" font-family="Helvetica,sans-Serif" font-size="10.00">::Security::PKU2USecurityContext</text>
</a>
</g>
</g>
<!-- Node3 -->
<g id="Node000003" class="node">
<title>Node3</title>
<g id="a_Node000003"><a xlink:href="class_harlinn_1_1_common_1_1_core_1_1_security_1_1_p_k_u2_u_client_security_context.xhtml" target="_top" xlink:title="A client security context for PKU2U SSPI.">
<polygon fill="white" stroke="#666666" points="532,-100 374,-100 374,-59 532,-59 532,-100"/>
<text text-anchor="start" x="382" y="-88" font-family="Helvetica,sans-Serif" font-size="10.00">Harlinn::Common::Core</text>
<text text-anchor="start" x="382" y="-77" font-family="Helvetica,sans-Serif" font-size="10.00">::Security::PKU2UClientSecurity</text>
<text text-anchor="middle" x="453" y="-66" font-family="Helvetica,sans-Serif" font-size="10.00">Context</text>
</a>
</g>
</g>
<!-- Node1&#45;&gt;Node3 -->
<g id="edge2_Node000001_Node000003" class="edge">
<title>Node1&#45;&gt;Node3</title>
<g id="a_edge2_Node000001_Node000003"><a xlink:title=" ">
<path fill="none" stroke="#63b8ff" d="M348.75,-63.82C357.12,-65.09 365.52,-66.36 373.73,-67.61"/>
<polygon fill="#63b8ff" stroke="#63b8ff" points="349.31,-60.36 338.9,-62.32 348.26,-67.28 349.31,-60.36"/>
</a>
</g>
</g>
<!-- Node4 -->
<g id="Node000004" class="node">
<title>Node4</title>
<g id="a_Node000004"><a xlink:href="class_harlinn_1_1_common_1_1_core_1_1_security_1_1_p_k_u2_u_server_security_context.xhtml" target="_top" xlink:title="A server security context for PKU2U SSPI.">
<polygon fill="white" stroke="#666666" points="533,-41 373,-41 373,0 533,0 533,-41"/>
<text text-anchor="start" x="381" y="-29" font-family="Helvetica,sans-Serif" font-size="10.00">Harlinn::Common::Core</text>
<text text-anchor="start" x="381" y="-18" font-family="Helvetica,sans-Serif" font-size="10.00">::Security::PKU2UServerSecurity</text>
<text text-anchor="middle" x="453" y="-7" font-family="Helvetica,sans-Serif" font-size="10.00">Context</text>
</a>
</g>
</g>
<!-- Node1&#45;&gt;Node4 -->
<g id="edge3_Node000001_Node000004" class="edge">
<title>Node1&#45;&gt;Node4</title>
<g id="a_edge3_Node000001_Node000004"><a xlink:title=" ">
<path fill="none" stroke="#63b8ff" d="M348.73,-35.66C356.78,-34.48 364.87,-33.29 372.79,-32.13"/>
<polygon fill="#63b8ff" stroke="#63b8ff" points="348.28,-32.19 338.9,-37.11 349.3,-39.12 348.28,-32.19"/>
</a>
</g>
</g>
<!-- Node2 -->
<g id="Node000002" class="node">
<title>Node2</title>
<g id="a_Node000002"><a xlink:href="class_harlinn_1_1_common_1_1_core_1_1_security_1_1_security_context.xhtml" target="_top" xlink:title="A wrapper for the Windows CtxtHandle type.">
<polygon fill="white" stroke="#666666" points="134,-64.5 0,-64.5 0,-34.5 134,-34.5 134,-64.5"/>
<text text-anchor="start" x="8" y="-52.5" font-family="Helvetica,sans-Serif" font-size="10.00">Harlinn::Common::Core</text>
<text text-anchor="middle" x="67" y="-41.5" font-family="Helvetica,sans-Serif" font-size="10.00">::Security::SecurityContext</text>
</a>
</g>
</g>
<!-- Node2&#45;&gt;Node1 -->
<g id="edge1_Node000001_Node000002" class="edge">
<title>Node2&#45;&gt;Node1</title>
<g id="a_edge1_Node000001_Node000002"><a xlink:title=" ">
<path fill="none" stroke="#63b8ff" d="M145.8,-49.5C153.7,-49.5 161.75,-49.5 169.7,-49.5"/>
<polygon fill="#63b8ff" stroke="#63b8ff" points="145.86,-46 135.86,-49.5 145.86,-53 145.86,-46"/>
</a>
</g>
</g>
</g>
</svg>
