<?xml version="1.0" encoding="UTF-8" standalone="no"?>
<!DOCTYPE svg PUBLIC "-//W3C//DTD SVG 1.1//EN"
 "http://www.w3.org/Graphics/SVG/1.1/DTD/svg11.dtd">
<!-- Generated by graphviz version 7.0.1 (20221109.1506)
 -->
<!-- Title: Harlinn::Common::Core::Security::ObjectAccessControlEntryBase&lt; AceT, AccessMaskT &gt; Pages: 1 -->
<svg width="720pt" height="147pt"
 viewBox="0.00 0.00 720.00 147.00" xmlns="http://www.w3.org/2000/svg" xmlns:xlink="http://www.w3.org/1999/xlink">
<g id="graph0" class="graph" transform="scale(1 1) rotate(0) translate(4 143)">
<title>Harlinn::Common::Core::Security::ObjectAccessControlEntryBase&lt; AceT, AccessMaskT &gt;</title>
<!-- Node1 -->
<g id="Node000001" class="node">
<title>Node1</title>
<g id="a_Node000001"><a xlink:title=" ">
<polygon fill="#999999" stroke="#666666" points="712,-91.5 541,-91.5 541,-50.5 712,-50.5 712,-91.5"/>
<text text-anchor="start" x="549" y="-79.5" font-family="Helvetica,sans-Serif" font-size="10.00">Harlinn::Common::Core</text>
<text text-anchor="start" x="549" y="-68.5" font-family="Helvetica,sans-Serif" font-size="10.00">::Security::ObjectAccessControl</text>
<text text-anchor="middle" x="626.5" y="-57.5" font-family="Helvetica,sans-Serif" font-size="10.00">EntryBase&lt; AceT, AccessMaskT &gt;</text>
</a>
</g>
</g>
<!-- Node2 -->
<g id="Node000002" class="node">
<title>Node2</title>
<g id="a_Node000002"><a xlink:href="class_harlinn_1_1_common_1_1_core_1_1_security_1_1_access_control_entry.xhtml" target="_top" xlink:title="Base class for the various ACE wrappers.">
<polygon fill="white" stroke="#666666" points="415,-139 263,-139 263,-109 415,-109 415,-139"/>
<text text-anchor="start" x="271" y="-127" font-family="Helvetica,sans-Serif" font-size="10.00">Harlinn::Common::Core</text>
<text text-anchor="middle" x="339" y="-116" font-family="Helvetica,sans-Serif" font-size="10.00">::Security::AccessControlEntry</text>
</a>
</g>
</g>
<!-- Node2&#45;&gt;Node1 -->
<g id="edge1_Node000001_Node000002" class="edge">
<title>Node2&#45;&gt;Node1</title>
<g id="a_edge1_Node000001_Node000002"><a xlink:title=" ">
<path fill="none" stroke="#63b8ff" d="M426.42,-107.96C462.62,-101.24 504.58,-93.45 540.61,-86.76"/>
<polygon fill="#63b8ff" stroke="#63b8ff" points="426.07,-104.46 416.87,-109.73 427.34,-111.35 426.07,-104.46"/>
</a>
</g>
</g>
<!-- Node3 -->
<g id="Node000003" class="node">
<title>Node3</title>
<g id="a_Node000003"><a xlink:title=" ">
<polygon fill="white" stroke="#666666" points="179.5,-133.5 96.5,-133.5 96.5,-114.5 179.5,-114.5 179.5,-133.5"/>
<text text-anchor="middle" x="138" y="-121.5" font-family="Helvetica,sans-Serif" font-size="10.00">ACE_HEADER</text>
</a>
</g>
</g>
<!-- Node3&#45;&gt;Node2 -->
<g id="edge2_Node000002_Node000003" class="edge">
<title>Node3&#45;&gt;Node2</title>
<g id="a_edge2_Node000002_Node000003"><a xlink:title=" ">
<path fill="none" stroke="#8b1a1a" d="M191.12,-124C212.98,-124 238.83,-124 262.7,-124"/>
<polygon fill="#8b1a1a" stroke="#8b1a1a" points="191.26,-120.5 181.26,-124 191.26,-127.5 191.26,-120.5"/>
</a>
</g>
</g>
<!-- Node4 -->
<g id="Node000004" class="node">
<title>Node4</title>
<g id="a_Node000004"><a xlink:href="class_harlinn_1_1_common_1_1_core_1_1_security_1_1_access_mask_t.xhtml" target="_top" xlink:title=" ">
<polygon fill="white" stroke="#666666" points="402.5,-90.5 275.5,-90.5 275.5,-49.5 402.5,-49.5 402.5,-90.5"/>
<text text-anchor="start" x="283.5" y="-78.5" font-family="Helvetica,sans-Serif" font-size="10.00">Harlinn::Common::Core</text>
<text text-anchor="start" x="283.5" y="-67.5" font-family="Helvetica,sans-Serif" font-size="10.00">::Security::AccessMaskT</text>
<text text-anchor="middle" x="339" y="-56.5" font-family="Helvetica,sans-Serif" font-size="10.00">&lt; DerivedT, RightsT &gt;</text>
</a>
</g>
</g>
<!-- Node4&#45;&gt;Node1 -->
<g id="edge3_Node000001_Node000004" class="edge">
<title>Node4&#45;&gt;Node1</title>
<g id="a_edge3_Node000001_Node000004"><a xlink:title=" ">
<path fill="none" stroke="#9a32cd" stroke-dasharray="5,2" d="M413.85,-70.26C452.59,-70.39 500.25,-70.56 540.52,-70.7"/>
<polygon fill="#9a32cd" stroke="#9a32cd" points="414.18,-66.76 404.17,-70.22 414.16,-73.76 414.18,-66.76"/>
</a>
</g>
<text text-anchor="middle" x="478" y="-73" font-family="Helvetica,sans-Serif" font-size="10.00" fill="grey"> mask_</text>
</g>
<!-- Node5 -->
<g id="Node000005" class="node">
<title>Node5</title>
<g id="a_Node000005"><a xlink:href="class_harlinn_1_1_common_1_1_core_1_1_security_1_1_access_mask.xhtml" target="_top" xlink:title="An ACCESS_MASK wrapper class. The ACCESS_MASK data type is a DWORD value that defines standard,...">
<polygon fill="white" stroke="#666666" points="199,-85 77,-85 77,-55 199,-55 199,-85"/>
<text text-anchor="start" x="85" y="-73" font-family="Helvetica,sans-Serif" font-size="10.00">Harlinn::Common::Core</text>
<text text-anchor="middle" x="138" y="-62" font-family="Helvetica,sans-Serif" font-size="10.00">::Security::AccessMask</text>
</a>
</g>
</g>
<!-- Node5&#45;&gt;Node4 -->
<g id="edge4_Node000004_Node000005" class="edge">
<title>Node5&#45;&gt;Node4</title>
<g id="a_edge4_Node000004_Node000005"><a xlink:title=" ">
<path fill="none" stroke="#63b8ff" d="M210.75,-70C231.83,-70 254.72,-70 275.2,-70"/>
<polygon fill="#63b8ff" stroke="#63b8ff" points="210.76,-66.5 200.76,-70 210.76,-73.5 210.76,-66.5"/>
</a>
</g>
</g>
<!-- Node6 -->
<g id="Node000006" class="node">
<title>Node6</title>
<g id="a_Node000006"><a xlink:href="class_harlinn_1_1_common_1_1_core_1_1_guid.xhtml" target="_top" xlink:title="Represents a globally unique identifier (GUID).">
<polygon fill="white" stroke="#666666" points="398,-30 280,-30 280,0 398,0 398,-30"/>
<text text-anchor="start" x="288" y="-18" font-family="Helvetica,sans-Serif" font-size="10.00">Harlinn::Common::Core</text>
<text text-anchor="middle" x="339" y="-7" font-family="Helvetica,sans-Serif" font-size="10.00">::Guid</text>
</a>
</g>
</g>
<!-- Node6&#45;&gt;Node1 -->
<g id="edge5_Node000001_Node000006" class="edge">
<title>Node6&#45;&gt;Node1</title>
<g id="a_edge5_Node000001_Node000006"><a xlink:title=" ">
<path fill="none" stroke="#9a32cd" stroke-dasharray="5,2" d="M409.68,-17.64C444.12,-20.01 486.11,-24.5 523,-33 540.94,-37.13 560,-43.59 576.76,-50.02"/>
<polygon fill="#9a32cd" stroke="#9a32cd" points="410.02,-14.16 399.82,-17.01 409.58,-21.14 410.02,-14.16"/>
</a>
</g>
<text text-anchor="start" x="433" y="-58" font-family="Helvetica,sans-Serif" font-size="10.00" fill="grey"> InheritedObjectType</text>
<text text-anchor="middle" x="478" y="-47" font-family="Helvetica,sans-Serif" font-size="10.00" fill="grey">_</text>
<text text-anchor="middle" x="478" y="-36" font-family="Helvetica,sans-Serif" font-size="10.00" fill="grey">ObjectType_</text>
</g>
<!-- Node7 -->
<g id="Node000007" class="node">
<title>Node7</title>
<g id="a_Node000007"><a xlink:href="struct_harlinn_1_1_common_1_1_core_1_1_guid_1_1_data_t.xhtml" target="_top" xlink:title=" ">
<polygon fill="white" stroke="#666666" points="197,-30 79,-30 79,0 197,0 197,-30"/>
<text text-anchor="start" x="87" y="-18" font-family="Helvetica,sans-Serif" font-size="10.00">Harlinn::Common::Core</text>
<text text-anchor="middle" x="138" y="-7" font-family="Helvetica,sans-Serif" font-size="10.00">::Guid::DataT</text>
</a>
</g>
</g>
<!-- Node7&#45;&gt;Node6 -->
<g id="edge6_Node000006_Node000007" class="edge">
<title>Node7&#45;&gt;Node6</title>
<g id="a_edge6_Node000006_Node000007"><a xlink:title=" ">
<path fill="none" stroke="#9a32cd" stroke-dasharray="5,2" d="M208.86,-15C231.99,-15 257.47,-15 279.64,-15"/>
<polygon fill="#9a32cd" stroke="#9a32cd" points="208.88,-11.5 198.88,-15 208.88,-18.5 208.88,-11.5"/>
</a>
</g>
<text text-anchor="middle" x="231" y="-18" font-family="Helvetica,sans-Serif" font-size="10.00" fill="grey"> data_</text>
</g>
<!-- Node8 -->
<g id="Node000008" class="node">
<title>Node8</title>
<g id="a_Node000008"><a xlink:title=" ">
<polygon fill="white" stroke="#666666" points="40,-24.5 0,-24.5 0,-5.5 40,-5.5 40,-24.5"/>
<text text-anchor="middle" x="20" y="-12.5" font-family="Helvetica,sans-Serif" font-size="10.00">GUID</text>
</a>
</g>
</g>
<!-- Node8&#45;&gt;Node7 -->
<g id="edge7_Node000007_Node000008" class="edge">
<title>Node8&#45;&gt;Node7</title>
<g id="a_edge7_Node000007_Node000008"><a xlink:title=" ">
<path fill="none" stroke="#63b8ff" d="M51.8,-15C60.13,-15 69.41,-15 78.71,-15"/>
<polygon fill="#63b8ff" stroke="#63b8ff" points="51.93,-11.5 41.93,-15 51.93,-18.5 51.93,-11.5"/>
</a>
</g>
</g>
</g>
</svg>
