<?xml version="1.0" encoding="UTF-8" standalone="no"?>
<!DOCTYPE svg PUBLIC "-//W3C//DTD SVG 1.1//EN"
 "http://www.w3.org/Graphics/SVG/1.1/DTD/svg11.dtd">
<!-- Generated by graphviz version 7.0.1 (20221109.1506)
 -->
<!-- Title: Harlinn::Common::Core::Vector&lt; T &gt; Pages: 1 -->
<svg width="836pt" height="91pt"
 viewBox="0.00 0.00 836.00 91.00" xmlns="http://www.w3.org/2000/svg" xmlns:xlink="http://www.w3.org/1999/xlink">
<g id="graph0" class="graph" transform="scale(1 1) rotate(0) translate(4 87)">
<title>Harlinn::Common::Core::Vector&lt; T &gt;</title>
<!-- Node1 -->
<g id="Node000001" class="node">
<title>Node1</title>
<g id="a_Node000001"><a xlink:title=" ">
<polygon fill="#999999" stroke="#666666" points="632,-54 514,-54 514,-24 632,-24 632,-54"/>
<text text-anchor="start" x="522" y="-42" font-family="Helvetica,sans-Serif" font-size="10.00">Harlinn::Common::Core</text>
<text text-anchor="middle" x="573" y="-31" font-family="Helvetica,sans-Serif" font-size="10.00">::Vector&lt; T &gt;</text>
</a>
</g>
</g>
<!-- Node4 -->
<g id="Node000004" class="node">
<title>Node4</title>
<g id="a_Node000004"><a xlink:href="class_harlinn_1_1_common_1_1_core_1_1_vector.html" target="_top" xlink:title=" ">
<polygon fill="white" stroke="#666666" points="828,-78 710,-78 710,-48 828,-48 828,-78"/>
<text text-anchor="start" x="718" y="-66" font-family="Helvetica,sans-Serif" font-size="10.00">Harlinn::Common::Core</text>
<text text-anchor="middle" x="769" y="-55" font-family="Helvetica,sans-Serif" font-size="10.00">::Vector&lt; Byte &gt;</text>
</a>
</g>
</g>
<!-- Node1&#45;&gt;Node4 -->
<g id="edge3_Node000001_Node000004" class="edge">
<title>Node1&#45;&gt;Node4</title>
<g id="a_edge3_Node000001_Node000004"><a xlink:title=" ">
<path fill="none" stroke="orange" stroke-dasharray="5,2" d="M643.88,-47.64C665.44,-50.31 688.95,-53.22 709.65,-55.78"/>
<polygon fill="orange" stroke="orange" points="644.33,-44.17 633.97,-46.42 643.47,-51.12 644.33,-44.17"/>
</a>
</g>
<text text-anchor="middle" x="671" y="-56" font-family="Helvetica,sans-Serif" font-size="10.00" fill="grey"> &lt; Byte &gt;</text>
</g>
<!-- Node5 -->
<g id="Node000005" class="node">
<title>Node5</title>
<g id="a_Node000005"><a xlink:href="class_harlinn_1_1_common_1_1_core_1_1_vector.html" target="_top" xlink:title=" ">
<polygon fill="white" stroke="#666666" points="828,-30 710,-30 710,0 828,0 828,-30"/>
<text text-anchor="start" x="718" y="-18" font-family="Helvetica,sans-Serif" font-size="10.00">Harlinn::Common::Core</text>
<text text-anchor="middle" x="769" y="-7" font-family="Helvetica,sans-Serif" font-size="10.00">::Vector&lt; T * &gt;</text>
</a>
</g>
</g>
<!-- Node1&#45;&gt;Node5 -->
<g id="edge4_Node000001_Node000005" class="edge">
<title>Node1&#45;&gt;Node5</title>
<g id="a_edge4_Node000001_Node000005"><a xlink:title=" ">
<path fill="none" stroke="orange" stroke-dasharray="5,2" d="M643.88,-30.36C665.44,-27.69 688.95,-24.78 709.65,-22.22"/>
<polygon fill="orange" stroke="orange" points="643.47,-26.88 633.97,-31.58 644.33,-33.83 643.47,-26.88"/>
</a>
</g>
<text text-anchor="middle" x="671" y="-33" font-family="Helvetica,sans-Serif" font-size="10.00" fill="grey"> &lt; T * &gt;</text>
</g>
<!-- Node2 -->
<g id="Node000002" class="node">
<title>Node2</title>
<g id="a_Node000002"><a xlink:href="class_harlinn_1_1_common_1_1_core_1_1_vector_base.html" target="_top" xlink:title=" ">
<polygon fill="white" stroke="#666666" points="477,-70.5 298,-70.5 298,-7.5 477,-7.5 477,-70.5"/>
<text text-anchor="start" x="306" y="-58.5" font-family="Helvetica,sans-Serif" font-size="10.00">Harlinn::Common::Core</text>
<text text-anchor="start" x="306" y="-47.5" font-family="Helvetica,sans-Serif" font-size="10.00">::VectorBase&lt; T, Internal</text>
<text text-anchor="start" x="306" y="-36.5" font-family="Helvetica,sans-Serif" font-size="10.00">::PointerIterator&lt; Vector</text>
<text text-anchor="start" x="306" y="-25.5" font-family="Helvetica,sans-Serif" font-size="10.00">&lt; T &gt; &gt;, Internal::ConstPointerIterator</text>
<text text-anchor="middle" x="387.5" y="-14.5" font-family="Helvetica,sans-Serif" font-size="10.00">&lt; Vector&lt; T &gt; &gt; &gt;</text>
</a>
</g>
</g>
<!-- Node2&#45;&gt;Node1 -->
<g id="edge1_Node000001_Node000002" class="edge">
<title>Node2&#45;&gt;Node1</title>
<g id="a_edge1_Node000001_Node000002"><a xlink:title=" ">
<path fill="none" stroke="#63b8ff" d="M488.58,-39C497.14,-39 505.6,-39 513.66,-39"/>
<polygon fill="#63b8ff" stroke="#63b8ff" points="488.81,-35.5 478.81,-39 488.81,-42.5 488.81,-35.5"/>
</a>
</g>
</g>
<!-- Node3 -->
<g id="Node000003" class="node">
<title>Node3</title>
<g id="a_Node000003"><a xlink:href="class_harlinn_1_1_common_1_1_core_1_1_vector_base.html" target="_top" xlink:title=" ">
<polygon fill="white" stroke="#666666" points="132,-59.5 0,-59.5 0,-18.5 132,-18.5 132,-59.5"/>
<text text-anchor="start" x="8" y="-47.5" font-family="Helvetica,sans-Serif" font-size="10.00">Harlinn::Common::Core</text>
<text text-anchor="start" x="8" y="-36.5" font-family="Helvetica,sans-Serif" font-size="10.00">::VectorBase&lt; T, IteratorT,</text>
<text text-anchor="middle" x="66" y="-25.5" font-family="Helvetica,sans-Serif" font-size="10.00"> ConstIteratorT &gt;</text>
</a>
</g>
</g>
<!-- Node3&#45;&gt;Node2 -->
<g id="edge2_Node000002_Node000003" class="edge">
<title>Node3&#45;&gt;Node2</title>
<g id="a_edge2_Node000002_Node000003"><a xlink:title=" ">
<path fill="none" stroke="orange" stroke-dasharray="5,2" d="M143.9,-39C190.17,-39 249.26,-39 297.54,-39"/>
<polygon fill="orange" stroke="orange" points="143.94,-35.5 133.94,-39 143.94,-42.5 143.94,-35.5"/>
</a>
</g>
<text text-anchor="start" x="150" y="-75" font-family="Helvetica,sans-Serif" font-size="10.00" fill="grey"> &lt; T, Internal::PointerIterator</text>
<text text-anchor="start" x="150" y="-64" font-family="Helvetica,sans-Serif" font-size="10.00" fill="grey">&lt; Vector&lt; T &gt; &gt;, Internal</text>
<text text-anchor="start" x="150" y="-53" font-family="Helvetica,sans-Serif" font-size="10.00" fill="grey">::ConstPointerIterator&lt; Vector</text>
<text text-anchor="middle" x="215" y="-42" font-family="Helvetica,sans-Serif" font-size="10.00" fill="grey">&lt; T &gt; &gt; &gt;</text>
</g>
</g>
</svg>
