<?xml version="1.0" encoding="UTF-8" standalone="no"?>
<!DOCTYPE svg PUBLIC "-//W3C//DTD SVG 1.1//EN"
 "http://www.w3.org/Graphics/SVG/1.1/DTD/svg11.dtd">
<!-- Generated by graphviz version 7.0.1 (20221109.1506)
 -->
<!-- Title: Harlinn::Math::Point&lt; Int32, 3 &gt; Pages: 1 -->
<svg width="647pt" height="122pt"
 viewBox="0.00 0.00 647.00 122.00" xmlns="http://www.w3.org/2000/svg" xmlns:xlink="http://www.w3.org/1999/xlink">
<g id="graph0" class="graph" transform="scale(1 1) rotate(0) translate(4 118)">
<title>Harlinn::Math::Point&lt; Int32, 3 &gt;</title>
<!-- Node1 -->
<g id="Node000001" class="node">
<title>Node1</title>
<g id="a_Node000001"><a xlink:title=" ">
<polygon fill="#999999" stroke="#666666" points="639,-42 536,-42 536,-12 639,-12 639,-42"/>
<text text-anchor="start" x="544" y="-30" font-family="Helvetica,sans-Serif" font-size="10.00">Harlinn::Math::Point</text>
<text text-anchor="middle" x="587.5" y="-19" font-family="Helvetica,sans-Serif" font-size="10.00">&lt; Int32, 3 &gt;</text>
</a>
</g>
</g>
<!-- Node2 -->
<g id="Node000002" class="node">
<title>Node2</title>
<g id="a_Node000002"><a xlink:href="class_harlinn_1_1_math_1_1_tuple3.html" target="_top" xlink:title=" ">
<polygon fill="white" stroke="#666666" points="497.5,-89.5 388.5,-89.5 388.5,-48.5 497.5,-48.5 497.5,-89.5"/>
<text text-anchor="start" x="396.5" y="-77.5" font-family="Helvetica,sans-Serif" font-size="10.00">Harlinn::Math::Tuple3</text>
<text text-anchor="start" x="396.5" y="-66.5" font-family="Helvetica,sans-Serif" font-size="10.00">&lt; Point&lt; Int32, 3 &gt;,</text>
<text text-anchor="middle" x="443" y="-55.5" font-family="Helvetica,sans-Serif" font-size="10.00"> Int32 &gt;</text>
</a>
</g>
</g>
<!-- Node2&#45;&gt;Node1 -->
<g id="edge1_Node000001_Node000002" class="edge">
<title>Node2&#45;&gt;Node1</title>
<g id="a_edge1_Node000001_Node000002"><a xlink:title=" ">
<path fill="none" stroke="#63b8ff" d="M508.82,-49.89C517.89,-47.22 527.09,-44.51 535.84,-41.93"/>
<polygon fill="#63b8ff" stroke="#63b8ff" points="507.93,-46.51 499.32,-52.69 509.91,-53.22 507.93,-46.51"/>
</a>
</g>
</g>
<!-- Node3 -->
<g id="Node000003" class="node">
<title>Node3</title>
<g id="a_Node000003"><a xlink:href="struct_harlinn_1_1_math_1_1_internal_1_1_tuple_base.html" target="_top" xlink:title=" ">
<polygon fill="white" stroke="#666666" points="112,-114 0,-114 0,-84 112,-84 112,-114"/>
<text text-anchor="start" x="8" y="-102" font-family="Helvetica,sans-Serif" font-size="10.00">Harlinn::Math::Internal</text>
<text text-anchor="middle" x="56" y="-91" font-family="Helvetica,sans-Serif" font-size="10.00">::TupleBase</text>
</a>
</g>
</g>
<!-- Node3&#45;&gt;Node2 -->
<g id="edge2_Node000002_Node000003" class="edge">
<title>Node3&#45;&gt;Node2</title>
<g id="a_edge2_Node000002_Node000003"><a xlink:title=" ">
<path fill="none" stroke="#63b8ff" d="M123.93,-104.44C187.52,-108.13 285.55,-109.97 369,-95 375.75,-93.79 382.71,-92.03 389.53,-89.99"/>
<polygon fill="#63b8ff" stroke="#63b8ff" points="124.18,-100.95 113.98,-103.83 123.75,-107.94 124.18,-100.95"/>
</a>
</g>
</g>
<!-- Node5 -->
<g id="Node000005" class="node">
<title>Node5</title>
<g id="a_Node000005"><a xlink:href="class_harlinn_1_1_math_1_1_tuple3.html" target="_top" xlink:title=" ">
<polygon fill="white" stroke="#666666" points="266,-84 157,-84 157,-54 266,-54 266,-84"/>
<text text-anchor="start" x="165" y="-72" font-family="Helvetica,sans-Serif" font-size="10.00">Harlinn::Math::Tuple3</text>
<text text-anchor="middle" x="211.5" y="-61" font-family="Helvetica,sans-Serif" font-size="10.00">&lt; DerivedT, T &gt;</text>
</a>
</g>
</g>
<!-- Node3&#45;&gt;Node5 -->
<g id="edge5_Node000005_Node000003" class="edge">
<title>Node3&#45;&gt;Node5</title>
<g id="a_edge5_Node000005_Node000003"><a xlink:title=" ">
<path fill="none" stroke="#63b8ff" d="M123.41,-86.02C134.53,-83.85 145.95,-81.62 156.71,-79.51"/>
<polygon fill="#63b8ff" stroke="#63b8ff" points="123.05,-82.53 113.9,-87.88 124.39,-89.4 123.05,-82.53"/>
</a>
</g>
</g>
<!-- Node4 -->
<g id="Node000004" class="node">
<title>Node4</title>
<g id="a_Node000004"><a xlink:title=" ">
<polygon fill="white" stroke="#666666" points="70.5,-30.5 41.5,-30.5 41.5,-11.5 70.5,-11.5 70.5,-30.5"/>
<text text-anchor="middle" x="56" y="-18.5" font-family="Helvetica,sans-Serif" font-size="10.00">T</text>
</a>
</g>
</g>
<!-- Node4&#45;&gt;Node2 -->
<g id="edge3_Node000002_Node000004" class="edge">
<title>Node4&#45;&gt;Node2</title>
<g id="a_edge3_Node000002_Node000004"><a xlink:title=" ">
<path fill="none" stroke="#9a32cd" stroke-dasharray="5,2" d="M82.2,-18.1C102.4,-15.93 131.48,-13.15 157,-12 205.4,-9.83 218.15,-4.44 266,-12 309.62,-18.89 357.16,-34.82 391.82,-48.09"/>
<polygon fill="#9a32cd" stroke="#9a32cd" points="81.94,-14.61 72.39,-19.19 82.71,-21.57 81.94,-14.61"/>
</a>
</g>
<text text-anchor="middle" x="211.5" y="-37" font-family="Helvetica,sans-Serif" font-size="10.00" fill="grey"> x</text>
<text text-anchor="middle" x="211.5" y="-26" font-family="Helvetica,sans-Serif" font-size="10.00" fill="grey">y</text>
<text text-anchor="middle" x="211.5" y="-15" font-family="Helvetica,sans-Serif" font-size="10.00" fill="grey">z</text>
</g>
<!-- Node4&#45;&gt;Node5 -->
<g id="edge6_Node000005_Node000004" class="edge">
<title>Node4&#45;&gt;Node5</title>
<g id="a_edge6_Node000005_Node000004"><a xlink:title=" ">
<path fill="none" stroke="#9a32cd" stroke-dasharray="5,2" d="M81.72,-28.43C98.01,-33.35 119.8,-39.99 139,-46 146.71,-48.42 154.89,-51.01 162.84,-53.56"/>
<polygon fill="#9a32cd" stroke="#9a32cd" points="82.98,-25.15 72.4,-25.62 80.96,-31.86 82.98,-25.15"/>
</a>
</g>
<text text-anchor="middle" x="134.5" y="-71" font-family="Helvetica,sans-Serif" font-size="10.00" fill="grey"> x</text>
<text text-anchor="middle" x="134.5" y="-60" font-family="Helvetica,sans-Serif" font-size="10.00" fill="grey">y</text>
<text text-anchor="middle" x="134.5" y="-49" font-family="Helvetica,sans-Serif" font-size="10.00" fill="grey">z</text>
</g>
<!-- Node5&#45;&gt;Node2 -->
<g id="edge4_Node000002_Node000005" class="edge">
<title>Node5&#45;&gt;Node2</title>
<g id="a_edge4_Node000002_Node000005"><a xlink:title=" ">
<path fill="none" stroke="orange" stroke-dasharray="5,2" d="M277.37,-69C312.35,-69 355.01,-69 388.13,-69"/>
<polygon fill="orange" stroke="orange" points="277.82,-65.5 267.82,-69 277.82,-72.5 277.82,-65.5"/>
</a>
</g>
<text text-anchor="start" x="284" y="-83" font-family="Helvetica,sans-Serif" font-size="10.00" fill="grey"> &lt; Point&lt; Int32, 3 &gt;</text>
<text text-anchor="middle" x="326.5" y="-72" font-family="Helvetica,sans-Serif" font-size="10.00" fill="grey">, Int32 &gt;</text>
</g>
<!-- Node6 -->
<g id="Node000006" class="node">
<title>Node6</title>
<g id="a_Node000006"><a xlink:href="struct_harlinn_1_1_math_1_1_internal_1_1_point_base.html" target="_top" xlink:title=" ">
<polygon fill="white" stroke="#666666" points="499,-30 387,-30 387,0 499,0 499,-30"/>
<text text-anchor="start" x="395" y="-18" font-family="Helvetica,sans-Serif" font-size="10.00">Harlinn::Math::Internal</text>
<text text-anchor="middle" x="443" y="-7" font-family="Helvetica,sans-Serif" font-size="10.00">::PointBase</text>
</a>
</g>
</g>
<!-- Node6&#45;&gt;Node1 -->
<g id="edge7_Node000001_Node000006" class="edge">
<title>Node6&#45;&gt;Node1</title>
<g id="a_edge7_Node000001_Node000006"><a xlink:title=" ">
<path fill="none" stroke="#63b8ff" d="M510.55,-20.6C519.02,-21.32 527.58,-22.04 535.75,-22.73"/>
<polygon fill="#63b8ff" stroke="#63b8ff" points="510.86,-17.12 500.6,-19.77 510.27,-24.09 510.86,-17.12"/>
</a>
</g>
</g>
</g>
</svg>
