<?xml version="1.0" encoding="UTF-8" standalone="no"?>
<!DOCTYPE svg PUBLIC "-//W3C//DTD SVG 1.1//EN"
 "http://www.w3.org/Graphics/SVG/1.1/DTD/svg11.dtd">
<!-- Generated by graphviz version 7.0.1 (20221109.1506)
 -->
<!-- Title: Harlinn::Common::Core::Bits&lt; bitCount &gt; Pages: 1 -->
<svg width="166pt" height="181pt"
 viewBox="0.00 0.00 166.00 181.00" xmlns="http://www.w3.org/2000/svg" xmlns:xlink="http://www.w3.org/1999/xlink">
<g id="graph0" class="graph" transform="scale(1 1) rotate(0) translate(4 177)">
<title>Harlinn::Common::Core::Bits&lt; bitCount &gt;</title>
<!-- Node1 -->
<g id="Node000001" class="node">
<title>Node1</title>
<g id="a_Node000001"><a xlink:title="A type that holds a fixed number of bits.">
<polygon fill="#999999" stroke="#666666" points="138,-30 20,-30 20,0 138,0 138,-30"/>
<text text-anchor="start" x="28" y="-18" font-family="Helvetica,sans-Serif" font-size="10.00">Harlinn::Common::Core</text>
<text text-anchor="middle" x="79" y="-7" font-family="Helvetica,sans-Serif" font-size="10.00">::Bits&lt; bitCount &gt;</text>
</a>
</g>
</g>
<!-- Node2 -->
<g id="Node000002" class="node">
<title>Node2</title>
<g id="a_Node000002"><a xlink:href="struct_harlinn_1_1_common_1_1_bit_mask.html" target="_top" xlink:title=" ">
<polygon fill="white" stroke="#666666" points="146,-107 12,-107 12,-77 146,-77 146,-107"/>
<text text-anchor="start" x="20" y="-95" font-family="Helvetica,sans-Serif" font-size="10.00">Harlinn::Common::BitMask</text>
<text text-anchor="middle" x="79" y="-84" font-family="Helvetica,sans-Serif" font-size="10.00">&lt; Size &gt;</text>
</a>
</g>
</g>
<!-- Node2&#45;&gt;Node1 -->
<g id="edge1_Node000001_Node000002" class="edge">
<title>Node2&#45;&gt;Node1</title>
<g id="a_edge1_Node000001_Node000002"><a xlink:title=" ">
<path fill="none" stroke="#9a32cd" stroke-dasharray="5,2" d="M79,-65.23C79,-53.58 79,-40.26 79,-30.42"/>
<polygon fill="#9a32cd" stroke="#9a32cd" points="75.5,-65.03 79,-75.03 82.5,-65.03 75.5,-65.03"/>
</a>
</g>
<text text-anchor="middle" x="94.5" y="-51" font-family="Helvetica,sans-Serif" font-size="10.00" fill="grey"> value_</text>
</g>
<!-- Node3 -->
<g id="Node000003" class="node">
<title>Node3</title>
<g id="a_Node000003"><a xlink:href="struct_harlinn_1_1_common_1_1_bit_mask.html" target="_top" xlink:title=" ">
<polygon fill="white" stroke="#666666" points="158,-173 0,-173 0,-154 158,-154 158,-173"/>
<text text-anchor="middle" x="79" y="-161" font-family="Helvetica,sans-Serif" font-size="10.00">Harlinn::Common::BitMask&lt; N &gt;</text>
</a>
</g>
</g>
<!-- Node3&#45;&gt;Node2 -->
<g id="edge2_Node000002_Node000003" class="edge">
<title>Node3&#45;&gt;Node2</title>
<g id="a_edge2_Node000002_Node000003"><a xlink:title=" ">
<path fill="none" stroke="orange" stroke-dasharray="5,2" d="M79,-142.39C79,-131.15 79,-117.41 79,-107.27"/>
<polygon fill="orange" stroke="orange" points="75.5,-142.18 79,-152.18 82.5,-142.18 75.5,-142.18"/>
</a>
</g>
<text text-anchor="middle" x="99.5" y="-128" font-family="Helvetica,sans-Serif" font-size="10.00" fill="grey"> &lt; Size &gt;</text>
</g>
</g>
</svg>
