<?xml version="1.0" encoding="UTF-8" standalone="no"?>
<!DOCTYPE svg PUBLIC "-//W3C//DTD SVG 1.1//EN"
 "http://www.w3.org/Graphics/SVG/1.1/DTD/svg11.dtd">
<!-- Generated by graphviz version 7.0.1 (20221109.1506)
 -->
<!-- Title: Harlinn::Common::Core::Math::BiasedExponent&lt; T &gt; Pages: 1 -->
<svg width="153pt" height="182pt"
 viewBox="0.00 0.00 153.00 182.00" xmlns="http://www.w3.org/2000/svg" xmlns:xlink="http://www.w3.org/1999/xlink">
<g id="graph0" class="graph" transform="scale(1 1) rotate(0) translate(4 178)">
<title>Harlinn::Common::Core::Math::BiasedExponent&lt; T &gt;</title>
<!-- Node1 -->
<g id="Node000001" class="node">
<title>Node1</title>
<g id="a_Node000001"><a xlink:title="Holds the value of the biased exponent part of a floating point value.">
<polygon fill="#999999" stroke="#666666" points="145,-30 0,-30 0,0 145,0 145,-30"/>
<text text-anchor="start" x="8" y="-18" font-family="Helvetica,sans-Serif" font-size="10.00">Harlinn::Common::Core</text>
<text text-anchor="middle" x="72.5" y="-7" font-family="Helvetica,sans-Serif" font-size="10.00">::Math::BiasedExponent&lt; T &gt;</text>
</a>
</g>
</g>
<!-- Node2 -->
<g id="Node000002" class="node">
<title>Node2</title>
<g id="a_Node000002"><a xlink:href="class_harlinn_1_1_common_1_1_core_1_1_integer.html" target="_top" xlink:title=" ">
<polygon fill="white" stroke="#666666" points="131.5,-97 13.5,-97 13.5,-67 131.5,-67 131.5,-97"/>
<text text-anchor="start" x="21.5" y="-85" font-family="Helvetica,sans-Serif" font-size="10.00">Harlinn::Common::Core</text>
<text text-anchor="middle" x="72.5" y="-74" font-family="Helvetica,sans-Serif" font-size="10.00">::Integer&lt; Int32 &gt;</text>
</a>
</g>
</g>
<!-- Node2&#45;&gt;Node1 -->
<g id="edge1_Node000001_Node000002" class="edge">
<title>Node2&#45;&gt;Node1</title>
<g id="a_edge1_Node000001_Node000002"><a xlink:title=" ">
<path fill="none" stroke="#63b8ff" d="M72.5,-55.28C72.5,-46.81 72.5,-37.7 72.5,-30.39"/>
<polygon fill="#63b8ff" stroke="#63b8ff" points="69,-55.06 72.5,-65.06 76,-55.06 69,-55.06"/>
</a>
</g>
</g>
<!-- Node3 -->
<g id="Node000003" class="node">
<title>Node3</title>
<g id="a_Node000003"><a xlink:href="class_harlinn_1_1_common_1_1_core_1_1_integer.html" target="_top" xlink:title="A typed wrapper for integral types.">
<polygon fill="white" stroke="#666666" points="131.5,-174 13.5,-174 13.5,-144 131.5,-144 131.5,-174"/>
<text text-anchor="start" x="21.5" y="-162" font-family="Helvetica,sans-Serif" font-size="10.00">Harlinn::Common::Core</text>
<text text-anchor="middle" x="72.5" y="-151" font-family="Helvetica,sans-Serif" font-size="10.00">::Integer&lt; T &gt;</text>
</a>
</g>
</g>
<!-- Node3&#45;&gt;Node2 -->
<g id="edge2_Node000002_Node000003" class="edge">
<title>Node3&#45;&gt;Node2</title>
<g id="a_edge2_Node000002_Node000003"><a xlink:title=" ">
<path fill="none" stroke="orange" stroke-dasharray="5,2" d="M72.5,-132.23C72.5,-120.58 72.5,-107.26 72.5,-97.42"/>
<polygon fill="orange" stroke="orange" points="69,-132.03 72.5,-142.03 76,-132.03 69,-132.03"/>
</a>
</g>
<text text-anchor="middle" x="94" y="-118" font-family="Helvetica,sans-Serif" font-size="10.00" fill="grey"> &lt; Int32 &gt;</text>
</g>
</g>
</svg>
