<?xml version="1.0" encoding="UTF-8" standalone="no"?>
<!DOCTYPE svg PUBLIC "-//W3C//DTD SVG 1.1//EN"
 "http://www.w3.org/Graphics/SVG/1.1/DTD/svg11.dtd">
<!-- Generated by graphviz version 7.0.1 (20221109.1506)
 -->
<!-- Title: Harlinn::Common::Core::Math::Vector&lt; Int32, 3 &gt; Pages: 1 -->
<svg width="755pt" height="99pt"
 viewBox="0.00 0.00 755.00 99.00" xmlns="http://www.w3.org/2000/svg" xmlns:xlink="http://www.w3.org/1999/xlink">
<g id="graph0" class="graph" transform="scale(1 1) rotate(0) translate(4 95)">
<title>Harlinn::Common::Core::Math::Vector&lt; Int32, 3 &gt;</title>
<!-- Node1 -->
<g id="Node000001" class="node">
<title>Node1</title>
<g id="a_Node000001"><a xlink:title=" ">
<polygon fill="#999999" stroke="#666666" points="747,-42 618,-42 618,-12 747,-12 747,-42"/>
<text text-anchor="start" x="626" y="-30" font-family="Helvetica,sans-Serif" font-size="10.00">Harlinn::Common::Core</text>
<text text-anchor="middle" x="682.5" y="-19" font-family="Helvetica,sans-Serif" font-size="10.00">::Math::Vector&lt; Int32, 3 &gt;</text>
</a>
</g>
</g>
<!-- Node2 -->
<g id="Node000002" class="node">
<title>Node2</title>
<g id="a_Node000002"><a xlink:href="class_harlinn_1_1_common_1_1_core_1_1_math_1_1_tuple3.html" target="_top" xlink:title=" ">
<polygon fill="white" stroke="#666666" points="570.5,-89.5 452.5,-89.5 452.5,-48.5 570.5,-48.5 570.5,-89.5"/>
<text text-anchor="start" x="460.5" y="-77.5" font-family="Helvetica,sans-Serif" font-size="10.00">Harlinn::Common::Core</text>
<text text-anchor="start" x="460.5" y="-66.5" font-family="Helvetica,sans-Serif" font-size="10.00">::Math::Tuple3&lt; Vector</text>
<text text-anchor="middle" x="511.5" y="-55.5" font-family="Helvetica,sans-Serif" font-size="10.00">&lt; Int32, 3 &gt;, Int32 &gt;</text>
</a>
</g>
</g>
<!-- Node2&#45;&gt;Node1 -->
<g id="edge1_Node000001_Node000002" class="edge">
<title>Node2&#45;&gt;Node1</title>
<g id="a_edge1_Node000001_Node000002"><a xlink:title=" ">
<path fill="none" stroke="#63b8ff" d="M581.48,-51.86C593.96,-48.75 606.92,-45.54 619.19,-42.48"/>
<polygon fill="#63b8ff" stroke="#63b8ff" points="580.99,-48.37 572.13,-54.18 582.68,-55.17 580.99,-48.37"/>
</a>
</g>
</g>
<!-- Node3 -->
<g id="Node000003" class="node">
<title>Node3</title>
<g id="a_Node000003"><a xlink:href="struct_harlinn_1_1_common_1_1_core_1_1_math_1_1_internal_1_1_tuple_base.html" target="_top" xlink:title=" ">
<polygon fill="white" stroke="#666666" points="134,-91 0,-91 0,-61 134,-61 134,-91"/>
<text text-anchor="start" x="8" y="-79" font-family="Helvetica,sans-Serif" font-size="10.00">Harlinn::Common::Core</text>
<text text-anchor="middle" x="67" y="-68" font-family="Helvetica,sans-Serif" font-size="10.00">::Math::Internal::TupleBase</text>
</a>
</g>
</g>
<!-- Node3&#45;&gt;Node2 -->
<g id="edge2_Node000002_Node000003" class="edge">
<title>Node3&#45;&gt;Node2</title>
<g id="a_edge2_Node000002_Node000003"><a xlink:title=" ">
<path fill="none" stroke="#63b8ff" d="M145.53,-77.26C217.67,-78.09 328.14,-78.46 424,-75 433.18,-74.67 442.89,-74.16 452.37,-73.56"/>
<polygon fill="#63b8ff" stroke="#63b8ff" points="145.85,-73.77 135.81,-77.15 145.76,-80.77 145.85,-73.77"/>
</a>
</g>
</g>
<!-- Node4 -->
<g id="Node000004" class="node">
<title>Node4</title>
<g id="a_Node000004"><a xlink:href="class_harlinn_1_1_common_1_1_core_1_1_math_1_1_tuple3.html" target="_top" xlink:title=" ">
<polygon fill="white" stroke="#666666" points="324,-61 179,-61 179,-31 324,-31 324,-61"/>
<text text-anchor="start" x="187" y="-49" font-family="Helvetica,sans-Serif" font-size="10.00">Harlinn::Common::Core</text>
<text text-anchor="middle" x="251.5" y="-38" font-family="Helvetica,sans-Serif" font-size="10.00">::Math::Tuple3&lt; DerivedT, T &gt;</text>
</a>
</g>
</g>
<!-- Node3&#45;&gt;Node4 -->
<g id="edge4_Node000004_Node000003" class="edge">
<title>Node3&#45;&gt;Node4</title>
<g id="a_edge4_Node000004_Node000003"><a xlink:title=" ">
<path fill="none" stroke="#63b8ff" d="M145.67,-63.23C156.6,-61.44 167.79,-59.6 178.6,-57.82"/>
<polygon fill="#63b8ff" stroke="#63b8ff" points="145.2,-59.76 135.9,-64.84 146.33,-66.67 145.2,-59.76"/>
</a>
</g>
</g>
<!-- Node4&#45;&gt;Node2 -->
<g id="edge3_Node000002_Node000004" class="edge">
<title>Node4&#45;&gt;Node2</title>
<g id="a_edge3_Node000002_Node000004"><a xlink:title=" ">
<path fill="none" stroke="orange" stroke-dasharray="5,2" d="M335.83,-47.02C363.91,-48 395.37,-49.78 424,-53 433.11,-54.02 442.7,-55.45 452.04,-57.02"/>
<polygon fill="orange" stroke="orange" points="336.05,-43.53 325.95,-46.71 335.83,-50.52 336.05,-43.53"/>
</a>
</g>
<text text-anchor="start" x="342" y="-67" font-family="Helvetica,sans-Serif" font-size="10.00" fill="grey"> &lt; Vector&lt; Int32, 3</text>
<text text-anchor="middle" x="383" y="-56" font-family="Helvetica,sans-Serif" font-size="10.00" fill="grey"> &gt;, Int32 &gt;</text>
</g>
<!-- Node5 -->
<g id="Node000005" class="node">
<title>Node5</title>
<g id="a_Node000005"><a xlink:title=" ">
<polygon fill="white" stroke="#666666" points="81.5,-25.5 52.5,-25.5 52.5,-6.5 81.5,-6.5 81.5,-25.5"/>
<text text-anchor="middle" x="67" y="-13.5" font-family="Helvetica,sans-Serif" font-size="10.00">T</text>
</a>
</g>
</g>
<!-- Node5&#45;&gt;Node4 -->
<g id="edge5_Node000004_Node000005" class="edge">
<title>Node5&#45;&gt;Node4</title>
<g id="a_edge5_Node000004_Node000005"><a xlink:title=" ">
<path fill="none" stroke="#9a32cd" stroke-dasharray="5,2" d="M93.37,-17.12C112.14,-18.2 138.29,-20.25 161,-24 171.58,-25.74 182.75,-28.08 193.48,-30.58"/>
<polygon fill="#9a32cd" stroke="#9a32cd" points="93.63,-13.63 83.46,-16.6 93.27,-20.62 93.63,-13.63"/>
</a>
</g>
<text text-anchor="middle" x="156.5" y="-49" font-family="Helvetica,sans-Serif" font-size="10.00" fill="grey"> x</text>
<text text-anchor="middle" x="156.5" y="-38" font-family="Helvetica,sans-Serif" font-size="10.00" fill="grey">y</text>
<text text-anchor="middle" x="156.5" y="-27" font-family="Helvetica,sans-Serif" font-size="10.00" fill="grey">z</text>
</g>
<!-- Node6 -->
<g id="Node000006" class="node">
<title>Node6</title>
<g id="a_Node000006"><a xlink:href="struct_harlinn_1_1_common_1_1_core_1_1_math_1_1_internal_1_1_vector_base.html" target="_top" xlink:title=" ">
<polygon fill="white" stroke="#666666" points="581,-30 442,-30 442,0 581,0 581,-30"/>
<text text-anchor="start" x="450" y="-18" font-family="Helvetica,sans-Serif" font-size="10.00">Harlinn::Common::Core</text>
<text text-anchor="middle" x="511.5" y="-7" font-family="Helvetica,sans-Serif" font-size="10.00">::Math::Internal::VectorBase</text>
</a>
</g>
</g>
<!-- Node6&#45;&gt;Node1 -->
<g id="edge6_Node000001_Node000006" class="edge">
<title>Node6&#45;&gt;Node1</title>
<g id="a_edge6_Node000001_Node000006"><a xlink:title=" ">
<path fill="none" stroke="#63b8ff" d="M592.65,-20.69C601.06,-21.29 609.53,-21.89 617.73,-22.47"/>
<polygon fill="#63b8ff" stroke="#63b8ff" points="592.97,-17.21 582.75,-19.99 592.48,-24.19 592.97,-17.21"/>
</a>
</g>
</g>
</g>
</svg>
