<?xml version="1.0" encoding="UTF-8" standalone="no"?>
<!DOCTYPE svg PUBLIC "-//W3C//DTD SVG 1.1//EN"
 "http://www.w3.org/Graphics/SVG/1.1/DTD/svg11.dtd">
<!-- Generated by graphviz version 7.0.1 (20221109.1506)
 -->
<!-- Title: Harlinn::Common::Core::Doxygen::DocInternalS4Type Pages: 1 -->
<svg width="1284pt" height="118pt"
 viewBox="0.00 0.00 1284.00 117.50" xmlns="http://www.w3.org/2000/svg" xmlns:xlink="http://www.w3.org/1999/xlink">
<g id="graph0" class="graph" transform="scale(1 1) rotate(0) translate(4 113.5)">
<title>Harlinn::Common::Core::Doxygen::DocInternalS4Type</title>
<!-- Node1 -->
<g id="Node000001" class="node">
<title>Node1</title>
<g id="a_Node000001"><a xlink:title=" ">
<polygon fill="#999999" stroke="#666666" points="1276,-68 1127,-68 1127,-38 1276,-38 1276,-68"/>
<text text-anchor="start" x="1135" y="-56" font-family="Helvetica,sans-Serif" font-size="10.00">Harlinn::Common::Core</text>
<text text-anchor="middle" x="1201.5" y="-45" font-family="Helvetica,sans-Serif" font-size="10.00">::Doxygen::DocInternalS4Type</text>
</a>
</g>
</g>
<!-- Node2 -->
<g id="Node000002" class="node">
<title>Node2</title>
<g id="a_Node000002"><a xlink:href="class_harlinn_1_1_common_1_1_core_1_1_doxygen_1_1_internal_1_1_doc_internal_section_type.html" target="_top" xlink:title=" ">
<polygon fill="white" stroke="#666666" points="1090,-84.5 927,-84.5 927,-21.5 1090,-21.5 1090,-84.5"/>
<text text-anchor="start" x="935" y="-72.5" font-family="Helvetica,sans-Serif" font-size="10.00">Harlinn::Common::Core</text>
<text text-anchor="start" x="935" y="-61.5" font-family="Helvetica,sans-Serif" font-size="10.00">::Doxygen::Internal::</text>
<text text-anchor="start" x="935" y="-50.5" font-family="Helvetica,sans-Serif" font-size="10.00">DocInternalSectionType</text>
<text text-anchor="start" x="935" y="-39.5" font-family="Helvetica,sans-Serif" font-size="10.00">&lt; Doxygen::DoxType::DocInternal</text>
<text text-anchor="middle" x="1008.5" y="-28.5" font-family="Helvetica,sans-Serif" font-size="10.00">S4Type, DocInternalS5Type &gt;</text>
</a>
</g>
</g>
<!-- Node2&#45;&gt;Node1 -->
<g id="edge1_Node000001_Node000002" class="edge">
<title>Node2&#45;&gt;Node1</title>
<g id="a_edge1_Node000001_Node000002"><a xlink:title=" ">
<path fill="none" stroke="#63b8ff" d="M1101.65,-53C1110.07,-53 1118.52,-53 1126.74,-53"/>
<polygon fill="#63b8ff" stroke="#63b8ff" points="1101.74,-49.5 1091.74,-53 1101.74,-56.5 1101.74,-49.5"/>
</a>
</g>
</g>
<!-- Node3 -->
<g id="Node000003" class="node">
<title>Node3</title>
<g id="a_Node000003"><a xlink:href="class_harlinn_1_1_common_1_1_core_1_1_doxygen_1_1_internal_1_1_doc_internal_section_base_type.html" target="_top" xlink:title=" ">
<polygon fill="white" stroke="#666666" points="639,-79 497,-79 497,-27 639,-27 639,-79"/>
<text text-anchor="start" x="505" y="-67" font-family="Helvetica,sans-Serif" font-size="10.00">Harlinn::Common::Core</text>
<text text-anchor="start" x="505" y="-56" font-family="Helvetica,sans-Serif" font-size="10.00">::Doxygen::Internal::</text>
<text text-anchor="start" x="505" y="-45" font-family="Helvetica,sans-Serif" font-size="10.00">DocInternalSectionBaseType</text>
<text text-anchor="middle" x="568" y="-34" font-family="Helvetica,sans-Serif" font-size="10.00">&lt; doxType &gt;</text>
</a>
</g>
</g>
<!-- Node3&#45;&gt;Node2 -->
<g id="edge2_Node000002_Node000003" class="edge">
<title>Node3&#45;&gt;Node2</title>
<g id="a_edge2_Node000002_Node000003"><a xlink:title=" ">
<path fill="none" stroke="#63b8ff" d="M650.59,-60.87C719.5,-66.37 820.78,-71.8 909,-66 914.77,-65.62 920.71,-65.12 926.69,-64.53"/>
<polygon fill="#63b8ff" stroke="#63b8ff" points="651.15,-57.4 640.89,-60.07 650.57,-64.38 651.15,-57.4"/>
</a>
</g>
</g>
<!-- Node8 -->
<g id="Node000008" class="node">
<title>Node8</title>
<g id="a_Node000008"><a xlink:href="class_harlinn_1_1_common_1_1_core_1_1_doxygen_1_1_internal_1_1_doc_internal_section_type.html" target="_top" xlink:title=" ">
<polygon fill="white" stroke="#666666" points="796,-52 676,-52 676,0 796,0 796,-52"/>
<text text-anchor="start" x="684" y="-40" font-family="Helvetica,sans-Serif" font-size="10.00">Harlinn::Common::Core</text>
<text text-anchor="start" x="684" y="-29" font-family="Helvetica,sans-Serif" font-size="10.00">::Doxygen::Internal::</text>
<text text-anchor="start" x="684" y="-18" font-family="Helvetica,sans-Serif" font-size="10.00">DocInternalSectionType</text>
<text text-anchor="middle" x="736" y="-7" font-family="Helvetica,sans-Serif" font-size="10.00">&lt; doxType, SubSectT &gt;</text>
</a>
</g>
</g>
<!-- Node3&#45;&gt;Node8 -->
<g id="edge8_Node000008_Node000003" class="edge">
<title>Node3&#45;&gt;Node8</title>
<g id="a_edge8_Node000008_Node000003"><a xlink:title=" ">
<path fill="none" stroke="#63b8ff" d="M650.54,-39.74C659.04,-38.35 667.57,-36.97 675.75,-35.64"/>
<polygon fill="#63b8ff" stroke="#63b8ff" points="650.2,-36.25 640.89,-41.31 651.33,-43.16 650.2,-36.25"/>
</a>
</g>
</g>
<!-- Node4 -->
<g id="Node000004" class="node">
<title>Node4</title>
<g id="a_Node000004"><a xlink:href="class_harlinn_1_1_common_1_1_core_1_1_doxygen_1_1_internal_1_1_doc_base.html" target="_top" xlink:title=" ">
<polygon fill="white" stroke="#666666" points="460,-109.5 342,-109.5 342,-68.5 460,-68.5 460,-109.5"/>
<text text-anchor="start" x="350" y="-97.5" font-family="Helvetica,sans-Serif" font-size="10.00">Harlinn::Common::Core</text>
<text text-anchor="start" x="350" y="-86.5" font-family="Helvetica,sans-Serif" font-size="10.00">::Doxygen::Internal::</text>
<text text-anchor="middle" x="401" y="-75.5" font-family="Helvetica,sans-Serif" font-size="10.00">DocBase&lt; doxType &gt;</text>
</a>
</g>
</g>
<!-- Node4&#45;&gt;Node3 -->
<g id="edge3_Node000003_Node000004" class="edge">
<title>Node4&#45;&gt;Node3</title>
<g id="a_edge3_Node000003_Node000004"><a xlink:title=" ">
<path fill="none" stroke="#63b8ff" d="M471.4,-73.86C479.74,-72.04 488.26,-70.18 496.62,-68.36"/>
<polygon fill="#63b8ff" stroke="#63b8ff" points="470.68,-70.43 461.65,-75.99 472.17,-77.27 470.68,-70.43"/>
</a>
</g>
</g>
<!-- Node5 -->
<g id="Node000005" class="node">
<title>Node5</title>
<g id="a_Node000005"><a xlink:href="class_harlinn_1_1_common_1_1_core_1_1_doxygen_1_1_doc_base_type.html" target="_top" xlink:title=" ">
<polygon fill="white" stroke="#666666" points="305,-104 177,-104 177,-74 305,-74 305,-104"/>
<text text-anchor="start" x="185" y="-92" font-family="Helvetica,sans-Serif" font-size="10.00">Harlinn::Common::Core</text>
<text text-anchor="middle" x="241" y="-81" font-family="Helvetica,sans-Serif" font-size="10.00">::Doxygen::DocBaseType</text>
</a>
</g>
</g>
<!-- Node5&#45;&gt;Node4 -->
<g id="edge4_Node000004_Node000005" class="edge">
<title>Node5&#45;&gt;Node4</title>
<g id="a_edge4_Node000004_Node000005"><a xlink:title=" ">
<path fill="none" stroke="#63b8ff" d="M316.73,-89C325.13,-89 333.6,-89 341.75,-89"/>
<polygon fill="#63b8ff" stroke="#63b8ff" points="316.87,-85.5 306.87,-89 316.87,-92.5 316.87,-85.5"/>
</a>
</g>
</g>
<!-- Node6 -->
<g id="Node000006" class="node">
<title>Node6</title>
<g id="a_Node000006"><a xlink:title=" ">
<polygon fill="white" stroke="#666666" points="140,-104 0,-104 0,-74 140,-74 140,-104"/>
<text text-anchor="start" x="8" y="-92" font-family="Helvetica,sans-Serif" font-size="10.00">std::enable_shared</text>
<text text-anchor="middle" x="70" y="-81" font-family="Helvetica,sans-Serif" font-size="10.00">_from_this&lt; DocBaseType &gt;</text>
</a>
</g>
</g>
<!-- Node6&#45;&gt;Node5 -->
<g id="edge5_Node000005_Node000006" class="edge">
<title>Node6&#45;&gt;Node5</title>
<g id="a_edge5_Node000005_Node000006"><a xlink:title=" ">
<path fill="none" stroke="#8b1a1a" d="M151.6,-89C159.99,-89 168.43,-89 176.59,-89"/>
<polygon fill="#8b1a1a" stroke="#8b1a1a" points="151.74,-85.5 141.74,-89 151.74,-92.5 151.74,-85.5"/>
</a>
</g>
</g>
<!-- Node7 -->
<g id="Node000007" class="node">
<title>Node7</title>
<g id="a_Node000007"><a xlink:title=" ">
<polygon fill="white" stroke="#666666" points="443.5,-50.5 358.5,-50.5 358.5,-31.5 443.5,-31.5 443.5,-50.5"/>
<text text-anchor="middle" x="401" y="-38.5" font-family="Helvetica,sans-Serif" font-size="10.00">std::vector&lt; T &gt;</text>
</a>
</g>
</g>
<!-- Node7&#45;&gt;Node3 -->
<g id="edge6_Node000003_Node000007" class="edge">
<title>Node7&#45;&gt;Node3</title>
<g id="a_edge6_Node000003_Node000007"><a xlink:title=" ">
<path fill="none" stroke="#63b8ff" d="M454.99,-44.85C468.3,-45.82 482.8,-46.88 496.81,-47.9"/>
<polygon fill="#63b8ff" stroke="#63b8ff" points="455.37,-41.37 445.15,-44.14 454.87,-48.35 455.37,-41.37"/>
</a>
</g>
</g>
<!-- Node8&#45;&gt;Node2 -->
<g id="edge7_Node000002_Node000008" class="edge">
<title>Node8&#45;&gt;Node2</title>
<g id="a_edge7_Node000002_Node000008"><a xlink:title=" ">
<path fill="none" stroke="orange" stroke-dasharray="5,2" d="M807.69,-26.34C838.85,-27.14 875.84,-28.98 909,-33 914.72,-33.69 920.6,-34.54 926.5,-35.49"/>
<polygon fill="orange" stroke="orange" points="808.08,-22.85 798,-26.12 807.92,-29.84 808.08,-22.85"/>
</a>
</g>
<text text-anchor="start" x="814" y="-58" font-family="Helvetica,sans-Serif" font-size="10.00" fill="grey"> &lt; Doxygen::DoxType</text>
<text text-anchor="start" x="814" y="-47" font-family="Helvetica,sans-Serif" font-size="10.00" fill="grey">::DocInternalS4Type,</text>
<text text-anchor="middle" x="861.5" y="-36" font-family="Helvetica,sans-Serif" font-size="10.00" fill="grey"> DocInternalS5Type &gt;</text>
</g>
</g>
</svg>
