<?xml version="1.0" encoding="UTF-8" standalone="no"?>
<!DOCTYPE svg PUBLIC "-//W3C//DTD SVG 1.1//EN"
 "http://www.w3.org/Graphics/SVG/1.1/DTD/svg11.dtd">
<!-- Generated by graphviz version 7.0.1 (20221109.1506)
 -->
<!-- Title: Harlinn::Common::Core::Internal::LightweightSemaphoreImpl&lt; SemaphoreT, maxSpins &gt; Pages: 1 -->
<svg width="538pt" height="108pt"
 viewBox="0.00 0.00 538.00 108.00" xmlns="http://www.w3.org/2000/svg" xmlns:xlink="http://www.w3.org/1999/xlink">
<g id="graph0" class="graph" transform="scale(1 1) rotate(0) translate(4 104)">
<title>Harlinn::Common::Core::Internal::LightweightSemaphoreImpl&lt; SemaphoreT, maxSpins &gt;</title>
<!-- Node1 -->
<g id="Node000001" class="node">
<title>Node1</title>
<g id="a_Node000001"><a xlink:title="LightweightSemaphoreImpl.">
<polygon fill="#999999" stroke="#666666" points="158,-75.5 0,-75.5 0,-34.5 158,-34.5 158,-75.5"/>
<text text-anchor="start" x="8" y="-63.5" font-family="Helvetica,sans-Serif" font-size="10.00">Harlinn::Common::Core</text>
<text text-anchor="start" x="8" y="-52.5" font-family="Helvetica,sans-Serif" font-size="10.00">::Internal::LightweightSemaphore</text>
<text text-anchor="middle" x="79" y="-41.5" font-family="Helvetica,sans-Serif" font-size="10.00">Impl&lt; SemaphoreT, maxSpins &gt;</text>
</a>
</g>
</g>
<!-- Node2 -->
<g id="Node000002" class="node">
<title>Node2</title>
<g id="a_Node000002"><a xlink:href="class_harlinn_1_1_common_1_1_core_1_1_lightweight_semaphore.html" target="_top" xlink:title=" ">
<polygon fill="white" stroke="#666666" points="495,-100 362,-100 362,-70 495,-70 495,-100"/>
<text text-anchor="start" x="370" y="-88" font-family="Helvetica,sans-Serif" font-size="10.00">Harlinn::Common::Core</text>
<text text-anchor="middle" x="428.5" y="-77" font-family="Helvetica,sans-Serif" font-size="10.00">::LightweightSemaphore&lt;&gt;</text>
</a>
</g>
</g>
<!-- Node1&#45;&gt;Node2 -->
<g id="edge1_Node000001_Node000002" class="edge">
<title>Node1&#45;&gt;Node2</title>
<g id="a_edge1_Node000001_Node000002"><a xlink:title=" ">
<path fill="none" stroke="#63b8ff" d="M169.78,-70.28C171.87,-70.53 173.95,-70.77 176,-71 238.81,-77.96 310.84,-81.52 361.67,-83.31"/>
<polygon fill="#63b8ff" stroke="#63b8ff" points="170.36,-66.82 159.99,-69 169.45,-73.76 170.36,-66.82"/>
</a>
</g>
</g>
<!-- Node3 -->
<g id="Node000003" class="node">
<title>Node3</title>
<g id="a_Node000003"><a xlink:href="class_harlinn_1_1_common_1_1_core_1_1_internal_1_1_lightweight_semaphore_impl.html" target="_top" xlink:title=" ">
<polygon fill="white" stroke="#666666" points="530,-52 327,-52 327,0 530,0 530,-52"/>
<text text-anchor="start" x="335" y="-40" font-family="Helvetica,sans-Serif" font-size="10.00">Harlinn::Common::Core</text>
<text text-anchor="start" x="335" y="-29" font-family="Helvetica,sans-Serif" font-size="10.00">::Internal::LightweightSemaphore</text>
<text text-anchor="start" x="335" y="-18" font-family="Helvetica,sans-Serif" font-size="10.00">Impl&lt; Core::SemaphoreEx, Concurrent</text>
<text text-anchor="middle" x="428.5" y="-7" font-family="Helvetica,sans-Serif" font-size="10.00">QueueDefaultTraits::MAX_SEMA_SPINS &gt;</text>
</a>
</g>
</g>
<!-- Node1&#45;&gt;Node3 -->
<g id="edge2_Node000001_Node000003" class="edge">
<title>Node1&#45;&gt;Node3</title>
<g id="a_edge2_Node000001_Node000003"><a xlink:title=" ">
<path fill="none" stroke="orange" stroke-dasharray="5,2" d="M169.77,-38.74C171.87,-38.48 173.94,-38.23 176,-38 225.41,-32.47 280.57,-29.48 326.61,-27.87"/>
<polygon fill="orange" stroke="orange" points="169.41,-35.26 159.97,-40.06 170.35,-42.19 169.41,-35.26"/>
</a>
</g>
<text text-anchor="start" x="176" y="-63" font-family="Helvetica,sans-Serif" font-size="10.00" fill="grey"> &lt; Core::SemaphoreEx,</text>
<text text-anchor="start" x="176" y="-52" font-family="Helvetica,sans-Serif" font-size="10.00" fill="grey"> ConcurrentQueueDefaultTraits</text>
<text text-anchor="middle" x="242.5" y="-41" font-family="Helvetica,sans-Serif" font-size="10.00" fill="grey">::MAX_SEMA_SPINS &gt;</text>
</g>
</g>
</svg>
