<?xml version="1.0" encoding="UTF-8" standalone="no"?>
<!DOCTYPE svg PUBLIC "-//W3C//DTD SVG 1.1//EN"
 "http://www.w3.org/Graphics/SVG/1.1/DTD/svg11.dtd">
<!-- Generated by graphviz version 7.0.1 (20221109.1506)
 -->
<!-- Title: Harlinn::Common::Core::Security::AccessMaskT&lt; DerivedT, RightsT &gt; Pages: 1 -->
<svg width="892pt" height="806pt"
 viewBox="0.00 0.00 892.00 806.00" xmlns="http://www.w3.org/2000/svg" xmlns:xlink="http://www.w3.org/1999/xlink">
<g id="graph0" class="graph" transform="scale(1 1) rotate(0) translate(4 802)">
<title>Harlinn::Common::Core::Security::AccessMaskT&lt; DerivedT, RightsT &gt;</title>
<!-- Node1 -->
<g id="Node000001" class="node">
<title>Node1</title>
<g id="a_Node000001"><a xlink:title=" ">
<polygon fill="#999999" stroke="#666666" points="286,-424.5 159,-424.5 159,-383.5 286,-383.5 286,-424.5"/>
<text text-anchor="start" x="167" y="-412.5" font-family="Helvetica,sans-Serif" font-size="10.00">Harlinn::Common::Core</text>
<text text-anchor="start" x="167" y="-401.5" font-family="Helvetica,sans-Serif" font-size="10.00">::Security::AccessMaskT</text>
<text text-anchor="middle" x="222.5" y="-390.5" font-family="Helvetica,sans-Serif" font-size="10.00">&lt; DerivedT, RightsT &gt;</text>
</a>
</g>
</g>
<!-- Node3 -->
<g id="Node000003" class="node">
<title>Node3</title>
<g id="a_Node000003"><a xlink:href="class_harlinn_1_1_common_1_1_core_1_1_security_1_1_access_mask_t.html" target="_top" xlink:title=" ">
<polygon fill="white" stroke="#666666" points="663.5,-790 503.5,-790 503.5,-738 663.5,-738 663.5,-790"/>
<text text-anchor="start" x="511.5" y="-778" font-family="Helvetica,sans-Serif" font-size="10.00">Harlinn::Common::Core</text>
<text text-anchor="start" x="511.5" y="-767" font-family="Helvetica,sans-Serif" font-size="10.00">::Security::AccessMaskT</text>
<text text-anchor="start" x="511.5" y="-756" font-family="Helvetica,sans-Serif" font-size="10.00">&lt; EventWaitHandleAccessMask,</text>
<text text-anchor="middle" x="583.5" y="-745" font-family="Helvetica,sans-Serif" font-size="10.00"> EventWaitHandleRights &gt;</text>
</a>
</g>
</g>
<!-- Node1&#45;&gt;Node3 -->
<g id="edge2_Node000001_Node000003" class="edge">
<title>Node1&#45;&gt;Node3</title>
<g id="a_edge2_Node000001_Node000003"><a xlink:title=" ">
<path fill="none" stroke="orange" stroke-dasharray="5,2" d="M226.98,-436.01C235.65,-509.54 260.71,-687.2 304,-726 357.42,-773.88 441.32,-779.3 503.08,-775.24"/>
<polygon fill="orange" stroke="orange" points="230.48,-435.77 225.86,-426.24 223.52,-436.57 230.48,-435.77"/>
</a>
</g>
<text text-anchor="start" x="312" y="-790" font-family="Helvetica,sans-Serif" font-size="10.00" fill="grey"> &lt; EventWaitHandleAccessMask,</text>
<text text-anchor="middle" x="385.5" y="-779" font-family="Helvetica,sans-Serif" font-size="10.00" fill="grey"> EventWaitHandleRights &gt;</text>
</g>
<!-- Node5 -->
<g id="Node000005" class="node">
<title>Node5</title>
<g id="a_Node000005"><a xlink:href="class_harlinn_1_1_common_1_1_core_1_1_security_1_1_access_mask_t.html" target="_top" xlink:title=" ">
<polygon fill="white" stroke="#666666" points="647.5,-720 519.5,-720 519.5,-668 647.5,-668 647.5,-720"/>
<text text-anchor="start" x="527.5" y="-708" font-family="Helvetica,sans-Serif" font-size="10.00">Harlinn::Common::Core</text>
<text text-anchor="start" x="527.5" y="-697" font-family="Helvetica,sans-Serif" font-size="10.00">::Security::AccessMaskT</text>
<text text-anchor="start" x="527.5" y="-686" font-family="Helvetica,sans-Serif" font-size="10.00">&lt; DirectoryAccessMask,</text>
<text text-anchor="middle" x="583.5" y="-675" font-family="Helvetica,sans-Serif" font-size="10.00"> DirectoryAccessRights &gt;</text>
</a>
</g>
</g>
<!-- Node1&#45;&gt;Node5 -->
<g id="edge4_Node000001_Node000005" class="edge">
<title>Node1&#45;&gt;Node5</title>
<g id="a_edge4_Node000001_Node000005"><a xlink:title=" ">
<path fill="none" stroke="orange" stroke-dasharray="5,2" d="M223.73,-435.87C225.97,-489.64 238.86,-597.9 304,-653 363.61,-703.42 457.27,-706.88 519.28,-702.35"/>
<polygon fill="orange" stroke="orange" points="227.23,-436.05 223.43,-426.16 220.24,-436.27 227.23,-436.05"/>
</a>
</g>
<text text-anchor="start" x="329.5" y="-717" font-family="Helvetica,sans-Serif" font-size="10.00" fill="grey"> &lt; DirectoryAccessMask,</text>
<text text-anchor="middle" x="385.5" y="-706" font-family="Helvetica,sans-Serif" font-size="10.00" fill="grey"> DirectoryAccessRights &gt;</text>
</g>
<!-- Node7 -->
<g id="Node000007" class="node">
<title>Node7</title>
<g id="a_Node000007"><a xlink:href="class_harlinn_1_1_common_1_1_core_1_1_security_1_1_access_mask_t.html" target="_top" xlink:title=" ">
<polygon fill="white" stroke="#666666" points="678.5,-649.5 488.5,-649.5 488.5,-608.5 678.5,-608.5 678.5,-649.5"/>
<text text-anchor="start" x="496.5" y="-637.5" font-family="Helvetica,sans-Serif" font-size="10.00">Harlinn::Common::Core</text>
<text text-anchor="start" x="496.5" y="-626.5" font-family="Helvetica,sans-Serif" font-size="10.00">::Security::AccessMaskT</text>
<text text-anchor="middle" x="583.5" y="-615.5" font-family="Helvetica,sans-Serif" font-size="10.00">&lt; FileAccessMask, FileAccessRights &gt;</text>
</a>
</g>
</g>
<!-- Node1&#45;&gt;Node7 -->
<g id="edge6_Node000001_Node000007" class="edge">
<title>Node1&#45;&gt;Node7</title>
<g id="a_edge6_Node000001_Node000007"><a xlink:title=" ">
<path fill="none" stroke="orange" stroke-dasharray="5,2" d="M226.89,-436.08C233.42,-480.31 252.05,-558.98 304,-598 332.4,-619.33 418.99,-626.41 488.16,-628.56"/>
<polygon fill="orange" stroke="orange" points="230.38,-435.78 225.59,-426.34 223.45,-436.71 230.38,-435.78"/>
</a>
</g>
<text text-anchor="start" x="315.5" y="-641" font-family="Helvetica,sans-Serif" font-size="10.00" fill="grey"> &lt; FileAccessMask, FileAccess</text>
<text text-anchor="middle" x="385.5" y="-630" font-family="Helvetica,sans-Serif" font-size="10.00" fill="grey">Rights &gt;</text>
</g>
<!-- Node9 -->
<g id="Node000009" class="node">
<title>Node9</title>
<g id="a_Node000009"><a xlink:href="class_harlinn_1_1_common_1_1_core_1_1_security_1_1_access_mask_t.html" target="_top" xlink:title=" ">
<polygon fill="white" stroke="#666666" points="682,-590.5 485,-590.5 485,-549.5 682,-549.5 682,-590.5"/>
<text text-anchor="start" x="493" y="-578.5" font-family="Helvetica,sans-Serif" font-size="10.00">Harlinn::Common::Core</text>
<text text-anchor="start" x="493" y="-567.5" font-family="Helvetica,sans-Serif" font-size="10.00">::Security::AccessMaskT</text>
<text text-anchor="middle" x="583.5" y="-556.5" font-family="Helvetica,sans-Serif" font-size="10.00">&lt; PipeAccessMask, PipeAccessRights &gt;</text>
</a>
</g>
</g>
<!-- Node1&#45;&gt;Node9 -->
<g id="edge8_Node000001_Node000009" class="edge">
<title>Node1&#45;&gt;Node9</title>
<g id="a_edge8_Node000001_Node000009"><a xlink:title=" ">
<path fill="none" stroke="orange" stroke-dasharray="5,2" d="M235.29,-434.97C247.83,-463.46 270.51,-504.44 304,-526 357.3,-560.32 427.94,-571.18 484.74,-573.53"/>
<polygon fill="orange" stroke="orange" points="238.67,-433.99 231.57,-426.13 232.22,-436.71 238.67,-433.99"/>
</a>
</g>
<text text-anchor="start" x="311.5" y="-586" font-family="Helvetica,sans-Serif" font-size="10.00" fill="grey"> &lt; PipeAccessMask, PipeAccess</text>
<text text-anchor="middle" x="385.5" y="-575" font-family="Helvetica,sans-Serif" font-size="10.00" fill="grey">Rights &gt;</text>
</g>
<!-- Node11 -->
<g id="Node000011" class="node">
<title>Node11</title>
<g id="a_Node000011"><a xlink:href="class_harlinn_1_1_common_1_1_core_1_1_security_1_1_access_mask_t.html" target="_top" xlink:title=" ">
<polygon fill="white" stroke="#666666" points="673,-531.5 494,-531.5 494,-490.5 673,-490.5 673,-531.5"/>
<text text-anchor="start" x="502" y="-519.5" font-family="Helvetica,sans-Serif" font-size="10.00">Harlinn::Common::Core</text>
<text text-anchor="start" x="502" y="-508.5" font-family="Helvetica,sans-Serif" font-size="10.00">::Security::AccessMaskT</text>
<text text-anchor="middle" x="583.5" y="-497.5" font-family="Helvetica,sans-Serif" font-size="10.00">&lt; MutexAccessMask, MutexRights &gt;</text>
</a>
</g>
</g>
<!-- Node1&#45;&gt;Node11 -->
<g id="edge10_Node000001_Node000011" class="edge">
<title>Node1&#45;&gt;Node11</title>
<g id="a_edge10_Node000001_Node000011"><a xlink:title=" ">
<path fill="none" stroke="orange" stroke-dasharray="5,2" d="M256.69,-431.88C270.54,-442.18 287.27,-453.04 304,-460 364.47,-485.17 437.44,-497.96 493.52,-504.43"/>
<polygon fill="orange" stroke="orange" points="258.87,-429.13 248.81,-425.81 254.6,-434.68 258.87,-429.13"/>
</a>
</g>
<text text-anchor="start" x="335.5" y="-514" font-family="Helvetica,sans-Serif" font-size="10.00" fill="grey"> &lt; MutexAccessMask,</text>
<text text-anchor="middle" x="385.5" y="-503" font-family="Helvetica,sans-Serif" font-size="10.00" fill="grey"> MutexRights &gt;</text>
</g>
<!-- Node13 -->
<g id="Node000013" class="node">
<title>Node13</title>
<g id="a_Node000013"><a xlink:href="class_harlinn_1_1_common_1_1_core_1_1_security_1_1_access_mask_t.html" target="_top" xlink:title=" ">
<polygon fill="white" stroke="#666666" points="680.5,-472 486.5,-472 486.5,-420 680.5,-420 680.5,-472"/>
<text text-anchor="start" x="494.5" y="-460" font-family="Helvetica,sans-Serif" font-size="10.00">Harlinn::Common::Core</text>
<text text-anchor="start" x="494.5" y="-449" font-family="Helvetica,sans-Serif" font-size="10.00">::Security::AccessMaskT</text>
<text text-anchor="start" x="494.5" y="-438" font-family="Helvetica,sans-Serif" font-size="10.00">&lt; ProcessAccessMask, ProcessAccess</text>
<text text-anchor="middle" x="583.5" y="-427" font-family="Helvetica,sans-Serif" font-size="10.00">Rights &gt;</text>
</a>
</g>
</g>
<!-- Node1&#45;&gt;Node13 -->
<g id="edge12_Node000001_Node000013" class="edge">
<title>Node1&#45;&gt;Node13</title>
<g id="a_edge12_Node000001_Node000013"><a xlink:title=" ">
<path fill="none" stroke="orange" stroke-dasharray="5,2" d="M297.44,-416.11C299.65,-416.41 301.84,-416.71 304,-417 364.48,-425.03 432.59,-432.15 486.32,-437.33"/>
<polygon fill="orange" stroke="orange" points="298.19,-412.68 287.79,-414.71 297.18,-419.6 298.19,-412.68"/>
</a>
</g>
<text text-anchor="start" x="331" y="-448" font-family="Helvetica,sans-Serif" font-size="10.00" fill="grey"> &lt; ProcessAccessMask,</text>
<text text-anchor="middle" x="385.5" y="-437" font-family="Helvetica,sans-Serif" font-size="10.00" fill="grey"> ProcessAccessRights &gt;</text>
</g>
<!-- Node15 -->
<g id="Node000015" class="node">
<title>Node15</title>
<g id="a_Node000015"><a xlink:href="class_harlinn_1_1_common_1_1_core_1_1_security_1_1_access_mask_t.html" target="_top" xlink:title=" ">
<polygon fill="white" stroke="#666666" points="670.5,-402 496.5,-402 496.5,-350 670.5,-350 670.5,-402"/>
<text text-anchor="start" x="504.5" y="-390" font-family="Helvetica,sans-Serif" font-size="10.00">Harlinn::Common::Core</text>
<text text-anchor="start" x="504.5" y="-379" font-family="Helvetica,sans-Serif" font-size="10.00">::Security::AccessMaskT</text>
<text text-anchor="start" x="504.5" y="-368" font-family="Helvetica,sans-Serif" font-size="10.00">&lt; TokenAccessMask, TokenAccess</text>
<text text-anchor="middle" x="583.5" y="-357" font-family="Helvetica,sans-Serif" font-size="10.00">Rights &gt;</text>
</a>
</g>
</g>
<!-- Node1&#45;&gt;Node15 -->
<g id="edge14_Node000001_Node000015" class="edge">
<title>Node1&#45;&gt;Node15</title>
<g id="a_edge14_Node000001_Node000015"><a xlink:title=" ">
<path fill="none" stroke="orange" stroke-dasharray="5,2" d="M297.73,-395.58C299.84,-395.38 301.94,-395.19 304,-395 368.32,-389.21 441.13,-384.3 496.17,-380.92"/>
<polygon fill="orange" stroke="orange" points="297.43,-392.09 287.82,-396.56 298.12,-399.06 297.43,-392.09"/>
</a>
</g>
<text text-anchor="start" x="335.5" y="-409" font-family="Helvetica,sans-Serif" font-size="10.00" fill="grey"> &lt; TokenAccessMask,</text>
<text text-anchor="middle" x="385.5" y="-398" font-family="Helvetica,sans-Serif" font-size="10.00" fill="grey"> TokenAccessRights &gt;</text>
</g>
<!-- Node17 -->
<g id="Node000017" class="node">
<title>Node17</title>
<g id="a_Node000017"><a xlink:href="class_harlinn_1_1_common_1_1_core_1_1_security_1_1_access_mask_t.html" target="_top" xlink:title=" ">
<polygon fill="white" stroke="#666666" points="651,-332 516,-332 516,-280 651,-280 651,-332"/>
<text text-anchor="start" x="524" y="-320" font-family="Helvetica,sans-Serif" font-size="10.00">Harlinn::Common::Core</text>
<text text-anchor="start" x="524" y="-309" font-family="Helvetica,sans-Serif" font-size="10.00">::Security::AccessMaskT</text>
<text text-anchor="start" x="524" y="-298" font-family="Helvetica,sans-Serif" font-size="10.00">&lt; SemaphoreAccessMask,</text>
<text text-anchor="middle" x="583.5" y="-287" font-family="Helvetica,sans-Serif" font-size="10.00"> SemaphoreRights &gt;</text>
</a>
</g>
</g>
<!-- Node1&#45;&gt;Node17 -->
<g id="edge16_Node000001_Node000017" class="edge">
<title>Node1&#45;&gt;Node17</title>
<g id="a_edge16_Node000001_Node000017"><a xlink:title=" ">
<path fill="none" stroke="orange" stroke-dasharray="5,2" d="M264.01,-377.35C276.43,-370.15 290.41,-362.99 304,-358 373.72,-332.4 458.09,-318.91 515.57,-312.15"/>
<polygon fill="orange" stroke="orange" points="262.51,-374.17 255.73,-382.3 266.1,-380.17 262.51,-374.17"/>
</a>
</g>
<text text-anchor="start" x="324.5" y="-372" font-family="Helvetica,sans-Serif" font-size="10.00" fill="grey"> &lt; SemaphoreAccessMask,</text>
<text text-anchor="middle" x="385.5" y="-361" font-family="Helvetica,sans-Serif" font-size="10.00" fill="grey"> SemaphoreRights &gt;</text>
</g>
<!-- Node19 -->
<g id="Node000019" class="node">
<title>Node19</title>
<g id="a_Node000019"><a xlink:href="class_harlinn_1_1_common_1_1_core_1_1_security_1_1_access_mask_t.html" target="_top" xlink:title=" ">
<polygon fill="white" stroke="#666666" points="676,-262 491,-262 491,-210 676,-210 676,-262"/>
<text text-anchor="start" x="499" y="-250" font-family="Helvetica,sans-Serif" font-size="10.00">Harlinn::Common::Core</text>
<text text-anchor="start" x="499" y="-239" font-family="Helvetica,sans-Serif" font-size="10.00">::Security::AccessMaskT</text>
<text text-anchor="start" x="499" y="-228" font-family="Helvetica,sans-Serif" font-size="10.00">&lt; ServiceAccessMask, ServiceAccess</text>
<text text-anchor="middle" x="583.5" y="-217" font-family="Helvetica,sans-Serif" font-size="10.00">Rights &gt;</text>
</a>
</g>
</g>
<!-- Node1&#45;&gt;Node19 -->
<g id="edge18_Node000001_Node000019" class="edge">
<title>Node1&#45;&gt;Node19</title>
<g id="a_edge18_Node000001_Node000019"><a xlink:title=" ">
<path fill="none" stroke="orange" stroke-dasharray="5,2" d="M237.99,-373.18C251.5,-347.91 274.06,-313.28 304,-294 359.54,-258.23 433.06,-244.01 490.62,-238.58"/>
<polygon fill="orange" stroke="orange" points="234.91,-371.52 233.45,-382.01 241.13,-374.72 234.91,-371.52"/>
</a>
</g>
<text text-anchor="start" x="333" y="-308" font-family="Helvetica,sans-Serif" font-size="10.00" fill="grey"> &lt; ServiceAccessMask,</text>
<text text-anchor="middle" x="385.5" y="-297" font-family="Helvetica,sans-Serif" font-size="10.00" fill="grey"> ServiceAccessRights &gt;</text>
</g>
<!-- Node21 -->
<g id="Node000021" class="node">
<title>Node21</title>
<g id="a_Node000021"><a xlink:href="class_harlinn_1_1_common_1_1_core_1_1_security_1_1_access_mask_t.html" target="_top" xlink:title=" ">
<polygon fill="white" stroke="#666666" points="678,-192 489,-192 489,-140 678,-140 678,-192"/>
<text text-anchor="start" x="497" y="-180" font-family="Helvetica,sans-Serif" font-size="10.00">Harlinn::Common::Core</text>
<text text-anchor="start" x="497" y="-169" font-family="Helvetica,sans-Serif" font-size="10.00">::Security::AccessMaskT</text>
<text text-anchor="start" x="497" y="-158" font-family="Helvetica,sans-Serif" font-size="10.00">&lt; ServiceControlManagerAccessMask,</text>
<text text-anchor="middle" x="583.5" y="-147" font-family="Helvetica,sans-Serif" font-size="10.00"> ServiceControlManagerAccessRights &gt;</text>
</a>
</g>
</g>
<!-- Node1&#45;&gt;Node21 -->
<g id="edge20_Node000001_Node000021" class="edge">
<title>Node1&#45;&gt;Node21</title>
<g id="a_edge20_Node000001_Node000021"><a xlink:title=" ">
<path fill="none" stroke="orange" stroke-dasharray="5,2" d="M226.69,-371.96C233.01,-326.99 251.41,-246.05 304,-205 355.67,-164.67 429.74,-155.91 488.5,-156.71"/>
<polygon fill="orange" stroke="orange" points="223.26,-371.24 225.47,-381.6 230.2,-372.13 223.26,-371.24"/>
</a>
</g>
<text text-anchor="start" x="304" y="-230" font-family="Helvetica,sans-Serif" font-size="10.00" fill="grey"> &lt; ServiceControlManagerAccess</text>
<text text-anchor="start" x="304" y="-219" font-family="Helvetica,sans-Serif" font-size="10.00" fill="grey">Mask, ServiceControlManagerAccess</text>
<text text-anchor="middle" x="385.5" y="-208" font-family="Helvetica,sans-Serif" font-size="10.00" fill="grey">Rights &gt;</text>
</g>
<!-- Node23 -->
<g id="Node000023" class="node">
<title>Node23</title>
<g id="a_Node000023"><a xlink:href="class_harlinn_1_1_common_1_1_core_1_1_security_1_1_access_mask_t.html" target="_top" xlink:title=" ">
<polygon fill="white" stroke="#666666" points="673.5,-122 493.5,-122 493.5,-70 673.5,-70 673.5,-122"/>
<text text-anchor="start" x="501.5" y="-110" font-family="Helvetica,sans-Serif" font-size="10.00">Harlinn::Common::Core</text>
<text text-anchor="start" x="501.5" y="-99" font-family="Helvetica,sans-Serif" font-size="10.00">::Security::AccessMaskT</text>
<text text-anchor="start" x="501.5" y="-88" font-family="Helvetica,sans-Serif" font-size="10.00">&lt; ThreadAccessMask, ThreadAccess</text>
<text text-anchor="middle" x="583.5" y="-77" font-family="Helvetica,sans-Serif" font-size="10.00">Rights &gt;</text>
</a>
</g>
</g>
<!-- Node1&#45;&gt;Node23 -->
<g id="edge22_Node000001_Node000023" class="edge">
<title>Node1&#45;&gt;Node23</title>
<g id="a_edge22_Node000001_Node000023"><a xlink:title=" ">
<path fill="none" stroke="orange" stroke-dasharray="5,2" d="M222.53,-371.89C222.68,-313.91 232.12,-192.1 304,-131 331.85,-107.33 422.68,-99.38 493.12,-96.86"/>
<polygon fill="orange" stroke="orange" points="219.03,-371.76 222.6,-381.73 226.02,-371.71 219.03,-371.76"/>
</a>
</g>
<text text-anchor="start" x="334" y="-145" font-family="Helvetica,sans-Serif" font-size="10.00" fill="grey"> &lt; ThreadAccessMask,</text>
<text text-anchor="middle" x="385.5" y="-134" font-family="Helvetica,sans-Serif" font-size="10.00" fill="grey"> ThreadAccessRights &gt;</text>
</g>
<!-- Node25 -->
<g id="Node000025" class="node">
<title>Node25</title>
<g id="a_Node000025"><a xlink:href="class_harlinn_1_1_common_1_1_core_1_1_security_1_1_access_mask_t.html" target="_top" xlink:title=" ">
<polygon fill="white" stroke="#666666" points="657.5,-52 509.5,-52 509.5,0 657.5,0 657.5,-52"/>
<text text-anchor="start" x="517.5" y="-40" font-family="Helvetica,sans-Serif" font-size="10.00">Harlinn::Common::Core</text>
<text text-anchor="start" x="517.5" y="-29" font-family="Helvetica,sans-Serif" font-size="10.00">::Security::AccessMaskT</text>
<text text-anchor="start" x="517.5" y="-18" font-family="Helvetica,sans-Serif" font-size="10.00">&lt; WaitableTimerAccessMask,</text>
<text text-anchor="middle" x="583.5" y="-7" font-family="Helvetica,sans-Serif" font-size="10.00"> WaitableTimerRights &gt;</text>
</a>
</g>
</g>
<!-- Node1&#45;&gt;Node25 -->
<g id="edge24_Node000001_Node000025" class="edge">
<title>Node1&#45;&gt;Node25</title>
<g id="a_edge24_Node000001_Node000025"><a xlink:title=" ">
<path fill="none" stroke="orange" stroke-dasharray="5,2" d="M226.82,-372.19C235.27,-297.45 260.14,-113.84 304,-73 358.64,-22.13 446.79,-15.14 509.27,-17.84"/>
<polygon fill="orange" stroke="orange" points="223.38,-371.39 225.77,-381.71 230.34,-372.16 223.38,-371.39"/>
</a>
</g>
<text text-anchor="start" x="318" y="-87" font-family="Helvetica,sans-Serif" font-size="10.00" fill="grey"> &lt; WaitableTimerAccessMask,</text>
<text text-anchor="middle" x="385.5" y="-76" font-family="Helvetica,sans-Serif" font-size="10.00" fill="grey"> WaitableTimerRights &gt;</text>
</g>
<!-- Node2 -->
<g id="Node000002" class="node">
<title>Node2</title>
<g id="a_Node000002"><a xlink:href="class_harlinn_1_1_common_1_1_core_1_1_security_1_1_access_mask.html" target="_top" xlink:title="An ACCESS_MASK wrapper class. The ACCESS_MASK data type is a DWORD value that defines standard,...">
<polygon fill="white" stroke="#666666" points="122,-419 0,-419 0,-389 122,-389 122,-419"/>
<text text-anchor="start" x="8" y="-407" font-family="Helvetica,sans-Serif" font-size="10.00">Harlinn::Common::Core</text>
<text text-anchor="middle" x="61" y="-396" font-family="Helvetica,sans-Serif" font-size="10.00">::Security::AccessMask</text>
</a>
</g>
</g>
<!-- Node2&#45;&gt;Node1 -->
<g id="edge1_Node000001_Node000002" class="edge">
<title>Node2&#45;&gt;Node1</title>
<g id="a_edge1_Node000001_Node000002"><a xlink:title=" ">
<path fill="none" stroke="#63b8ff" d="M133.61,-404C141.99,-404 150.48,-404 158.72,-404"/>
<polygon fill="#63b8ff" stroke="#63b8ff" points="133.81,-400.5 123.81,-404 133.81,-407.5 133.81,-400.5"/>
</a>
</g>
</g>
<!-- Node4 -->
<g id="Node000004" class="node">
<title>Node4</title>
<g id="a_Node000004"><a xlink:href="class_harlinn_1_1_common_1_1_core_1_1_event_wait_handle_access_mask.html" target="_top" xlink:title=" ">
<polygon fill="white" stroke="#666666" points="878.5,-779 724.5,-779 724.5,-749 878.5,-749 878.5,-779"/>
<text text-anchor="start" x="732.5" y="-767" font-family="Helvetica,sans-Serif" font-size="10.00">Harlinn::Common::Core</text>
<text text-anchor="middle" x="801.5" y="-756" font-family="Helvetica,sans-Serif" font-size="10.00">::EventWaitHandleAccessMask</text>
</a>
</g>
</g>
<!-- Node3&#45;&gt;Node4 -->
<g id="edge3_Node000003_Node000004" class="edge">
<title>Node3&#45;&gt;Node4</title>
<g id="a_edge3_Node000003_Node000004"><a xlink:title=" ">
<path fill="none" stroke="#63b8ff" d="M674.94,-764C691.32,-764 708.26,-764 724.19,-764"/>
<polygon fill="#63b8ff" stroke="#63b8ff" points="675.22,-760.5 665.22,-764 675.22,-767.5 675.22,-760.5"/>
</a>
</g>
</g>
<!-- Node6 -->
<g id="Node000006" class="node">
<title>Node6</title>
<g id="a_Node000006"><a xlink:href="class_harlinn_1_1_common_1_1_core_1_1_i_o_1_1_directory_access_mask.html" target="_top" xlink:title="The access mask for a directory.">
<polygon fill="white" stroke="#666666" points="868.5,-709 734.5,-709 734.5,-679 868.5,-679 868.5,-709"/>
<text text-anchor="start" x="742.5" y="-697" font-family="Helvetica,sans-Serif" font-size="10.00">Harlinn::Common::Core</text>
<text text-anchor="middle" x="801.5" y="-686" font-family="Helvetica,sans-Serif" font-size="10.00">::IO::DirectoryAccessMask</text>
</a>
</g>
</g>
<!-- Node5&#45;&gt;Node6 -->
<g id="edge5_Node000005_Node000006" class="edge">
<title>Node5&#45;&gt;Node6</title>
<g id="a_edge5_Node000005_Node000006"><a xlink:title=" ">
<path fill="none" stroke="#63b8ff" d="M659.21,-694C683.57,-694 710.44,-694 734.15,-694"/>
<polygon fill="#63b8ff" stroke="#63b8ff" points="659.36,-690.5 649.36,-694 659.36,-697.5 659.36,-690.5"/>
</a>
</g>
</g>
<!-- Node8 -->
<g id="Node000008" class="node">
<title>Node8</title>
<g id="a_Node000008"><a xlink:href="class_harlinn_1_1_common_1_1_core_1_1_i_o_1_1_file_access_mask.html" target="_top" xlink:title="The access mask for a file.">
<polygon fill="white" stroke="#666666" points="860.5,-644 742.5,-644 742.5,-614 860.5,-614 860.5,-644"/>
<text text-anchor="start" x="750.5" y="-632" font-family="Helvetica,sans-Serif" font-size="10.00">Harlinn::Common::Core</text>
<text text-anchor="middle" x="801.5" y="-621" font-family="Helvetica,sans-Serif" font-size="10.00">::IO::FileAccessMask</text>
</a>
</g>
</g>
<!-- Node7&#45;&gt;Node8 -->
<g id="edge7_Node000007_Node000008" class="edge">
<title>Node7&#45;&gt;Node8</title>
<g id="a_edge7_Node000007_Node000008"><a xlink:title=" ">
<path fill="none" stroke="#63b8ff" d="M690.29,-629C708.1,-629 725.98,-629 742.01,-629"/>
<polygon fill="#63b8ff" stroke="#63b8ff" points="690.44,-625.5 680.44,-629 690.44,-632.5 690.44,-625.5"/>
</a>
</g>
</g>
<!-- Node10 -->
<g id="Node000010" class="node">
<title>Node10</title>
<g id="a_Node000010"><a xlink:href="class_harlinn_1_1_common_1_1_core_1_1_i_o_1_1_pipe_access_mask.html" target="_top" xlink:title=" ">
<polygon fill="white" stroke="#666666" points="860.5,-585 742.5,-585 742.5,-555 860.5,-555 860.5,-585"/>
<text text-anchor="start" x="750.5" y="-573" font-family="Helvetica,sans-Serif" font-size="10.00">Harlinn::Common::Core</text>
<text text-anchor="middle" x="801.5" y="-562" font-family="Helvetica,sans-Serif" font-size="10.00">::IO::PipeAccessMask</text>
</a>
</g>
</g>
<!-- Node9&#45;&gt;Node10 -->
<g id="edge9_Node000009_Node000010" class="edge">
<title>Node9&#45;&gt;Node10</title>
<g id="a_edge9_Node000009_Node000010"><a xlink:title=" ">
<path fill="none" stroke="#63b8ff" d="M693.43,-570C710.25,-570 727.04,-570 742.17,-570"/>
<polygon fill="#63b8ff" stroke="#63b8ff" points="693.9,-566.5 683.9,-570 693.9,-573.5 693.9,-566.5"/>
</a>
</g>
</g>
<!-- Node12 -->
<g id="Node000012" class="node">
<title>Node12</title>
<g id="a_Node000012"><a xlink:href="class_harlinn_1_1_common_1_1_core_1_1_mutex_access_mask.html" target="_top" xlink:title=" ">
<polygon fill="white" stroke="#666666" points="860.5,-526 742.5,-526 742.5,-496 860.5,-496 860.5,-526"/>
<text text-anchor="start" x="750.5" y="-514" font-family="Helvetica,sans-Serif" font-size="10.00">Harlinn::Common::Core</text>
<text text-anchor="middle" x="801.5" y="-503" font-family="Helvetica,sans-Serif" font-size="10.00">::MutexAccessMask</text>
</a>
</g>
</g>
<!-- Node11&#45;&gt;Node12 -->
<g id="edge11_Node000011_Node000012" class="edge">
<title>Node11&#45;&gt;Node12</title>
<g id="a_edge11_Node000011_Node000012"><a xlink:title=" ">
<path fill="none" stroke="#63b8ff" d="M684.55,-511C704.33,-511 724.46,-511 742.28,-511"/>
<polygon fill="#63b8ff" stroke="#63b8ff" points="684.8,-507.5 674.8,-511 684.8,-514.5 684.8,-507.5"/>
</a>
</g>
</g>
<!-- Node14 -->
<g id="Node000014" class="node">
<title>Node14</title>
<g id="a_Node000014"><a xlink:href="class_harlinn_1_1_common_1_1_core_1_1_process_access_mask.html" target="_top" xlink:title=" ">
<polygon fill="white" stroke="#666666" points="860.5,-461 742.5,-461 742.5,-431 860.5,-431 860.5,-461"/>
<text text-anchor="start" x="750.5" y="-449" font-family="Helvetica,sans-Serif" font-size="10.00">Harlinn::Common::Core</text>
<text text-anchor="middle" x="801.5" y="-438" font-family="Helvetica,sans-Serif" font-size="10.00">::ProcessAccessMask</text>
</a>
</g>
</g>
<!-- Node13&#45;&gt;Node14 -->
<g id="edge13_Node000013_Node000014" class="edge">
<title>Node13&#45;&gt;Node14</title>
<g id="a_edge13_Node000013_Node000014"><a xlink:title=" ">
<path fill="none" stroke="#63b8ff" d="M692.13,-446C709.39,-446 726.65,-446 742.17,-446"/>
<polygon fill="#63b8ff" stroke="#63b8ff" points="692.33,-442.5 682.33,-446 692.33,-449.5 692.33,-442.5"/>
</a>
</g>
</g>
<!-- Node16 -->
<g id="Node000016" class="node">
<title>Node16</title>
<g id="a_Node000016"><a xlink:href="class_harlinn_1_1_common_1_1_core_1_1_security_1_1_token_access_mask.html" target="_top" xlink:title="An access mask implmentation for the access rights of a Windows access token.">
<polygon fill="white" stroke="#666666" points="875.5,-391 727.5,-391 727.5,-361 875.5,-361 875.5,-391"/>
<text text-anchor="start" x="735.5" y="-379" font-family="Helvetica,sans-Serif" font-size="10.00">Harlinn::Common::Core</text>
<text text-anchor="middle" x="801.5" y="-368" font-family="Helvetica,sans-Serif" font-size="10.00">::Security::TokenAccessMask</text>
</a>
</g>
</g>
<!-- Node15&#45;&gt;Node16 -->
<g id="edge15_Node000015_Node000016" class="edge">
<title>Node15&#45;&gt;Node16</title>
<g id="a_edge15_Node000015_Node000016"><a xlink:title=" ">
<path fill="none" stroke="#63b8ff" d="M682.28,-376C697.38,-376 712.75,-376 727.2,-376"/>
<polygon fill="#63b8ff" stroke="#63b8ff" points="682.31,-372.5 672.31,-376 682.31,-379.5 682.31,-372.5"/>
</a>
</g>
</g>
<!-- Node18 -->
<g id="Node000018" class="node">
<title>Node18</title>
<g id="a_Node000018"><a xlink:href="class_harlinn_1_1_common_1_1_core_1_1_semaphore_access_mask.html" target="_top" xlink:title=" ">
<polygon fill="white" stroke="#666666" points="866,-321 737,-321 737,-291 866,-291 866,-321"/>
<text text-anchor="start" x="745" y="-309" font-family="Helvetica,sans-Serif" font-size="10.00">Harlinn::Common::Core</text>
<text text-anchor="middle" x="801.5" y="-298" font-family="Helvetica,sans-Serif" font-size="10.00">::SemaphoreAccessMask</text>
</a>
</g>
</g>
<!-- Node17&#45;&gt;Node18 -->
<g id="edge17_Node000017_Node000018" class="edge">
<title>Node17&#45;&gt;Node18</title>
<g id="a_edge17_Node000017_Node000018"><a xlink:title=" ">
<path fill="none" stroke="#63b8ff" d="M662.7,-306C686.95,-306 713.37,-306 736.54,-306"/>
<polygon fill="#63b8ff" stroke="#63b8ff" points="662.88,-302.5 652.88,-306 662.88,-309.5 662.88,-302.5"/>
</a>
</g>
</g>
<!-- Node20 -->
<g id="Node000020" class="node">
<title>Node20</title>
<g id="a_Node000020"><a xlink:href="class_harlinn_1_1_common_1_1_core_1_1_services_1_1_service_access_mask.html" target="_top" xlink:title="The access mask for a service.">
<polygon fill="white" stroke="#666666" points="878.5,-251 724.5,-251 724.5,-221 878.5,-221 878.5,-251"/>
<text text-anchor="start" x="732.5" y="-239" font-family="Helvetica,sans-Serif" font-size="10.00">Harlinn::Common::Core</text>
<text text-anchor="middle" x="801.5" y="-228" font-family="Helvetica,sans-Serif" font-size="10.00">::Services::ServiceAccessMask</text>
</a>
</g>
</g>
<!-- Node19&#45;&gt;Node20 -->
<g id="edge19_Node000019_Node000020" class="edge">
<title>Node19&#45;&gt;Node20</title>
<g id="a_edge19_Node000019_Node000020"><a xlink:title=" ">
<path fill="none" stroke="#63b8ff" d="M687.7,-236C700.03,-236 712.45,-236 724.3,-236"/>
<polygon fill="#63b8ff" stroke="#63b8ff" points="687.93,-232.5 677.93,-236 687.93,-239.5 687.93,-232.5"/>
</a>
</g>
</g>
<!-- Node22 -->
<g id="Node000022" class="node">
<title>Node22</title>
<g id="a_Node000022"><a xlink:href="class_harlinn_1_1_common_1_1_core_1_1_services_1_1_service_control_manager_access_mask.html" target="_top" xlink:title="The access mask for the service control manager.">
<polygon fill="white" stroke="#666666" points="884,-186.5 719,-186.5 719,-145.5 884,-145.5 884,-186.5"/>
<text text-anchor="start" x="727" y="-174.5" font-family="Helvetica,sans-Serif" font-size="10.00">Harlinn::Common::Core</text>
<text text-anchor="start" x="727" y="-163.5" font-family="Helvetica,sans-Serif" font-size="10.00">::Services::ServiceControlManager</text>
<text text-anchor="middle" x="801.5" y="-152.5" font-family="Helvetica,sans-Serif" font-size="10.00">AccessMask</text>
</a>
</g>
</g>
<!-- Node21&#45;&gt;Node22 -->
<g id="edge21_Node000021_Node000022" class="edge">
<title>Node21&#45;&gt;Node22</title>
<g id="a_edge21_Node000021_Node000022"><a xlink:title=" ">
<path fill="none" stroke="#63b8ff" d="M689.69,-166C699.41,-166 709.17,-166 718.65,-166"/>
<polygon fill="#63b8ff" stroke="#63b8ff" points="689.81,-162.5 679.81,-166 689.81,-169.5 689.81,-162.5"/>
</a>
</g>
</g>
<!-- Node24 -->
<g id="Node000024" class="node">
<title>Node24</title>
<g id="a_Node000024"><a xlink:href="class_harlinn_1_1_common_1_1_core_1_1_thread_access_mask.html" target="_top" xlink:title=" ">
<polygon fill="white" stroke="#666666" points="860.5,-111 742.5,-111 742.5,-81 860.5,-81 860.5,-111"/>
<text text-anchor="start" x="750.5" y="-99" font-family="Helvetica,sans-Serif" font-size="10.00">Harlinn::Common::Core</text>
<text text-anchor="middle" x="801.5" y="-88" font-family="Helvetica,sans-Serif" font-size="10.00">::ThreadAccessMask</text>
</a>
</g>
</g>
<!-- Node23&#45;&gt;Node24 -->
<g id="edge23_Node000023_Node000024" class="edge">
<title>Node23&#45;&gt;Node24</title>
<g id="a_edge23_Node000023_Node000024"><a xlink:title=" ">
<path fill="none" stroke="#63b8ff" d="M685.36,-96C704.89,-96 724.73,-96 742.31,-96"/>
<polygon fill="#63b8ff" stroke="#63b8ff" points="685.43,-92.5 675.43,-96 685.43,-99.5 685.43,-92.5"/>
</a>
</g>
</g>
<!-- Node26 -->
<g id="Node000026" class="node">
<title>Node26</title>
<g id="a_Node000026"><a xlink:href="class_harlinn_1_1_common_1_1_core_1_1_waitable_timer_access_mask.html" target="_top" xlink:title=" ">
<polygon fill="white" stroke="#666666" points="872.5,-41 730.5,-41 730.5,-11 872.5,-11 872.5,-41"/>
<text text-anchor="start" x="738.5" y="-29" font-family="Helvetica,sans-Serif" font-size="10.00">Harlinn::Common::Core</text>
<text text-anchor="middle" x="801.5" y="-18" font-family="Helvetica,sans-Serif" font-size="10.00">::WaitableTimerAccessMask</text>
</a>
</g>
</g>
<!-- Node25&#45;&gt;Node26 -->
<g id="edge25_Node000025_Node000026" class="edge">
<title>Node25&#45;&gt;Node26</title>
<g id="a_edge25_Node000025_Node000026"><a xlink:title=" ">
<path fill="none" stroke="#63b8ff" d="M669.32,-26C689.48,-26 710.77,-26 730.19,-26"/>
<polygon fill="#63b8ff" stroke="#63b8ff" points="669.44,-22.5 659.44,-26 669.44,-29.5 669.44,-22.5"/>
</a>
</g>
</g>
</g>
</svg>
