<?xml version="1.0" encoding="UTF-8" standalone="no"?>
<!DOCTYPE svg PUBLIC "-//W3C//DTD SVG 1.1//EN"
 "http://www.w3.org/Graphics/SVG/1.1/DTD/svg11.dtd">
<!-- Generated by graphviz version 7.0.1 (20221109.1506)
 -->
<!-- Title: Harlinn::Common::Core::Security::AccessAllowedAccessControlEntry Pages: 1 -->
<svg width="1011pt" height="79pt"
 viewBox="0.00 0.00 1011.00 78.50" xmlns="http://www.w3.org/2000/svg" xmlns:xlink="http://www.w3.org/1999/xlink">
<g id="graph0" class="graph" transform="scale(1 1) rotate(0) translate(4 74.5)">
<title>Harlinn::Common::Core::Security::AccessAllowedAccessControlEntry</title>
<!-- Node1 -->
<g id="Node000001" class="node">
<title>Node1</title>
<g id="a_Node000001"><a xlink:title=" ">
<polygon fill="#999999" stroke="#666666" points="1003,-65 839,-65 839,-24 1003,-24 1003,-65"/>
<text text-anchor="start" x="847" y="-53" font-family="Helvetica,sans-Serif" font-size="10.00">Harlinn::Common::Core</text>
<text text-anchor="start" x="847" y="-42" font-family="Helvetica,sans-Serif" font-size="10.00">::Security::AccessAllowedAccess</text>
<text text-anchor="middle" x="921" y="-31" font-family="Helvetica,sans-Serif" font-size="10.00">ControlEntry</text>
</a>
</g>
</g>
<!-- Node2 -->
<g id="Node000002" class="node">
<title>Node2</title>
<g id="a_Node000002"><a xlink:href="class_harlinn_1_1_common_1_1_core_1_1_security_1_1_access_control_entry_base.xhtml" target="_top" xlink:title=" ">
<polygon fill="white" stroke="#666666" points="802,-70.5 632,-70.5 632,-18.5 802,-18.5 802,-70.5"/>
<text text-anchor="start" x="640" y="-58.5" font-family="Helvetica,sans-Serif" font-size="10.00">Harlinn::Common::Core</text>
<text text-anchor="start" x="640" y="-47.5" font-family="Helvetica,sans-Serif" font-size="10.00">::Security::AccessControlEntry</text>
<text text-anchor="start" x="640" y="-36.5" font-family="Helvetica,sans-Serif" font-size="10.00">Base&lt; ACCESS_ALLOWED_ACE,</text>
<text text-anchor="middle" x="717" y="-25.5" font-family="Helvetica,sans-Serif" font-size="10.00"> AccessMask &gt;</text>
</a>
</g>
</g>
<!-- Node2&#45;&gt;Node1 -->
<g id="edge1_Node000001_Node000002" class="edge">
<title>Node2&#45;&gt;Node1</title>
<g id="a_edge1_Node000001_Node000002"><a xlink:title=" ">
<path fill="none" stroke="#63b8ff" d="M813.82,-44.5C822.16,-44.5 830.55,-44.5 838.75,-44.5"/>
<polygon fill="#63b8ff" stroke="#63b8ff" points="814.01,-41 804.01,-44.5 814.01,-48 814.01,-41"/>
</a>
</g>
</g>
<!-- Node3 -->
<g id="Node000003" class="node">
<title>Node3</title>
<g id="a_Node000003"><a xlink:href="class_harlinn_1_1_common_1_1_core_1_1_security_1_1_access_control_entry.xhtml" target="_top" xlink:title="Base class for the various ACE wrappers.">
<polygon fill="white" stroke="#666666" points="272,-59.5 120,-59.5 120,-29.5 272,-29.5 272,-59.5"/>
<text text-anchor="start" x="128" y="-47.5" font-family="Helvetica,sans-Serif" font-size="10.00">Harlinn::Common::Core</text>
<text text-anchor="middle" x="196" y="-36.5" font-family="Helvetica,sans-Serif" font-size="10.00">::Security::AccessControlEntry</text>
</a>
</g>
</g>
<!-- Node3&#45;&gt;Node2 -->
<g id="edge2_Node000002_Node000003" class="edge">
<title>Node3&#45;&gt;Node2</title>
<g id="a_edge2_Node000002_Node000003"><a xlink:title=" ">
<path fill="none" stroke="#63b8ff" d="M283.71,-50.83C368.1,-56.03 499.92,-61.63 614,-55.5 619.78,-55.19 625.74,-54.78 631.73,-54.3"/>
<polygon fill="#63b8ff" stroke="#63b8ff" points="284.09,-47.34 273.89,-50.21 283.65,-54.33 284.09,-47.34"/>
</a>
</g>
</g>
<!-- Node5 -->
<g id="Node000005" class="node">
<title>Node5</title>
<g id="a_Node000005"><a xlink:href="class_harlinn_1_1_common_1_1_core_1_1_security_1_1_access_control_entry_base.xhtml" target="_top" xlink:title=" ">
<polygon fill="white" stroke="#666666" points="461,-41 309,-41 309,0 461,0 461,-41"/>
<text text-anchor="start" x="317" y="-29" font-family="Helvetica,sans-Serif" font-size="10.00">Harlinn::Common::Core</text>
<text text-anchor="start" x="317" y="-18" font-family="Helvetica,sans-Serif" font-size="10.00">::Security::AccessControlEntry</text>
<text text-anchor="middle" x="385" y="-7" font-family="Helvetica,sans-Serif" font-size="10.00">Base&lt; AceT, AccessMaskT &gt;</text>
</a>
</g>
</g>
<!-- Node3&#45;&gt;Node5 -->
<g id="edge5_Node000005_Node000003" class="edge">
<title>Node3&#45;&gt;Node5</title>
<g id="a_edge5_Node000005_Node000003"><a xlink:title=" ">
<path fill="none" stroke="#63b8ff" d="M283.58,-33.39C291.93,-32.32 300.36,-31.23 308.6,-30.18"/>
<polygon fill="#63b8ff" stroke="#63b8ff" points="283.23,-29.9 273.75,-34.65 284.12,-36.85 283.23,-29.9"/>
</a>
</g>
</g>
<!-- Node4 -->
<g id="Node000004" class="node">
<title>Node4</title>
<g id="a_Node000004"><a xlink:title=" ">
<polygon fill="white" stroke="#666666" points="83,-54 0,-54 0,-35 83,-35 83,-54"/>
<text text-anchor="middle" x="41.5" y="-42" font-family="Helvetica,sans-Serif" font-size="10.00">ACE_HEADER</text>
</a>
</g>
</g>
<!-- Node4&#45;&gt;Node3 -->
<g id="edge3_Node000003_Node000004" class="edge">
<title>Node4&#45;&gt;Node3</title>
<g id="a_edge3_Node000003_Node000004"><a xlink:title=" ">
<path fill="none" stroke="#8b1a1a" d="M94.77,-44.5C102.78,-44.5 111.18,-44.5 119.57,-44.5"/>
<polygon fill="#8b1a1a" stroke="#8b1a1a" points="94.88,-41 84.88,-44.5 94.88,-48 94.88,-41"/>
</a>
</g>
</g>
<!-- Node5&#45;&gt;Node2 -->
<g id="edge4_Node000002_Node000005" class="edge">
<title>Node5&#45;&gt;Node2</title>
<g id="a_edge4_Node000002_Node000005"><a xlink:title=" ">
<path fill="none" stroke="orange" stroke-dasharray="5,2" d="M472.75,-24.42C515.35,-26.6 567.4,-29.66 614,-33.5 619.77,-33.98 625.72,-34.51 631.71,-35.07"/>
<polygon fill="orange" stroke="orange" points="472.96,-20.92 462.8,-23.91 472.61,-27.91 472.96,-20.92"/>
</a>
</g>
<text text-anchor="start" x="479" y="-47.5" font-family="Helvetica,sans-Serif" font-size="10.00" fill="grey"> &lt; ACCESS_ALLOWED_ACE,</text>
<text text-anchor="middle" x="546.5" y="-36.5" font-family="Helvetica,sans-Serif" font-size="10.00" fill="grey"> AccessMask &gt;</text>
</g>
</g>
</svg>
