<?xml version="1.0" encoding="UTF-8" standalone="no"?>
<!DOCTYPE svg PUBLIC "-//W3C//DTD SVG 1.1//EN"
 "http://www.w3.org/Graphics/SVG/1.1/DTD/svg11.dtd">
<!-- Generated by graphviz version 7.0.1 (20221109.1506)
 -->
<!-- Title: Harlinn::Common::Core::Logging::Types::LogSiteData Pages: 1 -->
<svg width="247pt" height="269pt"
 viewBox="0.00 0.00 246.50 269.00" xmlns="http://www.w3.org/2000/svg" xmlns:xlink="http://www.w3.org/1999/xlink">
<g id="graph0" class="graph" transform="scale(1 1) rotate(0) translate(4 265)">
<title>Harlinn::Common::Core::Logging::Types::LogSiteData</title>
<!-- Node1 -->
<g id="Node000001" class="node">
<title>Node1</title>
<g id="a_Node000001"><a xlink:title=" ">
<polygon fill="#999999" stroke="#666666" points="174.5,-30 26.5,-30 26.5,0 174.5,0 174.5,-30"/>
<text text-anchor="start" x="34.5" y="-18" font-family="Helvetica,sans-Serif" font-size="10.00">Harlinn::Common::Core</text>
<text text-anchor="middle" x="100.5" y="-7" font-family="Helvetica,sans-Serif" font-size="10.00">::Logging::Types::LogSiteData</text>
</a>
</g>
</g>
<!-- Node2 -->
<g id="Node000002" class="node">
<title>Node2</title>
<g id="a_Node000002"><a xlink:title=" ">
<polygon fill="white" stroke="#666666" points="82.5,-118 22.5,-118 22.5,-99 82.5,-99 82.5,-118"/>
<text text-anchor="middle" x="52.5" y="-106" font-family="Helvetica,sans-Serif" font-size="10.00">std::string</text>
</a>
</g>
</g>
<!-- Node2&#45;&gt;Node1 -->
<g id="edge1_Node000001_Node000002" class="edge">
<title>Node2&#45;&gt;Node1</title>
<g id="a_edge1_Node000001_Node000002"><a xlink:title=" ">
<path fill="none" stroke="#9a32cd" stroke-dasharray="5,2" d="M53.79,-87.69C55.29,-75.56 58.53,-60.1 65.5,-48 69.28,-41.44 74.86,-35.46 80.47,-30.49"/>
<polygon fill="#9a32cd" stroke="#9a32cd" points="50.33,-87.05 52.91,-97.33 57.3,-87.69 50.33,-87.05"/>
</a>
</g>
<text text-anchor="middle" x="94.5" y="-73" font-family="Helvetica,sans-Serif" font-size="10.00" fill="grey"> file_</text>
<text text-anchor="middle" x="94.5" y="-62" font-family="Helvetica,sans-Serif" font-size="10.00" fill="grey">formatString_</text>
<text text-anchor="middle" x="94.5" y="-51" font-family="Helvetica,sans-Serif" font-size="10.00" fill="grey">function_</text>
</g>
<!-- Node3 -->
<g id="Node000003" class="node">
<title>Node3</title>
<g id="a_Node000003"><a xlink:title=" ">
<polygon fill="white" stroke="#666666" points="95,-195 0,-195 0,-165 95,-165 95,-195"/>
<text text-anchor="start" x="8" y="-183" font-family="Helvetica,sans-Serif" font-size="10.00">std::basic_string&lt;</text>
<text text-anchor="middle" x="47.5" y="-172" font-family="Helvetica,sans-Serif" font-size="10.00"> Char &gt;</text>
</a>
</g>
</g>
<!-- Node3&#45;&gt;Node2 -->
<g id="edge2_Node000002_Node000003" class="edge">
<title>Node3&#45;&gt;Node2</title>
<g id="a_edge2_Node000002_Node000003"><a xlink:title=" ">
<path fill="none" stroke="#63b8ff" d="M49.34,-153.46C50.23,-141.07 51.24,-126.99 51.88,-118.18"/>
<polygon fill="#63b8ff" stroke="#63b8ff" points="45.87,-152.86 48.64,-163.09 52.85,-153.37 45.87,-152.86"/>
</a>
</g>
</g>
<!-- Node4 -->
<g id="Node000004" class="node">
<title>Node4</title>
<g id="a_Node000004"><a xlink:title=" ">
<polygon fill="white" stroke="#666666" points="202.5,-118 102.5,-118 102.5,-99 202.5,-99 202.5,-118"/>
<text text-anchor="middle" x="152.5" y="-106" font-family="Helvetica,sans-Serif" font-size="10.00">std::vector&lt; Byte &gt;</text>
</a>
</g>
</g>
<!-- Node4&#45;&gt;Node1 -->
<g id="edge3_Node000001_Node000004" class="edge">
<title>Node4&#45;&gt;Node1</title>
<g id="a_edge3_Node000001_Node000004"><a xlink:title=" ">
<path fill="none" stroke="#9a32cd" stroke-dasharray="5,2" d="M144.15,-88.31C138.74,-76.44 131.28,-61.02 123.5,-48 119.92,-42.01 115.54,-35.71 111.57,-30.3"/>
<polygon fill="#9a32cd" stroke="#9a32cd" points="140.94,-89.69 148.2,-97.4 147.33,-86.84 140.94,-89.69"/>
</a>
</g>
<text text-anchor="middle" x="189" y="-62" font-family="Helvetica,sans-Serif" font-size="10.00" fill="grey"> argumentsDescriptor_</text>
</g>
<!-- Node5 -->
<g id="Node000005" class="node">
<title>Node5</title>
<g id="a_Node000005"><a xlink:title=" ">
<polygon fill="white" stroke="#666666" points="198,-189.5 113,-189.5 113,-170.5 198,-170.5 198,-189.5"/>
<text text-anchor="middle" x="155.5" y="-177.5" font-family="Helvetica,sans-Serif" font-size="10.00">std::vector&lt; T &gt;</text>
</a>
</g>
</g>
<!-- Node5&#45;&gt;Node4 -->
<g id="edge4_Node000004_Node000005" class="edge">
<title>Node5&#45;&gt;Node4</title>
<g id="a_edge4_Node000004_Node000005"><a xlink:title=" ">
<path fill="none" stroke="orange" stroke-dasharray="5,2" d="M154.63,-158.8C154.05,-145.44 153.32,-128.59 152.89,-118.45"/>
<polygon fill="orange" stroke="orange" points="151.13,-158.85 155.05,-168.69 158.12,-158.54 151.13,-158.85"/>
</a>
</g>
<text text-anchor="middle" x="174.5" y="-139" font-family="Helvetica,sans-Serif" font-size="10.00" fill="grey"> &lt; Byte &gt;</text>
</g>
<!-- Node6 -->
<g id="Node000006" class="node">
<title>Node6</title>
<g id="a_Node000006"><a xlink:title=" ">
<polygon fill="white" stroke="#666666" points="170,-261 141,-261 141,-242 170,-242 170,-261"/>
<text text-anchor="middle" x="155.5" y="-249" font-family="Helvetica,sans-Serif" font-size="10.00">T</text>
</a>
</g>
</g>
<!-- Node6&#45;&gt;Node5 -->
<g id="edge5_Node000005_Node000006" class="edge">
<title>Node6&#45;&gt;Node5</title>
<g id="a_edge5_Node000005_Node000006"><a xlink:title=" ">
<path fill="none" stroke="#9a32cd" stroke-dasharray="5,2" d="M155.5,-230.3C155.5,-216.94 155.5,-200.09 155.5,-189.95"/>
<polygon fill="#9a32cd" stroke="#9a32cd" points="152,-230.18 155.5,-240.18 159,-230.18 152,-230.18"/>
</a>
</g>
<text text-anchor="middle" x="177" y="-216" font-family="Helvetica,sans-Serif" font-size="10.00" fill="grey"> elements</text>
</g>
</g>
</svg>
