<?xml version="1.0" encoding="UTF-8" standalone="no"?>
<!DOCTYPE svg PUBLIC "-//W3C//DTD SVG 1.1//EN"
 "http://www.w3.org/Graphics/SVG/1.1/DTD/svg11.dtd">
<!-- Generated by graphviz version 7.0.1 (20221109.1506)
 -->
<!-- Title: Harlinn::OCI::ObjectDefine Pages: 1 -->
<svg width="2463pt" height="655pt"
 viewBox="0.00 0.00 2463.00 654.50" xmlns="http://www.w3.org/2000/svg" xmlns:xlink="http://www.w3.org/1999/xlink">
<g id="graph0" class="graph" transform="scale(1 1) rotate(0) translate(4 650.5)">
<title>Harlinn::OCI::ObjectDefine</title>
<!-- Node1 -->
<g id="Node000001" class="node">
<title>Node1</title>
<g id="a_Node000001"><a xlink:title="ObjectDefine.">
<polygon fill="#999999" stroke="#666666" points="2440,-574 2309,-574 2309,-555 2440,-555 2440,-574"/>
<text text-anchor="middle" x="2374.5" y="-562" font-family="Helvetica,sans-Serif" font-size="10.00">Harlinn::OCI::ObjectDefine</text>
</a>
</g>
</g>
<!-- Node2 -->
<g id="Node000002" class="node">
<title>Node2</title>
<g id="a_Node000002"><a xlink:href="class_harlinn_1_1_o_c_i_1_1_define.html" target="_top" xlink:title="Define, base class for defines for use with the DataReader class.">
<polygon fill="white" stroke="#666666" points="2206,-537 2104,-537 2104,-518 2206,-518 2206,-537"/>
<text text-anchor="middle" x="2155" y="-525" font-family="Helvetica,sans-Serif" font-size="10.00">Harlinn::OCI::Define</text>
</a>
</g>
</g>
<!-- Node2&#45;&gt;Node1 -->
<g id="edge1_Node000001_Node000002" class="edge">
<title>Node2&#45;&gt;Node1</title>
<g id="a_edge1_Node000001_Node000002"><a xlink:title=" ">
<path fill="none" stroke="#63b8ff" d="M2217.4,-537.94C2247.95,-543.14 2284.69,-549.39 2314.86,-554.52"/>
<polygon fill="#63b8ff" stroke="#63b8ff" points="2218.38,-534.56 2207.94,-536.34 2217.21,-541.46 2218.38,-534.56"/>
</a>
</g>
</g>
<!-- Node3 -->
<g id="Node000003" class="node">
<title>Node3</title>
<g id="a_Node000003"><a xlink:href="class_harlinn_1_1_o_c_i_1_1_define_base.html" target="_top" xlink:title="DefineBase, base class for all defines.">
<polygon fill="white" stroke="#666666" points="1963,-533 1838,-533 1838,-514 1963,-514 1963,-533"/>
<text text-anchor="middle" x="1900.5" y="-521" font-family="Helvetica,sans-Serif" font-size="10.00">Harlinn::OCI::DefineBase</text>
</a>
</g>
</g>
<!-- Node3&#45;&gt;Node2 -->
<g id="edge2_Node000002_Node000003" class="edge">
<title>Node3&#45;&gt;Node2</title>
<g id="a_edge2_Node000002_Node000003"><a xlink:title=" ">
<path fill="none" stroke="#63b8ff" d="M1974.7,-524.66C2016.16,-525.32 2066.95,-526.12 2103.88,-526.71"/>
<polygon fill="#63b8ff" stroke="#63b8ff" points="1974.84,-521.16 1964.78,-524.5 1974.73,-528.16 1974.84,-521.16"/>
</a>
</g>
</g>
<!-- Node4 -->
<g id="Node000004" class="node">
<title>Node4</title>
<g id="a_Node000004"><a xlink:href="class_harlinn_1_1_o_c_i_1_1_handle_base.html" target="_top" xlink:title="Base class for OCI handle wrappers.">
<polygon fill="white" stroke="#666666" points="489,-375 361,-375 361,-356 489,-356 489,-375"/>
<text text-anchor="middle" x="425" y="-363" font-family="Helvetica,sans-Serif" font-size="10.00">Harlinn::OCI::HandleBase</text>
</a>
</g>
</g>
<!-- Node4&#45;&gt;Node3 -->
<g id="edge3_Node000003_Node000004" class="edge">
<title>Node4&#45;&gt;Node3</title>
<g id="a_edge3_Node000003_Node000004"><a xlink:title=" ">
<path fill="none" stroke="#63b8ff" d="M432.72,-385.63C443.74,-415.77 468.35,-472.71 507,-506.5 577.83,-568.43 608.91,-586.5 703,-586.5 703,-586.5 703,-586.5 1688,-586.5 1761.37,-586.5 1843.32,-551.25 1879.96,-533.48"/>
<polygon fill="#63b8ff" stroke="#63b8ff" points="436.16,-384.86 429.55,-376.58 429.56,-387.18 436.16,-384.86"/>
</a>
</g>
</g>
<!-- Node5 -->
<g id="Node000005" class="node">
<title>Node5</title>
<g id="a_Node000005"><a xlink:href="class_harlinn_1_1_o_c_i_1_1_statement.html" target="_top" xlink:title="Statement, the context that identifies a SQL or PL/SQL statement and its associated attributes.">
<polygon fill="white" stroke="#666666" points="1747,-277 1627,-277 1627,-258 1747,-258 1747,-277"/>
<text text-anchor="middle" x="1687" y="-265" font-family="Helvetica,sans-Serif" font-size="10.00">Harlinn::OCI::Statement</text>
</a>
</g>
</g>
<!-- Node4&#45;&gt;Node5 -->
<g id="edge5_Node000005_Node000004" class="edge">
<title>Node4&#45;&gt;Node5</title>
<g id="a_edge5_Node000005_Node000004"><a xlink:title=" ">
<path fill="none" stroke="#63b8ff" d="M455.44,-350.56C470.54,-343.37 489.42,-335.12 507,-329.5 564.46,-311.14 580.72,-313.65 640,-302.5 803.58,-271.72 843.16,-252.77 1009,-238.5 1236.68,-218.9 1508.63,-245.74 1626.57,-259.83"/>
<polygon fill="#63b8ff" stroke="#63b8ff" points="454,-347.36 446.54,-354.89 457.06,-353.66 454,-347.36"/>
</a>
</g>
</g>
<!-- Node6 -->
<g id="Node000006" class="node">
<title>Node6</title>
<g id="a_Node000006"><a xlink:href="class_harlinn_1_1_o_c_i_1_1_service_context.html" target="_top" xlink:title="ServiceContext &#45; A service context handle defines attributes that determine the operational context f...">
<polygon fill="white" stroke="#666666" points="1515,-445 1375,-445 1375,-426 1515,-426 1515,-445"/>
<text text-anchor="middle" x="1445" y="-433" font-family="Helvetica,sans-Serif" font-size="10.00">Harlinn::OCI::ServiceContext</text>
</a>
</g>
</g>
<!-- Node4&#45;&gt;Node6 -->
<g id="edge7_Node000006_Node000004" class="edge">
<title>Node4&#45;&gt;Node6</title>
<g id="a_edge7_Node000006_Node000004"><a xlink:title=" ">
<path fill="none" stroke="#63b8ff" d="M440.32,-384.13C477.89,-430.7 584.62,-548.5 703,-548.5 703,-548.5 703,-548.5 1153.5,-548.5 1266.87,-548.5 1389.24,-472.82 1429.95,-445.33"/>
<polygon fill="#63b8ff" stroke="#63b8ff" points="443.26,-382.2 434.31,-376.53 437.76,-386.54 443.26,-382.2"/>
</a>
</g>
</g>
<!-- Node7 -->
<g id="Node000007" class="node">
<title>Node7</title>
<g id="a_Node000007"><a xlink:href="class_harlinn_1_1_o_c_i_1_1_environment.html" target="_top" xlink:title="The environment handle defines a context in which all OCI functions are invoked.">
<polygon fill="white" stroke="#666666" points="768,-330 640,-330 640,-311 768,-311 768,-330"/>
<text text-anchor="middle" x="704" y="-318" font-family="Helvetica,sans-Serif" font-size="10.00">Harlinn::OCI::Environment</text>
</a>
</g>
</g>
<!-- Node4&#45;&gt;Node7 -->
<g id="edge9_Node000007_Node000004" class="edge">
<title>Node4&#45;&gt;Node7</title>
<g id="a_edge9_Node000007_Node000004"><a xlink:title=" ">
<path fill="none" stroke="#63b8ff" d="M494.39,-353.61C498.66,-352.89 502.89,-352.18 507,-351.5 551.35,-344.16 601.42,-336.25 639.85,-330.25"/>
<polygon fill="#63b8ff" stroke="#63b8ff" points="493.83,-350.15 484.56,-355.28 495.01,-357.05 493.83,-350.15"/>
</a>
</g>
</g>
<!-- Node11 -->
<g id="Node000011" class="node">
<title>Node11</title>
<g id="a_Node000011"><a xlink:href="class_harlinn_1_1_o_c_i_1_1_error_handle.html" target="_top" xlink:title="The error handle is passed as a parameter to most OCI calls.">
<polygon fill="white" stroke="#666666" points="991,-312 865,-312 865,-293 991,-293 991,-312"/>
<text text-anchor="middle" x="928" y="-300" font-family="Helvetica,sans-Serif" font-size="10.00">Harlinn::OCI::ErrorHandle</text>
</a>
</g>
</g>
<!-- Node4&#45;&gt;Node11 -->
<g id="edge14_Node000011_Node000004" class="edge">
<title>Node4&#45;&gt;Node11</title>
<g id="a_edge14_Node000011_Node000004"><a xlink:title=" ">
<path fill="none" stroke="#63b8ff" d="M500.6,-365.15C585.51,-363.32 727.88,-355.92 847,-328.5 865.07,-324.34 884.9,-317.91 900.3,-312.48"/>
<polygon fill="#63b8ff" stroke="#63b8ff" points="500.7,-361.65 490.77,-365.34 500.84,-368.64 500.7,-361.65"/>
</a>
</g>
</g>
<!-- Node12 -->
<g id="Node000012" class="node">
<title>Node12</title>
<g id="a_Node000012"><a xlink:href="class_harlinn_1_1_o_c_i_1_1_server.html" target="_top" xlink:title="A server handle represents a connection between the client application and the Oracle database server...">
<polygon fill="white" stroke="#666666" points="1203.5,-489 1101.5,-489 1101.5,-470 1203.5,-470 1203.5,-489"/>
<text text-anchor="middle" x="1152.5" y="-477" font-family="Helvetica,sans-Serif" font-size="10.00">Harlinn::OCI::Server</text>
</a>
</g>
</g>
<!-- Node4&#45;&gt;Node12 -->
<g id="edge17_Node000012_Node000004" class="edge">
<title>Node4&#45;&gt;Node12</title>
<g id="a_edge17_Node000012_Node000004"><a xlink:title=" ">
<path fill="none" stroke="#63b8ff" d="M448.39,-382.08C464.08,-393 485.94,-406.82 507,-415.5 563.11,-438.63 580.31,-435.48 640,-446.5 704.41,-458.39 720.92,-459.16 786,-466.5 897.99,-479.13 1030.4,-480.49 1101.07,-480.14"/>
<polygon fill="#63b8ff" stroke="#63b8ff" points="450.44,-379.25 440.27,-376.29 446.38,-384.95 450.44,-379.25"/>
</a>
</g>
</g>
<!-- Node13 -->
<g id="Node000013" class="node">
<title>Node13</title>
<g id="a_Node000013"><a xlink:href="class_harlinn_1_1_o_c_i_1_1_session.html" target="_top" xlink:title="Session.">
<polygon fill="white" stroke="#666666" points="1207.5,-445 1097.5,-445 1097.5,-426 1207.5,-426 1207.5,-445"/>
<text text-anchor="middle" x="1152.5" y="-433" font-family="Helvetica,sans-Serif" font-size="10.00">Harlinn::OCI::Session</text>
</a>
</g>
</g>
<!-- Node4&#45;&gt;Node13 -->
<g id="edge21_Node000013_Node000004" class="edge">
<title>Node4&#45;&gt;Node13</title>
<g id="a_edge21_Node000013_Node000004"><a xlink:title=" ">
<path fill="none" stroke="#63b8ff" d="M471.93,-378.55C551.28,-400.34 719.51,-443.26 865,-458.5 920.7,-464.33 935.14,-462.48 991,-458.5 1026.52,-455.97 1066.12,-450.32 1097.11,-445.26"/>
<polygon fill="#63b8ff" stroke="#63b8ff" points="472.91,-375.19 462.34,-375.9 471.05,-381.94 472.91,-375.19"/>
</a>
</g>
</g>
<!-- Node14 -->
<g id="Node000014" class="node">
<title>Node14</title>
<g id="a_Node000014"><a xlink:href="class_harlinn_1_1_o_c_i_1_1_subscription.html" target="_top" xlink:title="Subscription.">
<polygon fill="white" stroke="#666666" points="1217,-196 1088,-196 1088,-177 1217,-177 1217,-196"/>
<text text-anchor="middle" x="1152.5" y="-184" font-family="Helvetica,sans-Serif" font-size="10.00">Harlinn::OCI::Subscription</text>
</a>
</g>
</g>
<!-- Node4&#45;&gt;Node14 -->
<g id="edge27_Node000014_Node000004" class="edge">
<title>Node4&#45;&gt;Node14</title>
<g id="a_edge27_Node000014_Node000004"><a xlink:title=" ">
<path fill="none" stroke="#63b8ff" d="M429.81,-344.64C437.45,-309.5 458.3,-239.33 507,-208.5 601.95,-148.4 944.31,-169.03 1087.67,-180.73"/>
<polygon fill="#63b8ff" stroke="#63b8ff" points="426.39,-343.88 427.86,-354.38 433.25,-345.26 426.39,-343.88"/>
</a>
</g>
</g>
<!-- Node17 -->
<g id="Node000017" class="node">
<title>Node17</title>
<g id="a_Node000017"><a xlink:href="class_harlinn_1_1_o_c_i_1_1_bind_base.html" target="_top" xlink:title="BindBase, base class for binds.">
<polygon fill="white" stroke="#666666" points="1959,-125 1842,-125 1842,-106 1959,-106 1959,-125"/>
<text text-anchor="middle" x="1900.5" y="-113" font-family="Helvetica,sans-Serif" font-size="10.00">Harlinn::OCI::BindBase</text>
</a>
</g>
</g>
<!-- Node4&#45;&gt;Node17 -->
<g id="edge33_Node000017_Node000004" class="edge">
<title>Node4&#45;&gt;Node17</title>
<g id="a_edge33_Node000017_Node000004"><a xlink:title=" ">
<path fill="none" stroke="#63b8ff" d="M430.38,-344.82C438.99,-309.05 461.35,-235.33 507,-192.5 575.25,-128.46 609.41,-115.5 703,-115.5 703,-115.5 703,-115.5 1688,-115.5 1739.96,-115.5 1799.09,-115.5 1841.6,-115.5"/>
<polygon fill="#63b8ff" stroke="#63b8ff" points="427.03,-343.78 428.23,-354.31 433.86,-345.33 427.03,-343.78"/>
</a>
</g>
</g>
<!-- Node5&#45;&gt;Node3 -->
<g id="edge4_Node000003_Node000005" class="edge">
<title>Node5&#45;&gt;Node3</title>
<g id="a_edge4_Node000003_Node000005"><a xlink:title=" ">
<path fill="none" stroke="#9a32cd" stroke-dasharray="5,2" d="M1703.12,-285.8C1744.74,-336.17 1859.97,-475.65 1891.46,-513.77"/>
<polygon fill="#9a32cd" stroke="#9a32cd" points="1706.06,-283.87 1697,-278.39 1700.67,-288.33 1706.06,-283.87"/>
</a>
</g>
<text text-anchor="middle" x="1794" y="-428.5" font-family="Helvetica,sans-Serif" font-size="10.00" fill="grey"> statement_</text>
</g>
<!-- Node5&#45;&gt;Node17 -->
<g id="edge34_Node000017_Node000005" class="edge">
<title>Node5&#45;&gt;Node17</title>
<g id="a_edge34_Node000017_Node000005"><a xlink:title=" ">
<path fill="none" stroke="#9a32cd" stroke-dasharray="5,2" d="M1710.96,-251C1755.05,-219.31 1850.38,-150.8 1885.85,-125.31"/>
<polygon fill="#9a32cd" stroke="#9a32cd" points="1709.18,-247.97 1703.11,-256.64 1713.27,-253.65 1709.18,-247.97"/>
</a>
</g>
<text text-anchor="middle" x="1794" y="-212.5" font-family="Helvetica,sans-Serif" font-size="10.00" fill="grey"> statement_</text>
</g>
<!-- Node6&#45;&gt;Node5 -->
<g id="edge6_Node000005_Node000006" class="edge">
<title>Node6&#45;&gt;Node5</title>
<g id="a_edge6_Node000005_Node000006"><a xlink:title=" ">
<path fill="none" stroke="#9a32cd" stroke-dasharray="5,2" d="M1469.13,-419.31C1518.24,-384.93 1631.71,-305.5 1671.72,-277.5"/>
<polygon fill="#9a32cd" stroke="#9a32cd" points="1467.37,-416.27 1461.18,-424.87 1471.38,-422.01 1467.37,-416.27"/>
</a>
</g>
<text text-anchor="middle" x="1569.5" y="-373.5" font-family="Helvetica,sans-Serif" font-size="10.00" fill="grey"> serviceContext_</text>
</g>
<!-- Node24 -->
<g id="Node000024" class="node">
<title>Node24</title>
<g id="a_Node000024"><a xlink:href="class_harlinn_1_1_o_c_i_1_1_object_base.html" target="_top" xlink:title="ObjectBase.">
<polygon fill="white" stroke="#666666" points="1750,-502 1624,-502 1624,-483 1750,-483 1750,-502"/>
<text text-anchor="middle" x="1687" y="-490" font-family="Helvetica,sans-Serif" font-size="10.00">Harlinn::OCI::ObjectBase</text>
</a>
</g>
</g>
<!-- Node6&#45;&gt;Node24 -->
<g id="edge46_Node000024_Node000006" class="edge">
<title>Node6&#45;&gt;Node24</title>
<g id="a_edge46_Node000024_Node000006"><a xlink:title=" ">
<path fill="none" stroke="#9a32cd" stroke-dasharray="5,2" d="M1499.05,-448.1C1542.68,-458.46 1603.67,-472.95 1643.97,-482.52"/>
<polygon fill="#9a32cd" stroke="#9a32cd" points="1500.09,-444.75 1489.55,-445.84 1498.47,-451.56 1500.09,-444.75"/>
</a>
</g>
<text text-anchor="middle" x="1569.5" y="-474.5" font-family="Helvetica,sans-Serif" font-size="10.00" fill="grey"> serviceContext_</text>
</g>
<!-- Node7&#45;&gt;Node6 -->
<g id="edge8_Node000006_Node000007" class="edge">
<title>Node7&#45;&gt;Node6</title>
<g id="a_edge8_Node000006_Node000007"><a xlink:title=" ">
<path fill="none" stroke="#9a32cd" stroke-dasharray="5,2" d="M779.7,-326.1C781.82,-326.24 783.93,-326.37 786,-326.5 912.14,-334.28 945.02,-321.74 1070,-340.5 1199.85,-359.99 1350.1,-405.32 1413.4,-425.5"/>
<polygon fill="#9a32cd" stroke="#9a32cd" points="779.94,-322.61 769.73,-325.44 779.48,-329.59 779.94,-322.61"/>
</a>
</g>
<text text-anchor="middle" x="1039.5" y="-343.5" font-family="Helvetica,sans-Serif" font-size="10.00" fill="grey"> environment_</text>
</g>
<!-- Node7&#45;&gt;Node11 -->
<g id="edge15_Node000011_Node000007" class="edge">
<title>Node7&#45;&gt;Node11</title>
<g id="a_edge15_Node000011_Node000007"><a xlink:title=" ">
<path fill="none" stroke="#9a32cd" stroke-dasharray="5,2" d="M738.61,-306.6C752.95,-301.38 770.03,-296.09 786,-293.5 811.54,-289.35 839.98,-290.15 864.59,-292.53"/>
<polygon fill="#9a32cd" stroke="#9a32cd" points="737.77,-303.18 729.66,-309.99 740.25,-309.72 737.77,-303.18"/>
</a>
</g>
<text text-anchor="middle" x="816.5" y="-296.5" font-family="Helvetica,sans-Serif" font-size="10.00" fill="grey"> environment_</text>
</g>
<!-- Node7&#45;&gt;Node12 -->
<g id="edge18_Node000012_Node000007" class="edge">
<title>Node7&#45;&gt;Node12</title>
<g id="a_edge18_Node000012_Node000007"><a xlink:title=" ">
<path fill="none" stroke="#9a32cd" stroke-dasharray="5,2" d="M727.42,-336.77C743.37,-348.01 765.51,-362.96 786,-374.5 819.78,-393.53 828.39,-398.73 865,-411.5 945.73,-439.65 1043.26,-460.04 1101.18,-470.8"/>
<polygon fill="#9a32cd" stroke="#9a32cd" points="729.77,-334.15 719.6,-331.19 725.71,-339.85 729.77,-334.15"/>
</a>
</g>
<text text-anchor="middle" x="928" y="-449.5" font-family="Helvetica,sans-Serif" font-size="10.00" fill="grey"> environment_</text>
</g>
<!-- Node7&#45;&gt;Node13 -->
<g id="edge22_Node000013_Node000007" class="edge">
<title>Node7&#45;&gt;Node13</title>
<g id="a_edge22_Node000013_Node000007"><a xlink:title=" ">
<path fill="none" stroke="#9a32cd" stroke-dasharray="5,2" d="M736.11,-335.08C750.98,-341.65 769.17,-349.12 786,-354.5 874.95,-382.9 910.98,-352.38 991,-400.5 1001.53,-406.84 998.1,-415.82 1009,-421.5 1035.79,-435.45 1069.25,-439.31 1097.01,-439.52"/>
<polygon fill="#9a32cd" stroke="#9a32cd" points="737.87,-332.03 727.31,-331.11 734.99,-338.41 737.87,-332.03"/>
</a>
</g>
<text text-anchor="middle" x="928" y="-403.5" font-family="Helvetica,sans-Serif" font-size="10.00" fill="grey"> environment_</text>
</g>
<!-- Node7&#45;&gt;Node14 -->
<g id="edge28_Node000014_Node000007" class="edge">
<title>Node7&#45;&gt;Node14</title>
<g id="a_edge28_Node000014_Node000007"><a xlink:title=" ">
<path fill="none" stroke="#9a32cd" stroke-dasharray="5,2" d="M736.87,-306.06C751.65,-299.64 769.55,-292.25 786,-286.5 899.8,-246.71 1037.96,-212.64 1107.3,-196.5"/>
<polygon fill="#9a32cd" stroke="#9a32cd" points="735.85,-302.69 728.11,-309.92 738.67,-309.09 735.85,-302.69"/>
</a>
</g>
<text text-anchor="middle" x="928" y="-262.5" font-family="Helvetica,sans-Serif" font-size="10.00" fill="grey"> environment_</text>
</g>
<!-- Node8 -->
<g id="Node000008" class="node">
<title>Node8</title>
<g id="a_Node000008"><a xlink:title=" ">
<polygon fill="white" stroke="#666666" points="489,-160.5 361,-160.5 361,-130.5 489,-130.5 489,-160.5"/>
<text text-anchor="start" x="369" y="-148.5" font-family="Helvetica,sans-Serif" font-size="10.00">std::atomic&lt; Environment</text>
<text text-anchor="middle" x="425" y="-137.5" font-family="Helvetica,sans-Serif" font-size="10.00">Mode &gt;</text>
</a>
</g>
</g>
<!-- Node8&#45;&gt;Node7 -->
<g id="edge10_Node000007_Node000008" class="edge">
<title>Node8&#45;&gt;Node7</title>
<g id="a_edge10_Node000007_Node000008"><a xlink:title=" ">
<path fill="none" stroke="#9a32cd" stroke-dasharray="5,2" d="M459.53,-166.68C519.72,-204.71 643.86,-283.14 687.45,-310.68"/>
<polygon fill="#9a32cd" stroke="#9a32cd" points="461.7,-163.91 451.38,-161.53 457.96,-169.83 461.7,-163.91"/>
</a>
</g>
<text text-anchor="middle" x="564.5" y="-271.5" font-family="Helvetica,sans-Serif" font-size="10.00" fill="grey"> defaultEnvironmentMode_</text>
</g>
<!-- Node9 -->
<g id="Node000009" class="node">
<title>Node9</title>
<g id="a_Node000009"><a xlink:title=" ">
<polygon fill="white" stroke="#666666" points="211.5,-147 122.5,-147 122.5,-128 211.5,-128 211.5,-147"/>
<text text-anchor="middle" x="167" y="-135" font-family="Helvetica,sans-Serif" font-size="10.00">std::atomic&lt; T &gt;</text>
</a>
</g>
</g>
<!-- Node9&#45;&gt;Node8 -->
<g id="edge11_Node000008_Node000009" class="edge">
<title>Node9&#45;&gt;Node8</title>
<g id="a_edge11_Node000008_Node000009"><a xlink:title=" ">
<path fill="none" stroke="orange" stroke-dasharray="5,2" d="M222.98,-139.22C263.44,-140.48 318.51,-142.2 360.79,-143.52"/>
<polygon fill="orange" stroke="orange" points="223.33,-135.73 213.23,-138.91 223.12,-142.72 223.33,-135.73"/>
</a>
</g>
<text text-anchor="middle" x="293.5" y="-145.5" font-family="Helvetica,sans-Serif" font-size="10.00" fill="grey"> &lt; EnvironmentMode &gt;</text>
</g>
<!-- Node10 -->
<g id="Node000010" class="node">
<title>Node10</title>
<g id="a_Node000010"><a xlink:title=" ">
<polygon fill="white" stroke="#666666" points="29,-127 0,-127 0,-108 29,-108 29,-127"/>
<text text-anchor="middle" x="14.5" y="-115" font-family="Helvetica,sans-Serif" font-size="10.00">T</text>
</a>
</g>
</g>
<!-- Node10&#45;&gt;Node9 -->
<g id="edge12_Node000009_Node000010" class="edge">
<title>Node10&#45;&gt;Node9</title>
<g id="a_edge12_Node000009_Node000010"><a xlink:title=" ">
<path fill="none" stroke="#9a32cd" stroke-dasharray="5,2" d="M40.5,-120.82C62.68,-123.77 95.59,-128.14 122.14,-131.67"/>
<polygon fill="#9a32cd" stroke="#9a32cd" points="41.26,-117.39 30.89,-119.55 40.34,-124.33 41.26,-117.39"/>
</a>
</g>
<text text-anchor="middle" x="68.5" y="-129.5" font-family="Helvetica,sans-Serif" font-size="10.00" fill="grey"> ptr</text>
</g>
<!-- Node19 -->
<g id="Node000019" class="node">
<title>Node19</title>
<g id="a_Node000019"><a xlink:href="struct_harlinn_1_1_common_1_1_core_1_1_internal_1_1_data.html" target="_top" xlink:title=" ">
<polygon fill="white" stroke="#666666" points="226,-109.5 108,-109.5 108,-79.5 226,-79.5 226,-109.5"/>
<text text-anchor="start" x="116" y="-97.5" font-family="Helvetica,sans-Serif" font-size="10.00">Harlinn::Common::Core</text>
<text text-anchor="middle" x="167" y="-86.5" font-family="Helvetica,sans-Serif" font-size="10.00">::Internal::Data&lt; T &gt;</text>
</a>
</g>
</g>
<!-- Node10&#45;&gt;Node19 -->
<g id="edge37_Node000019_Node000010" class="edge">
<title>Node10&#45;&gt;Node19</title>
<g id="a_edge37_Node000019_Node000010"><a xlink:title=" ">
<path fill="none" stroke="#9a32cd" stroke-dasharray="5,2" d="M40.28,-108.24C42.53,-107.58 44.79,-106.99 47,-106.5 66.56,-102.16 88.29,-99.39 107.76,-97.62"/>
<polygon fill="#9a32cd" stroke="#9a32cd" points="39.23,-104.9 30.84,-111.37 41.44,-111.54 39.23,-104.9"/>
</a>
</g>
<text text-anchor="middle" x="68.5" y="-109.5" font-family="Helvetica,sans-Serif" font-size="10.00" fill="grey"> buffer_</text>
</g>
<!-- Node21 -->
<g id="Node000021" class="node">
<title>Node21</title>
<g id="a_Node000021"><a xlink:title=" ">
<polygon fill="white" stroke="#666666" points="616.5,-19 512.5,-19 512.5,0 616.5,0 616.5,-19"/>
<text text-anchor="middle" x="564.5" y="-7" font-family="Helvetica,sans-Serif" font-size="10.00">std::unique_ptr&lt; T &gt;</text>
</a>
</g>
</g>
<!-- Node10&#45;&gt;Node21 -->
<g id="edge41_Node000021_Node000010" class="edge">
<title>Node10&#45;&gt;Node21</title>
<g id="a_edge41_Node000021_Node000010"><a xlink:title=" ">
<path fill="none" stroke="#9a32cd" stroke-dasharray="5,2" d="M36.42,-100.67C54.32,-87.22 81.36,-69.07 108,-59.5 247.82,-9.26 426.04,-5.71 512.23,-7.47"/>
<polygon fill="#9a32cd" stroke="#9a32cd" points="34.44,-97.77 28.67,-106.66 38.72,-103.31 34.44,-97.77"/>
</a>
</g>
<text text-anchor="middle" x="167" y="-62.5" font-family="Helvetica,sans-Serif" font-size="10.00" fill="grey"> ptr</text>
</g>
<!-- Node22 -->
<g id="Node000022" class="node">
<title>Node22</title>
<g id="a_Node000022"><a xlink:title=" ">
<polygon fill="white" stroke="#666666" points="336,-519 251,-519 251,-500 336,-500 336,-519"/>
<text text-anchor="middle" x="293.5" y="-507" font-family="Helvetica,sans-Serif" font-size="10.00">std::vector&lt; T &gt;</text>
</a>
</g>
</g>
<!-- Node10&#45;&gt;Node22 -->
<g id="edge43_Node000022_Node000010" class="edge">
<title>Node10&#45;&gt;Node22</title>
<g id="a_edge43_Node000022_Node000010"><a xlink:title=" ">
<path fill="none" stroke="#9a32cd" stroke-dasharray="5,2" d="M28.98,-136.57C78.47,-206.62 249.25,-448.29 285.64,-499.8"/>
<polygon fill="#9a32cd" stroke="#9a32cd" points="31.85,-134.57 23.22,-128.43 26.13,-138.61 31.85,-134.57"/>
</a>
</g>
<text text-anchor="middle" x="68.5" y="-219.5" font-family="Helvetica,sans-Serif" font-size="10.00" fill="grey"> elements</text>
</g>
<!-- Node11&#45;&gt;Node5 -->
<g id="edge25_Node000005_Node000011" class="edge">
<title>Node11&#45;&gt;Node5</title>
<g id="a_edge25_Node000005_Node000011"><a xlink:title=" ">
<path fill="none" stroke="#9a32cd" stroke-dasharray="5,2" d="M1002.78,-297.84C1004.88,-297.72 1006.95,-297.61 1009,-297.5 1237.21,-285.31 1508.88,-274.35 1626.67,-269.77"/>
<polygon fill="#9a32cd" stroke="#9a32cd" points="1002.74,-294.34 992.96,-298.4 1003.14,-301.32 1002.74,-294.34"/>
</a>
</g>
<text text-anchor="middle" x="1296" y="-288.5" font-family="Helvetica,sans-Serif" font-size="10.00" fill="grey"> error_</text>
</g>
<!-- Node11&#45;&gt;Node6 -->
<g id="edge24_Node000006_Node000011" class="edge">
<title>Node11&#45;&gt;Node6</title>
<g id="a_edge24_Node000006_Node000011"><a xlink:title=" ">
<path fill="none" stroke="#9a32cd" stroke-dasharray="5,2" d="M1002.38,-301.04C1108.04,-300.06 1296.96,-302.89 1357,-333.5 1398.26,-354.54 1427.95,-404.5 1439.12,-425.71"/>
<polygon fill="#9a32cd" stroke="#9a32cd" points="1002.64,-297.53 992.68,-301.14 1002.72,-304.53 1002.64,-297.53"/>
</a>
</g>
<text text-anchor="middle" x="1152.5" y="-309.5" font-family="Helvetica,sans-Serif" font-size="10.00" fill="grey"> error_</text>
</g>
<!-- Node11&#45;&gt;Node7 -->
<g id="edge13_Node000007_Node000011" class="edge">
<title>Node11&#45;&gt;Node7</title>
<g id="a_edge13_Node000007_Node000011"><a xlink:title=" ">
<path fill="none" stroke="#9a32cd" stroke-dasharray="5,2" d="M853.57,-308.45C825.99,-310.69 794.9,-313.21 768.32,-315.37"/>
<polygon fill="#9a32cd" stroke="#9a32cd" points="853.55,-311.97 863.24,-307.67 852.99,-304.99 853.55,-311.97"/>
</a>
</g>
<text text-anchor="middle" x="816.5" y="-316.5" font-family="Helvetica,sans-Serif" font-size="10.00" fill="grey"> error_</text>
</g>
<!-- Node11&#45;&gt;Node12 -->
<g id="edge19_Node000012_Node000011" class="edge">
<title>Node11&#45;&gt;Node12</title>
<g id="a_edge19_Node000012_Node000011"><a xlink:title=" ">
<path fill="none" stroke="#9a32cd" stroke-dasharray="5,2" d="M947.46,-319.82C960.11,-331.95 977.06,-348.76 991,-364.5 999.61,-374.22 1000,-378.14 1009,-387.5 1040.91,-420.69 1048.49,-430.86 1088,-454.5 1098.07,-460.52 1109.84,-465.63 1120.5,-469.62"/>
<polygon fill="#9a32cd" stroke="#9a32cd" points="950.24,-317.63 940.58,-313.27 945.42,-322.7 950.24,-317.63"/>
</a>
</g>
<text text-anchor="middle" x="1039.5" y="-445.5" font-family="Helvetica,sans-Serif" font-size="10.00" fill="grey"> error_</text>
</g>
<!-- Node11&#45;&gt;Node13 -->
<g id="edge23_Node000013_Node000011" class="edge">
<title>Node11&#45;&gt;Node13</title>
<g id="a_edge23_Node000013_Node000011"><a xlink:title=" ">
<path fill="none" stroke="#9a32cd" stroke-dasharray="5,2" d="M951.99,-318.96C967.59,-329.67 988.94,-343.46 1009,-353.5 1034.91,-366.47 1044.48,-362.77 1070,-376.5 1096.77,-390.9 1124.8,-412.98 1140.01,-425.65"/>
<polygon fill="#9a32cd" stroke="#9a32cd" points="954.09,-316.16 943.89,-313.31 950.08,-321.9 954.09,-316.16"/>
</a>
</g>
<text text-anchor="middle" x="1039.5" y="-379.5" font-family="Helvetica,sans-Serif" font-size="10.00" fill="grey"> error_</text>
</g>
<!-- Node11&#45;&gt;Node14 -->
<g id="edge29_Node000014_Node000011" class="edge">
<title>Node11&#45;&gt;Node14</title>
<g id="a_edge29_Node000014_Node000011"><a xlink:title=" ">
<path fill="none" stroke="#9a32cd" stroke-dasharray="5,2" d="M956.59,-287.01C971.95,-278.47 991.46,-267.75 1009,-258.5 1052.4,-235.61 1103.9,-209.95 1131.56,-196.3"/>
<polygon fill="#9a32cd" stroke="#9a32cd" points="955.05,-283.87 948.02,-291.8 958.46,-289.98 955.05,-283.87"/>
</a>
</g>
<text text-anchor="middle" x="1039.5" y="-261.5" font-family="Helvetica,sans-Serif" font-size="10.00" fill="grey"> error_</text>
</g>
<!-- Node12&#45;&gt;Node6 -->
<g id="edge16_Node000006_Node000012" class="edge">
<title>Node12&#45;&gt;Node6</title>
<g id="a_edge16_Node000006_Node000012"><a xlink:title=" ">
<path fill="none" stroke="#9a32cd" stroke-dasharray="5,2" d="M1215.02,-471.21C1255.43,-465.65 1309.41,-457.99 1357,-450.5 1366.99,-448.93 1377.62,-447.17 1387.88,-445.42"/>
<polygon fill="#9a32cd" stroke="#9a32cd" points="1214.67,-467.72 1205.24,-472.55 1215.62,-474.66 1214.67,-467.72"/>
</a>
</g>
<text text-anchor="middle" x="1296" y="-470.5" font-family="Helvetica,sans-Serif" font-size="10.00" fill="grey"> server_</text>
</g>
<!-- Node13&#45;&gt;Node6 -->
<g id="edge20_Node000006_Node000013" class="edge">
<title>Node13&#45;&gt;Node6</title>
<g id="a_edge20_Node000006_Node000013"><a xlink:title=" ">
<path fill="none" stroke="#9a32cd" stroke-dasharray="5,2" d="M1219.22,-435.5C1265.53,-435.5 1327.43,-435.5 1374.55,-435.5"/>
<polygon fill="#9a32cd" stroke="#9a32cd" points="1219.31,-432 1209.31,-435.5 1219.31,-439 1219.31,-432"/>
</a>
</g>
<text text-anchor="middle" x="1296" y="-438.5" font-family="Helvetica,sans-Serif" font-size="10.00" fill="grey"> session_</text>
</g>
<!-- Node14&#45;&gt;Node5 -->
<g id="edge26_Node000005_Node000014" class="edge">
<title>Node14&#45;&gt;Node5</title>
<g id="a_edge26_Node000005_Node000014"><a xlink:title=" ">
<path fill="none" stroke="#9a32cd" stroke-dasharray="5,2" d="M1228.43,-187.61C1319.2,-190.51 1476.08,-200.53 1606,-234.5 1627.22,-240.05 1650.26,-250 1666.14,-257.53"/>
<polygon fill="#9a32cd" stroke="#9a32cd" points="1228.77,-184.12 1218.67,-187.32 1228.56,-191.11 1228.77,-184.12"/>
</a>
</g>
<text text-anchor="middle" x="1445" y="-216.5" font-family="Helvetica,sans-Serif" font-size="10.00" fill="grey"> changeNotification_</text>
</g>
<!-- Node15 -->
<g id="Node000015" class="node">
<title>Node15</title>
<g id="a_Node000015"><a xlink:title=" ">
<polygon fill="white" stroke="#666666" points="2455,-282.5 2294,-282.5 2294,-252.5 2455,-252.5 2455,-282.5"/>
<text text-anchor="start" x="2302" y="-270.5" font-family="Helvetica,sans-Serif" font-size="10.00">std::vector&lt; std::unique</text>
<text text-anchor="middle" x="2374.5" y="-259.5" font-family="Helvetica,sans-Serif" font-size="10.00">_ptr&lt; Harlinn::OCI::BindBase &gt; &gt;</text>
</a>
</g>
</g>
<!-- Node15&#45;&gt;Node5 -->
<g id="edge30_Node000005_Node000015" class="edge">
<title>Node15&#45;&gt;Node5</title>
<g id="a_edge30_Node000005_Node000015"><a xlink:title=" ">
<path fill="none" stroke="#9a32cd" stroke-dasharray="5,2" d="M2282.34,-267.5C2139.62,-267.5 1867.36,-267.5 1747.34,-267.5"/>
<polygon fill="#9a32cd" stroke="#9a32cd" points="2282.13,-271 2292.13,-267.5 2282.13,-264 2282.13,-271"/>
</a>
</g>
<text text-anchor="middle" x="2029" y="-270.5" font-family="Helvetica,sans-Serif" font-size="10.00" fill="grey"> binds_</text>
</g>
<!-- Node16 -->
<g id="Node000016" class="node">
<title>Node16</title>
<g id="a_Node000016"><a xlink:title=" ">
<polygon fill="white" stroke="#666666" points="2215,-130.5 2095,-130.5 2095,-100.5 2215,-100.5 2215,-130.5"/>
<text text-anchor="start" x="2103" y="-118.5" font-family="Helvetica,sans-Serif" font-size="10.00">std::unique_ptr&lt; Harlinn</text>
<text text-anchor="middle" x="2155" y="-107.5" font-family="Helvetica,sans-Serif" font-size="10.00">::OCI::BindBase &gt;</text>
</a>
</g>
</g>
<!-- Node16&#45;&gt;Node15 -->
<g id="edge31_Node000015_Node000016" class="edge">
<title>Node16&#45;&gt;Node15</title>
<g id="a_edge31_Node000015_Node000016"><a xlink:title=" ">
<path fill="none" stroke="#9a32cd" stroke-dasharray="5,2" d="M2187.25,-137.34C2231.81,-168.48 2312.51,-224.88 2351.39,-252.05"/>
<polygon fill="#9a32cd" stroke="#9a32cd" points="2189.49,-134.64 2179.29,-131.78 2185.48,-140.38 2189.49,-134.64"/>
</a>
</g>
<text text-anchor="middle" x="2254.5" y="-198.5" font-family="Helvetica,sans-Serif" font-size="10.00" fill="grey"> elements</text>
</g>
<!-- Node17&#45;&gt;Node16 -->
<g id="edge32_Node000016_Node000017" class="edge">
<title>Node17&#45;&gt;Node16</title>
<g id="a_edge32_Node000016_Node000017"><a xlink:title=" ">
<path fill="none" stroke="#9a32cd" stroke-dasharray="5,2" d="M1970.64,-115.5C2009.48,-115.5 2057.45,-115.5 2094.59,-115.5"/>
<polygon fill="#9a32cd" stroke="#9a32cd" points="1970.94,-112 1960.94,-115.5 1970.94,-119 1970.94,-112"/>
</a>
</g>
<text text-anchor="middle" x="2029" y="-118.5" font-family="Helvetica,sans-Serif" font-size="10.00" fill="grey"> ptr</text>
</g>
<!-- Node18 -->
<g id="Node000018" class="node">
<title>Node18</title>
<g id="a_Node000018"><a xlink:href="class_harlinn_1_1_common_1_1_core_1_1_basic_string.html" target="_top" xlink:title=" ">
<polygon fill="white" stroke="#666666" points="766.5,-87.5 641.5,-87.5 641.5,-57.5 766.5,-57.5 766.5,-87.5"/>
<text text-anchor="start" x="649.5" y="-75.5" font-family="Helvetica,sans-Serif" font-size="10.00">Harlinn::Common::Core</text>
<text text-anchor="middle" x="704" y="-64.5" font-family="Helvetica,sans-Serif" font-size="10.00">::BasicString&lt; wchar_t &gt;</text>
</a>
</g>
</g>
<!-- Node18&#45;&gt;Node17 -->
<g id="edge35_Node000017_Node000018" class="edge">
<title>Node18&#45;&gt;Node17</title>
<g id="a_edge35_Node000017_Node000018"><a xlink:title=" ">
<path fill="none" stroke="#9a32cd" stroke-dasharray="5,2" d="M778.01,-73.49C821.32,-73.99 877.29,-74.5 927,-74.5 927,-74.5 927,-74.5 1688,-74.5 1753.08,-74.5 1827.4,-93.44 1868.33,-105.58"/>
<polygon fill="#9a32cd" stroke="#9a32cd" points="778.28,-69.99 768.24,-73.37 778.19,-76.99 778.28,-69.99"/>
</a>
</g>
<text text-anchor="middle" x="1296" y="-77.5" font-family="Helvetica,sans-Serif" font-size="10.00" fill="grey"> name_</text>
</g>
<!-- Node19&#45;&gt;Node18 -->
<g id="edge36_Node000018_Node000019" class="edge">
<title>Node19&#45;&gt;Node18</title>
<g id="a_edge36_Node000018_Node000019"><a xlink:title=" ">
<path fill="none" stroke="#9a32cd" stroke-dasharray="5,2" d="M237.73,-91.95C326.85,-88.63 485.92,-82.56 622,-76.5 628.19,-76.22 634.64,-75.93 641.09,-75.62"/>
<polygon fill="#9a32cd" stroke="#9a32cd" points="237.79,-88.44 227.93,-92.31 238.05,-95.44 237.79,-88.44"/>
</a>
</g>
<text text-anchor="middle" x="425" y="-89.5" font-family="Helvetica,sans-Serif" font-size="10.00" fill="grey"> data_</text>
</g>
<!-- Node20 -->
<g id="Node000020" class="node">
<title>Node20</title>
<g id="a_Node000020"><a xlink:href="class_harlinn_1_1_common_1_1_core_1_1_basic_string.html" target="_top" xlink:title="This is a reference counted string class.">
<polygon fill="white" stroke="#666666" points="484,-58.5 366,-58.5 366,-28.5 484,-28.5 484,-58.5"/>
<text text-anchor="start" x="374" y="-46.5" font-family="Helvetica,sans-Serif" font-size="10.00">Harlinn::Common::Core</text>
<text text-anchor="middle" x="425" y="-35.5" font-family="Helvetica,sans-Serif" font-size="10.00">::BasicString&lt; T &gt;</text>
</a>
</g>
</g>
<!-- Node19&#45;&gt;Node20 -->
<g id="edge39_Node000020_Node000019" class="edge">
<title>Node19&#45;&gt;Node20</title>
<g id="a_edge39_Node000020_Node000019"><a xlink:title=" ">
<path fill="none" stroke="#9a32cd" stroke-dasharray="5,2" d="M221.47,-75.62C228.98,-73.35 236.64,-71.23 244,-69.5 284.11,-60.08 330.11,-53.51 365.56,-49.33"/>
<polygon fill="#9a32cd" stroke="#9a32cd" points="220.57,-72.24 212.08,-78.58 222.67,-78.91 220.57,-72.24"/>
</a>
</g>
<text text-anchor="middle" x="293.5" y="-72.5" font-family="Helvetica,sans-Serif" font-size="10.00" fill="grey"> data_</text>
</g>
<!-- Node20&#45;&gt;Node18 -->
<g id="edge38_Node000018_Node000020" class="edge">
<title>Node20&#45;&gt;Node18</title>
<g id="a_edge38_Node000018_Node000020"><a xlink:title=" ">
<path fill="none" stroke="orange" stroke-dasharray="5,2" d="M495.79,-50.81C540.58,-55.5 598.2,-61.53 641.31,-66.04"/>
<polygon fill="orange" stroke="orange" points="496.22,-47.33 485.91,-49.77 495.49,-54.29 496.22,-47.33"/>
</a>
</g>
<text text-anchor="middle" x="564.5" y="-67.5" font-family="Helvetica,sans-Serif" font-size="10.00" fill="grey"> &lt; wchar_t &gt;</text>
</g>
<!-- Node21&#45;&gt;Node16 -->
<g id="edge40_Node000016_Node000021" class="edge">
<title>Node21&#45;&gt;Node16</title>
<g id="a_edge40_Node000016_Node000021"><a xlink:title=" ">
<path fill="none" stroke="orange" stroke-dasharray="5,2" d="M628.09,-14.17C678.63,-17.54 751.6,-21.5 815.5,-21.5 815.5,-21.5 815.5,-21.5 1901.5,-21.5 1990.61,-21.5 2086.92,-73.55 2130.37,-100.19"/>
<polygon fill="orange" stroke="orange" points="628.42,-10.69 618.21,-13.5 627.95,-17.67 628.42,-10.69"/>
</a>
</g>
<text text-anchor="middle" x="1296" y="-24.5" font-family="Helvetica,sans-Serif" font-size="10.00" fill="grey"> &lt; Harlinn::OCI::BindBase &gt;</text>
</g>
<!-- Node22&#45;&gt;Node15 -->
<g id="edge42_Node000015_Node000022" class="edge">
<title>Node22&#45;&gt;Node15</title>
<g id="a_edge42_Node000015_Node000022"><a xlink:title=" ">
<path fill="none" stroke="orange" stroke-dasharray="5,2" d="M316.29,-526.06C360.41,-557.9 464.55,-624.5 563.5,-624.5 563.5,-624.5 563.5,-624.5 2030,-624.5 2113.94,-624.5 2148.49,-637.71 2215,-586.5 2320.6,-505.2 2360.73,-334.73 2370.78,-282.82"/>
<polygon fill="orange" stroke="orange" points="318.45,-523.31 308.32,-520.2 314.3,-528.95 318.45,-523.31"/>
</a>
</g>
<text text-anchor="start" x="1235" y="-638.5" font-family="Helvetica,sans-Serif" font-size="10.00" fill="grey"> &lt; std::unique_ptr&lt;</text>
<text text-anchor="middle" x="1296" y="-627.5" font-family="Helvetica,sans-Serif" font-size="10.00" fill="grey"> Harlinn::OCI::BindBase &gt; &gt;</text>
</g>
<!-- Node23 -->
<g id="Node000023" class="node">
<title>Node23</title>
<g id="a_Node000023"><a xlink:href="class_harlinn_1_1_o_c_i_1_1_type.html" target="_top" xlink:title="Type.">
<polygon fill="white" stroke="#666666" points="2077,-583 1981,-583 1981,-564 2077,-564 2077,-583"/>
<text text-anchor="middle" x="2029" y="-571" font-family="Helvetica,sans-Serif" font-size="10.00">Harlinn::OCI::Type</text>
</a>
</g>
</g>
<!-- Node23&#45;&gt;Node1 -->
<g id="edge44_Node000001_Node000023" class="edge">
<title>Node23&#45;&gt;Node1</title>
<g id="a_edge44_Node000001_Node000023"><a xlink:title=" ">
<path fill="none" stroke="#9a32cd" stroke-dasharray="5,2" d="M2088.78,-571.96C2149.94,-570.36 2245.43,-567.86 2308.73,-566.2"/>
<polygon fill="#9a32cd" stroke="#9a32cd" points="2088.82,-568.46 2078.91,-572.22 2089,-575.46 2088.82,-568.46"/>
</a>
</g>
<text text-anchor="middle" x="2155" y="-574.5" font-family="Helvetica,sans-Serif" font-size="10.00" fill="grey"> type_</text>
</g>
<!-- Node24&#45;&gt;Node23 -->
<g id="edge45_Node000023_Node000024" class="edge">
<title>Node24&#45;&gt;Node23</title>
<g id="a_edge45_Node000023_Node000024"><a xlink:title=" ">
<path fill="none" stroke="#63b8ff" d="M1724.06,-506.33C1754.15,-517.43 1798.36,-532.73 1838,-542.5 1886.03,-554.34 1942.03,-562.85 1980.73,-567.93"/>
<polygon fill="#63b8ff" stroke="#63b8ff" points="1725.66,-503.19 1715.06,-502.98 1723.21,-509.75 1725.66,-503.19"/>
</a>
</g>
</g>
</g>
</svg>
