<?xml version="1.0" encoding="UTF-8" standalone="no"?>
<!DOCTYPE svg PUBLIC "-//W3C//DTD SVG 1.1//EN"
 "http://www.w3.org/Graphics/SVG/1.1/DTD/svg11.dtd">
<!-- Generated by graphviz version 7.0.1 (20221109.1506)
 -->
<!-- Title: Harlinn::Common::Core::Com::IStreamOnStreamImpl&lt; StreamT, InterfaceT &gt; Pages: 1 -->
<svg width="1880pt" height="220pt"
 viewBox="0.00 0.00 1880.00 219.50" xmlns="http://www.w3.org/2000/svg" xmlns:xlink="http://www.w3.org/1999/xlink">
<g id="graph0" class="graph" transform="scale(1 1) rotate(0) translate(4 215.5)">
<title>Harlinn::Common::Core::Com::IStreamOnStreamImpl&lt; StreamT, InterfaceT &gt;</title>
<!-- Node1 -->
<g id="Node000001" class="node">
<title>Node1</title>
<g id="a_Node000001"><a xlink:title=" ">
<polygon fill="#999999" stroke="#666666" points="1872,-121.5 1727,-121.5 1727,-80.5 1872,-80.5 1872,-121.5"/>
<text text-anchor="start" x="1735" y="-109.5" font-family="Helvetica,sans-Serif" font-size="10.00">Harlinn::Common::Core</text>
<text text-anchor="start" x="1735" y="-98.5" font-family="Helvetica,sans-Serif" font-size="10.00">::Com::IStreamOnStreamImpl</text>
<text text-anchor="middle" x="1799.5" y="-87.5" font-family="Helvetica,sans-Serif" font-size="10.00">&lt; StreamT, InterfaceT &gt;</text>
</a>
</g>
</g>
<!-- Node2 -->
<g id="Node000002" class="node">
<title>Node2</title>
<g id="a_Node000002"><a xlink:href="class_harlinn_1_1_common_1_1_core_1_1_com_1_1_internal_1_1_i_stream_on_stream_impl.xhtml" target="_top" xlink:title=" ">
<polygon fill="white" stroke="#666666" points="1690,-127 1508,-127 1508,-75 1690,-75 1690,-127"/>
<text text-anchor="start" x="1516" y="-115" font-family="Helvetica,sans-Serif" font-size="10.00">Harlinn::Common::Core</text>
<text text-anchor="start" x="1516" y="-104" font-family="Helvetica,sans-Serif" font-size="10.00">::Com::Internal::IStreamOnStream</text>
<text text-anchor="start" x="1516" y="-93" font-family="Helvetica,sans-Serif" font-size="10.00">Impl&lt; StreamT, IStreamOnStreamImpl</text>
<text text-anchor="middle" x="1599" y="-82" font-family="Helvetica,sans-Serif" font-size="10.00">&lt; StreamT, IStream &gt;, IStream &gt;</text>
</a>
</g>
</g>
<!-- Node2&#45;&gt;Node1 -->
<g id="edge1_Node000001_Node000002" class="edge">
<title>Node2&#45;&gt;Node1</title>
<g id="a_edge1_Node000001_Node000002"><a xlink:title=" ">
<path fill="none" stroke="#63b8ff" d="M1701.7,-101C1710.11,-101 1718.49,-101 1726.61,-101"/>
<polygon fill="#63b8ff" stroke="#63b8ff" points="1701.76,-97.5 1691.76,-101 1701.76,-104.5 1701.76,-97.5"/>
</a>
</g>
</g>
<!-- Node3 -->
<g id="Node000003" class="node">
<title>Node3</title>
<g id="a_Node000003"><a xlink:href="class_harlinn_1_1_common_1_1_core_1_1_com_1_1_internal_1_1_i_sequential_stream_on_stream_impl.xhtml" target="_top" xlink:title=" ">
<polygon fill="white" stroke="#666666" points="1122,-167.5 958,-167.5 958,-104.5 1122,-104.5 1122,-167.5"/>
<text text-anchor="start" x="966" y="-155.5" font-family="Helvetica,sans-Serif" font-size="10.00">Harlinn::Common::Core</text>
<text text-anchor="start" x="966" y="-144.5" font-family="Helvetica,sans-Serif" font-size="10.00">::Com::Internal::ISequential</text>
<text text-anchor="start" x="966" y="-133.5" font-family="Helvetica,sans-Serif" font-size="10.00">StreamOnStreamImpl&lt; StreamT,</text>
<text text-anchor="start" x="966" y="-122.5" font-family="Helvetica,sans-Serif" font-size="10.00"> IStreamOnStreamImpl&lt; StreamT,</text>
<text text-anchor="middle" x="1040" y="-111.5" font-family="Helvetica,sans-Serif" font-size="10.00"> IStream &gt;, IStream &gt;</text>
</a>
</g>
</g>
<!-- Node3&#45;&gt;Node2 -->
<g id="edge2_Node000002_Node000003" class="edge">
<title>Node3&#45;&gt;Node2</title>
<g id="a_edge2_Node000002_Node000003"><a xlink:title=" ">
<path fill="none" stroke="#63b8ff" d="M1133.54,-131.84C1224.36,-127.52 1366.8,-120.13 1490,-111 1495.73,-110.58 1501.62,-110.11 1507.57,-109.62"/>
<polygon fill="#63b8ff" stroke="#63b8ff" points="1133.51,-128.34 1123.68,-132.31 1133.84,-135.33 1133.51,-128.34"/>
</a>
</g>
</g>
<!-- Node4 -->
<g id="Node000004" class="node">
<title>Node4</title>
<g id="a_Node000004"><a xlink:href="class_harlinn_1_1_common_1_1_core_1_1_com_1_1_object_base.xhtml" target="_top" xlink:title=" ">
<polygon fill="white" stroke="#666666" points="783,-79 631,-79 631,-49 783,-49 783,-79"/>
<text text-anchor="start" x="639" y="-67" font-family="Helvetica,sans-Serif" font-size="10.00">Harlinn::Common::Core</text>
<text text-anchor="middle" x="707" y="-56" font-family="Helvetica,sans-Serif" font-size="10.00">::Com::ObjectBase&lt; IStream &gt;</text>
</a>
</g>
</g>
<!-- Node4&#45;&gt;Node3 -->
<g id="edge3_Node000003_Node000004" class="edge">
<title>Node4&#45;&gt;Node3</title>
<g id="a_edge3_Node000003_Node000004"><a xlink:title=" ">
<path fill="none" stroke="#63b8ff" d="M794.79,-60.33C839.1,-60.77 893.35,-64.9 940,-79 945.36,-80.62 965.28,-91.92 985.86,-104.03"/>
<polygon fill="#63b8ff" stroke="#63b8ff" points="794.98,-56.83 784.97,-60.3 794.96,-63.83 794.98,-56.83"/>
</a>
</g>
</g>
<!-- Node14 -->
<g id="Node000014" class="node">
<title>Node14</title>
<g id="a_Node000014"><a xlink:href="class_harlinn_1_1_common_1_1_core_1_1_com_1_1_internal_1_1_i_sequential_stream_on_stream_impl.xhtml" target="_top" xlink:title=" ">
<polygon fill="white" stroke="#666666" points="1119.5,-79 960.5,-79 960.5,-27 1119.5,-27 1119.5,-79"/>
<text text-anchor="start" x="968.5" y="-67" font-family="Helvetica,sans-Serif" font-size="10.00">Harlinn::Common::Core</text>
<text text-anchor="start" x="968.5" y="-56" font-family="Helvetica,sans-Serif" font-size="10.00">::Com::Internal::ISequential</text>
<text text-anchor="start" x="968.5" y="-45" font-family="Helvetica,sans-Serif" font-size="10.00">StreamOnStreamImpl&lt; StreamT,</text>
<text text-anchor="middle" x="1040" y="-34" font-family="Helvetica,sans-Serif" font-size="10.00"> DerivedT, IStream &gt;</text>
</a>
</g>
</g>
<!-- Node4&#45;&gt;Node14 -->
<g id="edge15_Node000014_Node000004" class="edge">
<title>Node4&#45;&gt;Node14</title>
<g id="a_edge15_Node000014_Node000004"><a xlink:title=" ">
<path fill="none" stroke="#63b8ff" d="M794.54,-54.77C798.75,-54.47 802.92,-54.21 807,-54 857.88,-51.33 915.13,-51.05 960.02,-51.46"/>
<polygon fill="#63b8ff" stroke="#63b8ff" points="794.56,-51.26 784.86,-55.51 795.09,-58.24 794.56,-51.26"/>
</a>
</g>
</g>
<!-- Node5 -->
<g id="Node000005" class="node">
<title>Node5</title>
<g id="a_Node000005"><a xlink:title=" ">
<polygon fill="white" stroke="#666666" points="561.5,-30 457.5,-30 457.5,0 561.5,0 561.5,-30"/>
<text text-anchor="start" x="465.5" y="-18" font-family="Helvetica,sans-Serif" font-size="10.00">Interfaces&lt; IStream,</text>
<text text-anchor="middle" x="509.5" y="-7" font-family="Helvetica,sans-Serif" font-size="10.00"> InterfaceTypes... &gt;</text>
</a>
</g>
</g>
<!-- Node5&#45;&gt;Node4 -->
<g id="edge4_Node000004_Node000005" class="edge">
<title>Node5&#45;&gt;Node4</title>
<g id="a_edge4_Node000004_Node000005"><a xlink:title=" ">
<path fill="none" stroke="#63b8ff" d="M572.8,-30.61C595.62,-36.33 621.41,-42.8 644.19,-48.51"/>
<polygon fill="#63b8ff" stroke="#63b8ff" points="573.88,-27.28 563.33,-28.24 572.18,-34.07 573.88,-27.28"/>
</a>
</g>
</g>
<!-- Node6 -->
<g id="Node000006" class="node">
<title>Node6</title>
<g id="a_Node000006"><a xlink:href="class_harlinn_1_1_common_1_1_core_1_1_com_1_1_object_base.xhtml" target="_top" xlink:title=" ">
<polygon fill="white" stroke="#666666" points="293.5,-89.5 144.5,-89.5 144.5,-48.5 293.5,-48.5 293.5,-89.5"/>
<text text-anchor="start" x="152.5" y="-77.5" font-family="Helvetica,sans-Serif" font-size="10.00">Harlinn::Common::Core</text>
<text text-anchor="start" x="152.5" y="-66.5" font-family="Helvetica,sans-Serif" font-size="10.00">::Com::ObjectBase&lt; DerivedT,</text>
<text text-anchor="middle" x="219" y="-55.5" font-family="Helvetica,sans-Serif" font-size="10.00"> InterfaceTypes &gt;</text>
</a>
</g>
</g>
<!-- Node6&#45;&gt;Node4 -->
<g id="edge5_Node000004_Node000006" class="edge">
<title>Node6&#45;&gt;Node4</title>
<g id="a_edge5_Node000004_Node000006"><a xlink:title=" ">
<path fill="none" stroke="orange" stroke-dasharray="5,2" d="M305.05,-68.13C397.13,-67.18 542.6,-65.68 630.69,-64.77"/>
<polygon fill="orange" stroke="orange" points="305.29,-64.62 295.33,-68.23 305.36,-71.62 305.29,-64.62"/>
</a>
</g>
<text text-anchor="middle" x="509.5" y="-70" font-family="Helvetica,sans-Serif" font-size="10.00" fill="grey"> &lt; IStream &gt;</text>
</g>
<!-- Node10 -->
<g id="Node000010" class="node">
<title>Node10</title>
<g id="a_Node000010"><a xlink:href="class_harlinn_1_1_common_1_1_core_1_1_com_1_1_object_base.xhtml" target="_top" xlink:title=" ">
<polygon fill="white" stroke="#666666" points="588,-140.5 431,-140.5 431,-99.5 588,-99.5 588,-140.5"/>
<text text-anchor="start" x="439" y="-128.5" font-family="Helvetica,sans-Serif" font-size="10.00">Harlinn::Common::Core</text>
<text text-anchor="start" x="439" y="-117.5" font-family="Helvetica,sans-Serif" font-size="10.00">::Com::ObjectBase&lt; ISequential</text>
<text text-anchor="middle" x="509.5" y="-106.5" font-family="Helvetica,sans-Serif" font-size="10.00">Stream &gt;</text>
</a>
</g>
</g>
<!-- Node6&#45;&gt;Node10 -->
<g id="edge11_Node000010_Node000006" class="edge">
<title>Node6&#45;&gt;Node10</title>
<g id="a_edge11_Node000010_Node000006"><a xlink:title=" ">
<path fill="none" stroke="orange" stroke-dasharray="5,2" d="M305.2,-84.06C344.96,-91.09 391.95,-99.4 430.74,-106.25"/>
<polygon fill="orange" stroke="orange" points="305.87,-80.63 295.41,-82.33 304.65,-87.52 305.87,-80.63"/>
</a>
</g>
<text text-anchor="middle" x="362.5" y="-105" font-family="Helvetica,sans-Serif" font-size="10.00" fill="grey"> &lt; ISequentialStream &gt;</text>
</g>
<!-- Node7 -->
<g id="Node000007" class="node">
<title>Node7</title>
<g id="a_Node000007"><a xlink:title=" ">
<polygon fill="white" stroke="#666666" points="107,-84 0,-84 0,-54 107,-54 107,-84"/>
<text text-anchor="start" x="8" y="-72" font-family="Helvetica,sans-Serif" font-size="10.00">Interfaces&lt; DerivedT,</text>
<text text-anchor="middle" x="53.5" y="-61" font-family="Helvetica,sans-Serif" font-size="10.00"> InterfaceTypes... &gt;</text>
</a>
</g>
</g>
<!-- Node7&#45;&gt;Node6 -->
<g id="edge6_Node000006_Node000007" class="edge">
<title>Node7&#45;&gt;Node6</title>
<g id="a_edge6_Node000006_Node000007"><a xlink:title=" ">
<path fill="none" stroke="#63b8ff" d="M118.4,-69C126.8,-69 135.47,-69 144.03,-69"/>
<polygon fill="#63b8ff" stroke="#63b8ff" points="118.65,-65.5 108.65,-69 118.65,-72.5 118.65,-65.5"/>
</a>
</g>
</g>
<!-- Node8 -->
<g id="Node000008" class="node">
<title>Node8</title>
<g id="a_Node000008"><a xlink:title=" ">
<polygon fill="white" stroke="#666666" points="789,-211.5 625,-211.5 625,-170.5 789,-170.5 789,-211.5"/>
<text text-anchor="start" x="633" y="-199.5" font-family="Helvetica,sans-Serif" font-size="10.00">IUnknownImpl&lt; IStreamOnStream</text>
<text text-anchor="start" x="633" y="-188.5" font-family="Helvetica,sans-Serif" font-size="10.00">Impl&lt; StreamT, IStream &gt;,</text>
<text text-anchor="middle" x="707" y="-177.5" font-family="Helvetica,sans-Serif" font-size="10.00"> IStream &gt;</text>
</a>
</g>
</g>
<!-- Node8&#45;&gt;Node3 -->
<g id="edge7_Node000003_Node000008" class="edge">
<title>Node8&#45;&gt;Node3</title>
<g id="a_edge7_Node000003_Node000008"><a xlink:title=" ">
<path fill="none" stroke="#63b8ff" d="M800.72,-187.04C843.47,-183.99 894.67,-178.57 940,-169 945.76,-167.78 951.65,-166.34 957.55,-164.76"/>
<polygon fill="#63b8ff" stroke="#63b8ff" points="800.73,-183.53 790.99,-187.7 801.2,-190.52 800.73,-183.53"/>
</a>
</g>
</g>
<!-- Node9 -->
<g id="Node000009" class="node">
<title>Node9</title>
<g id="a_Node000009"><a xlink:href="class_harlinn_1_1_common_1_1_core_1_1_com_1_1_internal_1_1_i_sequential_stream_on_stream_impl.xhtml" target="_top" xlink:title=" ">
<polygon fill="white" stroke="#666666" points="786.5,-151 627.5,-151 627.5,-99 786.5,-99 786.5,-151"/>
<text text-anchor="start" x="635.5" y="-139" font-family="Helvetica,sans-Serif" font-size="10.00">Harlinn::Common::Core</text>
<text text-anchor="start" x="635.5" y="-128" font-family="Helvetica,sans-Serif" font-size="10.00">::Com::Internal::ISequential</text>
<text text-anchor="start" x="635.5" y="-117" font-family="Helvetica,sans-Serif" font-size="10.00">StreamOnStreamImpl&lt; StreamT,</text>
<text text-anchor="middle" x="707" y="-106" font-family="Helvetica,sans-Serif" font-size="10.00"> DerivedT, InterfaceT &gt;</text>
</a>
</g>
</g>
<!-- Node9&#45;&gt;Node3 -->
<g id="edge8_Node000003_Node000009" class="edge">
<title>Node9&#45;&gt;Node3</title>
<g id="a_edge8_Node000003_Node000009"><a xlink:title=" ">
<path fill="none" stroke="orange" stroke-dasharray="5,2" d="M798.27,-128C848.02,-129.65 909.3,-131.69 957.57,-133.29"/>
<polygon fill="orange" stroke="orange" points="798.49,-124.51 788.37,-127.67 798.25,-131.5 798.49,-124.51"/>
</a>
</g>
<text text-anchor="start" x="807" y="-157" font-family="Helvetica,sans-Serif" font-size="10.00" fill="grey"> &lt; StreamT, IStreamOnStream</text>
<text text-anchor="start" x="807" y="-146" font-family="Helvetica,sans-Serif" font-size="10.00" fill="grey">Impl&lt; StreamT, IStream</text>
<text text-anchor="middle" x="873.5" y="-135" font-family="Helvetica,sans-Serif" font-size="10.00" fill="grey"> &gt;, IStream &gt;</text>
</g>
<!-- Node9&#45;&gt;Node14 -->
<g id="edge17_Node000014_Node000009" class="edge">
<title>Node9&#45;&gt;Node14</title>
<g id="a_edge17_Node000014_Node000009"><a xlink:title=" ">
<path fill="none" stroke="orange" stroke-dasharray="5,2" d="M797.97,-104.01C801.02,-103.33 804.03,-102.66 807,-102 857.94,-90.7 915.31,-78.58 960.26,-69.22"/>
<polygon fill="orange" stroke="orange" points="797.32,-100.57 788.34,-106.19 798.86,-107.4 797.32,-100.57"/>
</a>
</g>
<text text-anchor="start" x="826" y="-116" font-family="Helvetica,sans-Serif" font-size="10.00" fill="grey"> &lt; StreamT, DerivedT,</text>
<text text-anchor="middle" x="873.5" y="-105" font-family="Helvetica,sans-Serif" font-size="10.00" fill="grey"> IStream &gt;</text>
</g>
<!-- Node10&#45;&gt;Node9 -->
<g id="edge9_Node000009_Node000010" class="edge">
<title>Node10&#45;&gt;Node9</title>
<g id="a_edge9_Node000009_Node000010"><a xlink:title=" ">
<path fill="none" stroke="#63b8ff" d="M599.81,-122.28C608.94,-122.52 618.16,-122.75 627.16,-122.98"/>
<polygon fill="#63b8ff" stroke="#63b8ff" points="599.93,-118.79 589.84,-122.03 599.75,-125.78 599.93,-118.79"/>
</a>
</g>
</g>
<!-- Node11 -->
<g id="Node000011" class="node">
<title>Node11</title>
<g id="a_Node000011"><a xlink:title=" ">
<polygon fill="white" stroke="#666666" points="294,-140 144,-140 144,-110 294,-110 294,-140"/>
<text text-anchor="start" x="152" y="-128" font-family="Helvetica,sans-Serif" font-size="10.00">Interfaces&lt; ISequentialStream,</text>
<text text-anchor="middle" x="219" y="-117" font-family="Helvetica,sans-Serif" font-size="10.00"> InterfaceTypes... &gt;</text>
</a>
</g>
</g>
<!-- Node11&#45;&gt;Node10 -->
<g id="edge10_Node000010_Node000011" class="edge">
<title>Node11&#45;&gt;Node10</title>
<g id="a_edge10_Node000010_Node000011"><a xlink:title=" ">
<path fill="none" stroke="#63b8ff" d="M305.8,-123.51C345.41,-122.83 392.1,-122.02 430.68,-121.35"/>
<polygon fill="#63b8ff" stroke="#63b8ff" points="305.75,-120.01 295.81,-123.69 305.87,-127.01 305.75,-120.01"/>
</a>
</g>
</g>
<!-- Node12 -->
<g id="Node000012" class="node">
<title>Node12</title>
<g id="a_Node000012"><a xlink:title=" ">
<polygon fill="white" stroke="#666666" points="572,-189 447,-189 447,-159 572,-159 572,-189"/>
<text text-anchor="start" x="455" y="-177" font-family="Helvetica,sans-Serif" font-size="10.00">IUnknownImpl&lt; DerivedT,</text>
<text text-anchor="middle" x="509.5" y="-166" font-family="Helvetica,sans-Serif" font-size="10.00"> ISequentialStream &gt;</text>
</a>
</g>
</g>
<!-- Node12&#45;&gt;Node9 -->
<g id="edge12_Node000009_Node000012" class="edge">
<title>Node12&#45;&gt;Node9</title>
<g id="a_edge12_Node000009_Node000012"><a xlink:title=" ">
<path fill="none" stroke="#63b8ff" d="M582.93,-155.85C597.33,-152.24 612.52,-148.43 627.13,-144.77"/>
<polygon fill="#63b8ff" stroke="#63b8ff" points="582.41,-152.37 573.56,-158.2 584.11,-159.16 582.41,-152.37"/>
</a>
</g>
</g>
<!-- Node13 -->
<g id="Node000013" class="node">
<title>Node13</title>
<g id="a_Node000013"><a xlink:href="class_harlinn_1_1_common_1_1_core_1_1_com_1_1_internal_1_1_i_stream_on_stream_impl.xhtml" target="_top" xlink:title=" ">
<polygon fill="white" stroke="#666666" points="1339,-93.5 1159,-93.5 1159,-52.5 1339,-52.5 1339,-93.5"/>
<text text-anchor="start" x="1167" y="-81.5" font-family="Helvetica,sans-Serif" font-size="10.00">Harlinn::Common::Core</text>
<text text-anchor="start" x="1167" y="-70.5" font-family="Helvetica,sans-Serif" font-size="10.00">::Com::Internal::IStreamOnStream</text>
<text text-anchor="middle" x="1249" y="-59.5" font-family="Helvetica,sans-Serif" font-size="10.00">Impl&lt; StreamT, DerivedT, InterfaceT &gt;</text>
</a>
</g>
</g>
<!-- Node13&#45;&gt;Node2 -->
<g id="edge13_Node000002_Node000013" class="edge">
<title>Node13&#45;&gt;Node2</title>
<g id="a_edge13_Node000002_Node000013"><a xlink:title=" ">
<path fill="none" stroke="orange" stroke-dasharray="5,2" d="M1350.8,-70.88C1393.81,-71.06 1444.49,-72.73 1490,-78 1495.81,-78.67 1501.77,-79.51 1507.75,-80.47"/>
<polygon fill="orange" stroke="orange" points="1350.98,-67.38 1340.97,-70.86 1350.97,-74.38 1350.98,-67.38"/>
</a>
</g>
<text text-anchor="start" x="1357" y="-103" font-family="Helvetica,sans-Serif" font-size="10.00" fill="grey"> &lt; StreamT, IStreamOnStream</text>
<text text-anchor="start" x="1357" y="-92" font-family="Helvetica,sans-Serif" font-size="10.00" fill="grey">Impl&lt; StreamT, IStream</text>
<text text-anchor="middle" x="1423.5" y="-81" font-family="Helvetica,sans-Serif" font-size="10.00" fill="grey"> &gt;, IStream &gt;</text>
</g>
<!-- Node14&#45;&gt;Node13 -->
<g id="edge14_Node000013_Node000014" class="edge">
<title>Node14&#45;&gt;Node13</title>
<g id="a_edge14_Node000013_Node000014"><a xlink:title=" ">
<path fill="none" stroke="#63b8ff" d="M1131.26,-61.72C1140.35,-62.6 1149.57,-63.49 1158.64,-64.37"/>
<polygon fill="#63b8ff" stroke="#63b8ff" points="1131.65,-58.24 1121.35,-60.76 1130.97,-65.21 1131.65,-58.24"/>
</a>
</g>
</g>
<!-- Node15 -->
<g id="Node000015" class="node">
<title>Node15</title>
<g id="a_Node000015"><a xlink:title=" ">
<polygon fill="white" stroke="#666666" points="769.5,-30 644.5,-30 644.5,0 769.5,0 769.5,-30"/>
<text text-anchor="start" x="652.5" y="-18" font-family="Helvetica,sans-Serif" font-size="10.00">IUnknownImpl&lt; DerivedT,</text>
<text text-anchor="middle" x="707" y="-7" font-family="Helvetica,sans-Serif" font-size="10.00"> IStream &gt;</text>
</a>
</g>
</g>
<!-- Node15&#45;&gt;Node14 -->
<g id="edge16_Node000014_Node000015" class="edge">
<title>Node15&#45;&gt;Node14</title>
<g id="a_edge16_Node000014_Node000015"><a xlink:title=" ">
<path fill="none" stroke="#63b8ff" d="M781.23,-23.41C834.27,-29.5 905.89,-37.72 960.18,-43.95"/>
<polygon fill="#63b8ff" stroke="#63b8ff" points="781.71,-19.94 771.37,-22.28 780.91,-26.89 781.71,-19.94"/>
</a>
</g>
</g>
</g>
</svg>
