<?xml version="1.0" encoding="UTF-8" standalone="no"?>
<!DOCTYPE svg PUBLIC "-//W3C//DTD SVG 1.1//EN"
 "http://www.w3.org/Graphics/SVG/1.1/DTD/svg11.dtd">
<!-- Generated by graphviz version 7.0.1 (20221109.1506)
 -->
<!-- Title: Harlinn::OCI::TimestampBaseArrayBind&lt; handleType, externalType &gt; Pages: 1 -->
<svg width="1299pt" height="73pt"
 viewBox="0.00 0.00 1299.00 73.00" xmlns="http://www.w3.org/2000/svg" xmlns:xlink="http://www.w3.org/1999/xlink">
<g id="graph0" class="graph" transform="scale(1 1) rotate(0) translate(4 69)">
<title>Harlinn::OCI::TimestampBaseArrayBind&lt; handleType, externalType &gt;</title>
<!-- Node1 -->
<g id="Node000001" class="node">
<title>Node1</title>
<g id="a_Node000001"><a xlink:title=" ">
<polygon fill="#999999" stroke="#666666" points="1291,-65 1133,-65 1133,-24 1291,-24 1291,-65"/>
<text text-anchor="start" x="1141" y="-53" font-family="Helvetica,sans-Serif" font-size="10.00">Harlinn::OCI::TimestampBase</text>
<text text-anchor="start" x="1141" y="-42" font-family="Helvetica,sans-Serif" font-size="10.00">ArrayBind&lt; handleType, external</text>
<text text-anchor="middle" x="1212" y="-31" font-family="Helvetica,sans-Serif" font-size="10.00">Type &gt;</text>
</a>
</g>
</g>
<!-- Node2 -->
<g id="Node000002" class="node">
<title>Node2</title>
<g id="a_Node000002"><a xlink:href="class_harlinn_1_1_o_c_i_1_1_descriptor_array_bind.xhtml" target="_top" xlink:title=" ">
<polygon fill="white" stroke="#666666" points="1096,-65 956,-65 956,-24 1096,-24 1096,-65"/>
<text text-anchor="start" x="964" y="-53" font-family="Helvetica,sans-Serif" font-size="10.00">Harlinn::OCI::Descriptor</text>
<text text-anchor="start" x="964" y="-42" font-family="Helvetica,sans-Serif" font-size="10.00">ArrayBind&lt; OCIDateTime,</text>
<text text-anchor="middle" x="1026" y="-31" font-family="Helvetica,sans-Serif" font-size="10.00"> handleType, externalType &gt;</text>
</a>
</g>
</g>
<!-- Node2&#45;&gt;Node1 -->
<g id="edge1_Node000001_Node000002" class="edge">
<title>Node2&#45;&gt;Node1</title>
<g id="a_edge1_Node000001_Node000002"><a xlink:title=" ">
<path fill="none" stroke="#63b8ff" d="M1107.79,-44.5C1116,-44.5 1124.32,-44.5 1132.5,-44.5"/>
<polygon fill="#63b8ff" stroke="#63b8ff" points="1107.81,-41 1097.81,-44.5 1107.81,-48 1107.81,-41"/>
</a>
</g>
</g>
<!-- Node3 -->
<g id="Node000003" class="node">
<title>Node3</title>
<g id="a_Node000003"><a xlink:href="class_harlinn_1_1_o_c_i_1_1_descriptor_array_base_bind.xhtml" target="_top" xlink:title="DescriptorArrayBaseBind.">
<polygon fill="white" stroke="#666666" points="593,-59.5 474,-59.5 474,-29.5 593,-29.5 593,-59.5"/>
<text text-anchor="start" x="482" y="-47.5" font-family="Helvetica,sans-Serif" font-size="10.00">Harlinn::OCI::Descriptor</text>
<text text-anchor="middle" x="533.5" y="-36.5" font-family="Helvetica,sans-Serif" font-size="10.00">ArrayBaseBind</text>
</a>
</g>
</g>
<!-- Node3&#45;&gt;Node2 -->
<g id="edge2_Node000002_Node000003" class="edge">
<title>Node3&#45;&gt;Node2</title>
<g id="a_edge2_Node000002_Node000003"><a xlink:title=" ">
<path fill="none" stroke="#63b8ff" d="M604.82,-48.33C613.3,-48.75 621.85,-49.15 630,-49.5 766.79,-55.37 801.36,-64.1 938,-55.5 943.77,-55.14 949.75,-54.64 955.74,-54.05"/>
<polygon fill="#63b8ff" stroke="#63b8ff" points="605.01,-44.84 594.84,-47.83 604.65,-51.83 605.01,-44.84"/>
</a>
</g>
</g>
<!-- Node7 -->
<g id="Node000007" class="node">
<title>Node7</title>
<g id="a_Node000007"><a xlink:href="class_harlinn_1_1_o_c_i_1_1_descriptor_array_bind.xhtml" target="_top" xlink:title="DescriptorArrayBind.">
<polygon fill="white" stroke="#666666" points="791,-41 630,-41 630,0 791,0 791,-41"/>
<text text-anchor="start" x="638" y="-29" font-family="Helvetica,sans-Serif" font-size="10.00">Harlinn::OCI::Descriptor</text>
<text text-anchor="start" x="638" y="-18" font-family="Helvetica,sans-Serif" font-size="10.00">ArrayBind&lt; OracleT, handleType,</text>
<text text-anchor="middle" x="710.5" y="-7" font-family="Helvetica,sans-Serif" font-size="10.00"> externalType &gt;</text>
</a>
</g>
</g>
<!-- Node3&#45;&gt;Node7 -->
<g id="edge7_Node000007_Node000003" class="edge">
<title>Node3&#45;&gt;Node7</title>
<g id="a_edge7_Node000007_Node000003"><a xlink:title=" ">
<path fill="none" stroke="#63b8ff" d="M604.44,-34.91C612.76,-33.77 621.31,-32.6 629.75,-31.44"/>
<polygon fill="#63b8ff" stroke="#63b8ff" points="604.19,-31.41 594.76,-36.24 605.14,-38.34 604.19,-31.41"/>
</a>
</g>
</g>
<!-- Node4 -->
<g id="Node000004" class="node">
<title>Node4</title>
<g id="a_Node000004"><a xlink:href="class_harlinn_1_1_o_c_i_1_1_array_bind.xhtml" target="_top" xlink:title="ArrayBind, base class for binding an array of values.">
<polygon fill="white" stroke="#666666" points="437,-54 319,-54 319,-35 437,-35 437,-54"/>
<text text-anchor="middle" x="378" y="-42" font-family="Helvetica,sans-Serif" font-size="10.00">Harlinn::OCI::ArrayBind</text>
</a>
</g>
</g>
<!-- Node4&#45;&gt;Node3 -->
<g id="edge3_Node000003_Node000004" class="edge">
<title>Node4&#45;&gt;Node3</title>
<g id="a_edge3_Node000003_Node000004"><a xlink:title=" ">
<path fill="none" stroke="#63b8ff" d="M448.73,-44.5C457.07,-44.5 465.52,-44.5 473.68,-44.5"/>
<polygon fill="#63b8ff" stroke="#63b8ff" points="448.98,-41 438.98,-44.5 448.98,-48 448.98,-41"/>
</a>
</g>
</g>
<!-- Node5 -->
<g id="Node000005" class="node">
<title>Node5</title>
<g id="a_Node000005"><a xlink:href="class_harlinn_1_1_o_c_i_1_1_bind_base.xhtml" target="_top" xlink:title="BindBase, base class for binds.">
<polygon fill="white" stroke="#666666" points="282,-54 165,-54 165,-35 282,-35 282,-54"/>
<text text-anchor="middle" x="223.5" y="-42" font-family="Helvetica,sans-Serif" font-size="10.00">Harlinn::OCI::BindBase</text>
</a>
</g>
</g>
<!-- Node5&#45;&gt;Node4 -->
<g id="edge4_Node000004_Node000005" class="edge">
<title>Node5&#45;&gt;Node4</title>
<g id="a_edge4_Node000004_Node000005"><a xlink:title=" ">
<path fill="none" stroke="#63b8ff" d="M293.45,-44.5C301.82,-44.5 310.31,-44.5 318.5,-44.5"/>
<polygon fill="#63b8ff" stroke="#63b8ff" points="293.67,-41 283.67,-44.5 293.67,-48 293.67,-41"/>
</a>
</g>
</g>
<!-- Node6 -->
<g id="Node000006" class="node">
<title>Node6</title>
<g id="a_Node000006"><a xlink:href="class_harlinn_1_1_o_c_i_1_1_handle_base.xhtml" target="_top" xlink:title="Base class for OCI handle wrappers.">
<polygon fill="white" stroke="#666666" points="128,-54 0,-54 0,-35 128,-35 128,-54"/>
<text text-anchor="middle" x="64" y="-42" font-family="Helvetica,sans-Serif" font-size="10.00">Harlinn::OCI::HandleBase</text>
</a>
</g>
</g>
<!-- Node6&#45;&gt;Node5 -->
<g id="edge5_Node000005_Node000006" class="edge">
<title>Node6&#45;&gt;Node5</title>
<g id="a_edge5_Node000005_Node000006"><a xlink:title=" ">
<path fill="none" stroke="#63b8ff" d="M139.58,-44.5C148.01,-44.5 156.51,-44.5 164.69,-44.5"/>
<polygon fill="#63b8ff" stroke="#63b8ff" points="139.67,-41 129.67,-44.5 139.67,-48 139.67,-41"/>
</a>
</g>
</g>
<!-- Node7&#45;&gt;Node2 -->
<g id="edge6_Node000002_Node000007" class="edge">
<title>Node7&#45;&gt;Node2</title>
<g id="a_edge6_Node000002_Node000007"><a xlink:title=" ">
<path fill="none" stroke="orange" stroke-dasharray="5,2" d="M802.7,-24.31C844.05,-26.4 893.54,-29.42 938,-33.5 943.76,-34.03 949.73,-34.64 955.71,-35.31"/>
<polygon fill="orange" stroke="orange" points="802.94,-20.82 792.78,-23.82 802.59,-27.81 802.94,-20.82"/>
</a>
</g>
<text text-anchor="start" x="809" y="-47.5" font-family="Helvetica,sans-Serif" font-size="10.00" fill="grey"> &lt; OCIDateTime, handleType,</text>
<text text-anchor="middle" x="873.5" y="-36.5" font-family="Helvetica,sans-Serif" font-size="10.00" fill="grey"> externalType &gt;</text>
</g>
</g>
</svg>
