<?xml version="1.0" encoding="UTF-8" standalone="no"?>
<!DOCTYPE svg PUBLIC "-//W3C//DTD SVG 1.1//EN"
 "http://www.w3.org/Graphics/SVG/1.1/DTD/svg11.dtd">
<!-- Generated by graphviz version 7.0.1 (20221109.1506)
 -->
<!-- Title: Harlinn::Common::Core::Application Pages: 1 -->
<svg width="1757pt" height="174pt"
 viewBox="0.00 0.00 1757.00 174.00" xmlns="http://www.w3.org/2000/svg" xmlns:xlink="http://www.w3.org/1999/xlink">
<g id="graph0" class="graph" transform="scale(1 1) rotate(0) translate(4 170)">
<title>Harlinn::Common::Core::Application</title>
<!-- Node1 -->
<g id="Node000001" class="node">
<title>Node1</title>
<g id="a_Node000001"><a xlink:title=" ">
<polygon fill="#999999" stroke="#666666" points="1393,-106 1275,-106 1275,-76 1393,-76 1393,-106"/>
<text text-anchor="start" x="1283" y="-94" font-family="Helvetica,sans-Serif" font-size="10.00">Harlinn::Common::Core</text>
<text text-anchor="middle" x="1334" y="-83" font-family="Helvetica,sans-Serif" font-size="10.00">::Application</text>
</a>
</g>
</g>
<!-- Node9 -->
<g id="Node000009" class="node">
<title>Node9</title>
<g id="a_Node000009"><a xlink:href="class_harlinn_1_1_common_1_1_core_1_1_services_1_1_application.xhtml" target="_top" xlink:title=" ">
<polygon fill="white" stroke="#666666" points="1568,-149 1450,-149 1450,-119 1568,-119 1568,-149"/>
<text text-anchor="start" x="1458" y="-137" font-family="Helvetica,sans-Serif" font-size="10.00">Harlinn::Common::Core</text>
<text text-anchor="middle" x="1509" y="-126" font-family="Helvetica,sans-Serif" font-size="10.00">::Services::Application</text>
</a>
</g>
</g>
<!-- Node1&#45;&gt;Node9 -->
<g id="edge9_Node000001_Node000009" class="edge">
<title>Node1&#45;&gt;Node9</title>
<g id="a_edge9_Node000001_Node000009"><a xlink:title=" ">
<path fill="none" stroke="#63b8ff" d="M1403.97,-108.14C1419.15,-111.92 1435.07,-115.87 1449.77,-119.53"/>
<polygon fill="#63b8ff" stroke="#63b8ff" points="1405.11,-104.82 1394.56,-105.8 1403.42,-111.61 1405.11,-104.82"/>
</a>
</g>
</g>
<!-- Node10 -->
<g id="Node000010" class="node">
<title>Node10</title>
<g id="a_Node000010"><a xlink:href="class_harlinn_1_1_windows_1_1_application.xhtml" target="_top" xlink:title=" ">
<polygon fill="white" stroke="#666666" points="1582,-100.5 1436,-100.5 1436,-81.5 1582,-81.5 1582,-100.5"/>
<text text-anchor="middle" x="1509" y="-88.5" font-family="Helvetica,sans-Serif" font-size="10.00">Harlinn::Windows::Application</text>
</a>
</g>
</g>
<!-- Node1&#45;&gt;Node10 -->
<g id="edge10_Node000001_Node000010" class="edge">
<title>Node1&#45;&gt;Node10</title>
<g id="a_edge10_Node000001_Node000010"><a xlink:title=" ">
<path fill="none" stroke="#63b8ff" d="M1404.49,-91C1414.74,-91 1425.32,-91 1435.62,-91"/>
<polygon fill="#63b8ff" stroke="#63b8ff" points="1404.6,-87.5 1394.6,-91 1404.6,-94.5 1404.6,-87.5"/>
</a>
</g>
</g>
<!-- Node11 -->
<g id="Node000011" class="node">
<title>Node11</title>
<g id="a_Node000011"><a xlink:href="class_harlinn_1_1_windows_1_1_d_x_application.xhtml" target="_top" xlink:title=" ">
<polygon fill="white" stroke="#666666" points="1588,-63.5 1430,-63.5 1430,-44.5 1588,-44.5 1588,-63.5"/>
<text text-anchor="middle" x="1509" y="-51.5" font-family="Helvetica,sans-Serif" font-size="10.00">Harlinn::Windows::DXApplication</text>
</a>
</g>
</g>
<!-- Node1&#45;&gt;Node11 -->
<g id="edge11_Node000001_Node000011" class="edge">
<title>Node1&#45;&gt;Node11</title>
<g id="a_edge11_Node000001_Node000011"><a xlink:title=" ">
<path fill="none" stroke="#63b8ff" d="M1404.2,-76.2C1423.36,-72.1 1443.71,-67.75 1461.26,-64"/>
<polygon fill="#63b8ff" stroke="#63b8ff" points="1403.61,-72.75 1394.57,-78.26 1405.08,-79.59 1403.61,-72.75"/>
</a>
</g>
</g>
<!-- Node2 -->
<g id="Node000002" class="node">
<title>Node2</title>
<g id="a_Node000002"><a xlink:href="class_harlinn_1_1_common_1_1_core_1_1_concurrency_1_1_active_object.xhtml" target="_top" xlink:title=" ">
<polygon fill="white" stroke="#666666" points="1238,-111.5 1032,-111.5 1032,-70.5 1238,-70.5 1238,-111.5"/>
<text text-anchor="start" x="1040" y="-99.5" font-family="Helvetica,sans-Serif" font-size="10.00">Harlinn::Common::Core</text>
<text text-anchor="start" x="1040" y="-88.5" font-family="Helvetica,sans-Serif" font-size="10.00">::Concurrency::ActiveObject</text>
<text text-anchor="middle" x="1135" y="-77.5" font-family="Helvetica,sans-Serif" font-size="10.00">&lt; std::shared_ptr&lt; ApplicationMessage &gt; &gt;</text>
</a>
</g>
</g>
<!-- Node2&#45;&gt;Node1 -->
<g id="edge1_Node000001_Node000002" class="edge">
<title>Node2&#45;&gt;Node1</title>
<g id="a_edge1_Node000001_Node000002"><a xlink:title=" ">
<path fill="none" stroke="#63b8ff" d="M1249.6,-91C1258.17,-91 1266.6,-91 1274.59,-91"/>
<polygon fill="#63b8ff" stroke="#63b8ff" points="1249.76,-87.5 1239.76,-91 1249.76,-94.5 1249.76,-87.5"/>
</a>
</g>
</g>
<!-- Node3 -->
<g id="Node000003" class="node">
<title>Node3</title>
<g id="a_Node000003"><a xlink:href="class_harlinn_1_1_common_1_1_core_1_1_concurrency_1_1_active_object_base.xhtml" target="_top" xlink:title=" ">
<polygon fill="white" stroke="#666666" points="713,-166 543,-166 543,-114 713,-114 713,-166"/>
<text text-anchor="start" x="551" y="-154" font-family="Helvetica,sans-Serif" font-size="10.00">Harlinn::Common::Core</text>
<text text-anchor="start" x="551" y="-143" font-family="Helvetica,sans-Serif" font-size="10.00">::Concurrency::ActiveObject</text>
<text text-anchor="start" x="551" y="-132" font-family="Helvetica,sans-Serif" font-size="10.00">Base&lt; std::shared_ptr&lt; Application</text>
<text text-anchor="middle" x="628" y="-121" font-family="Helvetica,sans-Serif" font-size="10.00">Message &gt;, maxQueueSize &gt;</text>
</a>
</g>
</g>
<!-- Node3&#45;&gt;Node2 -->
<g id="edge2_Node000002_Node000003" class="edge">
<title>Node3&#45;&gt;Node2</title>
<g id="a_edge2_Node000002_Node000003"><a xlink:title=" ">
<path fill="none" stroke="#63b8ff" d="M724.75,-138.36C802.89,-136.05 916,-130.46 1014,-117 1023.93,-115.64 1034.25,-113.9 1044.5,-111.97"/>
<polygon fill="#63b8ff" stroke="#63b8ff" points="724.89,-134.86 714.99,-138.64 725.09,-141.85 724.89,-134.86"/>
</a>
</g>
</g>
<!-- Node4 -->
<g id="Node000004" class="node">
<title>Node4</title>
<g id="a_Node000004"><a xlink:href="class_harlinn_1_1_common_1_1_core_1_1_concurrency_1_1_active_object_base.xhtml" target="_top" xlink:title=" ">
<polygon fill="white" stroke="#666666" points="175,-136.5 0,-136.5 0,-95.5 175,-95.5 175,-136.5"/>
<text text-anchor="start" x="8" y="-124.5" font-family="Helvetica,sans-Serif" font-size="10.00">Harlinn::Common::Core</text>
<text text-anchor="start" x="8" y="-113.5" font-family="Helvetica,sans-Serif" font-size="10.00">::Concurrency::ActiveObject</text>
<text text-anchor="middle" x="87.5" y="-102.5" font-family="Helvetica,sans-Serif" font-size="10.00">Base&lt; MessageT, maxQueueSize &gt;</text>
</a>
</g>
</g>
<!-- Node4&#45;&gt;Node3 -->
<g id="edge3_Node000003_Node000004" class="edge">
<title>Node4&#45;&gt;Node3</title>
<g id="a_edge3_Node000003_Node000004"><a xlink:title=" ">
<path fill="none" stroke="orange" stroke-dasharray="5,2" d="M186.53,-120.37C288.37,-124.91 446.08,-131.94 542.57,-136.24"/>
<polygon fill="orange" stroke="orange" points="186.98,-116.89 176.83,-119.94 186.66,-123.88 186.98,-116.89"/>
</a>
</g>
<text text-anchor="start" x="217" y="-151" font-family="Helvetica,sans-Serif" font-size="10.00" fill="grey"> &lt; std::shared_ptr&lt;</text>
<text text-anchor="start" x="217" y="-140" font-family="Helvetica,sans-Serif" font-size="10.00" fill="grey"> ApplicationMessage</text>
<text text-anchor="middle" x="262.5" y="-129" font-family="Helvetica,sans-Serif" font-size="10.00" fill="grey"> &gt;, maxQueueSize &gt;</text>
</g>
<!-- Node7 -->
<g id="Node000007" class="node">
<title>Node7</title>
<g id="a_Node000007"><a xlink:href="class_harlinn_1_1_common_1_1_core_1_1_concurrency_1_1_active_object_base.xhtml" target="_top" xlink:title=" ">
<polygon fill="white" stroke="#666666" points="525,-111.5 350,-111.5 350,-70.5 525,-70.5 525,-111.5"/>
<text text-anchor="start" x="358" y="-99.5" font-family="Helvetica,sans-Serif" font-size="10.00">Harlinn::Common::Core</text>
<text text-anchor="start" x="358" y="-88.5" font-family="Helvetica,sans-Serif" font-size="10.00">::Concurrency::ActiveObject</text>
<text text-anchor="middle" x="437.5" y="-77.5" font-family="Helvetica,sans-Serif" font-size="10.00">Base&lt; MessageT, maxQueueSize &gt;</text>
</a>
</g>
</g>
<!-- Node4&#45;&gt;Node7 -->
<g id="edge7_Node000007_Node000004" class="edge">
<title>Node4&#45;&gt;Node7</title>
<g id="a_edge7_Node000007_Node000004"><a xlink:title=" ">
<path fill="none" stroke="orange" stroke-dasharray="5,2" d="M186.77,-107.48C188.87,-107.32 190.94,-107.16 193,-107 244.96,-103.06 303.2,-99.21 349.69,-96.27"/>
<polygon fill="orange" stroke="orange" points="186.65,-103.98 176.96,-108.26 187.2,-110.96 186.65,-103.98"/>
</a>
</g>
<text text-anchor="middle" x="262.5" y="-110" font-family="Helvetica,sans-Serif" font-size="10.00" fill="grey"> &lt; MessageT, maxQueueSize &gt;</text>
</g>
<!-- Node5 -->
<g id="Node000005" class="node">
<title>Node5</title>
<g id="a_Node000005"><a xlink:title=" ">
<polygon fill="white" stroke="#666666" points="887,-52 731,-52 731,0 887,0 887,-52"/>
<text text-anchor="start" x="739" y="-40" font-family="Helvetica,sans-Serif" font-size="10.00">std::enable_shared</text>
<text text-anchor="start" x="739" y="-29" font-family="Helvetica,sans-Serif" font-size="10.00">_from_this&lt; ActiveObject</text>
<text text-anchor="start" x="739" y="-18" font-family="Helvetica,sans-Serif" font-size="10.00">&lt; std::shared_ptr&lt; Application</text>
<text text-anchor="middle" x="809" y="-7" font-family="Helvetica,sans-Serif" font-size="10.00">Message &gt;, maxQueueSize &gt; &gt;</text>
</a>
</g>
</g>
<!-- Node5&#45;&gt;Node2 -->
<g id="edge4_Node000002_Node000005" class="edge">
<title>Node5&#45;&gt;Node2</title>
<g id="a_edge4_Node000002_Node000005"><a xlink:title=" ">
<path fill="none" stroke="#63b8ff" d="M898.31,-43.72C939.52,-51.98 988.82,-61.87 1031.65,-70.47"/>
<polygon fill="#63b8ff" stroke="#63b8ff" points="899.17,-40.32 888.68,-41.78 897.79,-47.18 899.17,-40.32"/>
</a>
</g>
</g>
<!-- Node6 -->
<g id="Node000006" class="node">
<title>Node6</title>
<g id="a_Node000006"><a xlink:href="class_harlinn_1_1_common_1_1_core_1_1_concurrency_1_1_active_object.xhtml" target="_top" xlink:title=" ">
<polygon fill="white" stroke="#666666" points="885,-111.5 733,-111.5 733,-70.5 885,-70.5 885,-111.5"/>
<text text-anchor="start" x="741" y="-99.5" font-family="Helvetica,sans-Serif" font-size="10.00">Harlinn::Common::Core</text>
<text text-anchor="start" x="741" y="-88.5" font-family="Helvetica,sans-Serif" font-size="10.00">::Concurrency::ActiveObject</text>
<text text-anchor="middle" x="809" y="-77.5" font-family="Helvetica,sans-Serif" font-size="10.00">&lt; MessageT, maxQueueSize &gt;</text>
</a>
</g>
</g>
<!-- Node6&#45;&gt;Node2 -->
<g id="edge5_Node000002_Node000006" class="edge">
<title>Node6&#45;&gt;Node2</title>
<g id="a_edge5_Node000002_Node000006"><a xlink:title=" ">
<path fill="none" stroke="orange" stroke-dasharray="5,2" d="M896.63,-91C938.18,-91 988.24,-91 1031.65,-91"/>
<polygon fill="orange" stroke="orange" points="896.66,-87.5 886.66,-91 896.66,-94.5 896.66,-87.5"/>
</a>
</g>
<text text-anchor="start" x="905" y="-105" font-family="Helvetica,sans-Serif" font-size="10.00" fill="grey"> &lt; std::shared_ptr&lt;</text>
<text text-anchor="middle" x="959.5" y="-94" font-family="Helvetica,sans-Serif" font-size="10.00" fill="grey"> ApplicationMessage &gt; &gt;</text>
</g>
<!-- Node7&#45;&gt;Node6 -->
<g id="edge6_Node000006_Node000007" class="edge">
<title>Node7&#45;&gt;Node6</title>
<g id="a_edge6_Node000006_Node000007"><a xlink:title=" ">
<path fill="none" stroke="#63b8ff" d="M536.4,-91C597.86,-91 675.9,-91 732.55,-91"/>
<polygon fill="#63b8ff" stroke="#63b8ff" points="536.64,-87.5 526.64,-91 536.64,-94.5 536.64,-87.5"/>
</a>
</g>
</g>
<!-- Node8 -->
<g id="Node000008" class="node">
<title>Node8</title>
<g id="a_Node000008"><a xlink:title=" ">
<polygon fill="white" stroke="#666666" points="518,-52.5 357,-52.5 357,-11.5 518,-11.5 518,-52.5"/>
<text text-anchor="start" x="365" y="-40.5" font-family="Helvetica,sans-Serif" font-size="10.00">std::enable_shared</text>
<text text-anchor="start" x="365" y="-29.5" font-family="Helvetica,sans-Serif" font-size="10.00">_from_this&lt; ActiveObject</text>
<text text-anchor="middle" x="437.5" y="-18.5" font-family="Helvetica,sans-Serif" font-size="10.00">&lt; MessageT, maxQueueSize &gt; &gt;</text>
</a>
</g>
</g>
<!-- Node8&#45;&gt;Node6 -->
<g id="edge8_Node000006_Node000008" class="edge">
<title>Node8&#45;&gt;Node6</title>
<g id="a_edge8_Node000006_Node000008"><a xlink:title=" ">
<path fill="none" stroke="#63b8ff" d="M529.25,-46.49C591.69,-56.46 673.66,-69.55 732.52,-78.95"/>
<polygon fill="#63b8ff" stroke="#63b8ff" points="530.14,-43.09 519.72,-44.97 529.04,-50 530.14,-43.09"/>
</a>
</g>
</g>
<!-- Node12 -->
<g id="Node000012" class="node">
<title>Node12</title>
<g id="a_Node000012"><a xlink:href="class_harlinn_1_1_windows_1_1_im_gui_1_1_application.xhtml" target="_top" xlink:title=" ">
<polygon fill="white" stroke="#666666" points="1749,-69 1625,-69 1625,-39 1749,-39 1749,-69"/>
<text text-anchor="start" x="1633" y="-57" font-family="Helvetica,sans-Serif" font-size="10.00">Harlinn::Windows::ImGui</text>
<text text-anchor="middle" x="1687" y="-46" font-family="Helvetica,sans-Serif" font-size="10.00">::Application</text>
</a>
</g>
</g>
<!-- Node11&#45;&gt;Node12 -->
<g id="edge12_Node000011_Node000012" class="edge">
<title>Node11&#45;&gt;Node12</title>
<g id="a_edge12_Node000011_Node000012"><a xlink:title=" ">
<path fill="none" stroke="#63b8ff" d="M1599.86,-54C1608.22,-54 1616.56,-54 1624.58,-54"/>
<polygon fill="#63b8ff" stroke="#63b8ff" points="1599.99,-50.5 1589.99,-54 1599.99,-57.5 1599.99,-50.5"/>
</a>
</g>
</g>
</g>
</svg>
