<?xml version="1.0" encoding="UTF-8" standalone="no"?>
<!DOCTYPE svg PUBLIC "-//W3C//DTD SVG 1.1//EN"
 "http://www.w3.org/Graphics/SVG/1.1/DTD/svg11.dtd">
<!-- Generated by graphviz version 7.0.1 (20221109.1506)
 -->
<!-- Title: Harlinn::Windows::Media::MFVideoSampleAllocator Pages: 1 -->
<svg width="498pt" height="86pt"
 viewBox="0.00 0.00 498.00 86.00" xmlns="http://www.w3.org/2000/svg" xmlns:xlink="http://www.w3.org/1999/xlink">
<g id="graph0" class="graph" transform="scale(1 1) rotate(0) translate(4 82)">
<title>Harlinn::Windows::Media::MFVideoSampleAllocator</title>
<!-- Node1 -->
<g id="Node000001" class="node">
<title>Node1</title>
<g id="a_Node000001"><a xlink:title=" ">
<polygon fill="#999999" stroke="#666666" points="287,-54 154,-54 154,-24 287,-24 287,-54"/>
<text text-anchor="start" x="162" y="-42" font-family="Helvetica,sans-Serif" font-size="10.00">Harlinn::Windows::Media</text>
<text text-anchor="middle" x="220.5" y="-31" font-family="Helvetica,sans-Serif" font-size="10.00">::MFVideoSampleAllocator</text>
</a>
</g>
</g>
<!-- Node3 -->
<g id="Node000003" class="node">
<title>Node3</title>
<g id="a_Node000003"><a xlink:href="class_harlinn_1_1_windows_1_1_media_1_1_m_f_video_capture_sample_allocator.html" target="_top" xlink:title="Allocates video samples for a video media sink with specialized functionality for video capture devic...">
<polygon fill="white" stroke="#666666" points="490,-78 323,-78 323,-48 490,-48 490,-78"/>
<text text-anchor="start" x="331" y="-66" font-family="Helvetica,sans-Serif" font-size="10.00">Harlinn::Windows::Media</text>
<text text-anchor="middle" x="406.5" y="-55" font-family="Helvetica,sans-Serif" font-size="10.00">::MFVideoCaptureSampleAllocator</text>
</a>
</g>
</g>
<!-- Node1&#45;&gt;Node3 -->
<g id="edge2_Node000001_Node000003" class="edge">
<title>Node1&#45;&gt;Node3</title>
<g id="a_edge2_Node000001_Node000003"><a xlink:title=" ">
<path fill="none" stroke="#63b8ff" d="M298.56,-49.05C306.54,-50.09 314.68,-51.15 322.72,-52.2"/>
<polygon fill="#63b8ff" stroke="#63b8ff" points="299.28,-45.62 288.91,-47.79 298.37,-52.56 299.28,-45.62"/>
</a>
</g>
</g>
<!-- Node4 -->
<g id="Node000004" class="node">
<title>Node4</title>
<g id="a_Node000004"><a xlink:href="class_harlinn_1_1_windows_1_1_media_1_1_m_f_video_sample_allocator_ex.html" target="_top" xlink:title="Allocates video samples that contain Microsoft Direct3D 11 texture surfaces.">
<polygon fill="white" stroke="#666666" points="479,-30 334,-30 334,0 479,0 479,-30"/>
<text text-anchor="start" x="342" y="-18" font-family="Helvetica,sans-Serif" font-size="10.00">Harlinn::Windows::Media</text>
<text text-anchor="middle" x="406.5" y="-7" font-family="Helvetica,sans-Serif" font-size="10.00">::MFVideoSampleAllocatorEx</text>
</a>
</g>
</g>
<!-- Node1&#45;&gt;Node4 -->
<g id="edge3_Node000001_Node000004" class="edge">
<title>Node1&#45;&gt;Node4</title>
<g id="a_edge3_Node000001_Node000004"><a xlink:title=" ">
<path fill="none" stroke="#63b8ff" d="M298.78,-28.92C310.29,-27.42 322.11,-25.88 333.51,-24.39"/>
<polygon fill="#63b8ff" stroke="#63b8ff" points="298.37,-25.44 288.91,-30.21 299.28,-32.38 298.37,-25.44"/>
</a>
</g>
</g>
<!-- Node2 -->
<g id="Node000002" class="node">
<title>Node2</title>
<g id="a_Node000002"><a xlink:href="class_harlinn_1_1_common_1_1_core_1_1_unknown.html" target="_top" xlink:title=" ">
<polygon fill="white" stroke="#666666" points="118,-54 0,-54 0,-24 118,-24 118,-54"/>
<text text-anchor="start" x="8" y="-42" font-family="Helvetica,sans-Serif" font-size="10.00">Harlinn::Common::Core</text>
<text text-anchor="middle" x="59" y="-31" font-family="Helvetica,sans-Serif" font-size="10.00">::Unknown</text>
</a>
</g>
</g>
<!-- Node2&#45;&gt;Node1 -->
<g id="edge1_Node000001_Node000002" class="edge">
<title>Node2&#45;&gt;Node1</title>
<g id="a_edge1_Node000001_Node000002"><a xlink:title=" ">
<path fill="none" stroke="#63b8ff" d="M129.94,-39C137.85,-39 145.89,-39 153.75,-39"/>
<polygon fill="#63b8ff" stroke="#63b8ff" points="130,-35.5 120,-39 130,-42.5 130,-35.5"/>
</a>
</g>
</g>
</g>
</svg>
