<?xml version="1.0" encoding="UTF-8" standalone="no"?>
<!DOCTYPE svg PUBLIC "-//W3C//DTD SVG 1.1//EN"
 "http://www.w3.org/Graphics/SVG/1.1/DTD/svg11.dtd">
<!-- Generated by graphviz version 7.0.1 (20221109.1506)
 -->
<!-- Title: Harlinn::AI::DML::CompiledOperator Pages: 1 -->
<svg width="158pt" height="335pt"
 viewBox="0.00 0.00 158.00 335.00" xmlns="http://www.w3.org/2000/svg" xmlns:xlink="http://www.w3.org/1999/xlink">
<g id="graph0" class="graph" transform="scale(1 1) rotate(0) translate(4 331)">
<title>Harlinn::AI::DML::CompiledOperator</title>
<!-- Node1 -->
<g id="Node000001" class="node">
<title>Node1</title>
<g id="a_Node000001"><a xlink:title=" ">
<polygon fill="#999999" stroke="#666666" points="142,-30 8,-30 8,0 142,0 142,-30"/>
<text text-anchor="start" x="16" y="-18" font-family="Helvetica,sans-Serif" font-size="10.00">Harlinn::AI::DML::Compiled</text>
<text text-anchor="middle" x="75" y="-7" font-family="Helvetica,sans-Serif" font-size="10.00">Operator</text>
</a>
</g>
</g>
<!-- Node2 -->
<g id="Node000002" class="node">
<title>Node2</title>
<g id="a_Node000002"><a xlink:href="class_harlinn_1_1_a_i_1_1_d_m_l_1_1_dispatchable.html" target="_top" xlink:title=" ">
<polygon fill="white" stroke="#666666" points="150,-85 0,-85 0,-66 150,-66 150,-85"/>
<text text-anchor="middle" x="75" y="-73" font-family="Helvetica,sans-Serif" font-size="10.00">Harlinn::AI::DML::Dispatchable</text>
</a>
</g>
</g>
<!-- Node2&#45;&gt;Node1 -->
<g id="edge1_Node000001_Node000002" class="edge">
<title>Node2&#45;&gt;Node1</title>
<g id="a_edge1_Node000001_Node000002"><a xlink:title=" ">
<path fill="none" stroke="#63b8ff" d="M75,-54.51C75,-46.49 75,-37.43 75,-30.11"/>
<polygon fill="#63b8ff" stroke="#63b8ff" points="71.5,-54.35 75,-64.35 78.5,-54.35 71.5,-54.35"/>
</a>
</g>
</g>
<!-- Node3 -->
<g id="Node000003" class="node">
<title>Node3</title>
<g id="a_Node000003"><a xlink:href="class_harlinn_1_1_a_i_1_1_d_m_l_1_1_pageable.html" target="_top" xlink:title=" ">
<polygon fill="white" stroke="#666666" points="142,-140 8,-140 8,-121 142,-121 142,-140"/>
<text text-anchor="middle" x="75" y="-128" font-family="Helvetica,sans-Serif" font-size="10.00">Harlinn::AI::DML::Pageable</text>
</a>
</g>
</g>
<!-- Node3&#45;&gt;Node2 -->
<g id="edge2_Node000002_Node000003" class="edge">
<title>Node3&#45;&gt;Node2</title>
<g id="a_edge2_Node000002_Node000003"><a xlink:title=" ">
<path fill="none" stroke="#63b8ff" d="M75,-109.35C75,-101.1 75,-91.97 75,-85.44"/>
<polygon fill="#63b8ff" stroke="#63b8ff" points="71.5,-109.23 75,-119.23 78.5,-109.23 71.5,-109.23"/>
</a>
</g>
</g>
<!-- Node4 -->
<g id="Node000004" class="node">
<title>Node4</title>
<g id="a_Node000004"><a xlink:href="class_harlinn_1_1_a_i_1_1_d_m_l_1_1_device_child.html" target="_top" xlink:title=" ">
<polygon fill="white" stroke="#666666" points="136,-206 14,-206 14,-176 136,-176 136,-206"/>
<text text-anchor="start" x="22" y="-194" font-family="Helvetica,sans-Serif" font-size="10.00">Harlinn::AI::DML::Device</text>
<text text-anchor="middle" x="75" y="-183" font-family="Helvetica,sans-Serif" font-size="10.00">Child</text>
</a>
</g>
</g>
<!-- Node4&#45;&gt;Node3 -->
<g id="edge3_Node000003_Node000004" class="edge">
<title>Node4&#45;&gt;Node3</title>
<g id="a_edge3_Node000003_Node000004"><a xlink:title=" ">
<path fill="none" stroke="#63b8ff" d="M75,-164.3C75,-155.65 75,-146.58 75,-140.18"/>
<polygon fill="#63b8ff" stroke="#63b8ff" points="71.5,-164.03 75,-174.03 78.5,-164.03 71.5,-164.03"/>
</a>
</g>
</g>
<!-- Node5 -->
<g id="Node000005" class="node">
<title>Node5</title>
<g id="a_Node000005"><a xlink:href="class_harlinn_1_1_a_i_1_1_d_m_l_1_1_object.html" target="_top" xlink:title=" ">
<polygon fill="white" stroke="#666666" points="136,-261 14,-261 14,-242 136,-242 136,-261"/>
<text text-anchor="middle" x="75" y="-249" font-family="Helvetica,sans-Serif" font-size="10.00">Harlinn::AI::DML::Object</text>
</a>
</g>
</g>
<!-- Node5&#45;&gt;Node4 -->
<g id="edge4_Node000004_Node000005" class="edge">
<title>Node5&#45;&gt;Node4</title>
<g id="a_edge4_Node000004_Node000005"><a xlink:title=" ">
<path fill="none" stroke="#63b8ff" d="M75,-230.51C75,-222.49 75,-213.43 75,-206.11"/>
<polygon fill="#63b8ff" stroke="#63b8ff" points="71.5,-230.35 75,-240.35 78.5,-230.35 71.5,-230.35"/>
</a>
</g>
</g>
<!-- Node6 -->
<g id="Node000006" class="node">
<title>Node6</title>
<g id="a_Node000006"><a xlink:href="class_harlinn_1_1_common_1_1_core_1_1_unknown.html" target="_top" xlink:title="Base class for COM interface wrappers.">
<polygon fill="white" stroke="#666666" points="134,-327 16,-327 16,-297 134,-297 134,-327"/>
<text text-anchor="start" x="24" y="-315" font-family="Helvetica,sans-Serif" font-size="10.00">Harlinn::Common::Core</text>
<text text-anchor="middle" x="75" y="-304" font-family="Helvetica,sans-Serif" font-size="10.00">::Unknown</text>
</a>
</g>
</g>
<!-- Node6&#45;&gt;Node5 -->
<g id="edge5_Node000005_Node000006" class="edge">
<title>Node6&#45;&gt;Node5</title>
<g id="a_edge5_Node000005_Node000006"><a xlink:title=" ">
<path fill="none" stroke="#63b8ff" d="M75,-285.3C75,-276.65 75,-267.58 75,-261.18"/>
<polygon fill="#63b8ff" stroke="#63b8ff" points="71.5,-285.03 75,-295.03 78.5,-285.03 71.5,-285.03"/>
</a>
</g>
</g>
</g>
</svg>
