<?xml version="1.0" encoding="UTF-8" standalone="no"?>
<!DOCTYPE svg PUBLIC "-//W3C//DTD SVG 1.1//EN"
 "http://www.w3.org/Graphics/SVG/1.1/DTD/svg11.dtd">
<!-- Generated by graphviz version 7.0.1 (20221109.1506)
 -->
<!-- Title: Harlinn::Common::Core::TimerQueueTimer Pages: 1 -->
<svg width="273pt" height="291pt"
 viewBox="0.00 0.00 273.00 291.00" xmlns="http://www.w3.org/2000/svg" xmlns:xlink="http://www.w3.org/1999/xlink">
<g id="graph0" class="graph" transform="scale(1 1) rotate(0) translate(4 287)">
<title>Harlinn::Common::Core::TimerQueueTimer</title>
<!-- Node1 -->
<g id="Node000001" class="node">
<title>Node1</title>
<g id="a_Node000001"><a xlink:title=" ">
<polygon fill="#999999" stroke="#666666" points="144,-30 26,-30 26,0 144,0 144,-30"/>
<text text-anchor="start" x="34" y="-18" font-family="Helvetica,sans-Serif" font-size="10.00">Harlinn::Common::Core</text>
<text text-anchor="middle" x="85" y="-7" font-family="Helvetica,sans-Serif" font-size="10.00">::TimerQueueTimer</text>
</a>
</g>
</g>
<!-- Node2 -->
<g id="Node000002" class="node">
<title>Node2</title>
<g id="a_Node000002"><a xlink:title=" ">
<polygon fill="white" stroke="#666666" points="170,-118 0,-118 0,-77 170,-77 170,-118"/>
<text text-anchor="start" x="8" y="-106" font-family="Helvetica,sans-Serif" font-size="10.00">std::unique_ptr&lt; Harlinn</text>
<text text-anchor="start" x="8" y="-95" font-family="Helvetica,sans-Serif" font-size="10.00">::Common::Core::TimerQueueTimer</text>
<text text-anchor="middle" x="85" y="-84" font-family="Helvetica,sans-Serif" font-size="10.00">::Args &gt;</text>
</a>
</g>
</g>
<!-- Node2&#45;&gt;Node1 -->
<g id="edge1_Node000001_Node000002" class="edge">
<title>Node2&#45;&gt;Node1</title>
<g id="a_edge1_Node000001_Node000002"><a xlink:title=" ">
<path fill="none" stroke="#9a32cd" stroke-dasharray="5,2" d="M85,-65.14C85,-53.14 85,-40.02 85,-30.37"/>
<polygon fill="#9a32cd" stroke="#9a32cd" points="81.5,-65.09 85,-75.09 88.5,-65.09 81.5,-65.09"/>
</a>
</g>
<text text-anchor="middle" x="99" y="-51" font-family="Helvetica,sans-Serif" font-size="10.00" fill="grey"> args_</text>
</g>
<!-- Node3 -->
<g id="Node000003" class="node">
<title>Node3</title>
<g id="a_Node000003"><a xlink:href="class_harlinn_1_1_common_1_1_core_1_1_timer_queue_timer_1_1_args.html" target="_top" xlink:title=" ">
<polygon fill="white" stroke="#666666" points="128.5,-217 3.5,-217 3.5,-187 128.5,-187 128.5,-217"/>
<text text-anchor="start" x="11.5" y="-205" font-family="Helvetica,sans-Serif" font-size="10.00">Harlinn::Common::Core</text>
<text text-anchor="middle" x="66" y="-194" font-family="Helvetica,sans-Serif" font-size="10.00">::TimerQueueTimer::Args</text>
</a>
</g>
</g>
<!-- Node3&#45;&gt;Node2 -->
<g id="edge2_Node000002_Node000003" class="edge">
<title>Node3&#45;&gt;Node2</title>
<g id="a_edge2_Node000002_Node000003"><a xlink:title=" ">
<path fill="none" stroke="#9a32cd" stroke-dasharray="5,2" d="M70.72,-175.53C74,-157.82 78.32,-134.56 81.34,-118.25"/>
<polygon fill="#9a32cd" stroke="#9a32cd" points="67.3,-174.79 68.92,-185.26 74.18,-176.07 67.3,-174.79"/>
</a>
</g>
<text text-anchor="middle" x="85.5" y="-150" font-family="Helvetica,sans-Serif" font-size="10.00" fill="grey"> ptr</text>
</g>
<!-- Node4 -->
<g id="Node000004" class="node">
<title>Node4</title>
<g id="a_Node000004"><a xlink:title=" ">
<polygon fill="white" stroke="#666666" points="251,-211.5 147,-211.5 147,-192.5 251,-192.5 251,-211.5"/>
<text text-anchor="middle" x="199" y="-199.5" font-family="Helvetica,sans-Serif" font-size="10.00">std::unique_ptr&lt; T &gt;</text>
</a>
</g>
</g>
<!-- Node4&#45;&gt;Node2 -->
<g id="edge3_Node000002_Node000004" class="edge">
<title>Node4&#45;&gt;Node2</title>
<g id="a_edge3_Node000002_Node000004"><a xlink:title=" ">
<path fill="none" stroke="orange" stroke-dasharray="5,2" d="M180.76,-184.6C160.72,-166.59 128.53,-137.64 107.08,-118.35"/>
<polygon fill="orange" stroke="orange" points="178.38,-187.17 188.15,-191.25 183.06,-181.96 178.38,-187.17"/>
</a>
</g>
<text text-anchor="start" x="162" y="-161" font-family="Helvetica,sans-Serif" font-size="10.00" fill="grey"> &lt; Harlinn::Common::</text>
<text text-anchor="start" x="162" y="-150" font-family="Helvetica,sans-Serif" font-size="10.00" fill="grey">Core::TimerQueueTimer</text>
<text text-anchor="middle" x="213.5" y="-139" font-family="Helvetica,sans-Serif" font-size="10.00" fill="grey">::Args &gt;</text>
</g>
<!-- Node5 -->
<g id="Node000005" class="node">
<title>Node5</title>
<g id="a_Node000005"><a xlink:title=" ">
<polygon fill="white" stroke="#666666" points="213.5,-283 184.5,-283 184.5,-264 213.5,-264 213.5,-283"/>
<text text-anchor="middle" x="199" y="-271" font-family="Helvetica,sans-Serif" font-size="10.00">T</text>
</a>
</g>
</g>
<!-- Node5&#45;&gt;Node4 -->
<g id="edge4_Node000004_Node000005" class="edge">
<title>Node5&#45;&gt;Node4</title>
<g id="a_edge4_Node000004_Node000005"><a xlink:title=" ">
<path fill="none" stroke="#9a32cd" stroke-dasharray="5,2" d="M199,-252.3C199,-238.94 199,-222.09 199,-211.95"/>
<polygon fill="#9a32cd" stroke="#9a32cd" points="195.5,-252.18 199,-262.18 202.5,-252.18 195.5,-252.18"/>
</a>
</g>
<text text-anchor="middle" x="206.5" y="-238" font-family="Helvetica,sans-Serif" font-size="10.00" fill="grey"> ptr</text>
</g>
</g>
</svg>
