<?xml version="1.0" encoding="UTF-8" standalone="no"?>
<!DOCTYPE svg PUBLIC "-//W3C//DTD SVG 1.1//EN"
 "http://www.w3.org/Graphics/SVG/1.1/DTD/svg11.dtd">
<!-- Generated by graphviz version 7.0.1 (20221109.1506)
 -->
<!-- Title: Harlinn::Windows::Imaging::BitmapCodecProgressNotification Pages: 1 -->
<svg width="326pt" height="182pt"
 viewBox="0.00 0.00 326.00 182.00" xmlns="http://www.w3.org/2000/svg" xmlns:xlink="http://www.w3.org/1999/xlink">
<g id="graph0" class="graph" transform="scale(1 1) rotate(0) translate(4 178)">
<title>Harlinn::Windows::Imaging::BitmapCodecProgressNotification</title>
<!-- Node1 -->
<g id="Node000001" class="node">
<title>Node1</title>
<g id="a_Node000001"><a xlink:title=" ">
<polygon fill="#999999" stroke="#666666" points="168,-30 0,-30 0,0 168,0 168,-30"/>
<text text-anchor="start" x="8" y="-18" font-family="Helvetica,sans-Serif" font-size="10.00">Harlinn::Windows::Imaging</text>
<text text-anchor="middle" x="84" y="-7" font-family="Helvetica,sans-Serif" font-size="10.00">::BitmapCodecProgressNotification</text>
</a>
</g>
</g>
<!-- Node2 -->
<g id="Node000002" class="node">
<title>Node2</title>
<g id="a_Node000002"><a xlink:href="class_harlinn_1_1_windows_1_1_imaging_1_1_imaging_object.xhtml" target="_top" xlink:title=" ">
<polygon fill="white" stroke="#666666" points="285,-107 153,-107 153,-77 285,-77 285,-107"/>
<text text-anchor="start" x="161" y="-95" font-family="Helvetica,sans-Serif" font-size="10.00">Harlinn::Windows::Imaging</text>
<text text-anchor="middle" x="219" y="-84" font-family="Helvetica,sans-Serif" font-size="10.00">::ImagingObject</text>
</a>
</g>
</g>
<!-- Node2&#45;&gt;Node1 -->
<g id="edge1_Node000001_Node000002" class="edge">
<title>Node2&#45;&gt;Node1</title>
<g id="a_edge1_Node000001_Node000002"><a xlink:title=" ">
<path fill="none" stroke="#63b8ff" d="M183.21,-71.12C160.17,-58.32 130.75,-41.97 109.95,-30.42"/>
<polygon fill="#63b8ff" stroke="#63b8ff" points="181.21,-74.01 191.65,-75.8 184.61,-67.89 181.21,-74.01"/>
</a>
</g>
</g>
<!-- Node4 -->
<g id="Node000004" class="node">
<title>Node4</title>
<g id="a_Node000004"><a xlink:href="class_harlinn_1_1_windows_1_1_imaging_1_1_imaging_factory.xhtml" target="_top" xlink:title=" ">
<polygon fill="white" stroke="#666666" points="318,-30 186,-30 186,0 318,0 318,-30"/>
<text text-anchor="start" x="194" y="-18" font-family="Helvetica,sans-Serif" font-size="10.00">Harlinn::Windows::Imaging</text>
<text text-anchor="middle" x="252" y="-7" font-family="Helvetica,sans-Serif" font-size="10.00">::ImagingFactory</text>
</a>
</g>
</g>
<!-- Node2&#45;&gt;Node4 -->
<g id="edge4_Node000004_Node000002" class="edge">
<title>Node2&#45;&gt;Node4</title>
<g id="a_edge4_Node000004_Node000002"><a xlink:title=" ">
<path fill="none" stroke="#63b8ff" d="M226.14,-65.91C228.12,-59.94 230.43,-53.67 233,-48 235.72,-42 239.29,-35.7 242.6,-30.29"/>
<polygon fill="#63b8ff" stroke="#63b8ff" points="222.84,-64.73 223.22,-75.31 229.53,-66.8 222.84,-64.73"/>
</a>
</g>
</g>
<!-- Node3 -->
<g id="Node000003" class="node">
<title>Node3</title>
<g id="a_Node000003"><a xlink:href="class_harlinn_1_1_common_1_1_core_1_1_unknown.xhtml" target="_top" xlink:title=" ">
<polygon fill="white" stroke="#666666" points="278,-174 160,-174 160,-144 278,-144 278,-174"/>
<text text-anchor="start" x="168" y="-162" font-family="Helvetica,sans-Serif" font-size="10.00">Harlinn::Common::Core</text>
<text text-anchor="middle" x="219" y="-151" font-family="Helvetica,sans-Serif" font-size="10.00">::Unknown</text>
</a>
</g>
</g>
<!-- Node3&#45;&gt;Node2 -->
<g id="edge2_Node000002_Node000003" class="edge">
<title>Node3&#45;&gt;Node2</title>
<g id="a_edge2_Node000002_Node000003"><a xlink:title=" ">
<path fill="none" stroke="#63b8ff" d="M219,-132.28C219,-123.81 219,-114.7 219,-107.39"/>
<polygon fill="#63b8ff" stroke="#63b8ff" points="215.5,-132.06 219,-142.06 222.5,-132.06 215.5,-132.06"/>
</a>
</g>
</g>
<!-- Node4&#45;&gt;Node2 -->
<g id="edge3_Node000002_Node000004" class="edge">
<title>Node4&#45;&gt;Node2</title>
<g id="a_edge3_Node000002_Node000004"><a xlink:title=" ">
<path fill="none" stroke="#9a32cd" stroke-dasharray="5,2" d="M241.17,-40.62C235.93,-52.51 229.84,-66.37 225.36,-76.54"/>
<polygon fill="#9a32cd" stroke="#9a32cd" points="244.22,-42.36 245.05,-31.8 237.82,-39.55 244.22,-42.36"/>
</a>
</g>
<text text-anchor="middle" x="253.5" y="-51" font-family="Helvetica,sans-Serif" font-size="10.00" fill="grey"> factory</text>
</g>
</g>
</svg>
