<?xml version="1.0" encoding="UTF-8" standalone="no"?>
<!DOCTYPE svg PUBLIC "-//W3C//DTD SVG 1.1//EN"
 "http://www.w3.org/Graphics/SVG/1.1/DTD/svg11.dtd">
<!-- Generated by graphviz version 7.0.1 (20221109.1506)
 -->
<!-- Title: Harlinn::Windows::GroupBoxWindowClass Pages: 1 -->
<svg width="414pt" height="515pt"
 viewBox="0.00 0.00 413.50 515.00" xmlns="http://www.w3.org/2000/svg" xmlns:xlink="http://www.w3.org/1999/xlink">
<g id="graph0" class="graph" transform="scale(1 1) rotate(0) translate(4 511)">
<title>Harlinn::Windows::GroupBoxWindowClass</title>
<!-- Node1 -->
<g id="Node000001" class="node">
<title>Node1</title>
<g id="a_Node000001"><a xlink:title=" ">
<polygon fill="#999999" stroke="#666666" points="142,-30 0,-30 0,0 142,0 142,-30"/>
<text text-anchor="start" x="8" y="-18" font-family="Helvetica,sans-Serif" font-size="10.00">Harlinn::Windows::GroupBox</text>
<text text-anchor="middle" x="71" y="-7" font-family="Helvetica,sans-Serif" font-size="10.00">WindowClass</text>
</a>
</g>
</g>
<!-- Node2 -->
<g id="Node000002" class="node">
<title>Node2</title>
<g id="a_Node000002"><a xlink:href="class_harlinn_1_1_windows_1_1_window_class.xhtml" target="_top" xlink:title=" ">
<polygon fill="white" stroke="#666666" points="225.5,-97 92.5,-97 92.5,-67 225.5,-67 225.5,-97"/>
<text text-anchor="start" x="100.5" y="-85" font-family="Helvetica,sans-Serif" font-size="10.00">Harlinn::Windows::Window</text>
<text text-anchor="middle" x="159" y="-74" font-family="Helvetica,sans-Serif" font-size="10.00">Class</text>
</a>
</g>
</g>
<!-- Node2&#45;&gt;Node1 -->
<g id="edge1_Node000001_Node000002" class="edge">
<title>Node2&#45;&gt;Node1</title>
<g id="a_edge1_Node000001_Node000002"><a xlink:title=" ">
<path fill="none" stroke="#63b8ff" d="M130.4,-59.88C117.34,-50.23 102.2,-39.05 90.48,-30.39"/>
<polygon fill="#63b8ff" stroke="#63b8ff" points="128.13,-62.55 138.25,-65.68 132.29,-56.92 128.13,-62.55"/>
</a>
</g>
</g>
<!-- Node3 -->
<g id="Node000003" class="node">
<title>Node3</title>
<g id="a_Node000003"><a xlink:href="class_harlinn_1_1_common_1_1_core_1_1_basic_string.xhtml" target="_top" xlink:title=" ">
<polygon fill="white" stroke="#666666" points="405.5,-236 280.5,-236 280.5,-206 405.5,-206 405.5,-236"/>
<text text-anchor="start" x="288.5" y="-224" font-family="Helvetica,sans-Serif" font-size="10.00">Harlinn::Common::Core</text>
<text text-anchor="middle" x="343" y="-213" font-family="Helvetica,sans-Serif" font-size="10.00">::BasicString&lt; wchar_t &gt;</text>
</a>
</g>
</g>
<!-- Node3&#45;&gt;Node2 -->
<g id="edge2_Node000002_Node000003" class="edge">
<title>Node3&#45;&gt;Node2</title>
<g id="a_edge2_Node000002_Node000003"><a xlink:title=" ">
<path fill="none" stroke="#9a32cd" stroke-dasharray="5,2" d="M318.31,-197.98C303.48,-185.04 284.04,-168.62 266,-155 237.95,-133.82 204.06,-111.54 182.04,-97.47"/>
<polygon fill="#9a32cd" stroke="#9a32cd" points="315.94,-200.55 325.76,-204.52 320.56,-195.29 315.94,-200.55"/>
</a>
</g>
<text text-anchor="middle" x="270" y="-129" font-family="Helvetica,sans-Serif" font-size="10.00" fill="grey"> menuName_</text>
<text text-anchor="middle" x="270" y="-118" font-family="Helvetica,sans-Serif" font-size="10.00" fill="grey">name_</text>
</g>
<!-- Node4 -->
<g id="Node000004" class="node">
<title>Node4</title>
<g id="a_Node000004"><a xlink:href="struct_harlinn_1_1_common_1_1_core_1_1_internal_1_1_data.xhtml" target="_top" xlink:title=" ">
<polygon fill="white" stroke="#666666" points="310,-441 192,-441 192,-411 310,-411 310,-441"/>
<text text-anchor="start" x="200" y="-429" font-family="Helvetica,sans-Serif" font-size="10.00">Harlinn::Common::Core</text>
<text text-anchor="middle" x="251" y="-418" font-family="Helvetica,sans-Serif" font-size="10.00">::Internal::Data&lt; T &gt;</text>
</a>
</g>
</g>
<!-- Node4&#45;&gt;Node3 -->
<g id="edge3_Node000003_Node000004" class="edge">
<title>Node4&#45;&gt;Node3</title>
<g id="a_edge3_Node000003_Node000004"><a xlink:title=" ">
<path fill="none" stroke="#9a32cd" stroke-dasharray="5,2" d="M262.17,-400.36C281.6,-357.48 321.04,-270.46 336.54,-236.26"/>
<polygon fill="#9a32cd" stroke="#9a32cd" points="259.03,-398.79 258.09,-409.35 265.41,-401.68 259.03,-398.79"/>
</a>
</g>
<text text-anchor="middle" x="305" y="-346.5" font-family="Helvetica,sans-Serif" font-size="10.00" fill="grey"> data_</text>
</g>
<!-- Node6 -->
<g id="Node000006" class="node">
<title>Node6</title>
<g id="a_Node000006"><a xlink:href="class_harlinn_1_1_common_1_1_core_1_1_basic_string.xhtml" target="_top" xlink:title="This is a reference counted string class.">
<polygon fill="white" stroke="#666666" points="248,-364 130,-364 130,-334 248,-334 248,-364"/>
<text text-anchor="start" x="138" y="-352" font-family="Helvetica,sans-Serif" font-size="10.00">Harlinn::Common::Core</text>
<text text-anchor="middle" x="189" y="-341" font-family="Helvetica,sans-Serif" font-size="10.00">::BasicString&lt; T &gt;</text>
</a>
</g>
</g>
<!-- Node4&#45;&gt;Node6 -->
<g id="edge6_Node000006_Node000004" class="edge">
<title>Node4&#45;&gt;Node6</title>
<g id="a_edge6_Node000006_Node000004"><a xlink:title=" ">
<path fill="none" stroke="#9a32cd" stroke-dasharray="5,2" d="M231.8,-401.77C221.71,-389.57 209.66,-374.99 200.92,-364.42"/>
<polygon fill="#9a32cd" stroke="#9a32cd" points="229.01,-403.9 238.08,-409.37 234.41,-399.44 229.01,-403.9"/>
</a>
</g>
<text text-anchor="middle" x="238" y="-385" font-family="Helvetica,sans-Serif" font-size="10.00" fill="grey"> data_</text>
</g>
<!-- Node5 -->
<g id="Node000005" class="node">
<title>Node5</title>
<g id="a_Node000005"><a xlink:title=" ">
<polygon fill="white" stroke="#666666" points="265.5,-507 236.5,-507 236.5,-488 265.5,-488 265.5,-507"/>
<text text-anchor="middle" x="251" y="-495" font-family="Helvetica,sans-Serif" font-size="10.00">T</text>
</a>
</g>
</g>
<!-- Node5&#45;&gt;Node4 -->
<g id="edge4_Node000004_Node000005" class="edge">
<title>Node5&#45;&gt;Node4</title>
<g id="a_edge4_Node000004_Node000005"><a xlink:title=" ">
<path fill="none" stroke="#9a32cd" stroke-dasharray="5,2" d="M251,-476.39C251,-465.15 251,-451.41 251,-441.27"/>
<polygon fill="#9a32cd" stroke="#9a32cd" points="247.5,-476.18 251,-486.18 254.5,-476.18 247.5,-476.18"/>
</a>
</g>
<text text-anchor="middle" x="267" y="-462" font-family="Helvetica,sans-Serif" font-size="10.00" fill="grey"> buffer_</text>
</g>
<!-- Node6&#45;&gt;Node1 -->
<g id="edge8_Node000001_Node000006" class="edge">
<title>Node6&#45;&gt;Node1</title>
<g id="a_edge8_Node000001_Node000006"><a xlink:title=" ">
<path fill="none" stroke="#9a32cd" stroke-dasharray="5,2" d="M170.31,-324.88C141.75,-287.88 88.5,-211.87 69,-137 59.26,-99.59 64.55,-53.45 68.3,-30.45"/>
<polygon fill="#9a32cd" stroke="#9a32cd" points="167.48,-326.94 176.4,-332.65 172.98,-322.62 167.48,-326.94"/>
</a>
</g>
<text text-anchor="middle" x="111.5" y="-123.5" font-family="Helvetica,sans-Serif" font-size="10.00" fill="grey"> windowClassName</text>
</g>
<!-- Node6&#45;&gt;Node2 -->
<g id="edge7_Node000002_Node000006" class="edge">
<title>Node6&#45;&gt;Node2</title>
<g id="a_edge7_Node000002_Node000006"><a xlink:title=" ">
<path fill="none" stroke="#9a32cd" stroke-dasharray="5,2" d="M178.69,-323.31C174.6,-312.38 170.33,-299.25 168,-287 154.63,-216.65 156.76,-130.31 158.25,-97.01"/>
<polygon fill="#9a32cd" stroke="#9a32cd" points="175.33,-324.33 182.24,-332.37 181.85,-321.78 175.33,-324.33"/>
</a>
</g>
<text text-anchor="middle" x="219.5" y="-279" font-family="Helvetica,sans-Serif" font-size="10.00" fill="grey"> animate_class_name</text>
<text text-anchor="middle" x="219.5" y="-268" font-family="Helvetica,sans-Serif" font-size="10.00" fill="grey">button_class_name</text>
<text text-anchor="middle" x="219.5" y="-257" font-family="Helvetica,sans-Serif" font-size="10.00" fill="grey">combobox_class_name</text>
<text text-anchor="start" x="168" y="-246" font-family="Helvetica,sans-Serif" font-size="10.00" fill="grey">datetimepick_class</text>
<text text-anchor="middle" x="219.5" y="-235" font-family="Helvetica,sans-Serif" font-size="10.00" fill="grey">_name</text>
<text text-anchor="middle" x="219.5" y="-224" font-family="Helvetica,sans-Serif" font-size="10.00" fill="grey">edit_class_name</text>
<text text-anchor="middle" x="219.5" y="-213" font-family="Helvetica,sans-Serif" font-size="10.00" fill="grey">header_class_name</text>
<text text-anchor="middle" x="219.5" y="-202" font-family="Helvetica,sans-Serif" font-size="10.00" fill="grey">hotkey_class_name</text>
<text text-anchor="middle" x="219.5" y="-191" font-family="Helvetica,sans-Serif" font-size="10.00" fill="grey">ipaddress_class_name</text>
<text text-anchor="middle" x="219.5" y="-180" font-family="Helvetica,sans-Serif" font-size="10.00" fill="grey">link_class_name</text>
<text text-anchor="middle" x="219.5" y="-169" font-family="Helvetica,sans-Serif" font-size="10.00" fill="grey">listbox_class_name</text>
<text text-anchor="middle" x="219.5" y="-158" font-family="Helvetica,sans-Serif" font-size="10.00" fill="grey">...</text>
</g>
<!-- Node6&#45;&gt;Node3 -->
<g id="edge5_Node000003_Node000006" class="edge">
<title>Node6&#45;&gt;Node3</title>
<g id="a_edge5_Node000003_Node000006"><a xlink:title=" ">
<path fill="none" stroke="orange" stroke-dasharray="5,2" d="M216.17,-326.81C230.99,-315.17 249.6,-300.41 266,-287 286.99,-269.83 310.79,-249.63 326.3,-236.35"/>
<polygon fill="orange" stroke="orange" points="214.39,-323.76 208.68,-332.68 218.71,-329.27 214.39,-323.76"/>
</a>
</g>
<text text-anchor="middle" x="270.5" y="-308" font-family="Helvetica,sans-Serif" font-size="10.00" fill="grey"> &lt; wchar_t &gt;</text>
</g>
</g>
</svg>
