<?xml version="1.0" encoding="UTF-8" standalone="no"?>
<!DOCTYPE svg PUBLIC "-//W3C//DTD SVG 1.1//EN"
 "http://www.w3.org/Graphics/SVG/1.1/DTD/svg11.dtd">
<!-- Generated by graphviz version 7.0.1 (20221109.1506)
 -->
<!-- Title: Harlinn::Common::Core::IO::FileDispatcher Pages: 1 -->
<svg width="1253pt" height="90pt"
 viewBox="0.00 0.00 1253.00 90.00" xmlns="http://www.w3.org/2000/svg" xmlns:xlink="http://www.w3.org/1999/xlink">
<g id="graph0" class="graph" transform="scale(1 1) rotate(0) translate(4 86)">
<title>Harlinn::Common::Core::IO::FileDispatcher</title>
<!-- Node1 -->
<g id="Node000001" class="node">
<title>Node1</title>
<g id="a_Node000001"><a xlink:title=" ">
<polygon fill="#999999" stroke="#666666" points="1245,-58.5 1127,-58.5 1127,-28.5 1245,-28.5 1245,-58.5"/>
<text text-anchor="start" x="1135" y="-46.5" font-family="Helvetica,sans-Serif" font-size="10.00">Harlinn::Common::Core</text>
<text text-anchor="middle" x="1186" y="-35.5" font-family="Helvetica,sans-Serif" font-size="10.00">::IO::FileDispatcher</text>
</a>
</g>
</g>
<!-- Node2 -->
<g id="Node000002" class="node">
<title>Node2</title>
<g id="a_Node000002"><a xlink:href="class_harlinn_1_1_common_1_1_core_1_1_i_o_1_1_file_handler.xhtml" target="_top" xlink:title=" ">
<polygon fill="white" stroke="#666666" points="1090,-58.5 923,-58.5 923,-28.5 1090,-28.5 1090,-58.5"/>
<text text-anchor="start" x="931" y="-46.5" font-family="Helvetica,sans-Serif" font-size="10.00">Harlinn::Common::Core</text>
<text text-anchor="middle" x="1006.5" y="-35.5" font-family="Helvetica,sans-Serif" font-size="10.00">::IO::FileHandler&lt; FileDispatcher &gt;</text>
</a>
</g>
</g>
<!-- Node2&#45;&gt;Node1 -->
<g id="edge1_Node000001_Node000002" class="edge">
<title>Node2&#45;&gt;Node1</title>
<g id="a_edge1_Node000001_Node000002"><a xlink:title=" ">
<path fill="none" stroke="#63b8ff" d="M1101.53,-43.5C1110.08,-43.5 1118.56,-43.5 1126.66,-43.5"/>
<polygon fill="#63b8ff" stroke="#63b8ff" points="1101.79,-40 1091.79,-43.5 1101.79,-47 1101.79,-40"/>
</a>
</g>
</g>
<!-- Node3 -->
<g id="Node000003" class="node">
<title>Node3</title>
<g id="a_Node000003"><a xlink:title=" ">
<polygon fill="white" stroke="#666666" points="555.5,-82 472.5,-82 472.5,-63 555.5,-63 555.5,-82"/>
<text text-anchor="middle" x="514" y="-70" font-family="Helvetica,sans-Serif" font-size="10.00">ContextHandler</text>
</a>
</g>
</g>
<!-- Node3&#45;&gt;Node2 -->
<g id="edge2_Node000002_Node000003" class="edge">
<title>Node3&#45;&gt;Node2</title>
<g id="a_edge2_Node000002_Node000003"><a xlink:title=" ">
<path fill="none" stroke="#63b8ff" d="M567.33,-73.34C642.37,-73.94 784.78,-72.76 905,-58.5 910.78,-57.81 916.74,-57.06 922.74,-56.26"/>
<polygon fill="#63b8ff" stroke="#63b8ff" points="567.42,-69.84 557.39,-73.25 567.36,-76.84 567.42,-69.84"/>
</a>
</g>
</g>
<!-- Node7 -->
<g id="Node000007" class="node">
<title>Node7</title>
<g id="a_Node000007"><a xlink:href="class_harlinn_1_1_common_1_1_core_1_1_i_o_1_1_file_handler.xhtml" target="_top" xlink:title=" ">
<polygon fill="white" stroke="#666666" points="803,-58.5 661,-58.5 661,-28.5 803,-28.5 803,-58.5"/>
<text text-anchor="start" x="669" y="-46.5" font-family="Helvetica,sans-Serif" font-size="10.00">Harlinn::Common::Core</text>
<text text-anchor="middle" x="732" y="-35.5" font-family="Helvetica,sans-Serif" font-size="10.00">::IO::FileHandler&lt; DerivedT &gt;</text>
</a>
</g>
</g>
<!-- Node3&#45;&gt;Node7 -->
<g id="edge7_Node000007_Node000003" class="edge">
<title>Node3&#45;&gt;Node7</title>
<g id="a_edge7_Node000007_Node000003"><a xlink:title=" ">
<path fill="none" stroke="#63b8ff" d="M567.05,-65.51C595.09,-61.75 630.08,-57.05 660.53,-52.96"/>
<polygon fill="#63b8ff" stroke="#63b8ff" points="566.83,-62.01 557.38,-66.81 567.76,-68.95 566.83,-62.01"/>
</a>
</g>
</g>
<!-- Node4 -->
<g id="Node000004" class="node">
<title>Node4</title>
<g id="a_Node000004"><a xlink:href="class_harlinn_1_1_common_1_1_core_1_1_i_o_1_1_file_stream.xhtml" target="_top" xlink:title=" ">
<polygon fill="white" stroke="#666666" points="573,-35.5 455,-35.5 455,-5.5 573,-5.5 573,-35.5"/>
<text text-anchor="start" x="463" y="-23.5" font-family="Helvetica,sans-Serif" font-size="10.00">Harlinn::Common::Core</text>
<text text-anchor="middle" x="514" y="-12.5" font-family="Helvetica,sans-Serif" font-size="10.00">::IO::FileStream</text>
</a>
</g>
</g>
<!-- Node4&#45;&gt;Node2 -->
<g id="edge3_Node000002_Node000004" class="edge">
<title>Node4&#45;&gt;Node2</title>
<g id="a_edge3_Node000002_Node000004"><a xlink:title=" ">
<path fill="none" stroke="#9a32cd" stroke-dasharray="5,2" d="M584.43,-13.62C608.63,-11.54 635.99,-9.53 661,-8.5 724.06,-5.91 740.12,-3.11 803,-8.5 846.72,-12.25 895.18,-20.48 933.72,-28.01"/>
<polygon fill="#9a32cd" stroke="#9a32cd" points="584.35,-10.12 574.7,-14.48 584.97,-17.09 584.35,-10.12"/>
</a>
</g>
<text text-anchor="middle" x="732" y="-11.5" font-family="Helvetica,sans-Serif" font-size="10.00" fill="grey"> fileStream_</text>
</g>
<!-- Node4&#45;&gt;Node7 -->
<g id="edge8_Node000007_Node000004" class="edge">
<title>Node4&#45;&gt;Node7</title>
<g id="a_edge8_Node000007_Node000004"><a xlink:title=" ">
<path fill="none" stroke="#9a32cd" stroke-dasharray="5,2" d="M584.74,-27.93C609.01,-30.51 636.25,-33.41 660.58,-36"/>
<polygon fill="#9a32cd" stroke="#9a32cd" points="585.27,-24.46 574.96,-26.88 584.53,-31.42 585.27,-24.46"/>
</a>
</g>
<text text-anchor="middle" x="617" y="-37.5" font-family="Helvetica,sans-Serif" font-size="10.00" fill="grey"> fileStream_</text>
</g>
<!-- Node5 -->
<g id="Node000005" class="node">
<title>Node5</title>
<g id="a_Node000005"><a xlink:href="class_harlinn_1_1_common_1_1_core_1_1_i_o_1_1_system_stream.xhtml" target="_top" xlink:title=" ">
<polygon fill="white" stroke="#666666" points="418,-35.5 249,-35.5 249,-5.5 418,-5.5 418,-35.5"/>
<text text-anchor="start" x="257" y="-23.5" font-family="Helvetica,sans-Serif" font-size="10.00">Harlinn::Common::Core</text>
<text text-anchor="middle" x="333.5" y="-12.5" font-family="Helvetica,sans-Serif" font-size="10.00">::IO::SystemStream&lt; FileStream &gt;</text>
</a>
</g>
</g>
<!-- Node5&#45;&gt;Node4 -->
<g id="edge4_Node000004_Node000005" class="edge">
<title>Node5&#45;&gt;Node4</title>
<g id="a_edge4_Node000004_Node000005"><a xlink:title=" ">
<path fill="none" stroke="#63b8ff" d="M429.53,-20.5C438.1,-20.5 446.59,-20.5 454.7,-20.5"/>
<polygon fill="#63b8ff" stroke="#63b8ff" points="429.78,-17 419.78,-20.5 429.78,-24 429.78,-17"/>
</a>
</g>
</g>
<!-- Node6 -->
<g id="Node000006" class="node">
<title>Node6</title>
<g id="a_Node000006"><a xlink:href="class_harlinn_1_1_common_1_1_core_1_1_i_o_1_1_system_stream.xhtml" target="_top" xlink:title=" ">
<polygon fill="white" stroke="#666666" points="144,-41 0,-41 0,0 144,0 144,-41"/>
<text text-anchor="start" x="8" y="-29" font-family="Helvetica,sans-Serif" font-size="10.00">Harlinn::Common::Core</text>
<text text-anchor="start" x="8" y="-18" font-family="Helvetica,sans-Serif" font-size="10.00">::IO::SystemStream&lt; Derived</text>
<text text-anchor="middle" x="72" y="-7" font-family="Helvetica,sans-Serif" font-size="10.00">T, InvalidHandleV &gt;</text>
</a>
</g>
</g>
<!-- Node6&#45;&gt;Node5 -->
<g id="edge5_Node000005_Node000006" class="edge">
<title>Node6&#45;&gt;Node5</title>
<g id="a_edge5_Node000005_Node000006"><a xlink:title=" ">
<path fill="none" stroke="orange" stroke-dasharray="5,2" d="M155.44,-20.5C185.14,-20.5 218.69,-20.5 248.52,-20.5"/>
<polygon fill="orange" stroke="orange" points="155.77,-17 145.77,-20.5 155.77,-24 155.77,-17"/>
</a>
</g>
<text text-anchor="middle" x="196.5" y="-23.5" font-family="Helvetica,sans-Serif" font-size="10.00" fill="grey"> &lt; FileStream &gt;</text>
</g>
<!-- Node7&#45;&gt;Node2 -->
<g id="edge6_Node000002_Node000007" class="edge">
<title>Node7&#45;&gt;Node2</title>
<g id="a_edge6_Node000002_Node000007"><a xlink:title=" ">
<path fill="none" stroke="orange" stroke-dasharray="5,2" d="M814.57,-43.5C848.83,-43.5 888.62,-43.5 922.98,-43.5"/>
<polygon fill="orange" stroke="orange" points="814.69,-40 804.69,-43.5 814.69,-47 814.69,-40"/>
</a>
</g>
<text text-anchor="middle" x="863" y="-46.5" font-family="Helvetica,sans-Serif" font-size="10.00" fill="grey"> &lt; FileDispatcher &gt;</text>
</g>
</g>
</svg>
