<?xml version="1.0" encoding="UTF-8" standalone="no"?>
<!DOCTYPE svg PUBLIC "-//W3C//DTD SVG 1.1//EN"
 "http://www.w3.org/Graphics/SVG/1.1/DTD/svg11.dtd">
<!-- Generated by graphviz version 7.0.1 (20221109.1506)
 -->
<!-- Title: Harlinn::Common::Core::Utf::Traits&lt; wchar_t &gt; Pages: 1 -->
<svg width="156pt" height="193pt"
 viewBox="0.00 0.00 156.00 193.00" xmlns="http://www.w3.org/2000/svg" xmlns:xlink="http://www.w3.org/1999/xlink">
<g id="graph0" class="graph" transform="scale(1 1) rotate(0) translate(4 189)">
<title>Harlinn::Common::Core::Utf::Traits&lt; wchar_t &gt;</title>
<!-- Node1 -->
<g id="Node000001" class="node">
<title>Node1</title>
<g id="a_Node000001"><a xlink:title=" ">
<polygon fill="#999999" stroke="#666666" points="133,-30 15,-30 15,0 133,0 133,-30"/>
<text text-anchor="start" x="23" y="-18" font-family="Helvetica,sans-Serif" font-size="10.00">Harlinn::Common::Core</text>
<text text-anchor="middle" x="74" y="-7" font-family="Helvetica,sans-Serif" font-size="10.00">::Utf::Traits&lt; wchar_t &gt;</text>
</a>
</g>
</g>
<!-- Node2 -->
<g id="Node000002" class="node">
<title>Node2</title>
<g id="a_Node000002"><a xlink:href="class_harlinn_1_1_common_1_1_core_1_1_utf_1_1_internal_1_1_utf16_traits.html" target="_top" xlink:title=" ">
<polygon fill="white" stroke="#666666" points="136.5,-108 11.5,-108 11.5,-67 136.5,-67 136.5,-108"/>
<text text-anchor="start" x="19.5" y="-96" font-family="Helvetica,sans-Serif" font-size="10.00">Harlinn::Common::Core</text>
<text text-anchor="start" x="19.5" y="-85" font-family="Helvetica,sans-Serif" font-size="10.00">::Utf::Internal::Utf16Traits</text>
<text text-anchor="middle" x="74" y="-74" font-family="Helvetica,sans-Serif" font-size="10.00">&lt; wchar_t &gt;</text>
</a>
</g>
</g>
<!-- Node2&#45;&gt;Node1 -->
<g id="edge1_Node000001_Node000002" class="edge">
<title>Node2&#45;&gt;Node1</title>
<g id="a_edge1_Node000001_Node000002"><a xlink:title=" ">
<path fill="none" stroke="#63b8ff" d="M74,-55.39C74,-46.68 74,-37.62 74,-30.39"/>
<polygon fill="#63b8ff" stroke="#63b8ff" points="70.5,-55.35 74,-65.35 77.5,-55.35 70.5,-55.35"/>
</a>
</g>
</g>
<!-- Node3 -->
<g id="Node000003" class="node">
<title>Node3</title>
<g id="a_Node000003"><a xlink:href="class_harlinn_1_1_common_1_1_core_1_1_utf_1_1_internal_1_1_utf16_traits.html" target="_top" xlink:title=" ">
<polygon fill="white" stroke="#666666" points="148,-185 0,-185 0,-155 148,-155 148,-185"/>
<text text-anchor="start" x="8" y="-173" font-family="Helvetica,sans-Serif" font-size="10.00">Harlinn::Common::Core</text>
<text text-anchor="middle" x="74" y="-162" font-family="Helvetica,sans-Serif" font-size="10.00">::Utf::Internal::Utf16Traits&lt; T &gt;</text>
</a>
</g>
</g>
<!-- Node3&#45;&gt;Node2 -->
<g id="edge2_Node000002_Node000003" class="edge">
<title>Node3&#45;&gt;Node2</title>
<g id="a_edge2_Node000002_Node000003"><a xlink:title=" ">
<path fill="none" stroke="orange" stroke-dasharray="5,2" d="M74,-143.2C74,-131.86 74,-118.75 74,-108.21"/>
<polygon fill="orange" stroke="orange" points="70.5,-143.09 74,-153.09 77.5,-143.09 70.5,-143.09"/>
</a>
</g>
<text text-anchor="middle" x="101.5" y="-129" font-family="Helvetica,sans-Serif" font-size="10.00" fill="grey"> &lt; wchar_t &gt;</text>
</g>
</g>
</svg>
