<?xml version="1.0" encoding="UTF-8" standalone="no"?>
<!DOCTYPE svg PUBLIC "-//W3C//DTD SVG 1.1//EN"
 "http://www.w3.org/Graphics/SVG/1.1/DTD/svg11.dtd">
<!-- Generated by graphviz version 7.0.1 (20221109.1506)
 -->
<!-- Title: Harlinn::Common::Core::Bits&lt; bitCount &gt;::reference Pages: 1 -->
<svg width="240pt" height="258pt"
 viewBox="0.00 0.00 240.00 258.00" xmlns="http://www.w3.org/2000/svg" xmlns:xlink="http://www.w3.org/1999/xlink">
<g id="graph0" class="graph" transform="scale(1 1) rotate(0) translate(4 254)">
<title>Harlinn::Common::Core::Bits&lt; bitCount &gt;::reference</title>
<!-- Node1 -->
<g id="Node000001" class="node">
<title>Node1</title>
<g id="a_Node000001"><a xlink:title=" ">
<polygon fill="#999999" stroke="#666666" points="149,-30 9,-30 9,0 149,0 149,-30"/>
<text text-anchor="start" x="17" y="-18" font-family="Helvetica,sans-Serif" font-size="10.00">Harlinn::Common::Core</text>
<text text-anchor="middle" x="79" y="-7" font-family="Helvetica,sans-Serif" font-size="10.00">::Bits&lt; bitCount &gt;::reference</text>
</a>
</g>
</g>
<!-- Node2 -->
<g id="Node000002" class="node">
<title>Node2</title>
<g id="a_Node000002"><a xlink:href="class_harlinn_1_1_common_1_1_core_1_1_bits.html" target="_top" xlink:title="A type that holds a fixed number of bits.">
<polygon fill="white" stroke="#666666" points="232,-107 114,-107 114,-77 232,-77 232,-107"/>
<text text-anchor="start" x="122" y="-95" font-family="Helvetica,sans-Serif" font-size="10.00">Harlinn::Common::Core</text>
<text text-anchor="middle" x="173" y="-84" font-family="Helvetica,sans-Serif" font-size="10.00">::Bits&lt; bitCount &gt;</text>
</a>
</g>
</g>
<!-- Node2&#45;&gt;Node1 -->
<g id="edge1_Node000001_Node000002" class="edge">
<title>Node2&#45;&gt;Node1</title>
<g id="a_edge1_Node000001_Node000002"><a xlink:title=" ">
<path fill="none" stroke="#9a32cd" stroke-dasharray="5,2" d="M146.12,-69.55C130.39,-57.01 110.97,-41.51 97.07,-30.42"/>
<polygon fill="#9a32cd" stroke="#9a32cd" points="143.69,-72.09 153.69,-75.6 148.06,-66.62 143.69,-72.09"/>
</a>
</g>
<text text-anchor="middle" x="143.5" y="-51" font-family="Helvetica,sans-Serif" font-size="10.00" fill="grey"> bits_</text>
</g>
<!-- Node3 -->
<g id="Node000003" class="node">
<title>Node3</title>
<g id="a_Node000003"><a xlink:href="struct_harlinn_1_1_common_1_1_bit_mask.html" target="_top" xlink:title=" ">
<polygon fill="white" stroke="#666666" points="146,-184 12,-184 12,-154 146,-154 146,-184"/>
<text text-anchor="start" x="20" y="-172" font-family="Helvetica,sans-Serif" font-size="10.00">Harlinn::Common::BitMask</text>
<text text-anchor="middle" x="79" y="-161" font-family="Helvetica,sans-Serif" font-size="10.00">&lt; Size &gt;</text>
</a>
</g>
</g>
<!-- Node3&#45;&gt;Node1 -->
<g id="edge4_Node000001_Node000003" class="edge">
<title>Node3&#45;&gt;Node1</title>
<g id="a_edge4_Node000001_Node000003"><a xlink:title=" ">
<path fill="none" stroke="#9a32cd" stroke-dasharray="5,2" d="M75.44,-142.66C74.07,-131.72 72.67,-118.75 72,-107 71.24,-93.69 71.24,-90.31 72,-77 72.93,-60.82 75.22,-42.35 76.93,-30.01"/>
<polygon fill="#9a32cd" stroke="#9a32cd" points="71.95,-143.03 76.73,-152.49 78.89,-142.11 71.95,-143.03"/>
</a>
</g>
<text text-anchor="middle" x="88.5" y="-89.5" font-family="Helvetica,sans-Serif" font-size="10.00" fill="grey"> mask_</text>
</g>
<!-- Node3&#45;&gt;Node2 -->
<g id="edge2_Node000002_Node000003" class="edge">
<title>Node3&#45;&gt;Node2</title>
<g id="a_edge2_Node000002_Node000003"><a xlink:title=" ">
<path fill="none" stroke="#9a32cd" stroke-dasharray="5,2" d="M105.88,-146.55C121.61,-134.01 141.03,-118.51 154.93,-107.42"/>
<polygon fill="#9a32cd" stroke="#9a32cd" points="103.94,-143.62 98.31,-152.6 108.31,-149.09 103.94,-143.62"/>
</a>
</g>
<text text-anchor="middle" x="146.5" y="-128" font-family="Helvetica,sans-Serif" font-size="10.00" fill="grey"> value_</text>
</g>
<!-- Node4 -->
<g id="Node000004" class="node">
<title>Node4</title>
<g id="a_Node000004"><a xlink:href="struct_harlinn_1_1_common_1_1_bit_mask.html" target="_top" xlink:title=" ">
<polygon fill="white" stroke="#666666" points="158,-250 0,-250 0,-231 158,-231 158,-250"/>
<text text-anchor="middle" x="79" y="-238" font-family="Helvetica,sans-Serif" font-size="10.00">Harlinn::Common::BitMask&lt; N &gt;</text>
</a>
</g>
</g>
<!-- Node4&#45;&gt;Node3 -->
<g id="edge3_Node000003_Node000004" class="edge">
<title>Node4&#45;&gt;Node3</title>
<g id="a_edge3_Node000003_Node000004"><a xlink:title=" ">
<path fill="none" stroke="orange" stroke-dasharray="5,2" d="M79,-219.39C79,-208.15 79,-194.41 79,-184.27"/>
<polygon fill="orange" stroke="orange" points="75.5,-219.18 79,-229.18 82.5,-219.18 75.5,-219.18"/>
</a>
</g>
<text text-anchor="middle" x="99.5" y="-205" font-family="Helvetica,sans-Serif" font-size="10.00" fill="grey"> &lt; Size &gt;</text>
</g>
</g>
</svg>
