<?xml version="1.0" encoding="UTF-8" standalone="no"?>
<!DOCTYPE svg PUBLIC "-//W3C//DTD SVG 1.1//EN"
 "http://www.w3.org/Graphics/SVG/1.1/DTD/svg11.dtd">
<!-- Generated by graphviz version 7.0.1 (20221109.1506)
 -->
<!-- Title: Harlinn::Common::Core::Math::Scalar&lt; float, 3 &gt; Pages: 1 -->
<svg width="747pt" height="99pt"
 viewBox="0.00 0.00 747.00 99.00" xmlns="http://www.w3.org/2000/svg" xmlns:xlink="http://www.w3.org/1999/xlink">
<g id="graph0" class="graph" transform="scale(1 1) rotate(0) translate(4 95)">
<title>Harlinn::Common::Core::Math::Scalar&lt; float, 3 &gt;</title>
<!-- Node1 -->
<g id="Node000001" class="node">
<title>Node1</title>
<g id="a_Node000001"><a xlink:title=" ">
<polygon fill="#999999" stroke="#666666" points="739,-42 614,-42 614,-12 739,-12 739,-42"/>
<text text-anchor="start" x="622" y="-30" font-family="Helvetica,sans-Serif" font-size="10.00">Harlinn::Common::Core</text>
<text text-anchor="middle" x="676.5" y="-19" font-family="Helvetica,sans-Serif" font-size="10.00">::Math::Scalar&lt; float, 3 &gt;</text>
</a>
</g>
</g>
<!-- Node2 -->
<g id="Node000002" class="node">
<title>Node2</title>
<g id="a_Node000002"><a xlink:href="class_harlinn_1_1_common_1_1_core_1_1_math_1_1_tuple3.html" target="_top" xlink:title=" ">
<polygon fill="white" stroke="#666666" points="567,-89.5 449,-89.5 449,-48.5 567,-48.5 567,-89.5"/>
<text text-anchor="start" x="457" y="-77.5" font-family="Helvetica,sans-Serif" font-size="10.00">Harlinn::Common::Core</text>
<text text-anchor="start" x="457" y="-66.5" font-family="Helvetica,sans-Serif" font-size="10.00">::Math::Tuple3&lt; Scalar</text>
<text text-anchor="middle" x="508" y="-55.5" font-family="Helvetica,sans-Serif" font-size="10.00">&lt; float, 3 &gt;, float &gt;</text>
</a>
</g>
</g>
<!-- Node2&#45;&gt;Node1 -->
<g id="edge1_Node000001_Node000002" class="edge">
<title>Node2&#45;&gt;Node1</title>
<g id="a_edge1_Node000001_Node000002"><a xlink:title=" ">
<path fill="none" stroke="#63b8ff" d="M578.09,-51.57C590.06,-48.55 602.44,-45.43 614.19,-42.47"/>
<polygon fill="#63b8ff" stroke="#63b8ff" points="577.54,-48.1 568.7,-53.94 579.25,-54.89 577.54,-48.1"/>
</a>
</g>
</g>
<!-- Node3 -->
<g id="Node000003" class="node">
<title>Node3</title>
<g id="a_Node000003"><a xlink:href="struct_harlinn_1_1_common_1_1_core_1_1_math_1_1_internal_1_1_tuple_base.html" target="_top" xlink:title=" ">
<polygon fill="white" stroke="#666666" points="134,-91 0,-91 0,-61 134,-61 134,-91"/>
<text text-anchor="start" x="8" y="-79" font-family="Helvetica,sans-Serif" font-size="10.00">Harlinn::Common::Core</text>
<text text-anchor="middle" x="67" y="-68" font-family="Helvetica,sans-Serif" font-size="10.00">::Math::Internal::TupleBase</text>
</a>
</g>
</g>
<!-- Node3&#45;&gt;Node2 -->
<g id="edge2_Node000002_Node000003" class="edge">
<title>Node3&#45;&gt;Node2</title>
<g id="a_edge2_Node000002_Node000003"><a xlink:title=" ">
<path fill="none" stroke="#63b8ff" d="M145.54,-77.27C217.08,-78.08 326.24,-78.44 421,-75 429.97,-74.67 439.47,-74.17 448.74,-73.59"/>
<polygon fill="#63b8ff" stroke="#63b8ff" points="145.94,-73.77 135.9,-77.15 145.86,-80.77 145.94,-73.77"/>
</a>
</g>
</g>
<!-- Node4 -->
<g id="Node000004" class="node">
<title>Node4</title>
<g id="a_Node000004"><a xlink:href="class_harlinn_1_1_common_1_1_core_1_1_math_1_1_tuple3.html" target="_top" xlink:title=" ">
<polygon fill="white" stroke="#666666" points="324,-61 179,-61 179,-31 324,-31 324,-61"/>
<text text-anchor="start" x="187" y="-49" font-family="Helvetica,sans-Serif" font-size="10.00">Harlinn::Common::Core</text>
<text text-anchor="middle" x="251.5" y="-38" font-family="Helvetica,sans-Serif" font-size="10.00">::Math::Tuple3&lt; DerivedT, T &gt;</text>
</a>
</g>
</g>
<!-- Node3&#45;&gt;Node4 -->
<g id="edge4_Node000004_Node000003" class="edge">
<title>Node3&#45;&gt;Node4</title>
<g id="a_edge4_Node000004_Node000003"><a xlink:title=" ">
<path fill="none" stroke="#63b8ff" d="M145.67,-63.23C156.6,-61.44 167.79,-59.6 178.6,-57.82"/>
<polygon fill="#63b8ff" stroke="#63b8ff" points="145.2,-59.76 135.9,-64.84 146.33,-66.67 145.2,-59.76"/>
</a>
</g>
</g>
<!-- Node4&#45;&gt;Node2 -->
<g id="edge3_Node000002_Node000004" class="edge">
<title>Node4&#45;&gt;Node2</title>
<g id="a_edge3_Node000002_Node000004"><a xlink:title=" ">
<path fill="none" stroke="orange" stroke-dasharray="5,2" d="M335.87,-47.11C363.07,-48.1 393.38,-49.87 421,-53 430.05,-54.03 439.59,-55.45 448.88,-57.03"/>
<polygon fill="orange" stroke="orange" points="336.04,-43.62 325.93,-46.78 335.81,-50.61 336.04,-43.62"/>
</a>
</g>
<text text-anchor="start" x="342" y="-67" font-family="Helvetica,sans-Serif" font-size="10.00" fill="grey"> &lt; Scalar&lt; float, 3</text>
<text text-anchor="middle" x="381.5" y="-56" font-family="Helvetica,sans-Serif" font-size="10.00" fill="grey"> &gt;, float &gt;</text>
</g>
<!-- Node5 -->
<g id="Node000005" class="node">
<title>Node5</title>
<g id="a_Node000005"><a xlink:title=" ">
<polygon fill="white" stroke="#666666" points="81.5,-25.5 52.5,-25.5 52.5,-6.5 81.5,-6.5 81.5,-25.5"/>
<text text-anchor="middle" x="67" y="-13.5" font-family="Helvetica,sans-Serif" font-size="10.00">T</text>
</a>
</g>
</g>
<!-- Node5&#45;&gt;Node4 -->
<g id="edge5_Node000004_Node000005" class="edge">
<title>Node5&#45;&gt;Node4</title>
<g id="a_edge5_Node000004_Node000005"><a xlink:title=" ">
<path fill="none" stroke="#9a32cd" stroke-dasharray="5,2" d="M93.37,-17.12C112.14,-18.2 138.29,-20.25 161,-24 171.58,-25.74 182.75,-28.08 193.48,-30.58"/>
<polygon fill="#9a32cd" stroke="#9a32cd" points="93.63,-13.63 83.46,-16.6 93.27,-20.62 93.63,-13.63"/>
</a>
</g>
<text text-anchor="middle" x="156.5" y="-49" font-family="Helvetica,sans-Serif" font-size="10.00" fill="grey"> x</text>
<text text-anchor="middle" x="156.5" y="-38" font-family="Helvetica,sans-Serif" font-size="10.00" fill="grey">y</text>
<text text-anchor="middle" x="156.5" y="-27" font-family="Helvetica,sans-Serif" font-size="10.00" fill="grey">z</text>
</g>
<!-- Node6 -->
<g id="Node000006" class="node">
<title>Node6</title>
<g id="a_Node000006"><a xlink:href="struct_harlinn_1_1_common_1_1_core_1_1_math_1_1_internal_1_1_scalar_base.html" target="_top" xlink:title=" ">
<polygon fill="white" stroke="#666666" points="577,-30 439,-30 439,0 577,0 577,-30"/>
<text text-anchor="start" x="447" y="-18" font-family="Helvetica,sans-Serif" font-size="10.00">Harlinn::Common::Core</text>
<text text-anchor="middle" x="508" y="-7" font-family="Helvetica,sans-Serif" font-size="10.00">::Math::Internal::ScalarBase</text>
</a>
</g>
</g>
<!-- Node6&#45;&gt;Node1 -->
<g id="edge6_Node000001_Node000006" class="edge">
<title>Node6&#45;&gt;Node1</title>
<g id="a_edge6_Node000001_Node000006"><a xlink:title=" ">
<path fill="none" stroke="#63b8ff" d="M588.58,-20.74C596.97,-21.34 605.41,-21.95 613.56,-22.54"/>
<polygon fill="#63b8ff" stroke="#63b8ff" points="588.94,-17.25 578.71,-20.02 588.43,-24.23 588.94,-17.25"/>
</a>
</g>
</g>
</g>
</svg>
