<?xml version="1.0" encoding="UTF-8" standalone="no"?>
<!DOCTYPE svg PUBLIC "-//W3C//DTD SVG 1.1//EN"
 "http://www.w3.org/Graphics/SVG/1.1/DTD/svg11.dtd">
<!-- Generated by graphviz version 7.0.1 (20221109.1506)
 -->
<!-- Title: Harlinn::Common::Core::IO::FileAccessMask Pages: 1 -->
<svg width="854pt" height="98pt"
 viewBox="0.00 0.00 854.00 97.50" xmlns="http://www.w3.org/2000/svg" xmlns:xlink="http://www.w3.org/1999/xlink">
<g id="graph0" class="graph" transform="scale(1 1) rotate(0) translate(4 93.5)">
<title>Harlinn::Common::Core::IO::FileAccessMask</title>
<!-- Node1 -->
<g id="Node000001" class="node">
<title>Node1</title>
<g id="a_Node000001"><a xlink:title="The access mask for a file.">
<polygon fill="#999999" stroke="#666666" points="846,-43 728,-43 728,-13 846,-13 846,-43"/>
<text text-anchor="start" x="736" y="-31" font-family="Helvetica,sans-Serif" font-size="10.00">Harlinn::Common::Core</text>
<text text-anchor="middle" x="787" y="-20" font-family="Helvetica,sans-Serif" font-size="10.00">::IO::FileAccessMask</text>
</a>
</g>
</g>
<!-- Node2 -->
<g id="Node000002" class="node">
<title>Node2</title>
<g id="a_Node000002"><a xlink:href="class_harlinn_1_1_common_1_1_core_1_1_security_1_1_access_mask_t.xhtml" target="_top" xlink:title=" ">
<polygon fill="white" stroke="#666666" points="652,-89.5 462,-89.5 462,-48.5 652,-48.5 652,-89.5"/>
<text text-anchor="start" x="470" y="-77.5" font-family="Helvetica,sans-Serif" font-size="10.00">Harlinn::Common::Core</text>
<text text-anchor="start" x="470" y="-66.5" font-family="Helvetica,sans-Serif" font-size="10.00">::Security::AccessMaskT</text>
<text text-anchor="middle" x="557" y="-55.5" font-family="Helvetica,sans-Serif" font-size="10.00">&lt; FileAccessMask, FileAccessRights &gt;</text>
</a>
</g>
</g>
<!-- Node2&#45;&gt;Node1 -->
<g id="edge1_Node000001_Node000002" class="edge">
<title>Node2&#45;&gt;Node1</title>
<g id="a_edge1_Node000001_Node000002"><a xlink:title=" ">
<path fill="none" stroke="#63b8ff" d="M663.5,-50.03C685.54,-46.07 708,-42.03 727.57,-38.51"/>
<polygon fill="#63b8ff" stroke="#63b8ff" points="663.09,-46.55 653.87,-51.76 664.33,-53.43 663.09,-46.55"/>
</a>
</g>
</g>
<!-- Node3 -->
<g id="Node000003" class="node">
<title>Node3</title>
<g id="a_Node000003"><a xlink:href="class_harlinn_1_1_common_1_1_core_1_1_security_1_1_access_mask.xhtml" target="_top" xlink:title="An ACCESS_MASK wrapper class. The ACCESS_MASK data type is a DWORD value that defines standard,...">
<polygon fill="white" stroke="#666666" points="122,-80 0,-80 0,-50 122,-50 122,-80"/>
<text text-anchor="start" x="8" y="-68" font-family="Helvetica,sans-Serif" font-size="10.00">Harlinn::Common::Core</text>
<text text-anchor="middle" x="61" y="-57" font-family="Helvetica,sans-Serif" font-size="10.00">::Security::AccessMask</text>
</a>
</g>
</g>
<!-- Node3&#45;&gt;Node2 -->
<g id="edge2_Node000002_Node000003" class="edge">
<title>Node3&#45;&gt;Node2</title>
<g id="a_edge2_Node000002_Node000003"><a xlink:title=" ">
<path fill="none" stroke="#63b8ff" d="M133.64,-69.63C210.4,-73.98 335.82,-79.38 444,-76 449.74,-75.82 455.65,-75.59 461.61,-75.32"/>
<polygon fill="#63b8ff" stroke="#63b8ff" points="133.91,-66.14 123.72,-69.05 133.5,-73.12 133.91,-66.14"/>
</a>
</g>
</g>
<!-- Node4 -->
<g id="Node000004" class="node">
<title>Node4</title>
<g id="a_Node000004"><a xlink:href="class_harlinn_1_1_common_1_1_core_1_1_security_1_1_access_mask_t.xhtml" target="_top" xlink:title=" ">
<polygon fill="white" stroke="#666666" points="286,-61.5 159,-61.5 159,-20.5 286,-20.5 286,-61.5"/>
<text text-anchor="start" x="167" y="-49.5" font-family="Helvetica,sans-Serif" font-size="10.00">Harlinn::Common::Core</text>
<text text-anchor="start" x="167" y="-38.5" font-family="Helvetica,sans-Serif" font-size="10.00">::Security::AccessMaskT</text>
<text text-anchor="middle" x="222.5" y="-27.5" font-family="Helvetica,sans-Serif" font-size="10.00">&lt; DerivedT, RightsT &gt;</text>
</a>
</g>
</g>
<!-- Node3&#45;&gt;Node4 -->
<g id="edge4_Node000004_Node000003" class="edge">
<title>Node3&#45;&gt;Node4</title>
<g id="a_edge4_Node000004_Node000003"><a xlink:title=" ">
<path fill="none" stroke="#63b8ff" d="M133.61,-54.22C141.99,-52.96 150.48,-51.69 158.72,-50.45"/>
<polygon fill="#63b8ff" stroke="#63b8ff" points="133.16,-50.75 123.8,-55.7 134.21,-57.67 133.16,-50.75"/>
</a>
</g>
</g>
<!-- Node4&#45;&gt;Node2 -->
<g id="edge3_Node000002_Node000004" class="edge">
<title>Node4&#45;&gt;Node2</title>
<g id="a_edge3_Node000002_Node000004"><a xlink:title=" ">
<path fill="none" stroke="orange" stroke-dasharray="5,2" d="M297.78,-44C340.6,-46.08 395.4,-49.32 444,-54 449.76,-54.55 455.68,-55.18 461.65,-55.85"/>
<polygon fill="orange" stroke="orange" points="297.99,-40.51 287.84,-43.53 297.66,-47.5 297.99,-40.51"/>
</a>
</g>
<text text-anchor="start" x="304" y="-68" font-family="Helvetica,sans-Serif" font-size="10.00" fill="grey"> &lt; FileAccessMask, FileAccess</text>
<text text-anchor="middle" x="374" y="-57" font-family="Helvetica,sans-Serif" font-size="10.00" fill="grey">Rights &gt;</text>
</g>
<!-- Node5 -->
<g id="Node000005" class="node">
<title>Node5</title>
<g id="a_Node000005"><a xlink:href="class_harlinn_1_1_common_1_1_core_1_1_security_1_1_generic_mapping.xhtml" target="_top" xlink:title=" ">
<polygon fill="white" stroke="#666666" points="624.5,-30 489.5,-30 489.5,0 624.5,0 624.5,-30"/>
<text text-anchor="start" x="497.5" y="-18" font-family="Helvetica,sans-Serif" font-size="10.00">Harlinn::Common::Core</text>
<text text-anchor="middle" x="557" y="-7" font-family="Helvetica,sans-Serif" font-size="10.00">::Security::GenericMapping</text>
</a>
</g>
</g>
<!-- Node5&#45;&gt;Node1 -->
<g id="edge5_Node000001_Node000005" class="edge">
<title>Node5&#45;&gt;Node1</title>
<g id="a_edge5_Node000001_Node000005"><a xlink:title=" ">
<path fill="none" stroke="#9a32cd" stroke-dasharray="5,2" d="M636.16,-19.46C666.15,-21.17 699.83,-23.09 727.65,-24.67"/>
<polygon fill="#9a32cd" stroke="#9a32cd" points="636.56,-15.97 626.38,-18.9 636.16,-22.96 636.56,-15.97"/>
</a>
</g>
<text text-anchor="middle" x="690" y="-27" font-family="Helvetica,sans-Serif" font-size="10.00" fill="grey"> Mapping</text>
</g>
</g>
</svg>
