<?xml version="1.0" encoding="UTF-8" standalone="no"?>
<!DOCTYPE svg PUBLIC "-//W3C//DTD SVG 1.1//EN"
 "http://www.w3.org/Graphics/SVG/1.1/DTD/svg11.dtd">
<!-- Generated by graphviz version 7.0.1 (20221109.1506)
 -->
<!-- Title: Harlinn::Windows::Graphics::DirectComposition::ScaleTransform Pages: 1 -->
<svg width="184pt" height="302pt"
 viewBox="0.00 0.00 184.00 302.00" xmlns="http://www.w3.org/2000/svg" xmlns:xlink="http://www.w3.org/1999/xlink">
<g id="graph0" class="graph" transform="scale(1 1) rotate(0) translate(4 298)">
<title>Harlinn::Windows::Graphics::DirectComposition::ScaleTransform</title>
<!-- Node1 -->
<g id="Node000001" class="node">
<title>Node1</title>
<g id="a_Node000001"><a xlink:title="Represents a 2D transformation that affects the scale of a visual along the x&#45;axis and y&#45;axis....">
<polygon fill="#999999" stroke="#666666" points="176,-30 0,-30 0,0 176,0 176,-30"/>
<text text-anchor="start" x="8" y="-18" font-family="Helvetica,sans-Serif" font-size="10.00">Harlinn::Windows::Graphics</text>
<text text-anchor="middle" x="88" y="-7" font-family="Helvetica,sans-Serif" font-size="10.00">::DirectComposition::ScaleTransform</text>
</a>
</g>
</g>
<!-- Node2 -->
<g id="Node000002" class="node">
<title>Node2</title>
<g id="a_Node000002"><a xlink:href="class_harlinn_1_1_windows_1_1_graphics_1_1_direct_composition_1_1_transform.xhtml" target="_top" xlink:title="Represents a 2D transformation that can be used to modify the coordinate space of a visual subtree.">
<polygon fill="white" stroke="#666666" points="163.5,-96 12.5,-96 12.5,-66 163.5,-66 163.5,-96"/>
<text text-anchor="start" x="20.5" y="-84" font-family="Helvetica,sans-Serif" font-size="10.00">Harlinn::Windows::Graphics</text>
<text text-anchor="middle" x="88" y="-73" font-family="Helvetica,sans-Serif" font-size="10.00">::DirectComposition::Transform</text>
</a>
</g>
</g>
<!-- Node2&#45;&gt;Node1 -->
<g id="edge1_Node000001_Node000002" class="edge">
<title>Node2&#45;&gt;Node1</title>
<g id="a_edge1_Node000001_Node000002"><a xlink:title=" ">
<path fill="none" stroke="#63b8ff" d="M88,-54.39C88,-46.13 88,-37.28 88,-30.16"/>
<polygon fill="#63b8ff" stroke="#63b8ff" points="84.5,-54.28 88,-64.28 91.5,-54.28 84.5,-54.28"/>
</a>
</g>
</g>
<!-- Node3 -->
<g id="Node000003" class="node">
<title>Node3</title>
<g id="a_Node000003"><a xlink:href="class_harlinn_1_1_windows_1_1_graphics_1_1_direct_composition_1_1_transform3_d.xhtml" target="_top" xlink:title="Represents a 3D transformation effect that can be used to modify the rasterization of a visual subtre...">
<polygon fill="white" stroke="#666666" points="169.5,-162 6.5,-162 6.5,-132 169.5,-132 169.5,-162"/>
<text text-anchor="start" x="14.5" y="-150" font-family="Helvetica,sans-Serif" font-size="10.00">Harlinn::Windows::Graphics</text>
<text text-anchor="middle" x="88" y="-139" font-family="Helvetica,sans-Serif" font-size="10.00">::DirectComposition::Transform3D</text>
</a>
</g>
</g>
<!-- Node3&#45;&gt;Node2 -->
<g id="edge2_Node000002_Node000003" class="edge">
<title>Node3&#45;&gt;Node2</title>
<g id="a_edge2_Node000002_Node000003"><a xlink:title=" ">
<path fill="none" stroke="#63b8ff" d="M88,-120.39C88,-112.13 88,-103.28 88,-96.16"/>
<polygon fill="#63b8ff" stroke="#63b8ff" points="84.5,-120.28 88,-130.28 91.5,-120.28 84.5,-120.28"/>
</a>
</g>
</g>
<!-- Node4 -->
<g id="Node000004" class="node">
<title>Node4</title>
<g id="a_Node000004"><a xlink:href="class_harlinn_1_1_windows_1_1_graphics_1_1_direct_composition_1_1_effect.xhtml" target="_top" xlink:title="Represents a bitmap effect that modifies the rasterization of a visual&#39;s subtree.">
<polygon fill="white" stroke="#666666" points="156.5,-228 19.5,-228 19.5,-198 156.5,-198 156.5,-228"/>
<text text-anchor="start" x="27.5" y="-216" font-family="Helvetica,sans-Serif" font-size="10.00">Harlinn::Windows::Graphics</text>
<text text-anchor="middle" x="88" y="-205" font-family="Helvetica,sans-Serif" font-size="10.00">::DirectComposition::Effect</text>
</a>
</g>
</g>
<!-- Node4&#45;&gt;Node3 -->
<g id="edge3_Node000003_Node000004" class="edge">
<title>Node4&#45;&gt;Node3</title>
<g id="a_edge3_Node000003_Node000004"><a xlink:title=" ">
<path fill="none" stroke="#63b8ff" d="M88,-186.39C88,-178.13 88,-169.28 88,-162.16"/>
<polygon fill="#63b8ff" stroke="#63b8ff" points="84.5,-186.28 88,-196.28 91.5,-186.28 84.5,-186.28"/>
</a>
</g>
</g>
<!-- Node5 -->
<g id="Node000005" class="node">
<title>Node5</title>
<g id="a_Node000005"><a xlink:href="class_harlinn_1_1_common_1_1_core_1_1_unknown.xhtml" target="_top" xlink:title=" ">
<polygon fill="white" stroke="#666666" points="147,-294 29,-294 29,-264 147,-264 147,-294"/>
<text text-anchor="start" x="37" y="-282" font-family="Helvetica,sans-Serif" font-size="10.00">Harlinn::Common::Core</text>
<text text-anchor="middle" x="88" y="-271" font-family="Helvetica,sans-Serif" font-size="10.00">::Unknown</text>
</a>
</g>
</g>
<!-- Node5&#45;&gt;Node4 -->
<g id="edge4_Node000004_Node000005" class="edge">
<title>Node5&#45;&gt;Node4</title>
<g id="a_edge4_Node000004_Node000005"><a xlink:title=" ">
<path fill="none" stroke="#63b8ff" d="M88,-252.39C88,-244.13 88,-235.28 88,-228.16"/>
<polygon fill="#63b8ff" stroke="#63b8ff" points="84.5,-252.28 88,-262.28 91.5,-252.28 84.5,-252.28"/>
</a>
</g>
</g>
</g>
</svg>
