<?xml version="1.0" encoding="UTF-8" standalone="no"?>
<!DOCTYPE svg PUBLIC "-//W3C//DTD SVG 1.1//EN"
 "http://www.w3.org/Graphics/SVG/1.1/DTD/svg11.dtd">
<!-- Generated by graphviz version 7.0.1 (20221109.1506)
 -->
<!-- Title: Harlinn.Common.Core.Net.Entities.BaseEntity&lt; TKind &gt; Pages: 1 -->
<svg width="318pt" height="309pt"
 viewBox="0.00 0.00 318.00 309.00" xmlns="http://www.w3.org/2000/svg" xmlns:xlink="http://www.w3.org/1999/xlink">
<g id="graph0" class="graph" transform="scale(1 1) rotate(0) translate(4 305)">
<title>Harlinn.Common.Core.Net.Entities.BaseEntity&lt; TKind &gt;</title>
<!-- Node1 -->
<g id="Node000001" class="node">
<title>Node1</title>
<g id="a_Node000001"><a xlink:title=" ">
<polygon fill="#999999" stroke="#666666" points="310,-176.5 167,-176.5 167,-146.5 310,-146.5 310,-176.5"/>
<text text-anchor="start" x="175" y="-164.5" font-family="Helvetica,sans-Serif" font-size="10.00">Harlinn.Common.Core.Net.</text>
<text text-anchor="middle" x="238.5" y="-153.5" font-family="Helvetica,sans-Serif" font-size="10.00">Entities.BaseEntity&lt; TKind &gt;</text>
</a>
</g>
</g>
<!-- Node2 -->
<g id="Node000002" class="node">
<title>Node2</title>
<g id="a_Node000002"><a xlink:title=" ">
<polygon fill="white" stroke="#666666" points="125,-301 6,-301 6,-282 125,-282 125,-301"/>
<text text-anchor="middle" x="65.5" y="-289" font-family="Helvetica,sans-Serif" font-size="10.00">INotifyPropertyChanged</text>
</a>
</g>
</g>
<!-- Node2&#45;&gt;Node1 -->
<g id="edge1_Node000001_Node000002" class="edge">
<title>Node2&#45;&gt;Node1</title>
<g id="a_edge1_Node000001_Node000002"><a xlink:title=" ">
<path fill="none" stroke="#63b8ff" d="M123.91,-277.3C126.35,-276.13 128.73,-274.86 131,-273.5 173.54,-247.92 210.21,-200.82 227.28,-176.66"/>
<polygon fill="#63b8ff" stroke="#63b8ff" points="122.84,-273.95 114.95,-281.03 125.53,-280.42 122.84,-273.95"/>
</a>
</g>
</g>
<!-- Node3 -->
<g id="Node000003" class="node">
<title>Node3</title>
<g id="a_Node000003"><a xlink:title=" ">
<polygon fill="white" stroke="#666666" points="126,-264 5,-264 5,-245 126,-245 126,-264"/>
<text text-anchor="middle" x="65.5" y="-252" font-family="Helvetica,sans-Serif" font-size="10.00">INotifyPropertyChanging</text>
</a>
</g>
</g>
<!-- Node3&#45;&gt;Node1 -->
<g id="edge2_Node000001_Node000003" class="edge">
<title>Node3&#45;&gt;Node1</title>
<g id="a_edge2_Node000001_Node000003"><a xlink:title=" ">
<path fill="none" stroke="#63b8ff" d="M120.68,-240.87C124.22,-239.52 127.69,-238.07 131,-236.5 164.92,-220.41 199.63,-193.65 219.84,-176.83"/>
<polygon fill="#63b8ff" stroke="#63b8ff" points="119.66,-237.52 111.35,-244.09 121.95,-244.14 119.66,-237.52"/>
</a>
</g>
</g>
<!-- Node4 -->
<g id="Node000004" class="node">
<title>Node4</title>
<g id="a_Node000004"><a xlink:title=" ">
<polygon fill="white" stroke="#666666" points="107,-227 24,-227 24,-208 107,-208 107,-227"/>
<text text-anchor="middle" x="65.5" y="-215" font-family="Helvetica,sans-Serif" font-size="10.00">IEditableObject</text>
</a>
</g>
</g>
<!-- Node4&#45;&gt;Node1 -->
<g id="edge3_Node000001_Node000004" class="edge">
<title>Node4&#45;&gt;Node1</title>
<g id="a_edge3_Node000001_Node000004"><a xlink:title=" ">
<path fill="none" stroke="#63b8ff" d="M114.47,-204.52C120.06,-202.89 125.67,-201.19 131,-199.5 152.7,-192.61 176.61,-184.16 196.26,-176.98"/>
<polygon fill="#63b8ff" stroke="#63b8ff" points="113.92,-201.04 105.27,-207.15 115.84,-207.77 113.92,-201.04"/>
</a>
</g>
</g>
<!-- Node5 -->
<g id="Node000005" class="node">
<title>Node5</title>
<g id="a_Node000005"><a xlink:title=" ">
<polygon fill="white" stroke="#666666" points="110,-190 21,-190 21,-171 110,-171 110,-190"/>
<text text-anchor="middle" x="65.5" y="-178" font-family="Helvetica,sans-Serif" font-size="10.00">IChangeTracking</text>
</a>
</g>
</g>
<!-- Node5&#45;&gt;Node1 -->
<g id="edge4_Node000001_Node000005" class="edge">
<title>Node5&#45;&gt;Node1</title>
<g id="a_edge4_Node000001_Node000005"><a xlink:title=" ">
<path fill="none" stroke="#63b8ff" d="M121.35,-174.41C135.8,-172.8 151.59,-171.05 166.75,-169.36"/>
<polygon fill="#63b8ff" stroke="#63b8ff" points="121.15,-170.91 111.6,-175.49 121.92,-177.86 121.15,-170.91"/>
</a>
</g>
</g>
<!-- Node6 -->
<g id="Node000006" class="node">
<title>Node6</title>
<g id="a_Node000006"><a xlink:title=" ">
<polygon fill="white" stroke="#666666" points="131,-153 0,-153 0,-134 131,-134 131,-153"/>
<text text-anchor="middle" x="65.5" y="-141" font-family="Helvetica,sans-Serif" font-size="10.00">IRevertibleChangeTracking</text>
</a>
</g>
</g>
<!-- Node6&#45;&gt;Node1 -->
<g id="edge5_Node000001_Node000006" class="edge">
<title>Node6&#45;&gt;Node1</title>
<g id="a_edge5_Node000001_Node000006"><a xlink:title=" ">
<path fill="none" stroke="#63b8ff" d="M142.46,-151.5C150.55,-152.35 158.74,-153.21 166.76,-154.05"/>
<polygon fill="#63b8ff" stroke="#63b8ff" points="142.96,-148.03 132.65,-150.46 142.23,-154.99 142.96,-148.03"/>
</a>
</g>
</g>
<!-- Node7 -->
<g id="Node000007" class="node">
<title>Node7</title>
<g id="a_Node000007"><a xlink:title=" ">
<polygon fill="white" stroke="#666666" points="125,-115.5 6,-115.5 6,-85.5 125,-85.5 125,-115.5"/>
<text text-anchor="start" x="14" y="-103.5" font-family="Helvetica,sans-Serif" font-size="10.00">IEquatable&lt; BaseEntity</text>
<text text-anchor="middle" x="65.5" y="-92.5" font-family="Helvetica,sans-Serif" font-size="10.00">&lt; TKind &gt; &gt;</text>
</a>
</g>
</g>
<!-- Node7&#45;&gt;Node1 -->
<g id="edge6_Node000001_Node000007" class="edge">
<title>Node7&#45;&gt;Node1</title>
<g id="a_edge6_Node000001_Node000007"><a xlink:title=" ">
<path fill="none" stroke="#63b8ff" d="M120.27,-119.68C144.04,-128.16 171.63,-138 194.07,-146.01"/>
<polygon fill="#63b8ff" stroke="#63b8ff" points="121.67,-116.46 111.08,-116.4 119.32,-123.06 121.67,-116.46"/>
</a>
</g>
</g>
<!-- Node8 -->
<g id="Node000008" class="node">
<title>Node8</title>
<g id="a_Node000008"><a xlink:title=" ">
<polygon fill="white" stroke="#666666" points="129.5,-67.5 1.5,-67.5 1.5,-37.5 129.5,-37.5 129.5,-67.5"/>
<text text-anchor="start" x="9.5" y="-55.5" font-family="Helvetica,sans-Serif" font-size="10.00">IComparable&lt; BaseEntity</text>
<text text-anchor="middle" x="65.5" y="-44.5" font-family="Helvetica,sans-Serif" font-size="10.00">&lt; TKind &gt; &gt;</text>
</a>
</g>
</g>
<!-- Node8&#45;&gt;Node1 -->
<g id="edge7_Node000001_Node000008" class="edge">
<title>Node8&#45;&gt;Node1</title>
<g id="a_edge7_Node000001_Node000008"><a xlink:title=" ">
<path fill="none" stroke="#63b8ff" d="M123.8,-72.7C126.26,-73.92 128.67,-75.18 131,-76.5 166.21,-96.42 201.9,-127.65 221.72,-146.2"/>
<polygon fill="#63b8ff" stroke="#63b8ff" points="125.38,-69.57 114.83,-68.59 122.46,-75.93 125.38,-69.57"/>
</a>
</g>
</g>
<!-- Node9 -->
<g id="Node000009" class="node">
<title>Node9</title>
<g id="a_Node000009"><a xlink:title=" ">
<polygon fill="white" stroke="#666666" points="101,-19 30,-19 30,0 101,0 101,-19"/>
<text text-anchor="middle" x="65.5" y="-7" font-family="Helvetica,sans-Serif" font-size="10.00">IComparable</text>
</a>
</g>
</g>
<!-- Node9&#45;&gt;Node1 -->
<g id="edge8_Node000001_Node000009" class="edge">
<title>Node9&#45;&gt;Node1</title>
<g id="a_edge8_Node000001_Node000009"><a xlink:title=" ">
<path fill="none" stroke="#63b8ff" d="M111.9,-19.03C118.61,-21.51 125.21,-24.62 131,-28.5 177.92,-59.98 214.11,-118.52 229.46,-146.22"/>
<polygon fill="#63b8ff" stroke="#63b8ff" points="113.38,-15.83 102.79,-16.09 111.23,-22.49 113.38,-15.83"/>
</a>
</g>
</g>
</g>
</svg>
