<?xml version="1.0" encoding="UTF-8" standalone="no"?>
<!DOCTYPE svg PUBLIC "-//W3C//DTD SVG 1.1//EN"
 "http://www.w3.org/Graphics/SVG/1.1/DTD/svg11.dtd">
<!-- Generated by graphviz version 7.0.1 (20221109.1506)
 -->
<!-- Title: Harlinn::OCI::NumberArrayBaseDefine&lt; externalType &gt; Pages: 1 -->
<svg width="148pt" height="203pt"
 viewBox="0.00 0.00 148.00 203.00" xmlns="http://www.w3.org/2000/svg" xmlns:xlink="http://www.w3.org/1999/xlink">
<g id="graph0" class="graph" transform="scale(1 1) rotate(0) translate(4 199)">
<title>Harlinn::OCI::NumberArrayBaseDefine&lt; externalType &gt;</title>
<!-- Node1 -->
<g id="Node000001" class="node">
<title>Node1</title>
<g id="a_Node000001"><a xlink:title="NumberArrayBaseDefine.">
<polygon fill="#999999" stroke="#666666" points="140,-30 0,-30 0,0 140,0 140,-30"/>
<text text-anchor="start" x="8" y="-18" font-family="Helvetica,sans-Serif" font-size="10.00">Harlinn::OCI::NumberArray</text>
<text text-anchor="middle" x="70" y="-7" font-family="Helvetica,sans-Serif" font-size="10.00">BaseDefine&lt; externalType &gt;</text>
</a>
</g>
</g>
<!-- Node2 -->
<g id="Node000002" class="node">
<title>Node2</title>
<g id="a_Node000002"><a xlink:href="class_harlinn_1_1_o_c_i_1_1_array_define.xhtml" target="_top" xlink:title="ArrayDefine, base class for defines for use with the ArrayDataReader class.">
<polygon fill="white" stroke="#666666" points="132.5,-85 7.5,-85 7.5,-66 132.5,-66 132.5,-85"/>
<text text-anchor="middle" x="70" y="-73" font-family="Helvetica,sans-Serif" font-size="10.00">Harlinn::OCI::ArrayDefine</text>
</a>
</g>
</g>
<!-- Node2&#45;&gt;Node1 -->
<g id="edge1_Node000001_Node000002" class="edge">
<title>Node2&#45;&gt;Node1</title>
<g id="a_edge1_Node000001_Node000002"><a xlink:title=" ">
<path fill="none" stroke="#63b8ff" d="M70,-54.51C70,-46.49 70,-37.43 70,-30.11"/>
<polygon fill="#63b8ff" stroke="#63b8ff" points="66.5,-54.35 70,-64.35 73.5,-54.35 66.5,-54.35"/>
</a>
</g>
</g>
<!-- Node3 -->
<g id="Node000003" class="node">
<title>Node3</title>
<g id="a_Node000003"><a xlink:href="class_harlinn_1_1_o_c_i_1_1_define_base.xhtml" target="_top" xlink:title="DefineBase, base class for all defines.">
<polygon fill="white" stroke="#666666" points="132.5,-140 7.5,-140 7.5,-121 132.5,-121 132.5,-140"/>
<text text-anchor="middle" x="70" y="-128" font-family="Helvetica,sans-Serif" font-size="10.00">Harlinn::OCI::DefineBase</text>
</a>
</g>
</g>
<!-- Node3&#45;&gt;Node2 -->
<g id="edge2_Node000002_Node000003" class="edge">
<title>Node3&#45;&gt;Node2</title>
<g id="a_edge2_Node000002_Node000003"><a xlink:title=" ">
<path fill="none" stroke="#63b8ff" d="M70,-109.35C70,-101.1 70,-91.97 70,-85.44"/>
<polygon fill="#63b8ff" stroke="#63b8ff" points="66.5,-109.23 70,-119.23 73.5,-109.23 66.5,-109.23"/>
</a>
</g>
</g>
<!-- Node4 -->
<g id="Node000004" class="node">
<title>Node4</title>
<g id="a_Node000004"><a xlink:href="class_harlinn_1_1_o_c_i_1_1_handle_base.xhtml" target="_top" xlink:title="Base class for OCI handle wrappers.">
<polygon fill="white" stroke="#666666" points="134,-195 6,-195 6,-176 134,-176 134,-195"/>
<text text-anchor="middle" x="70" y="-183" font-family="Helvetica,sans-Serif" font-size="10.00">Harlinn::OCI::HandleBase</text>
</a>
</g>
</g>
<!-- Node4&#45;&gt;Node3 -->
<g id="edge3_Node000003_Node000004" class="edge">
<title>Node4&#45;&gt;Node3</title>
<g id="a_edge3_Node000003_Node000004"><a xlink:title=" ">
<path fill="none" stroke="#63b8ff" d="M70,-164.35C70,-156.1 70,-146.97 70,-140.44"/>
<polygon fill="#63b8ff" stroke="#63b8ff" points="66.5,-164.23 70,-174.23 73.5,-164.23 66.5,-164.23"/>
</a>
</g>
</g>
</g>
</svg>
