<?xml version="1.0" encoding="UTF-8" standalone="no"?>
<!DOCTYPE svg PUBLIC "-//W3C//DTD SVG 1.1//EN"
 "http://www.w3.org/Graphics/SVG/1.1/DTD/svg11.dtd">
<!-- Generated by graphviz version 7.0.1 (20221109.1506)
 -->
<!-- Title: Harlinn::Common::Core::Xml::Dom::Node Pages: 1 -->
<svg width="960pt" height="518pt"
 viewBox="0.00 0.00 960.00 518.00" xmlns="http://www.w3.org/2000/svg" xmlns:xlink="http://www.w3.org/1999/xlink">
<g id="graph0" class="graph" transform="scale(1 1) rotate(0) translate(4 514)">
<title>Harlinn::Common::Core::Xml::Dom::Node</title>
<!-- Node1 -->
<g id="Node000001" class="node">
<title>Node1</title>
<g id="a_Node000001"><a xlink:title="Represents a single node in the XML document.">
<polygon fill="#999999" stroke="#666666" points="426,-270 308,-270 308,-240 426,-240 426,-270"/>
<text text-anchor="start" x="316" y="-258" font-family="Helvetica,sans-Serif" font-size="10.00">Harlinn::Common::Core</text>
<text text-anchor="middle" x="367" y="-247" font-family="Helvetica,sans-Serif" font-size="10.00">::Xml::Dom::Node</text>
</a>
</g>
</g>
<!-- Node4 -->
<g id="Node000004" class="node">
<title>Node4</title>
<g id="a_Node000004"><a xlink:href="class_harlinn_1_1_common_1_1_core_1_1_xml_1_1_dom_1_1_attribute.html" target="_top" xlink:title=" ">
<polygon fill="white" stroke="#666666" points="603,-510 485,-510 485,-480 603,-480 603,-510"/>
<text text-anchor="start" x="493" y="-498" font-family="Helvetica,sans-Serif" font-size="10.00">Harlinn::Common::Core</text>
<text text-anchor="middle" x="544" y="-487" font-family="Helvetica,sans-Serif" font-size="10.00">::Xml::Dom::Attribute</text>
</a>
</g>
</g>
<!-- Node1&#45;&gt;Node4 -->
<g id="edge3_Node000001_Node000004" class="edge">
<title>Node1&#45;&gt;Node4</title>
<g id="a_edge3_Node000001_Node000004"><a xlink:title=" ">
<path fill="none" stroke="#63b8ff" d="M372.15,-281.67C380.65,-327.21 404.34,-419.99 462,-471 468.59,-476.83 476.54,-481.25 484.85,-484.59"/>
<polygon fill="#63b8ff" stroke="#63b8ff" points="375.61,-281.14 370.44,-271.89 368.72,-282.34 375.61,-281.14"/>
</a>
</g>
</g>
<!-- Node5 -->
<g id="Node000005" class="node">
<title>Node5</title>
<g id="a_Node000005"><a xlink:href="class_harlinn_1_1_common_1_1_core_1_1_xml_1_1_dom_1_1_character_data.html" target="_top" xlink:title=" ">
<polygon fill="white" stroke="#666666" points="610.5,-462 477.5,-462 477.5,-432 610.5,-432 610.5,-462"/>
<text text-anchor="start" x="485.5" y="-450" font-family="Helvetica,sans-Serif" font-size="10.00">Harlinn::Common::Core</text>
<text text-anchor="middle" x="544" y="-439" font-family="Helvetica,sans-Serif" font-size="10.00">::Xml::Dom::CharacterData</text>
</a>
</g>
</g>
<!-- Node1&#45;&gt;Node5 -->
<g id="edge4_Node000001_Node000005" class="edge">
<title>Node1&#45;&gt;Node5</title>
<g id="a_edge4_Node000001_Node000005"><a xlink:title=" ">
<path fill="none" stroke="#63b8ff" d="M375.6,-280.96C387.76,-317.97 415.12,-385.53 462,-423 466.58,-426.66 471.71,-429.77 477.1,-432.4"/>
<polygon fill="#63b8ff" stroke="#63b8ff" points="378.97,-280.03 372.63,-271.54 372.3,-282.13 378.97,-280.03"/>
</a>
</g>
</g>
<!-- Node9 -->
<g id="Node000009" class="node">
<title>Node9</title>
<g id="a_Node000009"><a xlink:href="class_harlinn_1_1_common_1_1_core_1_1_xml_1_1_dom_1_1_document.html" target="_top" xlink:title=" ">
<polygon fill="white" stroke="#666666" points="603,-414 485,-414 485,-384 603,-384 603,-414"/>
<text text-anchor="start" x="493" y="-402" font-family="Helvetica,sans-Serif" font-size="10.00">Harlinn::Common::Core</text>
<text text-anchor="middle" x="544" y="-391" font-family="Helvetica,sans-Serif" font-size="10.00">::Xml::Dom::Document</text>
</a>
</g>
</g>
<!-- Node1&#45;&gt;Node9 -->
<g id="edge8_Node000001_Node000009" class="edge">
<title>Node1&#45;&gt;Node9</title>
<g id="a_edge8_Node000001_Node000009"><a xlink:title=" ">
<path fill="none" stroke="#63b8ff" d="M381.48,-280.36C397.25,-307.65 425.87,-350.43 462,-375 468.91,-379.7 476.76,-383.5 484.79,-386.56"/>
<polygon fill="#63b8ff" stroke="#63b8ff" points="384.57,-278.72 376.63,-271.71 378.46,-282.14 384.57,-278.72"/>
</a>
</g>
</g>
<!-- Node10 -->
<g id="Node000010" class="node">
<title>Node10</title>
<g id="a_Node000010"><a xlink:href="class_harlinn_1_1_common_1_1_core_1_1_xml_1_1_dom_1_1_document_fragment.html" target="_top" xlink:title=" ">
<polygon fill="white" stroke="#666666" points="622,-366 466,-366 466,-336 622,-336 622,-366"/>
<text text-anchor="start" x="474" y="-354" font-family="Helvetica,sans-Serif" font-size="10.00">Harlinn::Common::Core</text>
<text text-anchor="middle" x="544" y="-343" font-family="Helvetica,sans-Serif" font-size="10.00">::Xml::Dom::DocumentFragment</text>
</a>
</g>
</g>
<!-- Node1&#45;&gt;Node10 -->
<g id="edge9_Node000001_Node000010" class="edge">
<title>Node1&#45;&gt;Node10</title>
<g id="a_edge9_Node000001_Node000010"><a xlink:title=" ">
<path fill="none" stroke="#63b8ff" d="M392.25,-277.6C410.3,-293.36 436.18,-313.86 462,-327 468.27,-330.19 475.04,-333.03 481.9,-335.54"/>
<polygon fill="#63b8ff" stroke="#63b8ff" points="394.98,-275.34 385.18,-271.29 390.32,-280.56 394.98,-275.34"/>
</a>
</g>
</g>
<!-- Node11 -->
<g id="Node000011" class="node">
<title>Node11</title>
<g id="a_Node000011"><a xlink:href="class_harlinn_1_1_common_1_1_core_1_1_xml_1_1_dom_1_1_document_type.html" target="_top" xlink:title=" ">
<polygon fill="white" stroke="#666666" points="612,-318 476,-318 476,-288 612,-288 612,-318"/>
<text text-anchor="start" x="484" y="-306" font-family="Helvetica,sans-Serif" font-size="10.00">Harlinn::Common::Core</text>
<text text-anchor="middle" x="544" y="-295" font-family="Helvetica,sans-Serif" font-size="10.00">::Xml::Dom::DocumentType</text>
</a>
</g>
</g>
<!-- Node1&#45;&gt;Node11 -->
<g id="edge10_Node000001_Node000011" class="edge">
<title>Node1&#45;&gt;Node11</title>
<g id="a_edge10_Node000001_Node000011"><a xlink:title=" ">
<path fill="none" stroke="#63b8ff" d="M435.32,-273.46C452.32,-278.13 470.39,-283.08 486.77,-287.58"/>
<polygon fill="#63b8ff" stroke="#63b8ff" points="436.36,-270.12 425.79,-270.85 434.51,-276.87 436.36,-270.12"/>
</a>
</g>
</g>
<!-- Node12 -->
<g id="Node000012" class="node">
<title>Node12</title>
<g id="a_Node000012"><a xlink:href="class_harlinn_1_1_common_1_1_core_1_1_xml_1_1_dom_1_1_element.html" target="_top" xlink:title=" ">
<polygon fill="white" stroke="#666666" points="603,-270 485,-270 485,-240 603,-240 603,-270"/>
<text text-anchor="start" x="493" y="-258" font-family="Helvetica,sans-Serif" font-size="10.00">Harlinn::Common::Core</text>
<text text-anchor="middle" x="544" y="-247" font-family="Helvetica,sans-Serif" font-size="10.00">::Xml::Dom::Element</text>
</a>
</g>
</g>
<!-- Node1&#45;&gt;Node12 -->
<g id="edge11_Node000001_Node000012" class="edge">
<title>Node1&#45;&gt;Node12</title>
<g id="a_edge11_Node000001_Node000012"><a xlink:title=" ">
<path fill="none" stroke="#63b8ff" d="M437.49,-255C453.12,-255 469.56,-255 484.68,-255"/>
<polygon fill="#63b8ff" stroke="#63b8ff" points="437.79,-251.5 427.79,-255 437.79,-258.5 437.79,-251.5"/>
</a>
</g>
</g>
<!-- Node13 -->
<g id="Node000013" class="node">
<title>Node13</title>
<g id="a_Node000013"><a xlink:href="class_harlinn_1_1_common_1_1_core_1_1_xml_1_1_dom_1_1_entity.html" target="_top" xlink:title=" ">
<polygon fill="white" stroke="#666666" points="603,-222 485,-222 485,-192 603,-192 603,-222"/>
<text text-anchor="start" x="493" y="-210" font-family="Helvetica,sans-Serif" font-size="10.00">Harlinn::Common::Core</text>
<text text-anchor="middle" x="544" y="-199" font-family="Helvetica,sans-Serif" font-size="10.00">::Xml::Dom::Entity</text>
</a>
</g>
</g>
<!-- Node1&#45;&gt;Node13 -->
<g id="edge12_Node000001_Node000013" class="edge">
<title>Node1&#45;&gt;Node13</title>
<g id="a_edge12_Node000001_Node000013"><a xlink:title=" ">
<path fill="none" stroke="#63b8ff" d="M435.32,-236.54C452.32,-231.87 470.39,-226.92 486.77,-222.42"/>
<polygon fill="#63b8ff" stroke="#63b8ff" points="434.51,-233.13 425.79,-239.15 436.36,-239.88 434.51,-233.13"/>
</a>
</g>
</g>
<!-- Node14 -->
<g id="Node000014" class="node">
<title>Node14</title>
<g id="a_Node000014"><a xlink:href="class_harlinn_1_1_common_1_1_core_1_1_xml_1_1_dom_1_1_entity_reference.html" target="_top" xlink:title=" ">
<polygon fill="white" stroke="#666666" points="614,-174 474,-174 474,-144 614,-144 614,-174"/>
<text text-anchor="start" x="482" y="-162" font-family="Helvetica,sans-Serif" font-size="10.00">Harlinn::Common::Core</text>
<text text-anchor="middle" x="544" y="-151" font-family="Helvetica,sans-Serif" font-size="10.00">::Xml::Dom::EntityReference</text>
</a>
</g>
</g>
<!-- Node1&#45;&gt;Node14 -->
<g id="edge13_Node000001_Node000014" class="edge">
<title>Node1&#45;&gt;Node14</title>
<g id="a_edge13_Node000001_Node000014"><a xlink:title=" ">
<path fill="none" stroke="#63b8ff" d="M392.25,-232.4C410.3,-216.64 436.18,-196.14 462,-183 468.27,-179.81 475.04,-176.97 481.9,-174.46"/>
<polygon fill="#63b8ff" stroke="#63b8ff" points="390.32,-229.44 385.18,-238.71 394.98,-234.66 390.32,-229.44"/>
</a>
</g>
</g>
<!-- Node15 -->
<g id="Node000015" class="node">
<title>Node15</title>
<g id="a_Node000015"><a xlink:href="class_harlinn_1_1_common_1_1_core_1_1_xml_1_1_dom_1_1_notation.html" target="_top" xlink:title=" ">
<polygon fill="white" stroke="#666666" points="603,-126 485,-126 485,-96 603,-96 603,-126"/>
<text text-anchor="start" x="493" y="-114" font-family="Helvetica,sans-Serif" font-size="10.00">Harlinn::Common::Core</text>
<text text-anchor="middle" x="544" y="-103" font-family="Helvetica,sans-Serif" font-size="10.00">::Xml::Dom::Notation</text>
</a>
</g>
</g>
<!-- Node1&#45;&gt;Node15 -->
<g id="edge14_Node000001_Node000015" class="edge">
<title>Node1&#45;&gt;Node15</title>
<g id="a_edge14_Node000001_Node000015"><a xlink:title=" ">
<path fill="none" stroke="#63b8ff" d="M381.48,-229.64C397.25,-202.35 425.87,-159.57 462,-135 468.91,-130.3 476.76,-126.5 484.79,-123.44"/>
<polygon fill="#63b8ff" stroke="#63b8ff" points="378.46,-227.86 376.63,-238.29 384.57,-231.28 378.46,-227.86"/>
</a>
</g>
</g>
<!-- Node16 -->
<g id="Node000016" class="node">
<title>Node16</title>
<g id="a_Node000016"><a xlink:href="class_harlinn_1_1_common_1_1_core_1_1_xml_1_1_dom_1_1_processing_instruction.html" target="_top" xlink:title=" ">
<polygon fill="white" stroke="#666666" points="626,-78 462,-78 462,-48 626,-48 626,-78"/>
<text text-anchor="start" x="470" y="-66" font-family="Helvetica,sans-Serif" font-size="10.00">Harlinn::Common::Core</text>
<text text-anchor="middle" x="544" y="-55" font-family="Helvetica,sans-Serif" font-size="10.00">::Xml::Dom::ProcessingInstruction</text>
</a>
</g>
</g>
<!-- Node1&#45;&gt;Node16 -->
<g id="edge15_Node000001_Node000016" class="edge">
<title>Node1&#45;&gt;Node16</title>
<g id="a_edge15_Node000001_Node000016"><a xlink:title=" ">
<path fill="none" stroke="#63b8ff" d="M375.6,-229.04C387.76,-192.03 415.12,-124.47 462,-87 466.12,-83.7 470.69,-80.86 475.49,-78.41"/>
<polygon fill="#63b8ff" stroke="#63b8ff" points="372.3,-227.87 372.63,-238.46 378.97,-229.97 372.3,-227.87"/>
</a>
</g>
</g>
<!-- Node17 -->
<g id="Node000017" class="node">
<title>Node17</title>
<g id="a_Node000017"><a xlink:href="class_harlinn_1_1_common_1_1_core_1_1_xml_1_1_x_t_l_runtime.html" target="_top" xlink:title=" ">
<polygon fill="white" stroke="#666666" points="603,-30 485,-30 485,0 603,0 603,-30"/>
<text text-anchor="start" x="493" y="-18" font-family="Helvetica,sans-Serif" font-size="10.00">Harlinn::Common::Core</text>
<text text-anchor="middle" x="544" y="-7" font-family="Helvetica,sans-Serif" font-size="10.00">::Xml::XTLRuntime</text>
</a>
</g>
</g>
<!-- Node1&#45;&gt;Node17 -->
<g id="edge16_Node000001_Node000017" class="edge">
<title>Node1&#45;&gt;Node17</title>
<g id="a_edge16_Node000001_Node000017"><a xlink:title=" ">
<path fill="none" stroke="#63b8ff" d="M372.15,-228.33C380.65,-182.79 404.34,-90.01 462,-39 468.59,-33.17 476.54,-28.75 484.85,-25.41"/>
<polygon fill="#63b8ff" stroke="#63b8ff" points="368.72,-227.66 370.44,-238.11 375.61,-228.86 368.72,-227.66"/>
</a>
</g>
</g>
<!-- Node2 -->
<g id="Node000002" class="node">
<title>Node2</title>
<g id="a_Node000002"><a xlink:href="class_harlinn_1_1_common_1_1_core_1_1_dispatch.html" target="_top" xlink:title="Exposes objects, methods and properties to programming tools and other applications that support Auto...">
<polygon fill="white" stroke="#666666" points="272,-270 154,-270 154,-240 272,-240 272,-270"/>
<text text-anchor="start" x="162" y="-258" font-family="Helvetica,sans-Serif" font-size="10.00">Harlinn::Common::Core</text>
<text text-anchor="middle" x="213" y="-247" font-family="Helvetica,sans-Serif" font-size="10.00">::Dispatch</text>
</a>
</g>
</g>
<!-- Node2&#45;&gt;Node1 -->
<g id="edge1_Node000001_Node000002" class="edge">
<title>Node2&#45;&gt;Node1</title>
<g id="a_edge1_Node000001_Node000002"><a xlink:title=" ">
<path fill="none" stroke="#63b8ff" d="M283.57,-255C291.6,-255 299.72,-255 307.57,-255"/>
<polygon fill="#63b8ff" stroke="#63b8ff" points="283.85,-251.5 273.85,-255 283.85,-258.5 283.85,-251.5"/>
</a>
</g>
</g>
<!-- Node3 -->
<g id="Node000003" class="node">
<title>Node3</title>
<g id="a_Node000003"><a xlink:href="class_harlinn_1_1_common_1_1_core_1_1_unknown.html" target="_top" xlink:title="Base class for COM interface wrappers.">
<polygon fill="white" stroke="#666666" points="118,-270 0,-270 0,-240 118,-240 118,-270"/>
<text text-anchor="start" x="8" y="-258" font-family="Helvetica,sans-Serif" font-size="10.00">Harlinn::Common::Core</text>
<text text-anchor="middle" x="59" y="-247" font-family="Helvetica,sans-Serif" font-size="10.00">::Unknown</text>
</a>
</g>
</g>
<!-- Node3&#45;&gt;Node2 -->
<g id="edge2_Node000002_Node000003" class="edge">
<title>Node3&#45;&gt;Node2</title>
<g id="a_edge2_Node000002_Node000003"><a xlink:title=" ">
<path fill="none" stroke="#63b8ff" d="M129.57,-255C137.6,-255 145.72,-255 153.57,-255"/>
<polygon fill="#63b8ff" stroke="#63b8ff" points="129.85,-251.5 119.85,-255 129.85,-258.5 129.85,-251.5"/>
</a>
</g>
</g>
<!-- Node6 -->
<g id="Node000006" class="node">
<title>Node6</title>
<g id="a_Node000006"><a xlink:href="class_harlinn_1_1_common_1_1_core_1_1_xml_1_1_dom_1_1_comment.html" target="_top" xlink:title=" ">
<polygon fill="white" stroke="#666666" points="780,-486 662,-486 662,-456 780,-456 780,-486"/>
<text text-anchor="start" x="670" y="-474" font-family="Helvetica,sans-Serif" font-size="10.00">Harlinn::Common::Core</text>
<text text-anchor="middle" x="721" y="-463" font-family="Helvetica,sans-Serif" font-size="10.00">::Xml::Dom::Comment</text>
</a>
</g>
</g>
<!-- Node5&#45;&gt;Node6 -->
<g id="edge5_Node000005_Node000006" class="edge">
<title>Node5&#45;&gt;Node6</title>
<g id="a_edge5_Node000005_Node000006"><a xlink:title=" ">
<path fill="none" stroke="#63b8ff" d="M621.81,-457.53C635.21,-459.37 648.95,-461.26 661.74,-463.01"/>
<polygon fill="#63b8ff" stroke="#63b8ff" points="622.54,-454.1 612.16,-456.21 621.59,-461.04 622.54,-454.1"/>
</a>
</g>
</g>
<!-- Node7 -->
<g id="Node000007" class="node">
<title>Node7</title>
<g id="a_Node000007"><a xlink:href="class_harlinn_1_1_common_1_1_core_1_1_xml_1_1_dom_1_1_text.html" target="_top" xlink:title=" ">
<polygon fill="white" stroke="#666666" points="780,-438 662,-438 662,-408 780,-408 780,-438"/>
<text text-anchor="start" x="670" y="-426" font-family="Helvetica,sans-Serif" font-size="10.00">Harlinn::Common::Core</text>
<text text-anchor="middle" x="721" y="-415" font-family="Helvetica,sans-Serif" font-size="10.00">::Xml::Dom::Text</text>
</a>
</g>
</g>
<!-- Node5&#45;&gt;Node7 -->
<g id="edge6_Node000005_Node000007" class="edge">
<title>Node5&#45;&gt;Node7</title>
<g id="a_edge6_Node000005_Node000007"><a xlink:title=" ">
<path fill="none" stroke="#63b8ff" d="M621.81,-436.47C635.21,-434.63 648.95,-432.74 661.74,-430.99"/>
<polygon fill="#63b8ff" stroke="#63b8ff" points="621.59,-432.96 612.16,-437.79 622.54,-439.9 621.59,-432.96"/>
</a>
</g>
</g>
<!-- Node8 -->
<g id="Node000008" class="node">
<title>Node8</title>
<g id="a_Node000008"><a xlink:href="class_harlinn_1_1_common_1_1_core_1_1_xml_1_1_dom_1_1_c_d_a_t_a_section.html" target="_top" xlink:title=" ">
<polygon fill="white" stroke="#666666" points="952,-438 816,-438 816,-408 952,-408 952,-438"/>
<text text-anchor="start" x="824" y="-426" font-family="Helvetica,sans-Serif" font-size="10.00">Harlinn::Common::Core</text>
<text text-anchor="middle" x="884" y="-415" font-family="Helvetica,sans-Serif" font-size="10.00">::Xml::Dom::CDATASection</text>
</a>
</g>
</g>
<!-- Node7&#45;&gt;Node8 -->
<g id="edge7_Node000007_Node000008" class="edge">
<title>Node7&#45;&gt;Node8</title>
<g id="a_edge7_Node000007_Node000008"><a xlink:title=" ">
<path fill="none" stroke="#63b8ff" d="M791.37,-423C799.43,-423 807.63,-423 815.65,-423"/>
<polygon fill="#63b8ff" stroke="#63b8ff" points="791.64,-419.5 781.64,-423 791.64,-426.5 791.64,-419.5"/>
</a>
</g>
</g>
</g>
</svg>
