<?xml version="1.0" encoding="UTF-8" standalone="no"?>
<!DOCTYPE svg PUBLIC "-//W3C//DTD SVG 1.1//EN"
 "http://www.w3.org/Graphics/SVG/1.1/DTD/svg11.dtd">
<!-- Generated by graphviz version 7.0.1 (20221109.1506)
 -->
<!-- Title: Harlinn::AI::DML::X::Expression Pages: 1 -->
<svg width="1665pt" height="695pt"
 viewBox="0.00 0.00 1665.00 695.00" xmlns="http://www.w3.org/2000/svg" xmlns:xlink="http://www.w3.org/1999/xlink">
<g id="graph0" class="graph" transform="scale(1 1) rotate(0) translate(4 691)">
<title>Harlinn::AI::DML::X::Expression</title>
<!-- Node1 -->
<g id="Node000001" class="node">
<title>Node1</title>
<g id="a_Node000001"><a xlink:title=" ">
<polygon fill="#999999" stroke="#666666" points="852,-30 753,-30 753,0 852,0 852,-30"/>
<text text-anchor="start" x="761" y="-18" font-family="Helvetica,sans-Serif" font-size="10.00">Harlinn::AI::DML::X</text>
<text text-anchor="middle" x="802.5" y="-7" font-family="Helvetica,sans-Serif" font-size="10.00">::Expression</text>
</a>
</g>
</g>
<!-- Node2 -->
<g id="Node000002" class="node">
<title>Node2</title>
<g id="a_Node000002"><a xlink:href="class_harlinn_1_1_a_i_1_1_d_m_l_1_1_x_1_1_internal_1_1_node_output.html" target="_top" xlink:title=" ">
<polygon fill="white" stroke="#666666" points="573,-106 461,-106 461,-76 573,-76 573,-106"/>
<text text-anchor="start" x="469" y="-94" font-family="Helvetica,sans-Serif" font-size="10.00">Harlinn::AI::DML::X</text>
<text text-anchor="middle" x="517" y="-83" font-family="Helvetica,sans-Serif" font-size="10.00">::Internal::NodeOutput</text>
</a>
</g>
</g>
<!-- Node2&#45;&gt;Node1 -->
<g id="edge1_Node000001_Node000002" class="edge">
<title>Node2&#45;&gt;Node1</title>
<g id="a_edge1_Node000001_Node000002"><a xlink:title=" ">
<path fill="none" stroke="#9a32cd" stroke-dasharray="5,2" d="M541.46,-68.11C555.95,-55.45 575.62,-40.75 596,-33 646.88,-13.65 709.79,-10.93 752.5,-11.92"/>
<polygon fill="#9a32cd" stroke="#9a32cd" points="539.32,-65.32 534.26,-74.63 544.02,-70.51 539.32,-65.32"/>
</a>
</g>
<text text-anchor="middle" x="657.5" y="-36" font-family="Helvetica,sans-Serif" font-size="10.00" fill="grey"> nodeOutput_</text>
</g>
<!-- Node17 -->
<g id="Node000017" class="node">
<title>Node17</title>
<g id="a_Node000017"><a xlink:title=" ">
<polygon fill="white" stroke="#666666" points="856,-463.5 749,-463.5 749,-422.5 856,-422.5 856,-463.5"/>
<text text-anchor="start" x="757" y="-451.5" font-family="Helvetica,sans-Serif" font-size="10.00">std::vector&lt; Harlinn</text>
<text text-anchor="start" x="757" y="-440.5" font-family="Helvetica,sans-Serif" font-size="10.00">::AI::DML::X::Internal</text>
<text text-anchor="middle" x="802.5" y="-429.5" font-family="Helvetica,sans-Serif" font-size="10.00">::NodeOutput * &gt;</text>
</a>
</g>
</g>
<!-- Node2&#45;&gt;Node17 -->
<g id="edge18_Node000017_Node000002" class="edge">
<title>Node2&#45;&gt;Node17</title>
<g id="a_edge18_Node000017_Node000002"><a xlink:title=" ">
<path fill="none" stroke="#9a32cd" stroke-dasharray="5,2" d="M560.81,-112.84C567.47,-117.97 573.59,-124.01 578,-131 608.16,-178.86 569.45,-207.05 596,-257 635.86,-332 718.44,-392 765.89,-422.03"/>
<polygon fill="#9a32cd" stroke="#9a32cd" points="562.97,-110.08 552.75,-107.29 559,-115.84 562.97,-110.08"/>
</a>
</g>
<text text-anchor="middle" x="657.5" y="-389" font-family="Helvetica,sans-Serif" font-size="10.00" fill="grey"> elements</text>
</g>
<!-- Node21 -->
<g id="Node000021" class="node">
<title>Node21</title>
<g id="a_Node000021"><a xlink:href="struct_harlinn_1_1_a_i_1_1_d_m_l_1_1_x_1_1_internal_1_1_reinterpret_node.html" target="_top" xlink:title=" ">
<polygon fill="white" stroke="#666666" points="867.5,-176 737.5,-176 737.5,-146 867.5,-146 867.5,-176"/>
<text text-anchor="start" x="745.5" y="-164" font-family="Helvetica,sans-Serif" font-size="10.00">Harlinn::AI::DML::X</text>
<text text-anchor="middle" x="802.5" y="-153" font-family="Helvetica,sans-Serif" font-size="10.00">::Internal::ReinterpretNode</text>
</a>
</g>
</g>
<!-- Node2&#45;&gt;Node21 -->
<g id="edge25_Node000021_Node000002" class="edge">
<title>Node2&#45;&gt;Node21</title>
<g id="a_edge25_Node000021_Node000002"><a xlink:title=" ">
<path fill="none" stroke="#9a32cd" stroke-dasharray="5,2" d="M552.54,-112.59C561.06,-118.3 570.03,-124.65 578,-131 586.61,-137.85 585.91,-143.61 596,-148 640.42,-167.31 695.39,-169.82 737.3,-167.9"/>
<polygon fill="#9a32cd" stroke="#9a32cd" points="554.73,-109.84 544.45,-107.27 550.89,-115.69 554.73,-109.84"/>
</a>
</g>
<text text-anchor="middle" x="657.5" y="-172" font-family="Helvetica,sans-Serif" font-size="10.00" fill="grey"> input</text>
</g>
<!-- Node26 -->
<g id="Node000026" class="node">
<title>Node26</title>
<g id="a_Node000026"><a xlink:title=" ">
<polygon fill="white" stroke="#666666" points="856,-127.5 749,-127.5 749,-86.5 856,-86.5 856,-127.5"/>
<text text-anchor="start" x="757" y="-115.5" font-family="Helvetica,sans-Serif" font-size="10.00">std::deque&lt; Harlinn</text>
<text text-anchor="start" x="757" y="-104.5" font-family="Helvetica,sans-Serif" font-size="10.00">::AI::DML::X::Internal</text>
<text text-anchor="middle" x="802.5" y="-93.5" font-family="Helvetica,sans-Serif" font-size="10.00">::NodeOutput &gt;</text>
</a>
</g>
</g>
<!-- Node2&#45;&gt;Node26 -->
<g id="edge35_Node000026_Node000002" class="edge">
<title>Node2&#45;&gt;Node26</title>
<g id="a_edge35_Node000026_Node000002"><a xlink:title=" ">
<path fill="none" stroke="#9a32cd" stroke-dasharray="5,2" d="M584.42,-88.42C623.66,-87.63 674.25,-87.85 719,-92 728.71,-92.9 738.99,-94.36 748.88,-96.02"/>
<polygon fill="#9a32cd" stroke="#9a32cd" points="584.58,-84.92 574.67,-88.65 584.74,-91.92 584.58,-84.92"/>
</a>
</g>
<text text-anchor="middle" x="657.5" y="-95" font-family="Helvetica,sans-Serif" font-size="10.00" fill="grey"> elements</text>
</g>
<!-- Node3 -->
<g id="Node000003" class="node">
<title>Node3</title>
<g id="a_Node000003"><a xlink:href="class_harlinn_1_1_a_i_1_1_d_m_l_1_1_x_1_1_internal_1_1_graph_builder.html" target="_top" xlink:title=" ">
<polygon fill="white" stroke="#666666" points="1657,-386 1541,-386 1541,-356 1657,-356 1657,-386"/>
<text text-anchor="start" x="1549" y="-374" font-family="Helvetica,sans-Serif" font-size="10.00">Harlinn::AI::DML::X</text>
<text text-anchor="middle" x="1599" y="-363" font-family="Helvetica,sans-Serif" font-size="10.00">::Internal::GraphBuilder</text>
</a>
</g>
</g>
<!-- Node3&#45;&gt;Node2 -->
<g id="edge2_Node000002_Node000003" class="edge">
<title>Node3&#45;&gt;Node2</title>
<g id="a_edge2_Node000002_Node000003"><a xlink:title=" ">
<path fill="none" stroke="#9a32cd" stroke-dasharray="5,2" d="M1592.45,-345.09C1574.72,-270.08 1512.06,-58 1370.5,-58 801.5,-58 801.5,-58 801.5,-58 721.85,-58 630.44,-71.01 573.45,-80.69"/>
<polygon fill="#9a32cd" stroke="#9a32cd" points="1588.95,-345.46 1594.58,-354.43 1595.77,-343.9 1588.95,-345.46"/>
</a>
</g>
<text text-anchor="middle" x="1091" y="-61" font-family="Helvetica,sans-Serif" font-size="10.00" fill="grey"> owner_</text>
</g>
<!-- Node4 -->
<g id="Node000004" class="node">
<title>Node4</title>
<g id="a_Node000004"><a xlink:href="class_harlinn_1_1_a_i_1_1_d_m_l_1_1_device1.html" target="_top" xlink:title=" ">
<polygon fill="white" stroke="#666666" points="1298,-671.5 1170,-671.5 1170,-652.5 1298,-652.5 1298,-671.5"/>
<text text-anchor="middle" x="1234" y="-659.5" font-family="Helvetica,sans-Serif" font-size="10.00">Harlinn::AI::DML::Device1</text>
</a>
</g>
</g>
<!-- Node4&#45;&gt;Node3 -->
<g id="edge3_Node000003_Node000004" class="edge">
<title>Node4&#45;&gt;Node3</title>
<g id="a_edge3_Node000003_Node000004"><a xlink:title=" ">
<path fill="none" stroke="#9a32cd" stroke-dasharray="5,2" d="M1299.44,-673.38C1363.61,-680.84 1461.23,-681.13 1523,-629 1561.32,-596.66 1588.17,-436.66 1595.79,-386.24"/>
<polygon fill="#9a32cd" stroke="#9a32cd" points="1300.11,-669.94 1289.75,-672.16 1299.24,-676.89 1300.11,-669.94"/>
</a>
</g>
<text text-anchor="middle" x="1369.5" y="-679" font-family="Helvetica,sans-Serif" font-size="10.00" fill="grey"> m_device</text>
</g>
<!-- Node5 -->
<g id="Node000005" class="node">
<title>Node5</title>
<g id="a_Node000005"><a xlink:href="class_harlinn_1_1_a_i_1_1_d_m_l_1_1_device.html" target="_top" xlink:title=" ">
<polygon fill="white" stroke="#666666" points="578,-670.5 456,-670.5 456,-651.5 578,-651.5 578,-670.5"/>
<text text-anchor="middle" x="517" y="-658.5" font-family="Helvetica,sans-Serif" font-size="10.00">Harlinn::AI::DML::Device</text>
</a>
</g>
</g>
<!-- Node5&#45;&gt;Node4 -->
<g id="edge4_Node000004_Node000005" class="edge">
<title>Node5&#45;&gt;Node4</title>
<g id="a_edge4_Node000004_Node000005"><a xlink:title=" ">
<path fill="none" stroke="#63b8ff" d="M589.73,-661.1C729.57,-661.3 1036.53,-661.73 1169.5,-661.91"/>
<polygon fill="#63b8ff" stroke="#63b8ff" points="589.86,-657.6 579.86,-661.09 589.85,-664.6 589.86,-657.6"/>
</a>
</g>
</g>
<!-- Node6 -->
<g id="Node000006" class="node">
<title>Node6</title>
<g id="a_Node000006"><a xlink:href="class_harlinn_1_1_a_i_1_1_d_m_l_1_1_object.html" target="_top" xlink:title=" ">
<polygon fill="white" stroke="#666666" points="362,-622.5 240,-622.5 240,-603.5 362,-603.5 362,-622.5"/>
<text text-anchor="middle" x="301" y="-610.5" font-family="Helvetica,sans-Serif" font-size="10.00">Harlinn::AI::DML::Object</text>
</a>
</g>
</g>
<!-- Node6&#45;&gt;Node5 -->
<g id="edge5_Node000005_Node000006" class="edge">
<title>Node6&#45;&gt;Node5</title>
<g id="a_edge5_Node000005_Node000006"><a xlink:title=" ">
<path fill="none" stroke="#63b8ff" d="M357.51,-625.45C393.07,-633.43 438.59,-643.64 471.72,-651.07"/>
<polygon fill="#63b8ff" stroke="#63b8ff" points="358.34,-622.05 347.82,-623.28 356.81,-628.88 358.34,-622.05"/>
</a>
</g>
</g>
<!-- Node16 -->
<g id="Node000016" class="node">
<title>Node16</title>
<g id="a_Node000016"><a xlink:href="class_harlinn_1_1_a_i_1_1_d_m_l_1_1_device_child.html" target="_top" xlink:title=" ">
<polygon fill="white" stroke="#666666" points="578,-582 456,-582 456,-552 578,-552 578,-582"/>
<text text-anchor="start" x="464" y="-570" font-family="Helvetica,sans-Serif" font-size="10.00">Harlinn::AI::DML::Device</text>
<text text-anchor="middle" x="517" y="-559" font-family="Helvetica,sans-Serif" font-size="10.00">Child</text>
</a>
</g>
</g>
<!-- Node6&#45;&gt;Node16 -->
<g id="edge16_Node000016_Node000006" class="edge">
<title>Node6&#45;&gt;Node16</title>
<g id="a_edge16_Node000016_Node000006"><a xlink:title=" ">
<path fill="none" stroke="#63b8ff" d="M359.5,-600.64C389.29,-594.24 425.65,-586.42 455.82,-579.94"/>
<polygon fill="#63b8ff" stroke="#63b8ff" points="358.96,-597.18 349.91,-602.7 360.43,-604.02 358.96,-597.18"/>
</a>
</g>
</g>
<!-- Node7 -->
<g id="Node000007" class="node">
<title>Node7</title>
<g id="a_Node000007"><a xlink:href="class_harlinn_1_1_common_1_1_core_1_1_unknown.html" target="_top" xlink:title="Base class for COM interface wrappers.">
<polygon fill="white" stroke="#666666" points="132,-628 14,-628 14,-598 132,-598 132,-628"/>
<text text-anchor="start" x="22" y="-616" font-family="Helvetica,sans-Serif" font-size="10.00">Harlinn::Common::Core</text>
<text text-anchor="middle" x="73" y="-605" font-family="Helvetica,sans-Serif" font-size="10.00">::Unknown</text>
</a>
</g>
</g>
<!-- Node7&#45;&gt;Node6 -->
<g id="edge6_Node000006_Node000007" class="edge">
<title>Node7&#45;&gt;Node6</title>
<g id="a_edge6_Node000006_Node000007"><a xlink:title=" ">
<path fill="none" stroke="#63b8ff" d="M143.99,-613C174.66,-613 210.31,-613 239.78,-613"/>
<polygon fill="#63b8ff" stroke="#63b8ff" points="144.01,-609.5 134.01,-613 144.01,-616.5 144.01,-609.5"/>
</a>
</g>
</g>
<!-- Node8 -->
<g id="Node000008" class="node">
<title>Node8</title>
<g id="a_Node000008"><a xlink:href="class_harlinn_1_1_a_i_1_1_d_m_l_1_1_x_1_1_tensor_policy.html" target="_top" xlink:title=" ">
<polygon fill="white" stroke="#666666" points="1419,-587 1320,-587 1320,-557 1419,-557 1419,-587"/>
<text text-anchor="start" x="1328" y="-575" font-family="Helvetica,sans-Serif" font-size="10.00">Harlinn::AI::DML::X</text>
<text text-anchor="middle" x="1369.5" y="-564" font-family="Helvetica,sans-Serif" font-size="10.00">::TensorPolicy</text>
</a>
</g>
</g>
<!-- Node8&#45;&gt;Node3 -->
<g id="edge7_Node000003_Node000008" class="edge">
<title>Node8&#45;&gt;Node3</title>
<g id="a_edge7_Node000003_Node000008"><a xlink:title=" ">
<path fill="none" stroke="#9a32cd" stroke-dasharray="5,2" d="M1430.71,-573.36C1461.25,-571.11 1497.23,-563.58 1523,-543 1573.92,-502.35 1591.05,-420.23 1596.11,-386.25"/>
<polygon fill="#9a32cd" stroke="#9a32cd" points="1430.61,-569.86 1420.82,-573.9 1430.99,-576.85 1430.61,-569.86"/>
</a>
</g>
<text text-anchor="middle" x="1482" y="-575" font-family="Helvetica,sans-Serif" font-size="10.00" fill="grey"> m_tensorPolicy</text>
</g>
<!-- Node9 -->
<g id="Node000009" class="node">
<title>Node9</title>
<g id="a_Node000009"><a xlink:title=" ">
<polygon fill="white" stroke="#666666" points="856,-634.5 749,-634.5 749,-593.5 856,-593.5 856,-634.5"/>
<text text-anchor="start" x="757" y="-622.5" font-family="Helvetica,sans-Serif" font-size="10.00">std::vector&lt; Harlinn</text>
<text text-anchor="start" x="757" y="-611.5" font-family="Helvetica,sans-Serif" font-size="10.00">::AI::DML::X::Internal</text>
<text text-anchor="middle" x="802.5" y="-600.5" font-family="Helvetica,sans-Serif" font-size="10.00">::InputNode &gt;</text>
</a>
</g>
</g>
<!-- Node9&#45;&gt;Node3 -->
<g id="edge8_Node000003_Node000009" class="edge">
<title>Node9&#45;&gt;Node3</title>
<g id="a_edge8_Node000003_Node000009"><a xlink:title=" ">
<path fill="none" stroke="#9a32cd" stroke-dasharray="5,2" d="M867.49,-615.8C1034.12,-619.91 1472.08,-626.78 1523,-587 1587.6,-536.54 1596.78,-426.94 1597.92,-386.44"/>
<polygon fill="#9a32cd" stroke="#9a32cd" points="868.04,-612.32 857.96,-615.56 867.86,-619.31 868.04,-612.32"/>
</a>
</g>
<text text-anchor="middle" x="1234" y="-621" font-family="Helvetica,sans-Serif" font-size="10.00" fill="grey"> m_inputNodes</text>
</g>
<!-- Node10 -->
<g id="Node000010" class="node">
<title>Node10</title>
<g id="a_Node000010"><a xlink:href="struct_harlinn_1_1_a_i_1_1_d_m_l_1_1_x_1_1_internal_1_1_input_node.html" target="_top" xlink:title=" ">
<polygon fill="white" stroke="#666666" points="569,-630 465,-630 465,-600 569,-600 569,-630"/>
<text text-anchor="start" x="473" y="-618" font-family="Helvetica,sans-Serif" font-size="10.00">Harlinn::AI::DML::X</text>
<text text-anchor="middle" x="517" y="-607" font-family="Helvetica,sans-Serif" font-size="10.00">::Internal::InputNode</text>
</a>
</g>
</g>
<!-- Node10&#45;&gt;Node9 -->
<g id="edge9_Node000009_Node000010" class="edge">
<title>Node10&#45;&gt;Node9</title>
<g id="a_edge9_Node000009_Node000010"><a xlink:title=" ">
<path fill="none" stroke="#9a32cd" stroke-dasharray="5,2" d="M580.74,-614.78C631.11,-614.6 701.05,-614.35 748.62,-614.19"/>
<polygon fill="#9a32cd" stroke="#9a32cd" points="580.84,-611.28 570.85,-614.81 580.87,-618.28 580.84,-611.28"/>
</a>
</g>
<text text-anchor="middle" x="657.5" y="-617" font-family="Helvetica,sans-Serif" font-size="10.00" fill="grey"> elements</text>
</g>
<!-- Node11 -->
<g id="Node000011" class="node">
<title>Node11</title>
<g id="a_Node000011"><a xlink:title=" ">
<polygon fill="white" stroke="#666666" points="559.5,-381.5 474.5,-381.5 474.5,-362.5 559.5,-362.5 559.5,-381.5"/>
<text text-anchor="middle" x="517" y="-369.5" font-family="Helvetica,sans-Serif" font-size="10.00">std::vector&lt; T &gt;</text>
</a>
</g>
</g>
<!-- Node11&#45;&gt;Node9 -->
<g id="edge10_Node000009_Node000011" class="edge">
<title>Node11&#45;&gt;Node9</title>
<g id="a_edge10_Node000009_Node000011"><a xlink:title=" ">
<path fill="none" stroke="orange" stroke-dasharray="5,2" d="M532.45,-390.75C547.53,-409.89 572.24,-440.1 596,-464 654.22,-522.57 667.29,-540.73 737,-585 741.46,-587.83 746.24,-590.53 751.1,-593.06"/>
<polygon fill="orange" stroke="orange" points="535.34,-388.76 526.43,-383.03 529.82,-393.07 535.34,-388.76"/>
</a>
</g>
<text text-anchor="start" x="603.5" y="-586" font-family="Helvetica,sans-Serif" font-size="10.00" fill="grey"> &lt; Harlinn::AI::DML</text>
<text text-anchor="middle" x="657.5" y="-575" font-family="Helvetica,sans-Serif" font-size="10.00" fill="grey">::X::Internal::InputNode &gt;</text>
</g>
<!-- Node13 -->
<g id="Node000013" class="node">
<title>Node13</title>
<g id="a_Node000013"><a xlink:title=" ">
<polygon fill="white" stroke="#666666" points="1423,-421.5 1316,-421.5 1316,-380.5 1423,-380.5 1423,-421.5"/>
<text text-anchor="start" x="1324" y="-409.5" font-family="Helvetica,sans-Serif" font-size="10.00">std::vector&lt; Harlinn</text>
<text text-anchor="start" x="1324" y="-398.5" font-family="Helvetica,sans-Serif" font-size="10.00">::AI::DML::X::Internal</text>
<text text-anchor="middle" x="1369.5" y="-387.5" font-family="Helvetica,sans-Serif" font-size="10.00">::OperatorNode &gt;</text>
</a>
</g>
</g>
<!-- Node11&#45;&gt;Node13 -->
<g id="edge22_Node000013_Node000011" class="edge">
<title>Node11&#45;&gt;Node13</title>
<g id="a_edge22_Node000013_Node000011"><a xlink:title=" ">
<path fill="none" stroke="orange" stroke-dasharray="5,2" d="M571.05,-383.47C579.37,-384.9 587.89,-386.15 596,-387 865.49,-415.14 1190.66,-407.59 1315.86,-403.15"/>
<polygon fill="orange" stroke="orange" points="571.86,-380.06 561.39,-381.7 570.6,-386.94 571.86,-380.06"/>
</a>
</g>
<text text-anchor="start" x="887" y="-421" font-family="Helvetica,sans-Serif" font-size="10.00" fill="grey"> &lt; Harlinn::AI::DML</text>
<text text-anchor="middle" x="949" y="-410" font-family="Helvetica,sans-Serif" font-size="10.00" fill="grey">::X::Internal::OperatorNode &gt;</text>
</g>
<!-- Node11&#45;&gt;Node17 -->
<g id="edge19_Node000017_Node000011" class="edge">
<title>Node11&#45;&gt;Node17</title>
<g id="a_edge19_Node000017_Node000011"><a xlink:title=" ">
<path fill="none" stroke="orange" stroke-dasharray="5,2" d="M541.66,-388.06C556.6,-397.42 576.68,-408.6 596,-415 646.25,-431.63 706.55,-438.39 748.79,-441.14"/>
<polygon fill="orange" stroke="orange" points="543.78,-385.26 533.48,-382.77 539.98,-391.14 543.78,-385.26"/>
</a>
</g>
<text text-anchor="start" x="596" y="-452" font-family="Helvetica,sans-Serif" font-size="10.00" fill="grey"> &lt; Harlinn::AI::DML</text>
<text text-anchor="middle" x="657.5" y="-441" font-family="Helvetica,sans-Serif" font-size="10.00" fill="grey">::X::Internal::NodeOutput * &gt;</text>
</g>
<!-- Node20 -->
<g id="Node000020" class="node">
<title>Node20</title>
<g id="a_Node000020"><a xlink:title=" ">
<polygon fill="white" stroke="#666666" points="1144.5,-272.5 1037.5,-272.5 1037.5,-231.5 1144.5,-231.5 1144.5,-272.5"/>
<text text-anchor="start" x="1045.5" y="-260.5" font-family="Helvetica,sans-Serif" font-size="10.00">std::vector&lt; Harlinn</text>
<text text-anchor="start" x="1045.5" y="-249.5" font-family="Helvetica,sans-Serif" font-size="10.00">::AI::DML::X::Internal</text>
<text text-anchor="middle" x="1091" y="-238.5" font-family="Helvetica,sans-Serif" font-size="10.00">::ReinterpretNode &gt;</text>
</a>
</g>
</g>
<!-- Node11&#45;&gt;Node20 -->
<g id="edge26_Node000020_Node000011" class="edge">
<title>Node11&#45;&gt;Node20</title>
<g id="a_edge26_Node000020_Node000011"><a xlink:title=" ">
<path fill="none" stroke="orange" stroke-dasharray="5,2" d="M541.72,-355.88C556.69,-346.41 576.76,-334.98 596,-328 771.27,-264.42 828.85,-308.88 1012,-274 1020.15,-272.45 1028.69,-270.44 1037.01,-268.27"/>
<polygon fill="orange" stroke="orange" points="539.99,-352.82 533.52,-361.21 543.81,-358.69 539.99,-352.82"/>
</a>
</g>
<text text-anchor="start" x="751" y="-318" font-family="Helvetica,sans-Serif" font-size="10.00" fill="grey"> &lt; Harlinn::AI::DML</text>
<text text-anchor="start" x="751" y="-307" font-family="Helvetica,sans-Serif" font-size="10.00" fill="grey">::X::Internal::Reinterpret</text>
<text text-anchor="middle" x="802.5" y="-296" font-family="Helvetica,sans-Serif" font-size="10.00" fill="grey">Node &gt;</text>
</g>
<!-- Node22 -->
<g id="Node000022" class="node">
<title>Node22</title>
<g id="a_Node000022"><a xlink:title=" ">
<polygon fill="white" stroke="#666666" points="1423,-362.5 1316,-362.5 1316,-321.5 1423,-321.5 1423,-362.5"/>
<text text-anchor="start" x="1324" y="-350.5" font-family="Helvetica,sans-Serif" font-size="10.00">std::vector&lt; Harlinn</text>
<text text-anchor="start" x="1324" y="-339.5" font-family="Helvetica,sans-Serif" font-size="10.00">::AI::DML::X::Internal</text>
<text text-anchor="middle" x="1369.5" y="-328.5" font-family="Helvetica,sans-Serif" font-size="10.00">::ConstantNode &gt;</text>
</a>
</g>
</g>
<!-- Node11&#45;&gt;Node22 -->
<g id="edge33_Node000022_Node000011" class="edge">
<title>Node11&#45;&gt;Node22</title>
<g id="a_edge33_Node000022_Node000011"><a xlink:title=" ">
<path fill="none" stroke="orange" stroke-dasharray="5,2" d="M570.74,-359.81C579.15,-358.27 587.78,-356.91 596,-356 865.31,-326.2 1190.59,-334.71 1315.83,-339.63"/>
<polygon fill="orange" stroke="orange" points="570.1,-356.37 560.95,-361.73 571.44,-363.24 570.1,-356.37"/>
</a>
</g>
<text text-anchor="start" x="886" y="-350" font-family="Helvetica,sans-Serif" font-size="10.00" fill="grey"> &lt; Harlinn::AI::DML</text>
<text text-anchor="middle" x="949" y="-339" font-family="Helvetica,sans-Serif" font-size="10.00" fill="grey">::X::Internal::ConstantNode &gt;</text>
</g>
<!-- Node12 -->
<g id="Node000012" class="node">
<title>Node12</title>
<g id="a_Node000012"><a xlink:title=" ">
<polygon fill="white" stroke="#666666" points="315.5,-233.5 286.5,-233.5 286.5,-214.5 315.5,-214.5 315.5,-233.5"/>
<text text-anchor="middle" x="301" y="-221.5" font-family="Helvetica,sans-Serif" font-size="10.00">T</text>
</a>
</g>
</g>
<!-- Node12&#45;&gt;Node11 -->
<g id="edge11_Node000011_Node000012" class="edge">
<title>Node12&#45;&gt;Node11</title>
<g id="a_edge11_Node000011_Node000012"><a xlink:title=" ">
<path fill="none" stroke="#9a32cd" stroke-dasharray="5,2" d="M325.07,-239.96C369.37,-270.59 465.16,-336.84 501.56,-362.02"/>
<polygon fill="#9a32cd" stroke="#9a32cd" points="327.17,-237.15 316.96,-234.34 323.19,-242.91 327.17,-237.15"/>
</a>
</g>
<text text-anchor="middle" x="409" y="-318" font-family="Helvetica,sans-Serif" font-size="10.00" fill="grey"> elements</text>
</g>
<!-- Node25 -->
<g id="Node000025" class="node">
<title>Node25</title>
<g id="a_Node000025"><a xlink:title=" ">
<polygon fill="white" stroke="#666666" points="557,-251.5 477,-251.5 477,-232.5 557,-232.5 557,-251.5"/>
<text text-anchor="middle" x="517" y="-239.5" font-family="Helvetica,sans-Serif" font-size="10.00">std::span&lt; T &gt;</text>
</a>
</g>
</g>
<!-- Node12&#45;&gt;Node25 -->
<g id="edge31_Node000025_Node000012" class="edge">
<title>Node12&#45;&gt;Node25</title>
<g id="a_edge31_Node000025_Node000012"><a xlink:title=" ">
<path fill="none" stroke="#9a32cd" stroke-dasharray="5,2" d="M326.85,-226.09C363.61,-229.18 432.82,-235 476.56,-238.68"/>
<polygon fill="#9a32cd" stroke="#9a32cd" points="327.48,-222.63 317.22,-225.28 326.89,-229.61 327.48,-222.63"/>
</a>
</g>
<text text-anchor="middle" x="409" y="-238" font-family="Helvetica,sans-Serif" font-size="10.00" fill="grey"> elements</text>
</g>
<!-- Node27 -->
<g id="Node000027" class="node">
<title>Node27</title>
<g id="a_Node000027"><a xlink:title=" ">
<polygon fill="white" stroke="#666666" points="560,-159.5 474,-159.5 474,-140.5 560,-140.5 560,-159.5"/>
<text text-anchor="middle" x="517" y="-147.5" font-family="Helvetica,sans-Serif" font-size="10.00">std::deque&lt; T &gt;</text>
</a>
</g>
</g>
<!-- Node12&#45;&gt;Node27 -->
<g id="edge37_Node000027_Node000012" class="edge">
<title>Node12&#45;&gt;Node27</title>
<g id="a_edge37_Node000027_Node000012"><a xlink:title=" ">
<path fill="none" stroke="#9a32cd" stroke-dasharray="5,2" d="M326.41,-214.66C341.75,-208.86 361.97,-201.33 380,-195 415.78,-182.43 457.2,-168.87 484.83,-159.96"/>
<polygon fill="#9a32cd" stroke="#9a32cd" points="325.27,-211.35 317.17,-218.18 327.76,-217.9 325.27,-211.35"/>
</a>
</g>
<text text-anchor="middle" x="409" y="-198" font-family="Helvetica,sans-Serif" font-size="10.00" fill="grey"> elements</text>
</g>
<!-- Node29 -->
<g id="Node000029" class="node">
<title>Node29</title>
<g id="a_Node000029"><a xlink:title=" ">
<polygon fill="white" stroke="#666666" points="558.5,-213.5 475.5,-213.5 475.5,-194.5 558.5,-194.5 558.5,-213.5"/>
<text text-anchor="middle" x="517" y="-201.5" font-family="Helvetica,sans-Serif" font-size="10.00">std::stack&lt; T &gt;</text>
</a>
</g>
</g>
<!-- Node12&#45;&gt;Node29 -->
<g id="edge41_Node000029_Node000012" class="edge">
<title>Node12&#45;&gt;Node29</title>
<g id="a_edge41_Node000029_Node000012"><a xlink:title=" ">
<path fill="none" stroke="#9a32cd" stroke-dasharray="5,2" d="M326.92,-220.9C342.22,-219.06 362.23,-216.74 380,-215 411.94,-211.87 448.17,-208.97 475.2,-206.93"/>
<polygon fill="#9a32cd" stroke="#9a32cd" points="326.8,-217.39 317.3,-222.08 327.65,-224.34 326.8,-217.39"/>
</a>
</g>
<text text-anchor="middle" x="409" y="-218" font-family="Helvetica,sans-Serif" font-size="10.00" fill="grey"> elements</text>
</g>
<!-- Node13&#45;&gt;Node3 -->
<g id="edge12_Node000003_Node000013" class="edge">
<title>Node13&#45;&gt;Node3</title>
<g id="a_edge12_Node000003_Node000013"><a xlink:title=" ">
<path fill="none" stroke="#9a32cd" stroke-dasharray="5,2" d="M1434.3,-392.59C1467.73,-388.18 1508.33,-382.82 1540.74,-378.55"/>
<polygon fill="#9a32cd" stroke="#9a32cd" points="1434.22,-389.07 1424.77,-393.84 1435.14,-396.01 1434.22,-389.07"/>
</a>
</g>
<text text-anchor="middle" x="1482" y="-394" font-family="Helvetica,sans-Serif" font-size="10.00" fill="grey"> m_operatorNodes</text>
</g>
<!-- Node14 -->
<g id="Node000014" class="node">
<title>Node14</title>
<g id="a_Node000014"><a xlink:href="struct_harlinn_1_1_a_i_1_1_d_m_l_1_1_x_1_1_internal_1_1_operator_node.html" target="_top" xlink:title=" ">
<polygon fill="white" stroke="#666666" points="1151,-479 1031,-479 1031,-449 1151,-449 1151,-479"/>
<text text-anchor="start" x="1039" y="-467" font-family="Helvetica,sans-Serif" font-size="10.00">Harlinn::AI::DML::X</text>
<text text-anchor="middle" x="1091" y="-456" font-family="Helvetica,sans-Serif" font-size="10.00">::Internal::OperatorNode</text>
</a>
</g>
</g>
<!-- Node14&#45;&gt;Node13 -->
<g id="edge13_Node000013_Node000014" class="edge">
<title>Node14&#45;&gt;Node13</title>
<g id="a_edge13_Node000013_Node000014"><a xlink:title=" ">
<path fill="none" stroke="#9a32cd" stroke-dasharray="5,2" d="M1162.51,-447.93C1210.26,-437.05 1272.34,-422.91 1315.82,-413"/>
<polygon fill="#9a32cd" stroke="#9a32cd" points="1161.76,-444.51 1152.79,-450.15 1163.32,-451.34 1161.76,-444.51"/>
</a>
</g>
<text text-anchor="middle" x="1234" y="-448" font-family="Helvetica,sans-Serif" font-size="10.00" fill="grey"> elements</text>
</g>
<!-- Node15 -->
<g id="Node000015" class="node">
<title>Node15</title>
<g id="a_Node000015"><a xlink:href="class_harlinn_1_1_a_i_1_1_d_m_l_1_1_operator.html" target="_top" xlink:title=" ">
<polygon fill="white" stroke="#666666" points="868,-575.5 737,-575.5 737,-556.5 868,-556.5 868,-575.5"/>
<text text-anchor="middle" x="802.5" y="-563.5" font-family="Helvetica,sans-Serif" font-size="10.00">Harlinn::AI::DML::Operator</text>
</a>
</g>
</g>
<!-- Node15&#45;&gt;Node14 -->
<g id="edge14_Node000014_Node000015" class="edge">
<title>Node15&#45;&gt;Node14</title>
<g id="a_edge14_Node000014_Node000015"><a xlink:title=" ">
<path fill="none" stroke="#9a32cd" stroke-dasharray="5,2" d="M873.68,-553.86C914.99,-545.32 967.66,-532 1012,-513 1032.73,-504.12 1054.28,-490.15 1069.47,-479.4"/>
<polygon fill="#9a32cd" stroke="#9a32cd" points="873.22,-550.38 864.1,-555.78 874.6,-557.24 873.22,-550.38"/>
</a>
</g>
<text text-anchor="middle" x="949" y="-553" font-family="Helvetica,sans-Serif" font-size="10.00" fill="grey"> op</text>
</g>
<!-- Node16&#45;&gt;Node15 -->
<g id="edge15_Node000015_Node000016" class="edge">
<title>Node16&#45;&gt;Node15</title>
<g id="a_edge15_Node000015_Node000016"><a xlink:title=" ">
<path fill="none" stroke="#63b8ff" d="M589.96,-566.75C635.15,-566.59 692.93,-566.38 736.68,-566.23"/>
<polygon fill="#63b8ff" stroke="#63b8ff" points="589.97,-563.25 579.98,-566.78 590,-570.25 589.97,-563.25"/>
</a>
</g>
</g>
<!-- Node17&#45;&gt;Node14 -->
<g id="edge17_Node000014_Node000017" class="edge">
<title>Node17&#45;&gt;Node14</title>
<g id="a_edge17_Node000014_Node000017"><a xlink:title=" ">
<path fill="none" stroke="#9a32cd" stroke-dasharray="5,2" d="M867.4,-436.71C908.85,-433.95 963.9,-432.77 1012,-440 1023.91,-441.79 1036.51,-445.04 1048.03,-448.58"/>
<polygon fill="#9a32cd" stroke="#9a32cd" points="867.32,-433.21 857.6,-437.42 867.82,-440.19 867.32,-433.21"/>
</a>
</g>
<text text-anchor="middle" x="949" y="-443" font-family="Helvetica,sans-Serif" font-size="10.00" fill="grey"> inputs</text>
</g>
<!-- Node18 -->
<g id="Node000018" class="node">
<title>Node18</title>
<g id="a_Node000018"><a xlink:title=" ">
<polygon fill="white" stroke="#666666" points="832.5,-511.5 772.5,-511.5 772.5,-492.5 832.5,-492.5 832.5,-511.5"/>
<text text-anchor="middle" x="802.5" y="-499.5" font-family="Helvetica,sans-Serif" font-size="10.00">std::string</text>
</a>
</g>
</g>
<!-- Node18&#45;&gt;Node3 -->
<g id="edge38_Node000003_Node000018" class="edge">
<title>Node18&#45;&gt;Node3</title>
<g id="a_edge38_Node000003_Node000018"><a xlink:title=" ">
<path fill="none" stroke="#9a32cd" stroke-dasharray="5,2" d="M844.04,-508.49C857.37,-510.34 872.28,-512.09 886,-513 941.88,-516.71 956.22,-517.94 1012,-513 1197.54,-496.56 1241.92,-474.64 1423,-431 1467.54,-420.27 1479.82,-421.31 1523,-406 1538.3,-400.57 1554.71,-393.12 1568.26,-386.48"/>
<polygon fill="#9a32cd" stroke="#9a32cd" points="844.7,-505.05 834.3,-507.09 843.7,-511.98 844.7,-505.05"/>
</a>
</g>
<text text-anchor="middle" x="1234" y="-495" font-family="Helvetica,sans-Serif" font-size="10.00" fill="grey"> m_name</text>
</g>
<!-- Node18&#45;&gt;Node14 -->
<g id="edge20_Node000014_Node000018" class="edge">
<title>Node18&#45;&gt;Node14</title>
<g id="a_edge20_Node000014_Node000018"><a xlink:title=" ">
<path fill="none" stroke="#9a32cd" stroke-dasharray="5,2" d="M844.18,-500.87C886.41,-499.18 954.23,-495.05 1012,-485 1020.43,-483.53 1029.27,-481.57 1037.85,-479.44"/>
<polygon fill="#9a32cd" stroke="#9a32cd" points="844.1,-497.37 834.23,-501.23 844.35,-504.36 844.1,-497.37"/>
</a>
</g>
<text text-anchor="middle" x="949" y="-501" font-family="Helvetica,sans-Serif" font-size="10.00" fill="grey"> name</text>
</g>
<!-- Node23 -->
<g id="Node000023" class="node">
<title>Node23</title>
<g id="a_Node000023"><a xlink:href="struct_harlinn_1_1_a_i_1_1_d_m_l_1_1_x_1_1_internal_1_1_constant_node.html" target="_top" xlink:title=" ">
<polygon fill="white" stroke="#666666" points="1152,-321 1030,-321 1030,-291 1152,-291 1152,-321"/>
<text text-anchor="start" x="1038" y="-309" font-family="Helvetica,sans-Serif" font-size="10.00">Harlinn::AI::DML::X</text>
<text text-anchor="middle" x="1091" y="-298" font-family="Helvetica,sans-Serif" font-size="10.00">::Internal::ConstantNode</text>
</a>
</g>
</g>
<!-- Node18&#45;&gt;Node23 -->
<g id="edge32_Node000023_Node000018" class="edge">
<title>Node18&#45;&gt;Node23</title>
<g id="a_edge32_Node000023_Node000018"><a xlink:title=" ">
<path fill="none" stroke="#9a32cd" stroke-dasharray="5,2" d="M837.91,-487.89C852.54,-482.31 869.91,-476.23 886,-472 940.91,-457.57 965.83,-484.04 1012,-451 1057.33,-418.56 1078.86,-351.41 1086.55,-321.25"/>
<polygon fill="#9a32cd" stroke="#9a32cd" points="836.77,-484.57 828.73,-491.47 839.31,-491.09 836.77,-484.57"/>
</a>
</g>
<text text-anchor="middle" x="949" y="-475" font-family="Helvetica,sans-Serif" font-size="10.00" fill="grey"> name</text>
</g>
<!-- Node19 -->
<g id="Node000019" class="node">
<title>Node19</title>
<g id="a_Node000019"><a xlink:title=" ">
<polygon fill="white" stroke="#666666" points="564.5,-512 469.5,-512 469.5,-482 564.5,-482 564.5,-512"/>
<text text-anchor="start" x="477.5" y="-500" font-family="Helvetica,sans-Serif" font-size="10.00">std::basic_string&lt;</text>
<text text-anchor="middle" x="517" y="-489" font-family="Helvetica,sans-Serif" font-size="10.00"> Char &gt;</text>
</a>
</g>
</g>
<!-- Node19&#45;&gt;Node18 -->
<g id="edge21_Node000018_Node000019" class="edge">
<title>Node19&#45;&gt;Node18</title>
<g id="a_edge21_Node000018_Node000019"><a xlink:title=" ">
<path fill="none" stroke="#63b8ff" d="M576.29,-498.03C635.84,-499.08 725.89,-500.67 772,-501.48"/>
<polygon fill="#63b8ff" stroke="#63b8ff" points="576.39,-494.53 566.33,-497.85 576.26,-501.53 576.39,-494.53"/>
</a>
</g>
</g>
<!-- Node20&#45;&gt;Node3 -->
<g id="edge23_Node000003_Node000020" class="edge">
<title>Node20&#45;&gt;Node3</title>
<g id="a_edge23_Node000003_Node000020"><a xlink:title=" ">
<path fill="none" stroke="#9a32cd" stroke-dasharray="5,2" d="M1156.18,-257.37C1223.52,-264 1332.01,-277.53 1423,-302 1474.25,-315.78 1530.95,-339.87 1565.53,-355.63"/>
<polygon fill="#9a32cd" stroke="#9a32cd" points="1156.72,-253.9 1146.43,-256.43 1156.05,-260.87 1156.72,-253.9"/>
</a>
</g>
<text text-anchor="middle" x="1369.5" y="-305" font-family="Helvetica,sans-Serif" font-size="10.00" fill="grey"> m_reinterpretNodes</text>
</g>
<!-- Node21&#45;&gt;Node20 -->
<g id="edge24_Node000020_Node000021" class="edge">
<title>Node21&#45;&gt;Node20</title>
<g id="a_edge24_Node000020_Node000021"><a xlink:title=" ">
<path fill="none" stroke="#9a32cd" stroke-dasharray="5,2" d="M879.16,-153.62C920.16,-152.62 970.72,-156.42 1012,-175 1038.89,-187.11 1061.82,-212.78 1075.72,-231.15"/>
<polygon fill="#9a32cd" stroke="#9a32cd" points="879.25,-150.11 869.37,-153.96 879.49,-157.11 879.25,-150.11"/>
</a>
</g>
<text text-anchor="middle" x="949" y="-178" font-family="Helvetica,sans-Serif" font-size="10.00" fill="grey"> elements</text>
</g>
<!-- Node22&#45;&gt;Node3 -->
<g id="edge27_Node000003_Node000022" class="edge">
<title>Node22&#45;&gt;Node3</title>
<g id="a_edge27_Node000003_Node000022"><a xlink:title=" ">
<path fill="none" stroke="#9a32cd" stroke-dasharray="5,2" d="M1434.63,-346.37C1461.94,-348.62 1494.11,-351.8 1523,-356 1528.78,-356.84 1534.79,-357.84 1540.78,-358.91"/>
<polygon fill="#9a32cd" stroke="#9a32cd" points="1435,-342.89 1424.75,-345.58 1434.44,-349.87 1435,-342.89"/>
</a>
</g>
<text text-anchor="middle" x="1482" y="-359" font-family="Helvetica,sans-Serif" font-size="10.00" fill="grey"> m_constantNodes</text>
</g>
<!-- Node23&#45;&gt;Node22 -->
<g id="edge28_Node000022_Node000023" class="edge">
<title>Node23&#45;&gt;Node22</title>
<g id="a_edge28_Node000022_Node000023"><a xlink:title=" ">
<path fill="none" stroke="#9a32cd" stroke-dasharray="5,2" d="M1163.73,-309.39C1203.49,-311.99 1253.71,-316.46 1298,-324 1303.73,-324.97 1309.67,-326.18 1315.58,-327.5"/>
<polygon fill="#9a32cd" stroke="#9a32cd" points="1163.98,-305.9 1153.78,-308.77 1163.55,-312.89 1163.98,-305.9"/>
</a>
</g>
<text text-anchor="middle" x="1234" y="-327" font-family="Helvetica,sans-Serif" font-size="10.00" fill="grey"> elements</text>
</g>
<!-- Node24 -->
<g id="Node000024" class="node">
<title>Node24</title>
<g id="a_Node000024"><a xlink:title=" ">
<polygon fill="white" stroke="#666666" points="863.5,-251.5 741.5,-251.5 741.5,-232.5 863.5,-232.5 863.5,-251.5"/>
<text text-anchor="middle" x="802.5" y="-239.5" font-family="Helvetica,sans-Serif" font-size="10.00">std::span&lt; const Byte &gt;</text>
</a>
</g>
</g>
<!-- Node24&#45;&gt;Node23 -->
<g id="edge29_Node000023_Node000024" class="edge">
<title>Node24&#45;&gt;Node23</title>
<g id="a_edge29_Node000023_Node000024"><a xlink:title=" ">
<path fill="none" stroke="#9a32cd" stroke-dasharray="5,2" d="M859.29,-254.46C908.25,-265.4 979.3,-281.27 1029.59,-292.51"/>
<polygon fill="#9a32cd" stroke="#9a32cd" points="860.27,-251.09 849.74,-252.33 858.74,-257.93 860.27,-251.09"/>
</a>
</g>
<text text-anchor="middle" x="949" y="-290" font-family="Helvetica,sans-Serif" font-size="10.00" fill="grey"> data</text>
</g>
<!-- Node25&#45;&gt;Node24 -->
<g id="edge30_Node000024_Node000025" class="edge">
<title>Node25&#45;&gt;Node24</title>
<g id="a_edge30_Node000024_Node000025"><a xlink:title=" ">
<path fill="none" stroke="orange" stroke-dasharray="5,2" d="M568.85,-242C617.18,-242 689.88,-242 741.13,-242"/>
<polygon fill="orange" stroke="orange" points="568.93,-238.5 558.93,-242 568.93,-245.5 568.93,-238.5"/>
</a>
</g>
<text text-anchor="middle" x="657.5" y="-245" font-family="Helvetica,sans-Serif" font-size="10.00" fill="grey"> &lt; const Byte &gt;</text>
</g>
<!-- Node26&#45;&gt;Node3 -->
<g id="edge34_Node000003_Node000026" class="edge">
<title>Node26&#45;&gt;Node3</title>
<g id="a_edge34_Node000003_Node000026"><a xlink:title=" ">
<path fill="none" stroke="#9a32cd" stroke-dasharray="5,2" d="M867.54,-117.89C980.8,-137.83 1223.32,-183.57 1423,-242 1467.92,-255.14 1484.72,-248.07 1523,-275 1553.79,-296.66 1578.02,-334.61 1589.93,-355.73"/>
<polygon fill="#9a32cd" stroke="#9a32cd" points="868.28,-114.47 857.83,-116.19 867.08,-121.36 868.28,-114.47"/>
</a>
</g>
<text text-anchor="middle" x="1234" y="-210" font-family="Helvetica,sans-Serif" font-size="10.00" fill="grey"> m_nodeOutputs</text>
</g>
<!-- Node27&#45;&gt;Node26 -->
<g id="edge36_Node000026_Node000027" class="edge">
<title>Node27&#45;&gt;Node26</title>
<g id="a_edge36_Node000026_Node000027"><a xlink:title=" ">
<path fill="none" stroke="orange" stroke-dasharray="5,2" d="M556.03,-136.58C568.61,-132.6 582.78,-128.62 596,-126 647.32,-115.85 706.94,-111.09 748.7,-108.89"/>
<polygon fill="orange" stroke="orange" points="555.3,-133.13 546.88,-139.57 557.47,-139.79 555.3,-133.13"/>
</a>
</g>
<text text-anchor="start" x="599.5" y="-140" font-family="Helvetica,sans-Serif" font-size="10.00" fill="grey"> &lt; Harlinn::AI::DML</text>
<text text-anchor="middle" x="657.5" y="-129" font-family="Helvetica,sans-Serif" font-size="10.00" fill="grey">::X::Internal::NodeOutput &gt;</text>
</g>
<!-- Node28 -->
<g id="Node000028" class="node">
<title>Node28</title>
<g id="a_Node000028"><a xlink:title=" ">
<polygon fill="white" stroke="#666666" points="1001,-213.5 897,-213.5 897,-194.5 1001,-194.5 1001,-213.5"/>
<text text-anchor="middle" x="949" y="-201.5" font-family="Helvetica,sans-Serif" font-size="10.00">std::stack&lt; size_t &gt;</text>
</a>
</g>
</g>
<!-- Node28&#45;&gt;Node3 -->
<g id="edge39_Node000003_Node000028" class="edge">
<title>Node28&#45;&gt;Node3</title>
<g id="a_edge39_Node000003_Node000028"><a xlink:title=" ">
<path fill="none" stroke="#9a32cd" stroke-dasharray="5,2" d="M1012.55,-209.2C1052.49,-212.68 1105.34,-217.61 1152,-223 1217.06,-230.51 1233.73,-230.41 1298,-243 1354.28,-254.02 1367.61,-260.16 1423,-275 1467.58,-286.95 1482.6,-280.68 1523,-303 1547.77,-316.68 1571.05,-340.05 1584.91,-355.51"/>
<polygon fill="#9a32cd" stroke="#9a32cd" points="1012.89,-205.71 1002.63,-208.34 1012.29,-212.69 1012.89,-205.71"/>
</a>
</g>
<text text-anchor="middle" x="1234" y="-246" font-family="Helvetica,sans-Serif" font-size="10.00" fill="grey"> m_nameSubLengths</text>
</g>
<!-- Node29&#45;&gt;Node28 -->
<g id="edge40_Node000028_Node000029" class="edge">
<title>Node29&#45;&gt;Node28</title>
<g id="a_edge40_Node000028_Node000029"><a xlink:title=" ">
<path fill="none" stroke="orange" stroke-dasharray="5,2" d="M570.26,-204C653.22,-204 814.1,-204 896.55,-204"/>
<polygon fill="orange" stroke="orange" points="570.35,-200.5 560.35,-204 570.35,-207.5 570.35,-200.5"/>
</a>
</g>
<text text-anchor="middle" x="657.5" y="-207" font-family="Helvetica,sans-Serif" font-size="10.00" fill="grey"> &lt; size_t &gt;</text>
</g>
<!-- Node30 -->
<g id="Node000030" class="node">
<title>Node30</title>
<g id="a_Node000030"><a xlink:href="struct_harlinn_1_1_a_i_1_1_d_m_l_1_1_x_1_1_internal_1_1_node_i_d.html" target="_top" xlink:title=" ">
<polygon fill="white" stroke="#666666" points="350.5,-152 251.5,-152 251.5,-122 350.5,-122 350.5,-152"/>
<text text-anchor="start" x="259.5" y="-140" font-family="Helvetica,sans-Serif" font-size="10.00">Harlinn::AI::DML::X</text>
<text text-anchor="middle" x="301" y="-129" font-family="Helvetica,sans-Serif" font-size="10.00">::Internal::NodeID</text>
</a>
</g>
</g>
<!-- Node30&#45;&gt;Node2 -->
<g id="edge42_Node000002_Node000030" class="edge">
<title>Node30&#45;&gt;Node2</title>
<g id="a_edge42_Node000002_Node000030"><a xlink:title=" ">
<path fill="none" stroke="#9a32cd" stroke-dasharray="5,2" d="M361.9,-124.12C392.84,-117.47 430.33,-109.41 460.59,-102.91"/>
<polygon fill="#9a32cd" stroke="#9a32cd" points="361.35,-120.66 352.31,-126.19 362.82,-127.51 361.35,-120.66"/>
</a>
</g>
<text text-anchor="middle" x="409" y="-123" font-family="Helvetica,sans-Serif" font-size="10.00" fill="grey"> node_</text>
</g>
<!-- Node31 -->
<g id="Node000031" class="node">
<title>Node31</title>
<g id="a_Node000031"><a xlink:href="struct_harlinn_1_1_a_i_1_1_d_m_l_1_1_x_1_1_tensor_desc.html" target="_top" xlink:title=" ">
<polygon fill="white" stroke="#666666" points="350.5,-104 251.5,-104 251.5,-74 350.5,-74 350.5,-104"/>
<text text-anchor="start" x="259.5" y="-92" font-family="Helvetica,sans-Serif" font-size="10.00">Harlinn::AI::DML::X</text>
<text text-anchor="middle" x="301" y="-81" font-family="Helvetica,sans-Serif" font-size="10.00">::TensorDesc</text>
</a>
</g>
</g>
<!-- Node31&#45;&gt;Node2 -->
<g id="edge43_Node000002_Node000031" class="edge">
<title>Node31&#45;&gt;Node2</title>
<g id="a_edge43_Node000002_Node000031"><a xlink:title=" ">
<path fill="none" stroke="#9a32cd" stroke-dasharray="5,2" d="M362.31,-89.56C393.17,-89.85 430.46,-90.2 460.59,-90.48"/>
<polygon fill="#9a32cd" stroke="#9a32cd" points="362.37,-86.06 352.34,-89.47 362.31,-93.06 362.37,-86.06"/>
</a>
</g>
<text text-anchor="middle" x="409" y="-94" font-family="Helvetica,sans-Serif" font-size="10.00" fill="grey"> tensorDesc_</text>
</g>
<!-- Node32 -->
<g id="Node000032" class="node">
<title>Node32</title>
<g id="a_Node000032"><a xlink:href="struct_harlinn_1_1_a_i_1_1_d_m_l_1_1_buffer_tensor_desc.html" target="_top" xlink:title=" ">
<polygon fill="white" stroke="#666666" points="132.5,-83 13.5,-83 13.5,-53 132.5,-53 132.5,-83"/>
<text text-anchor="start" x="21.5" y="-71" font-family="Helvetica,sans-Serif" font-size="10.00">Harlinn::AI::DML::Buffer</text>
<text text-anchor="middle" x="73" y="-60" font-family="Helvetica,sans-Serif" font-size="10.00">TensorDesc</text>
</a>
</g>
</g>
<!-- Node32&#45;&gt;Node31 -->
<g id="edge44_Node000031_Node000032" class="edge">
<title>Node32&#45;&gt;Node31</title>
<g id="a_edge44_Node000031_Node000032"><a xlink:title=" ">
<path fill="none" stroke="#9a32cd" stroke-dasharray="5,2" d="M144.22,-71.7C168.85,-73.27 196.68,-75.36 222,-78 231.52,-78.99 241.67,-80.26 251.39,-81.59"/>
<polygon fill="#9a32cd" stroke="#9a32cd" points="144.49,-68.21 134.29,-71.08 144.06,-75.19 144.49,-68.21"/>
</a>
</g>
<text text-anchor="middle" x="193" y="-81" font-family="Helvetica,sans-Serif" font-size="10.00" fill="grey"> bufferDesc_</text>
</g>
<!-- Node33 -->
<g id="Node000033" class="node">
<title>Node33</title>
<g id="a_Node000033"><a xlink:href="struct_harlinn_1_1_a_i_1_1_d_m_l_1_1_tensor_desc.html" target="_top" xlink:title=" ">
<polygon fill="white" stroke="#666666" points="146,-120.5 0,-120.5 0,-101.5 146,-101.5 146,-120.5"/>
<text text-anchor="middle" x="73" y="-108.5" font-family="Helvetica,sans-Serif" font-size="10.00">Harlinn::AI::DML::TensorDesc</text>
</a>
</g>
</g>
<!-- Node33&#45;&gt;Node31 -->
<g id="edge45_Node000031_Node000033" class="edge">
<title>Node33&#45;&gt;Node31</title>
<g id="a_edge45_Node000031_Node000033"><a xlink:title=" ">
<path fill="none" stroke="#9a32cd" stroke-dasharray="5,2" d="M157.85,-102.84C189.28,-99.78 223.93,-96.4 251.16,-93.75"/>
<polygon fill="#9a32cd" stroke="#9a32cd" points="157.56,-99.35 147.95,-103.8 158.24,-106.32 157.56,-99.35"/>
</a>
</g>
<text text-anchor="middle" x="193" y="-105" font-family="Helvetica,sans-Serif" font-size="10.00" fill="grey"> tensorDesc_</text>
</g>
</g>
</svg>
