<?xml version="1.0" encoding="UTF-8" standalone="no"?>
<!DOCTYPE svg PUBLIC "-//W3C//DTD SVG 1.1//EN"
 "http://www.w3.org/Graphics/SVG/1.1/DTD/svg11.dtd">
<!-- Generated by graphviz version 7.0.1 (20221109.1506)
 -->
<!-- Title: Harlinn::OCI::ArrayBind Pages: 1 -->
<svg width="1617pt" height="289pt"
 viewBox="0.00 0.00 1617.00 288.50" xmlns="http://www.w3.org/2000/svg" xmlns:xlink="http://www.w3.org/1999/xlink">
<g id="graph0" class="graph" transform="scale(1 1) rotate(0) translate(4 284.5)">
<title>Harlinn::OCI::ArrayBind</title>
<!-- Node1 -->
<g id="Node000001" class="node">
<title>Node1</title>
<g id="a_Node000001"><a xlink:title="ArrayBind, base class for binding an array of values.">
<polygon fill="#999999" stroke="#666666" points="437,-140.5 319,-140.5 319,-121.5 437,-121.5 437,-140.5"/>
<text text-anchor="middle" x="378" y="-128.5" font-family="Helvetica,sans-Serif" font-size="10.00">Harlinn::OCI::ArrayBind</text>
</a>
</g>
</g>
<!-- Node4 -->
<g id="Node000004" class="node">
<title>Node4</title>
<g id="a_Node000004"><a xlink:href="class_harlinn_1_1_o_c_i_1_1_fixed_binary_array_bind.xhtml" target="_top" xlink:title=" ">
<polygon fill="white" stroke="#666666" points="874,-92 747,-92 747,-62 874,-62 874,-92"/>
<text text-anchor="start" x="755" y="-80" font-family="Helvetica,sans-Serif" font-size="10.00">Harlinn::OCI::FixedBinary</text>
<text text-anchor="middle" x="810.5" y="-69" font-family="Helvetica,sans-Serif" font-size="10.00">ArrayBind&lt; sizeof(Guid)&gt;</text>
</a>
</g>
</g>
<!-- Node1&#45;&gt;Node4 -->
<g id="edge3_Node000001_Node000004" class="edge">
<title>Node1&#45;&gt;Node4</title>
<g id="a_edge3_Node000001_Node000004"><a xlink:title=" ">
<path fill="none" stroke="#63b8ff" d="M400.47,-114.46C418.85,-101.41 446.61,-84.24 474,-77 566.49,-52.55 678.41,-59.47 746.75,-67.58"/>
<polygon fill="#63b8ff" stroke="#63b8ff" points="398.5,-111.57 392.5,-120.3 402.64,-117.21 398.5,-111.57"/>
</a>
</g>
</g>
<!-- Node6 -->
<g id="Node000006" class="node">
<title>Node6</title>
<g id="a_Node000006"><a xlink:href="class_harlinn_1_1_o_c_i_1_1_c_string_array_bind.xhtml" target="_top" xlink:title="CStringArrayBind.">
<polygon fill="white" stroke="#666666" points="624,-190.5 474,-190.5 474,-171.5 624,-171.5 624,-190.5"/>
<text text-anchor="middle" x="549" y="-178.5" font-family="Helvetica,sans-Serif" font-size="10.00">Harlinn::OCI::CStringArrayBind</text>
</a>
</g>
</g>
<!-- Node1&#45;&gt;Node6 -->
<g id="edge5_Node000001_Node000006" class="edge">
<title>Node1&#45;&gt;Node6</title>
<g id="a_edge5_Node000001_Node000006"><a xlink:title=" ">
<path fill="none" stroke="#63b8ff" d="M418.61,-144.55C435.59,-150.2 455.69,-156.67 474,-162 484.7,-165.12 496.34,-168.23 507.16,-171.01"/>
<polygon fill="#63b8ff" stroke="#63b8ff" points="419.98,-141.32 409.39,-141.46 417.76,-147.96 419.98,-141.32"/>
</a>
</g>
</g>
<!-- Node7 -->
<g id="Node000007" class="node">
<title>Node7</title>
<g id="a_Node000007"><a xlink:href="class_harlinn_1_1_o_c_i_1_1_date_array_bind.xhtml" target="_top" xlink:title="DateArrayBind.">
<polygon fill="white" stroke="#666666" points="618,-153.5 480,-153.5 480,-134.5 618,-134.5 618,-153.5"/>
<text text-anchor="middle" x="549" y="-141.5" font-family="Helvetica,sans-Serif" font-size="10.00">Harlinn::OCI::DateArrayBind</text>
</a>
</g>
</g>
<!-- Node1&#45;&gt;Node7 -->
<g id="edge6_Node000001_Node000007" class="edge">
<title>Node1&#45;&gt;Node7</title>
<g id="a_edge6_Node000001_Node000007"><a xlink:title=" ">
<path fill="none" stroke="#63b8ff" d="M448.56,-136.35C458.79,-137.14 469.33,-137.95 479.54,-138.73"/>
<polygon fill="#63b8ff" stroke="#63b8ff" points="448.91,-132.87 438.67,-135.59 448.37,-139.85 448.91,-132.87"/>
</a>
</g>
</g>
<!-- Node8 -->
<g id="Node000008" class="node">
<title>Node8</title>
<g id="a_Node000008"><a xlink:href="class_harlinn_1_1_o_c_i_1_1_descriptor_array_base_bind.xhtml" target="_top" xlink:title="DescriptorArrayBaseBind.">
<polygon fill="white" stroke="#666666" points="608.5,-239 489.5,-239 489.5,-209 608.5,-209 608.5,-239"/>
<text text-anchor="start" x="497.5" y="-227" font-family="Helvetica,sans-Serif" font-size="10.00">Harlinn::OCI::Descriptor</text>
<text text-anchor="middle" x="549" y="-216" font-family="Helvetica,sans-Serif" font-size="10.00">ArrayBaseBind</text>
</a>
</g>
</g>
<!-- Node1&#45;&gt;Node8 -->
<g id="edge7_Node000001_Node000008" class="edge">
<title>Node1&#45;&gt;Node8</title>
<g id="a_edge7_Node000001_Node000008"><a xlink:title=" ">
<path fill="none" stroke="#63b8ff" d="M398.94,-147.96C417.42,-163 446.18,-184.74 474,-199 480.88,-202.52 488.36,-205.72 495.84,-208.56"/>
<polygon fill="#63b8ff" stroke="#63b8ff" points="401.37,-145.43 391.44,-141.74 396.9,-150.82 401.37,-145.43"/>
</a>
</g>
</g>
<!-- Node15 -->
<g id="Node000015" class="node">
<title>Node15</title>
<g id="a_Node000015"><a xlink:href="class_harlinn_1_1_o_c_i_1_1_fixed_binary_array_bind.xhtml" target="_top" xlink:title="FixedBinaryArrayBind.">
<polygon fill="white" stroke="#666666" points="612.5,-116 485.5,-116 485.5,-86 612.5,-86 612.5,-116"/>
<text text-anchor="start" x="493.5" y="-104" font-family="Helvetica,sans-Serif" font-size="10.00">Harlinn::OCI::FixedBinary</text>
<text text-anchor="middle" x="549" y="-93" font-family="Helvetica,sans-Serif" font-size="10.00">ArrayBind&lt; size_ &gt;</text>
</a>
</g>
</g>
<!-- Node1&#45;&gt;Node15 -->
<g id="edge16_Node000001_Node000015" class="edge">
<title>Node1&#45;&gt;Node15</title>
<g id="a_edge16_Node000001_Node000015"><a xlink:title=" ">
<path fill="none" stroke="#63b8ff" d="M446.38,-119.04C459.21,-116.76 472.59,-114.39 485.27,-112.14"/>
<polygon fill="#63b8ff" stroke="#63b8ff" points="446,-115.55 436.76,-120.75 447.22,-122.44 446,-115.55"/>
</a>
</g>
</g>
<!-- Node16 -->
<g id="Node000016" class="node">
<title>Node16</title>
<g id="a_Node000016"><a xlink:href="class_harlinn_1_1_o_c_i_1_1_simple_array_bind.xhtml" target="_top" xlink:title="SimpleArrayBind, template for binding an array of a basic data type.">
<polygon fill="white" stroke="#666666" points="619.5,-30 478.5,-30 478.5,0 619.5,0 619.5,-30"/>
<text text-anchor="start" x="486.5" y="-18" font-family="Helvetica,sans-Serif" font-size="10.00">Harlinn::OCI::SimpleArray</text>
<text text-anchor="middle" x="549" y="-7" font-family="Helvetica,sans-Serif" font-size="10.00">Bind&lt; BT, externalType, IT &gt;</text>
</a>
</g>
</g>
<!-- Node1&#45;&gt;Node16 -->
<g id="edge18_Node000001_Node000016" class="edge">
<title>Node1&#45;&gt;Node16</title>
<g id="a_edge18_Node000001_Node000016"><a xlink:title=" ">
<path fill="none" stroke="#63b8ff" d="M391.23,-111.56C404.6,-91.83 427.8,-61.73 455,-44 463.36,-38.55 472.81,-34.08 482.39,-30.41"/>
<polygon fill="#63b8ff" stroke="#63b8ff" points="388.39,-109.52 385.83,-119.8 394.24,-113.35 388.39,-109.52"/>
</a>
</g>
</g>
<!-- Node2 -->
<g id="Node000002" class="node">
<title>Node2</title>
<g id="a_Node000002"><a xlink:href="class_harlinn_1_1_o_c_i_1_1_bind_base.xhtml" target="_top" xlink:title="BindBase, base class for binds.">
<polygon fill="white" stroke="#666666" points="282,-140.5 165,-140.5 165,-121.5 282,-121.5 282,-140.5"/>
<text text-anchor="middle" x="223.5" y="-128.5" font-family="Helvetica,sans-Serif" font-size="10.00">Harlinn::OCI::BindBase</text>
</a>
</g>
</g>
<!-- Node2&#45;&gt;Node1 -->
<g id="edge1_Node000001_Node000002" class="edge">
<title>Node2&#45;&gt;Node1</title>
<g id="a_edge1_Node000001_Node000002"><a xlink:title=" ">
<path fill="none" stroke="#63b8ff" d="M293.45,-131C301.82,-131 310.31,-131 318.5,-131"/>
<polygon fill="#63b8ff" stroke="#63b8ff" points="293.67,-127.5 283.67,-131 293.67,-134.5 293.67,-127.5"/>
</a>
</g>
</g>
<!-- Node3 -->
<g id="Node000003" class="node">
<title>Node3</title>
<g id="a_Node000003"><a xlink:href="class_harlinn_1_1_o_c_i_1_1_handle_base.xhtml" target="_top" xlink:title="Base class for OCI handle wrappers.">
<polygon fill="white" stroke="#666666" points="128,-140.5 0,-140.5 0,-121.5 128,-121.5 128,-140.5"/>
<text text-anchor="middle" x="64" y="-128.5" font-family="Helvetica,sans-Serif" font-size="10.00">Harlinn::OCI::HandleBase</text>
</a>
</g>
</g>
<!-- Node3&#45;&gt;Node2 -->
<g id="edge2_Node000002_Node000003" class="edge">
<title>Node3&#45;&gt;Node2</title>
<g id="a_edge2_Node000002_Node000003"><a xlink:title=" ">
<path fill="none" stroke="#63b8ff" d="M139.58,-131C148.01,-131 156.51,-131 164.69,-131"/>
<polygon fill="#63b8ff" stroke="#63b8ff" points="139.67,-127.5 129.67,-131 139.67,-134.5 139.67,-127.5"/>
</a>
</g>
</g>
<!-- Node5 -->
<g id="Node000005" class="node">
<title>Node5</title>
<g id="a_Node000005"><a xlink:href="class_harlinn_1_1_o_c_i_1_1_guid_array_bind.xhtml" target="_top" xlink:title="GuidArrayBind.">
<polygon fill="white" stroke="#666666" points="1204.5,-86.5 1066.5,-86.5 1066.5,-67.5 1204.5,-67.5 1204.5,-86.5"/>
<text text-anchor="middle" x="1135.5" y="-74.5" font-family="Helvetica,sans-Serif" font-size="10.00">Harlinn::OCI::GuidArrayBind</text>
</a>
</g>
</g>
<!-- Node4&#45;&gt;Node5 -->
<g id="edge4_Node000004_Node000005" class="edge">
<title>Node4&#45;&gt;Node5</title>
<g id="a_edge4_Node000004_Node000005"><a xlink:title=" ">
<path fill="none" stroke="#63b8ff" d="M885.46,-77C939.82,-77 1013.15,-77 1066.15,-77"/>
<polygon fill="#63b8ff" stroke="#63b8ff" points="885.67,-73.5 875.67,-77 885.67,-80.5 885.67,-73.5"/>
</a>
</g>
</g>
<!-- Node9 -->
<g id="Node000009" class="node">
<title>Node9</title>
<g id="a_Node000009"><a xlink:href="class_harlinn_1_1_o_c_i_1_1_descriptor_array_bind.xhtml" target="_top" xlink:title=" ">
<polygon fill="white" stroke="#666666" points="1215,-209 1056,-209 1056,-157 1215,-157 1215,-209"/>
<text text-anchor="start" x="1064" y="-197" font-family="Helvetica,sans-Serif" font-size="10.00">Harlinn::OCI::Descriptor</text>
<text text-anchor="start" x="1064" y="-186" font-family="Helvetica,sans-Serif" font-size="10.00">ArrayBind&lt; OCILobLocator,</text>
<text text-anchor="start" x="1064" y="-175" font-family="Helvetica,sans-Serif" font-size="10.00"> OCI::HandleType::LOB, external</text>
<text text-anchor="middle" x="1135.5" y="-164" font-family="Helvetica,sans-Serif" font-size="10.00">Type &gt;</text>
</a>
</g>
</g>
<!-- Node8&#45;&gt;Node9 -->
<g id="edge8_Node000008_Node000009" class="edge">
<title>Node8&#45;&gt;Node9</title>
<g id="a_edge8_Node000008_Node000009"><a xlink:title=" ">
<path fill="none" stroke="#63b8ff" d="M619.95,-210.61C653.17,-204.69 693.52,-198.15 730,-194 842.55,-181.2 973.8,-180.16 1055.54,-181.14"/>
<polygon fill="#63b8ff" stroke="#63b8ff" points="619.67,-207.1 610.45,-212.32 620.92,-213.99 619.67,-207.1"/>
</a>
</g>
</g>
<!-- Node12 -->
<g id="Node000012" class="node">
<title>Node12</title>
<g id="a_Node000012"><a xlink:href="class_harlinn_1_1_o_c_i_1_1_descriptor_array_bind.xhtml" target="_top" xlink:title=" ">
<polygon fill="white" stroke="#666666" points="1205.5,-280.5 1065.5,-280.5 1065.5,-239.5 1205.5,-239.5 1205.5,-280.5"/>
<text text-anchor="start" x="1073.5" y="-268.5" font-family="Helvetica,sans-Serif" font-size="10.00">Harlinn::OCI::Descriptor</text>
<text text-anchor="start" x="1073.5" y="-257.5" font-family="Helvetica,sans-Serif" font-size="10.00">ArrayBind&lt; OCIDateTime,</text>
<text text-anchor="middle" x="1135.5" y="-246.5" font-family="Helvetica,sans-Serif" font-size="10.00"> handleType, externalType &gt;</text>
</a>
</g>
</g>
<!-- Node8&#45;&gt;Node12 -->
<g id="edge11_Node000008_Node000012" class="edge">
<title>Node8&#45;&gt;Node12</title>
<g id="a_edge11_Node000008_Node000012"><a xlink:title=" ">
<path fill="none" stroke="#63b8ff" d="M620,-238.42C714.66,-256.23 888.81,-283 1038,-273 1046.77,-272.41 1055.96,-271.53 1065.04,-270.49"/>
<polygon fill="#63b8ff" stroke="#63b8ff" points="620.83,-235.01 610.35,-236.58 619.52,-241.89 620.83,-235.01"/>
</a>
</g>
</g>
<!-- Node14 -->
<g id="Node000014" class="node">
<title>Node14</title>
<g id="a_Node000014"><a xlink:href="class_harlinn_1_1_o_c_i_1_1_descriptor_array_bind.xhtml" target="_top" xlink:title="DescriptorArrayBind.">
<polygon fill="white" stroke="#666666" points="891,-244.5 730,-244.5 730,-203.5 891,-203.5 891,-244.5"/>
<text text-anchor="start" x="738" y="-232.5" font-family="Helvetica,sans-Serif" font-size="10.00">Harlinn::OCI::Descriptor</text>
<text text-anchor="start" x="738" y="-221.5" font-family="Helvetica,sans-Serif" font-size="10.00">ArrayBind&lt; OracleT, handleType,</text>
<text text-anchor="middle" x="810.5" y="-210.5" font-family="Helvetica,sans-Serif" font-size="10.00"> externalType &gt;</text>
</a>
</g>
</g>
<!-- Node8&#45;&gt;Node14 -->
<g id="edge13_Node000008_Node000014" class="edge">
<title>Node8&#45;&gt;Node14</title>
<g id="a_edge13_Node000008_Node000014"><a xlink:title=" ">
<path fill="none" stroke="#63b8ff" d="M620.08,-224C653.91,-224 694.67,-224 729.7,-224"/>
<polygon fill="#63b8ff" stroke="#63b8ff" points="620.4,-220.5 610.4,-224 620.4,-227.5 620.4,-220.5"/>
</a>
</g>
</g>
<!-- Node10 -->
<g id="Node000010" class="node">
<title>Node10</title>
<g id="a_Node000010"><a xlink:href="class_harlinn_1_1_o_c_i_1_1_lob_base_array_bind.xhtml" target="_top" xlink:title="LobBaseArrayBind.">
<polygon fill="white" stroke="#666666" points="1399.5,-198 1262.5,-198 1262.5,-168 1399.5,-168 1399.5,-198"/>
<text text-anchor="start" x="1270.5" y="-186" font-family="Helvetica,sans-Serif" font-size="10.00">Harlinn::OCI::LobBaseArray</text>
<text text-anchor="middle" x="1331" y="-175" font-family="Helvetica,sans-Serif" font-size="10.00">Bind&lt; externalType &gt;</text>
</a>
</g>
</g>
<!-- Node9&#45;&gt;Node10 -->
<g id="edge9_Node000009_Node000010" class="edge">
<title>Node9&#45;&gt;Node10</title>
<g id="a_edge9_Node000009_Node000010"><a xlink:title=" ">
<path fill="none" stroke="#63b8ff" d="M1226.81,-183C1238.68,-183 1250.69,-183 1262.11,-183"/>
<polygon fill="#63b8ff" stroke="#63b8ff" points="1227,-179.5 1217,-183 1227,-186.5 1227,-179.5"/>
</a>
</g>
</g>
<!-- Node11 -->
<g id="Node000011" class="node">
<title>Node11</title>
<g id="a_Node000011"><a xlink:href="class_harlinn_1_1_o_c_i_1_1_c_lob_base_array_bind.xhtml" target="_top" xlink:title="CLobBaseBind.">
<polygon fill="white" stroke="#666666" points="1609,-203.5 1447,-203.5 1447,-162.5 1609,-162.5 1609,-203.5"/>
<text text-anchor="start" x="1455" y="-191.5" font-family="Helvetica,sans-Serif" font-size="10.00">Harlinn::OCI::CLobBaseArray</text>
<text text-anchor="start" x="1455" y="-180.5" font-family="Helvetica,sans-Serif" font-size="10.00">Bind&lt; externalType, characterSet</text>
<text text-anchor="middle" x="1528" y="-169.5" font-family="Helvetica,sans-Serif" font-size="10.00">FormDefault &gt;</text>
</a>
</g>
</g>
<!-- Node10&#45;&gt;Node11 -->
<g id="edge10_Node000010_Node000011" class="edge">
<title>Node10&#45;&gt;Node11</title>
<g id="a_edge10_Node000010_Node000011"><a xlink:title=" ">
<path fill="none" stroke="#63b8ff" d="M1411.39,-183C1423,-183 1434.96,-183 1446.59,-183"/>
<polygon fill="#63b8ff" stroke="#63b8ff" points="1411.44,-179.5 1401.44,-183 1411.44,-186.5 1411.44,-179.5"/>
</a>
</g>
</g>
<!-- Node13 -->
<g id="Node000013" class="node">
<title>Node13</title>
<g id="a_Node000013"><a xlink:href="class_harlinn_1_1_o_c_i_1_1_timestamp_base_array_bind.xhtml" target="_top" xlink:title=" ">
<polygon fill="white" stroke="#666666" points="1410,-280.5 1252,-280.5 1252,-239.5 1410,-239.5 1410,-280.5"/>
<text text-anchor="start" x="1260" y="-268.5" font-family="Helvetica,sans-Serif" font-size="10.00">Harlinn::OCI::TimestampBase</text>
<text text-anchor="start" x="1260" y="-257.5" font-family="Helvetica,sans-Serif" font-size="10.00">ArrayBind&lt; handleType, external</text>
<text text-anchor="middle" x="1331" y="-246.5" font-family="Helvetica,sans-Serif" font-size="10.00">Type &gt;</text>
</a>
</g>
</g>
<!-- Node12&#45;&gt;Node13 -->
<g id="edge12_Node000012_Node000013" class="edge">
<title>Node12&#45;&gt;Node13</title>
<g id="a_edge12_Node000012_Node000013"><a xlink:title=" ">
<path fill="none" stroke="#63b8ff" d="M1217.11,-260C1228.53,-260 1240.26,-260 1251.64,-260"/>
<polygon fill="#63b8ff" stroke="#63b8ff" points="1217.32,-256.5 1207.32,-260 1217.32,-263.5 1217.32,-256.5"/>
</a>
</g>
</g>
<!-- Node14&#45;&gt;Node9 -->
<g id="edge14_Node000014_Node000009" class="edge">
<title>Node14&#45;&gt;Node9</title>
<g id="a_edge14_Node000014_Node000009"><a xlink:title=" ">
<path fill="none" stroke="orange" stroke-dasharray="5,2" d="M898.84,-200.8C902.26,-200.15 905.66,-199.54 909,-199 957.33,-191.16 1012.1,-187.16 1055.57,-185.12"/>
<polygon fill="orange" stroke="orange" points="898.45,-197.31 889.35,-202.73 899.85,-204.17 898.45,-197.31"/>
</a>
</g>
<text text-anchor="start" x="911.5" y="-224" font-family="Helvetica,sans-Serif" font-size="10.00" fill="grey"> &lt; OCILobLocator, OCI</text>
<text text-anchor="start" x="911.5" y="-213" font-family="Helvetica,sans-Serif" font-size="10.00" fill="grey">::HandleType::LOB, external</text>
<text text-anchor="middle" x="973.5" y="-202" font-family="Helvetica,sans-Serif" font-size="10.00" fill="grey">Type &gt;</text>
</g>
<!-- Node14&#45;&gt;Node12 -->
<g id="edge15_Node000014_Node000012" class="edge">
<title>Node14&#45;&gt;Node12</title>
<g id="a_edge15_Node000014_Node000012"><a xlink:title=" ">
<path fill="none" stroke="orange" stroke-dasharray="5,2" d="M902.5,-234.14C954.09,-239.89 1017.63,-246.97 1065.16,-252.27"/>
<polygon fill="orange" stroke="orange" points="903.17,-230.7 892.85,-233.07 902.4,-237.65 903.17,-230.7"/>
</a>
</g>
<text text-anchor="start" x="909" y="-263" font-family="Helvetica,sans-Serif" font-size="10.00" fill="grey"> &lt; OCIDateTime, handleType,</text>
<text text-anchor="middle" x="973.5" y="-252" font-family="Helvetica,sans-Serif" font-size="10.00" fill="grey"> externalType &gt;</text>
</g>
<!-- Node15&#45;&gt;Node4 -->
<g id="edge17_Node000015_Node000004" class="edge">
<title>Node15&#45;&gt;Node4</title>
<g id="a_edge17_Node000015_Node000004"><a xlink:title=" ">
<path fill="none" stroke="orange" stroke-dasharray="5,2" d="M624.05,-94.15C662.84,-90.56 709.84,-86.22 746.81,-82.8"/>
<polygon fill="orange" stroke="orange" points="623.96,-90.64 614.32,-95.05 624.6,-97.61 623.96,-90.64"/>
</a>
</g>
<text text-anchor="middle" x="677" y="-95" font-family="Helvetica,sans-Serif" font-size="10.00" fill="grey"> &lt; sizeof(Guid)&gt;</text>
</g>
</g>
</svg>
