<?xml version="1.0" encoding="UTF-8" standalone="no"?>
<!DOCTYPE svg PUBLIC "-//W3C//DTD SVG 1.1//EN"
 "http://www.w3.org/Graphics/SVG/1.1/DTD/svg11.dtd">
<!-- Generated by graphviz version 7.0.1 (20221109.1506)
 -->
<!-- Title: Harlinn::Common::Core::Http::Server::SendRequest Pages: 1 -->
<svg width="2080pt" height="344pt"
 viewBox="0.00 0.00 2080.00 343.50" xmlns="http://www.w3.org/2000/svg" xmlns:xlink="http://www.w3.org/1999/xlink">
<g id="graph0" class="graph" transform="scale(1 1) rotate(0) translate(4 339.5)">
<title>Harlinn::Common::Core::Http::Server::SendRequest</title>
<!-- Node1 -->
<g id="Node000001" class="node">
<title>Node1</title>
<g id="a_Node000001"><a xlink:title=" ">
<polygon fill="#999999" stroke="#666666" points="2072,-95 1934,-95 1934,-65 2072,-65 2072,-95"/>
<text text-anchor="start" x="1942" y="-83" font-family="Helvetica,sans-Serif" font-size="10.00">Harlinn::Common::Core</text>
<text text-anchor="middle" x="2003" y="-72" font-family="Helvetica,sans-Serif" font-size="10.00">::Http::Server::SendRequest</text>
</a>
</g>
</g>
<!-- Node2 -->
<g id="Node000002" class="node">
<title>Node2</title>
<g id="a_Node000002"><a xlink:href="class_harlinn_1_1_common_1_1_core_1_1_http_1_1_server_1_1_request.xhtml" target="_top" xlink:title=" ">
<polygon fill="white" stroke="#666666" points="1836,-174 1718,-174 1718,-144 1836,-144 1836,-174"/>
<text text-anchor="start" x="1726" y="-162" font-family="Helvetica,sans-Serif" font-size="10.00">Harlinn::Common::Core</text>
<text text-anchor="middle" x="1777" y="-151" font-family="Helvetica,sans-Serif" font-size="10.00">::Http::Server::Request</text>
</a>
</g>
</g>
<!-- Node2&#45;&gt;Node1 -->
<g id="edge1_Node000001_Node000002" class="edge">
<title>Node2&#45;&gt;Node1</title>
<g id="a_edge1_Node000001_Node000002"><a xlink:title=" ">
<path fill="none" stroke="#63b8ff" d="M1840.75,-140.13C1864.47,-132.7 1891.61,-123.84 1916,-115 1932.52,-109.02 1950.56,-101.78 1965.84,-95.45"/>
<polygon fill="#63b8ff" stroke="#63b8ff" points="1839.72,-136.78 1831.21,-143.09 1841.8,-143.46 1839.72,-136.78"/>
</a>
</g>
</g>
<!-- Node3 -->
<g id="Node000003" class="node">
<title>Node3</title>
<g id="a_Node000003"><a xlink:href="class_harlinn_1_1_common_1_1_core_1_1_i_o_1_1_request.xhtml" target="_top" xlink:title="Base class for all asynchronous requests.">
<polygon fill="white" stroke="#666666" points="1615,-201 1497,-201 1497,-171 1615,-171 1615,-201"/>
<text text-anchor="start" x="1505" y="-189" font-family="Helvetica,sans-Serif" font-size="10.00">Harlinn::Common::Core</text>
<text text-anchor="middle" x="1556" y="-178" font-family="Helvetica,sans-Serif" font-size="10.00">::IO::Request</text>
</a>
</g>
</g>
<!-- Node3&#45;&gt;Node2 -->
<g id="edge2_Node000002_Node000003" class="edge">
<title>Node3&#45;&gt;Node2</title>
<g id="a_edge2_Node000002_Node000003"><a xlink:title=" ">
<path fill="none" stroke="#63b8ff" d="M1626.82,-177.39C1656.12,-173.78 1689.82,-169.62 1717.76,-166.18"/>
<polygon fill="#63b8ff" stroke="#63b8ff" points="1626.4,-173.92 1616.9,-178.61 1627.26,-180.86 1626.4,-173.92"/>
</a>
</g>
</g>
<!-- Node4 -->
<g id="Node000004" class="node">
<title>Node4</title>
<g id="a_Node000004"><a xlink:title=" ">
<polygon fill="white" stroke="#666666" points="1359.5,-238.5 1276.5,-238.5 1276.5,-219.5 1359.5,-219.5 1359.5,-238.5"/>
<text text-anchor="middle" x="1318" y="-226.5" font-family="Helvetica,sans-Serif" font-size="10.00">OVERLAPPED</text>
</a>
</g>
</g>
<!-- Node4&#45;&gt;Node3 -->
<g id="edge3_Node000003_Node000004" class="edge">
<title>Node4&#45;&gt;Node3</title>
<g id="a_edge3_Node000003_Node000004"><a xlink:title=" ">
<path fill="none" stroke="#63b8ff" d="M1370.91,-220.21C1402.24,-214.83 1442.95,-207.71 1479,-201 1484.69,-199.94 1490.61,-198.82 1496.52,-197.67"/>
<polygon fill="#63b8ff" stroke="#63b8ff" points="1370.57,-216.71 1361.31,-221.85 1371.76,-223.61 1370.57,-216.71"/>
</a>
</g>
</g>
<!-- Node5 -->
<g id="Node000005" class="node">
<title>Node5</title>
<g id="a_Node000005"><a xlink:title=" ">
<polygon fill="white" stroke="#666666" points="1394,-201 1242,-201 1242,-171 1394,-171 1394,-201"/>
<text text-anchor="start" x="1250" y="-189" font-family="Helvetica,sans-Serif" font-size="10.00">std::weak_ptr&lt; Harlinn</text>
<text text-anchor="middle" x="1318" y="-178" font-family="Helvetica,sans-Serif" font-size="10.00">::Common::Core::IO::Context &gt;</text>
</a>
</g>
</g>
<!-- Node5&#45;&gt;Node3 -->
<g id="edge4_Node000003_Node000005" class="edge">
<title>Node5&#45;&gt;Node3</title>
<g id="a_edge4_Node000003_Node000005"><a xlink:title=" ">
<path fill="none" stroke="#9a32cd" stroke-dasharray="5,2" d="M1405.78,-186C1436.11,-186 1469.4,-186 1496.83,-186"/>
<polygon fill="#9a32cd" stroke="#9a32cd" points="1405.83,-182.5 1395.83,-186 1405.83,-189.5 1405.83,-182.5"/>
</a>
</g>
<text text-anchor="middle" x="1445.5" y="-189" font-family="Helvetica,sans-Serif" font-size="10.00" fill="grey"> context_</text>
</g>
<!-- Node6 -->
<g id="Node000006" class="node">
<title>Node6</title>
<g id="a_Node000006"><a xlink:href="class_harlinn_1_1_common_1_1_core_1_1_i_o_1_1_context.xhtml" target="_top" xlink:title="Context is an I/O completion port with an attached thread&#45;pool that services I/O completion notificat...">
<polygon fill="white" stroke="#666666" points="1124,-201 1006,-201 1006,-171 1124,-171 1124,-201"/>
<text text-anchor="start" x="1014" y="-189" font-family="Helvetica,sans-Serif" font-size="10.00">Harlinn::Common::Core</text>
<text text-anchor="middle" x="1065" y="-178" font-family="Helvetica,sans-Serif" font-size="10.00">::IO::Context</text>
</a>
</g>
</g>
<!-- Node6&#45;&gt;Node5 -->
<g id="edge5_Node000005_Node000006" class="edge">
<title>Node6&#45;&gt;Node5</title>
<g id="a_edge5_Node000005_Node000006"><a xlink:title=" ">
<path fill="none" stroke="#9a32cd" stroke-dasharray="5,2" d="M1135.62,-186C1168.67,-186 1208.22,-186 1241.95,-186"/>
<polygon fill="#9a32cd" stroke="#9a32cd" points="1135.73,-182.5 1125.73,-186 1135.73,-189.5 1135.73,-182.5"/>
</a>
</g>
<text text-anchor="middle" x="1183" y="-189" font-family="Helvetica,sans-Serif" font-size="10.00" fill="grey"> ptr</text>
</g>
<!-- Node7 -->
<g id="Node000007" class="node">
<title>Node7</title>
<g id="a_Node000007"><a xlink:title=" ">
<polygon fill="white" stroke="#666666" points="869,-249 756,-249 756,-219 869,-219 869,-249"/>
<text text-anchor="start" x="764" y="-237" font-family="Helvetica,sans-Serif" font-size="10.00">std::enable_shared</text>
<text text-anchor="middle" x="812.5" y="-226" font-family="Helvetica,sans-Serif" font-size="10.00">_from_this&lt; Context &gt;</text>
</a>
</g>
</g>
<!-- Node7&#45;&gt;Node6 -->
<g id="edge6_Node000006_Node000007" class="edge">
<title>Node7&#45;&gt;Node6</title>
<g id="a_edge6_Node000006_Node000007"><a xlink:title=" ">
<path fill="none" stroke="#63b8ff" d="M880.65,-221.13C919.64,-213.66 968.27,-204.34 1005.65,-197.18"/>
<polygon fill="#63b8ff" stroke="#63b8ff" points="880.05,-217.68 870.89,-223 881.37,-224.56 880.05,-217.68"/>
</a>
</g>
</g>
<!-- Node8 -->
<g id="Node000008" class="node">
<title>Node8</title>
<g id="a_Node000008"><a xlink:href="class_harlinn_1_1_common_1_1_core_1_1_i_o_1_1_i_o_completion_port.xhtml" target="_top" xlink:title=" ">
<polygon fill="white" stroke="#666666" points="871.5,-201 753.5,-201 753.5,-171 871.5,-171 871.5,-201"/>
<text text-anchor="start" x="761.5" y="-189" font-family="Helvetica,sans-Serif" font-size="10.00">Harlinn::Common::Core</text>
<text text-anchor="middle" x="812.5" y="-178" font-family="Helvetica,sans-Serif" font-size="10.00">::IO::IOCompletionPort</text>
</a>
</g>
</g>
<!-- Node8&#45;&gt;Node6 -->
<g id="edge7_Node000006_Node000008" class="edge">
<title>Node8&#45;&gt;Node6</title>
<g id="a_edge7_Node000006_Node000008"><a xlink:title=" ">
<path fill="none" stroke="#63b8ff" d="M883.08,-186C921.74,-186 969.28,-186 1005.93,-186"/>
<polygon fill="#63b8ff" stroke="#63b8ff" points="883.43,-182.5 873.43,-186 883.43,-189.5 883.43,-182.5"/>
</a>
</g>
</g>
<!-- Node9 -->
<g id="Node000009" class="node">
<title>Node9</title>
<g id="a_Node000009"><a xlink:href="class_harlinn_1_1_common_1_1_core_1_1_event_wait_handle.xhtml" target="_top" xlink:title=" ">
<polygon fill="white" stroke="#666666" points="451,-77 333,-77 333,-47 451,-47 451,-77"/>
<text text-anchor="start" x="341" y="-65" font-family="Helvetica,sans-Serif" font-size="10.00">Harlinn::Common::Core</text>
<text text-anchor="middle" x="392" y="-54" font-family="Helvetica,sans-Serif" font-size="10.00">::EventWaitHandle</text>
</a>
</g>
</g>
<!-- Node9&#45;&gt;Node6 -->
<g id="edge8_Node000006_Node000009" class="edge">
<title>Node9&#45;&gt;Node6</title>
<g id="a_edge8_Node000006_Node000009"><a xlink:title=" ">
<path fill="none" stroke="#9a32cd" stroke-dasharray="5,2" d="M458.32,-43.8C579.03,-14.51 838.33,27.48 988,-103 1008.66,-121.02 987.57,-141.7 1006,-162 1009,-165.31 1012.53,-168.17 1016.34,-170.65"/>
<polygon fill="#9a32cd" stroke="#9a32cd" points="457.76,-40.34 448.89,-46.14 459.44,-47.13 457.76,-40.34"/>
</a>
</g>
<text text-anchor="middle" x="682" y="-19" font-family="Helvetica,sans-Serif" font-size="10.00" fill="grey"> event_</text>
</g>
<!-- Node10 -->
<g id="Node000010" class="node">
<title>Node10</title>
<g id="a_Node000010"><a xlink:href="class_harlinn_1_1_common_1_1_core_1_1_waitable_handle.xhtml" target="_top" xlink:title=" ">
<polygon fill="white" stroke="#666666" points="118,-103 0,-103 0,-73 118,-73 118,-103"/>
<text text-anchor="start" x="8" y="-91" font-family="Helvetica,sans-Serif" font-size="10.00">Harlinn::Common::Core</text>
<text text-anchor="middle" x="59" y="-80" font-family="Helvetica,sans-Serif" font-size="10.00">::WaitableHandle</text>
</a>
</g>
</g>
<!-- Node10&#45;&gt;Node9 -->
<g id="edge9_Node000009_Node000010" class="edge">
<title>Node10&#45;&gt;Node9</title>
<g id="a_edge9_Node000009_Node000010"><a xlink:title=" ">
<path fill="none" stroke="#63b8ff" d="M129.72,-82.52C189.94,-77.79 275.96,-71.04 332.61,-66.59"/>
<polygon fill="#63b8ff" stroke="#63b8ff" points="129.62,-79.02 119.92,-83.29 130.17,-86 129.62,-79.02"/>
</a>
</g>
</g>
<!-- Node14 -->
<g id="Node000014" class="node">
<title>Node14</title>
<g id="a_Node000014"><a xlink:href="class_harlinn_1_1_common_1_1_core_1_1_thread.xhtml" target="_top" xlink:title=" ">
<polygon fill="white" stroke="#666666" points="315,-135 197,-135 197,-105 315,-105 315,-135"/>
<text text-anchor="start" x="205" y="-123" font-family="Helvetica,sans-Serif" font-size="10.00">Harlinn::Common::Core</text>
<text text-anchor="middle" x="256" y="-112" font-family="Helvetica,sans-Serif" font-size="10.00">::Thread</text>
</a>
</g>
</g>
<!-- Node10&#45;&gt;Node14 -->
<g id="edge14_Node000014_Node000010" class="edge">
<title>Node10&#45;&gt;Node14</title>
<g id="a_edge14_Node000014_Node000010"><a xlink:title=" ">
<path fill="none" stroke="#63b8ff" d="M129.53,-99.41C151.53,-103.02 175.6,-106.97 196.72,-110.44"/>
<polygon fill="#63b8ff" stroke="#63b8ff" points="130.17,-95.97 119.74,-97.8 129.04,-102.88 130.17,-95.97"/>
</a>
</g>
</g>
<!-- Node11 -->
<g id="Node000011" class="node">
<title>Node11</title>
<g id="a_Node000011"><a xlink:href="class_harlinn_1_1_common_1_1_core_1_1_thread_group.xhtml" target="_top" xlink:title=" ">
<polygon fill="white" stroke="#666666" points="871.5,-153 753.5,-153 753.5,-123 871.5,-123 871.5,-153"/>
<text text-anchor="start" x="761.5" y="-141" font-family="Helvetica,sans-Serif" font-size="10.00">Harlinn::Common::Core</text>
<text text-anchor="middle" x="812.5" y="-130" font-family="Helvetica,sans-Serif" font-size="10.00">::ThreadGroup</text>
</a>
</g>
</g>
<!-- Node11&#45;&gt;Node6 -->
<g id="edge10_Node000006_Node000011" class="edge">
<title>Node11&#45;&gt;Node6</title>
<g id="a_edge10_Node000006_Node000011"><a xlink:title=" ">
<path fill="none" stroke="#9a32cd" stroke-dasharray="5,2" d="M882.73,-150.96C914.77,-156.99 953.34,-164.3 988,-171 993.68,-172.1 999.59,-173.25 1005.5,-174.41"/>
<polygon fill="#9a32cd" stroke="#9a32cd" points="883.65,-147.57 873.18,-149.16 882.36,-154.45 883.65,-147.57"/>
</a>
</g>
<text text-anchor="middle" x="941" y="-174" font-family="Helvetica,sans-Serif" font-size="10.00" fill="grey"> threads_</text>
</g>
<!-- Node12 -->
<g id="Node000012" class="node">
<title>Node12</title>
<g id="a_Node000012"><a xlink:href="class_harlinn_1_1_common_1_1_core_1_1_critical_section.xhtml" target="_top" xlink:title="A critical section object provides synchronization similar to that provided by a mutex object,...">
<polygon fill="white" stroke="#666666" points="601,-116 483,-116 483,-86 601,-86 601,-116"/>
<text text-anchor="start" x="491" y="-104" font-family="Helvetica,sans-Serif" font-size="10.00">Harlinn::Common::Core</text>
<text text-anchor="middle" x="542" y="-93" font-family="Helvetica,sans-Serif" font-size="10.00">::CriticalSection</text>
</a>
</g>
</g>
<!-- Node12&#45;&gt;Node6 -->
<g id="edge18_Node000006_Node000012" class="edge">
<title>Node12&#45;&gt;Node6</title>
<g id="a_edge18_Node000006_Node000012"><a xlink:title=" ">
<path fill="none" stroke="#9a32cd" stroke-dasharray="5,2" d="M612.83,-93.75C680.76,-88.49 786.51,-85.06 876,-103 928.76,-113.58 940.97,-122.84 988,-149 996.62,-153.8 997.38,-157.19 1006,-162 1011.42,-165.03 1017.31,-167.89 1023.18,-170.53"/>
<polygon fill="#9a32cd" stroke="#9a32cd" points="612.63,-90.25 602.94,-94.55 613.19,-97.23 612.63,-90.25"/>
</a>
</g>
<text text-anchor="middle" x="812.5" y="-106" font-family="Helvetica,sans-Serif" font-size="10.00" fill="grey"> criticalSection_</text>
</g>
<!-- Node12&#45;&gt;Node11 -->
<g id="edge11_Node000011_Node000012" class="edge">
<title>Node12&#45;&gt;Node11</title>
<g id="a_edge11_Node000011_Node000012"><a xlink:title=" ">
<path fill="none" stroke="#9a32cd" stroke-dasharray="5,2" d="M612.39,-110.56C656.13,-116.59 711.95,-124.28 753.35,-129.99"/>
<polygon fill="#9a32cd" stroke="#9a32cd" points="613.14,-107.13 602.76,-109.24 612.19,-114.07 613.14,-107.13"/>
</a>
</g>
<text text-anchor="middle" x="682" y="-129" font-family="Helvetica,sans-Serif" font-size="10.00" fill="grey"> criticalSection_</text>
</g>
<!-- Node13 -->
<g id="Node000013" class="node">
<title>Node13</title>
<g id="a_Node000013"><a xlink:title=" ">
<polygon fill="white" stroke="#666666" points="615,-181.5 469,-181.5 469,-140.5 615,-140.5 615,-181.5"/>
<text text-anchor="start" x="477" y="-169.5" font-family="Helvetica,sans-Serif" font-size="10.00">std::unordered_map</text>
<text text-anchor="start" x="477" y="-158.5" font-family="Helvetica,sans-Serif" font-size="10.00">&lt; HANDLE, Harlinn::Common</text>
<text text-anchor="middle" x="542" y="-147.5" font-family="Helvetica,sans-Serif" font-size="10.00">::Core::Thread &gt;</text>
</a>
</g>
</g>
<!-- Node13&#45;&gt;Node11 -->
<g id="edge12_Node000011_Node000013" class="edge">
<title>Node13&#45;&gt;Node11</title>
<g id="a_edge12_Node000011_Node000013"><a xlink:title=" ">
<path fill="none" stroke="#9a32cd" stroke-dasharray="5,2" d="M626.67,-153.83C667.69,-150.32 716.09,-146.17 753.08,-143"/>
<polygon fill="#9a32cd" stroke="#9a32cd" points="626.48,-150.34 616.81,-154.68 627.08,-157.31 626.48,-150.34"/>
</a>
</g>
<text text-anchor="middle" x="682" y="-155" font-family="Helvetica,sans-Serif" font-size="10.00" fill="grey"> threads_</text>
</g>
<!-- Node14&#45;&gt;Node13 -->
<g id="edge13_Node000013_Node000014" class="edge">
<title>Node14&#45;&gt;Node13</title>
<g id="a_edge13_Node000013_Node000014"><a xlink:title=" ">
<path fill="none" stroke="#9a32cd" stroke-dasharray="5,2" d="M326.41,-130.02C369.52,-136.24 424.85,-144.23 468.53,-150.54"/>
<polygon fill="#9a32cd" stroke="#9a32cd" points="327.05,-126.58 316.65,-128.61 326.05,-133.51 327.05,-126.58"/>
</a>
</g>
<text text-anchor="middle" x="392" y="-150" font-family="Helvetica,sans-Serif" font-size="10.00" fill="grey"> elements</text>
</g>
<!-- Node15 -->
<g id="Node000015" class="node">
<title>Node15</title>
<g id="a_Node000015"><a xlink:title=" ">
<polygon fill="white" stroke="#666666" points="307.5,-187 204.5,-187 204.5,-157 307.5,-157 307.5,-187"/>
<text text-anchor="start" x="212.5" y="-175" font-family="Helvetica,sans-Serif" font-size="10.00">std::unordered_map</text>
<text text-anchor="middle" x="256" y="-164" font-family="Helvetica,sans-Serif" font-size="10.00">&lt; K, T &gt;</text>
</a>
</g>
</g>
<!-- Node15&#45;&gt;Node13 -->
<g id="edge15_Node000013_Node000015" class="edge">
<title>Node15&#45;&gt;Node13</title>
<g id="a_edge15_Node000013_Node000015"><a xlink:title=" ">
<path fill="none" stroke="orange" stroke-dasharray="5,2" d="M319.19,-169.59C363.2,-167.89 422.37,-165.59 468.52,-163.81"/>
<polygon fill="orange" stroke="orange" points="319.14,-166.09 309.29,-169.97 319.41,-173.09 319.14,-166.09"/>
</a>
</g>
<text text-anchor="start" x="337" y="-183" font-family="Helvetica,sans-Serif" font-size="10.00" fill="grey"> &lt; HANDLE, Harlinn::</text>
<text text-anchor="middle" x="392" y="-172" font-family="Helvetica,sans-Serif" font-size="10.00" fill="grey">Common::Core::Thread &gt;</text>
</g>
<!-- Node16 -->
<g id="Node000016" class="node">
<title>Node16</title>
<g id="a_Node000016"><a xlink:title=" ">
<polygon fill="white" stroke="#666666" points="73.5,-204.5 44.5,-204.5 44.5,-185.5 73.5,-185.5 73.5,-204.5"/>
<text text-anchor="middle" x="59" y="-192.5" font-family="Helvetica,sans-Serif" font-size="10.00">K</text>
</a>
</g>
</g>
<!-- Node16&#45;&gt;Node15 -->
<g id="edge16_Node000015_Node000016" class="edge">
<title>Node16&#45;&gt;Node15</title>
<g id="a_edge16_Node000015_Node000016"><a xlink:title=" ">
<path fill="none" stroke="#9a32cd" stroke-dasharray="5,2" d="M85.21,-190.13C99.97,-187.42 118.99,-184.17 136,-182 158.31,-179.16 183.09,-176.93 204.23,-175.3"/>
<polygon fill="#9a32cd" stroke="#9a32cd" points="84.62,-186.68 75.44,-191.96 85.92,-193.56 84.62,-186.68"/>
</a>
</g>
<text text-anchor="middle" x="157.5" y="-185" font-family="Helvetica,sans-Serif" font-size="10.00" fill="grey"> keys</text>
</g>
<!-- Node21 -->
<g id="Node000021" class="node">
<title>Node21</title>
<g id="a_Node000021"><a xlink:title=" ">
<polygon fill="white" stroke="#666666" points="429,-229.5 355,-229.5 355,-210.5 429,-210.5 429,-229.5"/>
<text text-anchor="middle" x="392" y="-217.5" font-family="Helvetica,sans-Serif" font-size="10.00">std::set&lt; K &gt;</text>
</a>
</g>
</g>
<!-- Node16&#45;&gt;Node21 -->
<g id="edge24_Node000021_Node000016" class="edge">
<title>Node16&#45;&gt;Node21</title>
<g id="a_edge24_Node000021_Node000016"><a xlink:title=" ">
<path fill="none" stroke="#9a32cd" stroke-dasharray="5,2" d="M85.13,-196.9C143.18,-201.28 286.78,-212.13 354.52,-217.24"/>
<polygon fill="#9a32cd" stroke="#9a32cd" points="85.55,-193.42 75.31,-196.16 85.02,-200.4 85.55,-193.42"/>
</a>
</g>
<text text-anchor="middle" x="157.5" y="-206" font-family="Helvetica,sans-Serif" font-size="10.00" fill="grey"> keys</text>
</g>
<!-- Node17 -->
<g id="Node000017" class="node">
<title>Node17</title>
<g id="a_Node000017"><a xlink:title=" ">
<polygon fill="white" stroke="#666666" points="73.5,-292.5 44.5,-292.5 44.5,-273.5 73.5,-273.5 73.5,-292.5"/>
<text text-anchor="middle" x="59" y="-280.5" font-family="Helvetica,sans-Serif" font-size="10.00">T</text>
</a>
</g>
</g>
<!-- Node17&#45;&gt;Node15 -->
<g id="edge17_Node000015_Node000017" class="edge">
<title>Node17&#45;&gt;Node15</title>
<g id="a_edge17_Node000015_Node000017"><a xlink:title=" ">
<path fill="none" stroke="#9a32cd" stroke-dasharray="5,2" d="M84.51,-273.06C109.06,-262.74 147.6,-245.53 179,-227 199.34,-215 221.02,-198.95 236,-187.28"/>
<polygon fill="#9a32cd" stroke="#9a32cd" points="83.28,-269.78 75.39,-276.84 85.96,-276.25 83.28,-269.78"/>
</a>
</g>
<text text-anchor="middle" x="157.5" y="-252" font-family="Helvetica,sans-Serif" font-size="10.00" fill="grey"> elements</text>
</g>
<!-- Node20 -->
<g id="Node000020" class="node">
<title>Node20</title>
<g id="a_Node000020"><a xlink:title=" ">
<polygon fill="white" stroke="#666666" points="308.5,-290.5 203.5,-290.5 203.5,-271.5 308.5,-271.5 308.5,-290.5"/>
<text text-anchor="middle" x="256" y="-278.5" font-family="Helvetica,sans-Serif" font-size="10.00">std::shared_ptr&lt; T &gt;</text>
</a>
</g>
</g>
<!-- Node17&#45;&gt;Node20 -->
<g id="edge22_Node000020_Node000017" class="edge">
<title>Node17&#45;&gt;Node20</title>
<g id="a_edge22_Node000020_Node000017"><a xlink:title=" ">
<path fill="none" stroke="#9a32cd" stroke-dasharray="5,2" d="M85.07,-282.74C114.73,-282.44 164.87,-281.92 203.03,-281.53"/>
<polygon fill="#9a32cd" stroke="#9a32cd" points="85.19,-279.24 75.23,-282.84 85.26,-286.24 85.19,-279.24"/>
</a>
</g>
<text text-anchor="middle" x="157.5" y="-285" font-family="Helvetica,sans-Serif" font-size="10.00" fill="grey"> ptr</text>
</g>
<!-- Node22 -->
<g id="Node000022" class="node">
<title>Node22</title>
<g id="a_Node000022"><a xlink:title=" ">
<polygon fill="white" stroke="#666666" points="731,-335.5 633,-335.5 633,-316.5 731,-316.5 731,-335.5"/>
<text text-anchor="middle" x="682" y="-323.5" font-family="Helvetica,sans-Serif" font-size="10.00">std::weak_ptr&lt; T &gt;</text>
</a>
</g>
</g>
<!-- Node17&#45;&gt;Node22 -->
<g id="edge26_Node000022_Node000017" class="edge">
<title>Node17&#45;&gt;Node22</title>
<g id="a_edge26_Node000022_Node000017"><a xlink:title=" ">
<path fill="none" stroke="#9a32cd" stroke-dasharray="5,2" d="M85.17,-288.48C99.91,-291.48 118.93,-294.98 136,-297 318.55,-318.58 537.4,-324.11 632.71,-325.52"/>
<polygon fill="#9a32cd" stroke="#9a32cd" points="85.91,-285.06 75.41,-286.43 84.48,-291.91 85.91,-285.06"/>
</a>
</g>
<text text-anchor="middle" x="256" y="-315" font-family="Helvetica,sans-Serif" font-size="10.00" fill="grey"> ptr</text>
</g>
<!-- Node18 -->
<g id="Node000018" class="node">
<title>Node18</title>
<g id="a_Node000018"><a xlink:title=" ">
<polygon fill="white" stroke="#666666" points="876,-297 749,-297 749,-267 876,-267 876,-297"/>
<text text-anchor="start" x="757" y="-285" font-family="Helvetica,sans-Serif" font-size="10.00">std::set&lt; std::shared</text>
<text text-anchor="middle" x="812.5" y="-274" font-family="Helvetica,sans-Serif" font-size="10.00">_ptr&lt; ContextHandler &gt; &gt;</text>
</a>
</g>
</g>
<!-- Node18&#45;&gt;Node6 -->
<g id="edge19_Node000006_Node000018" class="edge">
<title>Node18&#45;&gt;Node6</title>
<g id="a_edge19_Node000006_Node000018"><a xlink:title=" ">
<path fill="none" stroke="#9a32cd" stroke-dasharray="5,2" d="M877.51,-263.13C910.87,-252.7 952.09,-238.86 988,-224 1004.08,-217.35 1021.49,-208.75 1035.58,-201.42"/>
<polygon fill="#9a32cd" stroke="#9a32cd" points="876.48,-259.79 867.97,-266.09 878.55,-266.47 876.48,-259.79"/>
</a>
</g>
<text text-anchor="middle" x="941" y="-259" font-family="Helvetica,sans-Serif" font-size="10.00" fill="grey"> handlers_</text>
</g>
<!-- Node19 -->
<g id="Node000019" class="node">
<title>Node19</title>
<g id="a_Node000019"><a xlink:title=" ">
<polygon fill="white" stroke="#666666" points="604.5,-297 479.5,-297 479.5,-267 604.5,-267 604.5,-297"/>
<text text-anchor="start" x="487.5" y="-285" font-family="Helvetica,sans-Serif" font-size="10.00">std::shared_ptr&lt; Context</text>
<text text-anchor="middle" x="542" y="-274" font-family="Helvetica,sans-Serif" font-size="10.00">Handler &gt;</text>
</a>
</g>
</g>
<!-- Node19&#45;&gt;Node18 -->
<g id="edge20_Node000018_Node000019" class="edge">
<title>Node19&#45;&gt;Node18</title>
<g id="a_edge20_Node000018_Node000019"><a xlink:title=" ">
<path fill="none" stroke="#9a32cd" stroke-dasharray="5,2" d="M616.37,-282C657.92,-282 709.33,-282 748.95,-282"/>
<polygon fill="#9a32cd" stroke="#9a32cd" points="616.45,-278.5 606.45,-282 616.45,-285.5 616.45,-278.5"/>
</a>
</g>
<text text-anchor="middle" x="682" y="-285" font-family="Helvetica,sans-Serif" font-size="10.00" fill="grey"> keys</text>
</g>
<!-- Node20&#45;&gt;Node19 -->
<g id="edge21_Node000019_Node000020" class="edge">
<title>Node20&#45;&gt;Node19</title>
<g id="a_edge21_Node000019_Node000020"><a xlink:title=" ">
<path fill="none" stroke="orange" stroke-dasharray="5,2" d="M320.12,-281.22C367.53,-281.39 432.12,-281.62 479.21,-281.78"/>
<polygon fill="orange" stroke="orange" points="320.29,-277.72 310.27,-281.19 320.26,-284.72 320.29,-277.72"/>
</a>
</g>
<text text-anchor="middle" x="392" y="-284" font-family="Helvetica,sans-Serif" font-size="10.00" fill="grey"> &lt; ContextHandler &gt;</text>
</g>
<!-- Node21&#45;&gt;Node18 -->
<g id="edge23_Node000018_Node000021" class="edge">
<title>Node21&#45;&gt;Node18</title>
<g id="a_edge23_Node000018_Node000021"><a xlink:title=" ">
<path fill="none" stroke="orange" stroke-dasharray="5,2" d="M440.83,-221.27C485.96,-222.97 555.38,-226.93 615,-236 663.15,-243.32 716.94,-256.26 756.05,-266.55"/>
<polygon fill="orange" stroke="orange" points="440.97,-217.77 430.85,-220.91 440.72,-224.76 440.97,-217.77"/>
</a>
</g>
<text text-anchor="start" x="498" y="-250" font-family="Helvetica,sans-Serif" font-size="10.00" fill="grey"> &lt; std::shared_ptr&lt;</text>
<text text-anchor="middle" x="542" y="-239" font-family="Helvetica,sans-Serif" font-size="10.00" fill="grey"> ContextHandler &gt; &gt;</text>
</g>
<!-- Node22&#45;&gt;Node5 -->
<g id="edge25_Node000005_Node000022" class="edge">
<title>Node22&#45;&gt;Node5</title>
<g id="a_edge25_Node000005_Node000022"><a xlink:title=" ">
<path fill="none" stroke="orange" stroke-dasharray="5,2" d="M742.77,-322.32C781.08,-319.35 831.73,-314.26 876,-306 1022.06,-278.75 1190.39,-227.16 1270.27,-201.42"/>
<polygon fill="orange" stroke="orange" points="742.52,-318.83 732.81,-323.07 743.04,-325.81 742.52,-318.83"/>
</a>
</g>
<text text-anchor="start" x="894" y="-315" font-family="Helvetica,sans-Serif" font-size="10.00" fill="grey"> &lt; Harlinn::Common::</text>
<text text-anchor="middle" x="941" y="-304" font-family="Helvetica,sans-Serif" font-size="10.00" fill="grey">Core::IO::Context &gt;</text>
</g>
<!-- Node23 -->
<g id="Node000023" class="node">
<title>Node23</title>
<g id="a_Node000023"><a xlink:href="struct_harlinn_1_1_common_1_1_core_1_1_http_1_1_response_v2.xhtml" target="_top" xlink:title=" ">
<polygon fill="white" stroke="#666666" points="1836,-126 1718,-126 1718,-96 1836,-96 1836,-126"/>
<text text-anchor="start" x="1726" y="-114" font-family="Helvetica,sans-Serif" font-size="10.00">Harlinn::Common::Core</text>
<text text-anchor="middle" x="1777" y="-103" font-family="Helvetica,sans-Serif" font-size="10.00">::Http::ResponseV2</text>
</a>
</g>
</g>
<!-- Node23&#45;&gt;Node1 -->
<g id="edge27_Node000001_Node000023" class="edge">
<title>Node23&#45;&gt;Node1</title>
<g id="a_edge27_Node000001_Node000023"><a xlink:title=" ">
<path fill="none" stroke="#9a32cd" stroke-dasharray="5,2" d="M1847.37,-101.4C1874.84,-97.6 1906.33,-93.24 1933.69,-89.45"/>
<polygon fill="#9a32cd" stroke="#9a32cd" points="1847.19,-97.89 1837.77,-102.73 1848.15,-104.82 1847.19,-97.89"/>
</a>
</g>
<text text-anchor="middle" x="1885" y="-103" font-family="Helvetica,sans-Serif" font-size="10.00" fill="grey"> response_</text>
</g>
<!-- Node24 -->
<g id="Node000024" class="node">
<title>Node24</title>
<g id="a_Node000024"><a xlink:href="struct_harlinn_1_1_common_1_1_core_1_1_http_1_1_response_v1.xhtml" target="_top" xlink:title=" ">
<polygon fill="white" stroke="#666666" points="1615,-126 1497,-126 1497,-96 1615,-96 1615,-126"/>
<text text-anchor="start" x="1505" y="-114" font-family="Helvetica,sans-Serif" font-size="10.00">Harlinn::Common::Core</text>
<text text-anchor="middle" x="1556" y="-103" font-family="Helvetica,sans-Serif" font-size="10.00">::Http::ResponseV1</text>
</a>
</g>
</g>
<!-- Node24&#45;&gt;Node23 -->
<g id="edge28_Node000023_Node000024" class="edge">
<title>Node24&#45;&gt;Node23</title>
<g id="a_edge28_Node000023_Node000024"><a xlink:title=" ">
<path fill="none" stroke="#63b8ff" d="M1626.82,-111C1656.12,-111 1689.82,-111 1717.76,-111"/>
<polygon fill="#63b8ff" stroke="#63b8ff" points="1626.91,-107.5 1616.91,-111 1626.91,-114.5 1626.91,-107.5"/>
</a>
</g>
</g>
<!-- Node25 -->
<g id="Node000025" class="node">
<title>Node25</title>
<g id="a_Node000025"><a xlink:href="struct_harlinn_1_1_common_1_1_core_1_1_http_1_1_version.xhtml" target="_top" xlink:title="HTTP protocol version information and manipulation.">
<polygon fill="white" stroke="#666666" points="1377,-105 1259,-105 1259,-75 1377,-75 1377,-105"/>
<text text-anchor="start" x="1267" y="-93" font-family="Helvetica,sans-Serif" font-size="10.00">Harlinn::Common::Core</text>
<text text-anchor="middle" x="1318" y="-82" font-family="Helvetica,sans-Serif" font-size="10.00">::Http::Version</text>
</a>
</g>
</g>
<!-- Node25&#45;&gt;Node24 -->
<g id="edge29_Node000024_Node000025" class="edge">
<title>Node25&#45;&gt;Node24</title>
<g id="a_edge29_Node000024_Node000025"><a xlink:title=" ">
<path fill="none" stroke="#9a32cd" stroke-dasharray="5,2" d="M1388.62,-91.67C1416.75,-92.82 1449.48,-94.75 1479,-98 1484.72,-98.63 1490.67,-99.42 1496.59,-100.29"/>
<polygon fill="#9a32cd" stroke="#9a32cd" points="1388.91,-88.18 1378.79,-91.3 1388.65,-95.18 1388.91,-88.18"/>
</a>
</g>
<text text-anchor="middle" x="1445.5" y="-101" font-family="Helvetica,sans-Serif" font-size="10.00" fill="grey"> Version</text>
</g>
<!-- Node26 -->
<g id="Node000026" class="node">
<title>Node26</title>
<g id="a_Node000026"><a xlink:href="struct_harlinn_1_1_common_1_1_core_1_1_http_1_1_response_headers.xhtml" target="_top" xlink:title="Structure defining format of response headers.">
<polygon fill="white" stroke="#666666" points="1381,-57 1255,-57 1255,-27 1381,-27 1381,-57"/>
<text text-anchor="start" x="1263" y="-45" font-family="Helvetica,sans-Serif" font-size="10.00">Harlinn::Common::Core</text>
<text text-anchor="middle" x="1318" y="-34" font-family="Helvetica,sans-Serif" font-size="10.00">::Http::ResponseHeaders</text>
</a>
</g>
</g>
<!-- Node26&#45;&gt;Node24 -->
<g id="edge30_Node000024_Node000026" class="edge">
<title>Node26&#45;&gt;Node24</title>
<g id="a_edge30_Node000024_Node000026"><a xlink:title=" ">
<path fill="none" stroke="#9a32cd" stroke-dasharray="5,2" d="M1392.56,-53.43C1420.19,-58.92 1451.53,-66.62 1479,-77 1487.56,-80.23 1488.76,-83.02 1497,-87 1503.08,-89.94 1509.62,-92.86 1516.04,-95.6"/>
<polygon fill="#9a32cd" stroke="#9a32cd" points="1393.34,-50.01 1382.86,-51.57 1392.02,-56.89 1393.34,-50.01"/>
</a>
</g>
<text text-anchor="middle" x="1445.5" y="-80" font-family="Helvetica,sans-Serif" font-size="10.00" fill="grey"> Headers</text>
</g>
<!-- Node27 -->
<g id="Node000027" class="node">
<title>Node27</title>
<g id="a_Node000027"><a xlink:href="struct_harlinn_1_1_common_1_1_core_1_1_http_1_1_unknown_header.xhtml" target="_top" xlink:title="Structure defining format of an unknown header.">
<polygon fill="white" stroke="#666666" points="1124,-33 1006,-33 1006,-3 1124,-3 1124,-33"/>
<text text-anchor="start" x="1014" y="-21" font-family="Helvetica,sans-Serif" font-size="10.00">Harlinn::Common::Core</text>
<text text-anchor="middle" x="1065" y="-10" font-family="Helvetica,sans-Serif" font-size="10.00">::Http::UnknownHeader</text>
</a>
</g>
</g>
<!-- Node27&#45;&gt;Node26 -->
<g id="edge31_Node000026_Node000027" class="edge">
<title>Node27&#45;&gt;Node26</title>
<g id="a_edge31_Node000026_Node000027"><a xlink:title=" ">
<path fill="none" stroke="#9a32cd" stroke-dasharray="5,2" d="M1135.49,-16.97C1163.12,-17.28 1195.14,-18.56 1224,-22 1234,-23.19 1244.52,-24.95 1254.74,-26.94"/>
<polygon fill="#9a32cd" stroke="#9a32cd" points="1135.88,-13.47 1125.85,-16.9 1135.83,-20.47 1135.88,-13.47"/>
</a>
</g>
<text text-anchor="middle" x="1183" y="-36" font-family="Helvetica,sans-Serif" font-size="10.00" fill="grey"> pTrailers</text>
<text text-anchor="middle" x="1183" y="-25" font-family="Helvetica,sans-Serif" font-size="10.00" fill="grey">pUnknownHeaders</text>
</g>
<!-- Node28 -->
<g id="Node000028" class="node">
<title>Node28</title>
<g id="a_Node000028"><a xlink:href="struct_harlinn_1_1_common_1_1_core_1_1_http_1_1_known_header.xhtml" target="_top" xlink:title="Structure defining format of a known HTTP header.">
<polygon fill="white" stroke="#666666" points="1124,-81 1006,-81 1006,-51 1124,-51 1124,-81"/>
<text text-anchor="start" x="1014" y="-69" font-family="Helvetica,sans-Serif" font-size="10.00">Harlinn::Common::Core</text>
<text text-anchor="middle" x="1065" y="-58" font-family="Helvetica,sans-Serif" font-size="10.00">::Http::KnownHeader</text>
</a>
</g>
</g>
<!-- Node28&#45;&gt;Node26 -->
<g id="edge32_Node000026_Node000028" class="edge">
<title>Node28&#45;&gt;Node26</title>
<g id="a_edge32_Node000026_Node000028"><a xlink:title=" ">
<path fill="none" stroke="#9a32cd" stroke-dasharray="5,2" d="M1135.52,-59.35C1172.87,-55.78 1218.53,-51.42 1254.71,-47.96"/>
<polygon fill="#9a32cd" stroke="#9a32cd" points="1135.34,-55.85 1125.72,-60.29 1136.01,-62.82 1135.34,-55.85"/>
</a>
</g>
<text text-anchor="middle" x="1183" y="-61" font-family="Helvetica,sans-Serif" font-size="10.00" fill="grey"> KnownHeaders</text>
</g>
<!-- Node29 -->
<g id="Node000029" class="node">
<title>Node29</title>
<g id="a_Node000029"><a xlink:href="struct_harlinn_1_1_common_1_1_core_1_1_http_1_1_data_chunk.xhtml" target="_top" xlink:title="This structure describes an individual data chunk.">
<polygon fill="white" stroke="#666666" points="1377,-153 1259,-153 1259,-123 1377,-123 1377,-153"/>
<text text-anchor="start" x="1267" y="-141" font-family="Helvetica,sans-Serif" font-size="10.00">Harlinn::Common::Core</text>
<text text-anchor="middle" x="1318" y="-130" font-family="Helvetica,sans-Serif" font-size="10.00">::Http::DataChunk</text>
</a>
</g>
</g>
<!-- Node29&#45;&gt;Node24 -->
<g id="edge33_Node000024_Node000029" class="edge">
<title>Node29&#45;&gt;Node24</title>
<g id="a_edge33_Node000024_Node000029"><a xlink:title=" ">
<path fill="none" stroke="#9a32cd" stroke-dasharray="5,2" d="M1388.69,-130.03C1422.99,-126.1 1463.87,-121.43 1496.52,-117.69"/>
<polygon fill="#9a32cd" stroke="#9a32cd" points="1388.38,-126.54 1378.84,-131.15 1389.17,-133.49 1388.38,-126.54"/>
</a>
</g>
<text text-anchor="middle" x="1445.5" y="-129" font-family="Helvetica,sans-Serif" font-size="10.00" fill="grey"> pEntityChunks</text>
</g>
<!-- Node30 -->
<g id="Node000030" class="node">
<title>Node30</title>
<g id="a_Node000030"><a xlink:href="struct_harlinn_1_1_common_1_1_core_1_1_http_1_1_byte_range.xhtml" target="_top" xlink:title="This structure defines a file byte range.">
<polygon fill="white" stroke="#666666" points="1124,-153 1006,-153 1006,-123 1124,-123 1124,-153"/>
<text text-anchor="start" x="1014" y="-141" font-family="Helvetica,sans-Serif" font-size="10.00">Harlinn::Common::Core</text>
<text text-anchor="middle" x="1065" y="-130" font-family="Helvetica,sans-Serif" font-size="10.00">::Http::ByteRange</text>
</a>
</g>
</g>
<!-- Node30&#45;&gt;Node29 -->
<g id="edge34_Node000029_Node000030" class="edge">
<title>Node30&#45;&gt;Node29</title>
<g id="a_edge34_Node000029_Node000030"><a xlink:title=" ">
<path fill="none" stroke="#9a32cd" stroke-dasharray="5,2" d="M1135.41,-138C1174.15,-138 1221.87,-138 1258.67,-138"/>
<polygon fill="#9a32cd" stroke="#9a32cd" points="1135.73,-134.5 1125.73,-138 1135.73,-141.5 1135.73,-134.5"/>
</a>
</g>
<text text-anchor="middle" x="1183" y="-141" font-family="Helvetica,sans-Serif" font-size="10.00" fill="grey"> ByteRange</text>
</g>
<!-- Node31 -->
<g id="Node000031" class="node">
<title>Node31</title>
<g id="a_Node000031"><a xlink:href="struct_harlinn_1_1_common_1_1_core_1_1_http_1_1_response_info.xhtml" target="_top" xlink:title=" ">
<polygon fill="white" stroke="#666666" points="1615,-78 1497,-78 1497,-48 1615,-48 1615,-78"/>
<text text-anchor="start" x="1505" y="-66" font-family="Helvetica,sans-Serif" font-size="10.00">Harlinn::Common::Core</text>
<text text-anchor="middle" x="1556" y="-55" font-family="Helvetica,sans-Serif" font-size="10.00">::Http::ResponseInfo</text>
</a>
</g>
</g>
<!-- Node31&#45;&gt;Node23 -->
<g id="edge35_Node000023_Node000031" class="edge">
<title>Node31&#45;&gt;Node23</title>
<g id="a_edge35_Node000023_Node000031"><a xlink:title=" ">
<path fill="none" stroke="#9a32cd" stroke-dasharray="5,2" d="M1626.43,-78.22C1655.83,-84.66 1689.7,-92.08 1717.76,-98.24"/>
<polygon fill="#9a32cd" stroke="#9a32cd" points="1627.4,-74.85 1616.88,-76.12 1625.9,-81.68 1627.4,-74.85"/>
</a>
</g>
<text text-anchor="middle" x="1666.5" y="-97" font-family="Helvetica,sans-Serif" font-size="10.00" fill="grey"> pResponseInfo</text>
</g>
<!-- Node32 -->
<g id="Node000032" class="node">
<title>Node32</title>
<g id="a_Node000032"><a xlink:href="struct_harlinn_1_1_common_1_1_core_1_1_http_1_1_cache_policy.xhtml" target="_top" xlink:title="Only cache unauthorized GETs + HEADs.">
<polygon fill="white" stroke="#666666" points="1836,-78 1718,-78 1718,-48 1836,-48 1836,-78"/>
<text text-anchor="start" x="1726" y="-66" font-family="Helvetica,sans-Serif" font-size="10.00">Harlinn::Common::Core</text>
<text text-anchor="middle" x="1777" y="-55" font-family="Helvetica,sans-Serif" font-size="10.00">::Http::CachePolicy</text>
</a>
</g>
</g>
<!-- Node32&#45;&gt;Node1 -->
<g id="edge36_Node000001_Node000032" class="edge">
<title>Node32&#45;&gt;Node1</title>
<g id="a_edge36_Node000001_Node000032"><a xlink:title=" ">
<path fill="none" stroke="#9a32cd" stroke-dasharray="5,2" d="M1847.67,-66.41C1869.55,-67.65 1893.8,-69.2 1916,-71 1921.84,-71.47 1927.89,-72.01 1933.96,-72.59"/>
<polygon fill="#9a32cd" stroke="#9a32cd" points="1848.15,-62.93 1837.97,-65.87 1847.76,-69.92 1848.15,-62.93"/>
</a>
</g>
<text text-anchor="middle" x="1885" y="-74" font-family="Helvetica,sans-Serif" font-size="10.00" fill="grey"> cachePolicy_</text>
</g>
<!-- Node33 -->
<g id="Node000033" class="node">
<title>Node33</title>
<g id="a_Node000033"><a xlink:href="struct_harlinn_1_1_common_1_1_core_1_1_http_1_1_log_data.xhtml" target="_top" xlink:title=" ">
<polygon fill="white" stroke="#666666" points="1836,-30 1718,-30 1718,0 1836,0 1836,-30"/>
<text text-anchor="start" x="1726" y="-18" font-family="Helvetica,sans-Serif" font-size="10.00">Harlinn::Common::Core</text>
<text text-anchor="middle" x="1777" y="-7" font-family="Helvetica,sans-Serif" font-size="10.00">::Http::LogData</text>
</a>
</g>
</g>
<!-- Node33&#45;&gt;Node1 -->
<g id="edge37_Node000001_Node000033" class="edge">
<title>Node33&#45;&gt;Node1</title>
<g id="a_edge37_Node000001_Node000033"><a xlink:title=" ">
<path fill="none" stroke="#9a32cd" stroke-dasharray="5,2" d="M1847.28,-32.06C1869.34,-37.76 1893.78,-44.36 1916,-51 1929.74,-55.1 1944.58,-59.95 1958,-64.5"/>
<polygon fill="#9a32cd" stroke="#9a32cd" points="1848.35,-28.72 1837.8,-29.63 1846.61,-35.5 1848.35,-28.72"/>
</a>
</g>
<text text-anchor="middle" x="1885" y="-54" font-family="Helvetica,sans-Serif" font-size="10.00" fill="grey"> logData_</text>
</g>
</g>
</svg>
