<?xml version="1.0" encoding="UTF-8" standalone="no"?>
<!DOCTYPE svg PUBLIC "-//W3C//DTD SVG 1.1//EN"
 "http://www.w3.org/Graphics/SVG/1.1/DTD/svg11.dtd">
<!-- Generated by graphviz version 7.0.1 (20221109.1506)
 -->
<!-- Title: Harlinn.Common.Core.Net.Data.BaseData&lt; TEnum &gt; Pages: 1 -->
<svg width="262pt" height="104pt"
 viewBox="0.00 0.00 262.00 104.00" xmlns="http://www.w3.org/2000/svg" xmlns:xlink="http://www.w3.org/1999/xlink">
<g id="graph0" class="graph" transform="scale(1 1) rotate(0) translate(4 100)">
<title>Harlinn.Common.Core.Net.Data.BaseData&lt; TEnum &gt;</title>
<!-- Node1 -->
<g id="Node000001" class="node">
<title>Node1</title>
<g id="a_Node000001"><a xlink:title=" ">
<polygon fill="#999999" stroke="#666666" points="191.5,-30 58.5,-30 58.5,0 191.5,0 191.5,-30"/>
<text text-anchor="start" x="66.5" y="-18" font-family="Helvetica,sans-Serif" font-size="10.00">Harlinn.Common.Core.Net.</text>
<text text-anchor="middle" x="125" y="-7" font-family="Helvetica,sans-Serif" font-size="10.00">Data.BaseData&lt; TEnum &gt;</text>
</a>
</g>
</g>
<!-- Node2 -->
<g id="Node000002" class="node">
<title>Node2</title>
<g id="a_Node000002"><a xlink:title=" ">
<polygon fill="white" stroke="#666666" points="114,-96 0,-96 0,-66 114,-66 114,-96"/>
<text text-anchor="start" x="8" y="-84" font-family="Helvetica,sans-Serif" font-size="10.00">IEquatable&lt; BaseData</text>
<text text-anchor="middle" x="57" y="-73" font-family="Helvetica,sans-Serif" font-size="10.00">&lt; TEnum &gt; &gt;</text>
</a>
</g>
</g>
<!-- Node2&#45;&gt;Node1 -->
<g id="edge1_Node000001_Node000002" class="edge">
<title>Node2&#45;&gt;Node1</title>
<g id="a_edge1_Node000001_Node000002"><a xlink:title=" ">
<path fill="none" stroke="#63b8ff" d="M80.28,-58.09C90.1,-48.85 101.24,-38.36 109.95,-30.16"/>
<polygon fill="#63b8ff" stroke="#63b8ff" points="78.08,-55.36 73.19,-64.76 82.87,-60.45 78.08,-55.36"/>
</a>
</g>
</g>
<!-- Node3 -->
<g id="Node000003" class="node">
<title>Node3</title>
<g id="a_Node000003"><a xlink:title=" ">
<polygon fill="white" stroke="#666666" points="254,-96 132,-96 132,-66 254,-66 254,-96"/>
<text text-anchor="start" x="140" y="-84" font-family="Helvetica,sans-Serif" font-size="10.00">IComparable&lt; BaseData</text>
<text text-anchor="middle" x="193" y="-73" font-family="Helvetica,sans-Serif" font-size="10.00">&lt; TEnum &gt; &gt;</text>
</a>
</g>
</g>
<!-- Node3&#45;&gt;Node1 -->
<g id="edge2_Node000001_Node000003" class="edge">
<title>Node3&#45;&gt;Node1</title>
<g id="a_edge2_Node000001_Node000003"><a xlink:title=" ">
<path fill="none" stroke="#63b8ff" d="M169.72,-58.09C159.9,-48.85 148.76,-38.36 140.05,-30.16"/>
<polygon fill="#63b8ff" stroke="#63b8ff" points="167.13,-60.45 176.81,-64.76 171.92,-55.36 167.13,-60.45"/>
</a>
</g>
</g>
</g>
</svg>
