<?xml version="1.0" encoding="UTF-8" standalone="no"?>
<!DOCTYPE svg PUBLIC "-//W3C//DTD SVG 1.1//EN"
 "http://www.w3.org/Graphics/SVG/1.1/DTD/svg11.dtd">
<!-- Generated by graphviz version 7.0.1 (20221109.1506)
 -->
<!-- Title: Harlinn::AI::DML::X::ConvolutionBuilder Pages: 1 -->
<svg width="1643pt" height="781pt"
 viewBox="0.00 0.00 1643.00 781.00" xmlns="http://www.w3.org/2000/svg" xmlns:xlink="http://www.w3.org/1999/xlink">
<g id="graph0" class="graph" transform="scale(1 1) rotate(0) translate(4 777)">
<title>Harlinn::AI::DML::X::ConvolutionBuilder</title>
<!-- Node1 -->
<g id="Node000001" class="node">
<title>Node1</title>
<g id="a_Node000001"><a xlink:title=" ">
<polygon fill="#999999" stroke="#666666" points="1144,-51 1042,-51 1042,-21 1144,-21 1144,-51"/>
<text text-anchor="start" x="1050" y="-39" font-family="Helvetica,sans-Serif" font-size="10.00">Harlinn::AI::DML::X</text>
<text text-anchor="middle" x="1093" y="-28" font-family="Helvetica,sans-Serif" font-size="10.00">::ConvolutionBuilder</text>
</a>
</g>
</g>
<!-- Node2 -->
<g id="Node000002" class="node">
<title>Node2</title>
<g id="a_Node000002"><a xlink:href="class_harlinn_1_1_a_i_1_1_d_m_l_1_1_x_1_1_expression.html" target="_top" xlink:title=" ">
<polygon fill="white" stroke="#666666" points="852,-30 753,-30 753,0 852,0 852,-30"/>
<text text-anchor="start" x="761" y="-18" font-family="Helvetica,sans-Serif" font-size="10.00">Harlinn::AI::DML::X</text>
<text text-anchor="middle" x="802.5" y="-7" font-family="Helvetica,sans-Serif" font-size="10.00">::Expression</text>
</a>
</g>
</g>
<!-- Node2&#45;&gt;Node1 -->
<g id="edge1_Node000001_Node000002" class="edge">
<title>Node2&#45;&gt;Node1</title>
<g id="a_edge1_Node000001_Node000002"><a xlink:title=" ">
<path fill="none" stroke="#9a32cd" stroke-dasharray="5,2" d="M863.65,-13.03C905.87,-12.41 963.56,-13.08 1014,-19 1023.08,-20.07 1032.67,-21.71 1041.89,-23.57"/>
<polygon fill="#9a32cd" stroke="#9a32cd" points="863.62,-9.53 853.69,-13.21 863.75,-16.53 863.62,-9.53"/>
</a>
</g>
<text text-anchor="middle" x="950" y="-33" font-family="Helvetica,sans-Serif" font-size="10.00" fill="grey"> filter_</text>
<text text-anchor="middle" x="950" y="-22" font-family="Helvetica,sans-Serif" font-size="10.00" fill="grey">input_</text>
</g>
<!-- Node3 -->
<g id="Node000003" class="node">
<title>Node3</title>
<g id="a_Node000003"><a xlink:href="class_harlinn_1_1_a_i_1_1_d_m_l_1_1_x_1_1_internal_1_1_node_output.html" target="_top" xlink:title=" ">
<polygon fill="white" stroke="#666666" points="573,-154 461,-154 461,-124 573,-124 573,-154"/>
<text text-anchor="start" x="469" y="-142" font-family="Helvetica,sans-Serif" font-size="10.00">Harlinn::AI::DML::X</text>
<text text-anchor="middle" x="517" y="-131" font-family="Helvetica,sans-Serif" font-size="10.00">::Internal::NodeOutput</text>
</a>
</g>
</g>
<!-- Node3&#45;&gt;Node2 -->
<g id="edge2_Node000002_Node000003" class="edge">
<title>Node3&#45;&gt;Node2</title>
<g id="a_edge2_Node000002_Node000003"><a xlink:title=" ">
<path fill="none" stroke="#9a32cd" stroke-dasharray="5,2" d="M543.62,-116.57C558.19,-104.71 577.24,-90.65 596,-81 646.82,-54.86 710.01,-36.44 752.81,-25.82"/>
<polygon fill="#9a32cd" stroke="#9a32cd" points="541.77,-113.56 536.33,-122.65 546.25,-118.94 541.77,-113.56"/>
</a>
</g>
<text text-anchor="middle" x="657.5" y="-84" font-family="Helvetica,sans-Serif" font-size="10.00" fill="grey"> nodeOutput_</text>
</g>
<!-- Node18 -->
<g id="Node000018" class="node">
<title>Node18</title>
<g id="a_Node000018"><a xlink:title=" ">
<polygon fill="white" stroke="#666666" points="856,-520.5 749,-520.5 749,-479.5 856,-479.5 856,-520.5"/>
<text text-anchor="start" x="757" y="-508.5" font-family="Helvetica,sans-Serif" font-size="10.00">std::vector&lt; Harlinn</text>
<text text-anchor="start" x="757" y="-497.5" font-family="Helvetica,sans-Serif" font-size="10.00">::AI::DML::X::Internal</text>
<text text-anchor="middle" x="802.5" y="-486.5" font-family="Helvetica,sans-Serif" font-size="10.00">::NodeOutput * &gt;</text>
</a>
</g>
</g>
<!-- Node3&#45;&gt;Node18 -->
<g id="edge19_Node000018_Node000003" class="edge">
<title>Node3&#45;&gt;Node18</title>
<g id="a_edge19_Node000018_Node000003"><a xlink:title=" ">
<path fill="none" stroke="#9a32cd" stroke-dasharray="5,2" d="M556.11,-161.1C564.57,-167.74 572.61,-175.76 578,-185 606.95,-234.62 569.16,-262.21 596,-313 635.89,-388.49 718.86,-448.99 766.26,-479.13"/>
<polygon fill="#9a32cd" stroke="#9a32cd" points="558.26,-158.34 548.1,-155.33 554.17,-164.02 558.26,-158.34"/>
</a>
</g>
<text text-anchor="middle" x="657.5" y="-446" font-family="Helvetica,sans-Serif" font-size="10.00" fill="grey"> elements</text>
</g>
<!-- Node22 -->
<g id="Node000022" class="node">
<title>Node22</title>
<g id="a_Node000022"><a xlink:href="struct_harlinn_1_1_a_i_1_1_d_m_l_1_1_x_1_1_internal_1_1_reinterpret_node.html" target="_top" xlink:title=" ">
<polygon fill="white" stroke="#666666" points="867.5,-224 737.5,-224 737.5,-194 867.5,-194 867.5,-224"/>
<text text-anchor="start" x="745.5" y="-212" font-family="Helvetica,sans-Serif" font-size="10.00">Harlinn::AI::DML::X</text>
<text text-anchor="middle" x="802.5" y="-201" font-family="Helvetica,sans-Serif" font-size="10.00">::Internal::ReinterpretNode</text>
</a>
</g>
</g>
<!-- Node3&#45;&gt;Node22 -->
<g id="edge26_Node000022_Node000003" class="edge">
<title>Node3&#45;&gt;Node22</title>
<g id="a_edge26_Node000022_Node000003"><a xlink:title=" ">
<path fill="none" stroke="#9a32cd" stroke-dasharray="5,2" d="M546.75,-161.22C566.58,-176.34 590.35,-193.96 596,-196 641.21,-212.36 695.64,-215.12 737.12,-214.05"/>
<polygon fill="#9a32cd" stroke="#9a32cd" points="548.99,-158.52 538.92,-155.22 544.73,-164.08 548.99,-158.52"/>
</a>
</g>
<text text-anchor="middle" x="657.5" y="-217" font-family="Helvetica,sans-Serif" font-size="10.00" fill="grey"> input</text>
</g>
<!-- Node27 -->
<g id="Node000027" class="node">
<title>Node27</title>
<g id="a_Node000027"><a xlink:title=" ">
<polygon fill="white" stroke="#666666" points="856,-175.5 749,-175.5 749,-134.5 856,-134.5 856,-175.5"/>
<text text-anchor="start" x="757" y="-163.5" font-family="Helvetica,sans-Serif" font-size="10.00">std::deque&lt; Harlinn</text>
<text text-anchor="start" x="757" y="-152.5" font-family="Helvetica,sans-Serif" font-size="10.00">::AI::DML::X::Internal</text>
<text text-anchor="middle" x="802.5" y="-141.5" font-family="Helvetica,sans-Serif" font-size="10.00">::NodeOutput &gt;</text>
</a>
</g>
</g>
<!-- Node3&#45;&gt;Node27 -->
<g id="edge36_Node000027_Node000003" class="edge">
<title>Node3&#45;&gt;Node27</title>
<g id="a_edge36_Node000027_Node000003"><a xlink:title=" ">
<path fill="none" stroke="#9a32cd" stroke-dasharray="5,2" d="M584.42,-136.42C623.66,-135.63 674.25,-135.85 719,-140 728.71,-140.9 738.99,-142.36 748.88,-144.02"/>
<polygon fill="#9a32cd" stroke="#9a32cd" points="584.58,-132.92 574.67,-136.65 584.74,-139.92 584.58,-132.92"/>
</a>
</g>
<text text-anchor="middle" x="657.5" y="-143" font-family="Helvetica,sans-Serif" font-size="10.00" fill="grey"> elements</text>
</g>
<!-- Node4 -->
<g id="Node000004" class="node">
<title>Node4</title>
<g id="a_Node000004"><a xlink:href="class_harlinn_1_1_a_i_1_1_d_m_l_1_1_x_1_1_internal_1_1_graph_builder.html" target="_top" xlink:title=" ">
<polygon fill="white" stroke="#666666" points="1635,-443 1519,-443 1519,-413 1635,-413 1635,-443"/>
<text text-anchor="start" x="1527" y="-431" font-family="Helvetica,sans-Serif" font-size="10.00">Harlinn::AI::DML::X</text>
<text text-anchor="middle" x="1577" y="-420" font-family="Helvetica,sans-Serif" font-size="10.00">::Internal::GraphBuilder</text>
</a>
</g>
</g>
<!-- Node4&#45;&gt;Node3 -->
<g id="edge3_Node000003_Node000004" class="edge">
<title>Node4&#45;&gt;Node3</title>
<g id="a_edge3_Node000003_Node000004"><a xlink:title=" ">
<path fill="none" stroke="#9a32cd" stroke-dasharray="5,2" d="M1570.82,-401.87C1553.94,-325.16 1493.06,-106 1348.5,-106 801.5,-106 801.5,-106 801.5,-106 721.85,-106 630.44,-119.01 573.45,-128.69"/>
<polygon fill="#9a32cd" stroke="#9a32cd" points="1567.35,-402.36 1572.84,-411.42 1574.19,-400.91 1567.35,-402.36"/>
</a>
</g>
<text text-anchor="middle" x="1093" y="-109" font-family="Helvetica,sans-Serif" font-size="10.00" fill="grey"> owner_</text>
</g>
<!-- Node5 -->
<g id="Node000005" class="node">
<title>Node5</title>
<g id="a_Node000005"><a xlink:href="class_harlinn_1_1_a_i_1_1_d_m_l_1_1_device1.html" target="_top" xlink:title=" ">
<polygon fill="white" stroke="#666666" points="1014,-726.5 886,-726.5 886,-707.5 1014,-707.5 1014,-726.5"/>
<text text-anchor="middle" x="950" y="-714.5" font-family="Helvetica,sans-Serif" font-size="10.00">Harlinn::AI::DML::Device1</text>
</a>
</g>
</g>
<!-- Node5&#45;&gt;Node4 -->
<g id="edge4_Node000004_Node000005" class="edge">
<title>Node5&#45;&gt;Node4</title>
<g id="a_edge4_Node000004_Node000005"><a xlink:title=" ">
<path fill="none" stroke="#9a32cd" stroke-dasharray="5,2" d="M995.42,-729.89C1097.3,-756.54 1350.57,-805.69 1501,-686 1540.24,-654.78 1566.47,-494.02 1573.86,-443.33"/>
<polygon fill="#9a32cd" stroke="#9a32cd" points="996.35,-726.52 985.79,-727.32 994.54,-733.28 996.35,-726.52"/>
</a>
</g>
<text text-anchor="middle" x="1224" y="-765" font-family="Helvetica,sans-Serif" font-size="10.00" fill="grey"> m_device</text>
</g>
<!-- Node6 -->
<g id="Node000006" class="node">
<title>Node6</title>
<g id="a_Node000006"><a xlink:href="class_harlinn_1_1_a_i_1_1_d_m_l_1_1_device.html" target="_top" xlink:title=" ">
<polygon fill="white" stroke="#666666" points="578,-727.5 456,-727.5 456,-708.5 578,-708.5 578,-727.5"/>
<text text-anchor="middle" x="517" y="-715.5" font-family="Helvetica,sans-Serif" font-size="10.00">Harlinn::AI::DML::Device</text>
</a>
</g>
</g>
<!-- Node6&#45;&gt;Node5 -->
<g id="edge5_Node000005_Node000006" class="edge">
<title>Node6&#45;&gt;Node5</title>
<g id="a_edge5_Node000005_Node000006"><a xlink:title=" ">
<path fill="none" stroke="#63b8ff" d="M589.68,-717.83C672.23,-717.64 806.6,-717.33 885.52,-717.15"/>
<polygon fill="#63b8ff" stroke="#63b8ff" points="589.89,-714.33 579.9,-717.86 589.9,-721.33 589.89,-714.33"/>
</a>
</g>
</g>
<!-- Node7 -->
<g id="Node000007" class="node">
<title>Node7</title>
<g id="a_Node000007"><a xlink:href="class_harlinn_1_1_a_i_1_1_d_m_l_1_1_object.html" target="_top" xlink:title=" ">
<polygon fill="white" stroke="#666666" points="362,-680.5 240,-680.5 240,-661.5 362,-661.5 362,-680.5"/>
<text text-anchor="middle" x="301" y="-668.5" font-family="Helvetica,sans-Serif" font-size="10.00">Harlinn::AI::DML::Object</text>
</a>
</g>
</g>
<!-- Node7&#45;&gt;Node6 -->
<g id="edge6_Node000006_Node000007" class="edge">
<title>Node7&#45;&gt;Node6</title>
<g id="a_edge6_Node000006_Node000007"><a xlink:title=" ">
<path fill="none" stroke="#63b8ff" d="M358.41,-683.39C393.46,-691.09 437.93,-700.85 470.68,-708.05"/>
<polygon fill="#63b8ff" stroke="#63b8ff" points="359.38,-680.02 348.86,-681.29 357.88,-686.86 359.38,-680.02"/>
</a>
</g>
</g>
<!-- Node17 -->
<g id="Node000017" class="node">
<title>Node17</title>
<g id="a_Node000017"><a xlink:href="class_harlinn_1_1_a_i_1_1_d_m_l_1_1_device_child.html" target="_top" xlink:title=" ">
<polygon fill="white" stroke="#666666" points="578,-639 456,-639 456,-609 578,-609 578,-639"/>
<text text-anchor="start" x="464" y="-627" font-family="Helvetica,sans-Serif" font-size="10.00">Harlinn::AI::DML::Device</text>
<text text-anchor="middle" x="517" y="-616" font-family="Helvetica,sans-Serif" font-size="10.00">Child</text>
</a>
</g>
</g>
<!-- Node7&#45;&gt;Node17 -->
<g id="edge17_Node000017_Node000007" class="edge">
<title>Node7&#45;&gt;Node17</title>
<g id="a_edge17_Node000017_Node000007"><a xlink:title=" ">
<path fill="none" stroke="#63b8ff" d="M358.49,-658.59C388.41,-652.02 425.17,-643.95 455.65,-637.25"/>
<polygon fill="#63b8ff" stroke="#63b8ff" points="357.88,-655.14 348.86,-660.71 359.38,-661.98 357.88,-655.14"/>
</a>
</g>
</g>
<!-- Node8 -->
<g id="Node000008" class="node">
<title>Node8</title>
<g id="a_Node000008"><a xlink:href="class_harlinn_1_1_common_1_1_core_1_1_unknown.html" target="_top" xlink:title="Base class for COM interface wrappers.">
<polygon fill="white" stroke="#666666" points="132,-686 14,-686 14,-656 132,-656 132,-686"/>
<text text-anchor="start" x="22" y="-674" font-family="Helvetica,sans-Serif" font-size="10.00">Harlinn::Common::Core</text>
<text text-anchor="middle" x="73" y="-663" font-family="Helvetica,sans-Serif" font-size="10.00">::Unknown</text>
</a>
</g>
</g>
<!-- Node8&#45;&gt;Node7 -->
<g id="edge7_Node000007_Node000008" class="edge">
<title>Node8&#45;&gt;Node7</title>
<g id="a_edge7_Node000007_Node000008"><a xlink:title=" ">
<path fill="none" stroke="#63b8ff" d="M143.99,-671C174.66,-671 210.31,-671 239.78,-671"/>
<polygon fill="#63b8ff" stroke="#63b8ff" points="144.01,-667.5 134.01,-671 144.01,-674.5 144.01,-667.5"/>
</a>
</g>
</g>
<!-- Node9 -->
<g id="Node000009" class="node">
<title>Node9</title>
<g id="a_Node000009"><a xlink:href="class_harlinn_1_1_a_i_1_1_d_m_l_1_1_x_1_1_tensor_policy.html" target="_top" xlink:title=" ">
<polygon fill="white" stroke="#666666" points="1397,-644 1298,-644 1298,-614 1397,-614 1397,-644"/>
<text text-anchor="start" x="1306" y="-632" font-family="Helvetica,sans-Serif" font-size="10.00">Harlinn::AI::DML::X</text>
<text text-anchor="middle" x="1347.5" y="-621" font-family="Helvetica,sans-Serif" font-size="10.00">::TensorPolicy</text>
</a>
</g>
</g>
<!-- Node9&#45;&gt;Node4 -->
<g id="edge8_Node000004_Node000009" class="edge">
<title>Node9&#45;&gt;Node4</title>
<g id="a_edge8_Node000004_Node000009"><a xlink:title=" ">
<path fill="none" stroke="#9a32cd" stroke-dasharray="5,2" d="M1408.71,-630.36C1439.25,-628.11 1475.23,-620.58 1501,-600 1551.92,-559.35 1569.05,-477.23 1574.11,-443.25"/>
<polygon fill="#9a32cd" stroke="#9a32cd" points="1408.61,-626.86 1398.82,-630.9 1408.99,-633.85 1408.61,-626.86"/>
</a>
</g>
<text text-anchor="middle" x="1460" y="-632" font-family="Helvetica,sans-Serif" font-size="10.00" fill="grey"> m_tensorPolicy</text>
</g>
<!-- Node10 -->
<g id="Node000010" class="node">
<title>Node10</title>
<g id="a_Node000010"><a xlink:title=" ">
<polygon fill="white" stroke="#666666" points="856,-691.5 749,-691.5 749,-650.5 856,-650.5 856,-691.5"/>
<text text-anchor="start" x="757" y="-679.5" font-family="Helvetica,sans-Serif" font-size="10.00">std::vector&lt; Harlinn</text>
<text text-anchor="start" x="757" y="-668.5" font-family="Helvetica,sans-Serif" font-size="10.00">::AI::DML::X::Internal</text>
<text text-anchor="middle" x="802.5" y="-657.5" font-family="Helvetica,sans-Serif" font-size="10.00">::InputNode &gt;</text>
</a>
</g>
</g>
<!-- Node10&#45;&gt;Node4 -->
<g id="edge9_Node000004_Node000010" class="edge">
<title>Node10&#45;&gt;Node4</title>
<g id="a_edge9_Node000004_Node000010"><a xlink:title=" ">
<path fill="none" stroke="#9a32cd" stroke-dasharray="5,2" d="M867.42,-677.66C1020.73,-692.22 1403.87,-719.88 1501,-644 1565.6,-593.54 1574.78,-483.94 1575.92,-443.44"/>
<polygon fill="#9a32cd" stroke="#9a32cd" points="868.14,-674.21 857.85,-676.73 867.47,-681.18 868.14,-674.21"/>
</a>
</g>
<text text-anchor="middle" x="1224" y="-697" font-family="Helvetica,sans-Serif" font-size="10.00" fill="grey"> m_inputNodes</text>
</g>
<!-- Node11 -->
<g id="Node000011" class="node">
<title>Node11</title>
<g id="a_Node000011"><a xlink:href="struct_harlinn_1_1_a_i_1_1_d_m_l_1_1_x_1_1_internal_1_1_input_node.html" target="_top" xlink:title=" ">
<polygon fill="white" stroke="#666666" points="569,-687 465,-687 465,-657 569,-657 569,-687"/>
<text text-anchor="start" x="473" y="-675" font-family="Helvetica,sans-Serif" font-size="10.00">Harlinn::AI::DML::X</text>
<text text-anchor="middle" x="517" y="-664" font-family="Helvetica,sans-Serif" font-size="10.00">::Internal::InputNode</text>
</a>
</g>
</g>
<!-- Node11&#45;&gt;Node10 -->
<g id="edge10_Node000010_Node000011" class="edge">
<title>Node11&#45;&gt;Node10</title>
<g id="a_edge10_Node000010_Node000011"><a xlink:title=" ">
<path fill="none" stroke="#9a32cd" stroke-dasharray="5,2" d="M580.74,-671.78C631.11,-671.6 701.05,-671.35 748.62,-671.19"/>
<polygon fill="#9a32cd" stroke="#9a32cd" points="580.84,-668.28 570.85,-671.81 580.87,-675.28 580.84,-668.28"/>
</a>
</g>
<text text-anchor="middle" x="657.5" y="-674" font-family="Helvetica,sans-Serif" font-size="10.00" fill="grey"> elements</text>
</g>
<!-- Node12 -->
<g id="Node000012" class="node">
<title>Node12</title>
<g id="a_Node000012"><a xlink:title=" ">
<polygon fill="white" stroke="#666666" points="559.5,-435.5 474.5,-435.5 474.5,-416.5 559.5,-416.5 559.5,-435.5"/>
<text text-anchor="middle" x="517" y="-423.5" font-family="Helvetica,sans-Serif" font-size="10.00">std::vector&lt; T &gt;</text>
</a>
</g>
</g>
<!-- Node12&#45;&gt;Node10 -->
<g id="edge11_Node000010_Node000012" class="edge">
<title>Node12&#45;&gt;Node10</title>
<g id="a_edge11_Node000010_Node000012"><a xlink:title=" ">
<path fill="none" stroke="orange" stroke-dasharray="5,2" d="M532.16,-444.49C564.37,-485.4 647.28,-584.5 737,-642 741.44,-644.85 746.22,-647.56 751.08,-650.1"/>
<polygon fill="orange" stroke="orange" points="535.09,-442.55 526.19,-436.81 529.56,-446.85 535.09,-442.55"/>
</a>
</g>
<text text-anchor="start" x="603.5" y="-642" font-family="Helvetica,sans-Serif" font-size="10.00" fill="grey"> &lt; Harlinn::AI::DML</text>
<text text-anchor="middle" x="657.5" y="-631" font-family="Helvetica,sans-Serif" font-size="10.00" fill="grey">::X::Internal::InputNode &gt;</text>
</g>
<!-- Node14 -->
<g id="Node000014" class="node">
<title>Node14</title>
<g id="a_Node000014"><a xlink:title=" ">
<polygon fill="white" stroke="#666666" points="1401,-478.5 1294,-478.5 1294,-437.5 1401,-437.5 1401,-478.5"/>
<text text-anchor="start" x="1302" y="-466.5" font-family="Helvetica,sans-Serif" font-size="10.00">std::vector&lt; Harlinn</text>
<text text-anchor="start" x="1302" y="-455.5" font-family="Helvetica,sans-Serif" font-size="10.00">::AI::DML::X::Internal</text>
<text text-anchor="middle" x="1347.5" y="-444.5" font-family="Helvetica,sans-Serif" font-size="10.00">::OperatorNode &gt;</text>
</a>
</g>
</g>
<!-- Node12&#45;&gt;Node14 -->
<g id="edge23_Node000014_Node000012" class="edge">
<title>Node12&#45;&gt;Node14</title>
<g id="a_edge23_Node000014_Node000012"><a xlink:title=" ">
<path fill="none" stroke="orange" stroke-dasharray="5,2" d="M571.06,-437.43C579.37,-438.87 587.89,-440.13 596,-441 856.48,-468.8 1170.59,-463.42 1293.53,-459.83"/>
<polygon fill="orange" stroke="orange" points="571.86,-434.02 561.39,-435.67 570.6,-440.91 571.86,-434.02"/>
</a>
</g>
<text text-anchor="start" x="888" y="-476" font-family="Helvetica,sans-Serif" font-size="10.00" fill="grey"> &lt; Harlinn::AI::DML</text>
<text text-anchor="middle" x="950" y="-465" font-family="Helvetica,sans-Serif" font-size="10.00" fill="grey">::X::Internal::OperatorNode &gt;</text>
</g>
<!-- Node12&#45;&gt;Node18 -->
<g id="edge20_Node000018_Node000012" class="edge">
<title>Node12&#45;&gt;Node18</title>
<g id="a_edge20_Node000018_Node000012"><a xlink:title=" ">
<path fill="none" stroke="orange" stroke-dasharray="5,2" d="M541.69,-441.96C556.65,-451.28 576.72,-462.47 596,-469 646.23,-486.02 706.53,-493.72 748.78,-497.19"/>
<polygon fill="orange" stroke="orange" points="543.81,-439.16 533.5,-436.7 540.03,-445.05 543.81,-439.16"/>
</a>
</g>
<text text-anchor="start" x="596" y="-507" font-family="Helvetica,sans-Serif" font-size="10.00" fill="grey"> &lt; Harlinn::AI::DML</text>
<text text-anchor="middle" x="657.5" y="-496" font-family="Helvetica,sans-Serif" font-size="10.00" fill="grey">::X::Internal::NodeOutput * &gt;</text>
</g>
<!-- Node21 -->
<g id="Node000021" class="node">
<title>Node21</title>
<g id="a_Node000021"><a xlink:title=" ">
<polygon fill="white" stroke="#666666" points="1146.5,-329.5 1039.5,-329.5 1039.5,-288.5 1146.5,-288.5 1146.5,-329.5"/>
<text text-anchor="start" x="1047.5" y="-317.5" font-family="Helvetica,sans-Serif" font-size="10.00">std::vector&lt; Harlinn</text>
<text text-anchor="start" x="1047.5" y="-306.5" font-family="Helvetica,sans-Serif" font-size="10.00">::AI::DML::X::Internal</text>
<text text-anchor="middle" x="1093" y="-295.5" font-family="Helvetica,sans-Serif" font-size="10.00">::ReinterpretNode &gt;</text>
</a>
</g>
</g>
<!-- Node12&#45;&gt;Node21 -->
<g id="edge27_Node000021_Node000012" class="edge">
<title>Node12&#45;&gt;Node21</title>
<g id="a_edge27_Node000021_Node000012"><a xlink:title=" ">
<path fill="none" stroke="orange" stroke-dasharray="5,2" d="M541.39,-409.91C556.37,-400.36 576.57,-388.82 596,-382 666.74,-357.16 980,-337.46 1014,-331 1022.16,-329.45 1030.69,-327.45 1039.01,-325.28"/>
<polygon fill="orange" stroke="orange" points="539.64,-406.88 533.2,-415.29 543.48,-412.73 539.64,-406.88"/>
</a>
</g>
<text text-anchor="start" x="751" y="-382" font-family="Helvetica,sans-Serif" font-size="10.00" fill="grey"> &lt; Harlinn::AI::DML</text>
<text text-anchor="start" x="751" y="-371" font-family="Helvetica,sans-Serif" font-size="10.00" fill="grey">::X::Internal::Reinterpret</text>
<text text-anchor="middle" x="802.5" y="-360" font-family="Helvetica,sans-Serif" font-size="10.00" fill="grey">Node &gt;</text>
</g>
<!-- Node23 -->
<g id="Node000023" class="node">
<title>Node23</title>
<g id="a_Node000023"><a xlink:title=" ">
<polygon fill="white" stroke="#666666" points="1401,-419.5 1294,-419.5 1294,-378.5 1401,-378.5 1401,-419.5"/>
<text text-anchor="start" x="1302" y="-407.5" font-family="Helvetica,sans-Serif" font-size="10.00">std::vector&lt; Harlinn</text>
<text text-anchor="start" x="1302" y="-396.5" font-family="Helvetica,sans-Serif" font-size="10.00">::AI::DML::X::Internal</text>
<text text-anchor="middle" x="1347.5" y="-385.5" font-family="Helvetica,sans-Serif" font-size="10.00">::ConstantNode &gt;</text>
</a>
</g>
</g>
<!-- Node12&#45;&gt;Node23 -->
<g id="edge34_Node000023_Node000012" class="edge">
<title>Node12&#45;&gt;Node23</title>
<g id="a_edge34_Node000023_Node000012"><a xlink:title=" ">
<path fill="none" stroke="orange" stroke-dasharray="5,2" d="M570.15,-413.9C578.75,-412.31 587.59,-410.92 596,-410 856.38,-381.64 1170.54,-391.03 1293.52,-396.38"/>
<polygon fill="orange" stroke="orange" points="569.69,-410.42 560.55,-415.78 571.03,-417.29 569.69,-410.42"/>
</a>
</g>
<text text-anchor="start" x="887" y="-406" font-family="Helvetica,sans-Serif" font-size="10.00" fill="grey"> &lt; Harlinn::AI::DML</text>
<text text-anchor="middle" x="950" y="-395" font-family="Helvetica,sans-Serif" font-size="10.00" fill="grey">::X::Internal::ConstantNode &gt;</text>
</g>
<!-- Node13 -->
<g id="Node000013" class="node">
<title>Node13</title>
<g id="a_Node000013"><a xlink:title=" ">
<polygon fill="white" stroke="#666666" points="315.5,-288.5 286.5,-288.5 286.5,-269.5 315.5,-269.5 315.5,-288.5"/>
<text text-anchor="middle" x="301" y="-276.5" font-family="Helvetica,sans-Serif" font-size="10.00">T</text>
</a>
</g>
</g>
<!-- Node13&#45;&gt;Node12 -->
<g id="edge12_Node000012_Node000013" class="edge">
<title>Node13&#45;&gt;Node12</title>
<g id="a_edge12_Node000012_Node000013"><a xlink:title=" ">
<path fill="none" stroke="#9a32cd" stroke-dasharray="5,2" d="M325.07,-294.85C369.37,-325.28 465.16,-391.08 501.56,-416.08"/>
<polygon fill="#9a32cd" stroke="#9a32cd" points="327.18,-292.05 316.96,-289.28 323.22,-297.82 327.18,-292.05"/>
</a>
</g>
<text text-anchor="middle" x="409" y="-372" font-family="Helvetica,sans-Serif" font-size="10.00" fill="grey"> elements</text>
</g>
<!-- Node26 -->
<g id="Node000026" class="node">
<title>Node26</title>
<g id="a_Node000026"><a xlink:title=" ">
<polygon fill="white" stroke="#666666" points="557,-307.5 477,-307.5 477,-288.5 557,-288.5 557,-307.5"/>
<text text-anchor="middle" x="517" y="-295.5" font-family="Helvetica,sans-Serif" font-size="10.00">std::span&lt; T &gt;</text>
</a>
</g>
</g>
<!-- Node13&#45;&gt;Node26 -->
<g id="edge32_Node000026_Node000013" class="edge">
<title>Node13&#45;&gt;Node26</title>
<g id="a_edge32_Node000026_Node000013"><a xlink:title=" ">
<path fill="none" stroke="#9a32cd" stroke-dasharray="5,2" d="M326.85,-281.21C363.61,-284.47 432.82,-290.61 476.56,-294.5"/>
<polygon fill="#9a32cd" stroke="#9a32cd" points="327.49,-277.75 317.22,-280.35 326.87,-284.72 327.49,-277.75"/>
</a>
</g>
<text text-anchor="middle" x="409" y="-293" font-family="Helvetica,sans-Serif" font-size="10.00" fill="grey"> elements</text>
</g>
<!-- Node28 -->
<g id="Node000028" class="node">
<title>Node28</title>
<g id="a_Node000028"><a xlink:title=" ">
<polygon fill="white" stroke="#666666" points="560,-212.5 474,-212.5 474,-193.5 560,-193.5 560,-212.5"/>
<text text-anchor="middle" x="517" y="-200.5" font-family="Helvetica,sans-Serif" font-size="10.00">std::deque&lt; T &gt;</text>
</a>
</g>
</g>
<!-- Node13&#45;&gt;Node28 -->
<g id="edge38_Node000028_Node000013" class="edge">
<title>Node13&#45;&gt;Node28</title>
<g id="a_edge38_Node000028_Node000013"><a xlink:title=" ">
<path fill="none" stroke="#9a32cd" stroke-dasharray="5,2" d="M326.48,-270.17C341.84,-264.64 362.07,-257.38 380,-251 417.15,-237.78 460.07,-222.65 487.59,-212.98"/>
<polygon fill="#9a32cd" stroke="#9a32cd" points="325.45,-266.83 317.22,-273.51 327.82,-273.41 325.45,-266.83"/>
</a>
</g>
<text text-anchor="middle" x="409" y="-254" font-family="Helvetica,sans-Serif" font-size="10.00" fill="grey"> elements</text>
</g>
<!-- Node30 -->
<g id="Node000030" class="node">
<title>Node30</title>
<g id="a_Node000030"><a xlink:title=" ">
<polygon fill="white" stroke="#666666" points="558.5,-269.5 475.5,-269.5 475.5,-250.5 558.5,-250.5 558.5,-269.5"/>
<text text-anchor="middle" x="517" y="-257.5" font-family="Helvetica,sans-Serif" font-size="10.00">std::stack&lt; T &gt;</text>
</a>
</g>
</g>
<!-- Node13&#45;&gt;Node30 -->
<g id="edge42_Node000030_Node000013" class="edge">
<title>Node13&#45;&gt;Node30</title>
<g id="a_edge42_Node000030_Node000013"><a xlink:title=" ">
<path fill="none" stroke="#9a32cd" stroke-dasharray="5,2" d="M326.93,-276.3C342.24,-274.68 362.24,-272.63 380,-271 411.96,-268.07 448.19,-265.16 475.22,-263.07"/>
<polygon fill="#9a32cd" stroke="#9a32cd" points="326.88,-272.79 317.3,-277.33 327.62,-279.75 326.88,-272.79"/>
</a>
</g>
<text text-anchor="middle" x="409" y="-274" font-family="Helvetica,sans-Serif" font-size="10.00" fill="grey"> elements</text>
</g>
<!-- Node14&#45;&gt;Node4 -->
<g id="edge13_Node000004_Node000014" class="edge">
<title>Node14&#45;&gt;Node4</title>
<g id="a_edge13_Node000004_Node000014"><a xlink:title=" ">
<path fill="none" stroke="#9a32cd" stroke-dasharray="5,2" d="M1412.3,-449.59C1445.73,-445.18 1486.33,-439.82 1518.74,-435.55"/>
<polygon fill="#9a32cd" stroke="#9a32cd" points="1412.22,-446.07 1402.77,-450.84 1413.14,-453.01 1412.22,-446.07"/>
</a>
</g>
<text text-anchor="middle" x="1460" y="-451" font-family="Helvetica,sans-Serif" font-size="10.00" fill="grey"> m_operatorNodes</text>
</g>
<!-- Node15 -->
<g id="Node000015" class="node">
<title>Node15</title>
<g id="a_Node000015"><a xlink:href="struct_harlinn_1_1_a_i_1_1_d_m_l_1_1_x_1_1_internal_1_1_operator_node.html" target="_top" xlink:title=" ">
<polygon fill="white" stroke="#666666" points="1153,-536 1033,-536 1033,-506 1153,-506 1153,-536"/>
<text text-anchor="start" x="1041" y="-524" font-family="Helvetica,sans-Serif" font-size="10.00">Harlinn::AI::DML::X</text>
<text text-anchor="middle" x="1093" y="-513" font-family="Helvetica,sans-Serif" font-size="10.00">::Internal::OperatorNode</text>
</a>
</g>
</g>
<!-- Node15&#45;&gt;Node14 -->
<g id="edge14_Node000014_Node000015" class="edge">
<title>Node15&#45;&gt;Node14</title>
<g id="a_edge14_Node000014_Node000015"><a xlink:title=" ">
<path fill="none" stroke="#9a32cd" stroke-dasharray="5,2" d="M1164.21,-503.48C1205.21,-493.25 1256.1,-480.56 1293.68,-471.18"/>
<polygon fill="#9a32cd" stroke="#9a32cd" points="1163.52,-500.05 1154.67,-505.86 1165.22,-506.84 1163.52,-500.05"/>
</a>
</g>
<text text-anchor="middle" x="1224" y="-503" font-family="Helvetica,sans-Serif" font-size="10.00" fill="grey"> elements</text>
</g>
<!-- Node16 -->
<g id="Node000016" class="node">
<title>Node16</title>
<g id="a_Node000016"><a xlink:href="class_harlinn_1_1_a_i_1_1_d_m_l_1_1_operator.html" target="_top" xlink:title=" ">
<polygon fill="white" stroke="#666666" points="868,-632.5 737,-632.5 737,-613.5 868,-613.5 868,-632.5"/>
<text text-anchor="middle" x="802.5" y="-620.5" font-family="Helvetica,sans-Serif" font-size="10.00">Harlinn::AI::DML::Operator</text>
</a>
</g>
</g>
<!-- Node16&#45;&gt;Node15 -->
<g id="edge15_Node000015_Node000016" class="edge">
<title>Node16&#45;&gt;Node15</title>
<g id="a_edge15_Node000015_Node000016"><a xlink:title=" ">
<path fill="none" stroke="#9a32cd" stroke-dasharray="5,2" d="M874.8,-610.85C916.44,-602.35 969.4,-589.06 1014,-570 1034.74,-561.14 1056.29,-547.18 1071.47,-536.42"/>
<polygon fill="#9a32cd" stroke="#9a32cd" points="874.26,-607.39 865.13,-612.78 875.62,-614.26 874.26,-607.39"/>
</a>
</g>
<text text-anchor="middle" x="950" y="-610" font-family="Helvetica,sans-Serif" font-size="10.00" fill="grey"> op</text>
</g>
<!-- Node17&#45;&gt;Node16 -->
<g id="edge16_Node000016_Node000017" class="edge">
<title>Node17&#45;&gt;Node16</title>
<g id="a_edge16_Node000016_Node000017"><a xlink:title=" ">
<path fill="none" stroke="#63b8ff" d="M589.96,-623.75C635.15,-623.59 692.93,-623.38 736.68,-623.23"/>
<polygon fill="#63b8ff" stroke="#63b8ff" points="589.97,-620.25 579.98,-623.78 590,-627.25 589.97,-620.25"/>
</a>
</g>
</g>
<!-- Node18&#45;&gt;Node15 -->
<g id="edge18_Node000015_Node000018" class="edge">
<title>Node18&#45;&gt;Node15</title>
<g id="a_edge18_Node000015_Node000018"><a xlink:title=" ">
<path fill="none" stroke="#9a32cd" stroke-dasharray="5,2" d="M867.59,-493.69C909.48,-490.9 965.27,-489.67 1014,-497 1025.91,-498.79 1038.51,-502.04 1050.03,-505.58"/>
<polygon fill="#9a32cd" stroke="#9a32cd" points="867.39,-490.2 857.67,-494.41 867.89,-497.18 867.39,-490.2"/>
</a>
</g>
<text text-anchor="middle" x="950" y="-500" font-family="Helvetica,sans-Serif" font-size="10.00" fill="grey"> inputs</text>
</g>
<!-- Node19 -->
<g id="Node000019" class="node">
<title>Node19</title>
<g id="a_Node000019"><a xlink:title=" ">
<polygon fill="white" stroke="#666666" points="832.5,-568.5 772.5,-568.5 772.5,-549.5 832.5,-549.5 832.5,-568.5"/>
<text text-anchor="middle" x="802.5" y="-556.5" font-family="Helvetica,sans-Serif" font-size="10.00">std::string</text>
</a>
</g>
</g>
<!-- Node19&#45;&gt;Node4 -->
<g id="edge39_Node000004_Node000019" class="edge">
<title>Node19&#45;&gt;Node4</title>
<g id="a_edge39_Node000004_Node000019"><a xlink:title=" ">
<path fill="none" stroke="#9a32cd" stroke-dasharray="5,2" d="M844.04,-565.49C857.37,-567.34 872.28,-569.09 886,-570 942.76,-573.77 957.33,-575.02 1014,-570 1189.13,-554.49 1230.05,-529.09 1401,-488 1445.54,-477.29 1457.82,-478.31 1501,-463 1516.3,-457.57 1532.71,-450.12 1546.26,-443.48"/>
<polygon fill="#9a32cd" stroke="#9a32cd" points="844.7,-562.05 834.3,-564.09 843.7,-568.98 844.7,-562.05"/>
</a>
</g>
<text text-anchor="middle" x="1224" y="-549" font-family="Helvetica,sans-Serif" font-size="10.00" fill="grey"> m_name</text>
</g>
<!-- Node19&#45;&gt;Node15 -->
<g id="edge21_Node000015_Node000019" class="edge">
<title>Node19&#45;&gt;Node15</title>
<g id="a_edge21_Node000015_Node000019"><a xlink:title=" ">
<path fill="none" stroke="#9a32cd" stroke-dasharray="5,2" d="M844.3,-557.91C886.91,-556.25 955.55,-552.14 1014,-542 1022.43,-540.54 1031.27,-538.58 1039.85,-536.45"/>
<polygon fill="#9a32cd" stroke="#9a32cd" points="844.38,-554.4 834.51,-558.26 844.63,-561.4 844.38,-554.4"/>
</a>
</g>
<text text-anchor="middle" x="950" y="-558" font-family="Helvetica,sans-Serif" font-size="10.00" fill="grey"> name</text>
</g>
<!-- Node24 -->
<g id="Node000024" class="node">
<title>Node24</title>
<g id="a_Node000024"><a xlink:href="struct_harlinn_1_1_a_i_1_1_d_m_l_1_1_x_1_1_internal_1_1_constant_node.html" target="_top" xlink:title=" ">
<polygon fill="white" stroke="#666666" points="1154,-378 1032,-378 1032,-348 1154,-348 1154,-378"/>
<text text-anchor="start" x="1040" y="-366" font-family="Helvetica,sans-Serif" font-size="10.00">Harlinn::AI::DML::X</text>
<text text-anchor="middle" x="1093" y="-355" font-family="Helvetica,sans-Serif" font-size="10.00">::Internal::ConstantNode</text>
</a>
</g>
</g>
<!-- Node19&#45;&gt;Node24 -->
<g id="edge33_Node000024_Node000019" class="edge">
<title>Node19&#45;&gt;Node24</title>
<g id="a_edge33_Node000024_Node000019"><a xlink:title=" ">
<path fill="none" stroke="#9a32cd" stroke-dasharray="5,2" d="M837.9,-544.87C852.53,-539.28 869.9,-533.21 886,-529 941.78,-514.42 967.08,-541.49 1014,-508 1059.37,-475.62 1080.88,-408.44 1088.55,-378.26"/>
<polygon fill="#9a32cd" stroke="#9a32cd" points="836.76,-541.55 828.72,-548.45 839.31,-548.07 836.76,-541.55"/>
</a>
</g>
<text text-anchor="middle" x="950" y="-532" font-family="Helvetica,sans-Serif" font-size="10.00" fill="grey"> name</text>
</g>
<!-- Node20 -->
<g id="Node000020" class="node">
<title>Node20</title>
<g id="a_Node000020"><a xlink:title=" ">
<polygon fill="white" stroke="#666666" points="564.5,-569 469.5,-569 469.5,-539 564.5,-539 564.5,-569"/>
<text text-anchor="start" x="477.5" y="-557" font-family="Helvetica,sans-Serif" font-size="10.00">std::basic_string&lt;</text>
<text text-anchor="middle" x="517" y="-546" font-family="Helvetica,sans-Serif" font-size="10.00"> Char &gt;</text>
</a>
</g>
</g>
<!-- Node20&#45;&gt;Node19 -->
<g id="edge22_Node000019_Node000020" class="edge">
<title>Node20&#45;&gt;Node19</title>
<g id="a_edge22_Node000019_Node000020"><a xlink:title=" ">
<path fill="none" stroke="#63b8ff" d="M576.29,-555.03C635.84,-556.08 725.89,-557.67 772,-558.48"/>
<polygon fill="#63b8ff" stroke="#63b8ff" points="576.39,-551.53 566.33,-554.85 576.26,-558.53 576.39,-551.53"/>
</a>
</g>
</g>
<!-- Node21&#45;&gt;Node4 -->
<g id="edge24_Node000004_Node000021" class="edge">
<title>Node21&#45;&gt;Node4</title>
<g id="a_edge24_Node000004_Node000021"><a xlink:title=" ">
<path fill="none" stroke="#9a32cd" stroke-dasharray="5,2" d="M1158.17,-315.4C1220.88,-322.6 1318.65,-336.34 1401,-359 1452.01,-373.04 1508.54,-396.94 1543.18,-412.6"/>
<polygon fill="#9a32cd" stroke="#9a32cd" points="1158.71,-311.94 1148.39,-314.3 1157.93,-318.89 1158.71,-311.94"/>
</a>
</g>
<text text-anchor="middle" x="1347.5" y="-362" font-family="Helvetica,sans-Serif" font-size="10.00" fill="grey"> m_reinterpretNodes</text>
</g>
<!-- Node22&#45;&gt;Node21 -->
<g id="edge25_Node000021_Node000022" class="edge">
<title>Node22&#45;&gt;Node21</title>
<g id="a_edge25_Node000021_Node000022"><a xlink:title=" ">
<path fill="none" stroke="#9a32cd" stroke-dasharray="5,2" d="M858.63,-228.11C910.61,-246.13 987.97,-272.94 1039.18,-290.69"/>
<polygon fill="#9a32cd" stroke="#9a32cd" points="859.97,-224.87 849.38,-224.9 857.68,-231.48 859.97,-224.87"/>
</a>
</g>
<text text-anchor="middle" x="950" y="-282" font-family="Helvetica,sans-Serif" font-size="10.00" fill="grey"> elements</text>
</g>
<!-- Node23&#45;&gt;Node4 -->
<g id="edge28_Node000004_Node000023" class="edge">
<title>Node23&#45;&gt;Node4</title>
<g id="a_edge28_Node000004_Node000023"><a xlink:title=" ">
<path fill="none" stroke="#9a32cd" stroke-dasharray="5,2" d="M1412.79,-406.89C1440.01,-410.26 1472.06,-414.27 1501,-418 1506.73,-418.74 1512.71,-419.52 1518.68,-420.31"/>
<polygon fill="#9a32cd" stroke="#9a32cd" points="1413.3,-403.42 1402.95,-405.67 1412.44,-410.37 1413.3,-403.42"/>
</a>
</g>
<text text-anchor="middle" x="1460" y="-421" font-family="Helvetica,sans-Serif" font-size="10.00" fill="grey"> m_constantNodes</text>
</g>
<!-- Node24&#45;&gt;Node23 -->
<g id="edge29_Node000023_Node000024" class="edge">
<title>Node24&#45;&gt;Node23</title>
<g id="a_edge29_Node000023_Node000024"><a xlink:title=" ">
<path fill="none" stroke="#9a32cd" stroke-dasharray="5,2" d="M1165.3,-367.54C1199.03,-370.33 1239.76,-374.62 1276,-381 1281.72,-382.01 1287.67,-383.23 1293.56,-384.57"/>
<polygon fill="#9a32cd" stroke="#9a32cd" points="1165.91,-364.08 1155.66,-366.77 1165.35,-371.05 1165.91,-364.08"/>
</a>
</g>
<text text-anchor="middle" x="1224" y="-384" font-family="Helvetica,sans-Serif" font-size="10.00" fill="grey"> elements</text>
</g>
<!-- Node25 -->
<g id="Node000025" class="node">
<title>Node25</title>
<g id="a_Node000025"><a xlink:title=" ">
<polygon fill="white" stroke="#666666" points="863.5,-308.5 741.5,-308.5 741.5,-289.5 863.5,-289.5 863.5,-308.5"/>
<text text-anchor="middle" x="802.5" y="-296.5" font-family="Helvetica,sans-Serif" font-size="10.00">std::span&lt; const Byte &gt;</text>
</a>
</g>
</g>
<!-- Node25&#45;&gt;Node24 -->
<g id="edge30_Node000024_Node000025" class="edge">
<title>Node25&#45;&gt;Node24</title>
<g id="a_edge30_Node000024_Node000025"><a xlink:title=" ">
<path fill="none" stroke="#9a32cd" stroke-dasharray="5,2" d="M859.71,-311.47C909.19,-322.45 981.04,-338.38 1031.7,-349.62"/>
<polygon fill="#9a32cd" stroke="#9a32cd" points="860.58,-308.08 850.06,-309.33 859.06,-314.91 860.58,-308.08"/>
</a>
</g>
<text text-anchor="middle" x="950" y="-347" font-family="Helvetica,sans-Serif" font-size="10.00" fill="grey"> data</text>
</g>
<!-- Node26&#45;&gt;Node25 -->
<g id="edge31_Node000025_Node000026" class="edge">
<title>Node26&#45;&gt;Node25</title>
<g id="a_edge31_Node000025_Node000026"><a xlink:title=" ">
<path fill="none" stroke="orange" stroke-dasharray="5,2" d="M568.85,-298.18C617.18,-298.35 689.88,-298.61 741.13,-298.79"/>
<polygon fill="orange" stroke="orange" points="568.95,-294.68 558.93,-298.14 568.92,-301.68 568.95,-294.68"/>
</a>
</g>
<text text-anchor="middle" x="657.5" y="-301" font-family="Helvetica,sans-Serif" font-size="10.00" fill="grey"> &lt; const Byte &gt;</text>
</g>
<!-- Node27&#45;&gt;Node4 -->
<g id="edge35_Node000004_Node000027" class="edge">
<title>Node27&#45;&gt;Node4</title>
<g id="a_edge35_Node000004_Node000027"><a xlink:title=" ">
<path fill="none" stroke="#9a32cd" stroke-dasharray="5,2" d="M867.14,-148.18C999.32,-137.5 1307.33,-131.17 1501,-276 1547.19,-310.54 1566.61,-381.29 1573.18,-412.56"/>
<polygon fill="#9a32cd" stroke="#9a32cd" points="867.22,-144.66 857.55,-148.99 867.81,-151.63 867.22,-144.66"/>
</a>
</g>
<text text-anchor="middle" x="1224" y="-177" font-family="Helvetica,sans-Serif" font-size="10.00" fill="grey"> m_nodeOutputs</text>
</g>
<!-- Node28&#45;&gt;Node27 -->
<g id="edge37_Node000027_Node000028" class="edge">
<title>Node28&#45;&gt;Node27</title>
<g id="a_edge37_Node000027_Node000028"><a xlink:title=" ">
<path fill="none" stroke="orange" stroke-dasharray="5,2" d="M550.47,-188.74C564.26,-183.26 580.66,-177.5 596,-174 647,-162.38 706.67,-157.83 748.53,-156.07"/>
<polygon fill="orange" stroke="orange" points="549.37,-185.41 541.45,-192.44 552.03,-191.88 549.37,-185.41"/>
</a>
</g>
<text text-anchor="start" x="599.5" y="-188" font-family="Helvetica,sans-Serif" font-size="10.00" fill="grey"> &lt; Harlinn::AI::DML</text>
<text text-anchor="middle" x="657.5" y="-177" font-family="Helvetica,sans-Serif" font-size="10.00" fill="grey">::X::Internal::NodeOutput &gt;</text>
</g>
<!-- Node29 -->
<g id="Node000029" class="node">
<title>Node29</title>
<g id="a_Node000029"><a xlink:title=" ">
<polygon fill="white" stroke="#666666" points="1276,-279.5 1172,-279.5 1172,-260.5 1276,-260.5 1276,-279.5"/>
<text text-anchor="middle" x="1224" y="-267.5" font-family="Helvetica,sans-Serif" font-size="10.00">std::stack&lt; size_t &gt;</text>
</a>
</g>
</g>
<!-- Node29&#45;&gt;Node4 -->
<g id="edge40_Node000004_Node000029" class="edge">
<title>Node29&#45;&gt;Node4</title>
<g id="a_edge40_Node000004_Node000029"><a xlink:title=" ">
<path fill="none" stroke="#9a32cd" stroke-dasharray="5,2" d="M1287.53,-265.7C1347.23,-264.68 1437.29,-271.5 1501,-314 1537.66,-338.45 1560.64,-387.55 1570.47,-412.58"/>
<polygon fill="#9a32cd" stroke="#9a32cd" points="1287.8,-262.19 1277.89,-265.95 1287.98,-269.19 1287.8,-262.19"/>
</a>
</g>
<text text-anchor="middle" x="1347.5" y="-277" font-family="Helvetica,sans-Serif" font-size="10.00" fill="grey"> m_nameSubLengths</text>
</g>
<!-- Node30&#45;&gt;Node29 -->
<g id="edge41_Node000029_Node000030" class="edge">
<title>Node30&#45;&gt;Node29</title>
<g id="a_edge41_Node000029_Node000030"><a xlink:title=" ">
<path fill="none" stroke="orange" stroke-dasharray="5,2" d="M570.22,-260.74C701.09,-262.6 1041.88,-267.43 1171.73,-269.27"/>
<polygon fill="orange" stroke="orange" points="570.51,-257.24 560.46,-260.6 570.41,-264.24 570.51,-257.24"/>
</a>
</g>
<text text-anchor="middle" x="802.5" y="-267" font-family="Helvetica,sans-Serif" font-size="10.00" fill="grey"> &lt; size_t &gt;</text>
</g>
<!-- Node31 -->
<g id="Node000031" class="node">
<title>Node31</title>
<g id="a_Node000031"><a xlink:href="struct_harlinn_1_1_a_i_1_1_d_m_l_1_1_x_1_1_internal_1_1_node_i_d.html" target="_top" xlink:title=" ">
<polygon fill="white" stroke="#666666" points="350.5,-171 251.5,-171 251.5,-141 350.5,-141 350.5,-171"/>
<text text-anchor="start" x="259.5" y="-159" font-family="Helvetica,sans-Serif" font-size="10.00">Harlinn::AI::DML::X</text>
<text text-anchor="middle" x="301" y="-148" font-family="Helvetica,sans-Serif" font-size="10.00">::Internal::NodeID</text>
</a>
</g>
</g>
<!-- Node31&#45;&gt;Node3 -->
<g id="edge43_Node000003_Node000031" class="edge">
<title>Node31&#45;&gt;Node3</title>
<g id="a_edge43_Node000003_Node000031"><a xlink:title=" ">
<path fill="none" stroke="#9a32cd" stroke-dasharray="5,2" d="M361.9,-151.24C392.84,-148.78 430.33,-145.81 460.59,-143.4"/>
<polygon fill="#9a32cd" stroke="#9a32cd" points="362.03,-147.72 352.34,-152 362.58,-154.7 362.03,-147.72"/>
</a>
</g>
<text text-anchor="middle" x="409" y="-152" font-family="Helvetica,sans-Serif" font-size="10.00" fill="grey"> node_</text>
</g>
<!-- Node32 -->
<g id="Node000032" class="node">
<title>Node32</title>
<g id="a_Node000032"><a xlink:href="struct_harlinn_1_1_a_i_1_1_d_m_l_1_1_x_1_1_tensor_desc.html" target="_top" xlink:title=" ">
<polygon fill="white" stroke="#666666" points="350.5,-123 251.5,-123 251.5,-93 350.5,-93 350.5,-123"/>
<text text-anchor="start" x="259.5" y="-111" font-family="Helvetica,sans-Serif" font-size="10.00">Harlinn::AI::DML::X</text>
<text text-anchor="middle" x="301" y="-100" font-family="Helvetica,sans-Serif" font-size="10.00">::TensorDesc</text>
</a>
</g>
</g>
<!-- Node32&#45;&gt;Node3 -->
<g id="edge44_Node000003_Node000032" class="edge">
<title>Node32&#45;&gt;Node3</title>
<g id="a_edge44_Node000003_Node000032"><a xlink:title=" ">
<path fill="none" stroke="#9a32cd" stroke-dasharray="5,2" d="M361.9,-116.68C392.84,-121.16 430.33,-126.59 460.59,-130.97"/>
<polygon fill="#9a32cd" stroke="#9a32cd" points="362.72,-113.26 352.33,-115.29 361.72,-120.19 362.72,-113.26"/>
</a>
</g>
<text text-anchor="middle" x="409" y="-130" font-family="Helvetica,sans-Serif" font-size="10.00" fill="grey"> tensorDesc_</text>
</g>
<!-- Node33 -->
<g id="Node000033" class="node">
<title>Node33</title>
<g id="a_Node000033"><a xlink:href="struct_harlinn_1_1_a_i_1_1_d_m_l_1_1_buffer_tensor_desc.html" target="_top" xlink:title=" ">
<polygon fill="white" stroke="#666666" points="132.5,-102 13.5,-102 13.5,-72 132.5,-72 132.5,-102"/>
<text text-anchor="start" x="21.5" y="-90" font-family="Helvetica,sans-Serif" font-size="10.00">Harlinn::AI::DML::Buffer</text>
<text text-anchor="middle" x="73" y="-79" font-family="Helvetica,sans-Serif" font-size="10.00">TensorDesc</text>
</a>
</g>
</g>
<!-- Node33&#45;&gt;Node32 -->
<g id="edge45_Node000032_Node000033" class="edge">
<title>Node33&#45;&gt;Node32</title>
<g id="a_edge45_Node000032_Node000033"><a xlink:title=" ">
<path fill="none" stroke="#9a32cd" stroke-dasharray="5,2" d="M144.22,-90.7C168.85,-92.27 196.68,-94.36 222,-97 231.52,-97.99 241.67,-99.26 251.39,-100.59"/>
<polygon fill="#9a32cd" stroke="#9a32cd" points="144.49,-87.21 134.29,-90.08 144.06,-94.19 144.49,-87.21"/>
</a>
</g>
<text text-anchor="middle" x="193" y="-100" font-family="Helvetica,sans-Serif" font-size="10.00" fill="grey"> bufferDesc_</text>
</g>
<!-- Node34 -->
<g id="Node000034" class="node">
<title>Node34</title>
<g id="a_Node000034"><a xlink:href="struct_harlinn_1_1_a_i_1_1_d_m_l_1_1_tensor_desc.html" target="_top" xlink:title=" ">
<polygon fill="white" stroke="#666666" points="146,-139.5 0,-139.5 0,-120.5 146,-120.5 146,-139.5"/>
<text text-anchor="middle" x="73" y="-127.5" font-family="Helvetica,sans-Serif" font-size="10.00">Harlinn::AI::DML::TensorDesc</text>
</a>
</g>
</g>
<!-- Node34&#45;&gt;Node32 -->
<g id="edge46_Node000032_Node000034" class="edge">
<title>Node34&#45;&gt;Node32</title>
<g id="a_edge46_Node000032_Node000034"><a xlink:title=" ">
<path fill="none" stroke="#9a32cd" stroke-dasharray="5,2" d="M157.85,-121.84C189.28,-118.78 223.93,-115.4 251.16,-112.75"/>
<polygon fill="#9a32cd" stroke="#9a32cd" points="157.56,-118.35 147.95,-122.8 158.24,-125.32 157.56,-118.35"/>
</a>
</g>
<text text-anchor="middle" x="193" y="-123" font-family="Helvetica,sans-Serif" font-size="10.00" fill="grey"> tensorDesc_</text>
</g>
<!-- Node35 -->
<g id="Node000035" class="node">
<title>Node35</title>
<g id="a_Node000035"><a xlink:href="struct_harlinn_1_1_a_i_1_1_d_m_l_1_1_x_1_1_fused_activation.html" target="_top" xlink:title=" ">
<polygon fill="white" stroke="#666666" points="852,-78 753,-78 753,-48 852,-48 852,-78"/>
<text text-anchor="start" x="761" y="-66" font-family="Helvetica,sans-Serif" font-size="10.00">Harlinn::AI::DML::X</text>
<text text-anchor="middle" x="802.5" y="-55" font-family="Helvetica,sans-Serif" font-size="10.00">::FusedActivation</text>
</a>
</g>
</g>
<!-- Node35&#45;&gt;Node1 -->
<g id="edge47_Node000001_Node000035" class="edge">
<title>Node35&#45;&gt;Node1</title>
<g id="a_edge47_Node000001_Node000035"><a xlink:title=" ">
<path fill="none" stroke="#9a32cd" stroke-dasharray="5,2" d="M863.67,-57.37C916.44,-52.43 992.29,-45.33 1041.85,-40.69"/>
<polygon fill="#9a32cd" stroke="#9a32cd" points="863.58,-53.86 853.95,-58.28 864.23,-60.83 863.58,-53.86"/>
</a>
</g>
<text text-anchor="middle" x="950" y="-58" font-family="Helvetica,sans-Serif" font-size="10.00" fill="grey"> fusedActivation_</text>
</g>
</g>
</svg>
