<?xml version="1.0" encoding="UTF-8" standalone="no"?>
<!DOCTYPE svg PUBLIC "-//W3C//DTD SVG 1.1//EN"
 "http://www.w3.org/Graphics/SVG/1.1/DTD/svg11.dtd">
<!-- Generated by graphviz version 7.0.1 (20221109.1506)
 -->
<!-- Title: Harlinn::Math::Vector&lt; float, 4 &gt; Pages: 1 -->
<svg width="639pt" height="98pt"
 viewBox="0.00 0.00 639.00 97.50" xmlns="http://www.w3.org/2000/svg" xmlns:xlink="http://www.w3.org/1999/xlink">
<g id="graph0" class="graph" transform="scale(1 1) rotate(0) translate(4 93.5)">
<title>Harlinn::Math::Vector&lt; float, 4 &gt;</title>
<!-- Node1 -->
<g id="Node000001" class="node">
<title>Node1</title>
<g id="a_Node000001"><a xlink:title=" ">
<polygon fill="#999999" stroke="#666666" points="631,-42 522,-42 522,-12 631,-12 631,-42"/>
<text text-anchor="start" x="530" y="-30" font-family="Helvetica,sans-Serif" font-size="10.00">Harlinn::Math::Vector</text>
<text text-anchor="middle" x="576.5" y="-19" font-family="Helvetica,sans-Serif" font-size="10.00">&lt; float, 4 &gt;</text>
</a>
</g>
</g>
<!-- Node2 -->
<g id="Node000002" class="node">
<title>Node2</title>
<g id="a_Node000002"><a xlink:href="class_harlinn_1_1_math_1_1_tuple4.html" target="_top" xlink:title=" ">
<polygon fill="white" stroke="#666666" points="483.5,-89.5 374.5,-89.5 374.5,-48.5 483.5,-48.5 483.5,-89.5"/>
<text text-anchor="start" x="382.5" y="-77.5" font-family="Helvetica,sans-Serif" font-size="10.00">Harlinn::Math::Tuple4</text>
<text text-anchor="start" x="382.5" y="-66.5" font-family="Helvetica,sans-Serif" font-size="10.00">&lt; Vector&lt; float, 4 &gt;,</text>
<text text-anchor="middle" x="429" y="-55.5" font-family="Helvetica,sans-Serif" font-size="10.00"> float &gt;</text>
</a>
</g>
</g>
<!-- Node2&#45;&gt;Node1 -->
<g id="edge1_Node000001_Node000002" class="edge">
<title>Node2&#45;&gt;Node1</title>
<g id="a_edge1_Node000001_Node000002"><a xlink:title=" ">
<path fill="none" stroke="#63b8ff" d="M494.74,-50.31C503.83,-47.69 513.1,-45.01 521.96,-42.46"/>
<polygon fill="#63b8ff" stroke="#63b8ff" points="493.86,-46.92 485.22,-53.06 495.8,-53.65 493.86,-46.92"/>
</a>
</g>
</g>
<!-- Node3 -->
<g id="Node000003" class="node">
<title>Node3</title>
<g id="a_Node000003"><a xlink:href="struct_harlinn_1_1_math_1_1_internal_1_1_tuple_base.html" target="_top" xlink:title=" ">
<polygon fill="white" stroke="#666666" points="112,-82 0,-82 0,-52 112,-52 112,-82"/>
<text text-anchor="start" x="8" y="-70" font-family="Helvetica,sans-Serif" font-size="10.00">Harlinn::Math::Internal</text>
<text text-anchor="middle" x="56" y="-59" font-family="Helvetica,sans-Serif" font-size="10.00">::TupleBase</text>
</a>
</g>
</g>
<!-- Node3&#45;&gt;Node2 -->
<g id="edge2_Node000002_Node000003" class="edge">
<title>Node3&#45;&gt;Node2</title>
<g id="a_edge2_Node000002_Node000003"><a xlink:title=" ">
<path fill="none" stroke="#63b8ff" d="M123.77,-71.38C184.18,-74.73 275.57,-78.26 355,-75 361.23,-74.74 367.74,-74.37 374.21,-73.92"/>
<polygon fill="#63b8ff" stroke="#63b8ff" points="124.18,-67.9 114,-70.82 123.78,-74.89 124.18,-67.9"/>
</a>
</g>
</g>
<!-- Node4 -->
<g id="Node000004" class="node">
<title>Node4</title>
<g id="a_Node000004"><a xlink:href="class_harlinn_1_1_math_1_1_tuple4.html" target="_top" xlink:title=" ">
<polygon fill="white" stroke="#666666" points="258,-61 149,-61 149,-31 258,-31 258,-61"/>
<text text-anchor="start" x="157" y="-49" font-family="Helvetica,sans-Serif" font-size="10.00">Harlinn::Math::Tuple4</text>
<text text-anchor="middle" x="203.5" y="-38" font-family="Helvetica,sans-Serif" font-size="10.00">&lt; DerivedT, T &gt;</text>
</a>
</g>
</g>
<!-- Node3&#45;&gt;Node4 -->
<g id="edge4_Node000004_Node000003" class="edge">
<title>Node3&#45;&gt;Node4</title>
<g id="a_edge4_Node000004_Node000003"><a xlink:title=" ">
<path fill="none" stroke="#63b8ff" d="M123.72,-57.37C132.08,-56.16 140.54,-54.94 148.67,-53.77"/>
<polygon fill="#63b8ff" stroke="#63b8ff" points="123.32,-53.89 113.92,-58.78 124.32,-60.82 123.32,-53.89"/>
</a>
</g>
</g>
<!-- Node4&#45;&gt;Node2 -->
<g id="edge3_Node000002_Node000004" class="edge">
<title>Node4&#45;&gt;Node2</title>
<g id="a_edge3_Node000002_Node000004"><a xlink:title=" ">
<path fill="none" stroke="orange" stroke-dasharray="5,2" d="M269.8,-46.63C296.32,-47.51 327.22,-49.34 355,-53 361.3,-53.83 367.87,-54.93 374.36,-56.16"/>
<polygon fill="orange" stroke="orange" points="269.94,-43.13 259.84,-46.34 269.74,-50.13 269.94,-43.13"/>
</a>
</g>
<text text-anchor="start" x="276" y="-67" font-family="Helvetica,sans-Serif" font-size="10.00" fill="grey"> &lt; Vector&lt; float, 4</text>
<text text-anchor="middle" x="315.5" y="-56" font-family="Helvetica,sans-Serif" font-size="10.00" fill="grey"> &gt;, float &gt;</text>
</g>
<!-- Node5 -->
<g id="Node000005" class="node">
<title>Node5</title>
<g id="a_Node000005"><a xlink:href="struct_harlinn_1_1_math_1_1_internal_1_1_vector_base.html" target="_top" xlink:title=" ">
<polygon fill="white" stroke="#666666" points="485,-30 373,-30 373,0 485,0 485,-30"/>
<text text-anchor="start" x="381" y="-18" font-family="Helvetica,sans-Serif" font-size="10.00">Harlinn::Math::Internal</text>
<text text-anchor="middle" x="429" y="-7" font-family="Helvetica,sans-Serif" font-size="10.00">::VectorBase</text>
</a>
</g>
</g>
<!-- Node5&#45;&gt;Node1 -->
<g id="edge5_Node000001_Node000005" class="edge">
<title>Node5&#45;&gt;Node1</title>
<g id="a_edge5_Node000001_Node000005"><a xlink:title=" ">
<path fill="none" stroke="#63b8ff" d="M496.72,-20.5C505.08,-21.19 513.54,-21.89 521.67,-22.56"/>
<polygon fill="#63b8ff" stroke="#63b8ff" points="497.18,-17.03 486.93,-19.7 496.61,-24.01 497.18,-17.03"/>
</a>
</g>
</g>
</g>
</svg>
