<?xml version="1.0" encoding="UTF-8" standalone="no"?>
<!DOCTYPE svg PUBLIC "-//W3C//DTD SVG 1.1//EN"
 "http://www.w3.org/Graphics/SVG/1.1/DTD/svg11.dtd">
<!-- Generated by graphviz version 7.0.1 (20221109.1506)
 -->
<!-- Title: Harlinn::Windows::IconHandle Pages: 1 -->
<svg width="248pt" height="284pt"
 viewBox="0.00 0.00 247.50 284.00" xmlns="http://www.w3.org/2000/svg" xmlns:xlink="http://www.w3.org/1999/xlink">
<g id="graph0" class="graph" transform="scale(1 1) rotate(0) translate(4 280)">
<title>Harlinn::Windows::IconHandle</title>
<!-- Node1 -->
<g id="Node000001" class="node">
<title>Node1</title>
<g id="a_Node000001"><a xlink:title=" ">
<polygon fill="#999999" stroke="#666666" points="147.5,-70 1.5,-70 1.5,-51 147.5,-51 147.5,-70"/>
<text text-anchor="middle" x="74.5" y="-58" font-family="Helvetica,sans-Serif" font-size="10.00">Harlinn::Windows::IconHandle</text>
</a>
</g>
</g>
<!-- Node1&#45;&gt;Node1 -->
<g id="edge3_Node000001_Node000001" class="edge">
<title>Node1&#45;&gt;Node1</title>
<g id="a_edge3_Node000001_Node000001"><a xlink:title=" ">
<path fill="none" stroke="#9a32cd" stroke-dasharray="5,2" d="M108.36,-73.1C136.35,-78.39 165.5,-74.19 165.5,-60.5 165.5,-44.99 128.1,-41.66 97.35,-50.51"/>
<polygon fill="#9a32cd" stroke="#9a32cd" points="109.36,-69.74 98.82,-70.84 107.75,-76.55 109.36,-69.74"/>
</a>
</g>
<text text-anchor="middle" x="202.5" y="-113" font-family="Helvetica,sans-Serif" font-size="10.00" fill="grey"> Error</text>
<text text-anchor="middle" x="202.5" y="-102" font-family="Helvetica,sans-Serif" font-size="10.00" fill="grey">Error16x16</text>
<text text-anchor="middle" x="202.5" y="-91" font-family="Helvetica,sans-Serif" font-size="10.00" fill="grey">Error24x24</text>
<text text-anchor="middle" x="202.5" y="-80" font-family="Helvetica,sans-Serif" font-size="10.00" fill="grey">Error32x32</text>
<text text-anchor="middle" x="202.5" y="-69" font-family="Helvetica,sans-Serif" font-size="10.00" fill="grey">Information</text>
<text text-anchor="middle" x="202.5" y="-58" font-family="Helvetica,sans-Serif" font-size="10.00" fill="grey">Information16x16</text>
<text text-anchor="middle" x="202.5" y="-47" font-family="Helvetica,sans-Serif" font-size="10.00" fill="grey">Information24x24</text>
<text text-anchor="middle" x="202.5" y="-36" font-family="Helvetica,sans-Serif" font-size="10.00" fill="grey">Information32x32</text>
<text text-anchor="middle" x="202.5" y="-25" font-family="Helvetica,sans-Serif" font-size="10.00" fill="grey">Question</text>
<text text-anchor="middle" x="202.5" y="-14" font-family="Helvetica,sans-Serif" font-size="10.00" fill="grey">Question16x16</text>
<text text-anchor="middle" x="202.5" y="-3" font-family="Helvetica,sans-Serif" font-size="10.00" fill="grey">...</text>
</g>
<!-- Node2 -->
<g id="Node000002" class="node">
<title>Node2</title>
<g id="a_Node000002"><a xlink:href="class_harlinn_1_1_common_1_1_core_1_1_handle.html" target="_top" xlink:title=" ">
<polygon fill="white" stroke="#666666" points="133.5,-199 15.5,-199 15.5,-158 133.5,-158 133.5,-199"/>
<text text-anchor="start" x="23.5" y="-187" font-family="Helvetica,sans-Serif" font-size="10.00">Harlinn::Common::Core</text>
<text text-anchor="start" x="23.5" y="-176" font-family="Helvetica,sans-Serif" font-size="10.00">::Handle&lt; IconHandle,</text>
<text text-anchor="middle" x="74.5" y="-165" font-family="Helvetica,sans-Serif" font-size="10.00"> HICON &gt;</text>
</a>
</g>
</g>
<!-- Node2&#45;&gt;Node1 -->
<g id="edge1_Node000001_Node000002" class="edge">
<title>Node2&#45;&gt;Node1</title>
<g id="a_edge1_Node000001_Node000002"><a xlink:title=" ">
<path fill="none" stroke="#63b8ff" d="M74.5,-146.21C74.5,-120.7 74.5,-86.38 74.5,-70.39"/>
<polygon fill="#63b8ff" stroke="#63b8ff" points="71,-146.05 74.5,-156.05 78,-146.05 71,-146.05"/>
</a>
</g>
</g>
<!-- Node3 -->
<g id="Node000003" class="node">
<title>Node3</title>
<g id="a_Node000003"><a xlink:href="class_harlinn_1_1_common_1_1_core_1_1_handle.html" target="_top" xlink:title=" ">
<polygon fill="white" stroke="#666666" points="149,-276 0,-276 0,-246 149,-246 149,-276"/>
<text text-anchor="start" x="8" y="-264" font-family="Helvetica,sans-Serif" font-size="10.00">Harlinn::Common::Core</text>
<text text-anchor="middle" x="74.5" y="-253" font-family="Helvetica,sans-Serif" font-size="10.00">::Handle&lt; DerivedT, HandleT &gt;</text>
</a>
</g>
</g>
<!-- Node3&#45;&gt;Node2 -->
<g id="edge2_Node000002_Node000003" class="edge">
<title>Node3&#45;&gt;Node2</title>
<g id="a_edge2_Node000002_Node000003"><a xlink:title=" ">
<path fill="none" stroke="orange" stroke-dasharray="5,2" d="M74.5,-234.2C74.5,-222.86 74.5,-209.75 74.5,-199.21"/>
<polygon fill="orange" stroke="orange" points="71,-234.09 74.5,-244.09 78,-234.09 71,-234.09"/>
</a>
</g>
<text text-anchor="middle" x="127.5" y="-220" font-family="Helvetica,sans-Serif" font-size="10.00" fill="grey"> &lt; IconHandle, HICON &gt;</text>
</g>
</g>
</svg>
