<?xml version="1.0" encoding="UTF-8" standalone="no"?>
<!DOCTYPE svg PUBLIC "-//W3C//DTD SVG 1.1//EN"
 "http://www.w3.org/Graphics/SVG/1.1/DTD/svg11.dtd">
<!-- Generated by graphviz version 7.0.1 (20221109.1506)
 -->
<!-- Title: Harlinn::OCI::FixedStringDefine&lt; fixedStringSize &gt; Pages: 1 -->
<svg width="2364pt" height="677pt"
 viewBox="0.00 0.00 2364.00 676.50" xmlns="http://www.w3.org/2000/svg" xmlns:xlink="http://www.w3.org/1999/xlink">
<g id="graph0" class="graph" transform="scale(1 1) rotate(0) translate(4 672.5)">
<title>Harlinn::OCI::FixedStringDefine&lt; fixedStringSize &gt;</title>
<!-- Node1 -->
<g id="Node000001" class="node">
<title>Node1</title>
<g id="a_Node000001"><a xlink:title="FixedStringDefine.">
<polygon fill="#999999" stroke="#666666" points="2339,-655.5 2212,-655.5 2212,-625.5 2339,-625.5 2339,-655.5"/>
<text text-anchor="start" x="2220" y="-643.5" font-family="Helvetica,sans-Serif" font-size="10.00">Harlinn::OCI::FixedString</text>
<text text-anchor="middle" x="2275.5" y="-632.5" font-family="Helvetica,sans-Serif" font-size="10.00">Define&lt; fixedStringSize &gt;</text>
</a>
</g>
</g>
<!-- Node2 -->
<g id="Node000002" class="node">
<title>Node2</title>
<g id="a_Node000002"><a xlink:href="class_harlinn_1_1_o_c_i_1_1_define.html" target="_top" xlink:title="Define, base class for defines for use with the DataReader class.">
<polygon fill="white" stroke="#666666" points="2107,-625 2005,-625 2005,-606 2107,-606 2107,-625"/>
<text text-anchor="middle" x="2056" y="-613" font-family="Helvetica,sans-Serif" font-size="10.00">Harlinn::OCI::Define</text>
</a>
</g>
</g>
<!-- Node2&#45;&gt;Node1 -->
<g id="edge1_Node000001_Node000002" class="edge">
<title>Node2&#45;&gt;Node1</title>
<g id="a_edge1_Node000001_Node000002"><a xlink:title=" ">
<path fill="none" stroke="#63b8ff" d="M2118.73,-622.6C2147.89,-625.95 2182.62,-629.94 2211.88,-633.3"/>
<polygon fill="#63b8ff" stroke="#63b8ff" points="2119.28,-619.14 2108.95,-621.47 2118.48,-626.09 2119.28,-619.14"/>
</a>
</g>
</g>
<!-- Node3 -->
<g id="Node000003" class="node">
<title>Node3</title>
<g id="a_Node000003"><a xlink:href="class_harlinn_1_1_o_c_i_1_1_define_base.html" target="_top" xlink:title="DefineBase, base class for all defines.">
<polygon fill="white" stroke="#666666" points="1928,-625 1803,-625 1803,-606 1928,-606 1928,-625"/>
<text text-anchor="middle" x="1865.5" y="-613" font-family="Helvetica,sans-Serif" font-size="10.00">Harlinn::OCI::DefineBase</text>
</a>
</g>
</g>
<!-- Node3&#45;&gt;Node2 -->
<g id="edge2_Node000002_Node000003" class="edge">
<title>Node3&#45;&gt;Node2</title>
<g id="a_edge2_Node000002_Node000003"><a xlink:title=" ">
<path fill="none" stroke="#63b8ff" d="M1939.97,-615.5C1961.6,-615.5 1984.77,-615.5 2004.6,-615.5"/>
<polygon fill="#63b8ff" stroke="#63b8ff" points="1940,-612 1930,-615.5 1940,-619 1940,-612"/>
</a>
</g>
</g>
<!-- Node4 -->
<g id="Node000004" class="node">
<title>Node4</title>
<g id="a_Node000004"><a xlink:href="class_harlinn_1_1_o_c_i_1_1_handle_base.html" target="_top" xlink:title="Base class for OCI handle wrappers.">
<polygon fill="white" stroke="#666666" points="495,-306 367,-306 367,-287 495,-287 495,-306"/>
<text text-anchor="middle" x="431" y="-294" font-family="Helvetica,sans-Serif" font-size="10.00">Harlinn::OCI::HandleBase</text>
</a>
</g>
</g>
<!-- Node4&#45;&gt;Node3 -->
<g id="edge3_Node000003_Node000004" class="edge">
<title>Node4&#45;&gt;Node3</title>
<g id="a_edge3_Node000003_Node000004"><a xlink:title=" ">
<path fill="none" stroke="#63b8ff" d="M440.89,-316.65C459.88,-359.49 503.53,-456.73 514,-469.5 582.86,-553.51 601.38,-615.5 710,-615.5 710,-615.5 710,-615.5 1656,-615.5 1705.41,-615.5 1761.41,-615.5 1802.92,-615.5"/>
<polygon fill="#63b8ff" stroke="#63b8ff" points="444.19,-315.46 436.95,-307.74 437.79,-318.3 444.19,-315.46"/>
</a>
</g>
</g>
<!-- Node5 -->
<g id="Node000005" class="node">
<title>Node5</title>
<g id="a_Node000005"><a xlink:href="class_harlinn_1_1_o_c_i_1_1_statement.html" target="_top" xlink:title="Statement, the context that identifies a SQL or PL/SQL statement and its associated attributes.">
<polygon fill="white" stroke="#666666" points="1715,-305 1595,-305 1595,-286 1715,-286 1715,-305"/>
<text text-anchor="middle" x="1655" y="-293" font-family="Helvetica,sans-Serif" font-size="10.00">Harlinn::OCI::Statement</text>
</a>
</g>
</g>
<!-- Node4&#45;&gt;Node5 -->
<g id="edge5_Node000005_Node000004" class="edge">
<title>Node4&#45;&gt;Node5</title>
<g id="a_edge5_Node000005_Node000004"><a xlink:title=" ">
<path fill="none" stroke="#63b8ff" d="M444.78,-277.38C459.15,-257.52 484.38,-227.21 514,-211.5 592.11,-170.08 621.59,-177.5 710,-177.5 710,-177.5 710,-177.5 1417,-177.5 1513.98,-177.5 1612.1,-257.66 1643.6,-285.84"/>
<polygon fill="#63b8ff" stroke="#63b8ff" points="442.01,-275.23 439.16,-285.44 447.75,-279.24 442.01,-275.23"/>
</a>
</g>
</g>
<!-- Node6 -->
<g id="Node000006" class="node">
<title>Node6</title>
<g id="a_Node000006"><a xlink:href="class_harlinn_1_1_o_c_i_1_1_service_context.html" target="_top" xlink:title="ServiceContext &#45; A service context handle defines attributes that determine the operational context f...">
<polygon fill="white" stroke="#666666" points="1486,-432 1346,-432 1346,-413 1486,-413 1486,-432"/>
<text text-anchor="middle" x="1416" y="-420" font-family="Helvetica,sans-Serif" font-size="10.00">Harlinn::OCI::ServiceContext</text>
</a>
</g>
</g>
<!-- Node4&#45;&gt;Node6 -->
<g id="edge7_Node000006_Node000004" class="edge">
<title>Node4&#45;&gt;Node6</title>
<g id="a_edge7_Node000006_Node000004"><a xlink:title=" ">
<path fill="none" stroke="#63b8ff" d="M482.21,-283.98C537.61,-271.29 629.59,-253.5 710,-253.5 710,-253.5 710,-253.5 1203.5,-253.5 1306.43,-253.5 1388.04,-377.18 1409.47,-412.93"/>
<polygon fill="#63b8ff" stroke="#63b8ff" points="481.71,-280.5 472.77,-286.18 483.3,-287.32 481.71,-280.5"/>
</a>
</g>
</g>
<!-- Node7 -->
<g id="Node000007" class="node">
<title>Node7</title>
<g id="a_Node000007"><a xlink:href="class_harlinn_1_1_o_c_i_1_1_environment.html" target="_top" xlink:title="The environment handle defines a context in which all OCI functions are invoked.">
<polygon fill="white" stroke="#666666" points="775,-444 647,-444 647,-425 775,-425 775,-444"/>
<text text-anchor="middle" x="711" y="-432" font-family="Helvetica,sans-Serif" font-size="10.00">Harlinn::OCI::Environment</text>
</a>
</g>
</g>
<!-- Node4&#45;&gt;Node7 -->
<g id="edge9_Node000007_Node000004" class="edge">
<title>Node4&#45;&gt;Node7</title>
<g id="a_edge9_Node000007_Node000004"><a xlink:title=" ">
<path fill="none" stroke="#63b8ff" d="M455.3,-312.62C471.41,-323.42 493.55,-337.61 514,-348.5 573.04,-379.94 645.95,-409.68 684.04,-424.57"/>
<polygon fill="#63b8ff" stroke="#63b8ff" points="457.61,-309.95 447.37,-307.23 453.68,-315.75 457.61,-309.95"/>
</a>
</g>
</g>
<!-- Node11 -->
<g id="Node000011" class="node">
<title>Node11</title>
<g id="a_Node000011"><a xlink:href="class_harlinn_1_1_o_c_i_1_1_error_handle.html" target="_top" xlink:title="The error handle is passed as a parameter to most OCI calls.">
<polygon fill="white" stroke="#666666" points="1041,-437 915,-437 915,-418 1041,-418 1041,-437"/>
<text text-anchor="middle" x="978" y="-425" font-family="Helvetica,sans-Serif" font-size="10.00">Harlinn::OCI::ErrorHandle</text>
</a>
</g>
</g>
<!-- Node4&#45;&gt;Node11 -->
<g id="edge14_Node000011_Node000004" class="edge">
<title>Node4&#45;&gt;Node11</title>
<g id="a_edge14_Node000011_Node000004"><a xlink:title=" ">
<path fill="none" stroke="#63b8ff" d="M484.35,-309.08C592.32,-335.04 837.83,-394.05 935.65,-417.56"/>
<polygon fill="#63b8ff" stroke="#63b8ff" points="485.42,-305.74 474.88,-306.81 483.79,-312.55 485.42,-305.74"/>
</a>
</g>
</g>
<!-- Node12 -->
<g id="Node000012" class="node">
<title>Node12</title>
<g id="a_Node000012"><a xlink:href="class_harlinn_1_1_o_c_i_1_1_server.html" target="_top" xlink:title="A server handle represents a connection between the client application and the Oracle database server...">
<polygon fill="white" stroke="#666666" points="1253.5,-395 1151.5,-395 1151.5,-376 1253.5,-376 1253.5,-395"/>
<text text-anchor="middle" x="1202.5" y="-383" font-family="Helvetica,sans-Serif" font-size="10.00">Harlinn::OCI::Server</text>
</a>
</g>
</g>
<!-- Node4&#45;&gt;Node12 -->
<g id="edge17_Node000012_Node000004" class="edge">
<title>Node4&#45;&gt;Node12</title>
<g id="a_edge17_Node000012_Node000004"><a xlink:title=" ">
<path fill="none" stroke="#63b8ff" d="M506.76,-300.79C678.92,-310.78 1090.87,-335.37 1120,-343.5 1144.99,-350.47 1171.2,-365.59 1186.94,-375.66"/>
<polygon fill="#63b8ff" stroke="#63b8ff" points="506.98,-297.3 496.8,-300.21 506.58,-304.29 506.98,-297.3"/>
</a>
</g>
</g>
<!-- Node13 -->
<g id="Node000013" class="node">
<title>Node13</title>
<g id="a_Node000013"><a xlink:href="class_harlinn_1_1_o_c_i_1_1_session.html" target="_top" xlink:title="Session.">
<polygon fill="white" stroke="#666666" points="1257.5,-491 1147.5,-491 1147.5,-472 1257.5,-472 1257.5,-491"/>
<text text-anchor="middle" x="1202.5" y="-479" font-family="Helvetica,sans-Serif" font-size="10.00">Harlinn::OCI::Session</text>
</a>
</g>
</g>
<!-- Node4&#45;&gt;Node13 -->
<g id="edge21_Node000013_Node000004" class="edge">
<title>Node4&#45;&gt;Node13</title>
<g id="a_edge21_Node000013_Node000004"><a xlink:title=" ">
<path fill="none" stroke="#63b8ff" d="M445.56,-315.36C460.57,-335.23 486.32,-366.5 514,-387.5 566.57,-427.38 583.94,-434.07 647,-453.5 822.77,-507.66 875.07,-491.22 1059,-492.5 1086.11,-492.69 1092.95,-494.32 1120,-492.5 1128.83,-491.91 1138.17,-490.96 1147.24,-489.85"/>
<polygon fill="#63b8ff" stroke="#63b8ff" points="448.57,-313.55 439.82,-307.59 442.94,-317.71 448.57,-313.55"/>
</a>
</g>
</g>
<!-- Node14 -->
<g id="Node000014" class="node">
<title>Node14</title>
<g id="a_Node000014"><a xlink:href="class_harlinn_1_1_o_c_i_1_1_subscription.html" target="_top" xlink:title="Subscription.">
<polygon fill="white" stroke="#666666" points="1267,-305 1138,-305 1138,-286 1267,-286 1267,-305"/>
<text text-anchor="middle" x="1202.5" y="-293" font-family="Helvetica,sans-Serif" font-size="10.00">Harlinn::OCI::Subscription</text>
</a>
</g>
</g>
<!-- Node4&#45;&gt;Node14 -->
<g id="edge27_Node000014_Node000004" class="edge">
<title>Node4&#45;&gt;Node14</title>
<g id="a_edge27_Node000014_Node000004"><a xlink:title=" ">
<path fill="none" stroke="#63b8ff" d="M449.62,-279.4C465.15,-265.62 489.11,-247.3 514,-239.5 759.11,-162.68 1076.14,-253.91 1172.48,-285.51"/>
<polygon fill="#63b8ff" stroke="#63b8ff" points="447.61,-276.5 442.63,-285.85 452.35,-281.65 447.61,-276.5"/>
</a>
</g>
</g>
<!-- Node17 -->
<g id="Node000017" class="node">
<title>Node17</title>
<g id="a_Node000017"><a xlink:href="class_harlinn_1_1_o_c_i_1_1_bind_base.html" target="_top" xlink:title="BindBase, base class for binds.">
<polygon fill="white" stroke="#666666" points="1924,-136 1807,-136 1807,-117 1924,-117 1924,-136"/>
<text text-anchor="middle" x="1865.5" y="-124" font-family="Helvetica,sans-Serif" font-size="10.00">Harlinn::OCI::BindBase</text>
</a>
</g>
</g>
<!-- Node4&#45;&gt;Node17 -->
<g id="edge33_Node000017_Node000004" class="edge">
<title>Node4&#45;&gt;Node17</title>
<g id="a_edge33_Node000017_Node000004"><a xlink:title=" ">
<path fill="none" stroke="#63b8ff" d="M439.15,-275.83C450.25,-247.2 474.56,-196.31 514,-172.5 577.09,-134.41 770.3,-139.5 844,-139.5 844,-139.5 844,-139.5 1656,-139.5 1706.96,-139.5 1764.78,-135.58 1806.59,-132.05"/>
<polygon fill="#63b8ff" stroke="#63b8ff" points="435.88,-274.58 435.72,-285.18 442.45,-277 435.88,-274.58"/>
</a>
</g>
</g>
<!-- Node5&#45;&gt;Node3 -->
<g id="edge4_Node000003_Node000005" class="edge">
<title>Node5&#45;&gt;Node3</title>
<g id="a_edge4_Node000003_Node000005"><a xlink:title=" ">
<path fill="none" stroke="#9a32cd" stroke-dasharray="5,2" d="M1668.7,-314.99C1708.35,-375.84 1828.96,-560.95 1858.11,-605.69"/>
<polygon fill="#9a32cd" stroke="#9a32cd" points="1671.69,-313.16 1663.29,-306.7 1665.82,-316.99 1671.69,-313.16"/>
</a>
</g>
<text text-anchor="middle" x="1759" y="-486.5" font-family="Helvetica,sans-Serif" font-size="10.00" fill="grey"> statement_</text>
</g>
<!-- Node5&#45;&gt;Node17 -->
<g id="edge34_Node000017_Node000005" class="edge">
<title>Node5&#45;&gt;Node17</title>
<g id="a_edge34_Node000017_Node000005"><a xlink:title=" ">
<path fill="none" stroke="#9a32cd" stroke-dasharray="5,2" d="M1676.93,-278.54C1720.14,-243.51 1818.05,-164.15 1852.36,-136.34"/>
<polygon fill="#9a32cd" stroke="#9a32cd" points="1674.85,-275.71 1669.29,-284.73 1679.26,-281.15 1674.85,-275.71"/>
</a>
</g>
<text text-anchor="middle" x="1759" y="-233.5" font-family="Helvetica,sans-Serif" font-size="10.00" fill="grey"> statement_</text>
</g>
<!-- Node6&#45;&gt;Node5 -->
<g id="edge6_Node000005_Node000006" class="edge">
<title>Node6&#45;&gt;Node5</title>
<g id="a_edge6_Node000005_Node000006"><a xlink:title=" ">
<path fill="none" stroke="#9a32cd" stroke-dasharray="5,2" d="M1445.58,-407.18C1494.81,-380.8 1594.3,-327.49 1635.49,-305.42"/>
<polygon fill="#9a32cd" stroke="#9a32cd" points="1444.09,-404.01 1436.93,-411.82 1447.4,-410.18 1444.09,-404.01"/>
</a>
</g>
<text text-anchor="middle" x="1540.5" y="-376.5" font-family="Helvetica,sans-Serif" font-size="10.00" fill="grey"> serviceContext_</text>
</g>
<!-- Node7&#45;&gt;Node6 -->
<g id="edge8_Node000006_Node000007" class="edge">
<title>Node7&#45;&gt;Node6</title>
<g id="a_edge8_Node000006_Node000007"><a xlink:title=" ">
<path fill="none" stroke="#9a32cd" stroke-dasharray="5,2" d="M744.59,-448.93C759.22,-455.11 776.81,-462.13 793,-467.5 908.92,-505.96 937.88,-520.77 1059,-536.5 1158.61,-549.43 1184.55,-537.28 1285,-537.5 1304.11,-537.54 1310.89,-546.01 1328,-537.5 1373.5,-514.87 1401.55,-455.82 1411.21,-432.34"/>
<polygon fill="#9a32cd" stroke="#9a32cd" points="746.01,-445.73 735.44,-445.01 743.25,-452.17 746.01,-445.73"/>
</a>
</g>
<text text-anchor="middle" x="1089.5" y="-544.5" font-family="Helvetica,sans-Serif" font-size="10.00" fill="grey"> environment_</text>
</g>
<!-- Node7&#45;&gt;Node11 -->
<g id="edge15_Node000011_Node000007" class="edge">
<title>Node7&#45;&gt;Node11</title>
<g id="a_edge15_Node000011_Node000007"><a xlink:title=" ">
<path fill="none" stroke="#9a32cd" stroke-dasharray="5,2" d="M759.81,-422.06C770.65,-419.75 782.16,-417.69 793,-416.5 838.95,-411.46 850.89,-413.34 897,-416.5 902.73,-416.89 908.68,-417.44 914.63,-418.09"/>
<polygon fill="#9a32cd" stroke="#9a32cd" points="759.28,-418.59 750.29,-424.2 760.81,-425.42 759.28,-418.59"/>
</a>
</g>
<text text-anchor="middle" x="845" y="-419.5" font-family="Helvetica,sans-Serif" font-size="10.00" fill="grey"> environment_</text>
</g>
<!-- Node7&#45;&gt;Node12 -->
<g id="edge18_Node000012_Node000007" class="edge">
<title>Node7&#45;&gt;Node12</title>
<g id="a_edge18_Node000012_Node000007"><a xlink:title=" ">
<path fill="none" stroke="#9a32cd" stroke-dasharray="5,2" d="M748.4,-420.86C762.18,-416.21 778.14,-411.45 793,-408.5 920.15,-383.23 1073.62,-382.3 1151.26,-383.85"/>
<polygon fill="#9a32cd" stroke="#9a32cd" points="747.59,-417.44 739.29,-424.03 749.89,-424.05 747.59,-417.44"/>
</a>
</g>
<text text-anchor="middle" x="978" y="-393.5" font-family="Helvetica,sans-Serif" font-size="10.00" fill="grey"> environment_</text>
</g>
<!-- Node7&#45;&gt;Node13 -->
<g id="edge22_Node000013_Node000007" class="edge">
<title>Node7&#45;&gt;Node13</title>
<g id="a_edge22_Node000013_Node000007"><a xlink:title=" ">
<path fill="none" stroke="#9a32cd" stroke-dasharray="5,2" d="M786.42,-445.62C788.63,-445.92 790.83,-446.21 793,-446.5 910.99,-462.11 940.29,-468.93 1059,-477.5 1088.13,-479.6 1120.68,-480.62 1147.31,-481.1"/>
<polygon fill="#9a32cd" stroke="#9a32cd" points="787.09,-442.18 776.7,-444.27 786.13,-449.11 787.09,-442.18"/>
</a>
</g>
<text text-anchor="middle" x="978" y="-478.5" font-family="Helvetica,sans-Serif" font-size="10.00" fill="grey"> environment_</text>
</g>
<!-- Node7&#45;&gt;Node14 -->
<g id="edge28_Node000014_Node000007" class="edge">
<title>Node7&#45;&gt;Node14</title>
<g id="a_edge28_Node000014_Node000007"><a xlink:title=" ">
<path fill="none" stroke="#9a32cd" stroke-dasharray="5,2" d="M736.33,-418.61C751.98,-409 773.04,-397.16 793,-389.5 910.53,-344.37 1055.77,-317.31 1137.59,-304.5"/>
<polygon fill="#9a32cd" stroke="#9a32cd" points="734.79,-415.44 728.18,-423.73 738.51,-421.37 734.79,-415.44"/>
</a>
</g>
<text text-anchor="middle" x="978" y="-351.5" font-family="Helvetica,sans-Serif" font-size="10.00" fill="grey"> environment_</text>
</g>
<!-- Node8 -->
<g id="Node000008" class="node">
<title>Node8</title>
<g id="a_Node000008"><a xlink:title=" ">
<polygon fill="white" stroke="#666666" points="495,-478.5 367,-478.5 367,-448.5 495,-448.5 495,-478.5"/>
<text text-anchor="start" x="375" y="-466.5" font-family="Helvetica,sans-Serif" font-size="10.00">std::atomic&lt; Environment</text>
<text text-anchor="middle" x="431" y="-455.5" font-family="Helvetica,sans-Serif" font-size="10.00">Mode &gt;</text>
</a>
</g>
</g>
<!-- Node8&#45;&gt;Node7 -->
<g id="edge10_Node000007_Node000008" class="edge">
<title>Node8&#45;&gt;Node7</title>
<g id="a_edge10_Node000007_Node000008"><a xlink:title=" ">
<path fill="none" stroke="#9a32cd" stroke-dasharray="5,2" d="M506.61,-455.72C550.42,-451.15 605.18,-445.43 646.84,-441.09"/>
<polygon fill="#9a32cd" stroke="#9a32cd" points="506.52,-452.21 496.94,-456.73 507.24,-459.17 506.52,-452.21"/>
</a>
</g>
<text text-anchor="middle" x="571.5" y="-457.5" font-family="Helvetica,sans-Serif" font-size="10.00" fill="grey"> defaultEnvironmentMode_</text>
</g>
<!-- Node9 -->
<g id="Node000009" class="node">
<title>Node9</title>
<g id="a_Node000009"><a xlink:title=" ">
<polygon fill="white" stroke="#666666" points="211.5,-254 122.5,-254 122.5,-235 211.5,-235 211.5,-254"/>
<text text-anchor="middle" x="167" y="-242" font-family="Helvetica,sans-Serif" font-size="10.00">std::atomic&lt; T &gt;</text>
</a>
</g>
</g>
<!-- Node9&#45;&gt;Node8 -->
<g id="edge11_Node000008_Node000009" class="edge">
<title>Node9&#45;&gt;Node8</title>
<g id="a_edge11_Node000008_Node000009"><a xlink:title=" ">
<path fill="none" stroke="orange" stroke-dasharray="5,2" d="M188.56,-261.68C238.26,-303.23 364.35,-408.63 411.68,-448.19"/>
<polygon fill="orange" stroke="orange" points="191.02,-259.18 181.1,-255.45 186.53,-264.55 191.02,-259.18"/>
</a>
</g>
<text text-anchor="middle" x="296" y="-395.5" font-family="Helvetica,sans-Serif" font-size="10.00" fill="grey"> &lt; EnvironmentMode &gt;</text>
</g>
<!-- Node10 -->
<g id="Node000010" class="node">
<title>Node10</title>
<g id="a_Node000010"><a xlink:title=" ">
<polygon fill="white" stroke="#666666" points="29,-134 0,-134 0,-115 29,-115 29,-134"/>
<text text-anchor="middle" x="14.5" y="-122" font-family="Helvetica,sans-Serif" font-size="10.00">T</text>
</a>
</g>
</g>
<!-- Node10&#45;&gt;Node9 -->
<g id="edge12_Node000009_Node000010" class="edge">
<title>Node10&#45;&gt;Node9</title>
<g id="a_edge12_Node000009_Node000010"><a xlink:title=" ">
<path fill="none" stroke="#9a32cd" stroke-dasharray="5,2" d="M36.76,-141.45C68.63,-166.87 127.79,-214.03 153.51,-234.54"/>
<polygon fill="#9a32cd" stroke="#9a32cd" points="39,-138.76 29,-135.26 34.64,-144.23 39,-138.76"/>
</a>
</g>
<text text-anchor="middle" x="68.5" y="-183.5" font-family="Helvetica,sans-Serif" font-size="10.00" fill="grey"> ptr</text>
</g>
<!-- Node19 -->
<g id="Node000019" class="node">
<title>Node19</title>
<g id="a_Node000019"><a xlink:href="struct_harlinn_1_1_common_1_1_core_1_1_internal_1_1_data.html" target="_top" xlink:title=" ">
<polygon fill="white" stroke="#666666" points="226,-139.5 108,-139.5 108,-109.5 226,-109.5 226,-139.5"/>
<text text-anchor="start" x="116" y="-127.5" font-family="Helvetica,sans-Serif" font-size="10.00">Harlinn::Common::Core</text>
<text text-anchor="middle" x="167" y="-116.5" font-family="Helvetica,sans-Serif" font-size="10.00">::Internal::Data&lt; T &gt;</text>
</a>
</g>
</g>
<!-- Node10&#45;&gt;Node19 -->
<g id="edge37_Node000019_Node000010" class="edge">
<title>Node10&#45;&gt;Node19</title>
<g id="a_edge37_Node000019_Node000010"><a xlink:title=" ">
<path fill="none" stroke="#9a32cd" stroke-dasharray="5,2" d="M40.8,-124.5C59.11,-124.5 84.62,-124.5 107.84,-124.5"/>
<polygon fill="#9a32cd" stroke="#9a32cd" points="40.9,-121 30.9,-124.5 40.9,-128 40.9,-121"/>
</a>
</g>
<text text-anchor="middle" x="68.5" y="-127.5" font-family="Helvetica,sans-Serif" font-size="10.00" fill="grey"> buffer_</text>
</g>
<!-- Node21 -->
<g id="Node000021" class="node">
<title>Node21</title>
<g id="a_Node000021"><a xlink:title=" ">
<polygon fill="white" stroke="#666666" points="348,-66 244,-66 244,-47 348,-47 348,-66"/>
<text text-anchor="middle" x="296" y="-54" font-family="Helvetica,sans-Serif" font-size="10.00">std::unique_ptr&lt; T &gt;</text>
</a>
</g>
</g>
<!-- Node10&#45;&gt;Node21 -->
<g id="edge41_Node000021_Node000010" class="edge">
<title>Node10&#45;&gt;Node21</title>
<g id="a_edge41_Node000021_Node000010"><a xlink:title=" ">
<path fill="none" stroke="#9a32cd" stroke-dasharray="5,2" d="M39.64,-112.31C42.1,-111.28 44.58,-110.32 47,-109.5 113.28,-86.98 192.9,-71.99 243.72,-63.86"/>
<polygon fill="#9a32cd" stroke="#9a32cd" points="38.32,-109.07 30.69,-116.43 41.24,-115.43 38.32,-109.07"/>
</a>
</g>
<text text-anchor="middle" x="68.5" y="-112.5" font-family="Helvetica,sans-Serif" font-size="10.00" fill="grey"> ptr</text>
</g>
<!-- Node22 -->
<g id="Node000022" class="node">
<title>Node22</title>
<g id="a_Node000022"><a xlink:title=" ">
<polygon fill="white" stroke="#666666" points="614,-19 529,-19 529,0 614,0 614,-19"/>
<text text-anchor="middle" x="571.5" y="-7" font-family="Helvetica,sans-Serif" font-size="10.00">std::vector&lt; T &gt;</text>
</a>
</g>
</g>
<!-- Node10&#45;&gt;Node22 -->
<g id="edge43_Node000022_Node000010" class="edge">
<title>Node10&#45;&gt;Node22</title>
<g id="a_edge43_Node000022_Node000010"><a xlink:title=" ">
<path fill="none" stroke="#9a32cd" stroke-dasharray="5,2" d="M31.81,-106.4C48.85,-88.92 77.34,-63.52 108,-52.5 255.6,0.56 445.89,-2.18 528.8,-6.57"/>
<polygon fill="#9a32cd" stroke="#9a32cd" points="29.34,-103.92 25.03,-113.6 34.43,-108.72 29.34,-103.92"/>
</a>
</g>
<text text-anchor="middle" x="167" y="-55.5" font-family="Helvetica,sans-Serif" font-size="10.00" fill="grey"> elements</text>
</g>
<!-- Node24 -->
<g id="Node000024" class="node">
<title>Node24</title>
<g id="a_Node000024"><a xlink:title=" ">
<polygon fill="white" stroke="#666666" points="207.5,-477 126.5,-477 126.5,-458 207.5,-458 207.5,-477"/>
<text text-anchor="middle" x="167" y="-465" font-family="Helvetica,sans-Serif" font-size="10.00">std::array&lt; T &gt;</text>
</a>
</g>
</g>
<!-- Node10&#45;&gt;Node24 -->
<g id="edge46_Node000024_Node000010" class="edge">
<title>Node10&#45;&gt;Node24</title>
<g id="a_edge46_Node000024_Node000010"><a xlink:title=" ">
<path fill="none" stroke="#9a32cd" stroke-dasharray="5,2" d="M24.44,-144.88C52.95,-209.84 141,-410.53 161.64,-457.56"/>
<polygon fill="#9a32cd" stroke="#9a32cd" points="27.67,-143.53 20.45,-135.78 21.26,-146.35 27.67,-143.53"/>
</a>
</g>
<text text-anchor="middle" x="68.5" y="-288.5" font-family="Helvetica,sans-Serif" font-size="10.00" fill="grey"> elements</text>
</g>
<!-- Node11&#45;&gt;Node5 -->
<g id="edge25_Node000005_Node000011" class="edge">
<title>Node11&#45;&gt;Node5</title>
<g id="a_edge25_Node000005_Node000011"><a xlink:title=" ">
<path fill="none" stroke="#9a32cd" stroke-dasharray="5,2" d="M1013.8,-442.24C1023.02,-446.85 1032.71,-452.35 1041,-458.5 1050.34,-465.43 1049.07,-471.44 1059,-477.5 1138.4,-525.94 1174.8,-512.7 1267,-500.5 1412.23,-481.28 1465.27,-483.25 1577,-388.5 1607.54,-362.61 1635.37,-323.58 1647.53,-305.43"/>
<polygon fill="#9a32cd" stroke="#9a32cd" points="1015.58,-439.22 1005.05,-438.09 1012.58,-445.54 1015.58,-439.22"/>
</a>
</g>
<text text-anchor="middle" x="1306.5" y="-500.5" font-family="Helvetica,sans-Serif" font-size="10.00" fill="grey"> error_</text>
</g>
<!-- Node11&#45;&gt;Node6 -->
<g id="edge24_Node000006_Node000011" class="edge">
<title>Node11&#45;&gt;Node6</title>
<g id="a_edge24_Node000006_Node000011"><a xlink:title=" ">
<path fill="none" stroke="#9a32cd" stroke-dasharray="5,2" d="M1052.94,-426.65C1134.84,-425.71 1265.86,-424.21 1345.81,-423.29"/>
<polygon fill="#9a32cd" stroke="#9a32cd" points="1052.94,-423.15 1042.98,-426.77 1053.02,-430.15 1052.94,-423.15"/>
</a>
</g>
<text text-anchor="middle" x="1202.5" y="-428.5" font-family="Helvetica,sans-Serif" font-size="10.00" fill="grey"> error_</text>
</g>
<!-- Node11&#45;&gt;Node7 -->
<g id="edge13_Node000007_Node000011" class="edge">
<title>Node11&#45;&gt;Node7</title>
<g id="a_edge13_Node000007_Node000011"><a xlink:title=" ">
<path fill="none" stroke="#9a32cd" stroke-dasharray="5,2" d="M903.17,-429.45C863.02,-430.51 813.88,-431.81 775.47,-432.82"/>
<polygon fill="#9a32cd" stroke="#9a32cd" points="903.08,-432.95 912.99,-429.19 902.9,-425.96 903.08,-432.95"/>
</a>
</g>
<text text-anchor="middle" x="845" y="-434.5" font-family="Helvetica,sans-Serif" font-size="10.00" fill="grey"> error_</text>
</g>
<!-- Node11&#45;&gt;Node12 -->
<g id="edge19_Node000012_Node000011" class="edge">
<title>Node11&#45;&gt;Node12</title>
<g id="a_edge19_Node000012_Node000011"><a xlink:title=" ">
<path fill="none" stroke="#9a32cd" stroke-dasharray="5,2" d="M1042.62,-415.49C1077.02,-409 1118.93,-401.09 1151.06,-395.02"/>
<polygon fill="#9a32cd" stroke="#9a32cd" points="1042.39,-411.97 1033.22,-417.27 1043.69,-418.85 1042.39,-411.97"/>
</a>
</g>
<text text-anchor="middle" x="1089.5" y="-413.5" font-family="Helvetica,sans-Serif" font-size="10.00" fill="grey"> error_</text>
</g>
<!-- Node11&#45;&gt;Node13 -->
<g id="edge23_Node000013_Node000011" class="edge">
<title>Node11&#45;&gt;Node13</title>
<g id="a_edge23_Node000013_Node000011"><a xlink:title=" ">
<path fill="none" stroke="#9a32cd" stroke-dasharray="5,2" d="M1024.8,-440.5C1035.96,-443.55 1047.89,-446.73 1059,-449.5 1090.73,-457.42 1126.67,-465.49 1154.52,-471.54"/>
<polygon fill="#9a32cd" stroke="#9a32cd" points="1025.98,-437.19 1015.41,-437.9 1024.12,-443.94 1025.98,-437.19"/>
</a>
</g>
<text text-anchor="middle" x="1089.5" y="-465.5" font-family="Helvetica,sans-Serif" font-size="10.00" fill="grey"> error_</text>
</g>
<!-- Node11&#45;&gt;Node14 -->
<g id="edge29_Node000014_Node000011" class="edge">
<title>Node11&#45;&gt;Node14</title>
<g id="a_edge29_Node000014_Node000011"><a xlink:title=" ">
<path fill="none" stroke="#9a32cd" stroke-dasharray="5,2" d="M1014.45,-412.97C1023.3,-408.94 1032.64,-404.34 1041,-399.5 1049.54,-394.56 1050.84,-392.05 1059,-386.5 1104.16,-355.81 1158.92,-321.68 1185.49,-305.31"/>
<polygon fill="#9a32cd" stroke="#9a32cd" points="1013.14,-409.72 1005.39,-416.96 1015.96,-416.13 1013.14,-409.72"/>
</a>
</g>
<text text-anchor="middle" x="1089.5" y="-389.5" font-family="Helvetica,sans-Serif" font-size="10.00" fill="grey"> error_</text>
</g>
<!-- Node12&#45;&gt;Node6 -->
<g id="edge16_Node000006_Node000012" class="edge">
<title>Node12&#45;&gt;Node6</title>
<g id="a_edge16_Node000006_Node000012"><a xlink:title=" ">
<path fill="none" stroke="#9a32cd" stroke-dasharray="5,2" d="M1265.23,-396.3C1294.5,-401.42 1329.25,-407.5 1357.9,-412.51"/>
<polygon fill="#9a32cd" stroke="#9a32cd" points="1265.84,-392.85 1255.38,-394.58 1264.63,-399.75 1265.84,-392.85"/>
</a>
</g>
<text text-anchor="middle" x="1306.5" y="-408.5" font-family="Helvetica,sans-Serif" font-size="10.00" fill="grey"> server_</text>
</g>
<!-- Node13&#45;&gt;Node6 -->
<g id="edge20_Node000006_Node000013" class="edge">
<title>Node13&#45;&gt;Node6</title>
<g id="a_edge20_Node000006_Node000013"><a xlink:title=" ">
<path fill="none" stroke="#9a32cd" stroke-dasharray="5,2" d="M1262.34,-469.1C1283.2,-464.37 1306.76,-458.62 1328,-452.5 1348.57,-446.57 1371.45,-438.63 1388.57,-432.41"/>
<polygon fill="#9a32cd" stroke="#9a32cd" points="1261.86,-465.63 1252.87,-471.23 1263.39,-472.46 1261.86,-465.63"/>
</a>
</g>
<text text-anchor="middle" x="1306.5" y="-465.5" font-family="Helvetica,sans-Serif" font-size="10.00" fill="grey"> session_</text>
</g>
<!-- Node14&#45;&gt;Node5 -->
<g id="edge26_Node000005_Node000014" class="edge">
<title>Node14&#45;&gt;Node5</title>
<g id="a_edge26_Node000005_Node000014"><a xlink:title=" ">
<path fill="none" stroke="#9a32cd" stroke-dasharray="5,2" d="M1278.43,-295.5C1367.22,-295.5 1513.35,-295.5 1594.68,-295.5"/>
<polygon fill="#9a32cd" stroke="#9a32cd" points="1278.6,-292 1268.6,-295.5 1278.6,-299 1278.6,-292"/>
</a>
</g>
<text text-anchor="middle" x="1416" y="-298.5" font-family="Helvetica,sans-Serif" font-size="10.00" fill="grey"> changeNotification_</text>
</g>
<!-- Node15 -->
<g id="Node000015" class="node">
<title>Node15</title>
<g id="a_Node000015"><a xlink:title=" ">
<polygon fill="white" stroke="#666666" points="2356,-98.5 2195,-98.5 2195,-68.5 2356,-68.5 2356,-98.5"/>
<text text-anchor="start" x="2203" y="-86.5" font-family="Helvetica,sans-Serif" font-size="10.00">std::vector&lt; std::unique</text>
<text text-anchor="middle" x="2275.5" y="-75.5" font-family="Helvetica,sans-Serif" font-size="10.00">_ptr&lt; Harlinn::OCI::BindBase &gt; &gt;</text>
</a>
</g>
</g>
<!-- Node15&#45;&gt;Node5 -->
<g id="edge30_Node000005_Node000015" class="edge">
<title>Node15&#45;&gt;Node5</title>
<g id="a_edge30_Node000005_Node000015"><a xlink:title=" ">
<path fill="none" stroke="#9a32cd" stroke-dasharray="5,2" d="M2218.58,-102.67C2090.83,-146.45 1781.19,-252.59 1685,-285.56"/>
<polygon fill="#9a32cd" stroke="#9a32cd" points="2219.52,-106.04 2227.85,-99.49 2217.25,-99.42 2219.52,-106.04"/>
</a>
</g>
<text text-anchor="middle" x="1962" y="-196.5" font-family="Helvetica,sans-Serif" font-size="10.00" fill="grey"> binds_</text>
</g>
<!-- Node16 -->
<g id="Node000016" class="node">
<title>Node16</title>
<g id="a_Node000016"><a xlink:title=" ">
<polygon fill="white" stroke="#666666" points="2116,-98.5 1996,-98.5 1996,-68.5 2116,-68.5 2116,-98.5"/>
<text text-anchor="start" x="2004" y="-86.5" font-family="Helvetica,sans-Serif" font-size="10.00">std::unique_ptr&lt; Harlinn</text>
<text text-anchor="middle" x="2056" y="-75.5" font-family="Helvetica,sans-Serif" font-size="10.00">::OCI::BindBase &gt;</text>
</a>
</g>
</g>
<!-- Node16&#45;&gt;Node15 -->
<g id="edge31_Node000015_Node000016" class="edge">
<title>Node16&#45;&gt;Node15</title>
<g id="a_edge31_Node000015_Node000016"><a xlink:title=" ">
<path fill="none" stroke="#9a32cd" stroke-dasharray="5,2" d="M2127.73,-83.5C2149.14,-83.5 2172.79,-83.5 2194.75,-83.5"/>
<polygon fill="#9a32cd" stroke="#9a32cd" points="2127.95,-80 2117.95,-83.5 2127.95,-87 2127.95,-80"/>
</a>
</g>
<text text-anchor="middle" x="2155.5" y="-86.5" font-family="Helvetica,sans-Serif" font-size="10.00" fill="grey"> elements</text>
</g>
<!-- Node17&#45;&gt;Node16 -->
<g id="edge32_Node000016_Node000017" class="edge">
<title>Node17&#45;&gt;Node16</title>
<g id="a_edge32_Node000016_Node000017"><a xlink:title=" ">
<path fill="none" stroke="#9a32cd" stroke-dasharray="5,2" d="M1921.34,-113.99C1944.7,-108.66 1971.99,-102.43 1995.81,-97"/>
<polygon fill="#9a32cd" stroke="#9a32cd" points="1920.67,-110.55 1911.7,-116.19 1922.22,-117.38 1920.67,-110.55"/>
</a>
</g>
<text text-anchor="middle" x="1962" y="-110.5" font-family="Helvetica,sans-Serif" font-size="10.00" fill="grey"> ptr</text>
</g>
<!-- Node18 -->
<g id="Node000018" class="node">
<title>Node18</title>
<g id="a_Node000018"><a xlink:href="class_harlinn_1_1_common_1_1_core_1_1_basic_string.html" target="_top" xlink:title=" ">
<polygon fill="white" stroke="#666666" points="773.5,-111.5 648.5,-111.5 648.5,-81.5 773.5,-81.5 773.5,-111.5"/>
<text text-anchor="start" x="656.5" y="-99.5" font-family="Helvetica,sans-Serif" font-size="10.00">Harlinn::Common::Core</text>
<text text-anchor="middle" x="711" y="-88.5" font-family="Helvetica,sans-Serif" font-size="10.00">::BasicString&lt; wchar_t &gt;</text>
</a>
</g>
</g>
<!-- Node18&#45;&gt;Node17 -->
<g id="edge35_Node000017_Node000018" class="edge">
<title>Node18&#45;&gt;Node17</title>
<g id="a_edge35_Node000017_Node000018"><a xlink:title=" ">
<path fill="none" stroke="#9a32cd" stroke-dasharray="5,2" d="M785.21,-97.35C838.42,-97.89 912.17,-98.5 977,-98.5 977,-98.5 977,-98.5 1656,-98.5 1711.88,-98.5 1775.44,-108.5 1817.54,-116.55"/>
<polygon fill="#9a32cd" stroke="#9a32cd" points="785.39,-93.85 775.36,-97.25 785.32,-100.85 785.39,-93.85"/>
</a>
</g>
<text text-anchor="middle" x="1306.5" y="-101.5" font-family="Helvetica,sans-Serif" font-size="10.00" fill="grey"> name_</text>
</g>
<!-- Node19&#45;&gt;Node18 -->
<g id="edge36_Node000018_Node000019" class="edge">
<title>Node19&#45;&gt;Node18</title>
<g id="a_edge36_Node000018_Node000019"><a xlink:title=" ">
<path fill="none" stroke="#9a32cd" stroke-dasharray="5,2" d="M237.79,-130.22C239.88,-130.33 241.96,-130.42 244,-130.5 415.19,-137.25 459.02,-132.92 629,-111.5 635.24,-110.71 641.73,-109.75 648.2,-108.7"/>
<polygon fill="#9a32cd" stroke="#9a32cd" points="238.17,-126.74 227.99,-129.67 237.77,-133.73 238.17,-126.74"/>
</a>
</g>
<text text-anchor="middle" x="431" y="-135.5" font-family="Helvetica,sans-Serif" font-size="10.00" fill="grey"> data_</text>
</g>
<!-- Node20 -->
<g id="Node000020" class="node">
<title>Node20</title>
<g id="a_Node000020"><a xlink:href="class_harlinn_1_1_common_1_1_core_1_1_basic_string.html" target="_top" xlink:title="This is a reference counted string class.">
<polygon fill="white" stroke="#666666" points="490,-111.5 372,-111.5 372,-81.5 490,-81.5 490,-111.5"/>
<text text-anchor="start" x="380" y="-99.5" font-family="Helvetica,sans-Serif" font-size="10.00">Harlinn::Common::Core</text>
<text text-anchor="middle" x="431" y="-88.5" font-family="Helvetica,sans-Serif" font-size="10.00">::BasicString&lt; T &gt;</text>
</a>
</g>
</g>
<!-- Node19&#45;&gt;Node20 -->
<g id="edge39_Node000020_Node000019" class="edge">
<title>Node19&#45;&gt;Node20</title>
<g id="a_edge39_Node000020_Node000019"><a xlink:title=" ">
<path fill="none" stroke="#9a32cd" stroke-dasharray="5,2" d="M237.69,-117.05C279.51,-112.58 332.1,-106.96 371.71,-102.73"/>
<polygon fill="#9a32cd" stroke="#9a32cd" points="237.55,-113.55 227.98,-118.09 238.29,-120.51 237.55,-113.55"/>
</a>
</g>
<text text-anchor="middle" x="296" y="-118.5" font-family="Helvetica,sans-Serif" font-size="10.00" fill="grey"> data_</text>
</g>
<!-- Node20&#45;&gt;Node18 -->
<g id="edge38_Node000018_Node000020" class="edge">
<title>Node20&#45;&gt;Node18</title>
<g id="a_edge38_Node000018_Node000020"><a xlink:title=" ">
<path fill="none" stroke="orange" stroke-dasharray="5,2" d="M501.74,-96.5C546.85,-96.5 605.03,-96.5 648.43,-96.5"/>
<polygon fill="orange" stroke="orange" points="501.79,-93 491.79,-96.5 501.79,-100 501.79,-93"/>
</a>
</g>
<text text-anchor="middle" x="571.5" y="-99.5" font-family="Helvetica,sans-Serif" font-size="10.00" fill="grey"> &lt; wchar_t &gt;</text>
</g>
<!-- Node21&#45;&gt;Node16 -->
<g id="edge40_Node000016_Node000021" class="edge">
<title>Node21&#45;&gt;Node16</title>
<g id="a_edge40_Node000016_Node000021"><a xlink:title=" ">
<path fill="none" stroke="orange" stroke-dasharray="5,2" d="M359.81,-55.42C415.24,-54.56 498.24,-53.5 570.5,-53.5 570.5,-53.5 570.5,-53.5 1866.5,-53.5 1910.08,-53.5 1958.62,-61.42 1995.53,-69.12"/>
<polygon fill="orange" stroke="orange" points="359.87,-51.92 349.93,-55.58 359.98,-58.92 359.87,-51.92"/>
</a>
</g>
<text text-anchor="middle" x="1202.5" y="-56.5" font-family="Helvetica,sans-Serif" font-size="10.00" fill="grey"> &lt; Harlinn::OCI::BindBase &gt;</text>
</g>
<!-- Node22&#45;&gt;Node15 -->
<g id="edge42_Node000015_Node000022" class="edge">
<title>Node22&#45;&gt;Node15</title>
<g id="a_edge42_Node000015_Node000022"><a xlink:title=" ">
<path fill="none" stroke="orange" stroke-dasharray="5,2" d="M625.85,-7.62C680.6,-5.86 768.23,-3.5 844,-3.5 844,-3.5 844,-3.5 2057,-3.5 2131.03,-3.5 2211,-44.83 2250.13,-68.08"/>
<polygon fill="orange" stroke="orange" points="625.75,-4.13 615.87,-7.95 625.98,-11.12 625.75,-4.13"/>
</a>
</g>
<text text-anchor="start" x="1355" y="-17.5" font-family="Helvetica,sans-Serif" font-size="10.00" fill="grey"> &lt; std::unique_ptr&lt;</text>
<text text-anchor="middle" x="1416" y="-6.5" font-family="Helvetica,sans-Serif" font-size="10.00" fill="grey"> Harlinn::OCI::BindBase &gt; &gt;</text>
</g>
<!-- Node23 -->
<g id="Node000023" class="node">
<title>Node23</title>
<g id="a_Node000023"><a xlink:title=" ">
<polygon fill="white" stroke="#666666" points="897,-668.5 793,-668.5 793,-638.5 897,-638.5 897,-668.5"/>
<text text-anchor="start" x="801" y="-656.5" font-family="Helvetica,sans-Serif" font-size="10.00">std::array&lt; wchar_t,</text>
<text text-anchor="middle" x="845" y="-645.5" font-family="Helvetica,sans-Serif" font-size="10.00"> FixedStringSize &gt;</text>
</a>
</g>
</g>
<!-- Node23&#45;&gt;Node1 -->
<g id="edge44_Node000001_Node000023" class="edge">
<title>Node23&#45;&gt;Node1</title>
<g id="a_edge44_Node000001_Node000023"><a xlink:title=" ">
<path fill="none" stroke="#9a32cd" stroke-dasharray="5,2" d="M908.45,-653.5C957.43,-653.5 1027.31,-653.5 1088.5,-653.5 1088.5,-653.5 1088.5,-653.5 2057,-653.5 2109.2,-653.5 2168.33,-649.72 2211.74,-646.24"/>
<polygon fill="#9a32cd" stroke="#9a32cd" points="908.61,-650 898.61,-653.5 908.61,-657 908.61,-650"/>
</a>
</g>
<text text-anchor="middle" x="1540.5" y="-656.5" font-family="Helvetica,sans-Serif" font-size="10.00" fill="grey"> data_</text>
</g>
<!-- Node24&#45;&gt;Node23 -->
<g id="edge45_Node000023_Node000024" class="edge">
<title>Node24&#45;&gt;Node23</title>
<g id="a_edge45_Node000023_Node000024"><a xlink:title=" ">
<path fill="none" stroke="orange" stroke-dasharray="5,2" d="M193.48,-483.46C249.13,-517.39 386.78,-596.3 514,-629.5 610.16,-654.59 727.06,-656.73 792.75,-655.48"/>
<polygon fill="orange" stroke="orange" points="195.4,-480.53 185.05,-478.27 191.73,-486.5 195.4,-480.53"/>
</a>
</g>
<text text-anchor="middle" x="431" y="-625.5" font-family="Helvetica,sans-Serif" font-size="10.00" fill="grey"> &lt; wchar_t, FixedStringSize &gt;</text>
</g>
</g>
</svg>
