<?xml version="1.0" encoding="UTF-8" standalone="no"?>
<!DOCTYPE svg PUBLIC "-//W3C//DTD SVG 1.1//EN"
 "http://www.w3.org/Graphics/SVG/1.1/DTD/svg11.dtd">
<!-- Generated by graphviz version 7.0.1 (20221109.1506)
 -->
<!-- Title: Harlinn::OCI::TypeDescriptor Pages: 1 -->
<svg width="172pt" height="192pt"
 viewBox="0.00 0.00 172.00 192.00" xmlns="http://www.w3.org/2000/svg" xmlns:xlink="http://www.w3.org/1999/xlink">
<g id="graph0" class="graph" transform="scale(1 1) rotate(0) translate(4 188)">
<title>Harlinn::OCI::TypeDescriptor</title>
<!-- Node1 -->
<g id="Node000001" class="node">
<title>Node1</title>
<g id="a_Node000001"><a xlink:title="TypeDescriptor.">
<polygon fill="#999999" stroke="#666666" points="152,-19 12,-19 12,0 152,0 152,-19"/>
<text text-anchor="middle" x="82" y="-7" font-family="Helvetica,sans-Serif" font-size="10.00">Harlinn::OCI::TypeDescriptor</text>
</a>
</g>
</g>
<!-- Node2 -->
<g id="Node000002" class="node">
<title>Node2</title>
<g id="a_Node000002"><a xlink:href="class_harlinn_1_1_o_c_i_1_1_parameter_descriptor.xhtml" target="_top" xlink:title="ParameterDescriptor.">
<polygon fill="white" stroke="#666666" points="164,-74 0,-74 0,-55 164,-55 164,-74"/>
<text text-anchor="middle" x="82" y="-62" font-family="Helvetica,sans-Serif" font-size="10.00">Harlinn::OCI::ParameterDescriptor</text>
</a>
</g>
</g>
<!-- Node2&#45;&gt;Node1 -->
<g id="edge1_Node000001_Node000002" class="edge">
<title>Node2&#45;&gt;Node1</title>
<g id="a_edge1_Node000001_Node000002"><a xlink:title=" ">
<path fill="none" stroke="#63b8ff" d="M82,-43.35C82,-35.1 82,-25.97 82,-19.44"/>
<polygon fill="#63b8ff" stroke="#63b8ff" points="78.5,-43.23 82,-53.23 85.5,-43.23 78.5,-43.23"/>
</a>
</g>
</g>
<!-- Node3 -->
<g id="Node000003" class="node">
<title>Node3</title>
<g id="a_Node000003"><a xlink:href="class_harlinn_1_1_o_c_i_1_1_descriptor.xhtml" target="_top" xlink:title="Descriptor, base class for all the descriptors.">
<polygon fill="white" stroke="#666666" points="141.5,-129 22.5,-129 22.5,-110 141.5,-110 141.5,-129"/>
<text text-anchor="middle" x="82" y="-117" font-family="Helvetica,sans-Serif" font-size="10.00">Harlinn::OCI::Descriptor</text>
</a>
</g>
</g>
<!-- Node3&#45;&gt;Node2 -->
<g id="edge2_Node000002_Node000003" class="edge">
<title>Node3&#45;&gt;Node2</title>
<g id="a_edge2_Node000002_Node000003"><a xlink:title=" ">
<path fill="none" stroke="#63b8ff" d="M82,-98.35C82,-90.1 82,-80.97 82,-74.44"/>
<polygon fill="#63b8ff" stroke="#63b8ff" points="78.5,-98.23 82,-108.23 85.5,-98.23 78.5,-98.23"/>
</a>
</g>
</g>
<!-- Node4 -->
<g id="Node000004" class="node">
<title>Node4</title>
<g id="a_Node000004"><a xlink:href="class_harlinn_1_1_o_c_i_1_1_handle_base.xhtml" target="_top" xlink:title="Base class for OCI handle wrappers.">
<polygon fill="white" stroke="#666666" points="146,-184 18,-184 18,-165 146,-165 146,-184"/>
<text text-anchor="middle" x="82" y="-172" font-family="Helvetica,sans-Serif" font-size="10.00">Harlinn::OCI::HandleBase</text>
</a>
</g>
</g>
<!-- Node4&#45;&gt;Node3 -->
<g id="edge3_Node000003_Node000004" class="edge">
<title>Node4&#45;&gt;Node3</title>
<g id="a_edge3_Node000003_Node000004"><a xlink:title=" ">
<path fill="none" stroke="#63b8ff" d="M82,-153.35C82,-145.1 82,-135.97 82,-129.44"/>
<polygon fill="#63b8ff" stroke="#63b8ff" points="78.5,-153.23 82,-163.23 85.5,-153.23 78.5,-153.23"/>
</a>
</g>
</g>
</g>
</svg>
