<?xml version="1.0" encoding="UTF-8" standalone="no"?>
<!DOCTYPE svg PUBLIC "-//W3C//DTD SVG 1.1//EN"
 "http://www.w3.org/Graphics/SVG/1.1/DTD/svg11.dtd">
<!-- Generated by graphviz version 7.0.1 (20221109.1506)
 -->
<!-- Title: Harlinn::Common::Core::Security::AccessDeniedObjectAccessControlEntry Pages: 1 -->
<svg width="1282pt" height="197pt"
 viewBox="0.00 0.00 1282.00 197.25" xmlns="http://www.w3.org/2000/svg" xmlns:xlink="http://www.w3.org/1999/xlink">
<g id="graph0" class="graph" transform="scale(1 1) rotate(0) translate(4 193.25)">
<title>Harlinn::Common::Core::Security::AccessDeniedObjectAccessControlEntry</title>
<!-- Node1 -->
<g id="Node000001" class="node">
<title>Node1</title>
<g id="a_Node000001"><a xlink:title=" ">
<polygon fill="#999999" stroke="#666666" points="1274,-119.75 1118,-119.75 1118,-78.75 1274,-78.75 1274,-119.75"/>
<text text-anchor="start" x="1126" y="-107.75" font-family="Helvetica,sans-Serif" font-size="10.00">Harlinn::Common::Core</text>
<text text-anchor="start" x="1126" y="-96.75" font-family="Helvetica,sans-Serif" font-size="10.00">::Security::AccessDeniedObject</text>
<text text-anchor="middle" x="1196" y="-85.75" font-family="Helvetica,sans-Serif" font-size="10.00">AccessControlEntry</text>
</a>
</g>
</g>
<!-- Node2 -->
<g id="Node000002" class="node">
<title>Node2</title>
<g id="a_Node000002"><a xlink:href="class_harlinn_1_1_common_1_1_core_1_1_security_1_1_object_access_control_entry_base.html" target="_top" xlink:title=" ">
<polygon fill="white" stroke="#666666" points="1081,-125.25 885,-125.25 885,-73.25 1081,-73.25 1081,-125.25"/>
<text text-anchor="start" x="893" y="-113.25" font-family="Helvetica,sans-Serif" font-size="10.00">Harlinn::Common::Core</text>
<text text-anchor="start" x="893" y="-102.25" font-family="Helvetica,sans-Serif" font-size="10.00">::Security::ObjectAccessControl</text>
<text text-anchor="start" x="893" y="-91.25" font-family="Helvetica,sans-Serif" font-size="10.00">EntryBase&lt; ACCESS_DENIED_OBJECT</text>
<text text-anchor="middle" x="983" y="-80.25" font-family="Helvetica,sans-Serif" font-size="10.00">_ACE, AccessMask &gt;</text>
</a>
</g>
</g>
<!-- Node2&#45;&gt;Node1 -->
<g id="edge1_Node000001_Node000002" class="edge">
<title>Node2&#45;&gt;Node1</title>
<g id="a_edge1_Node000001_Node000002"><a xlink:title=" ">
<path fill="none" stroke="#63b8ff" d="M1092.83,-99.25C1101.16,-99.25 1109.47,-99.25 1117.54,-99.25"/>
<polygon fill="#63b8ff" stroke="#63b8ff" points="1092.98,-95.75 1082.98,-99.25 1092.98,-102.75 1092.98,-95.75"/>
</a>
</g>
</g>
<!-- Node3 -->
<g id="Node000003" class="node">
<title>Node3</title>
<g id="a_Node000003"><a xlink:href="class_harlinn_1_1_common_1_1_core_1_1_security_1_1_access_control_entry.html" target="_top" xlink:title="Base class for the various ACE wrappers.">
<polygon fill="white" stroke="#666666" points="415,-100.25 263,-100.25 263,-70.25 415,-70.25 415,-100.25"/>
<text text-anchor="start" x="271" y="-88.25" font-family="Helvetica,sans-Serif" font-size="10.00">Harlinn::Common::Core</text>
<text text-anchor="middle" x="339" y="-77.25" font-family="Helvetica,sans-Serif" font-size="10.00">::Security::AccessControlEntry</text>
</a>
</g>
</g>
<!-- Node3&#45;&gt;Node2 -->
<g id="edge2_Node000002_Node000003" class="edge">
<title>Node3&#45;&gt;Node2</title>
<g id="a_edge2_Node000002_Node000003"><a xlink:title=" ">
<path fill="none" stroke="#63b8ff" d="M426.75,-91.81C428.85,-91.96 430.94,-92.11 433,-92.25 625.49,-105.74 674.08,-108.45 867,-104.25 872.79,-104.13 878.75,-103.97 884.76,-103.78"/>
<polygon fill="#63b8ff" stroke="#63b8ff" points="427.1,-88.33 416.88,-91.1 426.6,-95.31 427.1,-88.33"/>
</a>
</g>
</g>
<!-- Node9 -->
<g id="Node000009" class="node">
<title>Node9</title>
<g id="a_Node000009"><a xlink:href="class_harlinn_1_1_common_1_1_core_1_1_security_1_1_object_access_control_entry_base.html" target="_top" xlink:title=" ">
<polygon fill="white" stroke="#666666" points="712,-89.75 541,-89.75 541,-48.75 712,-48.75 712,-89.75"/>
<text text-anchor="start" x="549" y="-77.75" font-family="Helvetica,sans-Serif" font-size="10.00">Harlinn::Common::Core</text>
<text text-anchor="start" x="549" y="-66.75" font-family="Helvetica,sans-Serif" font-size="10.00">::Security::ObjectAccessControl</text>
<text text-anchor="middle" x="626.5" y="-55.75" font-family="Helvetica,sans-Serif" font-size="10.00">EntryBase&lt; AceT, AccessMaskT &gt;</text>
</a>
</g>
</g>
<!-- Node3&#45;&gt;Node9 -->
<g id="edge9_Node000009_Node000003" class="edge">
<title>Node3&#45;&gt;Node9</title>
<g id="a_edge9_Node000009_Node000003"><a xlink:title=" ">
<path fill="none" stroke="#63b8ff" d="M426.42,-80.41C462.62,-78.38 504.58,-76.03 540.61,-74.01"/>
<polygon fill="#63b8ff" stroke="#63b8ff" points="426.68,-76.89 416.9,-80.94 427.08,-83.88 426.68,-76.89"/>
</a>
</g>
</g>
<!-- Node4 -->
<g id="Node000004" class="node">
<title>Node4</title>
<g id="a_Node000004"><a xlink:title=" ">
<polygon fill="white" stroke="#666666" points="179.5,-94.75 96.5,-94.75 96.5,-75.75 179.5,-75.75 179.5,-94.75"/>
<text text-anchor="middle" x="138" y="-82.75" font-family="Helvetica,sans-Serif" font-size="10.00">ACE_HEADER</text>
</a>
</g>
</g>
<!-- Node4&#45;&gt;Node3 -->
<g id="edge3_Node000003_Node000004" class="edge">
<title>Node4&#45;&gt;Node3</title>
<g id="a_edge3_Node000003_Node000004"><a xlink:title=" ">
<path fill="none" stroke="#8b1a1a" d="M191.12,-85.25C212.98,-85.25 238.83,-85.25 262.7,-85.25"/>
<polygon fill="#8b1a1a" stroke="#8b1a1a" points="191.26,-81.75 181.26,-85.25 191.26,-88.75 191.26,-81.75"/>
</a>
</g>
</g>
<!-- Node5 -->
<g id="Node000005" class="node">
<title>Node5</title>
<g id="a_Node000005"><a xlink:href="class_harlinn_1_1_common_1_1_core_1_1_security_1_1_access_mask.html" target="_top" xlink:title="An ACCESS_MASK wrapper class. The ACCESS_MASK data type is a DWORD value that defines standard,...">
<polygon fill="white" stroke="#666666" points="199,-189.25 77,-189.25 77,-159.25 199,-159.25 199,-189.25"/>
<text text-anchor="start" x="85" y="-177.25" font-family="Helvetica,sans-Serif" font-size="10.00">Harlinn::Common::Core</text>
<text text-anchor="middle" x="138" y="-166.25" font-family="Helvetica,sans-Serif" font-size="10.00">::Security::AccessMask</text>
</a>
</g>
</g>
<!-- Node5&#45;&gt;Node2 -->
<g id="edge4_Node000002_Node000005" class="edge">
<title>Node5&#45;&gt;Node2</title>
<g id="a_edge4_Node000002_Node000005"><a xlink:title=" ">
<path fill="none" stroke="#9a32cd" stroke-dasharray="5,2" d="M210.55,-176.29C266.31,-177.33 345.65,-177.58 415,-173.25 616.98,-160.64 666.68,-146.98 867,-118.25 872.81,-117.42 878.78,-116.53 884.8,-115.61"/>
<polygon fill="#9a32cd" stroke="#9a32cd" points="210.95,-172.8 200.88,-176.1 210.81,-179.8 210.95,-172.8"/>
</a>
</g>
<text text-anchor="middle" x="478" y="-174.25" font-family="Helvetica,sans-Serif" font-size="10.00" fill="grey"> mask_</text>
</g>
<!-- Node10 -->
<g id="Node000010" class="node">
<title>Node10</title>
<g id="a_Node000010"><a xlink:href="class_harlinn_1_1_common_1_1_core_1_1_security_1_1_access_mask_t.html" target="_top" xlink:title=" ">
<polygon fill="white" stroke="#666666" points="402.5,-163.75 275.5,-163.75 275.5,-122.75 402.5,-122.75 402.5,-163.75"/>
<text text-anchor="start" x="283.5" y="-151.75" font-family="Helvetica,sans-Serif" font-size="10.00">Harlinn::Common::Core</text>
<text text-anchor="start" x="283.5" y="-140.75" font-family="Helvetica,sans-Serif" font-size="10.00">::Security::AccessMaskT</text>
<text text-anchor="middle" x="339" y="-129.75" font-family="Helvetica,sans-Serif" font-size="10.00">&lt; DerivedT, RightsT &gt;</text>
</a>
</g>
</g>
<!-- Node5&#45;&gt;Node10 -->
<g id="edge11_Node000010_Node000005" class="edge">
<title>Node5&#45;&gt;Node10</title>
<g id="a_edge11_Node000010_Node000005"><a xlink:title=" ">
<path fill="none" stroke="#63b8ff" d="M210.45,-163.12C231.62,-159.83 254.63,-156.24 275.2,-153.04"/>
<polygon fill="#63b8ff" stroke="#63b8ff" points="210.08,-159.64 200.74,-164.64 211.16,-166.55 210.08,-159.64"/>
</a>
</g>
</g>
<!-- Node6 -->
<g id="Node000006" class="node">
<title>Node6</title>
<g id="a_Node000006"><a xlink:href="class_harlinn_1_1_common_1_1_core_1_1_guid.html" target="_top" xlink:title="Represents a globally unique identifier (GUID).">
<polygon fill="white" stroke="#666666" points="398,-30.25 280,-30.25 280,-0.25 398,-0.25 398,-30.25"/>
<text text-anchor="start" x="288" y="-18.25" font-family="Helvetica,sans-Serif" font-size="10.00">Harlinn::Common::Core</text>
<text text-anchor="middle" x="339" y="-7.25" font-family="Helvetica,sans-Serif" font-size="10.00">::Guid</text>
</a>
</g>
</g>
<!-- Node6&#45;&gt;Node2 -->
<g id="edge5_Node000002_Node000006" class="edge">
<title>Node6&#45;&gt;Node2</title>
<g id="a_edge5_Node000002_Node000006"><a xlink:title=" ">
<path fill="none" stroke="#9a32cd" stroke-dasharray="5,2" d="M409.6,-11.37C448.29,-9.4 497.3,-7.23 541,-6.25 616.98,-4.55 637.04,6.29 712,-6.25 787.42,-18.88 869.98,-50.05 923.69,-72.84"/>
<polygon fill="#9a32cd" stroke="#9a32cd" points="409.78,-7.86 399.98,-11.87 410.14,-14.85 409.78,-7.86"/>
</a>
</g>
<text text-anchor="start" x="581.5" y="-31.25" font-family="Helvetica,sans-Serif" font-size="10.00" fill="grey"> InheritedObjectType</text>
<text text-anchor="middle" x="626.5" y="-20.25" font-family="Helvetica,sans-Serif" font-size="10.00" fill="grey">_</text>
<text text-anchor="middle" x="626.5" y="-9.25" font-family="Helvetica,sans-Serif" font-size="10.00" fill="grey">ObjectType_</text>
</g>
<!-- Node6&#45;&gt;Node9 -->
<g id="edge12_Node000009_Node000006" class="edge">
<title>Node6&#45;&gt;Node9</title>
<g id="a_edge12_Node000009_Node000006"><a xlink:title=" ">
<path fill="none" stroke="#9a32cd" stroke-dasharray="5,2" d="M409.82,-21.85C444.13,-25.74 485.96,-31.45 523,-39.25 534.88,-41.76 547.4,-44.94 559.44,-48.3"/>
<polygon fill="#9a32cd" stroke="#9a32cd" points="410.32,-18.38 400,-20.77 409.55,-25.34 410.32,-18.38"/>
</a>
</g>
<text text-anchor="start" x="433" y="-64.25" font-family="Helvetica,sans-Serif" font-size="10.00" fill="grey"> InheritedObjectType</text>
<text text-anchor="middle" x="478" y="-53.25" font-family="Helvetica,sans-Serif" font-size="10.00" fill="grey">_</text>
<text text-anchor="middle" x="478" y="-42.25" font-family="Helvetica,sans-Serif" font-size="10.00" fill="grey">ObjectType_</text>
</g>
<!-- Node7 -->
<g id="Node000007" class="node">
<title>Node7</title>
<g id="a_Node000007"><a xlink:href="struct_harlinn_1_1_common_1_1_core_1_1_guid_1_1_data_t.html" target="_top" xlink:title=" ">
<polygon fill="white" stroke="#666666" points="197,-30.25 79,-30.25 79,-0.25 197,-0.25 197,-30.25"/>
<text text-anchor="start" x="87" y="-18.25" font-family="Helvetica,sans-Serif" font-size="10.00">Harlinn::Common::Core</text>
<text text-anchor="middle" x="138" y="-7.25" font-family="Helvetica,sans-Serif" font-size="10.00">::Guid::DataT</text>
</a>
</g>
</g>
<!-- Node7&#45;&gt;Node6 -->
<g id="edge6_Node000006_Node000007" class="edge">
<title>Node7&#45;&gt;Node6</title>
<g id="a_edge6_Node000006_Node000007"><a xlink:title=" ">
<path fill="none" stroke="#9a32cd" stroke-dasharray="5,2" d="M208.86,-15.25C231.99,-15.25 257.47,-15.25 279.64,-15.25"/>
<polygon fill="#9a32cd" stroke="#9a32cd" points="208.88,-11.75 198.88,-15.25 208.88,-18.75 208.88,-11.75"/>
</a>
</g>
<text text-anchor="middle" x="231" y="-18.25" font-family="Helvetica,sans-Serif" font-size="10.00" fill="grey"> data_</text>
</g>
<!-- Node8 -->
<g id="Node000008" class="node">
<title>Node8</title>
<g id="a_Node000008"><a xlink:title=" ">
<polygon fill="white" stroke="#666666" points="40,-24.75 0,-24.75 0,-5.75 40,-5.75 40,-24.75"/>
<text text-anchor="middle" x="20" y="-12.75" font-family="Helvetica,sans-Serif" font-size="10.00">GUID</text>
</a>
</g>
</g>
<!-- Node8&#45;&gt;Node7 -->
<g id="edge7_Node000007_Node000008" class="edge">
<title>Node8&#45;&gt;Node7</title>
<g id="a_edge7_Node000007_Node000008"><a xlink:title=" ">
<path fill="none" stroke="#63b8ff" d="M51.8,-15.25C60.13,-15.25 69.41,-15.25 78.71,-15.25"/>
<polygon fill="#63b8ff" stroke="#63b8ff" points="51.93,-11.75 41.93,-15.25 51.93,-18.75 51.93,-11.75"/>
</a>
</g>
</g>
<!-- Node9&#45;&gt;Node2 -->
<g id="edge8_Node000002_Node000009" class="edge">
<title>Node9&#45;&gt;Node2</title>
<g id="a_edge8_Node000002_Node000009"><a xlink:title=" ">
<path fill="none" stroke="orange" stroke-dasharray="5,2" d="M723.67,-72.44C767.47,-74.41 819.93,-77.51 867,-82.25 872.72,-82.83 878.6,-83.49 884.52,-84.21"/>
<polygon fill="orange" stroke="orange" points="724.1,-68.96 713.95,-72.02 723.79,-75.95 724.1,-68.96"/>
</a>
</g>
<text text-anchor="start" x="730" y="-96.25" font-family="Helvetica,sans-Serif" font-size="10.00" fill="grey"> &lt; ACCESS_DENIED_OBJECT</text>
<text text-anchor="middle" x="798.5" y="-85.25" font-family="Helvetica,sans-Serif" font-size="10.00" fill="grey">_ACE, AccessMask &gt;</text>
</g>
<!-- Node10&#45;&gt;Node9 -->
<g id="edge10_Node000009_Node000010" class="edge">
<title>Node10&#45;&gt;Node9</title>
<g id="a_edge10_Node000009_Node000010"><a xlink:title=" ">
<path fill="none" stroke="#9a32cd" stroke-dasharray="5,2" d="M413.69,-124.15C453.75,-113.77 503.39,-100.91 544.53,-90.24"/>
<polygon fill="#9a32cd" stroke="#9a32cd" points="412.92,-120.74 404.12,-126.63 414.68,-127.51 412.92,-120.74"/>
</a>
</g>
<text text-anchor="middle" x="478" y="-119.25" font-family="Helvetica,sans-Serif" font-size="10.00" fill="grey"> mask_</text>
</g>
</g>
</svg>
