<?xml version="1.0" encoding="UTF-8" standalone="no"?>
<!DOCTYPE svg PUBLIC "-//W3C//DTD SVG 1.1//EN"
 "http://www.w3.org/Graphics/SVG/1.1/DTD/svg11.dtd">
<!-- Generated by graphviz version 7.0.1 (20221109.1506)
 -->
<!-- Title: Harlinn::Common::Core::ProcessOptions Pages: 1 -->
<svg width="856pt" height="118pt"
 viewBox="0.00 0.00 856.00 118.00" xmlns="http://www.w3.org/2000/svg" xmlns:xlink="http://www.w3.org/1999/xlink">
<g id="graph0" class="graph" transform="scale(1 1) rotate(0) translate(4 114)">
<title>Harlinn::Common::Core::ProcessOptions</title>
<!-- Node1 -->
<g id="Node000001" class="node">
<title>Node1</title>
<g id="a_Node000001"><a xlink:title=" ">
<polygon fill="#999999" stroke="#666666" points="848,-54 730,-54 730,-24 848,-24 848,-54"/>
<text text-anchor="start" x="738" y="-42" font-family="Helvetica,sans-Serif" font-size="10.00">Harlinn::Common::Core</text>
<text text-anchor="middle" x="789" y="-31" font-family="Helvetica,sans-Serif" font-size="10.00">::ProcessOptions</text>
</a>
</g>
</g>
<!-- Node2 -->
<g id="Node000002" class="node">
<title>Node2</title>
<g id="a_Node000002"><a xlink:href="class_harlinn_1_1_common_1_1_core_1_1_basic_string.xhtml" target="_top" xlink:title=" ">
<polygon fill="white" stroke="#666666" points="613,-78 488,-78 488,-48 613,-48 613,-78"/>
<text text-anchor="start" x="496" y="-66" font-family="Helvetica,sans-Serif" font-size="10.00">Harlinn::Common::Core</text>
<text text-anchor="middle" x="550.5" y="-55" font-family="Helvetica,sans-Serif" font-size="10.00">::BasicString&lt; wchar_t &gt;</text>
</a>
</g>
</g>
<!-- Node2&#45;&gt;Node1 -->
<g id="edge1_Node000001_Node000002" class="edge">
<title>Node2&#45;&gt;Node1</title>
<g id="a_edge1_Node000001_Node000002"><a xlink:title=" ">
<path fill="none" stroke="#9a32cd" stroke-dasharray="5,2" d="M624.56,-55.59C658.38,-52.15 698.02,-48.13 729.79,-44.91"/>
<polygon fill="#9a32cd" stroke="#9a32cd" points="624.43,-52.08 614.83,-56.57 625.14,-59.05 624.43,-52.08"/>
</a>
</g>
<text text-anchor="middle" x="671.5" y="-102" font-family="Helvetica,sans-Serif" font-size="10.00" fill="grey"> applicationName_</text>
<text text-anchor="middle" x="671.5" y="-91" font-family="Helvetica,sans-Serif" font-size="10.00" fill="grey">commandLine_</text>
<text text-anchor="start" x="631" y="-80" font-family="Helvetica,sans-Serif" font-size="10.00" fill="grey">currentDirectory</text>
<text text-anchor="middle" x="671.5" y="-69" font-family="Helvetica,sans-Serif" font-size="10.00" fill="grey">_</text>
<text text-anchor="middle" x="671.5" y="-58" font-family="Helvetica,sans-Serif" font-size="10.00" fill="grey">environment_</text>
</g>
<!-- Node3 -->
<g id="Node000003" class="node">
<title>Node3</title>
<g id="a_Node000003"><a xlink:href="struct_harlinn_1_1_common_1_1_core_1_1_internal_1_1_data.xhtml" target="_top" xlink:title=" ">
<polygon fill="white" stroke="#666666" points="215,-101 97,-101 97,-71 215,-71 215,-101"/>
<text text-anchor="start" x="105" y="-89" font-family="Helvetica,sans-Serif" font-size="10.00">Harlinn::Common::Core</text>
<text text-anchor="middle" x="156" y="-78" font-family="Helvetica,sans-Serif" font-size="10.00">::Internal::Data&lt; T &gt;</text>
</a>
</g>
</g>
<!-- Node3&#45;&gt;Node2 -->
<g id="edge2_Node000002_Node000003" class="edge">
<title>Node3&#45;&gt;Node2</title>
<g id="a_edge2_Node000002_Node000003"><a xlink:title=" ">
<path fill="none" stroke="#9a32cd" stroke-dasharray="5,2" d="M226.8,-88.86C228.89,-88.91 230.96,-88.96 233,-89 338.47,-91.08 365.48,-90.26 470,-76 475.82,-75.21 481.87,-74.32 487.92,-73.4"/>
<polygon fill="#9a32cd" stroke="#9a32cd" points="227.11,-85.37 217.01,-88.58 226.91,-92.37 227.11,-85.37"/>
</a>
</g>
<text text-anchor="middle" x="338" y="-92" font-family="Helvetica,sans-Serif" font-size="10.00" fill="grey"> data_</text>
</g>
<!-- Node5 -->
<g id="Node000005" class="node">
<title>Node5</title>
<g id="a_Node000005"><a xlink:href="class_harlinn_1_1_common_1_1_core_1_1_basic_string.xhtml" target="_top" xlink:title="This is a reference counted string class.">
<polygon fill="white" stroke="#666666" points="397,-75 279,-75 279,-45 397,-45 397,-75"/>
<text text-anchor="start" x="287" y="-63" font-family="Helvetica,sans-Serif" font-size="10.00">Harlinn::Common::Core</text>
<text text-anchor="middle" x="338" y="-52" font-family="Helvetica,sans-Serif" font-size="10.00">::BasicString&lt; T &gt;</text>
</a>
</g>
</g>
<!-- Node3&#45;&gt;Node5 -->
<g id="edge5_Node000005_Node000003" class="edge">
<title>Node3&#45;&gt;Node5</title>
<g id="a_edge5_Node000005_Node000003"><a xlink:title=" ">
<path fill="none" stroke="#9a32cd" stroke-dasharray="5,2" d="M226.55,-75.95C243.73,-73.47 261.95,-70.84 278.54,-68.44"/>
<polygon fill="#9a32cd" stroke="#9a32cd" points="226.34,-72.45 216.94,-77.34 227.34,-79.38 226.34,-72.45"/>
</a>
</g>
<text text-anchor="middle" x="247" y="-77" font-family="Helvetica,sans-Serif" font-size="10.00" fill="grey"> data_</text>
</g>
<!-- Node4 -->
<g id="Node000004" class="node">
<title>Node4</title>
<g id="a_Node000004"><a xlink:title=" ">
<polygon fill="white" stroke="#666666" points="29,-95.5 0,-95.5 0,-76.5 29,-76.5 29,-95.5"/>
<text text-anchor="middle" x="14.5" y="-83.5" font-family="Helvetica,sans-Serif" font-size="10.00">T</text>
</a>
</g>
</g>
<!-- Node4&#45;&gt;Node3 -->
<g id="edge3_Node000003_Node000004" class="edge">
<title>Node4&#45;&gt;Node3</title>
<g id="a_edge3_Node000003_Node000004"><a xlink:title=" ">
<path fill="none" stroke="#9a32cd" stroke-dasharray="5,2" d="M40.72,-86C56.38,-86 77.19,-86 96.76,-86"/>
<polygon fill="#9a32cd" stroke="#9a32cd" points="40.9,-82.5 30.9,-86 40.9,-89.5 40.9,-82.5"/>
</a>
</g>
<text text-anchor="middle" x="63" y="-89" font-family="Helvetica,sans-Serif" font-size="10.00" fill="grey"> buffer_</text>
</g>
<!-- Node5&#45;&gt;Node2 -->
<g id="edge4_Node000002_Node000005" class="edge">
<title>Node5&#45;&gt;Node2</title>
<g id="a_edge4_Node000002_Node000005"><a xlink:title=" ">
<path fill="none" stroke="orange" stroke-dasharray="5,2" d="M408.83,-61C434.33,-61.36 462.97,-61.77 487.72,-62.12"/>
<polygon fill="orange" stroke="orange" points="408.92,-57.5 398.87,-60.85 408.82,-64.5 408.92,-57.5"/>
</a>
</g>
<text text-anchor="middle" x="442.5" y="-64" font-family="Helvetica,sans-Serif" font-size="10.00" fill="grey"> &lt; wchar_t &gt;</text>
</g>
<!-- Node6 -->
<g id="Node000006" class="node">
<title>Node6</title>
<g id="a_Node000006"><a xlink:href="class_harlinn_1_1_common_1_1_core_1_1_startup_info.xhtml" target="_top" xlink:title=" ">
<polygon fill="white" stroke="#666666" points="609.5,-30 491.5,-30 491.5,0 609.5,0 609.5,-30"/>
<text text-anchor="start" x="499.5" y="-18" font-family="Helvetica,sans-Serif" font-size="10.00">Harlinn::Common::Core</text>
<text text-anchor="middle" x="550.5" y="-7" font-family="Helvetica,sans-Serif" font-size="10.00">::StartupInfo</text>
</a>
</g>
</g>
<!-- Node6&#45;&gt;Node1 -->
<g id="edge6_Node000001_Node000006" class="edge">
<title>Node6&#45;&gt;Node1</title>
<g id="a_edge6_Node000001_Node000006"><a xlink:title=" ">
<path fill="none" stroke="#9a32cd" stroke-dasharray="5,2" d="M621.39,-22.09C655.89,-25.59 697.03,-29.77 729.8,-33.09"/>
<polygon fill="#9a32cd" stroke="#9a32cd" points="621.77,-18.61 611.47,-21.09 621.06,-25.58 621.77,-18.61"/>
</a>
</g>
<text text-anchor="middle" x="671.5" y="-35" font-family="Helvetica,sans-Serif" font-size="10.00" fill="grey"> startupInfo_</text>
</g>
<!-- Node7 -->
<g id="Node000007" class="node">
<title>Node7</title>
<g id="a_Node000007"><a xlink:title=" ">
<polygon fill="white" stroke="#666666" points="384.5,-24.5 291.5,-24.5 291.5,-5.5 384.5,-5.5 384.5,-24.5"/>
<text text-anchor="middle" x="338" y="-12.5" font-family="Helvetica,sans-Serif" font-size="10.00">STARTUPINFOW</text>
</a>
</g>
</g>
<!-- Node7&#45;&gt;Node6 -->
<g id="edge7_Node000006_Node000007" class="edge">
<title>Node7&#45;&gt;Node6</title>
<g id="a_edge7_Node000006_Node000007"><a xlink:title=" ">
<path fill="none" stroke="#63b8ff" d="M396.3,-15C425.77,-15 461.62,-15 491.23,-15"/>
<polygon fill="#63b8ff" stroke="#63b8ff" points="396.45,-11.5 386.45,-15 396.45,-18.5 396.45,-11.5"/>
</a>
</g>
</g>
</g>
</svg>
