<?xml version="1.0" encoding="UTF-8" standalone="no"?>
<!DOCTYPE svg PUBLIC "-//W3C//DTD SVG 1.1//EN"
 "http://www.w3.org/Graphics/SVG/1.1/DTD/svg11.dtd">
<!-- Generated by graphviz version 7.0.1 (20221109.1506)
 -->
<!-- Title: Harlinn::Common::Core::LMDBEx::HashIndexInfoT&lt; HashIndexT, PrimaryKeyT &gt; Pages: 1 -->
<svg width="1194pt" height="120pt"
 viewBox="0.00 0.00 1194.00 119.50" xmlns="http://www.w3.org/2000/svg" xmlns:xlink="http://www.w3.org/1999/xlink">
<g id="graph0" class="graph" transform="scale(1 1) rotate(0) translate(4 115.5)">
<title>Harlinn::Common::Core::LMDBEx::HashIndexInfoT&lt; HashIndexT, PrimaryKeyT &gt;</title>
<!-- Node1 -->
<g id="Node000001" class="node">
<title>Node1</title>
<g id="a_Node000001"><a xlink:title=" ">
<polygon fill="#999999" stroke="#666666" points="633,-72 485,-72 485,-31 633,-31 633,-72"/>
<text text-anchor="start" x="493" y="-60" font-family="Helvetica,sans-Serif" font-size="10.00">Harlinn::Common::Core</text>
<text text-anchor="start" x="493" y="-49" font-family="Helvetica,sans-Serif" font-size="10.00">::LMDBEx::HashIndexInfoT</text>
<text text-anchor="middle" x="559" y="-38" font-family="Helvetica,sans-Serif" font-size="10.00">&lt; HashIndexT, PrimaryKeyT &gt;</text>
</a>
</g>
</g>
<!-- Node5 -->
<g id="Node000005" class="node">
<title>Node5</title>
<g id="a_Node000005"><a xlink:href="class_harlinn_1_1_common_1_1_core_1_1_l_m_d_b_ex_1_1_hash_index_info_t.html" target="_top" xlink:title=" ">
<polygon fill="white" stroke="#666666" points="938,-105 797,-105 797,-64 938,-64 938,-105"/>
<text text-anchor="start" x="805" y="-93" font-family="Helvetica,sans-Serif" font-size="10.00">Harlinn::Common::Core</text>
<text text-anchor="start" x="805" y="-82" font-family="Helvetica,sans-Serif" font-size="10.00">::LMDBEx::HashIndexInfoT</text>
<text text-anchor="middle" x="867.5" y="-71" font-family="Helvetica,sans-Serif" font-size="10.00">&lt; LogIndexT, PrimaryKeyT &gt;</text>
</a>
</g>
</g>
<!-- Node1&#45;&gt;Node5 -->
<g id="edge4_Node000001_Node000005" class="edge">
<title>Node1&#45;&gt;Node5</title>
<g id="a_edge4_Node000001_Node000005"><a xlink:title=" ">
<path fill="none" stroke="orange" stroke-dasharray="5,2" d="M644.68,-60.62C692.46,-65.76 751.45,-72.11 796.58,-76.97"/>
<polygon fill="orange" stroke="orange" points="645.24,-57.16 634.92,-59.57 644.49,-64.12 645.24,-57.16"/>
</a>
</g>
<text text-anchor="middle" x="715" y="-78.5" font-family="Helvetica,sans-Serif" font-size="10.00" fill="grey"> &lt; LogIndexT, PrimaryKeyT &gt;</text>
</g>
<!-- Node7 -->
<g id="Node000007" class="node">
<title>Node7</title>
<g id="a_Node000007"><a xlink:href="class_harlinn_1_1_common_1_1_core_1_1_l_m_d_b_ex_1_1_hash_index_info_t.html" target="_top" xlink:title=" ">
<polygon fill="white" stroke="#666666" points="934.5,-43 800.5,-43 800.5,-2 934.5,-2 934.5,-43"/>
<text text-anchor="start" x="808.5" y="-31" font-family="Helvetica,sans-Serif" font-size="10.00">Harlinn::Common::Core</text>
<text text-anchor="start" x="808.5" y="-20" font-family="Helvetica,sans-Serif" font-size="10.00">::LMDBEx::HashIndexInfoT</text>
<text text-anchor="middle" x="867.5" y="-9" font-family="Helvetica,sans-Serif" font-size="10.00">&lt; LogSiteIndex, UInt64 &gt;</text>
</a>
</g>
</g>
<!-- Node1&#45;&gt;Node7 -->
<g id="edge6_Node000001_Node000007" class="edge">
<title>Node1&#45;&gt;Node7</title>
<g id="a_edge6_Node000001_Node000007"><a xlink:title=" ">
<path fill="none" stroke="orange" stroke-dasharray="5,2" d="M644.66,-43.49C693.74,-38.85 754.64,-33.08 800.21,-28.77"/>
<polygon fill="orange" stroke="orange" points="644.55,-39.98 634.92,-44.41 645.21,-46.95 644.55,-39.98"/>
</a>
</g>
<text text-anchor="middle" x="715" y="-45.5" font-family="Helvetica,sans-Serif" font-size="10.00" fill="grey"> &lt; LogSiteIndex, UInt64 &gt;</text>
</g>
<!-- Node2 -->
<g id="Node000002" class="node">
<title>Node2</title>
<g id="a_Node000002"><a xlink:href="class_harlinn_1_1_common_1_1_core_1_1_l_m_d_b_ex_1_1_hash_index_info.html" target="_top" xlink:title="HashIndexInfo.">
<polygon fill="white" stroke="#666666" points="448,-72 320,-72 320,-31 448,-31 448,-72"/>
<text text-anchor="start" x="328" y="-60" font-family="Helvetica,sans-Serif" font-size="10.00">Harlinn::Common::Core</text>
<text text-anchor="start" x="328" y="-49" font-family="Helvetica,sans-Serif" font-size="10.00">::LMDBEx::HashIndexInfo</text>
<text text-anchor="middle" x="384" y="-38" font-family="Helvetica,sans-Serif" font-size="10.00">&lt; PrimaryKeyT &gt;</text>
</a>
</g>
</g>
<!-- Node2&#45;&gt;Node1 -->
<g id="edge1_Node000001_Node000002" class="edge">
<title>Node2&#45;&gt;Node1</title>
<g id="a_edge1_Node000001_Node000002"><a xlink:title=" ">
<path fill="none" stroke="#63b8ff" d="M459.9,-51.5C468.1,-51.5 476.43,-51.5 484.61,-51.5"/>
<polygon fill="#63b8ff" stroke="#63b8ff" points="459.95,-48 449.95,-51.5 459.95,-55 459.95,-48"/>
</a>
</g>
</g>
<!-- Node3 -->
<g id="Node000003" class="node">
<title>Node3</title>
<g id="a_Node000003"><a xlink:href="class_harlinn_1_1_common_1_1_core_1_1_l_m_d_b_ex_1_1_index_info.html" target="_top" xlink:title="IndexInfo.">
<polygon fill="white" stroke="#666666" points="283,-66.5 165,-66.5 165,-36.5 283,-36.5 283,-66.5"/>
<text text-anchor="start" x="173" y="-54.5" font-family="Helvetica,sans-Serif" font-size="10.00">Harlinn::Common::Core</text>
<text text-anchor="middle" x="224" y="-43.5" font-family="Helvetica,sans-Serif" font-size="10.00">::LMDBEx::IndexInfo</text>
</a>
</g>
</g>
<!-- Node3&#45;&gt;Node2 -->
<g id="edge2_Node000002_Node000003" class="edge">
<title>Node3&#45;&gt;Node2</title>
<g id="a_edge2_Node000002_Node000003"><a xlink:title=" ">
<path fill="none" stroke="#63b8ff" d="M294.87,-51.5C303.08,-51.5 311.43,-51.5 319.54,-51.5"/>
<polygon fill="#63b8ff" stroke="#63b8ff" points="294.9,-48 284.9,-51.5 294.9,-55 294.9,-48"/>
</a>
</g>
</g>
<!-- Node4 -->
<g id="Node000004" class="node">
<title>Node4</title>
<g id="a_Node000004"><a xlink:href="class_harlinn_1_1_common_1_1_core_1_1_l_m_d_b_ex_1_1_table_info_base.html" target="_top" xlink:title="TableInfoBase.">
<polygon fill="white" stroke="#666666" points="128,-66.5 0,-66.5 0,-36.5 128,-36.5 128,-66.5"/>
<text text-anchor="start" x="8" y="-54.5" font-family="Helvetica,sans-Serif" font-size="10.00">Harlinn::Common::Core</text>
<text text-anchor="middle" x="64" y="-43.5" font-family="Helvetica,sans-Serif" font-size="10.00">::LMDBEx::TableInfoBase</text>
</a>
</g>
</g>
<!-- Node4&#45;&gt;Node3 -->
<g id="edge3_Node000003_Node000004" class="edge">
<title>Node4&#45;&gt;Node3</title>
<g id="a_edge3_Node000003_Node000004"><a xlink:title=" ">
<path fill="none" stroke="#63b8ff" d="M139.73,-51.5C148.13,-51.5 156.6,-51.5 164.75,-51.5"/>
<polygon fill="#63b8ff" stroke="#63b8ff" points="139.87,-48 129.87,-51.5 139.87,-55 139.87,-48"/>
</a>
</g>
</g>
<!-- Node6 -->
<g id="Node000006" class="node">
<title>Node6</title>
<g id="a_Node000006"><a xlink:href="class_harlinn_1_1_common_1_1_core_1_1_logging_1_1_sinks_1_1_storage_1_1_log_hash_index_info_t.html" target="_top" xlink:title="LogHashIndexInfoT.">
<polygon fill="white" stroke="#666666" points="1186,-111.5 975,-111.5 975,-59.5 1186,-59.5 1186,-111.5"/>
<text text-anchor="start" x="983" y="-99.5" font-family="Helvetica,sans-Serif" font-size="10.00">Harlinn::Common::Core</text>
<text text-anchor="start" x="983" y="-88.5" font-family="Helvetica,sans-Serif" font-size="10.00">::Logging::Sinks::Storage</text>
<text text-anchor="start" x="983" y="-77.5" font-family="Helvetica,sans-Serif" font-size="10.00">::LogHashIndexInfoT&lt; LogIndexT,</text>
<text text-anchor="middle" x="1080.5" y="-66.5" font-family="Helvetica,sans-Serif" font-size="10.00"> PrimaryKeyT, KeyFormatT, ValueFormatT &gt;</text>
</a>
</g>
</g>
<!-- Node5&#45;&gt;Node6 -->
<g id="edge5_Node000005_Node000006" class="edge">
<title>Node5&#45;&gt;Node6</title>
<g id="a_edge5_Node000005_Node000006"><a xlink:title=" ">
<path fill="none" stroke="#63b8ff" d="M949.83,-84.89C957.97,-84.92 966.32,-84.96 974.67,-85"/>
<polygon fill="#63b8ff" stroke="#63b8ff" points="950,-81.39 939.98,-84.84 949.96,-88.39 950,-81.39"/>
</a>
</g>
</g>
<!-- Node8 -->
<g id="Node000008" class="node">
<title>Node8</title>
<g id="a_Node000008"><a xlink:href="class_harlinn_1_1_common_1_1_core_1_1_logging_1_1_sinks_1_1_storage_1_1_log_site_index_info.html" target="_top" xlink:title="LogSiteIndexInfo.">
<polygon fill="white" stroke="#666666" points="1144,-41 1017,-41 1017,0 1144,0 1144,-41"/>
<text text-anchor="start" x="1025" y="-29" font-family="Helvetica,sans-Serif" font-size="10.00">Harlinn::Common::Core</text>
<text text-anchor="start" x="1025" y="-18" font-family="Helvetica,sans-Serif" font-size="10.00">::Logging::Sinks::Storage</text>
<text text-anchor="middle" x="1080.5" y="-7" font-family="Helvetica,sans-Serif" font-size="10.00">::LogSiteIndexInfo</text>
</a>
</g>
</g>
<!-- Node7&#45;&gt;Node8 -->
<g id="edge7_Node000007_Node000008" class="edge">
<title>Node7&#45;&gt;Node8</title>
<g id="a_edge7_Node000007_Node000008"><a xlink:title=" ">
<path fill="none" stroke="#63b8ff" d="M946.18,-21.76C969.37,-21.54 994.48,-21.31 1016.6,-21.1"/>
<polygon fill="#63b8ff" stroke="#63b8ff" points="946.45,-18.26 936.49,-21.86 946.52,-25.26 946.45,-18.26"/>
</a>
</g>
</g>
</g>
</svg>
