<?xml version="1.0" encoding="UTF-8" standalone="no"?>
<!DOCTYPE svg PUBLIC "-//W3C//DTD SVG 1.1//EN"
 "http://www.w3.org/Graphics/SVG/1.1/DTD/svg11.dtd">
<!-- Generated by graphviz version 7.0.1 (20221109.1506)
 -->
<!-- Title: Harlinn::Windows::MemoEdit Pages: 1 -->
<svg width="165pt" height="247pt"
 viewBox="0.00 0.00 165.00 247.00" xmlns="http://www.w3.org/2000/svg" xmlns:xlink="http://www.w3.org/1999/xlink">
<g id="graph0" class="graph" transform="scale(1 1) rotate(0) translate(4 243)">
<title>Harlinn::Windows::MemoEdit</title>
<!-- Node1 -->
<g id="Node000001" class="node">
<title>Node1</title>
<g id="a_Node000001"><a xlink:title=" ">
<polygon fill="#999999" stroke="#666666" points="150,-19 7,-19 7,0 150,0 150,-19"/>
<text text-anchor="middle" x="78.5" y="-7" font-family="Helvetica,sans-Serif" font-size="10.00">Harlinn::Windows::MemoEdit</text>
</a>
</g>
</g>
<!-- Node2 -->
<g id="Node000002" class="node">
<title>Node2</title>
<g id="a_Node000002"><a xlink:href="class_harlinn_1_1_windows_1_1_text_edit.xhtml" target="_top" xlink:title=" ">
<polygon fill="white" stroke="#666666" points="145.5,-74 11.5,-74 11.5,-55 145.5,-55 145.5,-74"/>
<text text-anchor="middle" x="78.5" y="-62" font-family="Helvetica,sans-Serif" font-size="10.00">Harlinn::Windows::TextEdit</text>
</a>
</g>
</g>
<!-- Node2&#45;&gt;Node1 -->
<g id="edge1_Node000001_Node000002" class="edge">
<title>Node2&#45;&gt;Node1</title>
<g id="a_edge1_Node000001_Node000002"><a xlink:title=" ">
<path fill="none" stroke="#63b8ff" d="M78.5,-43.35C78.5,-35.1 78.5,-25.97 78.5,-19.44"/>
<polygon fill="#63b8ff" stroke="#63b8ff" points="75,-43.23 78.5,-53.23 82,-43.23 75,-43.23"/>
</a>
</g>
</g>
<!-- Node3 -->
<g id="Node000003" class="node">
<title>Node3</title>
<g id="a_Node000003"><a xlink:href="class_harlinn_1_1_windows_1_1_text_edit_base.xhtml" target="_top" xlink:title=" ">
<polygon fill="white" stroke="#666666" points="157,-129 0,-129 0,-110 157,-110 157,-129"/>
<text text-anchor="middle" x="78.5" y="-117" font-family="Helvetica,sans-Serif" font-size="10.00">Harlinn::Windows::TextEditBase</text>
</a>
</g>
</g>
<!-- Node3&#45;&gt;Node2 -->
<g id="edge2_Node000002_Node000003" class="edge">
<title>Node3&#45;&gt;Node2</title>
<g id="a_edge2_Node000002_Node000003"><a xlink:title=" ">
<path fill="none" stroke="#63b8ff" d="M78.5,-98.35C78.5,-90.1 78.5,-80.97 78.5,-74.44"/>
<polygon fill="#63b8ff" stroke="#63b8ff" points="75,-98.23 78.5,-108.23 82,-98.23 75,-98.23"/>
</a>
</g>
</g>
<!-- Node4 -->
<g id="Node000004" class="node">
<title>Node4</title>
<g id="a_Node000004"><a xlink:href="class_harlinn_1_1_windows_1_1_edit_base.xhtml" target="_top" xlink:title=" ">
<polygon fill="white" stroke="#666666" points="147.5,-184 9.5,-184 9.5,-165 147.5,-165 147.5,-184"/>
<text text-anchor="middle" x="78.5" y="-172" font-family="Helvetica,sans-Serif" font-size="10.00">Harlinn::Windows::EditBase</text>
</a>
</g>
</g>
<!-- Node4&#45;&gt;Node3 -->
<g id="edge3_Node000003_Node000004" class="edge">
<title>Node4&#45;&gt;Node3</title>
<g id="a_edge3_Node000003_Node000004"><a xlink:title=" ">
<path fill="none" stroke="#63b8ff" d="M78.5,-153.35C78.5,-145.1 78.5,-135.97 78.5,-129.44"/>
<polygon fill="#63b8ff" stroke="#63b8ff" points="75,-153.23 78.5,-163.23 82,-153.23 75,-153.23"/>
</a>
</g>
</g>
<!-- Node5 -->
<g id="Node000005" class="node">
<title>Node5</title>
<g id="a_Node000005"><a xlink:href="class_harlinn_1_1_windows_1_1_control.xhtml" target="_top" xlink:title=" ">
<polygon fill="white" stroke="#666666" points="143,-239 14,-239 14,-220 143,-220 143,-239"/>
<text text-anchor="middle" x="78.5" y="-227" font-family="Helvetica,sans-Serif" font-size="10.00">Harlinn::Windows::Control</text>
</a>
</g>
</g>
<!-- Node5&#45;&gt;Node4 -->
<g id="edge4_Node000004_Node000005" class="edge">
<title>Node5&#45;&gt;Node4</title>
<g id="a_edge4_Node000004_Node000005"><a xlink:title=" ">
<path fill="none" stroke="#63b8ff" d="M78.5,-208.35C78.5,-200.1 78.5,-190.97 78.5,-184.44"/>
<polygon fill="#63b8ff" stroke="#63b8ff" points="75,-208.23 78.5,-218.23 82,-208.23 75,-208.23"/>
</a>
</g>
</g>
</g>
</svg>
