<?xml version="1.0" encoding="UTF-8" standalone="no"?>
<!DOCTYPE svg PUBLIC "-//W3C//DTD SVG 1.1//EN"
 "http://www.w3.org/Graphics/SVG/1.1/DTD/svg11.dtd">
<!-- Generated by graphviz version 7.0.1 (20221109.1506)
 -->
<!-- Title: Harlinn::Common::Core::Security::AccessAllowedCallbackAccessControlEntry Pages: 1 -->
<svg width="1072pt" height="79pt"
 viewBox="0.00 0.00 1072.00 78.50" xmlns="http://www.w3.org/2000/svg" xmlns:xlink="http://www.w3.org/1999/xlink">
<g id="graph0" class="graph" transform="scale(1 1) rotate(0) translate(4 74.5)">
<title>Harlinn::Common::Core::Security::AccessAllowedCallbackAccessControlEntry</title>
<!-- Node1 -->
<g id="Node000001" class="node">
<title>Node1</title>
<g id="a_Node000001"><a xlink:title=" ">
<polygon fill="#999999" stroke="#666666" points="1064,-65 895,-65 895,-24 1064,-24 1064,-65"/>
<text text-anchor="start" x="903" y="-53" font-family="Helvetica,sans-Serif" font-size="10.00">Harlinn::Common::Core</text>
<text text-anchor="start" x="903" y="-42" font-family="Helvetica,sans-Serif" font-size="10.00">::Security::AccessAllowedCallback</text>
<text text-anchor="middle" x="979.5" y="-31" font-family="Helvetica,sans-Serif" font-size="10.00">AccessControlEntry</text>
</a>
</g>
</g>
<!-- Node2 -->
<g id="Node000002" class="node">
<title>Node2</title>
<g id="a_Node000002"><a xlink:href="class_harlinn_1_1_common_1_1_core_1_1_security_1_1_access_control_entry_base.html" target="_top" xlink:title=" ">
<polygon fill="white" stroke="#666666" points="858,-70.5 660,-70.5 660,-18.5 858,-18.5 858,-70.5"/>
<text text-anchor="start" x="668" y="-58.5" font-family="Helvetica,sans-Serif" font-size="10.00">Harlinn::Common::Core</text>
<text text-anchor="start" x="668" y="-47.5" font-family="Helvetica,sans-Serif" font-size="10.00">::Security::AccessControlEntry</text>
<text text-anchor="start" x="668" y="-36.5" font-family="Helvetica,sans-Serif" font-size="10.00">Base&lt; ACCESS_ALLOWED_CALLBACK</text>
<text text-anchor="middle" x="759" y="-25.5" font-family="Helvetica,sans-Serif" font-size="10.00">_ACE, AccessMask &gt;</text>
</a>
</g>
</g>
<!-- Node2&#45;&gt;Node1 -->
<g id="edge1_Node000001_Node000002" class="edge">
<title>Node2&#45;&gt;Node1</title>
<g id="a_edge1_Node000001_Node000002"><a xlink:title=" ">
<path fill="none" stroke="#63b8ff" d="M869.78,-44.5C878.15,-44.5 886.52,-44.5 894.68,-44.5"/>
<polygon fill="#63b8ff" stroke="#63b8ff" points="869.9,-41 859.9,-44.5 869.9,-48 869.9,-41"/>
</a>
</g>
</g>
<!-- Node3 -->
<g id="Node000003" class="node">
<title>Node3</title>
<g id="a_Node000003"><a xlink:href="class_harlinn_1_1_common_1_1_core_1_1_security_1_1_access_control_entry.html" target="_top" xlink:title="Base class for the various ACE wrappers.">
<polygon fill="white" stroke="#666666" points="272,-59.5 120,-59.5 120,-29.5 272,-29.5 272,-59.5"/>
<text text-anchor="start" x="128" y="-47.5" font-family="Helvetica,sans-Serif" font-size="10.00">Harlinn::Common::Core</text>
<text text-anchor="middle" x="196" y="-36.5" font-family="Helvetica,sans-Serif" font-size="10.00">::Security::AccessControlEntry</text>
</a>
</g>
</g>
<!-- Node3&#45;&gt;Node2 -->
<g id="edge2_Node000002_Node000003" class="edge">
<title>Node3&#45;&gt;Node2</title>
<g id="a_edge2_Node000002_Node000003"><a xlink:title=" ">
<path fill="none" stroke="#63b8ff" d="M283.71,-50.33C373.42,-55.5 517.57,-61.39 642,-55.5 647.76,-55.23 653.67,-54.88 659.64,-54.48"/>
<polygon fill="#63b8ff" stroke="#63b8ff" points="283.93,-46.84 273.74,-49.75 283.52,-53.83 283.93,-46.84"/>
</a>
</g>
</g>
<!-- Node5 -->
<g id="Node000005" class="node">
<title>Node5</title>
<g id="a_Node000005"><a xlink:href="class_harlinn_1_1_common_1_1_core_1_1_security_1_1_access_control_entry_base.html" target="_top" xlink:title=" ">
<polygon fill="white" stroke="#666666" points="461,-41 309,-41 309,0 461,0 461,-41"/>
<text text-anchor="start" x="317" y="-29" font-family="Helvetica,sans-Serif" font-size="10.00">Harlinn::Common::Core</text>
<text text-anchor="start" x="317" y="-18" font-family="Helvetica,sans-Serif" font-size="10.00">::Security::AccessControlEntry</text>
<text text-anchor="middle" x="385" y="-7" font-family="Helvetica,sans-Serif" font-size="10.00">Base&lt; AceT, AccessMaskT &gt;</text>
</a>
</g>
</g>
<!-- Node3&#45;&gt;Node5 -->
<g id="edge5_Node000005_Node000003" class="edge">
<title>Node3&#45;&gt;Node5</title>
<g id="a_edge5_Node000005_Node000003"><a xlink:title=" ">
<path fill="none" stroke="#63b8ff" d="M283.58,-33.39C291.93,-32.32 300.36,-31.23 308.6,-30.18"/>
<polygon fill="#63b8ff" stroke="#63b8ff" points="283.23,-29.9 273.75,-34.65 284.12,-36.85 283.23,-29.9"/>
</a>
</g>
</g>
<!-- Node4 -->
<g id="Node000004" class="node">
<title>Node4</title>
<g id="a_Node000004"><a xlink:title=" ">
<polygon fill="white" stroke="#666666" points="83,-54 0,-54 0,-35 83,-35 83,-54"/>
<text text-anchor="middle" x="41.5" y="-42" font-family="Helvetica,sans-Serif" font-size="10.00">ACE_HEADER</text>
</a>
</g>
</g>
<!-- Node4&#45;&gt;Node3 -->
<g id="edge3_Node000003_Node000004" class="edge">
<title>Node4&#45;&gt;Node3</title>
<g id="a_edge3_Node000003_Node000004"><a xlink:title=" ">
<path fill="none" stroke="#8b1a1a" d="M94.77,-44.5C102.78,-44.5 111.18,-44.5 119.57,-44.5"/>
<polygon fill="#8b1a1a" stroke="#8b1a1a" points="94.88,-41 84.88,-44.5 94.88,-48 94.88,-41"/>
</a>
</g>
</g>
<!-- Node5&#45;&gt;Node2 -->
<g id="edge4_Node000002_Node000005" class="edge">
<title>Node5&#45;&gt;Node2</title>
<g id="a_edge4_Node000002_Node000005"><a xlink:title=" ">
<path fill="none" stroke="orange" stroke-dasharray="5,2" d="M472.72,-23.96C522.32,-26.17 585.69,-29.4 642,-33.5 647.75,-33.92 653.66,-34.38 659.62,-34.87"/>
<polygon fill="orange" stroke="orange" points="473.04,-20.47 462.9,-23.53 472.73,-27.46 473.04,-20.47"/>
</a>
</g>
<text text-anchor="start" x="479" y="-47.5" font-family="Helvetica,sans-Serif" font-size="10.00" fill="grey"> &lt; ACCESS_ALLOWED_CALLBACK</text>
<text text-anchor="middle" x="560.5" y="-36.5" font-family="Helvetica,sans-Serif" font-size="10.00" fill="grey">_ACE, AccessMask &gt;</text>
</g>
</g>
</svg>
