<?xml version="1.0" encoding="UTF-8" standalone="no"?>
<!DOCTYPE svg PUBLIC "-//W3C//DTD SVG 1.1//EN"
 "http://www.w3.org/Graphics/SVG/1.1/DTD/svg11.dtd">
<!-- Generated by graphviz version 7.0.1 (20221109.1506)
 -->
<!-- Title: Harlinn::Windows::MF::TransformOutputDataBuffer Pages: 1 -->
<svg width="269pt" height="245pt"
 viewBox="0.00 0.00 269.00 245.00" xmlns="http://www.w3.org/2000/svg" xmlns:xlink="http://www.w3.org/1999/xlink">
<g id="graph0" class="graph" transform="scale(1 1) rotate(0) translate(4 241)">
<title>Harlinn::Windows::MF::TransformOutputDataBuffer</title>
<!-- Node1 -->
<g id="Node000001" class="node">
<title>Node1</title>
<g id="a_Node000001"><a xlink:title="This class is binary compatible with MFT_OUTPUT_DATA_BUFFER.">
<polygon fill="#999999" stroke="#666666" points="199.5,-30 59.5,-30 59.5,0 199.5,0 199.5,-30"/>
<text text-anchor="start" x="67.5" y="-18" font-family="Helvetica,sans-Serif" font-size="10.00">Harlinn::Windows::MF</text>
<text text-anchor="middle" x="129.5" y="-7" font-family="Helvetica,sans-Serif" font-size="10.00">::TransformOutputDataBuffer</text>
</a>
</g>
</g>
<!-- Node2 -->
<g id="Node000002" class="node">
<title>Node2</title>
<g id="a_Node000002"><a xlink:href="class_harlinn_1_1_windows_1_1_m_f_sample.xhtml" target="_top" xlink:title=" ">
<polygon fill="white" stroke="#666666" points="148.5,-96 2.5,-96 2.5,-77 148.5,-77 148.5,-96"/>
<text text-anchor="middle" x="75.5" y="-84" font-family="Helvetica,sans-Serif" font-size="10.00">Harlinn::Windows::MFSample</text>
</a>
</g>
</g>
<!-- Node2&#45;&gt;Node1 -->
<g id="edge1_Node000001_Node000002" class="edge">
<title>Node2&#45;&gt;Node1</title>
<g id="a_edge1_Node000001_Node000002"><a xlink:title=" ">
<path fill="none" stroke="#9a32cd" stroke-dasharray="5,2" d="M89.18,-67.89C98.23,-56.24 109.94,-41.17 118.41,-30.27"/>
<polygon fill="#9a32cd" stroke="#9a32cd" points="86.64,-65.46 83.27,-75.5 92.17,-69.75 86.64,-65.46"/>
</a>
</g>
<text text-anchor="middle" x="124.5" y="-51" font-family="Helvetica,sans-Serif" font-size="10.00" fill="grey"> sample_</text>
</g>
<!-- Node3 -->
<g id="Node000003" class="node">
<title>Node3</title>
<g id="a_Node000003"><a xlink:href="class_harlinn_1_1_windows_1_1_m_f_attributes.xhtml" target="_top" xlink:title=" ">
<polygon fill="white" stroke="#666666" points="155,-170 0,-170 0,-151 155,-151 155,-170"/>
<text text-anchor="middle" x="77.5" y="-158" font-family="Helvetica,sans-Serif" font-size="10.00">Harlinn::Windows::MFAttributes</text>
</a>
</g>
</g>
<!-- Node3&#45;&gt;Node2 -->
<g id="edge2_Node000002_Node000003" class="edge">
<title>Node3&#45;&gt;Node2</title>
<g id="a_edge2_Node000002_Node000003"><a xlink:title=" ">
<path fill="none" stroke="#63b8ff" d="M76.94,-139.18C76.54,-125.09 76.04,-107.01 75.75,-96.4"/>
<polygon fill="#63b8ff" stroke="#63b8ff" points="73.44,-139.26 77.21,-149.16 80.43,-139.07 73.44,-139.26"/>
</a>
</g>
</g>
<!-- Node4 -->
<g id="Node000004" class="node">
<title>Node4</title>
<g id="a_Node000004"><a xlink:href="class_harlinn_1_1_common_1_1_core_1_1_unknown.xhtml" target="_top" xlink:title=" ">
<polygon fill="white" stroke="#666666" points="189.5,-237 71.5,-237 71.5,-207 189.5,-207 189.5,-237"/>
<text text-anchor="start" x="79.5" y="-225" font-family="Helvetica,sans-Serif" font-size="10.00">Harlinn::Common::Core</text>
<text text-anchor="middle" x="130.5" y="-214" font-family="Helvetica,sans-Serif" font-size="10.00">::Unknown</text>
</a>
</g>
</g>
<!-- Node4&#45;&gt;Node3 -->
<g id="edge3_Node000003_Node000004" class="edge">
<title>Node4&#45;&gt;Node3</title>
<g id="a_edge3_Node000003_Node000004"><a xlink:title=" ">
<path fill="none" stroke="#63b8ff" d="M110.12,-198.12C101.5,-188.44 91.97,-177.74 85.44,-170.42"/>
<polygon fill="#63b8ff" stroke="#63b8ff" points="107.4,-200.33 116.66,-205.47 112.63,-195.67 107.4,-200.33"/>
</a>
</g>
</g>
<!-- Node5 -->
<g id="Node000005" class="node">
<title>Node5</title>
<g id="a_Node000005"><a xlink:href="class_harlinn_1_1_windows_1_1_m_f_collection.xhtml" target="_top" xlink:title=" ">
<polygon fill="white" stroke="#666666" points="261,-133 106,-133 106,-114 261,-114 261,-133"/>
<text text-anchor="middle" x="183.5" y="-121" font-family="Helvetica,sans-Serif" font-size="10.00">Harlinn::Windows::MFCollection</text>
</a>
</g>
</g>
<!-- Node4&#45;&gt;Node5 -->
<g id="edge5_Node000005_Node000004" class="edge">
<title>Node4&#45;&gt;Node5</title>
<g id="a_edge5_Node000005_Node000004"><a xlink:title=" ">
<path fill="none" stroke="#63b8ff" d="M147.07,-197.12C152.6,-188.73 158.59,-179.11 163.5,-170 170.13,-157.69 176.38,-142.74 180.07,-133.42"/>
<polygon fill="#63b8ff" stroke="#63b8ff" points="144.19,-195.14 141.51,-205.39 150,-199.05 144.19,-195.14"/>
</a>
</g>
</g>
<!-- Node5&#45;&gt;Node1 -->
<g id="edge4_Node000001_Node000005" class="edge">
<title>Node5&#45;&gt;Node1</title>
<g id="a_edge4_Node000001_Node000005"><a xlink:title=" ">
<path fill="none" stroke="#9a32cd" stroke-dasharray="5,2" d="M175.17,-103.46C168.37,-88.26 158.31,-66.51 148.5,-48 145.41,-42.18 141.77,-35.91 138.5,-30.49"/>
<polygon fill="#9a32cd" stroke="#9a32cd" points="171.82,-104.54 179.06,-112.26 178.22,-101.7 171.82,-104.54"/>
</a>
</g>
<text text-anchor="middle" x="190" y="-84" font-family="Helvetica,sans-Serif" font-size="10.00" fill="grey"> events_</text>
</g>
</g>
</svg>
