<?xml version="1.0" encoding="UTF-8" standalone="no"?>
<!DOCTYPE svg PUBLIC "-//W3C//DTD SVG 1.1//EN"
 "http://www.w3.org/Graphics/SVG/1.1/DTD/svg11.dtd">
<!-- Generated by graphviz version 7.0.1 (20221109.1506)
 -->
<!-- Title: Harlinn.Common.Core.Net.Data.DeleteOverTimeseriesRangeData&lt; TKind &gt; Pages: 1 -->
<svg width="304pt" height="368pt"
 viewBox="0.00 0.00 304.00 368.00" xmlns="http://www.w3.org/2000/svg" xmlns:xlink="http://www.w3.org/1999/xlink">
<g id="graph0" class="graph" transform="scale(1 1) rotate(0) translate(4 364)">
<title>Harlinn.Common.Core.Net.Data.DeleteOverTimeseriesRangeData&lt; TKind &gt;</title>
<!-- Node1 -->
<g id="Node000001" class="node">
<title>Node1</title>
<g id="a_Node000001"><a xlink:title=" ">
<polygon fill="#999999" stroke="#666666" points="224,-41 62,-41 62,0 224,0 224,-41"/>
<text text-anchor="start" x="70" y="-29" font-family="Helvetica,sans-Serif" font-size="10.00">Harlinn.Common.Core.Net.</text>
<text text-anchor="start" x="70" y="-18" font-family="Helvetica,sans-Serif" font-size="10.00">Data.DeleteOverTimeseriesRange</text>
<text text-anchor="middle" x="143" y="-7" font-family="Helvetica,sans-Serif" font-size="10.00">Data&lt; TKind &gt;</text>
</a>
</g>
</g>
<!-- Node2 -->
<g id="Node000002" class="node">
<title>Node2</title>
<g id="a_Node000002"><a xlink:href="class_harlinn_1_1_common_1_1_core_1_1_net_1_1_data_1_1_delete_timeseries_range_data.xhtml" target="_top" xlink:title=" ">
<polygon fill="white" stroke="#666666" points="140,-129 0,-129 0,-99 140,-99 140,-129"/>
<text text-anchor="start" x="8" y="-117" font-family="Helvetica,sans-Serif" font-size="10.00">DeleteTimeseriesRangeData</text>
<text text-anchor="middle" x="70" y="-106" font-family="Helvetica,sans-Serif" font-size="10.00">&lt; TKind &gt;</text>
</a>
</g>
</g>
<!-- Node2&#45;&gt;Node1 -->
<g id="edge1_Node000001_Node000002" class="edge">
<title>Node2&#45;&gt;Node1</title>
<g id="a_edge1_Node000001_Node000002"><a xlink:title=" ">
<path fill="none" stroke="#63b8ff" d="M88.32,-90.04C100.24,-75.09 115.65,-55.78 127.07,-41.47"/>
<polygon fill="#63b8ff" stroke="#63b8ff" points="85.85,-87.52 82.35,-97.52 91.32,-91.89 85.85,-87.52"/>
</a>
</g>
</g>
<!-- Node3 -->
<g id="Node000003" class="node">
<title>Node3</title>
<g id="a_Node000003"><a xlink:href="class_harlinn_1_1_common_1_1_core_1_1_guid.xhtml" target="_top" xlink:title="Represents a globally unique identifier (GUID).">
<polygon fill="white" stroke="#666666" points="129,-206 11,-206 11,-176 129,-176 129,-206"/>
<text text-anchor="start" x="19" y="-194" font-family="Helvetica,sans-Serif" font-size="10.00">Harlinn::Common::Core</text>
<text text-anchor="middle" x="70" y="-183" font-family="Helvetica,sans-Serif" font-size="10.00">::Guid</text>
</a>
</g>
</g>
<!-- Node3&#45;&gt;Node2 -->
<g id="edge2_Node000002_Node000003" class="edge">
<title>Node3&#45;&gt;Node2</title>
<g id="a_edge2_Node000002_Node000003"><a xlink:title=" ">
<path fill="none" stroke="#9a32cd" stroke-dasharray="5,2" d="M70,-164.23C70,-152.58 70,-139.26 70,-129.42"/>
<polygon fill="#9a32cd" stroke="#9a32cd" points="66.5,-164.03 70,-174.03 73.5,-164.03 66.5,-164.03"/>
</a>
</g>
<text text-anchor="middle" x="100.5" y="-150" font-family="Helvetica,sans-Serif" font-size="10.00" fill="grey"> _timeseriesId</text>
</g>
<!-- Node4 -->
<g id="Node000004" class="node">
<title>Node4</title>
<g id="a_Node000004"><a xlink:href="struct_harlinn_1_1_common_1_1_core_1_1_guid_1_1_data_t.xhtml" target="_top" xlink:title=" ">
<polygon fill="white" stroke="#666666" points="129,-294 11,-294 11,-264 129,-264 129,-294"/>
<text text-anchor="start" x="19" y="-282" font-family="Helvetica,sans-Serif" font-size="10.00">Harlinn::Common::Core</text>
<text text-anchor="middle" x="70" y="-271" font-family="Helvetica,sans-Serif" font-size="10.00">::Guid::DataT</text>
</a>
</g>
</g>
<!-- Node4&#45;&gt;Node3 -->
<g id="edge3_Node000003_Node000004" class="edge">
<title>Node4&#45;&gt;Node3</title>
<g id="a_edge3_Node000003_Node000004"><a xlink:title=" ">
<path fill="none" stroke="#9a32cd" stroke-dasharray="5,2" d="M70,-252.6C70,-237.46 70,-218.8 70,-206.22"/>
<polygon fill="#9a32cd" stroke="#9a32cd" points="66.5,-252.29 70,-262.29 73.5,-252.29 66.5,-252.29"/>
</a>
</g>
<text text-anchor="middle" x="84" y="-232.5" font-family="Helvetica,sans-Serif" font-size="10.00" fill="grey"> data_</text>
</g>
<!-- Node5 -->
<g id="Node000005" class="node">
<title>Node5</title>
<g id="a_Node000005"><a xlink:title=" ">
<polygon fill="white" stroke="#666666" points="90,-360 50,-360 50,-341 90,-341 90,-360"/>
<text text-anchor="middle" x="70" y="-348" font-family="Helvetica,sans-Serif" font-size="10.00">GUID</text>
</a>
</g>
</g>
<!-- Node5&#45;&gt;Node4 -->
<g id="edge4_Node000004_Node000005" class="edge">
<title>Node5&#45;&gt;Node4</title>
<g id="a_edge4_Node000004_Node000005"><a xlink:title=" ">
<path fill="none" stroke="#63b8ff" d="M70,-329.39C70,-318.15 70,-304.41 70,-294.27"/>
<polygon fill="#63b8ff" stroke="#63b8ff" points="66.5,-329.18 70,-339.18 73.5,-329.18 66.5,-329.18"/>
</a>
</g>
</g>
<!-- Node6 -->
<g id="Node000006" class="node">
<title>Node6</title>
<g id="a_Node000006"><a xlink:href="class_harlinn_1_1_common_1_1_core_1_1_date_time.xhtml" target="_top" xlink:title=" ">
<polygon fill="white" stroke="#666666" points="276,-129 158,-129 158,-99 276,-99 276,-129"/>
<text text-anchor="start" x="166" y="-117" font-family="Helvetica,sans-Serif" font-size="10.00">Harlinn::Common::Core</text>
<text text-anchor="middle" x="217" y="-106" font-family="Helvetica,sans-Serif" font-size="10.00">::DateTime</text>
</a>
</g>
</g>
<!-- Node6&#45;&gt;Node1 -->
<g id="edge5_Node000001_Node000006" class="edge">
<title>Node6&#45;&gt;Node1</title>
<g id="a_edge5_Node000001_Node000006"><a xlink:title=" ">
<path fill="none" stroke="#9a32cd" stroke-dasharray="5,2" d="M198.43,-90.04C186.34,-75.09 170.72,-55.78 159.15,-41.47"/>
<polygon fill="#9a32cd" stroke="#9a32cd" points="195.48,-91.95 204.49,-97.53 200.92,-87.55 195.48,-91.95"/>
</a>
</g>
<text text-anchor="middle" x="203.5" y="-73" font-family="Helvetica,sans-Serif" font-size="10.00" fill="grey"> _end</text>
<text text-anchor="middle" x="203.5" y="-62" font-family="Helvetica,sans-Serif" font-size="10.00" fill="grey">_start</text>
</g>
<!-- Node7 -->
<g id="Node000007" class="node">
<title>Node7</title>
<g id="a_Node000007"><a xlink:href="class_harlinn_1_1_common_1_1_core_1_1_time_base.xhtml" target="_top" xlink:title=" ">
<polygon fill="white" stroke="#666666" points="276,-206 158,-206 158,-176 276,-176 276,-206"/>
<text text-anchor="start" x="166" y="-194" font-family="Helvetica,sans-Serif" font-size="10.00">Harlinn::Common::Core</text>
<text text-anchor="middle" x="217" y="-183" font-family="Helvetica,sans-Serif" font-size="10.00">::TimeBase</text>
</a>
</g>
</g>
<!-- Node7&#45;&gt;Node6 -->
<g id="edge6_Node000006_Node000007" class="edge">
<title>Node7&#45;&gt;Node6</title>
<g id="a_edge6_Node000006_Node000007"><a xlink:title=" ">
<path fill="none" stroke="#63b8ff" d="M217,-164.23C217,-152.58 217,-139.26 217,-129.42"/>
<polygon fill="#63b8ff" stroke="#63b8ff" points="213.5,-164.03 217,-174.03 220.5,-164.03 213.5,-164.03"/>
</a>
</g>
</g>
<!-- Node8 -->
<g id="Node000008" class="node">
<title>Node8</title>
<g id="a_Node000008"><a xlink:title=" ">
<polygon fill="white" stroke="#666666" points="257.5,-288.5 176.5,-288.5 176.5,-269.5 257.5,-269.5 257.5,-288.5"/>
<text text-anchor="middle" x="217" y="-276.5" font-family="Helvetica,sans-Serif" font-size="10.00">std::array&lt; T &gt;</text>
</a>
</g>
</g>
<!-- Node8&#45;&gt;Node7 -->
<g id="edge7_Node000007_Node000008" class="edge">
<title>Node8&#45;&gt;Node7</title>
<g id="a_edge7_Node000007_Node000008"><a xlink:title=" ">
<path fill="none" stroke="#9a32cd" stroke-dasharray="5,2" d="M217,-257.96C217,-242.15 217,-220.5 217,-206.38"/>
<polygon fill="#9a32cd" stroke="#9a32cd" points="213.5,-257.61 217,-267.61 220.5,-257.61 213.5,-257.61"/>
</a>
</g>
<text text-anchor="middle" x="256.5" y="-238" font-family="Helvetica,sans-Serif" font-size="10.00" fill="grey"> DaysToMonth365</text>
<text text-anchor="middle" x="256.5" y="-227" font-family="Helvetica,sans-Serif" font-size="10.00" fill="grey">DaysToMonth366</text>
</g>
<!-- Node9 -->
<g id="Node000009" class="node">
<title>Node9</title>
<g id="a_Node000009"><a xlink:title=" ">
<polygon fill="white" stroke="#666666" points="231.5,-360 202.5,-360 202.5,-341 231.5,-341 231.5,-360"/>
<text text-anchor="middle" x="217" y="-348" font-family="Helvetica,sans-Serif" font-size="10.00">T</text>
</a>
</g>
</g>
<!-- Node9&#45;&gt;Node8 -->
<g id="edge8_Node000008_Node000009" class="edge">
<title>Node9&#45;&gt;Node8</title>
<g id="a_edge8_Node000008_Node000009"><a xlink:title=" ">
<path fill="none" stroke="#9a32cd" stroke-dasharray="5,2" d="M217,-329.3C217,-315.94 217,-299.09 217,-288.95"/>
<polygon fill="#9a32cd" stroke="#9a32cd" points="213.5,-329.18 217,-339.18 220.5,-329.18 213.5,-329.18"/>
</a>
</g>
<text text-anchor="middle" x="238.5" y="-315" font-family="Helvetica,sans-Serif" font-size="10.00" fill="grey"> elements</text>
</g>
</g>
</svg>
