<?xml version="1.0" encoding="UTF-8" standalone="no"?>
<!DOCTYPE svg PUBLIC "-//W3C//DTD SVG 1.1//EN"
 "http://www.w3.org/Graphics/SVG/1.1/DTD/svg11.dtd">
<!-- Generated by graphviz version 7.0.1 (20221109.1506)
 -->
<!-- Title: Harlinn::Common::Core::ZeroMq::ZMQStreamBase Pages: 1 -->
<svg width="1252pt" height="141pt"
 viewBox="0.00 0.00 1252.00 141.00" xmlns="http://www.w3.org/2000/svg" xmlns:xlink="http://www.w3.org/1999/xlink">
<g id="graph0" class="graph" transform="scale(1 1) rotate(0) translate(4 137)">
<title>Harlinn::Common::Core::ZeroMq::ZMQStreamBase</title>
<!-- Node1 -->
<g id="Node000001" class="node">
<title>Node1</title>
<g id="a_Node000001"><a xlink:title=" ">
<polygon fill="#999999" stroke="#666666" points="1244,-117.5 1108,-117.5 1108,-87.5 1244,-87.5 1244,-117.5"/>
<text text-anchor="start" x="1116" y="-105.5" font-family="Helvetica,sans-Serif" font-size="10.00">Harlinn::Common::Core</text>
<text text-anchor="middle" x="1176" y="-94.5" font-family="Helvetica,sans-Serif" font-size="10.00">::ZeroMq::ZMQStreamBase</text>
</a>
</g>
</g>
<!-- Node2 -->
<g id="Node000002" class="node">
<title>Node2</title>
<g id="a_Node000002"><a xlink:href="class_harlinn_1_1_common_1_1_core_1_1_zero_mq_1_1_socket.html" target="_top" xlink:title=" ">
<polygon fill="white" stroke="#666666" points="1034,-117.5 916,-117.5 916,-87.5 1034,-87.5 1034,-117.5"/>
<text text-anchor="start" x="924" y="-105.5" font-family="Helvetica,sans-Serif" font-size="10.00">Harlinn::Common::Core</text>
<text text-anchor="middle" x="975" y="-94.5" font-family="Helvetica,sans-Serif" font-size="10.00">::ZeroMq::Socket</text>
</a>
</g>
</g>
<!-- Node2&#45;&gt;Node1 -->
<g id="edge1_Node000001_Node000002" class="edge">
<title>Node2&#45;&gt;Node1</title>
<g id="a_edge1_Node000001_Node000002"><a xlink:title=" ">
<path fill="none" stroke="#9a32cd" stroke-dasharray="5,2" d="M1045.63,-102.5C1065.71,-102.5 1087.58,-102.5 1107.53,-102.5"/>
<polygon fill="#9a32cd" stroke="#9a32cd" points="1045.88,-99 1035.88,-102.5 1045.88,-106 1045.88,-99"/>
</a>
</g>
<text text-anchor="middle" x="1071" y="-105.5" font-family="Helvetica,sans-Serif" font-size="10.00" fill="grey"> socket_</text>
</g>
<!-- Node3 -->
<g id="Node000003" class="node">
<title>Node3</title>
<g id="a_Node000003"><a xlink:title=" ">
<polygon fill="white" stroke="#666666" points="819.5,-133 740.5,-133 740.5,-114 819.5,-114 819.5,-133"/>
<text text-anchor="middle" x="780" y="-121" font-family="Helvetica,sans-Serif" font-size="10.00">zmq::socket_t</text>
</a>
</g>
</g>
<!-- Node3&#45;&gt;Node2 -->
<g id="edge2_Node000002_Node000003" class="edge">
<title>Node3&#45;&gt;Node2</title>
<g id="a_edge2_Node000002_Node000003"><a xlink:title=" ">
<path fill="none" stroke="#63b8ff" d="M830.69,-118.09C856.65,-115.27 888.57,-111.8 915.69,-108.84"/>
<polygon fill="#63b8ff" stroke="#63b8ff" points="830.66,-114.58 821.1,-119.14 831.42,-121.53 830.66,-114.58"/>
</a>
</g>
</g>
<!-- Node4 -->
<g id="Node000004" class="node">
<title>Node4</title>
<g id="a_Node000004"><a xlink:href="class_harlinn_1_1_common_1_1_core_1_1_zero_mq_1_1_context.html" target="_top" xlink:title=" ">
<polygon fill="white" stroke="#666666" points="839,-95.5 721,-95.5 721,-65.5 839,-65.5 839,-95.5"/>
<text text-anchor="start" x="729" y="-83.5" font-family="Helvetica,sans-Serif" font-size="10.00">Harlinn::Common::Core</text>
<text text-anchor="middle" x="780" y="-72.5" font-family="Helvetica,sans-Serif" font-size="10.00">::ZeroMq::Context</text>
</a>
</g>
</g>
<!-- Node4&#45;&gt;Node2 -->
<g id="edge3_Node000002_Node000004" class="edge">
<title>Node4&#45;&gt;Node2</title>
<g id="a_edge3_Node000002_Node000004"><a xlink:title=" ">
<path fill="none" stroke="#9a32cd" stroke-dasharray="5,2" d="M850.72,-88.45C872.05,-90.88 895.28,-93.53 915.77,-95.86"/>
<polygon fill="#9a32cd" stroke="#9a32cd" points="851.27,-84.99 840.93,-87.33 850.47,-91.94 851.27,-84.99"/>
</a>
</g>
<text text-anchor="middle" x="877.5" y="-95.5" font-family="Helvetica,sans-Serif" font-size="10.00" fill="grey"> context_</text>
</g>
<!-- Node5 -->
<g id="Node000005" class="node">
<title>Node5</title>
<g id="a_Node000005"><a xlink:title=" ">
<polygon fill="white" stroke="#666666" points="574.5,-114 492.5,-114 492.5,-95 574.5,-95 574.5,-114"/>
<text text-anchor="middle" x="533.5" y="-102" font-family="Helvetica,sans-Serif" font-size="10.00">zmq::context_t</text>
</a>
</g>
</g>
<!-- Node5&#45;&gt;Node4 -->
<g id="edge4_Node000004_Node000005" class="edge">
<title>Node5&#45;&gt;Node4</title>
<g id="a_edge4_Node000004_Node000005"><a xlink:title=" ">
<path fill="none" stroke="#63b8ff" d="M586.33,-99.41C625.7,-95.55 679.85,-90.23 720.72,-86.22"/>
<polygon fill="#63b8ff" stroke="#63b8ff" points="585.99,-95.93 576.38,-100.39 586.67,-102.9 585.99,-95.93"/>
</a>
</g>
</g>
<!-- Node6 -->
<g id="Node000006" class="node">
<title>Node6</title>
<g id="a_Node000006"><a xlink:href="class_harlinn_1_1_common_1_1_core_1_1_fixed_size_memory_manager.html" target="_top" xlink:title=" ">
<polygon fill="white" stroke="#666666" points="603,-77 464,-77 464,-36 603,-36 603,-77"/>
<text text-anchor="start" x="472" y="-65" font-family="Helvetica,sans-Serif" font-size="10.00">Harlinn::Common::Core</text>
<text text-anchor="start" x="472" y="-54" font-family="Helvetica,sans-Serif" font-size="10.00">::FixedSizeMemoryManager</text>
<text text-anchor="middle" x="533.5" y="-43" font-family="Helvetica,sans-Serif" font-size="10.00">&lt; 64 *1024, 1024 &gt;</text>
</a>
</g>
</g>
<!-- Node6&#45;&gt;Node4 -->
<g id="edge5_Node000004_Node000006" class="edge">
<title>Node6&#45;&gt;Node4</title>
<g id="a_edge5_Node000004_Node000006"><a xlink:title=" ">
<path fill="none" stroke="#9a32cd" stroke-dasharray="5,2" d="M614.71,-63.95C642.66,-66.59 674.22,-69.62 703,-72.5 708.68,-73.07 714.59,-73.67 720.5,-74.28"/>
<polygon fill="#9a32cd" stroke="#9a32cd" points="615.17,-60.48 604.89,-63.02 614.51,-67.45 615.17,-60.48"/>
</a>
</g>
<text text-anchor="middle" x="662" y="-75.5" font-family="Helvetica,sans-Serif" font-size="10.00" fill="grey"> memoryManager_</text>
</g>
<!-- Node7 -->
<g id="Node000007" class="node">
<title>Node7</title>
<g id="a_Node000007"><a xlink:href="class_harlinn_1_1_common_1_1_core_1_1_interlocked_linked_list.html" target="_top" xlink:title=" ">
<polygon fill="white" stroke="#666666" points="118,-64.5 0,-64.5 0,-34.5 118,-34.5 118,-64.5"/>
<text text-anchor="start" x="8" y="-52.5" font-family="Helvetica,sans-Serif" font-size="10.00">Harlinn::Common::Core</text>
<text text-anchor="middle" x="59" y="-41.5" font-family="Helvetica,sans-Serif" font-size="10.00">::InterlockedLinkedList</text>
</a>
</g>
</g>
<!-- Node7&#45;&gt;Node6 -->
<g id="edge6_Node000006_Node000007" class="edge">
<title>Node7&#45;&gt;Node6</title>
<g id="a_edge6_Node000006_Node000007"><a xlink:title=" ">
<path fill="none" stroke="#9a32cd" stroke-dasharray="5,2" d="M129.8,-53.24C131.89,-53.33 133.96,-53.42 136,-53.5 273.69,-58.98 308.22,-61.89 446,-59.5 451.71,-59.4 457.63,-59.27 463.57,-59.11"/>
<polygon fill="#9a32cd" stroke="#9a32cd" points="130.16,-49.76 120.01,-52.8 129.84,-56.75 130.16,-49.76"/>
</a>
</g>
<text text-anchor="middle" x="267.5" y="-63.5" font-family="Helvetica,sans-Serif" font-size="10.00" fill="grey"> freeList_</text>
</g>
<!-- Node8 -->
<g id="Node000008" class="node">
<title>Node8</title>
<g id="a_Node000008"><a xlink:href="class_harlinn_1_1_common_1_1_core_1_1_fixed_size_memory_manager.html" target="_top" xlink:title=" ">
<polygon fill="white" stroke="#666666" points="341,-41 194,-41 194,0 341,0 341,-41"/>
<text text-anchor="start" x="202" y="-29" font-family="Helvetica,sans-Serif" font-size="10.00">Harlinn::Common::Core</text>
<text text-anchor="start" x="202" y="-18" font-family="Helvetica,sans-Serif" font-size="10.00">::FixedSizeMemoryManager</text>
<text text-anchor="middle" x="267.5" y="-7" font-family="Helvetica,sans-Serif" font-size="10.00">&lt; blockSize, maxFreeCount &gt;</text>
</a>
</g>
</g>
<!-- Node7&#45;&gt;Node8 -->
<g id="edge8_Node000008_Node000007" class="edge">
<title>Node7&#45;&gt;Node8</title>
<g id="a_edge8_Node000008_Node000007"><a xlink:title=" ">
<path fill="none" stroke="#9a32cd" stroke-dasharray="5,2" d="M129.56,-39.73C150.16,-36.84 172.77,-33.66 193.57,-30.74"/>
<polygon fill="#9a32cd" stroke="#9a32cd" points="129.26,-36.24 119.85,-41.1 130.24,-43.17 129.26,-36.24"/>
</a>
</g>
<text text-anchor="middle" x="156" y="-41.5" font-family="Helvetica,sans-Serif" font-size="10.00" fill="grey"> freeList_</text>
</g>
<!-- Node8&#45;&gt;Node6 -->
<g id="edge7_Node000006_Node000008" class="edge">
<title>Node8&#45;&gt;Node6</title>
<g id="a_edge7_Node000006_Node000008"><a xlink:title=" ">
<path fill="none" stroke="orange" stroke-dasharray="5,2" d="M352.74,-31.99C388.48,-36.86 429.63,-42.47 463.53,-47.1"/>
<polygon fill="orange" stroke="orange" points="353.22,-28.52 342.84,-30.64 352.27,-35.46 353.22,-28.52"/>
</a>
</g>
<text text-anchor="middle" x="402.5" y="-47.5" font-family="Helvetica,sans-Serif" font-size="10.00" fill="grey"> &lt; 64 *1024, 1024 &gt;</text>
</g>
</g>
</svg>
