<?xml version="1.0" encoding="UTF-8" standalone="no"?>
<!DOCTYPE svg PUBLIC "-//W3C//DTD SVG 1.1//EN"
 "http://www.w3.org/Graphics/SVG/1.1/DTD/svg11.dtd">
<!-- Generated by graphviz version 7.0.1 (20221109.1506)
 -->
<!-- Title: Harlinn::Common::Core::Math::Point3i Pages: 1 -->
<svg width="727pt" height="98pt"
 viewBox="0.00 0.00 727.00 97.50" xmlns="http://www.w3.org/2000/svg" xmlns:xlink="http://www.w3.org/1999/xlink">
<g id="graph0" class="graph" transform="scale(1 1) rotate(0) translate(4 93.5)">
<title>Harlinn::Common::Core::Math::Point3i</title>
<!-- Node1 -->
<g id="Node000001" class="node">
<title>Node1</title>
<g id="a_Node000001"><a xlink:title=" ">
<polygon fill="#999999" stroke="#666666" points="719,-42 601,-42 601,-12 719,-12 719,-42"/>
<text text-anchor="start" x="609" y="-30" font-family="Helvetica,sans-Serif" font-size="10.00">Harlinn::Common::Core</text>
<text text-anchor="middle" x="660" y="-19" font-family="Helvetica,sans-Serif" font-size="10.00">::Math::Point3i</text>
</a>
</g>
</g>
<!-- Node2 -->
<g id="Node000002" class="node">
<title>Node2</title>
<g id="a_Node000002"><a xlink:href="class_harlinn_1_1_common_1_1_core_1_1_math_1_1_tuple3.html" target="_top" xlink:title=" ">
<polygon fill="white" stroke="#666666" points="558,-89.5 437,-89.5 437,-48.5 558,-48.5 558,-89.5"/>
<text text-anchor="start" x="445" y="-77.5" font-family="Helvetica,sans-Serif" font-size="10.00">Harlinn::Common::Core</text>
<text text-anchor="start" x="445" y="-66.5" font-family="Helvetica,sans-Serif" font-size="10.00">::Math::Tuple3&lt; Point3i,</text>
<text text-anchor="middle" x="497.5" y="-55.5" font-family="Helvetica,sans-Serif" font-size="10.00"> Int32 &gt;</text>
</a>
</g>
</g>
<!-- Node2&#45;&gt;Node1 -->
<g id="edge1_Node000001_Node000002" class="edge">
<title>Node2&#45;&gt;Node1</title>
<g id="a_edge1_Node000001_Node000002"><a xlink:title=" ">
<path fill="none" stroke="#63b8ff" d="M569.09,-50.53C579.59,-47.78 590.31,-44.98 600.52,-42.3"/>
<polygon fill="#63b8ff" stroke="#63b8ff" points="568.52,-47.06 559.73,-52.98 570.29,-53.83 568.52,-47.06"/>
</a>
</g>
</g>
<!-- Node3 -->
<g id="Node000003" class="node">
<title>Node3</title>
<g id="a_Node000003"><a xlink:href="struct_harlinn_1_1_common_1_1_core_1_1_math_1_1_internal_1_1_tuple_base.html" target="_top" xlink:title=" ">
<polygon fill="white" stroke="#666666" points="134,-79 0,-79 0,-49 134,-49 134,-79"/>
<text text-anchor="start" x="8" y="-67" font-family="Helvetica,sans-Serif" font-size="10.00">Harlinn::Common::Core</text>
<text text-anchor="middle" x="67" y="-56" font-family="Helvetica,sans-Serif" font-size="10.00">::Math::Internal::TupleBase</text>
</a>
</g>
</g>
<!-- Node3&#45;&gt;Node2 -->
<g id="edge2_Node000002_Node000003" class="edge">
<title>Node3&#45;&gt;Node2</title>
<g id="a_edge2_Node000002_Node000003"><a xlink:title=" ">
<path fill="none" stroke="#63b8ff" d="M145.79,-67.63C215.72,-70.46 321.22,-73.65 413,-72 420.69,-71.86 428.77,-71.65 436.76,-71.41"/>
<polygon fill="#63b8ff" stroke="#63b8ff" points="146.1,-64.14 135.97,-67.22 145.82,-71.13 146.1,-64.14"/>
</a>
</g>
</g>
<!-- Node4 -->
<g id="Node000004" class="node">
<title>Node4</title>
<g id="a_Node000004"><a xlink:href="class_harlinn_1_1_common_1_1_core_1_1_math_1_1_tuple3.html" target="_top" xlink:title=" ">
<polygon fill="white" stroke="#666666" points="316,-58 171,-58 171,-28 316,-28 316,-58"/>
<text text-anchor="start" x="179" y="-46" font-family="Helvetica,sans-Serif" font-size="10.00">Harlinn::Common::Core</text>
<text text-anchor="middle" x="243.5" y="-35" font-family="Helvetica,sans-Serif" font-size="10.00">::Math::Tuple3&lt; DerivedT, T &gt;</text>
</a>
</g>
</g>
<!-- Node3&#45;&gt;Node4 -->
<g id="edge4_Node000004_Node000003" class="edge">
<title>Node3&#45;&gt;Node4</title>
<g id="a_edge4_Node000004_Node000003"><a xlink:title=" ">
<path fill="none" stroke="#63b8ff" d="M145.71,-54.65C154.02,-53.65 162.45,-52.63 170.69,-51.64"/>
<polygon fill="#63b8ff" stroke="#63b8ff" points="145.48,-51.15 135.97,-55.82 146.32,-58.1 145.48,-51.15"/>
</a>
</g>
</g>
<!-- Node4&#45;&gt;Node2 -->
<g id="edge3_Node000002_Node000004" class="edge">
<title>Node4&#45;&gt;Node2</title>
<g id="a_edge3_Node000002_Node000004"><a xlink:title=" ">
<path fill="none" stroke="orange" stroke-dasharray="5,2" d="M327.76,-51.59C363.43,-55.27 404.29,-59.49 436.87,-62.85"/>
<polygon fill="orange" stroke="orange" points="328.19,-48.12 317.88,-50.57 327.47,-55.08 328.19,-48.12"/>
</a>
</g>
<text text-anchor="middle" x="373.5" y="-62" font-family="Helvetica,sans-Serif" font-size="10.00" fill="grey"> &lt; Point3i, Int32 &gt;</text>
</g>
<!-- Node5 -->
<g id="Node000005" class="node">
<title>Node5</title>
<g id="a_Node000005"><a xlink:href="struct_harlinn_1_1_common_1_1_core_1_1_math_1_1_internal_1_1_point_base.html" target="_top" xlink:title=" ">
<polygon fill="white" stroke="#666666" points="564,-30 431,-30 431,0 564,0 564,-30"/>
<text text-anchor="start" x="439" y="-18" font-family="Helvetica,sans-Serif" font-size="10.00">Harlinn::Common::Core</text>
<text text-anchor="middle" x="497.5" y="-7" font-family="Helvetica,sans-Serif" font-size="10.00">::Math::Internal::PointBase</text>
</a>
</g>
</g>
<!-- Node5&#45;&gt;Node1 -->
<g id="edge5_Node000001_Node000005" class="edge">
<title>Node5&#45;&gt;Node1</title>
<g id="a_edge5_Node000001_Node000005"><a xlink:title=" ">
<path fill="none" stroke="#63b8ff" d="M575.62,-20.77C584.01,-21.39 592.45,-22.02 600.56,-22.63"/>
<polygon fill="#63b8ff" stroke="#63b8ff" points="575.99,-17.28 565.75,-20.03 575.47,-24.26 575.99,-17.28"/>
</a>
</g>
</g>
</g>
</svg>
