<?xml version="1.0" encoding="UTF-8" standalone="no"?>
<!DOCTYPE svg PUBLIC "-//W3C//DTD SVG 1.1//EN"
 "http://www.w3.org/Graphics/SVG/1.1/DTD/svg11.dtd">
<!-- Generated by graphviz version 7.0.1 (20221109.1506)
 -->
<!-- Title: Harlinn.Common.Core.Net.Entities.EntityContextExceptionEventArgs&lt; TKind &gt; Pages: 1 -->
<svg width="163pt" height="170pt"
 viewBox="0.00 0.00 163.00 170.00" xmlns="http://www.w3.org/2000/svg" xmlns:xlink="http://www.w3.org/1999/xlink">
<g id="graph0" class="graph" transform="scale(1 1) rotate(0) translate(4 166)">
<title>Harlinn.Common.Core.Net.Entities.EntityContextExceptionEventArgs&lt; TKind &gt;</title>
<!-- Node1 -->
<g id="Node000001" class="node">
<title>Node1</title>
<g id="a_Node000001"><a xlink:title=" ">
<polygon fill="#999999" stroke="#666666" points="155,-41 0,-41 0,0 155,0 155,-41"/>
<text text-anchor="start" x="8" y="-29" font-family="Helvetica,sans-Serif" font-size="10.00">Harlinn.Common.Core.Net.</text>
<text text-anchor="start" x="8" y="-18" font-family="Helvetica,sans-Serif" font-size="10.00">Entities.EntityContextException</text>
<text text-anchor="middle" x="77.5" y="-7" font-family="Helvetica,sans-Serif" font-size="10.00">EventArgs&lt; TKind &gt;</text>
</a>
</g>
</g>
<!-- Node2 -->
<g id="Node000002" class="node">
<title>Node2</title>
<g id="a_Node000002"><a xlink:href="class_harlinn_1_1_common_1_1_core_1_1_net_1_1_entities_1_1_entity_context_event_args.html" target="_top" xlink:title=" ">
<polygon fill="white" stroke="#666666" points="137.5,-107 17.5,-107 17.5,-77 137.5,-77 137.5,-107"/>
<text text-anchor="start" x="25.5" y="-95" font-family="Helvetica,sans-Serif" font-size="10.00">EntityContextEventArgs</text>
<text text-anchor="middle" x="77.5" y="-84" font-family="Helvetica,sans-Serif" font-size="10.00">&lt; TKind &gt;</text>
</a>
</g>
</g>
<!-- Node2&#45;&gt;Node1 -->
<g id="edge1_Node000001_Node000002" class="edge">
<title>Node2&#45;&gt;Node1</title>
<g id="a_edge1_Node000001_Node000002"><a xlink:title=" ">
<path fill="none" stroke="#63b8ff" d="M77.5,-65.36C77.5,-57.45 77.5,-48.87 77.5,-41.42"/>
<polygon fill="#63b8ff" stroke="#63b8ff" points="74,-65.09 77.5,-75.09 81,-65.09 74,-65.09"/>
</a>
</g>
</g>
<!-- Node3 -->
<g id="Node000003" class="node">
<title>Node3</title>
<g id="a_Node000003"><a xlink:title=" ">
<polygon fill="white" stroke="#666666" points="108,-162 47,-162 47,-143 108,-143 108,-162"/>
<text text-anchor="middle" x="77.5" y="-150" font-family="Helvetica,sans-Serif" font-size="10.00">EventArgs</text>
</a>
</g>
</g>
<!-- Node3&#45;&gt;Node2 -->
<g id="edge2_Node000002_Node000003" class="edge">
<title>Node3&#45;&gt;Node2</title>
<g id="a_edge2_Node000002_Node000003"><a xlink:title=" ">
<path fill="none" stroke="#63b8ff" d="M77.5,-131.51C77.5,-123.49 77.5,-114.43 77.5,-107.11"/>
<polygon fill="#63b8ff" stroke="#63b8ff" points="74,-131.35 77.5,-141.35 81,-131.35 74,-131.35"/>
</a>
</g>
</g>
</g>
</svg>
