<?xml version="1.0" encoding="UTF-8" standalone="no"?>
<!DOCTYPE svg PUBLIC "-//W3C//DTD SVG 1.1//EN"
 "http://www.w3.org/Graphics/SVG/1.1/DTD/svg11.dtd">
<!-- Generated by graphviz version 7.0.1 (20221109.1506)
 -->
<!-- Title: Harlinn::Common::Core::IO::DirectoryAccessMask Pages: 1 -->
<svg width="741pt" height="82pt"
 viewBox="0.00 0.00 741.00 81.50" xmlns="http://www.w3.org/2000/svg" xmlns:xlink="http://www.w3.org/1999/xlink">
<g id="graph0" class="graph" transform="scale(1 1) rotate(0) translate(4 77.5)">
<title>Harlinn::Common::Core::IO::DirectoryAccessMask</title>
<!-- Node1 -->
<g id="Node000001" class="node">
<title>Node1</title>
<g id="a_Node000001"><a xlink:title="The access mask for a directory.">
<polygon fill="#999999" stroke="#666666" points="733,-62.5 599,-62.5 599,-32.5 733,-32.5 733,-62.5"/>
<text text-anchor="start" x="607" y="-50.5" font-family="Helvetica,sans-Serif" font-size="10.00">Harlinn::Common::Core</text>
<text text-anchor="middle" x="666" y="-39.5" font-family="Helvetica,sans-Serif" font-size="10.00">::IO::DirectoryAccessMask</text>
</a>
</g>
</g>
<!-- Node2 -->
<g id="Node000002" class="node">
<title>Node2</title>
<g id="a_Node000002"><a xlink:href="class_harlinn_1_1_common_1_1_core_1_1_security_1_1_access_mask_t.html" target="_top" xlink:title=" ">
<polygon fill="white" stroke="#666666" points="562,-73.5 434,-73.5 434,-21.5 562,-21.5 562,-73.5"/>
<text text-anchor="start" x="442" y="-61.5" font-family="Helvetica,sans-Serif" font-size="10.00">Harlinn::Common::Core</text>
<text text-anchor="start" x="442" y="-50.5" font-family="Helvetica,sans-Serif" font-size="10.00">::Security::AccessMaskT</text>
<text text-anchor="start" x="442" y="-39.5" font-family="Helvetica,sans-Serif" font-size="10.00">&lt; DirectoryAccessMask,</text>
<text text-anchor="middle" x="498" y="-28.5" font-family="Helvetica,sans-Serif" font-size="10.00"> DirectoryAccessRights &gt;</text>
</a>
</g>
</g>
<!-- Node2&#45;&gt;Node1 -->
<g id="edge1_Node000001_Node000002" class="edge">
<title>Node2&#45;&gt;Node1</title>
<g id="a_edge1_Node000001_Node000002"><a xlink:title=" ">
<path fill="none" stroke="#63b8ff" d="M573.53,-47.5C581.9,-47.5 590.38,-47.5 598.63,-47.5"/>
<polygon fill="#63b8ff" stroke="#63b8ff" points="573.74,-44 563.74,-47.5 573.74,-51 573.74,-44"/>
</a>
</g>
</g>
<!-- Node3 -->
<g id="Node000003" class="node">
<title>Node3</title>
<g id="a_Node000003"><a xlink:href="class_harlinn_1_1_common_1_1_core_1_1_security_1_1_access_mask.html" target="_top" xlink:title="An ACCESS_MASK wrapper class. The ACCESS_MASK data type is a DWORD value that defines standard,...">
<polygon fill="white" stroke="#666666" points="122,-59.5 0,-59.5 0,-29.5 122,-29.5 122,-59.5"/>
<text text-anchor="start" x="8" y="-47.5" font-family="Helvetica,sans-Serif" font-size="10.00">Harlinn::Common::Core</text>
<text text-anchor="middle" x="61" y="-36.5" font-family="Helvetica,sans-Serif" font-size="10.00">::Security::AccessMask</text>
</a>
</g>
</g>
<!-- Node3&#45;&gt;Node2 -->
<g id="edge2_Node000002_Node000003" class="edge">
<title>Node3&#45;&gt;Node2</title>
<g id="a_edge2_Node000002_Node000003"><a xlink:title=" ">
<path fill="none" stroke="#63b8ff" d="M133.5,-48.27C142.09,-48.7 150.74,-49.12 159,-49.5 273.13,-54.8 301.89,-61.12 416,-55.5 421.79,-55.21 427.8,-54.82 433.81,-54.35"/>
<polygon fill="#63b8ff" stroke="#63b8ff" points="133.95,-44.79 123.79,-47.78 133.6,-51.78 133.95,-44.79"/>
</a>
</g>
</g>
<!-- Node4 -->
<g id="Node000004" class="node">
<title>Node4</title>
<g id="a_Node000004"><a xlink:href="class_harlinn_1_1_common_1_1_core_1_1_security_1_1_access_mask_t.html" target="_top" xlink:title=" ">
<polygon fill="white" stroke="#666666" points="286,-41 159,-41 159,0 286,0 286,-41"/>
<text text-anchor="start" x="167" y="-29" font-family="Helvetica,sans-Serif" font-size="10.00">Harlinn::Common::Core</text>
<text text-anchor="start" x="167" y="-18" font-family="Helvetica,sans-Serif" font-size="10.00">::Security::AccessMaskT</text>
<text text-anchor="middle" x="222.5" y="-7" font-family="Helvetica,sans-Serif" font-size="10.00">&lt; DerivedT, RightsT &gt;</text>
</a>
</g>
</g>
<!-- Node3&#45;&gt;Node4 -->
<g id="edge4_Node000004_Node000003" class="edge">
<title>Node3&#45;&gt;Node4</title>
<g id="a_edge4_Node000004_Node000003"><a xlink:title=" ">
<path fill="none" stroke="#63b8ff" d="M133.61,-33.72C141.99,-32.46 150.48,-31.19 158.72,-29.95"/>
<polygon fill="#63b8ff" stroke="#63b8ff" points="133.16,-30.25 123.8,-35.2 134.21,-37.17 133.16,-30.25"/>
</a>
</g>
</g>
<!-- Node4&#45;&gt;Node2 -->
<g id="edge3_Node000002_Node000004" class="edge">
<title>Node4&#45;&gt;Node2</title>
<g id="a_edge3_Node000002_Node000004"><a xlink:title=" ">
<path fill="none" stroke="orange" stroke-dasharray="5,2" d="M297.43,-23.7C333.31,-25.7 376.99,-28.82 416,-33.5 421.81,-34.2 427.84,-35.03 433.86,-35.94"/>
<polygon fill="orange" stroke="orange" points="297.76,-20.21 287.58,-23.16 297.38,-27.2 297.76,-20.21"/>
</a>
</g>
<text text-anchor="start" x="304" y="-47.5" font-family="Helvetica,sans-Serif" font-size="10.00" fill="grey"> &lt; DirectoryAccessMask,</text>
<text text-anchor="middle" x="360" y="-36.5" font-family="Helvetica,sans-Serif" font-size="10.00" fill="grey"> DirectoryAccessRights &gt;</text>
</g>
</g>
</svg>
