<?xml version="1.0" encoding="UTF-8" standalone="no"?>
<!DOCTYPE svg PUBLIC "-//W3C//DTD SVG 1.1//EN"
 "http://www.w3.org/Graphics/SVG/1.1/DTD/svg11.dtd">
<!-- Generated by graphviz version 7.0.1 (20221109.1506)
 -->
<!-- Title: Harlinn::AI::DML::X::MaxPoolingBuilder Pages: 1 -->
<svg width="1665pt" height="679pt"
 viewBox="0.00 0.00 1665.00 679.00" xmlns="http://www.w3.org/2000/svg" xmlns:xlink="http://www.w3.org/1999/xlink">
<g id="graph0" class="graph" transform="scale(1 1) rotate(0) translate(4 675)">
<title>Harlinn::AI::DML::X::MaxPoolingBuilder</title>
<!-- Node1 -->
<g id="Node000001" class="node">
<title>Node1</title>
<g id="a_Node000001"><a xlink:title=" ">
<polygon fill="#999999" stroke="#666666" points="1143,-30 1039,-30 1039,0 1143,0 1143,-30"/>
<text text-anchor="start" x="1047" y="-18" font-family="Helvetica,sans-Serif" font-size="10.00">Harlinn::AI::DML::X</text>
<text text-anchor="middle" x="1091" y="-7" font-family="Helvetica,sans-Serif" font-size="10.00">::MaxPoolingBuilder</text>
</a>
</g>
</g>
<!-- Node2 -->
<g id="Node000002" class="node">
<title>Node2</title>
<g id="a_Node000002"><a xlink:href="class_harlinn_1_1_a_i_1_1_d_m_l_1_1_x_1_1_expression.html" target="_top" xlink:title=" ">
<polygon fill="white" stroke="#666666" points="852,-34 753,-34 753,-4 852,-4 852,-34"/>
<text text-anchor="start" x="761" y="-22" font-family="Helvetica,sans-Serif" font-size="10.00">Harlinn::AI::DML::X</text>
<text text-anchor="middle" x="802.5" y="-11" font-family="Helvetica,sans-Serif" font-size="10.00">::Expression</text>
</a>
</g>
</g>
<!-- Node2&#45;&gt;Node1 -->
<g id="edge1_Node000001_Node000002" class="edge">
<title>Node2&#45;&gt;Node1</title>
<g id="a_edge1_Node000001_Node000002"><a xlink:title=" ">
<path fill="none" stroke="#9a32cd" stroke-dasharray="5,2" d="M863.8,-18.16C915.72,-17.43 989.8,-16.4 1038.86,-15.71"/>
<polygon fill="#9a32cd" stroke="#9a32cd" points="863.89,-14.66 853.94,-18.3 863.99,-21.66 863.89,-14.66"/>
</a>
</g>
<text text-anchor="middle" x="949" y="-21" font-family="Helvetica,sans-Serif" font-size="10.00" fill="grey"> input_</text>
</g>
<!-- Node3 -->
<g id="Node000003" class="node">
<title>Node3</title>
<g id="a_Node000003"><a xlink:href="class_harlinn_1_1_a_i_1_1_d_m_l_1_1_x_1_1_internal_1_1_node_output.html" target="_top" xlink:title=" ">
<polygon fill="white" stroke="#666666" points="573,-130 461,-130 461,-100 573,-100 573,-130"/>
<text text-anchor="start" x="469" y="-118" font-family="Helvetica,sans-Serif" font-size="10.00">Harlinn::AI::DML::X</text>
<text text-anchor="middle" x="517" y="-107" font-family="Helvetica,sans-Serif" font-size="10.00">::Internal::NodeOutput</text>
</a>
</g>
</g>
<!-- Node3&#45;&gt;Node2 -->
<g id="edge2_Node000002_Node000003" class="edge">
<title>Node3&#45;&gt;Node2</title>
<g id="a_edge2_Node000002_Node000003"><a xlink:title=" ">
<path fill="none" stroke="#9a32cd" stroke-dasharray="5,2" d="M536.13,-90.87C550.39,-73.85 571.84,-52.17 596,-41 645.83,-17.97 709.5,-14.61 752.67,-15.63"/>
<polygon fill="#9a32cd" stroke="#9a32cd" points="533.48,-88.59 529.93,-98.58 538.93,-92.98 533.48,-88.59"/>
</a>
</g>
<text text-anchor="middle" x="657.5" y="-44" font-family="Helvetica,sans-Serif" font-size="10.00" fill="grey"> nodeOutput_</text>
</g>
<!-- Node18 -->
<g id="Node000018" class="node">
<title>Node18</title>
<g id="a_Node000018"><a xlink:title=" ">
<polygon fill="white" stroke="#666666" points="856,-486.5 749,-486.5 749,-445.5 856,-445.5 856,-486.5"/>
<text text-anchor="start" x="757" y="-474.5" font-family="Helvetica,sans-Serif" font-size="10.00">std::vector&lt; Harlinn</text>
<text text-anchor="start" x="757" y="-463.5" font-family="Helvetica,sans-Serif" font-size="10.00">::AI::DML::X::Internal</text>
<text text-anchor="middle" x="802.5" y="-452.5" font-family="Helvetica,sans-Serif" font-size="10.00">::NodeOutput * &gt;</text>
</a>
</g>
</g>
<!-- Node3&#45;&gt;Node18 -->
<g id="edge19_Node000018_Node000003" class="edge">
<title>Node3&#45;&gt;Node18</title>
<g id="a_edge19_Node000018_Node000003"><a xlink:title=" ">
<path fill="none" stroke="#9a32cd" stroke-dasharray="5,2" d="M552.92,-137.1C562.63,-145.01 572.11,-154.79 578,-166 614.97,-236.4 553.02,-277.1 596,-344 630.24,-397.3 664.58,-383.58 719,-416 734.97,-425.51 752.6,-436.18 767.45,-445.21"/>
<polygon fill="#9a32cd" stroke="#9a32cd" points="555.33,-134.54 545.25,-131.29 551.11,-140.11 555.33,-134.54"/>
</a>
</g>
<text text-anchor="middle" x="657.5" y="-419" font-family="Helvetica,sans-Serif" font-size="10.00" fill="grey"> elements</text>
</g>
<!-- Node22 -->
<g id="Node000022" class="node">
<title>Node22</title>
<g id="a_Node000022"><a xlink:href="struct_harlinn_1_1_a_i_1_1_d_m_l_1_1_x_1_1_internal_1_1_reinterpret_node.html" target="_top" xlink:title=" ">
<polygon fill="white" stroke="#666666" points="867.5,-184 737.5,-184 737.5,-154 867.5,-154 867.5,-184"/>
<text text-anchor="start" x="745.5" y="-172" font-family="Helvetica,sans-Serif" font-size="10.00">Harlinn::AI::DML::X</text>
<text text-anchor="middle" x="802.5" y="-161" font-family="Helvetica,sans-Serif" font-size="10.00">::Internal::ReinterpretNode</text>
</a>
</g>
</g>
<!-- Node3&#45;&gt;Node22 -->
<g id="edge26_Node000022_Node000003" class="edge">
<title>Node3&#45;&gt;Node22</title>
<g id="a_edge26_Node000022_Node000003"><a xlink:title=" ">
<path fill="none" stroke="#9a32cd" stroke-dasharray="5,2" d="M584.45,-125.65C623.69,-132.16 674.29,-140.96 719,-150 724.91,-151.19 731.04,-152.49 737.17,-153.83"/>
<polygon fill="#9a32cd" stroke="#9a32cd" points="585.11,-122.21 574.67,-124.03 583.97,-129.11 585.11,-122.21"/>
</a>
</g>
<text text-anchor="middle" x="657.5" y="-153" font-family="Helvetica,sans-Serif" font-size="10.00" fill="grey"> input</text>
</g>
<!-- Node27 -->
<g id="Node000027" class="node">
<title>Node27</title>
<g id="a_Node000027"><a xlink:title=" ">
<polygon fill="white" stroke="#666666" points="856,-135.5 749,-135.5 749,-94.5 856,-94.5 856,-135.5"/>
<text text-anchor="start" x="757" y="-123.5" font-family="Helvetica,sans-Serif" font-size="10.00">std::deque&lt; Harlinn</text>
<text text-anchor="start" x="757" y="-112.5" font-family="Helvetica,sans-Serif" font-size="10.00">::AI::DML::X::Internal</text>
<text text-anchor="middle" x="802.5" y="-101.5" font-family="Helvetica,sans-Serif" font-size="10.00">::NodeOutput &gt;</text>
</a>
</g>
</g>
<!-- Node3&#45;&gt;Node27 -->
<g id="edge36_Node000027_Node000003" class="edge">
<title>Node3&#45;&gt;Node27</title>
<g id="a_edge36_Node000027_Node000003"><a xlink:title=" ">
<path fill="none" stroke="#9a32cd" stroke-dasharray="5,2" d="M584.7,-115C634.76,-115 702.37,-115 748.7,-115"/>
<polygon fill="#9a32cd" stroke="#9a32cd" points="584.85,-111.5 574.85,-115 584.85,-118.5 584.85,-111.5"/>
</a>
</g>
<text text-anchor="middle" x="657.5" y="-118" font-family="Helvetica,sans-Serif" font-size="10.00" fill="grey"> elements</text>
</g>
<!-- Node4 -->
<g id="Node000004" class="node">
<title>Node4</title>
<g id="a_Node000004"><a xlink:href="class_harlinn_1_1_a_i_1_1_d_m_l_1_1_x_1_1_internal_1_1_graph_builder.html" target="_top" xlink:title=" ">
<polygon fill="white" stroke="#666666" points="1657,-358 1541,-358 1541,-328 1657,-328 1657,-358"/>
<text text-anchor="start" x="1549" y="-346" font-family="Helvetica,sans-Serif" font-size="10.00">Harlinn::AI::DML::X</text>
<text text-anchor="middle" x="1599" y="-335" font-family="Helvetica,sans-Serif" font-size="10.00">::Internal::GraphBuilder</text>
</a>
</g>
</g>
<!-- Node4&#45;&gt;Node3 -->
<g id="edge3_Node000003_Node000004" class="edge">
<title>Node4&#45;&gt;Node3</title>
<g id="a_edge3_Node000003_Node000004"><a xlink:title=" ">
<path fill="none" stroke="#9a32cd" stroke-dasharray="5,2" d="M1590.5,-316.94C1568.89,-247.98 1499.63,-66 1370.5,-66 801.5,-66 801.5,-66 801.5,-66 721.33,-66 630.25,-85.26 573.45,-99.63"/>
<polygon fill="#9a32cd" stroke="#9a32cd" points="1587.08,-317.71 1593.33,-326.26 1593.78,-315.68 1587.08,-317.71"/>
</a>
</g>
<text text-anchor="middle" x="1091" y="-69" font-family="Helvetica,sans-Serif" font-size="10.00" fill="grey"> owner_</text>
</g>
<!-- Node5 -->
<g id="Node000005" class="node">
<title>Node5</title>
<g id="a_Node000005"><a xlink:href="class_harlinn_1_1_a_i_1_1_d_m_l_1_1_device1.html" target="_top" xlink:title=" ">
<polygon fill="white" stroke="#666666" points="1298,-661.5 1170,-661.5 1170,-642.5 1298,-642.5 1298,-661.5"/>
<text text-anchor="middle" x="1234" y="-649.5" font-family="Helvetica,sans-Serif" font-size="10.00">Harlinn::AI::DML::Device1</text>
</a>
</g>
</g>
<!-- Node5&#45;&gt;Node4 -->
<g id="edge4_Node000004_Node000005" class="edge">
<title>Node5&#45;&gt;Node4</title>
<g id="a_edge4_Node000004_Node000005"><a xlink:title=" ">
<path fill="none" stroke="#9a32cd" stroke-dasharray="5,2" d="M1309.75,-660.03C1374.04,-662.63 1465.26,-655.47 1523,-604 1597.26,-537.8 1600.06,-403.42 1598.75,-358.22"/>
<polygon fill="#9a32cd" stroke="#9a32cd" points="1310.15,-656.54 1299.99,-659.53 1309.8,-663.53 1310.15,-656.54"/>
</a>
</g>
<text text-anchor="middle" x="1369.5" y="-663" font-family="Helvetica,sans-Serif" font-size="10.00" fill="grey"> m_device</text>
</g>
<!-- Node6 -->
<g id="Node000006" class="node">
<title>Node6</title>
<g id="a_Node000006"><a xlink:href="class_harlinn_1_1_a_i_1_1_d_m_l_1_1_device.html" target="_top" xlink:title=" ">
<polygon fill="white" stroke="#666666" points="578,-669.5 456,-669.5 456,-650.5 578,-650.5 578,-669.5"/>
<text text-anchor="middle" x="517" y="-657.5" font-family="Helvetica,sans-Serif" font-size="10.00">Harlinn::AI::DML::Device</text>
</a>
</g>
</g>
<!-- Node6&#45;&gt;Node5 -->
<g id="edge5_Node000005_Node000006" class="edge">
<title>Node6&#45;&gt;Node5</title>
<g id="a_edge5_Node000005_Node000006"><a xlink:title=" ">
<path fill="none" stroke="#63b8ff" d="M589.73,-659.2C729.57,-657.63 1036.53,-654.2 1169.5,-652.71"/>
<polygon fill="#63b8ff" stroke="#63b8ff" points="589.82,-655.7 579.86,-659.31 589.9,-662.7 589.82,-655.7"/>
</a>
</g>
</g>
<!-- Node7 -->
<g id="Node000007" class="node">
<title>Node7</title>
<g id="a_Node000007"><a xlink:href="class_harlinn_1_1_a_i_1_1_d_m_l_1_1_object.html" target="_top" xlink:title=" ">
<polygon fill="white" stroke="#666666" points="362,-647.5 240,-647.5 240,-628.5 362,-628.5 362,-647.5"/>
<text text-anchor="middle" x="301" y="-635.5" font-family="Helvetica,sans-Serif" font-size="10.00">Harlinn::AI::DML::Object</text>
</a>
</g>
</g>
<!-- Node7&#45;&gt;Node6 -->
<g id="edge6_Node000006_Node000007" class="edge">
<title>Node7&#45;&gt;Node6</title>
<g id="a_edge6_Node000006_Node000007"><a xlink:title=" ">
<path fill="none" stroke="#63b8ff" d="M373.65,-645.37C400.27,-648.1 430.18,-651.18 455.68,-653.8"/>
<polygon fill="#63b8ff" stroke="#63b8ff" points="374.28,-641.91 363.97,-644.37 373.56,-648.88 374.28,-641.91"/>
</a>
</g>
</g>
<!-- Node17 -->
<g id="Node000017" class="node">
<title>Node17</title>
<g id="a_Node000017"><a xlink:href="class_harlinn_1_1_a_i_1_1_d_m_l_1_1_device_child.html" target="_top" xlink:title=" ">
<polygon fill="white" stroke="#666666" points="578,-632 456,-632 456,-602 578,-602 578,-632"/>
<text text-anchor="start" x="464" y="-620" font-family="Helvetica,sans-Serif" font-size="10.00">Harlinn::AI::DML::Device</text>
<text text-anchor="middle" x="517" y="-609" font-family="Helvetica,sans-Serif" font-size="10.00">Child</text>
</a>
</g>
</g>
<!-- Node7&#45;&gt;Node17 -->
<g id="edge17_Node000017_Node000007" class="edge">
<title>Node7&#45;&gt;Node17</title>
<g id="a_edge17_Node000017_Node000007"><a xlink:title=" ">
<path fill="none" stroke="#63b8ff" d="M373.65,-630.97C400.27,-628.36 430.18,-625.42 455.68,-622.92"/>
<polygon fill="#63b8ff" stroke="#63b8ff" points="373.58,-627.46 363.97,-631.92 374.27,-634.43 373.58,-627.46"/>
</a>
</g>
</g>
<!-- Node8 -->
<g id="Node000008" class="node">
<title>Node8</title>
<g id="a_Node000008"><a xlink:href="class_harlinn_1_1_common_1_1_core_1_1_unknown.html" target="_top" xlink:title="Base class for COM interface wrappers.">
<polygon fill="white" stroke="#666666" points="132,-653 14,-653 14,-623 132,-623 132,-653"/>
<text text-anchor="start" x="22" y="-641" font-family="Helvetica,sans-Serif" font-size="10.00">Harlinn::Common::Core</text>
<text text-anchor="middle" x="73" y="-630" font-family="Helvetica,sans-Serif" font-size="10.00">::Unknown</text>
</a>
</g>
</g>
<!-- Node8&#45;&gt;Node7 -->
<g id="edge7_Node000007_Node000008" class="edge">
<title>Node8&#45;&gt;Node7</title>
<g id="a_edge7_Node000007_Node000008"><a xlink:title=" ">
<path fill="none" stroke="#63b8ff" d="M143.99,-638C174.66,-638 210.31,-638 239.78,-638"/>
<polygon fill="#63b8ff" stroke="#63b8ff" points="144.01,-634.5 134.01,-638 144.01,-641.5 144.01,-634.5"/>
</a>
</g>
</g>
<!-- Node9 -->
<g id="Node000009" class="node">
<title>Node9</title>
<g id="a_Node000009"><a xlink:href="class_harlinn_1_1_a_i_1_1_d_m_l_1_1_x_1_1_tensor_policy.html" target="_top" xlink:title=" ">
<polygon fill="white" stroke="#666666" points="1419,-500 1320,-500 1320,-470 1419,-470 1419,-500"/>
<text text-anchor="start" x="1328" y="-488" font-family="Helvetica,sans-Serif" font-size="10.00">Harlinn::AI::DML::X</text>
<text text-anchor="middle" x="1369.5" y="-477" font-family="Helvetica,sans-Serif" font-size="10.00">::TensorPolicy</text>
</a>
</g>
</g>
<!-- Node9&#45;&gt;Node4 -->
<g id="edge8_Node000004_Node000009" class="edge">
<title>Node9&#45;&gt;Node4</title>
<g id="a_edge8_Node000004_Node000009"><a xlink:title=" ">
<path fill="none" stroke="#9a32cd" stroke-dasharray="5,2" d="M1429.99,-466.45C1459.43,-455.72 1494.64,-440.45 1523,-421 1548.87,-403.26 1572.91,-375.47 1586.49,-358.29"/>
<polygon fill="#9a32cd" stroke="#9a32cd" points="1429.11,-463.05 1420.85,-469.69 1431.45,-469.64 1429.11,-463.05"/>
</a>
</g>
<text text-anchor="middle" x="1482" y="-464" font-family="Helvetica,sans-Serif" font-size="10.00" fill="grey"> m_tensorPolicy</text>
</g>
<!-- Node10 -->
<g id="Node000010" class="node">
<title>Node10</title>
<g id="a_Node000010"><a xlink:title=" ">
<polygon fill="white" stroke="#666666" points="856,-350.5 749,-350.5 749,-309.5 856,-309.5 856,-350.5"/>
<text text-anchor="start" x="757" y="-338.5" font-family="Helvetica,sans-Serif" font-size="10.00">std::vector&lt; Harlinn</text>
<text text-anchor="start" x="757" y="-327.5" font-family="Helvetica,sans-Serif" font-size="10.00">::AI::DML::X::Internal</text>
<text text-anchor="middle" x="802.5" y="-316.5" font-family="Helvetica,sans-Serif" font-size="10.00">::InputNode &gt;</text>
</a>
</g>
</g>
<!-- Node10&#45;&gt;Node4 -->
<g id="edge9_Node000004_Node000010" class="edge">
<title>Node10&#45;&gt;Node4</title>
<g id="a_edge9_Node000004_Node000010"><a xlink:title=" ">
<path fill="none" stroke="#9a32cd" stroke-dasharray="5,2" d="M867.6,-331.05C1018.85,-333.52 1396.09,-339.7 1540.51,-342.06"/>
<polygon fill="#9a32cd" stroke="#9a32cd" points="867.81,-327.55 857.76,-330.89 867.7,-334.55 867.81,-327.55"/>
</a>
</g>
<text text-anchor="middle" x="1234" y="-340" font-family="Helvetica,sans-Serif" font-size="10.00" fill="grey"> m_inputNodes</text>
</g>
<!-- Node11 -->
<g id="Node000011" class="node">
<title>Node11</title>
<g id="a_Node000011"><a xlink:href="struct_harlinn_1_1_a_i_1_1_d_m_l_1_1_x_1_1_internal_1_1_input_node.html" target="_top" xlink:title=" ">
<polygon fill="white" stroke="#666666" points="569,-284 465,-284 465,-254 569,-254 569,-284"/>
<text text-anchor="start" x="473" y="-272" font-family="Helvetica,sans-Serif" font-size="10.00">Harlinn::AI::DML::X</text>
<text text-anchor="middle" x="517" y="-261" font-family="Helvetica,sans-Serif" font-size="10.00">::Internal::InputNode</text>
</a>
</g>
</g>
<!-- Node11&#45;&gt;Node10 -->
<g id="edge10_Node000010_Node000011" class="edge">
<title>Node11&#45;&gt;Node10</title>
<g id="a_edge10_Node000010_Node000011"><a xlink:title=" ">
<path fill="none" stroke="#9a32cd" stroke-dasharray="5,2" d="M580.36,-272.67C620.49,-276.1 673.47,-282.65 719,-295 732.06,-298.54 745.78,-303.72 758.19,-309.01"/>
<polygon fill="#9a32cd" stroke="#9a32cd" points="580.9,-269.2 570.65,-271.88 580.33,-276.18 580.9,-269.2"/>
</a>
</g>
<text text-anchor="middle" x="657.5" y="-298" font-family="Helvetica,sans-Serif" font-size="10.00" fill="grey"> elements</text>
</g>
<!-- Node12 -->
<g id="Node000012" class="node">
<title>Node12</title>
<g id="a_Node000012"><a xlink:title=" ">
<polygon fill="white" stroke="#666666" points="559.5,-392.5 474.5,-392.5 474.5,-373.5 559.5,-373.5 559.5,-392.5"/>
<text text-anchor="middle" x="517" y="-380.5" font-family="Helvetica,sans-Serif" font-size="10.00">std::vector&lt; T &gt;</text>
</a>
</g>
</g>
<!-- Node12&#45;&gt;Node10 -->
<g id="edge11_Node000010_Node000012" class="edge">
<title>Node12&#45;&gt;Node10</title>
<g id="a_edge11_Node000010_Node000012"><a xlink:title=" ">
<path fill="none" stroke="orange" stroke-dasharray="5,2" d="M533.89,-365.23C548.39,-350.46 571.27,-330.52 596,-322 645.79,-304.84 706.43,-310.11 748.88,-317.66"/>
<polygon fill="orange" stroke="orange" points="531.72,-362.43 527.41,-372.11 536.81,-367.23 531.72,-362.43"/>
</a>
</g>
<text text-anchor="start" x="603.5" y="-336" font-family="Helvetica,sans-Serif" font-size="10.00" fill="grey"> &lt; Harlinn::AI::DML</text>
<text text-anchor="middle" x="657.5" y="-325" font-family="Helvetica,sans-Serif" font-size="10.00" fill="grey">::X::Internal::InputNode &gt;</text>
</g>
<!-- Node14 -->
<g id="Node000014" class="node">
<title>Node14</title>
<g id="a_Node000014"><a xlink:title=" ">
<polygon fill="white" stroke="#666666" points="1423,-451.5 1316,-451.5 1316,-410.5 1423,-410.5 1423,-451.5"/>
<text text-anchor="start" x="1324" y="-439.5" font-family="Helvetica,sans-Serif" font-size="10.00">std::vector&lt; Harlinn</text>
<text text-anchor="start" x="1324" y="-428.5" font-family="Helvetica,sans-Serif" font-size="10.00">::AI::DML::X::Internal</text>
<text text-anchor="middle" x="1369.5" y="-417.5" font-family="Helvetica,sans-Serif" font-size="10.00">::OperatorNode &gt;</text>
</a>
</g>
</g>
<!-- Node12&#45;&gt;Node14 -->
<g id="edge23_Node000014_Node000012" class="edge">
<title>Node12&#45;&gt;Node14</title>
<g id="a_edge23_Node000014_Node000012"><a xlink:title=" ">
<path fill="none" stroke="orange" stroke-dasharray="5,2" d="M570.88,-390.35C579.27,-391.35 587.87,-392.28 596,-393 667.1,-399.3 1152.99,-421.35 1315.61,-428.64"/>
<polygon fill="orange" stroke="orange" points="571.49,-386.9 561.13,-389.14 570.62,-393.84 571.49,-386.9"/>
</a>
</g>
<text text-anchor="start" x="887" y="-428" font-family="Helvetica,sans-Serif" font-size="10.00" fill="grey"> &lt; Harlinn::AI::DML</text>
<text text-anchor="middle" x="949" y="-417" font-family="Helvetica,sans-Serif" font-size="10.00" fill="grey">::X::Internal::OperatorNode &gt;</text>
</g>
<!-- Node12&#45;&gt;Node18 -->
<g id="edge20_Node000018_Node000012" class="edge">
<title>Node12&#45;&gt;Node18</title>
<g id="a_edge20_Node000018_Node000012"><a xlink:title=" ">
<path fill="none" stroke="orange" stroke-dasharray="5,2" d="M539.68,-399.5C554.71,-410.12 575.62,-423.32 596,-431 623.26,-441.27 697.52,-452.46 748.87,-459.36"/>
<polygon fill="orange" stroke="orange" points="542.09,-396.92 531.94,-393.87 537.97,-402.58 542.09,-396.92"/>
</a>
</g>
<text text-anchor="start" x="596" y="-468" font-family="Helvetica,sans-Serif" font-size="10.00" fill="grey"> &lt; Harlinn::AI::DML</text>
<text text-anchor="middle" x="657.5" y="-457" font-family="Helvetica,sans-Serif" font-size="10.00" fill="grey">::X::Internal::NodeOutput * &gt;</text>
</g>
<!-- Node21 -->
<g id="Node000021" class="node">
<title>Node21</title>
<g id="a_Node000021"><a xlink:title=" ">
<polygon fill="white" stroke="#666666" points="1144.5,-240.5 1037.5,-240.5 1037.5,-199.5 1144.5,-199.5 1144.5,-240.5"/>
<text text-anchor="start" x="1045.5" y="-228.5" font-family="Helvetica,sans-Serif" font-size="10.00">std::vector&lt; Harlinn</text>
<text text-anchor="start" x="1045.5" y="-217.5" font-family="Helvetica,sans-Serif" font-size="10.00">::AI::DML::X::Internal</text>
<text text-anchor="middle" x="1091" y="-206.5" font-family="Helvetica,sans-Serif" font-size="10.00">::ReinterpretNode &gt;</text>
</a>
</g>
</g>
<!-- Node12&#45;&gt;Node21 -->
<g id="edge27_Node000021_Node000012" class="edge">
<title>Node12&#45;&gt;Node21</title>
<g id="a_edge27_Node000021_Node000012"><a xlink:title=" ">
<path fill="none" stroke="orange" stroke-dasharray="5,2" d="M532.11,-364.24C546.34,-346.63 569.9,-320.83 596,-306 645.11,-278.09 664.84,-290.05 719,-274 727.09,-271.6 728.79,-269.91 737,-268 841.97,-243.59 967.59,-230.17 1037.11,-224.09"/>
<polygon fill="orange" stroke="orange" points="529.54,-361.84 526.14,-371.87 535.06,-366.16 529.54,-361.84"/>
</a>
</g>
<text text-anchor="start" x="751" y="-293" font-family="Helvetica,sans-Serif" font-size="10.00" fill="grey"> &lt; Harlinn::AI::DML</text>
<text text-anchor="start" x="751" y="-282" font-family="Helvetica,sans-Serif" font-size="10.00" fill="grey">::X::Internal::Reinterpret</text>
<text text-anchor="middle" x="802.5" y="-271" font-family="Helvetica,sans-Serif" font-size="10.00" fill="grey">Node &gt;</text>
</g>
<!-- Node23 -->
<g id="Node000023" class="node">
<title>Node23</title>
<g id="a_Node000023"><a xlink:title=" ">
<polygon fill="white" stroke="#666666" points="1423,-392.5 1316,-392.5 1316,-351.5 1423,-351.5 1423,-392.5"/>
<text text-anchor="start" x="1324" y="-380.5" font-family="Helvetica,sans-Serif" font-size="10.00">std::vector&lt; Harlinn</text>
<text text-anchor="start" x="1324" y="-369.5" font-family="Helvetica,sans-Serif" font-size="10.00">::AI::DML::X::Internal</text>
<text text-anchor="middle" x="1369.5" y="-358.5" font-family="Helvetica,sans-Serif" font-size="10.00">::ConstantNode &gt;</text>
</a>
</g>
</g>
<!-- Node12&#45;&gt;Node23 -->
<g id="edge34_Node000023_Node000012" class="edge">
<title>Node12&#45;&gt;Node23</title>
<g id="a_edge34_Node000023_Node000012"><a xlink:title=" ">
<path fill="none" stroke="orange" stroke-dasharray="5,2" d="M571.45,-381.74C611.95,-380.77 668.98,-379.37 719,-378 793.23,-375.97 811.75,-374.19 886,-373 1042.21,-370.5 1226.89,-371.11 1315.66,-371.63"/>
<polygon fill="orange" stroke="orange" points="571.39,-378.24 561.48,-381.98 571.56,-385.24 571.39,-378.24"/>
</a>
</g>
<text text-anchor="start" x="886" y="-387" font-family="Helvetica,sans-Serif" font-size="10.00" fill="grey"> &lt; Harlinn::AI::DML</text>
<text text-anchor="middle" x="949" y="-376" font-family="Helvetica,sans-Serif" font-size="10.00" fill="grey">::X::Internal::ConstantNode &gt;</text>
</g>
<!-- Node13 -->
<g id="Node000013" class="node">
<title>Node13</title>
<g id="a_Node000013"><a xlink:title=" ">
<polygon fill="white" stroke="#666666" points="315.5,-299.5 286.5,-299.5 286.5,-280.5 315.5,-280.5 315.5,-299.5"/>
<text text-anchor="middle" x="301" y="-287.5" font-family="Helvetica,sans-Serif" font-size="10.00">T</text>
</a>
</g>
</g>
<!-- Node13&#45;&gt;Node12 -->
<g id="edge12_Node000012_Node000013" class="edge">
<title>Node13&#45;&gt;Node12</title>
<g id="a_edge12_Node000012_Node000013"><a xlink:title=" ">
<path fill="none" stroke="#9a32cd" stroke-dasharray="5,2" d="M326.25,-300.54C367.88,-318.63 452.39,-355.36 493.09,-373.04"/>
<polygon fill="#9a32cd" stroke="#9a32cd" points="327.67,-297.34 317.1,-296.56 324.88,-303.76 327.67,-297.34"/>
</a>
</g>
<text text-anchor="middle" x="409" y="-350" font-family="Helvetica,sans-Serif" font-size="10.00" fill="grey"> elements</text>
</g>
<!-- Node26 -->
<g id="Node000026" class="node">
<title>Node26</title>
<g id="a_Node000026"><a xlink:title=" ">
<polygon fill="white" stroke="#666666" points="557,-478.5 477,-478.5 477,-459.5 557,-459.5 557,-478.5"/>
<text text-anchor="middle" x="517" y="-466.5" font-family="Helvetica,sans-Serif" font-size="10.00">std::span&lt; T &gt;</text>
</a>
</g>
</g>
<!-- Node13&#45;&gt;Node26 -->
<g id="edge32_Node000026_Node000013" class="edge">
<title>Node13&#45;&gt;Node26</title>
<g id="a_edge32_Node000026_Node000013"><a xlink:title=" ">
<path fill="none" stroke="#9a32cd" stroke-dasharray="5,2" d="M320.08,-307.45C335.66,-322.29 358.9,-344.01 380,-362 423.66,-399.23 477.88,-440.47 502.59,-459.01"/>
<polygon fill="#9a32cd" stroke="#9a32cd" points="322.6,-305.02 312.96,-300.63 317.76,-310.07 322.6,-305.02"/>
</a>
</g>
<text text-anchor="middle" x="409" y="-410" font-family="Helvetica,sans-Serif" font-size="10.00" fill="grey"> elements</text>
</g>
<!-- Node28 -->
<g id="Node000028" class="node">
<title>Node28</title>
<g id="a_Node000028"><a xlink:title=" ">
<polygon fill="white" stroke="#666666" points="560,-194.5 474,-194.5 474,-175.5 560,-175.5 560,-194.5"/>
<text text-anchor="middle" x="517" y="-182.5" font-family="Helvetica,sans-Serif" font-size="10.00">std::deque&lt; T &gt;</text>
</a>
</g>
</g>
<!-- Node13&#45;&gt;Node28 -->
<g id="edge38_Node000028_Node000013" class="edge">
<title>Node13&#45;&gt;Node28</title>
<g id="a_edge38_Node000028_Node000013"><a xlink:title=" ">
<path fill="none" stroke="#9a32cd" stroke-dasharray="5,2" d="M322.79,-273.06C337.97,-261.28 359.42,-245.8 380,-235 412.97,-217.7 453.27,-203.69 481.41,-194.95"/>
<polygon fill="#9a32cd" stroke="#9a32cd" points="320.64,-270.3 314.98,-279.25 324.99,-275.79 320.64,-270.3"/>
</a>
</g>
<text text-anchor="middle" x="409" y="-238" font-family="Helvetica,sans-Serif" font-size="10.00" fill="grey"> elements</text>
</g>
<!-- Node30 -->
<g id="Node000030" class="node">
<title>Node30</title>
<g id="a_Node000030"><a xlink:title=" ">
<polygon fill="white" stroke="#666666" points="558.5,-235.5 475.5,-235.5 475.5,-216.5 558.5,-216.5 558.5,-235.5"/>
<text text-anchor="middle" x="517" y="-223.5" font-family="Helvetica,sans-Serif" font-size="10.00">std::stack&lt; T &gt;</text>
</a>
</g>
</g>
<!-- Node13&#45;&gt;Node30 -->
<g id="edge42_Node000030_Node000013" class="edge">
<title>Node13&#45;&gt;Node30</title>
<g id="a_edge42_Node000030_Node000013"><a xlink:title=" ">
<path fill="none" stroke="#9a32cd" stroke-dasharray="5,2" d="M326.64,-282.63C365.11,-271.13 439.5,-248.88 482.7,-235.96"/>
<polygon fill="#9a32cd" stroke="#9a32cd" points="325.74,-279.25 317.16,-285.47 327.75,-285.95 325.74,-279.25"/>
</a>
</g>
<text text-anchor="middle" x="409" y="-268" font-family="Helvetica,sans-Serif" font-size="10.00" fill="grey"> elements</text>
</g>
<!-- Node14&#45;&gt;Node4 -->
<g id="edge13_Node000004_Node000014" class="edge">
<title>Node14&#45;&gt;Node4</title>
<g id="a_edge13_Node000004_Node000014"><a xlink:title=" ">
<path fill="none" stroke="#9a32cd" stroke-dasharray="5,2" d="M1434.17,-409.81C1461.69,-400.31 1494.14,-388.63 1523,-377 1537.19,-371.28 1552.62,-364.41 1565.77,-358.34"/>
<polygon fill="#9a32cd" stroke="#9a32cd" points="1433.25,-406.43 1424.93,-412.99 1435.52,-413.05 1433.25,-406.43"/>
</a>
</g>
<text text-anchor="middle" x="1482" y="-409" font-family="Helvetica,sans-Serif" font-size="10.00" fill="grey"> m_operatorNodes</text>
</g>
<!-- Node15 -->
<g id="Node000015" class="node">
<title>Node15</title>
<g id="a_Node000015"><a xlink:href="struct_harlinn_1_1_a_i_1_1_d_m_l_1_1_x_1_1_internal_1_1_operator_node.html" target="_top" xlink:title=" ">
<polygon fill="white" stroke="#666666" points="1151,-554 1031,-554 1031,-524 1151,-524 1151,-554"/>
<text text-anchor="start" x="1039" y="-542" font-family="Helvetica,sans-Serif" font-size="10.00">Harlinn::AI::DML::X</text>
<text text-anchor="middle" x="1091" y="-531" font-family="Helvetica,sans-Serif" font-size="10.00">::Internal::OperatorNode</text>
</a>
</g>
</g>
<!-- Node15&#45;&gt;Node14 -->
<g id="edge14_Node000014_Node000015" class="edge">
<title>Node15&#45;&gt;Node14</title>
<g id="a_edge14_Node000014_Node000015"><a xlink:title=" ">
<path fill="none" stroke="#9a32cd" stroke-dasharray="5,2" d="M1142.3,-519.35C1191.39,-500.18 1265.78,-471.12 1315.71,-451.62"/>
<polygon fill="#9a32cd" stroke="#9a32cd" points="1141.07,-516.08 1133.03,-522.98 1143.61,-522.6 1141.07,-516.08"/>
</a>
</g>
<text text-anchor="middle" x="1234" y="-510" font-family="Helvetica,sans-Serif" font-size="10.00" fill="grey"> elements</text>
</g>
<!-- Node16 -->
<g id="Node000016" class="node">
<title>Node16</title>
<g id="a_Node000016"><a xlink:href="class_harlinn_1_1_a_i_1_1_d_m_l_1_1_operator.html" target="_top" xlink:title=" ">
<polygon fill="white" stroke="#666666" points="868,-628.5 737,-628.5 737,-609.5 868,-609.5 868,-628.5"/>
<text text-anchor="middle" x="802.5" y="-616.5" font-family="Helvetica,sans-Serif" font-size="10.00">Harlinn::AI::DML::Operator</text>
</a>
</g>
</g>
<!-- Node16&#45;&gt;Node15 -->
<g id="edge15_Node000015_Node000016" class="edge">
<title>Node16&#45;&gt;Node15</title>
<g id="a_edge15_Node000015_Node000016"><a xlink:title=" ">
<path fill="none" stroke="#9a32cd" stroke-dasharray="5,2" d="M868.78,-606.82C910.25,-598.39 964.82,-586 1012,-571 1026.65,-566.34 1042.4,-560.12 1055.89,-554.41"/>
<polygon fill="#9a32cd" stroke="#9a32cd" points="868.32,-603.35 859.2,-608.75 869.69,-610.21 868.32,-603.35"/>
</a>
</g>
<text text-anchor="middle" x="949" y="-605" font-family="Helvetica,sans-Serif" font-size="10.00" fill="grey"> op</text>
</g>
<!-- Node17&#45;&gt;Node16 -->
<g id="edge16_Node000016_Node000017" class="edge">
<title>Node17&#45;&gt;Node16</title>
<g id="a_edge16_Node000016_Node000017"><a xlink:title=" ">
<path fill="none" stroke="#63b8ff" d="M589.96,-617.51C635.15,-617.83 692.93,-618.23 736.68,-618.54"/>
<polygon fill="#63b8ff" stroke="#63b8ff" points="590.01,-614.01 579.98,-617.44 589.96,-621.01 590.01,-614.01"/>
</a>
</g>
</g>
<!-- Node18&#45;&gt;Node15 -->
<g id="edge18_Node000015_Node000018" class="edge">
<title>Node18&#45;&gt;Node15</title>
<g id="a_edge18_Node000015_Node000018"><a xlink:title=" ">
<path fill="none" stroke="#9a32cd" stroke-dasharray="5,2" d="M860.88,-492.13C863.3,-493.4 865.68,-494.7 868,-496 876.38,-500.71 877.03,-504.53 886,-508 911.72,-517.96 980.32,-527.15 1030.9,-532.9"/>
<polygon fill="#9a32cd" stroke="#9a32cd" points="862.62,-489.09 852.12,-487.66 859.44,-495.32 862.62,-489.09"/>
</a>
</g>
<text text-anchor="middle" x="949" y="-533" font-family="Helvetica,sans-Serif" font-size="10.00" fill="grey"> inputs</text>
</g>
<!-- Node19 -->
<g id="Node000019" class="node">
<title>Node19</title>
<g id="a_Node000019"><a xlink:title=" ">
<polygon fill="white" stroke="#666666" points="832.5,-573.5 772.5,-573.5 772.5,-554.5 832.5,-554.5 832.5,-573.5"/>
<text text-anchor="middle" x="802.5" y="-561.5" font-family="Helvetica,sans-Serif" font-size="10.00">std::string</text>
</a>
</g>
</g>
<!-- Node19&#45;&gt;Node4 -->
<g id="edge39_Node000004_Node000019" class="edge">
<title>Node19&#45;&gt;Node4</title>
<g id="a_edge39_Node000004_Node000019"><a xlink:title=" ">
<path fill="none" stroke="#9a32cd" stroke-dasharray="5,2" d="M844.1,-568.13C857.44,-569.31 872.34,-570.42 886,-571 941.95,-573.37 956.02,-572.6 1012,-571 1196.66,-565.73 1244.37,-556.08 1423,-509 1468.26,-497.07 1486.85,-505.72 1523,-476 1562.11,-443.85 1584.61,-385.64 1593.51,-358.15"/>
<polygon fill="#9a32cd" stroke="#9a32cd" points="844.65,-564.67 834.37,-567.24 844.01,-571.64 844.65,-564.67"/>
</a>
</g>
<text text-anchor="middle" x="1234" y="-565" font-family="Helvetica,sans-Serif" font-size="10.00" fill="grey"> m_name</text>
</g>
<!-- Node19&#45;&gt;Node15 -->
<g id="edge21_Node000015_Node000019" class="edge">
<title>Node19&#45;&gt;Node15</title>
<g id="a_edge21_Node000015_Node000019"><a xlink:title=" ">
<path fill="none" stroke="#9a32cd" stroke-dasharray="5,2" d="M844.15,-560.45C892.87,-556.2 974.9,-549.04 1030.69,-544.18"/>
<polygon fill="#9a32cd" stroke="#9a32cd" points="843.98,-556.95 834.32,-561.31 844.59,-563.93 843.98,-556.95"/>
</a>
</g>
<text text-anchor="middle" x="949" y="-559" font-family="Helvetica,sans-Serif" font-size="10.00" fill="grey"> name</text>
</g>
<!-- Node24 -->
<g id="Node000024" class="node">
<title>Node24</title>
<g id="a_Node000024"><a xlink:href="struct_harlinn_1_1_a_i_1_1_d_m_l_1_1_x_1_1_internal_1_1_constant_node.html" target="_top" xlink:title=" ">
<polygon fill="white" stroke="#666666" points="1152,-477 1030,-477 1030,-447 1152,-447 1152,-477"/>
<text text-anchor="start" x="1038" y="-465" font-family="Helvetica,sans-Serif" font-size="10.00">Harlinn::AI::DML::X</text>
<text text-anchor="middle" x="1091" y="-454" font-family="Helvetica,sans-Serif" font-size="10.00">::Internal::ConstantNode</text>
</a>
</g>
</g>
<!-- Node19&#45;&gt;Node24 -->
<g id="edge33_Node000024_Node000019" class="edge">
<title>Node19&#45;&gt;Node24</title>
<g id="a_edge33_Node000024_Node000019"><a xlink:title=" ">
<path fill="none" stroke="#9a32cd" stroke-dasharray="5,2" d="M843.18,-550.15C852.11,-545.69 861.01,-540.03 868,-533 881.18,-519.75 871.06,-506.23 886,-495 887.46,-493.9 970.02,-480.78 1029.65,-471.42"/>
<polygon fill="#9a32cd" stroke="#9a32cd" points="841.83,-546.91 834.16,-554.22 844.71,-553.29 841.83,-546.91"/>
</a>
</g>
<text text-anchor="middle" x="949" y="-498" font-family="Helvetica,sans-Serif" font-size="10.00" fill="grey"> name</text>
</g>
<!-- Node20 -->
<g id="Node000020" class="node">
<title>Node20</title>
<g id="a_Node000020"><a xlink:title=" ">
<polygon fill="white" stroke="#666666" points="564.5,-579 469.5,-579 469.5,-549 564.5,-549 564.5,-579"/>
<text text-anchor="start" x="477.5" y="-567" font-family="Helvetica,sans-Serif" font-size="10.00">std::basic_string&lt;</text>
<text text-anchor="middle" x="517" y="-556" font-family="Helvetica,sans-Serif" font-size="10.00"> Char &gt;</text>
</a>
</g>
</g>
<!-- Node20&#45;&gt;Node19 -->
<g id="edge22_Node000019_Node000020" class="edge">
<title>Node20&#45;&gt;Node19</title>
<g id="a_edge22_Node000019_Node000020"><a xlink:title=" ">
<path fill="none" stroke="#63b8ff" d="M576.29,-564C635.84,-564 725.89,-564 772,-564"/>
<polygon fill="#63b8ff" stroke="#63b8ff" points="576.33,-560.5 566.33,-564 576.33,-567.5 576.33,-560.5"/>
</a>
</g>
</g>
<!-- Node21&#45;&gt;Node4 -->
<g id="edge24_Node000004_Node000021" class="edge">
<title>Node21&#45;&gt;Node4</title>
<g id="a_edge24_Node000004_Node000021"><a xlink:title=" ">
<path fill="none" stroke="#9a32cd" stroke-dasharray="5,2" d="M1156.03,-214.96C1243.41,-210.78 1402.87,-212.9 1523,-270 1550.57,-283.1 1574.25,-310.45 1587.28,-327.7"/>
<polygon fill="#9a32cd" stroke="#9a32cd" points="1156.02,-211.46 1146.22,-215.48 1156.39,-218.45 1156.02,-211.46"/>
</a>
</g>
<text text-anchor="middle" x="1369.5" y="-237" font-family="Helvetica,sans-Serif" font-size="10.00" fill="grey"> m_reinterpretNodes</text>
</g>
<!-- Node22&#45;&gt;Node21 -->
<g id="edge25_Node000021_Node000022" class="edge">
<title>Node22&#45;&gt;Node21</title>
<g id="a_edge25_Node000021_Node000022"><a xlink:title=" ">
<path fill="none" stroke="#9a32cd" stroke-dasharray="5,2" d="M879.14,-175.01C918.97,-179.04 968.46,-185.4 1012,-195 1020.19,-196.81 1028.75,-199.11 1037.07,-201.58"/>
<polygon fill="#9a32cd" stroke="#9a32cd" points="879.7,-171.55 869.41,-174.06 879.02,-178.52 879.7,-171.55"/>
</a>
</g>
<text text-anchor="middle" x="949" y="-198" font-family="Helvetica,sans-Serif" font-size="10.00" fill="grey"> elements</text>
</g>
<!-- Node23&#45;&gt;Node4 -->
<g id="edge28_Node000004_Node000023" class="edge">
<title>Node23&#45;&gt;Node4</title>
<g id="a_edge28_Node000004_Node000023"><a xlink:title=" ">
<path fill="none" stroke="#9a32cd" stroke-dasharray="5,2" d="M1434.3,-363.87C1467.73,-359.61 1508.33,-354.43 1540.74,-350.3"/>
<polygon fill="#9a32cd" stroke="#9a32cd" points="1434.24,-360.35 1424.77,-365.08 1435.13,-367.29 1434.24,-360.35"/>
</a>
</g>
<text text-anchor="middle" x="1482" y="-365" font-family="Helvetica,sans-Serif" font-size="10.00" fill="grey"> m_constantNodes</text>
</g>
<!-- Node24&#45;&gt;Node23 -->
<g id="edge29_Node000023_Node000024" class="edge">
<title>Node24&#45;&gt;Node23</title>
<g id="a_edge29_Node000023_Node000024"><a xlink:title=" ">
<path fill="none" stroke="#9a32cd" stroke-dasharray="5,2" d="M1150.28,-443.03C1199.26,-427.09 1268.64,-404.5 1315.94,-389.11"/>
<polygon fill="#9a32cd" stroke="#9a32cd" points="1149.4,-439.64 1140.97,-446.06 1151.56,-446.29 1149.4,-439.64"/>
</a>
</g>
<text text-anchor="middle" x="1234" y="-438" font-family="Helvetica,sans-Serif" font-size="10.00" fill="grey"> elements</text>
</g>
<!-- Node25 -->
<g id="Node000025" class="node">
<title>Node25</title>
<g id="a_Node000025"><a xlink:title=" ">
<polygon fill="white" stroke="#666666" points="863.5,-523.5 741.5,-523.5 741.5,-504.5 863.5,-504.5 863.5,-523.5"/>
<text text-anchor="middle" x="802.5" y="-511.5" font-family="Helvetica,sans-Serif" font-size="10.00">std::span&lt; const Byte &gt;</text>
</a>
</g>
</g>
<!-- Node25&#45;&gt;Node24 -->
<g id="edge30_Node000024_Node000025" class="edge">
<title>Node25&#45;&gt;Node24</title>
<g id="a_edge30_Node000024_Node000025"><a xlink:title=" ">
<path fill="none" stroke="#9a32cd" stroke-dasharray="5,2" d="M864.42,-498.61C865.65,-497.79 866.85,-496.92 868,-496 881.08,-485.6 871.65,-471.56 886,-463 929.03,-437.31 986.82,-439.72 1029.9,-447.01"/>
<polygon fill="#9a32cd" stroke="#9a32cd" points="862.79,-495.51 855.7,-503.38 866.16,-501.65 862.79,-495.51"/>
</a>
</g>
<text text-anchor="middle" x="949" y="-466" font-family="Helvetica,sans-Serif" font-size="10.00" fill="grey"> data</text>
</g>
<!-- Node26&#45;&gt;Node25 -->
<g id="edge31_Node000025_Node000026" class="edge">
<title>Node26&#45;&gt;Node25</title>
<g id="a_edge31_Node000025_Node000026"><a xlink:title=" ">
<path fill="none" stroke="orange" stroke-dasharray="5,2" d="M568.24,-479.01C577.46,-480.74 587.01,-482.48 596,-484 644.7,-492.23 700.13,-500.25 741.14,-505.92"/>
<polygon fill="orange" stroke="orange" points="569.18,-475.62 558.7,-477.18 567.87,-482.5 569.18,-475.62"/>
</a>
</g>
<text text-anchor="middle" x="657.5" y="-505" font-family="Helvetica,sans-Serif" font-size="10.00" fill="grey"> &lt; const Byte &gt;</text>
</g>
<!-- Node27&#45;&gt;Node4 -->
<g id="edge35_Node000004_Node000027" class="edge">
<title>Node27&#45;&gt;Node4</title>
<g id="a_edge35_Node000004_Node000027"><a xlink:title=" ">
<path fill="none" stroke="#9a32cd" stroke-dasharray="5,2" d="M867.43,-109.26C1001.2,-100.55 1315.37,-97.58 1523,-236 1557.73,-259.15 1581.28,-304.3 1591.78,-327.86"/>
<polygon fill="#9a32cd" stroke="#9a32cd" points="867.45,-105.75 857.71,-109.93 867.93,-112.74 867.45,-105.75"/>
</a>
</g>
<text text-anchor="middle" x="1234" y="-144" font-family="Helvetica,sans-Serif" font-size="10.00" fill="grey"> m_nodeOutputs</text>
</g>
<!-- Node28&#45;&gt;Node27 -->
<g id="edge37_Node000027_Node000028" class="edge">
<title>Node28&#45;&gt;Node27</title>
<g id="a_edge37_Node000027_Node000028"><a xlink:title=" ">
<path fill="none" stroke="orange" stroke-dasharray="5,2" d="M571.63,-182.22C622.06,-178.95 693.5,-172.47 719,-161 728.76,-156.61 728.05,-150.87 737,-145 741.85,-141.81 747.1,-138.79 752.43,-135.97"/>
<polygon fill="orange" stroke="orange" points="571.53,-178.72 561.77,-182.83 571.97,-185.7 571.53,-178.72"/>
</a>
</g>
<text text-anchor="start" x="599.5" y="-195" font-family="Helvetica,sans-Serif" font-size="10.00" fill="grey"> &lt; Harlinn::AI::DML</text>
<text text-anchor="middle" x="657.5" y="-184" font-family="Helvetica,sans-Serif" font-size="10.00" fill="grey">::X::Internal::NodeOutput &gt;</text>
</g>
<!-- Node29 -->
<g id="Node000029" class="node">
<title>Node29</title>
<g id="a_Node000029"><a xlink:title=" ">
<polygon fill="white" stroke="#666666" points="1001,-291.5 897,-291.5 897,-272.5 1001,-272.5 1001,-291.5"/>
<text text-anchor="middle" x="949" y="-279.5" font-family="Helvetica,sans-Serif" font-size="10.00">std::stack&lt; size_t &gt;</text>
</a>
</g>
</g>
<!-- Node29&#45;&gt;Node4 -->
<g id="edge40_Node000004_Node000029" class="edge">
<title>Node29&#45;&gt;Node4</title>
<g id="a_edge40_Node000004_Node000029"><a xlink:title=" ">
<path fill="none" stroke="#9a32cd" stroke-dasharray="5,2" d="M1012.44,-276.64C1119.11,-269.31 1342.38,-261.93 1523,-309 1539.19,-313.22 1556.24,-320.68 1569.99,-327.54"/>
<polygon fill="#9a32cd" stroke="#9a32cd" points="1012.49,-273.13 1002.77,-277.33 1012.99,-280.11 1012.49,-273.13"/>
</a>
</g>
<text text-anchor="middle" x="1234" y="-278" font-family="Helvetica,sans-Serif" font-size="10.00" fill="grey"> m_nameSubLengths</text>
</g>
<!-- Node30&#45;&gt;Node29 -->
<g id="edge41_Node000029_Node000030" class="edge">
<title>Node30&#45;&gt;Node29</title>
<g id="a_edge41_Node000029_Node000030"><a xlink:title=" ">
<path fill="none" stroke="orange" stroke-dasharray="5,2" d="M570.09,-233.71C614.43,-240.2 679.85,-249.57 737,-257 791.5,-264.09 854.04,-271.39 896.8,-276.26"/>
<polygon fill="orange" stroke="orange" points="570.63,-230.25 560.23,-232.27 569.61,-237.18 570.63,-230.25"/>
</a>
</g>
<text text-anchor="middle" x="657.5" y="-257" font-family="Helvetica,sans-Serif" font-size="10.00" fill="grey"> &lt; size_t &gt;</text>
</g>
<!-- Node31 -->
<g id="Node000031" class="node">
<title>Node31</title>
<g id="a_Node000031"><a xlink:href="struct_harlinn_1_1_a_i_1_1_d_m_l_1_1_x_1_1_internal_1_1_node_i_d.html" target="_top" xlink:title=" ">
<polygon fill="white" stroke="#666666" points="350.5,-151 251.5,-151 251.5,-121 350.5,-121 350.5,-151"/>
<text text-anchor="start" x="259.5" y="-139" font-family="Helvetica,sans-Serif" font-size="10.00">Harlinn::AI::DML::X</text>
<text text-anchor="middle" x="301" y="-128" font-family="Helvetica,sans-Serif" font-size="10.00">::Internal::NodeID</text>
</a>
</g>
</g>
<!-- Node31&#45;&gt;Node3 -->
<g id="edge43_Node000003_Node000031" class="edge">
<title>Node31&#45;&gt;Node3</title>
<g id="a_edge43_Node000003_Node000031"><a xlink:title=" ">
<path fill="none" stroke="#9a32cd" stroke-dasharray="5,2" d="M361.9,-130.12C392.84,-127.09 430.33,-123.41 460.59,-120.44"/>
<polygon fill="#9a32cd" stroke="#9a32cd" points="361.94,-126.6 352.33,-131.06 362.63,-133.57 361.94,-126.6"/>
</a>
</g>
<text text-anchor="middle" x="409" y="-131" font-family="Helvetica,sans-Serif" font-size="10.00" fill="grey"> node_</text>
</g>
<!-- Node32 -->
<g id="Node000032" class="node">
<title>Node32</title>
<g id="a_Node000032"><a xlink:href="struct_harlinn_1_1_a_i_1_1_d_m_l_1_1_x_1_1_tensor_desc.html" target="_top" xlink:title=" ">
<polygon fill="white" stroke="#666666" points="350.5,-103 251.5,-103 251.5,-73 350.5,-73 350.5,-103"/>
<text text-anchor="start" x="259.5" y="-91" font-family="Helvetica,sans-Serif" font-size="10.00">Harlinn::AI::DML::X</text>
<text text-anchor="middle" x="301" y="-80" font-family="Helvetica,sans-Serif" font-size="10.00">::TensorDesc</text>
</a>
</g>
</g>
<!-- Node32&#45;&gt;Node3 -->
<g id="edge44_Node000003_Node000032" class="edge">
<title>Node32&#45;&gt;Node3</title>
<g id="a_edge44_Node000003_Node000032"><a xlink:title=" ">
<path fill="none" stroke="#9a32cd" stroke-dasharray="5,2" d="M361.9,-95.56C392.84,-99.46 430.33,-104.19 460.59,-108.01"/>
<polygon fill="#9a32cd" stroke="#9a32cd" points="362.69,-92.13 352.33,-94.35 361.81,-99.07 362.69,-92.13"/>
</a>
</g>
<text text-anchor="middle" x="409" y="-108" font-family="Helvetica,sans-Serif" font-size="10.00" fill="grey"> tensorDesc_</text>
</g>
<!-- Node33 -->
<g id="Node000033" class="node">
<title>Node33</title>
<g id="a_Node000033"><a xlink:href="struct_harlinn_1_1_a_i_1_1_d_m_l_1_1_buffer_tensor_desc.html" target="_top" xlink:title=" ">
<polygon fill="white" stroke="#666666" points="132.5,-82 13.5,-82 13.5,-52 132.5,-52 132.5,-82"/>
<text text-anchor="start" x="21.5" y="-70" font-family="Helvetica,sans-Serif" font-size="10.00">Harlinn::AI::DML::Buffer</text>
<text text-anchor="middle" x="73" y="-59" font-family="Helvetica,sans-Serif" font-size="10.00">TensorDesc</text>
</a>
</g>
</g>
<!-- Node33&#45;&gt;Node32 -->
<g id="edge45_Node000032_Node000033" class="edge">
<title>Node33&#45;&gt;Node32</title>
<g id="a_edge45_Node000032_Node000033"><a xlink:title=" ">
<path fill="none" stroke="#9a32cd" stroke-dasharray="5,2" d="M144.22,-70.7C168.85,-72.27 196.68,-74.36 222,-77 231.52,-77.99 241.67,-79.26 251.39,-80.59"/>
<polygon fill="#9a32cd" stroke="#9a32cd" points="144.49,-67.21 134.29,-70.08 144.06,-74.19 144.49,-67.21"/>
</a>
</g>
<text text-anchor="middle" x="193" y="-80" font-family="Helvetica,sans-Serif" font-size="10.00" fill="grey"> bufferDesc_</text>
</g>
<!-- Node34 -->
<g id="Node000034" class="node">
<title>Node34</title>
<g id="a_Node000034"><a xlink:href="struct_harlinn_1_1_a_i_1_1_d_m_l_1_1_tensor_desc.html" target="_top" xlink:title=" ">
<polygon fill="white" stroke="#666666" points="146,-119.5 0,-119.5 0,-100.5 146,-100.5 146,-119.5"/>
<text text-anchor="middle" x="73" y="-107.5" font-family="Helvetica,sans-Serif" font-size="10.00">Harlinn::AI::DML::TensorDesc</text>
</a>
</g>
</g>
<!-- Node34&#45;&gt;Node32 -->
<g id="edge46_Node000032_Node000034" class="edge">
<title>Node34&#45;&gt;Node32</title>
<g id="a_edge46_Node000032_Node000034"><a xlink:title=" ">
<path fill="none" stroke="#9a32cd" stroke-dasharray="5,2" d="M157.85,-101.84C189.28,-98.78 223.93,-95.4 251.16,-92.75"/>
<polygon fill="#9a32cd" stroke="#9a32cd" points="157.56,-98.35 147.95,-102.8 158.24,-105.32 157.56,-98.35"/>
</a>
</g>
<text text-anchor="middle" x="193" y="-104" font-family="Helvetica,sans-Serif" font-size="10.00" fill="grey"> tensorDesc_</text>
</g>
</g>
</svg>
