<?xml version="1.0" encoding="UTF-8" standalone="no"?>
<!DOCTYPE svg PUBLIC "-//W3C//DTD SVG 1.1//EN"
 "http://www.w3.org/Graphics/SVG/1.1/DTD/svg11.dtd">
<!-- Generated by graphviz version 7.0.1 (20221109.1506)
 -->
<!-- Title: Harlinn::Common::Core::SensorManagerEventSink Pages: 1 -->
<svg width="171pt" height="181pt"
 viewBox="0.00 0.00 171.00 181.00" xmlns="http://www.w3.org/2000/svg" xmlns:xlink="http://www.w3.org/1999/xlink">
<g id="graph0" class="graph" transform="scale(1 1) rotate(0) translate(4 177)">
<title>Harlinn::Common::Core::SensorManagerEventSink</title>
<!-- Node1 -->
<g id="Node000001" class="node">
<title>Node1</title>
<g id="a_Node000001"><a xlink:title=" ">
<polygon fill="#999999" stroke="#666666" points="148.5,-30 14.5,-30 14.5,0 148.5,0 148.5,-30"/>
<text text-anchor="start" x="22.5" y="-18" font-family="Helvetica,sans-Serif" font-size="10.00">Harlinn::Common::Core</text>
<text text-anchor="middle" x="81.5" y="-7" font-family="Helvetica,sans-Serif" font-size="10.00">::SensorManagerEventSink</text>
</a>
</g>
</g>
<!-- Node2 -->
<g id="Node000002" class="node">
<title>Node2</title>
<g id="a_Node000002"><a xlink:href="class_harlinn_1_1_common_1_1_core_1_1_sensor_manager_event_sink_base.html" target="_top" xlink:title=" ">
<polygon fill="white" stroke="#666666" points="160,-96 3,-96 3,-66 160,-66 160,-96"/>
<text text-anchor="start" x="11" y="-84" font-family="Helvetica,sans-Serif" font-size="10.00">Harlinn::Common::Core</text>
<text text-anchor="middle" x="81.5" y="-73" font-family="Helvetica,sans-Serif" font-size="10.00">::SensorManagerEventSinkBase</text>
</a>
</g>
</g>
<!-- Node2&#45;&gt;Node1 -->
<g id="edge1_Node000001_Node000002" class="edge">
<title>Node2&#45;&gt;Node1</title>
<g id="a_edge1_Node000001_Node000002"><a xlink:title=" ">
<path fill="none" stroke="#63b8ff" d="M81.5,-54.39C81.5,-46.13 81.5,-37.28 81.5,-30.16"/>
<polygon fill="#63b8ff" stroke="#63b8ff" points="78,-54.28 81.5,-64.28 85,-54.28 78,-54.28"/>
</a>
</g>
</g>
<!-- Node3 -->
<g id="Node000003" class="node">
<title>Node3</title>
<g id="a_Node000003"><a xlink:title=" ">
<polygon fill="white" stroke="#666666" points="163,-173 0,-173 0,-132 163,-132 163,-173"/>
<text text-anchor="start" x="8" y="-161" font-family="Helvetica,sans-Serif" font-size="10.00">IUnknownImplementation</text>
<text text-anchor="start" x="8" y="-150" font-family="Helvetica,sans-Serif" font-size="10.00">&lt; SensorManagerEventSinkBase,</text>
<text text-anchor="middle" x="81.5" y="-139" font-family="Helvetica,sans-Serif" font-size="10.00"> ISensorManagerEvents &gt;</text>
</a>
</g>
</g>
<!-- Node3&#45;&gt;Node2 -->
<g id="edge2_Node000002_Node000003" class="edge">
<title>Node3&#45;&gt;Node2</title>
<g id="a_edge2_Node000002_Node000003"><a xlink:title=" ">
<path fill="none" stroke="#63b8ff" d="M81.5,-120.38C81.5,-112.04 81.5,-103.43 81.5,-96.47"/>
<polygon fill="#63b8ff" stroke="#63b8ff" points="78,-120.26 81.5,-130.26 85,-120.26 78,-120.26"/>
</a>
</g>
</g>
</g>
</svg>
