<?xml version="1.0" encoding="UTF-8" standalone="no"?>
<!DOCTYPE svg PUBLIC "-//W3C//DTD SVG 1.1//EN"
 "http://www.w3.org/Graphics/SVG/1.1/DTD/svg11.dtd">
<!-- Generated by graphviz version 7.0.1 (20221109.1506)
 -->
<!-- Title: Harlinn::OCI::TimestampBaseBind&lt; handleType, externalType &gt; Pages: 1 -->
<svg width="1280pt" height="73pt"
 viewBox="0.00 0.00 1280.00 73.00" xmlns="http://www.w3.org/2000/svg" xmlns:xlink="http://www.w3.org/1999/xlink">
<g id="graph0" class="graph" transform="scale(1 1) rotate(0) translate(4 69)">
<title>Harlinn::OCI::TimestampBaseBind&lt; handleType, externalType &gt;</title>
<!-- Node1 -->
<g id="Node000001" class="node">
<title>Node1</title>
<g id="a_Node000001"><a xlink:title="TimeStampBaseBind.">
<polygon fill="#999999" stroke="#666666" points="1272,-59.5 1107,-59.5 1107,-29.5 1272,-29.5 1272,-59.5"/>
<text text-anchor="start" x="1115" y="-47.5" font-family="Helvetica,sans-Serif" font-size="10.00">Harlinn::OCI::TimestampBase</text>
<text text-anchor="middle" x="1189.5" y="-36.5" font-family="Helvetica,sans-Serif" font-size="10.00">Bind&lt; handleType, externalType &gt;</text>
</a>
</g>
</g>
<!-- Node2 -->
<g id="Node000002" class="node">
<title>Node2</title>
<g id="a_Node000002"><a xlink:href="class_harlinn_1_1_o_c_i_1_1_descriptor_bind.html" target="_top" xlink:title=" ">
<polygon fill="white" stroke="#666666" points="1070,-65 909,-65 909,-24 1070,-24 1070,-65"/>
<text text-anchor="start" x="917" y="-53" font-family="Helvetica,sans-Serif" font-size="10.00">Harlinn::OCI::Descriptor</text>
<text text-anchor="start" x="917" y="-42" font-family="Helvetica,sans-Serif" font-size="10.00">Bind&lt; OCIDateTime, handleType,</text>
<text text-anchor="middle" x="989.5" y="-31" font-family="Helvetica,sans-Serif" font-size="10.00"> externalType &gt;</text>
</a>
</g>
</g>
<!-- Node2&#45;&gt;Node1 -->
<g id="edge1_Node000001_Node000002" class="edge">
<title>Node2&#45;&gt;Node1</title>
<g id="a_edge1_Node000001_Node000002"><a xlink:title=" ">
<path fill="none" stroke="#63b8ff" d="M1081.72,-44.5C1090.03,-44.5 1098.41,-44.5 1106.62,-44.5"/>
<polygon fill="#63b8ff" stroke="#63b8ff" points="1081.98,-41 1071.98,-44.5 1081.98,-48 1081.98,-41"/>
</a>
</g>
</g>
<!-- Node3 -->
<g id="Node000003" class="node">
<title>Node3</title>
<g id="a_Node000003"><a xlink:href="class_harlinn_1_1_o_c_i_1_1_descriptor_base_bind.html" target="_top" xlink:title="DescriptorBaseBind.">
<polygon fill="white" stroke="#666666" points="570,-59.5 451,-59.5 451,-29.5 570,-29.5 570,-59.5"/>
<text text-anchor="start" x="459" y="-47.5" font-family="Helvetica,sans-Serif" font-size="10.00">Harlinn::OCI::Descriptor</text>
<text text-anchor="middle" x="510.5" y="-36.5" font-family="Helvetica,sans-Serif" font-size="10.00">BaseBind</text>
</a>
</g>
</g>
<!-- Node3&#45;&gt;Node2 -->
<g id="edge2_Node000002_Node000003" class="edge">
<title>Node3&#45;&gt;Node2</title>
<g id="a_edge2_Node000002_Node000003"><a xlink:title=" ">
<path fill="none" stroke="#63b8ff" d="M581.72,-50.11C657.93,-55.36 783.18,-61.56 891,-55.5 896.78,-55.17 902.75,-54.74 908.75,-54.24"/>
<polygon fill="#63b8ff" stroke="#63b8ff" points="582.11,-46.63 571.89,-49.41 581.62,-53.61 582.11,-46.63"/>
</a>
</g>
</g>
<!-- Node7 -->
<g id="Node000007" class="node">
<title>Node7</title>
<g id="a_Node000007"><a xlink:href="class_harlinn_1_1_o_c_i_1_1_descriptor_bind.html" target="_top" xlink:title="DescriptorBind.">
<polygon fill="white" stroke="#666666" points="744,-41 607,-41 607,0 744,0 744,-41"/>
<text text-anchor="start" x="615" y="-29" font-family="Helvetica,sans-Serif" font-size="10.00">Harlinn::OCI::Descriptor</text>
<text text-anchor="start" x="615" y="-18" font-family="Helvetica,sans-Serif" font-size="10.00">Bind&lt; OracleT, handleType,</text>
<text text-anchor="middle" x="675.5" y="-7" font-family="Helvetica,sans-Serif" font-size="10.00"> externalType &gt;</text>
</a>
</g>
</g>
<!-- Node3&#45;&gt;Node7 -->
<g id="edge7_Node000007_Node000003" class="edge">
<title>Node3&#45;&gt;Node7</title>
<g id="a_edge7_Node000007_Node000003"><a xlink:title=" ">
<path fill="none" stroke="#63b8ff" d="M581.54,-34.19C589.85,-32.96 598.32,-31.72 606.6,-30.5"/>
<polygon fill="#63b8ff" stroke="#63b8ff" points="581.23,-30.7 571.84,-35.61 582.25,-37.62 581.23,-30.7"/>
</a>
</g>
</g>
<!-- Node4 -->
<g id="Node000004" class="node">
<title>Node4</title>
<g id="a_Node000004"><a xlink:href="class_harlinn_1_1_o_c_i_1_1_bind.html" target="_top" xlink:title="Bind, base class for binding a single value.">
<polygon fill="white" stroke="#666666" points="414,-54 319,-54 319,-35 414,-35 414,-54"/>
<text text-anchor="middle" x="366.5" y="-42" font-family="Helvetica,sans-Serif" font-size="10.00">Harlinn::OCI::Bind</text>
</a>
</g>
</g>
<!-- Node4&#45;&gt;Node3 -->
<g id="edge3_Node000003_Node000004" class="edge">
<title>Node4&#45;&gt;Node3</title>
<g id="a_edge3_Node000003_Node000004"><a xlink:title=" ">
<path fill="none" stroke="#63b8ff" d="M425.74,-44.5C433.91,-44.5 442.32,-44.5 450.5,-44.5"/>
<polygon fill="#63b8ff" stroke="#63b8ff" points="425.9,-41 415.9,-44.5 425.9,-48 425.9,-41"/>
</a>
</g>
</g>
<!-- Node5 -->
<g id="Node000005" class="node">
<title>Node5</title>
<g id="a_Node000005"><a xlink:href="class_harlinn_1_1_o_c_i_1_1_bind_base.html" target="_top" xlink:title="BindBase, base class for binds.">
<polygon fill="white" stroke="#666666" points="282,-54 165,-54 165,-35 282,-35 282,-54"/>
<text text-anchor="middle" x="223.5" y="-42" font-family="Helvetica,sans-Serif" font-size="10.00">Harlinn::OCI::BindBase</text>
</a>
</g>
</g>
<!-- Node5&#45;&gt;Node4 -->
<g id="edge4_Node000004_Node000005" class="edge">
<title>Node5&#45;&gt;Node4</title>
<g id="a_edge4_Node000004_Node000005"><a xlink:title=" ">
<path fill="none" stroke="#63b8ff" d="M293.48,-44.5C302.07,-44.5 310.68,-44.5 318.82,-44.5"/>
<polygon fill="#63b8ff" stroke="#63b8ff" points="293.77,-41 283.77,-44.5 293.77,-48 293.77,-41"/>
</a>
</g>
</g>
<!-- Node6 -->
<g id="Node000006" class="node">
<title>Node6</title>
<g id="a_Node000006"><a xlink:href="class_harlinn_1_1_o_c_i_1_1_handle_base.html" target="_top" xlink:title="Base class for OCI handle wrappers.">
<polygon fill="white" stroke="#666666" points="128,-54 0,-54 0,-35 128,-35 128,-54"/>
<text text-anchor="middle" x="64" y="-42" font-family="Helvetica,sans-Serif" font-size="10.00">Harlinn::OCI::HandleBase</text>
</a>
</g>
</g>
<!-- Node6&#45;&gt;Node5 -->
<g id="edge5_Node000005_Node000006" class="edge">
<title>Node6&#45;&gt;Node5</title>
<g id="a_edge5_Node000005_Node000006"><a xlink:title=" ">
<path fill="none" stroke="#63b8ff" d="M139.58,-44.5C148.01,-44.5 156.51,-44.5 164.69,-44.5"/>
<polygon fill="#63b8ff" stroke="#63b8ff" points="139.67,-41 129.67,-44.5 139.67,-48 139.67,-41"/>
</a>
</g>
</g>
<!-- Node7&#45;&gt;Node2 -->
<g id="edge6_Node000002_Node000007" class="edge">
<title>Node7&#45;&gt;Node2</title>
<g id="a_edge6_Node000002_Node000007"><a xlink:title=" ">
<path fill="none" stroke="orange" stroke-dasharray="5,2" d="M755.63,-24.31C796.15,-26.52 846.25,-29.62 891,-33.5 896.77,-34 902.73,-34.56 908.72,-35.16"/>
<polygon fill="orange" stroke="orange" points="755.88,-20.82 745.7,-23.78 755.5,-27.81 755.88,-20.82"/>
</a>
</g>
<text text-anchor="start" x="762" y="-47.5" font-family="Helvetica,sans-Serif" font-size="10.00" fill="grey"> &lt; OCIDateTime, handleType,</text>
<text text-anchor="middle" x="826.5" y="-36.5" font-family="Helvetica,sans-Serif" font-size="10.00" fill="grey"> externalType &gt;</text>
</g>
</g>
</svg>
