<?xml version="1.0" encoding="UTF-8" standalone="no"?>
<!DOCTYPE svg PUBLIC "-//W3C//DTD SVG 1.1//EN"
 "http://www.w3.org/Graphics/SVG/1.1/DTD/svg11.dtd">
<!-- Generated by graphviz version 7.0.1 (20221109.1506)
 -->
<!-- Title: Harlinn::Common::Core::Data::DeleteClearTimeseriesRangeData&lt; TKind &gt; Pages: 1 -->
<svg width="160pt" height="203pt"
 viewBox="0.00 0.00 160.00 203.00" xmlns="http://www.w3.org/2000/svg" xmlns:xlink="http://www.w3.org/1999/xlink">
<g id="graph0" class="graph" transform="scale(1 1) rotate(0) translate(4 199)">
<title>Harlinn::Common::Core::Data::DeleteClearTimeseriesRangeData&lt; TKind &gt;</title>
<!-- Node1 -->
<g id="Node000001" class="node">
<title>Node1</title>
<g id="a_Node000001"><a xlink:title=" ">
<polygon fill="#999999" stroke="#666666" points="149,-41 3,-41 3,0 149,0 149,-41"/>
<text text-anchor="start" x="11" y="-29" font-family="Helvetica,sans-Serif" font-size="10.00">Harlinn::Common::Core</text>
<text text-anchor="start" x="11" y="-18" font-family="Helvetica,sans-Serif" font-size="10.00">::Data::DeleteClearTimeseries</text>
<text text-anchor="middle" x="76" y="-7" font-family="Helvetica,sans-Serif" font-size="10.00">RangeData&lt; TKind &gt;</text>
</a>
</g>
</g>
<!-- Node2 -->
<g id="Node000002" class="node">
<title>Node2</title>
<g id="a_Node000002"><a xlink:href="class_harlinn_1_1_common_1_1_core_1_1_data_1_1_delete_timeseries_range_data.xhtml" target="_top" xlink:title=" ">
<polygon fill="white" stroke="#666666" points="152,-118 0,-118 0,-77 152,-77 152,-118"/>
<text text-anchor="start" x="8" y="-106" font-family="Helvetica,sans-Serif" font-size="10.00">Harlinn::Common::Core</text>
<text text-anchor="start" x="8" y="-95" font-family="Helvetica,sans-Serif" font-size="10.00">::Data::DeleteTimeseriesRange</text>
<text text-anchor="middle" x="76" y="-84" font-family="Helvetica,sans-Serif" font-size="10.00">Data&lt; TKind &gt;</text>
</a>
</g>
</g>
<!-- Node2&#45;&gt;Node1 -->
<g id="edge1_Node000001_Node000002" class="edge">
<title>Node2&#45;&gt;Node1</title>
<g id="a_edge1_Node000001_Node000002"><a xlink:title=" ">
<path fill="none" stroke="#63b8ff" d="M76,-65.36C76,-57.24 76,-48.7 76,-41.33"/>
<polygon fill="#63b8ff" stroke="#63b8ff" points="72.5,-65.28 76,-75.28 79.5,-65.28 72.5,-65.28"/>
</a>
</g>
</g>
<!-- Node3 -->
<g id="Node000003" class="node">
<title>Node3</title>
<g id="a_Node000003"><a xlink:title=" ">
<polygon fill="white" stroke="#666666" points="149,-195 3,-195 3,-154 149,-154 149,-195"/>
<text text-anchor="start" x="11" y="-183" font-family="Helvetica,sans-Serif" font-size="10.00">std::enable_shared</text>
<text text-anchor="start" x="11" y="-172" font-family="Helvetica,sans-Serif" font-size="10.00">_from_this&lt; DeleteTimeseries</text>
<text text-anchor="middle" x="76" y="-161" font-family="Helvetica,sans-Serif" font-size="10.00">RangeData&lt; TKind &gt; &gt;</text>
</a>
</g>
</g>
<!-- Node3&#45;&gt;Node2 -->
<g id="edge2_Node000002_Node000003" class="edge">
<title>Node3&#45;&gt;Node2</title>
<g id="a_edge2_Node000002_Node000003"><a xlink:title=" ">
<path fill="none" stroke="#63b8ff" d="M76,-142.36C76,-134.24 76,-125.7 76,-118.33"/>
<polygon fill="#63b8ff" stroke="#63b8ff" points="72.5,-142.28 76,-152.28 79.5,-142.28 72.5,-142.28"/>
</a>
</g>
</g>
</g>
</svg>
