<?xml version="1.0" encoding="UTF-8" standalone="no"?>
<!DOCTYPE svg PUBLIC "-//W3C//DTD SVG 1.1//EN"
 "http://www.w3.org/Graphics/SVG/1.1/DTD/svg11.dtd">
<!-- Generated by graphviz version 7.0.1 (20221109.1506)
 -->
<!-- Title: Harlinn::Common::Core::Doxygen::ListOfAllMembersType Pages: 1 -->
<svg width="968pt" height="98pt"
 viewBox="0.00 0.00 968.00 97.50" xmlns="http://www.w3.org/2000/svg" xmlns:xlink="http://www.w3.org/1999/xlink">
<g id="graph0" class="graph" transform="scale(1 1) rotate(0) translate(4 93.5)">
<title>Harlinn::Common::Core::Doxygen::ListOfAllMembersType</title>
<!-- Node1 -->
<g id="Node000001" class="node">
<title>Node1</title>
<g id="a_Node000001"><a xlink:title=" ">
<polygon fill="#999999" stroke="#666666" points="960,-36.5 795,-36.5 795,-6.5 960,-6.5 960,-36.5"/>
<text text-anchor="start" x="803" y="-24.5" font-family="Helvetica,sans-Serif" font-size="10.00">Harlinn::Common::Core</text>
<text text-anchor="middle" x="877.5" y="-13.5" font-family="Helvetica,sans-Serif" font-size="10.00">::Doxygen::ListOfAllMembersType</text>
</a>
</g>
</g>
<!-- Node2 -->
<g id="Node000002" class="node">
<title>Node2</title>
<g id="a_Node000002"><a xlink:href="class_harlinn_1_1_common_1_1_core_1_1_doxygen_1_1_internal_1_1_doc_base.xhtml" target="_top" xlink:title=" ">
<polygon fill="white" stroke="#666666" points="758,-89.5 610,-89.5 610,-37.5 758,-37.5 758,-89.5"/>
<text text-anchor="start" x="618" y="-77.5" font-family="Helvetica,sans-Serif" font-size="10.00">Harlinn::Common::Core</text>
<text text-anchor="start" x="618" y="-66.5" font-family="Helvetica,sans-Serif" font-size="10.00">::Doxygen::Internal::</text>
<text text-anchor="start" x="618" y="-55.5" font-family="Helvetica,sans-Serif" font-size="10.00">DocBase&lt; Doxygen::DoxType</text>
<text text-anchor="middle" x="684" y="-44.5" font-family="Helvetica,sans-Serif" font-size="10.00">::ListOfAllMembersType &gt;</text>
</a>
</g>
</g>
<!-- Node2&#45;&gt;Node1 -->
<g id="edge1_Node000001_Node000002" class="edge">
<title>Node2&#45;&gt;Node1</title>
<g id="a_edge1_Node000001_Node000002"><a xlink:title=" ">
<path fill="none" stroke="#63b8ff" d="M769.58,-44.95C781.76,-42.28 794.18,-39.55 806.04,-36.95"/>
<polygon fill="#63b8ff" stroke="#63b8ff" points="768.99,-41.5 759.97,-47.06 770.49,-48.33 768.99,-41.5"/>
</a>
</g>
</g>
<!-- Node3 -->
<g id="Node000003" class="node">
<title>Node3</title>
<g id="a_Node000003"><a xlink:href="class_harlinn_1_1_common_1_1_core_1_1_doxygen_1_1_doc_base_type.xhtml" target="_top" xlink:title=" ">
<polygon fill="white" stroke="#666666" points="305,-74.5 177,-74.5 177,-44.5 305,-44.5 305,-74.5"/>
<text text-anchor="start" x="185" y="-62.5" font-family="Helvetica,sans-Serif" font-size="10.00">Harlinn::Common::Core</text>
<text text-anchor="middle" x="241" y="-51.5" font-family="Helvetica,sans-Serif" font-size="10.00">::Doxygen::DocBaseType</text>
</a>
</g>
</g>
<!-- Node3&#45;&gt;Node2 -->
<g id="edge2_Node000002_Node000003" class="edge">
<title>Node3&#45;&gt;Node2</title>
<g id="a_edge2_Node000002_Node000003"><a xlink:title=" ">
<path fill="none" stroke="#63b8ff" d="M316.71,-64.87C387.58,-69.24 497.05,-74.15 592,-70.5 597.7,-70.28 603.6,-69.99 609.52,-69.64"/>
<polygon fill="#63b8ff" stroke="#63b8ff" points="316.95,-61.37 306.75,-64.24 316.51,-68.36 316.95,-61.37"/>
</a>
</g>
</g>
<!-- Node5 -->
<g id="Node000005" class="node">
<title>Node5</title>
<g id="a_Node000005"><a xlink:href="class_harlinn_1_1_common_1_1_core_1_1_doxygen_1_1_internal_1_1_doc_base.xhtml" target="_top" xlink:title=" ">
<polygon fill="white" stroke="#666666" points="460,-56 342,-56 342,-15 460,-15 460,-56"/>
<text text-anchor="start" x="350" y="-44" font-family="Helvetica,sans-Serif" font-size="10.00">Harlinn::Common::Core</text>
<text text-anchor="start" x="350" y="-33" font-family="Helvetica,sans-Serif" font-size="10.00">::Doxygen::Internal::</text>
<text text-anchor="middle" x="401" y="-22" font-family="Helvetica,sans-Serif" font-size="10.00">DocBase&lt; doxType &gt;</text>
</a>
</g>
</g>
<!-- Node3&#45;&gt;Node5 -->
<g id="edge5_Node000005_Node000003" class="edge">
<title>Node3&#45;&gt;Node5</title>
<g id="a_edge5_Node000005_Node000003"><a xlink:title=" ">
<path fill="none" stroke="#63b8ff" d="M316.73,-48.15C325.13,-46.87 333.6,-45.59 341.75,-44.35"/>
<polygon fill="#63b8ff" stroke="#63b8ff" points="316.21,-44.69 306.85,-49.65 317.26,-51.61 316.21,-44.69"/>
</a>
</g>
</g>
<!-- Node4 -->
<g id="Node000004" class="node">
<title>Node4</title>
<g id="a_Node000004"><a xlink:title=" ">
<polygon fill="white" stroke="#666666" points="140,-74.5 0,-74.5 0,-44.5 140,-44.5 140,-74.5"/>
<text text-anchor="start" x="8" y="-62.5" font-family="Helvetica,sans-Serif" font-size="10.00">std::enable_shared</text>
<text text-anchor="middle" x="70" y="-51.5" font-family="Helvetica,sans-Serif" font-size="10.00">_from_this&lt; DocBaseType &gt;</text>
</a>
</g>
</g>
<!-- Node4&#45;&gt;Node3 -->
<g id="edge3_Node000003_Node000004" class="edge">
<title>Node4&#45;&gt;Node3</title>
<g id="a_edge3_Node000003_Node000004"><a xlink:title=" ">
<path fill="none" stroke="#8b1a1a" d="M151.6,-59.5C159.99,-59.5 168.43,-59.5 176.59,-59.5"/>
<polygon fill="#8b1a1a" stroke="#8b1a1a" points="151.74,-56 141.74,-59.5 151.74,-63 151.74,-56"/>
</a>
</g>
</g>
<!-- Node5&#45;&gt;Node2 -->
<g id="edge4_Node000002_Node000005" class="edge">
<title>Node5&#45;&gt;Node2</title>
<g id="a_edge4_Node000002_Node000005"><a xlink:title=" ">
<path fill="none" stroke="orange" stroke-dasharray="5,2" d="M471.71,-38.68C507.71,-40.72 552.29,-43.88 592,-48.5 597.73,-49.17 603.64,-49.94 609.58,-50.78"/>
<polygon fill="orange" stroke="orange" points="472.03,-35.19 461.85,-38.14 471.65,-42.18 472.03,-35.19"/>
</a>
</g>
<text text-anchor="start" x="478" y="-62.5" font-family="Helvetica,sans-Serif" font-size="10.00" fill="grey"> &lt; Doxygen::DoxType</text>
<text text-anchor="middle" x="535" y="-51.5" font-family="Helvetica,sans-Serif" font-size="10.00" fill="grey">::ListOfAllMembersType &gt;</text>
</g>
<!-- Node6 -->
<g id="Node000006" class="node">
<title>Node6</title>
<g id="a_Node000006"><a xlink:title=" ">
<polygon fill="white" stroke="#666666" points="726.5,-19 641.5,-19 641.5,0 726.5,0 726.5,-19"/>
<text text-anchor="middle" x="684" y="-7" font-family="Helvetica,sans-Serif" font-size="10.00">std::vector&lt; T &gt;</text>
</a>
</g>
</g>
<!-- Node6&#45;&gt;Node1 -->
<g id="edge6_Node000001_Node000006" class="edge">
<title>Node6&#45;&gt;Node1</title>
<g id="a_edge6_Node000001_Node000006"><a xlink:title=" ">
<path fill="none" stroke="#63b8ff" d="M738.02,-12.82C755.62,-13.93 775.63,-15.18 794.87,-16.39"/>
<polygon fill="#63b8ff" stroke="#63b8ff" points="738.26,-9.33 728.06,-12.2 737.82,-16.32 738.26,-9.33"/>
</a>
</g>
</g>
</g>
</svg>
