<?xml version="1.0" encoding="UTF-8" standalone="no"?>
<!DOCTYPE svg PUBLIC "-//W3C//DTD SVG 1.1//EN"
 "http://www.w3.org/Graphics/SVG/1.1/DTD/svg11.dtd">
<!-- Generated by graphviz version 7.0.1 (20221109.1506)
 -->
<!-- Title: Harlinn::Windows::FileDialogEventsImplementation Pages: 1 -->
<svg width="742pt" height="92pt"
 viewBox="0.00 0.00 742.00 91.50" xmlns="http://www.w3.org/2000/svg" xmlns:xlink="http://www.w3.org/1999/xlink">
<g id="graph0" class="graph" transform="scale(1 1) rotate(0) translate(4 87.5)">
<title>Harlinn::Windows::FileDialogEventsImplementation</title>
<!-- Node1 -->
<g id="Node000001" class="node">
<title>Node1</title>
<g id="a_Node000001"><a xlink:title=" ">
<polygon fill="#999999" stroke="#666666" points="734,-54 593,-54 593,-24 734,-24 734,-54"/>
<text text-anchor="start" x="601" y="-42" font-family="Helvetica,sans-Serif" font-size="10.00">Harlinn::Windows::FileDialog</text>
<text text-anchor="middle" x="663.5" y="-31" font-family="Helvetica,sans-Serif" font-size="10.00">EventsImplementation</text>
</a>
</g>
</g>
<!-- Node2 -->
<g id="Node000002" class="node">
<title>Node2</title>
<g id="a_Node000002"><a xlink:title=" ">
<polygon fill="white" stroke="#666666" points="514,-83.5 351,-83.5 351,-42.5 514,-42.5 514,-83.5"/>
<text text-anchor="start" x="359" y="-71.5" font-family="Helvetica,sans-Serif" font-size="10.00">Com::ObjectBase&lt; FileDialog</text>
<text text-anchor="start" x="359" y="-60.5" font-family="Helvetica,sans-Serif" font-size="10.00">EventsImplementation, IFileDialog</text>
<text text-anchor="middle" x="432.5" y="-49.5" font-family="Helvetica,sans-Serif" font-size="10.00">Events &gt;</text>
</a>
</g>
</g>
<!-- Node2&#45;&gt;Node1 -->
<g id="edge1_Node000001_Node000002" class="edge">
<title>Node2&#45;&gt;Node1</title>
<g id="a_edge1_Node000001_Node000002"><a xlink:title=" ">
<path fill="none" stroke="#63b8ff" d="M525.49,-53.36C547.92,-51.01 571.55,-48.53 592.75,-46.31"/>
<polygon fill="#63b8ff" stroke="#63b8ff" points="525.32,-49.86 515.74,-54.38 526.05,-56.82 525.32,-49.86"/>
</a>
</g>
</g>
<!-- Node3 -->
<g id="Node000003" class="node">
<title>Node3</title>
<g id="a_Node000003"><a xlink:href="class_harlinn_1_1_windows_1_1_file_dialog.html" target="_top" xlink:title=" ">
<polygon fill="white" stroke="#666666" points="503,-24.5 362,-24.5 362,-5.5 503,-5.5 503,-24.5"/>
<text text-anchor="middle" x="432.5" y="-12.5" font-family="Helvetica,sans-Serif" font-size="10.00">Harlinn::Windows::FileDialog</text>
</a>
</g>
</g>
<!-- Node3&#45;&gt;Node1 -->
<g id="edge2_Node000001_Node000003" class="edge">
<title>Node3&#45;&gt;Node1</title>
<g id="a_edge2_Node000001_Node000003"><a xlink:title=" ">
<path fill="none" stroke="#9a32cd" stroke-dasharray="5,2" d="M514.58,-23.5C540.06,-26.17 567.95,-29.09 592.58,-31.67"/>
<polygon fill="#9a32cd" stroke="#9a32cd" points="515.27,-20.05 504.96,-22.49 514.54,-27.01 515.27,-20.05"/>
</a>
</g>
<text text-anchor="middle" x="553.5" y="-32" font-family="Helvetica,sans-Serif" font-size="10.00" fill="grey"> fileDialog</text>
</g>
<!-- Node4 -->
<g id="Node000004" class="node">
<title>Node4</title>
<g id="a_Node000004"><a xlink:href="class_harlinn_1_1_windows_1_1_modal_window.html" target="_top" xlink:title=" ">
<polygon fill="white" stroke="#666666" points="314,-24.5 155,-24.5 155,-5.5 314,-5.5 314,-24.5"/>
<text text-anchor="middle" x="234.5" y="-12.5" font-family="Helvetica,sans-Serif" font-size="10.00">Harlinn::Windows::ModalWindow</text>
</a>
</g>
</g>
<!-- Node4&#45;&gt;Node3 -->
<g id="edge3_Node000003_Node000004" class="edge">
<title>Node4&#45;&gt;Node3</title>
<g id="a_edge3_Node000003_Node000004"><a xlink:title=" ">
<path fill="none" stroke="#63b8ff" d="M325.83,-15C337.85,-15 350.03,-15 361.63,-15"/>
<polygon fill="#63b8ff" stroke="#63b8ff" points="325.89,-11.5 315.89,-15 325.89,-18.5 325.89,-11.5"/>
</a>
</g>
</g>
<!-- Node5 -->
<g id="Node000005" class="node">
<title>Node5</title>
<g id="a_Node000005"><a xlink:href="class_harlinn_1_1_common_1_1_core_1_1_unknown.html" target="_top" xlink:title="Base class for COM interface wrappers.">
<polygon fill="white" stroke="#666666" points="118,-30 0,-30 0,0 118,0 118,-30"/>
<text text-anchor="start" x="8" y="-18" font-family="Helvetica,sans-Serif" font-size="10.00">Harlinn::Common::Core</text>
<text text-anchor="middle" x="59" y="-7" font-family="Helvetica,sans-Serif" font-size="10.00">::Unknown</text>
</a>
</g>
</g>
<!-- Node5&#45;&gt;Node4 -->
<g id="edge4_Node000004_Node000005" class="edge">
<title>Node5&#45;&gt;Node4</title>
<g id="a_edge4_Node000004_Node000005"><a xlink:title=" ">
<path fill="none" stroke="#63b8ff" d="M129.72,-15C137.95,-15 146.4,-15 154.74,-15"/>
<polygon fill="#63b8ff" stroke="#63b8ff" points="129.77,-11.5 119.77,-15 129.77,-18.5 129.77,-11.5"/>
</a>
</g>
</g>
</g>
</svg>
