<?xml version="1.0" encoding="UTF-8" standalone="no"?>
<!DOCTYPE svg PUBLIC "-//W3C//DTD SVG 1.1//EN"
 "http://www.w3.org/Graphics/SVG/1.1/DTD/svg11.dtd">
<!-- Generated by graphviz version 7.0.1 (20221109.1506)
 -->
<!-- Title: Harlinn::Common::Core::DataSourceColumn Pages: 1 -->
<svg width="758pt" height="64pt"
 viewBox="0.00 0.00 758.00 64.00" xmlns="http://www.w3.org/2000/svg" xmlns:xlink="http://www.w3.org/1999/xlink">
<g id="graph0" class="graph" transform="scale(1 1) rotate(0) translate(4 60)">
<title>Harlinn::Common::Core::DataSourceColumn</title>
<!-- Node1 -->
<g id="Node000001" class="node">
<title>Node1</title>
<g id="a_Node000001"><a xlink:title=" ">
<polygon fill="#999999" stroke="#666666" points="750,-56 632,-56 632,-26 750,-26 750,-56"/>
<text text-anchor="start" x="640" y="-44" font-family="Helvetica,sans-Serif" font-size="10.00">Harlinn::Common::Core</text>
<text text-anchor="middle" x="691" y="-33" font-family="Helvetica,sans-Serif" font-size="10.00">::DataSourceColumn</text>
</a>
</g>
</g>
<!-- Node2 -->
<g id="Node000002" class="node">
<title>Node2</title>
<g id="a_Node000002"><a xlink:href="class_harlinn_1_1_common_1_1_core_1_1_observable.xhtml" target="_top" xlink:title=" ">
<polygon fill="white" stroke="#666666" points="595,-56 422,-56 422,-26 595,-26 595,-56"/>
<text text-anchor="start" x="430" y="-44" font-family="Helvetica,sans-Serif" font-size="10.00">Harlinn::Common::Core</text>
<text text-anchor="middle" x="508.5" y="-33" font-family="Helvetica,sans-Serif" font-size="10.00">::Observable&lt; DataSourceColumn &gt;</text>
</a>
</g>
</g>
<!-- Node2&#45;&gt;Node1 -->
<g id="edge1_Node000001_Node000002" class="edge">
<title>Node2&#45;&gt;Node1</title>
<g id="a_edge1_Node000001_Node000002"><a xlink:title=" ">
<path fill="none" stroke="#63b8ff" d="M606.49,-41C615.01,-41 623.46,-41 631.52,-41"/>
<polygon fill="#63b8ff" stroke="#63b8ff" points="606.77,-37.5 596.77,-41 606.77,-44.5 606.77,-37.5"/>
</a>
</g>
</g>
<!-- Node3 -->
<g id="Node000003" class="node">
<title>Node3</title>
<g id="a_Node000003"><a xlink:href="class_harlinn_1_1_common_1_1_core_1_1_reference_counted.xhtml" target="_top" xlink:title=" ">
<polygon fill="white" stroke="#666666" points="118,-51 0,-51 0,-21 118,-21 118,-51"/>
<text text-anchor="start" x="8" y="-39" font-family="Helvetica,sans-Serif" font-size="10.00">Harlinn::Common::Core</text>
<text text-anchor="middle" x="59" y="-28" font-family="Helvetica,sans-Serif" font-size="10.00">::ReferenceCounted</text>
</a>
</g>
</g>
<!-- Node3&#45;&gt;Node2 -->
<g id="edge2_Node000002_Node000003" class="edge">
<title>Node3&#45;&gt;Node2</title>
<g id="a_edge2_Node000002_Node000003"><a xlink:title=" ">
<path fill="none" stroke="#63b8ff" d="M129.38,-38.76C131.61,-38.84 133.82,-38.92 136,-39 255.06,-43.19 284.88,-45.73 404,-44 409.75,-43.92 415.68,-43.81 421.66,-43.68"/>
<polygon fill="#63b8ff" stroke="#63b8ff" points="129.73,-35.27 119.6,-38.4 129.47,-42.27 129.73,-35.27"/>
</a>
</g>
</g>
<!-- Node4 -->
<g id="Node000004" class="node">
<title>Node4</title>
<g id="a_Node000004"><a xlink:href="class_harlinn_1_1_common_1_1_core_1_1_observable.xhtml" target="_top" xlink:title=" ">
<polygon fill="white" stroke="#666666" points="280,-30 155,-30 155,0 280,0 280,-30"/>
<text text-anchor="start" x="163" y="-18" font-family="Helvetica,sans-Serif" font-size="10.00">Harlinn::Common::Core</text>
<text text-anchor="middle" x="217.5" y="-7" font-family="Helvetica,sans-Serif" font-size="10.00">::Observable&lt; DerivedT &gt;</text>
</a>
</g>
</g>
<!-- Node3&#45;&gt;Node4 -->
<g id="edge4_Node000004_Node000003" class="edge">
<title>Node3&#45;&gt;Node4</title>
<g id="a_edge4_Node000004_Node000003"><a xlink:title=" ">
<path fill="none" stroke="#63b8ff" d="M129.51,-26.67C137.84,-25.56 146.3,-24.42 154.51,-23.32"/>
<polygon fill="#63b8ff" stroke="#63b8ff" points="129.22,-23.18 119.77,-27.98 130.15,-30.12 129.22,-23.18"/>
</a>
</g>
</g>
<!-- Node4&#45;&gt;Node2 -->
<g id="edge3_Node000002_Node000004" class="edge">
<title>Node4&#45;&gt;Node2</title>
<g id="a_edge3_Node000002_Node000004"><a xlink:title=" ">
<path fill="none" stroke="orange" stroke-dasharray="5,2" d="M291.92,-21.6C331.46,-25.16 380.47,-29.57 421.76,-33.29"/>
<polygon fill="orange" stroke="orange" points="292.28,-18.12 282.01,-20.71 291.65,-25.1 292.28,-18.12"/>
</a>
</g>
<text text-anchor="middle" x="351" y="-34" font-family="Helvetica,sans-Serif" font-size="10.00" fill="grey"> &lt; DataSourceColumn &gt;</text>
</g>
</g>
</svg>
