<?xml version="1.0" encoding="UTF-8" standalone="no"?>
<!DOCTYPE svg PUBLIC "-//W3C//DTD SVG 1.1//EN"
 "http://www.w3.org/Graphics/SVG/1.1/DTD/svg11.dtd">
<!-- Generated by graphviz version 7.0.1 (20221109.1506)
 -->
<!-- Title: Harlinn::OCI::FixedStringArrayDefine&lt; fixedStringSize &gt; Pages: 1 -->
<svg width="2418pt" height="717pt"
 viewBox="0.00 0.00 2418.00 717.00" xmlns="http://www.w3.org/2000/svg" xmlns:xlink="http://www.w3.org/1999/xlink">
<g id="graph0" class="graph" transform="scale(1 1) rotate(0) translate(4 713)">
<title>Harlinn::OCI::FixedStringArrayDefine&lt; fixedStringSize &gt;</title>
<!-- Node1 -->
<g id="Node000001" class="node">
<title>Node1</title>
<g id="a_Node000001"><a xlink:title="FixedStringArrayDefine.">
<polygon fill="#999999" stroke="#666666" points="2404.5,-50 2254.5,-50 2254.5,-20 2404.5,-20 2404.5,-50"/>
<text text-anchor="start" x="2262.5" y="-38" font-family="Helvetica,sans-Serif" font-size="10.00">Harlinn::OCI::FixedString</text>
<text text-anchor="middle" x="2329.5" y="-27" font-family="Helvetica,sans-Serif" font-size="10.00">ArrayDefine&lt; fixedStringSize &gt;</text>
</a>
</g>
</g>
<!-- Node2 -->
<g id="Node000002" class="node">
<title>Node2</title>
<g id="a_Node000002"><a xlink:href="class_harlinn_1_1_o_c_i_1_1_array_define.xhtml" target="_top" xlink:title="ArrayDefine, base class for defines for use with the ArrayDataReader class.">
<polygon fill="white" stroke="#666666" points="2170,-63.5 2045,-63.5 2045,-44.5 2170,-44.5 2170,-63.5"/>
<text text-anchor="middle" x="2107.5" y="-51.5" font-family="Helvetica,sans-Serif" font-size="10.00">Harlinn::OCI::ArrayDefine</text>
</a>
</g>
</g>
<!-- Node2&#45;&gt;Node1 -->
<g id="edge1_Node000001_Node000002" class="edge">
<title>Node2&#45;&gt;Node1</title>
<g id="a_edge1_Node000001_Node000002"><a xlink:title=" ">
<path fill="none" stroke="#63b8ff" d="M2181.6,-47.69C2204.95,-45.67 2230.8,-43.44 2254.22,-41.42"/>
<polygon fill="#63b8ff" stroke="#63b8ff" points="2181.54,-44.18 2171.88,-48.53 2182.14,-51.15 2181.54,-44.18"/>
</a>
</g>
</g>
<!-- Node3 -->
<g id="Node000003" class="node">
<title>Node3</title>
<g id="a_Node000003"><a xlink:href="class_harlinn_1_1_o_c_i_1_1_define_base.xhtml" target="_top" xlink:title="DefineBase, base class for all defines.">
<polygon fill="white" stroke="#666666" points="1887,-153.5 1762,-153.5 1762,-134.5 1887,-134.5 1887,-153.5"/>
<text text-anchor="middle" x="1824.5" y="-141.5" font-family="Helvetica,sans-Serif" font-size="10.00">Harlinn::OCI::DefineBase</text>
</a>
</g>
</g>
<!-- Node3&#45;&gt;Node2 -->
<g id="edge2_Node000002_Node000003" class="edge">
<title>Node3&#45;&gt;Node2</title>
<g id="a_edge2_Node000002_Node000003"><a xlink:title=" ">
<path fill="none" stroke="#63b8ff" d="M1846.73,-127.2C1862.08,-115.87 1883.77,-101.5 1905,-93 1929.89,-83.04 1995.16,-71.31 2044.72,-63.33"/>
<polygon fill="#63b8ff" stroke="#63b8ff" points="1844.68,-124.36 1838.83,-133.19 1848.91,-129.93 1844.68,-124.36"/>
</a>
</g>
</g>
<!-- Node4 -->
<g id="Node000004" class="node">
<title>Node4</title>
<g id="a_Node000004"><a xlink:href="class_harlinn_1_1_o_c_i_1_1_handle_base.xhtml" target="_top" xlink:title="Base class for OCI handle wrappers.">
<polygon fill="white" stroke="#666666" points="483,-453.5 355,-453.5 355,-434.5 483,-434.5 483,-453.5"/>
<text text-anchor="middle" x="419" y="-441.5" font-family="Helvetica,sans-Serif" font-size="10.00">Harlinn::OCI::HandleBase</text>
</a>
</g>
</g>
<!-- Node4&#45;&gt;Node3 -->
<g id="edge3_Node000003_Node000004" class="edge">
<title>Node4&#45;&gt;Node3</title>
<g id="a_edge3_Node000003_Node000004"><a xlink:title=" ">
<path fill="none" stroke="#63b8ff" d="M451.75,-428.61C463.49,-421.29 475.7,-411.4 483,-399 518.65,-338.48 462.23,-300.56 501,-242 556.27,-158.53 596.89,-131 697,-131 697,-131 697,-131 1600,-131 1654.8,-131 1717.04,-134.94 1761.89,-138.49"/>
<polygon fill="#63b8ff" stroke="#63b8ff" points="450.36,-425.38 443.44,-433.4 453.85,-431.44 450.36,-425.38"/>
</a>
</g>
</g>
<!-- Node5 -->
<g id="Node000005" class="node">
<title>Node5</title>
<g id="a_Node000005"><a xlink:href="class_harlinn_1_1_o_c_i_1_1_statement.xhtml" target="_top" xlink:title="Statement, the context that identifies a SQL or PL/SQL statement and its associated attributes.">
<polygon fill="white" stroke="#666666" points="1659,-415.5 1539,-415.5 1539,-396.5 1659,-396.5 1659,-415.5"/>
<text text-anchor="middle" x="1599" y="-403.5" font-family="Helvetica,sans-Serif" font-size="10.00">Harlinn::OCI::Statement</text>
</a>
</g>
</g>
<!-- Node4&#45;&gt;Node5 -->
<g id="edge5_Node000005_Node000004" class="edge">
<title>Node4&#45;&gt;Node5</title>
<g id="a_edge5_Node000005_Node000004"><a xlink:title=" ">
<path fill="none" stroke="#63b8ff" d="M442.58,-460.45C488.21,-492.01 595.71,-558 697,-558 697,-558 697,-558 1361,-558 1466.58,-558 1562.72,-449.79 1590.18,-415.97"/>
<polygon fill="#63b8ff" stroke="#63b8ff" points="444.74,-457.69 434.55,-454.79 440.71,-463.41 444.74,-457.69"/>
</a>
</g>
</g>
<!-- Node6 -->
<g id="Node000006" class="node">
<title>Node6</title>
<g id="a_Node000006"><a xlink:href="class_harlinn_1_1_o_c_i_1_1_service_context.xhtml" target="_top" xlink:title="ServiceContext &#45; A service context handle defines attributes that determine the operational context f...">
<polygon fill="white" stroke="#666666" points="1430,-306.5 1290,-306.5 1290,-287.5 1430,-287.5 1430,-306.5"/>
<text text-anchor="middle" x="1360" y="-294.5" font-family="Helvetica,sans-Serif" font-size="10.00">Harlinn::OCI::ServiceContext</text>
</a>
</g>
</g>
<!-- Node4&#45;&gt;Node6 -->
<g id="edge7_Node000006_Node000004" class="edge">
<title>Node4&#45;&gt;Node6</title>
<g id="a_edge7_Node000006_Node000004"><a xlink:title=" ">
<path fill="none" stroke="#63b8ff" d="M449.6,-458.72C464.62,-465.5 483.38,-472.93 501,-477 558.72,-490.35 574.82,-483.19 634,-486 762.09,-492.09 1096.28,-551.3 1211,-494 1293.66,-452.71 1342.2,-340.85 1355.34,-306.9"/>
<polygon fill="#63b8ff" stroke="#63b8ff" points="451.31,-455.66 440.77,-454.6 448.35,-462 451.31,-455.66"/>
</a>
</g>
</g>
<!-- Node7 -->
<g id="Node000007" class="node">
<title>Node7</title>
<g id="a_Node000007"><a xlink:href="class_harlinn_1_1_o_c_i_1_1_environment.xhtml" target="_top" xlink:title="The environment handle defines a context in which all OCI functions are invoked.">
<polygon fill="white" stroke="#666666" points="762,-352.5 634,-352.5 634,-333.5 762,-333.5 762,-352.5"/>
<text text-anchor="middle" x="698" y="-340.5" font-family="Helvetica,sans-Serif" font-size="10.00">Harlinn::OCI::Environment</text>
</a>
</g>
</g>
<!-- Node4&#45;&gt;Node7 -->
<g id="edge9_Node000007_Node000004" class="edge">
<title>Node4&#45;&gt;Node7</title>
<g id="a_edge9_Node000007_Node000004"><a xlink:title=" ">
<path fill="none" stroke="#63b8ff" d="M441.31,-427.51C457.04,-416.07 479.38,-401.26 501,-392 549.35,-371.28 564.98,-376.82 616,-364 630.09,-360.46 645.53,-356.48 659.12,-352.95"/>
<polygon fill="#63b8ff" stroke="#63b8ff" points="439.58,-424.44 433.65,-433.22 443.76,-430.05 439.58,-424.44"/>
</a>
</g>
</g>
<!-- Node11 -->
<g id="Node000011" class="node">
<title>Node11</title>
<g id="a_Node000011"><a xlink:href="class_harlinn_1_1_o_c_i_1_1_error_handle.xhtml" target="_top" xlink:title="The error handle is passed as a parameter to most OCI calls.">
<polygon fill="white" stroke="#666666" points="985,-321.5 859,-321.5 859,-302.5 985,-302.5 985,-321.5"/>
<text text-anchor="middle" x="922" y="-309.5" font-family="Helvetica,sans-Serif" font-size="10.00">Harlinn::OCI::ErrorHandle</text>
</a>
</g>
</g>
<!-- Node4&#45;&gt;Node11 -->
<g id="edge14_Node000011_Node000004" class="edge">
<title>Node4&#45;&gt;Node11</title>
<g id="a_edge14_Node000011_Node000004"><a xlink:title=" ">
<path fill="none" stroke="#63b8ff" d="M490.07,-431.99C574.53,-416.57 720.16,-386.97 841,-347 862.01,-340.05 885.08,-329.64 901.02,-321.98"/>
<polygon fill="#63b8ff" stroke="#63b8ff" points="489.53,-428.53 480.31,-433.76 490.78,-435.42 489.53,-428.53"/>
</a>
</g>
</g>
<!-- Node12 -->
<g id="Node000012" class="node">
<title>Node12</title>
<g id="a_Node000012"><a xlink:href="class_harlinn_1_1_o_c_i_1_1_server.xhtml" target="_top" xlink:title="A server handle represents a connection between the client application and the Oracle database server...">
<polygon fill="white" stroke="#666666" points="1197.5,-401.5 1095.5,-401.5 1095.5,-382.5 1197.5,-382.5 1197.5,-401.5"/>
<text text-anchor="middle" x="1146.5" y="-389.5" font-family="Helvetica,sans-Serif" font-size="10.00">Harlinn::OCI::Server</text>
</a>
</g>
</g>
<!-- Node4&#45;&gt;Node12 -->
<g id="edge17_Node000012_Node000004" class="edge">
<title>Node4&#45;&gt;Node12</title>
<g id="a_edge17_Node000012_Node000004"><a xlink:title=" ">
<path fill="none" stroke="#63b8ff" d="M494.22,-438.82C530.88,-436.23 575.77,-433.01 616,-430 724.03,-421.92 750.75,-415.23 859,-411 859,-411 1064,-411 1064,-411 1079.59,-409.21 1096.53,-405.55 1110.91,-401.91"/>
<polygon fill="#63b8ff" stroke="#63b8ff" points="494.36,-435.3 484.63,-439.49 494.85,-442.28 494.36,-435.3"/>
</a>
</g>
</g>
<!-- Node13 -->
<g id="Node000013" class="node">
<title>Node13</title>
<g id="a_Node000013"><a xlink:href="class_harlinn_1_1_o_c_i_1_1_session.xhtml" target="_top" xlink:title="Session.">
<polygon fill="white" stroke="#666666" points="1201.5,-208.5 1091.5,-208.5 1091.5,-189.5 1201.5,-189.5 1201.5,-208.5"/>
<text text-anchor="middle" x="1146.5" y="-196.5" font-family="Helvetica,sans-Serif" font-size="10.00">Harlinn::OCI::Session</text>
</a>
</g>
</g>
<!-- Node4&#45;&gt;Node13 -->
<g id="edge21_Node000013_Node000004" class="edge">
<title>Node4&#45;&gt;Node13</title>
<g id="a_edge21_Node000013_Node000004"><a xlink:title=" ">
<path fill="none" stroke="#63b8ff" d="M449.88,-428.37C461.67,-420.89 474.42,-410.94 483,-399 499,-376.74 482.8,-360.51 501,-340 615.39,-211.1 689.02,-219.46 859,-191 938.99,-177.6 1033.27,-184.51 1091.21,-191.3"/>
<polygon fill="#63b8ff" stroke="#63b8ff" points="448.42,-425.17 441.62,-433.29 452,-431.18 448.42,-425.17"/>
</a>
</g>
</g>
<!-- Node14 -->
<g id="Node000014" class="node">
<title>Node14</title>
<g id="a_Node000014"><a xlink:href="class_harlinn_1_1_o_c_i_1_1_subscription.xhtml" target="_top" xlink:title="Subscription.">
<polygon fill="white" stroke="#666666" points="1211,-485.5 1082,-485.5 1082,-466.5 1211,-466.5 1211,-485.5"/>
<text text-anchor="middle" x="1146.5" y="-473.5" font-family="Helvetica,sans-Serif" font-size="10.00">Harlinn::OCI::Subscription</text>
</a>
</g>
</g>
<!-- Node4&#45;&gt;Node14 -->
<g id="edge27_Node000014_Node000004" class="edge">
<title>Node4&#45;&gt;Node14</title>
<g id="a_edge27_Node000014_Node000004"><a xlink:title=" ">
<path fill="none" stroke="#63b8ff" d="M482.18,-455.67C488.52,-456.59 494.88,-457.39 501,-458 712.9,-479.16 965.8,-478.81 1081.73,-477.24"/>
<polygon fill="#63b8ff" stroke="#63b8ff" points="482.75,-452.22 472.33,-454.16 481.68,-459.14 482.75,-452.22"/>
</a>
</g>
</g>
<!-- Node17 -->
<g id="Node000017" class="node">
<title>Node17</title>
<g id="a_Node000017"><a xlink:href="class_harlinn_1_1_o_c_i_1_1_bind_base.xhtml" target="_top" xlink:title="BindBase, base class for binds.">
<polygon fill="white" stroke="#666666" points="1883,-605.5 1766,-605.5 1766,-586.5 1883,-586.5 1883,-605.5"/>
<text text-anchor="middle" x="1824.5" y="-593.5" font-family="Helvetica,sans-Serif" font-size="10.00">Harlinn::OCI::BindBase</text>
</a>
</g>
</g>
<!-- Node4&#45;&gt;Node17 -->
<g id="edge33_Node000017_Node000004" class="edge">
<title>Node4&#45;&gt;Node17</title>
<g id="a_edge33_Node000017_Node000004"><a xlink:title=" ">
<path fill="none" stroke="#63b8ff" d="M432.1,-463.4C446.13,-484.25 471.17,-516.84 501,-535 620.38,-607.68 669.73,-596 809.5,-596 809.5,-596 809.5,-596 1600,-596 1656.26,-596 1720.49,-596 1765.61,-596"/>
<polygon fill="#63b8ff" stroke="#63b8ff" points="435.18,-461.71 426.79,-455.23 429.31,-465.53 435.18,-461.71"/>
</a>
</g>
</g>
<!-- Node5&#45;&gt;Node3 -->
<g id="edge4_Node000003_Node000005" class="edge">
<title>Node5&#45;&gt;Node3</title>
<g id="a_edge4_Node000003_Node000005"><a xlink:title=" ">
<path fill="none" stroke="#9a32cd" stroke-dasharray="5,2" d="M1615.7,-387.59C1659.45,-336.31 1781.66,-193.05 1815,-153.96"/>
<polygon fill="#9a32cd" stroke="#9a32cd" points="1613.3,-385.02 1609.47,-394.9 1618.62,-389.56 1613.3,-385.02"/>
</a>
</g>
<text text-anchor="middle" x="1710.5" y="-317" font-family="Helvetica,sans-Serif" font-size="10.00" fill="grey"> statement_</text>
</g>
<!-- Node5&#45;&gt;Node17 -->
<g id="edge34_Node000017_Node000005" class="edge">
<title>Node5&#45;&gt;Node17</title>
<g id="a_edge34_Node000017_Node000005"><a xlink:title=" ">
<path fill="none" stroke="#9a32cd" stroke-dasharray="5,2" d="M1620.46,-423.4C1666.3,-462.37 1776.02,-555.63 1811.91,-586.15"/>
<polygon fill="#9a32cd" stroke="#9a32cd" points="1622.74,-420.74 1612.85,-416.93 1618.21,-426.07 1622.74,-420.74"/>
</a>
</g>
<text text-anchor="middle" x="1710.5" y="-527" font-family="Helvetica,sans-Serif" font-size="10.00" fill="grey"> statement_</text>
</g>
<!-- Node6&#45;&gt;Node5 -->
<g id="edge6_Node000005_Node000006" class="edge">
<title>Node6&#45;&gt;Node5</title>
<g id="a_edge6_Node000005_Node000006"><a xlink:title=" ">
<path fill="none" stroke="#9a32cd" stroke-dasharray="5,2" d="M1441.36,-303.68C1467.86,-308.28 1496.74,-316.02 1521,-329 1552.34,-345.77 1579.17,-379.44 1591.22,-396.14"/>
<polygon fill="#9a32cd" stroke="#9a32cd" points="1442.08,-300.25 1431.66,-302.13 1440.98,-307.16 1442.08,-300.25"/>
</a>
</g>
<text text-anchor="middle" x="1484.5" y="-332" font-family="Helvetica,sans-Serif" font-size="10.00" fill="grey"> serviceContext_</text>
</g>
<!-- Node7&#45;&gt;Node6 -->
<g id="edge8_Node000006_Node000007" class="edge">
<title>Node7&#45;&gt;Node6</title>
<g id="a_edge8_Node000006_Node000007"><a xlink:title=" ">
<path fill="none" stroke="#9a32cd" stroke-dasharray="5,2" d="M718.73,-326C734.25,-313.76 757.02,-298.19 780,-291 969.96,-231.55 1212.44,-267.65 1312.56,-287.06"/>
<polygon fill="#9a32cd" stroke="#9a32cd" points="716.76,-323.09 711.24,-332.13 721.19,-328.5 716.76,-323.09"/>
</a>
</g>
<text text-anchor="middle" x="1033.5" y="-262" font-family="Helvetica,sans-Serif" font-size="10.00" fill="grey"> environment_</text>
</g>
<!-- Node7&#45;&gt;Node11 -->
<g id="edge15_Node000011_Node000007" class="edge">
<title>Node7&#45;&gt;Node11</title>
<g id="a_edge15_Node000011_Node000007"><a xlink:title=" ">
<path fill="none" stroke="#9a32cd" stroke-dasharray="5,2" d="M773.54,-332.59C801.21,-328.73 832.29,-324.39 858.75,-320.69"/>
<polygon fill="#9a32cd" stroke="#9a32cd" points="773.24,-329.1 763.82,-333.95 774.21,-336.03 773.24,-329.1"/>
</a>
</g>
<text text-anchor="middle" x="810.5" y="-335" font-family="Helvetica,sans-Serif" font-size="10.00" fill="grey"> environment_</text>
</g>
<!-- Node7&#45;&gt;Node12 -->
<g id="edge18_Node000012_Node000007" class="edge">
<title>Node7&#45;&gt;Node12</title>
<g id="a_edge18_Node000012_Node000007"><a xlink:title=" ">
<path fill="none" stroke="#9a32cd" stroke-dasharray="5,2" d="M773.49,-344.71C845.56,-347.41 949.02,-354.32 985,-372 995.44,-377.13 992.33,-386.37 1003,-391 1031.71,-403.47 1066.84,-403.86 1095.03,-401.06"/>
<polygon fill="#9a32cd" stroke="#9a32cd" points="773.84,-341.22 763.72,-344.37 773.59,-348.22 773.84,-341.22"/>
</a>
</g>
<text text-anchor="middle" x="922" y="-375" font-family="Helvetica,sans-Serif" font-size="10.00" fill="grey"> environment_</text>
</g>
<!-- Node7&#45;&gt;Node13 -->
<g id="edge22_Node000013_Node000007" class="edge">
<title>Node7&#45;&gt;Node13</title>
<g id="a_edge22_Node000013_Node000007"><a xlink:title=" ">
<path fill="none" stroke="#9a32cd" stroke-dasharray="5,2" d="M709.77,-323.41C723.15,-301.08 748.15,-265.3 780,-247 878.5,-190.4 1016.12,-189.21 1091.26,-193.81"/>
<polygon fill="#9a32cd" stroke="#9a32cd" points="706.87,-321.44 704.91,-331.85 712.93,-324.93 706.87,-321.44"/>
</a>
</g>
<text text-anchor="middle" x="922" y="-217" font-family="Helvetica,sans-Serif" font-size="10.00" fill="grey"> environment_</text>
</g>
<!-- Node7&#45;&gt;Node14 -->
<g id="edge28_Node000014_Node000007" class="edge">
<title>Node7&#45;&gt;Node14</title>
<g id="a_edge28_Node000014_Node000007"><a xlink:title=" ">
<path fill="none" stroke="#9a32cd" stroke-dasharray="5,2" d="M743.41,-356.23C832.84,-382.87 1032.83,-442.44 1112.16,-466.07"/>
<polygon fill="#9a32cd" stroke="#9a32cd" points="744.59,-352.93 734.01,-353.43 742.6,-359.64 744.59,-352.93"/>
</a>
</g>
<text text-anchor="middle" x="922" y="-431" font-family="Helvetica,sans-Serif" font-size="10.00" fill="grey"> environment_</text>
</g>
<!-- Node8 -->
<g id="Node000008" class="node">
<title>Node8</title>
<g id="a_Node000008"><a xlink:title=" ">
<polygon fill="white" stroke="#666666" points="483,-390 355,-390 355,-360 483,-360 483,-390"/>
<text text-anchor="start" x="363" y="-378" font-family="Helvetica,sans-Serif" font-size="10.00">std::atomic&lt; Environment</text>
<text text-anchor="middle" x="419" y="-367" font-family="Helvetica,sans-Serif" font-size="10.00">Mode &gt;</text>
</a>
</g>
</g>
<!-- Node8&#45;&gt;Node7 -->
<g id="edge10_Node000007_Node000008" class="edge">
<title>Node8&#45;&gt;Node7</title>
<g id="a_edge10_Node000007_Node000008"><a xlink:title=" ">
<path fill="none" stroke="#9a32cd" stroke-dasharray="5,2" d="M481.24,-356.89C487.87,-355.37 494.55,-354.03 501,-353 544.91,-346 594.98,-343.54 633.53,-342.81"/>
<polygon fill="#9a32cd" stroke="#9a32cd" points="480.55,-353.45 471.66,-359.22 482.21,-360.26 480.55,-353.45"/>
</a>
</g>
<text text-anchor="middle" x="558.5" y="-356" font-family="Helvetica,sans-Serif" font-size="10.00" fill="grey"> defaultEnvironmentMode_</text>
</g>
<!-- Node9 -->
<g id="Node000009" class="node">
<title>Node9</title>
<g id="a_Node000009"><a xlink:title=" ">
<polygon fill="white" stroke="#666666" points="200.5,-493.5 111.5,-493.5 111.5,-474.5 200.5,-474.5 200.5,-493.5"/>
<text text-anchor="middle" x="156" y="-481.5" font-family="Helvetica,sans-Serif" font-size="10.00">std::atomic&lt; T &gt;</text>
</a>
</g>
</g>
<!-- Node9&#45;&gt;Node8 -->
<g id="edge11_Node000008_Node000009" class="edge">
<title>Node9&#45;&gt;Node8</title>
<g id="a_edge11_Node000008_Node000009"><a xlink:title=" ">
<path fill="none" stroke="orange" stroke-dasharray="5,2" d="M191.01,-469.8C240.05,-449.32 330.29,-411.63 380.96,-390.47"/>
<polygon fill="orange" stroke="orange" points="189.9,-466.47 182.02,-473.55 192.6,-472.93 189.9,-466.47"/>
</a>
</g>
<text text-anchor="middle" x="285" y="-455" font-family="Helvetica,sans-Serif" font-size="10.00" fill="grey"> &lt; EnvironmentMode &gt;</text>
</g>
<!-- Node10 -->
<g id="Node000010" class="node">
<title>Node10</title>
<g id="a_Node000010"><a xlink:title=" ">
<polygon fill="white" stroke="#666666" points="29,-536.5 0,-536.5 0,-517.5 29,-517.5 29,-536.5"/>
<text text-anchor="middle" x="14.5" y="-524.5" font-family="Helvetica,sans-Serif" font-size="10.00">T</text>
</a>
</g>
</g>
<!-- Node10&#45;&gt;Node9 -->
<g id="edge12_Node000009_Node000010" class="edge">
<title>Node10&#45;&gt;Node9</title>
<g id="a_edge12_Node000009_Node000010"><a xlink:title=" ">
<path fill="none" stroke="#9a32cd" stroke-dasharray="5,2" d="M40.24,-519.37C63.19,-512.3 97.48,-501.73 122.6,-493.99"/>
<polygon fill="#9a32cd" stroke="#9a32cd" points="39.36,-515.98 30.83,-522.27 41.42,-522.67 39.36,-515.98"/>
</a>
</g>
<text text-anchor="middle" x="63" y="-520" font-family="Helvetica,sans-Serif" font-size="10.00" fill="grey"> ptr</text>
</g>
<!-- Node19 -->
<g id="Node000019" class="node">
<title>Node19</title>
<g id="a_Node000019"><a xlink:href="struct_harlinn_1_1_common_1_1_core_1_1_internal_1_1_data.xhtml" target="_top" xlink:title=" ">
<polygon fill="white" stroke="#666666" points="215,-626 97,-626 97,-596 215,-596 215,-626"/>
<text text-anchor="start" x="105" y="-614" font-family="Helvetica,sans-Serif" font-size="10.00">Harlinn::Common::Core</text>
<text text-anchor="middle" x="156" y="-603" font-family="Helvetica,sans-Serif" font-size="10.00">::Internal::Data&lt; T &gt;</text>
</a>
</g>
</g>
<!-- Node10&#45;&gt;Node19 -->
<g id="edge37_Node000019_Node000010" class="edge">
<title>Node10&#45;&gt;Node19</title>
<g id="a_edge37_Node000019_Node000010"><a xlink:title=" ">
<path fill="none" stroke="#9a32cd" stroke-dasharray="5,2" d="M39.16,-541.25C64.22,-556.34 103.64,-580.08 129.41,-595.59"/>
<polygon fill="#9a32cd" stroke="#9a32cd" points="41.05,-538.3 30.68,-536.14 37.44,-544.3 41.05,-538.3"/>
</a>
</g>
<text text-anchor="middle" x="63" y="-567" font-family="Helvetica,sans-Serif" font-size="10.00" fill="grey"> buffer_</text>
</g>
<!-- Node21 -->
<g id="Node000021" class="node">
<title>Node21</title>
<g id="a_Node000021"><a xlink:title=" ">
<polygon fill="white" stroke="#666666" points="337,-695.5 233,-695.5 233,-676.5 337,-676.5 337,-695.5"/>
<text text-anchor="middle" x="285" y="-683.5" font-family="Helvetica,sans-Serif" font-size="10.00">std::unique_ptr&lt; T &gt;</text>
</a>
</g>
</g>
<!-- Node10&#45;&gt;Node21 -->
<g id="edge41_Node000021_Node000010" class="edge">
<title>Node10&#45;&gt;Node21</title>
<g id="a_edge41_Node000021_Node000010"><a xlink:title=" ">
<path fill="none" stroke="#9a32cd" stroke-dasharray="5,2" d="M24.65,-546.77C37.25,-571.6 62.36,-613.56 97,-635 138.64,-660.76 193.35,-673.72 232.83,-680.1"/>
<polygon fill="#9a32cd" stroke="#9a32cd" points="27.94,-545.52 20.42,-538.06 21.64,-548.58 27.94,-545.52"/>
</a>
</g>
<text text-anchor="middle" x="63" y="-624" font-family="Helvetica,sans-Serif" font-size="10.00" fill="grey"> ptr</text>
</g>
<!-- Node22 -->
<g id="Node000022" class="node">
<title>Node22</title>
<g id="a_Node000022"><a xlink:title=" ">
<polygon fill="white" stroke="#666666" points="1641.5,-81.5 1556.5,-81.5 1556.5,-62.5 1641.5,-62.5 1641.5,-81.5"/>
<text text-anchor="middle" x="1599" y="-69.5" font-family="Helvetica,sans-Serif" font-size="10.00">std::vector&lt; T &gt;</text>
</a>
</g>
</g>
<!-- Node10&#45;&gt;Node22 -->
<g id="edge43_Node000022_Node000010" class="edge">
<title>Node10&#45;&gt;Node22</title>
<g id="a_edge43_Node000022_Node000010"><a xlink:title=" ">
<path fill="none" stroke="#9a32cd" stroke-dasharray="5,2" d="M17.48,-506.16C26.35,-418.86 65.92,-87 155,-87 155,-87 155,-87 1361,-87 1429.44,-87 1508.77,-80.69 1556.1,-76.26"/>
<polygon fill="#9a32cd" stroke="#9a32cd" points="14.02,-505.6 16.52,-515.89 20.99,-506.29 14.02,-505.6"/>
</a>
</g>
<text text-anchor="middle" x="810.5" y="-90" font-family="Helvetica,sans-Serif" font-size="10.00" fill="grey"> elements</text>
</g>
<!-- Node11&#45;&gt;Node5 -->
<g id="edge25_Node000005_Node000011" class="edge">
<title>Node11&#45;&gt;Node5</title>
<g id="a_edge25_Node000005_Node000011"><a xlink:title=" ">
<path fill="none" stroke="#9a32cd" stroke-dasharray="5,2" d="M996.38,-318.59C1018.17,-320.73 1042.07,-323.27 1064,-326 1237.03,-347.54 1440.52,-380.01 1538.87,-396.16"/>
<polygon fill="#9a32cd" stroke="#9a32cd" points="996.99,-315.13 986.7,-317.65 996.32,-322.1 996.99,-315.13"/>
</a>
</g>
<text text-anchor="middle" x="1250.5" y="-357" font-family="Helvetica,sans-Serif" font-size="10.00" fill="grey"> error_</text>
</g>
<!-- Node11&#45;&gt;Node6 -->
<g id="edge24_Node000006_Node000011" class="edge">
<title>Node11&#45;&gt;Node6</title>
<g id="a_edge24_Node000006_Node000011"><a xlink:title=" ">
<path fill="none" stroke="#9a32cd" stroke-dasharray="5,2" d="M996.75,-301.51C998.85,-301.32 1000.94,-301.15 1003,-301 1102.4,-293.64 1217.82,-293.96 1289.64,-295.21"/>
<polygon fill="#9a32cd" stroke="#9a32cd" points="996.48,-298.02 986.88,-302.5 997.18,-304.99 996.48,-298.02"/>
</a>
</g>
<text text-anchor="middle" x="1146.5" y="-300" font-family="Helvetica,sans-Serif" font-size="10.00" fill="grey"> error_</text>
</g>
<!-- Node11&#45;&gt;Node7 -->
<g id="edge13_Node000007_Node000011" class="edge">
<title>Node11&#45;&gt;Node7</title>
<g id="a_edge13_Node000007_Node000011"><a xlink:title=" ">
<path fill="none" stroke="#9a32cd" stroke-dasharray="5,2" d="M873.86,-299.78C846.17,-294.54 810.68,-291.21 780,-299 754.1,-305.58 727.52,-322.3 712.17,-333.13"/>
<polygon fill="#9a32cd" stroke="#9a32cd" points="872.85,-303.15 883.35,-301.73 874.26,-296.29 872.85,-303.15"/>
</a>
</g>
<text text-anchor="middle" x="810.5" y="-302" font-family="Helvetica,sans-Serif" font-size="10.00" fill="grey"> error_</text>
</g>
<!-- Node11&#45;&gt;Node12 -->
<g id="edge19_Node000012_Node000011" class="edge">
<title>Node11&#45;&gt;Node12</title>
<g id="a_edge19_Node000012_Node000011"><a xlink:title=" ">
<path fill="none" stroke="#9a32cd" stroke-dasharray="5,2" d="M990.99,-324.39C1014.55,-329.73 1040.84,-336.88 1064,-346 1077,-351.12 1109.32,-370.13 1129.13,-382.05"/>
<polygon fill="#9a32cd" stroke="#9a32cd" points="992.02,-321.04 981.5,-322.32 990.52,-327.88 992.02,-321.04"/>
</a>
</g>
<text text-anchor="middle" x="1033.5" y="-349" font-family="Helvetica,sans-Serif" font-size="10.00" fill="grey"> error_</text>
</g>
<!-- Node11&#45;&gt;Node13 -->
<g id="edge23_Node000013_Node000011" class="edge">
<title>Node11&#45;&gt;Node13</title>
<g id="a_edge23_Node000013_Node000011"><a xlink:title=" ">
<path fill="none" stroke="#9a32cd" stroke-dasharray="5,2" d="M935.92,-292.69C950.03,-273.2 974.47,-243.78 1003,-228 1029.84,-213.15 1063.3,-205.87 1091.06,-202.31"/>
<polygon fill="#9a32cd" stroke="#9a32cd" points="933.07,-290.66 930.21,-300.86 938.8,-294.67 933.07,-290.66"/>
</a>
</g>
<text text-anchor="middle" x="1033.5" y="-231" font-family="Helvetica,sans-Serif" font-size="10.00" fill="grey"> error_</text>
</g>
<!-- Node11&#45;&gt;Node14 -->
<g id="edge29_Node000014_Node000011" class="edge">
<title>Node11&#45;&gt;Node14</title>
<g id="a_edge29_Node000014_Node000011"><a xlink:title=" ">
<path fill="none" stroke="#9a32cd" stroke-dasharray="5,2" d="M968.26,-326.47C974.13,-329.21 979.88,-332.38 985,-336 995.04,-343.1 994.25,-348.36 1003,-357 1047.5,-400.93 1106.39,-446.62 1132.3,-466.17"/>
<polygon fill="#9a32cd" stroke="#9a32cd" points="969.64,-323.25 959.06,-322.58 966.91,-329.69 969.64,-323.25"/>
</a>
</g>
<text text-anchor="middle" x="1033.5" y="-415" font-family="Helvetica,sans-Serif" font-size="10.00" fill="grey"> error_</text>
</g>
<!-- Node12&#45;&gt;Node6 -->
<g id="edge16_Node000006_Node000012" class="edge">
<title>Node12&#45;&gt;Node6</title>
<g id="a_edge16_Node000006_Node000012"><a xlink:title=" ">
<path fill="none" stroke="#9a32cd" stroke-dasharray="5,2" d="M1162.75,-374.08C1177.84,-357.59 1202.48,-333.8 1229,-321 1247.71,-311.97 1269.43,-306.33 1289.71,-302.8"/>
<polygon fill="#9a32cd" stroke="#9a32cd" points="1160.42,-371.44 1156.4,-381.25 1165.65,-376.09 1160.42,-371.44"/>
</a>
</g>
<text text-anchor="middle" x="1250.5" y="-324" font-family="Helvetica,sans-Serif" font-size="10.00" fill="grey"> server_</text>
</g>
<!-- Node13&#45;&gt;Node6 -->
<g id="edge20_Node000006_Node000013" class="edge">
<title>Node13&#45;&gt;Node6</title>
<g id="a_edge20_Node000006_Node000013"><a xlink:title=" ">
<path fill="none" stroke="#9a32cd" stroke-dasharray="5,2" d="M1213.29,-200.44C1232.9,-202.84 1253.96,-207.45 1272,-216 1307.62,-232.89 1338.52,-269.66 1351.91,-287.25"/>
<polygon fill="#9a32cd" stroke="#9a32cd" points="1213.76,-196.97 1203.45,-199.43 1213.04,-203.94 1213.76,-196.97"/>
</a>
</g>
<text text-anchor="middle" x="1250.5" y="-219" font-family="Helvetica,sans-Serif" font-size="10.00" fill="grey"> session_</text>
</g>
<!-- Node14&#45;&gt;Node5 -->
<g id="edge26_Node000005_Node000014" class="edge">
<title>Node14&#45;&gt;Node5</title>
<g id="a_edge26_Node000005_Node000014"><a xlink:title=" ">
<path fill="none" stroke="#9a32cd" stroke-dasharray="5,2" d="M1222.43,-464.36C1311.22,-450.56 1457.35,-427.85 1538.68,-415.22"/>
<polygon fill="#9a32cd" stroke="#9a32cd" points="1221.93,-460.89 1212.59,-465.89 1223,-467.81 1221.93,-460.89"/>
</a>
</g>
<text text-anchor="middle" x="1360" y="-457" font-family="Helvetica,sans-Serif" font-size="10.00" fill="grey"> changeNotification_</text>
</g>
<!-- Node15 -->
<g id="Node000015" class="node">
<title>Node15</title>
<g id="a_Node000015"><a xlink:title=" ">
<polygon fill="white" stroke="#666666" points="2410,-421 2249,-421 2249,-391 2410,-391 2410,-421"/>
<text text-anchor="start" x="2257" y="-409" font-family="Helvetica,sans-Serif" font-size="10.00">std::vector&lt; std::unique</text>
<text text-anchor="middle" x="2329.5" y="-398" font-family="Helvetica,sans-Serif" font-size="10.00">_ptr&lt; Harlinn::OCI::BindBase &gt; &gt;</text>
</a>
</g>
</g>
<!-- Node15&#45;&gt;Node5 -->
<g id="edge30_Node000005_Node000015" class="edge">
<title>Node15&#45;&gt;Node5</title>
<g id="a_edge30_Node000005_Node000015"><a xlink:title=" ">
<path fill="none" stroke="#9a32cd" stroke-dasharray="5,2" d="M2237.57,-406C2086.17,-406 1786.49,-406 1659.31,-406"/>
<polygon fill="#9a32cd" stroke="#9a32cd" points="2237.14,-409.5 2247.14,-406 2237.14,-402.5 2237.14,-409.5"/>
</a>
</g>
<text text-anchor="middle" x="1966" y="-409" font-family="Helvetica,sans-Serif" font-size="10.00" fill="grey"> binds_</text>
</g>
<!-- Node16 -->
<g id="Node000016" class="node">
<title>Node16</title>
<g id="a_Node000016"><a xlink:title=" ">
<polygon fill="white" stroke="#666666" points="2167.5,-611 2047.5,-611 2047.5,-581 2167.5,-581 2167.5,-611"/>
<text text-anchor="start" x="2055.5" y="-599" font-family="Helvetica,sans-Serif" font-size="10.00">std::unique_ptr&lt; Harlinn</text>
<text text-anchor="middle" x="2107.5" y="-588" font-family="Helvetica,sans-Serif" font-size="10.00">::OCI::BindBase &gt;</text>
</a>
</g>
</g>
<!-- Node16&#45;&gt;Node15 -->
<g id="edge31_Node000015_Node000016" class="edge">
<title>Node16&#45;&gt;Node15</title>
<g id="a_edge31_Node000015_Node000016"><a xlink:title=" ">
<path fill="none" stroke="#9a32cd" stroke-dasharray="5,2" d="M2134.82,-573.27C2180.24,-534.04 2272.17,-454.65 2310.78,-421.3"/>
<polygon fill="#9a32cd" stroke="#9a32cd" points="2132.56,-570.6 2127.28,-579.78 2137.13,-575.9 2132.56,-570.6"/>
</a>
</g>
<text text-anchor="middle" x="2209.5" y="-527" font-family="Helvetica,sans-Serif" font-size="10.00" fill="grey"> elements</text>
</g>
<!-- Node17&#45;&gt;Node16 -->
<g id="edge32_Node000016_Node000017" class="edge">
<title>Node17&#45;&gt;Node16</title>
<g id="a_edge32_Node000016_Node000017"><a xlink:title=" ">
<path fill="none" stroke="#9a32cd" stroke-dasharray="5,2" d="M1894.65,-596C1941.47,-596 2002.66,-596 2047.24,-596"/>
<polygon fill="#9a32cd" stroke="#9a32cd" points="1894.9,-592.5 1884.9,-596 1894.9,-599.5 1894.9,-592.5"/>
</a>
</g>
<text text-anchor="middle" x="1966" y="-599" font-family="Helvetica,sans-Serif" font-size="10.00" fill="grey"> ptr</text>
</g>
<!-- Node18 -->
<g id="Node000018" class="node">
<title>Node18</title>
<g id="a_Node000018"><a xlink:href="class_harlinn_1_1_common_1_1_core_1_1_basic_string.xhtml" target="_top" xlink:title=" ">
<polygon fill="white" stroke="#666666" points="760.5,-654 635.5,-654 635.5,-624 760.5,-624 760.5,-654"/>
<text text-anchor="start" x="643.5" y="-642" font-family="Helvetica,sans-Serif" font-size="10.00">Harlinn::Common::Core</text>
<text text-anchor="middle" x="698" y="-631" font-family="Helvetica,sans-Serif" font-size="10.00">::BasicString&lt; wchar_t &gt;</text>
</a>
</g>
</g>
<!-- Node18&#45;&gt;Node17 -->
<g id="edge35_Node000017_Node000018" class="edge">
<title>Node18&#45;&gt;Node17</title>
<g id="a_edge35_Node000017_Node000018"><a xlink:title=" ">
<path fill="none" stroke="#9a32cd" stroke-dasharray="5,2" d="M772.01,-637.52C815.32,-636.76 871.29,-636 921,-636 921,-636 921,-636 1600,-636 1668,-636 1745.84,-617.84 1789.38,-605.99"/>
<polygon fill="#9a32cd" stroke="#9a32cd" points="772.17,-634.01 762.23,-637.69 772.29,-641.01 772.17,-634.01"/>
</a>
</g>
<text text-anchor="middle" x="1250.5" y="-639" font-family="Helvetica,sans-Serif" font-size="10.00" fill="grey"> name_</text>
</g>
<!-- Node19&#45;&gt;Node18 -->
<g id="edge36_Node000018_Node000019" class="edge">
<title>Node19&#45;&gt;Node18</title>
<g id="a_edge36_Node000018_Node000019"><a xlink:title=" ">
<path fill="none" stroke="#9a32cd" stroke-dasharray="5,2" d="M226.84,-611.7C292.89,-612.65 394.75,-614.87 483,-620 534.39,-622.99 592.56,-628.28 635.27,-632.52"/>
<polygon fill="#9a32cd" stroke="#9a32cd" points="226.91,-608.2 216.86,-611.56 226.81,-615.2 226.91,-608.2"/>
</a>
</g>
<text text-anchor="middle" x="419" y="-623" font-family="Helvetica,sans-Serif" font-size="10.00" fill="grey"> data_</text>
</g>
<!-- Node20 -->
<g id="Node000020" class="node">
<title>Node20</title>
<g id="a_Node000020"><a xlink:href="class_harlinn_1_1_common_1_1_core_1_1_basic_string.xhtml" target="_top" xlink:title="This is a reference counted string class.">
<polygon fill="white" stroke="#666666" points="478,-670 360,-670 360,-640 478,-640 478,-670"/>
<text text-anchor="start" x="368" y="-658" font-family="Helvetica,sans-Serif" font-size="10.00">Harlinn::Common::Core</text>
<text text-anchor="middle" x="419" y="-647" font-family="Helvetica,sans-Serif" font-size="10.00">::BasicString&lt; T &gt;</text>
</a>
</g>
</g>
<!-- Node19&#45;&gt;Node20 -->
<g id="edge39_Node000020_Node000019" class="edge">
<title>Node19&#45;&gt;Node20</title>
<g id="a_edge39_Node000020_Node000019"><a xlink:title=" ">
<path fill="none" stroke="#9a32cd" stroke-dasharray="5,2" d="M226.79,-623.92C228.88,-624.28 230.96,-624.65 233,-625 275.32,-632.33 323.18,-640.08 359.62,-645.86"/>
<polygon fill="#9a32cd" stroke="#9a32cd" points="227.43,-620.47 216.97,-622.17 226.2,-627.37 227.43,-620.47"/>
</a>
</g>
<text text-anchor="middle" x="285" y="-645" font-family="Helvetica,sans-Serif" font-size="10.00" fill="grey"> data_</text>
</g>
<!-- Node20&#45;&gt;Node18 -->
<g id="edge38_Node000018_Node000020" class="edge">
<title>Node20&#45;&gt;Node18</title>
<g id="a_edge38_Node000018_Node000020"><a xlink:title=" ">
<path fill="none" stroke="orange" stroke-dasharray="5,2" d="M489.79,-650.97C534.58,-648.38 592.2,-645.05 635.31,-642.56"/>
<polygon fill="orange" stroke="orange" points="489.7,-647.47 479.92,-651.54 490.1,-654.46 489.7,-647.47"/>
</a>
</g>
<text text-anchor="middle" x="558.5" y="-654" font-family="Helvetica,sans-Serif" font-size="10.00" fill="grey"> &lt; wchar_t &gt;</text>
</g>
<!-- Node21&#45;&gt;Node16 -->
<g id="edge40_Node000016_Node000021" class="edge">
<title>Node21&#45;&gt;Node16</title>
<g id="a_edge40_Node000016_Node000021"><a xlink:title=" ">
<path fill="none" stroke="orange" stroke-dasharray="5,2" d="M348.57,-690.34C403.58,-693.77 485.81,-698 557.5,-698 557.5,-698 557.5,-698 1825.5,-698 1925.67,-698 2034.51,-640.03 2082.02,-611.49"/>
<polygon fill="orange" stroke="orange" points="348.97,-686.85 338.77,-689.71 348.53,-693.84 348.97,-686.85"/>
</a>
</g>
<text text-anchor="middle" x="1146.5" y="-701" font-family="Helvetica,sans-Serif" font-size="10.00" fill="grey"> &lt; Harlinn::OCI::BindBase &gt;</text>
</g>
<!-- Node22&#45;&gt;Node15 -->
<g id="edge42_Node000015_Node000022" class="edge">
<title>Node22&#45;&gt;Node15</title>
<g id="a_edge42_Node000015_Node000022"><a xlink:title=" ">
<path fill="none" stroke="orange" stroke-dasharray="5,2" d="M1653.11,-80.68C1730.02,-93.42 1865.58,-116.58 1887,-125 2066.68,-195.66 2252.27,-342.63 2310.15,-390.54"/>
<polygon fill="orange" stroke="orange" points="1653.69,-77.23 1643.25,-79.05 1652.55,-84.13 1653.69,-77.23"/>
</a>
</g>
<text text-anchor="start" x="1905" y="-207" font-family="Helvetica,sans-Serif" font-size="10.00" fill="grey"> &lt; std::unique_ptr&lt;</text>
<text text-anchor="middle" x="1966" y="-196" font-family="Helvetica,sans-Serif" font-size="10.00" fill="grey"> Harlinn::OCI::BindBase &gt; &gt;</text>
</g>
<!-- Node23 -->
<g id="Node000023" class="node">
<title>Node23</title>
<g id="a_Node000023"><a xlink:title=" ">
<polygon fill="white" stroke="#666666" points="1875,-67.5 1774,-67.5 1774,-48.5 1875,-48.5 1875,-67.5"/>
<text text-anchor="middle" x="1824.5" y="-55.5" font-family="Helvetica,sans-Serif" font-size="10.00">std::vector&lt; Int16 &gt;</text>
</a>
</g>
</g>
<!-- Node22&#45;&gt;Node23 -->
<g id="edge45_Node000023_Node000022" class="edge">
<title>Node22&#45;&gt;Node23</title>
<g id="a_edge45_Node000023_Node000022"><a xlink:title=" ">
<path fill="none" stroke="orange" stroke-dasharray="5,2" d="M1653.2,-68.67C1689.75,-66.38 1737.94,-63.36 1773.73,-61.12"/>
<polygon fill="orange" stroke="orange" points="1653.05,-65.17 1643.29,-69.29 1653.49,-72.16 1653.05,-65.17"/>
</a>
</g>
<text text-anchor="middle" x="1710.5" y="-71" font-family="Helvetica,sans-Serif" font-size="10.00" fill="grey"> &lt; Int16 &gt;</text>
</g>
<!-- Node24 -->
<g id="Node000024" class="node">
<title>Node24</title>
<g id="a_Node000024"><a xlink:title=" ">
<polygon fill="white" stroke="#666666" points="2012,-30 1920,-30 1920,0 2012,0 2012,-30"/>
<text text-anchor="start" x="1928" y="-18" font-family="Helvetica,sans-Serif" font-size="10.00">std::vector&lt; value</text>
<text text-anchor="middle" x="1966" y="-7" font-family="Helvetica,sans-Serif" font-size="10.00">_type &gt;</text>
</a>
</g>
</g>
<!-- Node22&#45;&gt;Node24 -->
<g id="edge47_Node000024_Node000022" class="edge">
<title>Node22&#45;&gt;Node24</title>
<g id="a_edge47_Node000024_Node000022"><a xlink:title=" ">
<path fill="none" stroke="orange" stroke-dasharray="5,2" d="M1639.86,-58.67C1651.71,-55.09 1664.78,-51.53 1677,-49 1761.8,-31.47 1862.66,-22.15 1919.72,-17.92"/>
<polygon fill="orange" stroke="orange" points="1638.9,-55.3 1630.39,-61.61 1640.98,-61.98 1638.9,-55.3"/>
</a>
</g>
<text text-anchor="middle" x="1710.5" y="-52" font-family="Helvetica,sans-Serif" font-size="10.00" fill="grey"> &lt; value_type &gt;</text>
</g>
<!-- Node23&#45;&gt;Node2 -->
<g id="edge44_Node000002_Node000023" class="edge">
<title>Node23&#45;&gt;Node2</title>
<g id="a_edge44_Node000002_Node000023"><a xlink:title=" ">
<path fill="none" stroke="#9a32cd" stroke-dasharray="5,2" d="M1886.36,-54.62C1892.66,-54.37 1898.96,-54.15 1905,-54 1951.86,-52.82 2004.87,-52.88 2044.76,-53.2"/>
<polygon fill="#9a32cd" stroke="#9a32cd" points="1886.45,-51.12 1876.62,-55.05 1886.76,-58.11 1886.45,-51.12"/>
</a>
</g>
<text text-anchor="middle" x="1966" y="-57" font-family="Helvetica,sans-Serif" font-size="10.00" fill="grey"> indicator_</text>
</g>
<!-- Node24&#45;&gt;Node1 -->
<g id="edge46_Node000001_Node000024" class="edge">
<title>Node24&#45;&gt;Node1</title>
<g id="a_edge46_Node000001_Node000024"><a xlink:title=" ">
<path fill="none" stroke="#9a32cd" stroke-dasharray="5,2" d="M2023.49,-17.13C2064.23,-18.75 2120.53,-21.19 2170,-24 2197.54,-25.57 2227.75,-27.59 2254.34,-29.47"/>
<polygon fill="#9a32cd" stroke="#9a32cd" points="2023.81,-13.64 2013.68,-16.74 2023.53,-20.63 2023.81,-13.64"/>
</a>
</g>
<text text-anchor="middle" x="2107.5" y="-27" font-family="Helvetica,sans-Serif" font-size="10.00" fill="grey"> data_</text>
</g>
</g>
</svg>
