<?xml version="1.0" encoding="UTF-8" standalone="no"?>
<!DOCTYPE svg PUBLIC "-//W3C//DTD SVG 1.1//EN"
 "http://www.w3.org/Graphics/SVG/1.1/DTD/svg11.dtd">
<!-- Generated by graphviz version 7.0.1 (20221109.1506)
 -->
<!-- Title: Harlinn::Common::Core::WaitableTimerAccessMask Pages: 1 -->
<svg width="792pt" height="82pt"
 viewBox="0.00 0.00 792.00 81.50" xmlns="http://www.w3.org/2000/svg" xmlns:xlink="http://www.w3.org/1999/xlink">
<g id="graph0" class="graph" transform="scale(1 1) rotate(0) translate(4 77.5)">
<title>Harlinn::Common::Core::WaitableTimerAccessMask</title>
<!-- Node1 -->
<g id="Node000001" class="node">
<title>Node1</title>
<g id="a_Node000001"><a xlink:title=" ">
<polygon fill="#999999" stroke="#666666" points="784,-62.5 642,-62.5 642,-32.5 784,-32.5 784,-62.5"/>
<text text-anchor="start" x="650" y="-50.5" font-family="Helvetica,sans-Serif" font-size="10.00">Harlinn::Common::Core</text>
<text text-anchor="middle" x="713" y="-39.5" font-family="Helvetica,sans-Serif" font-size="10.00">::WaitableTimerAccessMask</text>
</a>
</g>
</g>
<!-- Node2 -->
<g id="Node000002" class="node">
<title>Node2</title>
<g id="a_Node000002"><a xlink:href="class_harlinn_1_1_common_1_1_core_1_1_security_1_1_access_mask_t.xhtml" target="_top" xlink:title=" ">
<polygon fill="white" stroke="#666666" points="605,-73.5 457,-73.5 457,-21.5 605,-21.5 605,-73.5"/>
<text text-anchor="start" x="465" y="-61.5" font-family="Helvetica,sans-Serif" font-size="10.00">Harlinn::Common::Core</text>
<text text-anchor="start" x="465" y="-50.5" font-family="Helvetica,sans-Serif" font-size="10.00">::Security::AccessMaskT</text>
<text text-anchor="start" x="465" y="-39.5" font-family="Helvetica,sans-Serif" font-size="10.00">&lt; WaitableTimerAccessMask,</text>
<text text-anchor="middle" x="531" y="-28.5" font-family="Helvetica,sans-Serif" font-size="10.00"> WaitableTimerRights &gt;</text>
</a>
</g>
</g>
<!-- Node2&#45;&gt;Node1 -->
<g id="edge1_Node000001_Node000002" class="edge">
<title>Node2&#45;&gt;Node1</title>
<g id="a_edge1_Node000001_Node000002"><a xlink:title=" ">
<path fill="none" stroke="#63b8ff" d="M616.77,-47.5C625.11,-47.5 633.5,-47.5 641.67,-47.5"/>
<polygon fill="#63b8ff" stroke="#63b8ff" points="616.99,-44 606.99,-47.5 616.99,-51 616.99,-44"/>
</a>
</g>
</g>
<!-- Node3 -->
<g id="Node000003" class="node">
<title>Node3</title>
<g id="a_Node000003"><a xlink:href="class_harlinn_1_1_common_1_1_core_1_1_security_1_1_access_mask.xhtml" target="_top" xlink:title="An ACCESS_MASK wrapper class. The ACCESS_MASK data type is a DWORD value that defines standard,...">
<polygon fill="white" stroke="#666666" points="122,-59.5 0,-59.5 0,-29.5 122,-29.5 122,-59.5"/>
<text text-anchor="start" x="8" y="-47.5" font-family="Helvetica,sans-Serif" font-size="10.00">Harlinn::Common::Core</text>
<text text-anchor="middle" x="61" y="-36.5" font-family="Helvetica,sans-Serif" font-size="10.00">::Security::AccessMask</text>
</a>
</g>
</g>
<!-- Node3&#45;&gt;Node2 -->
<g id="edge2_Node000002_Node000003" class="edge">
<title>Node3&#45;&gt;Node2</title>
<g id="a_edge2_Node000002_Node000003"><a xlink:title=" ">
<path fill="none" stroke="#63b8ff" d="M133.72,-49.7C209.58,-54.48 332.76,-60.16 439,-55.5 444.7,-55.25 450.6,-54.91 456.53,-54.52"/>
<polygon fill="#63b8ff" stroke="#63b8ff" points="134.13,-46.22 123.93,-49.07 133.68,-53.21 134.13,-46.22"/>
</a>
</g>
</g>
<!-- Node4 -->
<g id="Node000004" class="node">
<title>Node4</title>
<g id="a_Node000004"><a xlink:href="class_harlinn_1_1_common_1_1_core_1_1_security_1_1_access_mask_t.xhtml" target="_top" xlink:title=" ">
<polygon fill="white" stroke="#666666" points="286,-41 159,-41 159,0 286,0 286,-41"/>
<text text-anchor="start" x="167" y="-29" font-family="Helvetica,sans-Serif" font-size="10.00">Harlinn::Common::Core</text>
<text text-anchor="start" x="167" y="-18" font-family="Helvetica,sans-Serif" font-size="10.00">::Security::AccessMaskT</text>
<text text-anchor="middle" x="222.5" y="-7" font-family="Helvetica,sans-Serif" font-size="10.00">&lt; DerivedT, RightsT &gt;</text>
</a>
</g>
</g>
<!-- Node3&#45;&gt;Node4 -->
<g id="edge4_Node000004_Node000003" class="edge">
<title>Node3&#45;&gt;Node4</title>
<g id="a_edge4_Node000004_Node000003"><a xlink:title=" ">
<path fill="none" stroke="#63b8ff" d="M133.61,-33.72C141.99,-32.46 150.48,-31.19 158.72,-29.95"/>
<polygon fill="#63b8ff" stroke="#63b8ff" points="133.16,-30.25 123.8,-35.2 134.21,-37.17 133.16,-30.25"/>
</a>
</g>
</g>
<!-- Node4&#45;&gt;Node2 -->
<g id="edge3_Node000002_Node000004" class="edge">
<title>Node4&#45;&gt;Node2</title>
<g id="a_edge3_Node000002_Node000004"><a xlink:title=" ">
<path fill="none" stroke="orange" stroke-dasharray="5,2" d="M297.76,-23.29C339.37,-25.27 392.16,-28.49 439,-33.5 444.72,-34.11 450.63,-34.83 456.57,-35.61"/>
<polygon fill="orange" stroke="orange" points="298,-19.79 287.85,-22.83 297.68,-26.79 298,-19.79"/>
</a>
</g>
<text text-anchor="start" x="304" y="-47.5" font-family="Helvetica,sans-Serif" font-size="10.00" fill="grey"> &lt; WaitableTimerAccessMask,</text>
<text text-anchor="middle" x="371.5" y="-36.5" font-family="Helvetica,sans-Serif" font-size="10.00" fill="grey"> WaitableTimerRights &gt;</text>
</g>
</g>
</svg>
