<?xml version="1.0" encoding="UTF-8" standalone="no"?>
<!DOCTYPE svg PUBLIC "-//W3C//DTD SVG 1.1//EN"
 "http://www.w3.org/Graphics/SVG/1.1/DTD/svg11.dtd">
<!-- Generated by graphviz version 7.0.1 (20221109.1506)
 -->
<!-- Title: Harlinn::Common::Core::StringBuilder&lt; T &gt; Pages: 1 -->
<svg width="255pt" height="280pt"
 viewBox="0.00 0.00 254.50 280.00" xmlns="http://www.w3.org/2000/svg" xmlns:xlink="http://www.w3.org/1999/xlink">
<g id="graph0" class="graph" transform="scale(1 1) rotate(0) translate(4 276)">
<title>Harlinn::Common::Core::StringBuilder&lt; T &gt;</title>
<!-- Node1 -->
<g id="Node000001" class="node">
<title>Node1</title>
<g id="a_Node000001"><a xlink:title=" ">
<polygon fill="#999999" stroke="#666666" points="146,-30 28,-30 28,0 146,0 146,-30"/>
<text text-anchor="start" x="36" y="-18" font-family="Helvetica,sans-Serif" font-size="10.00">Harlinn::Common::Core</text>
<text text-anchor="middle" x="87" y="-7" font-family="Helvetica,sans-Serif" font-size="10.00">::StringBuilder&lt; T &gt;</text>
</a>
</g>
</g>
<!-- Node2 -->
<g id="Node000002" class="node">
<title>Node2</title>
<g id="a_Node000002"><a xlink:href="class_harlinn_1_1_common_1_1_core_1_1_blocks_1_1_stream.xhtml" target="_top" xlink:title=" ">
<polygon fill="white" stroke="#666666" points="146,-107 28,-107 28,-77 146,-77 146,-107"/>
<text text-anchor="start" x="36" y="-95" font-family="Helvetica,sans-Serif" font-size="10.00">Harlinn::Common::Core</text>
<text text-anchor="middle" x="87" y="-84" font-family="Helvetica,sans-Serif" font-size="10.00">::Blocks::Stream</text>
</a>
</g>
</g>
<!-- Node2&#45;&gt;Node1 -->
<g id="edge1_Node000001_Node000002" class="edge">
<title>Node2&#45;&gt;Node1</title>
<g id="a_edge1_Node000001_Node000002"><a xlink:title=" ">
<path fill="none" stroke="#9a32cd" stroke-dasharray="5,2" d="M87,-65.23C87,-53.58 87,-40.26 87,-30.42"/>
<polygon fill="#9a32cd" stroke="#9a32cd" points="83.5,-65.03 87,-75.03 90.5,-65.03 83.5,-65.03"/>
</a>
</g>
<text text-anchor="middle" x="106.5" y="-51" font-family="Helvetica,sans-Serif" font-size="10.00" fill="grey"> stream_</text>
</g>
<!-- Node3 -->
<g id="Node000003" class="node">
<title>Node3</title>
<g id="a_Node000003"><a xlink:href="class_harlinn_1_1_common_1_1_core_1_1_blocks_1_1_block_manager.xhtml" target="_top" xlink:title=" ">
<polygon fill="white" stroke="#666666" points="246.5,-184 125.5,-184 125.5,-154 246.5,-154 246.5,-184"/>
<text text-anchor="start" x="133.5" y="-172" font-family="Helvetica,sans-Serif" font-size="10.00">Harlinn::Common::Core</text>
<text text-anchor="middle" x="186" y="-161" font-family="Helvetica,sans-Serif" font-size="10.00">::Blocks::BlockManager</text>
</a>
</g>
</g>
<!-- Node3&#45;&gt;Node2 -->
<g id="edge2_Node000002_Node000003" class="edge">
<title>Node3&#45;&gt;Node2</title>
<g id="a_edge2_Node000002_Node000003"><a xlink:title=" ">
<path fill="none" stroke="#9a32cd" stroke-dasharray="5,2" d="M158.15,-146.9C141.51,-134.3 120.81,-118.61 106.03,-107.42"/>
<polygon fill="#9a32cd" stroke="#9a32cd" points="155.62,-149.38 165.71,-152.63 159.85,-143.8 155.62,-149.38"/>
</a>
</g>
<text text-anchor="middle" x="177" y="-128" font-family="Helvetica,sans-Serif" font-size="10.00" fill="grey"> blockManager_</text>
</g>
<!-- Node4 -->
<g id="Node000004" class="node">
<title>Node4</title>
<g id="a_Node000004"><a xlink:href="class_harlinn_1_1_common_1_1_core_1_1_blocks_1_1_block.xhtml" target="_top" xlink:title=" ">
<polygon fill="white" stroke="#666666" points="118,-272 0,-272 0,-242 118,-242 118,-272"/>
<text text-anchor="start" x="8" y="-260" font-family="Helvetica,sans-Serif" font-size="10.00">Harlinn::Common::Core</text>
<text text-anchor="middle" x="59" y="-249" font-family="Helvetica,sans-Serif" font-size="10.00">::Blocks::Block</text>
</a>
</g>
</g>
<!-- Node4&#45;&gt;Node2 -->
<g id="edge5_Node000002_Node000004" class="edge">
<title>Node4&#45;&gt;Node2</title>
<g id="a_edge5_Node000002_Node000004"><a xlink:title=" ">
<path fill="none" stroke="#9a32cd" stroke-dasharray="5,2" d="M53.17,-230.41C49.43,-209.51 46.4,-179.4 53,-154 57.51,-136.63 68.17,-118.96 76.36,-107.14"/>
<polygon fill="#9a32cd" stroke="#9a32cd" points="49.7,-230.93 55.09,-240.05 56.57,-229.56 49.7,-230.93"/>
</a>
</g>
<text text-anchor="middle" x="85" y="-166.5" font-family="Helvetica,sans-Serif" font-size="10.00" fill="grey"> currentBlock_</text>
</g>
<!-- Node4&#45;&gt;Node3 -->
<g id="edge3_Node000003_Node000004" class="edge">
<title>Node4&#45;&gt;Node3</title>
<g id="a_edge3_Node000003_Node000004"><a xlink:title=" ">
<path fill="none" stroke="#9a32cd" stroke-dasharray="5,2" d="M89.65,-235.24C112.86,-219.53 144.14,-198.35 164.67,-184.44"/>
<polygon fill="#9a32cd" stroke="#9a32cd" points="87.83,-232.25 81.51,-240.76 91.75,-238.05 87.83,-232.25"/>
</a>
</g>
<text text-anchor="middle" x="152" y="-216" font-family="Helvetica,sans-Serif" font-size="10.00" fill="grey"> head_</text>
<text text-anchor="middle" x="152" y="-205" font-family="Helvetica,sans-Serif" font-size="10.00" fill="grey">tail_</text>
</g>
<!-- Node4&#45;&gt;Node4 -->
<g id="edge4_Node000004_Node000004" class="edge">
<title>Node4&#45;&gt;Node4</title>
<g id="a_edge4_Node000004_Node000004"><a xlink:title=" ">
<path fill="none" stroke="#9a32cd" stroke-dasharray="5,2" d="M129.55,-262.6C133.59,-261.25 136,-259.38 136,-257 136,-252.88 128.78,-250.3 118.4,-249.27"/>
<polygon fill="#9a32cd" stroke="#9a32cd" points="129.06,-259.13 119.89,-264.45 130.37,-266.01 129.06,-259.13"/>
</a>
</g>
<text text-anchor="middle" x="156.5" y="-260" font-family="Helvetica,sans-Serif" font-size="10.00" fill="grey"> next_</text>
<text text-anchor="middle" x="156.5" y="-249" font-family="Helvetica,sans-Serif" font-size="10.00" fill="grey">previous_</text>
</g>
</g>
</svg>
