<?xml version="1.0" encoding="UTF-8" standalone="no"?>
<!DOCTYPE svg PUBLIC "-//W3C//DTD SVG 1.1//EN"
 "http://www.w3.org/Graphics/SVG/1.1/DTD/svg11.dtd">
<!-- Generated by graphviz version 7.0.1 (20221109.1506)
 -->
<!-- Title: Harlinn::OCI::Environment Pages: 1 -->
<svg width="317pt" height="302pt"
 viewBox="0.00 0.00 317.00 302.00" xmlns="http://www.w3.org/2000/svg" xmlns:xlink="http://www.w3.org/1999/xlink">
<g id="graph0" class="graph" transform="scale(1 1) rotate(0) translate(4 298)">
<title>Harlinn::OCI::Environment</title>
<!-- Node1 -->
<g id="Node000001" class="node">
<title>Node1</title>
<g id="a_Node000001"><a xlink:title="The environment handle defines a context in which all OCI functions are invoked.">
<polygon fill="#999999" stroke="#666666" points="220,-85 92,-85 92,-66 220,-66 220,-85"/>
<text text-anchor="middle" x="156" y="-73" font-family="Helvetica,sans-Serif" font-size="10.00">Harlinn::OCI::Environment</text>
</a>
</g>
</g>
<!-- Node6 -->
<g id="Node000006" class="node">
<title>Node6</title>
<g id="a_Node000006"><a xlink:href="class_harlinn_1_1_o_c_i_1_1_error_handle.xhtml" target="_top" xlink:title="The error handle is passed as a parameter to most OCI calls.">
<polygon fill="white" stroke="#666666" points="168,-19 42,-19 42,0 168,0 168,-19"/>
<text text-anchor="middle" x="105" y="-7" font-family="Helvetica,sans-Serif" font-size="10.00">Harlinn::OCI::ErrorHandle</text>
</a>
</g>
</g>
<!-- Node1&#45;&gt;Node6 -->
<g id="edge7_Node000006_Node000001" class="edge">
<title>Node1&#45;&gt;Node6</title>
<g id="a_edge7_Node000006_Node000001"><a xlink:title=" ">
<path fill="none" stroke="#9a32cd" stroke-dasharray="5,2" d="M146.59,-55.97C143.03,-49.68 138.69,-42.79 134,-37 128.76,-30.53 121.93,-24.21 116.22,-19.37"/>
<polygon fill="#9a32cd" stroke="#9a32cd" points="143.27,-57.19 151.07,-64.35 149.44,-53.88 143.27,-57.19"/>
</a>
</g>
<text text-anchor="middle" x="171.5" y="-40" font-family="Helvetica,sans-Serif" font-size="10.00" fill="grey"> environment_</text>
</g>
<!-- Node2 -->
<g id="Node000002" class="node">
<title>Node2</title>
<g id="a_Node000002"><a xlink:href="class_harlinn_1_1_o_c_i_1_1_handle_base.xhtml" target="_top" xlink:title="Base class for OCI handle wrappers.">
<polygon fill="white" stroke="#666666" points="128,-156.5 0,-156.5 0,-137.5 128,-137.5 128,-156.5"/>
<text text-anchor="middle" x="64" y="-144.5" font-family="Helvetica,sans-Serif" font-size="10.00">Harlinn::OCI::HandleBase</text>
</a>
</g>
</g>
<!-- Node2&#45;&gt;Node1 -->
<g id="edge1_Node000001_Node000002" class="edge">
<title>Node2&#45;&gt;Node1</title>
<g id="a_edge1_Node000001_Node000002"><a xlink:title=" ">
<path fill="none" stroke="#63b8ff" d="M84.67,-130.38C103,-116.54 129.14,-96.79 144.15,-85.45"/>
<polygon fill="#63b8ff" stroke="#63b8ff" points="82.73,-127.46 76.86,-136.29 86.95,-133.05 82.73,-127.46"/>
</a>
</g>
</g>
<!-- Node2&#45;&gt;Node6 -->
<g id="edge6_Node000006_Node000002" class="edge">
<title>Node2&#45;&gt;Node6</title>
<g id="a_edge6_Node000006_Node000002"><a xlink:title=" ">
<path fill="none" stroke="#63b8ff" d="M67.89,-126.13C71.28,-109.81 76.64,-86.18 83,-66 88.3,-49.19 96.26,-30.23 101.01,-19.39"/>
<polygon fill="#63b8ff" stroke="#63b8ff" points="64.54,-125.03 65.99,-135.52 71.4,-126.41 64.54,-125.03"/>
</a>
</g>
</g>
<!-- Node3 -->
<g id="Node000003" class="node">
<title>Node3</title>
<g id="a_Node000003"><a xlink:title=" ">
<polygon fill="white" stroke="#666666" points="274,-162 146,-162 146,-132 274,-132 274,-162"/>
<text text-anchor="start" x="154" y="-150" font-family="Helvetica,sans-Serif" font-size="10.00">std::atomic&lt; Environment</text>
<text text-anchor="middle" x="210" y="-139" font-family="Helvetica,sans-Serif" font-size="10.00">Mode &gt;</text>
</a>
</g>
</g>
<!-- Node3&#45;&gt;Node1 -->
<g id="edge2_Node000001_Node000003" class="edge">
<title>Node3&#45;&gt;Node1</title>
<g id="a_edge2_Node000001_Node000003"><a xlink:title=" ">
<path fill="none" stroke="#9a32cd" stroke-dasharray="5,2" d="M191.93,-122.74C181.9,-109.83 170.01,-94.54 162.74,-85.18"/>
<polygon fill="#9a32cd" stroke="#9a32cd" points="188.98,-124.66 197.88,-130.4 194.51,-120.36 188.98,-124.66"/>
</a>
</g>
<text text-anchor="middle" x="241.5" y="-106" font-family="Helvetica,sans-Serif" font-size="10.00" fill="grey"> defaultEnvironmentMode_</text>
</g>
<!-- Node4 -->
<g id="Node000004" class="node">
<title>Node4</title>
<g id="a_Node000004"><a xlink:title=" ">
<polygon fill="white" stroke="#666666" points="254.5,-228 165.5,-228 165.5,-209 254.5,-209 254.5,-228"/>
<text text-anchor="middle" x="210" y="-216" font-family="Helvetica,sans-Serif" font-size="10.00">std::atomic&lt; T &gt;</text>
</a>
</g>
</g>
<!-- Node4&#45;&gt;Node3 -->
<g id="edge3_Node000003_Node000004" class="edge">
<title>Node4&#45;&gt;Node3</title>
<g id="a_edge3_Node000003_Node000004"><a xlink:title=" ">
<path fill="none" stroke="orange" stroke-dasharray="5,2" d="M210,-197.39C210,-186.15 210,-172.41 210,-162.27"/>
<polygon fill="orange" stroke="orange" points="206.5,-197.18 210,-207.18 213.5,-197.18 206.5,-197.18"/>
</a>
</g>
<text text-anchor="middle" x="259.5" y="-183" font-family="Helvetica,sans-Serif" font-size="10.00" fill="grey"> &lt; EnvironmentMode &gt;</text>
</g>
<!-- Node5 -->
<g id="Node000005" class="node">
<title>Node5</title>
<g id="a_Node000005"><a xlink:title=" ">
<polygon fill="white" stroke="#666666" points="224.5,-294 195.5,-294 195.5,-275 224.5,-275 224.5,-294"/>
<text text-anchor="middle" x="210" y="-282" font-family="Helvetica,sans-Serif" font-size="10.00">T</text>
</a>
</g>
</g>
<!-- Node5&#45;&gt;Node4 -->
<g id="edge4_Node000004_Node000005" class="edge">
<title>Node5&#45;&gt;Node4</title>
<g id="a_edge4_Node000004_Node000005"><a xlink:title=" ">
<path fill="none" stroke="#9a32cd" stroke-dasharray="5,2" d="M210,-263.18C210,-251.44 210,-237.27 210,-228.32"/>
<polygon fill="#9a32cd" stroke="#9a32cd" points="206.5,-263.09 210,-273.09 213.5,-263.09 206.5,-263.09"/>
</a>
</g>
<text text-anchor="middle" x="217.5" y="-249" font-family="Helvetica,sans-Serif" font-size="10.00" fill="grey"> ptr</text>
</g>
<!-- Node6&#45;&gt;Node1 -->
<g id="edge5_Node000001_Node000006" class="edge">
<title>Node6&#45;&gt;Node1</title>
<g id="a_edge5_Node000001_Node000006"><a xlink:title=" ">
<path fill="none" stroke="#9a32cd" stroke-dasharray="5,2" d="M101.82,-30.56C101.81,-36.55 102.82,-42.87 106,-48 110.87,-55.85 118.9,-61.51 127.12,-65.52"/>
<polygon fill="#9a32cd" stroke="#9a32cd" points="105.29,-31.04 102.75,-20.75 98.32,-30.38 105.29,-31.04"/>
</a>
</g>
<text text-anchor="middle" x="120" y="-40" font-family="Helvetica,sans-Serif" font-size="10.00" fill="grey"> error_</text>
</g>
</g>
</svg>
