<?xml version="1.0" encoding="UTF-8" standalone="no"?>
<!DOCTYPE svg PUBLIC "-//W3C//DTD SVG 1.1//EN"
 "http://www.w3.org/Graphics/SVG/1.1/DTD/svg11.dtd">
<!-- Generated by graphviz version 7.0.1 (20221109.1506)
 -->
<!-- Title: Harlinn::Windows::Graphics::D3D11::Resource Pages: 1 -->
<svg width="818pt" height="182pt"
 viewBox="0.00 0.00 818.00 182.00" xmlns="http://www.w3.org/2000/svg" xmlns:xlink="http://www.w3.org/1999/xlink">
<g id="graph0" class="graph" transform="scale(1 1) rotate(0) translate(4 178)">
<title>Harlinn::Windows::Graphics::D3D11::Resource</title>
<!-- Node1 -->
<g id="Node000001" class="node">
<title>Node1</title>
<g id="a_Node000001"><a xlink:title="A resource object provides common actions on all resources.">
<polygon fill="#999999" stroke="#666666" points="464,-102 327,-102 327,-72 464,-72 464,-102"/>
<text text-anchor="start" x="335" y="-90" font-family="Helvetica,sans-Serif" font-size="10.00">Harlinn::Windows::Graphics</text>
<text text-anchor="middle" x="395.5" y="-79" font-family="Helvetica,sans-Serif" font-size="10.00">::D3D11::Resource</text>
</a>
</g>
</g>
<!-- Node4 -->
<g id="Node000004" class="node">
<title>Node4</title>
<g id="a_Node000004"><a xlink:href="class_harlinn_1_1_windows_1_1_graphics_1_1_d3_d11_1_1_buffer.xhtml" target="_top" xlink:title="A buffer object accesses a buffer resource, which is unstructured memory. Buffers typically store ver...">
<polygon fill="white" stroke="#666666" points="637,-174 500,-174 500,-144 637,-144 637,-174"/>
<text text-anchor="start" x="508" y="-162" font-family="Helvetica,sans-Serif" font-size="10.00">Harlinn::Windows::Graphics</text>
<text text-anchor="middle" x="568.5" y="-151" font-family="Helvetica,sans-Serif" font-size="10.00">::D3D11::Buffer</text>
</a>
</g>
</g>
<!-- Node1&#45;&gt;Node4 -->
<g id="edge3_Node000001_Node000004" class="edge">
<title>Node1&#45;&gt;Node4</title>
<g id="a_edge3_Node000001_Node000004"><a xlink:title=" ">
<path fill="none" stroke="#63b8ff" d="M438.14,-107.38C456.87,-116.27 479.37,-126.57 500,-135 507.14,-137.92 514.78,-140.83 522.26,-143.57"/>
<polygon fill="#63b8ff" stroke="#63b8ff" points="439.77,-104.28 429.24,-103.13 436.75,-110.6 439.77,-104.28"/>
</a>
</g>
</g>
<!-- Node5 -->
<g id="Node000005" class="node">
<title>Node5</title>
<g id="a_Node000005"><a xlink:href="class_harlinn_1_1_windows_1_1_graphics_1_1_d3_d11_1_1_texture1_d.xhtml" target="_top" xlink:title="A 1D texture object accesses texel data, which is structured memory.">
<polygon fill="white" stroke="#666666" points="637,-126 500,-126 500,-96 637,-96 637,-126"/>
<text text-anchor="start" x="508" y="-114" font-family="Helvetica,sans-Serif" font-size="10.00">Harlinn::Windows::Graphics</text>
<text text-anchor="middle" x="568.5" y="-103" font-family="Helvetica,sans-Serif" font-size="10.00">::D3D11::Texture1D</text>
</a>
</g>
</g>
<!-- Node1&#45;&gt;Node5 -->
<g id="edge4_Node000001_Node000005" class="edge">
<title>Node1&#45;&gt;Node5</title>
<g id="a_edge4_Node000001_Node000005"><a xlink:title=" ">
<path fill="none" stroke="#63b8ff" d="M475.41,-98.08C483.48,-99.21 491.63,-100.35 499.57,-101.47"/>
<polygon fill="#63b8ff" stroke="#63b8ff" points="475.97,-94.62 465.58,-96.7 475,-101.55 475.97,-94.62"/>
</a>
</g>
</g>
<!-- Node6 -->
<g id="Node000006" class="node">
<title>Node6</title>
<g id="a_Node000006"><a xlink:href="class_harlinn_1_1_windows_1_1_graphics_1_1_d3_d11_1_1_texture2_d.xhtml" target="_top" xlink:title="A 2D texture object manages texel data, which is structured memory.">
<polygon fill="white" stroke="#666666" points="637,-78 500,-78 500,-48 637,-48 637,-78"/>
<text text-anchor="start" x="508" y="-66" font-family="Helvetica,sans-Serif" font-size="10.00">Harlinn::Windows::Graphics</text>
<text text-anchor="middle" x="568.5" y="-55" font-family="Helvetica,sans-Serif" font-size="10.00">::D3D11::Texture2D</text>
</a>
</g>
</g>
<!-- Node1&#45;&gt;Node6 -->
<g id="edge5_Node000001_Node000006" class="edge">
<title>Node1&#45;&gt;Node6</title>
<g id="a_edge5_Node000001_Node000006"><a xlink:title=" ">
<path fill="none" stroke="#63b8ff" d="M475.41,-75.92C483.48,-74.79 491.63,-73.65 499.57,-72.53"/>
<polygon fill="#63b8ff" stroke="#63b8ff" points="475,-72.45 465.58,-77.3 475.97,-79.38 475,-72.45"/>
</a>
</g>
</g>
<!-- Node8 -->
<g id="Node000008" class="node">
<title>Node8</title>
<g id="a_Node000008"><a xlink:href="class_harlinn_1_1_windows_1_1_graphics_1_1_d3_d11_1_1_texture3_d.xhtml" target="_top" xlink:title="A 3D texture object accesses texel data, which is structured memory.">
<polygon fill="white" stroke="#666666" points="637,-30 500,-30 500,0 637,0 637,-30"/>
<text text-anchor="start" x="508" y="-18" font-family="Helvetica,sans-Serif" font-size="10.00">Harlinn::Windows::Graphics</text>
<text text-anchor="middle" x="568.5" y="-7" font-family="Helvetica,sans-Serif" font-size="10.00">::D3D11::Texture3D</text>
</a>
</g>
</g>
<!-- Node1&#45;&gt;Node8 -->
<g id="edge7_Node000001_Node000008" class="edge">
<title>Node1&#45;&gt;Node8</title>
<g id="a_edge7_Node000001_Node000008"><a xlink:title=" ">
<path fill="none" stroke="#63b8ff" d="M438.14,-66.62C456.87,-57.73 479.37,-47.43 500,-39 507.14,-36.08 514.78,-33.17 522.26,-30.43"/>
<polygon fill="#63b8ff" stroke="#63b8ff" points="436.75,-63.4 429.24,-70.87 439.77,-69.72 436.75,-63.4"/>
</a>
</g>
</g>
<!-- Node2 -->
<g id="Node000002" class="node">
<title>Node2</title>
<g id="a_Node000002"><a xlink:href="class_harlinn_1_1_windows_1_1_graphics_1_1_d3_d11_1_1_device_child.xhtml" target="_top" xlink:title="A device&#45;child object accesses data used by a device.">
<polygon fill="white" stroke="#666666" points="291,-102 154,-102 154,-72 291,-72 291,-102"/>
<text text-anchor="start" x="162" y="-90" font-family="Helvetica,sans-Serif" font-size="10.00">Harlinn::Windows::Graphics</text>
<text text-anchor="middle" x="222.5" y="-79" font-family="Helvetica,sans-Serif" font-size="10.00">::D3D11::DeviceChild</text>
</a>
</g>
</g>
<!-- Node2&#45;&gt;Node1 -->
<g id="edge1_Node000001_Node000002" class="edge">
<title>Node2&#45;&gt;Node1</title>
<g id="a_edge1_Node000001_Node000002"><a xlink:title=" ">
<path fill="none" stroke="#63b8ff" d="M302.41,-87C310.48,-87 318.63,-87 326.57,-87"/>
<polygon fill="#63b8ff" stroke="#63b8ff" points="302.6,-83.5 292.6,-87 302.6,-90.5 302.6,-83.5"/>
</a>
</g>
</g>
<!-- Node3 -->
<g id="Node000003" class="node">
<title>Node3</title>
<g id="a_Node000003"><a xlink:href="class_harlinn_1_1_common_1_1_core_1_1_unknown.xhtml" target="_top" xlink:title=" ">
<polygon fill="white" stroke="#666666" points="118,-102 0,-102 0,-72 118,-72 118,-102"/>
<text text-anchor="start" x="8" y="-90" font-family="Helvetica,sans-Serif" font-size="10.00">Harlinn::Common::Core</text>
<text text-anchor="middle" x="59" y="-79" font-family="Helvetica,sans-Serif" font-size="10.00">::Unknown</text>
</a>
</g>
</g>
<!-- Node3&#45;&gt;Node2 -->
<g id="edge2_Node000002_Node000003" class="edge">
<title>Node3&#45;&gt;Node2</title>
<g id="a_edge2_Node000002_Node000003"><a xlink:title=" ">
<path fill="none" stroke="#63b8ff" d="M129.78,-87C137.7,-87 145.77,-87 153.67,-87"/>
<polygon fill="#63b8ff" stroke="#63b8ff" points="129.82,-83.5 119.82,-87 129.82,-90.5 129.82,-83.5"/>
</a>
</g>
</g>
<!-- Node7 -->
<g id="Node000007" class="node">
<title>Node7</title>
<g id="a_Node000007"><a xlink:href="class_harlinn_1_1_windows_1_1_graphics_1_1_d3_d11_1_1_texture2_d1.xhtml" target="_top" xlink:title="Represents texel data, which is structured memory.">
<polygon fill="white" stroke="#666666" points="810,-78 673,-78 673,-48 810,-48 810,-78"/>
<text text-anchor="start" x="681" y="-66" font-family="Helvetica,sans-Serif" font-size="10.00">Harlinn::Windows::Graphics</text>
<text text-anchor="middle" x="741.5" y="-55" font-family="Helvetica,sans-Serif" font-size="10.00">::D3D11::Texture2D1</text>
</a>
</g>
</g>
<!-- Node6&#45;&gt;Node7 -->
<g id="edge6_Node000006_Node000007" class="edge">
<title>Node6&#45;&gt;Node7</title>
<g id="a_edge6_Node000006_Node000007"><a xlink:title=" ">
<path fill="none" stroke="#63b8ff" d="M648.41,-63C656.48,-63 664.63,-63 672.57,-63"/>
<polygon fill="#63b8ff" stroke="#63b8ff" points="648.6,-59.5 638.6,-63 648.6,-66.5 648.6,-59.5"/>
</a>
</g>
</g>
<!-- Node9 -->
<g id="Node000009" class="node">
<title>Node9</title>
<g id="a_Node000009"><a xlink:href="class_harlinn_1_1_windows_1_1_graphics_1_1_d3_d11_1_1_texture3_d1.xhtml" target="_top" xlink:title="A 3D texture object represents texel data, which is structured memory.">
<polygon fill="white" stroke="#666666" points="810,-30 673,-30 673,0 810,0 810,-30"/>
<text text-anchor="start" x="681" y="-18" font-family="Helvetica,sans-Serif" font-size="10.00">Harlinn::Windows::Graphics</text>
<text text-anchor="middle" x="741.5" y="-7" font-family="Helvetica,sans-Serif" font-size="10.00">::D3D11::Texture3D1</text>
</a>
</g>
</g>
<!-- Node8&#45;&gt;Node9 -->
<g id="edge8_Node000008_Node000009" class="edge">
<title>Node8&#45;&gt;Node9</title>
<g id="a_edge8_Node000008_Node000009"><a xlink:title=" ">
<path fill="none" stroke="#63b8ff" d="M648.41,-15C656.48,-15 664.63,-15 672.57,-15"/>
<polygon fill="#63b8ff" stroke="#63b8ff" points="648.6,-11.5 638.6,-15 648.6,-18.5 648.6,-11.5"/>
</a>
</g>
</g>
</g>
</svg>
