<?xml version="1.0" encoding="UTF-8" standalone="no"?>
<!DOCTYPE svg PUBLIC "-//W3C//DTD SVG 1.1//EN"
 "http://www.w3.org/Graphics/SVG/1.1/DTD/svg11.dtd">
<!-- Generated by graphviz version 7.0.1 (20221109.1506)
 -->
<!-- Title: Harlinn::Windows::Graphics::D3D12::CommandList Pages: 1 -->
<svg width="2082pt" height="216pt"
 viewBox="0.00 0.00 2082.00 215.50" xmlns="http://www.w3.org/2000/svg" xmlns:xlink="http://www.w3.org/1999/xlink">
<g id="graph0" class="graph" transform="scale(1 1) rotate(0) translate(4 211.5)">
<title>Harlinn::Windows::Graphics::D3D12::CommandList</title>
<!-- Node1 -->
<g id="Node000001" class="node">
<title>Node1</title>
<g id="a_Node000001"><a xlink:title="The base class for the GraphicsCommandList class. It represents an ordered set of commands that the G...">
<polygon fill="#999999" stroke="#666666" points="637,-123.5 500,-123.5 500,-93.5 637,-93.5 637,-123.5"/>
<text text-anchor="start" x="508" y="-111.5" font-family="Helvetica,sans-Serif" font-size="10.00">Harlinn::Windows::Graphics</text>
<text text-anchor="middle" x="568.5" y="-100.5" font-family="Helvetica,sans-Serif" font-size="10.00">::D3D12::CommandList</text>
</a>
</g>
</g>
<!-- Node5 -->
<g id="Node000005" class="node">
<title>Node5</title>
<g id="a_Node000005"><a xlink:href="class_harlinn_1_1_windows_1_1_graphics_1_1_d3_d12_1_1_graphics_command_list.html" target="_top" xlink:title="Encapsulates a list of graphics commands for rendering. Includes APIs for instrumenting the command l...">
<polygon fill="white" stroke="#666666" points="841,-207.5 684,-207.5 684,-177.5 841,-177.5 841,-207.5"/>
<text text-anchor="start" x="692" y="-195.5" font-family="Helvetica,sans-Serif" font-size="10.00">Harlinn::Windows::Graphics</text>
<text text-anchor="middle" x="762.5" y="-184.5" font-family="Helvetica,sans-Serif" font-size="10.00">::D3D12::GraphicsCommandList</text>
</a>
</g>
</g>
<!-- Node1&#45;&gt;Node5 -->
<g id="edge4_Node000001_Node000005" class="edge">
<title>Node1&#45;&gt;Node5</title>
<g id="a_edge4_Node000001_Node000005"><a xlink:title=" ">
<path fill="none" stroke="#63b8ff" d="M601.52,-129.99C621.42,-142.59 647.91,-158.04 673,-168.5 680.64,-171.69 688.83,-174.57 697.03,-177.14"/>
<polygon fill="#63b8ff" stroke="#63b8ff" points="603.61,-127.17 593.31,-124.7 599.82,-133.06 603.61,-127.17"/>
</a>
</g>
</g>
<!-- Node12 -->
<g id="Node000012" class="node">
<title>Node12</title>
<g id="a_Node000012"><a xlink:href="class_harlinn_1_1_windows_1_1_graphics_1_1_d3_d12_1_1_video_1_1_d3_d12_video_decode_command_list.html" target="_top" xlink:title="Encapsulates a list of graphics commands for video decoding.">
<polygon fill="white" stroke="#666666" points="850.5,-159 674.5,-159 674.5,-118 850.5,-118 850.5,-159"/>
<text text-anchor="start" x="682.5" y="-147" font-family="Helvetica,sans-Serif" font-size="10.00">Harlinn::Windows::Graphics</text>
<text text-anchor="start" x="682.5" y="-136" font-family="Helvetica,sans-Serif" font-size="10.00">::D3D12::Video::D3D12VideoDecode</text>
<text text-anchor="middle" x="762.5" y="-125" font-family="Helvetica,sans-Serif" font-size="10.00">CommandList</text>
</a>
</g>
</g>
<!-- Node1&#45;&gt;Node12 -->
<g id="edge11_Node000001_Node000012" class="edge">
<title>Node1&#45;&gt;Node12</title>
<g id="a_edge11_Node000001_Node000012"><a xlink:title=" ">
<path fill="none" stroke="#63b8ff" d="M648.75,-120.88C657.12,-122.19 665.67,-123.53 674.12,-124.85"/>
<polygon fill="#63b8ff" stroke="#63b8ff" points="649.38,-117.44 638.96,-119.35 648.3,-124.35 649.38,-117.44"/>
</a>
</g>
</g>
<!-- Node15 -->
<g id="Node000015" class="node">
<title>Node15</title>
<g id="a_Node000015"><a xlink:href="class_harlinn_1_1_windows_1_1_graphics_1_1_d3_d12_1_1_video_1_1_d3_d12_video_encode_command_list.html" target="_top" xlink:title="Encapsulates a list of graphics commands for video encoding, including motion estimation.">
<polygon fill="white" stroke="#666666" points="850.5,-100 674.5,-100 674.5,-59 850.5,-59 850.5,-100"/>
<text text-anchor="start" x="682.5" y="-88" font-family="Helvetica,sans-Serif" font-size="10.00">Harlinn::Windows::Graphics</text>
<text text-anchor="start" x="682.5" y="-77" font-family="Helvetica,sans-Serif" font-size="10.00">::D3D12::Video::D3D12VideoEncode</text>
<text text-anchor="middle" x="762.5" y="-66" font-family="Helvetica,sans-Serif" font-size="10.00">CommandList</text>
</a>
</g>
</g>
<!-- Node1&#45;&gt;Node15 -->
<g id="edge14_Node000001_Node000015" class="edge">
<title>Node1&#45;&gt;Node15</title>
<g id="a_edge14_Node000001_Node000015"><a xlink:title=" ">
<path fill="none" stroke="#63b8ff" d="M648.75,-96.53C657.12,-95.27 665.67,-93.97 674.12,-92.7"/>
<polygon fill="#63b8ff" stroke="#63b8ff" points="648.32,-93.05 638.96,-98.01 649.37,-99.98 648.32,-93.05"/>
</a>
</g>
</g>
<!-- Node18 -->
<g id="Node000018" class="node">
<title>Node18</title>
<g id="a_Node000018"><a xlink:href="class_harlinn_1_1_windows_1_1_graphics_1_1_d3_d12_1_1_video_1_1_d3_d12_video_process_command_list.html" target="_top" xlink:title="Encapsulates a list of graphics commands for video processing.">
<polygon fill="white" stroke="#666666" points="852,-41 673,-41 673,0 852,0 852,-41"/>
<text text-anchor="start" x="681" y="-29" font-family="Helvetica,sans-Serif" font-size="10.00">Harlinn::Windows::Graphics</text>
<text text-anchor="start" x="681" y="-18" font-family="Helvetica,sans-Serif" font-size="10.00">::D3D12::Video::D3D12VideoProcess</text>
<text text-anchor="middle" x="762.5" y="-7" font-family="Helvetica,sans-Serif" font-size="10.00">CommandList</text>
</a>
</g>
</g>
<!-- Node1&#45;&gt;Node18 -->
<g id="edge17_Node000001_Node000018" class="edge">
<title>Node1&#45;&gt;Node18</title>
<g id="a_edge17_Node000001_Node000018"><a xlink:title=" ">
<path fill="none" stroke="#63b8ff" d="M602.83,-87.21C622.69,-75.12 648.69,-60.28 673,-49.5 679.36,-46.68 686.07,-43.99 692.85,-41.47"/>
<polygon fill="#63b8ff" stroke="#63b8ff" points="601,-84.23 594.33,-92.46 604.68,-90.18 601,-84.23"/>
</a>
</g>
</g>
<!-- Node2 -->
<g id="Node000002" class="node">
<title>Node2</title>
<g id="a_Node000002"><a xlink:href="class_harlinn_1_1_windows_1_1_graphics_1_1_d3_d12_1_1_device_child.html" target="_top" xlink:title="Adds the ability to get the device used to create it.">
<polygon fill="white" stroke="#666666" points="464,-123.5 327,-123.5 327,-93.5 464,-93.5 464,-123.5"/>
<text text-anchor="start" x="335" y="-111.5" font-family="Helvetica,sans-Serif" font-size="10.00">Harlinn::Windows::Graphics</text>
<text text-anchor="middle" x="395.5" y="-100.5" font-family="Helvetica,sans-Serif" font-size="10.00">::D3D12::DeviceChild</text>
</a>
</g>
</g>
<!-- Node2&#45;&gt;Node1 -->
<g id="edge1_Node000001_Node000002" class="edge">
<title>Node2&#45;&gt;Node1</title>
<g id="a_edge1_Node000001_Node000002"><a xlink:title=" ">
<path fill="none" stroke="#63b8ff" d="M475.41,-108.5C483.48,-108.5 491.63,-108.5 499.57,-108.5"/>
<polygon fill="#63b8ff" stroke="#63b8ff" points="475.6,-105 465.6,-108.5 475.6,-112 475.6,-105"/>
</a>
</g>
</g>
<!-- Node3 -->
<g id="Node000003" class="node">
<title>Node3</title>
<g id="a_Node000003"><a xlink:href="class_harlinn_1_1_windows_1_1_graphics_1_1_d3_d12_1_1_object.html" target="_top" xlink:title="A base class from which Device and DeviceChild inherit from. It provides methods to associate private...">
<polygon fill="white" stroke="#666666" points="291,-123.5 154,-123.5 154,-93.5 291,-93.5 291,-123.5"/>
<text text-anchor="start" x="162" y="-111.5" font-family="Helvetica,sans-Serif" font-size="10.00">Harlinn::Windows::Graphics</text>
<text text-anchor="middle" x="222.5" y="-100.5" font-family="Helvetica,sans-Serif" font-size="10.00">::D3D12::Object</text>
</a>
</g>
</g>
<!-- Node3&#45;&gt;Node2 -->
<g id="edge2_Node000002_Node000003" class="edge">
<title>Node3&#45;&gt;Node2</title>
<g id="a_edge2_Node000002_Node000003"><a xlink:title=" ">
<path fill="none" stroke="#63b8ff" d="M302.41,-108.5C310.48,-108.5 318.63,-108.5 326.57,-108.5"/>
<polygon fill="#63b8ff" stroke="#63b8ff" points="302.6,-105 292.6,-108.5 302.6,-112 302.6,-105"/>
</a>
</g>
</g>
<!-- Node4 -->
<g id="Node000004" class="node">
<title>Node4</title>
<g id="a_Node000004"><a xlink:href="class_harlinn_1_1_common_1_1_core_1_1_unknown.html" target="_top" xlink:title="Base class for COM interface wrappers.">
<polygon fill="white" stroke="#666666" points="118,-123.5 0,-123.5 0,-93.5 118,-93.5 118,-123.5"/>
<text text-anchor="start" x="8" y="-111.5" font-family="Helvetica,sans-Serif" font-size="10.00">Harlinn::Common::Core</text>
<text text-anchor="middle" x="59" y="-100.5" font-family="Helvetica,sans-Serif" font-size="10.00">::Unknown</text>
</a>
</g>
</g>
<!-- Node4&#45;&gt;Node3 -->
<g id="edge3_Node000003_Node000004" class="edge">
<title>Node4&#45;&gt;Node3</title>
<g id="a_edge3_Node000003_Node000004"><a xlink:title=" ">
<path fill="none" stroke="#63b8ff" d="M129.78,-108.5C137.7,-108.5 145.77,-108.5 153.67,-108.5"/>
<polygon fill="#63b8ff" stroke="#63b8ff" points="129.82,-105 119.82,-108.5 129.82,-112 129.82,-105"/>
</a>
</g>
</g>
<!-- Node6 -->
<g id="Node000006" class="node">
<title>Node6</title>
<g id="a_Node000006"><a xlink:href="class_harlinn_1_1_windows_1_1_graphics_1_1_d3_d12_1_1_graphics_command_list1.html" target="_top" xlink:title="Encapsulates a list of graphics commands for rendering, extending the GraphicsCommandList class to su...">
<polygon fill="white" stroke="#666666" points="1058.5,-207.5 896.5,-207.5 896.5,-177.5 1058.5,-177.5 1058.5,-207.5"/>
<text text-anchor="start" x="904.5" y="-195.5" font-family="Helvetica,sans-Serif" font-size="10.00">Harlinn::Windows::Graphics</text>
<text text-anchor="middle" x="977.5" y="-184.5" font-family="Helvetica,sans-Serif" font-size="10.00">::D3D12::GraphicsCommandList1</text>
</a>
</g>
</g>
<!-- Node5&#45;&gt;Node6 -->
<g id="edge5_Node000005_Node000006" class="edge">
<title>Node5&#45;&gt;Node6</title>
<g id="a_edge5_Node000005_Node000006"><a xlink:title=" ">
<path fill="none" stroke="#63b8ff" d="M852.72,-192.5C867.09,-192.5 881.9,-192.5 896.05,-192.5"/>
<polygon fill="#63b8ff" stroke="#63b8ff" points="852.82,-189 842.82,-192.5 852.82,-196 852.82,-189"/>
</a>
</g>
</g>
<!-- Node7 -->
<g id="Node000007" class="node">
<title>Node7</title>
<g id="a_Node000007"><a xlink:href="class_harlinn_1_1_windows_1_1_graphics_1_1_d3_d12_1_1_graphics_command_list2.html" target="_top" xlink:title="Encapsulates a list of graphics commands for rendering, extending the GraphicsCommandList1 class to s...">
<polygon fill="white" stroke="#666666" points="1273.5,-207.5 1111.5,-207.5 1111.5,-177.5 1273.5,-177.5 1273.5,-207.5"/>
<text text-anchor="start" x="1119.5" y="-195.5" font-family="Helvetica,sans-Serif" font-size="10.00">Harlinn::Windows::Graphics</text>
<text text-anchor="middle" x="1192.5" y="-184.5" font-family="Helvetica,sans-Serif" font-size="10.00">::D3D12::GraphicsCommandList2</text>
</a>
</g>
</g>
<!-- Node6&#45;&gt;Node7 -->
<g id="edge6_Node000006_Node000007" class="edge">
<title>Node6&#45;&gt;Node7</title>
<g id="a_edge6_Node000006_Node000007"><a xlink:title=" ">
<path fill="none" stroke="#63b8ff" d="M1070.14,-192.5C1083.85,-192.5 1097.9,-192.5 1111.35,-192.5"/>
<polygon fill="#63b8ff" stroke="#63b8ff" points="1070.24,-189 1060.24,-192.5 1070.24,-196 1070.24,-189"/>
</a>
</g>
</g>
<!-- Node8 -->
<g id="Node000008" class="node">
<title>Node8</title>
<g id="a_Node000008"><a xlink:href="class_harlinn_1_1_windows_1_1_graphics_1_1_d3_d12_1_1_graphics_command_list3.html" target="_top" xlink:title="Encapsulates a list of graphics commands for rendering.">
<polygon fill="white" stroke="#666666" points="1480,-207.5 1318,-207.5 1318,-177.5 1480,-177.5 1480,-207.5"/>
<text text-anchor="start" x="1326" y="-195.5" font-family="Helvetica,sans-Serif" font-size="10.00">Harlinn::Windows::Graphics</text>
<text text-anchor="middle" x="1399" y="-184.5" font-family="Helvetica,sans-Serif" font-size="10.00">::D3D12::GraphicsCommandList3</text>
</a>
</g>
</g>
<!-- Node7&#45;&gt;Node8 -->
<g id="edge7_Node000007_Node000008" class="edge">
<title>Node7&#45;&gt;Node8</title>
<g id="a_edge7_Node000007_Node000008"><a xlink:title=" ">
<path fill="none" stroke="#63b8ff" d="M1285,-192.5C1295.89,-192.5 1306.94,-192.5 1317.66,-192.5"/>
<polygon fill="#63b8ff" stroke="#63b8ff" points="1285.25,-189 1275.25,-192.5 1285.25,-196 1285.25,-189"/>
</a>
</g>
</g>
<!-- Node9 -->
<g id="Node000009" class="node">
<title>Node9</title>
<g id="a_Node000009"><a xlink:href="class_harlinn_1_1_windows_1_1_graphics_1_1_d3_d12_1_1_graphics_command_list4.html" target="_top" xlink:title="Encapsulates a list of graphics commands for rendering, extending the GraphicsCommandList3 class to s...">
<polygon fill="white" stroke="#666666" points="1678,-207.5 1516,-207.5 1516,-177.5 1678,-177.5 1678,-207.5"/>
<text text-anchor="start" x="1524" y="-195.5" font-family="Helvetica,sans-Serif" font-size="10.00">Harlinn::Windows::Graphics</text>
<text text-anchor="middle" x="1597" y="-184.5" font-family="Helvetica,sans-Serif" font-size="10.00">::D3D12::GraphicsCommandList4</text>
</a>
</g>
</g>
<!-- Node8&#45;&gt;Node9 -->
<g id="edge8_Node000008_Node000009" class="edge">
<title>Node8&#45;&gt;Node9</title>
<g id="a_edge8_Node000008_Node000009"><a xlink:title=" ">
<path fill="none" stroke="#63b8ff" d="M1491.54,-192.5C1499.55,-192.5 1507.61,-192.5 1515.52,-192.5"/>
<polygon fill="#63b8ff" stroke="#63b8ff" points="1491.8,-189 1481.8,-192.5 1491.8,-196 1491.8,-189"/>
</a>
</g>
</g>
<!-- Node10 -->
<g id="Node000010" class="node">
<title>Node10</title>
<g id="a_Node000010"><a xlink:href="class_harlinn_1_1_windows_1_1_graphics_1_1_d3_d12_1_1_graphics_command_list5.html" target="_top" xlink:title="Encapsulates a list of graphics commands for rendering, extending the GraphicsCommandList4 class to s...">
<polygon fill="white" stroke="#666666" points="1876,-207.5 1714,-207.5 1714,-177.5 1876,-177.5 1876,-207.5"/>
<text text-anchor="start" x="1722" y="-195.5" font-family="Helvetica,sans-Serif" font-size="10.00">Harlinn::Windows::Graphics</text>
<text text-anchor="middle" x="1795" y="-184.5" font-family="Helvetica,sans-Serif" font-size="10.00">::D3D12::GraphicsCommandList5</text>
</a>
</g>
</g>
<!-- Node9&#45;&gt;Node10 -->
<g id="edge9_Node000009_Node000010" class="edge">
<title>Node9&#45;&gt;Node10</title>
<g id="a_edge9_Node000009_Node000010"><a xlink:title=" ">
<path fill="none" stroke="#63b8ff" d="M1689.54,-192.5C1697.55,-192.5 1705.61,-192.5 1713.52,-192.5"/>
<polygon fill="#63b8ff" stroke="#63b8ff" points="1689.8,-189 1679.8,-192.5 1689.8,-196 1689.8,-189"/>
</a>
</g>
</g>
<!-- Node11 -->
<g id="Node000011" class="node">
<title>Node11</title>
<g id="a_Node000011"><a xlink:href="class_harlinn_1_1_windows_1_1_graphics_1_1_d3_d12_1_1_graphics_command_list6.html" target="_top" xlink:title=" ">
<polygon fill="white" stroke="#666666" points="2074,-207.5 1912,-207.5 1912,-177.5 2074,-177.5 2074,-207.5"/>
<text text-anchor="start" x="1920" y="-195.5" font-family="Helvetica,sans-Serif" font-size="10.00">Harlinn::Windows::Graphics</text>
<text text-anchor="middle" x="1993" y="-184.5" font-family="Helvetica,sans-Serif" font-size="10.00">::D3D12::GraphicsCommandList6</text>
</a>
</g>
</g>
<!-- Node10&#45;&gt;Node11 -->
<g id="edge10_Node000010_Node000011" class="edge">
<title>Node10&#45;&gt;Node11</title>
<g id="a_edge10_Node000010_Node000011"><a xlink:title=" ">
<path fill="none" stroke="#63b8ff" d="M1887.54,-192.5C1895.55,-192.5 1903.61,-192.5 1911.52,-192.5"/>
<polygon fill="#63b8ff" stroke="#63b8ff" points="1887.8,-189 1877.8,-192.5 1887.8,-196 1887.8,-189"/>
</a>
</g>
</g>
<!-- Node13 -->
<g id="Node000013" class="node">
<title>Node13</title>
<g id="a_Node000013"><a xlink:href="class_harlinn_1_1_windows_1_1_graphics_1_1_d3_d12_1_1_video_1_1_d3_d12_video_decode_command_list1.html" target="_top" xlink:title="Encapsulates a list of graphics commands for video decoding. This class inherits from D3D12VideoDecod...">
<polygon fill="white" stroke="#666666" points="1065.5,-159 889.5,-159 889.5,-118 1065.5,-118 1065.5,-159"/>
<text text-anchor="start" x="897.5" y="-147" font-family="Helvetica,sans-Serif" font-size="10.00">Harlinn::Windows::Graphics</text>
<text text-anchor="start" x="897.5" y="-136" font-family="Helvetica,sans-Serif" font-size="10.00">::D3D12::Video::D3D12VideoDecode</text>
<text text-anchor="middle" x="977.5" y="-125" font-family="Helvetica,sans-Serif" font-size="10.00">CommandList1</text>
</a>
</g>
</g>
<!-- Node12&#45;&gt;Node13 -->
<g id="edge12_Node000012_Node000013" class="edge">
<title>Node12&#45;&gt;Node13</title>
<g id="a_edge12_Node000012_Node000013"><a xlink:title=" ">
<path fill="none" stroke="#63b8ff" d="M862.08,-138.5C871.08,-138.5 880.15,-138.5 889.04,-138.5"/>
<polygon fill="#63b8ff" stroke="#63b8ff" points="862.26,-135 852.26,-138.5 862.26,-142 862.26,-135"/>
</a>
</g>
</g>
<!-- Node14 -->
<g id="Node000014" class="node">
<title>Node14</title>
<g id="a_Node000014"><a xlink:href="class_harlinn_1_1_windows_1_1_graphics_1_1_d3_d12_1_1_video_1_1_d3_d12_video_decode_command_list2.html" target="_top" xlink:title="Encapsulates a list of graphics commands for video decoding. This class inherits from D3D12VideoDecod...">
<polygon fill="white" stroke="#666666" points="1280.5,-159 1104.5,-159 1104.5,-118 1280.5,-118 1280.5,-159"/>
<text text-anchor="start" x="1112.5" y="-147" font-family="Helvetica,sans-Serif" font-size="10.00">Harlinn::Windows::Graphics</text>
<text text-anchor="start" x="1112.5" y="-136" font-family="Helvetica,sans-Serif" font-size="10.00">::D3D12::Video::D3D12VideoDecode</text>
<text text-anchor="middle" x="1192.5" y="-125" font-family="Helvetica,sans-Serif" font-size="10.00">CommandList2</text>
</a>
</g>
</g>
<!-- Node13&#45;&gt;Node14 -->
<g id="edge13_Node000013_Node000014" class="edge">
<title>Node13&#45;&gt;Node14</title>
<g id="a_edge13_Node000013_Node000014"><a xlink:title=" ">
<path fill="none" stroke="#63b8ff" d="M1077.08,-138.5C1086.08,-138.5 1095.15,-138.5 1104.04,-138.5"/>
<polygon fill="#63b8ff" stroke="#63b8ff" points="1077.26,-135 1067.26,-138.5 1077.26,-142 1077.26,-135"/>
</a>
</g>
</g>
<!-- Node16 -->
<g id="Node000016" class="node">
<title>Node16</title>
<g id="a_Node000016"><a xlink:href="class_harlinn_1_1_windows_1_1_graphics_1_1_d3_d12_1_1_video_1_1_d3_d12_video_encode_command_list1.html" target="_top" xlink:title="Encapsulates a list of graphics commands for video encoding. This class inherits from D3D12VideoEncod...">
<polygon fill="white" stroke="#666666" points="1065.5,-100 889.5,-100 889.5,-59 1065.5,-59 1065.5,-100"/>
<text text-anchor="start" x="897.5" y="-88" font-family="Helvetica,sans-Serif" font-size="10.00">Harlinn::Windows::Graphics</text>
<text text-anchor="start" x="897.5" y="-77" font-family="Helvetica,sans-Serif" font-size="10.00">::D3D12::Video::D3D12VideoEncode</text>
<text text-anchor="middle" x="977.5" y="-66" font-family="Helvetica,sans-Serif" font-size="10.00">CommandList1</text>
</a>
</g>
</g>
<!-- Node15&#45;&gt;Node16 -->
<g id="edge15_Node000015_Node000016" class="edge">
<title>Node15&#45;&gt;Node16</title>
<g id="a_edge15_Node000015_Node000016"><a xlink:title=" ">
<path fill="none" stroke="#63b8ff" d="M862.08,-79.5C871.08,-79.5 880.15,-79.5 889.04,-79.5"/>
<polygon fill="#63b8ff" stroke="#63b8ff" points="862.26,-76 852.26,-79.5 862.26,-83 862.26,-76"/>
</a>
</g>
</g>
<!-- Node17 -->
<g id="Node000017" class="node">
<title>Node17</title>
<g id="a_Node000017"><a xlink:href="class_harlinn_1_1_windows_1_1_graphics_1_1_d3_d12_1_1_video_1_1_d3_d12_video_encode_command_list2.html" target="_top" xlink:title="Encapsulates a list of graphics commands for video encoding. This class inherits from D3D12VideoEncod...">
<polygon fill="white" stroke="#666666" points="1280.5,-100 1104.5,-100 1104.5,-59 1280.5,-59 1280.5,-100"/>
<text text-anchor="start" x="1112.5" y="-88" font-family="Helvetica,sans-Serif" font-size="10.00">Harlinn::Windows::Graphics</text>
<text text-anchor="start" x="1112.5" y="-77" font-family="Helvetica,sans-Serif" font-size="10.00">::D3D12::Video::D3D12VideoEncode</text>
<text text-anchor="middle" x="1192.5" y="-66" font-family="Helvetica,sans-Serif" font-size="10.00">CommandList2</text>
</a>
</g>
</g>
<!-- Node16&#45;&gt;Node17 -->
<g id="edge16_Node000016_Node000017" class="edge">
<title>Node16&#45;&gt;Node17</title>
<g id="a_edge16_Node000016_Node000017"><a xlink:title=" ">
<path fill="none" stroke="#63b8ff" d="M1077.08,-79.5C1086.08,-79.5 1095.15,-79.5 1104.04,-79.5"/>
<polygon fill="#63b8ff" stroke="#63b8ff" points="1077.26,-76 1067.26,-79.5 1077.26,-83 1077.26,-76"/>
</a>
</g>
</g>
<!-- Node19 -->
<g id="Node000019" class="node">
<title>Node19</title>
<g id="a_Node000019"><a xlink:href="class_harlinn_1_1_windows_1_1_graphics_1_1_d3_d12_1_1_video_1_1_d3_d12_video_process_command_list1.html" target="_top" xlink:title="Encapsulates a list of graphics commands for video processing. Adds the ProcessFrames1 method which s...">
<polygon fill="white" stroke="#666666" points="1067,-41 888,-41 888,0 1067,0 1067,-41"/>
<text text-anchor="start" x="896" y="-29" font-family="Helvetica,sans-Serif" font-size="10.00">Harlinn::Windows::Graphics</text>
<text text-anchor="start" x="896" y="-18" font-family="Helvetica,sans-Serif" font-size="10.00">::D3D12::Video::D3D12VideoProcess</text>
<text text-anchor="middle" x="977.5" y="-7" font-family="Helvetica,sans-Serif" font-size="10.00">CommandList1</text>
</a>
</g>
</g>
<!-- Node18&#45;&gt;Node19 -->
<g id="edge18_Node000018_Node000019" class="edge">
<title>Node18&#45;&gt;Node19</title>
<g id="a_edge18_Node000018_Node000019"><a xlink:title=" ">
<path fill="none" stroke="#63b8ff" d="M863.55,-20.5C871.55,-20.5 879.6,-20.5 887.51,-20.5"/>
<polygon fill="#63b8ff" stroke="#63b8ff" points="863.8,-17 853.8,-20.5 863.8,-24 863.8,-17"/>
</a>
</g>
</g>
<!-- Node20 -->
<g id="Node000020" class="node">
<title>Node20</title>
<g id="a_Node000020"><a xlink:href="class_harlinn_1_1_windows_1_1_graphics_1_1_d3_d12_1_1_video_1_1_d3_d12_video_process_command_list2.html" target="_top" xlink:title="Encapsulates a list of graphics commands for video processing. This class inherits from D3D12VideoPro...">
<polygon fill="white" stroke="#666666" points="1282,-41 1103,-41 1103,0 1282,0 1282,-41"/>
<text text-anchor="start" x="1111" y="-29" font-family="Helvetica,sans-Serif" font-size="10.00">Harlinn::Windows::Graphics</text>
<text text-anchor="start" x="1111" y="-18" font-family="Helvetica,sans-Serif" font-size="10.00">::D3D12::Video::D3D12VideoProcess</text>
<text text-anchor="middle" x="1192.5" y="-7" font-family="Helvetica,sans-Serif" font-size="10.00">CommandList2</text>
</a>
</g>
</g>
<!-- Node19&#45;&gt;Node20 -->
<g id="edge19_Node000019_Node000020" class="edge">
<title>Node19&#45;&gt;Node20</title>
<g id="a_edge19_Node000019_Node000020"><a xlink:title=" ">
<path fill="none" stroke="#63b8ff" d="M1078.55,-20.5C1086.55,-20.5 1094.6,-20.5 1102.51,-20.5"/>
<polygon fill="#63b8ff" stroke="#63b8ff" points="1078.8,-17 1068.8,-20.5 1078.8,-24 1078.8,-17"/>
</a>
</g>
</g>
</g>
</svg>
