<?xml version="1.0" encoding="UTF-8" standalone="no"?>
<!DOCTYPE svg PUBLIC "-//W3C//DTD SVG 1.1//EN"
 "http://www.w3.org/Graphics/SVG/1.1/DTD/svg11.dtd">
<!-- Generated by graphviz version 7.0.1 (20221109.1506)
 -->
<!-- Title: Harlinn::OCI::Define Pages: 1 -->
<svg width="1618pt" height="562pt"
 viewBox="0.00 0.00 1618.00 561.60" xmlns="http://www.w3.org/2000/svg" xmlns:xlink="http://www.w3.org/1999/xlink">
<g id="graph0" class="graph" transform="scale(1 1) rotate(0) translate(4 557.6)">
<title>Harlinn::OCI::Define</title>
<!-- Node1 -->
<g id="Node000001" class="node">
<title>Node1</title>
<g id="a_Node000001"><a xlink:title="Define, base class for defines for use with the DataReader class.">
<polygon fill="#999999" stroke="#666666" points="429,-292 327,-292 327,-273 429,-273 429,-292"/>
<text text-anchor="middle" x="378" y="-280" font-family="Helvetica,sans-Serif" font-size="10.00">Harlinn::OCI::Define</text>
</a>
</g>
</g>
<!-- Node4 -->
<g id="Node000004" class="node">
<title>Node4</title>
<g id="a_Node000004"><a xlink:href="class_harlinn_1_1_o_c_i_1_1_fixed_binary_define.html" target="_top" xlink:title=" ">
<polygon fill="white" stroke="#666666" points="849,-535.5 722,-535.5 722,-505.5 849,-505.5 849,-535.5"/>
<text text-anchor="start" x="730" y="-523.5" font-family="Helvetica,sans-Serif" font-size="10.00">Harlinn::OCI::FixedBinary</text>
<text text-anchor="middle" x="785.5" y="-512.5" font-family="Helvetica,sans-Serif" font-size="10.00">Define&lt; sizeof(Guid)&gt;</text>
</a>
</g>
</g>
<!-- Node1&#45;&gt;Node4 -->
<g id="edge3_Node000001_Node000004" class="edge">
<title>Node1&#45;&gt;Node4</title>
<g id="a_edge3_Node000001_Node000004"><a xlink:title=" ">
<path fill="none" stroke="#63b8ff" d="M379.59,-303.74C382.17,-351.1 395.77,-465.14 466,-515.5 545.1,-572.22 665.98,-553.31 733.8,-535.96"/>
<polygon fill="#63b8ff" stroke="#63b8ff" points="383.09,-303.85 379.18,-294.01 376.1,-304.14 383.09,-303.85"/>
</a>
</g>
</g>
<!-- Node6 -->
<g id="Node000006" class="node">
<title>Node6</title>
<g id="a_Node000006"><a xlink:href="class_harlinn_1_1_o_c_i_1_1_binary_define.html" target="_top" xlink:title="BinaryDefine.">
<polygon fill="white" stroke="#666666" points="603.5,-458 473.5,-458 473.5,-439 603.5,-439 603.5,-458"/>
<text text-anchor="middle" x="538.5" y="-446" font-family="Helvetica,sans-Serif" font-size="10.00">Harlinn::OCI::BinaryDefine</text>
</a>
</g>
</g>
<!-- Node1&#45;&gt;Node6 -->
<g id="edge5_Node000001_Node000006" class="edge">
<title>Node1&#45;&gt;Node6</title>
<g id="a_edge5_Node000001_Node000006"><a xlink:title=" ">
<path fill="none" stroke="#63b8ff" d="M385.28,-303C396.25,-335.25 422.01,-397.54 466,-430.5 470.3,-433.72 475.12,-436.37 480.16,-438.55"/>
<polygon fill="#63b8ff" stroke="#63b8ff" points="388.67,-302.11 382.26,-293.68 382.01,-304.27 388.67,-302.11"/>
</a>
</g>
</g>
<!-- Node7 -->
<g id="Node000007" class="node">
<title>Node7</title>
<g id="a_Node000007"><a xlink:href="class_harlinn_1_1_o_c_i_1_1_c_string_define.html" target="_top" xlink:title="CStringDefine.">
<polygon fill="white" stroke="#666666" points="605.5,-421 471.5,-421 471.5,-402 605.5,-402 605.5,-421"/>
<text text-anchor="middle" x="538.5" y="-409" font-family="Helvetica,sans-Serif" font-size="10.00">Harlinn::OCI::CStringDefine</text>
</a>
</g>
</g>
<!-- Node1&#45;&gt;Node7 -->
<g id="edge6_Node000001_Node000007" class="edge">
<title>Node1&#45;&gt;Node7</title>
<g id="a_edge6_Node000001_Node000007"><a xlink:title=" ">
<path fill="none" stroke="#63b8ff" d="M389.31,-302.25C403.32,-327.11 430.71,-369.35 466,-392.5 471.58,-396.16 477.85,-399.12 484.29,-401.51"/>
<polygon fill="#63b8ff" stroke="#63b8ff" points="392.57,-300.92 384.72,-293.81 386.42,-304.26 392.57,-300.92"/>
</a>
</g>
</g>
<!-- Node8 -->
<g id="Node000008" class="node">
<title>Node8</title>
<g id="a_Node000008"><a xlink:href="class_harlinn_1_1_o_c_i_1_1_collection_define.html" target="_top" xlink:title="CollectionDefine.">
<polygon fill="white" stroke="#666666" points="597.5,-383.5 479.5,-383.5 479.5,-353.5 597.5,-353.5 597.5,-383.5"/>
<text text-anchor="start" x="487.5" y="-371.5" font-family="Helvetica,sans-Serif" font-size="10.00">Harlinn::OCI::Collection</text>
<text text-anchor="middle" x="538.5" y="-360.5" font-family="Helvetica,sans-Serif" font-size="10.00">Define</text>
</a>
</g>
</g>
<!-- Node1&#45;&gt;Node8 -->
<g id="edge7_Node000001_Node000008" class="edge">
<title>Node1&#45;&gt;Node8</title>
<g id="a_edge7_Node000001_Node000008"><a xlink:title=" ">
<path fill="none" stroke="#63b8ff" d="M398.87,-299.27C415.83,-312.92 441.32,-331.92 466,-344.5 472.18,-347.65 478.87,-350.53 485.59,-353.11"/>
<polygon fill="#63b8ff" stroke="#63b8ff" points="401.51,-296.9 391.56,-293.27 397.07,-302.32 401.51,-296.9"/>
</a>
</g>
</g>
<!-- Node9 -->
<g id="Node000009" class="node">
<title>Node9</title>
<g id="a_Node000009"><a xlink:href="class_harlinn_1_1_o_c_i_1_1_date_define.html" target="_top" xlink:title="DateDefine.">
<polygon fill="white" stroke="#666666" points="599.5,-335 477.5,-335 477.5,-316 599.5,-316 599.5,-335"/>
<text text-anchor="middle" x="538.5" y="-323" font-family="Helvetica,sans-Serif" font-size="10.00">Harlinn::OCI::DateDefine</text>
</a>
</g>
</g>
<!-- Node1&#45;&gt;Node9 -->
<g id="edge8_Node000001_Node000009" class="edge">
<title>Node1&#45;&gt;Node9</title>
<g id="a_edge8_Node000001_Node000009"><a xlink:title=" ">
<path fill="none" stroke="#63b8ff" d="M425.26,-295.35C438.42,-298.98 452.77,-302.92 466,-306.5 476.91,-309.45 488.77,-312.62 499.63,-315.51"/>
<polygon fill="#63b8ff" stroke="#63b8ff" points="426.57,-292.08 415.99,-292.79 424.7,-298.83 426.57,-292.08"/>
</a>
</g>
</g>
<!-- Node10 -->
<g id="Node000010" class="node">
<title>Node10</title>
<g id="a_Node000010"><a xlink:href="class_harlinn_1_1_o_c_i_1_1_descriptor_base_define.html" target="_top" xlink:title="DescriptorBaseDefine.">
<polygon fill="white" stroke="#666666" points="598,-297.5 479,-297.5 479,-267.5 598,-267.5 598,-297.5"/>
<text text-anchor="start" x="487" y="-285.5" font-family="Helvetica,sans-Serif" font-size="10.00">Harlinn::OCI::Descriptor</text>
<text text-anchor="middle" x="538.5" y="-274.5" font-family="Helvetica,sans-Serif" font-size="10.00">BaseDefine</text>
</a>
</g>
</g>
<!-- Node1&#45;&gt;Node10 -->
<g id="edge9_Node000001_Node000010" class="edge">
<title>Node1&#45;&gt;Node10</title>
<g id="a_edge9_Node000001_Node000010"><a xlink:title=" ">
<path fill="none" stroke="#63b8ff" d="M440.44,-282.5C452.96,-282.5 466.1,-282.5 478.54,-282.5"/>
<polygon fill="#63b8ff" stroke="#63b8ff" points="440.66,-279 430.66,-282.5 440.66,-286 440.66,-279"/>
</a>
</g>
</g>
<!-- Node19 -->
<g id="Node000019" class="node">
<title>Node19</title>
<g id="a_Node000019"><a xlink:href="class_harlinn_1_1_o_c_i_1_1_fixed_binary_define.html" target="_top" xlink:title="FixedBinaryDefine.">
<polygon fill="white" stroke="#666666" points="602,-506.5 475,-506.5 475,-476.5 602,-476.5 602,-506.5"/>
<text text-anchor="start" x="483" y="-494.5" font-family="Helvetica,sans-Serif" font-size="10.00">Harlinn::OCI::FixedBinary</text>
<text text-anchor="middle" x="538.5" y="-483.5" font-family="Helvetica,sans-Serif" font-size="10.00">Define&lt; binarySize &gt;</text>
</a>
</g>
</g>
<!-- Node1&#45;&gt;Node19 -->
<g id="edge21_Node000001_Node000019" class="edge">
<title>Node1&#45;&gt;Node19</title>
<g id="a_edge21_Node000001_Node000019"><a xlink:title=" ">
<path fill="none" stroke="#63b8ff" d="M383.12,-303.3C391.73,-341.36 415.19,-422.43 466,-467.5 469.72,-470.8 473.91,-473.65 478.36,-476.11"/>
<polygon fill="#63b8ff" stroke="#63b8ff" points="386.57,-302.69 381.07,-293.64 379.72,-304.15 386.57,-302.69"/>
</a>
</g>
</g>
<!-- Node20 -->
<g id="Node000020" class="node">
<title>Node20</title>
<g id="a_Node000020"><a xlink:href="class_harlinn_1_1_o_c_i_1_1_fixed_string_define.html" target="_top" xlink:title="FixedStringDefine.">
<polygon fill="white" stroke="#666666" points="602,-249.5 475,-249.5 475,-219.5 602,-219.5 602,-249.5"/>
<text text-anchor="start" x="483" y="-237.5" font-family="Helvetica,sans-Serif" font-size="10.00">Harlinn::OCI::FixedString</text>
<text text-anchor="middle" x="538.5" y="-226.5" font-family="Helvetica,sans-Serif" font-size="10.00">Define&lt; fixedStringSize &gt;</text>
</a>
</g>
</g>
<!-- Node1&#45;&gt;Node20 -->
<g id="edge23_Node000001_Node000020" class="edge">
<title>Node1&#45;&gt;Node20</title>
<g id="a_edge23_Node000001_Node000020"><a xlink:title=" ">
<path fill="none" stroke="#63b8ff" d="M422.71,-269.26C442.5,-263.27 466.02,-256.15 486.6,-249.92"/>
<polygon fill="#63b8ff" stroke="#63b8ff" points="421.85,-265.87 413.29,-272.12 423.88,-272.57 421.85,-265.87"/>
</a>
</g>
</g>
<!-- Node21 -->
<g id="Node000021" class="node">
<title>Node21</title>
<g id="a_Node000021"><a xlink:href="class_harlinn_1_1_o_c_i_1_1_long_var_binary_define.html" target="_top" xlink:title="LongVarBinaryDefine.">
<polygon fill="white" stroke="#666666" points="608,-201.5 469,-201.5 469,-171.5 608,-171.5 608,-201.5"/>
<text text-anchor="start" x="477" y="-189.5" font-family="Helvetica,sans-Serif" font-size="10.00">Harlinn::OCI::LongVarBinary</text>
<text text-anchor="middle" x="538.5" y="-178.5" font-family="Helvetica,sans-Serif" font-size="10.00">Define</text>
</a>
</g>
</g>
<!-- Node1&#45;&gt;Node21 -->
<g id="edge24_Node000001_Node000021" class="edge">
<title>Node1&#45;&gt;Node21</title>
<g id="a_edge24_Node000001_Node000021"><a xlink:title=" ">
<path fill="none" stroke="#63b8ff" d="M396.27,-264.88C412.87,-248.8 439.3,-225.35 466,-210.5 471.72,-207.32 477.94,-204.46 484.23,-201.93"/>
<polygon fill="#63b8ff" stroke="#63b8ff" points="394.26,-261.94 389.62,-271.46 399.19,-266.92 394.26,-261.94"/>
</a>
</g>
</g>
<!-- Node22 -->
<g id="Node000022" class="node">
<title>Node22</title>
<g id="a_Node000022"><a xlink:href="class_harlinn_1_1_o_c_i_1_1_number_base_define.html" target="_top" xlink:title="NumberBaseDefine.">
<polygon fill="white" stroke="#666666" points="604,-153.5 473,-153.5 473,-123.5 604,-123.5 604,-153.5"/>
<text text-anchor="start" x="481" y="-141.5" font-family="Helvetica,sans-Serif" font-size="10.00">Harlinn::OCI::NumberBase</text>
<text text-anchor="middle" x="538.5" y="-130.5" font-family="Helvetica,sans-Serif" font-size="10.00">Define&lt; externalType &gt;</text>
</a>
</g>
</g>
<!-- Node1&#45;&gt;Node22 -->
<g id="edge25_Node000001_Node000022" class="edge">
<title>Node1&#45;&gt;Node22</title>
<g id="a_edge25_Node000001_Node000022"><a xlink:title=" ">
<path fill="none" stroke="#63b8ff" d="M388.51,-262.47C402.11,-235.91 429.53,-189.3 466,-162.5 470.43,-159.24 475.33,-156.41 480.43,-153.95"/>
<polygon fill="#63b8ff" stroke="#63b8ff" points="385.52,-260.63 384.22,-271.15 391.79,-263.74 385.52,-260.63"/>
</a>
</g>
</g>
<!-- Node23 -->
<g id="Node000023" class="node">
<title>Node23</title>
<g id="a_Node000023"><a xlink:href="class_harlinn_1_1_o_c_i_1_1_object_define.html" target="_top" xlink:title="ObjectDefine.">
<polygon fill="white" stroke="#666666" points="604,-105 473,-105 473,-86 604,-86 604,-105"/>
<text text-anchor="middle" x="538.5" y="-93" font-family="Helvetica,sans-Serif" font-size="10.00">Harlinn::OCI::ObjectDefine</text>
</a>
</g>
</g>
<!-- Node1&#45;&gt;Node23 -->
<g id="edge26_Node000001_Node000023" class="edge">
<title>Node1&#45;&gt;Node23</title>
<g id="a_edge26_Node000001_Node000023"><a xlink:title=" ">
<path fill="none" stroke="#63b8ff" d="M383.85,-261.84C393.3,-226.21 417.65,-153.31 466,-114.5 470.61,-110.8 475.87,-107.82 481.4,-105.41"/>
<polygon fill="#63b8ff" stroke="#63b8ff" points="380.51,-260.75 381.48,-271.3 387.3,-262.46 380.51,-260.75"/>
</a>
</g>
</g>
<!-- Node24 -->
<g id="Node000024" class="node">
<title>Node24</title>
<g id="a_Node000024"><a xlink:href="class_harlinn_1_1_o_c_i_1_1_simple_define.html" target="_top" xlink:title="SimpleDefine, template used to implement defines for basic data types for the DataReader.">
<polygon fill="white" stroke="#666666" points="604.5,-67.5 472.5,-67.5 472.5,-37.5 604.5,-37.5 604.5,-67.5"/>
<text text-anchor="start" x="480.5" y="-55.5" font-family="Helvetica,sans-Serif" font-size="10.00">Harlinn::OCI::SimpleDefine</text>
<text text-anchor="middle" x="538.5" y="-44.5" font-family="Helvetica,sans-Serif" font-size="10.00">&lt; BT, externalType &gt;</text>
</a>
</g>
</g>
<!-- Node1&#45;&gt;Node24 -->
<g id="edge27_Node000001_Node000024" class="edge">
<title>Node1&#45;&gt;Node24</title>
<g id="a_edge27_Node000001_Node000024"><a xlink:title=" ">
<path fill="none" stroke="#63b8ff" d="M382.07,-261.38C389.19,-220 410.64,-127.81 466,-76.5 469.55,-73.21 473.57,-70.36 477.85,-67.91"/>
<polygon fill="#63b8ff" stroke="#63b8ff" points="378.62,-260.79 380.51,-271.21 385.54,-261.89 378.62,-260.79"/>
</a>
</g>
</g>
<!-- Node25 -->
<g id="Node000025" class="node">
<title>Node25</title>
<g id="a_Node000025"><a xlink:href="class_harlinn_1_1_o_c_i_1_1_var_binary_define.html" target="_top" xlink:title="VarBinaryDefine.">
<polygon fill="white" stroke="#666666" points="611,-19 466,-19 466,0 611,0 611,-19"/>
<text text-anchor="middle" x="538.5" y="-7" font-family="Helvetica,sans-Serif" font-size="10.00">Harlinn::OCI::VarBinaryDefine</text>
</a>
</g>
</g>
<!-- Node1&#45;&gt;Node25 -->
<g id="edge28_Node000001_Node000025" class="edge">
<title>Node1&#45;&gt;Node25</title>
<g id="a_edge28_Node000001_Node000025"><a xlink:title=" ">
<path fill="none" stroke="#63b8ff" d="M379.83,-261.26C382.91,-212.61 397.44,-92.4 466,-28.5 469.95,-24.82 474.52,-21.84 479.41,-19.42"/>
<polygon fill="#63b8ff" stroke="#63b8ff" points="376.33,-261.06 379.31,-271.22 383.32,-261.42 376.33,-261.06"/>
</a>
</g>
</g>
<!-- Node2 -->
<g id="Node000002" class="node">
<title>Node2</title>
<g id="a_Node000002"><a xlink:href="class_harlinn_1_1_o_c_i_1_1_define_base.html" target="_top" xlink:title="DefineBase, base class for all defines.">
<polygon fill="white" stroke="#666666" points="290,-292 165,-292 165,-273 290,-273 290,-292"/>
<text text-anchor="middle" x="227.5" y="-280" font-family="Helvetica,sans-Serif" font-size="10.00">Harlinn::OCI::DefineBase</text>
</a>
</g>
</g>
<!-- Node2&#45;&gt;Node1 -->
<g id="edge1_Node000001_Node000002" class="edge">
<title>Node2&#45;&gt;Node1</title>
<g id="a_edge1_Node000001_Node000002"><a xlink:title=" ">
<path fill="none" stroke="#63b8ff" d="M301.64,-282.5C310.07,-282.5 318.53,-282.5 326.56,-282.5"/>
<polygon fill="#63b8ff" stroke="#63b8ff" points="301.7,-279 291.7,-282.5 301.7,-286 301.7,-279"/>
</a>
</g>
</g>
<!-- Node3 -->
<g id="Node000003" class="node">
<title>Node3</title>
<g id="a_Node000003"><a xlink:href="class_harlinn_1_1_o_c_i_1_1_handle_base.html" target="_top" xlink:title="Base class for OCI handle wrappers.">
<polygon fill="white" stroke="#666666" points="128,-292 0,-292 0,-273 128,-273 128,-292"/>
<text text-anchor="middle" x="64" y="-280" font-family="Helvetica,sans-Serif" font-size="10.00">Harlinn::OCI::HandleBase</text>
</a>
</g>
</g>
<!-- Node3&#45;&gt;Node2 -->
<g id="edge2_Node000002_Node000003" class="edge">
<title>Node3&#45;&gt;Node2</title>
<g id="a_edge2_Node000002_Node000003"><a xlink:title=" ">
<path fill="none" stroke="#63b8ff" d="M139.67,-282.5C148.03,-282.5 156.47,-282.5 164.64,-282.5"/>
<polygon fill="#63b8ff" stroke="#63b8ff" points="139.88,-279 129.88,-282.5 139.88,-286 139.88,-279"/>
</a>
</g>
</g>
<!-- Node5 -->
<g id="Node000005" class="node">
<title>Node5</title>
<g id="a_Node000005"><a xlink:href="class_harlinn_1_1_o_c_i_1_1_guid_define.html" target="_top" xlink:title="GuidDefine.">
<polygon fill="white" stroke="#666666" points="1175.5,-530 1053.5,-530 1053.5,-511 1175.5,-511 1175.5,-530"/>
<text text-anchor="middle" x="1114.5" y="-518" font-family="Helvetica,sans-Serif" font-size="10.00">Harlinn::OCI::GuidDefine</text>
</a>
</g>
</g>
<!-- Node4&#45;&gt;Node5 -->
<g id="edge4_Node000004_Node000005" class="edge">
<title>Node4&#45;&gt;Node5</title>
<g id="a_edge4_Node000004_Node000005"><a xlink:title=" ">
<path fill="none" stroke="#63b8ff" d="M860.5,-520.5C918.75,-520.5 998.9,-520.5 1053.26,-520.5"/>
<polygon fill="#63b8ff" stroke="#63b8ff" points="860.68,-517 850.68,-520.5 860.68,-524 860.68,-517"/>
</a>
</g>
</g>
<!-- Node11 -->
<g id="Node000011" class="node">
<title>Node11</title>
<g id="a_Node000011"><a xlink:href="class_harlinn_1_1_o_c_i_1_1_descriptor_define.html" target="_top" xlink:title=" ">
<polygon fill="white" stroke="#666666" points="1188.5,-180 1040.5,-180 1040.5,-139 1188.5,-139 1188.5,-180"/>
<text text-anchor="start" x="1048.5" y="-168" font-family="Helvetica,sans-Serif" font-size="10.00">Harlinn::OCI::Descriptor</text>
<text text-anchor="start" x="1048.5" y="-157" font-family="Helvetica,sans-Serif" font-size="10.00">Define&lt; OCIInterval, descriptor</text>
<text text-anchor="middle" x="1114.5" y="-146" font-family="Helvetica,sans-Serif" font-size="10.00">Type, oracleType &gt;</text>
</a>
</g>
</g>
<!-- Node10&#45;&gt;Node11 -->
<g id="edge10_Node000010_Node000011" class="edge">
<title>Node10&#45;&gt;Node11</title>
<g id="a_edge10_Node000010_Node000011"><a xlink:title=" ">
<path fill="none" stroke="#63b8ff" d="M600.71,-262.98C604.23,-261.55 607.68,-260.05 611,-258.5 619.5,-254.54 620.78,-252.01 629,-247.5 667.17,-226.57 676.25,-219.82 717,-204.5 783.81,-179.39 801.31,-172.35 872,-162.5 928.06,-154.68 992.16,-154.28 1040.22,-155.64"/>
<polygon fill="#63b8ff" stroke="#63b8ff" points="599.53,-259.69 591.47,-266.57 602.06,-266.21 599.53,-259.69"/>
</a>
</g>
</g>
<!-- Node13 -->
<g id="Node000013" class="node">
<title>Node13</title>
<g id="a_Node000013"><a xlink:href="class_harlinn_1_1_o_c_i_1_1_descriptor_define.html" target="_top" xlink:title=" ">
<polygon fill="white" stroke="#666666" points="1175.5,-339.5 1053.5,-339.5 1053.5,-287.5 1175.5,-287.5 1175.5,-339.5"/>
<text text-anchor="start" x="1061.5" y="-327.5" font-family="Helvetica,sans-Serif" font-size="10.00">Harlinn::OCI::Descriptor</text>
<text text-anchor="start" x="1061.5" y="-316.5" font-family="Helvetica,sans-Serif" font-size="10.00">Define&lt; OCILobLocator,</text>
<text text-anchor="start" x="1061.5" y="-305.5" font-family="Helvetica,sans-Serif" font-size="10.00"> OCI::HandleType::LOB,</text>
<text text-anchor="middle" x="1114.5" y="-294.5" font-family="Helvetica,sans-Serif" font-size="10.00"> oracleType &gt;</text>
</a>
</g>
</g>
<!-- Node10&#45;&gt;Node13 -->
<g id="edge12_Node000010_Node000013" class="edge">
<title>Node10&#45;&gt;Node13</title>
<g id="a_edge12_Node000010_Node000013"><a xlink:title=" ">
<path fill="none" stroke="#63b8ff" d="M596.89,-301.84C601.69,-303.68 606.45,-305.58 611,-307.5 619.24,-310.98 620.29,-314.45 629,-316.5 778.2,-351.72 960.52,-335.27 1053.19,-322.87"/>
<polygon fill="#63b8ff" stroke="#63b8ff" points="598.38,-298.66 587.78,-298.45 595.94,-305.22 598.38,-298.66"/>
</a>
</g>
</g>
<!-- Node16 -->
<g id="Node000016" class="node">
<title>Node16</title>
<g id="a_Node000016"><a xlink:href="class_harlinn_1_1_o_c_i_1_1_descriptor_define.html" target="_top" xlink:title=" ">
<polygon fill="white" stroke="#666666" points="1194,-255 1035,-255 1035,-214 1194,-214 1194,-255"/>
<text text-anchor="start" x="1043" y="-243" font-family="Helvetica,sans-Serif" font-size="10.00">Harlinn::OCI::Descriptor</text>
<text text-anchor="start" x="1043" y="-232" font-family="Helvetica,sans-Serif" font-size="10.00">Define&lt; OCIDateTime, descriptor</text>
<text text-anchor="middle" x="1114.5" y="-221" font-family="Helvetica,sans-Serif" font-size="10.00">Type, oracleType &gt;</text>
</a>
</g>
</g>
<!-- Node10&#45;&gt;Node16 -->
<g id="edge15_Node000010_Node000016" class="edge">
<title>Node10&#45;&gt;Node16</title>
<g id="a_edge15_Node000010_Node000016"><a xlink:title=" ">
<path fill="none" stroke="#63b8ff" d="M609.51,-294.77C703.82,-308.75 876.12,-325.24 1017,-288.5 1017.21,-288.44 1049.22,-270.53 1076.31,-255.35"/>
<polygon fill="#63b8ff" stroke="#63b8ff" points="610.31,-291.35 599.9,-293.31 609.26,-298.27 610.31,-291.35"/>
</a>
</g>
</g>
<!-- Node18 -->
<g id="Node000018" class="node">
<title>Node18</title>
<g id="a_Node000018"><a xlink:href="class_harlinn_1_1_o_c_i_1_1_descriptor_define.html" target="_top" xlink:title="DescriptorDefine, maintains the descriptor for derived types.">
<polygon fill="white" stroke="#666666" points="854,-255 717,-255 717,-214 854,-214 854,-255"/>
<text text-anchor="start" x="725" y="-243" font-family="Helvetica,sans-Serif" font-size="10.00">Harlinn::OCI::Descriptor</text>
<text text-anchor="start" x="725" y="-232" font-family="Helvetica,sans-Serif" font-size="10.00">Define&lt; VT, descriptorType,</text>
<text text-anchor="middle" x="785.5" y="-221" font-family="Helvetica,sans-Serif" font-size="10.00"> oracleType &gt;</text>
</a>
</g>
</g>
<!-- Node10&#45;&gt;Node18 -->
<g id="edge17_Node000010_Node000018" class="edge">
<title>Node10&#45;&gt;Node18</title>
<g id="a_edge17_Node000010_Node000018"><a xlink:title=" ">
<path fill="none" stroke="#63b8ff" d="M609.66,-268.76C643.36,-262.15 683.56,-254.28 716.92,-247.74"/>
<polygon fill="#63b8ff" stroke="#63b8ff" points="609.12,-265.29 599.98,-270.65 610.47,-272.16 609.12,-265.29"/>
</a>
</g>
</g>
<!-- Node12 -->
<g id="Node000012" class="node">
<title>Node12</title>
<g id="a_Node000012"><a xlink:href="class_harlinn_1_1_o_c_i_1_1_interval_base_define.html" target="_top" xlink:title="IntervalBaseDefine, template used to implement IntervalDSDefine and IntervalYMDefine.">
<polygon fill="white" stroke="#666666" points="1368,-180 1240,-180 1240,-139 1368,-139 1368,-180"/>
<text text-anchor="start" x="1248" y="-168" font-family="Helvetica,sans-Serif" font-size="10.00">Harlinn::OCI::IntervalBase</text>
<text text-anchor="start" x="1248" y="-157" font-family="Helvetica,sans-Serif" font-size="10.00">Define&lt; descriptorType,</text>
<text text-anchor="middle" x="1304" y="-146" font-family="Helvetica,sans-Serif" font-size="10.00"> oracleType &gt;</text>
</a>
</g>
</g>
<!-- Node11&#45;&gt;Node12 -->
<g id="edge11_Node000011_Node000012" class="edge">
<title>Node11&#45;&gt;Node12</title>
<g id="a_edge11_Node000011_Node000012"><a xlink:title=" ">
<path fill="none" stroke="#63b8ff" d="M1199.96,-159.5C1213.35,-159.5 1227,-159.5 1239.79,-159.5"/>
<polygon fill="#63b8ff" stroke="#63b8ff" points="1200.31,-156 1190.31,-159.5 1200.31,-163 1200.31,-156"/>
</a>
</g>
</g>
<!-- Node14 -->
<g id="Node000014" class="node">
<title>Node14</title>
<g id="a_Node000014"><a xlink:href="class_harlinn_1_1_o_c_i_1_1_lob_base_define.html" target="_top" xlink:title="LobDefine.">
<polygon fill="white" stroke="#666666" points="1374,-328.5 1234,-328.5 1234,-298.5 1374,-298.5 1374,-328.5"/>
<text text-anchor="start" x="1242" y="-316.5" font-family="Helvetica,sans-Serif" font-size="10.00">Harlinn::OCI::LobBaseDefine</text>
<text text-anchor="middle" x="1304" y="-305.5" font-family="Helvetica,sans-Serif" font-size="10.00">&lt; oracleType &gt;</text>
</a>
</g>
</g>
<!-- Node13&#45;&gt;Node14 -->
<g id="edge13_Node000013_Node000014" class="edge">
<title>Node13&#45;&gt;Node14</title>
<g id="a_edge13_Node000013_Node000014"><a xlink:title=" ">
<path fill="none" stroke="#63b8ff" d="M1187.3,-313.5C1202.5,-313.5 1218.51,-313.5 1233.62,-313.5"/>
<polygon fill="#63b8ff" stroke="#63b8ff" points="1187.37,-310 1177.37,-313.5 1187.37,-317 1187.37,-310"/>
</a>
</g>
</g>
<!-- Node15 -->
<g id="Node000015" class="node">
<title>Node15</title>
<g id="a_Node000015"><a xlink:href="class_harlinn_1_1_o_c_i_1_1_c_lob_base_define.html" target="_top" xlink:title="CLobBaseDefine.">
<polygon fill="white" stroke="#666666" points="1610,-328.5 1414,-328.5 1414,-298.5 1610,-298.5 1610,-328.5"/>
<text text-anchor="start" x="1422" y="-316.5" font-family="Helvetica,sans-Serif" font-size="10.00">Harlinn::OCI::CLobBaseDefine</text>
<text text-anchor="middle" x="1512" y="-305.5" font-family="Helvetica,sans-Serif" font-size="10.00">&lt; oracleType, characterSetFormDefault &gt;</text>
</a>
</g>
</g>
<!-- Node14&#45;&gt;Node15 -->
<g id="edge14_Node000014_Node000015" class="edge">
<title>Node14&#45;&gt;Node15</title>
<g id="a_edge14_Node000014_Node000015"><a xlink:title=" ">
<path fill="none" stroke="#63b8ff" d="M1385.87,-313.5C1395,-313.5 1404.37,-313.5 1413.68,-313.5"/>
<polygon fill="#63b8ff" stroke="#63b8ff" points="1385.97,-310 1375.97,-313.5 1385.97,-317 1385.97,-310"/>
</a>
</g>
</g>
<!-- Node17 -->
<g id="Node000017" class="node">
<title>Node17</title>
<g id="a_Node000017"><a xlink:href="class_harlinn_1_1_o_c_i_1_1_timestamp_base_define.html" target="_top" xlink:title="TimestampBaseDefine, template used to implement TimestampDefine, TimestampTZDefine and TimestampLTZDe...">
<polygon fill="white" stroke="#666666" points="1377,-255 1231,-255 1231,-214 1377,-214 1377,-255"/>
<text text-anchor="start" x="1239" y="-243" font-family="Helvetica,sans-Serif" font-size="10.00">Harlinn::OCI::TimestampBase</text>
<text text-anchor="start" x="1239" y="-232" font-family="Helvetica,sans-Serif" font-size="10.00">Define&lt; descriptorType,</text>
<text text-anchor="middle" x="1304" y="-221" font-family="Helvetica,sans-Serif" font-size="10.00"> oracleType &gt;</text>
</a>
</g>
</g>
<!-- Node16&#45;&gt;Node17 -->
<g id="edge16_Node000016_Node000017" class="edge">
<title>Node16&#45;&gt;Node17</title>
<g id="a_edge16_Node000016_Node000017"><a xlink:title=" ">
<path fill="none" stroke="#63b8ff" d="M1205.81,-234.5C1214.15,-234.5 1222.53,-234.5 1230.68,-234.5"/>
<polygon fill="#63b8ff" stroke="#63b8ff" points="1205.99,-231 1195.99,-234.5 1205.99,-238 1205.99,-231"/>
</a>
</g>
</g>
<!-- Node18&#45;&gt;Node11 -->
<g id="edge18_Node000018_Node000011" class="edge">
<title>Node18&#45;&gt;Node11</title>
<g id="a_edge18_Node000018_Node000011"><a xlink:title=" ">
<path fill="none" stroke="orange" stroke-dasharray="5,2" d="M832.61,-208.5C845.07,-202.41 858.78,-196.54 872,-192.5 926.94,-175.73 991.52,-167.47 1040.07,-163.4"/>
<polygon fill="orange" stroke="orange" points="831.17,-205.31 823.83,-212.94 834.33,-211.55 831.17,-205.31"/>
</a>
</g>
<text text-anchor="start" x="890.5" y="-206.5" font-family="Helvetica,sans-Serif" font-size="10.00" fill="grey"> &lt; OCIInterval, descriptor</text>
<text text-anchor="middle" x="944.5" y="-195.5" font-family="Helvetica,sans-Serif" font-size="10.00" fill="grey">Type, oracleType &gt;</text>
</g>
<!-- Node18&#45;&gt;Node13 -->
<g id="edge19_Node000018_Node000013" class="edge">
<title>Node18&#45;&gt;Node13</title>
<g id="a_edge19_Node000018_Node000013"><a xlink:title=" ">
<path fill="none" stroke="orange" stroke-dasharray="5,2" d="M865.17,-253.51C922.97,-267.47 1000.34,-286.16 1053.26,-298.95"/>
<polygon fill="orange" stroke="orange" points="866.27,-250.17 855.73,-251.22 864.62,-256.97 866.27,-250.17"/>
</a>
</g>
<text text-anchor="start" x="872" y="-304.5" font-family="Helvetica,sans-Serif" font-size="10.00" fill="grey"> &lt; OCILobLocator, OCI</text>
<text text-anchor="middle" x="944.5" y="-293.5" font-family="Helvetica,sans-Serif" font-size="10.00" fill="grey">::HandleType::LOB, oracleType &gt;</text>
</g>
<!-- Node18&#45;&gt;Node16 -->
<g id="edge20_Node000018_Node000016" class="edge">
<title>Node18&#45;&gt;Node16</title>
<g id="a_edge20_Node000018_Node000016"><a xlink:title=" ">
<path fill="none" stroke="orange" stroke-dasharray="5,2" d="M865.36,-222.06C867.59,-221.85 869.81,-221.67 872,-221.5 936.26,-216.64 952.7,-217.19 1017,-221.5 1022.73,-221.88 1028.65,-222.4 1034.59,-222.99"/>
<polygon fill="orange" stroke="orange" points="865.14,-218.57 855.57,-223.1 865.88,-225.53 865.14,-218.57"/>
</a>
</g>
<text text-anchor="start" x="885" y="-235.5" font-family="Helvetica,sans-Serif" font-size="10.00" fill="grey"> &lt; OCIDateTime, descriptor</text>
<text text-anchor="middle" x="944.5" y="-224.5" font-family="Helvetica,sans-Serif" font-size="10.00" fill="grey">Type, oracleType &gt;</text>
</g>
<!-- Node19&#45;&gt;Node4 -->
<g id="edge22_Node000019_Node000004" class="edge">
<title>Node19&#45;&gt;Node4</title>
<g id="a_edge22_Node000019_Node000004"><a xlink:title=" ">
<path fill="none" stroke="orange" stroke-dasharray="5,2" d="M613.68,-499.63C640.56,-502.64 671.16,-506.14 699,-509.5 706.43,-510.4 714.22,-511.36 721.94,-512.34"/>
<polygon fill="orange" stroke="orange" points="614.23,-496.17 603.91,-498.54 613.46,-503.13 614.23,-496.17"/>
</a>
</g>
<text text-anchor="middle" x="664" y="-512.5" font-family="Helvetica,sans-Serif" font-size="10.00" fill="grey"> &lt; sizeof(Guid)&gt;</text>
</g>
</g>
</svg>
