<?xml version="1.0" encoding="UTF-8" standalone="no"?>
<!DOCTYPE svg PUBLIC "-//W3C//DTD SVG 1.1//EN"
 "http://www.w3.org/Graphics/SVG/1.1/DTD/svg11.dtd">
<!-- Generated by graphviz version 7.0.1 (20221109.1506)
 -->
<!-- Title: Harlinn::Common::Core::IO::Sockets::SocketT&lt; socketType, protocolType &gt; Pages: 1 -->
<svg width="610pt" height="238pt"
 viewBox="0.00 0.00 610.00 237.50" xmlns="http://www.w3.org/2000/svg" xmlns:xlink="http://www.w3.org/1999/xlink">
<g id="graph0" class="graph" transform="scale(1 1) rotate(0) translate(4 233.5)">
<title>Harlinn::Common::Core::IO::Sockets::SocketT&lt; socketType, protocolType &gt;</title>
<!-- Node1 -->
<g id="Node000001" class="node">
<title>Node1</title>
<g id="a_Node000001"><a xlink:title="Specializes a Socket for a particular SocketType and a particular ProtocolType.">
<polygon fill="#999999" stroke="#666666" points="301,-140.5 155,-140.5 155,-99.5 301,-99.5 301,-140.5"/>
<text text-anchor="start" x="163" y="-128.5" font-family="Helvetica,sans-Serif" font-size="10.00">Harlinn::Common::Core</text>
<text text-anchor="start" x="163" y="-117.5" font-family="Helvetica,sans-Serif" font-size="10.00">::IO::Sockets::SocketT</text>
<text text-anchor="middle" x="228" y="-106.5" font-family="Helvetica,sans-Serif" font-size="10.00">&lt; socketType, protocolType &gt;</text>
</a>
</g>
</g>
<!-- Node3 -->
<g id="Node000003" class="node">
<title>Node3</title>
<g id="a_Node000003"><a xlink:href="class_harlinn_1_1_common_1_1_core_1_1_i_o_1_1_sockets_1_1_tcp_socket.html" target="_top" xlink:title="Encapsulates a TCP socket descriptor.">
<polygon fill="white" stroke="#666666" points="585.5,-229.5 458.5,-229.5 458.5,-188.5 585.5,-188.5 585.5,-229.5"/>
<text text-anchor="start" x="466.5" y="-217.5" font-family="Helvetica,sans-Serif" font-size="10.00">Harlinn::Common::Core</text>
<text text-anchor="start" x="466.5" y="-206.5" font-family="Helvetica,sans-Serif" font-size="10.00">::IO::Sockets::TcpSocket</text>
<text text-anchor="middle" x="522" y="-195.5" font-family="Helvetica,sans-Serif" font-size="10.00">&lt; ProtocolType::Tcp &gt;</text>
</a>
</g>
</g>
<!-- Node1&#45;&gt;Node3 -->
<g id="edge2_Node000001_Node000003" class="edge">
<title>Node1&#45;&gt;Node3</title>
<g id="a_edge2_Node000001_Node000003"><a xlink:title=" ">
<path fill="none" stroke="#63b8ff" d="M304.27,-144.39C309.25,-145.97 314.19,-147.51 319,-149 365.48,-163.39 418.19,-179.02 458.1,-190.72"/>
<polygon fill="#63b8ff" stroke="#63b8ff" points="305.38,-141.07 294.79,-141.39 303.26,-147.75 305.38,-141.07"/>
</a>
</g>
</g>
<!-- Node4 -->
<g id="Node000004" class="node">
<title>Node4</title>
<g id="a_Node000004"><a xlink:href="class_harlinn_1_1_common_1_1_core_1_1_i_o_1_1_sockets_1_1_udp_socket.html" target="_top" xlink:title=" ">
<polygon fill="white" stroke="#666666" points="602,-170.5 442,-170.5 442,-129.5 602,-129.5 602,-170.5"/>
<text text-anchor="start" x="450" y="-158.5" font-family="Helvetica,sans-Serif" font-size="10.00">Harlinn::Common::Core</text>
<text text-anchor="start" x="450" y="-147.5" font-family="Helvetica,sans-Serif" font-size="10.00">::IO::Sockets::UdpSocket</text>
<text text-anchor="middle" x="522" y="-136.5" font-family="Helvetica,sans-Serif" font-size="10.00">&lt; ProtocolType::UserDatagram &gt;</text>
</a>
</g>
</g>
<!-- Node1&#45;&gt;Node4 -->
<g id="edge3_Node000001_Node000004" class="edge">
<title>Node1&#45;&gt;Node4</title>
<g id="a_edge3_Node000001_Node000004"><a xlink:title=" ">
<path fill="none" stroke="#63b8ff" d="M312.41,-128.57C353.04,-132.74 401.64,-137.74 441.7,-141.85"/>
<polygon fill="#63b8ff" stroke="#63b8ff" points="312.99,-125.11 302.69,-127.57 312.28,-132.07 312.99,-125.11"/>
</a>
</g>
</g>
<!-- Node5 -->
<g id="Node000005" class="node">
<title>Node5</title>
<g id="a_Node000005"><a xlink:href="class_harlinn_1_1_common_1_1_core_1_1_i_o_1_1_sockets_1_1_socket_t.html" target="_top" xlink:title=" ">
<polygon fill="white" stroke="#666666" points="581,-111.5 463,-111.5 463,-70.5 581,-70.5 581,-111.5"/>
<text text-anchor="start" x="471" y="-99.5" font-family="Helvetica,sans-Serif" font-size="10.00">Harlinn::Common::Core</text>
<text text-anchor="start" x="471" y="-88.5" font-family="Helvetica,sans-Serif" font-size="10.00">::IO::Sockets::SocketT</text>
<text text-anchor="middle" x="522" y="-77.5" font-family="Helvetica,sans-Serif" font-size="10.00">&lt; protocolType &gt;</text>
</a>
</g>
</g>
<!-- Node1&#45;&gt;Node5 -->
<g id="edge4_Node000001_Node000005" class="edge">
<title>Node1&#45;&gt;Node5</title>
<g id="a_edge4_Node000001_Node000005"><a xlink:title=" ">
<path fill="none" stroke="orange" stroke-dasharray="5,2" d="M312.52,-111.71C360.6,-106.93 419.84,-101.05 462.86,-96.77"/>
<polygon fill="orange" stroke="orange" points="312.29,-108.21 302.69,-112.68 312.98,-115.18 312.29,-108.21"/>
</a>
</g>
<text text-anchor="middle" x="371.5" y="-114" font-family="Helvetica,sans-Serif" font-size="10.00" fill="grey"> &lt; protocolType &gt;</text>
</g>
<!-- Node6 -->
<g id="Node000006" class="node">
<title>Node6</title>
<g id="a_Node000006"><a xlink:href="class_harlinn_1_1_common_1_1_core_1_1_i_o_1_1_sockets_1_1_socket_t.html" target="_top" xlink:title=" ">
<polygon fill="white" stroke="#666666" points="600.5,-52 443.5,-52 443.5,0 600.5,0 600.5,-52"/>
<text text-anchor="start" x="451.5" y="-40" font-family="Helvetica,sans-Serif" font-size="10.00">Harlinn::Common::Core</text>
<text text-anchor="start" x="451.5" y="-29" font-family="Helvetica,sans-Serif" font-size="10.00">::IO::Sockets::SocketT</text>
<text text-anchor="start" x="451.5" y="-18" font-family="Helvetica,sans-Serif" font-size="10.00">&lt; SocketType::Stream, Protocol</text>
<text text-anchor="middle" x="522" y="-7" font-family="Helvetica,sans-Serif" font-size="10.00">Type::Tcp &gt;</text>
</a>
</g>
</g>
<!-- Node1&#45;&gt;Node6 -->
<g id="edge5_Node000001_Node000006" class="edge">
<title>Node1&#45;&gt;Node6</title>
<g id="a_edge5_Node000001_Node000006"><a xlink:title=" ">
<path fill="none" stroke="orange" stroke-dasharray="5,2" d="M277.49,-93.96C290.71,-87.51 305.2,-81.02 319,-76 359.07,-61.43 405.11,-49.67 443.12,-41.23"/>
<polygon fill="orange" stroke="orange" points="275.94,-90.82 268.55,-98.42 279.07,-97.09 275.94,-90.82"/>
</a>
</g>
<text text-anchor="start" x="319" y="-90" font-family="Helvetica,sans-Serif" font-size="10.00" fill="grey"> &lt; SocketType::Stream,</text>
<text text-anchor="middle" x="371.5" y="-79" font-family="Helvetica,sans-Serif" font-size="10.00" fill="grey"> ProtocolType::Tcp &gt;</text>
</g>
<!-- Node2 -->
<g id="Node000002" class="node">
<title>Node2</title>
<g id="a_Node000002"><a xlink:href="class_harlinn_1_1_common_1_1_core_1_1_i_o_1_1_sockets_1_1_socket.html" target="_top" xlink:title="Represents a socket descriptor that is bound to a specific transport&#45;service provider.">
<polygon fill="white" stroke="#666666" points="118,-135 0,-135 0,-105 118,-105 118,-135"/>
<text text-anchor="start" x="8" y="-123" font-family="Helvetica,sans-Serif" font-size="10.00">Harlinn::Common::Core</text>
<text text-anchor="middle" x="59" y="-112" font-family="Helvetica,sans-Serif" font-size="10.00">::IO::Sockets::Socket</text>
</a>
</g>
</g>
<!-- Node2&#45;&gt;Node1 -->
<g id="edge1_Node000001_Node000002" class="edge">
<title>Node2&#45;&gt;Node1</title>
<g id="a_edge1_Node000001_Node000002"><a xlink:title=" ">
<path fill="none" stroke="#63b8ff" d="M129.8,-120C137.97,-120 146.32,-120 154.53,-120"/>
<polygon fill="#63b8ff" stroke="#63b8ff" points="129.92,-116.5 119.92,-120 129.92,-123.5 129.92,-116.5"/>
</a>
</g>
</g>
</g>
</svg>
