<?xml version="1.0" encoding="UTF-8" standalone="no"?>
<!DOCTYPE svg PUBLIC "-//W3C//DTD SVG 1.1//EN"
 "http://www.w3.org/Graphics/SVG/1.1/DTD/svg11.dtd">
<!-- Generated by graphviz version 7.0.1 (20221109.1506)
 -->
<!-- Title: Harlinn::Common::Core::Environment::Group Pages: 1 -->
<svg width="1038pt" height="114pt"
 viewBox="0.00 0.00 1038.00 114.00" xmlns="http://www.w3.org/2000/svg" xmlns:xlink="http://www.w3.org/1999/xlink">
<g id="graph0" class="graph" transform="scale(1 1) rotate(0) translate(4 110)">
<title>Harlinn::Common::Core::Environment::Group</title>
<!-- Node1 -->
<g id="Node000001" class="node">
<title>Node1</title>
<g id="a_Node000001"><a xlink:title="Represents a local or domain group.">
<polygon fill="#999999" stroke="#666666" points="1030,-78 912,-78 912,-48 1030,-48 1030,-78"/>
<text text-anchor="start" x="920" y="-66" font-family="Helvetica,sans-Serif" font-size="10.00">Harlinn::Common::Core</text>
<text text-anchor="middle" x="971" y="-55" font-family="Helvetica,sans-Serif" font-size="10.00">::Environment::Group</text>
</a>
</g>
</g>
<!-- Node2 -->
<g id="Node000002" class="node">
<title>Node2</title>
<g id="a_Node000002"><a xlink:href="class_harlinn_1_1_common_1_1_core_1_1_environment_1_1_domain_object.html" target="_top" xlink:title=" ">
<polygon fill="white" stroke="#666666" points="825,-78 682,-78 682,-48 825,-48 825,-78"/>
<text text-anchor="start" x="690" y="-66" font-family="Helvetica,sans-Serif" font-size="10.00">Harlinn::Common::Core</text>
<text text-anchor="middle" x="753.5" y="-55" font-family="Helvetica,sans-Serif" font-size="10.00">::Environment::DomainObject</text>
</a>
</g>
</g>
<!-- Node2&#45;&gt;Node1 -->
<g id="edge1_Node000001_Node000002" class="edge">
<title>Node2&#45;&gt;Node1</title>
<g id="a_edge1_Node000001_Node000002"><a xlink:title=" ">
<path fill="none" stroke="#63b8ff" d="M836.68,-63C861.67,-63 888.61,-63 911.68,-63"/>
<polygon fill="#63b8ff" stroke="#63b8ff" points="836.87,-59.5 826.87,-63 836.87,-66.5 836.87,-59.5"/>
</a>
</g>
</g>
<!-- Node3 -->
<g id="Node000003" class="node">
<title>Node3</title>
<g id="a_Node000003"><a xlink:href="class_harlinn_1_1_common_1_1_core_1_1_basic_string.html" target="_top" xlink:title=" ">
<polygon fill="white" stroke="#666666" points="613,-104 488,-104 488,-74 613,-74 613,-104"/>
<text text-anchor="start" x="496" y="-92" font-family="Helvetica,sans-Serif" font-size="10.00">Harlinn::Common::Core</text>
<text text-anchor="middle" x="550.5" y="-81" font-family="Helvetica,sans-Serif" font-size="10.00">::BasicString&lt; wchar_t &gt;</text>
</a>
</g>
</g>
<!-- Node3&#45;&gt;Node1 -->
<g id="edge7_Node000001_Node000003" class="edge">
<title>Node3&#45;&gt;Node1</title>
<g id="a_edge7_Node000001_Node000003"><a xlink:title=" ">
<path fill="none" stroke="#9a32cd" stroke-dasharray="5,2" d="M624.39,-92.81C626.62,-92.88 628.82,-92.95 631,-93 748.07,-95.94 778.45,-96.01 894,-77 899.69,-76.06 905.62,-75.05 911.53,-74"/>
<polygon fill="#9a32cd" stroke="#9a32cd" points="624.75,-89.32 614.63,-92.46 624.5,-96.32 624.75,-89.32"/>
</a>
</g>
<text text-anchor="middle" x="753.5" y="-97" font-family="Helvetica,sans-Serif" font-size="10.00" fill="grey"> comment_</text>
</g>
<!-- Node3&#45;&gt;Node2 -->
<g id="edge2_Node000002_Node000003" class="edge">
<title>Node3&#45;&gt;Node2</title>
<g id="a_edge2_Node000002_Node000003"><a xlink:title=" ">
<path fill="none" stroke="#9a32cd" stroke-dasharray="5,2" d="M624.79,-79.52C643.33,-77.12 663.2,-74.55 681.62,-72.17"/>
<polygon fill="#9a32cd" stroke="#9a32cd" points="624.42,-76.04 614.95,-80.79 625.31,-82.98 624.42,-76.04"/>
</a>
</g>
<text text-anchor="middle" x="647.5" y="-81" font-family="Helvetica,sans-Serif" font-size="10.00" fill="grey"> name_</text>
</g>
<!-- Node4 -->
<g id="Node000004" class="node">
<title>Node4</title>
<g id="a_Node000004"><a xlink:href="struct_harlinn_1_1_common_1_1_core_1_1_internal_1_1_data.html" target="_top" xlink:title=" ">
<polygon fill="white" stroke="#666666" points="215,-104 97,-104 97,-74 215,-74 215,-104"/>
<text text-anchor="start" x="105" y="-92" font-family="Helvetica,sans-Serif" font-size="10.00">Harlinn::Common::Core</text>
<text text-anchor="middle" x="156" y="-81" font-family="Helvetica,sans-Serif" font-size="10.00">::Internal::Data&lt; T &gt;</text>
</a>
</g>
</g>
<!-- Node4&#45;&gt;Node3 -->
<g id="edge3_Node000003_Node000004" class="edge">
<title>Node4&#45;&gt;Node3</title>
<g id="a_edge3_Node000003_Node000004"><a xlink:title=" ">
<path fill="none" stroke="#9a32cd" stroke-dasharray="5,2" d="M226.73,-92C290.17,-94.29 386.39,-96.63 470,-94 475.81,-93.82 481.85,-93.56 487.89,-93.26"/>
<polygon fill="#9a32cd" stroke="#9a32cd" points="226.91,-88.51 216.79,-91.64 226.65,-95.5 226.91,-88.51"/>
</a>
</g>
<text text-anchor="middle" x="338" y="-98" font-family="Helvetica,sans-Serif" font-size="10.00" fill="grey"> data_</text>
</g>
<!-- Node6 -->
<g id="Node000006" class="node">
<title>Node6</title>
<g id="a_Node000006"><a xlink:href="class_harlinn_1_1_common_1_1_core_1_1_basic_string.html" target="_top" xlink:title="This is a reference counted string class.">
<polygon fill="white" stroke="#666666" points="397,-78 279,-78 279,-48 397,-48 397,-78"/>
<text text-anchor="start" x="287" y="-66" font-family="Helvetica,sans-Serif" font-size="10.00">Harlinn::Common::Core</text>
<text text-anchor="middle" x="338" y="-55" font-family="Helvetica,sans-Serif" font-size="10.00">::BasicString&lt; T &gt;</text>
</a>
</g>
</g>
<!-- Node4&#45;&gt;Node6 -->
<g id="edge6_Node000006_Node000004" class="edge">
<title>Node4&#45;&gt;Node6</title>
<g id="a_edge6_Node000006_Node000004"><a xlink:title=" ">
<path fill="none" stroke="#9a32cd" stroke-dasharray="5,2" d="M226.55,-78.95C243.73,-76.47 261.95,-73.84 278.54,-71.44"/>
<polygon fill="#9a32cd" stroke="#9a32cd" points="226.34,-75.45 216.94,-80.34 227.34,-82.38 226.34,-75.45"/>
</a>
</g>
<text text-anchor="middle" x="247" y="-80" font-family="Helvetica,sans-Serif" font-size="10.00" fill="grey"> data_</text>
</g>
<!-- Node5 -->
<g id="Node000005" class="node">
<title>Node5</title>
<g id="a_Node000005"><a xlink:title=" ">
<polygon fill="white" stroke="#666666" points="29,-98.5 0,-98.5 0,-79.5 29,-79.5 29,-98.5"/>
<text text-anchor="middle" x="14.5" y="-86.5" font-family="Helvetica,sans-Serif" font-size="10.00">T</text>
</a>
</g>
</g>
<!-- Node5&#45;&gt;Node4 -->
<g id="edge4_Node000004_Node000005" class="edge">
<title>Node5&#45;&gt;Node4</title>
<g id="a_edge4_Node000004_Node000005"><a xlink:title=" ">
<path fill="none" stroke="#9a32cd" stroke-dasharray="5,2" d="M40.72,-89C56.38,-89 77.19,-89 96.76,-89"/>
<polygon fill="#9a32cd" stroke="#9a32cd" points="40.9,-85.5 30.9,-89 40.9,-92.5 40.9,-85.5"/>
</a>
</g>
<text text-anchor="middle" x="63" y="-92" font-family="Helvetica,sans-Serif" font-size="10.00" fill="grey"> buffer_</text>
</g>
<!-- Node6&#45;&gt;Node3 -->
<g id="edge5_Node000003_Node000006" class="edge">
<title>Node6&#45;&gt;Node3</title>
<g id="a_edge5_Node000003_Node000006"><a xlink:title=" ">
<path fill="none" stroke="orange" stroke-dasharray="5,2" d="M408.48,-71.58C434.07,-74.74 462.86,-78.3 487.72,-81.37"/>
<polygon fill="orange" stroke="orange" points="409.21,-68.15 398.86,-70.39 408.35,-75.09 409.21,-68.15"/>
</a>
</g>
<text text-anchor="middle" x="442.5" y="-82" font-family="Helvetica,sans-Serif" font-size="10.00" fill="grey"> &lt; wchar_t &gt;</text>
</g>
<!-- Node7 -->
<g id="Node000007" class="node">
<title>Node7</title>
<g id="a_Node000007"><a xlink:href="class_harlinn_1_1_common_1_1_core_1_1_security_1_1_security_id.html" target="_top" xlink:title="A security identifier (SID) is a unique value of variable length used to identify a trustee....">
<polygon fill="white" stroke="#666666" points="812.5,-30 694.5,-30 694.5,0 812.5,0 812.5,-30"/>
<text text-anchor="start" x="702.5" y="-18" font-family="Helvetica,sans-Serif" font-size="10.00">Harlinn::Common::Core</text>
<text text-anchor="middle" x="753.5" y="-7" font-family="Helvetica,sans-Serif" font-size="10.00">::Security::SecurityId</text>
</a>
</g>
</g>
<!-- Node7&#45;&gt;Node1 -->
<g id="edge8_Node000001_Node000007" class="edge">
<title>Node7&#45;&gt;Node1</title>
<g id="a_edge8_Node000001_Node000007"><a xlink:title=" ">
<path fill="none" stroke="#9a32cd" stroke-dasharray="5,2" d="M823.86,-30.45C852.17,-36.76 884.56,-43.97 911.64,-50"/>
<polygon fill="#9a32cd" stroke="#9a32cd" points="824.82,-27.08 814.29,-28.32 823.29,-33.91 824.82,-27.08"/>
</a>
</g>
<text text-anchor="middle" x="868.5" y="-48" font-family="Helvetica,sans-Serif" font-size="10.00" fill="grey"> securityId_</text>
</g>
</g>
</svg>
