<?xml version="1.0" encoding="UTF-8" standalone="no"?>
<!DOCTYPE svg PUBLIC "-//W3C//DTD SVG 1.1//EN"
 "http://www.w3.org/Graphics/SVG/1.1/DTD/svg11.dtd">
<!-- Generated by graphviz version 7.0.1 (20221109.1506)
 -->
<!-- Title: Harlinn::OCI::GuidBind Pages: 1 -->
<svg width="216pt" height="339pt"
 viewBox="0.00 0.00 215.50 339.00" xmlns="http://www.w3.org/2000/svg" xmlns:xlink="http://www.w3.org/1999/xlink">
<g id="graph0" class="graph" transform="scale(1 1) rotate(0) translate(4 335)">
<title>Harlinn::OCI::GuidBind</title>
<!-- Node1 -->
<g id="Node000001" class="node">
<title>Node1</title>
<g id="a_Node000001"><a xlink:title="GuidBind.">
<polygon fill="#999999" stroke="#666666" points="125.5,-19 10.5,-19 10.5,0 125.5,0 125.5,-19"/>
<text text-anchor="middle" x="68" y="-7" font-family="Helvetica,sans-Serif" font-size="10.00">Harlinn::OCI::GuidBind</text>
</a>
</g>
</g>
<!-- Node2 -->
<g id="Node000002" class="node">
<title>Node2</title>
<g id="a_Node000002"><a xlink:href="class_harlinn_1_1_o_c_i_1_1_fixed_binary_bind.html" target="_top" xlink:title=" ">
<polygon fill="white" stroke="#666666" points="131.5,-86 4.5,-86 4.5,-56 131.5,-56 131.5,-86"/>
<text text-anchor="start" x="12.5" y="-74" font-family="Helvetica,sans-Serif" font-size="10.00">Harlinn::OCI::FixedBinary</text>
<text text-anchor="middle" x="68" y="-63" font-family="Helvetica,sans-Serif" font-size="10.00">Bind&lt; sizeof(Guid)&gt;</text>
</a>
</g>
</g>
<!-- Node2&#45;&gt;Node1 -->
<g id="edge1_Node000001_Node000002" class="edge">
<title>Node2&#45;&gt;Node1</title>
<g id="a_edge1_Node000001_Node000002"><a xlink:title=" ">
<path fill="none" stroke="#63b8ff" d="M68,-44.13C68,-35.29 68,-25.99 68,-19.42"/>
<polygon fill="#63b8ff" stroke="#63b8ff" points="64.5,-44.08 68,-54.08 71.5,-44.08 64.5,-44.08"/>
</a>
</g>
</g>
<!-- Node3 -->
<g id="Node000003" class="node">
<title>Node3</title>
<g id="a_Node000003"><a xlink:href="class_harlinn_1_1_o_c_i_1_1_bind.html" target="_top" xlink:title="Bind, base class for binding a single value.">
<polygon fill="white" stroke="#666666" points="111.5,-219 16.5,-219 16.5,-200 111.5,-200 111.5,-219"/>
<text text-anchor="middle" x="64" y="-207" font-family="Helvetica,sans-Serif" font-size="10.00">Harlinn::OCI::Bind</text>
</a>
</g>
</g>
<!-- Node3&#45;&gt;Node2 -->
<g id="edge2_Node000002_Node000003" class="edge">
<title>Node3&#45;&gt;Node2</title>
<g id="a_edge2_Node000002_Node000003"><a xlink:title=" ">
<path fill="none" stroke="#63b8ff" d="M64.6,-188.07C65.42,-160.12 66.87,-110.66 67.58,-86.33"/>
<polygon fill="#63b8ff" stroke="#63b8ff" points="61.1,-187.93 64.31,-198.03 68.1,-188.14 61.1,-187.93"/>
</a>
</g>
</g>
<!-- Node6 -->
<g id="Node000006" class="node">
<title>Node6</title>
<g id="a_Node000006"><a xlink:href="class_harlinn_1_1_o_c_i_1_1_fixed_binary_bind.html" target="_top" xlink:title="FixedBinaryBind.">
<polygon fill="white" stroke="#666666" points="207.5,-163 80.5,-163 80.5,-133 207.5,-133 207.5,-163"/>
<text text-anchor="start" x="88.5" y="-151" font-family="Helvetica,sans-Serif" font-size="10.00">Harlinn::OCI::FixedBinary</text>
<text text-anchor="middle" x="144" y="-140" font-family="Helvetica,sans-Serif" font-size="10.00">Bind&lt; size_ &gt;</text>
</a>
</g>
</g>
<!-- Node3&#45;&gt;Node6 -->
<g id="edge6_Node000006_Node000003" class="edge">
<title>Node3&#45;&gt;Node6</title>
<g id="a_edge6_Node000006_Node000003"><a xlink:title=" ">
<path fill="none" stroke="#63b8ff" d="M84.88,-192.97C97.19,-183.81 112.67,-172.3 124.7,-163.36"/>
<polygon fill="#63b8ff" stroke="#63b8ff" points="82.95,-190.04 77.02,-198.82 87.13,-195.66 82.95,-190.04"/>
</a>
</g>
</g>
<!-- Node4 -->
<g id="Node000004" class="node">
<title>Node4</title>
<g id="a_Node000004"><a xlink:href="class_harlinn_1_1_o_c_i_1_1_bind_base.html" target="_top" xlink:title="BindBase, base class for binds.">
<polygon fill="white" stroke="#666666" points="122.5,-275 5.5,-275 5.5,-256 122.5,-256 122.5,-275"/>
<text text-anchor="middle" x="64" y="-263" font-family="Helvetica,sans-Serif" font-size="10.00">Harlinn::OCI::BindBase</text>
</a>
</g>
</g>
<!-- Node4&#45;&gt;Node3 -->
<g id="edge3_Node000003_Node000004" class="edge">
<title>Node4&#45;&gt;Node3</title>
<g id="a_edge3_Node000003_Node000004"><a xlink:title=" ">
<path fill="none" stroke="#63b8ff" d="M64,-244.11C64,-235.52 64,-225.97 64,-219.25"/>
<polygon fill="#63b8ff" stroke="#63b8ff" points="60.5,-244.07 64,-254.07 67.5,-244.07 60.5,-244.07"/>
</a>
</g>
</g>
<!-- Node5 -->
<g id="Node000005" class="node">
<title>Node5</title>
<g id="a_Node000005"><a xlink:href="class_harlinn_1_1_o_c_i_1_1_handle_base.html" target="_top" xlink:title="Base class for OCI handle wrappers.">
<polygon fill="white" stroke="#666666" points="128,-331 0,-331 0,-312 128,-312 128,-331"/>
<text text-anchor="middle" x="64" y="-319" font-family="Helvetica,sans-Serif" font-size="10.00">Harlinn::OCI::HandleBase</text>
</a>
</g>
</g>
<!-- Node5&#45;&gt;Node4 -->
<g id="edge4_Node000004_Node000005" class="edge">
<title>Node5&#45;&gt;Node4</title>
<g id="a_edge4_Node000004_Node000005"><a xlink:title=" ">
<path fill="none" stroke="#63b8ff" d="M64,-300.11C64,-291.52 64,-281.97 64,-275.25"/>
<polygon fill="#63b8ff" stroke="#63b8ff" points="60.5,-300.07 64,-310.07 67.5,-300.07 60.5,-300.07"/>
</a>
</g>
</g>
<!-- Node6&#45;&gt;Node2 -->
<g id="edge5_Node000002_Node000006" class="edge">
<title>Node6&#45;&gt;Node2</title>
<g id="a_edge5_Node000002_Node000006"><a xlink:title=" ">
<path fill="none" stroke="orange" stroke-dasharray="5,2" d="M121.19,-124.49C108.67,-112.14 93.53,-97.2 82.61,-86.42"/>
<polygon fill="orange" stroke="orange" points="118.69,-126.94 128.27,-131.48 123.61,-121.96 118.69,-126.94"/>
</a>
</g>
<text text-anchor="middle" x="145" y="-107" font-family="Helvetica,sans-Serif" font-size="10.00" fill="grey"> &lt; sizeof(Guid)&gt;</text>
</g>
</g>
</svg>
