<?xml version="1.0" encoding="UTF-8" standalone="no"?>
<!DOCTYPE svg PUBLIC "-//W3C//DTD SVG 1.1//EN"
 "http://www.w3.org/Graphics/SVG/1.1/DTD/svg11.dtd">
<!-- Generated by graphviz version 7.0.1 (20221109.1506)
 -->
<!-- Title: Harlinn::Common::Core::FixedString&lt; CharT, maxSize, internalSizeInBytes &gt; Pages: 1 -->
<svg width="205pt" height="258pt"
 viewBox="0.00 0.00 204.50 258.00" xmlns="http://www.w3.org/2000/svg" xmlns:xlink="http://www.w3.org/1999/xlink">
<g id="graph0" class="graph" transform="scale(1 1) rotate(0) translate(4 254)">
<title>Harlinn::Common::Core::FixedString&lt; CharT, maxSize, internalSizeInBytes &gt;</title>
<!-- Node1 -->
<g id="Node000001" class="node">
<title>Node1</title>
<g id="a_Node000001"><a xlink:title=" ">
<polygon fill="#999999" stroke="#666666" points="157,-41 0,-41 0,0 157,0 157,-41"/>
<text text-anchor="start" x="8" y="-29" font-family="Helvetica,sans-Serif" font-size="10.00">Harlinn::Common::Core</text>
<text text-anchor="start" x="8" y="-18" font-family="Helvetica,sans-Serif" font-size="10.00">::FixedString&lt; CharT,</text>
<text text-anchor="middle" x="78.5" y="-7" font-family="Helvetica,sans-Serif" font-size="10.00"> maxSize, internalSizeInBytes &gt;</text>
</a>
</g>
</g>
<!-- Node2 -->
<g id="Node000002" class="node">
<title>Node2</title>
<g id="a_Node000002"><a xlink:title=" ">
<polygon fill="white" stroke="#666666" points="134,-118 23,-118 23,-88 134,-88 134,-118"/>
<text text-anchor="start" x="31" y="-106" font-family="Helvetica,sans-Serif" font-size="10.00">std::array&lt; CharType,</text>
<text text-anchor="middle" x="78.5" y="-95" font-family="Helvetica,sans-Serif" font-size="10.00"> MaxSize+1 &gt;</text>
</a>
</g>
</g>
<!-- Node2&#45;&gt;Node1 -->
<g id="edge1_Node000001_Node000002" class="edge">
<title>Node2&#45;&gt;Node1</title>
<g id="a_edge1_Node000001_Node000002"><a xlink:title=" ">
<path fill="none" stroke="#9a32cd" stroke-dasharray="5,2" d="M78.5,-76.2C78.5,-64.86 78.5,-51.75 78.5,-41.21"/>
<polygon fill="#9a32cd" stroke="#9a32cd" points="75,-76.09 78.5,-86.09 82,-76.09 75,-76.09"/>
</a>
</g>
<text text-anchor="middle" x="92.5" y="-62" font-family="Helvetica,sans-Serif" font-size="10.00" fill="grey"> data_</text>
</g>
<!-- Node3 -->
<g id="Node000003" class="node">
<title>Node3</title>
<g id="a_Node000003"><a xlink:title=" ">
<polygon fill="white" stroke="#666666" points="119,-184 38,-184 38,-165 119,-165 119,-184"/>
<text text-anchor="middle" x="78.5" y="-172" font-family="Helvetica,sans-Serif" font-size="10.00">std::array&lt; T &gt;</text>
</a>
</g>
</g>
<!-- Node3&#45;&gt;Node2 -->
<g id="edge2_Node000002_Node000003" class="edge">
<title>Node3&#45;&gt;Node2</title>
<g id="a_edge2_Node000002_Node000003"><a xlink:title=" ">
<path fill="none" stroke="orange" stroke-dasharray="5,2" d="M78.5,-153.39C78.5,-142.15 78.5,-128.41 78.5,-118.27"/>
<polygon fill="orange" stroke="orange" points="75,-153.18 78.5,-163.18 82,-153.18 75,-153.18"/>
</a>
</g>
<text text-anchor="middle" x="137.5" y="-139" font-family="Helvetica,sans-Serif" font-size="10.00" fill="grey"> &lt; CharType, MaxSize+1 &gt;</text>
</g>
<!-- Node4 -->
<g id="Node000004" class="node">
<title>Node4</title>
<g id="a_Node000004"><a xlink:title=" ">
<polygon fill="white" stroke="#666666" points="93,-250 64,-250 64,-231 93,-231 93,-250"/>
<text text-anchor="middle" x="78.5" y="-238" font-family="Helvetica,sans-Serif" font-size="10.00">T</text>
</a>
</g>
</g>
<!-- Node4&#45;&gt;Node3 -->
<g id="edge3_Node000003_Node000004" class="edge">
<title>Node4&#45;&gt;Node3</title>
<g id="a_edge3_Node000003_Node000004"><a xlink:title=" ">
<path fill="none" stroke="#9a32cd" stroke-dasharray="5,2" d="M78.5,-219.18C78.5,-207.44 78.5,-193.27 78.5,-184.32"/>
<polygon fill="#9a32cd" stroke="#9a32cd" points="75,-219.09 78.5,-229.09 82,-219.09 75,-219.09"/>
</a>
</g>
<text text-anchor="middle" x="100" y="-205" font-family="Helvetica,sans-Serif" font-size="10.00" fill="grey"> elements</text>
</g>
</g>
</svg>
