<?xml version="1.0" encoding="UTF-8" standalone="no"?>
<!DOCTYPE svg PUBLIC "-//W3C//DTD SVG 1.1//EN"
 "http://www.w3.org/Graphics/SVG/1.1/DTD/svg11.dtd">
<!-- Generated by graphviz version 7.0.1 (20221109.1506)
 -->
<!-- Title: Harlinn::Windows::Graphics::D3D11::ShaderResourceView Pages: 1 -->
<svg width="164pt" height="302pt"
 viewBox="0.00 0.00 164.00 302.00" xmlns="http://www.w3.org/2000/svg" xmlns:xlink="http://www.w3.org/1999/xlink">
<g id="graph0" class="graph" transform="scale(1 1) rotate(0) translate(4 298)">
<title>Harlinn::Windows::Graphics::D3D11::ShaderResourceView</title>
<!-- Node1 -->
<g id="Node000001" class="node">
<title>Node1</title>
<g id="a_Node000001"><a xlink:title="A shader&#45;resource&#45;view object specifies the sub&#45;resources a shader can access during rendering....">
<polygon fill="#999999" stroke="#666666" points="153.5,-96 2.5,-96 2.5,-66 153.5,-66 153.5,-96"/>
<text text-anchor="start" x="10.5" y="-84" font-family="Helvetica,sans-Serif" font-size="10.00">Harlinn::Windows::Graphics</text>
<text text-anchor="middle" x="78" y="-73" font-family="Helvetica,sans-Serif" font-size="10.00">::D3D11::ShaderResourceView</text>
</a>
</g>
</g>
<!-- Node5 -->
<g id="Node000005" class="node">
<title>Node5</title>
<g id="a_Node000005"><a xlink:href="class_harlinn_1_1_windows_1_1_graphics_1_1_d3_d11_1_1_shader_resource_view1.html" target="_top" xlink:title="A shader&#45;resource&#45;view object represents the subresources a shader can access during rendering....">
<polygon fill="white" stroke="#666666" points="156,-30 0,-30 0,0 156,0 156,-30"/>
<text text-anchor="start" x="8" y="-18" font-family="Helvetica,sans-Serif" font-size="10.00">Harlinn::Windows::Graphics</text>
<text text-anchor="middle" x="78" y="-7" font-family="Helvetica,sans-Serif" font-size="10.00">::D3D11::ShaderResourceView1</text>
</a>
</g>
</g>
<!-- Node1&#45;&gt;Node5 -->
<g id="edge4_Node000001_Node000005" class="edge">
<title>Node1&#45;&gt;Node5</title>
<g id="a_edge4_Node000001_Node000005"><a xlink:title=" ">
<path fill="none" stroke="#63b8ff" d="M78,-54.39C78,-46.13 78,-37.28 78,-30.16"/>
<polygon fill="#63b8ff" stroke="#63b8ff" points="74.5,-54.28 78,-64.28 81.5,-54.28 74.5,-54.28"/>
</a>
</g>
</g>
<!-- Node2 -->
<g id="Node000002" class="node">
<title>Node2</title>
<g id="a_Node000002"><a xlink:href="class_harlinn_1_1_windows_1_1_graphics_1_1_d3_d11_1_1_view.html" target="_top" xlink:title="A view object specifies the parts of a resource the pipeline can access during rendering.">
<polygon fill="white" stroke="#666666" points="146.5,-162 9.5,-162 9.5,-132 146.5,-132 146.5,-162"/>
<text text-anchor="start" x="17.5" y="-150" font-family="Helvetica,sans-Serif" font-size="10.00">Harlinn::Windows::Graphics</text>
<text text-anchor="middle" x="78" y="-139" font-family="Helvetica,sans-Serif" font-size="10.00">::D3D11::View</text>
</a>
</g>
</g>
<!-- Node2&#45;&gt;Node1 -->
<g id="edge1_Node000001_Node000002" class="edge">
<title>Node2&#45;&gt;Node1</title>
<g id="a_edge1_Node000001_Node000002"><a xlink:title=" ">
<path fill="none" stroke="#63b8ff" d="M78,-120.39C78,-112.13 78,-103.28 78,-96.16"/>
<polygon fill="#63b8ff" stroke="#63b8ff" points="74.5,-120.28 78,-130.28 81.5,-120.28 74.5,-120.28"/>
</a>
</g>
</g>
<!-- Node3 -->
<g id="Node000003" class="node">
<title>Node3</title>
<g id="a_Node000003"><a xlink:href="class_harlinn_1_1_windows_1_1_graphics_1_1_d3_d11_1_1_device_child.html" target="_top" xlink:title="A device&#45;child object accesses data used by a device.">
<polygon fill="white" stroke="#666666" points="146.5,-228 9.5,-228 9.5,-198 146.5,-198 146.5,-228"/>
<text text-anchor="start" x="17.5" y="-216" font-family="Helvetica,sans-Serif" font-size="10.00">Harlinn::Windows::Graphics</text>
<text text-anchor="middle" x="78" y="-205" font-family="Helvetica,sans-Serif" font-size="10.00">::D3D11::DeviceChild</text>
</a>
</g>
</g>
<!-- Node3&#45;&gt;Node2 -->
<g id="edge2_Node000002_Node000003" class="edge">
<title>Node3&#45;&gt;Node2</title>
<g id="a_edge2_Node000002_Node000003"><a xlink:title=" ">
<path fill="none" stroke="#63b8ff" d="M78,-186.39C78,-178.13 78,-169.28 78,-162.16"/>
<polygon fill="#63b8ff" stroke="#63b8ff" points="74.5,-186.28 78,-196.28 81.5,-186.28 74.5,-186.28"/>
</a>
</g>
</g>
<!-- Node4 -->
<g id="Node000004" class="node">
<title>Node4</title>
<g id="a_Node000004"><a xlink:href="class_harlinn_1_1_common_1_1_core_1_1_unknown.html" target="_top" xlink:title="Base class for COM interface wrappers.">
<polygon fill="white" stroke="#666666" points="137,-294 19,-294 19,-264 137,-264 137,-294"/>
<text text-anchor="start" x="27" y="-282" font-family="Helvetica,sans-Serif" font-size="10.00">Harlinn::Common::Core</text>
<text text-anchor="middle" x="78" y="-271" font-family="Helvetica,sans-Serif" font-size="10.00">::Unknown</text>
</a>
</g>
</g>
<!-- Node4&#45;&gt;Node3 -->
<g id="edge3_Node000003_Node000004" class="edge">
<title>Node4&#45;&gt;Node3</title>
<g id="a_edge3_Node000003_Node000004"><a xlink:title=" ">
<path fill="none" stroke="#63b8ff" d="M78,-252.39C78,-244.13 78,-235.28 78,-228.16"/>
<polygon fill="#63b8ff" stroke="#63b8ff" points="74.5,-252.28 78,-262.28 81.5,-252.28 74.5,-252.28"/>
</a>
</g>
</g>
</g>
</svg>
