<?xml version="1.0" encoding="UTF-8" standalone="no"?>
<!DOCTYPE svg PUBLIC "-//W3C//DTD SVG 1.1//EN"
 "http://www.w3.org/Graphics/SVG/1.1/DTD/svg11.dtd">
<!-- Generated by graphviz version 7.0.1 (20221109.1506)
 -->
<!-- Title: Harlinn::Common::Core::Logging::Sinks::Storage::LogSiteTableInfo Pages: 1 -->
<svg width="842pt" height="74pt"
 viewBox="0.00 0.00 842.00 74.00" xmlns="http://www.w3.org/2000/svg" xmlns:xlink="http://www.w3.org/1999/xlink">
<g id="graph0" class="graph" transform="scale(1 1) rotate(0) translate(4 70)">
<title>Harlinn::Common::Core::Logging::Sinks::Storage::LogSiteTableInfo</title>
<!-- Node1 -->
<g id="Node000001" class="node">
<title>Node1</title>
<g id="a_Node000001"><a xlink:title="LogSiteTableInfo.">
<polygon fill="#999999" stroke="#666666" points="834,-66 707,-66 707,-25 834,-25 834,-66"/>
<text text-anchor="start" x="715" y="-54" font-family="Helvetica,sans-Serif" font-size="10.00">Harlinn::Common::Core</text>
<text text-anchor="start" x="715" y="-43" font-family="Helvetica,sans-Serif" font-size="10.00">::Logging::Sinks::Storage</text>
<text text-anchor="middle" x="770.5" y="-32" font-family="Helvetica,sans-Serif" font-size="10.00">::LogSiteTableInfo</text>
</a>
</g>
</g>
<!-- Node2 -->
<g id="Node000002" class="node">
<title>Node2</title>
<g id="a_Node000002"><a xlink:href="class_harlinn_1_1_common_1_1_core_1_1_l_m_d_b_ex_1_1_table_info_t.html" target="_top" xlink:title=" ">
<polygon fill="white" stroke="#666666" points="670,-66 552,-66 552,-25 670,-25 670,-66"/>
<text text-anchor="start" x="560" y="-54" font-family="Helvetica,sans-Serif" font-size="10.00">Harlinn::Common::Core</text>
<text text-anchor="start" x="560" y="-43" font-family="Helvetica,sans-Serif" font-size="10.00">::LMDBEx::TableInfoT</text>
<text text-anchor="middle" x="611" y="-32" font-family="Helvetica,sans-Serif" font-size="10.00">&lt; LogSiteTable &gt;</text>
</a>
</g>
</g>
<!-- Node2&#45;&gt;Node1 -->
<g id="edge1_Node000001_Node000002" class="edge">
<title>Node2&#45;&gt;Node1</title>
<g id="a_edge1_Node000001_Node000002"><a xlink:title=" ">
<path fill="none" stroke="#63b8ff" d="M681.45,-45.5C689.79,-45.5 698.27,-45.5 706.51,-45.5"/>
<polygon fill="#63b8ff" stroke="#63b8ff" points="681.71,-42 671.71,-45.5 681.71,-49 681.71,-42"/>
</a>
</g>
</g>
<!-- Node3 -->
<g id="Node000003" class="node">
<title>Node3</title>
<g id="a_Node000003"><a xlink:href="class_harlinn_1_1_common_1_1_core_1_1_l_m_d_b_ex_1_1_table_info.html" target="_top" xlink:title="TableInfo.">
<polygon fill="white" stroke="#666666" points="283,-59.5 165,-59.5 165,-29.5 283,-29.5 283,-59.5"/>
<text text-anchor="start" x="173" y="-47.5" font-family="Helvetica,sans-Serif" font-size="10.00">Harlinn::Common::Core</text>
<text text-anchor="middle" x="224" y="-36.5" font-family="Helvetica,sans-Serif" font-size="10.00">::LMDBEx::TableInfo</text>
</a>
</g>
</g>
<!-- Node3&#45;&gt;Node2 -->
<g id="edge2_Node000002_Node000003" class="edge">
<title>Node3&#45;&gt;Node2</title>
<g id="a_edge2_Node000002_Node000003"><a xlink:title=" ">
<path fill="none" stroke="#63b8ff" d="M294.72,-49.16C357.36,-52.67 451.87,-56.27 534,-52.5 539.69,-52.24 545.62,-51.87 551.53,-51.43"/>
<polygon fill="#63b8ff" stroke="#63b8ff" points="295.1,-45.67 284.91,-48.59 294.69,-52.66 295.1,-45.67"/>
</a>
</g>
</g>
<!-- Node5 -->
<g id="Node000005" class="node">
<title>Node5</title>
<g id="a_Node000005"><a xlink:href="class_harlinn_1_1_common_1_1_core_1_1_l_m_d_b_ex_1_1_table_info_t.html" target="_top" xlink:title=" ">
<polygon fill="white" stroke="#666666" points="438,-41 320,-41 320,0 438,0 438,-41"/>
<text text-anchor="start" x="328" y="-29" font-family="Helvetica,sans-Serif" font-size="10.00">Harlinn::Common::Core</text>
<text text-anchor="start" x="328" y="-18" font-family="Helvetica,sans-Serif" font-size="10.00">::LMDBEx::TableInfoT</text>
<text text-anchor="middle" x="379" y="-7" font-family="Helvetica,sans-Serif" font-size="10.00">&lt; TableT &gt;</text>
</a>
</g>
</g>
<!-- Node3&#45;&gt;Node5 -->
<g id="edge5_Node000005_Node000003" class="edge">
<title>Node3&#45;&gt;Node5</title>
<g id="a_edge5_Node000005_Node000003"><a xlink:title=" ">
<path fill="none" stroke="#63b8ff" d="M294.59,-33.58C302.96,-32.27 311.44,-30.94 319.63,-29.66"/>
<polygon fill="#63b8ff" stroke="#63b8ff" points="294.11,-30.12 284.77,-35.12 295.2,-37.03 294.11,-30.12"/>
</a>
</g>
</g>
<!-- Node4 -->
<g id="Node000004" class="node">
<title>Node4</title>
<g id="a_Node000004"><a xlink:href="class_harlinn_1_1_common_1_1_core_1_1_l_m_d_b_ex_1_1_table_info_base.html" target="_top" xlink:title="TableInfoBase.">
<polygon fill="white" stroke="#666666" points="128,-59.5 0,-59.5 0,-29.5 128,-29.5 128,-59.5"/>
<text text-anchor="start" x="8" y="-47.5" font-family="Helvetica,sans-Serif" font-size="10.00">Harlinn::Common::Core</text>
<text text-anchor="middle" x="64" y="-36.5" font-family="Helvetica,sans-Serif" font-size="10.00">::LMDBEx::TableInfoBase</text>
</a>
</g>
</g>
<!-- Node4&#45;&gt;Node3 -->
<g id="edge3_Node000003_Node000004" class="edge">
<title>Node4&#45;&gt;Node3</title>
<g id="a_edge3_Node000003_Node000004"><a xlink:title=" ">
<path fill="none" stroke="#63b8ff" d="M139.73,-44.5C148.13,-44.5 156.6,-44.5 164.75,-44.5"/>
<polygon fill="#63b8ff" stroke="#63b8ff" points="139.87,-41 129.87,-44.5 139.87,-48 139.87,-41"/>
</a>
</g>
</g>
<!-- Node5&#45;&gt;Node2 -->
<g id="edge4_Node000002_Node000005" class="edge">
<title>Node5&#45;&gt;Node2</title>
<g id="a_edge4_Node000002_Node000005"><a xlink:title=" ">
<path fill="none" stroke="orange" stroke-dasharray="5,2" d="M449.61,-28.07C482.24,-31.61 520.66,-35.79 551.73,-39.17"/>
<polygon fill="orange" stroke="orange" points="450.16,-24.61 439.84,-27 449.4,-31.56 450.16,-24.61"/>
</a>
</g>
<text text-anchor="middle" x="495" y="-40.5" font-family="Helvetica,sans-Serif" font-size="10.00" fill="grey"> &lt; LogSiteTable &gt;</text>
</g>
</g>
</svg>
