<?xml version="1.0" encoding="UTF-8" standalone="no"?>
<!DOCTYPE svg PUBLIC "-//W3C//DTD SVG 1.1//EN"
 "http://www.w3.org/Graphics/SVG/1.1/DTD/svg11.dtd">
<!-- Generated by graphviz version 7.0.1 (20221109.1506)
 -->
<!-- Title: Harlinn::Common::Core::Security::Cryptography::CryptographicUnexpectedOperationException Pages: 1 -->
<svg width="184pt" height="324pt"
 viewBox="0.00 0.00 184.00 324.00" xmlns="http://www.w3.org/2000/svg" xmlns:xlink="http://www.w3.org/1999/xlink">
<g id="graph0" class="graph" transform="scale(1 1) rotate(0) translate(4 320)">
<title>Harlinn::Common::Core::Security::Cryptography::CryptographicUnexpectedOperationException</title>
<!-- Node1 -->
<g id="Node000001" class="node">
<title>Node1</title>
<g id="a_Node000001"><a xlink:title=" ">
<polygon fill="#999999" stroke="#666666" points="176,-52 0,-52 0,0 176,0 176,-52"/>
<text text-anchor="start" x="8" y="-40" font-family="Helvetica,sans-Serif" font-size="10.00">Harlinn::Common::Core</text>
<text text-anchor="start" x="8" y="-29" font-family="Helvetica,sans-Serif" font-size="10.00">::Security::Cryptography</text>
<text text-anchor="start" x="8" y="-18" font-family="Helvetica,sans-Serif" font-size="10.00">::CryptographicUnexpectedOperation</text>
<text text-anchor="middle" x="88" y="-7" font-family="Helvetica,sans-Serif" font-size="10.00">Exception</text>
</a>
</g>
</g>
<!-- Node2 -->
<g id="Node000002" class="node">
<title>Node2</title>
<g id="a_Node000002"><a xlink:href="class_harlinn_1_1_common_1_1_core_1_1_security_1_1_cryptography_1_1_cryptographic_exception.xhtml" target="_top" xlink:title=" ">
<polygon fill="white" stroke="#666666" points="151,-129 25,-129 25,-88 151,-88 151,-129"/>
<text text-anchor="start" x="33" y="-117" font-family="Helvetica,sans-Serif" font-size="10.00">Harlinn::Common::Core</text>
<text text-anchor="start" x="33" y="-106" font-family="Helvetica,sans-Serif" font-size="10.00">::Security::Cryptography</text>
<text text-anchor="middle" x="88" y="-95" font-family="Helvetica,sans-Serif" font-size="10.00">::CryptographicException</text>
</a>
</g>
</g>
<!-- Node2&#45;&gt;Node1 -->
<g id="edge1_Node000001_Node000002" class="edge">
<title>Node2&#45;&gt;Node1</title>
<g id="a_edge1_Node000001_Node000002"><a xlink:title=" ">
<path fill="none" stroke="#63b8ff" d="M88,-76.2C88,-68.34 88,-59.99 88,-52.45"/>
<polygon fill="#63b8ff" stroke="#63b8ff" points="84.5,-76.09 88,-86.09 91.5,-76.09 84.5,-76.09"/>
</a>
</g>
</g>
<!-- Node3 -->
<g id="Node000003" class="node">
<title>Node3</title>
<g id="a_Node000003"><a xlink:href="class_harlinn_1_1_common_1_1_core_1_1_system_exception.xhtml" target="_top" xlink:title=" ">
<polygon fill="white" stroke="#666666" points="147,-195 29,-195 29,-165 147,-165 147,-195"/>
<text text-anchor="start" x="37" y="-183" font-family="Helvetica,sans-Serif" font-size="10.00">Harlinn::Common::Core</text>
<text text-anchor="middle" x="88" y="-172" font-family="Helvetica,sans-Serif" font-size="10.00">::SystemException</text>
</a>
</g>
</g>
<!-- Node3&#45;&gt;Node2 -->
<g id="edge2_Node000002_Node000003" class="edge">
<title>Node3&#45;&gt;Node2</title>
<g id="a_edge2_Node000002_Node000003"><a xlink:title=" ">
<path fill="none" stroke="#63b8ff" d="M88,-153.36C88,-145.45 88,-136.87 88,-129.42"/>
<polygon fill="#63b8ff" stroke="#63b8ff" points="84.5,-153.09 88,-163.09 91.5,-153.09 84.5,-153.09"/>
</a>
</g>
</g>
<!-- Node4 -->
<g id="Node000004" class="node">
<title>Node4</title>
<g id="a_Node000004"><a xlink:href="class_harlinn_1_1_common_1_1_core_1_1_exception.xhtml" target="_top" xlink:title=" ">
<polygon fill="white" stroke="#666666" points="147,-261 29,-261 29,-231 147,-231 147,-261"/>
<text text-anchor="start" x="37" y="-249" font-family="Helvetica,sans-Serif" font-size="10.00">Harlinn::Common::Core</text>
<text text-anchor="middle" x="88" y="-238" font-family="Helvetica,sans-Serif" font-size="10.00">::Exception</text>
</a>
</g>
</g>
<!-- Node4&#45;&gt;Node3 -->
<g id="edge3_Node000003_Node000004" class="edge">
<title>Node4&#45;&gt;Node3</title>
<g id="a_edge3_Node000003_Node000004"><a xlink:title=" ">
<path fill="none" stroke="#63b8ff" d="M88,-219.39C88,-211.13 88,-202.28 88,-195.16"/>
<polygon fill="#63b8ff" stroke="#63b8ff" points="84.5,-219.28 88,-229.28 91.5,-219.28 84.5,-219.28"/>
</a>
</g>
</g>
<!-- Node5 -->
<g id="Node000005" class="node">
<title>Node5</title>
<g id="a_Node000005"><a xlink:title=" ">
<polygon fill="white" stroke="#666666" points="127,-316 49,-316 49,-297 127,-297 127,-316"/>
<text text-anchor="middle" x="88" y="-304" font-family="Helvetica,sans-Serif" font-size="10.00">std::exception</text>
</a>
</g>
</g>
<!-- Node5&#45;&gt;Node4 -->
<g id="edge4_Node000004_Node000005" class="edge">
<title>Node5&#45;&gt;Node4</title>
<g id="a_edge4_Node000004_Node000005"><a xlink:title=" ">
<path fill="none" stroke="#63b8ff" d="M88,-285.51C88,-277.49 88,-268.43 88,-261.11"/>
<polygon fill="#63b8ff" stroke="#63b8ff" points="84.5,-285.35 88,-295.35 91.5,-285.35 84.5,-285.35"/>
</a>
</g>
</g>
</g>
</svg>
