<?xml version="1.0" encoding="UTF-8" standalone="no"?>
<!DOCTYPE svg PUBLIC "-//W3C//DTD SVG 1.1//EN"
 "http://www.w3.org/Graphics/SVG/1.1/DTD/svg11.dtd">
<!-- Generated by graphviz version 7.0.1 (20221109.1506)
 -->
<!-- Title: Harlinn::Windows::FileOpenDialog Pages: 1 -->
<svg width="167pt" height="214pt"
 viewBox="0.00 0.00 167.00 214.00" xmlns="http://www.w3.org/2000/svg" xmlns:xlink="http://www.w3.org/1999/xlink">
<g id="graph0" class="graph" transform="scale(1 1) rotate(0) translate(4 210)">
<title>Harlinn::Windows::FileOpenDialog</title>
<!-- Node1 -->
<g id="Node000001" class="node">
<title>Node1</title>
<g id="a_Node000001"><a xlink:title=" ">
<polygon fill="#999999" stroke="#666666" points="148,-30 11,-30 11,0 148,0 148,-30"/>
<text text-anchor="start" x="19" y="-18" font-family="Helvetica,sans-Serif" font-size="10.00">Harlinn::Windows::FileOpen</text>
<text text-anchor="middle" x="79.5" y="-7" font-family="Helvetica,sans-Serif" font-size="10.00">Dialog</text>
</a>
</g>
</g>
<!-- Node2 -->
<g id="Node000002" class="node">
<title>Node2</title>
<g id="a_Node000002"><a xlink:href="class_harlinn_1_1_windows_1_1_file_dialog.html" target="_top" xlink:title=" ">
<polygon fill="white" stroke="#666666" points="150,-85 9,-85 9,-66 150,-66 150,-85"/>
<text text-anchor="middle" x="79.5" y="-73" font-family="Helvetica,sans-Serif" font-size="10.00">Harlinn::Windows::FileDialog</text>
</a>
</g>
</g>
<!-- Node2&#45;&gt;Node1 -->
<g id="edge1_Node000001_Node000002" class="edge">
<title>Node2&#45;&gt;Node1</title>
<g id="a_edge1_Node000001_Node000002"><a xlink:title=" ">
<path fill="none" stroke="#63b8ff" d="M79.5,-54.51C79.5,-46.49 79.5,-37.43 79.5,-30.11"/>
<polygon fill="#63b8ff" stroke="#63b8ff" points="76,-54.35 79.5,-64.35 83,-54.35 76,-54.35"/>
</a>
</g>
</g>
<!-- Node3 -->
<g id="Node000003" class="node">
<title>Node3</title>
<g id="a_Node000003"><a xlink:href="class_harlinn_1_1_windows_1_1_modal_window.html" target="_top" xlink:title=" ">
<polygon fill="white" stroke="#666666" points="159,-140 0,-140 0,-121 159,-121 159,-140"/>
<text text-anchor="middle" x="79.5" y="-128" font-family="Helvetica,sans-Serif" font-size="10.00">Harlinn::Windows::ModalWindow</text>
</a>
</g>
</g>
<!-- Node3&#45;&gt;Node2 -->
<g id="edge2_Node000002_Node000003" class="edge">
<title>Node3&#45;&gt;Node2</title>
<g id="a_edge2_Node000002_Node000003"><a xlink:title=" ">
<path fill="none" stroke="#63b8ff" d="M79.5,-109.35C79.5,-101.1 79.5,-91.97 79.5,-85.44"/>
<polygon fill="#63b8ff" stroke="#63b8ff" points="76,-109.23 79.5,-119.23 83,-109.23 76,-109.23"/>
</a>
</g>
</g>
<!-- Node4 -->
<g id="Node000004" class="node">
<title>Node4</title>
<g id="a_Node000004"><a xlink:href="class_harlinn_1_1_common_1_1_core_1_1_unknown.html" target="_top" xlink:title="Base class for COM interface wrappers.">
<polygon fill="white" stroke="#666666" points="138.5,-206 20.5,-206 20.5,-176 138.5,-176 138.5,-206"/>
<text text-anchor="start" x="28.5" y="-194" font-family="Helvetica,sans-Serif" font-size="10.00">Harlinn::Common::Core</text>
<text text-anchor="middle" x="79.5" y="-183" font-family="Helvetica,sans-Serif" font-size="10.00">::Unknown</text>
</a>
</g>
</g>
<!-- Node4&#45;&gt;Node3 -->
<g id="edge3_Node000003_Node000004" class="edge">
<title>Node4&#45;&gt;Node3</title>
<g id="a_edge3_Node000003_Node000004"><a xlink:title=" ">
<path fill="none" stroke="#63b8ff" d="M79.5,-164.3C79.5,-155.65 79.5,-146.58 79.5,-140.18"/>
<polygon fill="#63b8ff" stroke="#63b8ff" points="76,-164.03 79.5,-174.03 83,-164.03 76,-164.03"/>
</a>
</g>
</g>
</g>
</svg>
