<?xml version="1.0" encoding="UTF-8" standalone="no"?>
<!DOCTYPE svg PUBLIC "-//W3C//DTD SVG 1.1//EN"
 "http://www.w3.org/Graphics/SVG/1.1/DTD/svg11.dtd">
<!-- Generated by graphviz version 7.0.1 (20221109.1506)
 -->
<!-- Title: Harlinn::Windows::EditBase Pages: 1 -->
<svg width="1439pt" height="336pt"
 viewBox="0.00 0.00 1439.00 336.00" xmlns="http://www.w3.org/2000/svg" xmlns:xlink="http://www.w3.org/1999/xlink">
<g id="graph0" class="graph" transform="scale(1 1) rotate(0) translate(4 332)">
<title>Harlinn::Windows::EditBase</title>
<!-- Node1 -->
<g id="Node000001" class="node">
<title>Node1</title>
<g id="a_Node000001"><a xlink:title=" ">
<polygon fill="#999999" stroke="#666666" points="1228,-247.5 1090,-247.5 1090,-228.5 1228,-228.5 1228,-247.5"/>
<text text-anchor="middle" x="1159" y="-235.5" font-family="Helvetica,sans-Serif" font-size="10.00">Harlinn::Windows::EditBase</text>
</a>
</g>
</g>
<!-- Node2 -->
<g id="Node000002" class="node">
<title>Node2</title>
<g id="a_Node000002"><a xlink:href="class_harlinn_1_1_windows_1_1_control.html" target="_top" xlink:title=" ">
<polygon fill="white" stroke="#666666" points="1011,-208.5 882,-208.5 882,-189.5 1011,-189.5 1011,-208.5"/>
<text text-anchor="middle" x="946.5" y="-196.5" font-family="Helvetica,sans-Serif" font-size="10.00">Harlinn::Windows::Control</text>
</a>
</g>
</g>
<!-- Node2&#45;&gt;Node1 -->
<g id="edge1_Node000001_Node000002" class="edge">
<title>Node2&#45;&gt;Node1</title>
<g id="a_edge1_Node000001_Node000002"><a xlink:title=" ">
<path fill="none" stroke="#63b8ff" d="M1012.45,-211.03C1041.87,-216.48 1076.25,-222.85 1104.2,-228.03"/>
<polygon fill="#63b8ff" stroke="#63b8ff" points="1013.39,-207.65 1002.92,-209.27 1012.12,-214.53 1013.39,-207.65"/>
</a>
</g>
</g>
<!-- Node2&#45;&gt;Node2 -->
<g id="edge2_Node000002_Node000002" class="edge">
<title>Node2&#45;&gt;Node2</title>
<g id="a_edge2_Node000002_Node000002"><a xlink:title=" ">
<path fill="none" stroke="#9a32cd" stroke-dasharray="5,2" d="M928.04,-219.93C930.35,-223.79 936.5,-226.5 946.5,-226.5 964.78,-226.5 970.21,-217.44 962.78,-208.87"/>
<polygon fill="#9a32cd" stroke="#9a32cd" points="931.43,-220.84 929.93,-210.35 924.56,-219.49 931.43,-220.84"/>
</a>
</g>
<text text-anchor="middle" x="946.5" y="-229.5" font-family="Helvetica,sans-Serif" font-size="10.00" fill="grey"> parentControl_</text>
</g>
<!-- Node10 -->
<g id="Node000010" class="node">
<title>Node10</title>
<g id="a_Node000010"><a xlink:href="class_harlinn_1_1_windows_1_1_controls.html" target="_top" xlink:title=" ">
<polygon fill="white" stroke="#666666" points="1431,-208.5 1297,-208.5 1297,-189.5 1431,-189.5 1431,-208.5"/>
<text text-anchor="middle" x="1364" y="-196.5" font-family="Helvetica,sans-Serif" font-size="10.00">Harlinn::Windows::Controls</text>
</a>
</g>
</g>
<!-- Node2&#45;&gt;Node10 -->
<g id="edge18_Node000010_Node000002" class="edge">
<title>Node2&#45;&gt;Node10</title>
<g id="a_edge18_Node000010_Node000002"><a xlink:title=" ">
<path fill="none" stroke="#9a32cd" stroke-dasharray="5,2" d="M1022.26,-199C1100.41,-199 1221.87,-199 1296.7,-199"/>
<polygon fill="#9a32cd" stroke="#9a32cd" points="1022.57,-195.5 1012.57,-199 1022.57,-202.5 1022.57,-195.5"/>
</a>
</g>
<text text-anchor="middle" x="1159" y="-202" font-family="Helvetica,sans-Serif" font-size="10.00" fill="grey"> control_</text>
</g>
<!-- Node11 -->
<g id="Node000011" class="node">
<title>Node11</title>
<g id="a_Node000011"><a xlink:title=" ">
<polygon fill="white" stroke="#666666" points="1217.5,-284.5 1100.5,-284.5 1100.5,-265.5 1217.5,-265.5 1217.5,-284.5"/>
<text text-anchor="middle" x="1159" y="-272.5" font-family="Helvetica,sans-Serif" font-size="10.00">std::vector&lt; Control * &gt;</text>
</a>
</g>
</g>
<!-- Node2&#45;&gt;Node11 -->
<g id="edge15_Node000011_Node000002" class="edge">
<title>Node2&#45;&gt;Node11</title>
<g id="a_edge15_Node000011_Node000002"><a xlink:title=" ">
<path fill="none" stroke="#9a32cd" stroke-dasharray="5,2" d="M979.59,-213.44C1008.19,-225.97 1051.36,-244.08 1090,-257 1098.69,-259.9 1108.12,-262.65 1117.12,-265.09"/>
<polygon fill="#9a32cd" stroke="#9a32cd" points="981.33,-210.38 970.77,-209.54 978.5,-216.78 981.33,-210.38"/>
</a>
</g>
<text text-anchor="middle" x="1050.5" y="-253" font-family="Helvetica,sans-Serif" font-size="10.00" fill="grey"> elements</text>
</g>
<!-- Node3 -->
<g id="Node000003" class="node">
<title>Node3</title>
<g id="a_Node000003"><a xlink:href="class_harlinn_1_1_windows_1_1_point_t.html" target="_top" xlink:title=" ">
<polygon fill="white" stroke="#666666" points="803,-187 677,-187 677,-157 803,-157 803,-187"/>
<text text-anchor="start" x="685" y="-175" font-family="Helvetica,sans-Serif" font-size="10.00">Harlinn::Windows::PointT</text>
<text text-anchor="middle" x="740" y="-164" font-family="Helvetica,sans-Serif" font-size="10.00">&lt; POINT &gt;</text>
</a>
</g>
</g>
<!-- Node3&#45;&gt;Node2 -->
<g id="edge3_Node000002_Node000003" class="edge">
<title>Node3&#45;&gt;Node2</title>
<g id="a_edge3_Node000002_Node000003"><a xlink:title=" ">
<path fill="none" stroke="#9a32cd" stroke-dasharray="5,2" d="M814.52,-178.14C830.84,-179.79 848.03,-181.76 864,-184 874.12,-185.42 884.89,-187.21 895.18,-189.05"/>
<polygon fill="#9a32cd" stroke="#9a32cd" points="815.18,-174.69 804.89,-177.2 814.5,-181.66 815.18,-174.69"/>
</a>
</g>
<text text-anchor="middle" x="842.5" y="-187" font-family="Helvetica,sans-Serif" font-size="10.00" fill="grey"> position_</text>
</g>
<!-- Node4 -->
<g id="Node000004" class="node">
<title>Node4</title>
<g id="a_Node000004"><a xlink:href="struct_harlinn_1_1_windows_1_1_internal_1_1_traits.html" target="_top" xlink:title=" ">
<polygon fill="white" stroke="#666666" points="339,-136 209,-136 209,-106 339,-106 339,-136"/>
<text text-anchor="start" x="217" y="-124" font-family="Helvetica,sans-Serif" font-size="10.00">Harlinn::Windows::Internal</text>
<text text-anchor="middle" x="274" y="-113" font-family="Helvetica,sans-Serif" font-size="10.00">::Traits&lt; PT &gt;</text>
</a>
</g>
</g>
<!-- Node4&#45;&gt;Node3 -->
<g id="edge4_Node000003_Node000004" class="edge">
<title>Node4&#45;&gt;Node3</title>
<g id="a_edge4_Node000003_Node000004"><a xlink:title=" ">
<path fill="none" stroke="#9a32cd" stroke-dasharray="5,2" d="M328.03,-139.86C337.57,-142.67 347.51,-145.21 357,-147 468.19,-167.95 600.44,-172.09 676.56,-172.51"/>
<polygon fill="#9a32cd" stroke="#9a32cd" points="329.09,-136.53 318.51,-136.93 327.03,-143.22 329.09,-136.53"/>
</a>
</g>
<text text-anchor="middle" x="523" y="-184" font-family="Helvetica,sans-Serif" font-size="10.00" fill="grey"> x_</text>
<text text-anchor="middle" x="523" y="-173" font-family="Helvetica,sans-Serif" font-size="10.00" fill="grey">y_</text>
</g>
<!-- Node6 -->
<g id="Node000006" class="node">
<title>Node6</title>
<g id="a_Node000006"><a xlink:href="class_harlinn_1_1_windows_1_1_point_t.html" target="_top" xlink:title="Provides a unified api for point types.">
<polygon fill="white" stroke="#666666" points="586,-136 460,-136 460,-106 586,-106 586,-136"/>
<text text-anchor="start" x="468" y="-124" font-family="Helvetica,sans-Serif" font-size="10.00">Harlinn::Windows::PointT</text>
<text text-anchor="middle" x="523" y="-113" font-family="Helvetica,sans-Serif" font-size="10.00">&lt; PT &gt;</text>
</a>
</g>
</g>
<!-- Node4&#45;&gt;Node6 -->
<g id="edge7_Node000006_Node000004" class="edge">
<title>Node4&#45;&gt;Node6</title>
<g id="a_edge7_Node000006_Node000004"><a xlink:title=" ">
<path fill="none" stroke="#9a32cd" stroke-dasharray="5,2" d="M350.39,-121C385.41,-121 426.56,-121 459.78,-121"/>
<polygon fill="#9a32cd" stroke="#9a32cd" points="350.77,-117.5 340.77,-121 350.77,-124.5 350.77,-117.5"/>
</a>
</g>
<text text-anchor="middle" x="399.5" y="-135" font-family="Helvetica,sans-Serif" font-size="10.00" fill="grey"> x_</text>
<text text-anchor="middle" x="399.5" y="-124" font-family="Helvetica,sans-Serif" font-size="10.00" fill="grey">y_</text>
</g>
<!-- Node5 -->
<g id="Node000005" class="node">
<title>Node5</title>
<g id="a_Node000005"><a xlink:href="struct_harlinn_1_1_windows_1_1_internal_1_1_traits.html" target="_top" xlink:title=" ">
<polygon fill="white" stroke="#666666" points="130,-107 0,-107 0,-77 130,-77 130,-107"/>
<text text-anchor="start" x="8" y="-95" font-family="Helvetica,sans-Serif" font-size="10.00">Harlinn::Windows::Internal</text>
<text text-anchor="middle" x="65" y="-84" font-family="Helvetica,sans-Serif" font-size="10.00">::Traits&lt; T &gt;</text>
</a>
</g>
</g>
<!-- Node5&#45;&gt;Node4 -->
<g id="edge5_Node000004_Node000005" class="edge">
<title>Node5&#45;&gt;Node4</title>
<g id="a_edge5_Node000004_Node000005"><a xlink:title=" ">
<path fill="none" stroke="orange" stroke-dasharray="5,2" d="M141.67,-102.6C163.66,-105.68 187.46,-109.02 208.68,-111.99"/>
<polygon fill="orange" stroke="orange" points="142.25,-99.15 131.86,-101.23 141.28,-106.08 142.25,-99.15"/>
</a>
</g>
<text text-anchor="middle" x="169.5" y="-112" font-family="Helvetica,sans-Serif" font-size="10.00" fill="grey"> &lt; PT &gt;</text>
</g>
<!-- Node8 -->
<g id="Node000008" class="node">
<title>Node8</title>
<g id="a_Node000008"><a xlink:href="struct_harlinn_1_1_windows_1_1_internal_1_1_traits.html" target="_top" xlink:title=" ">
<polygon fill="white" stroke="#666666" points="339,-81 209,-81 209,-51 339,-51 339,-81"/>
<text text-anchor="start" x="217" y="-69" font-family="Helvetica,sans-Serif" font-size="10.00">Harlinn::Windows::Internal</text>
<text text-anchor="middle" x="274" y="-58" font-family="Helvetica,sans-Serif" font-size="10.00">::Traits&lt; ST &gt;</text>
</a>
</g>
</g>
<!-- Node5&#45;&gt;Node8 -->
<g id="edge10_Node000008_Node000005" class="edge">
<title>Node5&#45;&gt;Node8</title>
<g id="a_edge10_Node000008_Node000005"><a xlink:title=" ">
<path fill="none" stroke="orange" stroke-dasharray="5,2" d="M141.75,-78.86C143.86,-78.56 145.94,-78.27 148,-78 167.67,-75.38 189.14,-73.11 208.66,-71.27"/>
<polygon fill="orange" stroke="orange" points="141.26,-75.39 131.89,-80.33 142.29,-82.32 141.26,-75.39"/>
</a>
</g>
<text text-anchor="middle" x="169.5" y="-81" font-family="Helvetica,sans-Serif" font-size="10.00" fill="grey"> &lt; ST &gt;</text>
</g>
<!-- Node6&#45;&gt;Node3 -->
<g id="edge6_Node000003_Node000006" class="edge">
<title>Node6&#45;&gt;Node3</title>
<g id="a_edge6_Node000003_Node000006"><a xlink:title=" ">
<path fill="none" stroke="orange" stroke-dasharray="5,2" d="M597.73,-133.64C617.71,-137.49 639.27,-142.03 659,-147 670.01,-149.77 681.73,-153.17 692.72,-156.57"/>
<polygon fill="orange" stroke="orange" points="598.45,-130.22 587.98,-131.8 597.15,-137.1 598.45,-130.22"/>
</a>
</g>
<text text-anchor="middle" x="631.5" y="-150" font-family="Helvetica,sans-Serif" font-size="10.00" fill="grey"> &lt; POINT &gt;</text>
</g>
<!-- Node7 -->
<g id="Node000007" class="node">
<title>Node7</title>
<g id="a_Node000007"><a xlink:href="class_harlinn_1_1_windows_1_1_size_t.html" target="_top" xlink:title=" ">
<polygon fill="white" stroke="#666666" points="801.5,-81 678.5,-81 678.5,-51 801.5,-51 801.5,-81"/>
<text text-anchor="start" x="686.5" y="-69" font-family="Helvetica,sans-Serif" font-size="10.00">Harlinn::Windows::SizeT</text>
<text text-anchor="middle" x="740" y="-58" font-family="Helvetica,sans-Serif" font-size="10.00">&lt; SIZE &gt;</text>
</a>
</g>
</g>
<!-- Node7&#45;&gt;Node2 -->
<g id="edge8_Node000002_Node000007" class="edge">
<title>Node7&#45;&gt;Node2</title>
<g id="a_edge8_Node000002_Node000007"><a xlink:title=" ">
<path fill="none" stroke="#9a32cd" stroke-dasharray="5,2" d="M774.02,-87.47C818.84,-116.62 897.12,-167.54 930.13,-189"/>
<polygon fill="#9a32cd" stroke="#9a32cd" points="776.02,-84.6 765.73,-82.08 772.2,-90.47 776.02,-84.6"/>
</a>
</g>
<text text-anchor="middle" x="842.5" y="-147" font-family="Helvetica,sans-Serif" font-size="10.00" fill="grey"> size_</text>
</g>
<!-- Node8&#45;&gt;Node7 -->
<g id="edge9_Node000007_Node000008" class="edge">
<title>Node8&#45;&gt;Node7</title>
<g id="a_edge9_Node000007_Node000008"><a xlink:title=" ">
<path fill="none" stroke="#9a32cd" stroke-dasharray="5,2" d="M350.41,-66C441.79,-66 593.96,-66 678.21,-66"/>
<polygon fill="#9a32cd" stroke="#9a32cd" points="350.54,-62.5 340.54,-66 350.54,-69.5 350.54,-62.5"/>
</a>
</g>
<text text-anchor="middle" x="523" y="-80" font-family="Helvetica,sans-Serif" font-size="10.00" fill="grey"> height_</text>
<text text-anchor="middle" x="523" y="-69" font-family="Helvetica,sans-Serif" font-size="10.00" fill="grey">width_</text>
</g>
<!-- Node9 -->
<g id="Node000009" class="node">
<title>Node9</title>
<g id="a_Node000009"><a xlink:href="class_harlinn_1_1_windows_1_1_size_t.html" target="_top" xlink:title="Provides a unified api for size types.">
<polygon fill="white" stroke="#666666" points="584.5,-30 461.5,-30 461.5,0 584.5,0 584.5,-30"/>
<text text-anchor="start" x="469.5" y="-18" font-family="Helvetica,sans-Serif" font-size="10.00">Harlinn::Windows::SizeT</text>
<text text-anchor="middle" x="523" y="-7" font-family="Helvetica,sans-Serif" font-size="10.00">&lt; ST &gt;</text>
</a>
</g>
</g>
<!-- Node8&#45;&gt;Node9 -->
<g id="edge12_Node000009_Node000008" class="edge">
<title>Node8&#45;&gt;Node9</title>
<g id="a_edge12_Node000009_Node000008"><a xlink:title=" ">
<path fill="none" stroke="#9a32cd" stroke-dasharray="5,2" d="M314.01,-45.8C327.32,-39.75 342.51,-33.73 357,-30 390.84,-21.28 429.73,-17.46 461.25,-15.85"/>
<polygon fill="#9a32cd" stroke="#9a32cd" points="312.7,-42.55 305.15,-49.98 315.69,-48.88 312.7,-42.55"/>
</a>
</g>
<text text-anchor="middle" x="399.5" y="-44" font-family="Helvetica,sans-Serif" font-size="10.00" fill="grey"> height_</text>
<text text-anchor="middle" x="399.5" y="-33" font-family="Helvetica,sans-Serif" font-size="10.00" fill="grey">width_</text>
</g>
<!-- Node9&#45;&gt;Node7 -->
<g id="edge11_Node000007_Node000009" class="edge">
<title>Node9&#45;&gt;Node7</title>
<g id="a_edge11_Node000007_Node000009"><a xlink:title=" ">
<path fill="none" stroke="orange" stroke-dasharray="5,2" d="M595.97,-27.31C616.44,-31.23 638.69,-35.89 659,-41 670.01,-43.77 681.73,-47.17 692.72,-50.57"/>
<polygon fill="orange" stroke="orange" points="596.76,-23.89 586.29,-25.49 595.47,-30.77 596.76,-23.89"/>
</a>
</g>
<text text-anchor="middle" x="631.5" y="-44" font-family="Helvetica,sans-Serif" font-size="10.00" fill="grey"> &lt; SIZE &gt;</text>
</g>
<!-- Node10&#45;&gt;Node2 -->
<g id="edge13_Node000002_Node000010" class="edge">
<title>Node10&#45;&gt;Node2</title>
<g id="a_edge13_Node000002_Node000010"><a xlink:title=" ">
<path fill="none" stroke="#9a32cd" stroke-dasharray="5,2" d="M1320.73,-185.9C1294.36,-178.42 1259.54,-169.8 1228,-166 1167.11,-158.67 1150.94,-159.04 1090,-166 1052.03,-170.34 1009.45,-180.98 980.81,-189.02"/>
<polygon fill="#9a32cd" stroke="#9a32cd" points="1319.45,-189.17 1330.03,-188.6 1321.4,-182.45 1319.45,-189.17"/>
</a>
</g>
<text text-anchor="middle" x="1159" y="-169" font-family="Helvetica,sans-Serif" font-size="10.00" fill="grey"> controls_</text>
</g>
<!-- Node11&#45;&gt;Node10 -->
<g id="edge14_Node000010_Node000011" class="edge">
<title>Node11&#45;&gt;Node10</title>
<g id="a_edge14_Node000010_Node000011"><a xlink:title=" ">
<path fill="none" stroke="#9a32cd" stroke-dasharray="5,2" d="M1212.45,-261.95C1217.74,-260.38 1223,-258.73 1228,-257 1269.72,-242.6 1316.7,-221.18 1342.78,-208.8"/>
<polygon fill="#9a32cd" stroke="#9a32cd" points="1211.77,-258.5 1203.1,-264.6 1213.68,-265.24 1211.77,-258.5"/>
</a>
</g>
<text text-anchor="middle" x="1262.5" y="-253" font-family="Helvetica,sans-Serif" font-size="10.00" fill="grey"> items_</text>
</g>
<!-- Node12 -->
<g id="Node000012" class="node">
<title>Node12</title>
<g id="a_Node000012"><a xlink:title=" ">
<polygon fill="white" stroke="#666666" points="442,-326.5 357,-326.5 357,-307.5 442,-307.5 442,-326.5"/>
<text text-anchor="middle" x="399.5" y="-314.5" font-family="Helvetica,sans-Serif" font-size="10.00">std::vector&lt; T &gt;</text>
</a>
</g>
</g>
<!-- Node12&#45;&gt;Node11 -->
<g id="edge16_Node000011_Node000012" class="edge">
<title>Node12&#45;&gt;Node11</title>
<g id="a_edge16_Node000011_Node000012"><a xlink:title=" ">
<path fill="none" stroke="orange" stroke-dasharray="5,2" d="M453.81,-317C500.42,-317 569.95,-317 630.5,-317 630.5,-317 630.5,-317 947.5,-317 1012.71,-317 1087.14,-297.37 1127.7,-284.95"/>
<polygon fill="orange" stroke="orange" points="453.98,-313.5 443.98,-317 453.98,-320.5 453.98,-313.5"/>
</a>
</g>
<text text-anchor="middle" x="740" y="-320" font-family="Helvetica,sans-Serif" font-size="10.00" fill="grey"> &lt; Control * &gt;</text>
</g>
<!-- Node13 -->
<g id="Node000013" class="node">
<title>Node13</title>
<g id="a_Node000013"><a xlink:title=" ">
<polygon fill="white" stroke="#666666" points="79.5,-308.5 50.5,-308.5 50.5,-289.5 79.5,-289.5 79.5,-308.5"/>
<text text-anchor="middle" x="65" y="-296.5" font-family="Helvetica,sans-Serif" font-size="10.00">T</text>
</a>
</g>
</g>
<!-- Node13&#45;&gt;Node12 -->
<g id="edge17_Node000012_Node000013" class="edge">
<title>Node13&#45;&gt;Node12</title>
<g id="a_edge17_Node000012_Node000013"><a xlink:title=" ">
<path fill="none" stroke="#9a32cd" stroke-dasharray="5,2" d="M91.31,-300.37C148.22,-303.45 286.77,-310.95 356.68,-314.74"/>
<polygon fill="#9a32cd" stroke="#9a32cd" points="91.55,-296.88 81.38,-299.83 91.17,-303.87 91.55,-296.88"/>
</a>
</g>
<text text-anchor="middle" x="169.5" y="-308" font-family="Helvetica,sans-Serif" font-size="10.00" fill="grey"> elements</text>
</g>
<!-- Node15 -->
<g id="Node000015" class="node">
<title>Node15</title>
<g id="a_Node000015"><a xlink:href="struct_harlinn_1_1_common_1_1_core_1_1_internal_1_1_data.html" target="_top" xlink:title=" ">
<polygon fill="white" stroke="#666666" points="333,-289 215,-289 215,-259 333,-259 333,-289"/>
<text text-anchor="start" x="223" y="-277" font-family="Helvetica,sans-Serif" font-size="10.00">Harlinn::Common::Core</text>
<text text-anchor="middle" x="274" y="-266" font-family="Helvetica,sans-Serif" font-size="10.00">::Internal::Data&lt; T &gt;</text>
</a>
</g>
</g>
<!-- Node13&#45;&gt;Node15 -->
<g id="edge21_Node000015_Node000013" class="edge">
<title>Node13&#45;&gt;Node15</title>
<g id="a_edge21_Node000015_Node000013"><a xlink:title=" ">
<path fill="none" stroke="#9a32cd" stroke-dasharray="5,2" d="M91.06,-293.74C107.25,-290.51 128.79,-286.52 148,-284 169.69,-281.16 193.62,-279 214.68,-277.44"/>
<polygon fill="#9a32cd" stroke="#9a32cd" points="90.44,-290.29 81.34,-295.72 91.84,-297.15 90.44,-290.29"/>
</a>
</g>
<text text-anchor="middle" x="169.5" y="-287" font-family="Helvetica,sans-Serif" font-size="10.00" fill="grey"> buffer_</text>
</g>
<!-- Node14 -->
<g id="Node000014" class="node">
<title>Node14</title>
<g id="a_Node000014"><a xlink:href="class_harlinn_1_1_common_1_1_core_1_1_basic_string.html" target="_top" xlink:title=" ">
<polygon fill="white" stroke="#666666" points="802.5,-242 677.5,-242 677.5,-212 802.5,-212 802.5,-242"/>
<text text-anchor="start" x="685.5" y="-230" font-family="Helvetica,sans-Serif" font-size="10.00">Harlinn::Common::Core</text>
<text text-anchor="middle" x="740" y="-219" font-family="Helvetica,sans-Serif" font-size="10.00">::BasicString&lt; wchar_t &gt;</text>
</a>
</g>
</g>
<!-- Node14&#45;&gt;Node2 -->
<g id="edge19_Node000002_Node000014" class="edge">
<title>Node14&#45;&gt;Node2</title>
<g id="a_edge19_Node000002_Node000014"><a xlink:title=" ">
<path fill="none" stroke="#9a32cd" stroke-dasharray="5,2" d="M814.24,-216.97C836.28,-213.95 860.29,-210.67 881.68,-207.74"/>
<polygon fill="#9a32cd" stroke="#9a32cd" points="813.84,-213.49 804.41,-218.32 814.79,-220.43 813.84,-213.49"/>
</a>
</g>
<text text-anchor="middle" x="842.5" y="-218" font-family="Helvetica,sans-Serif" font-size="10.00" fill="grey"> text_</text>
</g>
<!-- Node15&#45;&gt;Node14 -->
<g id="edge20_Node000014_Node000015" class="edge">
<title>Node15&#45;&gt;Node14</title>
<g id="a_edge20_Node000014_Node000015"><a xlink:title=" ">
<path fill="none" stroke="#9a32cd" stroke-dasharray="5,2" d="M344.68,-271.16C421.89,-267.33 549.91,-258.94 659,-242 664.86,-241.09 670.96,-240.07 677.05,-239.01"/>
<polygon fill="#9a32cd" stroke="#9a32cd" points="344.53,-267.67 334.71,-271.65 344.87,-274.66 344.53,-267.67"/>
</a>
</g>
<text text-anchor="middle" x="523" y="-266" font-family="Helvetica,sans-Serif" font-size="10.00" fill="grey"> data_</text>
</g>
<!-- Node16 -->
<g id="Node000016" class="node">
<title>Node16</title>
<g id="a_Node000016"><a xlink:href="class_harlinn_1_1_common_1_1_core_1_1_basic_string.html" target="_top" xlink:title="This is a reference counted string class.">
<polygon fill="white" stroke="#666666" points="582,-242 464,-242 464,-212 582,-212 582,-242"/>
<text text-anchor="start" x="472" y="-230" font-family="Helvetica,sans-Serif" font-size="10.00">Harlinn::Common::Core</text>
<text text-anchor="middle" x="523" y="-219" font-family="Helvetica,sans-Serif" font-size="10.00">::BasicString&lt; T &gt;</text>
</a>
</g>
</g>
<!-- Node15&#45;&gt;Node16 -->
<g id="edge23_Node000016_Node000015" class="edge">
<title>Node15&#45;&gt;Node16</title>
<g id="a_edge23_Node000016_Node000015"><a xlink:title=" ">
<path fill="none" stroke="#9a32cd" stroke-dasharray="5,2" d="M343.76,-255.89C348.23,-254.87 352.67,-253.89 357,-253 392.22,-245.73 432.03,-239.41 463.72,-234.81"/>
<polygon fill="#9a32cd" stroke="#9a32cd" points="343.03,-252.46 334.11,-258.16 344.64,-259.28 343.03,-252.46"/>
</a>
</g>
<text text-anchor="middle" x="399.5" y="-256" font-family="Helvetica,sans-Serif" font-size="10.00" fill="grey"> data_</text>
</g>
<!-- Node16&#45;&gt;Node14 -->
<g id="edge22_Node000014_Node000016" class="edge">
<title>Node16&#45;&gt;Node14</title>
<g id="a_edge22_Node000014_Node000016"><a xlink:title=" ">
<path fill="none" stroke="orange" stroke-dasharray="5,2" d="M593.74,-227C620.61,-227 651.09,-227 677.16,-227"/>
<polygon fill="orange" stroke="orange" points="593.98,-223.5 583.98,-227 593.98,-230.5 593.98,-223.5"/>
</a>
</g>
<text text-anchor="middle" x="631.5" y="-230" font-family="Helvetica,sans-Serif" font-size="10.00" fill="grey"> &lt; wchar_t &gt;</text>
</g>
</g>
</svg>
