<?xml version="1.0" encoding="UTF-8" standalone="no"?>
<!DOCTYPE svg PUBLIC "-//W3C//DTD SVG 1.1//EN"
 "http://www.w3.org/Graphics/SVG/1.1/DTD/svg11.dtd">
<!-- Generated by graphviz version 7.0.1 (20221109.1506)
 -->
<!-- Title: Harlinn::Common::Core::Security::TokenAccessMask Pages: 1 -->
<svg width="828pt" height="108pt"
 viewBox="0.00 0.00 828.00 108.00" xmlns="http://www.w3.org/2000/svg" xmlns:xlink="http://www.w3.org/1999/xlink">
<g id="graph0" class="graph" transform="scale(1 1) rotate(0) translate(4 104)">
<title>Harlinn::Common::Core::Security::TokenAccessMask</title>
<!-- Node1 -->
<g id="Node000001" class="node">
<title>Node1</title>
<g id="a_Node000001"><a xlink:title="An access mask implmentation for the access rights of a Windows access token.">
<polygon fill="#999999" stroke="#666666" points="820,-43 672,-43 672,-13 820,-13 820,-43"/>
<text text-anchor="start" x="680" y="-31" font-family="Helvetica,sans-Serif" font-size="10.00">Harlinn::Common::Core</text>
<text text-anchor="middle" x="746" y="-20" font-family="Helvetica,sans-Serif" font-size="10.00">::Security::TokenAccessMask</text>
</a>
</g>
</g>
<!-- Node2 -->
<g id="Node000002" class="node">
<title>Node2</title>
<g id="a_Node000002"><a xlink:href="class_harlinn_1_1_common_1_1_core_1_1_security_1_1_access_mask_t.html" target="_top" xlink:title=" ">
<polygon fill="white" stroke="#666666" points="596,-100 422,-100 422,-48 596,-48 596,-100"/>
<text text-anchor="start" x="430" y="-88" font-family="Helvetica,sans-Serif" font-size="10.00">Harlinn::Common::Core</text>
<text text-anchor="start" x="430" y="-77" font-family="Helvetica,sans-Serif" font-size="10.00">::Security::AccessMaskT</text>
<text text-anchor="start" x="430" y="-66" font-family="Helvetica,sans-Serif" font-size="10.00">&lt; TokenAccessMask, TokenAccess</text>
<text text-anchor="middle" x="509" y="-55" font-family="Helvetica,sans-Serif" font-size="10.00">Rights &gt;</text>
</a>
</g>
</g>
<!-- Node2&#45;&gt;Node1 -->
<g id="edge1_Node000001_Node000002" class="edge">
<title>Node2&#45;&gt;Node1</title>
<g id="a_edge1_Node000001_Node000002"><a xlink:title=" ">
<path fill="none" stroke="#63b8ff" d="M607.31,-54.95C628.81,-50.74 651.24,-46.35 671.6,-42.37"/>
<polygon fill="#63b8ff" stroke="#63b8ff" points="606.8,-51.49 597.66,-56.84 608.14,-58.36 606.8,-51.49"/>
</a>
</g>
</g>
<!-- Node3 -->
<g id="Node000003" class="node">
<title>Node3</title>
<g id="a_Node000003"><a xlink:href="class_harlinn_1_1_common_1_1_core_1_1_security_1_1_access_mask.html" target="_top" xlink:title="An ACCESS_MASK wrapper class. The ACCESS_MASK data type is a DWORD value that defines standard,...">
<polygon fill="white" stroke="#666666" points="122,-85 0,-85 0,-55 122,-55 122,-85"/>
<text text-anchor="start" x="8" y="-73" font-family="Helvetica,sans-Serif" font-size="10.00">Harlinn::Common::Core</text>
<text text-anchor="middle" x="61" y="-62" font-family="Helvetica,sans-Serif" font-size="10.00">::Security::AccessMask</text>
</a>
</g>
</g>
<!-- Node3&#45;&gt;Node2 -->
<g id="edge2_Node000002_Node000003" class="edge">
<title>Node3&#45;&gt;Node2</title>
<g id="a_edge2_Node000002_Node000003"><a xlink:title=" ">
<path fill="none" stroke="#63b8ff" d="M133.49,-74.64C142.08,-75.14 150.74,-75.6 159,-76 267.79,-81.24 295.15,-84.66 404,-81 409.79,-80.81 415.75,-80.55 421.76,-80.25"/>
<polygon fill="#63b8ff" stroke="#63b8ff" points="133.97,-71.17 123.78,-74.07 133.56,-78.15 133.97,-71.17"/>
</a>
</g>
</g>
<!-- Node4 -->
<g id="Node000004" class="node">
<title>Node4</title>
<g id="a_Node000004"><a xlink:href="class_harlinn_1_1_common_1_1_core_1_1_security_1_1_access_mask_t.html" target="_top" xlink:title=" ">
<polygon fill="white" stroke="#666666" points="286,-66.5 159,-66.5 159,-25.5 286,-25.5 286,-66.5"/>
<text text-anchor="start" x="167" y="-54.5" font-family="Helvetica,sans-Serif" font-size="10.00">Harlinn::Common::Core</text>
<text text-anchor="start" x="167" y="-43.5" font-family="Helvetica,sans-Serif" font-size="10.00">::Security::AccessMaskT</text>
<text text-anchor="middle" x="222.5" y="-32.5" font-family="Helvetica,sans-Serif" font-size="10.00">&lt; DerivedT, RightsT &gt;</text>
</a>
</g>
</g>
<!-- Node3&#45;&gt;Node4 -->
<g id="edge4_Node000004_Node000003" class="edge">
<title>Node3&#45;&gt;Node4</title>
<g id="a_edge4_Node000004_Node000003"><a xlink:title=" ">
<path fill="none" stroke="#63b8ff" d="M133.61,-59.22C141.99,-57.96 150.48,-56.69 158.72,-55.45"/>
<polygon fill="#63b8ff" stroke="#63b8ff" points="133.16,-55.75 123.8,-60.7 134.21,-62.67 133.16,-55.75"/>
</a>
</g>
</g>
<!-- Node4&#45;&gt;Node2 -->
<g id="edge3_Node000002_Node000004" class="edge">
<title>Node4&#45;&gt;Node2</title>
<g id="a_edge3_Node000002_Node000004"><a xlink:title=" ">
<path fill="none" stroke="orange" stroke-dasharray="5,2" d="M297.54,-50.14C330.22,-52.27 369.07,-55.23 404,-59 409.71,-59.62 415.59,-60.31 421.52,-61.05"/>
<polygon fill="orange" stroke="orange" points="297.96,-46.66 287.76,-49.51 297.52,-53.64 297.96,-46.66"/>
</a>
</g>
<text text-anchor="start" x="304" y="-73" font-family="Helvetica,sans-Serif" font-size="10.00" fill="grey"> &lt; TokenAccessMask,</text>
<text text-anchor="middle" x="354" y="-62" font-family="Helvetica,sans-Serif" font-size="10.00" fill="grey"> TokenAccessRights &gt;</text>
</g>
<!-- Node5 -->
<g id="Node000005" class="node">
<title>Node5</title>
<g id="a_Node000005"><a xlink:href="class_harlinn_1_1_common_1_1_core_1_1_security_1_1_generic_mapping.html" target="_top" xlink:title=" ">
<polygon fill="white" stroke="#666666" points="576.5,-30 441.5,-30 441.5,0 576.5,0 576.5,-30"/>
<text text-anchor="start" x="449.5" y="-18" font-family="Helvetica,sans-Serif" font-size="10.00">Harlinn::Common::Core</text>
<text text-anchor="middle" x="509" y="-7" font-family="Helvetica,sans-Serif" font-size="10.00">::Security::GenericMapping</text>
</a>
</g>
</g>
<!-- Node5&#45;&gt;Node1 -->
<g id="edge5_Node000001_Node000005" class="edge">
<title>Node5&#45;&gt;Node1</title>
<g id="a_edge5_Node000001_Node000005"><a xlink:title=" ">
<path fill="none" stroke="#9a32cd" stroke-dasharray="5,2" d="M588.04,-19.32C614.95,-20.81 644.99,-22.47 671.52,-23.94"/>
<polygon fill="#9a32cd" stroke="#9a32cd" points="588.4,-15.83 578.22,-18.77 588.02,-22.82 588.4,-15.83"/>
</a>
</g>
<text text-anchor="middle" x="634" y="-26" font-family="Helvetica,sans-Serif" font-size="10.00" fill="grey"> Mapping</text>
</g>
</g>
</svg>
