<?xml version="1.0" encoding="UTF-8" standalone="no"?>
<!DOCTYPE svg PUBLIC "-//W3C//DTD SVG 1.1//EN"
 "http://www.w3.org/Graphics/SVG/1.1/DTD/svg11.dtd">
<!-- Generated by graphviz version 7.0.1 (20221109.1506)
 -->
<!-- Title: Harlinn::Math::Vector&lt; Int32, 2 &gt; Pages: 1 -->
<svg width="650pt" height="118pt"
 viewBox="0.00 0.00 650.00 118.00" xmlns="http://www.w3.org/2000/svg" xmlns:xlink="http://www.w3.org/1999/xlink">
<g id="graph0" class="graph" transform="scale(1 1) rotate(0) translate(4 114)">
<title>Harlinn::Math::Vector&lt; Int32, 2 &gt;</title>
<!-- Node1 -->
<g id="Node000001" class="node">
<title>Node1</title>
<g id="a_Node000001"><a xlink:title=" ">
<polygon fill="#999999" stroke="#666666" points="642,-42 533,-42 533,-12 642,-12 642,-42"/>
<text text-anchor="start" x="541" y="-30" font-family="Helvetica,sans-Serif" font-size="10.00">Harlinn::Math::Vector</text>
<text text-anchor="middle" x="587.5" y="-19" font-family="Helvetica,sans-Serif" font-size="10.00">&lt; Int32, 2 &gt;</text>
</a>
</g>
</g>
<!-- Node2 -->
<g id="Node000002" class="node">
<title>Node2</title>
<g id="a_Node000002"><a xlink:href="class_harlinn_1_1_math_1_1_tuple2.html" target="_top" xlink:title=" ">
<polygon fill="white" stroke="#666666" points="494.5,-89.5 385.5,-89.5 385.5,-48.5 494.5,-48.5 494.5,-89.5"/>
<text text-anchor="start" x="393.5" y="-77.5" font-family="Helvetica,sans-Serif" font-size="10.00">Harlinn::Math::Tuple2</text>
<text text-anchor="start" x="393.5" y="-66.5" font-family="Helvetica,sans-Serif" font-size="10.00">&lt; Vector&lt; Int32, 2 &gt;,</text>
<text text-anchor="middle" x="440" y="-55.5" font-family="Helvetica,sans-Serif" font-size="10.00"> Int32 &gt;</text>
</a>
</g>
</g>
<!-- Node2&#45;&gt;Node1 -->
<g id="edge1_Node000001_Node000002" class="edge">
<title>Node2&#45;&gt;Node1</title>
<g id="a_edge1_Node000001_Node000002"><a xlink:title=" ">
<path fill="none" stroke="#63b8ff" d="M505.74,-50.31C514.83,-47.69 524.1,-45.01 532.96,-42.46"/>
<polygon fill="#63b8ff" stroke="#63b8ff" points="504.86,-46.92 496.22,-53.06 506.8,-53.65 504.86,-46.92"/>
</a>
</g>
</g>
<!-- Node3 -->
<g id="Node000003" class="node">
<title>Node3</title>
<g id="a_Node000003"><a xlink:href="struct_harlinn_1_1_math_1_1_internal_1_1_tuple_base.html" target="_top" xlink:title=" ">
<polygon fill="white" stroke="#666666" points="112,-110 0,-110 0,-80 112,-80 112,-110"/>
<text text-anchor="start" x="8" y="-98" font-family="Helvetica,sans-Serif" font-size="10.00">Harlinn::Math::Internal</text>
<text text-anchor="middle" x="56" y="-87" font-family="Helvetica,sans-Serif" font-size="10.00">::TupleBase</text>
</a>
</g>
</g>
<!-- Node3&#45;&gt;Node2 -->
<g id="edge2_Node000002_Node000003" class="edge">
<title>Node3&#45;&gt;Node2</title>
<g id="a_edge2_Node000002_Node000003"><a xlink:title=" ">
<path fill="none" stroke="#63b8ff" d="M123.82,-101.52C186.78,-106.13 283.51,-109.25 366,-95 372.89,-93.81 380,-92.03 386.94,-89.95"/>
<polygon fill="#63b8ff" stroke="#63b8ff" points="124.21,-98.04 113.97,-100.76 123.68,-105.02 124.21,-98.04"/>
</a>
</g>
</g>
<!-- Node5 -->
<g id="Node000005" class="node">
<title>Node5</title>
<g id="a_Node000005"><a xlink:href="class_harlinn_1_1_math_1_1_tuple2.html" target="_top" xlink:title="A tuple holding two numbers.">
<polygon fill="white" stroke="#666666" points="266,-84 157,-84 157,-54 266,-54 266,-84"/>
<text text-anchor="start" x="165" y="-72" font-family="Helvetica,sans-Serif" font-size="10.00">Harlinn::Math::Tuple2</text>
<text text-anchor="middle" x="211.5" y="-61" font-family="Helvetica,sans-Serif" font-size="10.00">&lt; DerivedT, T &gt;</text>
</a>
</g>
</g>
<!-- Node3&#45;&gt;Node5 -->
<g id="edge5_Node000005_Node000003" class="edge">
<title>Node3&#45;&gt;Node5</title>
<g id="a_edge5_Node000005_Node000003"><a xlink:title=" ">
<path fill="none" stroke="#63b8ff" d="M123.75,-83.69C134.77,-81.83 146.06,-79.91 156.71,-78.11"/>
<polygon fill="#63b8ff" stroke="#63b8ff" points="123.18,-80.24 113.91,-85.36 124.35,-87.14 123.18,-80.24"/>
</a>
</g>
</g>
<!-- Node4 -->
<g id="Node000004" class="node">
<title>Node4</title>
<g id="a_Node000004"><a xlink:title=" ">
<polygon fill="white" stroke="#666666" points="70.5,-48.5 41.5,-48.5 41.5,-29.5 70.5,-29.5 70.5,-48.5"/>
<text text-anchor="middle" x="56" y="-36.5" font-family="Helvetica,sans-Serif" font-size="10.00">T</text>
</a>
</g>
</g>
<!-- Node4&#45;&gt;Node2 -->
<g id="edge3_Node000002_Node000004" class="edge">
<title>Node4&#45;&gt;Node2</title>
<g id="a_edge3_Node000002_Node000004"><a xlink:title=" ">
<path fill="none" stroke="#9a32cd" stroke-dasharray="5,2" d="M82.11,-33.85C102.25,-29.99 131.31,-25.04 157,-23 205.29,-19.16 217.96,-16.72 266,-23 306.68,-28.32 351.4,-40.38 385.18,-50.82"/>
<polygon fill="#9a32cd" stroke="#9a32cd" points="81.45,-30.41 72.31,-35.78 82.8,-37.28 81.45,-30.41"/>
</a>
</g>
<text text-anchor="middle" x="211.5" y="-37" font-family="Helvetica,sans-Serif" font-size="10.00" fill="grey"> x</text>
<text text-anchor="middle" x="211.5" y="-26" font-family="Helvetica,sans-Serif" font-size="10.00" fill="grey">y</text>
</g>
<!-- Node4&#45;&gt;Node5 -->
<g id="edge6_Node000005_Node000004" class="edge">
<title>Node4&#45;&gt;Node5</title>
<g id="a_edge6_Node000005_Node000004"><a xlink:title=" ">
<path fill="none" stroke="#9a32cd" stroke-dasharray="5,2" d="M82.17,-43.91C98.39,-47.07 119.94,-51.27 139,-55 144.71,-56.12 150.68,-57.28 156.62,-58.45"/>
<polygon fill="#9a32cd" stroke="#9a32cd" points="82.9,-40.48 72.41,-42 81.56,-47.35 82.9,-40.48"/>
</a>
</g>
<text text-anchor="middle" x="134.5" y="-69" font-family="Helvetica,sans-Serif" font-size="10.00" fill="grey"> x</text>
<text text-anchor="middle" x="134.5" y="-58" font-family="Helvetica,sans-Serif" font-size="10.00" fill="grey">y</text>
</g>
<!-- Node5&#45;&gt;Node2 -->
<g id="edge4_Node000002_Node000005" class="edge">
<title>Node5&#45;&gt;Node2</title>
<g id="a_edge4_Node000002_Node000005"><a xlink:title=" ">
<path fill="none" stroke="orange" stroke-dasharray="5,2" d="M277.71,-69C311.73,-69 352.85,-69 385.06,-69"/>
<polygon fill="orange" stroke="orange" points="277.98,-65.5 267.98,-69 277.98,-72.5 277.98,-65.5"/>
</a>
</g>
<text text-anchor="start" x="284" y="-83" font-family="Helvetica,sans-Serif" font-size="10.00" fill="grey"> &lt; Vector&lt; Int32, 2</text>
<text text-anchor="middle" x="325" y="-72" font-family="Helvetica,sans-Serif" font-size="10.00" fill="grey"> &gt;, Int32 &gt;</text>
</g>
<!-- Node6 -->
<g id="Node000006" class="node">
<title>Node6</title>
<g id="a_Node000006"><a xlink:href="struct_harlinn_1_1_math_1_1_internal_1_1_vector_base.html" target="_top" xlink:title=" ">
<polygon fill="white" stroke="#666666" points="496,-30 384,-30 384,0 496,0 496,-30"/>
<text text-anchor="start" x="392" y="-18" font-family="Helvetica,sans-Serif" font-size="10.00">Harlinn::Math::Internal</text>
<text text-anchor="middle" x="440" y="-7" font-family="Helvetica,sans-Serif" font-size="10.00">::VectorBase</text>
</a>
</g>
</g>
<!-- Node6&#45;&gt;Node1 -->
<g id="edge7_Node000001_Node000006" class="edge">
<title>Node6&#45;&gt;Node1</title>
<g id="a_edge7_Node000001_Node000006"><a xlink:title=" ">
<path fill="none" stroke="#63b8ff" d="M507.72,-20.5C516.08,-21.19 524.54,-21.89 532.67,-22.56"/>
<polygon fill="#63b8ff" stroke="#63b8ff" points="508.18,-17.03 497.93,-19.7 507.61,-24.01 508.18,-17.03"/>
</a>
</g>
</g>
</g>
</svg>
