<?xml version="1.0" encoding="UTF-8" standalone="no"?>
<!DOCTYPE svg PUBLIC "-//W3C//DTD SVG 1.1//EN"
 "http://www.w3.org/Graphics/SVG/1.1/DTD/svg11.dtd">
<!-- Generated by graphviz version 7.0.1 (20221109.1506)
 -->
<!-- Title: Harlinn::Math::Tuple2&lt; DerivedT, T &gt; Pages: 1 -->
<svg width="650pt" height="462pt"
 viewBox="0.00 0.00 650.00 462.00" xmlns="http://www.w3.org/2000/svg" xmlns:xlink="http://www.w3.org/1999/xlink">
<g id="graph0" class="graph" transform="scale(1 1) rotate(0) translate(4 458)">
<title>Harlinn::Math::Tuple2&lt; DerivedT, T &gt;</title>
<!-- Node1 -->
<g id="Node000001" class="node">
<title>Node1</title>
<g id="a_Node000001"><a xlink:title="A tuple holding two numbers.">
<polygon fill="#999999" stroke="#666666" points="258,-241.5 149,-241.5 149,-211.5 258,-211.5 258,-241.5"/>
<text text-anchor="start" x="157" y="-229.5" font-family="Helvetica,sans-Serif" font-size="10.00">Harlinn::Math::Tuple2</text>
<text text-anchor="middle" x="203.5" y="-218.5" font-family="Helvetica,sans-Serif" font-size="10.00">&lt; DerivedT, T &gt;</text>
</a>
</g>
</g>
<!-- Node3 -->
<g id="Node000003" class="node">
<title>Node3</title>
<g id="a_Node000003"><a xlink:href="class_harlinn_1_1_math_1_1_tuple2.html" target="_top" xlink:title=" ">
<polygon fill="white" stroke="#666666" points="494.5,-454 385.5,-454 385.5,-413 494.5,-413 494.5,-454"/>
<text text-anchor="start" x="393.5" y="-442" font-family="Helvetica,sans-Serif" font-size="10.00">Harlinn::Math::Tuple2</text>
<text text-anchor="start" x="393.5" y="-431" font-family="Helvetica,sans-Serif" font-size="10.00">&lt; Point&lt; Int32, 2 &gt;,</text>
<text text-anchor="middle" x="440" y="-420" font-family="Helvetica,sans-Serif" font-size="10.00"> Int32 &gt;</text>
</a>
</g>
</g>
<!-- Node1&#45;&gt;Node3 -->
<g id="edge2_Node000001_Node000003" class="edge">
<title>Node1&#45;&gt;Node3</title>
<g id="a_edge2_Node000001_Node000003"><a xlink:title=" ">
<path fill="none" stroke="orange" stroke-dasharray="5,2" d="M208.85,-252.56C216.22,-288.47 234.61,-352.76 276,-388.5 306.22,-414.59 350.33,-425.66 385.05,-430.31"/>
<polygon fill="orange" stroke="orange" points="212.34,-252.21 207.04,-243.04 205.47,-253.52 212.34,-252.21"/>
</a>
</g>
<text text-anchor="start" x="278.5" y="-439.5" font-family="Helvetica,sans-Serif" font-size="10.00" fill="grey"> &lt; Point&lt; Int32, 2 &gt;</text>
<text text-anchor="middle" x="321" y="-428.5" font-family="Helvetica,sans-Serif" font-size="10.00" fill="grey">, Int32 &gt;</text>
</g>
<!-- Node5 -->
<g id="Node000005" class="node">
<title>Node5</title>
<g id="a_Node000005"><a xlink:href="class_harlinn_1_1_math_1_1_tuple2.html" target="_top" xlink:title=" ">
<polygon fill="white" stroke="#666666" points="494.5,-395 385.5,-395 385.5,-354 494.5,-354 494.5,-395"/>
<text text-anchor="start" x="393.5" y="-383" font-family="Helvetica,sans-Serif" font-size="10.00">Harlinn::Math::Tuple2</text>
<text text-anchor="start" x="393.5" y="-372" font-family="Helvetica,sans-Serif" font-size="10.00">&lt; Point&lt; float, 2 &gt;,</text>
<text text-anchor="middle" x="440" y="-361" font-family="Helvetica,sans-Serif" font-size="10.00"> float &gt;</text>
</a>
</g>
</g>
<!-- Node1&#45;&gt;Node5 -->
<g id="edge4_Node000001_Node000005" class="edge">
<title>Node1&#45;&gt;Node5</title>
<g id="a_edge4_Node000001_Node000005"><a xlink:title=" ">
<path fill="none" stroke="orange" stroke-dasharray="5,2" d="M216.43,-251.79C228.41,-274.55 248.97,-307.28 276,-326.5 308.21,-349.41 351.36,-361.49 385.17,-367.8"/>
<polygon fill="orange" stroke="orange" points="219.71,-250.52 212.07,-243.17 213.46,-253.67 219.71,-250.52"/>
</a>
</g>
<text text-anchor="start" x="280" y="-376.5" font-family="Helvetica,sans-Serif" font-size="10.00" fill="grey"> &lt; Point&lt; float, 2 &gt;</text>
<text text-anchor="middle" x="321" y="-365.5" font-family="Helvetica,sans-Serif" font-size="10.00" fill="grey">, float &gt;</text>
</g>
<!-- Node7 -->
<g id="Node000007" class="node">
<title>Node7</title>
<g id="a_Node000007"><a xlink:href="class_harlinn_1_1_math_1_1_tuple2.html" target="_top" xlink:title=" ">
<polygon fill="white" stroke="#666666" points="495.5,-336 384.5,-336 384.5,-295 495.5,-295 495.5,-336"/>
<text text-anchor="start" x="392.5" y="-324" font-family="Helvetica,sans-Serif" font-size="10.00">Harlinn::Math::Tuple2</text>
<text text-anchor="start" x="392.5" y="-313" font-family="Helvetica,sans-Serif" font-size="10.00">&lt; Scalar&lt; double, 2 &gt;</text>
<text text-anchor="middle" x="440" y="-302" font-family="Helvetica,sans-Serif" font-size="10.00">, double &gt;</text>
</a>
</g>
</g>
<!-- Node1&#45;&gt;Node7 -->
<g id="edge6_Node000001_Node000007" class="edge">
<title>Node1&#45;&gt;Node7</title>
<g id="a_edge6_Node000001_Node000007"><a xlink:title=" ">
<path fill="none" stroke="orange" stroke-dasharray="5,2" d="M233.9,-248.38C246.38,-256.87 261.4,-266.07 276,-272.5 310.69,-287.77 351.99,-298.6 384.34,-305.57"/>
<polygon fill="orange" stroke="orange" points="235.93,-245.53 225.73,-242.66 231.91,-251.27 235.93,-245.53"/>
</a>
</g>
<text text-anchor="start" x="276.5" y="-314.5" font-family="Helvetica,sans-Serif" font-size="10.00" fill="grey"> &lt; Scalar&lt; double, 2</text>
<text text-anchor="middle" x="321" y="-303.5" font-family="Helvetica,sans-Serif" font-size="10.00" fill="grey"> &gt;, double &gt;</text>
</g>
<!-- Node9 -->
<g id="Node000009" class="node">
<title>Node9</title>
<g id="a_Node000009"><a xlink:href="class_harlinn_1_1_math_1_1_tuple2.html" target="_top" xlink:title=" ">
<polygon fill="white" stroke="#666666" points="494.5,-277 385.5,-277 385.5,-236 494.5,-236 494.5,-277"/>
<text text-anchor="start" x="393.5" y="-265" font-family="Helvetica,sans-Serif" font-size="10.00">Harlinn::Math::Tuple2</text>
<text text-anchor="start" x="393.5" y="-254" font-family="Helvetica,sans-Serif" font-size="10.00">&lt; Scalar&lt; float, 2 &gt;,</text>
<text text-anchor="middle" x="440" y="-243" font-family="Helvetica,sans-Serif" font-size="10.00"> float &gt;</text>
</a>
</g>
</g>
<!-- Node1&#45;&gt;Node9 -->
<g id="edge8_Node000001_Node000009" class="edge">
<title>Node1&#45;&gt;Node9</title>
<g id="a_edge8_Node000001_Node000009"><a xlink:title=" ">
<path fill="none" stroke="orange" stroke-dasharray="5,2" d="M269.3,-234.79C305.69,-239.45 350.58,-245.19 385.05,-249.6"/>
<polygon fill="orange" stroke="orange" points="270.16,-231.37 259.8,-233.57 269.28,-238.32 270.16,-231.37"/>
</a>
</g>
<text text-anchor="start" x="281.5" y="-260.5" font-family="Helvetica,sans-Serif" font-size="10.00" fill="grey"> &lt; Scalar&lt; float, 2</text>
<text text-anchor="middle" x="321" y="-249.5" font-family="Helvetica,sans-Serif" font-size="10.00" fill="grey"> &gt;, float &gt;</text>
</g>
<!-- Node11 -->
<g id="Node000011" class="node">
<title>Node11</title>
<g id="a_Node000011"><a xlink:href="class_harlinn_1_1_math_1_1_tuple2.html" target="_top" xlink:title=" ">
<polygon fill="white" stroke="#666666" points="494.5,-218 385.5,-218 385.5,-177 494.5,-177 494.5,-218"/>
<text text-anchor="start" x="393.5" y="-206" font-family="Helvetica,sans-Serif" font-size="10.00">Harlinn::Math::Tuple2</text>
<text text-anchor="start" x="393.5" y="-195" font-family="Helvetica,sans-Serif" font-size="10.00">&lt; Vector&lt; Int32, 2 &gt;,</text>
<text text-anchor="middle" x="440" y="-184" font-family="Helvetica,sans-Serif" font-size="10.00"> Int32 &gt;</text>
</a>
</g>
</g>
<!-- Node1&#45;&gt;Node11 -->
<g id="edge10_Node000001_Node000011" class="edge">
<title>Node1&#45;&gt;Node11</title>
<g id="a_edge10_Node000001_Node000011"><a xlink:title=" ">
<path fill="none" stroke="orange" stroke-dasharray="5,2" d="M269.38,-209.64C271.61,-209.23 273.82,-208.85 276,-208.5 312.14,-202.78 353.25,-200.03 385.14,-198.71"/>
<polygon fill="orange" stroke="orange" points="268.76,-206.19 259.65,-211.59 270.14,-213.05 268.76,-206.19"/>
</a>
</g>
<text text-anchor="start" x="280" y="-222.5" font-family="Helvetica,sans-Serif" font-size="10.00" fill="grey"> &lt; Vector&lt; Int32, 2</text>
<text text-anchor="middle" x="321" y="-211.5" font-family="Helvetica,sans-Serif" font-size="10.00" fill="grey"> &gt;, Int32 &gt;</text>
</g>
<!-- Node13 -->
<g id="Node000013" class="node">
<title>Node13</title>
<g id="a_Node000013"><a xlink:href="class_harlinn_1_1_math_1_1_tuple2.html" target="_top" xlink:title=" ">
<polygon fill="white" stroke="#666666" points="495.5,-159 384.5,-159 384.5,-118 495.5,-118 495.5,-159"/>
<text text-anchor="start" x="392.5" y="-147" font-family="Helvetica,sans-Serif" font-size="10.00">Harlinn::Math::Tuple2</text>
<text text-anchor="start" x="392.5" y="-136" font-family="Helvetica,sans-Serif" font-size="10.00">&lt; Vector&lt; UInt32, 2 &gt;</text>
<text text-anchor="middle" x="440" y="-125" font-family="Helvetica,sans-Serif" font-size="10.00">, UInt32 &gt;</text>
</a>
</g>
</g>
<!-- Node1&#45;&gt;Node13 -->
<g id="edge12_Node000001_Node000013" class="edge">
<title>Node1&#45;&gt;Node13</title>
<g id="a_edge12_Node000001_Node000013"><a xlink:title=" ">
<path fill="none" stroke="orange" stroke-dasharray="5,2" d="M230.2,-203.81C243.15,-193.46 259.56,-181.9 276,-174.5 310.22,-159.09 351.53,-150.06 384,-144.9"/>
<polygon fill="orange" stroke="orange" points="228.09,-201.01 222.61,-210.08 232.55,-206.41 228.09,-201.01"/>
</a>
</g>
<text text-anchor="start" x="276.5" y="-188.5" font-family="Helvetica,sans-Serif" font-size="10.00" fill="grey"> &lt; Vector&lt; UInt32, 2</text>
<text text-anchor="middle" x="321" y="-177.5" font-family="Helvetica,sans-Serif" font-size="10.00" fill="grey"> &gt;, UInt32 &gt;</text>
</g>
<!-- Node15 -->
<g id="Node000015" class="node">
<title>Node15</title>
<g id="a_Node000015"><a xlink:href="class_harlinn_1_1_math_1_1_tuple2.html" target="_top" xlink:title=" ">
<polygon fill="white" stroke="#666666" points="496,-100 384,-100 384,-59 496,-59 496,-100"/>
<text text-anchor="start" x="392" y="-88" font-family="Helvetica,sans-Serif" font-size="10.00">Harlinn::Math::Tuple2</text>
<text text-anchor="start" x="392" y="-77" font-family="Helvetica,sans-Serif" font-size="10.00">&lt; Vector&lt; double, 2 &gt;</text>
<text text-anchor="middle" x="440" y="-66" font-family="Helvetica,sans-Serif" font-size="10.00">, double &gt;</text>
</a>
</g>
</g>
<!-- Node1&#45;&gt;Node15 -->
<g id="edge14_Node000001_Node000015" class="edge">
<title>Node1&#45;&gt;Node15</title>
<g id="a_edge14_Node000001_Node000015"><a xlink:title=" ">
<path fill="none" stroke="orange" stroke-dasharray="5,2" d="M215.94,-200.7C227.7,-177.14 248.2,-143.09 276,-123.5 307.63,-101.21 349.98,-90.21 383.58,-84.78"/>
<polygon fill="orange" stroke="orange" points="212.82,-199.1 211.67,-209.64 219.14,-202.12 212.82,-199.1"/>
</a>
</g>
<text text-anchor="start" x="276" y="-137.5" font-family="Helvetica,sans-Serif" font-size="10.00" fill="grey"> &lt; Vector&lt; double, 2</text>
<text text-anchor="middle" x="321" y="-126.5" font-family="Helvetica,sans-Serif" font-size="10.00" fill="grey"> &gt;, double &gt;</text>
</g>
<!-- Node17 -->
<g id="Node000017" class="node">
<title>Node17</title>
<g id="a_Node000017"><a xlink:href="class_harlinn_1_1_math_1_1_tuple2.html" target="_top" xlink:title=" ">
<polygon fill="white" stroke="#666666" points="494.5,-41 385.5,-41 385.5,0 494.5,0 494.5,-41"/>
<text text-anchor="start" x="393.5" y="-29" font-family="Helvetica,sans-Serif" font-size="10.00">Harlinn::Math::Tuple2</text>
<text text-anchor="start" x="393.5" y="-18" font-family="Helvetica,sans-Serif" font-size="10.00">&lt; Vector&lt; float, 2 &gt;,</text>
<text text-anchor="middle" x="440" y="-7" font-family="Helvetica,sans-Serif" font-size="10.00"> float &gt;</text>
</a>
</g>
</g>
<!-- Node1&#45;&gt;Node17 -->
<g id="edge16_Node000001_Node000017" class="edge">
<title>Node1&#45;&gt;Node17</title>
<g id="a_edge16_Node000001_Node000017"><a xlink:title=" ">
<path fill="none" stroke="orange" stroke-dasharray="5,2" d="M208.66,-200.03C215.82,-163.56 233.95,-98.35 276,-62.5 306.25,-36.72 350.36,-26.48 385.07,-22.54"/>
<polygon fill="orange" stroke="orange" points="205.25,-199.25 206.91,-209.71 212.13,-200.5 205.25,-199.25"/>
</a>
</g>
<text text-anchor="start" x="281.5" y="-76.5" font-family="Helvetica,sans-Serif" font-size="10.00" fill="grey"> &lt; Vector&lt; float, 2</text>
<text text-anchor="middle" x="321" y="-65.5" font-family="Helvetica,sans-Serif" font-size="10.00" fill="grey"> &gt;, float &gt;</text>
</g>
<!-- Node2 -->
<g id="Node000002" class="node">
<title>Node2</title>
<g id="a_Node000002"><a xlink:href="struct_harlinn_1_1_math_1_1_internal_1_1_tuple_base.html" target="_top" xlink:title=" ">
<polygon fill="white" stroke="#666666" points="112,-241.5 0,-241.5 0,-211.5 112,-211.5 112,-241.5"/>
<text text-anchor="start" x="8" y="-229.5" font-family="Helvetica,sans-Serif" font-size="10.00">Harlinn::Math::Internal</text>
<text text-anchor="middle" x="56" y="-218.5" font-family="Helvetica,sans-Serif" font-size="10.00">::TupleBase</text>
</a>
</g>
</g>
<!-- Node2&#45;&gt;Node1 -->
<g id="edge1_Node000001_Node000002" class="edge">
<title>Node2&#45;&gt;Node1</title>
<g id="a_edge1_Node000001_Node000002"><a xlink:title=" ">
<path fill="none" stroke="#63b8ff" d="M123.72,-226.5C132.08,-226.5 140.54,-226.5 148.67,-226.5"/>
<polygon fill="#63b8ff" stroke="#63b8ff" points="123.94,-223 113.94,-226.5 123.94,-230 123.94,-223"/>
</a>
</g>
</g>
<!-- Node4 -->
<g id="Node000004" class="node">
<title>Node4</title>
<g id="a_Node000004"><a xlink:href="class_harlinn_1_1_math_1_1_point_3_01_int32_00_012_01_4.html" target="_top" xlink:title=" ">
<polygon fill="white" stroke="#666666" points="639,-448.5 536,-448.5 536,-418.5 639,-418.5 639,-448.5"/>
<text text-anchor="start" x="544" y="-436.5" font-family="Helvetica,sans-Serif" font-size="10.00">Harlinn::Math::Point</text>
<text text-anchor="middle" x="587.5" y="-425.5" font-family="Helvetica,sans-Serif" font-size="10.00">&lt; Int32, 2 &gt;</text>
</a>
</g>
</g>
<!-- Node3&#45;&gt;Node4 -->
<g id="edge3_Node000003_Node000004" class="edge">
<title>Node3&#45;&gt;Node4</title>
<g id="a_edge3_Node000003_Node000004"><a xlink:title=" ">
<path fill="none" stroke="#63b8ff" d="M505.96,-433.5C515.98,-433.5 526.2,-433.5 535.85,-433.5"/>
<polygon fill="#63b8ff" stroke="#63b8ff" points="506.28,-430 496.28,-433.5 506.28,-437 506.28,-430"/>
</a>
</g>
</g>
<!-- Node6 -->
<g id="Node000006" class="node">
<title>Node6</title>
<g id="a_Node000006"><a xlink:href="class_harlinn_1_1_math_1_1_point_3_01float_00_012_01_4.html" target="_top" xlink:title=" ">
<polygon fill="white" stroke="#666666" points="639,-389.5 536,-389.5 536,-359.5 639,-359.5 639,-389.5"/>
<text text-anchor="start" x="544" y="-377.5" font-family="Helvetica,sans-Serif" font-size="10.00">Harlinn::Math::Point</text>
<text text-anchor="middle" x="587.5" y="-366.5" font-family="Helvetica,sans-Serif" font-size="10.00">&lt; float, 2 &gt;</text>
</a>
</g>
</g>
<!-- Node5&#45;&gt;Node6 -->
<g id="edge5_Node000005_Node000006" class="edge">
<title>Node5&#45;&gt;Node6</title>
<g id="a_edge5_Node000005_Node000006"><a xlink:title=" ">
<path fill="none" stroke="#63b8ff" d="M505.96,-374.5C515.98,-374.5 526.2,-374.5 535.85,-374.5"/>
<polygon fill="#63b8ff" stroke="#63b8ff" points="506.28,-371 496.28,-374.5 506.28,-378 506.28,-371"/>
</a>
</g>
</g>
<!-- Node8 -->
<g id="Node000008" class="node">
<title>Node8</title>
<g id="a_Node000008"><a xlink:href="class_harlinn_1_1_math_1_1_scalar_3_01double_00_012_01_4.html" target="_top" xlink:title=" ">
<polygon fill="white" stroke="#666666" points="641.5,-330.5 533.5,-330.5 533.5,-300.5 641.5,-300.5 641.5,-330.5"/>
<text text-anchor="start" x="541.5" y="-318.5" font-family="Helvetica,sans-Serif" font-size="10.00">Harlinn::Math::Scalar</text>
<text text-anchor="middle" x="587.5" y="-307.5" font-family="Helvetica,sans-Serif" font-size="10.00">&lt; double, 2 &gt;</text>
</a>
</g>
</g>
<!-- Node7&#45;&gt;Node8 -->
<g id="edge7_Node000007_Node000008" class="edge">
<title>Node7&#45;&gt;Node8</title>
<g id="a_edge7_Node000007_Node000008"><a xlink:title=" ">
<path fill="none" stroke="#63b8ff" d="M506.96,-315.5C515.69,-315.5 524.56,-315.5 533.05,-315.5"/>
<polygon fill="#63b8ff" stroke="#63b8ff" points="507.11,-312 497.11,-315.5 507.11,-319 507.11,-312"/>
</a>
</g>
</g>
<!-- Node10 -->
<g id="Node000010" class="node">
<title>Node10</title>
<g id="a_Node000010"><a xlink:href="class_harlinn_1_1_math_1_1_scalar_3_01float_00_012_01_4.html" target="_top" xlink:title=" ">
<polygon fill="white" stroke="#666666" points="641.5,-271.5 533.5,-271.5 533.5,-241.5 641.5,-241.5 641.5,-271.5"/>
<text text-anchor="start" x="541.5" y="-259.5" font-family="Helvetica,sans-Serif" font-size="10.00">Harlinn::Math::Scalar</text>
<text text-anchor="middle" x="587.5" y="-248.5" font-family="Helvetica,sans-Serif" font-size="10.00">&lt; float, 2 &gt;</text>
</a>
</g>
</g>
<!-- Node9&#45;&gt;Node10 -->
<g id="edge9_Node000009_Node000010" class="edge">
<title>Node9&#45;&gt;Node10</title>
<g id="a_edge9_Node000009_Node000010"><a xlink:title=" ">
<path fill="none" stroke="#63b8ff" d="M506.19,-256.5C515.3,-256.5 524.58,-256.5 533.44,-256.5"/>
<polygon fill="#63b8ff" stroke="#63b8ff" points="506.28,-253 496.28,-256.5 506.28,-260 506.28,-253"/>
</a>
</g>
</g>
<!-- Node12 -->
<g id="Node000012" class="node">
<title>Node12</title>
<g id="a_Node000012"><a xlink:href="class_harlinn_1_1_math_1_1_vector_3_01_int32_00_012_01_4.html" target="_top" xlink:title=" ">
<polygon fill="white" stroke="#666666" points="642,-212.5 533,-212.5 533,-182.5 642,-182.5 642,-212.5"/>
<text text-anchor="start" x="541" y="-200.5" font-family="Helvetica,sans-Serif" font-size="10.00">Harlinn::Math::Vector</text>
<text text-anchor="middle" x="587.5" y="-189.5" font-family="Helvetica,sans-Serif" font-size="10.00">&lt; Int32, 2 &gt;</text>
</a>
</g>
</g>
<!-- Node11&#45;&gt;Node12 -->
<g id="edge11_Node000011_Node000012" class="edge">
<title>Node11&#45;&gt;Node12</title>
<g id="a_edge11_Node000011_Node000012"><a xlink:title=" ">
<path fill="none" stroke="#63b8ff" d="M506.04,-197.5C515.04,-197.5 524.2,-197.5 532.96,-197.5"/>
<polygon fill="#63b8ff" stroke="#63b8ff" points="506.28,-194 496.28,-197.5 506.28,-201 506.28,-194"/>
</a>
</g>
</g>
<!-- Node14 -->
<g id="Node000014" class="node">
<title>Node14</title>
<g id="a_Node000014"><a xlink:href="class_harlinn_1_1_math_1_1_vector_3_01_u_int32_00_012_01_4.html" target="_top" xlink:title=" ">
<polygon fill="white" stroke="#666666" points="642,-153.5 533,-153.5 533,-123.5 642,-123.5 642,-153.5"/>
<text text-anchor="start" x="541" y="-141.5" font-family="Helvetica,sans-Serif" font-size="10.00">Harlinn::Math::Vector</text>
<text text-anchor="middle" x="587.5" y="-130.5" font-family="Helvetica,sans-Serif" font-size="10.00">&lt; UInt32, 2 &gt;</text>
</a>
</g>
</g>
<!-- Node13&#45;&gt;Node14 -->
<g id="edge13_Node000013_Node000014" class="edge">
<title>Node13&#45;&gt;Node14</title>
<g id="a_edge13_Node000013_Node000014"><a xlink:title=" ">
<path fill="none" stroke="#63b8ff" d="M507.1,-138.5C515.62,-138.5 524.27,-138.5 532.57,-138.5"/>
<polygon fill="#63b8ff" stroke="#63b8ff" points="507.11,-135 497.11,-138.5 507.11,-142 507.11,-135"/>
</a>
</g>
</g>
<!-- Node16 -->
<g id="Node000016" class="node">
<title>Node16</title>
<g id="a_Node000016"><a xlink:href="class_harlinn_1_1_math_1_1_vector_3_01double_00_012_01_4.html" target="_top" xlink:title=" ">
<polygon fill="white" stroke="#666666" points="642,-94.5 533,-94.5 533,-64.5 642,-64.5 642,-94.5"/>
<text text-anchor="start" x="541" y="-82.5" font-family="Helvetica,sans-Serif" font-size="10.00">Harlinn::Math::Vector</text>
<text text-anchor="middle" x="587.5" y="-71.5" font-family="Helvetica,sans-Serif" font-size="10.00">&lt; double, 2 &gt;</text>
</a>
</g>
</g>
<!-- Node15&#45;&gt;Node16 -->
<g id="edge15_Node000015_Node000016" class="edge">
<title>Node15&#45;&gt;Node16</title>
<g id="a_edge15_Node000015_Node000016"><a xlink:title=" ">
<path fill="none" stroke="#63b8ff" d="M507.72,-79.5C516.08,-79.5 524.54,-79.5 532.67,-79.5"/>
<polygon fill="#63b8ff" stroke="#63b8ff" points="507.94,-76 497.94,-79.5 507.94,-83 507.94,-76"/>
</a>
</g>
</g>
<!-- Node18 -->
<g id="Node000018" class="node">
<title>Node18</title>
<g id="a_Node000018"><a xlink:href="class_harlinn_1_1_math_1_1_vector_3_01float_00_012_01_4.html" target="_top" xlink:title=" ">
<polygon fill="white" stroke="#666666" points="642,-35.5 533,-35.5 533,-5.5 642,-5.5 642,-35.5"/>
<text text-anchor="start" x="541" y="-23.5" font-family="Helvetica,sans-Serif" font-size="10.00">Harlinn::Math::Vector</text>
<text text-anchor="middle" x="587.5" y="-12.5" font-family="Helvetica,sans-Serif" font-size="10.00">&lt; float, 2 &gt;</text>
</a>
</g>
</g>
<!-- Node17&#45;&gt;Node18 -->
<g id="edge17_Node000017_Node000018" class="edge">
<title>Node17&#45;&gt;Node18</title>
<g id="a_edge17_Node000017_Node000018"><a xlink:title=" ">
<path fill="none" stroke="#63b8ff" d="M506.04,-20.5C515.04,-20.5 524.2,-20.5 532.96,-20.5"/>
<polygon fill="#63b8ff" stroke="#63b8ff" points="506.28,-17 496.28,-20.5 506.28,-24 506.28,-17"/>
</a>
</g>
</g>
</g>
</svg>
