<?xml version="1.0" encoding="UTF-8" standalone="no"?>
<!DOCTYPE svg PUBLIC "-//W3C//DTD SVG 1.1//EN"
 "http://www.w3.org/Graphics/SVG/1.1/DTD/svg11.dtd">
<!-- Generated by graphviz version 7.0.1 (20221109.1506)
 -->
<!-- Title: Harlinn::Windows::Graphics::DirectComposition::Transform3D Pages: 1 -->
<svg width="964pt" height="278pt"
 viewBox="0.00 0.00 964.00 278.00" xmlns="http://www.w3.org/2000/svg" xmlns:xlink="http://www.w3.org/1999/xlink">
<g id="graph0" class="graph" transform="scale(1 1) rotate(0) translate(4 274)">
<title>Harlinn::Windows::Graphics::DirectComposition::Transform3D</title>
<!-- Node1 -->
<g id="Node000001" class="node">
<title>Node1</title>
<g id="a_Node000001"><a xlink:title="Represents a 3D transformation effect that can be used to modify the rasterization of a visual subtre...">
<polygon fill="#999999" stroke="#666666" points="490,-174 327,-174 327,-144 490,-144 490,-174"/>
<text text-anchor="start" x="335" y="-162" font-family="Helvetica,sans-Serif" font-size="10.00">Harlinn::Windows::Graphics</text>
<text text-anchor="middle" x="408.5" y="-151" font-family="Helvetica,sans-Serif" font-size="10.00">::DirectComposition::Transform3D</text>
</a>
</g>
</g>
<!-- Node4 -->
<g id="Node000004" class="node">
<title>Node4</title>
<g id="a_Node000004"><a xlink:href="class_harlinn_1_1_windows_1_1_graphics_1_1_direct_composition_1_1_matrix_transform3_d.xhtml" target="_top" xlink:title="Represents an arbitrary 3D transformation defined by a 4&#45;by&#45;4 matrix.">
<polygon fill="white" stroke="#666666" points="722.5,-270 532.5,-270 532.5,-240 722.5,-240 722.5,-270"/>
<text text-anchor="start" x="540.5" y="-258" font-family="Helvetica,sans-Serif" font-size="10.00">Harlinn::Windows::Graphics</text>
<text text-anchor="middle" x="627.5" y="-247" font-family="Helvetica,sans-Serif" font-size="10.00">::DirectComposition::MatrixTransform3D</text>
</a>
</g>
</g>
<!-- Node1&#45;&gt;Node4 -->
<g id="edge3_Node000001_Node000004" class="edge">
<title>Node1&#45;&gt;Node4</title>
<g id="a_edge3_Node000001_Node000004"><a xlink:title=" ">
<path fill="none" stroke="#63b8ff" d="M438.97,-180.9C461.7,-196.87 494.49,-217.9 526,-231 533.7,-234.2 541.92,-237.03 550.22,-239.52"/>
<polygon fill="#63b8ff" stroke="#63b8ff" points="441.28,-178.25 431.11,-175.29 437.21,-183.95 441.28,-178.25"/>
</a>
</g>
</g>
<!-- Node5 -->
<g id="Node000005" class="node">
<title>Node5</title>
<g id="a_Node000005"><a xlink:href="class_harlinn_1_1_windows_1_1_graphics_1_1_direct_composition_1_1_rotate_transform3_d.xhtml" target="_top" xlink:title="Represents a 3D transformation that affects the rotation of a visual along an arbitrary axis in 3D sp...">
<polygon fill="white" stroke="#666666" points="723,-222 532,-222 532,-192 723,-192 723,-222"/>
<text text-anchor="start" x="540" y="-210" font-family="Helvetica,sans-Serif" font-size="10.00">Harlinn::Windows::Graphics</text>
<text text-anchor="middle" x="627.5" y="-199" font-family="Helvetica,sans-Serif" font-size="10.00">::DirectComposition::RotateTransform3D</text>
</a>
</g>
</g>
<!-- Node1&#45;&gt;Node5 -->
<g id="edge4_Node000001_Node000005" class="edge">
<title>Node1&#45;&gt;Node5</title>
<g id="a_edge4_Node000001_Node000005"><a xlink:title=" ">
<path fill="none" stroke="#63b8ff" d="M490.57,-176.93C512.34,-181.75 535.68,-186.91 556.78,-191.58"/>
<polygon fill="#63b8ff" stroke="#63b8ff" points="491.35,-173.52 480.83,-174.78 489.84,-180.36 491.35,-173.52"/>
</a>
</g>
</g>
<!-- Node6 -->
<g id="Node000006" class="node">
<title>Node6</title>
<g id="a_Node000006"><a xlink:href="class_harlinn_1_1_windows_1_1_graphics_1_1_direct_composition_1_1_scale_transform3_d.xhtml" target="_top" xlink:title="Represents a 3D transformation effect that affects the scale of a visual along the x&#45;axis,...">
<polygon fill="white" stroke="#666666" points="721.5,-174 533.5,-174 533.5,-144 721.5,-144 721.5,-174"/>
<text text-anchor="start" x="541.5" y="-162" font-family="Helvetica,sans-Serif" font-size="10.00">Harlinn::Windows::Graphics</text>
<text text-anchor="middle" x="627.5" y="-151" font-family="Helvetica,sans-Serif" font-size="10.00">::DirectComposition::ScaleTransform3D</text>
</a>
</g>
</g>
<!-- Node1&#45;&gt;Node6 -->
<g id="edge5_Node000001_Node000006" class="edge">
<title>Node1&#45;&gt;Node6</title>
<g id="a_edge5_Node000001_Node000006"><a xlink:title=" ">
<path fill="none" stroke="#63b8ff" d="M501.56,-159C512.03,-159 522.71,-159 533.19,-159"/>
<polygon fill="#63b8ff" stroke="#63b8ff" points="501.82,-155.5 491.82,-159 501.82,-162.5 501.82,-155.5"/>
</a>
</g>
</g>
<!-- Node7 -->
<g id="Node000007" class="node">
<title>Node7</title>
<g id="a_Node000007"><a xlink:href="class_harlinn_1_1_windows_1_1_graphics_1_1_direct_composition_1_1_transform.xhtml" target="_top" xlink:title="Represents a 2D transformation that can be used to modify the coordinate space of a visual subtree.">
<polygon fill="white" stroke="#666666" points="703,-126 552,-126 552,-96 703,-96 703,-126"/>
<text text-anchor="start" x="560" y="-114" font-family="Helvetica,sans-Serif" font-size="10.00">Harlinn::Windows::Graphics</text>
<text text-anchor="middle" x="627.5" y="-103" font-family="Helvetica,sans-Serif" font-size="10.00">::DirectComposition::Transform</text>
</a>
</g>
</g>
<!-- Node1&#45;&gt;Node7 -->
<g id="edge6_Node000001_Node000007" class="edge">
<title>Node1&#45;&gt;Node7</title>
<g id="a_edge6_Node000001_Node000007"><a xlink:title=" ">
<path fill="none" stroke="#63b8ff" d="M490.57,-141.07C512.34,-136.25 535.68,-131.09 556.78,-126.42"/>
<polygon fill="#63b8ff" stroke="#63b8ff" points="489.84,-137.64 480.83,-143.22 491.35,-144.48 489.84,-137.64"/>
</a>
</g>
</g>
<!-- Node13 -->
<g id="Node000013" class="node">
<title>Node13</title>
<g id="a_Node000013"><a xlink:href="class_harlinn_1_1_windows_1_1_graphics_1_1_direct_composition_1_1_translate_transform3_d.xhtml" target="_top" xlink:title="Represents a 3D transformation that affects the offset of a visual along the x&#45;axis,...">
<polygon fill="white" stroke="#666666" points="729,-78 526,-78 526,-48 729,-48 729,-78"/>
<text text-anchor="start" x="534" y="-66" font-family="Helvetica,sans-Serif" font-size="10.00">Harlinn::Windows::Graphics</text>
<text text-anchor="middle" x="627.5" y="-55" font-family="Helvetica,sans-Serif" font-size="10.00">::DirectComposition::TranslateTransform3D</text>
</a>
</g>
</g>
<!-- Node1&#45;&gt;Node13 -->
<g id="edge12_Node000001_Node000013" class="edge">
<title>Node1&#45;&gt;Node13</title>
<g id="a_edge12_Node000001_Node000013"><a xlink:title=" ">
<path fill="none" stroke="#63b8ff" d="M438.97,-137.1C461.7,-121.13 494.49,-100.1 526,-87 533.7,-83.8 541.92,-80.97 550.22,-78.48"/>
<polygon fill="#63b8ff" stroke="#63b8ff" points="437.21,-134.05 431.11,-142.71 441.28,-139.75 437.21,-134.05"/>
</a>
</g>
</g>
<!-- Node2 -->
<g id="Node000002" class="node">
<title>Node2</title>
<g id="a_Node000002"><a xlink:href="class_harlinn_1_1_windows_1_1_graphics_1_1_direct_composition_1_1_effect.xhtml" target="_top" xlink:title="Represents a bitmap effect that modifies the rasterization of a visual&#39;s subtree.">
<polygon fill="white" stroke="#666666" points="291,-174 154,-174 154,-144 291,-144 291,-174"/>
<text text-anchor="start" x="162" y="-162" font-family="Helvetica,sans-Serif" font-size="10.00">Harlinn::Windows::Graphics</text>
<text text-anchor="middle" x="222.5" y="-151" font-family="Helvetica,sans-Serif" font-size="10.00">::DirectComposition::Effect</text>
</a>
</g>
</g>
<!-- Node2&#45;&gt;Node1 -->
<g id="edge1_Node000001_Node000002" class="edge">
<title>Node2&#45;&gt;Node1</title>
<g id="a_edge1_Node000001_Node000002"><a xlink:title=" ">
<path fill="none" stroke="#63b8ff" d="M302.92,-159C310.81,-159 318.81,-159 326.71,-159"/>
<polygon fill="#63b8ff" stroke="#63b8ff" points="303.01,-155.5 293.01,-159 303.01,-162.5 303.01,-155.5"/>
</a>
</g>
</g>
<!-- Node3 -->
<g id="Node000003" class="node">
<title>Node3</title>
<g id="a_Node000003"><a xlink:href="class_harlinn_1_1_common_1_1_core_1_1_unknown.xhtml" target="_top" xlink:title=" ">
<polygon fill="white" stroke="#666666" points="118,-174 0,-174 0,-144 118,-144 118,-174"/>
<text text-anchor="start" x="8" y="-162" font-family="Helvetica,sans-Serif" font-size="10.00">Harlinn::Common::Core</text>
<text text-anchor="middle" x="59" y="-151" font-family="Helvetica,sans-Serif" font-size="10.00">::Unknown</text>
</a>
</g>
</g>
<!-- Node3&#45;&gt;Node2 -->
<g id="edge2_Node000002_Node000003" class="edge">
<title>Node3&#45;&gt;Node2</title>
<g id="a_edge2_Node000002_Node000003"><a xlink:title=" ">
<path fill="none" stroke="#63b8ff" d="M129.78,-159C137.7,-159 145.77,-159 153.67,-159"/>
<polygon fill="#63b8ff" stroke="#63b8ff" points="129.82,-155.5 119.82,-159 129.82,-162.5 129.82,-155.5"/>
</a>
</g>
</g>
<!-- Node8 -->
<g id="Node000008" class="node">
<title>Node8</title>
<g id="a_Node000008"><a xlink:href="class_harlinn_1_1_windows_1_1_graphics_1_1_direct_composition_1_1_matrix_transform.xhtml" target="_top" xlink:title="Represents an arbitrary affine 2D transformation defined by a 3&#45;by&#45;2 matrix.">
<polygon fill="white" stroke="#666666" points="949.5,-222 771.5,-222 771.5,-192 949.5,-192 949.5,-222"/>
<text text-anchor="start" x="779.5" y="-210" font-family="Helvetica,sans-Serif" font-size="10.00">Harlinn::Windows::Graphics</text>
<text text-anchor="middle" x="860.5" y="-199" font-family="Helvetica,sans-Serif" font-size="10.00">::DirectComposition::MatrixTransform</text>
</a>
</g>
</g>
<!-- Node7&#45;&gt;Node8 -->
<g id="edge7_Node000007_Node000008" class="edge">
<title>Node7&#45;&gt;Node8</title>
<g id="a_edge7_Node000007_Node000008"><a xlink:title=" ">
<path fill="none" stroke="#63b8ff" d="M713.82,-126.8C719.13,-129.17 724.25,-131.88 729,-135 751.29,-149.63 742.81,-168.21 765,-183 769.93,-186.29 775.28,-189.12 780.84,-191.57"/>
<polygon fill="#63b8ff" stroke="#63b8ff" points="715.38,-123.66 704.8,-123.24 712.81,-130.17 715.38,-123.66"/>
</a>
</g>
</g>
<!-- Node9 -->
<g id="Node000009" class="node">
<title>Node9</title>
<g id="a_Node000009"><a xlink:href="class_harlinn_1_1_windows_1_1_graphics_1_1_direct_composition_1_1_rotate_transform.xhtml" target="_top" xlink:title="Represents a 2D transformation that affects the rotation of a visual around the z&#45;axis....">
<polygon fill="white" stroke="#666666" points="950,-174 771,-174 771,-144 950,-144 950,-174"/>
<text text-anchor="start" x="779" y="-162" font-family="Helvetica,sans-Serif" font-size="10.00">Harlinn::Windows::Graphics</text>
<text text-anchor="middle" x="860.5" y="-151" font-family="Helvetica,sans-Serif" font-size="10.00">::DirectComposition::RotateTransform</text>
</a>
</g>
</g>
<!-- Node7&#45;&gt;Node9 -->
<g id="edge8_Node000007_Node000009" class="edge">
<title>Node7&#45;&gt;Node9</title>
<g id="a_edge8_Node000007_Node000009"><a xlink:title=" ">
<path fill="none" stroke="#63b8ff" d="M713.85,-128.73C737.29,-133.61 762.52,-138.85 785.28,-143.58"/>
<polygon fill="#63b8ff" stroke="#63b8ff" points="714.85,-125.37 704.34,-126.76 713.42,-132.22 714.85,-125.37"/>
</a>
</g>
</g>
<!-- Node10 -->
<g id="Node000010" class="node">
<title>Node10</title>
<g id="a_Node000010"><a xlink:href="class_harlinn_1_1_windows_1_1_graphics_1_1_direct_composition_1_1_scale_transform.xhtml" target="_top" xlink:title="Represents a 2D transformation that affects the scale of a visual along the x&#45;axis and y&#45;axis....">
<polygon fill="white" stroke="#666666" points="948.5,-126 772.5,-126 772.5,-96 948.5,-96 948.5,-126"/>
<text text-anchor="start" x="780.5" y="-114" font-family="Helvetica,sans-Serif" font-size="10.00">Harlinn::Windows::Graphics</text>
<text text-anchor="middle" x="860.5" y="-103" font-family="Helvetica,sans-Serif" font-size="10.00">::DirectComposition::ScaleTransform</text>
</a>
</g>
</g>
<!-- Node7&#45;&gt;Node10 -->
<g id="edge9_Node000007_Node000010" class="edge">
<title>Node7&#45;&gt;Node10</title>
<g id="a_edge9_Node000007_Node000010"><a xlink:title=" ">
<path fill="none" stroke="#63b8ff" d="M714.95,-111C733.6,-111 753.33,-111 772.02,-111"/>
<polygon fill="#63b8ff" stroke="#63b8ff" points="715.01,-107.5 705.01,-111 715.01,-114.5 715.01,-107.5"/>
</a>
</g>
</g>
<!-- Node11 -->
<g id="Node000011" class="node">
<title>Node11</title>
<g id="a_Node000011"><a xlink:href="class_harlinn_1_1_windows_1_1_graphics_1_1_direct_composition_1_1_skew_transform.xhtml" target="_top" xlink:title="Represents a 2D transformation that affects the skew of a visual along the x&#45;axis and y&#45;axis....">
<polygon fill="white" stroke="#666666" points="948,-78 773,-78 773,-48 948,-48 948,-78"/>
<text text-anchor="start" x="781" y="-66" font-family="Helvetica,sans-Serif" font-size="10.00">Harlinn::Windows::Graphics</text>
<text text-anchor="middle" x="860.5" y="-55" font-family="Helvetica,sans-Serif" font-size="10.00">::DirectComposition::SkewTransform</text>
</a>
</g>
</g>
<!-- Node7&#45;&gt;Node11 -->
<g id="edge10_Node000007_Node000011" class="edge">
<title>Node7&#45;&gt;Node11</title>
<g id="a_edge10_Node000007_Node000011"><a xlink:title=" ">
<path fill="none" stroke="#63b8ff" d="M713.85,-93.27C737.29,-88.39 762.52,-83.15 785.28,-78.42"/>
<polygon fill="#63b8ff" stroke="#63b8ff" points="713.42,-89.78 704.34,-95.24 714.85,-96.63 713.42,-89.78"/>
</a>
</g>
</g>
<!-- Node12 -->
<g id="Node000012" class="node">
<title>Node12</title>
<g id="a_Node000012"><a xlink:href="class_harlinn_1_1_windows_1_1_graphics_1_1_direct_composition_1_1_translate_transform.xhtml" target="_top" xlink:title="Represents a 2D transformation that affects only the offset of a visual along the x&#45;axis and y&#45;axis.">
<polygon fill="white" stroke="#666666" points="956,-30 765,-30 765,0 956,0 956,-30"/>
<text text-anchor="start" x="773" y="-18" font-family="Helvetica,sans-Serif" font-size="10.00">Harlinn::Windows::Graphics</text>
<text text-anchor="middle" x="860.5" y="-7" font-family="Helvetica,sans-Serif" font-size="10.00">::DirectComposition::TranslateTransform</text>
</a>
</g>
</g>
<!-- Node7&#45;&gt;Node12 -->
<g id="edge11_Node000007_Node000012" class="edge">
<title>Node7&#45;&gt;Node12</title>
<g id="a_edge11_Node000007_Node000012"><a xlink:title=" ">
<path fill="none" stroke="#63b8ff" d="M713.82,-95.2C719.13,-92.83 724.25,-90.12 729,-87 751.29,-72.37 742.81,-53.79 765,-39 769.93,-35.71 775.28,-32.88 780.84,-30.43"/>
<polygon fill="#63b8ff" stroke="#63b8ff" points="712.81,-91.83 704.8,-98.76 715.38,-98.34 712.81,-91.83"/>
</a>
</g>
</g>
</g>
</svg>
