<?xml version="1.0" encoding="UTF-8" standalone="no"?>
<!DOCTYPE svg PUBLIC "-//W3C//DTD SVG 1.1//EN"
 "http://www.w3.org/Graphics/SVG/1.1/DTD/svg11.dtd">
<!-- Generated by graphviz version 7.0.1 (20221109.1506)
 -->
<!-- Title: Harlinn::Windows::Graphics::D3D11::D3D11DepthStencilView Pages: 1 -->
<svg width="172pt" height="236pt"
 viewBox="0.00 0.00 172.00 236.00" xmlns="http://www.w3.org/2000/svg" xmlns:xlink="http://www.w3.org/1999/xlink">
<g id="graph0" class="graph" transform="scale(1 1) rotate(0) translate(4 232)">
<title>Harlinn::Windows::Graphics::D3D11::D3D11DepthStencilView</title>
<!-- Node1 -->
<g id="Node000001" class="node">
<title>Node1</title>
<g id="a_Node000001"><a xlink:title=" ">
<polygon fill="#999999" stroke="#666666" points="164,-30 0,-30 0,0 164,0 164,-30"/>
<text text-anchor="start" x="8" y="-18" font-family="Helvetica,sans-Serif" font-size="10.00">Harlinn::Windows::Graphics</text>
<text text-anchor="middle" x="82" y="-7" font-family="Helvetica,sans-Serif" font-size="10.00">::D3D11::D3D11DepthStencilView</text>
</a>
</g>
</g>
<!-- Node2 -->
<g id="Node000002" class="node">
<title>Node2</title>
<g id="a_Node000002"><a xlink:href="class_harlinn_1_1_windows_1_1_graphics_1_1_d3_d11_1_1_d3_d11_view.xhtml" target="_top" xlink:title=" ">
<polygon fill="white" stroke="#666666" points="150.5,-96 13.5,-96 13.5,-66 150.5,-66 150.5,-96"/>
<text text-anchor="start" x="21.5" y="-84" font-family="Helvetica,sans-Serif" font-size="10.00">Harlinn::Windows::Graphics</text>
<text text-anchor="middle" x="82" y="-73" font-family="Helvetica,sans-Serif" font-size="10.00">::D3D11::D3D11View</text>
</a>
</g>
</g>
<!-- Node2&#45;&gt;Node1 -->
<g id="edge1_Node000001_Node000002" class="edge">
<title>Node2&#45;&gt;Node1</title>
<g id="a_edge1_Node000001_Node000002"><a xlink:title=" ">
<path fill="none" stroke="#63b8ff" d="M82,-54.39C82,-46.13 82,-37.28 82,-30.16"/>
<polygon fill="#63b8ff" stroke="#63b8ff" points="78.5,-54.28 82,-64.28 85.5,-54.28 78.5,-54.28"/>
</a>
</g>
</g>
<!-- Node3 -->
<g id="Node000003" class="node">
<title>Node3</title>
<g id="a_Node000003"><a xlink:href="class_harlinn_1_1_windows_1_1_graphics_1_1_d3_d11_1_1_d3_d11_device_child.xhtml" target="_top" xlink:title=" ">
<polygon fill="white" stroke="#666666" points="150.5,-162 13.5,-162 13.5,-132 150.5,-132 150.5,-162"/>
<text text-anchor="start" x="21.5" y="-150" font-family="Helvetica,sans-Serif" font-size="10.00">Harlinn::Windows::Graphics</text>
<text text-anchor="middle" x="82" y="-139" font-family="Helvetica,sans-Serif" font-size="10.00">::D3D11::D3D11DeviceChild</text>
</a>
</g>
</g>
<!-- Node3&#45;&gt;Node2 -->
<g id="edge2_Node000002_Node000003" class="edge">
<title>Node3&#45;&gt;Node2</title>
<g id="a_edge2_Node000002_Node000003"><a xlink:title=" ">
<path fill="none" stroke="#63b8ff" d="M82,-120.39C82,-112.13 82,-103.28 82,-96.16"/>
<polygon fill="#63b8ff" stroke="#63b8ff" points="78.5,-120.28 82,-130.28 85.5,-120.28 78.5,-120.28"/>
</a>
</g>
</g>
<!-- Node4 -->
<g id="Node000004" class="node">
<title>Node4</title>
<g id="a_Node000004"><a xlink:href="class_harlinn_1_1_common_1_1_core_1_1_unknown.xhtml" target="_top" xlink:title=" ">
<polygon fill="white" stroke="#666666" points="141,-228 23,-228 23,-198 141,-198 141,-228"/>
<text text-anchor="start" x="31" y="-216" font-family="Helvetica,sans-Serif" font-size="10.00">Harlinn::Common::Core</text>
<text text-anchor="middle" x="82" y="-205" font-family="Helvetica,sans-Serif" font-size="10.00">::Unknown</text>
</a>
</g>
</g>
<!-- Node4&#45;&gt;Node3 -->
<g id="edge3_Node000003_Node000004" class="edge">
<title>Node4&#45;&gt;Node3</title>
<g id="a_edge3_Node000003_Node000004"><a xlink:title=" ">
<path fill="none" stroke="#63b8ff" d="M82,-186.39C82,-178.13 82,-169.28 82,-162.16"/>
<polygon fill="#63b8ff" stroke="#63b8ff" points="78.5,-186.28 82,-196.28 85.5,-186.28 78.5,-186.28"/>
</a>
</g>
</g>
</g>
</svg>
