<?xml version="1.0" encoding="UTF-8" standalone="no"?>
<!DOCTYPE svg PUBLIC "-//W3C//DTD SVG 1.1//EN"
 "http://www.w3.org/Graphics/SVG/1.1/DTD/svg11.dtd">
<!-- Generated by graphviz version 7.0.1 (20221109.1506)
 -->
<!-- Title: Harlinn::Common::Core::WbemProperty Pages: 1 -->
<svg width="381pt" height="358pt"
 viewBox="0.00 0.00 381.00 358.00" xmlns="http://www.w3.org/2000/svg" xmlns:xlink="http://www.w3.org/1999/xlink">
<g id="graph0" class="graph" transform="scale(1 1) rotate(0) translate(4 354)">
<title>Harlinn::Common::Core::WbemProperty</title>
<!-- Node1 -->
<g id="Node000001" class="node">
<title>Node1</title>
<g id="a_Node000001"><a xlink:title=" ">
<polygon fill="#999999" stroke="#666666" points="290,-30 172,-30 172,0 290,0 290,-30"/>
<text text-anchor="start" x="180" y="-18" font-family="Helvetica,sans-Serif" font-size="10.00">Harlinn::Common::Core</text>
<text text-anchor="middle" x="231" y="-7" font-family="Helvetica,sans-Serif" font-size="10.00">::WbemProperty</text>
</a>
</g>
</g>
<!-- Node2 -->
<g id="Node000002" class="node">
<title>Node2</title>
<g id="a_Node000002"><a xlink:title=" ">
<polygon fill="white" stroke="#666666" points="310.5,-118 151.5,-118 151.5,-77 310.5,-77 310.5,-118"/>
<text text-anchor="start" x="159.5" y="-106" font-family="Helvetica,sans-Serif" font-size="10.00">std::unique_ptr&lt; Harlinn</text>
<text text-anchor="start" x="159.5" y="-95" font-family="Helvetica,sans-Serif" font-size="10.00">::Common::Core::WbemProperty</text>
<text text-anchor="middle" x="231" y="-84" font-family="Helvetica,sans-Serif" font-size="10.00">::Data &gt;</text>
</a>
</g>
</g>
<!-- Node2&#45;&gt;Node1 -->
<g id="edge1_Node000001_Node000002" class="edge">
<title>Node2&#45;&gt;Node1</title>
<g id="a_edge1_Node000001_Node000002"><a xlink:title=" ">
<path fill="none" stroke="#9a32cd" stroke-dasharray="5,2" d="M231,-65.14C231,-53.14 231,-40.02 231,-30.37"/>
<polygon fill="#9a32cd" stroke="#9a32cd" points="227.5,-65.09 231,-75.09 234.5,-65.09 227.5,-65.09"/>
</a>
</g>
<text text-anchor="middle" x="245" y="-51" font-family="Helvetica,sans-Serif" font-size="10.00" fill="grey"> data_</text>
</g>
<!-- Node3 -->
<g id="Node000003" class="node">
<title>Node3</title>
<g id="a_Node000003"><a xlink:href="struct_harlinn_1_1_common_1_1_core_1_1_wbem_property_1_1_data.html" target="_top" xlink:title=" ">
<polygon fill="white" stroke="#666666" points="226,-217 108,-217 108,-187 226,-187 226,-217"/>
<text text-anchor="start" x="116" y="-205" font-family="Helvetica,sans-Serif" font-size="10.00">Harlinn::Common::Core</text>
<text text-anchor="middle" x="167" y="-194" font-family="Helvetica,sans-Serif" font-size="10.00">::WbemProperty::Data</text>
</a>
</g>
</g>
<!-- Node3&#45;&gt;Node2 -->
<g id="edge2_Node000002_Node000003" class="edge">
<title>Node3&#45;&gt;Node2</title>
<g id="a_edge2_Node000002_Node000003"><a xlink:title=" ">
<path fill="none" stroke="#9a32cd" stroke-dasharray="5,2" d="M181.96,-177.05C193.12,-159.17 208.19,-135.03 218.67,-118.25"/>
<polygon fill="#9a32cd" stroke="#9a32cd" points="179.03,-175.13 176.7,-185.46 184.97,-178.84 179.03,-175.13"/>
</a>
</g>
<text text-anchor="middle" x="214.5" y="-150" font-family="Helvetica,sans-Serif" font-size="10.00" fill="grey"> ptr</text>
</g>
<!-- Node4 -->
<g id="Node000004" class="node">
<title>Node4</title>
<g id="a_Node000004"><a xlink:href="class_harlinn_1_1_common_1_1_core_1_1_sys_string.html" target="_top" xlink:title=" ">
<polygon fill="white" stroke="#666666" points="118,-294 0,-294 0,-264 118,-264 118,-294"/>
<text text-anchor="start" x="8" y="-282" font-family="Helvetica,sans-Serif" font-size="10.00">Harlinn::Common::Core</text>
<text text-anchor="middle" x="59" y="-271" font-family="Helvetica,sans-Serif" font-size="10.00">::SysString</text>
</a>
</g>
</g>
<!-- Node4&#45;&gt;Node3 -->
<g id="edge3_Node000003_Node000004" class="edge">
<title>Node4&#45;&gt;Node3</title>
<g id="a_edge3_Node000003_Node000004"><a xlink:title=" ">
<path fill="none" stroke="#9a32cd" stroke-dasharray="5,2" d="M89.13,-257.08C107.33,-244.44 130.05,-228.66 146.24,-217.42"/>
<polygon fill="#9a32cd" stroke="#9a32cd" points="87.28,-254.1 81.07,-262.68 91.28,-259.85 87.28,-254.1"/>
</a>
</g>
<text text-anchor="middle" x="136.5" y="-238" font-family="Helvetica,sans-Serif" font-size="10.00" fill="grey"> name_</text>
</g>
<!-- Node5 -->
<g id="Node000005" class="node">
<title>Node5</title>
<g id="a_Node000005"><a xlink:href="class_harlinn_1_1_common_1_1_core_1_1_variant.html" target="_top" xlink:title=" ">
<polygon fill="white" stroke="#666666" points="254,-294 136,-294 136,-264 254,-264 254,-294"/>
<text text-anchor="start" x="144" y="-282" font-family="Helvetica,sans-Serif" font-size="10.00">Harlinn::Common::Core</text>
<text text-anchor="middle" x="195" y="-271" font-family="Helvetica,sans-Serif" font-size="10.00">::Variant</text>
</a>
</g>
</g>
<!-- Node5&#45;&gt;Node3 -->
<g id="edge4_Node000003_Node000005" class="edge">
<title>Node5&#45;&gt;Node3</title>
<g id="a_edge4_Node000003_Node000005"><a xlink:title=" ">
<path fill="none" stroke="#9a32cd" stroke-dasharray="5,2" d="M185.65,-252.96C181.24,-241.15 176.14,-227.47 172.38,-217.42"/>
<polygon fill="#9a32cd" stroke="#9a32cd" points="182.3,-253.98 189.07,-262.12 188.85,-251.53 182.3,-253.98"/>
</a>
</g>
<text text-anchor="middle" x="198.5" y="-238" font-family="Helvetica,sans-Serif" font-size="10.00" fill="grey"> value_</text>
</g>
<!-- Node6 -->
<g id="Node000006" class="node">
<title>Node6</title>
<g id="a_Node000006"><a xlink:title=" ">
<polygon fill="white" stroke="#666666" points="224,-350 166,-350 166,-331 224,-331 224,-350"/>
<text text-anchor="middle" x="195" y="-338" font-family="Helvetica,sans-Serif" font-size="10.00">VARIANT</text>
</a>
</g>
</g>
<!-- Node6&#45;&gt;Node5 -->
<g id="edge5_Node000005_Node000006" class="edge">
<title>Node6&#45;&gt;Node5</title>
<g id="a_edge5_Node000005_Node000006"><a xlink:title=" ">
<path fill="none" stroke="#63b8ff" d="M195,-319.46C195,-311.23 195,-301.89 195,-294.36"/>
<polygon fill="#63b8ff" stroke="#63b8ff" points="191.5,-319.21 195,-329.21 198.5,-319.21 191.5,-319.21"/>
</a>
</g>
</g>
<!-- Node7 -->
<g id="Node000007" class="node">
<title>Node7</title>
<g id="a_Node000007"><a xlink:title=" ">
<polygon fill="white" stroke="#666666" points="348,-211.5 244,-211.5 244,-192.5 348,-192.5 348,-211.5"/>
<text text-anchor="middle" x="296" y="-199.5" font-family="Helvetica,sans-Serif" font-size="10.00">std::unique_ptr&lt; T &gt;</text>
</a>
</g>
</g>
<!-- Node7&#45;&gt;Node2 -->
<g id="edge6_Node000002_Node000007" class="edge">
<title>Node7&#45;&gt;Node2</title>
<g id="a_edge6_Node000002_Node000007"><a xlink:title=" ">
<path fill="none" stroke="orange" stroke-dasharray="5,2" d="M284.33,-182.6C272.86,-164.5 255.38,-136.95 243.59,-118.35"/>
<polygon fill="orange" stroke="orange" points="281.34,-184.41 289.65,-190.98 287.25,-180.66 281.34,-184.41"/>
</a>
</g>
<text text-anchor="start" x="275" y="-161" font-family="Helvetica,sans-Serif" font-size="10.00" fill="grey"> &lt; Harlinn::Common::</text>
<text text-anchor="start" x="275" y="-150" font-family="Helvetica,sans-Serif" font-size="10.00" fill="grey">Core::WbemProperty::</text>
<text text-anchor="middle" x="324" y="-139" font-family="Helvetica,sans-Serif" font-size="10.00" fill="grey">Data &gt;</text>
</g>
<!-- Node8 -->
<g id="Node000008" class="node">
<title>Node8</title>
<g id="a_Node000008"><a xlink:title=" ">
<polygon fill="white" stroke="#666666" points="310.5,-288.5 281.5,-288.5 281.5,-269.5 310.5,-269.5 310.5,-288.5"/>
<text text-anchor="middle" x="296" y="-276.5" font-family="Helvetica,sans-Serif" font-size="10.00">T</text>
</a>
</g>
</g>
<!-- Node8&#45;&gt;Node7 -->
<g id="edge7_Node000007_Node000008" class="edge">
<title>Node8&#45;&gt;Node7</title>
<g id="a_edge7_Node000007_Node000008"><a xlink:title=" ">
<path fill="none" stroke="#9a32cd" stroke-dasharray="5,2" d="M296,-257.92C296,-242.93 296,-223.16 296,-211.89"/>
<polygon fill="#9a32cd" stroke="#9a32cd" points="292.5,-257.59 296,-267.59 299.5,-257.59 292.5,-257.59"/>
</a>
</g>
<text text-anchor="middle" x="303.5" y="-238" font-family="Helvetica,sans-Serif" font-size="10.00" fill="grey"> ptr</text>
</g>
</g>
</svg>
