<?xml version="1.0" encoding="UTF-8" standalone="no"?>
<!DOCTYPE svg PUBLIC "-//W3C//DTD SVG 1.1//EN"
 "http://www.w3.org/Graphics/SVG/1.1/DTD/svg11.dtd">
<!-- Generated by graphviz version 7.0.1 (20221109.1506)
 -->
<!-- Title: Harlinn::Common::Core::Security::AccessMask Pages: 1 -->
<svg width="892pt" height="907pt"
 viewBox="0.00 0.00 892.00 906.84" xmlns="http://www.w3.org/2000/svg" xmlns:xlink="http://www.w3.org/1999/xlink">
<g id="graph0" class="graph" transform="scale(1 1) rotate(0) translate(4 902.84)">
<title>Harlinn::Common::Core::Security::AccessMask</title>
<!-- Node1 -->
<g id="Node000001" class="node">
<title>Node1</title>
<g id="a_Node000001"><a xlink:title="An ACCESS_MASK wrapper class. The ACCESS_MASK data type is a DWORD value that defines standard,...">
<polygon fill="#999999" stroke="#666666" points="122,-472.34 0,-472.34 0,-442.34 122,-442.34 122,-472.34"/>
<text text-anchor="start" x="8" y="-460.34" font-family="Helvetica,sans-Serif" font-size="10.00">Harlinn::Common::Core</text>
<text text-anchor="middle" x="61" y="-449.34" font-family="Helvetica,sans-Serif" font-size="10.00">::Security::AccessMask</text>
</a>
</g>
</g>
<!-- Node2 -->
<g id="Node000002" class="node">
<title>Node2</title>
<g id="a_Node000002"><a xlink:href="class_harlinn_1_1_common_1_1_core_1_1_security_1_1_access_mask_t.html" target="_top" xlink:title=" ">
<polygon fill="white" stroke="#666666" points="663.5,-684.34 503.5,-684.34 503.5,-632.34 663.5,-632.34 663.5,-684.34"/>
<text text-anchor="start" x="511.5" y="-672.34" font-family="Helvetica,sans-Serif" font-size="10.00">Harlinn::Common::Core</text>
<text text-anchor="start" x="511.5" y="-661.34" font-family="Helvetica,sans-Serif" font-size="10.00">::Security::AccessMaskT</text>
<text text-anchor="start" x="511.5" y="-650.34" font-family="Helvetica,sans-Serif" font-size="10.00">&lt; EventWaitHandleAccessMask,</text>
<text text-anchor="middle" x="583.5" y="-639.34" font-family="Helvetica,sans-Serif" font-size="10.00"> EventWaitHandleRights &gt;</text>
</a>
</g>
</g>
<!-- Node1&#45;&gt;Node2 -->
<g id="edge1_Node000001_Node000002" class="edge">
<title>Node1&#45;&gt;Node2</title>
<g id="a_edge1_Node000001_Node000002"><a xlink:title=" ">
<path fill="none" stroke="#63b8ff" d="M76.02,-482.14C93.09,-510.9 124,-558.65 159,-592.34 214.69,-645.94 229.99,-666.06 304,-688.34 369.31,-708 446.65,-697.11 503.23,-683.25"/>
<polygon fill="#63b8ff" stroke="#63b8ff" points="79.2,-480.65 71.14,-473.78 73.16,-484.18 79.2,-480.65"/>
</a>
</g>
</g>
<!-- Node4 -->
<g id="Node000004" class="node">
<title>Node4</title>
<g id="a_Node000004"><a xlink:href="class_harlinn_1_1_common_1_1_core_1_1_security_1_1_access_mask_t.html" target="_top" xlink:title=" ">
<polygon fill="white" stroke="#666666" points="647.5,-837.34 519.5,-837.34 519.5,-785.34 647.5,-785.34 647.5,-837.34"/>
<text text-anchor="start" x="527.5" y="-825.34" font-family="Helvetica,sans-Serif" font-size="10.00">Harlinn::Common::Core</text>
<text text-anchor="start" x="527.5" y="-814.34" font-family="Helvetica,sans-Serif" font-size="10.00">::Security::AccessMaskT</text>
<text text-anchor="start" x="527.5" y="-803.34" font-family="Helvetica,sans-Serif" font-size="10.00">&lt; DirectoryAccessMask,</text>
<text text-anchor="middle" x="583.5" y="-792.34" font-family="Helvetica,sans-Serif" font-size="10.00"> DirectoryAccessRights &gt;</text>
</a>
</g>
</g>
<!-- Node1&#45;&gt;Node4 -->
<g id="edge3_Node000001_Node000004" class="edge">
<title>Node1&#45;&gt;Node4</title>
<g id="a_edge3_Node000001_Node000004"><a xlink:title=" ">
<path fill="none" stroke="#63b8ff" d="M66.99,-483.97C77.29,-533.49 104.63,-641.43 159,-715.34 207.41,-781.15 226.73,-801.79 304,-828.34 374.78,-852.66 461.56,-841.43 519.25,-828.71"/>
<polygon fill="#63b8ff" stroke="#63b8ff" points="70.42,-483.3 65.03,-474.18 63.56,-484.67 70.42,-483.3"/>
</a>
</g>
</g>
<!-- Node6 -->
<g id="Node000006" class="node">
<title>Node6</title>
<g id="a_Node000006"><a xlink:href="class_harlinn_1_1_common_1_1_core_1_1_security_1_1_access_mask_t.html" target="_top" xlink:title=" ">
<polygon fill="white" stroke="#666666" points="678.5,-898.84 488.5,-898.84 488.5,-857.84 678.5,-857.84 678.5,-898.84"/>
<text text-anchor="start" x="496.5" y="-886.84" font-family="Helvetica,sans-Serif" font-size="10.00">Harlinn::Common::Core</text>
<text text-anchor="start" x="496.5" y="-875.84" font-family="Helvetica,sans-Serif" font-size="10.00">::Security::AccessMaskT</text>
<text text-anchor="middle" x="583.5" y="-864.84" font-family="Helvetica,sans-Serif" font-size="10.00">&lt; FileAccessMask, FileAccessRights &gt;</text>
</a>
</g>
</g>
<!-- Node1&#45;&gt;Node6 -->
<g id="edge5_Node000001_Node000006" class="edge">
<title>Node1&#45;&gt;Node6</title>
<g id="a_edge5_Node000001_Node000006"><a xlink:title=" ">
<path fill="none" stroke="#63b8ff" d="M62.79,-483.8C65.95,-544.04 81.62,-693.04 159,-782.34 239.72,-875.49 390.08,-888.82 488.2,-886.28"/>
<polygon fill="#63b8ff" stroke="#63b8ff" points="66.3,-484.02 62.37,-474.18 59.31,-484.32 66.3,-484.02"/>
</a>
</g>
</g>
<!-- Node8 -->
<g id="Node000008" class="node">
<title>Node8</title>
<g id="a_Node000008"><a xlink:href="class_harlinn_1_1_common_1_1_core_1_1_security_1_1_access_mask_t.html" target="_top" xlink:title=" ">
<polygon fill="white" stroke="#666666" points="682,-501.84 485,-501.84 485,-460.84 682,-460.84 682,-501.84"/>
<text text-anchor="start" x="493" y="-489.84" font-family="Helvetica,sans-Serif" font-size="10.00">Harlinn::Common::Core</text>
<text text-anchor="start" x="493" y="-478.84" font-family="Helvetica,sans-Serif" font-size="10.00">::Security::AccessMaskT</text>
<text text-anchor="middle" x="583.5" y="-467.84" font-family="Helvetica,sans-Serif" font-size="10.00">&lt; PipeAccessMask, PipeAccessRights &gt;</text>
</a>
</g>
</g>
<!-- Node1&#45;&gt;Node8 -->
<g id="edge7_Node000001_Node000008" class="edge">
<title>Node1&#45;&gt;Node8</title>
<g id="a_edge7_Node000001_Node000008"><a xlink:title=" ">
<path fill="none" stroke="#63b8ff" d="M99.63,-477.99C171.49,-514.74 333.02,-584.39 467,-548.34 500.13,-539.43 533.56,-518.43 555.86,-502.29"/>
<polygon fill="#63b8ff" stroke="#63b8ff" points="101.52,-475.03 91.04,-473.53 98.3,-481.24 101.52,-475.03"/>
</a>
</g>
</g>
<!-- Node10 -->
<g id="Node000010" class="node">
<title>Node10</title>
<g id="a_Node000010"><a xlink:href="class_harlinn_1_1_common_1_1_core_1_1_security_1_1_access_mask_t.html" target="_top" xlink:title=" ">
<polygon fill="white" stroke="#666666" points="673,-595.84 494,-595.84 494,-554.84 673,-554.84 673,-595.84"/>
<text text-anchor="start" x="502" y="-583.84" font-family="Helvetica,sans-Serif" font-size="10.00">Harlinn::Common::Core</text>
<text text-anchor="start" x="502" y="-572.84" font-family="Helvetica,sans-Serif" font-size="10.00">::Security::AccessMaskT</text>
<text text-anchor="middle" x="583.5" y="-561.84" font-family="Helvetica,sans-Serif" font-size="10.00">&lt; MutexAccessMask, MutexRights &gt;</text>
</a>
</g>
</g>
<!-- Node1&#45;&gt;Node10 -->
<g id="edge9_Node000001_Node000010" class="edge">
<title>Node1&#45;&gt;Node10</title>
<g id="a_edge9_Node000001_Node000010"><a xlink:title=" ">
<path fill="none" stroke="#63b8ff" d="M84.87,-480.6C124.9,-519.29 212.2,-594.96 304,-618.34 374.2,-636.22 395.7,-631.18 467,-618.34 491.11,-614 516.76,-604.94 537.75,-596.25"/>
<polygon fill="#63b8ff" stroke="#63b8ff" points="87.5,-478.28 77.92,-473.77 82.6,-483.27 87.5,-478.28"/>
</a>
</g>
</g>
<!-- Node12 -->
<g id="Node000012" class="node">
<title>Node12</title>
<g id="a_Node000012"><a xlink:href="class_harlinn_1_1_common_1_1_core_1_1_security_1_1_access_mask_t.html" target="_top" xlink:title=" ">
<polygon fill="white" stroke="#666666" points="680.5,-763.34 486.5,-763.34 486.5,-711.34 680.5,-711.34 680.5,-763.34"/>
<text text-anchor="start" x="494.5" y="-751.34" font-family="Helvetica,sans-Serif" font-size="10.00">Harlinn::Common::Core</text>
<text text-anchor="start" x="494.5" y="-740.34" font-family="Helvetica,sans-Serif" font-size="10.00">::Security::AccessMaskT</text>
<text text-anchor="start" x="494.5" y="-729.34" font-family="Helvetica,sans-Serif" font-size="10.00">&lt; ProcessAccessMask, ProcessAccess</text>
<text text-anchor="middle" x="583.5" y="-718.34" font-family="Helvetica,sans-Serif" font-size="10.00">Rights &gt;</text>
</a>
</g>
</g>
<!-- Node1&#45;&gt;Node12 -->
<g id="edge11_Node000001_Node000012" class="edge">
<title>Node1&#45;&gt;Node12</title>
<g id="a_edge11_Node000001_Node000012"><a xlink:title=" ">
<path fill="none" stroke="#63b8ff" d="M70.55,-483.39C84.44,-522.89 114.86,-598.87 159,-651.34 210.56,-712.63 227.92,-733.31 304,-758.34 362.49,-777.59 431.49,-772.57 486.18,-762.62"/>
<polygon fill="#63b8ff" stroke="#63b8ff" points="73.89,-482.35 67.34,-474.03 67.27,-484.62 73.89,-482.35"/>
</a>
</g>
</g>
<!-- Node14 -->
<g id="Node000014" class="node">
<title>Node14</title>
<g id="a_Node000014"><a xlink:href="class_harlinn_1_1_common_1_1_core_1_1_security_1_1_access_mask_t.html" target="_top" xlink:title=" ">
<polygon fill="white" stroke="#666666" points="670.5,-56.34 496.5,-56.34 496.5,-4.34 670.5,-4.34 670.5,-56.34"/>
<text text-anchor="start" x="504.5" y="-44.34" font-family="Helvetica,sans-Serif" font-size="10.00">Harlinn::Common::Core</text>
<text text-anchor="start" x="504.5" y="-33.34" font-family="Helvetica,sans-Serif" font-size="10.00">::Security::AccessMaskT</text>
<text text-anchor="start" x="504.5" y="-22.34" font-family="Helvetica,sans-Serif" font-size="10.00">&lt; TokenAccessMask, TokenAccess</text>
<text text-anchor="middle" x="583.5" y="-11.34" font-family="Helvetica,sans-Serif" font-size="10.00">Rights &gt;</text>
</a>
</g>
</g>
<!-- Node1&#45;&gt;Node14 -->
<g id="edge13_Node000001_Node000014" class="edge">
<title>Node1&#45;&gt;Node14</title>
<g id="a_edge13_Node000001_Node000014"><a xlink:title=" ">
<path fill="none" stroke="#63b8ff" d="M64.58,-430.98C73,-350.98 102.39,-113.54 159,-65.34 252.1,13.93 402.18,5.23 496.42,-10.76"/>
<polygon fill="#63b8ff" stroke="#63b8ff" points="61.15,-430.19 63.61,-440.5 68.11,-430.91 61.15,-430.19"/>
</a>
</g>
</g>
<!-- Node16 -->
<g id="Node000016" class="node">
<title>Node16</title>
<g id="a_Node000016"><a xlink:href="class_harlinn_1_1_common_1_1_core_1_1_security_1_1_access_mask_t.html" target="_top" xlink:title=" ">
<polygon fill="white" stroke="#666666" points="651,-298.34 516,-298.34 516,-246.34 651,-246.34 651,-298.34"/>
<text text-anchor="start" x="524" y="-286.34" font-family="Helvetica,sans-Serif" font-size="10.00">Harlinn::Common::Core</text>
<text text-anchor="start" x="524" y="-275.34" font-family="Helvetica,sans-Serif" font-size="10.00">::Security::AccessMaskT</text>
<text text-anchor="start" x="524" y="-264.34" font-family="Helvetica,sans-Serif" font-size="10.00">&lt; SemaphoreAccessMask,</text>
<text text-anchor="middle" x="583.5" y="-253.34" font-family="Helvetica,sans-Serif" font-size="10.00"> SemaphoreRights &gt;</text>
</a>
</g>
</g>
<!-- Node1&#45;&gt;Node16 -->
<g id="edge15_Node000001_Node000016" class="edge">
<title>Node1&#45;&gt;Node16</title>
<g id="a_edge15_Node000001_Node000016"><a xlink:title=" ">
<path fill="none" stroke="#63b8ff" d="M72.54,-431.89C87.49,-398.44 117.69,-339.57 159,-302.34 212.3,-254.3 234.1,-247.54 304,-231.34 374.58,-214.99 395.61,-219.04 467,-231.34 484.72,-234.39 503.32,-239.9 520.3,-245.9"/>
<polygon fill="#63b8ff" stroke="#63b8ff" points="69.45,-430.24 68.67,-440.8 75.86,-433.03 69.45,-430.24"/>
</a>
</g>
</g>
<!-- Node18 -->
<g id="Node000018" class="node">
<title>Node18</title>
<g id="a_Node000018"><a xlink:href="class_harlinn_1_1_common_1_1_core_1_1_security_1_1_access_mask_t.html" target="_top" xlink:title=" ">
<polygon fill="white" stroke="#666666" points="676,-370.34 491,-370.34 491,-318.34 676,-318.34 676,-370.34"/>
<text text-anchor="start" x="499" y="-358.34" font-family="Helvetica,sans-Serif" font-size="10.00">Harlinn::Common::Core</text>
<text text-anchor="start" x="499" y="-347.34" font-family="Helvetica,sans-Serif" font-size="10.00">::Security::AccessMaskT</text>
<text text-anchor="start" x="499" y="-336.34" font-family="Helvetica,sans-Serif" font-size="10.00">&lt; ServiceAccessMask, ServiceAccess</text>
<text text-anchor="middle" x="583.5" y="-325.34" font-family="Helvetica,sans-Serif" font-size="10.00">Rights &gt;</text>
</a>
</g>
</g>
<!-- Node1&#45;&gt;Node18 -->
<g id="edge17_Node000001_Node000018" class="edge">
<title>Node1&#45;&gt;Node18</title>
<g id="a_edge17_Node000001_Node000018"><a xlink:title=" ">
<path fill="none" stroke="#63b8ff" d="M84.64,-433.98C103.41,-415.46 131.39,-389.73 159,-371.34 218.56,-331.67 234.24,-317.3 304,-301.34 374.62,-285.19 395.7,-288.5 467,-301.34 469.79,-301.84 490.07,-309.3 512.88,-317.87"/>
<polygon fill="#63b8ff" stroke="#63b8ff" points="82.37,-431.31 77.77,-440.85 87.32,-436.25 82.37,-431.31"/>
</a>
</g>
</g>
<!-- Node20 -->
<g id="Node000020" class="node">
<title>Node20</title>
<g id="a_Node000020"><a xlink:href="class_harlinn_1_1_common_1_1_core_1_1_security_1_1_access_mask_t.html" target="_top" xlink:title=" ">
<polygon fill="white" stroke="#666666" points="678,-144.34 489,-144.34 489,-92.34 678,-92.34 678,-144.34"/>
<text text-anchor="start" x="497" y="-132.34" font-family="Helvetica,sans-Serif" font-size="10.00">Harlinn::Common::Core</text>
<text text-anchor="start" x="497" y="-121.34" font-family="Helvetica,sans-Serif" font-size="10.00">::Security::AccessMaskT</text>
<text text-anchor="start" x="497" y="-110.34" font-family="Helvetica,sans-Serif" font-size="10.00">&lt; ServiceControlManagerAccessMask,</text>
<text text-anchor="middle" x="583.5" y="-99.34" font-family="Helvetica,sans-Serif" font-size="10.00"> ServiceControlManagerAccessRights &gt;</text>
</a>
</g>
</g>
<!-- Node1&#45;&gt;Node20 -->
<g id="edge19_Node000001_Node000020" class="edge">
<title>Node1&#45;&gt;Node20</title>
<g id="a_edge19_Node000001_Node000020"><a xlink:title=" ">
<path fill="none" stroke="#63b8ff" d="M63.56,-430.59C68.25,-372.88 86.81,-235.12 159,-151.34 250.7,-44.92 328.29,-58.11 467,-80.34 482.53,-82.83 498.8,-87.09 514.07,-91.87"/>
<polygon fill="#63b8ff" stroke="#63b8ff" points="60.08,-430.21 62.84,-440.44 67.06,-430.72 60.08,-430.21"/>
</a>
</g>
</g>
<!-- Node22 -->
<g id="Node000022" class="node">
<title>Node22</title>
<g id="a_Node000022"><a xlink:href="class_harlinn_1_1_common_1_1_core_1_1_security_1_1_access_mask_t.html" target="_top" xlink:title=" ">
<polygon fill="white" stroke="#666666" points="673.5,-223.34 493.5,-223.34 493.5,-171.34 673.5,-171.34 673.5,-223.34"/>
<text text-anchor="start" x="501.5" y="-211.34" font-family="Helvetica,sans-Serif" font-size="10.00">Harlinn::Common::Core</text>
<text text-anchor="start" x="501.5" y="-200.34" font-family="Helvetica,sans-Serif" font-size="10.00">::Security::AccessMaskT</text>
<text text-anchor="start" x="501.5" y="-189.34" font-family="Helvetica,sans-Serif" font-size="10.00">&lt; ThreadAccessMask, ThreadAccess</text>
<text text-anchor="middle" x="583.5" y="-178.34" font-family="Helvetica,sans-Serif" font-size="10.00">Rights &gt;</text>
</a>
</g>
</g>
<!-- Node1&#45;&gt;Node22 -->
<g id="edge21_Node000001_Node000022" class="edge">
<title>Node1&#45;&gt;Node22</title>
<g id="a_edge21_Node000001_Node000022"><a xlink:title=" ">
<path fill="none" stroke="#63b8ff" d="M67.55,-430.92C78.24,-385.54 105.51,-291.92 159,-232.34 208.46,-177.25 232.4,-169.18 304,-150.34 374.06,-131.9 395.9,-136.43 467,-150.34 488.25,-154.5 510.52,-162.58 529.77,-170.88"/>
<polygon fill="#63b8ff" stroke="#63b8ff" points="64.14,-430.12 65.35,-440.64 70.97,-431.66 64.14,-430.12"/>
</a>
</g>
</g>
<!-- Node24 -->
<g id="Node000024" class="node">
<title>Node24</title>
<g id="a_Node000024"><a xlink:href="class_harlinn_1_1_common_1_1_core_1_1_security_1_1_access_mask_t.html" target="_top" xlink:title=" ">
<polygon fill="white" stroke="#666666" points="657.5,-441.34 509.5,-441.34 509.5,-389.34 657.5,-389.34 657.5,-441.34"/>
<text text-anchor="start" x="517.5" y="-429.34" font-family="Helvetica,sans-Serif" font-size="10.00">Harlinn::Common::Core</text>
<text text-anchor="start" x="517.5" y="-418.34" font-family="Helvetica,sans-Serif" font-size="10.00">::Security::AccessMaskT</text>
<text text-anchor="start" x="517.5" y="-407.34" font-family="Helvetica,sans-Serif" font-size="10.00">&lt; WaitableTimerAccessMask,</text>
<text text-anchor="middle" x="583.5" y="-396.34" font-family="Helvetica,sans-Serif" font-size="10.00"> WaitableTimerRights &gt;</text>
</a>
</g>
</g>
<!-- Node1&#45;&gt;Node24 -->
<g id="edge23_Node000001_Node000024" class="edge">
<title>Node1&#45;&gt;Node24</title>
<g id="a_edge23_Node000001_Node000024"><a xlink:title=" ">
<path fill="none" stroke="#63b8ff" d="M104.4,-437.26C151.79,-416.01 231.44,-383.85 304,-371.34 375.39,-359.03 396.13,-356.3 467,-371.34 475.56,-373.16 476.89,-376.04 485,-379.34 492.86,-382.53 501.12,-385.77 509.36,-388.92"/>
<polygon fill="#63b8ff" stroke="#63b8ff" points="102.96,-434.06 95.3,-441.38 105.86,-440.44 102.96,-434.06"/>
</a>
</g>
</g>
<!-- Node26 -->
<g id="Node000026" class="node">
<title>Node26</title>
<g id="a_Node000026"><a xlink:href="class_harlinn_1_1_common_1_1_core_1_1_security_1_1_access_mask_t.html" target="_top" xlink:title=" ">
<polygon fill="white" stroke="#666666" points="286,-477.84 159,-477.84 159,-436.84 286,-436.84 286,-477.84"/>
<text text-anchor="start" x="167" y="-465.84" font-family="Helvetica,sans-Serif" font-size="10.00">Harlinn::Common::Core</text>
<text text-anchor="start" x="167" y="-454.84" font-family="Helvetica,sans-Serif" font-size="10.00">::Security::AccessMaskT</text>
<text text-anchor="middle" x="222.5" y="-443.84" font-family="Helvetica,sans-Serif" font-size="10.00">&lt; DerivedT, RightsT &gt;</text>
</a>
</g>
</g>
<!-- Node1&#45;&gt;Node26 -->
<g id="edge25_Node000001_Node000026" class="edge">
<title>Node1&#45;&gt;Node26</title>
<g id="a_edge25_Node000001_Node000026"><a xlink:title=" ">
<path fill="none" stroke="#63b8ff" d="M133.61,-457.34C141.99,-457.34 150.48,-457.34 158.72,-457.34"/>
<polygon fill="#63b8ff" stroke="#63b8ff" points="133.81,-453.84 123.81,-457.34 133.81,-460.84 133.81,-453.84"/>
</a>
</g>
</g>
<!-- Node3 -->
<g id="Node000003" class="node">
<title>Node3</title>
<g id="a_Node000003"><a xlink:href="class_harlinn_1_1_common_1_1_core_1_1_event_wait_handle_access_mask.html" target="_top" xlink:title=" ">
<polygon fill="white" stroke="#666666" points="878.5,-673.34 724.5,-673.34 724.5,-643.34 878.5,-643.34 878.5,-673.34"/>
<text text-anchor="start" x="732.5" y="-661.34" font-family="Helvetica,sans-Serif" font-size="10.00">Harlinn::Common::Core</text>
<text text-anchor="middle" x="801.5" y="-650.34" font-family="Helvetica,sans-Serif" font-size="10.00">::EventWaitHandleAccessMask</text>
</a>
</g>
</g>
<!-- Node2&#45;&gt;Node3 -->
<g id="edge2_Node000002_Node000003" class="edge">
<title>Node2&#45;&gt;Node3</title>
<g id="a_edge2_Node000002_Node000003"><a xlink:title=" ">
<path fill="none" stroke="#63b8ff" d="M674.94,-658.34C691.32,-658.34 708.26,-658.34 724.19,-658.34"/>
<polygon fill="#63b8ff" stroke="#63b8ff" points="675.22,-654.84 665.22,-658.34 675.22,-661.84 675.22,-654.84"/>
</a>
</g>
</g>
<!-- Node5 -->
<g id="Node000005" class="node">
<title>Node5</title>
<g id="a_Node000005"><a xlink:href="class_harlinn_1_1_common_1_1_core_1_1_i_o_1_1_directory_access_mask.html" target="_top" xlink:title="The access mask for a directory.">
<polygon fill="white" stroke="#666666" points="868.5,-826.34 734.5,-826.34 734.5,-796.34 868.5,-796.34 868.5,-826.34"/>
<text text-anchor="start" x="742.5" y="-814.34" font-family="Helvetica,sans-Serif" font-size="10.00">Harlinn::Common::Core</text>
<text text-anchor="middle" x="801.5" y="-803.34" font-family="Helvetica,sans-Serif" font-size="10.00">::IO::DirectoryAccessMask</text>
</a>
</g>
</g>
<!-- Node4&#45;&gt;Node5 -->
<g id="edge4_Node000004_Node000005" class="edge">
<title>Node4&#45;&gt;Node5</title>
<g id="a_edge4_Node000004_Node000005"><a xlink:title=" ">
<path fill="none" stroke="#63b8ff" d="M659.21,-811.34C683.57,-811.34 710.44,-811.34 734.15,-811.34"/>
<polygon fill="#63b8ff" stroke="#63b8ff" points="659.36,-807.84 649.36,-811.34 659.36,-814.84 659.36,-807.84"/>
</a>
</g>
</g>
<!-- Node7 -->
<g id="Node000007" class="node">
<title>Node7</title>
<g id="a_Node000007"><a xlink:href="class_harlinn_1_1_common_1_1_core_1_1_i_o_1_1_file_access_mask.html" target="_top" xlink:title="The access mask for a file.">
<polygon fill="white" stroke="#666666" points="860.5,-893.34 742.5,-893.34 742.5,-863.34 860.5,-863.34 860.5,-893.34"/>
<text text-anchor="start" x="750.5" y="-881.34" font-family="Helvetica,sans-Serif" font-size="10.00">Harlinn::Common::Core</text>
<text text-anchor="middle" x="801.5" y="-870.34" font-family="Helvetica,sans-Serif" font-size="10.00">::IO::FileAccessMask</text>
</a>
</g>
</g>
<!-- Node6&#45;&gt;Node7 -->
<g id="edge6_Node000006_Node000007" class="edge">
<title>Node6&#45;&gt;Node7</title>
<g id="a_edge6_Node000006_Node000007"><a xlink:title=" ">
<path fill="none" stroke="#63b8ff" d="M690.29,-878.34C708.1,-878.34 725.98,-878.34 742.01,-878.34"/>
<polygon fill="#63b8ff" stroke="#63b8ff" points="690.44,-874.84 680.44,-878.34 690.44,-881.84 690.44,-874.84"/>
</a>
</g>
</g>
<!-- Node9 -->
<g id="Node000009" class="node">
<title>Node9</title>
<g id="a_Node000009"><a xlink:href="class_harlinn_1_1_common_1_1_core_1_1_i_o_1_1_pipe_access_mask.html" target="_top" xlink:title=" ">
<polygon fill="white" stroke="#666666" points="860.5,-496.34 742.5,-496.34 742.5,-466.34 860.5,-466.34 860.5,-496.34"/>
<text text-anchor="start" x="750.5" y="-484.34" font-family="Helvetica,sans-Serif" font-size="10.00">Harlinn::Common::Core</text>
<text text-anchor="middle" x="801.5" y="-473.34" font-family="Helvetica,sans-Serif" font-size="10.00">::IO::PipeAccessMask</text>
</a>
</g>
</g>
<!-- Node8&#45;&gt;Node9 -->
<g id="edge8_Node000008_Node000009" class="edge">
<title>Node8&#45;&gt;Node9</title>
<g id="a_edge8_Node000008_Node000009"><a xlink:title=" ">
<path fill="none" stroke="#63b8ff" d="M693.43,-481.34C710.25,-481.34 727.04,-481.34 742.17,-481.34"/>
<polygon fill="#63b8ff" stroke="#63b8ff" points="693.9,-477.84 683.9,-481.34 693.9,-484.84 693.9,-477.84"/>
</a>
</g>
</g>
<!-- Node11 -->
<g id="Node000011" class="node">
<title>Node11</title>
<g id="a_Node000011"><a xlink:href="class_harlinn_1_1_common_1_1_core_1_1_mutex_access_mask.html" target="_top" xlink:title=" ">
<polygon fill="white" stroke="#666666" points="860.5,-590.34 742.5,-590.34 742.5,-560.34 860.5,-560.34 860.5,-590.34"/>
<text text-anchor="start" x="750.5" y="-578.34" font-family="Helvetica,sans-Serif" font-size="10.00">Harlinn::Common::Core</text>
<text text-anchor="middle" x="801.5" y="-567.34" font-family="Helvetica,sans-Serif" font-size="10.00">::MutexAccessMask</text>
</a>
</g>
</g>
<!-- Node10&#45;&gt;Node11 -->
<g id="edge10_Node000010_Node000011" class="edge">
<title>Node10&#45;&gt;Node11</title>
<g id="a_edge10_Node000010_Node000011"><a xlink:title=" ">
<path fill="none" stroke="#63b8ff" d="M684.55,-575.34C704.33,-575.34 724.46,-575.34 742.28,-575.34"/>
<polygon fill="#63b8ff" stroke="#63b8ff" points="684.8,-571.84 674.8,-575.34 684.8,-578.84 684.8,-571.84"/>
</a>
</g>
</g>
<!-- Node13 -->
<g id="Node000013" class="node">
<title>Node13</title>
<g id="a_Node000013"><a xlink:href="class_harlinn_1_1_common_1_1_core_1_1_process_access_mask.html" target="_top" xlink:title=" ">
<polygon fill="white" stroke="#666666" points="860.5,-752.34 742.5,-752.34 742.5,-722.34 860.5,-722.34 860.5,-752.34"/>
<text text-anchor="start" x="750.5" y="-740.34" font-family="Helvetica,sans-Serif" font-size="10.00">Harlinn::Common::Core</text>
<text text-anchor="middle" x="801.5" y="-729.34" font-family="Helvetica,sans-Serif" font-size="10.00">::ProcessAccessMask</text>
</a>
</g>
</g>
<!-- Node12&#45;&gt;Node13 -->
<g id="edge12_Node000012_Node000013" class="edge">
<title>Node12&#45;&gt;Node13</title>
<g id="a_edge12_Node000012_Node000013"><a xlink:title=" ">
<path fill="none" stroke="#63b8ff" d="M692.13,-737.34C709.39,-737.34 726.65,-737.34 742.17,-737.34"/>
<polygon fill="#63b8ff" stroke="#63b8ff" points="692.33,-733.84 682.33,-737.34 692.33,-740.84 692.33,-733.84"/>
</a>
</g>
</g>
<!-- Node15 -->
<g id="Node000015" class="node">
<title>Node15</title>
<g id="a_Node000015"><a xlink:href="class_harlinn_1_1_common_1_1_core_1_1_security_1_1_token_access_mask.html" target="_top" xlink:title="An access mask implmentation for the access rights of a Windows access token.">
<polygon fill="white" stroke="#666666" points="875.5,-45.34 727.5,-45.34 727.5,-15.34 875.5,-15.34 875.5,-45.34"/>
<text text-anchor="start" x="735.5" y="-33.34" font-family="Helvetica,sans-Serif" font-size="10.00">Harlinn::Common::Core</text>
<text text-anchor="middle" x="801.5" y="-22.34" font-family="Helvetica,sans-Serif" font-size="10.00">::Security::TokenAccessMask</text>
</a>
</g>
</g>
<!-- Node14&#45;&gt;Node15 -->
<g id="edge14_Node000014_Node000015" class="edge">
<title>Node14&#45;&gt;Node15</title>
<g id="a_edge14_Node000014_Node000015"><a xlink:title=" ">
<path fill="none" stroke="#63b8ff" d="M682.28,-30.34C697.38,-30.34 712.75,-30.34 727.2,-30.34"/>
<polygon fill="#63b8ff" stroke="#63b8ff" points="682.31,-26.84 672.31,-30.34 682.31,-33.84 682.31,-26.84"/>
</a>
</g>
</g>
<!-- Node17 -->
<g id="Node000017" class="node">
<title>Node17</title>
<g id="a_Node000017"><a xlink:href="class_harlinn_1_1_common_1_1_core_1_1_semaphore_access_mask.html" target="_top" xlink:title=" ">
<polygon fill="white" stroke="#666666" points="866,-287.34 737,-287.34 737,-257.34 866,-257.34 866,-287.34"/>
<text text-anchor="start" x="745" y="-275.34" font-family="Helvetica,sans-Serif" font-size="10.00">Harlinn::Common::Core</text>
<text text-anchor="middle" x="801.5" y="-264.34" font-family="Helvetica,sans-Serif" font-size="10.00">::SemaphoreAccessMask</text>
</a>
</g>
</g>
<!-- Node16&#45;&gt;Node17 -->
<g id="edge16_Node000016_Node000017" class="edge">
<title>Node16&#45;&gt;Node17</title>
<g id="a_edge16_Node000016_Node000017"><a xlink:title=" ">
<path fill="none" stroke="#63b8ff" d="M662.7,-272.34C686.95,-272.34 713.37,-272.34 736.54,-272.34"/>
<polygon fill="#63b8ff" stroke="#63b8ff" points="662.88,-268.84 652.88,-272.34 662.88,-275.84 662.88,-268.84"/>
</a>
</g>
</g>
<!-- Node19 -->
<g id="Node000019" class="node">
<title>Node19</title>
<g id="a_Node000019"><a xlink:href="class_harlinn_1_1_common_1_1_core_1_1_services_1_1_service_access_mask.html" target="_top" xlink:title="The access mask for a service.">
<polygon fill="white" stroke="#666666" points="878.5,-359.34 724.5,-359.34 724.5,-329.34 878.5,-329.34 878.5,-359.34"/>
<text text-anchor="start" x="732.5" y="-347.34" font-family="Helvetica,sans-Serif" font-size="10.00">Harlinn::Common::Core</text>
<text text-anchor="middle" x="801.5" y="-336.34" font-family="Helvetica,sans-Serif" font-size="10.00">::Services::ServiceAccessMask</text>
</a>
</g>
</g>
<!-- Node18&#45;&gt;Node19 -->
<g id="edge18_Node000018_Node000019" class="edge">
<title>Node18&#45;&gt;Node19</title>
<g id="a_edge18_Node000018_Node000019"><a xlink:title=" ">
<path fill="none" stroke="#63b8ff" d="M687.7,-344.34C700.03,-344.34 712.45,-344.34 724.3,-344.34"/>
<polygon fill="#63b8ff" stroke="#63b8ff" points="687.93,-340.84 677.93,-344.34 687.93,-347.84 687.93,-340.84"/>
</a>
</g>
</g>
<!-- Node21 -->
<g id="Node000021" class="node">
<title>Node21</title>
<g id="a_Node000021"><a xlink:href="class_harlinn_1_1_common_1_1_core_1_1_services_1_1_service_control_manager_access_mask.html" target="_top" xlink:title="The access mask for the service control manager.">
<polygon fill="white" stroke="#666666" points="884,-138.84 719,-138.84 719,-97.84 884,-97.84 884,-138.84"/>
<text text-anchor="start" x="727" y="-126.84" font-family="Helvetica,sans-Serif" font-size="10.00">Harlinn::Common::Core</text>
<text text-anchor="start" x="727" y="-115.84" font-family="Helvetica,sans-Serif" font-size="10.00">::Services::ServiceControlManager</text>
<text text-anchor="middle" x="801.5" y="-104.84" font-family="Helvetica,sans-Serif" font-size="10.00">AccessMask</text>
</a>
</g>
</g>
<!-- Node20&#45;&gt;Node21 -->
<g id="edge20_Node000020_Node000021" class="edge">
<title>Node20&#45;&gt;Node21</title>
<g id="a_edge20_Node000020_Node000021"><a xlink:title=" ">
<path fill="none" stroke="#63b8ff" d="M689.69,-118.34C699.41,-118.34 709.17,-118.34 718.65,-118.34"/>
<polygon fill="#63b8ff" stroke="#63b8ff" points="689.81,-114.84 679.81,-118.34 689.81,-121.84 689.81,-114.84"/>
</a>
</g>
</g>
<!-- Node23 -->
<g id="Node000023" class="node">
<title>Node23</title>
<g id="a_Node000023"><a xlink:href="class_harlinn_1_1_common_1_1_core_1_1_thread_access_mask.html" target="_top" xlink:title=" ">
<polygon fill="white" stroke="#666666" points="860.5,-212.34 742.5,-212.34 742.5,-182.34 860.5,-182.34 860.5,-212.34"/>
<text text-anchor="start" x="750.5" y="-200.34" font-family="Helvetica,sans-Serif" font-size="10.00">Harlinn::Common::Core</text>
<text text-anchor="middle" x="801.5" y="-189.34" font-family="Helvetica,sans-Serif" font-size="10.00">::ThreadAccessMask</text>
</a>
</g>
</g>
<!-- Node22&#45;&gt;Node23 -->
<g id="edge22_Node000022_Node000023" class="edge">
<title>Node22&#45;&gt;Node23</title>
<g id="a_edge22_Node000022_Node000023"><a xlink:title=" ">
<path fill="none" stroke="#63b8ff" d="M685.36,-197.34C704.89,-197.34 724.73,-197.34 742.31,-197.34"/>
<polygon fill="#63b8ff" stroke="#63b8ff" points="685.43,-193.84 675.43,-197.34 685.43,-200.84 685.43,-193.84"/>
</a>
</g>
</g>
<!-- Node25 -->
<g id="Node000025" class="node">
<title>Node25</title>
<g id="a_Node000025"><a xlink:href="class_harlinn_1_1_common_1_1_core_1_1_waitable_timer_access_mask.html" target="_top" xlink:title=" ">
<polygon fill="white" stroke="#666666" points="872.5,-430.34 730.5,-430.34 730.5,-400.34 872.5,-400.34 872.5,-430.34"/>
<text text-anchor="start" x="738.5" y="-418.34" font-family="Helvetica,sans-Serif" font-size="10.00">Harlinn::Common::Core</text>
<text text-anchor="middle" x="801.5" y="-407.34" font-family="Helvetica,sans-Serif" font-size="10.00">::WaitableTimerAccessMask</text>
</a>
</g>
</g>
<!-- Node24&#45;&gt;Node25 -->
<g id="edge24_Node000024_Node000025" class="edge">
<title>Node24&#45;&gt;Node25</title>
<g id="a_edge24_Node000024_Node000025"><a xlink:title=" ">
<path fill="none" stroke="#63b8ff" d="M669.32,-415.34C689.48,-415.34 710.77,-415.34 730.19,-415.34"/>
<polygon fill="#63b8ff" stroke="#63b8ff" points="669.44,-411.84 659.44,-415.34 669.44,-418.84 669.44,-411.84"/>
</a>
</g>
</g>
<!-- Node26&#45;&gt;Node2 -->
<g id="edge26_Node000026_Node000002" class="edge">
<title>Node26&#45;&gt;Node2</title>
<g id="a_edge26_Node000026_Node000002"><a xlink:title=" ">
<path fill="none" stroke="orange" stroke-dasharray="5,2" d="M237.59,-488.39C251.06,-514.7 273.78,-551.52 304,-573.34 365.23,-617.54 394.81,-599.15 467,-621.34 478.67,-624.93 490.99,-628.79 503.05,-632.62"/>
<polygon fill="orange" stroke="orange" points="240.79,-486.96 233.23,-479.54 234.51,-490.06 240.79,-486.96"/>
</a>
</g>
<text text-anchor="start" x="312" y="-635.34" font-family="Helvetica,sans-Serif" font-size="10.00" fill="grey"> &lt; EventWaitHandleAccessMask,</text>
<text text-anchor="middle" x="385.5" y="-624.34" font-family="Helvetica,sans-Serif" font-size="10.00" fill="grey"> EventWaitHandleRights &gt;</text>
</g>
<!-- Node26&#45;&gt;Node4 -->
<g id="edge27_Node000026_Node000004" class="edge">
<title>Node26&#45;&gt;Node4</title>
<g id="a_edge27_Node000026_Node000004"><a xlink:title=" ">
<path fill="none" stroke="orange" stroke-dasharray="5,2" d="M224.33,-489.52C227.48,-543.45 241.72,-652.19 304,-713.34 357.89,-766.25 397.97,-730.72 467,-761.34 475.57,-765.14 476.62,-768.14 485,-772.34 495.84,-777.77 507.63,-783.01 519.14,-787.8"/>
<polygon fill="orange" stroke="orange" points="227.83,-489.6 223.86,-479.78 220.84,-489.93 227.83,-489.6"/>
</a>
</g>
<text text-anchor="start" x="329.5" y="-775.34" font-family="Helvetica,sans-Serif" font-size="10.00" fill="grey"> &lt; DirectoryAccessMask,</text>
<text text-anchor="middle" x="385.5" y="-764.34" font-family="Helvetica,sans-Serif" font-size="10.00" fill="grey"> DirectoryAccessRights &gt;</text>
</g>
<!-- Node26&#45;&gt;Node6 -->
<g id="edge28_Node000026_Node000006" class="edge">
<title>Node26&#45;&gt;Node6</title>
<g id="a_edge28_Node000026_Node000006"><a xlink:title=" ">
<path fill="none" stroke="orange" stroke-dasharray="5,2" d="M227.47,-489.18C237.21,-562.41 264.39,-739.87 304,-783.34 311.44,-791.51 436.01,-832.02 516,-857.43"/>
<polygon fill="orange" stroke="orange" points="230.97,-488.92 226.21,-479.46 224.03,-489.83 230.97,-488.92"/>
</a>
</g>
<text text-anchor="start" x="315.5" y="-854.34" font-family="Helvetica,sans-Serif" font-size="10.00" fill="grey"> &lt; FileAccessMask, FileAccess</text>
<text text-anchor="middle" x="385.5" y="-843.34" font-family="Helvetica,sans-Serif" font-size="10.00" fill="grey">Rights &gt;</text>
</g>
<!-- Node26&#45;&gt;Node8 -->
<g id="edge29_Node000026_Node000008" class="edge">
<title>Node26&#45;&gt;Node8</title>
<g id="a_edge29_Node000026_Node000008"><a xlink:title=" ">
<path fill="none" stroke="orange" stroke-dasharray="5,2" d="M297.69,-462.3C351.83,-465.92 425.77,-470.86 484.73,-474.8"/>
<polygon fill="orange" stroke="orange" points="298.17,-458.82 287.95,-461.65 297.7,-465.81 298.17,-458.82"/>
</a>
</g>
<text text-anchor="start" x="311.5" y="-487.34" font-family="Helvetica,sans-Serif" font-size="10.00" fill="grey"> &lt; PipeAccessMask, PipeAccess</text>
<text text-anchor="middle" x="385.5" y="-476.34" font-family="Helvetica,sans-Serif" font-size="10.00" fill="grey">Rights &gt;</text>
</g>
<!-- Node26&#45;&gt;Node10 -->
<g id="edge30_Node000026_Node000010" class="edge">
<title>Node26&#45;&gt;Node10</title>
<g id="a_edge30_Node000026_Node000010"><a xlink:title=" ">
<path fill="none" stroke="orange" stroke-dasharray="5,2" d="M269.49,-483.49C280.58,-489.19 292.54,-494.85 304,-499.34 365.83,-523.58 438.26,-543.09 493.76,-556.27"/>
<polygon fill="orange" stroke="orange" points="271.41,-480.54 260.93,-478.98 268.15,-486.74 271.41,-480.54"/>
</a>
</g>
<text text-anchor="start" x="335.5" y="-561.34" font-family="Helvetica,sans-Serif" font-size="10.00" fill="grey"> &lt; MutexAccessMask,</text>
<text text-anchor="middle" x="385.5" y="-550.34" font-family="Helvetica,sans-Serif" font-size="10.00" fill="grey"> MutexRights &gt;</text>
</g>
<!-- Node26&#45;&gt;Node12 -->
<g id="edge31_Node000026_Node000012" class="edge">
<title>Node26&#45;&gt;Node12</title>
<g id="a_edge31_Node000026_Node000012"><a xlink:title=" ">
<path fill="none" stroke="orange" stroke-dasharray="5,2" d="M228.78,-489.4C237.28,-530.87 257.97,-602.61 304,-643.34 360.56,-693.38 395.62,-666.68 467,-691.34 484.03,-697.23 502.24,-704.17 519.05,-710.85"/>
<polygon fill="orange" stroke="orange" points="232.25,-488.96 226.93,-479.79 225.38,-490.28 232.25,-488.96"/>
</a>
</g>
<text text-anchor="start" x="331" y="-705.34" font-family="Helvetica,sans-Serif" font-size="10.00" fill="grey"> &lt; ProcessAccessMask,</text>
<text text-anchor="middle" x="385.5" y="-694.34" font-family="Helvetica,sans-Serif" font-size="10.00" fill="grey"> ProcessAccessRights &gt;</text>
</g>
<!-- Node26&#45;&gt;Node14 -->
<g id="edge32_Node000026_Node000014" class="edge">
<title>Node26&#45;&gt;Node14</title>
<g id="a_edge32_Node000026_Node000014"><a xlink:title=" ">
<path fill="none" stroke="orange" stroke-dasharray="5,2" d="M226.7,-425.02C235.04,-347.17 259.93,-152.26 304,-106.34 330.51,-78.72 424.53,-57.01 496.07,-43.98"/>
<polygon fill="orange" stroke="orange" points="223.22,-424.66 225.66,-434.97 230.18,-425.38 223.22,-424.66"/>
</a>
</g>
<text text-anchor="start" x="335.5" y="-120.34" font-family="Helvetica,sans-Serif" font-size="10.00" fill="grey"> &lt; TokenAccessMask,</text>
<text text-anchor="middle" x="385.5" y="-109.34" font-family="Helvetica,sans-Serif" font-size="10.00" fill="grey"> TokenAccessRights &gt;</text>
</g>
<!-- Node26&#45;&gt;Node16 -->
<g id="edge33_Node000026_Node000016" class="edge">
<title>Node26&#45;&gt;Node16</title>
<g id="a_edge33_Node000026_Node000016"><a xlink:title=" ">
<path fill="none" stroke="orange" stroke-dasharray="5,2" d="M234.37,-426.08C246.53,-395.93 269.21,-351.43 304,-327.34 337.58,-304.09 444.42,-287.89 515.59,-279.36"/>
<polygon fill="orange" stroke="orange" points="231.24,-424.47 230.91,-435.06 237.77,-426.99 231.24,-424.47"/>
</a>
</g>
<text text-anchor="start" x="324.5" y="-341.34" font-family="Helvetica,sans-Serif" font-size="10.00" fill="grey"> &lt; SemaphoreAccessMask,</text>
<text text-anchor="middle" x="385.5" y="-330.34" font-family="Helvetica,sans-Serif" font-size="10.00" fill="grey"> SemaphoreRights &gt;</text>
</g>
<!-- Node26&#45;&gt;Node18 -->
<g id="edge34_Node000026_Node000018" class="edge">
<title>Node26&#45;&gt;Node18</title>
<g id="a_edge34_Node000026_Node000018"><a xlink:title=" ">
<path fill="none" stroke="orange" stroke-dasharray="5,2" d="M252.56,-428.95C266.94,-416.46 285.22,-402.75 304,-394.34 362.96,-367.95 434.83,-355.48 490.8,-349.59"/>
<polygon fill="orange" stroke="orange" points="250.37,-426.21 245.26,-435.5 255.04,-431.42 250.37,-426.21"/>
</a>
</g>
<text text-anchor="start" x="333" y="-408.34" font-family="Helvetica,sans-Serif" font-size="10.00" fill="grey"> &lt; ServiceAccessMask,</text>
<text text-anchor="middle" x="385.5" y="-397.34" font-family="Helvetica,sans-Serif" font-size="10.00" fill="grey"> ServiceAccessRights &gt;</text>
</g>
<!-- Node26&#45;&gt;Node20 -->
<g id="edge35_Node000026_Node000020" class="edge">
<title>Node26&#45;&gt;Node20</title>
<g id="a_edge35_Node000026_Node000020"><a xlink:title=" ">
<path fill="none" stroke="orange" stroke-dasharray="5,2" d="M222.76,-425.01C223.3,-366.53 233.33,-243.15 304,-177.34 330.63,-152.54 418.77,-136.75 488.84,-127.81"/>
<polygon fill="orange" stroke="orange" points="219.26,-424.95 222.77,-434.95 226.26,-424.95 219.26,-424.95"/>
</a>
</g>
<text text-anchor="start" x="304" y="-202.34" font-family="Helvetica,sans-Serif" font-size="10.00" fill="grey"> &lt; ServiceControlManagerAccess</text>
<text text-anchor="start" x="304" y="-191.34" font-family="Helvetica,sans-Serif" font-size="10.00" fill="grey">Mask, ServiceControlManagerAccess</text>
<text text-anchor="middle" x="385.5" y="-180.34" font-family="Helvetica,sans-Serif" font-size="10.00" fill="grey">Rights &gt;</text>
</g>
<!-- Node26&#45;&gt;Node22 -->
<g id="edge36_Node000026_Node000022" class="edge">
<title>Node26&#45;&gt;Node22</title>
<g id="a_edge36_Node000026_Node000022"><a xlink:title=" ">
<path fill="none" stroke="orange" stroke-dasharray="5,2" d="M227.49,-425.42C234.72,-381.65 254.15,-303.63 304,-261.34 332.33,-237.31 422.81,-219.49 493.04,-208.84"/>
<polygon fill="orange" stroke="orange" points="224.07,-424.63 226.03,-435.05 230.99,-425.69 224.07,-424.63"/>
</a>
</g>
<text text-anchor="start" x="334" y="-275.34" font-family="Helvetica,sans-Serif" font-size="10.00" fill="grey"> &lt; ThreadAccessMask,</text>
<text text-anchor="middle" x="385.5" y="-264.34" font-family="Helvetica,sans-Serif" font-size="10.00" fill="grey"> ThreadAccessRights &gt;</text>
</g>
<!-- Node26&#45;&gt;Node24 -->
<g id="edge37_Node000026_Node000024" class="edge">
<title>Node26&#45;&gt;Node24</title>
<g id="a_edge37_Node000026_Node000024"><a xlink:title=" ">
<path fill="none" stroke="orange" stroke-dasharray="5,2" d="M297.36,-437.53C299.59,-437.1 301.81,-436.7 304,-436.34 372.99,-424.84 452.66,-419.63 509.06,-417.27"/>
<polygon fill="orange" stroke="orange" points="296.68,-434.09 287.59,-439.54 298.09,-440.95 296.68,-434.09"/>
</a>
</g>
<text text-anchor="start" x="318" y="-450.34" font-family="Helvetica,sans-Serif" font-size="10.00" fill="grey"> &lt; WaitableTimerAccessMask,</text>
<text text-anchor="middle" x="385.5" y="-439.34" font-family="Helvetica,sans-Serif" font-size="10.00" fill="grey"> WaitableTimerRights &gt;</text>
</g>
</g>
</svg>
