<?xml version="1.0" encoding="UTF-8" standalone="no"?>
<!DOCTYPE svg PUBLIC "-//W3C//DTD SVG 1.1//EN"
 "http://www.w3.org/Graphics/SVG/1.1/DTD/svg11.dtd">
<!-- Generated by graphviz version 7.0.1 (20221109.1506)
 -->
<!-- Title: Harlinn::Common::Core::Com::ModuleClassFactory&lt; ImplementationT &gt; Pages: 1 -->
<svg width="169pt" height="247pt"
 viewBox="0.00 0.00 169.00 247.00" xmlns="http://www.w3.org/2000/svg" xmlns:xlink="http://www.w3.org/1999/xlink">
<g id="graph0" class="graph" transform="scale(1 1) rotate(0) translate(4 243)">
<title>Harlinn::Common::Core::Com::ModuleClassFactory&lt; ImplementationT &gt;</title>
<!-- Node1 -->
<g id="Node000001" class="node">
<title>Node1</title>
<g id="a_Node000001"><a xlink:title=" ">
<polygon fill="#999999" stroke="#666666" points="149.5,-41 11.5,-41 11.5,0 149.5,0 149.5,-41"/>
<text text-anchor="start" x="19.5" y="-29" font-family="Helvetica,sans-Serif" font-size="10.00">Harlinn::Common::Core</text>
<text text-anchor="start" x="19.5" y="-18" font-family="Helvetica,sans-Serif" font-size="10.00">::Com::ModuleClassFactory</text>
<text text-anchor="middle" x="80.5" y="-7" font-family="Helvetica,sans-Serif" font-size="10.00">&lt; ImplementationT &gt;</text>
</a>
</g>
</g>
<!-- Node2 -->
<g id="Node000002" class="node">
<title>Node2</title>
<g id="a_Node000002"><a xlink:href="class_harlinn_1_1_common_1_1_core_1_1_com_1_1_module_class_factory_t.xhtml" target="_top" xlink:title=" ">
<polygon fill="white" stroke="#666666" points="152,-118 9,-118 9,-77 152,-77 152,-118"/>
<text text-anchor="start" x="17" y="-106" font-family="Helvetica,sans-Serif" font-size="10.00">Harlinn::Common::Core</text>
<text text-anchor="start" x="17" y="-95" font-family="Helvetica,sans-Serif" font-size="10.00">::Com::ModuleClassFactoryT</text>
<text text-anchor="middle" x="80.5" y="-84" font-family="Helvetica,sans-Serif" font-size="10.00">&lt; ImplementationT &gt;</text>
</a>
</g>
</g>
<!-- Node2&#45;&gt;Node1 -->
<g id="edge1_Node000001_Node000002" class="edge">
<title>Node2&#45;&gt;Node1</title>
<g id="a_edge1_Node000001_Node000002"><a xlink:title=" ">
<path fill="none" stroke="#63b8ff" d="M80.5,-65.36C80.5,-57.24 80.5,-48.7 80.5,-41.33"/>
<polygon fill="#63b8ff" stroke="#63b8ff" points="77,-65.28 80.5,-75.28 84,-65.28 77,-65.28"/>
</a>
</g>
</g>
<!-- Node3 -->
<g id="Node000003" class="node">
<title>Node3</title>
<g id="a_Node000003"><a xlink:href="class_harlinn_1_1_common_1_1_core_1_1_com_1_1_module_class_factory_base.xhtml" target="_top" xlink:title=" ">
<polygon fill="white" stroke="#666666" points="161,-184 0,-184 0,-154 161,-154 161,-184"/>
<text text-anchor="start" x="8" y="-172" font-family="Helvetica,sans-Serif" font-size="10.00">Harlinn::Common::Core</text>
<text text-anchor="middle" x="80.5" y="-161" font-family="Helvetica,sans-Serif" font-size="10.00">::Com::ModuleClassFactoryBase</text>
</a>
</g>
</g>
<!-- Node3&#45;&gt;Node2 -->
<g id="edge2_Node000002_Node000003" class="edge">
<title>Node3&#45;&gt;Node2</title>
<g id="a_edge2_Node000002_Node000003"><a xlink:title=" ">
<path fill="none" stroke="#63b8ff" d="M80.5,-142.36C80.5,-134.45 80.5,-125.87 80.5,-118.42"/>
<polygon fill="#63b8ff" stroke="#63b8ff" points="77,-142.09 80.5,-152.09 84,-142.09 77,-142.09"/>
</a>
</g>
</g>
<!-- Node4 -->
<g id="Node000004" class="node">
<title>Node4</title>
<g id="a_Node000004"><a xlink:title=" ">
<polygon fill="white" stroke="#666666" points="119,-239 42,-239 42,-220 119,-220 119,-239"/>
<text text-anchor="middle" x="80.5" y="-227" font-family="Helvetica,sans-Serif" font-size="10.00">IClassFactory</text>
</a>
</g>
</g>
<!-- Node4&#45;&gt;Node3 -->
<g id="edge3_Node000003_Node000004" class="edge">
<title>Node4&#45;&gt;Node3</title>
<g id="a_edge3_Node000003_Node000004"><a xlink:title=" ">
<path fill="none" stroke="#63b8ff" d="M80.5,-208.51C80.5,-200.49 80.5,-191.43 80.5,-184.11"/>
<polygon fill="#63b8ff" stroke="#63b8ff" points="77,-208.35 80.5,-218.35 84,-208.35 77,-208.35"/>
</a>
</g>
</g>
</g>
</svg>
