<?xml version="1.0" encoding="UTF-8" standalone="no"?>
<!DOCTYPE svg PUBLIC "-//W3C//DTD SVG 1.1//EN"
 "http://www.w3.org/Graphics/SVG/1.1/DTD/svg11.dtd">
<!-- Generated by graphviz version 7.0.1 (20221109.1506)
 -->
<!-- Title: Harlinn::Windows::MF::BlobValue&lt; T &gt; Pages: 1 -->
<svg width="531pt" height="98pt"
 viewBox="0.00 0.00 531.00 97.50" xmlns="http://www.w3.org/2000/svg" xmlns:xlink="http://www.w3.org/1999/xlink">
<g id="graph0" class="graph" transform="scale(1 1) rotate(0) translate(4 93.5)">
<title>Harlinn::Windows::MF::BlobValue&lt; T &gt;</title>
<!-- Node1 -->
<g id="Node000001" class="node">
<title>Node1</title>
<g id="a_Node000001"><a xlink:title=" ">
<polygon fill="#999999" stroke="#666666" points="113,-57 0,-57 0,-27 113,-27 113,-57"/>
<text text-anchor="start" x="8" y="-45" font-family="Helvetica,sans-Serif" font-size="10.00">Harlinn::Windows::MF</text>
<text text-anchor="middle" x="56.5" y="-34" font-family="Helvetica,sans-Serif" font-size="10.00">::BlobValue&lt; T &gt;</text>
</a>
</g>
</g>
<!-- Node2 -->
<g id="Node000002" class="node">
<title>Node2</title>
<g id="a_Node000002"><a xlink:href="class_harlinn_1_1_windows_1_1_m_f_1_1_blob_value.xhtml" target="_top" xlink:title=" ">
<polygon fill="white" stroke="#666666" points="330,-57 208,-57 208,-27 330,-27 330,-57"/>
<text text-anchor="start" x="216" y="-45" font-family="Helvetica,sans-Serif" font-size="10.00">Harlinn::Windows::MF</text>
<text text-anchor="middle" x="269" y="-34" font-family="Helvetica,sans-Serif" font-size="10.00">::BlobValue&lt; DWORD &gt;</text>
</a>
</g>
</g>
<!-- Node1&#45;&gt;Node2 -->
<g id="edge1_Node000001_Node000002" class="edge">
<title>Node1&#45;&gt;Node2</title>
<g id="a_edge1_Node000001_Node000002"><a xlink:title=" ">
<path fill="none" stroke="orange" stroke-dasharray="5,2" d="M124.56,-42C151.28,-42 181.81,-42 207.82,-42"/>
<polygon fill="orange" stroke="orange" points="124.87,-38.5 114.87,-42 124.87,-45.5 124.87,-38.5"/>
</a>
</g>
<text text-anchor="middle" x="160.5" y="-45" font-family="Helvetica,sans-Serif" font-size="10.00" fill="grey"> &lt; DWORD &gt;</text>
</g>
<!-- Node3 -->
<g id="Node000003" class="node">
<title>Node3</title>
<g id="a_Node000003"><a xlink:href="class_harlinn_1_1_windows_1_1_m_f_1_1_encryption_sub_sample_mapping_split.xhtml" target="_top" xlink:title=" ">
<polygon fill="white" stroke="#666666" points="523,-89.5 367,-89.5 367,-48.5 523,-48.5 523,-89.5"/>
<text text-anchor="start" x="375" y="-77.5" font-family="Helvetica,sans-Serif" font-size="10.00">Harlinn::Windows::MF</text>
<text text-anchor="start" x="375" y="-66.5" font-family="Helvetica,sans-Serif" font-size="10.00">::EncryptionSubSampleMapping</text>
<text text-anchor="middle" x="445" y="-55.5" font-family="Helvetica,sans-Serif" font-size="10.00">Split</text>
</a>
</g>
</g>
<!-- Node2&#45;&gt;Node3 -->
<g id="edge2_Node000002_Node000003" class="edge">
<title>Node2&#45;&gt;Node3</title>
<g id="a_edge2_Node000002_Node000003"><a xlink:title=" ">
<path fill="none" stroke="#63b8ff" d="M341.5,-53.09C349.77,-54.38 358.23,-55.69 366.58,-56.99"/>
<polygon fill="#63b8ff" stroke="#63b8ff" points="342.28,-49.67 331.86,-51.6 341.21,-56.59 342.28,-49.67"/>
</a>
</g>
</g>
<!-- Node4 -->
<g id="Node000004" class="node">
<title>Node4</title>
<g id="a_Node000004"><a xlink:href="class_harlinn_1_1_windows_1_1_m_f_1_1_packet_cross_offsets.xhtml" target="_top" xlink:title=" ">
<polygon fill="white" stroke="#666666" points="501.5,-30 388.5,-30 388.5,0 501.5,0 501.5,-30"/>
<text text-anchor="start" x="396.5" y="-18" font-family="Helvetica,sans-Serif" font-size="10.00">Harlinn::Windows::MF</text>
<text text-anchor="middle" x="445" y="-7" font-family="Helvetica,sans-Serif" font-size="10.00">::PacketCrossOffsets</text>
</a>
</g>
</g>
<!-- Node2&#45;&gt;Node4 -->
<g id="edge3_Node000002_Node000004" class="edge">
<title>Node2&#45;&gt;Node4</title>
<g id="a_edge3_Node000002_Node000004"><a xlink:title=" ">
<path fill="none" stroke="#63b8ff" d="M341.53,-30.9C357.07,-28.49 373.29,-25.97 388.12,-23.67"/>
<polygon fill="#63b8ff" stroke="#63b8ff" points="341.21,-27.41 331.86,-32.4 342.28,-34.33 341.21,-27.41"/>
</a>
</g>
</g>
</g>
</svg>
