<?xml version="1.0" encoding="UTF-8" standalone="no"?>
<!DOCTYPE svg PUBLIC "-//W3C//DTD SVG 1.1//EN"
 "http://www.w3.org/Graphics/SVG/1.1/DTD/svg11.dtd">
<!-- Generated by graphviz version 7.0.1 (20221109.1506)
 -->
<!-- Title: Harlinn::Common::Core::Doxygen::DocRefTextType Pages: 1 -->
<svg width="1090pt" height="216pt"
 viewBox="0.00 0.00 1090.00 216.00" xmlns="http://www.w3.org/2000/svg" xmlns:xlink="http://www.w3.org/1999/xlink">
<g id="graph0" class="graph" transform="scale(1 1) rotate(0) translate(4 212)">
<title>Harlinn::Common::Core::Doxygen::DocRefTextType</title>
<!-- Node1 -->
<g id="Node000001" class="node">
<title>Node1</title>
<g id="a_Node000001"><a xlink:title=" ">
<polygon fill="#999999" stroke="#666666" points="1082,-122 944,-122 944,-92 1082,-92 1082,-122"/>
<text text-anchor="start" x="952" y="-110" font-family="Helvetica,sans-Serif" font-size="10.00">Harlinn::Common::Core</text>
<text text-anchor="middle" x="1013" y="-99" font-family="Helvetica,sans-Serif" font-size="10.00">::Doxygen::DocRefTextType</text>
</a>
</g>
</g>
<!-- Node2 -->
<g id="Node000002" class="node">
<title>Node2</title>
<g id="a_Node000002"><a xlink:href="class_harlinn_1_1_common_1_1_core_1_1_doxygen_1_1_internal_1_1_doc_base.html" target="_top" xlink:title=" ">
<polygon fill="white" stroke="#666666" points="865,-187 717,-187 717,-135 865,-135 865,-187"/>
<text text-anchor="start" x="725" y="-175" font-family="Helvetica,sans-Serif" font-size="10.00">Harlinn::Common::Core</text>
<text text-anchor="start" x="725" y="-164" font-family="Helvetica,sans-Serif" font-size="10.00">::Doxygen::Internal::</text>
<text text-anchor="start" x="725" y="-153" font-family="Helvetica,sans-Serif" font-size="10.00">DocBase&lt; Doxygen::DoxType</text>
<text text-anchor="middle" x="791" y="-142" font-family="Helvetica,sans-Serif" font-size="10.00">::DocRefTextType &gt;</text>
</a>
</g>
</g>
<!-- Node2&#45;&gt;Node1 -->
<g id="edge1_Node000001_Node000002" class="edge">
<title>Node2&#45;&gt;Node1</title>
<g id="a_edge1_Node000001_Node000002"><a xlink:title=" ">
<path fill="none" stroke="#63b8ff" d="M876.22,-140.33C900.4,-134.39 926.34,-128.02 949.01,-122.46"/>
<polygon fill="#63b8ff" stroke="#63b8ff" points="875.6,-136.88 866.73,-142.66 877.27,-143.67 875.6,-136.88"/>
</a>
</g>
</g>
<!-- Node3 -->
<g id="Node000003" class="node">
<title>Node3</title>
<g id="a_Node000003"><a xlink:href="class_harlinn_1_1_common_1_1_core_1_1_doxygen_1_1_doc_base_type.html" target="_top" xlink:title=" ">
<polygon fill="white" stroke="#666666" points="347,-208 219,-208 219,-178 347,-178 347,-208"/>
<text text-anchor="start" x="227" y="-196" font-family="Helvetica,sans-Serif" font-size="10.00">Harlinn::Common::Core</text>
<text text-anchor="middle" x="283" y="-185" font-family="Helvetica,sans-Serif" font-size="10.00">::Doxygen::DocBaseType</text>
</a>
</g>
</g>
<!-- Node3&#45;&gt;Node2 -->
<g id="edge2_Node000002_Node000003" class="edge">
<title>Node3&#45;&gt;Node2</title>
<g id="a_edge2_Node000002_Node000003"><a xlink:title=" ">
<path fill="none" stroke="#63b8ff" d="M358.69,-196.89C442.09,-199.99 580.9,-201.47 699,-185 704.83,-184.19 710.81,-183.13 716.8,-181.91"/>
<polygon fill="#63b8ff" stroke="#63b8ff" points="358.93,-193.39 348.81,-196.5 358.66,-200.39 358.93,-193.39"/>
</a>
</g>
</g>
<!-- Node5 -->
<g id="Node000005" class="node">
<title>Node5</title>
<g id="a_Node000005"><a xlink:href="class_harlinn_1_1_common_1_1_core_1_1_doxygen_1_1_internal_1_1_doc_base.html" target="_top" xlink:title=" ">
<polygon fill="white" stroke="#666666" points="586,-177.5 468,-177.5 468,-136.5 586,-136.5 586,-177.5"/>
<text text-anchor="start" x="476" y="-165.5" font-family="Helvetica,sans-Serif" font-size="10.00">Harlinn::Common::Core</text>
<text text-anchor="start" x="476" y="-154.5" font-family="Helvetica,sans-Serif" font-size="10.00">::Doxygen::Internal::</text>
<text text-anchor="middle" x="527" y="-143.5" font-family="Helvetica,sans-Serif" font-size="10.00">DocBase&lt; doxType &gt;</text>
</a>
</g>
</g>
<!-- Node3&#45;&gt;Node5 -->
<g id="edge5_Node000005_Node000003" class="edge">
<title>Node3&#45;&gt;Node5</title>
<g id="a_edge5_Node000005_Node000003"><a xlink:title=" ">
<path fill="none" stroke="#63b8ff" d="M358.43,-181.93C393.56,-176.7 434.86,-170.56 467.67,-165.68"/>
<polygon fill="#63b8ff" stroke="#63b8ff" points="358.14,-178.43 348.76,-183.37 359.17,-185.36 358.14,-178.43"/>
</a>
</g>
</g>
<!-- Node4 -->
<g id="Node000004" class="node">
<title>Node4</title>
<g id="a_Node000004"><a xlink:title=" ">
<polygon fill="white" stroke="#666666" points="140,-208 0,-208 0,-178 140,-178 140,-208"/>
<text text-anchor="start" x="8" y="-196" font-family="Helvetica,sans-Serif" font-size="10.00">std::enable_shared</text>
<text text-anchor="middle" x="70" y="-185" font-family="Helvetica,sans-Serif" font-size="10.00">_from_this&lt; DocBaseType &gt;</text>
</a>
</g>
</g>
<!-- Node4&#45;&gt;Node3 -->
<g id="edge3_Node000003_Node000004" class="edge">
<title>Node4&#45;&gt;Node3</title>
<g id="a_edge3_Node000003_Node000004"><a xlink:title=" ">
<path fill="none" stroke="#8b1a1a" d="M151.8,-193C173.94,-193 197.63,-193 218.64,-193"/>
<polygon fill="#8b1a1a" stroke="#8b1a1a" points="151.9,-189.5 141.9,-193 151.9,-196.5 151.9,-189.5"/>
</a>
</g>
</g>
<!-- Node5&#45;&gt;Node2 -->
<g id="edge4_Node000002_Node000005" class="edge">
<title>Node5&#45;&gt;Node2</title>
<g id="a_edge4_Node000002_Node000005"><a xlink:title=" ">
<path fill="none" stroke="orange" stroke-dasharray="5,2" d="M597.59,-158.06C634.34,-158.62 679.42,-159.31 716.71,-159.88"/>
<polygon fill="orange" stroke="orange" points="598.04,-154.57 587.99,-157.92 597.93,-161.57 598.04,-154.57"/>
</a>
</g>
<text text-anchor="start" x="604" y="-173" font-family="Helvetica,sans-Serif" font-size="10.00" fill="grey"> &lt; Doxygen::DoxType</text>
<text text-anchor="middle" x="651.5" y="-162" font-family="Helvetica,sans-Serif" font-size="10.00" fill="grey">::DocRefTextType &gt;</text>
</g>
<!-- Node6 -->
<g id="Node000006" class="node">
<title>Node6</title>
<g id="a_Node000006"><a xlink:title=" ">
<polygon fill="white" stroke="#666666" points="450,-116.5 365,-116.5 365,-97.5 450,-97.5 450,-116.5"/>
<text text-anchor="middle" x="407.5" y="-104.5" font-family="Helvetica,sans-Serif" font-size="10.00">std::vector&lt; T &gt;</text>
</a>
</g>
</g>
<!-- Node6&#45;&gt;Node1 -->
<g id="edge6_Node000001_Node000006" class="edge">
<title>Node6&#45;&gt;Node1</title>
<g id="a_edge6_Node000001_Node000006"><a xlink:title=" ">
<path fill="none" stroke="#63b8ff" d="M461.87,-107C571.53,-107 822.07,-107 943.51,-107"/>
<polygon fill="#63b8ff" stroke="#63b8ff" points="461.97,-103.5 451.97,-107 461.97,-110.5 461.97,-103.5"/>
</a>
</g>
</g>
<!-- Node7 -->
<g id="Node000007" class="node">
<title>Node7</title>
<g id="a_Node000007"><a xlink:title=" ">
<polygon fill="white" stroke="#666666" points="84.5,-97.5 55.5,-97.5 55.5,-78.5 84.5,-78.5 84.5,-97.5"/>
<text text-anchor="middle" x="70" y="-85.5" font-family="Helvetica,sans-Serif" font-size="10.00">T</text>
</a>
</g>
</g>
<!-- Node7&#45;&gt;Node6 -->
<g id="edge7_Node000006_Node000007" class="edge">
<title>Node7&#45;&gt;Node6</title>
<g id="a_edge7_Node000006_Node000007"><a xlink:title=" ">
<path fill="none" stroke="#9a32cd" stroke-dasharray="5,2" d="M96.2,-89.43C153.49,-92.67 294.01,-100.63 364.6,-104.63"/>
<polygon fill="#9a32cd" stroke="#9a32cd" points="96.68,-85.95 86.5,-88.88 96.29,-92.94 96.68,-85.95"/>
</a>
</g>
<text text-anchor="middle" x="179.5" y="-98" font-family="Helvetica,sans-Serif" font-size="10.00" fill="grey"> elements</text>
</g>
<!-- Node9 -->
<g id="Node000009" class="node">
<title>Node9</title>
<g id="a_Node000009"><a xlink:href="struct_harlinn_1_1_common_1_1_core_1_1_internal_1_1_data.html" target="_top" xlink:title=" ">
<polygon fill="white" stroke="#666666" points="342,-79 224,-79 224,-49 342,-49 342,-79"/>
<text text-anchor="start" x="232" y="-67" font-family="Helvetica,sans-Serif" font-size="10.00">Harlinn::Common::Core</text>
<text text-anchor="middle" x="283" y="-56" font-family="Helvetica,sans-Serif" font-size="10.00">::Internal::Data&lt; T &gt;</text>
</a>
</g>
</g>
<!-- Node7&#45;&gt;Node9 -->
<g id="edge10_Node000009_Node000007" class="edge">
<title>Node7&#45;&gt;Node9</title>
<g id="a_edge10_Node000009_Node000007"><a xlink:title=" ">
<path fill="none" stroke="#9a32cd" stroke-dasharray="5,2" d="M95.95,-83.45C113.3,-80.41 137,-76.53 158,-74 179.34,-71.43 202.82,-69.34 223.56,-67.76"/>
<polygon fill="#9a32cd" stroke="#9a32cd" points="95.54,-79.97 86.3,-85.17 96.76,-86.86 95.54,-79.97"/>
</a>
</g>
<text text-anchor="middle" x="179.5" y="-77" font-family="Helvetica,sans-Serif" font-size="10.00" fill="grey"> buffer_</text>
</g>
<!-- Node8 -->
<g id="Node000008" class="node">
<title>Node8</title>
<g id="a_Node000008"><a xlink:href="class_harlinn_1_1_common_1_1_core_1_1_basic_string.html" target="_top" xlink:title=" ">
<polygon fill="white" stroke="#666666" points="853.5,-79 728.5,-79 728.5,-49 853.5,-49 853.5,-79"/>
<text text-anchor="start" x="736.5" y="-67" font-family="Helvetica,sans-Serif" font-size="10.00">Harlinn::Common::Core</text>
<text text-anchor="middle" x="791" y="-56" font-family="Helvetica,sans-Serif" font-size="10.00">::BasicString&lt; wchar_t &gt;</text>
</a>
</g>
</g>
<!-- Node8&#45;&gt;Node1 -->
<g id="edge8_Node000001_Node000008" class="edge">
<title>Node8&#45;&gt;Node1</title>
<g id="a_edge8_Node000001_Node000008"><a xlink:title=" ">
<path fill="none" stroke="#9a32cd" stroke-dasharray="5,2" d="M865.47,-63.29C885.3,-64.33 906.63,-66.58 926,-71 945.41,-75.43 966.02,-83.91 982.2,-91.53"/>
<polygon fill="#9a32cd" stroke="#9a32cd" points="865.63,-59.8 855.5,-62.88 865.34,-66.79 865.63,-59.8"/>
</a>
</g>
<text text-anchor="middle" x="904.5" y="-85" font-family="Helvetica,sans-Serif" font-size="10.00" fill="grey"> external_</text>
<text text-anchor="middle" x="904.5" y="-74" font-family="Helvetica,sans-Serif" font-size="10.00" fill="grey">refId_</text>
</g>
<!-- Node9&#45;&gt;Node8 -->
<g id="edge9_Node000008_Node000009" class="edge">
<title>Node9&#45;&gt;Node8</title>
<g id="a_edge9_Node000008_Node000009"><a xlink:title=" ">
<path fill="none" stroke="#9a32cd" stroke-dasharray="5,2" d="M353.44,-64C452.68,-64 633.53,-64 728.31,-64"/>
<polygon fill="#9a32cd" stroke="#9a32cd" points="353.56,-60.5 343.56,-64 353.56,-67.5 353.56,-60.5"/>
</a>
</g>
<text text-anchor="middle" x="527" y="-67" font-family="Helvetica,sans-Serif" font-size="10.00" fill="grey"> data_</text>
</g>
<!-- Node10 -->
<g id="Node000010" class="node">
<title>Node10</title>
<g id="a_Node000010"><a xlink:href="class_harlinn_1_1_common_1_1_core_1_1_basic_string.html" target="_top" xlink:title="This is a reference counted string class.">
<polygon fill="white" stroke="#666666" points="586,-30 468,-30 468,0 586,0 586,-30"/>
<text text-anchor="start" x="476" y="-18" font-family="Helvetica,sans-Serif" font-size="10.00">Harlinn::Common::Core</text>
<text text-anchor="middle" x="527" y="-7" font-family="Helvetica,sans-Serif" font-size="10.00">::BasicString&lt; T &gt;</text>
</a>
</g>
</g>
<!-- Node9&#45;&gt;Node10 -->
<g id="edge12_Node000010_Node000009" class="edge">
<title>Node9&#45;&gt;Node10</title>
<g id="a_edge12_Node000010_Node000009"><a xlink:title=" ">
<path fill="none" stroke="#9a32cd" stroke-dasharray="5,2" d="M345.64,-45.7C352.15,-44 358.69,-42.4 365,-41 398.72,-33.52 436.87,-27.26 467.56,-22.76"/>
<polygon fill="#9a32cd" stroke="#9a32cd" points="344.97,-42.25 336.22,-48.22 346.78,-49.01 344.97,-42.25"/>
</a>
</g>
<text text-anchor="middle" x="407.5" y="-44" font-family="Helvetica,sans-Serif" font-size="10.00" fill="grey"> data_</text>
</g>
<!-- Node10&#45;&gt;Node8 -->
<g id="edge11_Node000008_Node000010" class="edge">
<title>Node10&#45;&gt;Node8</title>
<g id="a_edge11_Node000008_Node000010"><a xlink:title=" ">
<path fill="none" stroke="orange" stroke-dasharray="5,2" d="M597.6,-24.03C628.74,-28.47 665.84,-34.3 699,-41 709.86,-43.19 721.37,-45.84 732.42,-48.55"/>
<polygon fill="orange" stroke="orange" points="598.31,-20.59 587.92,-22.67 597.33,-27.52 598.31,-20.59"/>
</a>
</g>
<text text-anchor="middle" x="651.5" y="-44" font-family="Helvetica,sans-Serif" font-size="10.00" fill="grey"> &lt; wchar_t &gt;</text>
</g>
</g>
</svg>
