<?xml version="1.0" encoding="UTF-8" standalone="no"?>
<!DOCTYPE svg PUBLIC "-//W3C//DTD SVG 1.1//EN"
 "http://www.w3.org/Graphics/SVG/1.1/DTD/svg11.dtd">
<!-- Generated by graphviz version 7.0.1 (20221109.1506)
 -->
<!-- Title: Harlinn::Common::Core::IO::CommDeviceDispatcher Pages: 1 -->
<svg width="246pt" height="260pt"
 viewBox="0.00 0.00 246.00 260.00" xmlns="http://www.w3.org/2000/svg" xmlns:xlink="http://www.w3.org/1999/xlink">
<g id="graph0" class="graph" transform="scale(1 1) rotate(0) translate(4 256)">
<title>Harlinn::Common::Core::IO::CommDeviceDispatcher</title>
<!-- Node1 -->
<g id="Node000001" class="node">
<title>Node1</title>
<g id="a_Node000001"><a xlink:title=" ">
<polygon fill="#999999" stroke="#666666" points="142,-30 0,-30 0,0 142,0 142,-30"/>
<text text-anchor="start" x="8" y="-18" font-family="Helvetica,sans-Serif" font-size="10.00">Harlinn::Common::Core</text>
<text text-anchor="middle" x="71" y="-7" font-family="Helvetica,sans-Serif" font-size="10.00">::IO::CommDeviceDispatcher</text>
</a>
</g>
</g>
<!-- Node2 -->
<g id="Node000002" class="node">
<title>Node2</title>
<g id="a_Node000002"><a xlink:href="class_harlinn_1_1_common_1_1_core_1_1_i_o_1_1_comm_device_handler.html" target="_top" xlink:title=" ">
<polygon fill="white" stroke="#666666" points="140,-108 2,-108 2,-67 140,-67 140,-108"/>
<text text-anchor="start" x="10" y="-96" font-family="Helvetica,sans-Serif" font-size="10.00">Harlinn::Common::Core</text>
<text text-anchor="start" x="10" y="-85" font-family="Helvetica,sans-Serif" font-size="10.00">::IO::CommDeviceHandler</text>
<text text-anchor="middle" x="71" y="-74" font-family="Helvetica,sans-Serif" font-size="10.00">&lt; CommDeviceDispatcher &gt;</text>
</a>
</g>
</g>
<!-- Node2&#45;&gt;Node1 -->
<g id="edge1_Node000001_Node000002" class="edge">
<title>Node2&#45;&gt;Node1</title>
<g id="a_edge1_Node000001_Node000002"><a xlink:title=" ">
<path fill="none" stroke="#63b8ff" d="M71,-55.39C71,-46.68 71,-37.62 71,-30.39"/>
<polygon fill="#63b8ff" stroke="#63b8ff" points="67.5,-55.35 71,-65.35 74.5,-55.35 67.5,-55.35"/>
</a>
</g>
</g>
<!-- Node3 -->
<g id="Node000003" class="node">
<title>Node3</title>
<g id="a_Node000003"><a xlink:title=" ">
<polygon fill="white" stroke="#666666" points="108.5,-252 25.5,-252 25.5,-233 108.5,-233 108.5,-252"/>
<text text-anchor="middle" x="67" y="-240" font-family="Helvetica,sans-Serif" font-size="10.00">ContextHandler</text>
</a>
</g>
</g>
<!-- Node3&#45;&gt;Node2 -->
<g id="edge2_Node000002_Node000003" class="edge">
<title>Node3&#45;&gt;Node2</title>
<g id="a_edge2_Node000002_Node000003"><a xlink:title=" ">
<path fill="none" stroke="#63b8ff" d="M67.52,-221.63C68.29,-192.29 69.71,-137.67 70.48,-108.34"/>
<polygon fill="#63b8ff" stroke="#63b8ff" points="64.03,-221.23 67.27,-231.32 71.03,-221.42 64.03,-221.23"/>
</a>
</g>
</g>
<!-- Node4 -->
<g id="Node000004" class="node">
<title>Node4</title>
<g id="a_Node000004"><a xlink:href="class_harlinn_1_1_common_1_1_core_1_1_i_o_1_1_comm_device_handler.html" target="_top" xlink:title=" ">
<polygon fill="white" stroke="#666666" points="211,-196 83,-196 83,-155 211,-155 211,-196"/>
<text text-anchor="start" x="91" y="-184" font-family="Helvetica,sans-Serif" font-size="10.00">Harlinn::Common::Core</text>
<text text-anchor="start" x="91" y="-173" font-family="Helvetica,sans-Serif" font-size="10.00">::IO::CommDeviceHandler</text>
<text text-anchor="middle" x="147" y="-162" font-family="Helvetica,sans-Serif" font-size="10.00">&lt; DerivedT &gt;</text>
</a>
</g>
</g>
<!-- Node3&#45;&gt;Node4 -->
<g id="edge4_Node000004_Node000003" class="edge">
<title>Node3&#45;&gt;Node4</title>
<g id="a_edge4_Node000004_Node000003"><a xlink:title=" ">
<path fill="none" stroke="#63b8ff" d="M86.51,-225.64C97.39,-216.81 111.04,-205.72 122.61,-196.31"/>
<polygon fill="#63b8ff" stroke="#63b8ff" points="84.52,-222.76 78.96,-231.78 88.93,-228.19 84.52,-222.76"/>
</a>
</g>
</g>
<!-- Node4&#45;&gt;Node2 -->
<g id="edge3_Node000002_Node000004" class="edge">
<title>Node4&#45;&gt;Node2</title>
<g id="a_edge3_Node000002_Node000004"><a xlink:title=" ">
<path fill="none" stroke="orange" stroke-dasharray="5,2" d="M121.78,-145.96C110.88,-133.63 98.39,-119.5 88.53,-108.34"/>
<polygon fill="orange" stroke="orange" points="119.13,-148.24 128.37,-153.42 124.37,-143.61 119.13,-148.24"/>
</a>
</g>
<text text-anchor="middle" x="175.5" y="-129" font-family="Helvetica,sans-Serif" font-size="10.00" fill="grey"> &lt; CommDeviceDispatcher &gt;</text>
</g>
</g>
</svg>
