<?xml version="1.0" encoding="UTF-8" standalone="no"?>
<!DOCTYPE svg PUBLIC "-//W3C//DTD SVG 1.1//EN"
 "http://www.w3.org/Graphics/SVG/1.1/DTD/svg11.dtd">
<!-- Generated by graphviz version 7.0.1 (20221109.1506)
 -->
<!-- Title: Harlinn::Common::Core::ZeroMq::ZMQNotificationMemoryStream Pages: 1 -->
<svg width="524pt" height="86pt"
 viewBox="0.00 0.00 524.00 86.00" xmlns="http://www.w3.org/2000/svg" xmlns:xlink="http://www.w3.org/1999/xlink">
<g id="graph0" class="graph" transform="scale(1 1) rotate(0) translate(4 82)">
<title>Harlinn::Common::Core::ZeroMq::ZMQNotificationMemoryStream</title>
<!-- Node1 -->
<g id="Node000001" class="node">
<title>Node1</title>
<g id="a_Node000001"><a xlink:title=" ">
<polygon fill="#999999" stroke="#666666" points="516,-59.5 351,-59.5 351,-18.5 516,-18.5 516,-59.5"/>
<text text-anchor="start" x="359" y="-47.5" font-family="Helvetica,sans-Serif" font-size="10.00">Harlinn::Common::Core</text>
<text text-anchor="start" x="359" y="-36.5" font-family="Helvetica,sans-Serif" font-size="10.00">::ZeroMq::ZMQNotificationMemory</text>
<text text-anchor="middle" x="433.5" y="-25.5" font-family="Helvetica,sans-Serif" font-size="10.00">Stream</text>
</a>
</g>
</g>
<!-- Node2 -->
<g id="Node000002" class="node">
<title>Node2</title>
<g id="a_Node000002"><a xlink:href="class_harlinn_1_1_common_1_1_core_1_1_zero_mq_1_1_z_m_q_notification.xhtml" target="_top" xlink:title=" ">
<polygon fill="white" stroke="#666666" points="315,-78 185,-78 185,-48 315,-48 315,-78"/>
<text text-anchor="start" x="193" y="-66" font-family="Helvetica,sans-Serif" font-size="10.00">Harlinn::Common::Core</text>
<text text-anchor="middle" x="250" y="-55" font-family="Helvetica,sans-Serif" font-size="10.00">::ZeroMq::ZMQNotification</text>
</a>
</g>
</g>
<!-- Node2&#45;&gt;Node1 -->
<g id="edge1_Node000001_Node000002" class="edge">
<title>Node2&#45;&gt;Node1</title>
<g id="a_edge1_Node000001_Node000002"><a xlink:title=" ">
<path fill="none" stroke="#63b8ff" d="M326.66,-53C334.54,-51.95 342.59,-50.89 350.54,-49.84"/>
<polygon fill="#63b8ff" stroke="#63b8ff" points="326.2,-49.53 316.75,-54.31 327.12,-56.47 326.2,-49.53"/>
</a>
</g>
</g>
<!-- Node3 -->
<g id="Node000003" class="node">
<title>Node3</title>
<g id="a_Node000003"><a xlink:title=" ">
<polygon fill="white" stroke="#666666" points="149,-78 0,-78 0,-48 149,-48 149,-78"/>
<text text-anchor="start" x="8" y="-66" font-family="Helvetica,sans-Serif" font-size="10.00">std::enable_shared</text>
<text text-anchor="middle" x="74.5" y="-55" font-family="Helvetica,sans-Serif" font-size="10.00">_from_this&lt; ZMQNotification &gt;</text>
</a>
</g>
</g>
<!-- Node3&#45;&gt;Node2 -->
<g id="edge2_Node000002_Node000003" class="edge">
<title>Node3&#45;&gt;Node2</title>
<g id="a_edge2_Node000002_Node000003"><a xlink:title=" ">
<path fill="none" stroke="#63b8ff" d="M160.66,-63C168.7,-63 176.76,-63 184.56,-63"/>
<polygon fill="#63b8ff" stroke="#63b8ff" points="160.84,-59.5 150.84,-63 160.84,-66.5 160.84,-59.5"/>
</a>
</g>
</g>
<!-- Node4 -->
<g id="Node000004" class="node">
<title>Node4</title>
<g id="a_Node000004"><a xlink:href="class_harlinn_1_1_common_1_1_core_1_1_i_o_1_1_memory_stream.xhtml" target="_top" xlink:title="Creates a stream stored in memory.">
<polygon fill="white" stroke="#666666" points="309,-30 191,-30 191,0 309,0 309,-30"/>
<text text-anchor="start" x="199" y="-18" font-family="Helvetica,sans-Serif" font-size="10.00">Harlinn::Common::Core</text>
<text text-anchor="middle" x="250" y="-7" font-family="Helvetica,sans-Serif" font-size="10.00">::IO::MemoryStream</text>
</a>
</g>
</g>
<!-- Node4&#45;&gt;Node1 -->
<g id="edge3_Node000001_Node000004" class="edge">
<title>Node4&#45;&gt;Node1</title>
<g id="a_edge3_Node000001_Node000004"><a xlink:title=" ">
<path fill="none" stroke="#63b8ff" d="M320.75,-24.22C330.56,-25.52 340.71,-26.86 350.71,-28.19"/>
<polygon fill="#63b8ff" stroke="#63b8ff" points="321.3,-20.77 310.93,-22.92 320.38,-27.71 321.3,-20.77"/>
</a>
</g>
</g>
</g>
</svg>
