<?xml version="1.0" encoding="UTF-8" standalone="no"?>
<!DOCTYPE svg PUBLIC "-//W3C//DTD SVG 1.1//EN"
 "http://www.w3.org/Graphics/SVG/1.1/DTD/svg11.dtd">
<!-- Generated by graphviz version 7.0.1 (20221109.1506)
 -->
<!-- Title: Harlinn::Common::Core::LMDBEx::DatabaseBase Pages: 1 -->
<svg width="794pt" height="66pt"
 viewBox="0.00 0.00 794.00 65.50" xmlns="http://www.w3.org/2000/svg" xmlns:xlink="http://www.w3.org/1999/xlink">
<g id="graph0" class="graph" transform="scale(1 1) rotate(0) translate(4 61.5)">
<title>Harlinn::Common::Core::LMDBEx::DatabaseBase</title>
<!-- Node1 -->
<g id="Node000001" class="node">
<title>Node1</title>
<g id="a_Node000001"><a xlink:title=" ">
<polygon fill="#999999" stroke="#666666" points="131,-51 0,-51 0,-21 131,-21 131,-51"/>
<text text-anchor="start" x="8" y="-39" font-family="Helvetica,sans-Serif" font-size="10.00">Harlinn::Common::Core</text>
<text text-anchor="middle" x="65.5" y="-28" font-family="Helvetica,sans-Serif" font-size="10.00">::LMDBEx::DatabaseBase</text>
</a>
</g>
</g>
<!-- Node2 -->
<g id="Node000002" class="node">
<title>Node2</title>
<g id="a_Node000002"><a xlink:href="class_harlinn_1_1_common_1_1_core_1_1_l_m_d_b_ex_1_1_database.xhtml" target="_top" xlink:title=" ">
<polygon fill="white" stroke="#666666" points="622,-52 444,-52 444,-22 622,-22 622,-52"/>
<text text-anchor="start" x="452" y="-40" font-family="Helvetica,sans-Serif" font-size="10.00">Harlinn::Common::Core</text>
<text text-anchor="middle" x="533" y="-29" font-family="Helvetica,sans-Serif" font-size="10.00">::LMDBEx::Database&lt; LogSession &gt;</text>
</a>
</g>
</g>
<!-- Node1&#45;&gt;Node2 -->
<g id="edge1_Node000001_Node000002" class="edge">
<title>Node1&#45;&gt;Node2</title>
<g id="a_edge1_Node000001_Node000002"><a xlink:title=" ">
<path fill="none" stroke="#63b8ff" d="M142.74,-39.79C144.85,-39.86 146.94,-39.93 149,-40 272.06,-43.89 302.93,-46.48 426,-43 431.71,-42.84 437.59,-42.63 443.52,-42.38"/>
<polygon fill="#63b8ff" stroke="#63b8ff" points="142.98,-36.3 132.86,-39.41 142.71,-43.29 142.98,-36.3"/>
</a>
</g>
</g>
<!-- Node4 -->
<g id="Node000004" class="node">
<title>Node4</title>
<g id="a_Node000004"><a xlink:href="class_harlinn_1_1_common_1_1_core_1_1_l_m_d_b_ex_1_1_database.xhtml" target="_top" xlink:title=" ">
<polygon fill="white" stroke="#666666" points="335,-30 168,-30 168,0 335,0 335,-30"/>
<text text-anchor="start" x="176" y="-18" font-family="Helvetica,sans-Serif" font-size="10.00">Harlinn::Common::Core</text>
<text text-anchor="middle" x="251.5" y="-7" font-family="Helvetica,sans-Serif" font-size="10.00">::LMDBEx::Database&lt; SessionT &gt;</text>
</a>
</g>
</g>
<!-- Node1&#45;&gt;Node4 -->
<g id="edge3_Node000001_Node000004" class="edge">
<title>Node1&#45;&gt;Node4</title>
<g id="a_edge3_Node000001_Node000004"><a xlink:title=" ">
<path fill="none" stroke="#63b8ff" d="M142.78,-27.29C150.94,-26.36 159.28,-25.41 167.52,-24.47"/>
<polygon fill="#63b8ff" stroke="#63b8ff" points="142.41,-23.81 132.88,-28.42 143.21,-30.77 142.41,-23.81"/>
</a>
</g>
</g>
<!-- Node3 -->
<g id="Node000003" class="node">
<title>Node3</title>
<g id="a_Node000003"><a xlink:href="class_harlinn_1_1_common_1_1_core_1_1_logging_1_1_sinks_1_1_storage_1_1_log_database.xhtml" target="_top" xlink:title="LogDatabase.">
<polygon fill="white" stroke="#666666" points="786,-57.5 659,-57.5 659,-16.5 786,-16.5 786,-57.5"/>
<text text-anchor="start" x="667" y="-45.5" font-family="Helvetica,sans-Serif" font-size="10.00">Harlinn::Common::Core</text>
<text text-anchor="start" x="667" y="-34.5" font-family="Helvetica,sans-Serif" font-size="10.00">::Logging::Sinks::Storage</text>
<text text-anchor="middle" x="722.5" y="-23.5" font-family="Helvetica,sans-Serif" font-size="10.00">::LogDatabase</text>
</a>
</g>
</g>
<!-- Node2&#45;&gt;Node3 -->
<g id="edge2_Node000002_Node000003" class="edge">
<title>Node2&#45;&gt;Node3</title>
<g id="a_edge2_Node000002_Node000003"><a xlink:title=" ">
<path fill="none" stroke="#63b8ff" d="M633.76,-37C642.18,-37 650.54,-37 658.55,-37"/>
<polygon fill="#63b8ff" stroke="#63b8ff" points="633.77,-33.5 623.77,-37 633.77,-40.5 633.77,-33.5"/>
</a>
</g>
</g>
<!-- Node4&#45;&gt;Node2 -->
<g id="edge4_Node000004_Node000002" class="edge">
<title>Node4&#45;&gt;Node2</title>
<g id="a_edge4_Node000004_Node000002"><a xlink:title=" ">
<path fill="none" stroke="orange" stroke-dasharray="5,2" d="M346.61,-22.41C377.96,-24.87 412.75,-27.61 443.65,-30.05"/>
<polygon fill="orange" stroke="orange" points="346.98,-18.93 336.73,-21.63 346.43,-25.9 346.98,-18.93"/>
</a>
</g>
<text text-anchor="middle" x="389.5" y="-31" font-family="Helvetica,sans-Serif" font-size="10.00" fill="grey"> &lt; LogSession &gt;</text>
</g>
</g>
</svg>
