<?xml version="1.0" encoding="UTF-8" standalone="no"?>
<!DOCTYPE svg PUBLIC "-//W3C//DTD SVG 1.1//EN"
 "http://www.w3.org/Graphics/SVG/1.1/DTD/svg11.dtd">
<!-- Generated by graphviz version 7.0.1 (20221109.1506)
 -->
<!-- Title: Harlinn::Common::Core::LocationReportFactory Pages: 1 -->
<svg width="613pt" height="86pt"
 viewBox="0.00 0.00 613.00 86.00" xmlns="http://www.w3.org/2000/svg" xmlns:xlink="http://www.w3.org/1999/xlink">
<g id="graph0" class="graph" transform="scale(1 1) rotate(0) translate(4 82)">
<title>Harlinn::Common::Core::LocationReportFactory</title>
<!-- Node1 -->
<g id="Node000001" class="node">
<title>Node1</title>
<g id="a_Node000001"><a xlink:title=" ">
<polygon fill="#999999" stroke="#666666" points="429,-54 308,-54 308,-24 429,-24 429,-54"/>
<text text-anchor="start" x="316" y="-42" font-family="Helvetica,sans-Serif" font-size="10.00">Harlinn::Common::Core</text>
<text text-anchor="middle" x="368.5" y="-31" font-family="Helvetica,sans-Serif" font-size="10.00">::LocationReportFactory</text>
</a>
</g>
</g>
<!-- Node4 -->
<g id="Node000004" class="node">
<title>Node4</title>
<g id="a_Node000004"><a xlink:href="class_harlinn_1_1_common_1_1_core_1_1_civic_address_report_factory.xhtml" target="_top" xlink:title=" ">
<polygon fill="white" stroke="#666666" points="605,-78 465,-78 465,-48 605,-48 605,-78"/>
<text text-anchor="start" x="473" y="-66" font-family="Helvetica,sans-Serif" font-size="10.00">Harlinn::Common::Core</text>
<text text-anchor="middle" x="535" y="-55" font-family="Helvetica,sans-Serif" font-size="10.00">::CivicAddressReportFactory</text>
</a>
</g>
</g>
<!-- Node1&#45;&gt;Node4 -->
<g id="edge3_Node000001_Node000004" class="edge">
<title>Node1&#45;&gt;Node4</title>
<g id="a_edge3_Node000001_Node000004"><a xlink:title=" ">
<path fill="none" stroke="#63b8ff" d="M440.55,-49.37C448.56,-50.53 456.71,-51.72 464.7,-52.89"/>
<polygon fill="#63b8ff" stroke="#63b8ff" points="441.25,-45.93 430.85,-47.95 440.24,-52.86 441.25,-45.93"/>
</a>
</g>
</g>
<!-- Node5 -->
<g id="Node000005" class="node">
<title>Node5</title>
<g id="a_Node000005"><a xlink:href="class_harlinn_1_1_common_1_1_core_1_1_lat_long_report_factory.xhtml" target="_top" xlink:title=" ">
<polygon fill="white" stroke="#666666" points="594.5,-30 475.5,-30 475.5,0 594.5,0 594.5,-30"/>
<text text-anchor="start" x="483.5" y="-18" font-family="Helvetica,sans-Serif" font-size="10.00">Harlinn::Common::Core</text>
<text text-anchor="middle" x="535" y="-7" font-family="Helvetica,sans-Serif" font-size="10.00">::LatLongReportFactory</text>
</a>
</g>
</g>
<!-- Node1&#45;&gt;Node5 -->
<g id="edge4_Node000001_Node000005" class="edge">
<title>Node1&#45;&gt;Node5</title>
<g id="a_edge4_Node000001_Node000005"><a xlink:title=" ">
<path fill="none" stroke="#63b8ff" d="M440.68,-28.62C452.14,-26.94 463.89,-25.23 475.02,-23.61"/>
<polygon fill="#63b8ff" stroke="#63b8ff" points="440.24,-25.14 430.85,-30.05 441.25,-32.07 440.24,-25.14"/>
</a>
</g>
</g>
<!-- Node2 -->
<g id="Node000002" class="node">
<title>Node2</title>
<g id="a_Node000002"><a xlink:href="class_harlinn_1_1_common_1_1_core_1_1_dispatch.xhtml" target="_top" xlink:title="Exposes objects, methods and properties to programming tools and other applications that support Auto...">
<polygon fill="white" stroke="#666666" points="272,-54 154,-54 154,-24 272,-24 272,-54"/>
<text text-anchor="start" x="162" y="-42" font-family="Helvetica,sans-Serif" font-size="10.00">Harlinn::Common::Core</text>
<text text-anchor="middle" x="213" y="-31" font-family="Helvetica,sans-Serif" font-size="10.00">::Dispatch</text>
</a>
</g>
</g>
<!-- Node2&#45;&gt;Node1 -->
<g id="edge1_Node000001_Node000002" class="edge">
<title>Node2&#45;&gt;Node1</title>
<g id="a_edge1_Node000001_Node000002"><a xlink:title=" ">
<path fill="none" stroke="#63b8ff" d="M283.96,-39C291.88,-39 299.89,-39 307.67,-39"/>
<polygon fill="#63b8ff" stroke="#63b8ff" points="283.98,-35.5 273.98,-39 283.98,-42.5 283.98,-35.5"/>
</a>
</g>
</g>
<!-- Node3 -->
<g id="Node000003" class="node">
<title>Node3</title>
<g id="a_Node000003"><a xlink:href="class_harlinn_1_1_common_1_1_core_1_1_unknown.xhtml" target="_top" xlink:title=" ">
<polygon fill="white" stroke="#666666" points="118,-54 0,-54 0,-24 118,-24 118,-54"/>
<text text-anchor="start" x="8" y="-42" font-family="Helvetica,sans-Serif" font-size="10.00">Harlinn::Common::Core</text>
<text text-anchor="middle" x="59" y="-31" font-family="Helvetica,sans-Serif" font-size="10.00">::Unknown</text>
</a>
</g>
</g>
<!-- Node3&#45;&gt;Node2 -->
<g id="edge2_Node000002_Node000003" class="edge">
<title>Node3&#45;&gt;Node2</title>
<g id="a_edge2_Node000002_Node000003"><a xlink:title=" ">
<path fill="none" stroke="#63b8ff" d="M129.57,-39C137.6,-39 145.72,-39 153.57,-39"/>
<polygon fill="#63b8ff" stroke="#63b8ff" points="129.85,-35.5 119.85,-39 129.85,-42.5 129.85,-35.5"/>
</a>
</g>
</g>
</g>
</svg>
