<?xml version="1.0" encoding="UTF-8" standalone="no"?>
<!DOCTYPE svg PUBLIC "-//W3C//DTD SVG 1.1//EN"
 "http://www.w3.org/Graphics/SVG/1.1/DTD/svg11.dtd">
<!-- Generated by graphviz version 7.0.1 (20221109.1506)
 -->
<!-- Title: Harlinn::Common::Core::Math::Point2i Pages: 1 -->
<svg width="735pt" height="99pt"
 viewBox="0.00 0.00 735.00 99.00" xmlns="http://www.w3.org/2000/svg" xmlns:xlink="http://www.w3.org/1999/xlink">
<g id="graph0" class="graph" transform="scale(1 1) rotate(0) translate(4 95)">
<title>Harlinn::Common::Core::Math::Point2i</title>
<!-- Node1 -->
<g id="Node000001" class="node">
<title>Node1</title>
<g id="a_Node000001"><a xlink:title=" ">
<polygon fill="#999999" stroke="#666666" points="727,-42 609,-42 609,-12 727,-12 727,-42"/>
<text text-anchor="start" x="617" y="-30" font-family="Helvetica,sans-Serif" font-size="10.00">Harlinn::Common::Core</text>
<text text-anchor="middle" x="668" y="-19" font-family="Helvetica,sans-Serif" font-size="10.00">::Math::Point2i</text>
</a>
</g>
</g>
<!-- Node2 -->
<g id="Node000002" class="node">
<title>Node2</title>
<g id="a_Node000002"><a xlink:href="class_harlinn_1_1_common_1_1_core_1_1_math_1_1_tuple2.html" target="_top" xlink:title=" ">
<polygon fill="white" stroke="#666666" points="566,-89.5 445,-89.5 445,-48.5 566,-48.5 566,-89.5"/>
<text text-anchor="start" x="453" y="-77.5" font-family="Helvetica,sans-Serif" font-size="10.00">Harlinn::Common::Core</text>
<text text-anchor="start" x="453" y="-66.5" font-family="Helvetica,sans-Serif" font-size="10.00">::Math::Tuple2&lt; Point2i,</text>
<text text-anchor="middle" x="505.5" y="-55.5" font-family="Helvetica,sans-Serif" font-size="10.00"> Int32 &gt;</text>
</a>
</g>
</g>
<!-- Node2&#45;&gt;Node1 -->
<g id="edge1_Node000001_Node000002" class="edge">
<title>Node2&#45;&gt;Node1</title>
<g id="a_edge1_Node000001_Node000002"><a xlink:title=" ">
<path fill="none" stroke="#63b8ff" d="M577.09,-50.53C587.59,-47.78 598.31,-44.98 608.52,-42.3"/>
<polygon fill="#63b8ff" stroke="#63b8ff" points="576.52,-47.06 567.73,-52.98 578.29,-53.83 576.52,-47.06"/>
</a>
</g>
</g>
<!-- Node3 -->
<g id="Node000003" class="node">
<title>Node3</title>
<g id="a_Node000003"><a xlink:href="struct_harlinn_1_1_common_1_1_core_1_1_math_1_1_internal_1_1_tuple_base.html" target="_top" xlink:title=" ">
<polygon fill="white" stroke="#666666" points="134,-91 0,-91 0,-61 134,-61 134,-91"/>
<text text-anchor="start" x="8" y="-79" font-family="Helvetica,sans-Serif" font-size="10.00">Harlinn::Common::Core</text>
<text text-anchor="middle" x="67" y="-68" font-family="Helvetica,sans-Serif" font-size="10.00">::Math::Internal::TupleBase</text>
</a>
</g>
</g>
<!-- Node3&#45;&gt;Node2 -->
<g id="edge2_Node000002_Node000003" class="edge">
<title>Node3&#45;&gt;Node2</title>
<g id="a_edge2_Node000002_Node000003"><a xlink:title=" ">
<path fill="none" stroke="#63b8ff" d="M145.52,-75.67C217.05,-75.23 326.2,-74.24 421,-72 428.69,-71.82 436.77,-71.58 444.75,-71.32"/>
<polygon fill="#63b8ff" stroke="#63b8ff" points="145.86,-72.17 135.88,-75.73 145.9,-79.17 145.86,-72.17"/>
</a>
</g>
</g>
<!-- Node4 -->
<g id="Node000004" class="node">
<title>Node4</title>
<g id="a_Node000004"><a xlink:href="class_harlinn_1_1_common_1_1_core_1_1_math_1_1_tuple2.html" target="_top" xlink:title="A tuple holding two numbers.">
<polygon fill="white" stroke="#666666" points="324,-58 179,-58 179,-28 324,-28 324,-58"/>
<text text-anchor="start" x="187" y="-46" font-family="Helvetica,sans-Serif" font-size="10.00">Harlinn::Common::Core</text>
<text text-anchor="middle" x="251.5" y="-35" font-family="Helvetica,sans-Serif" font-size="10.00">::Math::Tuple2&lt; DerivedT, T &gt;</text>
</a>
</g>
</g>
<!-- Node3&#45;&gt;Node4 -->
<g id="edge4_Node000004_Node000003" class="edge">
<title>Node3&#45;&gt;Node4</title>
<g id="a_edge4_Node000004_Node000003"><a xlink:title=" ">
<path fill="none" stroke="#63b8ff" d="M145.67,-61.96C156.6,-59.98 167.79,-57.96 178.6,-56"/>
<polygon fill="#63b8ff" stroke="#63b8ff" points="145.11,-58.5 135.89,-63.72 146.36,-65.39 145.11,-58.5"/>
</a>
</g>
</g>
<!-- Node4&#45;&gt;Node2 -->
<g id="edge3_Node000002_Node000004" class="edge">
<title>Node4&#45;&gt;Node2</title>
<g id="a_edge3_Node000002_Node000004"><a xlink:title=" ">
<path fill="none" stroke="orange" stroke-dasharray="5,2" d="M335.76,-51.59C371.43,-55.27 412.29,-59.49 444.87,-62.85"/>
<polygon fill="orange" stroke="orange" points="336.19,-48.12 325.88,-50.57 335.47,-55.08 336.19,-48.12"/>
</a>
</g>
<text text-anchor="middle" x="381.5" y="-62" font-family="Helvetica,sans-Serif" font-size="10.00" fill="grey"> &lt; Point2i, Int32 &gt;</text>
</g>
<!-- Node5 -->
<g id="Node000005" class="node">
<title>Node5</title>
<g id="a_Node000005"><a xlink:title=" ">
<polygon fill="white" stroke="#666666" points="81.5,-33.5 52.5,-33.5 52.5,-14.5 81.5,-14.5 81.5,-33.5"/>
<text text-anchor="middle" x="67" y="-21.5" font-family="Helvetica,sans-Serif" font-size="10.00">T</text>
</a>
</g>
</g>
<!-- Node5&#45;&gt;Node4 -->
<g id="edge5_Node000004_Node000005" class="edge">
<title>Node5&#45;&gt;Node4</title>
<g id="a_edge5_Node000004_Node000005"><a xlink:title=" ">
<path fill="none" stroke="#9a32cd" stroke-dasharray="5,2" d="M93.31,-22.99C112.06,-22.56 138.19,-22.6 161,-25 167.15,-25.65 173.5,-26.51 179.85,-27.52"/>
<polygon fill="#9a32cd" stroke="#9a32cd" points="93.31,-19.49 83.43,-23.29 93.53,-26.49 93.31,-19.49"/>
</a>
</g>
<text text-anchor="middle" x="156.5" y="-39" font-family="Helvetica,sans-Serif" font-size="10.00" fill="grey"> x</text>
<text text-anchor="middle" x="156.5" y="-28" font-family="Helvetica,sans-Serif" font-size="10.00" fill="grey">y</text>
</g>
<!-- Node6 -->
<g id="Node000006" class="node">
<title>Node6</title>
<g id="a_Node000006"><a xlink:href="struct_harlinn_1_1_common_1_1_core_1_1_math_1_1_internal_1_1_point_base.html" target="_top" xlink:title=" ">
<polygon fill="white" stroke="#666666" points="572,-30 439,-30 439,0 572,0 572,-30"/>
<text text-anchor="start" x="447" y="-18" font-family="Helvetica,sans-Serif" font-size="10.00">Harlinn::Common::Core</text>
<text text-anchor="middle" x="505.5" y="-7" font-family="Helvetica,sans-Serif" font-size="10.00">::Math::Internal::PointBase</text>
</a>
</g>
</g>
<!-- Node6&#45;&gt;Node1 -->
<g id="edge6_Node000001_Node000006" class="edge">
<title>Node6&#45;&gt;Node1</title>
<g id="a_edge6_Node000001_Node000006"><a xlink:title=" ">
<path fill="none" stroke="#63b8ff" d="M583.62,-20.77C592.01,-21.39 600.45,-22.02 608.56,-22.63"/>
<polygon fill="#63b8ff" stroke="#63b8ff" points="583.99,-17.28 573.75,-20.03 583.47,-24.26 583.99,-17.28"/>
</a>
</g>
</g>
</g>
</svg>
