<?xml version="1.0" encoding="UTF-8" standalone="no"?>
<!DOCTYPE svg PUBLIC "-//W3C//DTD SVG 1.1//EN"
 "http://www.w3.org/Graphics/SVG/1.1/DTD/svg11.dtd">
<!-- Generated by graphviz version 7.0.1 (20221109.1506)
 -->
<!-- Title: Harlinn::Common::Core::Security::TokenGroupsAndPrivileges Pages: 1 -->
<svg width="913pt" height="133pt"
 viewBox="0.00 0.00 913.00 133.00" xmlns="http://www.w3.org/2000/svg" xmlns:xlink="http://www.w3.org/1999/xlink">
<g id="graph0" class="graph" transform="scale(1 1) rotate(0) translate(4 129)">
<title>Harlinn::Common::Core::Security::TokenGroupsAndPrivileges</title>
<!-- Node1 -->
<g id="Node000001" class="node">
<title>Node1</title>
<g id="a_Node000001"><a xlink:title="A Wrapper/binary compatible replacement for the Windows TOKEN_GROUPS_AND_PRIVILEGES type.">
<polygon fill="#999999" stroke="#666666" points="905,-81 724,-81 724,-51 905,-51 905,-81"/>
<text text-anchor="start" x="732" y="-69" font-family="Helvetica,sans-Serif" font-size="10.00">Harlinn::Common::Core</text>
<text text-anchor="middle" x="814.5" y="-58" font-family="Helvetica,sans-Serif" font-size="10.00">::Security::TokenGroupsAndPrivileges</text>
</a>
</g>
</g>
<!-- Node2 -->
<g id="Node000002" class="node">
<title>Node2</title>
<g id="a_Node000002"><a xlink:href="struct_harlinn_1_1_common_1_1_core_1_1_security_1_1_token_groups_and_privileges_1_1_data.xhtml" target="_top" xlink:title=" ">
<polygon fill="white" stroke="#666666" points="660,-81 453,-81 453,-51 660,-51 660,-81"/>
<text text-anchor="start" x="461" y="-69" font-family="Helvetica,sans-Serif" font-size="10.00">Harlinn::Common::Core</text>
<text text-anchor="middle" x="556.5" y="-58" font-family="Helvetica,sans-Serif" font-size="10.00">::Security::TokenGroupsAndPrivileges::Data</text>
</a>
</g>
</g>
<!-- Node2&#45;&gt;Node1 -->
<g id="edge1_Node000001_Node000002" class="edge">
<title>Node2&#45;&gt;Node1</title>
<g id="a_edge1_Node000001_Node000002"><a xlink:title=" ">
<path fill="none" stroke="#9a32cd" stroke-dasharray="5,2" d="M671.55,-66C689,-66 706.79,-66 723.62,-66"/>
<polygon fill="#9a32cd" stroke="#9a32cd" points="671.66,-62.5 661.66,-66 671.66,-69.5 671.66,-62.5"/>
</a>
</g>
<text text-anchor="middle" x="692" y="-69" font-family="Helvetica,sans-Serif" font-size="10.00" fill="grey"> data_</text>
</g>
<!-- Node3 -->
<g id="Node000003" class="node">
<title>Node3</title>
<g id="a_Node000003"><a xlink:href="class_harlinn_1_1_common_1_1_core_1_1_security_1_1_security_id_and_flags.xhtml" target="_top" xlink:title=" ">
<polygon fill="white" stroke="#666666" points="350,-125 201,-125 201,-95 350,-95 350,-125"/>
<text text-anchor="start" x="209" y="-113" font-family="Helvetica,sans-Serif" font-size="10.00">Harlinn::Common::Core</text>
<text text-anchor="middle" x="275.5" y="-102" font-family="Helvetica,sans-Serif" font-size="10.00">::Security::SecurityIdAndFlags</text>
</a>
</g>
</g>
<!-- Node3&#45;&gt;Node2 -->
<g id="edge2_Node000002_Node000003" class="edge">
<title>Node3&#45;&gt;Node2</title>
<g id="a_edge2_Node000002_Node000003"><a xlink:title=" ">
<path fill="none" stroke="#9a32cd" stroke-dasharray="5,2" d="M361.53,-96.59C391.74,-91.83 425.99,-86.42 457.22,-81.5"/>
<polygon fill="#9a32cd" stroke="#9a32cd" points="361,-93.13 351.66,-98.15 362.09,-100.05 361,-93.13"/>
</a>
</g>
<text text-anchor="middle" x="401.5" y="-108" font-family="Helvetica,sans-Serif" font-size="10.00" fill="grey"> RestrictedSids</text>
<text text-anchor="middle" x="401.5" y="-97" font-family="Helvetica,sans-Serif" font-size="10.00" fill="grey">Sids</text>
</g>
<!-- Node4 -->
<g id="Node000004" class="node">
<title>Node4</title>
<g id="a_Node000004"><a xlink:href="struct_harlinn_1_1_common_1_1_core_1_1_security_1_1_token_privilege.xhtml" target="_top" xlink:title="A binary compatible replacement for the Windows LUID_AND_ATTRIBUTES for use with the TokenPrivileges ...">
<polygon fill="white" stroke="#666666" points="339,-30 212,-30 212,0 339,0 339,-30"/>
<text text-anchor="start" x="220" y="-18" font-family="Helvetica,sans-Serif" font-size="10.00">Harlinn::Common::Core</text>
<text text-anchor="middle" x="275.5" y="-7" font-family="Helvetica,sans-Serif" font-size="10.00">::Security::TokenPrivilege</text>
</a>
</g>
</g>
<!-- Node4&#45;&gt;Node2 -->
<g id="edge3_Node000002_Node000004" class="edge">
<title>Node4&#45;&gt;Node2</title>
<g id="a_edge3_Node000002_Node000004"><a xlink:title=" ">
<path fill="none" stroke="#9a32cd" stroke-dasharray="5,2" d="M350.65,-26.5C377.29,-30.81 407.53,-35.9 435,-41 450.65,-43.91 467.4,-47.24 483.28,-50.5"/>
<polygon fill="#9a32cd" stroke="#9a32cd" points="351.39,-23.08 340.96,-24.95 350.28,-29.99 351.39,-23.08"/>
</a>
</g>
<text text-anchor="middle" x="401.5" y="-44" font-family="Helvetica,sans-Serif" font-size="10.00" fill="grey"> Privileges</text>
</g>
<!-- Node5 -->
<g id="Node000005" class="node">
<title>Node5</title>
<g id="a_Node000005"><a xlink:href="class_harlinn_1_1_common_1_1_core_1_1_security_1_1_local_unique_id.xhtml" target="_top" xlink:title="An LocalUniqueId is a 64&#45;bit value guaranteed to be unique only on the system on which it was generat...">
<polygon fill="white" stroke="#666666" points="125,-56 0,-56 0,-26 125,-26 125,-56"/>
<text text-anchor="start" x="8" y="-44" font-family="Helvetica,sans-Serif" font-size="10.00">Harlinn::Common::Core</text>
<text text-anchor="middle" x="62.5" y="-33" font-family="Helvetica,sans-Serif" font-size="10.00">::Security::LocalUniqueId</text>
</a>
</g>
</g>
<!-- Node5&#45;&gt;Node2 -->
<g id="edge5_Node000002_Node000005" class="edge">
<title>Node5&#45;&gt;Node2</title>
<g id="a_edge5_Node000002_Node000005"><a xlink:title=" ">
<path fill="none" stroke="#9a32cd" stroke-dasharray="5,2" d="M136.38,-46.59C138.61,-46.73 140.82,-46.87 143,-47 248.55,-53.41 369.41,-58.74 452.9,-62.11"/>
<polygon fill="#9a32cd" stroke="#9a32cd" points="136.84,-43.11 126.63,-45.93 136.37,-50.09 136.84,-43.11"/>
</a>
</g>
<text text-anchor="middle" x="275.5" y="-61" font-family="Helvetica,sans-Serif" font-size="10.00" fill="grey"> AuthenticationId</text>
</g>
<!-- Node5&#45;&gt;Node4 -->
<g id="edge4_Node000004_Node000005" class="edge">
<title>Node5&#45;&gt;Node4</title>
<g id="a_edge4_Node000004_Node000005"><a xlink:title=" ">
<path fill="none" stroke="#9a32cd" stroke-dasharray="5,2" d="M136.74,-31.97C161.1,-28.97 188.01,-25.66 211.52,-22.76"/>
<polygon fill="#9a32cd" stroke="#9a32cd" points="136.38,-28.49 126.88,-33.19 137.24,-35.44 136.38,-28.49"/>
</a>
</g>
<text text-anchor="middle" x="163" y="-35" font-family="Helvetica,sans-Serif" font-size="10.00" fill="grey"> Privilege</text>
</g>
</g>
</svg>
