<?xml version="1.0" encoding="UTF-8" standalone="no"?>
<!DOCTYPE svg PUBLIC "-//W3C//DTD SVG 1.1//EN"
 "http://www.w3.org/Graphics/SVG/1.1/DTD/svg11.dtd">
<!-- Generated by graphviz version 7.0.1 (20221109.1506)
 -->
<!-- Title: Harlinn::OCI::DescriptorArrayBind&lt; OracleT, handleType, externalType &gt; Pages: 1 -->
<svg width="1830pt" height="675pt"
 viewBox="0.00 0.00 1830.00 674.50" xmlns="http://www.w3.org/2000/svg" xmlns:xlink="http://www.w3.org/1999/xlink">
<g id="graph0" class="graph" transform="scale(1 1) rotate(0) translate(4 670.5)">
<title>Harlinn::OCI::DescriptorArrayBind&lt; OracleT, handleType, externalType &gt;</title>
<!-- Node1 -->
<g id="Node000001" class="node">
<title>Node1</title>
<g id="a_Node000001"><a xlink:title="DescriptorArrayBind.">
<polygon fill="#999999" stroke="#666666" points="1822,-665.5 1661,-665.5 1661,-624.5 1822,-624.5 1822,-665.5"/>
<text text-anchor="start" x="1669" y="-653.5" font-family="Helvetica,sans-Serif" font-size="10.00">Harlinn::OCI::Descriptor</text>
<text text-anchor="start" x="1669" y="-642.5" font-family="Helvetica,sans-Serif" font-size="10.00">ArrayBind&lt; OracleT, handleType,</text>
<text text-anchor="middle" x="1741.5" y="-631.5" font-family="Helvetica,sans-Serif" font-size="10.00"> externalType &gt;</text>
</a>
</g>
</g>
<!-- Node2 -->
<g id="Node000002" class="node">
<title>Node2</title>
<g id="a_Node000002"><a xlink:href="class_harlinn_1_1_o_c_i_1_1_descriptor_array_base_bind.xhtml" target="_top" xlink:title="DescriptorArrayBaseBind.">
<polygon fill="white" stroke="#666666" points="1531,-630 1412,-630 1412,-600 1531,-600 1531,-630"/>
<text text-anchor="start" x="1420" y="-618" font-family="Helvetica,sans-Serif" font-size="10.00">Harlinn::OCI::Descriptor</text>
<text text-anchor="middle" x="1471.5" y="-607" font-family="Helvetica,sans-Serif" font-size="10.00">ArrayBaseBind</text>
</a>
</g>
</g>
<!-- Node2&#45;&gt;Node1 -->
<g id="edge1_Node000001_Node000002" class="edge">
<title>Node2&#45;&gt;Node1</title>
<g id="a_edge1_Node000001_Node000002"><a xlink:title=" ">
<path fill="none" stroke="#63b8ff" d="M1542.29,-622.81C1578.58,-626.87 1623.09,-631.86 1660.73,-636.07"/>
<polygon fill="#63b8ff" stroke="#63b8ff" points="1543.15,-619.39 1532.82,-621.75 1542.37,-626.34 1543.15,-619.39"/>
</a>
</g>
</g>
<!-- Node3 -->
<g id="Node000003" class="node">
<title>Node3</title>
<g id="a_Node000003"><a xlink:href="class_harlinn_1_1_o_c_i_1_1_array_bind.xhtml" target="_top" xlink:title="ArrayBind, base class for binding an array of values.">
<polygon fill="white" stroke="#666666" points="1297.5,-627.5 1179.5,-627.5 1179.5,-608.5 1297.5,-608.5 1297.5,-627.5"/>
<text text-anchor="middle" x="1238.5" y="-615.5" font-family="Helvetica,sans-Serif" font-size="10.00">Harlinn::OCI::ArrayBind</text>
</a>
</g>
</g>
<!-- Node3&#45;&gt;Node2 -->
<g id="edge2_Node000002_Node000003" class="edge">
<title>Node3&#45;&gt;Node2</title>
<g id="a_edge2_Node000002_Node000003"><a xlink:title=" ">
<path fill="none" stroke="#63b8ff" d="M1309.12,-617.1C1341.9,-616.67 1380.56,-616.17 1411.83,-615.76"/>
<polygon fill="#63b8ff" stroke="#63b8ff" points="1309.26,-613.59 1299.3,-617.22 1309.35,-620.59 1309.26,-613.59"/>
</a>
</g>
</g>
<!-- Node4 -->
<g id="Node000004" class="node">
<title>Node4</title>
<g id="a_Node000004"><a xlink:href="class_harlinn_1_1_o_c_i_1_1_bind_base.xhtml" target="_top" xlink:title="BindBase, base class for binds.">
<polygon fill="white" stroke="#666666" points="997.5,-493.5 880.5,-493.5 880.5,-474.5 997.5,-474.5 997.5,-493.5"/>
<text text-anchor="middle" x="939" y="-481.5" font-family="Helvetica,sans-Serif" font-size="10.00">Harlinn::OCI::BindBase</text>
</a>
</g>
</g>
<!-- Node4&#45;&gt;Node3 -->
<g id="edge3_Node000003_Node000004" class="edge">
<title>Node4&#45;&gt;Node3</title>
<g id="a_edge3_Node000003_Node000004"><a xlink:title=" ">
<path fill="none" stroke="#63b8ff" d="M978.77,-497.67C1039.81,-519.22 1151.89,-558.88 1156,-561 1182.39,-574.62 1210.11,-595.67 1225.46,-608.02"/>
<polygon fill="#63b8ff" stroke="#63b8ff" points="980.02,-494.4 969.43,-494.38 977.69,-501 980.02,-494.4"/>
</a>
</g>
</g>
<!-- Node17 -->
<g id="Node000017" class="node">
<title>Node17</title>
<g id="a_Node000017"><a xlink:title=" ">
<polygon fill="white" stroke="#666666" points="1298.5,-522 1178.5,-522 1178.5,-492 1298.5,-492 1298.5,-522"/>
<text text-anchor="start" x="1186.5" y="-510" font-family="Helvetica,sans-Serif" font-size="10.00">std::unique_ptr&lt; Harlinn</text>
<text text-anchor="middle" x="1238.5" y="-499" font-family="Helvetica,sans-Serif" font-size="10.00">::OCI::BindBase &gt;</text>
</a>
</g>
</g>
<!-- Node4&#45;&gt;Node17 -->
<g id="edge33_Node000017_Node000004" class="edge">
<title>Node4&#45;&gt;Node17</title>
<g id="a_edge33_Node000017_Node000004"><a xlink:title=" ">
<path fill="none" stroke="#9a32cd" stroke-dasharray="5,2" d="M1009.16,-487.07C1051.59,-489.22 1106.99,-492.52 1156,-497 1163.24,-497.66 1170.83,-498.46 1178.34,-499.3"/>
<polygon fill="#9a32cd" stroke="#9a32cd" points="1009.5,-483.58 999.34,-486.58 1009.16,-490.57 1009.5,-483.58"/>
</a>
</g>
<text text-anchor="middle" x="1088" y="-500" font-family="Helvetica,sans-Serif" font-size="10.00" fill="grey"> ptr</text>
</g>
<!-- Node5 -->
<g id="Node000005" class="node">
<title>Node5</title>
<g id="a_Node000005"><a xlink:href="class_harlinn_1_1_o_c_i_1_1_handle_base.xhtml" target="_top" xlink:title="Base class for OCI handle wrappers.">
<polygon fill="white" stroke="#666666" points="483,-303.5 355,-303.5 355,-284.5 483,-284.5 483,-303.5"/>
<text text-anchor="middle" x="419" y="-291.5" font-family="Helvetica,sans-Serif" font-size="10.00">Harlinn::OCI::HandleBase</text>
</a>
</g>
</g>
<!-- Node5&#45;&gt;Node4 -->
<g id="edge4_Node000004_Node000005" class="edge">
<title>Node5&#45;&gt;Node4</title>
<g id="a_edge4_Node000004_Node000005"><a xlink:title=" ">
<path fill="none" stroke="#63b8ff" d="M427.21,-314.22C438.36,-342.28 462.58,-392.36 501,-417 508.95,-422.1 763.45,-459.03 880.33,-475.78"/>
<polygon fill="#63b8ff" stroke="#63b8ff" points="430.57,-313.21 423.77,-305.09 424.03,-315.69 430.57,-313.21"/>
</a>
</g>
</g>
<!-- Node6 -->
<g id="Node000006" class="node">
<title>Node6</title>
<g id="a_Node000006"><a xlink:href="class_harlinn_1_1_o_c_i_1_1_statement.xhtml" target="_top" xlink:title="Statement, the context that identifies a SQL or PL/SQL statement and its associated attributes.">
<polygon fill="white" stroke="#666666" points="1801.5,-368.5 1681.5,-368.5 1681.5,-349.5 1801.5,-349.5 1801.5,-368.5"/>
<text text-anchor="middle" x="1741.5" y="-356.5" font-family="Helvetica,sans-Serif" font-size="10.00">Harlinn::OCI::Statement</text>
</a>
</g>
</g>
<!-- Node5&#45;&gt;Node6 -->
<g id="edge6_Node000006_Node000005" class="edge">
<title>Node5&#45;&gt;Node6</title>
<g id="a_edge6_Node000006_Node000005"><a xlink:title=" ">
<path fill="none" stroke="#63b8ff" d="M434.72,-312.45C449.55,-329.68 474.05,-354.7 501,-368 580.35,-407.16 608.51,-403 697,-403 697,-403 697,-403 1472.5,-403 1555.96,-403 1652.12,-381.97 1703.53,-368.98"/>
<polygon fill="#63b8ff" stroke="#63b8ff" points="437.57,-310.41 428.49,-304.96 432.19,-314.88 437.57,-310.41"/>
</a>
</g>
</g>
<!-- Node7 -->
<g id="Node000007" class="node">
<title>Node7</title>
<g id="a_Node000007"><a xlink:href="class_harlinn_1_1_o_c_i_1_1_service_context.xhtml" target="_top" xlink:title="ServiceContext &#45; A service context handle defines attributes that determine the operational context f...">
<polygon fill="white" stroke="#666666" points="1541.5,-151.5 1401.5,-151.5 1401.5,-132.5 1541.5,-132.5 1541.5,-151.5"/>
<text text-anchor="middle" x="1471.5" y="-139.5" font-family="Helvetica,sans-Serif" font-size="10.00">Harlinn::OCI::ServiceContext</text>
</a>
</g>
</g>
<!-- Node5&#45;&gt;Node7 -->
<g id="edge8_Node000007_Node000005" class="edge">
<title>Node5&#45;&gt;Node7</title>
<g id="a_edge8_Node000007_Node000005"><a xlink:title=" ">
<path fill="none" stroke="#63b8ff" d="M427.57,-273.46C453.64,-206.68 546.48,0 697,0 697,0 697,0 1239.5,0 1340.71,0 1434.85,-100.16 1462.41,-132.24"/>
<polygon fill="#63b8ff" stroke="#63b8ff" points="424.3,-272.21 424.02,-282.8 430.84,-274.7 424.3,-272.21"/>
</a>
</g>
</g>
<!-- Node8 -->
<g id="Node000008" class="node">
<title>Node8</title>
<g id="a_Node000008"><a xlink:href="class_harlinn_1_1_o_c_i_1_1_environment.xhtml" target="_top" xlink:title="The environment handle defines a context in which all OCI functions are invoked.">
<polygon fill="white" stroke="#666666" points="762,-192.5 634,-192.5 634,-173.5 762,-173.5 762,-192.5"/>
<text text-anchor="middle" x="698" y="-180.5" font-family="Helvetica,sans-Serif" font-size="10.00">Harlinn::OCI::Environment</text>
</a>
</g>
</g>
<!-- Node5&#45;&gt;Node8 -->
<g id="edge10_Node000008_Node000005" class="edge">
<title>Node5&#45;&gt;Node8</title>
<g id="a_edge10_Node000008_Node000005"><a xlink:title=" ">
<path fill="none" stroke="#63b8ff" d="M443.86,-277.93C459.6,-267.82 480.95,-255.03 501,-246 553.31,-222.45 617.07,-203.67 657.36,-192.93"/>
<polygon fill="#63b8ff" stroke="#63b8ff" points="442.11,-274.89 435.66,-283.29 445.95,-280.75 442.11,-274.89"/>
</a>
</g>
</g>
<!-- Node12 -->
<g id="Node000012" class="node">
<title>Node12</title>
<g id="a_Node000012"><a xlink:href="class_harlinn_1_1_o_c_i_1_1_error_handle.xhtml" target="_top" xlink:title="The error handle is passed as a parameter to most OCI calls.">
<polygon fill="white" stroke="#666666" points="1002,-194.5 876,-194.5 876,-175.5 1002,-175.5 1002,-194.5"/>
<text text-anchor="middle" x="939" y="-182.5" font-family="Helvetica,sans-Serif" font-size="10.00">Harlinn::OCI::ErrorHandle</text>
</a>
</g>
</g>
<!-- Node5&#45;&gt;Node12 -->
<g id="edge15_Node000012_Node000005" class="edge">
<title>Node5&#45;&gt;Node12</title>
<g id="a_edge15_Node000012_Node000005"><a xlink:title=" ">
<path fill="none" stroke="#63b8ff" d="M478.51,-281.69C582.04,-259.9 795.55,-214.98 890.58,-194.98"/>
<polygon fill="#63b8ff" stroke="#63b8ff" points="477.89,-278.24 468.82,-283.73 479.33,-285.09 477.89,-278.24"/>
</a>
</g>
</g>
<!-- Node13 -->
<g id="Node000013" class="node">
<title>Node13</title>
<g id="a_Node000013"><a xlink:href="class_harlinn_1_1_o_c_i_1_1_server.xhtml" target="_top" xlink:title="A server handle represents a connection between the client application and the Oracle database server...">
<polygon fill="white" stroke="#666666" points="1289.5,-83.5 1187.5,-83.5 1187.5,-64.5 1289.5,-64.5 1289.5,-83.5"/>
<text text-anchor="middle" x="1238.5" y="-71.5" font-family="Helvetica,sans-Serif" font-size="10.00">Harlinn::OCI::Server</text>
</a>
</g>
</g>
<!-- Node5&#45;&gt;Node13 -->
<g id="edge18_Node000013_Node000005" class="edge">
<title>Node5&#45;&gt;Node13</title>
<g id="a_edge18_Node000013_Node000005"><a xlink:title=" ">
<path fill="none" stroke="#63b8ff" d="M432.84,-274.76C447.36,-254.23 472.68,-221.85 501,-201 644.63,-95.23 698.7,-77.52 876,-58 999.7,-44.38 1032.29,-42.5 1156,-56 1170.69,-57.6 1186.62,-60.79 1200.46,-64.04"/>
<polygon fill="#63b8ff" stroke="#63b8ff" points="430.1,-272.57 427.31,-282.79 435.86,-276.54 430.1,-272.57"/>
</a>
</g>
</g>
<!-- Node14 -->
<g id="Node000014" class="node">
<title>Node14</title>
<g id="a_Node000014"><a xlink:href="class_harlinn_1_1_o_c_i_1_1_session.xhtml" target="_top" xlink:title="Session.">
<polygon fill="white" stroke="#666666" points="1293.5,-224.5 1183.5,-224.5 1183.5,-205.5 1293.5,-205.5 1293.5,-224.5"/>
<text text-anchor="middle" x="1238.5" y="-212.5" font-family="Helvetica,sans-Serif" font-size="10.00">Harlinn::OCI::Session</text>
</a>
</g>
</g>
<!-- Node5&#45;&gt;Node14 -->
<g id="edge22_Node000014_Node000005" class="edge">
<title>Node5&#45;&gt;Node14</title>
<g id="a_edge22_Node000014_Node000005"><a xlink:title=" ">
<path fill="none" stroke="#63b8ff" d="M494.67,-303.28C657.79,-322.26 1040.63,-359.34 1156,-305 1193.19,-287.49 1221.01,-244.43 1232.16,-224.91"/>
<polygon fill="#63b8ff" stroke="#63b8ff" points="495.15,-299.82 484.81,-302.13 494.33,-306.77 495.15,-299.82"/>
</a>
</g>
</g>
<!-- Node15 -->
<g id="Node000015" class="node">
<title>Node15</title>
<g id="a_Node000015"><a xlink:href="class_harlinn_1_1_o_c_i_1_1_subscription.xhtml" target="_top" xlink:title="Subscription.">
<polygon fill="white" stroke="#666666" points="1303,-335.5 1174,-335.5 1174,-316.5 1303,-316.5 1303,-335.5"/>
<text text-anchor="middle" x="1238.5" y="-323.5" font-family="Helvetica,sans-Serif" font-size="10.00">Harlinn::OCI::Subscription</text>
</a>
</g>
</g>
<!-- Node5&#45;&gt;Node15 -->
<g id="edge28_Node000015_Node000005" class="edge">
<title>Node5&#45;&gt;Node15</title>
<g id="a_edge28_Node000015_Node000005"><a xlink:title=" ">
<path fill="none" stroke="#63b8ff" d="M441.5,-310.56C457.08,-321.5 479.16,-334.9 501,-341 723.2,-403.1 789.3,-348.78 1020,-351 1080.44,-351.58 1096.22,-359.96 1156,-351 1175.32,-348.1 1196.38,-341.55 1212.26,-335.88"/>
<polygon fill="#63b8ff" stroke="#63b8ff" points="443.64,-307.78 433.49,-304.72 439.51,-313.44 443.64,-307.78"/>
</a>
</g>
</g>
<!-- Node6&#45;&gt;Node4 -->
<g id="edge5_Node000004_Node000006" class="edge">
<title>Node6&#45;&gt;Node4</title>
<g id="a_edge5_Node000004_Node000006"><a xlink:title=" ">
<path fill="none" stroke="#9a32cd" stroke-dasharray="5,2" d="M1718.97,-375.64C1700.07,-389.27 1671.25,-407.77 1643,-417 1523.4,-456.08 1143.68,-475.56 997.83,-481.75"/>
<polygon fill="#9a32cd" stroke="#9a32cd" points="1720.98,-378.51 1726.93,-369.74 1716.81,-372.88 1720.98,-378.51"/>
</a>
</g>
<text text-anchor="middle" x="1347" y="-465" font-family="Helvetica,sans-Serif" font-size="10.00" fill="grey"> statement_</text>
</g>
<!-- Node7&#45;&gt;Node6 -->
<g id="edge7_Node000006_Node000007" class="edge">
<title>Node7&#45;&gt;Node6</title>
<g id="a_edge7_Node000006_Node000007"><a xlink:title=" ">
<path fill="none" stroke="#9a32cd" stroke-dasharray="5,2" d="M1510.03,-155.96C1546.59,-170.79 1602.45,-196.82 1643,-231 1686.14,-267.37 1721.91,-326.04 1735.07,-349.17"/>
<polygon fill="#9a32cd" stroke="#9a32cd" points="1511.79,-152.89 1501.2,-152.46 1509.2,-159.4 1511.79,-152.89"/>
</a>
</g>
<text text-anchor="middle" x="1606.5" y="-234" font-family="Helvetica,sans-Serif" font-size="10.00" fill="grey"> serviceContext_</text>
</g>
<!-- Node8&#45;&gt;Node7 -->
<g id="edge9_Node000007_Node000008" class="edge">
<title>Node8&#45;&gt;Node7</title>
<g id="a_edge9_Node000007_Node000008"><a xlink:title=" ">
<path fill="none" stroke="#9a32cd" stroke-dasharray="5,2" d="M742.15,-169.9C803.28,-152.13 918.92,-121.42 1020,-111 1161.74,-96.39 1329.29,-118.15 1414.56,-132"/>
<polygon fill="#9a32cd" stroke="#9a32cd" points="741.45,-166.46 732.84,-172.63 743.42,-173.18 741.45,-166.46"/>
</a>
</g>
<text text-anchor="middle" x="1088" y="-114" font-family="Helvetica,sans-Serif" font-size="10.00" fill="grey"> environment_</text>
</g>
<!-- Node8&#45;&gt;Node12 -->
<g id="edge16_Node000012_Node000008" class="edge">
<title>Node8&#45;&gt;Node12</title>
<g id="a_edge16_Node000012_Node000008"><a xlink:title=" ">
<path fill="none" stroke="#9a32cd" stroke-dasharray="5,2" d="M773.75,-183.63C806.44,-183.9 844.36,-184.22 875.53,-184.48"/>
<polygon fill="#9a32cd" stroke="#9a32cd" points="773.96,-180.13 763.93,-183.54 773.9,-187.13 773.96,-180.13"/>
</a>
</g>
<text text-anchor="middle" x="819" y="-188" font-family="Helvetica,sans-Serif" font-size="10.00" fill="grey"> environment_</text>
</g>
<!-- Node8&#45;&gt;Node13 -->
<g id="edge19_Node000013_Node000008" class="edge">
<title>Node8&#45;&gt;Node13</title>
<g id="a_edge19_Node000013_Node000008"><a xlink:title=" ">
<path fill="none" stroke="#9a32cd" stroke-dasharray="5,2" d="M713.31,-164.46C727.98,-146.93 752.5,-121.52 780,-109 916.48,-46.87 1099.63,-57.19 1187.01,-67"/>
<polygon fill="#9a32cd" stroke="#9a32cd" points="710.72,-162.09 707.16,-172.07 716.17,-166.49 710.72,-162.09"/>
</a>
</g>
<text text-anchor="middle" x="939" y="-81" font-family="Helvetica,sans-Serif" font-size="10.00" fill="grey"> environment_</text>
</g>
<!-- Node8&#45;&gt;Node14 -->
<g id="edge23_Node000014_Node000008" class="edge">
<title>Node8&#45;&gt;Node14</title>
<g id="a_edge23_Node000014_Node000008"><a xlink:title=" ">
<path fill="none" stroke="#9a32cd" stroke-dasharray="5,2" d="M751.98,-195.2C761.28,-197.03 770.89,-198.73 780,-200 924.62,-220.2 1097.34,-219.13 1183.31,-216.92"/>
<polygon fill="#9a32cd" stroke="#9a32cd" points="752.83,-191.8 742.33,-193.22 751.43,-198.66 752.83,-191.8"/>
</a>
</g>
<text text-anchor="middle" x="939" y="-220" font-family="Helvetica,sans-Serif" font-size="10.00" fill="grey"> environment_</text>
</g>
<!-- Node8&#45;&gt;Node15 -->
<g id="edge29_Node000015_Node000008" class="edge">
<title>Node8&#45;&gt;Node15</title>
<g id="a_edge29_Node000015_Node000008"><a xlink:title=" ">
<path fill="none" stroke="#9a32cd" stroke-dasharray="5,2" d="M730.32,-197.7C745.23,-204.5 763.4,-212.49 780,-219 884.94,-260.15 910.04,-276.2 1020,-301 1070.98,-312.5 1129.94,-318.86 1173.61,-322.28"/>
<polygon fill="#9a32cd" stroke="#9a32cd" points="732.02,-194.63 721.47,-193.63 729.1,-200.99 732.02,-194.63"/>
</a>
</g>
<text text-anchor="middle" x="939" y="-300" font-family="Helvetica,sans-Serif" font-size="10.00" fill="grey"> environment_</text>
</g>
<!-- Node9 -->
<g id="Node000009" class="node">
<title>Node9</title>
<g id="a_Node000009"><a xlink:title=" ">
<polygon fill="white" stroke="#666666" points="483,-141 355,-141 355,-111 483,-111 483,-141"/>
<text text-anchor="start" x="363" y="-129" font-family="Helvetica,sans-Serif" font-size="10.00">std::atomic&lt; Environment</text>
<text text-anchor="middle" x="419" y="-118" font-family="Helvetica,sans-Serif" font-size="10.00">Mode &gt;</text>
</a>
</g>
</g>
<!-- Node9&#45;&gt;Node8 -->
<g id="edge11_Node000008_Node000009" class="edge">
<title>Node9&#45;&gt;Node8</title>
<g id="a_edge11_Node000008_Node000009"><a xlink:title=" ">
<path fill="none" stroke="#9a32cd" stroke-dasharray="5,2" d="M494.39,-141.31C543.4,-151.39 606.15,-164.31 648.74,-173.07"/>
<polygon fill="#9a32cd" stroke="#9a32cd" points="495.18,-137.9 484.68,-139.31 493.77,-144.75 495.18,-137.9"/>
</a>
</g>
<text text-anchor="middle" x="558.5" y="-170" font-family="Helvetica,sans-Serif" font-size="10.00" fill="grey"> defaultEnvironmentMode_</text>
</g>
<!-- Node10 -->
<g id="Node000010" class="node">
<title>Node10</title>
<g id="a_Node000010"><a xlink:title=" ">
<polygon fill="white" stroke="#666666" points="200.5,-345.5 111.5,-345.5 111.5,-326.5 200.5,-326.5 200.5,-345.5"/>
<text text-anchor="middle" x="156" y="-333.5" font-family="Helvetica,sans-Serif" font-size="10.00">std::atomic&lt; T &gt;</text>
</a>
</g>
</g>
<!-- Node10&#45;&gt;Node9 -->
<g id="edge12_Node000009_Node000010" class="edge">
<title>Node10&#45;&gt;Node9</title>
<g id="a_edge12_Node000009_Node000010"><a xlink:title=" ">
<path fill="none" stroke="orange" stroke-dasharray="5,2" d="M178.16,-318.98C227.91,-278.95 351.68,-179.36 399.1,-141.21"/>
<polygon fill="orange" stroke="orange" points="176.01,-316.21 170.42,-325.2 180.4,-321.66 176.01,-316.21"/>
</a>
</g>
<text text-anchor="middle" x="285" y="-277" font-family="Helvetica,sans-Serif" font-size="10.00" fill="grey"> &lt; EnvironmentMode &gt;</text>
</g>
<!-- Node11 -->
<g id="Node000011" class="node">
<title>Node11</title>
<g id="a_Node000011"><a xlink:title=" ">
<polygon fill="white" stroke="#666666" points="29,-523.5 0,-523.5 0,-504.5 29,-504.5 29,-523.5"/>
<text text-anchor="middle" x="14.5" y="-511.5" font-family="Helvetica,sans-Serif" font-size="10.00">T</text>
</a>
</g>
</g>
<!-- Node11&#45;&gt;Node10 -->
<g id="edge13_Node000010_Node000011" class="edge">
<title>Node11&#45;&gt;Node10</title>
<g id="a_edge13_Node000010_Node000011"><a xlink:title=" ">
<path fill="none" stroke="#9a32cd" stroke-dasharray="5,2" d="M30.19,-495.25C59.71,-457.58 125.3,-373.89 147.5,-345.58"/>
<polygon fill="#9a32cd" stroke="#9a32cd" points="27.55,-492.96 24.13,-502.99 33.06,-497.27 27.55,-492.96"/>
</a>
</g>
<text text-anchor="middle" x="63" y="-473" font-family="Helvetica,sans-Serif" font-size="10.00" fill="grey"> ptr</text>
</g>
<!-- Node18 -->
<g id="Node000018" class="node">
<title>Node18</title>
<g id="a_Node000018"><a xlink:title=" ">
<polygon fill="white" stroke="#666666" points="337,-544.5 233,-544.5 233,-525.5 337,-525.5 337,-544.5"/>
<text text-anchor="middle" x="285" y="-532.5" font-family="Helvetica,sans-Serif" font-size="10.00">std::unique_ptr&lt; T &gt;</text>
</a>
</g>
</g>
<!-- Node11&#45;&gt;Node18 -->
<g id="edge35_Node000018_Node000011" class="edge">
<title>Node11&#45;&gt;Node18</title>
<g id="a_edge35_Node000018_Node000011"><a xlink:title=" ">
<path fill="none" stroke="#9a32cd" stroke-dasharray="5,2" d="M40.4,-515.95C84.02,-519.36 175.08,-526.48 232.67,-530.99"/>
<polygon fill="#9a32cd" stroke="#9a32cd" points="40.94,-512.48 30.69,-515.19 40.39,-519.46 40.94,-512.48"/>
</a>
</g>
<text text-anchor="middle" x="63" y="-521" font-family="Helvetica,sans-Serif" font-size="10.00" fill="grey"> ptr</text>
</g>
<!-- Node19 -->
<g id="Node000019" class="node">
<title>Node19</title>
<g id="a_Node000019"><a xlink:title=" ">
<polygon fill="white" stroke="#666666" points="740.5,-599.5 655.5,-599.5 655.5,-580.5 740.5,-580.5 740.5,-599.5"/>
<text text-anchor="middle" x="698" y="-587.5" font-family="Helvetica,sans-Serif" font-size="10.00">std::vector&lt; T &gt;</text>
</a>
</g>
</g>
<!-- Node11&#45;&gt;Node19 -->
<g id="edge37_Node000019_Node000011" class="edge">
<title>Node11&#45;&gt;Node19</title>
<g id="a_edge37_Node000019_Node000011"><a xlink:title=" ">
<path fill="none" stroke="#9a32cd" stroke-dasharray="5,2" d="M38.79,-529.52C41.48,-530.86 44.25,-532.07 47,-533 125.77,-559.77 150.18,-546.11 233,-554 388.44,-568.8 573.61,-581.77 655.05,-587.24"/>
<polygon fill="#9a32cd" stroke="#9a32cd" points="40.7,-526.58 30.29,-524.63 37.22,-532.65 40.7,-526.58"/>
</a>
</g>
<text text-anchor="middle" x="285" y="-566" font-family="Helvetica,sans-Serif" font-size="10.00" fill="grey"> elements</text>
</g>
<!-- Node21 -->
<g id="Node000021" class="node">
<title>Node21</title>
<g id="a_Node000021"><a xlink:href="struct_harlinn_1_1_common_1_1_core_1_1_internal_1_1_data.xhtml" target="_top" xlink:title=" ">
<polygon fill="white" stroke="#666666" points="215,-507 97,-507 97,-477 215,-477 215,-507"/>
<text text-anchor="start" x="105" y="-495" font-family="Helvetica,sans-Serif" font-size="10.00">Harlinn::Common::Core</text>
<text text-anchor="middle" x="156" y="-484" font-family="Helvetica,sans-Serif" font-size="10.00">::Internal::Data&lt; T &gt;</text>
</a>
</g>
</g>
<!-- Node11&#45;&gt;Node21 -->
<g id="edge40_Node000021_Node000011" class="edge">
<title>Node11&#45;&gt;Node21</title>
<g id="a_edge40_Node000021_Node000011"><a xlink:title=" ">
<path fill="none" stroke="#9a32cd" stroke-dasharray="5,2" d="M39.95,-503.95C42.31,-503.21 44.68,-502.54 47,-502 62.87,-498.32 80.34,-495.98 96.52,-494.5"/>
<polygon fill="#9a32cd" stroke="#9a32cd" points="38.99,-500.58 30.78,-507.27 41.38,-507.16 38.99,-500.58"/>
</a>
</g>
<text text-anchor="middle" x="63" y="-505" font-family="Helvetica,sans-Serif" font-size="10.00" fill="grey"> buffer_</text>
</g>
<!-- Node12&#45;&gt;Node6 -->
<g id="edge26_Node000006_Node000012" class="edge">
<title>Node12&#45;&gt;Node6</title>
<g id="a_edge26_Node000006_Node000012"><a xlink:title=" ">
<path fill="none" stroke="#9a32cd" stroke-dasharray="5,2" d="M984.87,-198.98C990.76,-201.37 996.62,-204.05 1002,-207 1010.89,-211.87 1010.77,-216.82 1020,-221 1080.44,-248.36 1519.85,-322.61 1681.25,-349.29"/>
<polygon fill="#9a32cd" stroke="#9a32cd" points="986.32,-195.78 975.73,-195.51 983.84,-202.33 986.32,-195.78"/>
</a>
</g>
<text text-anchor="middle" x="1347" y="-299" font-family="Helvetica,sans-Serif" font-size="10.00" fill="grey"> error_</text>
</g>
<!-- Node12&#45;&gt;Node7 -->
<g id="edge25_Node000007_Node000012" class="edge">
<title>Node12&#45;&gt;Node7</title>
<g id="a_edge25_Node000007_Node000012"><a xlink:title=" ">
<path fill="none" stroke="#9a32cd" stroke-dasharray="5,2" d="M1013.6,-179.03C1116.22,-170.72 1300.93,-155.74 1401.2,-147.62"/>
<polygon fill="#9a32cd" stroke="#9a32cd" points="1013.61,-175.52 1003.92,-179.82 1014.17,-182.5 1013.61,-175.52"/>
</a>
</g>
<text text-anchor="middle" x="1238.5" y="-169" font-family="Helvetica,sans-Serif" font-size="10.00" fill="grey"> error_</text>
</g>
<!-- Node12&#45;&gt;Node8 -->
<g id="edge14_Node000008_Node000012" class="edge">
<title>Node12&#45;&gt;Node8</title>
<g id="a_edge14_Node000008_Node000012"><a xlink:title=" ">
<path fill="none" stroke="#9a32cd" stroke-dasharray="5,2" d="M890.45,-172.49C879.84,-170.21 868.6,-168.18 858,-167 823.55,-163.17 814.5,-163.63 780,-167 767.3,-168.24 753.64,-170.55 741.23,-173.04"/>
<polygon fill="#9a32cd" stroke="#9a32cd" points="889.64,-175.9 900.17,-174.7 891.2,-169.07 889.64,-175.9"/>
</a>
</g>
<text text-anchor="middle" x="819" y="-170" font-family="Helvetica,sans-Serif" font-size="10.00" fill="grey"> error_</text>
</g>
<!-- Node12&#45;&gt;Node13 -->
<g id="edge20_Node000013_Node000012" class="edge">
<title>Node12&#45;&gt;Node13</title>
<g id="a_edge20_Node000013_Node000012"><a xlink:title=" ">
<path fill="none" stroke="#9a32cd" stroke-dasharray="5,2" d="M966.96,-169.9C982.13,-161.99 1001.65,-152.79 1020,-147 1078.46,-128.56 1098.6,-145.53 1156,-124 1182.27,-114.15 1209.37,-95.51 1224.76,-83.98"/>
<polygon fill="#9a32cd" stroke="#9a32cd" points="965.73,-166.59 958.56,-174.39 969.03,-172.76 965.73,-166.59"/>
</a>
</g>
<text text-anchor="middle" x="1088" y="-150" font-family="Helvetica,sans-Serif" font-size="10.00" fill="grey"> error_</text>
</g>
<!-- Node12&#45;&gt;Node14 -->
<g id="edge24_Node000014_Node000012" class="edge">
<title>Node12&#45;&gt;Node14</title>
<g id="a_edge24_Node000014_Node000012"><a xlink:title=" ">
<path fill="none" stroke="#9a32cd" stroke-dasharray="5,2" d="M1013.86,-191.94C1055.6,-195.92 1108.73,-201.09 1156,-206 1164.78,-206.91 1174.09,-207.91 1183.15,-208.9"/>
<polygon fill="#9a32cd" stroke="#9a32cd" points="1014.2,-188.46 1003.91,-190.99 1013.54,-195.43 1014.2,-188.46"/>
</a>
</g>
<text text-anchor="middle" x="1088" y="-209" font-family="Helvetica,sans-Serif" font-size="10.00" fill="grey"> error_</text>
</g>
<!-- Node12&#45;&gt;Node15 -->
<g id="edge30_Node000015_Node000012" class="edge">
<title>Node12&#45;&gt;Node15</title>
<g id="a_edge30_Node000015_Node000012"><a xlink:title=" ">
<path fill="none" stroke="#9a32cd" stroke-dasharray="5,2" d="M991.39,-200.34C995.28,-202.81 998.9,-205.68 1002,-209 1020.42,-228.73 999.69,-249.23 1020,-267 1066.14,-307.36 1097.29,-272.37 1156,-290 1178.22,-296.67 1202.38,-307.89 1218.58,-316.03"/>
<polygon fill="#9a32cd" stroke="#9a32cd" points="993.07,-197.26 982.59,-195.67 989.79,-203.45 993.07,-197.26"/>
</a>
</g>
<text text-anchor="middle" x="1088" y="-293" font-family="Helvetica,sans-Serif" font-size="10.00" fill="grey"> error_</text>
</g>
<!-- Node13&#45;&gt;Node7 -->
<g id="edge17_Node000007_Node000013" class="edge">
<title>Node13&#45;&gt;Node7</title>
<g id="a_edge17_Node000007_Node000013"><a xlink:title=" ">
<path fill="none" stroke="#9a32cd" stroke-dasharray="5,2" d="M1301.27,-74.67C1324.22,-76.3 1350.2,-79.81 1373,-87 1405.44,-97.22 1439.09,-119.17 1457.14,-132.04"/>
<polygon fill="#9a32cd" stroke="#9a32cd" points="1301.64,-71.19 1291.45,-74.09 1301.22,-78.17 1301.64,-71.19"/>
</a>
</g>
<text text-anchor="middle" x="1347" y="-90" font-family="Helvetica,sans-Serif" font-size="10.00" fill="grey"> server_</text>
</g>
<!-- Node14&#45;&gt;Node7 -->
<g id="edge21_Node000007_Node000014" class="edge">
<title>Node14&#45;&gt;Node7</title>
<g id="a_edge21_Node000007_Node000014"><a xlink:title=" ">
<path fill="none" stroke="#9a32cd" stroke-dasharray="5,2" d="M1304.98,-203.63C1326.87,-199.08 1351.23,-193.19 1373,-186 1401.22,-176.68 1432.25,-161.83 1451.55,-151.99"/>
<polygon fill="#9a32cd" stroke="#9a32cd" points="1304.38,-200.18 1295.27,-205.59 1305.76,-207.05 1304.38,-200.18"/>
</a>
</g>
<text text-anchor="middle" x="1347" y="-203" font-family="Helvetica,sans-Serif" font-size="10.00" fill="grey"> session_</text>
</g>
<!-- Node15&#45;&gt;Node6 -->
<g id="edge27_Node000006_Node000015" class="edge">
<title>Node15&#45;&gt;Node6</title>
<g id="a_edge27_Node000006_Node000015"><a xlink:title=" ">
<path fill="none" stroke="#9a32cd" stroke-dasharray="5,2" d="M1314.69,-330.95C1414.81,-337.55 1589.86,-349.08 1681.2,-355.09"/>
<polygon fill="#9a32cd" stroke="#9a32cd" points="1315.18,-327.48 1304.97,-330.31 1314.72,-334.46 1315.18,-327.48"/>
</a>
</g>
<text text-anchor="middle" x="1471.5" y="-350" font-family="Helvetica,sans-Serif" font-size="10.00" fill="grey"> changeNotification_</text>
</g>
<!-- Node16 -->
<g id="Node000016" class="node">
<title>Node16</title>
<g id="a_Node000016"><a xlink:title=" ">
<polygon fill="white" stroke="#666666" points="1552,-522 1391,-522 1391,-492 1552,-492 1552,-522"/>
<text text-anchor="start" x="1399" y="-510" font-family="Helvetica,sans-Serif" font-size="10.00">std::vector&lt; std::unique</text>
<text text-anchor="middle" x="1471.5" y="-499" font-family="Helvetica,sans-Serif" font-size="10.00">_ptr&lt; Harlinn::OCI::BindBase &gt; &gt;</text>
</a>
</g>
</g>
<!-- Node16&#45;&gt;Node6 -->
<g id="edge31_Node000006_Node000016" class="edge">
<title>Node16&#45;&gt;Node6</title>
<g id="a_edge31_Node000006_Node000016"><a xlink:title=" ">
<path fill="none" stroke="#9a32cd" stroke-dasharray="5,2" d="M1563.12,-493.59C1590.08,-487.03 1618.85,-477.32 1643,-463 1685.15,-438.01 1720.43,-389.46 1734.24,-368.75"/>
<polygon fill="#9a32cd" stroke="#9a32cd" points="1562.53,-490.13 1553.57,-495.79 1564.1,-496.95 1562.53,-490.13"/>
</a>
</g>
<text text-anchor="middle" x="1606.5" y="-494" font-family="Helvetica,sans-Serif" font-size="10.00" fill="grey"> binds_</text>
</g>
<!-- Node17&#45;&gt;Node16 -->
<g id="edge32_Node000016_Node000017" class="edge">
<title>Node17&#45;&gt;Node16</title>
<g id="a_edge32_Node000016_Node000017"><a xlink:title=" ">
<path fill="none" stroke="#9a32cd" stroke-dasharray="5,2" d="M1310.4,-507C1335.82,-507 1364.63,-507 1390.75,-507"/>
<polygon fill="#9a32cd" stroke="#9a32cd" points="1310.5,-503.5 1300.5,-507 1310.5,-510.5 1310.5,-503.5"/>
</a>
</g>
<text text-anchor="middle" x="1347" y="-510" font-family="Helvetica,sans-Serif" font-size="10.00" fill="grey"> elements</text>
</g>
<!-- Node18&#45;&gt;Node17 -->
<g id="edge34_Node000017_Node000018" class="edge">
<title>Node18&#45;&gt;Node17</title>
<g id="a_edge34_Node000017_Node000018"><a xlink:title=" ">
<path fill="none" stroke="orange" stroke-dasharray="5,2" d="M348.99,-533.15C522.95,-528.03 1008.4,-513.74 1178.06,-508.75"/>
<polygon fill="orange" stroke="orange" points="348.9,-529.65 339.01,-533.44 349.11,-536.64 348.9,-529.65"/>
</a>
</g>
<text text-anchor="middle" x="698" y="-527" font-family="Helvetica,sans-Serif" font-size="10.00" fill="grey"> &lt; Harlinn::OCI::BindBase &gt;</text>
</g>
<!-- Node19&#45;&gt;Node16 -->
<g id="edge36_Node000016_Node000019" class="edge">
<title>Node19&#45;&gt;Node16</title>
<g id="a_edge36_Node000016_Node000019"><a xlink:title=" ">
<path fill="none" stroke="orange" stroke-dasharray="5,2" d="M752.03,-585.37C857.21,-576.06 1099.67,-554 1303,-531 1334.17,-527.47 1341.94,-526.39 1373,-522 1378.77,-521.19 1384.72,-520.32 1390.71,-519.44"/>
<polygon fill="orange" stroke="orange" points="751.95,-581.86 742.29,-586.23 752.56,-588.83 751.95,-581.86"/>
</a>
</g>
<text text-anchor="start" x="1027" y="-574" font-family="Helvetica,sans-Serif" font-size="10.00" fill="grey"> &lt; std::unique_ptr&lt;</text>
<text text-anchor="middle" x="1088" y="-563" font-family="Helvetica,sans-Serif" font-size="10.00" fill="grey"> Harlinn::OCI::BindBase &gt; &gt;</text>
</g>
<!-- Node23 -->
<g id="Node000023" class="node">
<title>Node23</title>
<g id="a_Node000023"><a xlink:title=" ">
<polygon fill="white" stroke="#666666" points="989.5,-627.5 888.5,-627.5 888.5,-608.5 989.5,-608.5 989.5,-627.5"/>
<text text-anchor="middle" x="939" y="-615.5" font-family="Helvetica,sans-Serif" font-size="10.00">std::vector&lt; Int16 &gt;</text>
</a>
</g>
</g>
<!-- Node19&#45;&gt;Node23 -->
<g id="edge44_Node000023_Node000019" class="edge">
<title>Node19&#45;&gt;Node23</title>
<g id="a_edge44_Node000023_Node000019"><a xlink:title=" ">
<path fill="none" stroke="orange" stroke-dasharray="5,2" d="M752.21,-596.23C792.87,-601 848.51,-607.52 888.28,-612.17"/>
<polygon fill="orange" stroke="orange" points="752.75,-592.77 742.41,-595.09 751.93,-599.73 752.75,-592.77"/>
</a>
</g>
<text text-anchor="middle" x="819" y="-611" font-family="Helvetica,sans-Serif" font-size="10.00" fill="grey"> &lt; Int16 &gt;</text>
</g>
<!-- Node24 -->
<g id="Node000024" class="node">
<title>Node24</title>
<g id="a_Node000024"><a xlink:title=" ">
<polygon fill="white" stroke="#666666" points="1156,-666.5 1020,-666.5 1020,-647.5 1156,-647.5 1156,-666.5"/>
<text text-anchor="middle" x="1088" y="-654.5" font-family="Helvetica,sans-Serif" font-size="10.00">std::vector&lt; OracleType * &gt;</text>
</a>
</g>
</g>
<!-- Node19&#45;&gt;Node24 -->
<g id="edge46_Node000024_Node000019" class="edge">
<title>Node19&#45;&gt;Node24</title>
<g id="a_edge46_Node000024_Node000019"><a xlink:title=" ">
<path fill="none" stroke="orange" stroke-dasharray="5,2" d="M729.67,-604.55C744.57,-611.08 762.9,-618.35 780,-623 860.59,-644.94 956.75,-652.77 1019.71,-655.54"/>
<polygon fill="orange" stroke="orange" points="731.43,-601.5 720.88,-600.59 728.56,-607.89 731.43,-601.5"/>
</a>
</g>
<text text-anchor="middle" x="819" y="-642" font-family="Helvetica,sans-Serif" font-size="10.00" fill="grey"> &lt; OracleType * &gt;</text>
</g>
<!-- Node20 -->
<g id="Node000020" class="node">
<title>Node20</title>
<g id="a_Node000020"><a xlink:href="class_harlinn_1_1_common_1_1_core_1_1_basic_string.xhtml" target="_top" xlink:title=" ">
<polygon fill="white" stroke="#666666" points="760.5,-499 635.5,-499 635.5,-469 760.5,-469 760.5,-499"/>
<text text-anchor="start" x="643.5" y="-487" font-family="Helvetica,sans-Serif" font-size="10.00">Harlinn::Common::Core</text>
<text text-anchor="middle" x="698" y="-476" font-family="Helvetica,sans-Serif" font-size="10.00">::BasicString&lt; wchar_t &gt;</text>
</a>
</g>
</g>
<!-- Node20&#45;&gt;Node4 -->
<g id="edge38_Node000004_Node000020" class="edge">
<title>Node20&#45;&gt;Node4</title>
<g id="a_edge38_Node000004_Node000020"><a xlink:title=" ">
<path fill="none" stroke="#9a32cd" stroke-dasharray="5,2" d="M772.34,-484C806.96,-484 847.69,-484 880.1,-484"/>
<polygon fill="#9a32cd" stroke="#9a32cd" points="772.37,-480.5 762.37,-484 772.37,-487.5 772.37,-480.5"/>
</a>
</g>
<text text-anchor="middle" x="819" y="-487" font-family="Helvetica,sans-Serif" font-size="10.00" fill="grey"> name_</text>
</g>
<!-- Node21&#45;&gt;Node20 -->
<g id="edge39_Node000020_Node000021" class="edge">
<title>Node21&#45;&gt;Node20</title>
<g id="a_edge39_Node000020_Node000021"><a xlink:title=" ">
<path fill="none" stroke="#9a32cd" stroke-dasharray="5,2" d="M226.53,-490.97C332.77,-489.4 533.82,-486.42 635.22,-484.92"/>
<polygon fill="#9a32cd" stroke="#9a32cd" points="226.76,-487.47 216.82,-491.11 226.87,-494.47 226.76,-487.47"/>
</a>
</g>
<text text-anchor="middle" x="419" y="-492" font-family="Helvetica,sans-Serif" font-size="10.00" fill="grey"> data_</text>
</g>
<!-- Node22 -->
<g id="Node000022" class="node">
<title>Node22</title>
<g id="a_Node000022"><a xlink:href="class_harlinn_1_1_common_1_1_core_1_1_basic_string.xhtml" target="_top" xlink:title="This is a reference counted string class.">
<polygon fill="white" stroke="#666666" points="478,-460 360,-460 360,-430 478,-430 478,-460"/>
<text text-anchor="start" x="368" y="-448" font-family="Helvetica,sans-Serif" font-size="10.00">Harlinn::Common::Core</text>
<text text-anchor="middle" x="419" y="-437" font-family="Helvetica,sans-Serif" font-size="10.00">::BasicString&lt; T &gt;</text>
</a>
</g>
</g>
<!-- Node21&#45;&gt;Node22 -->
<g id="edge42_Node000022_Node000021" class="edge">
<title>Node21&#45;&gt;Node22</title>
<g id="a_edge42_Node000022_Node000021"><a xlink:title=" ">
<path fill="none" stroke="#9a32cd" stroke-dasharray="5,2" d="M220.6,-473.78C224.78,-472.78 228.94,-471.84 233,-471 275.08,-462.27 323.16,-455.61 359.75,-451.22"/>
<polygon fill="#9a32cd" stroke="#9a32cd" points="219.85,-470.35 210.99,-476.17 221.54,-477.15 219.85,-470.35"/>
</a>
</g>
<text text-anchor="middle" x="285" y="-474" font-family="Helvetica,sans-Serif" font-size="10.00" fill="grey"> data_</text>
</g>
<!-- Node22&#45;&gt;Node20 -->
<g id="edge41_Node000020_Node000022" class="edge">
<title>Node22&#45;&gt;Node20</title>
<g id="a_edge41_Node000020_Node000022"><a xlink:title=" ">
<path fill="none" stroke="orange" stroke-dasharray="5,2" d="M489.68,-453.77C527.16,-458.61 574.14,-464.87 616,-471 622.2,-471.91 628.66,-472.89 635.11,-473.89"/>
<polygon fill="orange" stroke="orange" points="490.24,-450.32 479.88,-452.51 489.35,-457.26 490.24,-450.32"/>
</a>
</g>
<text text-anchor="middle" x="558.5" y="-474" font-family="Helvetica,sans-Serif" font-size="10.00" fill="grey"> &lt; wchar_t &gt;</text>
</g>
<!-- Node23&#45;&gt;Node3 -->
<g id="edge43_Node000003_Node000023" class="edge">
<title>Node23&#45;&gt;Node3</title>
<g id="a_edge43_Node000003_Node000023"><a xlink:title=" ">
<path fill="none" stroke="#9a32cd" stroke-dasharray="5,2" d="M1001.22,-618C1053.37,-618 1127.79,-618 1179.11,-618"/>
<polygon fill="#9a32cd" stroke="#9a32cd" points="1001.31,-614.5 991.31,-618 1001.31,-621.5 1001.31,-614.5"/>
</a>
</g>
<text text-anchor="middle" x="1088" y="-621" font-family="Helvetica,sans-Serif" font-size="10.00" fill="grey"> indicator_</text>
</g>
<!-- Node24&#45;&gt;Node1 -->
<g id="edge45_Node000001_Node000024" class="edge">
<title>Node24&#45;&gt;Node1</title>
<g id="a_edge45_Node000001_Node000024"><a xlink:title=" ">
<path fill="none" stroke="#9a32cd" stroke-dasharray="5,2" d="M1167.62,-655.55C1292.55,-653.25 1535.08,-648.78 1660.73,-646.47"/>
<polygon fill="#9a32cd" stroke="#9a32cd" points="1167.72,-652.05 1157.78,-655.73 1167.84,-659.05 1167.72,-652.05"/>
</a>
</g>
<text text-anchor="middle" x="1347" y="-655" font-family="Helvetica,sans-Serif" font-size="10.00" fill="grey"> data_</text>
</g>
</g>
</svg>
