<?xml version="1.0" encoding="UTF-8" standalone="no"?>
<!DOCTYPE svg PUBLIC "-//W3C//DTD SVG 1.1//EN"
 "http://www.w3.org/Graphics/SVG/1.1/DTD/svg11.dtd">
<!-- Generated by graphviz version 7.0.1 (20221109.1506)
 -->
<!-- Title: Harlinn::AI::ONNX::Session Pages: 1 -->
<svg width="2100pt" height="399pt"
 viewBox="0.00 0.00 2100.00 399.00" xmlns="http://www.w3.org/2000/svg" xmlns:xlink="http://www.w3.org/1999/xlink">
<g id="graph0" class="graph" transform="scale(1 1) rotate(0) translate(4 395)">
<title>Harlinn::AI::ONNX::Session</title>
<!-- Node1 -->
<g id="Node000001" class="node">
<title>Node1</title>
<g id="a_Node000001"><a xlink:title=" ">
<polygon fill="#999999" stroke="#666666" points="2092,-348 1992,-348 1992,-318 2092,-318 2092,-348"/>
<text text-anchor="start" x="2000" y="-336" font-family="Helvetica,sans-Serif" font-size="10.00">Harlinn::AI::ONNX::</text>
<text text-anchor="middle" x="2042" y="-325" font-family="Helvetica,sans-Serif" font-size="10.00">Session</text>
</a>
</g>
</g>
<!-- Node2 -->
<g id="Node000002" class="node">
<title>Node2</title>
<g id="a_Node000002"><a xlink:title=" ">
<polygon fill="white" stroke="#666666" points="1904,-391 1789,-391 1789,-361 1904,-361 1904,-391"/>
<text text-anchor="start" x="1797" y="-379" font-family="Helvetica,sans-Serif" font-size="10.00">std::enable_shared</text>
<text text-anchor="middle" x="1846.5" y="-368" font-family="Helvetica,sans-Serif" font-size="10.00">_from_this&lt; Session &gt;</text>
</a>
</g>
</g>
<!-- Node2&#45;&gt;Node1 -->
<g id="edge1_Node000001_Node000002" class="edge">
<title>Node2&#45;&gt;Node1</title>
<g id="a_edge1_Node000001_Node000002"><a xlink:title=" ">
<path fill="none" stroke="#63b8ff" d="M1915.23,-360.95C1940.44,-355.35 1968.56,-349.1 1991.8,-343.93"/>
<polygon fill="#63b8ff" stroke="#63b8ff" points="1914.73,-357.47 1905.73,-363.06 1916.25,-364.31 1914.73,-357.47"/>
</a>
</g>
</g>
<!-- Node3 -->
<g id="Node000003" class="node">
<title>Node3</title>
<g id="a_Node000003"><a xlink:title=" ">
<polygon fill="white" stroke="#666666" points="590.5,-348 458.5,-348 458.5,-318 590.5,-318 590.5,-348"/>
<text text-anchor="start" x="466.5" y="-336" font-family="Helvetica,sans-Serif" font-size="10.00">std::weak_ptr&lt; Harlinn</text>
<text text-anchor="middle" x="524.5" y="-325" font-family="Helvetica,sans-Serif" font-size="10.00">::AI::ONNX::Environment &gt;</text>
</a>
</g>
</g>
<!-- Node3&#45;&gt;Node1 -->
<g id="edge2_Node000001_Node000003" class="edge">
<title>Node3&#45;&gt;Node1</title>
<g id="a_edge2_Node000001_Node000003"><a xlink:title=" ">
<path fill="none" stroke="#9a32cd" stroke-dasharray="5,2" d="M602.08,-333C643.37,-333 695.23,-333 741.5,-333 741.5,-333 741.5,-333 1847.5,-333 1896.55,-333 1952.59,-333 1991.69,-333"/>
<polygon fill="#9a32cd" stroke="#9a32cd" points="602.23,-329.5 592.23,-333 602.23,-336.5 602.23,-329.5"/>
</a>
</g>
<text text-anchor="middle" x="1340.5" y="-336" font-family="Helvetica,sans-Serif" font-size="10.00" fill="grey"> environment_</text>
</g>
<!-- Node4 -->
<g id="Node000004" class="node">
<title>Node4</title>
<g id="a_Node000004"><a xlink:href="class_harlinn_1_1_a_i_1_1_o_n_n_x_1_1_environment.html" target="_top" xlink:title=" ">
<polygon fill="white" stroke="#666666" points="321,-357 221,-357 221,-327 321,-327 321,-357"/>
<text text-anchor="start" x="229" y="-345" font-family="Helvetica,sans-Serif" font-size="10.00">Harlinn::AI::ONNX::</text>
<text text-anchor="middle" x="271" y="-334" font-family="Helvetica,sans-Serif" font-size="10.00">Environment</text>
</a>
</g>
</g>
<!-- Node4&#45;&gt;Node3 -->
<g id="edge3_Node000003_Node000004" class="edge">
<title>Node4&#45;&gt;Node3</title>
<g id="a_edge3_Node000003_Node000004"><a xlink:title=" ">
<path fill="none" stroke="#9a32cd" stroke-dasharray="5,2" d="M332.77,-339.83C370.62,-338.47 419.31,-336.73 458.02,-335.34"/>
<polygon fill="#9a32cd" stroke="#9a32cd" points="332.77,-336.32 322.9,-340.18 333.02,-343.32 332.77,-336.32"/>
</a>
</g>
<text text-anchor="middle" x="393" y="-342" font-family="Helvetica,sans-Serif" font-size="10.00" fill="grey"> ptr</text>
</g>
<!-- Node5 -->
<g id="Node000005" class="node">
<title>Node5</title>
<g id="a_Node000005"><a xlink:title=" ">
<polygon fill="white" stroke="#666666" points="133,-357 0,-357 0,-327 133,-327 133,-357"/>
<text text-anchor="start" x="8" y="-345" font-family="Helvetica,sans-Serif" font-size="10.00">std::enable_shared</text>
<text text-anchor="middle" x="66.5" y="-334" font-family="Helvetica,sans-Serif" font-size="10.00">_from_this&lt; Environment &gt;</text>
</a>
</g>
</g>
<!-- Node5&#45;&gt;Node4 -->
<g id="edge4_Node000004_Node000005" class="edge">
<title>Node5&#45;&gt;Node4</title>
<g id="a_edge4_Node000004_Node000005"><a xlink:title=" ">
<path fill="none" stroke="#63b8ff" d="M144.42,-342C169.97,-342 197.72,-342 220.62,-342"/>
<polygon fill="#63b8ff" stroke="#63b8ff" points="144.76,-338.5 134.76,-342 144.76,-345.5 144.76,-338.5"/>
</a>
</g>
</g>
<!-- Node6 -->
<g id="Node000006" class="node">
<title>Node6</title>
<g id="a_Node000006"><a xlink:title=" ">
<polygon fill="white" stroke="#666666" points="320,-306.5 222,-306.5 222,-287.5 320,-287.5 320,-306.5"/>
<text text-anchor="middle" x="271" y="-294.5" font-family="Helvetica,sans-Serif" font-size="10.00">std::weak_ptr&lt; T &gt;</text>
</a>
</g>
</g>
<!-- Node6&#45;&gt;Node3 -->
<g id="edge5_Node000003_Node000006" class="edge">
<title>Node6&#45;&gt;Node3</title>
<g id="a_edge5_Node000003_Node000006"><a xlink:title=" ">
<path fill="none" stroke="orange" stroke-dasharray="5,2" d="M331.56,-299C363.33,-300.74 402.99,-303.97 438,-310 449.21,-311.93 461.08,-314.67 472.3,-317.58"/>
<polygon fill="orange" stroke="orange" points="331.91,-295.51 321.75,-298.5 331.56,-302.5 331.91,-295.51"/>
</a>
</g>
<text text-anchor="start" x="348" y="-324" font-family="Helvetica,sans-Serif" font-size="10.00" fill="grey"> &lt; Harlinn::AI::ONNX</text>
<text text-anchor="middle" x="393" y="-313" font-family="Helvetica,sans-Serif" font-size="10.00" fill="grey">::Environment &gt;</text>
</g>
<!-- Node7 -->
<g id="Node000007" class="node">
<title>Node7</title>
<g id="a_Node000007"><a xlink:title=" ">
<polygon fill="white" stroke="#666666" points="81,-230.5 52,-230.5 52,-211.5 81,-211.5 81,-230.5"/>
<text text-anchor="middle" x="66.5" y="-218.5" font-family="Helvetica,sans-Serif" font-size="10.00">T</text>
</a>
</g>
</g>
<!-- Node7&#45;&gt;Node6 -->
<g id="edge6_Node000006_Node000007" class="edge">
<title>Node7&#45;&gt;Node6</title>
<g id="a_edge6_Node000006_Node000007"><a xlink:title=" ">
<path fill="none" stroke="#9a32cd" stroke-dasharray="5,2" d="M89.15,-237.52C105.36,-249.11 128.52,-264.07 151,-273 173.43,-281.91 199.6,-287.65 221.68,-291.27"/>
<polygon fill="#9a32cd" stroke="#9a32cd" points="91.38,-234.82 81.25,-231.72 87.24,-240.46 91.38,-234.82"/>
</a>
</g>
<text text-anchor="middle" x="172.5" y="-288" font-family="Helvetica,sans-Serif" font-size="10.00" fill="grey"> ptr</text>
</g>
<!-- Node12 -->
<g id="Node000012" class="node">
<title>Node12</title>
<g id="a_Node000012"><a xlink:href="struct_harlinn_1_1_common_1_1_core_1_1_internal_1_1_data.html" target="_top" xlink:title=" ">
<polygon fill="white" stroke="#666666" points="330,-188 212,-188 212,-158 330,-158 330,-188"/>
<text text-anchor="start" x="220" y="-176" font-family="Helvetica,sans-Serif" font-size="10.00">Harlinn::Common::Core</text>
<text text-anchor="middle" x="271" y="-165" font-family="Helvetica,sans-Serif" font-size="10.00">::Internal::Data&lt; T &gt;</text>
</a>
</g>
</g>
<!-- Node7&#45;&gt;Node12 -->
<g id="edge12_Node000012_Node000007" class="edge">
<title>Node7&#45;&gt;Node12</title>
<g id="a_edge12_Node000012_Node000007"><a xlink:title=" ">
<path fill="none" stroke="#9a32cd" stroke-dasharray="5,2" d="M92.17,-212.91C108.7,-207.66 131.02,-200.91 151,-196 170.62,-191.18 192.26,-186.74 211.64,-183.07"/>
<polygon fill="#9a32cd" stroke="#9a32cd" points="91.16,-209.55 82.71,-215.95 93.3,-216.22 91.16,-209.55"/>
</a>
</g>
<text text-anchor="middle" x="172.5" y="-199" font-family="Helvetica,sans-Serif" font-size="10.00" fill="grey"> buffer_</text>
</g>
<!-- Node15 -->
<g id="Node000015" class="node">
<title>Node15</title>
<g id="a_Node000015"><a xlink:title=" ">
<polygon fill="white" stroke="#666666" points="316.5,-73.5 225.5,-73.5 225.5,-54.5 316.5,-54.5 316.5,-73.5"/>
<text text-anchor="middle" x="271" y="-61.5" font-family="Helvetica,sans-Serif" font-size="10.00">std::map&lt; K, T &gt;</text>
</a>
</g>
</g>
<!-- Node7&#45;&gt;Node15 -->
<g id="edge19_Node000015_Node000007" class="edge">
<title>Node7&#45;&gt;Node15</title>
<g id="a_edge19_Node000015_Node000007"><a xlink:title=" ">
<path fill="none" stroke="#9a32cd" stroke-dasharray="5,2" d="M89.07,-204.28C131.27,-171.56 223.6,-99.97 257.34,-73.82"/>
<polygon fill="#9a32cd" stroke="#9a32cd" points="87.12,-201.36 81.36,-210.25 91.41,-206.89 87.12,-201.36"/>
</a>
</g>
<text text-anchor="middle" x="172.5" y="-154" font-family="Helvetica,sans-Serif" font-size="10.00" fill="grey"> elements</text>
</g>
<!-- Node21 -->
<g id="Node000021" class="node">
<title>Node21</title>
<g id="a_Node000021"><a xlink:title=" ">
<polygon fill="white" stroke="#666666" points="1038,-230.5 933,-230.5 933,-211.5 1038,-211.5 1038,-230.5"/>
<text text-anchor="middle" x="985.5" y="-218.5" font-family="Helvetica,sans-Serif" font-size="10.00">std::shared_ptr&lt; T &gt;</text>
</a>
</g>
</g>
<!-- Node7&#45;&gt;Node21 -->
<g id="edge26_Node000021_Node000007" class="edge">
<title>Node7&#45;&gt;Node21</title>
<g id="a_edge26_Node000021_Node000007"><a xlink:title=" ">
<path fill="none" stroke="#9a32cd" stroke-dasharray="5,2" d="M92.27,-221C130.43,-221 205.92,-221 270,-221 270,-221 270,-221 743.5,-221 808.77,-221 883.99,-221 932.79,-221"/>
<polygon fill="#9a32cd" stroke="#9a32cd" points="92.76,-217.5 82.76,-221 92.76,-224.5 92.76,-217.5"/>
</a>
</g>
<text text-anchor="middle" x="524.5" y="-224" font-family="Helvetica,sans-Serif" font-size="10.00" fill="grey"> ptr</text>
</g>
<!-- Node22 -->
<g id="Node000022" class="node">
<title>Node22</title>
<g id="a_Node000022"><a xlink:title=" ">
<polygon fill="white" stroke="#666666" points="435.5,-271.5 350.5,-271.5 350.5,-252.5 435.5,-252.5 435.5,-271.5"/>
<text text-anchor="middle" x="393" y="-259.5" font-family="Helvetica,sans-Serif" font-size="10.00">std::vector&lt; T &gt;</text>
</a>
</g>
</g>
<!-- Node7&#45;&gt;Node22 -->
<g id="edge28_Node000022_Node000007" class="edge">
<title>Node7&#45;&gt;Node22</title>
<g id="a_edge28_Node000022_Node000007"><a xlink:title=" ">
<path fill="none" stroke="#9a32cd" stroke-dasharray="5,2" d="M92.29,-225.52C108.88,-228.46 131.2,-232.23 151,-235 220.63,-244.73 301.98,-253.26 350.12,-258.01"/>
<polygon fill="#9a32cd" stroke="#9a32cd" points="93.3,-222.15 82.84,-223.83 92.07,-229.04 93.3,-222.15"/>
</a>
</g>
<text text-anchor="middle" x="172.5" y="-243" font-family="Helvetica,sans-Serif" font-size="10.00" fill="grey"> elements</text>
</g>
<!-- Node8 -->
<g id="Node000008" class="node">
<title>Node8</title>
<g id="a_Node000008"><a xlink:title=" ">
<polygon fill="white" stroke="#666666" points="1907,-262 1786,-262 1786,-232 1907,-232 1907,-262"/>
<text text-anchor="start" x="1794" y="-250" font-family="Helvetica,sans-Serif" font-size="10.00">std::shared_ptr&lt; Harlinn</text>
<text text-anchor="middle" x="1846.5" y="-239" font-family="Helvetica,sans-Serif" font-size="10.00">::AI::Meta::Metadata &gt;</text>
</a>
</g>
</g>
<!-- Node8&#45;&gt;Node1 -->
<g id="edge7_Node000001_Node000008" class="edge">
<title>Node8&#45;&gt;Node1</title>
<g id="a_edge7_Node000001_Node000008"><a xlink:title=" ">
<path fill="none" stroke="#9a32cd" stroke-dasharray="5,2" d="M1892.44,-266.97C1927.17,-282.41 1974.55,-303.47 2006.38,-317.61"/>
<polygon fill="#9a32cd" stroke="#9a32cd" points="1894.04,-263.85 1883.48,-262.99 1891.19,-270.25 1894.04,-263.85"/>
</a>
</g>
<text text-anchor="middle" x="1949.5" y="-305" font-family="Helvetica,sans-Serif" font-size="10.00" fill="grey"> metadata_</text>
</g>
<!-- Node9 -->
<g id="Node000009" class="node">
<title>Node9</title>
<g id="a_Node000009"><a xlink:href="class_harlinn_1_1_a_i_1_1_meta_1_1_metadata.html" target="_top" xlink:title="Provides access to metadata for a Session, including the type information about the inputs and output...">
<polygon fill="white" stroke="#666666" points="1735,-120 1640,-120 1640,-90 1735,-90 1735,-120"/>
<text text-anchor="start" x="1648" y="-108" font-family="Helvetica,sans-Serif" font-size="10.00">Harlinn::AI::Meta::</text>
<text text-anchor="middle" x="1687.5" y="-97" font-family="Helvetica,sans-Serif" font-size="10.00">Metadata</text>
</a>
</g>
</g>
<!-- Node9&#45;&gt;Node8 -->
<g id="edge8_Node000008_Node000009" class="edge">
<title>Node9&#45;&gt;Node8</title>
<g id="a_edge8_Node000008_Node000009"><a xlink:title=" ">
<path fill="none" stroke="#9a32cd" stroke-dasharray="5,2" d="M1714.06,-128.12C1746.29,-157.27 1800.83,-206.6 1828.42,-231.55"/>
<polygon fill="#9a32cd" stroke="#9a32cd" points="1716.49,-125.59 1706.72,-121.48 1711.79,-130.79 1716.49,-125.59"/>
</a>
</g>
<text text-anchor="middle" x="1760.5" y="-179" font-family="Helvetica,sans-Serif" font-size="10.00" fill="grey"> ptr</text>
</g>
<!-- Node10 -->
<g id="Node000010" class="node">
<title>Node10</title>
<g id="a_Node000010"><a xlink:title=" ">
<polygon fill="white" stroke="#666666" points="1509,-30 1389,-30 1389,0 1509,0 1509,-30"/>
<text text-anchor="start" x="1397" y="-18" font-family="Helvetica,sans-Serif" font-size="10.00">std::enable_shared</text>
<text text-anchor="middle" x="1449" y="-7" font-family="Helvetica,sans-Serif" font-size="10.00">_from_this&lt; Metadata &gt;</text>
</a>
</g>
</g>
<!-- Node10&#45;&gt;Node9 -->
<g id="edge9_Node000009_Node000010" class="edge">
<title>Node10&#45;&gt;Node9</title>
<g id="a_edge9_Node000009_Node000010"><a xlink:title=" ">
<path fill="none" stroke="#63b8ff" d="M1520.36,-17.53C1552.7,-20.99 1590.72,-28.42 1622,-44 1643.66,-54.79 1663.01,-75.29 1674.74,-89.53"/>
<polygon fill="#63b8ff" stroke="#63b8ff" points="1520.97,-14.07 1510.68,-16.61 1520.31,-21.04 1520.97,-14.07"/>
</a>
</g>
</g>
<!-- Node11 -->
<g id="Node000011" class="node">
<title>Node11</title>
<g id="a_Node000011"><a xlink:href="class_harlinn_1_1_common_1_1_core_1_1_basic_string.html" target="_top" xlink:title=" ">
<polygon fill="white" stroke="#666666" points="801.5,-145 683.5,-145 683.5,-115 801.5,-115 801.5,-145"/>
<text text-anchor="start" x="691.5" y="-133" font-family="Helvetica,sans-Serif" font-size="10.00">Harlinn::Common::Core</text>
<text text-anchor="middle" x="742.5" y="-122" font-family="Helvetica,sans-Serif" font-size="10.00">::BasicString&lt; char &gt;</text>
</a>
</g>
</g>
<!-- Node11&#45;&gt;Node9 -->
<g id="edge10_Node000009_Node000011" class="edge">
<title>Node11&#45;&gt;Node9</title>
<g id="a_edge10_Node000009_Node000011"><a xlink:title=" ">
<path fill="none" stroke="#9a32cd" stroke-dasharray="5,2" d="M812.97,-118.95C861.01,-112.26 926.48,-105 984.5,-105 984.5,-105 984.5,-105 1450,-105 1515.9,-105 1592.13,-105 1639.83,-105"/>
<polygon fill="#9a32cd" stroke="#9a32cd" points="812.67,-115.46 803.26,-120.34 813.66,-122.39 812.67,-115.46"/>
</a>
</g>
<text text-anchor="middle" x="1225.5" y="-163" font-family="Helvetica,sans-Serif" font-size="10.00" fill="grey"> description_</text>
<text text-anchor="middle" x="1225.5" y="-152" font-family="Helvetica,sans-Serif" font-size="10.00" fill="grey">domain_</text>
<text text-anchor="start" x="1189" y="-141" font-family="Helvetica,sans-Serif" font-size="10.00" fill="grey">graphDescription</text>
<text text-anchor="middle" x="1225.5" y="-130" font-family="Helvetica,sans-Serif" font-size="10.00" fill="grey">_</text>
<text text-anchor="middle" x="1225.5" y="-119" font-family="Helvetica,sans-Serif" font-size="10.00" fill="grey">graphName_</text>
<text text-anchor="middle" x="1225.5" y="-108" font-family="Helvetica,sans-Serif" font-size="10.00" fill="grey">producerName_</text>
</g>
<!-- Node19 -->
<g id="Node000019" class="node">
<title>Node19</title>
<g id="a_Node000019"><a xlink:href="class_harlinn_1_1_a_i_1_1_meta_1_1_type_info_base.html" target="_top" xlink:title=" ">
<polygon fill="white" stroke="#666666" points="1033,-191 938,-191 938,-161 1033,-161 1033,-191"/>
<text text-anchor="start" x="946" y="-179" font-family="Helvetica,sans-Serif" font-size="10.00">Harlinn::AI::Meta::</text>
<text text-anchor="middle" x="985.5" y="-168" font-family="Helvetica,sans-Serif" font-size="10.00">TypeInfoBase</text>
</a>
</g>
</g>
<!-- Node11&#45;&gt;Node19 -->
<g id="edge24_Node000019_Node000011" class="edge">
<title>Node11&#45;&gt;Node19</title>
<g id="a_edge24_Node000019_Node000011"><a xlink:title=" ">
<path fill="none" stroke="#9a32cd" stroke-dasharray="5,2" d="M813.14,-142.04C844.34,-147.57 881.56,-154.37 915,-161 922.39,-162.46 930.2,-164.08 937.81,-165.7"/>
<polygon fill="#9a32cd" stroke="#9a32cd" points="813.88,-138.62 803.43,-140.32 812.66,-145.51 813.88,-138.62"/>
</a>
</g>
<text text-anchor="middle" x="873" y="-164" font-family="Helvetica,sans-Serif" font-size="10.00" fill="grey"> name_</text>
</g>
<!-- Node12&#45;&gt;Node11 -->
<g id="edge11_Node000011_Node000012" class="edge">
<title>Node12&#45;&gt;Node11</title>
<g id="a_edge11_Node000011_Node000012"><a xlink:title=" ">
<path fill="none" stroke="#9a32cd" stroke-dasharray="5,2" d="M341.71,-168.03C418.35,-162.37 545.08,-152.4 654,-141 663.44,-140.01 673.44,-138.86 683.18,-137.67"/>
<polygon fill="#9a32cd" stroke="#9a32cd" points="341.54,-164.54 331.83,-168.76 342.06,-171.52 341.54,-164.54"/>
</a>
</g>
<text text-anchor="middle" x="524.5" y="-162" font-family="Helvetica,sans-Serif" font-size="10.00" fill="grey"> data_</text>
</g>
<!-- Node13 -->
<g id="Node000013" class="node">
<title>Node13</title>
<g id="a_Node000013"><a xlink:href="class_harlinn_1_1_common_1_1_core_1_1_basic_string.html" target="_top" xlink:title="This is a reference counted string class.">
<polygon fill="white" stroke="#666666" points="583.5,-137 465.5,-137 465.5,-107 583.5,-107 583.5,-137"/>
<text text-anchor="start" x="473.5" y="-125" font-family="Helvetica,sans-Serif" font-size="10.00">Harlinn::Common::Core</text>
<text text-anchor="middle" x="524.5" y="-114" font-family="Helvetica,sans-Serif" font-size="10.00">::BasicString&lt; T &gt;</text>
</a>
</g>
</g>
<!-- Node12&#45;&gt;Node13 -->
<g id="edge14_Node000013_Node000012" class="edge">
<title>Node12&#45;&gt;Node13</title>
<g id="a_edge14_Node000013_Node000012"><a xlink:title=" ">
<path fill="none" stroke="#9a32cd" stroke-dasharray="5,2" d="M325.47,-154.15C332.98,-151.87 340.64,-149.74 348,-148 386.67,-138.85 430.93,-132.32 465.33,-128.09"/>
<polygon fill="#9a32cd" stroke="#9a32cd" points="324.57,-150.76 316.08,-157.1 326.67,-157.44 324.57,-150.76"/>
</a>
</g>
<text text-anchor="middle" x="393" y="-151" font-family="Helvetica,sans-Serif" font-size="10.00" fill="grey"> data_</text>
</g>
<!-- Node13&#45;&gt;Node11 -->
<g id="edge13_Node000011_Node000013" class="edge">
<title>Node13&#45;&gt;Node11</title>
<g id="a_edge13_Node000011_Node000013"><a xlink:title=" ">
<path fill="none" stroke="orange" stroke-dasharray="5,2" d="M595.39,-124.59C623.69,-125.64 655.98,-126.83 683,-127.83"/>
<polygon fill="orange" stroke="orange" points="595.59,-121.09 585.47,-124.22 595.33,-128.09 595.59,-121.09"/>
</a>
</g>
<text text-anchor="middle" x="632.5" y="-129" font-family="Helvetica,sans-Serif" font-size="10.00" fill="grey"> &lt; char &gt;</text>
</g>
<!-- Node14 -->
<g id="Node000014" class="node">
<title>Node14</title>
<g id="a_Node000014"><a xlink:title=" ">
<polygon fill="white" stroke="#666666" points="813,-84 672,-84 672,-32 813,-32 813,-84"/>
<text text-anchor="start" x="680" y="-72" font-family="Helvetica,sans-Serif" font-size="10.00">std::map&lt; Harlinn::</text>
<text text-anchor="start" x="680" y="-61" font-family="Helvetica,sans-Serif" font-size="10.00">Common::Core::BasicString,</text>
<text text-anchor="start" x="680" y="-50" font-family="Helvetica,sans-Serif" font-size="10.00"> Harlinn::Common::Core::</text>
<text text-anchor="middle" x="742.5" y="-39" font-family="Helvetica,sans-Serif" font-size="10.00">BasicString &gt;</text>
</a>
</g>
</g>
<!-- Node13&#45;&gt;Node14 -->
<g id="edge16_Node000014_Node000013" class="edge">
<title>Node13&#45;&gt;Node14</title>
<g id="a_edge16_Node000014_Node000013"><a xlink:title=" ">
<path fill="none" stroke="#9a32cd" stroke-dasharray="5,2" d="M588.67,-103.28C614.73,-95.56 645.02,-86.59 671.73,-78.67"/>
<polygon fill="#9a32cd" stroke="#9a32cd" points="587.83,-99.88 579.24,-106.08 589.82,-106.59 587.83,-99.88"/>
</a>
</g>
<text text-anchor="middle" x="632.5" y="-110" font-family="Helvetica,sans-Serif" font-size="10.00" fill="grey"> elements</text>
<text text-anchor="middle" x="632.5" y="-99" font-family="Helvetica,sans-Serif" font-size="10.00" fill="grey">keys</text>
</g>
<!-- Node14&#45;&gt;Node9 -->
<g id="edge15_Node000009_Node000014" class="edge">
<title>Node14&#45;&gt;Node9</title>
<g id="a_edge15_Node000009_Node000014"><a xlink:title=" ">
<path fill="none" stroke="#9a32cd" stroke-dasharray="5,2" d="M824.65,-58C871.39,-58 931.26,-58 984.5,-58 984.5,-58 984.5,-58 1450,-58 1516.98,-58 1592.62,-76.36 1639.93,-90.13"/>
<polygon fill="#9a32cd" stroke="#9a32cd" points="824.88,-54.5 814.88,-58 824.88,-61.5 824.88,-54.5"/>
</a>
</g>
<text text-anchor="middle" x="1225.5" y="-61" font-family="Helvetica,sans-Serif" font-size="10.00" fill="grey"> customMetadataMap_</text>
</g>
<!-- Node15&#45;&gt;Node14 -->
<g id="edge17_Node000014_Node000015" class="edge">
<title>Node15&#45;&gt;Node14</title>
<g id="a_edge17_Node000014_Node000015"><a xlink:title=" ">
<path fill="none" stroke="orange" stroke-dasharray="5,2" d="M327.92,-63.29C413.78,-62.19 577.93,-60.09 671.54,-58.89"/>
<polygon fill="orange" stroke="orange" points="328.06,-59.78 318.11,-63.41 328.15,-66.78 328.06,-59.78"/>
</a>
</g>
<text text-anchor="start" x="456" y="-87" font-family="Helvetica,sans-Serif" font-size="10.00" fill="grey"> &lt; Harlinn::Common::</text>
<text text-anchor="start" x="456" y="-76" font-family="Helvetica,sans-Serif" font-size="10.00" fill="grey">Core::BasicString, Harlinn</text>
<text text-anchor="middle" x="524.5" y="-65" font-family="Helvetica,sans-Serif" font-size="10.00" fill="grey">::Common::Core::BasicString &gt;</text>
</g>
<!-- Node16 -->
<g id="Node000016" class="node">
<title>Node16</title>
<g id="a_Node000016"><a xlink:title=" ">
<polygon fill="white" stroke="#666666" points="81,-73.5 52,-73.5 52,-54.5 81,-54.5 81,-73.5"/>
<text text-anchor="middle" x="66.5" y="-61.5" font-family="Helvetica,sans-Serif" font-size="10.00">K</text>
</a>
</g>
</g>
<!-- Node16&#45;&gt;Node15 -->
<g id="edge18_Node000015_Node000016" class="edge">
<title>Node16&#45;&gt;Node15</title>
<g id="a_edge18_Node000015_Node000016"><a xlink:title=" ">
<path fill="none" stroke="#9a32cd" stroke-dasharray="5,2" d="M92.78,-64C125.94,-64 184.66,-64 225.37,-64"/>
<polygon fill="#9a32cd" stroke="#9a32cd" points="92.93,-60.5 82.93,-64 92.93,-67.5 92.93,-60.5"/>
</a>
</g>
<text text-anchor="middle" x="172.5" y="-67" font-family="Helvetica,sans-Serif" font-size="10.00" fill="grey"> keys</text>
</g>
<!-- Node17 -->
<g id="Node000017" class="node">
<title>Node17</title>
<g id="a_Node000017"><a xlink:title=" ">
<polygon fill="white" stroke="#666666" points="1508.5,-210.5 1389.5,-210.5 1389.5,-169.5 1508.5,-169.5 1508.5,-210.5"/>
<text text-anchor="start" x="1397.5" y="-198.5" font-family="Helvetica,sans-Serif" font-size="10.00">std::vector&lt; std::shared</text>
<text text-anchor="start" x="1397.5" y="-187.5" font-family="Helvetica,sans-Serif" font-size="10.00">_ptr&lt; Harlinn::AI::Meta</text>
<text text-anchor="middle" x="1449" y="-176.5" font-family="Helvetica,sans-Serif" font-size="10.00">::TypeInfoBase &gt; &gt;</text>
</a>
</g>
</g>
<!-- Node17&#45;&gt;Node9 -->
<g id="edge20_Node000009_Node000017" class="edge">
<title>Node17&#45;&gt;Node9</title>
<g id="a_edge20_Node000009_Node000017"><a xlink:title=" ">
<path fill="none" stroke="#9a32cd" stroke-dasharray="5,2" d="M1518.97,-165.21C1559.21,-150.75 1608.72,-132.95 1643.45,-120.47"/>
<polygon fill="#9a32cd" stroke="#9a32cd" points="1517.81,-161.91 1509.58,-168.59 1520.18,-168.5 1517.81,-161.91"/>
</a>
</g>
<text text-anchor="middle" x="1574.5" y="-185" font-family="Helvetica,sans-Serif" font-size="10.00" fill="grey"> inputs_</text>
<text text-anchor="middle" x="1574.5" y="-174" font-family="Helvetica,sans-Serif" font-size="10.00" fill="grey">outputs_</text>
<text text-anchor="middle" x="1574.5" y="-163" font-family="Helvetica,sans-Serif" font-size="10.00" fill="grey">overridableInitializers_</text>
</g>
<!-- Node18 -->
<g id="Node000018" class="node">
<title>Node18</title>
<g id="a_Node000018"><a xlink:title=" ">
<polygon fill="white" stroke="#666666" points="1292,-219 1159,-219 1159,-189 1292,-189 1292,-219"/>
<text text-anchor="start" x="1167" y="-207" font-family="Helvetica,sans-Serif" font-size="10.00">std::shared_ptr&lt; Harlinn</text>
<text text-anchor="middle" x="1225.5" y="-196" font-family="Helvetica,sans-Serif" font-size="10.00">::AI::Meta::TypeInfoBase &gt;</text>
</a>
</g>
</g>
<!-- Node18&#45;&gt;Node17 -->
<g id="edge21_Node000017_Node000018" class="edge">
<title>Node18&#45;&gt;Node17</title>
<g id="a_edge21_Node000017_Node000018"><a xlink:title=" ">
<path fill="none" stroke="#9a32cd" stroke-dasharray="5,2" d="M1303.75,-199.12C1331.78,-197.35 1362.98,-195.37 1389.18,-193.72"/>
<polygon fill="#9a32cd" stroke="#9a32cd" points="1303.63,-195.62 1293.87,-199.74 1304.07,-202.6 1303.63,-195.62"/>
</a>
</g>
<text text-anchor="middle" x="1340.5" y="-201" font-family="Helvetica,sans-Serif" font-size="10.00" fill="grey"> elements</text>
</g>
<!-- Node19&#45;&gt;Node18 -->
<g id="edge22_Node000018_Node000019" class="edge">
<title>Node19&#45;&gt;Node18</title>
<g id="a_edge22_Node000018_Node000019"><a xlink:title=" ">
<path fill="none" stroke="#9a32cd" stroke-dasharray="5,2" d="M1044.44,-180.2C1073.49,-182.58 1109.17,-185.89 1141,-190 1146.83,-190.75 1152.88,-191.61 1158.93,-192.52"/>
<polygon fill="#9a32cd" stroke="#9a32cd" points="1045.01,-176.74 1034.76,-179.43 1044.45,-183.72 1045.01,-176.74"/>
</a>
</g>
<text text-anchor="middle" x="1098.5" y="-193" font-family="Helvetica,sans-Serif" font-size="10.00" fill="grey"> ptr</text>
</g>
<!-- Node20 -->
<g id="Node000020" class="node">
<title>Node20</title>
<g id="a_Node000020"><a xlink:title=" ">
<polygon fill="white" stroke="#666666" points="811.5,-193 673.5,-193 673.5,-163 811.5,-163 811.5,-193"/>
<text text-anchor="start" x="681.5" y="-181" font-family="Helvetica,sans-Serif" font-size="10.00">std::enable_shared</text>
<text text-anchor="middle" x="742.5" y="-170" font-family="Helvetica,sans-Serif" font-size="10.00">_from_this&lt; TypeInfoBase &gt;</text>
</a>
</g>
</g>
<!-- Node20&#45;&gt;Node19 -->
<g id="edge23_Node000019_Node000020" class="edge">
<title>Node20&#45;&gt;Node19</title>
<g id="a_edge23_Node000019_Node000020"><a xlink:title=" ">
<path fill="none" stroke="#63b8ff" d="M822.97,-177.34C860.97,-177.03 905.15,-176.66 937.69,-176.39"/>
<polygon fill="#63b8ff" stroke="#63b8ff" points="823.4,-173.84 813.43,-177.42 823.46,-180.84 823.4,-173.84"/>
</a>
</g>
</g>
<!-- Node21&#45;&gt;Node8 -->
<g id="edge29_Node000008_Node000021" class="edge">
<title>Node21&#45;&gt;Node8</title>
<g id="a_edge29_Node000008_Node000021"><a xlink:title=" ">
<path fill="none" stroke="orange" stroke-dasharray="5,2" d="M1049.76,-232.16C1051.87,-232.46 1053.95,-232.74 1056,-233 1130.54,-242.51 1149.35,-247 1224.5,-247 1224.5,-247 1224.5,-247 1688.5,-247 1720.66,-247 1756.53,-247 1785.86,-247"/>
<polygon fill="orange" stroke="orange" points="1050.32,-228.71 1039.91,-230.7 1049.29,-235.63 1050.32,-228.71"/>
</a>
</g>
<text text-anchor="start" x="1406.5" y="-261" font-family="Helvetica,sans-Serif" font-size="10.00" fill="grey"> &lt; Harlinn::AI::Meta</text>
<text text-anchor="middle" x="1449" y="-250" font-family="Helvetica,sans-Serif" font-size="10.00" fill="grey">::Metadata &gt;</text>
</g>
<!-- Node21&#45;&gt;Node18 -->
<g id="edge25_Node000018_Node000021" class="edge">
<title>Node21&#45;&gt;Node18</title>
<g id="a_edge25_Node000018_Node000021"><a xlink:title=" ">
<path fill="none" stroke="orange" stroke-dasharray="5,2" d="M1049.77,-211.62C1051.87,-211.4 1053.95,-211.19 1056,-211 1089.82,-207.87 1127.59,-206.14 1158.78,-205.18"/>
<polygon fill="orange" stroke="orange" points="1049.46,-208.13 1039.93,-212.77 1050.27,-215.09 1049.46,-208.13"/>
</a>
</g>
<text text-anchor="start" x="1056" y="-225" font-family="Helvetica,sans-Serif" font-size="10.00" fill="grey"> &lt; Harlinn::AI::Meta</text>
<text text-anchor="middle" x="1098.5" y="-214" font-family="Helvetica,sans-Serif" font-size="10.00" fill="grey">::TypeInfoBase &gt;</text>
</g>
<!-- Node22&#45;&gt;Node17 -->
<g id="edge27_Node000017_Node000022" class="edge">
<title>Node22&#45;&gt;Node17</title>
<g id="a_edge27_Node000017_Node000022"><a xlink:title=" ">
<path fill="none" stroke="orange" stroke-dasharray="5,2" d="M447.29,-270.13C495.33,-276.75 567.97,-285 631.5,-285 631.5,-285 631.5,-285 1226.5,-285 1263.84,-285 1356.8,-238.81 1409.66,-210.85"/>
<polygon fill="orange" stroke="orange" points="447.81,-266.67 437.42,-268.74 446.84,-273.6 447.81,-266.67"/>
</a>
</g>
<text text-anchor="start" x="831" y="-310" font-family="Helvetica,sans-Serif" font-size="10.00" fill="grey"> &lt; std::shared_ptr&lt;</text>
<text text-anchor="start" x="831" y="-299" font-family="Helvetica,sans-Serif" font-size="10.00" fill="grey"> Harlinn::AI::Meta::</text>
<text text-anchor="middle" x="873" y="-288" font-family="Helvetica,sans-Serif" font-size="10.00" fill="grey">TypeInfoBase &gt; &gt;</text>
</g>
</g>
</svg>
