<?xml version="1.0" encoding="UTF-8" standalone="no"?>
<!DOCTYPE svg PUBLIC "-//W3C//DTD SVG 1.1//EN"
 "http://www.w3.org/Graphics/SVG/1.1/DTD/svg11.dtd">
<!-- Generated by graphviz version 7.0.1 (20221109.1506)
 -->
<!-- Title: Harlinn::Common::Core::Security::AccessControlEntryBase&lt; AceT, AccessMaskT &gt; Pages: 1 -->
<svg width="1113pt" height="858pt"
 viewBox="0.00 0.00 1113.00 857.50" xmlns="http://www.w3.org/2000/svg" xmlns:xlink="http://www.w3.org/1999/xlink">
<g id="graph0" class="graph" transform="scale(1 1) rotate(0) translate(4 853.5)">
<title>Harlinn::Common::Core::Security::AccessControlEntryBase&lt; AceT, AccessMaskT &gt;</title>
<!-- Node1 -->
<g id="Node000001" class="node">
<title>Node1</title>
<g id="a_Node000001"><a xlink:title=" ">
<polygon fill="#999999" stroke="#666666" points="461,-418.5 309,-418.5 309,-377.5 461,-377.5 461,-418.5"/>
<text text-anchor="start" x="317" y="-406.5" font-family="Helvetica,sans-Serif" font-size="10.00">Harlinn::Common::Core</text>
<text text-anchor="start" x="317" y="-395.5" font-family="Helvetica,sans-Serif" font-size="10.00">::Security::AccessControlEntry</text>
<text text-anchor="middle" x="385" y="-384.5" font-family="Helvetica,sans-Serif" font-size="10.00">Base&lt; AceT, AccessMaskT &gt;</text>
</a>
</g>
</g>
<!-- Node4 -->
<g id="Node000004" class="node">
<title>Node4</title>
<g id="a_Node000004"><a xlink:href="class_harlinn_1_1_common_1_1_core_1_1_security_1_1_access_control_entry_base.xhtml" target="_top" xlink:title=" ">
<polygon fill="white" stroke="#666666" points="864.5,-802 694.5,-802 694.5,-750 864.5,-750 864.5,-802"/>
<text text-anchor="start" x="702.5" y="-790" font-family="Helvetica,sans-Serif" font-size="10.00">Harlinn::Common::Core</text>
<text text-anchor="start" x="702.5" y="-779" font-family="Helvetica,sans-Serif" font-size="10.00">::Security::AccessControlEntry</text>
<text text-anchor="start" x="702.5" y="-768" font-family="Helvetica,sans-Serif" font-size="10.00">Base&lt; ACCESS_ALLOWED_ACE,</text>
<text text-anchor="middle" x="779.5" y="-757" font-family="Helvetica,sans-Serif" font-size="10.00"> AccessMask &gt;</text>
</a>
</g>
</g>
<!-- Node1&#45;&gt;Node4 -->
<g id="edge3_Node000001_Node000004" class="edge">
<title>Node1&#45;&gt;Node4</title>
<g id="a_edge3_Node000001_Node000004"><a xlink:title=" ">
<path fill="none" stroke="orange" stroke-dasharray="5,2" d="M390.59,-429.68C402.02,-504.13 434.13,-686.95 479,-727 537.07,-778.84 627.88,-787.16 694.29,-784.93"/>
<polygon fill="orange" stroke="orange" points="394.11,-429.57 389.16,-420.2 387.19,-430.61 394.11,-429.57"/>
</a>
</g>
<text text-anchor="start" x="496.5" y="-798" font-family="Helvetica,sans-Serif" font-size="10.00" fill="grey"> &lt; ACCESS_ALLOWED_ACE,</text>
<text text-anchor="middle" x="564" y="-787" font-family="Helvetica,sans-Serif" font-size="10.00" fill="grey"> AccessMask &gt;</text>
</g>
<!-- Node7 -->
<g id="Node000007" class="node">
<title>Node7</title>
<g id="a_Node000007"><a xlink:href="class_harlinn_1_1_common_1_1_core_1_1_security_1_1_access_control_entry_base.xhtml" target="_top" xlink:title=" ">
<polygon fill="white" stroke="#666666" points="878.5,-732 680.5,-732 680.5,-680 878.5,-680 878.5,-732"/>
<text text-anchor="start" x="688.5" y="-720" font-family="Helvetica,sans-Serif" font-size="10.00">Harlinn::Common::Core</text>
<text text-anchor="start" x="688.5" y="-709" font-family="Helvetica,sans-Serif" font-size="10.00">::Security::AccessControlEntry</text>
<text text-anchor="start" x="688.5" y="-698" font-family="Helvetica,sans-Serif" font-size="10.00">Base&lt; ACCESS_ALLOWED_CALLBACK</text>
<text text-anchor="middle" x="779.5" y="-687" font-family="Helvetica,sans-Serif" font-size="10.00">_ACE, AccessMask &gt;</text>
</a>
</g>
</g>
<!-- Node1&#45;&gt;Node7 -->
<g id="edge6_Node000001_Node000007" class="edge">
<title>Node1&#45;&gt;Node7</title>
<g id="a_edge6_Node000001_Node000007"><a xlink:title=" ">
<path fill="none" stroke="orange" stroke-dasharray="5,2" d="M386.94,-429.9C390.48,-486.9 406.65,-605.79 479,-665 509.16,-689.68 605.11,-699.52 680.37,-703.44"/>
<polygon fill="orange" stroke="orange" points="390.45,-430.04 386.44,-420.24 383.46,-430.4 390.45,-430.04"/>
</a>
</g>
<text text-anchor="start" x="482.5" y="-715" font-family="Helvetica,sans-Serif" font-size="10.00" fill="grey"> &lt; ACCESS_ALLOWED_CALLBACK</text>
<text text-anchor="middle" x="564" y="-704" font-family="Helvetica,sans-Serif" font-size="10.00" fill="grey">_ACE, AccessMask &gt;</text>
</g>
<!-- Node9 -->
<g id="Node000009" class="node">
<title>Node9</title>
<g id="a_Node000009"><a xlink:href="class_harlinn_1_1_common_1_1_core_1_1_security_1_1_access_control_entry_base.xhtml" target="_top" xlink:title=" ">
<polygon fill="white" stroke="#666666" points="872.5,-662 686.5,-662 686.5,-610 872.5,-610 872.5,-662"/>
<text text-anchor="start" x="694.5" y="-650" font-family="Helvetica,sans-Serif" font-size="10.00">Harlinn::Common::Core</text>
<text text-anchor="start" x="694.5" y="-639" font-family="Helvetica,sans-Serif" font-size="10.00">::Security::AccessControlEntry</text>
<text text-anchor="start" x="694.5" y="-628" font-family="Helvetica,sans-Serif" font-size="10.00">Base&lt; ACCESS_DENIED_CALLBACK</text>
<text text-anchor="middle" x="779.5" y="-617" font-family="Helvetica,sans-Serif" font-size="10.00">_ACE, AccessMask &gt;</text>
</a>
</g>
</g>
<!-- Node1&#45;&gt;Node9 -->
<g id="edge8_Node000001_Node000009" class="edge">
<title>Node1&#45;&gt;Node9</title>
<g id="a_edge8_Node000001_Node000009"><a xlink:title=" ">
<path fill="none" stroke="orange" stroke-dasharray="5,2" d="M392.13,-429.88C402.23,-473.09 426.68,-549.27 479,-588 538.25,-631.87 622.27,-642.11 686.25,-642.38"/>
<polygon fill="orange" stroke="orange" points="395.61,-429.37 390.04,-420.36 388.77,-430.88 395.61,-429.37"/>
</a>
</g>
<text text-anchor="start" x="488.5" y="-654" font-family="Helvetica,sans-Serif" font-size="10.00" fill="grey"> &lt; ACCESS_DENIED_CALLBACK</text>
<text text-anchor="middle" x="564" y="-643" font-family="Helvetica,sans-Serif" font-size="10.00" fill="grey">_ACE, AccessMask &gt;</text>
</g>
<!-- Node11 -->
<g id="Node000011" class="node">
<title>Node11</title>
<g id="a_Node000011"><a xlink:href="class_harlinn_1_1_common_1_1_core_1_1_security_1_1_access_control_entry_base.xhtml" target="_top" xlink:title=" ">
<polygon fill="white" stroke="#666666" points="865.5,-592 693.5,-592 693.5,-540 865.5,-540 865.5,-592"/>
<text text-anchor="start" x="701.5" y="-580" font-family="Helvetica,sans-Serif" font-size="10.00">Harlinn::Common::Core</text>
<text text-anchor="start" x="701.5" y="-569" font-family="Helvetica,sans-Serif" font-size="10.00">::Security::AccessControlEntry</text>
<text text-anchor="start" x="701.5" y="-558" font-family="Helvetica,sans-Serif" font-size="10.00">Base&lt; SYSTEM_ACCESS_FILTER</text>
<text text-anchor="middle" x="779.5" y="-547" font-family="Helvetica,sans-Serif" font-size="10.00">_ACE, AccessMask &gt;</text>
</a>
</g>
</g>
<!-- Node1&#45;&gt;Node11 -->
<g id="edge10_Node000001_Node000011" class="edge">
<title>Node1&#45;&gt;Node11</title>
<g id="a_edge10_Node000001_Node000011"><a xlink:title=" ">
<path fill="none" stroke="orange" stroke-dasharray="5,2" d="M401.86,-428.33C417.66,-455.34 444.51,-493.63 479,-514 544.1,-552.44 630.12,-564.15 693.27,-567"/>
<polygon fill="orange" stroke="orange" points="405.07,-426.89 397.1,-419.91 398.98,-430.34 405.07,-426.89"/>
</a>
</g>
<text text-anchor="start" x="496" y="-576" font-family="Helvetica,sans-Serif" font-size="10.00" fill="grey"> &lt; SYSTEM_ACCESS_FILTER</text>
<text text-anchor="middle" x="564" y="-565" font-family="Helvetica,sans-Serif" font-size="10.00" fill="grey">_ACE, AccessMask &gt;</text>
</g>
<!-- Node13 -->
<g id="Node000013" class="node">
<title>Node13</title>
<g id="a_Node000013"><a xlink:href="class_harlinn_1_1_common_1_1_core_1_1_security_1_1_access_control_entry_base.xhtml" target="_top" xlink:title=" ">
<polygon fill="white" stroke="#666666" points="892,-521.5 667,-521.5 667,-480.5 892,-480.5 892,-521.5"/>
<text text-anchor="start" x="675" y="-509.5" font-family="Helvetica,sans-Serif" font-size="10.00">Harlinn::Common::Core</text>
<text text-anchor="start" x="675" y="-498.5" font-family="Helvetica,sans-Serif" font-size="10.00">::Security::AccessControlEntry</text>
<text text-anchor="middle" x="779.5" y="-487.5" font-family="Helvetica,sans-Serif" font-size="10.00">Base&lt; SYSTEM_ALARM_ACE, AccessMask &gt;</text>
</a>
</g>
</g>
<!-- Node1&#45;&gt;Node13 -->
<g id="edge12_Node000001_Node000013" class="edge">
<title>Node1&#45;&gt;Node13</title>
<g id="a_edge12_Node000001_Node000013"><a xlink:title=" ">
<path fill="none" stroke="orange" stroke-dasharray="5,2" d="M426.46,-424.59C442.28,-433.91 460.94,-443.63 479,-450 539.18,-471.24 609.38,-483.79 666.69,-491.13"/>
<polygon fill="orange" stroke="orange" points="428.67,-421.83 418.3,-419.65 425.05,-427.82 428.67,-421.83"/>
</a>
</g>
<text text-anchor="start" x="503.5" y="-502" font-family="Helvetica,sans-Serif" font-size="10.00" fill="grey"> &lt; SYSTEM_ALARM_ACE,</text>
<text text-anchor="middle" x="564" y="-491" font-family="Helvetica,sans-Serif" font-size="10.00" fill="grey"> AccessMask &gt;</text>
</g>
<!-- Node15 -->
<g id="Node000015" class="node">
<title>Node15</title>
<g id="a_Node000015"><a xlink:href="class_harlinn_1_1_common_1_1_core_1_1_security_1_1_access_control_entry_base.xhtml" target="_top" xlink:title=" ">
<polygon fill="white" stroke="#666666" points="871.5,-462 687.5,-462 687.5,-410 871.5,-410 871.5,-462"/>
<text text-anchor="start" x="695.5" y="-450" font-family="Helvetica,sans-Serif" font-size="10.00">Harlinn::Common::Core</text>
<text text-anchor="start" x="695.5" y="-439" font-family="Helvetica,sans-Serif" font-size="10.00">::Security::AccessControlEntry</text>
<text text-anchor="start" x="695.5" y="-428" font-family="Helvetica,sans-Serif" font-size="10.00">Base&lt; SYSTEM_ALARM_CALLBACK</text>
<text text-anchor="middle" x="779.5" y="-417" font-family="Helvetica,sans-Serif" font-size="10.00">_ACE, AccessMask &gt;</text>
</a>
</g>
</g>
<!-- Node1&#45;&gt;Node15 -->
<g id="edge14_Node000001_Node000015" class="edge">
<title>Node1&#45;&gt;Node15</title>
<g id="a_edge14_Node000001_Node000015"><a xlink:title=" ">
<path fill="none" stroke="orange" stroke-dasharray="5,2" d="M472.74,-408.34C474.85,-408.56 476.94,-408.79 479,-409 548.71,-416.26 627.67,-423.33 687.01,-428.42"/>
<polygon fill="orange" stroke="orange" points="473.18,-404.87 462.86,-407.26 472.42,-411.82 473.18,-404.87"/>
</a>
</g>
<text text-anchor="start" x="490" y="-438" font-family="Helvetica,sans-Serif" font-size="10.00" fill="grey"> &lt; SYSTEM_ALARM_CALLBACK</text>
<text text-anchor="middle" x="564" y="-427" font-family="Helvetica,sans-Serif" font-size="10.00" fill="grey">_ACE, AccessMask &gt;</text>
</g>
<!-- Node17 -->
<g id="Node000017" class="node">
<title>Node17</title>
<g id="a_Node000017"><a xlink:href="class_harlinn_1_1_common_1_1_core_1_1_security_1_1_access_control_entry_base.xhtml" target="_top" xlink:title=" ">
<polygon fill="white" stroke="#666666" points="889,-391.5 670,-391.5 670,-350.5 889,-350.5 889,-391.5"/>
<text text-anchor="start" x="678" y="-379.5" font-family="Helvetica,sans-Serif" font-size="10.00">Harlinn::Common::Core</text>
<text text-anchor="start" x="678" y="-368.5" font-family="Helvetica,sans-Serif" font-size="10.00">::Security::AccessControlEntry</text>
<text text-anchor="middle" x="779.5" y="-357.5" font-family="Helvetica,sans-Serif" font-size="10.00">Base&lt; SYSTEM_AUDIT_ACE, AccessMask &gt;</text>
</a>
</g>
</g>
<!-- Node1&#45;&gt;Node17 -->
<g id="edge16_Node000001_Node000017" class="edge">
<title>Node1&#45;&gt;Node17</title>
<g id="a_edge16_Node000001_Node000017"><a xlink:title=" ">
<path fill="none" stroke="orange" stroke-dasharray="5,2" d="M472.73,-387.56C474.84,-387.36 476.93,-387.18 479,-387 542.03,-381.59 612.7,-377.72 669.55,-375.13"/>
<polygon fill="orange" stroke="orange" points="472.45,-384.07 462.84,-388.53 473.13,-391.04 472.45,-384.07"/>
</a>
</g>
<text text-anchor="start" x="506.5" y="-401" font-family="Helvetica,sans-Serif" font-size="10.00" fill="grey"> &lt; SYSTEM_AUDIT_ACE,</text>
<text text-anchor="middle" x="564" y="-390" font-family="Helvetica,sans-Serif" font-size="10.00" fill="grey"> AccessMask &gt;</text>
</g>
<!-- Node19 -->
<g id="Node000019" class="node">
<title>Node19</title>
<g id="a_Node000019"><a xlink:href="class_harlinn_1_1_common_1_1_core_1_1_security_1_1_access_control_entry_base.xhtml" target="_top" xlink:title=" ">
<polygon fill="white" stroke="#666666" points="868.5,-332 690.5,-332 690.5,-280 868.5,-280 868.5,-332"/>
<text text-anchor="start" x="698.5" y="-320" font-family="Helvetica,sans-Serif" font-size="10.00">Harlinn::Common::Core</text>
<text text-anchor="start" x="698.5" y="-309" font-family="Helvetica,sans-Serif" font-size="10.00">::Security::AccessControlEntry</text>
<text text-anchor="start" x="698.5" y="-298" font-family="Helvetica,sans-Serif" font-size="10.00">Base&lt; SYSTEM_AUDIT_CALLBACK</text>
<text text-anchor="middle" x="779.5" y="-287" font-family="Helvetica,sans-Serif" font-size="10.00">_ACE, AccessMask &gt;</text>
</a>
</g>
</g>
<!-- Node1&#45;&gt;Node19 -->
<g id="edge18_Node000001_Node000019" class="edge">
<title>Node1&#45;&gt;Node19</title>
<g id="a_edge18_Node000001_Node000019"><a xlink:title=" ">
<path fill="none" stroke="orange" stroke-dasharray="5,2" d="M430.63,-371.82C445.57,-364.05 462.61,-356.22 479,-351 548.13,-328.97 629.76,-317.61 690.33,-311.82"/>
<polygon fill="orange" stroke="orange" points="429.14,-368.64 421.98,-376.45 432.45,-374.82 429.14,-368.64"/>
</a>
</g>
<text text-anchor="start" x="493" y="-365" font-family="Helvetica,sans-Serif" font-size="10.00" fill="grey"> &lt; SYSTEM_AUDIT_CALLBACK</text>
<text text-anchor="middle" x="564" y="-354" font-family="Helvetica,sans-Serif" font-size="10.00" fill="grey">_ACE, AccessMask &gt;</text>
</g>
<!-- Node21 -->
<g id="Node000021" class="node">
<title>Node21</title>
<g id="a_Node000021"><a xlink:href="class_harlinn_1_1_common_1_1_core_1_1_security_1_1_access_control_entry_base.xhtml" target="_top" xlink:title=" ">
<polygon fill="white" stroke="#666666" points="875,-262 684,-262 684,-210 875,-210 875,-262"/>
<text text-anchor="start" x="692" y="-250" font-family="Helvetica,sans-Serif" font-size="10.00">Harlinn::Common::Core</text>
<text text-anchor="start" x="692" y="-239" font-family="Helvetica,sans-Serif" font-size="10.00">::Security::AccessControlEntry</text>
<text text-anchor="start" x="692" y="-228" font-family="Helvetica,sans-Serif" font-size="10.00">Base&lt; SYSTEM_MANDATORY_LABEL</text>
<text text-anchor="middle" x="779.5" y="-217" font-family="Helvetica,sans-Serif" font-size="10.00">_ACE, AccessMask &gt;</text>
</a>
</g>
</g>
<!-- Node1&#45;&gt;Node21 -->
<g id="edge20_Node000001_Node000021" class="edge">
<title>Node1&#45;&gt;Node21</title>
<g id="a_edge20_Node000001_Node000021"><a xlink:title=" ">
<path fill="none" stroke="orange" stroke-dasharray="5,2" d="M404.04,-367.71C420.41,-343.02 446.87,-309.33 479,-291 541.33,-255.44 621.78,-242.13 683.59,-237.47"/>
<polygon fill="orange" stroke="orange" points="401.13,-365.76 398.68,-376.07 407.02,-369.54 401.13,-365.76"/>
</a>
</g>
<text text-anchor="start" x="497" y="-305" font-family="Helvetica,sans-Serif" font-size="10.00" fill="grey"> &lt; SYSTEM_MANDATORY</text>
<text text-anchor="middle" x="564" y="-294" font-family="Helvetica,sans-Serif" font-size="10.00" fill="grey">_LABEL_ACE, AccessMask &gt;</text>
</g>
<!-- Node23 -->
<g id="Node000023" class="node">
<title>Node23</title>
<g id="a_Node000023"><a xlink:href="class_harlinn_1_1_common_1_1_core_1_1_security_1_1_access_control_entry_base.xhtml" target="_top" xlink:title=" ">
<polygon fill="white" stroke="#666666" points="868.5,-192 690.5,-192 690.5,-140 868.5,-140 868.5,-192"/>
<text text-anchor="start" x="698.5" y="-180" font-family="Helvetica,sans-Serif" font-size="10.00">Harlinn::Common::Core</text>
<text text-anchor="start" x="698.5" y="-169" font-family="Helvetica,sans-Serif" font-size="10.00">::Security::AccessControlEntry</text>
<text text-anchor="start" x="698.5" y="-158" font-family="Helvetica,sans-Serif" font-size="10.00">Base&lt; SYSTEM_PROCESS_TRUST</text>
<text text-anchor="middle" x="779.5" y="-147" font-family="Helvetica,sans-Serif" font-size="10.00">_LABEL_ACE, AccessMask &gt;</text>
</a>
</g>
</g>
<!-- Node1&#45;&gt;Node23 -->
<g id="edge22_Node000001_Node000023" class="edge">
<title>Node1&#45;&gt;Node23</title>
<g id="a_edge22_Node000001_Node000023"><a xlink:title=" ">
<path fill="none" stroke="orange" stroke-dasharray="5,2" d="M392.97,-365.97C403.8,-324.36 428.86,-252.71 479,-216 539.72,-171.55 625.85,-161.12 690.17,-160.6"/>
<polygon fill="orange" stroke="orange" points="389.58,-365.09 390.59,-375.64 396.38,-366.77 389.58,-365.09"/>
</a>
</g>
<text text-anchor="start" x="493" y="-230" font-family="Helvetica,sans-Serif" font-size="10.00" fill="grey"> &lt; SYSTEM_PROCESS_TRUST</text>
<text text-anchor="middle" x="564" y="-219" font-family="Helvetica,sans-Serif" font-size="10.00" fill="grey">_LABEL_ACE, AccessMask &gt;</text>
</g>
<!-- Node25 -->
<g id="Node000025" class="node">
<title>Node25</title>
<g id="a_Node000025"><a xlink:href="class_harlinn_1_1_common_1_1_core_1_1_security_1_1_access_control_entry_base.xhtml" target="_top" xlink:title=" ">
<polygon fill="white" stroke="#666666" points="882.5,-122 676.5,-122 676.5,-70 882.5,-70 882.5,-122"/>
<text text-anchor="start" x="684.5" y="-110" font-family="Helvetica,sans-Serif" font-size="10.00">Harlinn::Common::Core</text>
<text text-anchor="start" x="684.5" y="-99" font-family="Helvetica,sans-Serif" font-size="10.00">::Security::AccessControlEntry</text>
<text text-anchor="start" x="684.5" y="-88" font-family="Helvetica,sans-Serif" font-size="10.00">Base&lt; SYSTEM_RESOURCE_ATTRIBUTE</text>
<text text-anchor="middle" x="779.5" y="-77" font-family="Helvetica,sans-Serif" font-size="10.00">_ACE, AccessMask &gt;</text>
</a>
</g>
</g>
<!-- Node1&#45;&gt;Node25 -->
<g id="edge24_Node000001_Node000025" class="edge">
<title>Node1&#45;&gt;Node25</title>
<g id="a_edge24_Node000001_Node000025"><a xlink:title=" ">
<path fill="none" stroke="orange" stroke-dasharray="5,2" d="M387.24,-366.03C391.27,-309.98 408.22,-194.51 479,-137 508.68,-112.88 601.65,-102.94 676.22,-98.84"/>
<polygon fill="orange" stroke="orange" points="383.75,-365.65 386.64,-375.85 390.74,-366.08 383.75,-365.65"/>
</a>
</g>
<text text-anchor="start" x="479" y="-151" font-family="Helvetica,sans-Serif" font-size="10.00" fill="grey"> &lt; SYSTEM_RESOURCE_ATTRIBUTE</text>
<text text-anchor="middle" x="564" y="-140" font-family="Helvetica,sans-Serif" font-size="10.00" fill="grey">_ACE, AccessMask &gt;</text>
</g>
<!-- Node27 -->
<g id="Node000027" class="node">
<title>Node27</title>
<g id="a_Node000027"><a xlink:href="class_harlinn_1_1_common_1_1_core_1_1_security_1_1_access_control_entry_base.xhtml" target="_top" xlink:title=" ">
<polygon fill="white" stroke="#666666" points="867.5,-52 691.5,-52 691.5,0 867.5,0 867.5,-52"/>
<text text-anchor="start" x="699.5" y="-40" font-family="Helvetica,sans-Serif" font-size="10.00">Harlinn::Common::Core</text>
<text text-anchor="start" x="699.5" y="-29" font-family="Helvetica,sans-Serif" font-size="10.00">::Security::AccessControlEntry</text>
<text text-anchor="start" x="699.5" y="-18" font-family="Helvetica,sans-Serif" font-size="10.00">Base&lt; SYSTEM_SCOPED_POLICY</text>
<text text-anchor="middle" x="779.5" y="-7" font-family="Helvetica,sans-Serif" font-size="10.00">_ID_ACE, AccessMask &gt;</text>
</a>
</g>
</g>
<!-- Node1&#45;&gt;Node27 -->
<g id="edge26_Node000001_Node000027" class="edge">
<title>Node1&#45;&gt;Node27</title>
<g id="a_edge26_Node000001_Node000027"><a xlink:title=" ">
<path fill="none" stroke="orange" stroke-dasharray="5,2" d="M390.83,-365.92C402.58,-292.21 434.99,-114.1 479,-75 536.31,-24.09 625.23,-15.22 691.3,-17.05"/>
<polygon fill="orange" stroke="orange" points="387.38,-365.3 389.29,-375.72 394.3,-366.38 387.38,-365.3"/>
</a>
</g>
<text text-anchor="start" x="494" y="-89" font-family="Helvetica,sans-Serif" font-size="10.00" fill="grey"> &lt; SYSTEM_SCOPED_POLICY</text>
<text text-anchor="middle" x="564" y="-78" font-family="Helvetica,sans-Serif" font-size="10.00" fill="grey">_ID_ACE, AccessMask &gt;</text>
</g>
<!-- Node2 -->
<g id="Node000002" class="node">
<title>Node2</title>
<g id="a_Node000002"><a xlink:href="class_harlinn_1_1_common_1_1_core_1_1_security_1_1_access_control_entry.xhtml" target="_top" xlink:title="Base class for the various ACE wrappers.">
<polygon fill="white" stroke="#666666" points="272,-413 120,-413 120,-383 272,-383 272,-413"/>
<text text-anchor="start" x="128" y="-401" font-family="Helvetica,sans-Serif" font-size="10.00">Harlinn::Common::Core</text>
<text text-anchor="middle" x="196" y="-390" font-family="Helvetica,sans-Serif" font-size="10.00">::Security::AccessControlEntry</text>
</a>
</g>
</g>
<!-- Node2&#45;&gt;Node1 -->
<g id="edge1_Node000001_Node000002" class="edge">
<title>Node2&#45;&gt;Node1</title>
<g id="a_edge1_Node000001_Node000002"><a xlink:title=" ">
<path fill="none" stroke="#63b8ff" d="M283.58,-398C291.93,-398 300.36,-398 308.6,-398"/>
<polygon fill="#63b8ff" stroke="#63b8ff" points="283.77,-394.5 273.77,-398 283.77,-401.5 283.77,-394.5"/>
</a>
</g>
</g>
<!-- Node3 -->
<g id="Node000003" class="node">
<title>Node3</title>
<g id="a_Node000003"><a xlink:title=" ">
<polygon fill="white" stroke="#666666" points="83,-407.5 0,-407.5 0,-388.5 83,-388.5 83,-407.5"/>
<text text-anchor="middle" x="41.5" y="-395.5" font-family="Helvetica,sans-Serif" font-size="10.00">ACE_HEADER</text>
</a>
</g>
</g>
<!-- Node3&#45;&gt;Node2 -->
<g id="edge2_Node000002_Node000003" class="edge">
<title>Node3&#45;&gt;Node2</title>
<g id="a_edge2_Node000002_Node000003"><a xlink:title=" ">
<path fill="none" stroke="#8b1a1a" d="M94.77,-398C102.78,-398 111.18,-398 119.57,-398"/>
<polygon fill="#8b1a1a" stroke="#8b1a1a" points="94.88,-394.5 84.88,-398 94.88,-401.5 94.88,-394.5"/>
</a>
</g>
</g>
<!-- Node5 -->
<g id="Node000005" class="node">
<title>Node5</title>
<g id="a_Node000005"><a xlink:href="class_harlinn_1_1_common_1_1_core_1_1_security_1_1_access_allowed_access_control_entry.xhtml" target="_top" xlink:title=" ">
<polygon fill="white" stroke="#666666" points="1099,-849.5 935,-849.5 935,-808.5 1099,-808.5 1099,-849.5"/>
<text text-anchor="start" x="943" y="-837.5" font-family="Helvetica,sans-Serif" font-size="10.00">Harlinn::Common::Core</text>
<text text-anchor="start" x="943" y="-826.5" font-family="Helvetica,sans-Serif" font-size="10.00">::Security::AccessAllowedAccess</text>
<text text-anchor="middle" x="1017" y="-815.5" font-family="Helvetica,sans-Serif" font-size="10.00">ControlEntry</text>
</a>
</g>
</g>
<!-- Node4&#45;&gt;Node5 -->
<g id="edge4_Node000004_Node000005" class="edge">
<title>Node4&#45;&gt;Node5</title>
<g id="a_edge4_Node000004_Node000005"><a xlink:title=" ">
<path fill="none" stroke="#63b8ff" d="M875.89,-797.47C895.36,-801.85 915.67,-806.42 934.6,-810.68"/>
<polygon fill="#63b8ff" stroke="#63b8ff" points="876.86,-794.1 866.33,-795.32 875.32,-800.93 876.86,-794.1"/>
</a>
</g>
</g>
<!-- Node6 -->
<g id="Node000006" class="node">
<title>Node6</title>
<g id="a_Node000006"><a xlink:href="class_harlinn_1_1_common_1_1_core_1_1_security_1_1_access_denied_access_control_entry.xhtml" target="_top" xlink:title=" ">
<polygon fill="white" stroke="#666666" points="1097.5,-790.5 936.5,-790.5 936.5,-749.5 1097.5,-749.5 1097.5,-790.5"/>
<text text-anchor="start" x="944.5" y="-778.5" font-family="Helvetica,sans-Serif" font-size="10.00">Harlinn::Common::Core</text>
<text text-anchor="start" x="944.5" y="-767.5" font-family="Helvetica,sans-Serif" font-size="10.00">::Security::AccessDeniedAccess</text>
<text text-anchor="middle" x="1017" y="-756.5" font-family="Helvetica,sans-Serif" font-size="10.00">ControlEntry</text>
</a>
</g>
</g>
<!-- Node4&#45;&gt;Node6 -->
<g id="edge5_Node000004_Node000006" class="edge">
<title>Node4&#45;&gt;Node6</title>
<g id="a_edge5_Node000004_Node000006"><a xlink:title=" ">
<path fill="none" stroke="#63b8ff" d="M876.15,-773.56C896.07,-773.06 916.88,-772.53 936.17,-772.03"/>
<polygon fill="#63b8ff" stroke="#63b8ff" points="876.28,-770.06 866.37,-773.81 876.45,-777.06 876.28,-770.06"/>
</a>
</g>
</g>
<!-- Node8 -->
<g id="Node000008" class="node">
<title>Node8</title>
<g id="a_Node000008"><a xlink:href="class_harlinn_1_1_common_1_1_core_1_1_security_1_1_access_allowed_callback_access_control_entry.xhtml" target="_top" xlink:title=" ">
<polygon fill="white" stroke="#666666" points="1101.5,-726.5 932.5,-726.5 932.5,-685.5 1101.5,-685.5 1101.5,-726.5"/>
<text text-anchor="start" x="940.5" y="-714.5" font-family="Helvetica,sans-Serif" font-size="10.00">Harlinn::Common::Core</text>
<text text-anchor="start" x="940.5" y="-703.5" font-family="Helvetica,sans-Serif" font-size="10.00">::Security::AccessAllowedCallback</text>
<text text-anchor="middle" x="1017" y="-692.5" font-family="Helvetica,sans-Serif" font-size="10.00">AccessControlEntry</text>
</a>
</g>
</g>
<!-- Node7&#45;&gt;Node8 -->
<g id="edge7_Node000007_Node000008" class="edge">
<title>Node7&#45;&gt;Node8</title>
<g id="a_edge7_Node000007_Node000008"><a xlink:title=" ">
<path fill="none" stroke="#63b8ff" d="M890,-706C904.18,-706 918.53,-706 932.21,-706"/>
<polygon fill="#63b8ff" stroke="#63b8ff" points="890.18,-702.5 880.18,-706 890.18,-709.5 890.18,-702.5"/>
</a>
</g>
</g>
<!-- Node10 -->
<g id="Node000010" class="node">
<title>Node10</title>
<g id="a_Node000010"><a xlink:href="class_harlinn_1_1_common_1_1_core_1_1_security_1_1_access_denied_callback_access_control_entry.xhtml" target="_top" xlink:title=" ">
<polygon fill="white" stroke="#666666" points="1099.5,-656.5 934.5,-656.5 934.5,-615.5 1099.5,-615.5 1099.5,-656.5"/>
<text text-anchor="start" x="942.5" y="-644.5" font-family="Helvetica,sans-Serif" font-size="10.00">Harlinn::Common::Core</text>
<text text-anchor="start" x="942.5" y="-633.5" font-family="Helvetica,sans-Serif" font-size="10.00">::Security::AccessDeniedCallback</text>
<text text-anchor="middle" x="1017" y="-622.5" font-family="Helvetica,sans-Serif" font-size="10.00">AccessControlEntry</text>
</a>
</g>
</g>
<!-- Node9&#45;&gt;Node10 -->
<g id="edge9_Node000009_Node000010" class="edge">
<title>Node9&#45;&gt;Node10</title>
<g id="a_edge9_Node000009_Node000010"><a xlink:title=" ">
<path fill="none" stroke="#63b8ff" d="M884.37,-636C901.06,-636 918.12,-636 934.19,-636"/>
<polygon fill="#63b8ff" stroke="#63b8ff" points="884.41,-632.5 874.41,-636 884.41,-639.5 884.41,-632.5"/>
</a>
</g>
</g>
<!-- Node12 -->
<g id="Node000012" class="node">
<title>Node12</title>
<g id="a_Node000012"><a xlink:href="class_harlinn_1_1_common_1_1_core_1_1_security_1_1_system_access_filter_access_control_entry.xhtml" target="_top" xlink:title=" ">
<polygon fill="white" stroke="#666666" points="1093.5,-586.5 940.5,-586.5 940.5,-545.5 1093.5,-545.5 1093.5,-586.5"/>
<text text-anchor="start" x="948.5" y="-574.5" font-family="Helvetica,sans-Serif" font-size="10.00">Harlinn::Common::Core</text>
<text text-anchor="start" x="948.5" y="-563.5" font-family="Helvetica,sans-Serif" font-size="10.00">::Security::SystemAccessFilter</text>
<text text-anchor="middle" x="1017" y="-552.5" font-family="Helvetica,sans-Serif" font-size="10.00">AccessControlEntry</text>
</a>
</g>
</g>
<!-- Node11&#45;&gt;Node12 -->
<g id="edge11_Node000011_Node000012" class="edge">
<title>Node11&#45;&gt;Node12</title>
<g id="a_edge11_Node000011_Node000012"><a xlink:title=" ">
<path fill="none" stroke="#63b8ff" d="M877.11,-566C898.18,-566 920.18,-566 940.3,-566"/>
<polygon fill="#63b8ff" stroke="#63b8ff" points="877.37,-562.5 867.37,-566 877.37,-569.5 877.37,-562.5"/>
</a>
</g>
</g>
<!-- Node14 -->
<g id="Node000014" class="node">
<title>Node14</title>
<g id="a_Node000014"><a xlink:href="class_harlinn_1_1_common_1_1_core_1_1_security_1_1_system_alarm_access_control_entry.xhtml" target="_top" xlink:title=" ">
<polygon fill="white" stroke="#666666" points="1095.5,-521.5 938.5,-521.5 938.5,-480.5 1095.5,-480.5 1095.5,-521.5"/>
<text text-anchor="start" x="946.5" y="-509.5" font-family="Helvetica,sans-Serif" font-size="10.00">Harlinn::Common::Core</text>
<text text-anchor="start" x="946.5" y="-498.5" font-family="Helvetica,sans-Serif" font-size="10.00">::Security::SystemAlarmAccess</text>
<text text-anchor="middle" x="1017" y="-487.5" font-family="Helvetica,sans-Serif" font-size="10.00">ControlEntry</text>
</a>
</g>
</g>
<!-- Node13&#45;&gt;Node14 -->
<g id="edge13_Node000013_Node000014" class="edge">
<title>Node13&#45;&gt;Node14</title>
<g id="a_edge13_Node000013_Node000014"><a xlink:title=" ">
<path fill="none" stroke="#63b8ff" d="M903.61,-501C915.3,-501 926.92,-501 938.01,-501"/>
<polygon fill="#63b8ff" stroke="#63b8ff" points="903.9,-497.5 893.9,-501 903.9,-504.5 903.9,-497.5"/>
</a>
</g>
</g>
<!-- Node16 -->
<g id="Node000016" class="node">
<title>Node16</title>
<g id="a_Node000016"><a xlink:href="class_harlinn_1_1_common_1_1_core_1_1_security_1_1_system_alarm_callback_access_control_entry.xhtml" target="_top" xlink:title=" ">
<polygon fill="white" stroke="#666666" points="1097.5,-456.5 936.5,-456.5 936.5,-415.5 1097.5,-415.5 1097.5,-456.5"/>
<text text-anchor="start" x="944.5" y="-444.5" font-family="Helvetica,sans-Serif" font-size="10.00">Harlinn::Common::Core</text>
<text text-anchor="start" x="944.5" y="-433.5" font-family="Helvetica,sans-Serif" font-size="10.00">::Security::SystemAlarmCallback</text>
<text text-anchor="middle" x="1017" y="-422.5" font-family="Helvetica,sans-Serif" font-size="10.00">AccessControlEntry</text>
</a>
</g>
</g>
<!-- Node15&#45;&gt;Node16 -->
<g id="edge15_Node000015_Node000016" class="edge">
<title>Node15&#45;&gt;Node16</title>
<g id="a_edge15_Node000015_Node000016"><a xlink:title=" ">
<path fill="none" stroke="#63b8ff" d="M883.16,-436C900.91,-436 919.13,-436 936.16,-436"/>
<polygon fill="#63b8ff" stroke="#63b8ff" points="883.4,-432.5 873.4,-436 883.4,-439.5 883.4,-432.5"/>
</a>
</g>
</g>
<!-- Node18 -->
<g id="Node000018" class="node">
<title>Node18</title>
<g id="a_Node000018"><a xlink:href="class_harlinn_1_1_common_1_1_core_1_1_security_1_1_system_audit_access_control_entry.xhtml" target="_top" xlink:title=" ">
<polygon fill="white" stroke="#666666" points="1094,-391.5 940,-391.5 940,-350.5 1094,-350.5 1094,-391.5"/>
<text text-anchor="start" x="948" y="-379.5" font-family="Helvetica,sans-Serif" font-size="10.00">Harlinn::Common::Core</text>
<text text-anchor="start" x="948" y="-368.5" font-family="Helvetica,sans-Serif" font-size="10.00">::Security::SystemAuditAccess</text>
<text text-anchor="middle" x="1017" y="-357.5" font-family="Helvetica,sans-Serif" font-size="10.00">ControlEntry</text>
</a>
</g>
</g>
<!-- Node17&#45;&gt;Node18 -->
<g id="edge17_Node000017_Node000018" class="edge">
<title>Node17&#45;&gt;Node18</title>
<g id="a_edge17_Node000017_Node000018"><a xlink:title=" ">
<path fill="none" stroke="#63b8ff" d="M900.46,-371C913.77,-371 927.04,-371 939.59,-371"/>
<polygon fill="#63b8ff" stroke="#63b8ff" points="900.8,-367.5 890.8,-371 900.8,-374.5 900.8,-367.5"/>
</a>
</g>
</g>
<!-- Node20 -->
<g id="Node000020" class="node">
<title>Node20</title>
<g id="a_Node000020"><a xlink:href="class_harlinn_1_1_common_1_1_core_1_1_security_1_1_system_audit_callback_access_control_entry.xhtml" target="_top" xlink:title=" ">
<polygon fill="white" stroke="#666666" points="1096,-326.5 938,-326.5 938,-285.5 1096,-285.5 1096,-326.5"/>
<text text-anchor="start" x="946" y="-314.5" font-family="Helvetica,sans-Serif" font-size="10.00">Harlinn::Common::Core</text>
<text text-anchor="start" x="946" y="-303.5" font-family="Helvetica,sans-Serif" font-size="10.00">::Security::SystemAuditCallback</text>
<text text-anchor="middle" x="1017" y="-292.5" font-family="Helvetica,sans-Serif" font-size="10.00">AccessControlEntry</text>
</a>
</g>
</g>
<!-- Node19&#45;&gt;Node20 -->
<g id="edge19_Node000019_Node000020" class="edge">
<title>Node19&#45;&gt;Node20</title>
<g id="a_edge19_Node000019_Node000020"><a xlink:title=" ">
<path fill="none" stroke="#63b8ff" d="M880.35,-306C899.48,-306 919.26,-306 937.6,-306"/>
<polygon fill="#63b8ff" stroke="#63b8ff" points="880.38,-302.5 870.38,-306 880.38,-309.5 880.38,-302.5"/>
</a>
</g>
</g>
<!-- Node22 -->
<g id="Node000022" class="node">
<title>Node22</title>
<g id="a_Node000022"><a xlink:href="class_harlinn_1_1_common_1_1_core_1_1_security_1_1_system_mandatory_label_access_control_entry.xhtml" target="_top" xlink:title=" ">
<polygon fill="white" stroke="#666666" points="1089,-256.5 945,-256.5 945,-215.5 1089,-215.5 1089,-256.5"/>
<text text-anchor="start" x="953" y="-244.5" font-family="Helvetica,sans-Serif" font-size="10.00">Harlinn::Common::Core</text>
<text text-anchor="start" x="953" y="-233.5" font-family="Helvetica,sans-Serif" font-size="10.00">::Security::SystemMandatory</text>
<text text-anchor="middle" x="1017" y="-222.5" font-family="Helvetica,sans-Serif" font-size="10.00">LabelAccessControlEntry</text>
</a>
</g>
</g>
<!-- Node21&#45;&gt;Node22 -->
<g id="edge21_Node000021_Node000022" class="edge">
<title>Node21&#45;&gt;Node22</title>
<g id="a_edge21_Node000021_Node000022"><a xlink:title=" ">
<path fill="none" stroke="#63b8ff" d="M886.74,-236C906.33,-236 926.35,-236 944.6,-236"/>
<polygon fill="#63b8ff" stroke="#63b8ff" points="886.78,-232.5 876.78,-236 886.78,-239.5 886.78,-232.5"/>
</a>
</g>
</g>
<!-- Node24 -->
<g id="Node000024" class="node">
<title>Node24</title>
<g id="a_Node000024"><a xlink:href="class_harlinn_1_1_common_1_1_core_1_1_security_1_1_system_process_trust_label_access_control_entry.xhtml" target="_top" xlink:title=" ">
<polygon fill="white" stroke="#666666" points="1095,-186.5 939,-186.5 939,-145.5 1095,-145.5 1095,-186.5"/>
<text text-anchor="start" x="947" y="-174.5" font-family="Helvetica,sans-Serif" font-size="10.00">Harlinn::Common::Core</text>
<text text-anchor="start" x="947" y="-163.5" font-family="Helvetica,sans-Serif" font-size="10.00">::Security::SystemProcessTrust</text>
<text text-anchor="middle" x="1017" y="-152.5" font-family="Helvetica,sans-Serif" font-size="10.00">LabelAccessControlEntry</text>
</a>
</g>
</g>
<!-- Node23&#45;&gt;Node24 -->
<g id="edge23_Node000023_Node000024" class="edge">
<title>Node23&#45;&gt;Node24</title>
<g id="a_edge23_Node000023_Node000024"><a xlink:title=" ">
<path fill="none" stroke="#63b8ff" d="M880.28,-166C899.83,-166 920.06,-166 938.75,-166"/>
<polygon fill="#63b8ff" stroke="#63b8ff" points="880.38,-162.5 870.38,-166 880.38,-169.5 880.38,-162.5"/>
</a>
</g>
</g>
<!-- Node26 -->
<g id="Node000026" class="node">
<title>Node26</title>
<g id="a_Node000026"><a xlink:href="class_harlinn_1_1_common_1_1_core_1_1_security_1_1_system_resource_attribute_access_control_entry.xhtml" target="_top" xlink:title=" ">
<polygon fill="white" stroke="#666666" points="1105,-116.5 929,-116.5 929,-75.5 1105,-75.5 1105,-116.5"/>
<text text-anchor="start" x="937" y="-104.5" font-family="Helvetica,sans-Serif" font-size="10.00">Harlinn::Common::Core</text>
<text text-anchor="start" x="937" y="-93.5" font-family="Helvetica,sans-Serif" font-size="10.00">::Security::SystemResourceAttribute</text>
<text text-anchor="middle" x="1017" y="-82.5" font-family="Helvetica,sans-Serif" font-size="10.00">AccessControlEntry</text>
</a>
</g>
</g>
<!-- Node25&#45;&gt;Node26 -->
<g id="edge25_Node000025_Node000026" class="edge">
<title>Node25&#45;&gt;Node26</title>
<g id="a_edge25_Node000025_Node000026"><a xlink:title=" ">
<path fill="none" stroke="#63b8ff" d="M894.27,-96C905.8,-96 917.39,-96 928.58,-96"/>
<polygon fill="#63b8ff" stroke="#63b8ff" points="894.28,-92.5 884.28,-96 894.28,-99.5 894.28,-92.5"/>
</a>
</g>
</g>
<!-- Node28 -->
<g id="Node000028" class="node">
<title>Node28</title>
<g id="a_Node000028"><a xlink:href="class_harlinn_1_1_common_1_1_core_1_1_security_1_1_system_scoped_policy_id_access_control_entry.xhtml" target="_top" xlink:title=" ">
<polygon fill="white" stroke="#666666" points="1096,-46.5 938,-46.5 938,-5.5 1096,-5.5 1096,-46.5"/>
<text text-anchor="start" x="946" y="-34.5" font-family="Helvetica,sans-Serif" font-size="10.00">Harlinn::Common::Core</text>
<text text-anchor="start" x="946" y="-23.5" font-family="Helvetica,sans-Serif" font-size="10.00">::Security::SystemScopedPolicy</text>
<text text-anchor="middle" x="1017" y="-12.5" font-family="Helvetica,sans-Serif" font-size="10.00">IdAccessControlEntry</text>
</a>
</g>
</g>
<!-- Node27&#45;&gt;Node28 -->
<g id="edge27_Node000027_Node000028" class="edge">
<title>Node27&#45;&gt;Node28</title>
<g id="a_edge27_Node000027_Node000028"><a xlink:title=" ">
<path fill="none" stroke="#63b8ff" d="M879.25,-26C898.76,-26 918.99,-26 937.72,-26"/>
<polygon fill="#63b8ff" stroke="#63b8ff" points="879.37,-22.5 869.37,-26 879.37,-29.5 879.37,-22.5"/>
</a>
</g>
</g>
</g>
</svg>
