<?xml version="1.0" encoding="UTF-8" standalone="no"?>
<!DOCTYPE svg PUBLIC "-//W3C//DTD SVG 1.1//EN"
 "http://www.w3.org/Graphics/SVG/1.1/DTD/svg11.dtd">
<!-- Generated by graphviz version 7.0.1 (20221109.1506)
 -->
<!-- Title: Harlinn::Common::Core::Math::Vector&lt; double, 4 &gt; Pages: 1 -->
<svg width="751pt" height="104pt"
 viewBox="0.00 0.00 751.00 103.50" xmlns="http://www.w3.org/2000/svg" xmlns:xlink="http://www.w3.org/1999/xlink">
<g id="graph0" class="graph" transform="scale(1 1) rotate(0) translate(4 99.5)">
<title>Harlinn::Common::Core::Math::Vector&lt; double, 4 &gt;</title>
<!-- Node1 -->
<g id="Node000001" class="node">
<title>Node1</title>
<g id="a_Node000001"><a xlink:title=" ">
<polygon fill="#999999" stroke="#666666" points="743,-86.5 606,-86.5 606,-56.5 743,-56.5 743,-86.5"/>
<text text-anchor="start" x="614" y="-74.5" font-family="Helvetica,sans-Serif" font-size="10.00">Harlinn::Common::Core</text>
<text text-anchor="middle" x="674.5" y="-63.5" font-family="Helvetica,sans-Serif" font-size="10.00">::Math::Vector&lt; double, 4 &gt;</text>
</a>
</g>
</g>
<!-- Node2 -->
<g id="Node000002" class="node">
<title>Node2</title>
<g id="a_Node000002"><a xlink:href="class_harlinn_1_1_common_1_1_core_1_1_math_1_1_tuple4.html" target="_top" xlink:title=" ">
<polygon fill="white" stroke="#666666" points="569,-92 451,-92 451,-51 569,-51 569,-92"/>
<text text-anchor="start" x="459" y="-80" font-family="Helvetica,sans-Serif" font-size="10.00">Harlinn::Common::Core</text>
<text text-anchor="start" x="459" y="-69" font-family="Helvetica,sans-Serif" font-size="10.00">::Math::Tuple4&lt; Vector</text>
<text text-anchor="middle" x="510" y="-58" font-family="Helvetica,sans-Serif" font-size="10.00">&lt; double, 4 &gt;, double &gt;</text>
</a>
</g>
</g>
<!-- Node2&#45;&gt;Node1 -->
<g id="edge1_Node000001_Node000002" class="edge">
<title>Node2&#45;&gt;Node1</title>
<g id="a_edge1_Node000001_Node000002"><a xlink:title=" ">
<path fill="none" stroke="#63b8ff" d="M580.48,-71.5C588.85,-71.5 597.39,-71.5 605.73,-71.5"/>
<polygon fill="#63b8ff" stroke="#63b8ff" points="580.72,-68 570.72,-71.5 580.72,-75 580.72,-68"/>
</a>
</g>
</g>
<!-- Node3 -->
<g id="Node000003" class="node">
<title>Node3</title>
<g id="a_Node000003"><a xlink:href="struct_harlinn_1_1_common_1_1_core_1_1_math_1_1_internal_1_1_tuple_base.html" target="_top" xlink:title=" ">
<polygon fill="white" stroke="#666666" points="134,-95.5 0,-95.5 0,-65.5 134,-65.5 134,-95.5"/>
<text text-anchor="start" x="8" y="-83.5" font-family="Helvetica,sans-Serif" font-size="10.00">Harlinn::Common::Core</text>
<text text-anchor="middle" x="67" y="-72.5" font-family="Helvetica,sans-Serif" font-size="10.00">::Math::Internal::TupleBase</text>
</a>
</g>
</g>
<!-- Node3&#45;&gt;Node2 -->
<g id="edge2_Node000002_Node000003" class="edge">
<title>Node3&#45;&gt;Node2</title>
<g id="a_edge2_Node000002_Node000003"><a xlink:title=" ">
<path fill="none" stroke="#63b8ff" d="M145.38,-82.58C219.31,-84.02 333.84,-84.84 433,-79.5 438.7,-79.19 444.62,-78.76 450.54,-78.26"/>
<polygon fill="#63b8ff" stroke="#63b8ff" points="145.91,-79.09 135.84,-82.38 145.77,-86.08 145.91,-79.09"/>
</a>
</g>
</g>
<!-- Node4 -->
<g id="Node000004" class="node">
<title>Node4</title>
<g id="a_Node000004"><a xlink:href="class_harlinn_1_1_common_1_1_core_1_1_math_1_1_tuple4.html" target="_top" xlink:title=" ">
<polygon fill="white" stroke="#666666" points="325,-65.5 180,-65.5 180,-35.5 325,-35.5 325,-65.5"/>
<text text-anchor="start" x="188" y="-53.5" font-family="Helvetica,sans-Serif" font-size="10.00">Harlinn::Common::Core</text>
<text text-anchor="middle" x="252.5" y="-42.5" font-family="Helvetica,sans-Serif" font-size="10.00">::Math::Tuple4&lt; DerivedT, T &gt;</text>
</a>
</g>
</g>
<!-- Node3&#45;&gt;Node4 -->
<g id="edge4_Node000004_Node000003" class="edge">
<title>Node3&#45;&gt;Node4</title>
<g id="a_edge4_Node000004_Node000003"><a xlink:title=" ">
<path fill="none" stroke="#63b8ff" d="M145.49,-67.83C156.85,-65.97 168.52,-64.07 179.77,-62.23"/>
<polygon fill="#63b8ff" stroke="#63b8ff" points="145.05,-64.36 135.74,-69.43 146.18,-71.27 145.05,-64.36"/>
</a>
</g>
</g>
<!-- Node4&#45;&gt;Node2 -->
<g id="edge3_Node000002_Node000004" class="edge">
<title>Node4&#45;&gt;Node2</title>
<g id="a_edge3_Node000002_Node000004"><a xlink:title=" ">
<path fill="none" stroke="orange" stroke-dasharray="5,2" d="M336.72,-51.27C367.09,-52.2 401.67,-54.02 433,-57.5 438.73,-58.14 444.69,-58.95 450.62,-59.87"/>
<polygon fill="orange" stroke="orange" points="336.91,-47.77 326.81,-50.99 336.71,-54.77 336.91,-47.77"/>
</a>
</g>
<text text-anchor="start" x="343" y="-71.5" font-family="Helvetica,sans-Serif" font-size="10.00" fill="grey"> &lt; Vector&lt; double, 4</text>
<text text-anchor="middle" x="388" y="-60.5" font-family="Helvetica,sans-Serif" font-size="10.00" fill="grey"> &gt;, double &gt;</text>
</g>
<!-- Node5 -->
<g id="Node000005" class="node">
<title>Node5</title>
<g id="a_Node000005"><a xlink:title=" ">
<polygon fill="white" stroke="#666666" points="81.5,-19 52.5,-19 52.5,0 81.5,0 81.5,-19"/>
<text text-anchor="middle" x="67" y="-7" font-family="Helvetica,sans-Serif" font-size="10.00">T</text>
</a>
</g>
</g>
<!-- Node5&#45;&gt;Node4 -->
<g id="edge5_Node000004_Node000005" class="edge">
<title>Node5&#45;&gt;Node4</title>
<g id="a_edge5_Node000004_Node000005"><a xlink:title=" ">
<path fill="none" stroke="#9a32cd" stroke-dasharray="5,2" d="M93.19,-9.82C112.28,-10.5 139.05,-12.39 162,-17.5 180.43,-21.6 200.19,-28.6 216.45,-35.09"/>
<polygon fill="#9a32cd" stroke="#9a32cd" points="93.47,-6.32 83.39,-9.56 93.29,-13.32 93.47,-6.32"/>
</a>
</g>
<text text-anchor="middle" x="157" y="-53.5" font-family="Helvetica,sans-Serif" font-size="10.00" fill="grey"> w</text>
<text text-anchor="middle" x="157" y="-42.5" font-family="Helvetica,sans-Serif" font-size="10.00" fill="grey">x</text>
<text text-anchor="middle" x="157" y="-31.5" font-family="Helvetica,sans-Serif" font-size="10.00" fill="grey">y</text>
<text text-anchor="middle" x="157" y="-20.5" font-family="Helvetica,sans-Serif" font-size="10.00" fill="grey">z</text>
</g>
</g>
</svg>
