<?xml version="1.0" encoding="UTF-8" standalone="no"?>
<!DOCTYPE svg PUBLIC "-//W3C//DTD SVG 1.1//EN"
 "http://www.w3.org/Graphics/SVG/1.1/DTD/svg11.dtd">
<!-- Generated by graphviz version 7.0.1 (20221109.1506)
 -->
<!-- Title: Harlinn::Windows::Graphics::D3D12::GraphicsCommandList Pages: 1 -->
<svg width="165pt" height="302pt"
 viewBox="0.00 0.00 165.00 302.00" xmlns="http://www.w3.org/2000/svg" xmlns:xlink="http://www.w3.org/1999/xlink">
<g id="graph0" class="graph" transform="scale(1 1) rotate(0) translate(4 298)">
<title>Harlinn::Windows::Graphics::D3D12::GraphicsCommandList</title>
<!-- Node1 -->
<g id="Node000001" class="node">
<title>Node1</title>
<g id="a_Node000001"><a xlink:title="Encapsulates a list of graphics commands for rendering. Includes APIs for instrumenting the command l...">
<polygon fill="#999999" stroke="#666666" points="157,-30 0,-30 0,0 157,0 157,-30"/>
<text text-anchor="start" x="8" y="-18" font-family="Helvetica,sans-Serif" font-size="10.00">Harlinn::Windows::Graphics</text>
<text text-anchor="middle" x="78.5" y="-7" font-family="Helvetica,sans-Serif" font-size="10.00">::D3D12::GraphicsCommandList</text>
</a>
</g>
</g>
<!-- Node2 -->
<g id="Node000002" class="node">
<title>Node2</title>
<g id="a_Node000002"><a xlink:href="class_harlinn_1_1_windows_1_1_graphics_1_1_d3_d12_1_1_command_list.html" target="_top" xlink:title="The base class for the GraphicsCommandList class. It represents an ordered set of commands that the G...">
<polygon fill="white" stroke="#666666" points="147,-96 10,-96 10,-66 147,-66 147,-96"/>
<text text-anchor="start" x="18" y="-84" font-family="Helvetica,sans-Serif" font-size="10.00">Harlinn::Windows::Graphics</text>
<text text-anchor="middle" x="78.5" y="-73" font-family="Helvetica,sans-Serif" font-size="10.00">::D3D12::CommandList</text>
</a>
</g>
</g>
<!-- Node2&#45;&gt;Node1 -->
<g id="edge1_Node000001_Node000002" class="edge">
<title>Node2&#45;&gt;Node1</title>
<g id="a_edge1_Node000001_Node000002"><a xlink:title=" ">
<path fill="none" stroke="#63b8ff" d="M78.5,-54.39C78.5,-46.13 78.5,-37.28 78.5,-30.16"/>
<polygon fill="#63b8ff" stroke="#63b8ff" points="75,-54.28 78.5,-64.28 82,-54.28 75,-54.28"/>
</a>
</g>
</g>
<!-- Node3 -->
<g id="Node000003" class="node">
<title>Node3</title>
<g id="a_Node000003"><a xlink:href="class_harlinn_1_1_windows_1_1_graphics_1_1_d3_d12_1_1_device_child.html" target="_top" xlink:title="Adds the ability to get the device used to create it.">
<polygon fill="white" stroke="#666666" points="147,-162 10,-162 10,-132 147,-132 147,-162"/>
<text text-anchor="start" x="18" y="-150" font-family="Helvetica,sans-Serif" font-size="10.00">Harlinn::Windows::Graphics</text>
<text text-anchor="middle" x="78.5" y="-139" font-family="Helvetica,sans-Serif" font-size="10.00">::D3D12::DeviceChild</text>
</a>
</g>
</g>
<!-- Node3&#45;&gt;Node2 -->
<g id="edge2_Node000002_Node000003" class="edge">
<title>Node3&#45;&gt;Node2</title>
<g id="a_edge2_Node000002_Node000003"><a xlink:title=" ">
<path fill="none" stroke="#63b8ff" d="M78.5,-120.39C78.5,-112.13 78.5,-103.28 78.5,-96.16"/>
<polygon fill="#63b8ff" stroke="#63b8ff" points="75,-120.28 78.5,-130.28 82,-120.28 75,-120.28"/>
</a>
</g>
</g>
<!-- Node4 -->
<g id="Node000004" class="node">
<title>Node4</title>
<g id="a_Node000004"><a xlink:href="class_harlinn_1_1_windows_1_1_graphics_1_1_d3_d12_1_1_object.html" target="_top" xlink:title="A base class from which Device and DeviceChild inherit from. It provides methods to associate private...">
<polygon fill="white" stroke="#666666" points="147,-228 10,-228 10,-198 147,-198 147,-228"/>
<text text-anchor="start" x="18" y="-216" font-family="Helvetica,sans-Serif" font-size="10.00">Harlinn::Windows::Graphics</text>
<text text-anchor="middle" x="78.5" y="-205" font-family="Helvetica,sans-Serif" font-size="10.00">::D3D12::Object</text>
</a>
</g>
</g>
<!-- Node4&#45;&gt;Node3 -->
<g id="edge3_Node000003_Node000004" class="edge">
<title>Node4&#45;&gt;Node3</title>
<g id="a_edge3_Node000003_Node000004"><a xlink:title=" ">
<path fill="none" stroke="#63b8ff" d="M78.5,-186.39C78.5,-178.13 78.5,-169.28 78.5,-162.16"/>
<polygon fill="#63b8ff" stroke="#63b8ff" points="75,-186.28 78.5,-196.28 82,-186.28 75,-186.28"/>
</a>
</g>
</g>
<!-- Node5 -->
<g id="Node000005" class="node">
<title>Node5</title>
<g id="a_Node000005"><a xlink:href="class_harlinn_1_1_common_1_1_core_1_1_unknown.html" target="_top" xlink:title="Base class for COM interface wrappers.">
<polygon fill="white" stroke="#666666" points="137.5,-294 19.5,-294 19.5,-264 137.5,-264 137.5,-294"/>
<text text-anchor="start" x="27.5" y="-282" font-family="Helvetica,sans-Serif" font-size="10.00">Harlinn::Common::Core</text>
<text text-anchor="middle" x="78.5" y="-271" font-family="Helvetica,sans-Serif" font-size="10.00">::Unknown</text>
</a>
</g>
</g>
<!-- Node5&#45;&gt;Node4 -->
<g id="edge4_Node000004_Node000005" class="edge">
<title>Node5&#45;&gt;Node4</title>
<g id="a_edge4_Node000004_Node000005"><a xlink:title=" ">
<path fill="none" stroke="#63b8ff" d="M78.5,-252.39C78.5,-244.13 78.5,-235.28 78.5,-228.16"/>
<polygon fill="#63b8ff" stroke="#63b8ff" points="75,-252.28 78.5,-262.28 82,-252.28 75,-252.28"/>
</a>
</g>
</g>
</g>
</svg>
