<?xml version="1.0" encoding="UTF-8" standalone="no"?>
<!DOCTYPE svg PUBLIC "-//W3C//DTD SVG 1.1//EN"
 "http://www.w3.org/Graphics/SVG/1.1/DTD/svg11.dtd">
<!-- Generated by graphviz version 7.0.1 (20221109.1506)
 -->
<!-- Title: Harlinn::Windows::DML::Object Pages: 1 -->
<svg width="901pt" height="254pt"
 viewBox="0.00 0.00 901.00 254.00" xmlns="http://www.w3.org/2000/svg" xmlns:xlink="http://www.w3.org/1999/xlink">
<g id="graph0" class="graph" transform="scale(1 1) rotate(0) translate(4 250)">
<title>Harlinn::Windows::DML::Object</title>
<!-- Node1 -->
<g id="Node000001" class="node">
<title>Node1</title>
<g id="a_Node000001"><a xlink:title=" ">
<polygon fill="#999999" stroke="#666666" points="273,-174 154,-174 154,-144 273,-144 273,-174"/>
<text text-anchor="start" x="162" y="-162" font-family="Helvetica,sans-Serif" font-size="10.00">Harlinn::Windows::DML</text>
<text text-anchor="middle" x="213.5" y="-151" font-family="Helvetica,sans-Serif" font-size="10.00">::Object</text>
</a>
</g>
</g>
<!-- Node3 -->
<g id="Node000003" class="node">
<title>Node3</title>
<g id="a_Node000003"><a xlink:href="class_harlinn_1_1_windows_1_1_d_m_l_1_1_device.html" target="_top" xlink:title=" ">
<polygon fill="white" stroke="#666666" points="428,-222 309,-222 309,-192 428,-192 428,-222"/>
<text text-anchor="start" x="317" y="-210" font-family="Helvetica,sans-Serif" font-size="10.00">Harlinn::Windows::DML</text>
<text text-anchor="middle" x="368.5" y="-199" font-family="Helvetica,sans-Serif" font-size="10.00">::Device</text>
</a>
</g>
</g>
<!-- Node1&#45;&gt;Node3 -->
<g id="edge2_Node000001_Node000003" class="edge">
<title>Node1&#45;&gt;Node3</title>
<g id="a_edge2_Node000001_Node000003"><a xlink:title=" ">
<path fill="none" stroke="#63b8ff" d="M274.63,-177.87C289.12,-182.41 304.42,-187.21 318.34,-191.58"/>
<polygon fill="#63b8ff" stroke="#63b8ff" points="275.79,-174.56 265.2,-174.9 273.69,-181.24 275.79,-174.56"/>
</a>
</g>
</g>
<!-- Node5 -->
<g id="Node000005" class="node">
<title>Node5</title>
<g id="a_Node000005"><a xlink:href="class_harlinn_1_1_windows_1_1_d_m_l_1_1_device_child.html" target="_top" xlink:title=" ">
<polygon fill="white" stroke="#666666" points="428,-150 309,-150 309,-120 428,-120 428,-150"/>
<text text-anchor="start" x="317" y="-138" font-family="Helvetica,sans-Serif" font-size="10.00">Harlinn::Windows::DML</text>
<text text-anchor="middle" x="368.5" y="-127" font-family="Helvetica,sans-Serif" font-size="10.00">::DeviceChild</text>
</a>
</g>
</g>
<!-- Node1&#45;&gt;Node5 -->
<g id="edge4_Node000001_Node000005" class="edge">
<title>Node1&#45;&gt;Node5</title>
<g id="a_edge4_Node000001_Node000005"><a xlink:title=" ">
<path fill="none" stroke="#63b8ff" d="M284.53,-148.01C292.61,-146.75 300.78,-145.47 308.69,-144.23"/>
<polygon fill="#63b8ff" stroke="#63b8ff" points="284.05,-144.55 274.71,-149.56 285.13,-151.46 284.05,-144.55"/>
</a>
</g>
</g>
<!-- Node2 -->
<g id="Node000002" class="node">
<title>Node2</title>
<g id="a_Node000002"><a xlink:href="class_harlinn_1_1_common_1_1_core_1_1_unknown.html" target="_top" xlink:title="Base class for COM interface wrappers.">
<polygon fill="white" stroke="#666666" points="118,-174 0,-174 0,-144 118,-144 118,-174"/>
<text text-anchor="start" x="8" y="-162" font-family="Helvetica,sans-Serif" font-size="10.00">Harlinn::Common::Core</text>
<text text-anchor="middle" x="59" y="-151" font-family="Helvetica,sans-Serif" font-size="10.00">::Unknown</text>
</a>
</g>
</g>
<!-- Node2&#45;&gt;Node1 -->
<g id="edge1_Node000001_Node000002" class="edge">
<title>Node2&#45;&gt;Node1</title>
<g id="a_edge1_Node000001_Node000002"><a xlink:title=" ">
<path fill="none" stroke="#63b8ff" d="M129.4,-159C137.47,-159 145.65,-159 153.56,-159"/>
<polygon fill="#63b8ff" stroke="#63b8ff" points="129.6,-155.5 119.6,-159 129.6,-162.5 129.6,-155.5"/>
</a>
</g>
</g>
<!-- Node4 -->
<g id="Node000004" class="node">
<title>Node4</title>
<g id="a_Node000004"><a xlink:href="class_harlinn_1_1_windows_1_1_d_m_l_1_1_device1.html" target="_top" xlink:title=" ">
<polygon fill="white" stroke="#666666" points="583,-246 464,-246 464,-216 583,-216 583,-246"/>
<text text-anchor="start" x="472" y="-234" font-family="Helvetica,sans-Serif" font-size="10.00">Harlinn::Windows::DML</text>
<text text-anchor="middle" x="523.5" y="-223" font-family="Helvetica,sans-Serif" font-size="10.00">::Device1</text>
</a>
</g>
</g>
<!-- Node3&#45;&gt;Node4 -->
<g id="edge3_Node000003_Node000004" class="edge">
<title>Node3&#45;&gt;Node4</title>
<g id="a_edge3_Node000003_Node000004"><a xlink:title=" ">
<path fill="none" stroke="#63b8ff" d="M439.53,-217.99C447.61,-219.25 455.78,-220.53 463.69,-221.77"/>
<polygon fill="#63b8ff" stroke="#63b8ff" points="440.13,-214.54 429.71,-216.44 439.05,-221.45 440.13,-214.54"/>
</a>
</g>
</g>
<!-- Node6 -->
<g id="Node000006" class="node">
<title>Node6</title>
<g id="a_Node000006"><a xlink:href="class_harlinn_1_1_windows_1_1_d_m_l_1_1_binding_table.html" target="_top" xlink:title=" ">
<polygon fill="white" stroke="#666666" points="583,-198 464,-198 464,-168 583,-168 583,-198"/>
<text text-anchor="start" x="472" y="-186" font-family="Helvetica,sans-Serif" font-size="10.00">Harlinn::Windows::DML</text>
<text text-anchor="middle" x="523.5" y="-175" font-family="Helvetica,sans-Serif" font-size="10.00">::BindingTable</text>
</a>
</g>
</g>
<!-- Node5&#45;&gt;Node6 -->
<g id="edge5_Node000005_Node000006" class="edge">
<title>Node5&#45;&gt;Node6</title>
<g id="a_edge5_Node000005_Node000006"><a xlink:title=" ">
<path fill="none" stroke="#63b8ff" d="M429.63,-153.87C444.12,-158.41 459.42,-163.21 473.34,-167.58"/>
<polygon fill="#63b8ff" stroke="#63b8ff" points="430.79,-150.56 420.2,-150.9 428.69,-157.24 430.79,-150.56"/>
</a>
</g>
</g>
<!-- Node7 -->
<g id="Node000007" class="node">
<title>Node7</title>
<g id="a_Node000007"><a xlink:href="class_harlinn_1_1_windows_1_1_d_m_l_1_1_command_recorder.html" target="_top" xlink:title=" ">
<polygon fill="white" stroke="#666666" points="583,-150 464,-150 464,-120 583,-120 583,-150"/>
<text text-anchor="start" x="472" y="-138" font-family="Helvetica,sans-Serif" font-size="10.00">Harlinn::Windows::DML</text>
<text text-anchor="middle" x="523.5" y="-127" font-family="Helvetica,sans-Serif" font-size="10.00">::CommandRecorder</text>
</a>
</g>
</g>
<!-- Node5&#45;&gt;Node7 -->
<g id="edge6_Node000005_Node000007" class="edge">
<title>Node5&#45;&gt;Node7</title>
<g id="a_edge6_Node000005_Node000007"><a xlink:title=" ">
<path fill="none" stroke="#63b8ff" d="M439.53,-135C447.61,-135 455.78,-135 463.69,-135"/>
<polygon fill="#63b8ff" stroke="#63b8ff" points="439.73,-131.5 429.73,-135 439.73,-138.5 439.73,-131.5"/>
</a>
</g>
</g>
<!-- Node8 -->
<g id="Node000008" class="node">
<title>Node8</title>
<g id="a_Node000008"><a xlink:href="class_harlinn_1_1_windows_1_1_d_m_l_1_1_operator.html" target="_top" xlink:title=" ">
<polygon fill="white" stroke="#666666" points="583,-102 464,-102 464,-72 583,-72 583,-102"/>
<text text-anchor="start" x="472" y="-90" font-family="Helvetica,sans-Serif" font-size="10.00">Harlinn::Windows::DML</text>
<text text-anchor="middle" x="523.5" y="-79" font-family="Helvetica,sans-Serif" font-size="10.00">::Operator</text>
</a>
</g>
</g>
<!-- Node5&#45;&gt;Node8 -->
<g id="edge7_Node000005_Node000008" class="edge">
<title>Node5&#45;&gt;Node8</title>
<g id="a_edge7_Node000005_Node000008"><a xlink:title=" ">
<path fill="none" stroke="#63b8ff" d="M429.63,-116.13C444.12,-111.59 459.42,-106.79 473.34,-102.42"/>
<polygon fill="#63b8ff" stroke="#63b8ff" points="428.69,-112.76 420.2,-119.1 430.79,-119.44 428.69,-112.76"/>
</a>
</g>
</g>
<!-- Node9 -->
<g id="Node000009" class="node">
<title>Node9</title>
<g id="a_Node000009"><a xlink:href="class_harlinn_1_1_windows_1_1_d_m_l_1_1_pageable.html" target="_top" xlink:title=" ">
<polygon fill="white" stroke="#666666" points="583,-54 464,-54 464,-24 583,-24 583,-54"/>
<text text-anchor="start" x="472" y="-42" font-family="Helvetica,sans-Serif" font-size="10.00">Harlinn::Windows::DML</text>
<text text-anchor="middle" x="523.5" y="-31" font-family="Helvetica,sans-Serif" font-size="10.00">::Pageable</text>
</a>
</g>
</g>
<!-- Node5&#45;&gt;Node9 -->
<g id="edge8_Node000005_Node000009" class="edge">
<title>Node5&#45;&gt;Node9</title>
<g id="a_edge8_Node000005_Node000009"><a xlink:title=" ">
<path fill="none" stroke="#63b8ff" d="M395.25,-112.42C413.55,-97.13 439.2,-77.21 464,-63 469.33,-59.94 475.13,-57.08 480.94,-54.46"/>
<polygon fill="#63b8ff" stroke="#63b8ff" points="393.16,-109.61 387.79,-118.75 397.68,-114.95 393.16,-109.61"/>
</a>
</g>
</g>
<!-- Node10 -->
<g id="Node000010" class="node">
<title>Node10</title>
<g id="a_Node000010"><a xlink:href="class_harlinn_1_1_windows_1_1_d_m_l_1_1_dispatchable.html" target="_top" xlink:title=" ">
<polygon fill="white" stroke="#666666" points="738,-54 619,-54 619,-24 738,-24 738,-54"/>
<text text-anchor="start" x="627" y="-42" font-family="Helvetica,sans-Serif" font-size="10.00">Harlinn::Windows::DML</text>
<text text-anchor="middle" x="678.5" y="-31" font-family="Helvetica,sans-Serif" font-size="10.00">::Dispatchable</text>
</a>
</g>
</g>
<!-- Node9&#45;&gt;Node10 -->
<g id="edge9_Node000009_Node000010" class="edge">
<title>Node9&#45;&gt;Node10</title>
<g id="a_edge9_Node000009_Node000010"><a xlink:title=" ">
<path fill="none" stroke="#63b8ff" d="M594.53,-39C602.61,-39 610.78,-39 618.69,-39"/>
<polygon fill="#63b8ff" stroke="#63b8ff" points="594.73,-35.5 584.73,-39 594.73,-42.5 594.73,-35.5"/>
</a>
</g>
</g>
<!-- Node11 -->
<g id="Node000011" class="node">
<title>Node11</title>
<g id="a_Node000011"><a xlink:href="class_harlinn_1_1_windows_1_1_d_m_l_1_1_compiled_operator.html" target="_top" xlink:title=" ">
<polygon fill="white" stroke="#666666" points="893,-78 774,-78 774,-48 893,-48 893,-78"/>
<text text-anchor="start" x="782" y="-66" font-family="Helvetica,sans-Serif" font-size="10.00">Harlinn::Windows::DML</text>
<text text-anchor="middle" x="833.5" y="-55" font-family="Helvetica,sans-Serif" font-size="10.00">::CompiledOperator</text>
</a>
</g>
</g>
<!-- Node10&#45;&gt;Node11 -->
<g id="edge10_Node000010_Node000011" class="edge">
<title>Node10&#45;&gt;Node11</title>
<g id="a_edge10_Node000010_Node000011"><a xlink:title=" ">
<path fill="none" stroke="#63b8ff" d="M749.53,-49.99C757.61,-51.25 765.78,-52.53 773.69,-53.77"/>
<polygon fill="#63b8ff" stroke="#63b8ff" points="750.13,-46.54 739.71,-48.44 749.05,-53.45 750.13,-46.54"/>
</a>
</g>
</g>
<!-- Node12 -->
<g id="Node000012" class="node">
<title>Node12</title>
<g id="a_Node000012"><a xlink:href="class_harlinn_1_1_windows_1_1_d_m_l_1_1_operator_initializer.html" target="_top" xlink:title=" ">
<polygon fill="white" stroke="#666666" points="893,-30 774,-30 774,0 893,0 893,-30"/>
<text text-anchor="start" x="782" y="-18" font-family="Helvetica,sans-Serif" font-size="10.00">Harlinn::Windows::DML</text>
<text text-anchor="middle" x="833.5" y="-7" font-family="Helvetica,sans-Serif" font-size="10.00">::OperatorInitializer</text>
</a>
</g>
</g>
<!-- Node10&#45;&gt;Node12 -->
<g id="edge11_Node000010_Node000012" class="edge">
<title>Node10&#45;&gt;Node12</title>
<g id="a_edge11_Node000010_Node000012"><a xlink:title=" ">
<path fill="none" stroke="#63b8ff" d="M749.53,-28.01C757.61,-26.75 765.78,-25.47 773.69,-24.23"/>
<polygon fill="#63b8ff" stroke="#63b8ff" points="749.05,-24.55 739.71,-29.56 750.13,-31.46 749.05,-24.55"/>
</a>
</g>
</g>
</g>
</svg>
