<?xml version="1.0" encoding="UTF-8" standalone="no"?>
<!DOCTYPE svg PUBLIC "-//W3C//DTD SVG 1.1//EN"
 "http://www.w3.org/Graphics/SVG/1.1/DTD/svg11.dtd">
<!-- Generated by graphviz version 7.0.1 (20221109.1506)
 -->
<!-- Title: Harlinn::Windows::FileDialogEventsImplementation Pages: 1 -->
<svg width="746pt" height="92pt"
 viewBox="0.00 0.00 746.00 91.50" xmlns="http://www.w3.org/2000/svg" xmlns:xlink="http://www.w3.org/1999/xlink">
<g id="graph0" class="graph" transform="scale(1 1) rotate(0) translate(4 87.5)">
<title>Harlinn::Windows::FileDialogEventsImplementation</title>
<!-- Node1 -->
<g id="Node000001" class="node">
<title>Node1</title>
<g id="a_Node000001"><a xlink:title=" ">
<polygon fill="#999999" stroke="#666666" points="738,-54 597,-54 597,-24 738,-24 738,-54"/>
<text text-anchor="start" x="605" y="-42" font-family="Helvetica,sans-Serif" font-size="10.00">Harlinn::Windows::FileDialog</text>
<text text-anchor="middle" x="667.5" y="-31" font-family="Helvetica,sans-Serif" font-size="10.00">EventsImplementation</text>
</a>
</g>
</g>
<!-- Node2 -->
<g id="Node000002" class="node">
<title>Node2</title>
<g id="a_Node000002"><a xlink:title=" ">
<polygon fill="white" stroke="#666666" points="518,-83.5 351,-83.5 351,-42.5 518,-42.5 518,-83.5"/>
<text text-anchor="start" x="359" y="-71.5" font-family="Helvetica,sans-Serif" font-size="10.00">IUnknownImplementation</text>
<text text-anchor="start" x="359" y="-60.5" font-family="Helvetica,sans-Serif" font-size="10.00">&lt; FileDialogEventsImplementation,</text>
<text text-anchor="middle" x="434.5" y="-49.5" font-family="Helvetica,sans-Serif" font-size="10.00"> IFileDialogEvents &gt;</text>
</a>
</g>
</g>
<!-- Node2&#45;&gt;Node1 -->
<g id="edge1_Node000001_Node000002" class="edge">
<title>Node2&#45;&gt;Node1</title>
<g id="a_edge1_Node000001_Node000002"><a xlink:title=" ">
<path fill="none" stroke="#63b8ff" d="M529.49,-53.24C551.9,-50.91 575.42,-48.46 596.53,-46.27"/>
<polygon fill="#63b8ff" stroke="#63b8ff" points="529.33,-49.73 519.75,-54.25 530.06,-56.69 529.33,-49.73"/>
</a>
</g>
</g>
<!-- Node3 -->
<g id="Node000003" class="node">
<title>Node3</title>
<g id="a_Node000003"><a xlink:href="class_harlinn_1_1_windows_1_1_file_dialog.xhtml" target="_top" xlink:title=" ">
<polygon fill="white" stroke="#666666" points="505,-24.5 364,-24.5 364,-5.5 505,-5.5 505,-24.5"/>
<text text-anchor="middle" x="434.5" y="-12.5" font-family="Helvetica,sans-Serif" font-size="10.00">Harlinn::Windows::FileDialog</text>
</a>
</g>
</g>
<!-- Node3&#45;&gt;Node1 -->
<g id="edge2_Node000001_Node000003" class="edge">
<title>Node3&#45;&gt;Node1</title>
<g id="a_edge2_Node000001_Node000003"><a xlink:title=" ">
<path fill="none" stroke="#9a32cd" stroke-dasharray="5,2" d="M516.84,-23.45C542.94,-26.16 571.61,-29.14 596.8,-31.76"/>
<polygon fill="#9a32cd" stroke="#9a32cd" points="517.25,-19.97 506.94,-22.42 516.52,-26.94 517.25,-19.97"/>
</a>
</g>
<text text-anchor="middle" x="557.5" y="-32" font-family="Helvetica,sans-Serif" font-size="10.00" fill="grey"> fileDialog</text>
</g>
<!-- Node4 -->
<g id="Node000004" class="node">
<title>Node4</title>
<g id="a_Node000004"><a xlink:href="class_harlinn_1_1_windows_1_1_modal_window.xhtml" target="_top" xlink:title=" ">
<polygon fill="white" stroke="#666666" points="314,-24.5 155,-24.5 155,-5.5 314,-5.5 314,-24.5"/>
<text text-anchor="middle" x="234.5" y="-12.5" font-family="Helvetica,sans-Serif" font-size="10.00">Harlinn::Windows::ModalWindow</text>
</a>
</g>
</g>
<!-- Node4&#45;&gt;Node3 -->
<g id="edge3_Node000003_Node000004" class="edge">
<title>Node4&#45;&gt;Node3</title>
<g id="a_edge3_Node000003_Node000004"><a xlink:title=" ">
<path fill="none" stroke="#63b8ff" d="M325.49,-15C338.27,-15 351.26,-15 363.59,-15"/>
<polygon fill="#63b8ff" stroke="#63b8ff" points="325.84,-11.5 315.84,-15 325.84,-18.5 325.84,-11.5"/>
</a>
</g>
</g>
<!-- Node5 -->
<g id="Node000005" class="node">
<title>Node5</title>
<g id="a_Node000005"><a xlink:href="class_harlinn_1_1_common_1_1_core_1_1_unknown.xhtml" target="_top" xlink:title=" ">
<polygon fill="white" stroke="#666666" points="118,-30 0,-30 0,0 118,0 118,-30"/>
<text text-anchor="start" x="8" y="-18" font-family="Helvetica,sans-Serif" font-size="10.00">Harlinn::Common::Core</text>
<text text-anchor="middle" x="59" y="-7" font-family="Helvetica,sans-Serif" font-size="10.00">::Unknown</text>
</a>
</g>
</g>
<!-- Node5&#45;&gt;Node4 -->
<g id="edge4_Node000004_Node000005" class="edge">
<title>Node5&#45;&gt;Node4</title>
<g id="a_edge4_Node000004_Node000005"><a xlink:title=" ">
<path fill="none" stroke="#63b8ff" d="M129.72,-15C137.95,-15 146.4,-15 154.74,-15"/>
<polygon fill="#63b8ff" stroke="#63b8ff" points="129.77,-11.5 119.77,-15 129.77,-18.5 129.77,-11.5"/>
</a>
</g>
</g>
</g>
</svg>
