<?xml version="1.0" encoding="UTF-8" standalone="no"?>
<!DOCTYPE svg PUBLIC "-//W3C//DTD SVG 1.1//EN"
 "http://www.w3.org/Graphics/SVG/1.1/DTD/svg11.dtd">
<!-- Generated by graphviz version 7.0.1 (20221109.1506)
 -->
<!-- Title: Harlinn::Common::Core::Doxygen::DocSect6Type Pages: 1 -->
<svg width="1178pt" height="106pt"
 viewBox="0.00 0.00 1178.00 105.54" xmlns="http://www.w3.org/2000/svg" xmlns:xlink="http://www.w3.org/1999/xlink">
<g id="graph0" class="graph" transform="scale(1 1) rotate(0) translate(4 101.54)">
<title>Harlinn::Common::Core::Doxygen::DocSect6Type</title>
<!-- Node1 -->
<g id="Node000001" class="node">
<title>Node1</title>
<g id="a_Node000001"><a xlink:title=" ">
<polygon fill="#999999" stroke="#666666" points="1170,-64.5 1039,-64.5 1039,-34.5 1170,-34.5 1170,-64.5"/>
<text text-anchor="start" x="1047" y="-52.5" font-family="Helvetica,sans-Serif" font-size="10.00">Harlinn::Common::Core</text>
<text text-anchor="middle" x="1104.5" y="-41.5" font-family="Helvetica,sans-Serif" font-size="10.00">::Doxygen::DocSect6Type</text>
</a>
</g>
</g>
<!-- Node2 -->
<g id="Node000002" class="node">
<title>Node2</title>
<g id="a_Node000002"><a xlink:href="class_harlinn_1_1_common_1_1_core_1_1_doxygen_1_1_internal_1_1_doc_section_base_type.html" target="_top" xlink:title=" ">
<polygon fill="white" stroke="#666666" points="1002,-81 817,-81 817,-18 1002,-18 1002,-81"/>
<text text-anchor="start" x="825" y="-69" font-family="Helvetica,sans-Serif" font-size="10.00">Harlinn::Common::Core</text>
<text text-anchor="start" x="825" y="-58" font-family="Helvetica,sans-Serif" font-size="10.00">::Doxygen::Internal::</text>
<text text-anchor="start" x="825" y="-47" font-family="Helvetica,sans-Serif" font-size="10.00">DocSectionBaseType&lt; Doxygen</text>
<text text-anchor="start" x="825" y="-36" font-family="Helvetica,sans-Serif" font-size="10.00">::DoxType::DocSect6Type, DocInternal</text>
<text text-anchor="middle" x="909.5" y="-25" font-family="Helvetica,sans-Serif" font-size="10.00">S6Type &gt;</text>
</a>
</g>
</g>
<!-- Node2&#45;&gt;Node1 -->
<g id="edge1_Node000001_Node000002" class="edge">
<title>Node2&#45;&gt;Node1</title>
<g id="a_edge1_Node000001_Node000002"><a xlink:title=" ">
<path fill="none" stroke="#63b8ff" d="M1013.95,-49.5C1022.35,-49.5 1030.68,-49.5 1038.68,-49.5"/>
<polygon fill="#63b8ff" stroke="#63b8ff" points="1013.99,-46 1003.99,-49.5 1013.99,-53 1013.99,-46"/>
</a>
</g>
</g>
<!-- Node3 -->
<g id="Node000003" class="node">
<title>Node3</title>
<g id="a_Node000003"><a xlink:href="class_harlinn_1_1_common_1_1_core_1_1_doxygen_1_1_internal_1_1_doc_base.html" target="_top" xlink:title=" ">
<polygon fill="white" stroke="#666666" points="460,-41 342,-41 342,0 460,0 460,-41"/>
<text text-anchor="start" x="350" y="-29" font-family="Helvetica,sans-Serif" font-size="10.00">Harlinn::Common::Core</text>
<text text-anchor="start" x="350" y="-18" font-family="Helvetica,sans-Serif" font-size="10.00">::Doxygen::Internal::</text>
<text text-anchor="middle" x="401" y="-7" font-family="Helvetica,sans-Serif" font-size="10.00">DocBase&lt; doxType &gt;</text>
</a>
</g>
</g>
<!-- Node3&#45;&gt;Node2 -->
<g id="edge2_Node000002_Node000003" class="edge">
<title>Node3&#45;&gt;Node2</title>
<g id="a_edge2_Node000002_Node000003"><a xlink:title=" ">
<path fill="none" stroke="#63b8ff" d="M471.47,-15.61C480.06,-15.15 488.73,-14.76 497,-14.5 567.63,-12.27 585.5,-9.64 656,-14.5 709.53,-18.19 769,-26.24 816.77,-33.69"/>
<polygon fill="#63b8ff" stroke="#63b8ff" points="471.55,-12.09 461.76,-16.15 471.94,-19.08 471.55,-12.09"/>
</a>
</g>
</g>
<!-- Node7 -->
<g id="Node000007" class="node">
<title>Node7</title>
<g id="a_Node000007"><a xlink:href="class_harlinn_1_1_common_1_1_core_1_1_doxygen_1_1_internal_1_1_doc_section_base_type.html" target="_top" xlink:title=" ">
<polygon fill="white" stroke="#666666" points="656,-75.5 497,-75.5 497,-23.5 656,-23.5 656,-75.5"/>
<text text-anchor="start" x="505" y="-63.5" font-family="Helvetica,sans-Serif" font-size="10.00">Harlinn::Common::Core</text>
<text text-anchor="start" x="505" y="-52.5" font-family="Helvetica,sans-Serif" font-size="10.00">::Doxygen::Internal::</text>
<text text-anchor="start" x="505" y="-41.5" font-family="Helvetica,sans-Serif" font-size="10.00">DocSectionBaseType&lt; doxType,</text>
<text text-anchor="middle" x="576.5" y="-30.5" font-family="Helvetica,sans-Serif" font-size="10.00"> InternalT &gt;</text>
</a>
</g>
</g>
<!-- Node3&#45;&gt;Node7 -->
<g id="edge7_Node000007_Node000003" class="edge">
<title>Node3&#45;&gt;Node7</title>
<g id="a_edge7_Node000007_Node000003"><a xlink:title=" ">
<path fill="none" stroke="#63b8ff" d="M471.44,-32.11C479.76,-33.5 488.3,-34.93 496.74,-36.34"/>
<polygon fill="#63b8ff" stroke="#63b8ff" points="472.19,-28.68 461.75,-30.49 471.03,-35.59 472.19,-28.68"/>
</a>
</g>
</g>
<!-- Node4 -->
<g id="Node000004" class="node">
<title>Node4</title>
<g id="a_Node000004"><a xlink:href="class_harlinn_1_1_common_1_1_core_1_1_doxygen_1_1_doc_base_type.html" target="_top" xlink:title=" ">
<polygon fill="white" stroke="#666666" points="305,-35.5 177,-35.5 177,-5.5 305,-5.5 305,-35.5"/>
<text text-anchor="start" x="185" y="-23.5" font-family="Helvetica,sans-Serif" font-size="10.00">Harlinn::Common::Core</text>
<text text-anchor="middle" x="241" y="-12.5" font-family="Helvetica,sans-Serif" font-size="10.00">::Doxygen::DocBaseType</text>
</a>
</g>
</g>
<!-- Node4&#45;&gt;Node3 -->
<g id="edge3_Node000003_Node000004" class="edge">
<title>Node4&#45;&gt;Node3</title>
<g id="a_edge3_Node000003_Node000004"><a xlink:title=" ">
<path fill="none" stroke="#63b8ff" d="M316.73,-20.5C325.13,-20.5 333.6,-20.5 341.75,-20.5"/>
<polygon fill="#63b8ff" stroke="#63b8ff" points="316.87,-17 306.87,-20.5 316.87,-24 316.87,-17"/>
</a>
</g>
</g>
<!-- Node5 -->
<g id="Node000005" class="node">
<title>Node5</title>
<g id="a_Node000005"><a xlink:title=" ">
<polygon fill="white" stroke="#666666" points="140,-35.5 0,-35.5 0,-5.5 140,-5.5 140,-35.5"/>
<text text-anchor="start" x="8" y="-23.5" font-family="Helvetica,sans-Serif" font-size="10.00">std::enable_shared</text>
<text text-anchor="middle" x="70" y="-12.5" font-family="Helvetica,sans-Serif" font-size="10.00">_from_this&lt; DocBaseType &gt;</text>
</a>
</g>
</g>
<!-- Node5&#45;&gt;Node4 -->
<g id="edge4_Node000004_Node000005" class="edge">
<title>Node5&#45;&gt;Node4</title>
<g id="a_edge4_Node000004_Node000005"><a xlink:title=" ">
<path fill="none" stroke="#8b1a1a" d="M151.6,-20.5C159.99,-20.5 168.43,-20.5 176.59,-20.5"/>
<polygon fill="#8b1a1a" stroke="#8b1a1a" points="151.74,-17 141.74,-20.5 151.74,-24 151.74,-17"/>
</a>
</g>
</g>
<!-- Node6 -->
<g id="Node000006" class="node">
<title>Node6</title>
<g id="a_Node000006"><a xlink:title=" ">
<polygon fill="white" stroke="#666666" points="443.5,-87 358.5,-87 358.5,-68 443.5,-68 443.5,-87"/>
<text text-anchor="middle" x="401" y="-75" font-family="Helvetica,sans-Serif" font-size="10.00">std::vector&lt; T &gt;</text>
</a>
</g>
</g>
<!-- Node6&#45;&gt;Node2 -->
<g id="edge5_Node000002_Node000006" class="edge">
<title>Node6&#45;&gt;Node2</title>
<g id="a_edge5_Node000002_Node000006"><a xlink:title=" ">
<path fill="none" stroke="#63b8ff" d="M455.02,-84.88C531.56,-94.13 677.19,-106.52 799,-86.5 806.72,-85.23 814.63,-83.49 822.5,-81.45"/>
<polygon fill="#63b8ff" stroke="#63b8ff" points="455.65,-81.43 445.29,-83.67 454.78,-88.37 455.65,-81.43"/>
</a>
</g>
</g>
<!-- Node6&#45;&gt;Node7 -->
<g id="edge8_Node000007_Node000006" class="edge">
<title>Node6&#45;&gt;Node7</title>
<g id="a_edge8_Node000007_Node000006"><a xlink:title=" ">
<path fill="none" stroke="#63b8ff" d="M455.15,-68.92C468.24,-66.81 482.54,-64.5 496.56,-62.24"/>
<polygon fill="#63b8ff" stroke="#63b8ff" points="454.81,-65.43 445.49,-70.48 455.92,-72.34 454.81,-65.43"/>
</a>
</g>
</g>
<!-- Node7&#45;&gt;Node2 -->
<g id="edge6_Node000002_Node000007" class="edge">
<title>Node7&#45;&gt;Node2</title>
<g id="a_edge6_Node000002_Node000007"><a xlink:title=" ">
<path fill="none" stroke="orange" stroke-dasharray="5,2" d="M667.6,-49.5C713.9,-49.5 770.22,-49.5 816.75,-49.5"/>
<polygon fill="orange" stroke="orange" points="667.88,-46 657.88,-49.5 667.88,-53 667.88,-46"/>
</a>
</g>
<text text-anchor="start" x="674" y="-74.5" font-family="Helvetica,sans-Serif" font-size="10.00" fill="grey"> &lt; Doxygen::DoxType</text>
<text text-anchor="start" x="674" y="-63.5" font-family="Helvetica,sans-Serif" font-size="10.00" fill="grey">::DocSect6Type, DocInternal</text>
<text text-anchor="middle" x="736.5" y="-52.5" font-family="Helvetica,sans-Serif" font-size="10.00" fill="grey">S6Type &gt;</text>
</g>
</g>
</svg>
