<?xml version="1.0" encoding="UTF-8" standalone="no"?>
<!DOCTYPE svg PUBLIC "-//W3C//DTD SVG 1.1//EN"
 "http://www.w3.org/Graphics/SVG/1.1/DTD/svg11.dtd">
<!-- Generated by graphviz version 7.0.1 (20221109.1506)
 -->
<!-- Title: Harlinn::Common::Core::MemberAccessException Pages: 1 -->
<svg width="903pt" height="158pt"
 viewBox="0.00 0.00 903.00 158.00" xmlns="http://www.w3.org/2000/svg" xmlns:xlink="http://www.w3.org/1999/xlink">
<g id="graph0" class="graph" transform="scale(1 1) rotate(0) translate(4 154)">
<title>Harlinn::Common::Core::MemberAccessException</title>
<!-- Node1 -->
<g id="Node000001" class="node">
<title>Node1</title>
<g id="a_Node000001"><a xlink:title=" ">
<polygon fill="#999999" stroke="#666666" points="556,-102 422,-102 422,-72 556,-72 556,-102"/>
<text text-anchor="start" x="430" y="-90" font-family="Helvetica,sans-Serif" font-size="10.00">Harlinn::Common::Core</text>
<text text-anchor="middle" x="489" y="-79" font-family="Helvetica,sans-Serif" font-size="10.00">::MemberAccessException</text>
</a>
</g>
</g>
<!-- Node5 -->
<g id="Node000005" class="node">
<title>Node5</title>
<g id="a_Node000005"><a xlink:href="class_harlinn_1_1_common_1_1_core_1_1_field_access_exception.html" target="_top" xlink:title=" ">
<polygon fill="white" stroke="#666666" points="719.5,-150 599.5,-150 599.5,-120 719.5,-120 719.5,-150"/>
<text text-anchor="start" x="607.5" y="-138" font-family="Helvetica,sans-Serif" font-size="10.00">Harlinn::Common::Core</text>
<text text-anchor="middle" x="659.5" y="-127" font-family="Helvetica,sans-Serif" font-size="10.00">::FieldAccessException</text>
</a>
</g>
</g>
<!-- Node1&#45;&gt;Node5 -->
<g id="edge4_Node000001_Node000005" class="edge">
<title>Node1&#45;&gt;Node5</title>
<g id="a_edge4_Node000001_Node000005"><a xlink:title=" ">
<path fill="none" stroke="#63b8ff" d="M555.29,-105.6C571.51,-110.22 588.73,-115.13 604.36,-119.58"/>
<polygon fill="#63b8ff" stroke="#63b8ff" points="556.27,-102.24 545.7,-102.87 554.36,-108.97 556.27,-102.24"/>
</a>
</g>
</g>
<!-- Node6 -->
<g id="Node000006" class="node">
<title>Node6</title>
<g id="a_Node000006"><a xlink:href="class_harlinn_1_1_common_1_1_core_1_1_method_access_exception.html" target="_top" xlink:title=" ">
<polygon fill="white" stroke="#666666" points="725,-102 594,-102 594,-72 725,-72 725,-102"/>
<text text-anchor="start" x="602" y="-90" font-family="Helvetica,sans-Serif" font-size="10.00">Harlinn::Common::Core</text>
<text text-anchor="middle" x="659.5" y="-79" font-family="Helvetica,sans-Serif" font-size="10.00">::MethodAccessException</text>
</a>
</g>
</g>
<!-- Node1&#45;&gt;Node6 -->
<g id="edge5_Node000001_Node000006" class="edge">
<title>Node1&#45;&gt;Node6</title>
<g id="a_edge5_Node000001_Node000006"><a xlink:title=" ">
<path fill="none" stroke="#63b8ff" d="M567.53,-87C576.27,-87 585.12,-87 593.68,-87"/>
<polygon fill="#63b8ff" stroke="#63b8ff" points="567.63,-83.5 557.63,-87 567.63,-90.5 567.63,-83.5"/>
</a>
</g>
</g>
<!-- Node7 -->
<g id="Node000007" class="node">
<title>Node7</title>
<g id="a_Node000007"><a xlink:href="class_harlinn_1_1_common_1_1_core_1_1_missing_member_exception.html" target="_top" xlink:title=" ">
<polygon fill="white" stroke="#666666" points="727,-54 592,-54 592,-24 727,-24 727,-54"/>
<text text-anchor="start" x="600" y="-42" font-family="Helvetica,sans-Serif" font-size="10.00">Harlinn::Common::Core</text>
<text text-anchor="middle" x="659.5" y="-31" font-family="Helvetica,sans-Serif" font-size="10.00">::MissingMemberException</text>
</a>
</g>
</g>
<!-- Node1&#45;&gt;Node7 -->
<g id="edge6_Node000001_Node000007" class="edge">
<title>Node1&#45;&gt;Node7</title>
<g id="a_edge6_Node000001_Node000007"><a xlink:title=" ">
<path fill="none" stroke="#63b8ff" d="M555.29,-68.4C571.51,-63.78 588.73,-58.87 604.36,-54.42"/>
<polygon fill="#63b8ff" stroke="#63b8ff" points="554.36,-65.03 545.7,-71.13 556.27,-71.76 554.36,-65.03"/>
</a>
</g>
</g>
<!-- Node2 -->
<g id="Node000002" class="node">
<title>Node2</title>
<g id="a_Node000002"><a xlink:href="class_harlinn_1_1_common_1_1_core_1_1_system_exception.html" target="_top" xlink:title=" ">
<polygon fill="white" stroke="#666666" points="386,-102 268,-102 268,-72 386,-72 386,-102"/>
<text text-anchor="start" x="276" y="-90" font-family="Helvetica,sans-Serif" font-size="10.00">Harlinn::Common::Core</text>
<text text-anchor="middle" x="327" y="-79" font-family="Helvetica,sans-Serif" font-size="10.00">::SystemException</text>
</a>
</g>
</g>
<!-- Node2&#45;&gt;Node1 -->
<g id="edge1_Node000001_Node000002" class="edge">
<title>Node2&#45;&gt;Node1</title>
<g id="a_edge1_Node000001_Node000002"><a xlink:title=" ">
<path fill="none" stroke="#63b8ff" d="M397.46,-87C405.5,-87 413.69,-87 421.69,-87"/>
<polygon fill="#63b8ff" stroke="#63b8ff" points="397.73,-83.5 387.73,-87 397.73,-90.5 397.73,-83.5"/>
</a>
</g>
</g>
<!-- Node3 -->
<g id="Node000003" class="node">
<title>Node3</title>
<g id="a_Node000003"><a xlink:href="class_harlinn_1_1_common_1_1_core_1_1_exception.html" target="_top" xlink:title=" ">
<polygon fill="white" stroke="#666666" points="232,-102 114,-102 114,-72 232,-72 232,-102"/>
<text text-anchor="start" x="122" y="-90" font-family="Helvetica,sans-Serif" font-size="10.00">Harlinn::Common::Core</text>
<text text-anchor="middle" x="173" y="-79" font-family="Helvetica,sans-Serif" font-size="10.00">::Exception</text>
</a>
</g>
</g>
<!-- Node3&#45;&gt;Node2 -->
<g id="edge2_Node000002_Node000003" class="edge">
<title>Node3&#45;&gt;Node2</title>
<g id="a_edge2_Node000002_Node000003"><a xlink:title=" ">
<path fill="none" stroke="#63b8ff" d="M243.57,-87C251.6,-87 259.72,-87 267.57,-87"/>
<polygon fill="#63b8ff" stroke="#63b8ff" points="243.85,-83.5 233.85,-87 243.85,-90.5 243.85,-83.5"/>
</a>
</g>
</g>
<!-- Node4 -->
<g id="Node000004" class="node">
<title>Node4</title>
<g id="a_Node000004"><a xlink:title=" ">
<polygon fill="white" stroke="#666666" points="78,-96.5 0,-96.5 0,-77.5 78,-77.5 78,-96.5"/>
<text text-anchor="middle" x="39" y="-84.5" font-family="Helvetica,sans-Serif" font-size="10.00">std::exception</text>
</a>
</g>
</g>
<!-- Node4&#45;&gt;Node3 -->
<g id="edge3_Node000003_Node000004" class="edge">
<title>Node4&#45;&gt;Node3</title>
<g id="a_edge3_Node000003_Node000004"><a xlink:title=" ">
<path fill="none" stroke="#63b8ff" d="M89.48,-87C97.4,-87 105.66,-87 113.76,-87"/>
<polygon fill="#63b8ff" stroke="#63b8ff" points="89.69,-83.5 79.69,-87 89.69,-90.5 89.69,-83.5"/>
</a>
</g>
</g>
<!-- Node8 -->
<g id="Node000008" class="node">
<title>Node8</title>
<g id="a_Node000008"><a xlink:href="class_harlinn_1_1_common_1_1_core_1_1_missing_field_exception.html" target="_top" xlink:title=" ">
<polygon fill="white" stroke="#666666" points="889.5,-78 768.5,-78 768.5,-48 889.5,-48 889.5,-78"/>
<text text-anchor="start" x="776.5" y="-66" font-family="Helvetica,sans-Serif" font-size="10.00">Harlinn::Common::Core</text>
<text text-anchor="middle" x="829" y="-55" font-family="Helvetica,sans-Serif" font-size="10.00">::MissingFieldException</text>
</a>
</g>
</g>
<!-- Node7&#45;&gt;Node8 -->
<g id="edge7_Node000007_Node000008" class="edge">
<title>Node7&#45;&gt;Node8</title>
<g id="a_edge7_Node000007_Node000008"><a xlink:title=" ">
<path fill="none" stroke="#63b8ff" d="M738.37,-50.16C748.34,-51.59 758.43,-53.03 768.06,-54.41"/>
<polygon fill="#63b8ff" stroke="#63b8ff" points="739.08,-46.72 728.68,-48.77 738.08,-53.65 739.08,-46.72"/>
</a>
</g>
</g>
<!-- Node9 -->
<g id="Node000009" class="node">
<title>Node9</title>
<g id="a_Node000009"><a xlink:href="class_harlinn_1_1_common_1_1_core_1_1_missing_method_exception.html" target="_top" xlink:title=" ">
<polygon fill="white" stroke="#666666" points="895,-30 763,-30 763,0 895,0 895,-30"/>
<text text-anchor="start" x="771" y="-18" font-family="Helvetica,sans-Serif" font-size="10.00">Harlinn::Common::Core</text>
<text text-anchor="middle" x="829" y="-7" font-family="Helvetica,sans-Serif" font-size="10.00">::MissingMethodException</text>
</a>
</g>
</g>
<!-- Node7&#45;&gt;Node9 -->
<g id="edge8_Node000007_Node000009" class="edge">
<title>Node7&#45;&gt;Node9</title>
<g id="a_edge8_Node000007_Node000009"><a xlink:title=" ">
<path fill="none" stroke="#63b8ff" d="M738.51,-27.82C746.59,-26.67 754.73,-25.5 762.64,-24.36"/>
<polygon fill="#63b8ff" stroke="#63b8ff" points="738.08,-24.35 728.68,-29.23 739.08,-31.28 738.08,-24.35"/>
</a>
</g>
</g>
</g>
</svg>
