<?xml version="1.0" encoding="UTF-8" standalone="no"?>
<!DOCTYPE svg PUBLIC "-//W3C//DTD SVG 1.1//EN"
 "http://www.w3.org/Graphics/SVG/1.1/DTD/svg11.dtd">
<!-- Generated by graphviz version 7.0.1 (20221109.1506)
 -->
<!-- Title: Harlinn::Common::Core::Doxygen::EnumvalueType Pages: 1 -->
<svg width="1977pt" height="801pt"
 viewBox="0.00 0.00 1977.00 801.37" xmlns="http://www.w3.org/2000/svg" xmlns:xlink="http://www.w3.org/1999/xlink">
<g id="graph0" class="graph" transform="scale(1 1) rotate(0) translate(4 797.37)">
<title>Harlinn::Common::Core::Doxygen::EnumvalueType</title>
<!-- Node1 -->
<g id="Node000001" class="node">
<title>Node1</title>
<g id="a_Node000001"><a xlink:title=" ">
<polygon fill="#999999" stroke="#666666" points="1969,-475.37 1834,-475.37 1834,-445.37 1969,-445.37 1969,-475.37"/>
<text text-anchor="start" x="1842" y="-463.37" font-family="Helvetica,sans-Serif" font-size="10.00">Harlinn::Common::Core</text>
<text text-anchor="middle" x="1901.5" y="-452.37" font-family="Helvetica,sans-Serif" font-size="10.00">::Doxygen::EnumvalueType</text>
</a>
</g>
</g>
<!-- Node2 -->
<g id="Node000002" class="node">
<title>Node2</title>
<g id="a_Node000002"><a xlink:href="class_harlinn_1_1_common_1_1_core_1_1_doxygen_1_1_internal_1_1_doc_base.html" target="_top" xlink:title=" ">
<polygon fill="white" stroke="#666666" points="797,-793.37 649,-793.37 649,-741.37 797,-741.37 797,-793.37"/>
<text text-anchor="start" x="657" y="-781.37" font-family="Helvetica,sans-Serif" font-size="10.00">Harlinn::Common::Core</text>
<text text-anchor="start" x="657" y="-770.37" font-family="Helvetica,sans-Serif" font-size="10.00">::Doxygen::Internal::</text>
<text text-anchor="start" x="657" y="-759.37" font-family="Helvetica,sans-Serif" font-size="10.00">DocBase&lt; Doxygen::DoxType</text>
<text text-anchor="middle" x="723" y="-748.37" font-family="Helvetica,sans-Serif" font-size="10.00">::EnumvalueType &gt;</text>
</a>
</g>
</g>
<!-- Node2&#45;&gt;Node1 -->
<g id="edge1_Node000001_Node000002" class="edge">
<title>Node2&#45;&gt;Node1</title>
<g id="a_edge1_Node000001_Node000002"><a xlink:title=" ">
<path fill="none" stroke="#63b8ff" d="M808.42,-746.49C841.72,-739.94 880.45,-734.37 916,-734.37 916,-734.37 916,-734.37 1641,-734.37 1784.81,-734.37 1872.79,-532.93 1894.95,-475.49"/>
<polygon fill="#63b8ff" stroke="#63b8ff" points="807.93,-743.02 798.83,-748.45 809.33,-749.88 807.93,-743.02"/>
</a>
</g>
</g>
<!-- Node3 -->
<g id="Node000003" class="node">
<title>Node3</title>
<g id="a_Node000003"><a xlink:href="class_harlinn_1_1_common_1_1_core_1_1_doxygen_1_1_doc_base_type.html" target="_top" xlink:title=" ">
<polygon fill="white" stroke="#666666" points="336,-689.37 208,-689.37 208,-659.37 336,-659.37 336,-689.37"/>
<text text-anchor="start" x="216" y="-677.37" font-family="Helvetica,sans-Serif" font-size="10.00">Harlinn::Common::Core</text>
<text text-anchor="middle" x="272" y="-666.37" font-family="Helvetica,sans-Serif" font-size="10.00">::Doxygen::DocBaseType</text>
</a>
</g>
</g>
<!-- Node3&#45;&gt;Node2 -->
<g id="edge2_Node000002_Node000003" class="edge">
<title>Node3&#45;&gt;Node2</title>
<g id="a_edge2_Node000002_Node000003"><a xlink:title=" ">
<path fill="none" stroke="#63b8ff" d="M299.19,-696.67C323.63,-716.21 361.94,-743.7 400,-758.37 496.4,-795.52 528.13,-793.9 631,-784.37 636.76,-783.84 642.7,-783.12 648.66,-782.28"/>
<polygon fill="#63b8ff" stroke="#63b8ff" points="301.67,-694.17 291.71,-690.57 297.25,-699.6 301.67,-694.17"/>
</a>
</g>
</g>
<!-- Node5 -->
<g id="Node000005" class="node">
<title>Node5</title>
<g id="a_Node000005"><a xlink:href="class_harlinn_1_1_common_1_1_core_1_1_doxygen_1_1_internal_1_1_doc_base.html" target="_top" xlink:title=" ">
<polygon fill="white" stroke="#666666" points="518,-694.87 400,-694.87 400,-653.87 518,-653.87 518,-694.87"/>
<text text-anchor="start" x="408" y="-682.87" font-family="Helvetica,sans-Serif" font-size="10.00">Harlinn::Common::Core</text>
<text text-anchor="start" x="408" y="-671.87" font-family="Helvetica,sans-Serif" font-size="10.00">::Doxygen::Internal::</text>
<text text-anchor="middle" x="459" y="-660.87" font-family="Helvetica,sans-Serif" font-size="10.00">DocBase&lt; doxType &gt;</text>
</a>
</g>
</g>
<!-- Node3&#45;&gt;Node5 -->
<g id="edge5_Node000005_Node000003" class="edge">
<title>Node3&#45;&gt;Node5</title>
<g id="a_edge5_Node000005_Node000003"><a xlink:title=" ">
<path fill="none" stroke="#63b8ff" d="M347.64,-674.37C364.96,-674.37 383.15,-674.37 399.65,-674.37"/>
<polygon fill="#63b8ff" stroke="#63b8ff" points="347.92,-670.87 337.92,-674.37 347.92,-677.87 347.92,-670.87"/>
</a>
</g>
</g>
<!-- Node12 -->
<g id="Node000012" class="node">
<title>Node12</title>
<g id="a_Node000012"><a xlink:href="class_harlinn_1_1_common_1_1_core_1_1_doxygen_1_1_internal_1_1_doc_base.html" target="_top" xlink:title=" ">
<polygon fill="white" stroke="#666666" points="797,-723.37 649,-723.37 649,-671.37 797,-671.37 797,-723.37"/>
<text text-anchor="start" x="657" y="-711.37" font-family="Helvetica,sans-Serif" font-size="10.00">Harlinn::Common::Core</text>
<text text-anchor="start" x="657" y="-700.37" font-family="Helvetica,sans-Serif" font-size="10.00">::Doxygen::Internal::</text>
<text text-anchor="start" x="657" y="-689.37" font-family="Helvetica,sans-Serif" font-size="10.00">DocBase&lt; Doxygen::DoxType</text>
<text text-anchor="middle" x="723" y="-678.37" font-family="Helvetica,sans-Serif" font-size="10.00">::LinkedTextType &gt;</text>
</a>
</g>
</g>
<!-- Node3&#45;&gt;Node12 -->
<g id="edge14_Node000012_Node000003" class="edge">
<title>Node3&#45;&gt;Node12</title>
<g id="a_edge14_Node000012_Node000003"><a xlink:title=" ">
<path fill="none" stroke="#63b8ff" d="M316.45,-694.45C367.65,-716.91 455.93,-751.91 536,-765.37 577.64,-772.37 594.69,-786.92 631,-765.37 645.37,-756.84 636.88,-743.87 649,-732.37 652.26,-729.28 655.85,-726.41 659.63,-723.76"/>
<polygon fill="#63b8ff" stroke="#63b8ff" points="318.04,-691.33 307.48,-690.47 315.2,-697.73 318.04,-691.33"/>
</a>
</g>
</g>
<!-- Node19 -->
<g id="Node000019" class="node">
<title>Node19</title>
<g id="a_Node000019"><a xlink:href="class_harlinn_1_1_common_1_1_core_1_1_doxygen_1_1_internal_1_1_doc_base.html" target="_top" xlink:title=" ">
<polygon fill="white" stroke="#666666" points="797,-583.37 649,-583.37 649,-531.37 797,-531.37 797,-583.37"/>
<text text-anchor="start" x="657" y="-571.37" font-family="Helvetica,sans-Serif" font-size="10.00">Harlinn::Common::Core</text>
<text text-anchor="start" x="657" y="-560.37" font-family="Helvetica,sans-Serif" font-size="10.00">::Doxygen::Internal::</text>
<text text-anchor="start" x="657" y="-549.37" font-family="Helvetica,sans-Serif" font-size="10.00">DocBase&lt; Doxygen::DoxType</text>
<text text-anchor="middle" x="723" y="-538.37" font-family="Helvetica,sans-Serif" font-size="10.00">::DescriptionType &gt;</text>
</a>
</g>
</g>
<!-- Node3&#45;&gt;Node19 -->
<g id="edge27_Node000019_Node000003" class="edge">
<title>Node3&#45;&gt;Node19</title>
<g id="a_edge27_Node000019_Node000003"><a xlink:title=" ">
<path fill="none" stroke="#63b8ff" d="M298.08,-651.72C322.27,-631.32 360.9,-602.45 400,-588.37 481.64,-558.98 582.02,-553.77 648.78,-554.26"/>
<polygon fill="#63b8ff" stroke="#63b8ff" points="295.98,-648.91 290.68,-658.09 300.55,-654.22 295.98,-648.91"/>
</a>
</g>
</g>
<!-- Node22 -->
<g id="Node000022" class="node">
<title>Node22</title>
<g id="a_Node000022"><a xlink:href="class_harlinn_1_1_common_1_1_core_1_1_doxygen_1_1_internal_1_1_doc_base.html" target="_top" xlink:title=" ">
<polygon fill="white" stroke="#666666" points="797,-653.37 649,-653.37 649,-601.37 797,-601.37 797,-653.37"/>
<text text-anchor="start" x="657" y="-641.37" font-family="Helvetica,sans-Serif" font-size="10.00">Harlinn::Common::Core</text>
<text text-anchor="start" x="657" y="-630.37" font-family="Helvetica,sans-Serif" font-size="10.00">::Doxygen::Internal::</text>
<text text-anchor="start" x="657" y="-619.37" font-family="Helvetica,sans-Serif" font-size="10.00">DocBase&lt; Doxygen::DoxType</text>
<text text-anchor="middle" x="723" y="-608.37" font-family="Helvetica,sans-Serif" font-size="10.00">::TitleType &gt;</text>
</a>
</g>
</g>
<!-- Node3&#45;&gt;Node22 -->
<g id="edge33_Node000022_Node000003" class="edge">
<title>Node3&#45;&gt;Node22</title>
<g id="a_edge33_Node000022_Node000003"><a xlink:title=" ">
<path fill="none" stroke="#63b8ff" d="M318.29,-654.68C369.86,-633.43 457.16,-600.93 536,-588.37 577.7,-581.73 589.64,-579.88 631,-588.37 644.13,-591.07 657.71,-595.74 670.24,-600.94"/>
<polygon fill="#63b8ff" stroke="#63b8ff" points="317.13,-651.37 309.25,-658.45 319.82,-657.83 317.13,-651.37"/>
</a>
</g>
</g>
<!-- Node4 -->
<g id="Node000004" class="node">
<title>Node4</title>
<g id="a_Node000004"><a xlink:title=" ">
<polygon fill="white" stroke="#666666" points="140,-689.37 0,-689.37 0,-659.37 140,-659.37 140,-689.37"/>
<text text-anchor="start" x="8" y="-677.37" font-family="Helvetica,sans-Serif" font-size="10.00">std::enable_shared</text>
<text text-anchor="middle" x="70" y="-666.37" font-family="Helvetica,sans-Serif" font-size="10.00">_from_this&lt; DocBaseType &gt;</text>
</a>
</g>
</g>
<!-- Node4&#45;&gt;Node3 -->
<g id="edge3_Node000003_Node000004" class="edge">
<title>Node4&#45;&gt;Node3</title>
<g id="a_edge3_Node000003_Node000004"><a xlink:title=" ">
<path fill="none" stroke="#8b1a1a" d="M151.84,-674.37C170.47,-674.37 190.01,-674.37 207.76,-674.37"/>
<polygon fill="#8b1a1a" stroke="#8b1a1a" points="151.9,-670.87 141.9,-674.37 151.9,-677.87 151.9,-670.87"/>
</a>
</g>
</g>
<!-- Node5&#45;&gt;Node2 -->
<g id="edge4_Node000002_Node000005" class="edge">
<title>Node5&#45;&gt;Node2</title>
<g id="a_edge4_Node000002_Node000005"><a xlink:title=" ">
<path fill="none" stroke="orange" stroke-dasharray="5,2" d="M504.62,-700.56C514.73,-705.9 525.57,-711.16 536,-715.37 572.22,-729.99 614,-742.08 648.77,-750.9"/>
<polygon fill="orange" stroke="orange" points="506.57,-697.64 496.11,-695.96 503.24,-703.8 506.57,-697.64"/>
</a>
</g>
<text text-anchor="start" x="536" y="-758.37" font-family="Helvetica,sans-Serif" font-size="10.00" fill="grey"> &lt; Doxygen::DoxType</text>
<text text-anchor="middle" x="583.5" y="-747.37" font-family="Helvetica,sans-Serif" font-size="10.00" fill="grey">::EnumvalueType &gt;</text>
</g>
<!-- Node5&#45;&gt;Node12 -->
<g id="edge15_Node000012_Node000005" class="edge">
<title>Node5&#45;&gt;Node12</title>
<g id="a_edge15_Node000012_Node000005"><a xlink:title=" ">
<path fill="none" stroke="orange" stroke-dasharray="5,2" d="M529.59,-680.48C566.34,-683.71 611.42,-687.66 648.71,-690.94"/>
<polygon fill="orange" stroke="orange" points="530.25,-677.03 519.98,-679.64 529.64,-684 530.25,-677.03"/>
</a>
</g>
<text text-anchor="start" x="536" y="-703.37" font-family="Helvetica,sans-Serif" font-size="10.00" fill="grey"> &lt; Doxygen::DoxType</text>
<text text-anchor="middle" x="583.5" y="-692.37" font-family="Helvetica,sans-Serif" font-size="10.00" fill="grey">::LinkedTextType &gt;</text>
</g>
<!-- Node5&#45;&gt;Node19 -->
<g id="edge28_Node000019_Node000005" class="edge">
<title>Node5&#45;&gt;Node19</title>
<g id="a_edge28_Node000019_Node000005"><a xlink:title=" ">
<path fill="none" stroke="orange" stroke-dasharray="5,2" d="M490.39,-646.12C503.62,-634.99 519.79,-622.87 536,-614.37 571.3,-595.87 613.57,-582.31 648.89,-573.07"/>
<polygon fill="orange" stroke="orange" points="488.15,-643.43 482.88,-652.62 492.73,-648.72 488.15,-643.43"/>
</a>
</g>
<text text-anchor="start" x="536" y="-628.37" font-family="Helvetica,sans-Serif" font-size="10.00" fill="grey"> &lt; Doxygen::DoxType</text>
<text text-anchor="middle" x="583.5" y="-617.37" font-family="Helvetica,sans-Serif" font-size="10.00" fill="grey">::DescriptionType &gt;</text>
</g>
<!-- Node5&#45;&gt;Node22 -->
<g id="edge34_Node000022_Node000005" class="edge">
<title>Node5&#45;&gt;Node22</title>
<g id="a_edge34_Node000022_Node000005"><a xlink:title=" ">
<path fill="none" stroke="orange" stroke-dasharray="5,2" d="M529.47,-656.72C531.67,-656.25 533.85,-655.8 536,-655.37 572.99,-647.98 614.46,-641.56 648.84,-636.74"/>
<polygon fill="orange" stroke="orange" points="528.86,-653.27 519.85,-658.85 530.38,-660.1 528.86,-653.27"/>
</a>
</g>
<text text-anchor="start" x="536" y="-669.37" font-family="Helvetica,sans-Serif" font-size="10.00" fill="grey"> &lt; Doxygen::DoxType</text>
<text text-anchor="middle" x="583.5" y="-658.37" font-family="Helvetica,sans-Serif" font-size="10.00" fill="grey">::TitleType &gt;</text>
</g>
<!-- Node6 -->
<g id="Node000006" class="node">
<title>Node6</title>
<g id="a_Node000006"><a xlink:href="class_harlinn_1_1_common_1_1_core_1_1_basic_string.html" target="_top" xlink:title=" ">
<polygon fill="white" stroke="#666666" points="785.5,-455.37 660.5,-455.37 660.5,-425.37 785.5,-425.37 785.5,-455.37"/>
<text text-anchor="start" x="668.5" y="-443.37" font-family="Helvetica,sans-Serif" font-size="10.00">Harlinn::Common::Core</text>
<text text-anchor="middle" x="723" y="-432.37" font-family="Helvetica,sans-Serif" font-size="10.00">::BasicString&lt; wchar_t &gt;</text>
</a>
</g>
</g>
<!-- Node6&#45;&gt;Node1 -->
<g id="edge6_Node000001_Node000006" class="edge">
<title>Node6&#45;&gt;Node1</title>
<g id="a_edge6_Node000001_Node000006"><a xlink:title=" ">
<path fill="none" stroke="#9a32cd" stroke-dasharray="5,2" d="M797.09,-434.41C848.29,-432.48 917.71,-434.46 976,-452.37 984.96,-455.13 985.1,-460.41 994,-463.37 1074.69,-490.23 1099.46,-481.37 1184.5,-481.37 1184.5,-481.37 1184.5,-481.37 1641,-481.37 1706.65,-481.37 1781.34,-474.61 1833.68,-468.76"/>
<polygon fill="#9a32cd" stroke="#9a32cd" points="797.14,-430.9 787.31,-434.84 797.45,-437.89 797.14,-430.9"/>
</a>
</g>
<text text-anchor="middle" x="1318.5" y="-495.37" font-family="Helvetica,sans-Serif" font-size="10.00" fill="grey"> id_</text>
<text text-anchor="middle" x="1318.5" y="-484.37" font-family="Helvetica,sans-Serif" font-size="10.00" fill="grey">name_</text>
</g>
<!-- Node21 -->
<g id="Node000021" class="node">
<title>Node21</title>
<g id="a_Node000021"><a xlink:href="class_harlinn_1_1_common_1_1_core_1_1_doxygen_1_1_title_type.html" target="_top" xlink:title=" ">
<polygon fill="white" stroke="#666666" points="976,-491.37 858,-491.37 858,-461.37 976,-461.37 976,-491.37"/>
<text text-anchor="start" x="866" y="-479.37" font-family="Helvetica,sans-Serif" font-size="10.00">Harlinn::Common::Core</text>
<text text-anchor="middle" x="917" y="-468.37" font-family="Helvetica,sans-Serif" font-size="10.00">::Doxygen::TitleType</text>
</a>
</g>
</g>
<!-- Node6&#45;&gt;Node21 -->
<g id="edge35_Node000021_Node000006" class="edge">
<title>Node6&#45;&gt;Node21</title>
<g id="a_edge35_Node000021_Node000006"><a xlink:title=" ">
<path fill="none" stroke="#9a32cd" stroke-dasharray="5,2" d="M797.07,-454.07C817.08,-457.82 838.5,-461.84 857.57,-465.42"/>
<polygon fill="#9a32cd" stroke="#9a32cd" points="797.77,-450.64 787.29,-452.24 796.48,-457.52 797.77,-450.64"/>
</a>
</g>
<text text-anchor="middle" x="827.5" y="-465.37" font-family="Helvetica,sans-Serif" font-size="10.00" fill="grey"> text_</text>
</g>
<!-- Node7 -->
<g id="Node000007" class="node">
<title>Node7</title>
<g id="a_Node000007"><a xlink:href="struct_harlinn_1_1_common_1_1_core_1_1_internal_1_1_data.html" target="_top" xlink:title=" ">
<polygon fill="white" stroke="#666666" points="331,-408.37 213,-408.37 213,-378.37 331,-378.37 331,-408.37"/>
<text text-anchor="start" x="221" y="-396.37" font-family="Helvetica,sans-Serif" font-size="10.00">Harlinn::Common::Core</text>
<text text-anchor="middle" x="272" y="-385.37" font-family="Helvetica,sans-Serif" font-size="10.00">::Internal::Data&lt; T &gt;</text>
</a>
</g>
</g>
<!-- Node7&#45;&gt;Node6 -->
<g id="edge7_Node000006_Node000007" class="edge">
<title>Node7&#45;&gt;Node6</title>
<g id="a_edge7_Node000006_Node000007"><a xlink:title=" ">
<path fill="none" stroke="#9a32cd" stroke-dasharray="5,2" d="M342.38,-407.67C361.03,-411.19 381.24,-414.71 400,-417.37 490.03,-430.15 595.28,-435.97 660.3,-438.52"/>
<polygon fill="#9a32cd" stroke="#9a32cd" points="343.27,-404.28 332.78,-405.83 341.95,-411.15 343.27,-404.28"/>
</a>
</g>
<text text-anchor="middle" x="459" y="-433.37" font-family="Helvetica,sans-Serif" font-size="10.00" fill="grey"> data_</text>
</g>
<!-- Node9 -->
<g id="Node000009" class="node">
<title>Node9</title>
<g id="a_Node000009"><a xlink:href="class_harlinn_1_1_common_1_1_core_1_1_basic_string.html" target="_top" xlink:title="This is a reference counted string class.">
<polygon fill="white" stroke="#666666" points="518,-408.37 400,-408.37 400,-378.37 518,-378.37 518,-408.37"/>
<text text-anchor="start" x="408" y="-396.37" font-family="Helvetica,sans-Serif" font-size="10.00">Harlinn::Common::Core</text>
<text text-anchor="middle" x="459" y="-385.37" font-family="Helvetica,sans-Serif" font-size="10.00">::BasicString&lt; T &gt;</text>
</a>
</g>
</g>
<!-- Node7&#45;&gt;Node9 -->
<g id="edge10_Node000009_Node000007" class="edge">
<title>Node7&#45;&gt;Node9</title>
<g id="a_edge10_Node000009_Node000007"><a xlink:title=" ">
<path fill="none" stroke="#9a32cd" stroke-dasharray="5,2" d="M342.76,-393.37C361.53,-393.37 381.62,-393.37 399.69,-393.37"/>
<polygon fill="#9a32cd" stroke="#9a32cd" points="342.79,-389.87 332.79,-393.37 342.79,-396.87 342.79,-389.87"/>
</a>
</g>
<text text-anchor="middle" x="368" y="-396.37" font-family="Helvetica,sans-Serif" font-size="10.00" fill="grey"> data_</text>
</g>
<!-- Node8 -->
<g id="Node000008" class="node">
<title>Node8</title>
<g id="a_Node000008"><a xlink:title=" ">
<polygon fill="white" stroke="#666666" points="84.5,-375.87 55.5,-375.87 55.5,-356.87 84.5,-356.87 84.5,-375.87"/>
<text text-anchor="middle" x="70" y="-363.87" font-family="Helvetica,sans-Serif" font-size="10.00">T</text>
</a>
</g>
</g>
<!-- Node8&#45;&gt;Node7 -->
<g id="edge8_Node000007_Node000008" class="edge">
<title>Node8&#45;&gt;Node7</title>
<g id="a_edge8_Node000007_Node000008"><a xlink:title=" ">
<path fill="none" stroke="#9a32cd" stroke-dasharray="5,2" d="M95.87,-369.73C124.88,-373.65 173.79,-380.25 212.57,-385.48"/>
<polygon fill="#9a32cd" stroke="#9a32cd" points="96.63,-366.3 86.25,-368.43 95.69,-373.24 96.63,-366.3"/>
</a>
</g>
<text text-anchor="middle" x="174" y="-385.37" font-family="Helvetica,sans-Serif" font-size="10.00" fill="grey"> buffer_</text>
</g>
<!-- Node13 -->
<g id="Node000013" class="node">
<title>Node13</title>
<g id="a_Node000013"><a xlink:title=" ">
<polygon fill="white" stroke="#666666" points="1228,-528.87 1143,-528.87 1143,-509.87 1228,-509.87 1228,-528.87"/>
<text text-anchor="middle" x="1185.5" y="-516.87" font-family="Helvetica,sans-Serif" font-size="10.00">std::vector&lt; T &gt;</text>
</a>
</g>
</g>
<!-- Node8&#45;&gt;Node13 -->
<g id="edge17_Node000013_Node000008" class="edge">
<title>Node8&#45;&gt;Node13</title>
<g id="a_edge17_Node000013_Node000008"><a xlink:title=" ">
<path fill="none" stroke="#9a32cd" stroke-dasharray="5,2" d="M85.01,-385.17C114.76,-422.7 188.32,-503.37 271,-503.37 271,-503.37 271,-503.37 584.5,-503.37 794.21,-503.37 1045,-513.26 1142.68,-517.49"/>
<polygon fill="#9a32cd" stroke="#9a32cd" points="87.92,-383.2 79.04,-377.42 82.38,-387.48 87.92,-383.2"/>
</a>
</g>
<text text-anchor="middle" x="583.5" y="-506.37" font-family="Helvetica,sans-Serif" font-size="10.00" fill="grey"> elements</text>
</g>
<!-- Node15 -->
<g id="Node000015" class="node">
<title>Node15</title>
<g id="a_Node000015"><a xlink:title=" ">
<polygon fill="white" stroke="#666666" points="969.5,-209.87 864.5,-209.87 864.5,-190.87 969.5,-190.87 969.5,-209.87"/>
<text text-anchor="middle" x="917" y="-197.87" font-family="Helvetica,sans-Serif" font-size="10.00">std::shared_ptr&lt; T &gt;</text>
</a>
</g>
</g>
<!-- Node8&#45;&gt;Node15 -->
<g id="edge20_Node000015_Node000008" class="edge">
<title>Node8&#45;&gt;Node15</title>
<g id="a_edge20_Node000015_Node000008"><a xlink:title=" ">
<path fill="none" stroke="#9a32cd" stroke-dasharray="5,2" d="M89.01,-348.6C122.07,-317.94 195.97,-258.37 271,-258.37 271,-258.37 271,-258.37 724,-258.37 789.64,-258.37 862.71,-226.93 896.68,-210.34"/>
<polygon fill="#9a32cd" stroke="#9a32cd" points="86.73,-345.93 81.9,-355.36 91.56,-351.01 86.73,-345.93"/>
</a>
</g>
<text text-anchor="middle" x="459" y="-261.37" font-family="Helvetica,sans-Serif" font-size="10.00" fill="grey"> ptr</text>
</g>
<!-- Node16 -->
<g id="Node000016" class="node">
<title>Node16</title>
<g id="a_Node000016"><a xlink:title=" ">
<polygon fill="white" stroke="#666666" points="959.5,-358.87 874.5,-358.87 874.5,-339.87 959.5,-339.87 959.5,-358.87"/>
<text text-anchor="middle" x="917" y="-346.87" font-family="Helvetica,sans-Serif" font-size="10.00">std::vector&lt; T &gt;</text>
</a>
</g>
</g>
<!-- Node8&#45;&gt;Node16 -->
<g id="edge22_Node000016_Node000008" class="edge">
<title>Node8&#45;&gt;Node16</title>
<g id="a_edge22_Node000016_Node000008"><a xlink:title=" ">
<path fill="none" stroke="#9a32cd" stroke-dasharray="5,2" d="M95.9,-362.89C133.67,-357.92 207.76,-349.37 271,-349.37 271,-349.37 271,-349.37 724,-349.37 775.67,-349.37 835.15,-349.37 874.05,-349.37"/>
<polygon fill="#9a32cd" stroke="#9a32cd" points="95.49,-359.41 86.05,-364.22 96.42,-366.35 95.49,-359.41"/>
</a>
</g>
<text text-anchor="middle" x="459" y="-352.37" font-family="Helvetica,sans-Serif" font-size="10.00" fill="grey"> elements</text>
</g>
<!-- Node9&#45;&gt;Node6 -->
<g id="edge9_Node000006_Node000009" class="edge">
<title>Node9&#45;&gt;Node6</title>
<g id="a_edge9_Node000006_Node000009"><a xlink:title=" ">
<path fill="none" stroke="orange" stroke-dasharray="5,2" d="M529.54,-402.72C560.67,-407.22 597.77,-413.02 631,-419.37 640.56,-421.2 650.63,-423.32 660.46,-425.5"/>
<polygon fill="orange" stroke="orange" points="530.25,-399.29 519.86,-401.34 529.26,-406.22 530.25,-399.29"/>
</a>
</g>
<text text-anchor="middle" x="583.5" y="-422.37" font-family="Helvetica,sans-Serif" font-size="10.00" fill="grey"> &lt; wchar_t &gt;</text>
</g>
<!-- Node10 -->
<g id="Node000010" class="node">
<title>Node10</title>
<g id="a_Node000010"><a xlink:title=" ">
<polygon fill="white" stroke="#666666" points="1709,-453.37 1571,-453.37 1571,-423.37 1709,-423.37 1709,-453.37"/>
<text text-anchor="start" x="1579" y="-441.37" font-family="Helvetica,sans-Serif" font-size="10.00">std::shared_ptr&lt; LinkedText</text>
<text text-anchor="middle" x="1640" y="-430.37" font-family="Helvetica,sans-Serif" font-size="10.00">Type &gt;</text>
</a>
</g>
</g>
<!-- Node10&#45;&gt;Node1 -->
<g id="edge11_Node000001_Node000010" class="edge">
<title>Node10&#45;&gt;Node1</title>
<g id="a_edge11_Node000001_Node000010"><a xlink:title=" ">
<path fill="none" stroke="#9a32cd" stroke-dasharray="5,2" d="M1720.22,-445.09C1756.51,-448.16 1799.04,-451.77 1833.67,-454.71"/>
<polygon fill="#9a32cd" stroke="#9a32cd" points="1720.95,-441.64 1710.69,-444.28 1720.36,-448.61 1720.95,-441.64"/>
</a>
</g>
<text text-anchor="middle" x="1772" y="-456.37" font-family="Helvetica,sans-Serif" font-size="10.00" fill="grey"> initializer_</text>
</g>
<!-- Node11 -->
<g id="Node000011" class="node">
<title>Node11</title>
<g id="a_Node000011"><a xlink:href="class_harlinn_1_1_common_1_1_core_1_1_doxygen_1_1_linked_text_type.html" target="_top" xlink:title=" ">
<polygon fill="white" stroke="#666666" points="1518,-568.37 1383,-568.37 1383,-538.37 1518,-538.37 1518,-568.37"/>
<text text-anchor="start" x="1391" y="-556.37" font-family="Helvetica,sans-Serif" font-size="10.00">Harlinn::Common::Core</text>
<text text-anchor="middle" x="1450.5" y="-545.37" font-family="Helvetica,sans-Serif" font-size="10.00">::Doxygen::LinkedTextType</text>
</a>
</g>
</g>
<!-- Node11&#45;&gt;Node10 -->
<g id="edge12_Node000010_Node000011" class="edge">
<title>Node11&#45;&gt;Node10</title>
<g id="a_edge12_Node000010_Node000011"><a xlink:title=" ">
<path fill="none" stroke="#9a32cd" stroke-dasharray="5,2" d="M1485.8,-532.34C1522.86,-509.61 1581.03,-473.93 1614,-453.71"/>
<polygon fill="#9a32cd" stroke="#9a32cd" points="1484.38,-529.1 1477.69,-537.31 1488.04,-535.06 1484.38,-529.1"/>
</a>
</g>
<text text-anchor="middle" x="1544.5" y="-502.37" font-family="Helvetica,sans-Serif" font-size="10.00" fill="grey"> ptr</text>
</g>
<!-- Node12&#45;&gt;Node11 -->
<g id="edge13_Node000011_Node000012" class="edge">
<title>Node12&#45;&gt;Node11</title>
<g id="a_edge13_Node000011_Node000012"><a xlink:title=" ">
<path fill="none" stroke="#63b8ff" d="M808.29,-680.64C953.97,-651.73 1249.93,-592.98 1382.57,-566.66"/>
<polygon fill="#63b8ff" stroke="#63b8ff" points="807.83,-677.16 798.71,-682.54 809.2,-684.03 807.83,-677.16"/>
</a>
</g>
</g>
<!-- Node13&#45;&gt;Node11 -->
<g id="edge16_Node000011_Node000013" class="edge">
<title>Node13&#45;&gt;Node11</title>
<g id="a_edge16_Node000011_Node000013"><a xlink:title=" ">
<path fill="none" stroke="#63b8ff" d="M1239.63,-526.24C1280.84,-531.57 1338.22,-538.99 1382.56,-544.72"/>
<polygon fill="#63b8ff" stroke="#63b8ff" points="1240.33,-522.8 1229.96,-524.99 1239.43,-529.74 1240.33,-522.8"/>
</a>
</g>
</g>
<!-- Node18 -->
<g id="Node000018" class="node">
<title>Node18</title>
<g id="a_Node000018"><a xlink:href="class_harlinn_1_1_common_1_1_core_1_1_doxygen_1_1_description_type.html" target="_top" xlink:title=" ">
<polygon fill="white" stroke="#666666" points="1519,-375.37 1382,-375.37 1382,-345.37 1519,-345.37 1519,-375.37"/>
<text text-anchor="start" x="1390" y="-363.37" font-family="Helvetica,sans-Serif" font-size="10.00">Harlinn::Common::Core</text>
<text text-anchor="middle" x="1450.5" y="-352.37" font-family="Helvetica,sans-Serif" font-size="10.00">::Doxygen::DescriptionType</text>
</a>
</g>
</g>
<!-- Node13&#45;&gt;Node18 -->
<g id="edge29_Node000018_Node000013" class="edge">
<title>Node13&#45;&gt;Node18</title>
<g id="a_edge29_Node000018_Node000013"><a xlink:title=" ">
<path fill="none" stroke="#63b8ff" d="M1208.01,-502.69C1224.92,-490.21 1249.47,-473.46 1273,-462.37 1311.27,-444.33 1326.99,-454.88 1364,-434.37 1392.33,-418.67 1419.66,-392.47 1435.51,-375.82"/>
<polygon fill="#63b8ff" stroke="#63b8ff" points="1206.1,-499.75 1200.22,-508.56 1210.31,-505.34 1206.1,-499.75"/>
</a>
</g>
</g>
<!-- Node14 -->
<g id="Node000014" class="node">
<title>Node14</title>
<g id="a_Node000014"><a xlink:title=" ">
<polygon fill="white" stroke="#666666" points="1248,-445.37 1123,-445.37 1123,-415.37 1248,-415.37 1248,-445.37"/>
<text text-anchor="start" x="1131" y="-433.37" font-family="Helvetica,sans-Serif" font-size="10.00">std::vector&lt; RefTextType</text>
<text text-anchor="middle" x="1185.5" y="-422.37" font-family="Helvetica,sans-Serif" font-size="10.00">Ptr &gt;</text>
</a>
</g>
</g>
<!-- Node14&#45;&gt;Node11 -->
<g id="edge18_Node000011_Node000014" class="edge">
<title>Node14&#45;&gt;Node11</title>
<g id="a_edge18_Node000011_Node000014"><a xlink:title=" ">
<path fill="none" stroke="#9a32cd" stroke-dasharray="5,2" d="M1259.4,-425.34C1293.03,-426.04 1332.4,-431.34 1364,-448.37 1402.08,-468.89 1429.59,-514.16 1442.05,-538"/>
<polygon fill="#9a32cd" stroke="#9a32cd" points="1259.78,-421.85 1249.75,-425.28 1259.73,-428.85 1259.78,-421.85"/>
</a>
</g>
<text text-anchor="middle" x="1318.5" y="-451.37" font-family="Helvetica,sans-Serif" font-size="10.00" fill="grey"> ref_</text>
</g>
<!-- Node15&#45;&gt;Node10 -->
<g id="edge23_Node000010_Node000015" class="edge">
<title>Node15&#45;&gt;Node10</title>
<g id="a_edge23_Node000010_Node000015"><a xlink:title=" ">
<path fill="none" stroke="orange" stroke-dasharray="5,2" d="M932.18,-182.24C945.98,-166.19 968.55,-143.88 994,-134.37 1037.3,-118.2 1052.78,-124.79 1098,-134.37 1301.03,-177.38 1338.97,-233.12 1519,-336.37 1533.88,-344.9 1539.71,-344.41 1552,-356.37 1562.6,-366.69 1560.03,-373.44 1570,-384.37 1583.53,-399.21 1601.45,-413.11 1615.64,-423.08"/>
<polygon fill="orange" stroke="orange" points="929.73,-179.7 926.07,-189.65 935.13,-184.15 929.73,-179.7"/>
</a>
</g>
<text text-anchor="middle" x="1318.5" y="-243.37" font-family="Helvetica,sans-Serif" font-size="10.00" fill="grey"> &lt; LinkedTextType &gt;</text>
</g>
<!-- Node15&#45;&gt;Node14 -->
<g id="edge19_Node000014_Node000015" class="edge">
<title>Node15&#45;&gt;Node14</title>
<g id="a_edge19_Node000014_Node000015"><a xlink:title=" ">
<path fill="none" stroke="#9a32cd" stroke-dasharray="5,2" d="M928.16,-220.35C940.66,-245.52 961.95,-290.33 976,-330.37 986.49,-360.28 970.56,-378.04 994,-399.37 998.85,-403.78 1068.96,-414.39 1122.73,-421.96"/>
<polygon fill="#9a32cd" stroke="#9a32cd" points="931.38,-218.98 923.77,-211.61 925.13,-222.12 931.38,-218.98"/>
</a>
</g>
<text text-anchor="middle" x="1046" y="-422.37" font-family="Helvetica,sans-Serif" font-size="10.00" fill="grey"> elements</text>
</g>
<!-- Node17 -->
<g id="Node000017" class="node">
<title>Node17</title>
<g id="a_Node000017"><a xlink:title=" ">
<polygon fill="white" stroke="#666666" points="1710,-375.37 1570,-375.37 1570,-345.37 1710,-345.37 1710,-375.37"/>
<text text-anchor="start" x="1578" y="-363.37" font-family="Helvetica,sans-Serif" font-size="10.00">std::shared_ptr&lt; Description</text>
<text text-anchor="middle" x="1640" y="-352.37" font-family="Helvetica,sans-Serif" font-size="10.00">Type &gt;</text>
</a>
</g>
</g>
<!-- Node15&#45;&gt;Node17 -->
<g id="edge46_Node000017_Node000015" class="edge">
<title>Node15&#45;&gt;Node17</title>
<g id="a_edge46_Node000017_Node000015"><a xlink:title=" ">
<path fill="none" stroke="orange" stroke-dasharray="5,2" d="M927,-180.52C938.74,-157.22 961.67,-119.6 994,-102.37 1212.87,14.25 1358.1,52.24 1552,-102.37 1629.98,-164.55 1638.52,-299.5 1639.11,-345.02"/>
<polygon fill="orange" stroke="orange" points="923.96,-178.75 922.8,-189.28 930.28,-181.78 923.96,-178.75"/>
</a>
</g>
<text text-anchor="middle" x="1318.5" y="-9.37" font-family="Helvetica,sans-Serif" font-size="10.00" fill="grey"> &lt; DescriptionType &gt;</text>
</g>
<!-- Node20 -->
<g id="Node000020" class="node">
<title>Node20</title>
<g id="a_Node000020"><a xlink:title=" ">
<polygon fill="white" stroke="#666666" points="1255,-396.87 1116,-396.87 1116,-377.87 1255,-377.87 1255,-396.87"/>
<text text-anchor="middle" x="1185.5" y="-384.87" font-family="Helvetica,sans-Serif" font-size="10.00">std::shared_ptr&lt; TitleType &gt;</text>
</a>
</g>
</g>
<!-- Node15&#45;&gt;Node20 -->
<g id="edge36_Node000020_Node000015" class="edge">
<title>Node15&#45;&gt;Node20</title>
<g id="a_edge36_Node000020_Node000015"><a xlink:title=" ">
<path fill="none" stroke="orange" stroke-dasharray="5,2" d="M951.38,-214.48C964.5,-219.66 979.8,-225.26 994,-229.37 1039.29,-242.49 1065.46,-216.24 1098,-250.37 1134.6,-288.77 1080.79,-328.69 1116,-368.37 1119.28,-372.06 1123.2,-375.07 1127.49,-377.5"/>
<polygon fill="orange" stroke="orange" points="952.93,-211.33 942.35,-210.83 950.31,-217.82 952.93,-211.33"/>
</a>
</g>
<text text-anchor="middle" x="1046" y="-253.37" font-family="Helvetica,sans-Serif" font-size="10.00" fill="grey"> &lt; TitleType &gt;</text>
</g>
<!-- Node23 -->
<g id="Node000023" class="node">
<title>Node23</title>
<g id="a_Node000023"><a xlink:title=" ">
<polygon fill="white" stroke="#666666" points="1250,-311.37 1121,-311.37 1121,-281.37 1250,-281.37 1250,-311.37"/>
<text text-anchor="start" x="1129" y="-299.37" font-family="Helvetica,sans-Serif" font-size="10.00">std::vector&lt; DocParaType</text>
<text text-anchor="middle" x="1185.5" y="-288.37" font-family="Helvetica,sans-Serif" font-size="10.00">Ptr &gt;</text>
</a>
</g>
</g>
<!-- Node15&#45;&gt;Node23 -->
<g id="edge38_Node000023_Node000015" class="edge">
<title>Node15&#45;&gt;Node23</title>
<g id="a_edge38_Node000023_Node000015"><a xlink:title=" ">
<path fill="none" stroke="#9a32cd" stroke-dasharray="5,2" d="M948.41,-185.93C987.59,-169.7 1055.66,-149.81 1098,-184.37 1128.93,-209.61 1089.74,-242.3 1116,-272.37 1118.9,-275.69 1122.29,-278.56 1125.98,-281.02"/>
<polygon fill="#9a32cd" stroke="#9a32cd" points="947.11,-182.68 939.33,-189.87 949.9,-189.1 947.11,-182.68"/>
</a>
</g>
<text text-anchor="middle" x="1046" y="-187.37" font-family="Helvetica,sans-Serif" font-size="10.00" fill="grey"> elements</text>
</g>
<!-- Node24 -->
<g id="Node000024" class="node">
<title>Node24</title>
<g id="a_Node000024"><a xlink:title=" ">
<polygon fill="white" stroke="#666666" points="1245,-359.37 1126,-359.37 1126,-329.37 1245,-329.37 1245,-359.37"/>
<text text-anchor="start" x="1134" y="-347.37" font-family="Helvetica,sans-Serif" font-size="10.00">std::vector&lt; DocInternal</text>
<text text-anchor="middle" x="1185.5" y="-336.37" font-family="Helvetica,sans-Serif" font-size="10.00">TypePtr &gt;</text>
</a>
</g>
</g>
<!-- Node15&#45;&gt;Node24 -->
<g id="edge41_Node000024_Node000015" class="edge">
<title>Node15&#45;&gt;Node24</title>
<g id="a_edge41_Node000024_Node000015"><a xlink:title=" ">
<path fill="none" stroke="#9a32cd" stroke-dasharray="5,2" d="M981.29,-198.86C1026.22,-199.2 1081.37,-202.95 1098,-218.37 1131.75,-249.68 1086.2,-285.29 1116,-320.37 1118.77,-323.64 1122.02,-326.46 1125.56,-328.9"/>
<polygon fill="#9a32cd" stroke="#9a32cd" points="981.35,-195.36 971.34,-198.85 981.34,-202.36 981.35,-195.36"/>
</a>
</g>
<text text-anchor="middle" x="1046" y="-221.37" font-family="Helvetica,sans-Serif" font-size="10.00" fill="grey"> elements</text>
</g>
<!-- Node25 -->
<g id="Node000025" class="node">
<title>Node25</title>
<g id="a_Node000025"><a xlink:title=" ">
<polygon fill="white" stroke="#666666" points="1252.5,-263.37 1118.5,-263.37 1118.5,-233.37 1252.5,-233.37 1252.5,-263.37"/>
<text text-anchor="start" x="1126.5" y="-251.37" font-family="Helvetica,sans-Serif" font-size="10.00">std::vector&lt; DocSect1Type</text>
<text text-anchor="middle" x="1185.5" y="-240.37" font-family="Helvetica,sans-Serif" font-size="10.00">Ptr &gt;</text>
</a>
</g>
</g>
<!-- Node15&#45;&gt;Node25 -->
<g id="edge44_Node000025_Node000015" class="edge">
<title>Node15&#45;&gt;Node25</title>
<g id="a_edge44_Node000025_Node000015"><a xlink:title=" ">
<path fill="none" stroke="#9a32cd" stroke-dasharray="5,2" d="M936.79,-183.47C951.26,-171.64 972.4,-156.84 994,-150.37 1038.28,-137.11 1055.87,-131.36 1098,-150.37 1135.85,-167.45 1163.79,-210.19 1176.64,-233.18"/>
<polygon fill="#9a32cd" stroke="#9a32cd" points="934.79,-180.57 929.45,-189.71 939.33,-185.9 934.79,-180.57"/>
</a>
</g>
<text text-anchor="middle" x="1046" y="-153.37" font-family="Helvetica,sans-Serif" font-size="10.00" fill="grey"> elements</text>
</g>
<!-- Node16&#45;&gt;Node14 -->
<g id="edge21_Node000014_Node000016" class="edge">
<title>Node16&#45;&gt;Node14</title>
<g id="a_edge21_Node000014_Node000016"><a xlink:title=" ">
<path fill="none" stroke="orange" stroke-dasharray="5,2" d="M933.38,-367.91C953.22,-391.57 986.1,-429.87 994,-433.37 1034.21,-451.22 1084.06,-449.71 1122.68,-444.14"/>
<polygon fill="orange" stroke="orange" points="936.09,-365.7 927,-360.26 930.72,-370.18 936.09,-365.7"/>
</a>
</g>
<text text-anchor="middle" x="1046" y="-451.37" font-family="Helvetica,sans-Serif" font-size="10.00" fill="grey"> &lt; RefTextTypePtr &gt;</text>
</g>
<!-- Node16&#45;&gt;Node23 -->
<g id="edge39_Node000023_Node000016" class="edge">
<title>Node16&#45;&gt;Node23</title>
<g id="a_edge39_Node000023_Node000016"><a xlink:title=" ">
<path fill="none" stroke="orange" stroke-dasharray="5,2" d="M969.23,-336.86C977.49,-334.95 985.97,-333.06 994,-331.37 1036.12,-322.52 1083.75,-313.77 1120.84,-307.23"/>
<polygon fill="orange" stroke="orange" points="968.56,-333.43 959.62,-339.12 970.15,-340.24 968.56,-333.43"/>
</a>
</g>
<text text-anchor="middle" x="1046" y="-334.37" font-family="Helvetica,sans-Serif" font-size="10.00" fill="grey"> &lt; DocParaTypePtr &gt;</text>
</g>
<!-- Node16&#45;&gt;Node24 -->
<g id="edge42_Node000024_Node000016" class="edge">
<title>Node16&#45;&gt;Node24</title>
<g id="a_edge42_Node000024_Node000016"><a xlink:title=" ">
<path fill="none" stroke="orange" stroke-dasharray="5,2" d="M971.44,-348.37C1016.17,-347.53 1079.89,-346.33 1125.98,-345.47"/>
<polygon fill="orange" stroke="orange" points="971.38,-344.87 961.45,-348.56 971.51,-351.87 971.38,-344.87"/>
</a>
</g>
<text text-anchor="middle" x="1046" y="-351.37" font-family="Helvetica,sans-Serif" font-size="10.00" fill="grey"> &lt; DocInternalTypePtr &gt;</text>
</g>
<!-- Node16&#45;&gt;Node25 -->
<g id="edge45_Node000025_Node000016" class="edge">
<title>Node16&#45;&gt;Node25</title>
<g id="a_edge45_Node000025_Node000016"><a xlink:title=" ">
<path fill="none" stroke="orange" stroke-dasharray="5,2" d="M938.29,-332.58C952.96,-321.19 973.7,-306.58 994,-297.37 1033.5,-279.45 1080.69,-267.25 1118.22,-259.51"/>
<polygon fill="orange" stroke="orange" points="936.41,-329.6 930.77,-338.57 940.77,-335.07 936.41,-329.6"/>
</a>
</g>
<text text-anchor="middle" x="1046" y="-300.37" font-family="Helvetica,sans-Serif" font-size="10.00" fill="grey"> &lt; DocSect1TypePtr &gt;</text>
</g>
<!-- Node17&#45;&gt;Node1 -->
<g id="edge24_Node000001_Node000017" class="edge">
<title>Node17&#45;&gt;Node1</title>
<g id="a_edge24_Node000001_Node000017"><a xlink:title=" ">
<path fill="none" stroke="#9a32cd" stroke-dasharray="5,2" d="M1701.65,-379.31C1735.62,-390.38 1778.55,-405.14 1816,-420.37 1834.19,-427.77 1854.07,-437.11 1869.97,-444.9"/>
<polygon fill="#9a32cd" stroke="#9a32cd" points="1702.99,-376.07 1692.39,-376.32 1700.83,-382.73 1702.99,-376.07"/>
</a>
</g>
<text text-anchor="middle" x="1772" y="-434.37" font-family="Helvetica,sans-Serif" font-size="10.00" fill="grey"> briefDescription_</text>
<text text-anchor="middle" x="1772" y="-423.37" font-family="Helvetica,sans-Serif" font-size="10.00" fill="grey">detailedDescription_</text>
</g>
<!-- Node18&#45;&gt;Node17 -->
<g id="edge25_Node000017_Node000018" class="edge">
<title>Node18&#45;&gt;Node17</title>
<g id="a_edge25_Node000017_Node000018"><a xlink:title=" ">
<path fill="none" stroke="#9a32cd" stroke-dasharray="5,2" d="M1530.72,-360.37C1543.67,-360.37 1557.01,-360.37 1569.7,-360.37"/>
<polygon fill="#9a32cd" stroke="#9a32cd" points="1530.97,-356.87 1520.97,-360.37 1530.97,-363.87 1530.97,-356.87"/>
</a>
</g>
<text text-anchor="middle" x="1544.5" y="-363.37" font-family="Helvetica,sans-Serif" font-size="10.00" fill="grey"> ptr</text>
</g>
<!-- Node19&#45;&gt;Node18 -->
<g id="edge26_Node000018_Node000019" class="edge">
<title>Node19&#45;&gt;Node18</title>
<g id="a_edge26_Node000018_Node000019"><a xlink:title=" ">
<path fill="none" stroke="#63b8ff" d="M808.53,-561.82C962.2,-568.15 1279.31,-572.6 1364,-507.37 1409.61,-472.24 1435.35,-405.34 1445.02,-375.45"/>
<polygon fill="#63b8ff" stroke="#63b8ff" points="808.96,-558.33 798.82,-561.4 808.66,-565.33 808.96,-558.33"/>
</a>
</g>
</g>
<!-- Node20&#45;&gt;Node18 -->
<g id="edge30_Node000018_Node000020" class="edge">
<title>Node20&#45;&gt;Node18</title>
<g id="a_edge30_Node000018_Node000020"><a xlink:title=" ">
<path fill="none" stroke="#9a32cd" stroke-dasharray="5,2" d="M1266.45,-379.16C1303.24,-375.39 1346.42,-370.95 1381.6,-367.34"/>
<polygon fill="#9a32cd" stroke="#9a32cd" points="1266.35,-375.66 1256.76,-380.16 1267.07,-382.62 1266.35,-375.66"/>
</a>
</g>
<text text-anchor="middle" x="1318.5" y="-381.37" font-family="Helvetica,sans-Serif" font-size="10.00" fill="grey"> title_</text>
</g>
<!-- Node21&#45;&gt;Node20 -->
<g id="edge31_Node000020_Node000021" class="edge">
<title>Node21&#45;&gt;Node20</title>
<g id="a_edge31_Node000020_Node000021"><a xlink:title=" ">
<path fill="none" stroke="#9a32cd" stroke-dasharray="5,2" d="M931.39,-451.36C944.29,-430.2 965.96,-401.3 994,-388.37 1039.81,-367.26 1098.64,-370.95 1138.73,-377.38"/>
<polygon fill="#9a32cd" stroke="#9a32cd" points="928.54,-449.32 926.54,-459.72 934.59,-452.83 928.54,-449.32"/>
</a>
</g>
<text text-anchor="middle" x="1046" y="-391.37" font-family="Helvetica,sans-Serif" font-size="10.00" fill="grey"> ptr</text>
</g>
<!-- Node22&#45;&gt;Node21 -->
<g id="edge32_Node000021_Node000022" class="edge">
<title>Node22&#45;&gt;Node21</title>
<g id="a_edge32_Node000021_Node000022"><a xlink:title=" ">
<path fill="none" stroke="#63b8ff" d="M792.92,-595.13C794.31,-594.22 795.67,-593.3 797,-592.37 840.52,-561.97 882.95,-515.34 903.38,-491.52"/>
<polygon fill="#63b8ff" stroke="#63b8ff" points="791.5,-591.89 784.8,-600.1 795.15,-597.86 791.5,-591.89"/>
</a>
</g>
</g>
<!-- Node23&#45;&gt;Node18 -->
<g id="edge37_Node000018_Node000023" class="edge">
<title>Node23&#45;&gt;Node18</title>
<g id="a_edge37_Node000018_Node000023"><a xlink:title=" ">
<path fill="none" stroke="#9a32cd" stroke-dasharray="5,2" d="M1261.13,-310.2C1293,-316.55 1330.49,-324.61 1364,-333.37 1376.95,-336.76 1390.85,-340.92 1403.6,-344.94"/>
<polygon fill="#9a32cd" stroke="#9a32cd" points="1262.09,-306.82 1251.6,-308.32 1260.73,-313.69 1262.09,-306.82"/>
</a>
</g>
<text text-anchor="middle" x="1318.5" y="-336.37" font-family="Helvetica,sans-Serif" font-size="10.00" fill="grey"> para_</text>
</g>
<!-- Node24&#45;&gt;Node18 -->
<g id="edge40_Node000018_Node000024" class="edge">
<title>Node24&#45;&gt;Node18</title>
<g id="a_edge40_Node000018_Node000024"><a xlink:title=" ">
<path fill="none" stroke="#9a32cd" stroke-dasharray="5,2" d="M1256.56,-346.75C1289.23,-348.06 1328.63,-349.92 1364,-352.37 1369.8,-352.77 1375.82,-353.24 1381.85,-353.74"/>
<polygon fill="#9a32cd" stroke="#9a32cd" points="1256.94,-343.26 1246.82,-346.37 1256.67,-350.26 1256.94,-343.26"/>
</a>
</g>
<text text-anchor="middle" x="1318.5" y="-355.37" font-family="Helvetica,sans-Serif" font-size="10.00" fill="grey"> internal_</text>
</g>
<!-- Node25&#45;&gt;Node18 -->
<g id="edge43_Node000018_Node000025" class="edge">
<title>Node25&#45;&gt;Node18</title>
<g id="a_edge43_Node000018_Node000025"><a xlink:title=" ">
<path fill="none" stroke="#9a32cd" stroke-dasharray="5,2" d="M1264.01,-264.55C1295.89,-272.74 1332.62,-284.22 1364,-299.37 1389.45,-311.66 1415.43,-331.43 1431.96,-345.12"/>
<polygon fill="#9a32cd" stroke="#9a32cd" points="1264.97,-261.18 1254.42,-262.15 1263.27,-267.97 1264.97,-261.18"/>
</a>
</g>
<text text-anchor="middle" x="1318.5" y="-302.37" font-family="Helvetica,sans-Serif" font-size="10.00" fill="grey"> sect1_</text>
</g>
</g>
</svg>
