<?xml version="1.0" encoding="UTF-8" standalone="no"?>
<!DOCTYPE svg PUBLIC "-//W3C//DTD SVG 1.1//EN"
 "http://www.w3.org/Graphics/SVG/1.1/DTD/svg11.dtd">
<!-- Generated by graphviz version 7.0.1 (20221109.1506)
 -->
<!-- Title: Harlinn::Common::Core::Doxygen::CodeLineType Pages: 1 -->
<svg width="1083pt" height="223pt"
 viewBox="0.00 0.00 1083.00 223.00" xmlns="http://www.w3.org/2000/svg" xmlns:xlink="http://www.w3.org/1999/xlink">
<g id="graph0" class="graph" transform="scale(1 1) rotate(0) translate(4 219)">
<title>Harlinn::Common::Core::Doxygen::CodeLineType</title>
<!-- Node1 -->
<g id="Node000001" class="node">
<title>Node1</title>
<g id="a_Node000001"><a xlink:title=" ">
<polygon fill="#999999" stroke="#666666" points="1075,-108 947,-108 947,-78 1075,-78 1075,-108"/>
<text text-anchor="start" x="955" y="-96" font-family="Helvetica,sans-Serif" font-size="10.00">Harlinn::Common::Core</text>
<text text-anchor="middle" x="1011" y="-85" font-family="Helvetica,sans-Serif" font-size="10.00">::Doxygen::CodeLineType</text>
</a>
</g>
</g>
<!-- Node2 -->
<g id="Node000002" class="node">
<title>Node2</title>
<g id="a_Node000002"><a xlink:href="class_harlinn_1_1_common_1_1_core_1_1_doxygen_1_1_internal_1_1_doc_base.html" target="_top" xlink:title=" ">
<polygon fill="white" stroke="#666666" points="884,-190 736,-190 736,-138 884,-138 884,-190"/>
<text text-anchor="start" x="744" y="-178" font-family="Helvetica,sans-Serif" font-size="10.00">Harlinn::Common::Core</text>
<text text-anchor="start" x="744" y="-167" font-family="Helvetica,sans-Serif" font-size="10.00">::Doxygen::Internal::</text>
<text text-anchor="start" x="744" y="-156" font-family="Helvetica,sans-Serif" font-size="10.00">DocBase&lt; Doxygen::DoxType</text>
<text text-anchor="middle" x="810" y="-145" font-family="Helvetica,sans-Serif" font-size="10.00">::CodeLineType &gt;</text>
</a>
</g>
</g>
<!-- Node2&#45;&gt;Node1 -->
<g id="edge1_Node000001_Node000002" class="edge">
<title>Node2&#45;&gt;Node1</title>
<g id="a_edge1_Node000001_Node000002"><a xlink:title=" ">
<path fill="none" stroke="#63b8ff" d="M895.09,-134C919.75,-125.2 945.69,-115.94 966.68,-108.46"/>
<polygon fill="#63b8ff" stroke="#63b8ff" points="893.92,-130.7 885.68,-137.36 896.27,-137.29 893.92,-130.7"/>
</a>
</g>
</g>
<!-- Node3 -->
<g id="Node000003" class="node">
<title>Node3</title>
<g id="a_Node000003"><a xlink:href="class_harlinn_1_1_common_1_1_core_1_1_doxygen_1_1_doc_base_type.html" target="_top" xlink:title=" ">
<polygon fill="white" stroke="#666666" points="347,-215 219,-215 219,-185 347,-185 347,-215"/>
<text text-anchor="start" x="227" y="-203" font-family="Helvetica,sans-Serif" font-size="10.00">Harlinn::Common::Core</text>
<text text-anchor="middle" x="283" y="-192" font-family="Helvetica,sans-Serif" font-size="10.00">::Doxygen::DocBaseType</text>
</a>
</g>
</g>
<!-- Node3&#45;&gt;Node2 -->
<g id="edge2_Node000002_Node000003" class="edge">
<title>Node3&#45;&gt;Node2</title>
<g id="a_edge2_Node000002_Node000003"><a xlink:title=" ">
<path fill="none" stroke="#63b8ff" d="M358.69,-204.3C445.6,-207.91 593.15,-209.74 718,-190 723.84,-189.08 729.84,-187.9 735.84,-186.56"/>
<polygon fill="#63b8ff" stroke="#63b8ff" points="359.02,-200.81 348.87,-203.87 358.71,-207.8 359.02,-200.81"/>
</a>
</g>
</g>
<!-- Node5 -->
<g id="Node000005" class="node">
<title>Node5</title>
<g id="a_Node000005"><a xlink:href="class_harlinn_1_1_common_1_1_core_1_1_doxygen_1_1_internal_1_1_doc_base.html" target="_top" xlink:title=" ">
<polygon fill="white" stroke="#666666" points="599.5,-184.5 481.5,-184.5 481.5,-143.5 599.5,-143.5 599.5,-184.5"/>
<text text-anchor="start" x="489.5" y="-172.5" font-family="Helvetica,sans-Serif" font-size="10.00">Harlinn::Common::Core</text>
<text text-anchor="start" x="489.5" y="-161.5" font-family="Helvetica,sans-Serif" font-size="10.00">::Doxygen::Internal::</text>
<text text-anchor="middle" x="540.5" y="-150.5" font-family="Helvetica,sans-Serif" font-size="10.00">DocBase&lt; doxType &gt;</text>
</a>
</g>
</g>
<!-- Node3&#45;&gt;Node5 -->
<g id="edge5_Node000005_Node000003" class="edge">
<title>Node3&#45;&gt;Node5</title>
<g id="a_edge5_Node000005_Node000003"><a xlink:title=" ">
<path fill="none" stroke="#63b8ff" d="M358.79,-189.46C397.81,-183.96 444.85,-177.34 481.15,-172.22"/>
<polygon fill="#63b8ff" stroke="#63b8ff" points="358.4,-185.98 348.98,-190.84 359.37,-192.91 358.4,-185.98"/>
</a>
</g>
</g>
<!-- Node4 -->
<g id="Node000004" class="node">
<title>Node4</title>
<g id="a_Node000004"><a xlink:title=" ">
<polygon fill="white" stroke="#666666" points="140,-215 0,-215 0,-185 140,-185 140,-215"/>
<text text-anchor="start" x="8" y="-203" font-family="Helvetica,sans-Serif" font-size="10.00">std::enable_shared</text>
<text text-anchor="middle" x="70" y="-192" font-family="Helvetica,sans-Serif" font-size="10.00">_from_this&lt; DocBaseType &gt;</text>
</a>
</g>
</g>
<!-- Node4&#45;&gt;Node3 -->
<g id="edge3_Node000003_Node000004" class="edge">
<title>Node4&#45;&gt;Node3</title>
<g id="a_edge3_Node000003_Node000004"><a xlink:title=" ">
<path fill="none" stroke="#8b1a1a" d="M151.8,-200C173.94,-200 197.63,-200 218.64,-200"/>
<polygon fill="#8b1a1a" stroke="#8b1a1a" points="151.9,-196.5 141.9,-200 151.9,-203.5 151.9,-196.5"/>
</a>
</g>
</g>
<!-- Node5&#45;&gt;Node2 -->
<g id="edge4_Node000002_Node000005" class="edge">
<title>Node5&#45;&gt;Node2</title>
<g id="a_edge4_Node000002_Node000005"><a xlink:title=" ">
<path fill="none" stroke="orange" stroke-dasharray="5,2" d="M610.95,-164C649.34,-164 696.99,-164 735.93,-164"/>
<polygon fill="orange" stroke="orange" points="611.39,-160.5 601.39,-164 611.39,-167.5 611.39,-160.5"/>
</a>
</g>
<text text-anchor="start" x="623" y="-178" font-family="Helvetica,sans-Serif" font-size="10.00" fill="grey"> &lt; Doxygen::DoxType</text>
<text text-anchor="middle" x="670.5" y="-167" font-family="Helvetica,sans-Serif" font-size="10.00" fill="grey">::CodeLineType &gt;</text>
</g>
<!-- Node6 -->
<g id="Node000006" class="node">
<title>Node6</title>
<g id="a_Node000006"><a xlink:href="class_harlinn_1_1_common_1_1_core_1_1_basic_string.html" target="_top" xlink:title=" ">
<polygon fill="white" stroke="#666666" points="872.5,-108 747.5,-108 747.5,-78 872.5,-78 872.5,-108"/>
<text text-anchor="start" x="755.5" y="-96" font-family="Helvetica,sans-Serif" font-size="10.00">Harlinn::Common::Core</text>
<text text-anchor="middle" x="810" y="-85" font-family="Helvetica,sans-Serif" font-size="10.00">::BasicString&lt; wchar_t &gt;</text>
</a>
</g>
</g>
<!-- Node6&#45;&gt;Node1 -->
<g id="edge6_Node000001_Node000006" class="edge">
<title>Node6&#45;&gt;Node1</title>
<g id="a_edge6_Node000001_Node000006"><a xlink:title=" ">
<path fill="none" stroke="#9a32cd" stroke-dasharray="5,2" d="M884.11,-93C904.67,-93 926.86,-93 946.79,-93"/>
<polygon fill="#9a32cd" stroke="#9a32cd" points="884.39,-89.5 874.39,-93 884.39,-96.5 884.39,-89.5"/>
</a>
</g>
<text text-anchor="middle" x="915.5" y="-96" font-family="Helvetica,sans-Serif" font-size="10.00" fill="grey"> refId_</text>
</g>
<!-- Node7 -->
<g id="Node000007" class="node">
<title>Node7</title>
<g id="a_Node000007"><a xlink:href="struct_harlinn_1_1_common_1_1_core_1_1_internal_1_1_data.html" target="_top" xlink:title=" ">
<polygon fill="white" stroke="#666666" points="342,-106 224,-106 224,-76 342,-76 342,-106"/>
<text text-anchor="start" x="232" y="-94" font-family="Helvetica,sans-Serif" font-size="10.00">Harlinn::Common::Core</text>
<text text-anchor="middle" x="283" y="-83" font-family="Helvetica,sans-Serif" font-size="10.00">::Internal::Data&lt; T &gt;</text>
</a>
</g>
</g>
<!-- Node7&#45;&gt;Node6 -->
<g id="edge7_Node000006_Node000007" class="edge">
<title>Node7&#45;&gt;Node6</title>
<g id="a_edge7_Node000006_Node000007"><a xlink:title=" ">
<path fill="none" stroke="#9a32cd" stroke-dasharray="5,2" d="M353.8,-95.57C357.59,-95.73 361.34,-95.88 365,-96 521.81,-101.14 561.15,-100.45 718,-97 727.49,-96.79 737.52,-96.46 747.33,-96.08"/>
<polygon fill="#9a32cd" stroke="#9a32cd" points="354.05,-92.07 343.89,-95.08 353.71,-99.07 354.05,-92.07"/>
</a>
</g>
<text text-anchor="middle" x="540.5" y="-102" font-family="Helvetica,sans-Serif" font-size="10.00" fill="grey"> data_</text>
</g>
<!-- Node9 -->
<g id="Node000009" class="node">
<title>Node9</title>
<g id="a_Node000009"><a xlink:href="class_harlinn_1_1_common_1_1_core_1_1_basic_string.html" target="_top" xlink:title="This is a reference counted string class.">
<polygon fill="white" stroke="#666666" points="599.5,-78 481.5,-78 481.5,-48 599.5,-48 599.5,-78"/>
<text text-anchor="start" x="489.5" y="-66" font-family="Helvetica,sans-Serif" font-size="10.00">Harlinn::Common::Core</text>
<text text-anchor="middle" x="540.5" y="-55" font-family="Helvetica,sans-Serif" font-size="10.00">::BasicString&lt; T &gt;</text>
</a>
</g>
</g>
<!-- Node7&#45;&gt;Node9 -->
<g id="edge10_Node000009_Node000007" class="edge">
<title>Node7&#45;&gt;Node9</title>
<g id="a_edge10_Node000009_Node000007"><a xlink:title=" ">
<path fill="none" stroke="#9a32cd" stroke-dasharray="5,2" d="M353.55,-83.38C393.5,-79 443.09,-73.57 481.01,-69.41"/>
<polygon fill="#9a32cd" stroke="#9a32cd" points="353.36,-79.88 343.8,-84.45 354.12,-86.84 353.36,-79.88"/>
</a>
</g>
<text text-anchor="middle" x="411.5" y="-84" font-family="Helvetica,sans-Serif" font-size="10.00" fill="grey"> data_</text>
</g>
<!-- Node8 -->
<g id="Node000008" class="node">
<title>Node8</title>
<g id="a_Node000008"><a xlink:title=" ">
<polygon fill="white" stroke="#666666" points="84.5,-57.5 55.5,-57.5 55.5,-38.5 84.5,-38.5 84.5,-57.5"/>
<text text-anchor="middle" x="70" y="-45.5" font-family="Helvetica,sans-Serif" font-size="10.00">T</text>
</a>
</g>
</g>
<!-- Node8&#45;&gt;Node7 -->
<g id="edge8_Node000007_Node000008" class="edge">
<title>Node8&#45;&gt;Node7</title>
<g id="a_edge8_Node000007_Node000008"><a xlink:title=" ">
<path fill="none" stroke="#9a32cd" stroke-dasharray="5,2" d="M95.98,-53.09C127.22,-59.46 181.72,-70.56 223.68,-79.11"/>
<polygon fill="#9a32cd" stroke="#9a32cd" points="96.82,-49.69 86.33,-51.12 95.43,-56.55 96.82,-49.69"/>
</a>
</g>
<text text-anchor="middle" x="179.5" y="-76" font-family="Helvetica,sans-Serif" font-size="10.00" fill="grey"> buffer_</text>
</g>
<!-- Node11 -->
<g id="Node000011" class="node">
<title>Node11</title>
<g id="a_Node000011"><a xlink:title=" ">
<polygon fill="white" stroke="#666666" points="335.5,-57.5 230.5,-57.5 230.5,-38.5 335.5,-38.5 335.5,-57.5"/>
<text text-anchor="middle" x="283" y="-45.5" font-family="Helvetica,sans-Serif" font-size="10.00">std::shared_ptr&lt; T &gt;</text>
</a>
</g>
</g>
<!-- Node8&#45;&gt;Node11 -->
<g id="edge13_Node000011_Node000008" class="edge">
<title>Node8&#45;&gt;Node11</title>
<g id="a_edge13_Node000011_Node000008"><a xlink:title=" ">
<path fill="none" stroke="#9a32cd" stroke-dasharray="5,2" d="M96.12,-48C129.03,-48 187.57,-48 230.18,-48"/>
<polygon fill="#9a32cd" stroke="#9a32cd" points="96.36,-44.5 86.36,-48 96.36,-51.5 96.36,-44.5"/>
</a>
</g>
<text text-anchor="middle" x="179.5" y="-51" font-family="Helvetica,sans-Serif" font-size="10.00" fill="grey"> ptr</text>
</g>
<!-- Node12 -->
<g id="Node000012" class="node">
<title>Node12</title>
<g id="a_Node000012"><a xlink:title=" ">
<polygon fill="white" stroke="#666666" points="325.5,-20.5 240.5,-20.5 240.5,-1.5 325.5,-1.5 325.5,-20.5"/>
<text text-anchor="middle" x="283" y="-8.5" font-family="Helvetica,sans-Serif" font-size="10.00">std::vector&lt; T &gt;</text>
</a>
</g>
</g>
<!-- Node8&#45;&gt;Node12 -->
<g id="edge15_Node000012_Node000008" class="edge">
<title>Node8&#45;&gt;Node12</title>
<g id="a_edge15_Node000012_Node000008"><a xlink:title=" ">
<path fill="none" stroke="#9a32cd" stroke-dasharray="5,2" d="M96.1,-43.6C131.72,-37.35 197.35,-25.84 240.33,-18.31"/>
<polygon fill="#9a32cd" stroke="#9a32cd" points="95.58,-40.14 86.34,-45.31 96.79,-47.03 95.58,-40.14"/>
</a>
</g>
<text text-anchor="middle" x="179.5" y="-35" font-family="Helvetica,sans-Serif" font-size="10.00" fill="grey"> elements</text>
</g>
<!-- Node9&#45;&gt;Node6 -->
<g id="edge9_Node000006_Node000009" class="edge">
<title>Node9&#45;&gt;Node6</title>
<g id="a_edge9_Node000006_Node000009"><a xlink:title=" ">
<path fill="none" stroke="orange" stroke-dasharray="5,2" d="M611.15,-70.81C653.23,-75.53 706.41,-81.49 747.03,-86.05"/>
<polygon fill="orange" stroke="orange" points="611.71,-67.35 601.38,-69.72 610.93,-74.31 611.71,-67.35"/>
</a>
</g>
<text text-anchor="middle" x="670.5" y="-85" font-family="Helvetica,sans-Serif" font-size="10.00" fill="grey"> &lt; wchar_t &gt;</text>
</g>
<!-- Node10 -->
<g id="Node000010" class="node">
<title>Node10</title>
<g id="a_Node000010"><a xlink:title=" ">
<polygon fill="white" stroke="#666666" points="605,-30 476,-30 476,0 605,0 605,-30"/>
<text text-anchor="start" x="484" y="-18" font-family="Helvetica,sans-Serif" font-size="10.00">std::vector&lt; HighlightType</text>
<text text-anchor="middle" x="540.5" y="-7" font-family="Helvetica,sans-Serif" font-size="10.00">Ptr &gt;</text>
</a>
</g>
</g>
<!-- Node10&#45;&gt;Node1 -->
<g id="edge11_Node000001_Node000010" class="edge">
<title>Node10&#45;&gt;Node1</title>
<g id="a_edge11_Node000001_Node000010"><a xlink:title=" ">
<path fill="none" stroke="#9a32cd" stroke-dasharray="5,2" d="M616.69,-21.25C686.42,-27.81 792.86,-39.72 884,-58 909.6,-63.13 937.63,-70.72 960.73,-77.52"/>
<polygon fill="#9a32cd" stroke="#9a32cd" points="617.18,-17.79 606.9,-20.35 616.53,-24.76 617.18,-17.79"/>
</a>
</g>
<text text-anchor="middle" x="810" y="-61" font-family="Helvetica,sans-Serif" font-size="10.00" fill="grey"> highlight_</text>
</g>
<!-- Node11&#45;&gt;Node10 -->
<g id="edge12_Node000010_Node000011" class="edge">
<title>Node11&#45;&gt;Node10</title>
<g id="a_edge12_Node000010_Node000011"><a xlink:title=" ">
<path fill="none" stroke="#9a32cd" stroke-dasharray="5,2" d="M346.96,-39.87C386.11,-34.81 436.31,-28.33 475.64,-23.25"/>
<polygon fill="#9a32cd" stroke="#9a32cd" points="346.67,-36.38 337.21,-41.13 347.57,-43.32 346.67,-36.38"/>
</a>
</g>
<text text-anchor="middle" x="411.5" y="-41" font-family="Helvetica,sans-Serif" font-size="10.00" fill="grey"> elements</text>
</g>
<!-- Node12&#45;&gt;Node10 -->
<g id="edge14_Node000010_Node000012" class="edge">
<title>Node12&#45;&gt;Node10</title>
<g id="a_edge14_Node000010_Node000012"><a xlink:title=" ">
<path fill="none" stroke="orange" stroke-dasharray="5,2" d="M337.35,-11.84C377.59,-12.47 432.94,-13.33 475.55,-14"/>
<polygon fill="orange" stroke="orange" points="337.47,-8.34 327.42,-11.68 337.36,-15.34 337.47,-8.34"/>
</a>
</g>
<text text-anchor="middle" x="411.5" y="-17" font-family="Helvetica,sans-Serif" font-size="10.00" fill="grey"> &lt; HighlightTypePtr &gt;</text>
</g>
</g>
</svg>
