<?xml version="1.0" encoding="UTF-8" standalone="no"?>
<!DOCTYPE svg PUBLIC "-//W3C//DTD SVG 1.1//EN"
 "http://www.w3.org/Graphics/SVG/1.1/DTD/svg11.dtd">
<!-- Generated by graphviz version 7.0.1 (20221109.1506)
 -->
<!-- Title: Harlinn::Common::Core::Com::EnumConnectionsImpl&lt; DerivedT, ObjectBaseT, ConnectionInterfaceT, InterfaceT &gt; Pages: 1 -->
<svg width="388pt" height="86pt"
 viewBox="0.00 0.00 388.00 86.00" xmlns="http://www.w3.org/2000/svg" xmlns:xlink="http://www.w3.org/1999/xlink">
<g id="graph0" class="graph" transform="scale(1 1) rotate(0) translate(4 82)">
<title>Harlinn::Common::Core::Com::EnumConnectionsImpl&lt; DerivedT, ObjectBaseT, ConnectionInterfaceT, InterfaceT &gt;</title>
<!-- Node1 -->
<g id="Node000001" class="node">
<title>Node1</title>
<g id="a_Node000001"><a xlink:title=" ">
<polygon fill="#999999" stroke="#666666" points="380,-70.5 213,-70.5 213,-18.5 380,-18.5 380,-70.5"/>
<text text-anchor="start" x="221" y="-58.5" font-family="Helvetica,sans-Serif" font-size="10.00">Harlinn::Common::Core</text>
<text text-anchor="start" x="221" y="-47.5" font-family="Helvetica,sans-Serif" font-size="10.00">::Com::EnumConnectionsImpl</text>
<text text-anchor="start" x="221" y="-36.5" font-family="Helvetica,sans-Serif" font-size="10.00">&lt; DerivedT, ObjectBaseT,</text>
<text text-anchor="middle" x="296.5" y="-25.5" font-family="Helvetica,sans-Serif" font-size="10.00"> ConnectionInterfaceT, InterfaceT &gt;</text>
</a>
</g>
</g>
<!-- Node2 -->
<g id="Node000002" class="node">
<title>Node2</title>
<g id="a_Node000002"><a xlink:title=" ">
<polygon fill="white" stroke="#666666" points="125,-78 52,-78 52,-59 125,-59 125,-78"/>
<text text-anchor="middle" x="88.5" y="-66" font-family="Helvetica,sans-Serif" font-size="10.00">ObjectBaseT</text>
</a>
</g>
</g>
<!-- Node2&#45;&gt;Node1 -->
<g id="edge1_Node000001_Node000002" class="edge">
<title>Node2&#45;&gt;Node1</title>
<g id="a_edge1_Node000001_Node000002"><a xlink:title=" ">
<path fill="none" stroke="#63b8ff" d="M136.65,-63.01C159.15,-60.39 186.75,-57.17 212.59,-54.16"/>
<polygon fill="#63b8ff" stroke="#63b8ff" points="136.41,-59.51 126.89,-64.14 137.22,-66.46 136.41,-59.51"/>
</a>
</g>
</g>
<!-- Node3 -->
<g id="Node000003" class="node">
<title>Node3</title>
<g id="a_Node000003"><a xlink:title=" ">
<polygon fill="white" stroke="#666666" points="177,-41 0,-41 0,0 177,0 177,-41"/>
<text text-anchor="start" x="8" y="-29" font-family="Helvetica,sans-Serif" font-size="10.00">IUnknownImpl&lt; EnumConnections</text>
<text text-anchor="start" x="8" y="-18" font-family="Helvetica,sans-Serif" font-size="10.00">Impl&lt; ConnectionPointT, ObjectBase</text>
<text text-anchor="middle" x="88.5" y="-7" font-family="Helvetica,sans-Serif" font-size="10.00">T &gt;, IEnumConnections &gt;</text>
</a>
</g>
</g>
<!-- Node3&#45;&gt;Node1 -->
<g id="edge2_Node000001_Node000003" class="edge">
<title>Node3&#45;&gt;Node1</title>
<g id="a_edge2_Node000001_Node000003"><a xlink:title=" ">
<path fill="none" stroke="#63b8ff" d="M188.77,-32.06C196.79,-33 204.85,-33.94 212.74,-34.86"/>
<polygon fill="#63b8ff" stroke="#63b8ff" points="189.3,-28.6 178.96,-30.92 188.49,-35.56 189.3,-28.6"/>
</a>
</g>
</g>
</g>
</svg>
