<?xml version="1.0" encoding="UTF-8" standalone="no"?>
<!DOCTYPE svg PUBLIC "-//W3C//DTD SVG 1.1//EN"
 "http://www.w3.org/Graphics/SVG/1.1/DTD/svg11.dtd">
<!-- Generated by graphviz version 7.0.1 (20221109.1506)
 -->
<!-- Title: Harlinn::Windows::MenuItem Pages: 1 -->
<svg width="1543pt" height="212pt"
 viewBox="0.00 0.00 1543.00 211.50" xmlns="http://www.w3.org/2000/svg" xmlns:xlink="http://www.w3.org/1999/xlink">
<g id="graph0" class="graph" transform="scale(1 1) rotate(0) translate(4 207.5)">
<title>Harlinn::Windows::MenuItem</title>
<!-- Node1 -->
<g id="Node000001" class="node">
<title>Node1</title>
<g id="a_Node000001"><a xlink:title=" ">
<polygon fill="#999999" stroke="#666666" points="249,-114 108,-114 108,-95 249,-95 249,-114"/>
<text text-anchor="middle" x="178.5" y="-102" font-family="Helvetica,sans-Serif" font-size="10.00">Harlinn::Windows::MenuItem</text>
</a>
</g>
</g>
<!-- Node12 -->
<g id="Node000012" class="node">
<title>Node12</title>
<g id="a_Node000012"><a xlink:title=" ">
<polygon fill="white" stroke="#666666" points="515.5,-66 373.5,-66 373.5,-47 515.5,-47 515.5,-66"/>
<text text-anchor="middle" x="444.5" y="-54" font-family="Helvetica,sans-Serif" font-size="10.00">std::unique_ptr&lt; MenuItem &gt;</text>
</a>
</g>
</g>
<!-- Node1&#45;&gt;Node12 -->
<g id="edge14_Node000012_Node000001" class="edge">
<title>Node1&#45;&gt;Node12</title>
<g id="a_edge14_Node000012_Node000001"><a xlink:title=" ">
<path fill="none" stroke="#9a32cd" stroke-dasharray="5,2" d="M245.43,-92.51C289.65,-84.47 347.21,-74.01 388.87,-66.43"/>
<polygon fill="#9a32cd" stroke="#9a32cd" points="244.9,-89.05 235.69,-94.28 246.15,-95.94 244.9,-89.05"/>
</a>
</g>
<text text-anchor="middle" x="309.5" y="-90.5" font-family="Helvetica,sans-Serif" font-size="10.00" fill="grey"> ptr</text>
</g>
<!-- Node2 -->
<g id="Node000002" class="node">
<title>Node2</title>
<g id="a_Node000002"><a xlink:href="class_harlinn_1_1_windows_1_1_menu.html" target="_top" xlink:title=" ">
<polygon fill="white" stroke="#666666" points="1304,-122 1182,-122 1182,-103 1304,-103 1304,-122"/>
<text text-anchor="middle" x="1243" y="-110" font-family="Helvetica,sans-Serif" font-size="10.00">Harlinn::Windows::Menu</text>
</a>
</g>
</g>
<!-- Node2&#45;&gt;Node1 -->
<g id="edge1_Node000001_Node000002" class="edge">
<title>Node2&#45;&gt;Node1</title>
<g id="a_edge1_Node000001_Node000002"><a xlink:title=" ">
<path fill="none" stroke="#9a32cd" stroke-dasharray="5,2" d="M1187.41,-124.73C1145.63,-133.03 1086.47,-142.5 1034,-142.5 443.5,-142.5 443.5,-142.5 443.5,-142.5 364.78,-142.5 274.19,-125.74 222.21,-114.48"/>
<polygon fill="#9a32cd" stroke="#9a32cd" points="1187.85,-128.21 1196.96,-122.79 1186.46,-121.36 1187.85,-128.21"/>
</a>
</g>
<text text-anchor="middle" x="731.5" y="-145.5" font-family="Helvetica,sans-Serif" font-size="10.00" fill="grey"> parentMenu_</text>
</g>
<!-- Node3 -->
<g id="Node000003" class="node">
<title>Node3</title>
<g id="a_Node000003"><a xlink:title=" ">
<polygon fill="white" stroke="#666666" points="1535,-167 1392,-167 1392,-126 1535,-126 1535,-167"/>
<text text-anchor="start" x="1400" y="-155" font-family="Helvetica,sans-Serif" font-size="10.00">std::unordered_map</text>
<text text-anchor="start" x="1400" y="-144" font-family="Helvetica,sans-Serif" font-size="10.00">&lt; HMENU, Harlinn::Windows</text>
<text text-anchor="middle" x="1463.5" y="-133" font-family="Helvetica,sans-Serif" font-size="10.00">::Menu * &gt;</text>
</a>
</g>
</g>
<!-- Node2&#45;&gt;Node3 -->
<g id="edge3_Node000003_Node000002" class="edge">
<title>Node2&#45;&gt;Node3</title>
<g id="a_edge3_Node000003_Node000002"><a xlink:title=" ">
<path fill="none" stroke="#9a32cd" stroke-dasharray="5,2" d="M1315.63,-123.65C1340.01,-127.44 1367.24,-131.68 1391.57,-135.46"/>
<polygon fill="#9a32cd" stroke="#9a32cd" points="1316.2,-120.19 1305.78,-122.11 1315.12,-127.11 1316.2,-120.19"/>
</a>
</g>
<text text-anchor="middle" x="1348" y="-135.5" font-family="Helvetica,sans-Serif" font-size="10.00" fill="grey"> elements</text>
</g>
<!-- Node10 -->
<g id="Node000010" class="node">
<title>Node10</title>
<g id="a_Node000010"><a xlink:href="class_harlinn_1_1_windows_1_1_menu_items.html" target="_top" xlink:title=" ">
<polygon fill="white" stroke="#666666" points="1106,-54 960,-54 960,-35 1106,-35 1106,-54"/>
<text text-anchor="middle" x="1033" y="-42" font-family="Helvetica,sans-Serif" font-size="10.00">Harlinn::Windows::MenuItems</text>
</a>
</g>
</g>
<!-- Node2&#45;&gt;Node10 -->
<g id="edge11_Node000010_Node000002" class="edge">
<title>Node2&#45;&gt;Node10</title>
<g id="a_edge11_Node000010_Node000002"><a xlink:title=" ">
<path fill="none" stroke="#9a32cd" stroke-dasharray="5,2" d="M1200.94,-99.08C1160.69,-85.92 1100.29,-66.17 1064.24,-54.39"/>
<polygon fill="#9a32cd" stroke="#9a32cd" points="1199.69,-102.35 1210.28,-102.13 1201.86,-95.7 1199.69,-102.35"/>
</a>
</g>
<text text-anchor="middle" x="1145.5" y="-89.5" font-family="Helvetica,sans-Serif" font-size="10.00" fill="grey"> owner_</text>
</g>
<!-- Node3&#45;&gt;Node2 -->
<g id="edge2_Node000002_Node000003" class="edge">
<title>Node3&#45;&gt;Node2</title>
<g id="a_edge2_Node000002_Node000003"><a xlink:title=" ">
<path fill="none" stroke="#9a32cd" stroke-dasharray="5,2" d="M1404.84,-121.73C1394.73,-118.34 1384.18,-115.38 1374,-113.5 1351.47,-109.35 1326.37,-108.33 1304.28,-108.61"/>
<polygon fill="#9a32cd" stroke="#9a32cd" points="1403.58,-125 1414.17,-125.05 1405.92,-118.4 1403.58,-125"/>
</a>
</g>
<text text-anchor="middle" x="1348" y="-116.5" font-family="Helvetica,sans-Serif" font-size="10.00" fill="grey"> menuMap_</text>
</g>
<!-- Node4 -->
<g id="Node000004" class="node">
<title>Node4</title>
<g id="a_Node000004"><a xlink:title=" ">
<polygon fill="white" stroke="#666666" points="230,-179.5 127,-179.5 127,-149.5 230,-149.5 230,-179.5"/>
<text text-anchor="start" x="135" y="-167.5" font-family="Helvetica,sans-Serif" font-size="10.00">std::unordered_map</text>
<text text-anchor="middle" x="178.5" y="-156.5" font-family="Helvetica,sans-Serif" font-size="10.00">&lt; K, T &gt;</text>
</a>
</g>
</g>
<!-- Node4&#45;&gt;Node3 -->
<g id="edge4_Node000003_Node000004" class="edge">
<title>Node4&#45;&gt;Node3</title>
<g id="a_edge4_Node000003_Node000004"><a xlink:title=" ">
<path fill="none" stroke="orange" stroke-dasharray="5,2" d="M241.38,-170.74C294.84,-175.59 374.18,-181.5 443.5,-181.5 443.5,-181.5 443.5,-181.5 1244,-181.5 1293.75,-181.5 1349.08,-172.54 1391.61,-163.69"/>
<polygon fill="orange" stroke="orange" points="241.84,-167.27 231.56,-169.83 241.19,-174.24 241.84,-167.27"/>
</a>
</g>
<text text-anchor="start" x="809" y="-195.5" font-family="Helvetica,sans-Serif" font-size="10.00" fill="grey"> &lt; HMENU, Harlinn::Windows</text>
<text text-anchor="middle" x="874" y="-184.5" font-family="Helvetica,sans-Serif" font-size="10.00" fill="grey">::Menu * &gt;</text>
</g>
<!-- Node5 -->
<g id="Node000005" class="node">
<title>Node5</title>
<g id="a_Node000005"><a xlink:title=" ">
<polygon fill="white" stroke="#666666" points="29,-174 0,-174 0,-155 29,-155 29,-174"/>
<text text-anchor="middle" x="14.5" y="-162" font-family="Helvetica,sans-Serif" font-size="10.00">K</text>
</a>
</g>
</g>
<!-- Node5&#45;&gt;Node4 -->
<g id="edge5_Node000004_Node000005" class="edge">
<title>Node5&#45;&gt;Node4</title>
<g id="a_edge5_Node000004_Node000005"><a xlink:title=" ">
<path fill="none" stroke="#9a32cd" stroke-dasharray="5,2" d="M40.73,-164.5C63.61,-164.5 98.04,-164.5 126.63,-164.5"/>
<polygon fill="#9a32cd" stroke="#9a32cd" points="40.83,-161 30.83,-164.5 40.83,-168 40.83,-161"/>
</a>
</g>
<text text-anchor="middle" x="68.5" y="-167.5" font-family="Helvetica,sans-Serif" font-size="10.00" fill="grey"> keys</text>
</g>
<!-- Node6 -->
<g id="Node000006" class="node">
<title>Node6</title>
<g id="a_Node000006"><a xlink:title=" ">
<polygon fill="white" stroke="#666666" points="29,-66 0,-66 0,-47 29,-47 29,-66"/>
<text text-anchor="middle" x="14.5" y="-54" font-family="Helvetica,sans-Serif" font-size="10.00">T</text>
</a>
</g>
</g>
<!-- Node6&#45;&gt;Node4 -->
<g id="edge6_Node000004_Node000006" class="edge">
<title>Node6&#45;&gt;Node4</title>
<g id="a_edge6_Node000004_Node000006"><a xlink:title=" ">
<path fill="none" stroke="#9a32cd" stroke-dasharray="5,2" d="M37.45,-73.29C55.94,-87.22 83.25,-107.29 108,-123.5 121.59,-132.4 137.14,-141.66 150.07,-149.12"/>
<polygon fill="#9a32cd" stroke="#9a32cd" points="39.69,-70.6 29.61,-67.35 35.46,-76.18 39.69,-70.6"/>
</a>
</g>
<text text-anchor="middle" x="68.5" y="-113.5" font-family="Helvetica,sans-Serif" font-size="10.00" fill="grey"> elements</text>
</g>
<!-- Node13 -->
<g id="Node000013" class="node">
<title>Node13</title>
<g id="a_Node000013"><a xlink:title=" ">
<polygon fill="white" stroke="#666666" points="230.5,-66 126.5,-66 126.5,-47 230.5,-47 230.5,-66"/>
<text text-anchor="middle" x="178.5" y="-54" font-family="Helvetica,sans-Serif" font-size="10.00">std::unique_ptr&lt; T &gt;</text>
</a>
</g>
</g>
<!-- Node6&#45;&gt;Node13 -->
<g id="edge16_Node000013_Node000006" class="edge">
<title>Node6&#45;&gt;Node13</title>
<g id="a_edge16_Node000013_Node000006"><a xlink:title=" ">
<path fill="none" stroke="#9a32cd" stroke-dasharray="5,2" d="M40.68,-56.5C63.47,-56.5 97.73,-56.5 126.26,-56.5"/>
<polygon fill="#9a32cd" stroke="#9a32cd" points="40.83,-53 30.83,-56.5 40.83,-60 40.83,-53"/>
</a>
</g>
<text text-anchor="middle" x="68.5" y="-59.5" font-family="Helvetica,sans-Serif" font-size="10.00" fill="grey"> ptr</text>
</g>
<!-- Node14 -->
<g id="Node000014" class="node">
<title>Node14</title>
<g id="a_Node000014"><a xlink:title=" ">
<polygon fill="white" stroke="#666666" points="352,-19 267,-19 267,0 352,0 352,-19"/>
<text text-anchor="middle" x="309.5" y="-7" font-family="Helvetica,sans-Serif" font-size="10.00">std::vector&lt; T &gt;</text>
</a>
</g>
</g>
<!-- Node6&#45;&gt;Node14 -->
<g id="edge18_Node000014_Node000006" class="edge">
<title>Node6&#45;&gt;Node14</title>
<g id="a_edge18_Node000014_Node000006"><a xlink:title=" ">
<path fill="none" stroke="#9a32cd" stroke-dasharray="5,2" d="M39.57,-44.09C42.04,-43.1 44.54,-42.21 47,-41.5 122.54,-19.53 214.62,-12.63 266.91,-10.48"/>
<polygon fill="#9a32cd" stroke="#9a32cd" points="38.27,-40.83 30.61,-48.15 41.16,-47.21 38.27,-40.83"/>
</a>
</g>
<text text-anchor="middle" x="68.5" y="-44.5" font-family="Helvetica,sans-Serif" font-size="10.00" fill="grey"> elements</text>
</g>
<!-- Node7 -->
<g id="Node000007" class="node">
<title>Node7</title>
<g id="a_Node000007"><a xlink:href="class_harlinn_1_1_windows_1_1_menu_handle.html" target="_top" xlink:title=" ">
<polygon fill="white" stroke="#666666" points="1109,-105 957,-105 957,-86 1109,-86 1109,-105"/>
<text text-anchor="middle" x="1033" y="-93" font-family="Helvetica,sans-Serif" font-size="10.00">Harlinn::Windows::MenuHandle</text>
</a>
</g>
</g>
<!-- Node7&#45;&gt;Node2 -->
<g id="edge7_Node000002_Node000007" class="edge">
<title>Node7&#45;&gt;Node2</title>
<g id="a_edge7_Node000002_Node000007"><a xlink:title=" ">
<path fill="none" stroke="#9a32cd" stroke-dasharray="5,2" d="M1120.64,-102.58C1141.11,-104.25 1162.5,-106 1181.52,-107.56"/>
<polygon fill="#9a32cd" stroke="#9a32cd" points="1121.15,-99.11 1110.9,-101.78 1120.58,-106.09 1121.15,-99.11"/>
</a>
</g>
<text text-anchor="middle" x="1145.5" y="-108.5" font-family="Helvetica,sans-Serif" font-size="10.00" fill="grey"> handle_</text>
</g>
<!-- Node8 -->
<g id="Node000008" class="node">
<title>Node8</title>
<g id="a_Node000008"><a xlink:href="class_harlinn_1_1_common_1_1_core_1_1_handle.html" target="_top" xlink:title=" ">
<polygon fill="white" stroke="#666666" points="791,-106 672,-106 672,-65 791,-65 791,-106"/>
<text text-anchor="start" x="680" y="-94" font-family="Helvetica,sans-Serif" font-size="10.00">Harlinn::Common::Core</text>
<text text-anchor="start" x="680" y="-83" font-family="Helvetica,sans-Serif" font-size="10.00">::Handle&lt; MenuHandle,</text>
<text text-anchor="middle" x="731.5" y="-72" font-family="Helvetica,sans-Serif" font-size="10.00"> HMENU &gt;</text>
</a>
</g>
</g>
<!-- Node8&#45;&gt;Node7 -->
<g id="edge8_Node000007_Node000008" class="edge">
<title>Node8&#45;&gt;Node7</title>
<g id="a_edge8_Node000007_Node000008"><a xlink:title=" ">
<path fill="none" stroke="#63b8ff" d="M802.73,-87.85C848.92,-89.39 909.32,-91.4 956.53,-92.98"/>
<polygon fill="#63b8ff" stroke="#63b8ff" points="802.94,-84.35 792.83,-87.51 802.7,-91.35 802.94,-84.35"/>
</a>
</g>
</g>
<!-- Node9 -->
<g id="Node000009" class="node">
<title>Node9</title>
<g id="a_Node000009"><a xlink:href="class_harlinn_1_1_common_1_1_core_1_1_handle.html" target="_top" xlink:title=" ">
<polygon fill="white" stroke="#666666" points="519,-114.5 370,-114.5 370,-84.5 519,-84.5 519,-114.5"/>
<text text-anchor="start" x="378" y="-102.5" font-family="Helvetica,sans-Serif" font-size="10.00">Harlinn::Common::Core</text>
<text text-anchor="middle" x="444.5" y="-91.5" font-family="Helvetica,sans-Serif" font-size="10.00">::Handle&lt; DerivedT, HandleT &gt;</text>
</a>
</g>
</g>
<!-- Node9&#45;&gt;Node8 -->
<g id="edge9_Node000008_Node000009" class="edge">
<title>Node9&#45;&gt;Node8</title>
<g id="a_edge9_Node000008_Node000009"><a xlink:title=" ">
<path fill="none" stroke="orange" stroke-dasharray="5,2" d="M530.63,-95.32C576.18,-93.08 631.12,-90.38 671.86,-88.38"/>
<polygon fill="orange" stroke="orange" points="530.59,-91.82 520.78,-95.8 530.94,-98.81 530.59,-91.82"/>
</a>
</g>
<text text-anchor="middle" x="595.5" y="-97.5" font-family="Helvetica,sans-Serif" font-size="10.00" fill="grey"> &lt; MenuHandle, HMENU &gt;</text>
</g>
<!-- Node10&#45;&gt;Node2 -->
<g id="edge10_Node000002_Node000010" class="edge">
<title>Node10&#45;&gt;Node2</title>
<g id="a_edge10_Node000002_Node000010"><a xlink:title=" ">
<path fill="none" stroke="#9a32cd" stroke-dasharray="5,2" d="M1117.83,-36.59C1133.53,-37.49 1149.54,-40.08 1164,-45.5 1195.09,-57.16 1222.18,-87.24 1234.67,-102.83"/>
<polygon fill="#9a32cd" stroke="#9a32cd" points="1118.1,-33.1 1107.99,-36.28 1117.87,-40.1 1118.1,-33.1"/>
</a>
</g>
<text text-anchor="middle" x="1145.5" y="-48.5" font-family="Helvetica,sans-Serif" font-size="10.00" fill="grey"> items_</text>
</g>
<!-- Node11 -->
<g id="Node000011" class="node">
<title>Node11</title>
<g id="a_Node000011"><a xlink:title=" ">
<polygon fill="white" stroke="#666666" points="791,-46.5 672,-46.5 672,-16.5 791,-16.5 791,-46.5"/>
<text text-anchor="start" x="680" y="-34.5" font-family="Helvetica,sans-Serif" font-size="10.00">std::vector&lt; std::unique</text>
<text text-anchor="middle" x="731.5" y="-23.5" font-family="Helvetica,sans-Serif" font-size="10.00">_ptr&lt; MenuItem &gt; &gt;</text>
</a>
</g>
</g>
<!-- Node11&#45;&gt;Node10 -->
<g id="edge12_Node000010_Node000011" class="edge">
<title>Node11&#45;&gt;Node10</title>
<g id="a_edge12_Node000010_Node000011"><a xlink:title=" ">
<path fill="none" stroke="#9a32cd" stroke-dasharray="5,2" d="M802.67,-34.55C849.85,-36.59 911.9,-39.29 959.56,-41.36"/>
<polygon fill="#9a32cd" stroke="#9a32cd" points="802.97,-31.06 792.83,-34.12 802.67,-38.05 802.97,-31.06"/>
</a>
</g>
<text text-anchor="middle" x="874" y="-43.5" font-family="Helvetica,sans-Serif" font-size="10.00" fill="grey"> items_</text>
</g>
<!-- Node12&#45;&gt;Node11 -->
<g id="edge13_Node000011_Node000012" class="edge">
<title>Node12&#45;&gt;Node11</title>
<g id="a_edge13_Node000011_Node000012"><a xlink:title=" ">
<path fill="none" stroke="#9a32cd" stroke-dasharray="5,2" d="M527.15,-49.34C573.37,-45.28 630.11,-40.31 671.9,-36.64"/>
<polygon fill="#9a32cd" stroke="#9a32cd" points="527.11,-45.83 517.46,-50.19 527.72,-52.8 527.11,-45.83"/>
</a>
</g>
<text text-anchor="middle" x="595.5" y="-51.5" font-family="Helvetica,sans-Serif" font-size="10.00" fill="grey"> elements</text>
</g>
<!-- Node13&#45;&gt;Node12 -->
<g id="edge15_Node000012_Node000013" class="edge">
<title>Node13&#45;&gt;Node12</title>
<g id="a_edge15_Node000012_Node000013"><a xlink:title=" ">
<path fill="none" stroke="orange" stroke-dasharray="5,2" d="M242.05,-56.5C281.53,-56.5 332.61,-56.5 373.46,-56.5"/>
<polygon fill="orange" stroke="orange" points="242.23,-53 232.23,-56.5 242.23,-60 242.23,-53"/>
</a>
</g>
<text text-anchor="middle" x="309.5" y="-59.5" font-family="Helvetica,sans-Serif" font-size="10.00" fill="grey"> &lt; MenuItem &gt;</text>
</g>
<!-- Node14&#45;&gt;Node11 -->
<g id="edge17_Node000011_Node000014" class="edge">
<title>Node14&#45;&gt;Node11</title>
<g id="a_edge17_Node000011_Node000014"><a xlink:title=" ">
<path fill="none" stroke="orange" stroke-dasharray="5,2" d="M363.84,-10.35C405.98,-11.19 466.28,-12.75 519,-15.5 570.67,-18.2 629.33,-22.75 671.74,-26.31"/>
<polygon fill="orange" stroke="orange" points="364.03,-6.85 353.97,-10.16 363.9,-13.85 364.03,-6.85"/>
</a>
</g>
<text text-anchor="start" x="403" y="-29.5" font-family="Helvetica,sans-Serif" font-size="10.00" fill="grey"> &lt; std::unique_ptr&lt;</text>
<text text-anchor="middle" x="444.5" y="-18.5" font-family="Helvetica,sans-Serif" font-size="10.00" fill="grey"> MenuItem &gt; &gt;</text>
</g>
</g>
</svg>
