<?xml version="1.0" encoding="UTF-8" standalone="no"?>
<!DOCTYPE svg PUBLIC "-//W3C//DTD SVG 1.1//EN"
 "http://www.w3.org/Graphics/SVG/1.1/DTD/svg11.dtd">
<!-- Generated by graphviz version 7.0.1 (20221109.1506)
 -->
<!-- Title: Harlinn::Windows::Media::MFMediaEventGenerator Pages: 1 -->
<svg width="775pt" height="182pt"
 viewBox="0.00 0.00 775.00 182.00" xmlns="http://www.w3.org/2000/svg" xmlns:xlink="http://www.w3.org/1999/xlink">
<g id="graph0" class="graph" transform="scale(1 1) rotate(0) translate(4 178)">
<title>Harlinn::Windows::Media::MFMediaEventGenerator</title>
<!-- Node1 -->
<g id="Node000001" class="node">
<title>Node1</title>
<g id="a_Node000001"><a xlink:title="Retrieves events from any Media Foundation object that generates events.">
<polygon fill="#999999" stroke="#666666" points="284,-102 154,-102 154,-72 284,-72 284,-102"/>
<text text-anchor="start" x="162" y="-90" font-family="Helvetica,sans-Serif" font-size="10.00">Harlinn::Windows::Media</text>
<text text-anchor="middle" x="219" y="-79" font-family="Helvetica,sans-Serif" font-size="10.00">::MFMediaEventGenerator</text>
</a>
</g>
</g>
<!-- Node3 -->
<g id="Node000003" class="node">
<title>Node3</title>
<g id="a_Node000003"><a xlink:href="class_harlinn_1_1_windows_1_1_media_1_1_m_f_media_session.html" target="_top" xlink:title="Provides playback controls for protected and unprotected content. The Media Session and the protected...">
<polygon fill="white" stroke="#666666" points="445,-174 320,-174 320,-144 445,-144 445,-174"/>
<text text-anchor="start" x="328" y="-162" font-family="Helvetica,sans-Serif" font-size="10.00">Harlinn::Windows::Media</text>
<text text-anchor="middle" x="382.5" y="-151" font-family="Helvetica,sans-Serif" font-size="10.00">::MFMediaSession</text>
</a>
</g>
</g>
<!-- Node1&#45;&gt;Node3 -->
<g id="edge2_Node000001_Node000003" class="edge">
<title>Node1&#45;&gt;Node3</title>
<g id="a_edge2_Node000001_Node000003"><a xlink:title=" ">
<path fill="none" stroke="#63b8ff" d="M260.54,-107.32C278.6,-116.14 300.21,-126.41 320,-135 326.62,-137.88 333.71,-140.79 340.63,-143.55"/>
<polygon fill="#63b8ff" stroke="#63b8ff" points="262.24,-104.25 251.72,-102.98 259.15,-110.53 262.24,-104.25"/>
</a>
</g>
</g>
<!-- Node4 -->
<g id="Node000004" class="node">
<title>Node4</title>
<g id="a_Node000004"><a xlink:href="class_harlinn_1_1_windows_1_1_media_1_1_m_f_media_source.html" target="_top" xlink:title="Base class for media source objects.">
<polygon fill="white" stroke="#666666" points="445,-126 320,-126 320,-96 445,-96 445,-126"/>
<text text-anchor="start" x="328" y="-114" font-family="Helvetica,sans-Serif" font-size="10.00">Harlinn::Windows::Media</text>
<text text-anchor="middle" x="382.5" y="-103" font-family="Helvetica,sans-Serif" font-size="10.00">::MFMediaSource</text>
</a>
</g>
</g>
<!-- Node1&#45;&gt;Node4 -->
<g id="edge3_Node000001_Node000004" class="edge">
<title>Node1&#45;&gt;Node4</title>
<g id="a_edge3_Node000001_Node000004"><a xlink:title=" ">
<path fill="none" stroke="#63b8ff" d="M295.56,-98.23C303.59,-99.42 311.69,-100.63 319.53,-101.79"/>
<polygon fill="#63b8ff" stroke="#63b8ff" points="296.2,-94.78 285.79,-96.78 295.17,-101.71 296.2,-94.78"/>
</a>
</g>
</g>
<!-- Node7 -->
<g id="Node000007" class="node">
<title>Node7</title>
<g id="a_Node000007"><a xlink:href="class_harlinn_1_1_windows_1_1_media_1_1_m_f_media_stream.html" target="_top" xlink:title="Represents one stream in a media source.">
<polygon fill="white" stroke="#666666" points="445,-78 320,-78 320,-48 445,-48 445,-78"/>
<text text-anchor="start" x="328" y="-66" font-family="Helvetica,sans-Serif" font-size="10.00">Harlinn::Windows::Media</text>
<text text-anchor="middle" x="382.5" y="-55" font-family="Helvetica,sans-Serif" font-size="10.00">::MFMediaStream</text>
</a>
</g>
</g>
<!-- Node1&#45;&gt;Node7 -->
<g id="edge6_Node000001_Node000007" class="edge">
<title>Node1&#45;&gt;Node7</title>
<g id="a_edge6_Node000001_Node000007"><a xlink:title=" ">
<path fill="none" stroke="#63b8ff" d="M295.56,-75.77C303.59,-74.58 311.69,-73.37 319.53,-72.21"/>
<polygon fill="#63b8ff" stroke="#63b8ff" points="295.17,-72.29 285.79,-77.22 296.2,-79.22 295.17,-72.29"/>
</a>
</g>
</g>
<!-- Node9 -->
<g id="Node000009" class="node">
<title>Node9</title>
<g id="a_Node000009"><a xlink:href="class_harlinn_1_1_windows_1_1_media_1_1_m_f_stream_sink.html" target="_top" xlink:title="Represents a stream on a media sink object.">
<polygon fill="white" stroke="#666666" points="445,-30 320,-30 320,0 445,0 445,-30"/>
<text text-anchor="start" x="328" y="-18" font-family="Helvetica,sans-Serif" font-size="10.00">Harlinn::Windows::Media</text>
<text text-anchor="middle" x="382.5" y="-7" font-family="Helvetica,sans-Serif" font-size="10.00">::MFStreamSink</text>
</a>
</g>
</g>
<!-- Node1&#45;&gt;Node9 -->
<g id="edge8_Node000001_Node000009" class="edge">
<title>Node1&#45;&gt;Node9</title>
<g id="a_edge8_Node000001_Node000009"><a xlink:title=" ">
<path fill="none" stroke="#63b8ff" d="M260.54,-66.68C278.6,-57.86 300.21,-47.59 320,-39 326.62,-36.12 333.71,-33.21 340.63,-30.45"/>
<polygon fill="#63b8ff" stroke="#63b8ff" points="259.15,-63.47 251.72,-71.02 262.24,-69.75 259.15,-63.47"/>
</a>
</g>
</g>
<!-- Node2 -->
<g id="Node000002" class="node">
<title>Node2</title>
<g id="a_Node000002"><a xlink:href="class_harlinn_1_1_common_1_1_core_1_1_unknown.html" target="_top" xlink:title="Base class for COM interface wrappers.">
<polygon fill="white" stroke="#666666" points="118,-102 0,-102 0,-72 118,-72 118,-102"/>
<text text-anchor="start" x="8" y="-90" font-family="Helvetica,sans-Serif" font-size="10.00">Harlinn::Common::Core</text>
<text text-anchor="middle" x="59" y="-79" font-family="Helvetica,sans-Serif" font-size="10.00">::Unknown</text>
</a>
</g>
</g>
<!-- Node2&#45;&gt;Node1 -->
<g id="edge1_Node000001_Node000002" class="edge">
<title>Node2&#45;&gt;Node1</title>
<g id="a_edge1_Node000001_Node000002"><a xlink:title=" ">
<path fill="none" stroke="#63b8ff" d="M129.89,-87C137.82,-87 145.88,-87 153.74,-87"/>
<polygon fill="#63b8ff" stroke="#63b8ff" points="129.9,-83.5 119.9,-87 129.9,-90.5 129.9,-83.5"/>
</a>
</g>
</g>
<!-- Node5 -->
<g id="Node000005" class="node">
<title>Node5</title>
<g id="a_Node000005"><a xlink:href="class_harlinn_1_1_windows_1_1_media_1_1_m_f_media_source_ex.html" target="_top" xlink:title=" ">
<polygon fill="white" stroke="#666666" points="606,-126 481,-126 481,-96 606,-96 606,-126"/>
<text text-anchor="start" x="489" y="-114" font-family="Helvetica,sans-Serif" font-size="10.00">Harlinn::Windows::Media</text>
<text text-anchor="middle" x="543.5" y="-103" font-family="Helvetica,sans-Serif" font-size="10.00">::MFMediaSourceEx</text>
</a>
</g>
</g>
<!-- Node4&#45;&gt;Node5 -->
<g id="edge4_Node000004_Node000005" class="edge">
<title>Node4&#45;&gt;Node5</title>
<g id="a_edge4_Node000004_Node000005"><a xlink:title=" ">
<path fill="none" stroke="#63b8ff" d="M456.7,-111C464.74,-111 472.86,-111 480.74,-111"/>
<polygon fill="#63b8ff" stroke="#63b8ff" points="456.94,-107.5 446.94,-111 456.94,-114.5 456.94,-107.5"/>
</a>
</g>
</g>
<!-- Node6 -->
<g id="Node000006" class="node">
<title>Node6</title>
<g id="a_Node000006"><a xlink:href="class_harlinn_1_1_windows_1_1_media_1_1_m_f_media_source2.html" target="_top" xlink:title=" ">
<polygon fill="white" stroke="#666666" points="767,-126 642,-126 642,-96 767,-96 767,-126"/>
<text text-anchor="start" x="650" y="-114" font-family="Helvetica,sans-Serif" font-size="10.00">Harlinn::Windows::Media</text>
<text text-anchor="middle" x="704.5" y="-103" font-family="Helvetica,sans-Serif" font-size="10.00">::MFMediaSource2</text>
</a>
</g>
</g>
<!-- Node5&#45;&gt;Node6 -->
<g id="edge5_Node000005_Node000006" class="edge">
<title>Node5&#45;&gt;Node6</title>
<g id="a_edge5_Node000005_Node000006"><a xlink:title=" ">
<path fill="none" stroke="#63b8ff" d="M617.7,-111C625.74,-111 633.86,-111 641.74,-111"/>
<polygon fill="#63b8ff" stroke="#63b8ff" points="617.94,-107.5 607.94,-111 617.94,-114.5 617.94,-107.5"/>
</a>
</g>
</g>
<!-- Node8 -->
<g id="Node000008" class="node">
<title>Node8</title>
<g id="a_Node000008"><a xlink:href="class_harlinn_1_1_windows_1_1_media_1_1_m_f_media_stream2.html" target="_top" xlink:title=" ">
<polygon fill="white" stroke="#666666" points="606,-78 481,-78 481,-48 606,-48 606,-78"/>
<text text-anchor="start" x="489" y="-66" font-family="Helvetica,sans-Serif" font-size="10.00">Harlinn::Windows::Media</text>
<text text-anchor="middle" x="543.5" y="-55" font-family="Helvetica,sans-Serif" font-size="10.00">::MFMediaStream2</text>
</a>
</g>
</g>
<!-- Node7&#45;&gt;Node8 -->
<g id="edge7_Node000007_Node000008" class="edge">
<title>Node7&#45;&gt;Node8</title>
<g id="a_edge7_Node000007_Node000008"><a xlink:title=" ">
<path fill="none" stroke="#63b8ff" d="M456.7,-63C464.74,-63 472.86,-63 480.74,-63"/>
<polygon fill="#63b8ff" stroke="#63b8ff" points="456.94,-59.5 446.94,-63 456.94,-66.5 456.94,-59.5"/>
</a>
</g>
</g>
</g>
</svg>
