<?xml version="1.0" encoding="UTF-8" standalone="no"?>
<!DOCTYPE svg PUBLIC "-//W3C//DTD SVG 1.1//EN"
 "http://www.w3.org/Graphics/SVG/1.1/DTD/svg11.dtd">
<!-- Generated by graphviz version 7.0.1 (20221109.1506)
 -->
<!-- Title: Harlinn::Common::Core::Concurrency::ActiveObjectBase&lt; MessageT, maxQueueSize &gt; Pages: 1 -->
<svg width="1382pt" height="490pt"
 viewBox="0.00 0.00 1382.00 490.00" xmlns="http://www.w3.org/2000/svg" xmlns:xlink="http://www.w3.org/1999/xlink">
<g id="graph0" class="graph" transform="scale(1 1) rotate(0) translate(4 486)">
<title>Harlinn::Common::Core::Concurrency::ActiveObjectBase&lt; MessageT, maxQueueSize &gt;</title>
<!-- Node1 -->
<g id="Node000001" class="node">
<title>Node1</title>
<g id="a_Node000001"><a xlink:title="The base template class for the active object type.">
<polygon fill="#999999" stroke="#666666" points="1374,-123.5 1199,-123.5 1199,-82.5 1374,-82.5 1374,-123.5"/>
<text text-anchor="start" x="1207" y="-111.5" font-family="Helvetica,sans-Serif" font-size="10.00">Harlinn::Common::Core</text>
<text text-anchor="start" x="1207" y="-100.5" font-family="Helvetica,sans-Serif" font-size="10.00">::Concurrency::ActiveObject</text>
<text text-anchor="middle" x="1286.5" y="-89.5" font-family="Helvetica,sans-Serif" font-size="10.00">Base&lt; MessageT, maxQueueSize &gt;</text>
</a>
</g>
</g>
<!-- Node2 -->
<g id="Node000002" class="node">
<title>Node2</title>
<g id="a_Node000002"><a xlink:href="class_harlinn_1_1_common_1_1_core_1_1_simple_concurrent_queue.html" target="_top" xlink:title=" ">
<polygon fill="white" stroke="#666666" points="1109,-278.5 981,-278.5 981,-237.5 1109,-237.5 1109,-278.5"/>
<text text-anchor="start" x="989" y="-266.5" font-family="Helvetica,sans-Serif" font-size="10.00">Harlinn::Common::Core</text>
<text text-anchor="start" x="989" y="-255.5" font-family="Helvetica,sans-Serif" font-size="10.00">::SimpleConcurrentQueue</text>
<text text-anchor="middle" x="1045" y="-244.5" font-family="Helvetica,sans-Serif" font-size="10.00">&lt; MessageT, 10 *1024 &gt;</text>
</a>
</g>
</g>
<!-- Node2&#45;&gt;Node1 -->
<g id="edge1_Node000001_Node000002" class="edge">
<title>Node2&#45;&gt;Node1</title>
<g id="a_edge1_Node000001_Node000002"><a xlink:title=" ">
<path fill="none" stroke="#9a32cd" stroke-dasharray="5,2" d="M1087.91,-230.88C1135.05,-200.37 1210.6,-151.47 1253.33,-123.82"/>
<polygon fill="#9a32cd" stroke="#9a32cd" points="1086.06,-227.9 1079.57,-236.27 1089.87,-233.78 1086.06,-227.9"/>
</a>
</g>
<text text-anchor="middle" x="1154" y="-206" font-family="Helvetica,sans-Serif" font-size="10.00" fill="grey"> messages_</text>
</g>
<!-- Node3 -->
<g id="Node000003" class="node">
<title>Node3</title>
<g id="a_Node000003"><a xlink:href="class_harlinn_1_1_common_1_1_core_1_1_condition_variable.html" target="_top" xlink:title="Condition variables are synchronization primitives that enable threads to wait until a particular con...">
<polygon fill="white" stroke="#666666" points="537,-401 419,-401 419,-371 537,-371 537,-401"/>
<text text-anchor="start" x="427" y="-389" font-family="Helvetica,sans-Serif" font-size="10.00">Harlinn::Common::Core</text>
<text text-anchor="middle" x="478" y="-378" font-family="Helvetica,sans-Serif" font-size="10.00">::ConditionVariable</text>
</a>
</g>
</g>
<!-- Node3&#45;&gt;Node2 -->
<g id="edge2_Node000002_Node000003" class="edge">
<title>Node3&#45;&gt;Node2</title>
<g id="a_edge2_Node000002_Node000003"><a xlink:title=" ">
<path fill="none" stroke="#9a32cd" stroke-dasharray="5,2" d="M548.9,-393.69C589.69,-396.68 642.01,-397.95 688,-391 814.49,-371.9 846.05,-357.86 963,-306 980.04,-298.45 997.96,-288.1 1012.61,-278.95"/>
<polygon fill="#9a32cd" stroke="#9a32cd" points="549.2,-390.21 538.96,-392.9 548.65,-397.18 549.2,-390.21"/>
</a>
</g>
<text text-anchor="middle" x="770" y="-401" font-family="Helvetica,sans-Serif" font-size="10.00" fill="grey"> queueEmpty_</text>
<text text-anchor="middle" x="770" y="-390" font-family="Helvetica,sans-Serif" font-size="10.00" fill="grey">queueFull_</text>
</g>
<!-- Node11 -->
<g id="Node000011" class="node">
<title>Node11</title>
<g id="a_Node000011"><a xlink:href="class_harlinn_1_1_common_1_1_core_1_1_simple_concurrent_queue.html" target="_top" xlink:title="Simple blocking fixed size queue.">
<polygon fill="white" stroke="#666666" points="834,-328.5 706,-328.5 706,-287.5 834,-287.5 834,-328.5"/>
<text text-anchor="start" x="714" y="-316.5" font-family="Helvetica,sans-Serif" font-size="10.00">Harlinn::Common::Core</text>
<text text-anchor="start" x="714" y="-305.5" font-family="Helvetica,sans-Serif" font-size="10.00">::SimpleConcurrentQueue</text>
<text text-anchor="middle" x="770" y="-294.5" font-family="Helvetica,sans-Serif" font-size="10.00">&lt; T, maxQueueSize &gt;</text>
</a>
</g>
</g>
<!-- Node3&#45;&gt;Node11 -->
<g id="edge13_Node000011_Node000003" class="edge">
<title>Node3&#45;&gt;Node11</title>
<g id="a_edge13_Node000011_Node000003"><a xlink:title=" ">
<path fill="none" stroke="#9a32cd" stroke-dasharray="5,2" d="M548.27,-371.22C589.18,-362.05 641.84,-349.46 688,-336 695.43,-333.83 703.18,-331.39 710.82,-328.88"/>
<polygon fill="#9a32cd" stroke="#9a32cd" points="547.54,-367.8 538.54,-373.38 549.06,-374.63 547.54,-367.8"/>
</a>
</g>
<text text-anchor="middle" x="630.5" y="-379" font-family="Helvetica,sans-Serif" font-size="10.00" fill="grey"> queueEmpty_</text>
<text text-anchor="middle" x="630.5" y="-368" font-family="Helvetica,sans-Serif" font-size="10.00" fill="grey">queueFull_</text>
</g>
<!-- Node4 -->
<g id="Node000004" class="node">
<title>Node4</title>
<g id="a_Node000004"><a xlink:href="class_harlinn_1_1_common_1_1_core_1_1_critical_section.html" target="_top" xlink:title="A critical section object provides synchronization similar to that provided by a mutex object,...">
<polygon fill="white" stroke="#666666" points="537,-286 419,-286 419,-256 537,-256 537,-286"/>
<text text-anchor="start" x="427" y="-274" font-family="Helvetica,sans-Serif" font-size="10.00">Harlinn::Common::Core</text>
<text text-anchor="middle" x="478" y="-263" font-family="Helvetica,sans-Serif" font-size="10.00">::CriticalSection</text>
</a>
</g>
</g>
<!-- Node4&#45;&gt;Node2 -->
<g id="edge3_Node000002_Node000004" class="edge">
<title>Node4&#45;&gt;Node2</title>
<g id="a_edge3_Node000002_Node000004"><a xlink:title=" ">
<path fill="none" stroke="#9a32cd" stroke-dasharray="5,2" d="M548.51,-255.34C556.73,-253.97 565.03,-252.8 573,-252 718.25,-237.47 889.93,-246.12 980.57,-252.69"/>
<polygon fill="#9a32cd" stroke="#9a32cd" points="548.11,-251.86 538.88,-257.06 549.34,-258.75 548.11,-251.86"/>
</a>
</g>
<text text-anchor="middle" x="770" y="-248" font-family="Helvetica,sans-Serif" font-size="10.00" fill="grey"> criticalSection_</text>
</g>
<!-- Node4&#45;&gt;Node11 -->
<g id="edge14_Node000011_Node000004" class="edge">
<title>Node4&#45;&gt;Node11</title>
<g id="a_edge14_Node000011_Node000004"><a xlink:title=" ">
<path fill="none" stroke="#9a32cd" stroke-dasharray="5,2" d="M548.57,-279.88C556.81,-280.93 565.09,-281.99 573,-283 617.41,-288.67 667.47,-295.05 705.89,-299.95"/>
<polygon fill="#9a32cd" stroke="#9a32cd" points="549.28,-276.44 538.92,-278.65 548.39,-283.39 549.28,-276.44"/>
</a>
</g>
<text text-anchor="middle" x="630.5" y="-300" font-family="Helvetica,sans-Serif" font-size="10.00" fill="grey"> criticalSection_</text>
</g>
<!-- Node5 -->
<g id="Node000005" class="node">
<title>Node5</title>
<g id="a_Node000005"><a xlink:title=" ">
<polygon fill="white" stroke="#666666" points="533,-145.5 423,-145.5 423,-126.5 533,-126.5 533,-145.5"/>
<text text-anchor="middle" x="478" y="-133.5" font-family="Helvetica,sans-Serif" font-size="10.00">std::atomic&lt; size_t &gt;</text>
</a>
</g>
</g>
<!-- Node5&#45;&gt;Node1 -->
<g id="edge26_Node000001_Node000005" class="edge">
<title>Node5&#45;&gt;Node1</title>
<g id="a_edge26_Node000001_Node000005"><a xlink:title=" ">
<path fill="none" stroke="#9a32cd" stroke-dasharray="5,2" d="M542.21,-124.01C616.16,-110.65 742.44,-89.89 852,-82 901.21,-78.46 913.69,-80.4 963,-82 1042.91,-84.6 1133.79,-90.81 1198.66,-95.81"/>
<polygon fill="#9a32cd" stroke="#9a32cd" points="541.95,-120.51 532.74,-125.74 543.2,-127.39 541.95,-120.51"/>
</a>
</g>
<text text-anchor="middle" x="907.5" y="-96" font-family="Helvetica,sans-Serif" font-size="10.00" fill="grey"> messagesPosted_</text>
<text text-anchor="middle" x="907.5" y="-85" font-family="Helvetica,sans-Serif" font-size="10.00" fill="grey">messagesProcessed_</text>
</g>
<!-- Node5&#45;&gt;Node2 -->
<g id="edge4_Node000002_Node000005" class="edge">
<title>Node5&#45;&gt;Node2</title>
<g id="a_edge4_Node000002_Node000005"><a xlink:title=" ">
<path fill="none" stroke="#9a32cd" stroke-dasharray="5,2" d="M544.73,-132.6C586.07,-131.54 640.4,-132.1 688,-139 803.92,-155.82 932.57,-207.69 998.92,-237.09"/>
<polygon fill="#9a32cd" stroke="#9a32cd" points="544.84,-129.1 534.95,-132.9 545.05,-136.09 544.84,-129.1"/>
</a>
</g>
<text text-anchor="middle" x="770" y="-198" font-family="Helvetica,sans-Serif" font-size="10.00" fill="grey"> lastItemProduced_</text>
<text text-anchor="middle" x="770" y="-187" font-family="Helvetica,sans-Serif" font-size="10.00" fill="grey">queueSize_</text>
<text text-anchor="middle" x="770" y="-176" font-family="Helvetica,sans-Serif" font-size="10.00" fill="grey">startOffset_</text>
</g>
<!-- Node5&#45;&gt;Node11 -->
<g id="edge15_Node000011_Node000005" class="edge">
<title>Node5&#45;&gt;Node11</title>
<g id="a_edge15_Node000011_Node000005"><a xlink:title=" ">
<path fill="none" stroke="#9a32cd" stroke-dasharray="5,2" d="M544.9,-138.79C591.17,-144.3 651.14,-159.14 688,-198 711.59,-222.87 685.26,-245.7 706,-273 710.09,-278.38 715.25,-283.05 720.86,-287.06"/>
<polygon fill="#9a32cd" stroke="#9a32cd" points="545.27,-135.31 534.96,-137.75 544.54,-142.28 545.27,-135.31"/>
</a>
</g>
<text text-anchor="middle" x="630.5" y="-223" font-family="Helvetica,sans-Serif" font-size="10.00" fill="grey"> lastItemProduced_</text>
<text text-anchor="middle" x="630.5" y="-212" font-family="Helvetica,sans-Serif" font-size="10.00" fill="grey">queueSize_</text>
<text text-anchor="middle" x="630.5" y="-201" font-family="Helvetica,sans-Serif" font-size="10.00" fill="grey">startOffset_</text>
</g>
<!-- Node6 -->
<g id="Node000006" class="node">
<title>Node6</title>
<g id="a_Node000006"><a xlink:title=" ">
<polygon fill="white" stroke="#666666" points="211.5,-222.5 122.5,-222.5 122.5,-203.5 211.5,-203.5 211.5,-222.5"/>
<text text-anchor="middle" x="167" y="-210.5" font-family="Helvetica,sans-Serif" font-size="10.00">std::atomic&lt; T &gt;</text>
</a>
</g>
</g>
<!-- Node6&#45;&gt;Node5 -->
<g id="edge5_Node000005_Node000006" class="edge">
<title>Node6&#45;&gt;Node5</title>
<g id="a_edge5_Node000005_Node000006"><a xlink:title=" ">
<path fill="none" stroke="orange" stroke-dasharray="5,2" d="M219.01,-200.29C280.12,-185.06 381.23,-159.87 436.99,-145.97"/>
<polygon fill="orange" stroke="orange" points="218.41,-196.83 209.55,-202.65 220.1,-203.62 218.41,-196.83"/>
</a>
</g>
<text text-anchor="middle" x="313.5" y="-195" font-family="Helvetica,sans-Serif" font-size="10.00" fill="grey"> &lt; size_t &gt;</text>
</g>
<!-- Node8 -->
<g id="Node000008" class="node">
<title>Node8</title>
<g id="a_Node000008"><a xlink:title=" ">
<polygon fill="white" stroke="#666666" points="528.5,-222.5 427.5,-222.5 427.5,-203.5 528.5,-203.5 528.5,-222.5"/>
<text text-anchor="middle" x="478" y="-210.5" font-family="Helvetica,sans-Serif" font-size="10.00">std::atomic&lt; bool &gt;</text>
</a>
</g>
</g>
<!-- Node6&#45;&gt;Node8 -->
<g id="edge8_Node000008_Node000006" class="edge">
<title>Node6&#45;&gt;Node8</title>
<g id="a_edge8_Node000008_Node000006"><a xlink:title=" ">
<path fill="none" stroke="orange" stroke-dasharray="5,2" d="M223.43,-213C281.32,-213 371.31,-213 427.06,-213"/>
<polygon fill="orange" stroke="orange" points="223.46,-209.5 213.46,-213 223.46,-216.5 223.46,-209.5"/>
</a>
</g>
<text text-anchor="middle" x="313.5" y="-216" font-family="Helvetica,sans-Serif" font-size="10.00" fill="grey"> &lt; bool &gt;</text>
</g>
<!-- Node7 -->
<g id="Node000007" class="node">
<title>Node7</title>
<g id="a_Node000007"><a xlink:title=" ">
<polygon fill="white" stroke="#666666" points="29,-252.5 0,-252.5 0,-233.5 29,-233.5 29,-252.5"/>
<text text-anchor="middle" x="14.5" y="-240.5" font-family="Helvetica,sans-Serif" font-size="10.00">T</text>
</a>
</g>
</g>
<!-- Node7&#45;&gt;Node6 -->
<g id="edge6_Node000006_Node000007" class="edge">
<title>Node7&#45;&gt;Node6</title>
<g id="a_edge6_Node000006_Node000007"><a xlink:title=" ">
<path fill="none" stroke="#9a32cd" stroke-dasharray="5,2" d="M39.95,-232.22C42.31,-231.39 44.68,-230.63 47,-230 71.46,-223.32 99.51,-219.15 122.23,-216.61"/>
<polygon fill="#9a32cd" stroke="#9a32cd" points="38.77,-228.92 30.76,-235.85 41.34,-235.43 38.77,-228.92"/>
</a>
</g>
<text text-anchor="middle" x="68.5" y="-233" font-family="Helvetica,sans-Serif" font-size="10.00" fill="grey"> ptr</text>
</g>
<!-- Node10 -->
<g id="Node000010" class="node">
<title>Node10</title>
<g id="a_Node000010"><a xlink:title=" ">
<polygon fill="white" stroke="#666666" points="207.5,-285.5 126.5,-285.5 126.5,-266.5 207.5,-266.5 207.5,-285.5"/>
<text text-anchor="middle" x="167" y="-273.5" font-family="Helvetica,sans-Serif" font-size="10.00">std::array&lt; T &gt;</text>
</a>
</g>
</g>
<!-- Node7&#45;&gt;Node10 -->
<g id="edge11_Node000010_Node000007" class="edge">
<title>Node7&#45;&gt;Node10</title>
<g id="a_edge11_Node000010_Node000007"><a xlink:title=" ">
<path fill="none" stroke="#9a32cd" stroke-dasharray="5,2" d="M40.37,-248.45C63.65,-253.56 98.83,-261.27 126.04,-267.24"/>
<polygon fill="#9a32cd" stroke="#9a32cd" points="41.38,-245.09 30.87,-246.37 39.89,-251.93 41.38,-245.09"/>
</a>
</g>
<text text-anchor="middle" x="68.5" y="-261" font-family="Helvetica,sans-Serif" font-size="10.00" fill="grey"> elements</text>
</g>
<!-- Node12 -->
<g id="Node000012" class="node">
<title>Node12</title>
<g id="a_Node000012"><a xlink:title=" ">
<polygon fill="white" stroke="#666666" points="555,-331.5 401,-331.5 401,-312.5 555,-312.5 555,-331.5"/>
<text text-anchor="middle" x="478" y="-319.5" font-family="Helvetica,sans-Serif" font-size="10.00">std::array&lt; T, MaxQueueSize &gt;</text>
</a>
</g>
</g>
<!-- Node7&#45;&gt;Node12 -->
<g id="edge18_Node000012_Node000007" class="edge">
<title>Node7&#45;&gt;Node12</title>
<g id="a_edge18_Node000012_Node000007"><a xlink:title=" ">
<path fill="none" stroke="#9a32cd" stroke-dasharray="5,2" d="M31.73,-260.9C36.35,-265.28 41.6,-269.66 47,-273 71.52,-288.15 79.88,-288.69 108,-295 207.5,-317.32 325.49,-322.34 400.78,-322.94"/>
<polygon fill="#9a32cd" stroke="#9a32cd" points="34.31,-258.53 24.82,-253.84 29.31,-263.43 34.31,-258.53"/>
</a>
</g>
<text text-anchor="middle" x="167" y="-316" font-family="Helvetica,sans-Serif" font-size="10.00" fill="grey"> elements</text>
</g>
<!-- Node14 -->
<g id="Node000014" class="node">
<title>Node14</title>
<g id="a_Node000014"><a xlink:href="struct_harlinn_1_1_common_1_1_core_1_1_internal_1_1_data.html" target="_top" xlink:title=" ">
<polygon fill="white" stroke="#666666" points="226,-58 108,-58 108,-28 226,-28 226,-58"/>
<text text-anchor="start" x="116" y="-46" font-family="Helvetica,sans-Serif" font-size="10.00">Harlinn::Common::Core</text>
<text text-anchor="middle" x="167" y="-35" font-family="Helvetica,sans-Serif" font-size="10.00">::Internal::Data&lt; T &gt;</text>
</a>
</g>
</g>
<!-- Node7&#45;&gt;Node14 -->
<g id="edge22_Node000014_Node000007" class="edge">
<title>Node7&#45;&gt;Node14</title>
<g id="a_edge22_Node000014_Node000007"><a xlink:title=" ">
<path fill="none" stroke="#9a32cd" stroke-dasharray="5,2" d="M29.79,-224.01C59.43,-184.62 127.12,-94.67 154.34,-58.49"/>
<polygon fill="#9a32cd" stroke="#9a32cd" points="27.09,-221.78 23.87,-231.87 32.68,-225.99 27.09,-221.78"/>
</a>
</g>
<text text-anchor="middle" x="68.5" y="-202" font-family="Helvetica,sans-Serif" font-size="10.00" fill="grey"> buffer_</text>
</g>
<!-- Node8&#45;&gt;Node1 -->
<g id="edge25_Node000001_Node000008" class="edge">
<title>Node8&#45;&gt;Node1</title>
<g id="a_edge25_Node000001_Node000008"><a xlink:title=" ">
<path fill="none" stroke="#9a32cd" stroke-dasharray="5,2" d="M499.71,-195.94C522.23,-177.82 557.13,-151.08 573,-146 621.68,-130.43 637.36,-139.1 688,-146 696.23,-147.12 697.77,-149.88 706,-151 880.05,-174.72 1085.21,-144.02 1198.79,-121.92"/>
<polygon fill="#9a32cd" stroke="#9a32cd" points="497.64,-193.12 492.08,-202.14 502.05,-198.55 497.64,-193.12"/>
</a>
</g>
<text text-anchor="middle" x="907.5" y="-173" font-family="Helvetica,sans-Serif" font-size="10.00" fill="grey"> started_</text>
<text text-anchor="middle" x="907.5" y="-162" font-family="Helvetica,sans-Serif" font-size="10.00" fill="grey">stopped_</text>
</g>
<!-- Node8&#45;&gt;Node2 -->
<g id="edge7_Node000002_Node000008" class="edge">
<title>Node8&#45;&gt;Node2</title>
<g id="a_edge7_Node000002_Node000008"><a xlink:title=" ">
<path fill="none" stroke="#9a32cd" stroke-dasharray="5,2" d="M540.12,-212.94C632.29,-213.67 812.16,-218.23 963,-241 968.83,-241.88 974.86,-242.91 980.89,-244.03"/>
<polygon fill="#9a32cd" stroke="#9a32cd" points="540.32,-209.45 530.29,-212.88 540.27,-216.44 540.32,-209.45"/>
</a>
</g>
<text text-anchor="middle" x="770" y="-228" font-family="Helvetica,sans-Serif" font-size="10.00" fill="grey"> closed_</text>
</g>
<!-- Node8&#45;&gt;Node11 -->
<g id="edge16_Node000011_Node000008" class="edge">
<title>Node8&#45;&gt;Node11</title>
<g id="a_edge16_Node000011_Node000008"><a xlink:title=" ">
<path fill="none" stroke="#9a32cd" stroke-dasharray="5,2" d="M535.12,-225.52C577.68,-235.68 637.29,-251.35 688,-270 701.27,-274.88 715.34,-281.09 727.96,-287.07"/>
<polygon fill="#9a32cd" stroke="#9a32cd" points="536.15,-222.17 525.61,-223.28 534.54,-228.98 536.15,-222.17"/>
</a>
</g>
<text text-anchor="middle" x="630.5" y="-273" font-family="Helvetica,sans-Serif" font-size="10.00" fill="grey"> closed_</text>
</g>
<!-- Node9 -->
<g id="Node000009" class="node">
<title>Node9</title>
<g id="a_Node000009"><a xlink:title=" ">
<polygon fill="white" stroke="#666666" points="688,-469 573,-469 573,-439 688,-439 688,-469"/>
<text text-anchor="start" x="581" y="-457" font-family="Helvetica,sans-Serif" font-size="10.00">std::array&lt; MessageT,</text>
<text text-anchor="middle" x="630.5" y="-446" font-family="Helvetica,sans-Serif" font-size="10.00"> MaxQueueSize &gt;</text>
</a>
</g>
</g>
<!-- Node9&#45;&gt;Node2 -->
<g id="edge9_Node000002_Node000009" class="edge">
<title>Node9&#45;&gt;Node2</title>
<g id="a_edge9_Node000002_Node000009"><a xlink:title=" ">
<path fill="none" stroke="#9a32cd" stroke-dasharray="5,2" d="M699.62,-466.12C771.61,-475.06 885.28,-477.72 963,-424 1012.99,-389.45 1033.35,-315.09 1040.56,-278.79"/>
<polygon fill="#9a32cd" stroke="#9a32cd" points="700.31,-462.68 689.93,-464.84 699.39,-469.62 700.31,-462.68"/>
</a>
</g>
<text text-anchor="middle" x="770" y="-474" font-family="Helvetica,sans-Serif" font-size="10.00" fill="grey"> conatainer_</text>
</g>
<!-- Node10&#45;&gt;Node9 -->
<g id="edge10_Node000009_Node000010" class="edge">
<title>Node10&#45;&gt;Node9</title>
<g id="a_edge10_Node000009_Node000010"><a xlink:title=" ">
<path fill="none" stroke="orange" stroke-dasharray="5,2" d="M205.65,-290.32C212.53,-293.29 219.56,-296.57 226,-300 234.48,-304.53 235.92,-306.79 244,-312 313.12,-356.6 324.43,-379.94 401,-410 457.22,-432.07 525.7,-443.37 572.95,-448.95"/>
<polygon fill="orange" stroke="orange" points="207.04,-287.11 196.47,-286.51 204.36,-293.57 207.04,-287.11"/>
</a>
</g>
<text text-anchor="middle" x="313.5" y="-405" font-family="Helvetica,sans-Serif" font-size="10.00" fill="grey"> &lt; MessageT, MaxQueueSize &gt;</text>
</g>
<!-- Node10&#45;&gt;Node12 -->
<g id="edge19_Node000012_Node000010" class="edge">
<title>Node10&#45;&gt;Node12</title>
<g id="a_edge19_Node000012_Node000010"><a xlink:title=" ">
<path fill="none" stroke="orange" stroke-dasharray="5,2" d="M219.11,-278.65C262.87,-281.47 327.44,-286.97 383,-297 403.77,-300.75 426.67,-306.8 444.67,-312.01"/>
<polygon fill="orange" stroke="orange" points="219.6,-275.17 209.4,-278.05 219.17,-282.16 219.6,-275.17"/>
</a>
</g>
<text text-anchor="middle" x="313.5" y="-300" font-family="Helvetica,sans-Serif" font-size="10.00" fill="grey"> &lt; T, MaxQueueSize &gt;</text>
</g>
<!-- Node11&#45;&gt;Node2 -->
<g id="edge12_Node000002_Node000011" class="edge">
<title>Node11&#45;&gt;Node2</title>
<g id="a_edge12_Node000002_Node000011"><a xlink:title=" ">
<path fill="none" stroke="orange" stroke-dasharray="5,2" d="M845.41,-294.37C887.73,-286.62 940.19,-277.01 980.55,-269.62"/>
<polygon fill="orange" stroke="orange" points="845.01,-290.89 835.81,-296.13 846.27,-297.77 845.01,-290.89"/>
</a>
</g>
<text text-anchor="middle" x="907.5" y="-294" font-family="Helvetica,sans-Serif" font-size="10.00" fill="grey"> &lt; MessageT, 10 *1024 &gt;</text>
</g>
<!-- Node12&#45;&gt;Node11 -->
<g id="edge17_Node000011_Node000012" class="edge">
<title>Node12&#45;&gt;Node11</title>
<g id="a_edge17_Node000011_Node000012"><a xlink:title=" ">
<path fill="none" stroke="#9a32cd" stroke-dasharray="5,2" d="M566.42,-321.6C603.89,-320.99 648.13,-319.69 688,-317 693.79,-316.61 699.8,-316.11 705.81,-315.56"/>
<polygon fill="#9a32cd" stroke="#9a32cd" points="566.48,-318.1 556.53,-321.74 566.58,-325.1 566.48,-318.1"/>
</a>
</g>
<text text-anchor="middle" x="630.5" y="-324" font-family="Helvetica,sans-Serif" font-size="10.00" fill="grey"> conatainer_</text>
</g>
<!-- Node13 -->
<g id="Node000013" class="node">
<title>Node13</title>
<g id="a_Node000013"><a xlink:href="class_harlinn_1_1_common_1_1_core_1_1_basic_string.html" target="_top" xlink:title=" ">
<polygon fill="white" stroke="#666666" points="832.5,-30 707.5,-30 707.5,0 832.5,0 832.5,-30"/>
<text text-anchor="start" x="715.5" y="-18" font-family="Helvetica,sans-Serif" font-size="10.00">Harlinn::Common::Core</text>
<text text-anchor="middle" x="770" y="-7" font-family="Helvetica,sans-Serif" font-size="10.00">::BasicString&lt; wchar_t &gt;</text>
</a>
</g>
</g>
<!-- Node13&#45;&gt;Node1 -->
<g id="edge20_Node000001_Node000013" class="edge">
<title>Node13&#45;&gt;Node1</title>
<g id="a_edge20_Node000001_Node000013"><a xlink:title=" ">
<path fill="none" stroke="#9a32cd" stroke-dasharray="5,2" d="M844.16,-8.97C927.98,-4.59 1068.28,-5.04 1181,-44 1207.58,-53.19 1235.19,-69.09 1255.35,-82.08"/>
<polygon fill="#9a32cd" stroke="#9a32cd" points="844.01,-5.48 834.23,-9.53 844.41,-12.46 844.01,-5.48"/>
</a>
</g>
<text text-anchor="middle" x="1045" y="-27" font-family="Helvetica,sans-Serif" font-size="10.00" fill="grey"> threadName_</text>
</g>
<!-- Node14&#45;&gt;Node13 -->
<g id="edge21_Node000013_Node000014" class="edge">
<title>Node14&#45;&gt;Node13</title>
<g id="a_edge21_Node000013_Node000014"><a xlink:title=" ">
<path fill="none" stroke="#9a32cd" stroke-dasharray="5,2" d="M237.22,-29.83C283.41,-21.73 345.6,-12.14 401,-8 469.25,-2.9 486.56,-6.88 555,-8 606.29,-8.84 664.47,-10.81 707.21,-12.44"/>
<polygon fill="#9a32cd" stroke="#9a32cd" points="236.86,-26.34 227.63,-31.54 238.09,-33.24 236.86,-26.34"/>
</a>
</g>
<text text-anchor="middle" x="478" y="-11" font-family="Helvetica,sans-Serif" font-size="10.00" fill="grey"> data_</text>
</g>
<!-- Node15 -->
<g id="Node000015" class="node">
<title>Node15</title>
<g id="a_Node000015"><a xlink:href="class_harlinn_1_1_common_1_1_core_1_1_basic_string.html" target="_top" xlink:title="This is a reference counted string class.">
<polygon fill="white" stroke="#666666" points="537,-58 419,-58 419,-28 537,-28 537,-58"/>
<text text-anchor="start" x="427" y="-46" font-family="Helvetica,sans-Serif" font-size="10.00">Harlinn::Common::Core</text>
<text text-anchor="middle" x="478" y="-35" font-family="Helvetica,sans-Serif" font-size="10.00">::BasicString&lt; T &gt;</text>
</a>
</g>
</g>
<!-- Node14&#45;&gt;Node15 -->
<g id="edge24_Node000015_Node000014" class="edge">
<title>Node14&#45;&gt;Node15</title>
<g id="a_edge24_Node000015_Node000014"><a xlink:title=" ">
<path fill="none" stroke="#9a32cd" stroke-dasharray="5,2" d="M237.81,-43C292.39,-43 367.37,-43 418.76,-43"/>
<polygon fill="#9a32cd" stroke="#9a32cd" points="238,-39.5 228,-43 238,-46.5 238,-39.5"/>
</a>
</g>
<text text-anchor="middle" x="313.5" y="-46" font-family="Helvetica,sans-Serif" font-size="10.00" fill="grey"> data_</text>
</g>
<!-- Node15&#45;&gt;Node13 -->
<g id="edge23_Node000013_Node000015" class="edge">
<title>Node15&#45;&gt;Node13</title>
<g id="a_edge23_Node000013_Node000015"><a xlink:title=" ">
<path fill="none" stroke="orange" stroke-dasharray="5,2" d="M548.84,-35.46C556.98,-34.61 565.17,-33.78 573,-33 617.89,-28.55 668.59,-23.9 707.19,-20.45"/>
<polygon fill="orange" stroke="orange" points="548.49,-31.97 538.91,-36.5 549.22,-38.94 548.49,-31.97"/>
</a>
</g>
<text text-anchor="middle" x="630.5" y="-36" font-family="Helvetica,sans-Serif" font-size="10.00" fill="grey"> &lt; wchar_t &gt;</text>
</g>
</g>
</svg>
