<?xml version="1.0" encoding="UTF-8" standalone="no"?>
<!DOCTYPE svg PUBLIC "-//W3C//DTD SVG 1.1//EN"
 "http://www.w3.org/Graphics/SVG/1.1/DTD/svg11.dtd">
<!-- Generated by graphviz version 7.0.1 (20221109.1506)
 -->
<!-- Title: Harlinn::Windows::Graphics::DirectComposition::ArithmeticCompositeEffect Pages: 1 -->
<svg width="163pt" height="247pt"
 viewBox="0.00 0.00 163.00 247.00" xmlns="http://www.w3.org/2000/svg" xmlns:xlink="http://www.w3.org/1999/xlink">
<g id="graph0" class="graph" transform="scale(1 1) rotate(0) translate(4 243)">
<title>Harlinn::Windows::Graphics::DirectComposition::ArithmeticCompositeEffect</title>
<!-- Node1 -->
<g id="Node000001" class="node">
<title>Node1</title>
<g id="a_Node000001"><a xlink:title="The arithmetic composite effect is used to combine 2 images using a weighted sum of pixels from the i...">
<polygon fill="#999999" stroke="#666666" points="153.5,-41 1.5,-41 1.5,0 153.5,0 153.5,-41"/>
<text text-anchor="start" x="9.5" y="-29" font-family="Helvetica,sans-Serif" font-size="10.00">Harlinn::Windows::Graphics</text>
<text text-anchor="start" x="9.5" y="-18" font-family="Helvetica,sans-Serif" font-size="10.00">::DirectComposition::Arithmetic</text>
<text text-anchor="middle" x="77.5" y="-7" font-family="Helvetica,sans-Serif" font-size="10.00">CompositeEffect</text>
</a>
</g>
</g>
<!-- Node2 -->
<g id="Node000002" class="node">
<title>Node2</title>
<g id="a_Node000002"><a xlink:href="class_harlinn_1_1_windows_1_1_graphics_1_1_direct_composition_1_1_filter_effect.html" target="_top" xlink:title="FilterEffect exposes a subset of Direct2D&#39;s image effects through DirectComposition for use in CSS fi...">
<polygon fill="white" stroke="#666666" points="155,-107 0,-107 0,-77 155,-77 155,-107"/>
<text text-anchor="start" x="8" y="-95" font-family="Helvetica,sans-Serif" font-size="10.00">Harlinn::Windows::Graphics</text>
<text text-anchor="middle" x="77.5" y="-84" font-family="Helvetica,sans-Serif" font-size="10.00">::DirectComposition::FilterEffect</text>
</a>
</g>
</g>
<!-- Node2&#45;&gt;Node1 -->
<g id="edge1_Node000001_Node000002" class="edge">
<title>Node2&#45;&gt;Node1</title>
<g id="a_edge1_Node000001_Node000002"><a xlink:title=" ">
<path fill="none" stroke="#63b8ff" d="M77.5,-65.36C77.5,-57.45 77.5,-48.87 77.5,-41.42"/>
<polygon fill="#63b8ff" stroke="#63b8ff" points="74,-65.09 77.5,-75.09 81,-65.09 74,-65.09"/>
</a>
</g>
</g>
<!-- Node3 -->
<g id="Node000003" class="node">
<title>Node3</title>
<g id="a_Node000003"><a xlink:href="class_harlinn_1_1_windows_1_1_graphics_1_1_direct_composition_1_1_effect.html" target="_top" xlink:title="Represents a bitmap effect that modifies the rasterization of a visual&#39;s subtree.">
<polygon fill="white" stroke="#666666" points="146,-173 9,-173 9,-143 146,-143 146,-173"/>
<text text-anchor="start" x="17" y="-161" font-family="Helvetica,sans-Serif" font-size="10.00">Harlinn::Windows::Graphics</text>
<text text-anchor="middle" x="77.5" y="-150" font-family="Helvetica,sans-Serif" font-size="10.00">::DirectComposition::Effect</text>
</a>
</g>
</g>
<!-- Node3&#45;&gt;Node2 -->
<g id="edge2_Node000002_Node000003" class="edge">
<title>Node3&#45;&gt;Node2</title>
<g id="a_edge2_Node000002_Node000003"><a xlink:title=" ">
<path fill="none" stroke="#63b8ff" d="M77.5,-131.39C77.5,-123.13 77.5,-114.28 77.5,-107.16"/>
<polygon fill="#63b8ff" stroke="#63b8ff" points="74,-131.28 77.5,-141.28 81,-131.28 74,-131.28"/>
</a>
</g>
</g>
<!-- Node4 -->
<g id="Node000004" class="node">
<title>Node4</title>
<g id="a_Node000004"><a xlink:href="class_harlinn_1_1_common_1_1_core_1_1_unknown.html" target="_top" xlink:title=" ">
<polygon fill="white" stroke="#666666" points="136.5,-239 18.5,-239 18.5,-209 136.5,-209 136.5,-239"/>
<text text-anchor="start" x="26.5" y="-227" font-family="Helvetica,sans-Serif" font-size="10.00">Harlinn::Common::Core</text>
<text text-anchor="middle" x="77.5" y="-216" font-family="Helvetica,sans-Serif" font-size="10.00">::Unknown</text>
</a>
</g>
</g>
<!-- Node4&#45;&gt;Node3 -->
<g id="edge3_Node000003_Node000004" class="edge">
<title>Node4&#45;&gt;Node3</title>
<g id="a_edge3_Node000003_Node000004"><a xlink:title=" ">
<path fill="none" stroke="#63b8ff" d="M77.5,-197.39C77.5,-189.13 77.5,-180.28 77.5,-173.16"/>
<polygon fill="#63b8ff" stroke="#63b8ff" points="74,-197.28 77.5,-207.28 81,-197.28 74,-197.28"/>
</a>
</g>
</g>
</g>
</svg>
