<?xml version="1.0" encoding="UTF-8" standalone="no"?>
<!DOCTYPE svg PUBLIC "-//W3C//DTD SVG 1.1//EN"
 "http://www.w3.org/Graphics/SVG/1.1/DTD/svg11.dtd">
<!-- Generated by graphviz version 7.0.1 (20221109.1506)
 -->
<!-- Title: Harlinn::Windows::BitmapSelection Pages: 1 -->
<svg width="927pt" height="108pt"
 viewBox="0.00 0.00 927.00 108.00" xmlns="http://www.w3.org/2000/svg" xmlns:xlink="http://www.w3.org/1999/xlink">
<g id="graph0" class="graph" transform="scale(1 1) rotate(0) translate(4 104)">
<title>Harlinn::Windows::BitmapSelection</title>
<!-- Node1 -->
<g id="Node000001" class="node">
<title>Node1</title>
<g id="a_Node000001"><a xlink:title=" ">
<polygon fill="#999999" stroke="#666666" points="919,-69.5 790,-69.5 790,-39.5 919,-39.5 919,-69.5"/>
<text text-anchor="start" x="798" y="-57.5" font-family="Helvetica,sans-Serif" font-size="10.00">Harlinn::Windows::Bitmap</text>
<text text-anchor="middle" x="854.5" y="-46.5" font-family="Helvetica,sans-Serif" font-size="10.00">Selection</text>
</a>
</g>
</g>
<!-- Node2 -->
<g id="Node000002" class="node">
<title>Node2</title>
<g id="a_Node000002"><a xlink:href="class_harlinn_1_1_windows_1_1_device_context_handle.xhtml" target="_top" xlink:title=" ">
<polygon fill="white" stroke="#666666" points="638,-92.5 511,-92.5 511,-62.5 638,-62.5 638,-92.5"/>
<text text-anchor="start" x="519" y="-80.5" font-family="Helvetica,sans-Serif" font-size="10.00">Harlinn::Windows::Device</text>
<text text-anchor="middle" x="574.5" y="-69.5" font-family="Helvetica,sans-Serif" font-size="10.00">ContextHandle</text>
</a>
</g>
</g>
<!-- Node2&#45;&gt;Node1 -->
<g id="edge1_Node000001_Node000002" class="edge">
<title>Node2&#45;&gt;Node1</title>
<g id="a_edge1_Node000001_Node000002"><a xlink:title=" ">
<path fill="none" stroke="#9a32cd" stroke-dasharray="5,2" d="M649.65,-71.37C693.25,-67.76 747.84,-63.24 789.55,-59.79"/>
<polygon fill="#9a32cd" stroke="#9a32cd" points="649.42,-67.87 639.74,-72.18 650,-74.85 649.42,-67.87"/>
</a>
</g>
<text text-anchor="middle" x="714.5" y="-73.5" font-family="Helvetica,sans-Serif" font-size="10.00" fill="grey"> deviceContext</text>
</g>
<!-- Node3 -->
<g id="Node000003" class="node">
<title>Node3</title>
<g id="a_Node000003"><a xlink:href="class_harlinn_1_1_common_1_1_core_1_1_handle.xhtml" target="_top" xlink:title=" ">
<polygon fill="white" stroke="#666666" points="473,-100 316,-100 316,-59 473,-59 473,-100"/>
<text text-anchor="start" x="324" y="-88" font-family="Helvetica,sans-Serif" font-size="10.00">Harlinn::Common::Core</text>
<text text-anchor="start" x="324" y="-77" font-family="Helvetica,sans-Serif" font-size="10.00">::Handle&lt; DeviceContextHandle,</text>
<text text-anchor="middle" x="394.5" y="-66" font-family="Helvetica,sans-Serif" font-size="10.00"> HDC &gt;</text>
</a>
</g>
</g>
<!-- Node3&#45;&gt;Node2 -->
<g id="edge2_Node000002_Node000003" class="edge">
<title>Node3&#45;&gt;Node2</title>
<g id="a_edge2_Node000002_Node000003"><a xlink:title=" ">
<path fill="none" stroke="#63b8ff" d="M484.74,-78.5C493.45,-78.4 502.16,-78.3 510.54,-78.21"/>
<polygon fill="#63b8ff" stroke="#63b8ff" points="484.79,-75 474.83,-78.61 484.87,-82 484.79,-75"/>
</a>
</g>
</g>
<!-- Node4 -->
<g id="Node000004" class="node">
<title>Node4</title>
<g id="a_Node000004"><a xlink:href="class_harlinn_1_1_common_1_1_core_1_1_handle.xhtml" target="_top" xlink:title=" ">
<polygon fill="white" stroke="#666666" points="149,-64.5 0,-64.5 0,-34.5 149,-34.5 149,-64.5"/>
<text text-anchor="start" x="8" y="-52.5" font-family="Helvetica,sans-Serif" font-size="10.00">Harlinn::Common::Core</text>
<text text-anchor="middle" x="74.5" y="-41.5" font-family="Helvetica,sans-Serif" font-size="10.00">::Handle&lt; DerivedT, HandleT &gt;</text>
</a>
</g>
</g>
<!-- Node4&#45;&gt;Node3 -->
<g id="edge3_Node000003_Node000004" class="edge">
<title>Node4&#45;&gt;Node3</title>
<g id="a_edge3_Node000003_Node000004"><a xlink:title=" ">
<path fill="none" stroke="orange" stroke-dasharray="5,2" d="M160.62,-57.53C208.85,-62.08 268.74,-67.73 315.71,-72.16"/>
<polygon fill="orange" stroke="orange" points="161.05,-54.05 150.76,-56.6 160.39,-61.02 161.05,-54.05"/>
</a>
</g>
<text text-anchor="start" x="178.5" y="-83.5" font-family="Helvetica,sans-Serif" font-size="10.00" fill="grey"> &lt; DeviceContextHandle,</text>
<text text-anchor="middle" x="232.5" y="-72.5" font-family="Helvetica,sans-Serif" font-size="10.00" fill="grey"> HDC &gt;</text>
</g>
<!-- Node6 -->
<g id="Node000006" class="node">
<title>Node6</title>
<g id="a_Node000006"><a xlink:href="class_harlinn_1_1_common_1_1_core_1_1_handle.xhtml" target="_top" xlink:title=" ">
<polygon fill="white" stroke="#666666" points="457,-41 332,-41 332,0 457,0 457,-41"/>
<text text-anchor="start" x="340" y="-29" font-family="Helvetica,sans-Serif" font-size="10.00">Harlinn::Common::Core</text>
<text text-anchor="start" x="340" y="-18" font-family="Helvetica,sans-Serif" font-size="10.00">::Handle&lt; BitmapHandle,</text>
<text text-anchor="middle" x="394.5" y="-7" font-family="Helvetica,sans-Serif" font-size="10.00"> HBITMAP &gt;</text>
</a>
</g>
</g>
<!-- Node4&#45;&gt;Node6 -->
<g id="edge6_Node000006_Node000004" class="edge">
<title>Node4&#45;&gt;Node6</title>
<g id="a_edge6_Node000006_Node000004"><a xlink:title=" ">
<path fill="none" stroke="orange" stroke-dasharray="5,2" d="M160.76,-40.11C162.86,-39.9 164.94,-39.7 167,-39.5 222.78,-34.11 286.36,-28.86 331.94,-25.24"/>
<polygon fill="orange" stroke="orange" points="160.5,-36.62 150.9,-41.11 161.2,-43.58 160.5,-36.62"/>
</a>
</g>
<text text-anchor="middle" x="232.5" y="-42.5" font-family="Helvetica,sans-Serif" font-size="10.00" fill="grey"> &lt; BitmapHandle, HBITMAP &gt;</text>
</g>
<!-- Node5 -->
<g id="Node000005" class="node">
<title>Node5</title>
<g id="a_Node000005"><a xlink:href="class_harlinn_1_1_windows_1_1_bitmap_handle.xhtml" target="_top" xlink:title=" ">
<polygon fill="white" stroke="#666666" points="639,-43.5 510,-43.5 510,-13.5 639,-13.5 639,-43.5"/>
<text text-anchor="start" x="518" y="-31.5" font-family="Helvetica,sans-Serif" font-size="10.00">Harlinn::Windows::Bitmap</text>
<text text-anchor="middle" x="574.5" y="-20.5" font-family="Helvetica,sans-Serif" font-size="10.00">Handle</text>
</a>
</g>
</g>
<!-- Node5&#45;&gt;Node1 -->
<g id="edge4_Node000001_Node000005" class="edge">
<title>Node5&#45;&gt;Node1</title>
<g id="a_edge4_Node000001_Node000005"><a xlink:title=" ">
<path fill="none" stroke="#9a32cd" stroke-dasharray="5,2" d="M650.36,-34.56C687.04,-37.63 731.85,-41.55 772,-45.5 777.81,-46.07 783.85,-46.69 789.89,-47.33"/>
<polygon fill="#9a32cd" stroke="#9a32cd" points="651.02,-31.1 640.76,-33.76 650.44,-38.08 651.02,-31.1"/>
</a>
</g>
<text text-anchor="middle" x="714.5" y="-48.5" font-family="Helvetica,sans-Serif" font-size="10.00" fill="grey"> previouslySelectedBitmap</text>
</g>
<!-- Node6&#45;&gt;Node5 -->
<g id="edge5_Node000005_Node000006" class="edge">
<title>Node6&#45;&gt;Node5</title>
<g id="a_edge5_Node000005_Node000006"><a xlink:title=" ">
<path fill="none" stroke="#63b8ff" d="M468.57,-23.78C482.23,-24.4 496.39,-25.03 509.74,-25.63"/>
<polygon fill="#63b8ff" stroke="#63b8ff" points="468.92,-20.3 458.77,-23.34 468.6,-27.29 468.92,-20.3"/>
</a>
</g>
</g>
</g>
</svg>
