<?xml version="1.0" encoding="UTF-8" standalone="no"?>
<!DOCTYPE svg PUBLIC "-//W3C//DTD SVG 1.1//EN"
 "http://www.w3.org/Graphics/SVG/1.1/DTD/svg11.dtd">
<!-- Generated by graphviz version 7.0.1 (20221109.1506)
 -->
<!-- Title: Harlinn::Windows::TextEditWindowClass Pages: 1 -->
<svg width="410pt" height="515pt"
 viewBox="0.00 0.00 409.50 515.00" xmlns="http://www.w3.org/2000/svg" xmlns:xlink="http://www.w3.org/1999/xlink">
<g id="graph0" class="graph" transform="scale(1 1) rotate(0) translate(4 511)">
<title>Harlinn::Windows::TextEditWindowClass</title>
<!-- Node1 -->
<g id="Node000001" class="node">
<title>Node1</title>
<g id="a_Node000001"><a xlink:title=" ">
<polygon fill="#999999" stroke="#666666" points="134,-30 0,-30 0,0 134,0 134,-30"/>
<text text-anchor="start" x="8" y="-18" font-family="Helvetica,sans-Serif" font-size="10.00">Harlinn::Windows::TextEdit</text>
<text text-anchor="middle" x="67" y="-7" font-family="Helvetica,sans-Serif" font-size="10.00">WindowClass</text>
</a>
</g>
</g>
<!-- Node2 -->
<g id="Node000002" class="node">
<title>Node2</title>
<g id="a_Node000002"><a xlink:href="class_harlinn_1_1_windows_1_1_window_class.html" target="_top" xlink:title=" ">
<polygon fill="white" stroke="#666666" points="221.5,-97 88.5,-97 88.5,-67 221.5,-67 221.5,-97"/>
<text text-anchor="start" x="96.5" y="-85" font-family="Helvetica,sans-Serif" font-size="10.00">Harlinn::Windows::Window</text>
<text text-anchor="middle" x="155" y="-74" font-family="Helvetica,sans-Serif" font-size="10.00">Class</text>
</a>
</g>
</g>
<!-- Node2&#45;&gt;Node1 -->
<g id="edge1_Node000001_Node000002" class="edge">
<title>Node2&#45;&gt;Node1</title>
<g id="a_edge1_Node000001_Node000002"><a xlink:title=" ">
<path fill="none" stroke="#63b8ff" d="M126.4,-59.88C113.34,-50.23 98.2,-39.05 86.48,-30.39"/>
<polygon fill="#63b8ff" stroke="#63b8ff" points="124.13,-62.55 134.25,-65.68 128.29,-56.92 124.13,-62.55"/>
</a>
</g>
</g>
<!-- Node3 -->
<g id="Node000003" class="node">
<title>Node3</title>
<g id="a_Node000003"><a xlink:href="class_harlinn_1_1_common_1_1_core_1_1_basic_string.html" target="_top" xlink:title=" ">
<polygon fill="white" stroke="#666666" points="401.5,-236 276.5,-236 276.5,-206 401.5,-206 401.5,-236"/>
<text text-anchor="start" x="284.5" y="-224" font-family="Helvetica,sans-Serif" font-size="10.00">Harlinn::Common::Core</text>
<text text-anchor="middle" x="339" y="-213" font-family="Helvetica,sans-Serif" font-size="10.00">::BasicString&lt; wchar_t &gt;</text>
</a>
</g>
</g>
<!-- Node3&#45;&gt;Node2 -->
<g id="edge2_Node000002_Node000003" class="edge">
<title>Node3&#45;&gt;Node2</title>
<g id="a_edge2_Node000002_Node000003"><a xlink:title=" ">
<path fill="none" stroke="#9a32cd" stroke-dasharray="5,2" d="M314.31,-197.98C299.48,-185.04 280.04,-168.62 262,-155 233.95,-133.82 200.06,-111.54 178.04,-97.47"/>
<polygon fill="#9a32cd" stroke="#9a32cd" points="311.94,-200.55 321.76,-204.52 316.56,-195.29 311.94,-200.55"/>
</a>
</g>
<text text-anchor="middle" x="266" y="-129" font-family="Helvetica,sans-Serif" font-size="10.00" fill="grey"> menuName_</text>
<text text-anchor="middle" x="266" y="-118" font-family="Helvetica,sans-Serif" font-size="10.00" fill="grey">name_</text>
</g>
<!-- Node4 -->
<g id="Node000004" class="node">
<title>Node4</title>
<g id="a_Node000004"><a xlink:href="struct_harlinn_1_1_common_1_1_core_1_1_internal_1_1_data.html" target="_top" xlink:title=" ">
<polygon fill="white" stroke="#666666" points="306,-441 188,-441 188,-411 306,-411 306,-441"/>
<text text-anchor="start" x="196" y="-429" font-family="Helvetica,sans-Serif" font-size="10.00">Harlinn::Common::Core</text>
<text text-anchor="middle" x="247" y="-418" font-family="Helvetica,sans-Serif" font-size="10.00">::Internal::Data&lt; T &gt;</text>
</a>
</g>
</g>
<!-- Node4&#45;&gt;Node3 -->
<g id="edge3_Node000003_Node000004" class="edge">
<title>Node4&#45;&gt;Node3</title>
<g id="a_edge3_Node000003_Node000004"><a xlink:title=" ">
<path fill="none" stroke="#9a32cd" stroke-dasharray="5,2" d="M258.17,-400.36C277.6,-357.48 317.04,-270.46 332.54,-236.26"/>
<polygon fill="#9a32cd" stroke="#9a32cd" points="255.03,-398.79 254.09,-409.35 261.41,-401.68 255.03,-398.79"/>
</a>
</g>
<text text-anchor="middle" x="301" y="-346.5" font-family="Helvetica,sans-Serif" font-size="10.00" fill="grey"> data_</text>
</g>
<!-- Node6 -->
<g id="Node000006" class="node">
<title>Node6</title>
<g id="a_Node000006"><a xlink:href="class_harlinn_1_1_common_1_1_core_1_1_basic_string.html" target="_top" xlink:title="This is a reference counted string class.">
<polygon fill="white" stroke="#666666" points="244,-364 126,-364 126,-334 244,-334 244,-364"/>
<text text-anchor="start" x="134" y="-352" font-family="Helvetica,sans-Serif" font-size="10.00">Harlinn::Common::Core</text>
<text text-anchor="middle" x="185" y="-341" font-family="Helvetica,sans-Serif" font-size="10.00">::BasicString&lt; T &gt;</text>
</a>
</g>
</g>
<!-- Node4&#45;&gt;Node6 -->
<g id="edge6_Node000006_Node000004" class="edge">
<title>Node4&#45;&gt;Node6</title>
<g id="a_edge6_Node000006_Node000004"><a xlink:title=" ">
<path fill="none" stroke="#9a32cd" stroke-dasharray="5,2" d="M227.8,-401.77C217.71,-389.57 205.66,-374.99 196.92,-364.42"/>
<polygon fill="#9a32cd" stroke="#9a32cd" points="225.01,-403.9 234.08,-409.37 230.41,-399.44 225.01,-403.9"/>
</a>
</g>
<text text-anchor="middle" x="234" y="-385" font-family="Helvetica,sans-Serif" font-size="10.00" fill="grey"> data_</text>
</g>
<!-- Node5 -->
<g id="Node000005" class="node">
<title>Node5</title>
<g id="a_Node000005"><a xlink:title=" ">
<polygon fill="white" stroke="#666666" points="261.5,-507 232.5,-507 232.5,-488 261.5,-488 261.5,-507"/>
<text text-anchor="middle" x="247" y="-495" font-family="Helvetica,sans-Serif" font-size="10.00">T</text>
</a>
</g>
</g>
<!-- Node5&#45;&gt;Node4 -->
<g id="edge4_Node000004_Node000005" class="edge">
<title>Node5&#45;&gt;Node4</title>
<g id="a_edge4_Node000004_Node000005"><a xlink:title=" ">
<path fill="none" stroke="#9a32cd" stroke-dasharray="5,2" d="M247,-476.39C247,-465.15 247,-451.41 247,-441.27"/>
<polygon fill="#9a32cd" stroke="#9a32cd" points="243.5,-476.18 247,-486.18 250.5,-476.18 243.5,-476.18"/>
</a>
</g>
<text text-anchor="middle" x="263" y="-462" font-family="Helvetica,sans-Serif" font-size="10.00" fill="grey"> buffer_</text>
</g>
<!-- Node6&#45;&gt;Node1 -->
<g id="edge8_Node000001_Node000006" class="edge">
<title>Node6&#45;&gt;Node1</title>
<g id="a_edge8_Node000001_Node000006"><a xlink:title=" ">
<path fill="none" stroke="#9a32cd" stroke-dasharray="5,2" d="M166.31,-324.88C137.75,-287.88 84.5,-211.87 65,-137 55.26,-99.59 60.55,-53.45 64.3,-30.45"/>
<polygon fill="#9a32cd" stroke="#9a32cd" points="163.48,-326.94 172.4,-332.65 168.98,-322.62 163.48,-326.94"/>
</a>
</g>
<text text-anchor="middle" x="107.5" y="-123.5" font-family="Helvetica,sans-Serif" font-size="10.00" fill="grey"> windowClassName</text>
</g>
<!-- Node6&#45;&gt;Node2 -->
<g id="edge7_Node000002_Node000006" class="edge">
<title>Node6&#45;&gt;Node2</title>
<g id="a_edge7_Node000002_Node000006"><a xlink:title=" ">
<path fill="none" stroke="#9a32cd" stroke-dasharray="5,2" d="M174.69,-323.31C170.6,-312.38 166.33,-299.25 164,-287 150.63,-216.65 152.76,-130.31 154.25,-97.01"/>
<polygon fill="#9a32cd" stroke="#9a32cd" points="171.33,-324.33 178.24,-332.37 177.85,-321.78 171.33,-324.33"/>
</a>
</g>
<text text-anchor="middle" x="215.5" y="-279" font-family="Helvetica,sans-Serif" font-size="10.00" fill="grey"> animate_class_name</text>
<text text-anchor="middle" x="215.5" y="-268" font-family="Helvetica,sans-Serif" font-size="10.00" fill="grey">button_class_name</text>
<text text-anchor="middle" x="215.5" y="-257" font-family="Helvetica,sans-Serif" font-size="10.00" fill="grey">combobox_class_name</text>
<text text-anchor="start" x="164" y="-246" font-family="Helvetica,sans-Serif" font-size="10.00" fill="grey">datetimepick_class</text>
<text text-anchor="middle" x="215.5" y="-235" font-family="Helvetica,sans-Serif" font-size="10.00" fill="grey">_name</text>
<text text-anchor="middle" x="215.5" y="-224" font-family="Helvetica,sans-Serif" font-size="10.00" fill="grey">edit_class_name</text>
<text text-anchor="middle" x="215.5" y="-213" font-family="Helvetica,sans-Serif" font-size="10.00" fill="grey">header_class_name</text>
<text text-anchor="middle" x="215.5" y="-202" font-family="Helvetica,sans-Serif" font-size="10.00" fill="grey">hotkey_class_name</text>
<text text-anchor="middle" x="215.5" y="-191" font-family="Helvetica,sans-Serif" font-size="10.00" fill="grey">ipaddress_class_name</text>
<text text-anchor="middle" x="215.5" y="-180" font-family="Helvetica,sans-Serif" font-size="10.00" fill="grey">link_class_name</text>
<text text-anchor="middle" x="215.5" y="-169" font-family="Helvetica,sans-Serif" font-size="10.00" fill="grey">listbox_class_name</text>
<text text-anchor="middle" x="215.5" y="-158" font-family="Helvetica,sans-Serif" font-size="10.00" fill="grey">...</text>
</g>
<!-- Node6&#45;&gt;Node3 -->
<g id="edge5_Node000003_Node000006" class="edge">
<title>Node6&#45;&gt;Node3</title>
<g id="a_edge5_Node000003_Node000006"><a xlink:title=" ">
<path fill="none" stroke="orange" stroke-dasharray="5,2" d="M212.17,-326.81C226.99,-315.17 245.6,-300.41 262,-287 282.99,-269.83 306.79,-249.63 322.3,-236.35"/>
<polygon fill="orange" stroke="orange" points="210.39,-323.76 204.68,-332.68 214.71,-329.27 210.39,-323.76"/>
</a>
</g>
<text text-anchor="middle" x="266.5" y="-308" font-family="Helvetica,sans-Serif" font-size="10.00" fill="grey"> &lt; wchar_t &gt;</text>
</g>
</g>
</svg>
