<?xml version="1.0" encoding="UTF-8" standalone="no"?>
<!DOCTYPE svg PUBLIC "-//W3C//DTD SVG 1.1//EN"
 "http://www.w3.org/Graphics/SVG/1.1/DTD/svg11.dtd">
<!-- Generated by graphviz version 7.0.1 (20221109.1506)
 -->
<!-- Title: Harlinn::Windows::Graphics::D3D11::UnorderedAccessView1 Pages: 1 -->
<svg width="169pt" height="302pt"
 viewBox="0.00 0.00 169.00 302.00" xmlns="http://www.w3.org/2000/svg" xmlns:xlink="http://www.w3.org/1999/xlink">
<g id="graph0" class="graph" transform="scale(1 1) rotate(0) translate(4 298)">
<title>Harlinn::Windows::Graphics::D3D11::UnorderedAccessView1</title>
<!-- Node1 -->
<g id="Node000001" class="node">
<title>Node1</title>
<g id="a_Node000001"><a xlink:title="An unordered&#45;access&#45;view object represents the parts of a resource the pipeline can access during ren...">
<polygon fill="#999999" stroke="#666666" points="161,-30 0,-30 0,0 161,0 161,-30"/>
<text text-anchor="start" x="8" y="-18" font-family="Helvetica,sans-Serif" font-size="10.00">Harlinn::Windows::Graphics</text>
<text text-anchor="middle" x="80.5" y="-7" font-family="Helvetica,sans-Serif" font-size="10.00">::D3D11::UnorderedAccessView1</text>
</a>
</g>
</g>
<!-- Node2 -->
<g id="Node000002" class="node">
<title>Node2</title>
<g id="a_Node000002"><a xlink:href="class_harlinn_1_1_windows_1_1_graphics_1_1_d3_d11_1_1_unordered_access_view.html" target="_top" xlink:title="A view object specifies the parts of a resource the pipeline can access during rendering.">
<polygon fill="white" stroke="#666666" points="158.5,-96 2.5,-96 2.5,-66 158.5,-66 158.5,-96"/>
<text text-anchor="start" x="10.5" y="-84" font-family="Helvetica,sans-Serif" font-size="10.00">Harlinn::Windows::Graphics</text>
<text text-anchor="middle" x="80.5" y="-73" font-family="Helvetica,sans-Serif" font-size="10.00">::D3D11::UnorderedAccessView</text>
</a>
</g>
</g>
<!-- Node2&#45;&gt;Node1 -->
<g id="edge1_Node000001_Node000002" class="edge">
<title>Node2&#45;&gt;Node1</title>
<g id="a_edge1_Node000001_Node000002"><a xlink:title=" ">
<path fill="none" stroke="#63b8ff" d="M80.5,-54.39C80.5,-46.13 80.5,-37.28 80.5,-30.16"/>
<polygon fill="#63b8ff" stroke="#63b8ff" points="77,-54.28 80.5,-64.28 84,-54.28 77,-54.28"/>
</a>
</g>
</g>
<!-- Node3 -->
<g id="Node000003" class="node">
<title>Node3</title>
<g id="a_Node000003"><a xlink:href="class_harlinn_1_1_windows_1_1_graphics_1_1_d3_d11_1_1_view.html" target="_top" xlink:title="A view object specifies the parts of a resource the pipeline can access during rendering.">
<polygon fill="white" stroke="#666666" points="149,-162 12,-162 12,-132 149,-132 149,-162"/>
<text text-anchor="start" x="20" y="-150" font-family="Helvetica,sans-Serif" font-size="10.00">Harlinn::Windows::Graphics</text>
<text text-anchor="middle" x="80.5" y="-139" font-family="Helvetica,sans-Serif" font-size="10.00">::D3D11::View</text>
</a>
</g>
</g>
<!-- Node3&#45;&gt;Node2 -->
<g id="edge2_Node000002_Node000003" class="edge">
<title>Node3&#45;&gt;Node2</title>
<g id="a_edge2_Node000002_Node000003"><a xlink:title=" ">
<path fill="none" stroke="#63b8ff" d="M80.5,-120.39C80.5,-112.13 80.5,-103.28 80.5,-96.16"/>
<polygon fill="#63b8ff" stroke="#63b8ff" points="77,-120.28 80.5,-130.28 84,-120.28 77,-120.28"/>
</a>
</g>
</g>
<!-- Node4 -->
<g id="Node000004" class="node">
<title>Node4</title>
<g id="a_Node000004"><a xlink:href="class_harlinn_1_1_windows_1_1_graphics_1_1_d3_d11_1_1_device_child.html" target="_top" xlink:title="A device&#45;child object accesses data used by a device.">
<polygon fill="white" stroke="#666666" points="149,-228 12,-228 12,-198 149,-198 149,-228"/>
<text text-anchor="start" x="20" y="-216" font-family="Helvetica,sans-Serif" font-size="10.00">Harlinn::Windows::Graphics</text>
<text text-anchor="middle" x="80.5" y="-205" font-family="Helvetica,sans-Serif" font-size="10.00">::D3D11::DeviceChild</text>
</a>
</g>
</g>
<!-- Node4&#45;&gt;Node3 -->
<g id="edge3_Node000003_Node000004" class="edge">
<title>Node4&#45;&gt;Node3</title>
<g id="a_edge3_Node000003_Node000004"><a xlink:title=" ">
<path fill="none" stroke="#63b8ff" d="M80.5,-186.39C80.5,-178.13 80.5,-169.28 80.5,-162.16"/>
<polygon fill="#63b8ff" stroke="#63b8ff" points="77,-186.28 80.5,-196.28 84,-186.28 77,-186.28"/>
</a>
</g>
</g>
<!-- Node5 -->
<g id="Node000005" class="node">
<title>Node5</title>
<g id="a_Node000005"><a xlink:href="class_harlinn_1_1_common_1_1_core_1_1_unknown.html" target="_top" xlink:title="Base class for COM interface wrappers.">
<polygon fill="white" stroke="#666666" points="139.5,-294 21.5,-294 21.5,-264 139.5,-264 139.5,-294"/>
<text text-anchor="start" x="29.5" y="-282" font-family="Helvetica,sans-Serif" font-size="10.00">Harlinn::Common::Core</text>
<text text-anchor="middle" x="80.5" y="-271" font-family="Helvetica,sans-Serif" font-size="10.00">::Unknown</text>
</a>
</g>
</g>
<!-- Node5&#45;&gt;Node4 -->
<g id="edge4_Node000004_Node000005" class="edge">
<title>Node5&#45;&gt;Node4</title>
<g id="a_edge4_Node000004_Node000005"><a xlink:title=" ">
<path fill="none" stroke="#63b8ff" d="M80.5,-252.39C80.5,-244.13 80.5,-235.28 80.5,-228.16"/>
<polygon fill="#63b8ff" stroke="#63b8ff" points="77,-252.28 80.5,-262.28 84,-252.28 77,-252.28"/>
</a>
</g>
</g>
</g>
</svg>
