<?xml version="1.0" encoding="UTF-8" standalone="no"?>
<!DOCTYPE svg PUBLIC "-//W3C//DTD SVG 1.1//EN"
 "http://www.w3.org/Graphics/SVG/1.1/DTD/svg11.dtd">
<!-- Generated by graphviz version 7.0.1 (20221109.1506)
 -->
<!-- Title: Harlinn::Common::Core::Math::Vector&lt; float, 3 &gt; Pages: 1 -->
<svg width="255pt" height="435pt"
 viewBox="0.00 0.00 254.50 435.00" xmlns="http://www.w3.org/2000/svg" xmlns:xlink="http://www.w3.org/1999/xlink">
<g id="graph0" class="graph" transform="scale(1 1) rotate(0) translate(4 431)">
<title>Harlinn::Common::Core::Math::Vector&lt; float, 3 &gt;</title>
<!-- Node1 -->
<g id="Node000001" class="node">
<title>Node1</title>
<g id="a_Node000001"><a xlink:title=" ">
<polygon fill="#999999" stroke="#666666" points="131,-30 5,-30 5,0 131,0 131,-30"/>
<text text-anchor="start" x="13" y="-18" font-family="Helvetica,sans-Serif" font-size="10.00">Harlinn::Common::Core</text>
<text text-anchor="middle" x="68" y="-7" font-family="Helvetica,sans-Serif" font-size="10.00">::Math::Vector&lt; float, 3 &gt;</text>
</a>
</g>
</g>
<!-- Node2 -->
<g id="Node000002" class="node">
<title>Node2</title>
<g id="a_Node000002"><a xlink:href="class_harlinn_1_1_common_1_1_core_1_1_math_1_1_tuple3.html" target="_top" xlink:title=" ">
<polygon fill="white" stroke="#666666" points="127,-108 9,-108 9,-67 127,-67 127,-108"/>
<text text-anchor="start" x="17" y="-96" font-family="Helvetica,sans-Serif" font-size="10.00">Harlinn::Common::Core</text>
<text text-anchor="start" x="17" y="-85" font-family="Helvetica,sans-Serif" font-size="10.00">::Math::Tuple3&lt; Vector</text>
<text text-anchor="middle" x="68" y="-74" font-family="Helvetica,sans-Serif" font-size="10.00">&lt; float, 3 &gt;, float &gt;</text>
</a>
</g>
</g>
<!-- Node2&#45;&gt;Node1 -->
<g id="edge1_Node000001_Node000002" class="edge">
<title>Node2&#45;&gt;Node1</title>
<g id="a_edge1_Node000001_Node000002"><a xlink:title=" ">
<path fill="none" stroke="#63b8ff" d="M68,-55.39C68,-46.68 68,-37.62 68,-30.39"/>
<polygon fill="#63b8ff" stroke="#63b8ff" points="64.5,-55.35 68,-65.35 71.5,-55.35 64.5,-55.35"/>
</a>
</g>
</g>
<!-- Node3 -->
<g id="Node000003" class="node">
<title>Node3</title>
<g id="a_Node000003"><a xlink:title=" ">
<polygon fill="white" stroke="#666666" points="116,-273 0,-273 0,-243 116,-243 116,-273"/>
<text text-anchor="start" x="8" y="-261" font-family="Helvetica,sans-Serif" font-size="10.00">std::array&lt; value_type,</text>
<text text-anchor="middle" x="58" y="-250" font-family="Helvetica,sans-Serif" font-size="10.00"> Size &gt;</text>
</a>
</g>
</g>
<!-- Node3&#45;&gt;Node2 -->
<g id="edge2_Node000002_Node000003" class="edge">
<title>Node3&#45;&gt;Node2</title>
<g id="a_edge2_Node000002_Node000003"><a xlink:title=" ">
<path fill="none" stroke="#9a32cd" stroke-dasharray="5,2" d="M58.45,-231.39C58.87,-213.14 59.64,-188.05 61,-166 62.21,-146.31 64.32,-123.87 65.91,-108.23"/>
<polygon fill="#9a32cd" stroke="#9a32cd" points="54.96,-231.22 58.25,-241.29 61.96,-231.36 54.96,-231.22"/>
</a>
</g>
<text text-anchor="middle" x="76.5" y="-178.5" font-family="Helvetica,sans-Serif" font-size="10.00" fill="grey"> values</text>
</g>
<!-- Node6 -->
<g id="Node000006" class="node">
<title>Node6</title>
<g id="a_Node000006"><a xlink:href="class_harlinn_1_1_common_1_1_core_1_1_math_1_1_tuple3.html" target="_top" xlink:title=" ">
<polygon fill="white" stroke="#666666" points="246.5,-196 101.5,-196 101.5,-166 246.5,-166 246.5,-196"/>
<text text-anchor="start" x="109.5" y="-184" font-family="Helvetica,sans-Serif" font-size="10.00">Harlinn::Common::Core</text>
<text text-anchor="middle" x="174" y="-173" font-family="Helvetica,sans-Serif" font-size="10.00">::Math::Tuple3&lt; DerivedT, T &gt;</text>
</a>
</g>
</g>
<!-- Node3&#45;&gt;Node6 -->
<g id="edge6_Node000006_Node000003" class="edge">
<title>Node3&#45;&gt;Node6</title>
<g id="a_edge6_Node000006_Node000003"><a xlink:title=" ">
<path fill="none" stroke="#9a32cd" stroke-dasharray="5,2" d="M89.82,-236.42C109.45,-223.73 134.15,-207.77 151.7,-196.42"/>
<polygon fill="#9a32cd" stroke="#9a32cd" points="88.13,-233.35 81.64,-241.72 91.93,-239.23 88.13,-233.35"/>
</a>
</g>
<text text-anchor="middle" x="137.5" y="-217" font-family="Helvetica,sans-Serif" font-size="10.00" fill="grey"> values</text>
</g>
<!-- Node4 -->
<g id="Node000004" class="node">
<title>Node4</title>
<g id="a_Node000004"><a xlink:title=" ">
<polygon fill="white" stroke="#666666" points="122.5,-361 41.5,-361 41.5,-342 122.5,-342 122.5,-361"/>
<text text-anchor="middle" x="82" y="-349" font-family="Helvetica,sans-Serif" font-size="10.00">std::array&lt; T &gt;</text>
</a>
</g>
</g>
<!-- Node4&#45;&gt;Node3 -->
<g id="edge3_Node000003_Node000004" class="edge">
<title>Node4&#45;&gt;Node3</title>
<g id="a_edge3_Node000003_Node000004"><a xlink:title=" ">
<path fill="none" stroke="orange" stroke-dasharray="5,2" d="M64.08,-333.12C62.02,-330.27 60.22,-327.2 59,-324 52.71,-307.55 53.72,-287.01 55.46,-273.48"/>
<polygon fill="orange" stroke="orange" points="61.43,-335.41 70.64,-340.65 66.71,-330.81 61.43,-335.41"/>
</a>
</g>
<text text-anchor="middle" x="105.5" y="-305" font-family="Helvetica,sans-Serif" font-size="10.00" fill="grey"> &lt; value_type, Size &gt;</text>
</g>
<!-- Node5 -->
<g id="Node000005" class="node">
<title>Node5</title>
<g id="a_Node000005"><a xlink:title=" ">
<polygon fill="white" stroke="#666666" points="154.5,-427 125.5,-427 125.5,-408 154.5,-408 154.5,-427"/>
<text text-anchor="middle" x="140" y="-415" font-family="Helvetica,sans-Serif" font-size="10.00">T</text>
</a>
</g>
</g>
<!-- Node5&#45;&gt;Node4 -->
<g id="edge4_Node000004_Node000005" class="edge">
<title>Node5&#45;&gt;Node4</title>
<g id="a_edge4_Node000004_Node000005"><a xlink:title=" ">
<path fill="none" stroke="#9a32cd" stroke-dasharray="5,2" d="M124.25,-399.12C113.17,-386.89 98.8,-371.04 90,-361.32"/>
<polygon fill="#9a32cd" stroke="#9a32cd" points="121.61,-401.42 130.92,-406.48 126.8,-396.72 121.61,-401.42"/>
</a>
</g>
<text text-anchor="middle" x="136.5" y="-382" font-family="Helvetica,sans-Serif" font-size="10.00" fill="grey"> elements</text>
</g>
<!-- Node5&#45;&gt;Node6 -->
<g id="edge7_Node000006_Node000005" class="edge">
<title>Node5&#45;&gt;Node6</title>
<g id="a_edge7_Node000006_Node000005"><a xlink:title=" ">
<path fill="none" stroke="#9a32cd" stroke-dasharray="5,2" d="M155.28,-399.1C157.16,-396.22 158.83,-393.14 160,-390 185.6,-321.33 179.46,-231.15 175.78,-196.46"/>
<polygon fill="#9a32cd" stroke="#9a32cd" points="152.71,-396.7 149.4,-406.77 158.26,-400.96 152.71,-396.7"/>
</a>
</g>
<text text-anchor="middle" x="182.5" y="-316" font-family="Helvetica,sans-Serif" font-size="10.00" fill="grey"> x</text>
<text text-anchor="middle" x="182.5" y="-305" font-family="Helvetica,sans-Serif" font-size="10.00" fill="grey">y</text>
<text text-anchor="middle" x="182.5" y="-294" font-family="Helvetica,sans-Serif" font-size="10.00" fill="grey">z</text>
</g>
<!-- Node6&#45;&gt;Node2 -->
<g id="edge5_Node000002_Node000006" class="edge">
<title>Node6&#45;&gt;Node2</title>
<g id="a_edge5_Node000002_Node000006"><a xlink:title=" ">
<path fill="none" stroke="orange" stroke-dasharray="5,2" d="M148.86,-158.3C131.35,-143.19 108.18,-123.18 91.13,-108.47"/>
<polygon fill="orange" stroke="orange" points="146.43,-160.83 156.29,-164.71 151.01,-155.53 146.43,-160.83"/>
</a>
</g>
<text text-anchor="start" x="136" y="-140" font-family="Helvetica,sans-Serif" font-size="10.00" fill="grey"> &lt; Vector&lt; float, 3</text>
<text text-anchor="middle" x="175.5" y="-129" font-family="Helvetica,sans-Serif" font-size="10.00" fill="grey"> &gt;, float &gt;</text>
</g>
</g>
</svg>
