<?xml version="1.0" encoding="UTF-8" standalone="no"?>
<!DOCTYPE svg PUBLIC "-//W3C//DTD SVG 1.1//EN"
 "http://www.w3.org/Graphics/SVG/1.1/DTD/svg11.dtd">
<!-- Generated by graphviz version 7.0.1 (20221109.1506)
 -->
<!-- Title: Harlinn::AI::Meta::Metadata Pages: 1 -->
<svg width="1599pt" height="261pt"
 viewBox="0.00 0.00 1599.00 261.00" xmlns="http://www.w3.org/2000/svg" xmlns:xlink="http://www.w3.org/1999/xlink">
<g id="graph0" class="graph" transform="scale(1 1) rotate(0) translate(4 257)">
<title>Harlinn::AI::Meta::Metadata</title>
<!-- Node1 -->
<g id="Node000001" class="node">
<title>Node1</title>
<g id="a_Node000001"><a xlink:title="Provides access to metadata for a Session, including the type information about the inputs and output...">
<polygon fill="#999999" stroke="#666666" points="1591,-177 1496,-177 1496,-147 1591,-147 1591,-177"/>
<text text-anchor="start" x="1504" y="-165" font-family="Helvetica,sans-Serif" font-size="10.00">Harlinn::AI::Meta::</text>
<text text-anchor="middle" x="1543.5" y="-154" font-family="Helvetica,sans-Serif" font-size="10.00">Metadata</text>
</a>
</g>
</g>
<!-- Node2 -->
<g id="Node000002" class="node">
<title>Node2</title>
<g id="a_Node000002"><a xlink:title=" ">
<polygon fill="white" stroke="#666666" points="1365,-245 1245,-245 1245,-215 1365,-215 1365,-245"/>
<text text-anchor="start" x="1253" y="-233" font-family="Helvetica,sans-Serif" font-size="10.00">std::enable_shared</text>
<text text-anchor="middle" x="1305" y="-222" font-family="Helvetica,sans-Serif" font-size="10.00">_from_this&lt; Metadata &gt;</text>
</a>
</g>
</g>
<!-- Node2&#45;&gt;Node1 -->
<g id="edge1_Node000001_Node000002" class="edge">
<title>Node2&#45;&gt;Node1</title>
<g id="a_edge1_Node000001_Node000002"><a xlink:title=" ">
<path fill="none" stroke="#63b8ff" d="M1376.55,-224.17C1408.28,-220.02 1445.76,-212.97 1478,-201 1493.58,-195.22 1509.58,-185.57 1521.74,-177.32"/>
<polygon fill="#63b8ff" stroke="#63b8ff" points="1376.15,-220.69 1366.65,-225.39 1377,-227.64 1376.15,-220.69"/>
</a>
</g>
</g>
<!-- Node3 -->
<g id="Node000003" class="node">
<title>Node3</title>
<g id="a_Node000003"><a xlink:href="class_harlinn_1_1_common_1_1_core_1_1_basic_string.html" target="_top" xlink:title=" ">
<polygon fill="white" stroke="#666666" points="754.5,-194 636.5,-194 636.5,-164 754.5,-164 754.5,-194"/>
<text text-anchor="start" x="644.5" y="-182" font-family="Helvetica,sans-Serif" font-size="10.00">Harlinn::Common::Core</text>
<text text-anchor="middle" x="695.5" y="-171" font-family="Helvetica,sans-Serif" font-size="10.00">::BasicString&lt; char &gt;</text>
</a>
</g>
</g>
<!-- Node3&#45;&gt;Node1 -->
<g id="edge2_Node000001_Node000003" class="edge">
<title>Node3&#45;&gt;Node1</title>
<g id="a_edge2_Node000001_Node000003"><a xlink:title=" ">
<path fill="none" stroke="#9a32cd" stroke-dasharray="5,2" d="M766.24,-182.59C813.44,-184.72 877.21,-187 933.5,-187 933.5,-187 933.5,-187 1306,-187 1382.7,-187 1401.9,-182.57 1478,-173 1483.75,-172.28 1489.77,-171.41 1495.72,-170.47"/>
<polygon fill="#9a32cd" stroke="#9a32cd" points="766.58,-179.1 756.43,-182.14 766.26,-186.1 766.58,-179.1"/>
</a>
</g>
<text text-anchor="middle" x="1099.5" y="-245" font-family="Helvetica,sans-Serif" font-size="10.00" fill="grey"> description_</text>
<text text-anchor="middle" x="1099.5" y="-234" font-family="Helvetica,sans-Serif" font-size="10.00" fill="grey">domain_</text>
<text text-anchor="start" x="1063" y="-223" font-family="Helvetica,sans-Serif" font-size="10.00" fill="grey">graphDescription</text>
<text text-anchor="middle" x="1099.5" y="-212" font-family="Helvetica,sans-Serif" font-size="10.00" fill="grey">_</text>
<text text-anchor="middle" x="1099.5" y="-201" font-family="Helvetica,sans-Serif" font-size="10.00" fill="grey">graphName_</text>
<text text-anchor="middle" x="1099.5" y="-190" font-family="Helvetica,sans-Serif" font-size="10.00" fill="grey">producerName_</text>
</g>
<!-- Node12 -->
<g id="Node000012" class="node">
<title>Node12</title>
<g id="a_Node000012"><a xlink:href="class_harlinn_1_1_a_i_1_1_meta_1_1_type_info_base.html" target="_top" xlink:title=" ">
<polygon fill="white" stroke="#666666" points="982,-151 887,-151 887,-121 982,-121 982,-151"/>
<text text-anchor="start" x="895" y="-139" font-family="Helvetica,sans-Serif" font-size="10.00">Harlinn::AI::Meta::</text>
<text text-anchor="middle" x="934.5" y="-128" font-family="Helvetica,sans-Serif" font-size="10.00">TypeInfoBase</text>
</a>
</g>
</g>
<!-- Node3&#45;&gt;Node12 -->
<g id="edge16_Node000012_Node000003" class="edge">
<title>Node3&#45;&gt;Node12</title>
<g id="a_edge16_Node000012_Node000003"><a xlink:title=" ">
<path fill="none" stroke="#9a32cd" stroke-dasharray="5,2" d="M765.85,-165.4C771.99,-164.23 778.1,-163.09 784,-162 818.33,-155.68 857.17,-148.94 886.66,-143.9"/>
<polygon fill="#9a32cd" stroke="#9a32cd" points="765.48,-161.9 756.32,-167.22 766.8,-168.78 765.48,-161.9"/>
</a>
</g>
<text text-anchor="middle" x="826.5" y="-165" font-family="Helvetica,sans-Serif" font-size="10.00" fill="grey"> name_</text>
</g>
<!-- Node4 -->
<g id="Node000004" class="node">
<title>Node4</title>
<g id="a_Node000004"><a xlink:href="struct_harlinn_1_1_common_1_1_core_1_1_internal_1_1_data.html" target="_top" xlink:title=" ">
<polygon fill="white" stroke="#666666" points="226,-147 108,-147 108,-117 226,-117 226,-147"/>
<text text-anchor="start" x="116" y="-135" font-family="Helvetica,sans-Serif" font-size="10.00">Harlinn::Common::Core</text>
<text text-anchor="middle" x="167" y="-124" font-family="Helvetica,sans-Serif" font-size="10.00">::Internal::Data&lt; T &gt;</text>
</a>
</g>
</g>
<!-- Node4&#45;&gt;Node3 -->
<g id="edge3_Node000003_Node000004" class="edge">
<title>Node4&#45;&gt;Node3</title>
<g id="a_edge3_Node000003_Node000004"><a xlink:title=" ">
<path fill="none" stroke="#9a32cd" stroke-dasharray="5,2" d="M237.75,-146.06C239.86,-146.39 241.94,-146.71 244,-147 383.91,-166.99 550.14,-174.69 636.26,-177.5"/>
<polygon fill="#9a32cd" stroke="#9a32cd" points="238.33,-142.61 227.89,-144.42 237.18,-149.52 238.33,-142.61"/>
</a>
</g>
<text text-anchor="middle" x="415.5" y="-173" font-family="Helvetica,sans-Serif" font-size="10.00" fill="grey"> data_</text>
</g>
<!-- Node6 -->
<g id="Node000006" class="node">
<title>Node6</title>
<g id="a_Node000006"><a xlink:href="class_harlinn_1_1_common_1_1_core_1_1_basic_string.html" target="_top" xlink:title="This is a reference counted string class.">
<polygon fill="white" stroke="#666666" points="474.5,-147 356.5,-147 356.5,-117 474.5,-117 474.5,-147"/>
<text text-anchor="start" x="364.5" y="-135" font-family="Helvetica,sans-Serif" font-size="10.00">Harlinn::Common::Core</text>
<text text-anchor="middle" x="415.5" y="-124" font-family="Helvetica,sans-Serif" font-size="10.00">::BasicString&lt; T &gt;</text>
</a>
</g>
</g>
<!-- Node4&#45;&gt;Node6 -->
<g id="edge6_Node000006_Node000004" class="edge">
<title>Node4&#45;&gt;Node6</title>
<g id="a_edge6_Node000006_Node000004"><a xlink:title=" ">
<path fill="none" stroke="#9a32cd" stroke-dasharray="5,2" d="M237.73,-132C275.09,-132 320.59,-132 356.08,-132"/>
<polygon fill="#9a32cd" stroke="#9a32cd" points="237.93,-128.5 227.93,-132 237.93,-135.5 237.93,-128.5"/>
</a>
</g>
<text text-anchor="middle" x="286.5" y="-135" font-family="Helvetica,sans-Serif" font-size="10.00" fill="grey"> data_</text>
</g>
<!-- Node5 -->
<g id="Node000005" class="node">
<title>Node5</title>
<g id="a_Node000005"><a xlink:title=" ">
<polygon fill="white" stroke="#666666" points="29,-119.5 0,-119.5 0,-100.5 29,-100.5 29,-119.5"/>
<text text-anchor="middle" x="14.5" y="-107.5" font-family="Helvetica,sans-Serif" font-size="10.00">T</text>
</a>
</g>
</g>
<!-- Node5&#45;&gt;Node4 -->
<g id="edge4_Node000004_Node000005" class="edge">
<title>Node5&#45;&gt;Node4</title>
<g id="a_edge4_Node000004_Node000005"><a xlink:title=" ">
<path fill="none" stroke="#9a32cd" stroke-dasharray="5,2" d="M40.54,-113.66C58.87,-116.34 84.51,-120.09 107.84,-123.5"/>
<polygon fill="#9a32cd" stroke="#9a32cd" points="41.29,-110.23 30.89,-112.25 40.28,-117.16 41.29,-110.23"/>
</a>
</g>
<text text-anchor="middle" x="68.5" y="-124" font-family="Helvetica,sans-Serif" font-size="10.00" fill="grey"> buffer_</text>
</g>
<!-- Node8 -->
<g id="Node000008" class="node">
<title>Node8</title>
<g id="a_Node000008"><a xlink:title=" ">
<polygon fill="white" stroke="#666666" points="212.5,-29.5 121.5,-29.5 121.5,-10.5 212.5,-10.5 212.5,-29.5"/>
<text text-anchor="middle" x="167" y="-17.5" font-family="Helvetica,sans-Serif" font-size="10.00">std::map&lt; K, T &gt;</text>
</a>
</g>
</g>
<!-- Node5&#45;&gt;Node8 -->
<g id="edge11_Node000008_Node000005" class="edge">
<title>Node5&#45;&gt;Node8</title>
<g id="a_edge11_Node000008_Node000005"><a xlink:title=" ">
<path fill="none" stroke="#9a32cd" stroke-dasharray="5,2" d="M22.66,-89.72C27.76,-78.02 35.73,-63.9 47,-55 68.13,-38.32 96.99,-29.58 121.01,-25.01"/>
<polygon fill="#9a32cd" stroke="#9a32cd" points="19.44,-88.34 19.05,-98.93 25.96,-90.9 19.44,-88.34"/>
</a>
</g>
<text text-anchor="middle" x="68.5" y="-58" font-family="Helvetica,sans-Serif" font-size="10.00" fill="grey"> elements</text>
</g>
<!-- Node14 -->
<g id="Node000014" class="node">
<title>Node14</title>
<g id="a_Node000014"><a xlink:title=" ">
<polygon fill="white" stroke="#666666" points="607,-233.5 502,-233.5 502,-214.5 607,-214.5 607,-233.5"/>
<text text-anchor="middle" x="554.5" y="-221.5" font-family="Helvetica,sans-Serif" font-size="10.00">std::shared_ptr&lt; T &gt;</text>
</a>
</g>
</g>
<!-- Node5&#45;&gt;Node14 -->
<g id="edge18_Node000014_Node000005" class="edge">
<title>Node5&#45;&gt;Node14</title>
<g id="a_edge18_Node000014_Node000005"><a xlink:title=" ">
<path fill="none" stroke="#9a32cd" stroke-dasharray="5,2" d="M34.19,-127.32C38.22,-130.5 42.6,-133.58 47,-136 71.99,-149.76 80.25,-149.38 108,-156 248.41,-189.49 417.83,-210.03 501.52,-218.89"/>
<polygon fill="#9a32cd" stroke="#9a32cd" points="36.6,-124.78 26.72,-120.95 32.06,-130.1 36.6,-124.78"/>
</a>
</g>
<text text-anchor="middle" x="167" y="-182" font-family="Helvetica,sans-Serif" font-size="10.00" fill="grey"> ptr</text>
</g>
<!-- Node15 -->
<g id="Node000015" class="node">
<title>Node15</title>
<g id="a_Node000015"><a xlink:title=" ">
<polygon fill="white" stroke="#666666" points="329,-93.5 244,-93.5 244,-74.5 329,-74.5 329,-93.5"/>
<text text-anchor="middle" x="286.5" y="-81.5" font-family="Helvetica,sans-Serif" font-size="10.00">std::vector&lt; T &gt;</text>
</a>
</g>
</g>
<!-- Node5&#45;&gt;Node15 -->
<g id="edge20_Node000015_Node000005" class="edge">
<title>Node5&#45;&gt;Node15</title>
<g id="a_edge20_Node000015_Node000005"><a xlink:title=" ">
<path fill="none" stroke="#9a32cd" stroke-dasharray="5,2" d="M40.29,-101.52C42.54,-100.94 44.8,-100.42 47,-100 115.09,-87.1 195.84,-84.22 243.75,-83.78"/>
<polygon fill="#9a32cd" stroke="#9a32cd" points="39.45,-98.12 30.88,-104.35 41.46,-104.83 39.45,-98.12"/>
</a>
</g>
<text text-anchor="middle" x="68.5" y="-103" font-family="Helvetica,sans-Serif" font-size="10.00" fill="grey"> elements</text>
</g>
<!-- Node6&#45;&gt;Node3 -->
<g id="edge5_Node000003_Node000006" class="edge">
<title>Node6&#45;&gt;Node3</title>
<g id="a_edge5_Node000003_Node000006"><a xlink:title=" ">
<path fill="none" stroke="orange" stroke-dasharray="5,2" d="M485.6,-140.37C521.86,-145.13 566.96,-151.6 607,-159 616.5,-160.76 626.53,-162.83 636.28,-164.98"/>
<polygon fill="orange" stroke="orange" points="486.51,-136.96 476.15,-139.15 485.61,-143.9 486.51,-136.96"/>
</a>
</g>
<text text-anchor="middle" x="554.5" y="-162" font-family="Helvetica,sans-Serif" font-size="10.00" fill="grey"> &lt; char &gt;</text>
</g>
<!-- Node7 -->
<g id="Node000007" class="node">
<title>Node7</title>
<g id="a_Node000007"><a xlink:title=" ">
<polygon fill="white" stroke="#666666" points="766,-52 625,-52 625,0 766,0 766,-52"/>
<text text-anchor="start" x="633" y="-40" font-family="Helvetica,sans-Serif" font-size="10.00">std::map&lt; Harlinn::</text>
<text text-anchor="start" x="633" y="-29" font-family="Helvetica,sans-Serif" font-size="10.00">Common::Core::BasicString,</text>
<text text-anchor="start" x="633" y="-18" font-family="Helvetica,sans-Serif" font-size="10.00"> Harlinn::Common::Core::</text>
<text text-anchor="middle" x="695.5" y="-7" font-family="Helvetica,sans-Serif" font-size="10.00">BasicString &gt;</text>
</a>
</g>
</g>
<!-- Node6&#45;&gt;Node7 -->
<g id="edge8_Node000007_Node000006" class="edge">
<title>Node6&#45;&gt;Node7</title>
<g id="a_edge8_Node000007_Node000006"><a xlink:title=" ">
<path fill="none" stroke="#9a32cd" stroke-dasharray="5,2" d="M467.44,-112.58C511.72,-95.69 576.27,-71.08 625.23,-52.41"/>
<polygon fill="#9a32cd" stroke="#9a32cd" points="466.43,-109.21 458.34,-116.05 468.93,-115.75 466.43,-109.21"/>
</a>
</g>
<text text-anchor="middle" x="554.5" y="-112" font-family="Helvetica,sans-Serif" font-size="10.00" fill="grey"> elements</text>
<text text-anchor="middle" x="554.5" y="-101" font-family="Helvetica,sans-Serif" font-size="10.00" fill="grey">keys</text>
</g>
<!-- Node7&#45;&gt;Node1 -->
<g id="edge7_Node000001_Node000007" class="edge">
<title>Node7&#45;&gt;Node1</title>
<g id="a_edge7_Node000001_Node000007"><a xlink:title=" ">
<path fill="none" stroke="#9a32cd" stroke-dasharray="5,2" d="M777.83,-30.1C823.55,-32.07 881.69,-34 933.5,-34 933.5,-34 933.5,-34 1306,-34 1399.61,-34 1491.66,-112.52 1527.17,-146.56"/>
<polygon fill="#9a32cd" stroke="#9a32cd" points="778.13,-26.61 767.99,-29.67 777.83,-33.6 778.13,-26.61"/>
</a>
</g>
<text text-anchor="middle" x="1099.5" y="-37" font-family="Helvetica,sans-Serif" font-size="10.00" fill="grey"> customMetadataMap_</text>
</g>
<!-- Node8&#45;&gt;Node7 -->
<g id="edge9_Node000007_Node000008" class="edge">
<title>Node8&#45;&gt;Node7</title>
<g id="a_edge9_Node000007_Node000008"><a xlink:title=" ">
<path fill="none" stroke="orange" stroke-dasharray="5,2" d="M224.19,-20.64C321.04,-21.74 519.16,-24 624.7,-25.2"/>
<polygon fill="orange" stroke="orange" points="224.44,-17.14 214.4,-20.53 224.36,-24.14 224.44,-17.14"/>
</a>
</g>
<text text-anchor="start" x="347" y="-49" font-family="Helvetica,sans-Serif" font-size="10.00" fill="grey"> &lt; Harlinn::Common::</text>
<text text-anchor="start" x="347" y="-38" font-family="Helvetica,sans-Serif" font-size="10.00" fill="grey">Core::BasicString, Harlinn</text>
<text text-anchor="middle" x="415.5" y="-27" font-family="Helvetica,sans-Serif" font-size="10.00" fill="grey">::Common::Core::BasicString &gt;</text>
</g>
<!-- Node9 -->
<g id="Node000009" class="node">
<title>Node9</title>
<g id="a_Node000009"><a xlink:title=" ">
<polygon fill="white" stroke="#666666" points="29,-29.5 0,-29.5 0,-10.5 29,-10.5 29,-29.5"/>
<text text-anchor="middle" x="14.5" y="-17.5" font-family="Helvetica,sans-Serif" font-size="10.00">K</text>
</a>
</g>
</g>
<!-- Node9&#45;&gt;Node8 -->
<g id="edge10_Node000008_Node000009" class="edge">
<title>Node9&#45;&gt;Node8</title>
<g id="a_edge10_Node000008_Node000009"><a xlink:title=" ">
<path fill="none" stroke="#9a32cd" stroke-dasharray="5,2" d="M40.68,-20C62.58,-20 94.84,-20 121.15,-20"/>
<polygon fill="#9a32cd" stroke="#9a32cd" points="40.9,-16.5 30.9,-20 40.9,-23.5 40.9,-16.5"/>
</a>
</g>
<text text-anchor="middle" x="68.5" y="-23" font-family="Helvetica,sans-Serif" font-size="10.00" fill="grey"> keys</text>
</g>
<!-- Node10 -->
<g id="Node000010" class="node">
<title>Node10</title>
<g id="a_Node000010"><a xlink:title=" ">
<polygon fill="white" stroke="#666666" points="1364.5,-156.5 1245.5,-156.5 1245.5,-115.5 1364.5,-115.5 1364.5,-156.5"/>
<text text-anchor="start" x="1253.5" y="-144.5" font-family="Helvetica,sans-Serif" font-size="10.00">std::vector&lt; std::shared</text>
<text text-anchor="start" x="1253.5" y="-133.5" font-family="Helvetica,sans-Serif" font-size="10.00">_ptr&lt; Harlinn::AI::Meta</text>
<text text-anchor="middle" x="1305" y="-122.5" font-family="Helvetica,sans-Serif" font-size="10.00">::TypeInfoBase &gt; &gt;</text>
</a>
</g>
</g>
<!-- Node10&#45;&gt;Node1 -->
<g id="edge12_Node000001_Node000010" class="edge">
<title>Node10&#45;&gt;Node1</title>
<g id="a_edge12_Node000001_Node000010"><a xlink:title=" ">
<path fill="none" stroke="#9a32cd" stroke-dasharray="5,2" d="M1376.22,-132.82C1407.58,-132.63 1444.87,-134.11 1478,-140 1486.39,-141.49 1495.16,-143.88 1503.43,-146.55"/>
<polygon fill="#9a32cd" stroke="#9a32cd" points="1376.42,-129.31 1366.47,-132.94 1376.51,-136.31 1376.42,-129.31"/>
</a>
</g>
<text text-anchor="middle" x="1430.5" y="-165" font-family="Helvetica,sans-Serif" font-size="10.00" fill="grey"> inputs_</text>
<text text-anchor="middle" x="1430.5" y="-154" font-family="Helvetica,sans-Serif" font-size="10.00" fill="grey">outputs_</text>
<text text-anchor="middle" x="1430.5" y="-143" font-family="Helvetica,sans-Serif" font-size="10.00" fill="grey">overridableInitializers_</text>
</g>
<!-- Node11 -->
<g id="Node000011" class="node">
<title>Node11</title>
<g id="a_Node000011"><a xlink:title=" ">
<polygon fill="white" stroke="#666666" points="1166,-151 1033,-151 1033,-121 1166,-121 1166,-151"/>
<text text-anchor="start" x="1041" y="-139" font-family="Helvetica,sans-Serif" font-size="10.00">std::shared_ptr&lt; Harlinn</text>
<text text-anchor="middle" x="1099.5" y="-128" font-family="Helvetica,sans-Serif" font-size="10.00">::AI::Meta::TypeInfoBase &gt;</text>
</a>
</g>
</g>
<!-- Node11&#45;&gt;Node10 -->
<g id="edge13_Node000010_Node000011" class="edge">
<title>Node11&#45;&gt;Node10</title>
<g id="a_edge13_Node000010_Node000011"><a xlink:title=" ">
<path fill="none" stroke="#9a32cd" stroke-dasharray="5,2" d="M1177.51,-136C1199.98,-136 1224.16,-136 1245.31,-136"/>
<polygon fill="#9a32cd" stroke="#9a32cd" points="1177.8,-132.5 1167.8,-136 1177.8,-139.5 1177.8,-132.5"/>
</a>
</g>
<text text-anchor="middle" x="1205.5" y="-139" font-family="Helvetica,sans-Serif" font-size="10.00" fill="grey"> elements</text>
</g>
<!-- Node12&#45;&gt;Node11 -->
<g id="edge14_Node000011_Node000012" class="edge">
<title>Node12&#45;&gt;Node11</title>
<g id="a_edge14_Node000011_Node000012"><a xlink:title=" ">
<path fill="none" stroke="#9a32cd" stroke-dasharray="5,2" d="M993.57,-136C1006.23,-136 1019.71,-136 1032.65,-136"/>
<polygon fill="#9a32cd" stroke="#9a32cd" points="993.72,-132.5 983.72,-136 993.72,-139.5 993.72,-132.5"/>
</a>
</g>
<text text-anchor="middle" x="1007.5" y="-139" font-family="Helvetica,sans-Serif" font-size="10.00" fill="grey"> ptr</text>
</g>
<!-- Node13 -->
<g id="Node000013" class="node">
<title>Node13</title>
<g id="a_Node000013"><a xlink:title=" ">
<polygon fill="white" stroke="#666666" points="764.5,-143 626.5,-143 626.5,-113 764.5,-113 764.5,-143"/>
<text text-anchor="start" x="634.5" y="-131" font-family="Helvetica,sans-Serif" font-size="10.00">std::enable_shared</text>
<text text-anchor="middle" x="695.5" y="-120" font-family="Helvetica,sans-Serif" font-size="10.00">_from_this&lt; TypeInfoBase &gt;</text>
</a>
</g>
</g>
<!-- Node13&#45;&gt;Node12 -->
<g id="edge15_Node000012_Node000013" class="edge">
<title>Node13&#45;&gt;Node12</title>
<g id="a_edge15_Node000012_Node000013"><a xlink:title=" ">
<path fill="none" stroke="#63b8ff" d="M775.95,-130.68C812.74,-131.92 855.18,-133.36 886.74,-134.42"/>
<polygon fill="#63b8ff" stroke="#63b8ff" points="776.36,-127.19 766.24,-130.35 776.12,-134.19 776.36,-127.19"/>
</a>
</g>
</g>
<!-- Node14&#45;&gt;Node11 -->
<g id="edge17_Node000011_Node000014" class="edge">
<title>Node14&#45;&gt;Node11</title>
<g id="a_edge17_Node000011_Node000014"><a xlink:title=" ">
<path fill="none" stroke="orange" stroke-dasharray="5,2" d="M618.93,-223.11C682.59,-221.33 783.24,-216.13 869,-201 934.66,-189.42 1008.5,-166.69 1054.27,-151.42"/>
<polygon fill="orange" stroke="orange" points="618.91,-219.61 609,-223.36 619.09,-226.61 618.91,-219.61"/>
</a>
</g>
<text text-anchor="start" x="784" y="-226" font-family="Helvetica,sans-Serif" font-size="10.00" fill="grey"> &lt; Harlinn::AI::Meta</text>
<text text-anchor="middle" x="826.5" y="-215" font-family="Helvetica,sans-Serif" font-size="10.00" fill="grey">::TypeInfoBase &gt;</text>
</g>
<!-- Node15&#45;&gt;Node10 -->
<g id="edge19_Node000010_Node000015" class="edge">
<title>Node15&#45;&gt;Node10</title>
<g id="a_edge19_Node000010_Node000015"><a xlink:title=" ">
<path fill="none" stroke="orange" stroke-dasharray="5,2" d="M340.71,-82.73C394.41,-81.56 479.71,-80 553.5,-80 553.5,-80 553.5,-80 1100.5,-80 1155.46,-80 1215.88,-99.23 1256.49,-115.15"/>
<polygon fill="orange" stroke="orange" points="340.85,-79.23 330.93,-82.95 341.01,-86.22 340.85,-79.23"/>
</a>
</g>
<text text-anchor="start" x="784.5" y="-105" font-family="Helvetica,sans-Serif" font-size="10.00" fill="grey"> &lt; std::shared_ptr&lt;</text>
<text text-anchor="start" x="784.5" y="-94" font-family="Helvetica,sans-Serif" font-size="10.00" fill="grey"> Harlinn::AI::Meta::</text>
<text text-anchor="middle" x="826.5" y="-83" font-family="Helvetica,sans-Serif" font-size="10.00" fill="grey">TypeInfoBase &gt; &gt;</text>
</g>
</g>
</svg>
