<?xml version="1.0" encoding="UTF-8" standalone="no"?>
<!DOCTYPE svg PUBLIC "-//W3C//DTD SVG 1.1//EN"
 "http://www.w3.org/Graphics/SVG/1.1/DTD/svg11.dtd">
<!-- Generated by graphviz version 7.0.1 (20221109.1506)
 -->
<!-- Title: Harlinn::AI::Meta::OpaqueTypeInfo Pages: 1 -->
<svg width="915pt" height="112pt"
 viewBox="0.00 0.00 915.00 112.00" xmlns="http://www.w3.org/2000/svg" xmlns:xlink="http://www.w3.org/1999/xlink">
<g id="graph0" class="graph" transform="scale(1 1) rotate(0) translate(4 108)">
<title>Harlinn::AI::Meta::OpaqueTypeInfo</title>
<!-- Node1 -->
<g id="Node000001" class="node">
<title>Node1</title>
<g id="a_Node000001"><a xlink:title=" ">
<polygon fill="#999999" stroke="#666666" points="907,-80 812,-80 812,-50 907,-50 907,-80"/>
<text text-anchor="start" x="820" y="-68" font-family="Helvetica,sans-Serif" font-size="10.00">Harlinn::AI::Meta::</text>
<text text-anchor="middle" x="859.5" y="-57" font-family="Helvetica,sans-Serif" font-size="10.00">OpaqueTypeInfo</text>
</a>
</g>
</g>
<!-- Node2 -->
<g id="Node000002" class="node">
<title>Node2</title>
<g id="a_Node000002"><a xlink:href="class_harlinn_1_1_a_i_1_1_meta_1_1_type_info_base.html" target="_top" xlink:title=" ">
<polygon fill="white" stroke="#666666" points="775,-80 680,-80 680,-50 775,-50 775,-80"/>
<text text-anchor="start" x="688" y="-68" font-family="Helvetica,sans-Serif" font-size="10.00">Harlinn::AI::Meta::</text>
<text text-anchor="middle" x="727.5" y="-57" font-family="Helvetica,sans-Serif" font-size="10.00">TypeInfoBase</text>
</a>
</g>
</g>
<!-- Node2&#45;&gt;Node1 -->
<g id="edge1_Node000001_Node000002" class="edge">
<title>Node2&#45;&gt;Node1</title>
<g id="a_edge1_Node000001_Node000002"><a xlink:title=" ">
<path fill="none" stroke="#63b8ff" d="M786.68,-65C795.03,-65 803.54,-65 811.64,-65"/>
<polygon fill="#63b8ff" stroke="#63b8ff" points="786.95,-61.5 776.95,-65 786.95,-68.5 786.95,-61.5"/>
</a>
</g>
</g>
<!-- Node3 -->
<g id="Node000003" class="node">
<title>Node3</title>
<g id="a_Node000003"><a xlink:title=" ">
<polygon fill="white" stroke="#666666" points="611,-104 473,-104 473,-74 611,-74 611,-104"/>
<text text-anchor="start" x="481" y="-92" font-family="Helvetica,sans-Serif" font-size="10.00">std::enable_shared</text>
<text text-anchor="middle" x="542" y="-81" font-family="Helvetica,sans-Serif" font-size="10.00">_from_this&lt; TypeInfoBase &gt;</text>
</a>
</g>
</g>
<!-- Node3&#45;&gt;Node2 -->
<g id="edge2_Node000002_Node000003" class="edge">
<title>Node3&#45;&gt;Node2</title>
<g id="a_edge2_Node000002_Node000003"><a xlink:title=" ">
<path fill="none" stroke="#63b8ff" d="M622.65,-78.58C642.07,-76.04 662.23,-73.41 679.56,-71.14"/>
<polygon fill="#63b8ff" stroke="#63b8ff" points="622.29,-75.1 612.83,-79.87 623.2,-82.04 622.29,-75.1"/>
</a>
</g>
</g>
<!-- Node4 -->
<g id="Node000004" class="node">
<title>Node4</title>
<g id="a_Node000004"><a xlink:href="class_harlinn_1_1_common_1_1_core_1_1_basic_string.html" target="_top" xlink:title=" ">
<polygon fill="white" stroke="#666666" points="601,-56 483,-56 483,-26 601,-26 601,-56"/>
<text text-anchor="start" x="491" y="-44" font-family="Helvetica,sans-Serif" font-size="10.00">Harlinn::Common::Core</text>
<text text-anchor="middle" x="542" y="-33" font-family="Helvetica,sans-Serif" font-size="10.00">::BasicString&lt; char &gt;</text>
</a>
</g>
</g>
<!-- Node4&#45;&gt;Node2 -->
<g id="edge3_Node000002_Node000004" class="edge">
<title>Node4&#45;&gt;Node2</title>
<g id="a_edge3_Node000002_Node000004"><a xlink:title=" ">
<path fill="none" stroke="#9a32cd" stroke-dasharray="5,2" d="M612.5,-50.09C634.94,-53.02 659.27,-56.21 679.67,-58.87"/>
<polygon fill="#9a32cd" stroke="#9a32cd" points="613.18,-46.65 602.81,-48.82 612.28,-53.59 613.18,-46.65"/>
</a>
</g>
<text text-anchor="middle" x="645.5" y="-59" font-family="Helvetica,sans-Serif" font-size="10.00" fill="grey"> name_</text>
</g>
<!-- Node5 -->
<g id="Node000005" class="node">
<title>Node5</title>
<g id="a_Node000005"><a xlink:href="struct_harlinn_1_1_common_1_1_core_1_1_internal_1_1_data.html" target="_top" xlink:title=" ">
<polygon fill="white" stroke="#666666" points="215,-56 97,-56 97,-26 215,-26 215,-56"/>
<text text-anchor="start" x="105" y="-44" font-family="Helvetica,sans-Serif" font-size="10.00">Harlinn::Common::Core</text>
<text text-anchor="middle" x="156" y="-33" font-family="Helvetica,sans-Serif" font-size="10.00">::Internal::Data&lt; T &gt;</text>
</a>
</g>
</g>
<!-- Node5&#45;&gt;Node4 -->
<g id="edge4_Node000004_Node000005" class="edge">
<title>Node5&#45;&gt;Node4</title>
<g id="a_edge4_Node000004_Node000005"><a xlink:title=" ">
<path fill="none" stroke="#9a32cd" stroke-dasharray="5,2" d="M226.8,-44.82C228.89,-44.88 230.96,-44.95 233,-45 331.63,-47.59 356.36,-47.29 455,-45 463.97,-44.79 473.45,-44.46 482.72,-44.08"/>
<polygon fill="#9a32cd" stroke="#9a32cd" points="227.13,-41.33 217,-44.45 226.87,-48.32 227.13,-41.33"/>
</a>
</g>
<text text-anchor="middle" x="338" y="-49" font-family="Helvetica,sans-Serif" font-size="10.00" fill="grey"> data_</text>
</g>
<!-- Node7 -->
<g id="Node000007" class="node">
<title>Node7</title>
<g id="a_Node000007"><a xlink:href="class_harlinn_1_1_common_1_1_core_1_1_basic_string.html" target="_top" xlink:title="This is a reference counted string class.">
<polygon fill="white" stroke="#666666" points="397,-30 279,-30 279,0 397,0 397,-30"/>
<text text-anchor="start" x="287" y="-18" font-family="Helvetica,sans-Serif" font-size="10.00">Harlinn::Common::Core</text>
<text text-anchor="middle" x="338" y="-7" font-family="Helvetica,sans-Serif" font-size="10.00">::BasicString&lt; T &gt;</text>
</a>
</g>
</g>
<!-- Node5&#45;&gt;Node7 -->
<g id="edge7_Node000007_Node000005" class="edge">
<title>Node5&#45;&gt;Node7</title>
<g id="a_edge7_Node000007_Node000005"><a xlink:title=" ">
<path fill="none" stroke="#9a32cd" stroke-dasharray="5,2" d="M226.55,-30.95C243.73,-28.47 261.95,-25.84 278.54,-23.44"/>
<polygon fill="#9a32cd" stroke="#9a32cd" points="226.34,-27.45 216.94,-32.34 227.34,-34.38 226.34,-27.45"/>
</a>
</g>
<text text-anchor="middle" x="247" y="-33" font-family="Helvetica,sans-Serif" font-size="10.00" fill="grey"> data_</text>
</g>
<!-- Node6 -->
<g id="Node000006" class="node">
<title>Node6</title>
<g id="a_Node000006"><a xlink:title=" ">
<polygon fill="white" stroke="#666666" points="29,-50.5 0,-50.5 0,-31.5 29,-31.5 29,-50.5"/>
<text text-anchor="middle" x="14.5" y="-38.5" font-family="Helvetica,sans-Serif" font-size="10.00">T</text>
</a>
</g>
</g>
<!-- Node6&#45;&gt;Node5 -->
<g id="edge5_Node000005_Node000006" class="edge">
<title>Node6&#45;&gt;Node5</title>
<g id="a_edge5_Node000005_Node000006"><a xlink:title=" ">
<path fill="none" stroke="#9a32cd" stroke-dasharray="5,2" d="M40.72,-41C56.38,-41 77.19,-41 96.76,-41"/>
<polygon fill="#9a32cd" stroke="#9a32cd" points="40.9,-37.5 30.9,-41 40.9,-44.5 40.9,-37.5"/>
</a>
</g>
<text text-anchor="middle" x="63" y="-44" font-family="Helvetica,sans-Serif" font-size="10.00" fill="grey"> buffer_</text>
</g>
<!-- Node7&#45;&gt;Node4 -->
<g id="edge6_Node000004_Node000007" class="edge">
<title>Node7&#45;&gt;Node4</title>
<g id="a_edge6_Node000004_Node000007"><a xlink:title=" ">
<path fill="none" stroke="orange" stroke-dasharray="5,2" d="M408.67,-23.97C432.8,-27.07 459.58,-30.52 482.7,-33.5"/>
<polygon fill="orange" stroke="orange" points="409.29,-20.52 398.93,-22.71 408.4,-27.46 409.29,-20.52"/>
</a>
</g>
<text text-anchor="middle" x="435" y="-33" font-family="Helvetica,sans-Serif" font-size="10.00" fill="grey"> &lt; char &gt;</text>
</g>
</g>
</svg>
