<?xml version="1.0" encoding="UTF-8" standalone="no"?>
<!DOCTYPE svg PUBLIC "-//W3C//DTD SVG 1.1//EN"
 "http://www.w3.org/Graphics/SVG/1.1/DTD/svg11.dtd">
<!-- Generated by graphviz version 7.0.1 (20221109.1506)
 -->
<!-- Title: Harlinn::AI::Tensors::Tensor Pages: 1 -->
<svg width="1407pt" height="167pt"
 viewBox="0.00 0.00 1407.00 167.00" xmlns="http://www.w3.org/2000/svg" xmlns:xlink="http://www.w3.org/1999/xlink">
<g id="graph0" class="graph" transform="scale(1 1) rotate(0) translate(4 163)">
<title>Harlinn::AI::Tensors::Tensor</title>
<!-- Node1 -->
<g id="Node000001" class="node">
<title>Node1</title>
<g id="a_Node000001"><a xlink:title="Holds tensor data and the metadata defining the shape of the tensor.">
<polygon fill="#999999" stroke="#666666" points="1399,-54 1297,-54 1297,-24 1399,-24 1399,-54"/>
<text text-anchor="start" x="1305" y="-42" font-family="Helvetica,sans-Serif" font-size="10.00">Harlinn::AI::Tensors</text>
<text text-anchor="middle" x="1348" y="-31" font-family="Helvetica,sans-Serif" font-size="10.00">::Tensor</text>
</a>
</g>
</g>
<!-- Node2 -->
<g id="Node000002" class="node">
<title>Node2</title>
<g id="a_Node000002"><a xlink:href="class_harlinn_1_1_a_i_1_1_tensors_1_1_value.html" target="_top" xlink:title=" ">
<polygon fill="white" stroke="#666666" points="1225,-78 1123,-78 1123,-48 1225,-48 1225,-78"/>
<text text-anchor="start" x="1131" y="-66" font-family="Helvetica,sans-Serif" font-size="10.00">Harlinn::AI::Tensors</text>
<text text-anchor="middle" x="1174" y="-55" font-family="Helvetica,sans-Serif" font-size="10.00">::Value</text>
</a>
</g>
</g>
<!-- Node2&#45;&gt;Node1 -->
<g id="edge1_Node000001_Node000002" class="edge">
<title>Node2&#45;&gt;Node1</title>
<g id="a_edge1_Node000001_Node000002"><a xlink:title=" ">
<path fill="none" stroke="#63b8ff" d="M1236.58,-54.41C1256.31,-51.66 1277.9,-48.64 1296.73,-46.02"/>
<polygon fill="#63b8ff" stroke="#63b8ff" points="1236.13,-50.94 1226.71,-55.78 1237.1,-57.87 1236.13,-50.94"/>
</a>
</g>
</g>
<!-- Node3 -->
<g id="Node000003" class="node">
<title>Node3</title>
<g id="a_Node000003"><a xlink:title=" ">
<polygon fill="white" stroke="#666666" points="1021.5,-126 917.5,-126 917.5,-96 1021.5,-96 1021.5,-126"/>
<text text-anchor="start" x="925.5" y="-114" font-family="Helvetica,sans-Serif" font-size="10.00">std::enable_shared</text>
<text text-anchor="middle" x="969.5" y="-103" font-family="Helvetica,sans-Serif" font-size="10.00">_from_this&lt; Value &gt;</text>
</a>
</g>
</g>
<!-- Node3&#45;&gt;Node2 -->
<g id="edge2_Node000002_Node000003" class="edge">
<title>Node3&#45;&gt;Node2</title>
<g id="a_edge2_Node000002_Node000003"><a xlink:title=" ">
<path fill="none" stroke="#63b8ff" d="M1033.05,-96.17C1061.87,-89.34 1095.61,-81.34 1122.74,-74.91"/>
<polygon fill="#63b8ff" stroke="#63b8ff" points="1032.26,-92.76 1023.33,-98.48 1033.87,-99.58 1032.26,-92.76"/>
</a>
</g>
</g>
<!-- Node4 -->
<g id="Node000004" class="node">
<title>Node4</title>
<g id="a_Node000004"><a xlink:title=" ">
<polygon fill="white" stroke="#666666" points="1036,-78 903,-78 903,-48 1036,-48 1036,-78"/>
<text text-anchor="start" x="911" y="-66" font-family="Helvetica,sans-Serif" font-size="10.00">std::shared_ptr&lt; Harlinn</text>
<text text-anchor="middle" x="969.5" y="-55" font-family="Helvetica,sans-Serif" font-size="10.00">::AI::Meta::TypeInfoBase &gt;</text>
</a>
</g>
</g>
<!-- Node4&#45;&gt;Node2 -->
<g id="edge3_Node000002_Node000004" class="edge">
<title>Node4&#45;&gt;Node2</title>
<g id="a_edge3_Node000002_Node000004"><a xlink:title=" ">
<path fill="none" stroke="#9a32cd" stroke-dasharray="5,2" d="M1047.62,-63C1072.76,-63 1100.01,-63 1122.66,-63"/>
<polygon fill="#9a32cd" stroke="#9a32cd" points="1047.76,-59.5 1037.76,-63 1047.76,-66.5 1047.76,-59.5"/>
</a>
</g>
<text text-anchor="middle" x="1075.5" y="-66" font-family="Helvetica,sans-Serif" font-size="10.00" fill="grey"> typeInfo_</text>
</g>
<!-- Node5 -->
<g id="Node000005" class="node">
<title>Node5</title>
<g id="a_Node000005"><a xlink:href="class_harlinn_1_1_a_i_1_1_meta_1_1_type_info_base.html" target="_top" xlink:title=" ">
<polygon fill="white" stroke="#666666" points="852,-111 757,-111 757,-81 852,-81 852,-111"/>
<text text-anchor="start" x="765" y="-99" font-family="Helvetica,sans-Serif" font-size="10.00">Harlinn::AI::Meta::</text>
<text text-anchor="middle" x="804.5" y="-88" font-family="Helvetica,sans-Serif" font-size="10.00">TypeInfoBase</text>
</a>
</g>
</g>
<!-- Node5&#45;&gt;Node4 -->
<g id="edge4_Node000004_Node000005" class="edge">
<title>Node5&#45;&gt;Node4</title>
<g id="a_edge4_Node000004_Node000005"><a xlink:title=" ">
<path fill="none" stroke="#9a32cd" stroke-dasharray="5,2" d="M863.18,-84.32C875.95,-81.74 889.58,-78.98 902.65,-76.33"/>
<polygon fill="#9a32cd" stroke="#9a32cd" points="862.8,-80.83 853.69,-86.24 864.19,-87.69 862.8,-80.83"/>
</a>
</g>
<text text-anchor="middle" x="877.5" y="-85" font-family="Helvetica,sans-Serif" font-size="10.00" fill="grey"> ptr</text>
</g>
<!-- Node6 -->
<g id="Node000006" class="node">
<title>Node6</title>
<g id="a_Node000006"><a xlink:title=" ">
<polygon fill="white" stroke="#666666" points="688,-159 550,-159 550,-129 688,-129 688,-159"/>
<text text-anchor="start" x="558" y="-147" font-family="Helvetica,sans-Serif" font-size="10.00">std::enable_shared</text>
<text text-anchor="middle" x="619" y="-136" font-family="Helvetica,sans-Serif" font-size="10.00">_from_this&lt; TypeInfoBase &gt;</text>
</a>
</g>
</g>
<!-- Node6&#45;&gt;Node5 -->
<g id="edge5_Node000005_Node000006" class="edge">
<title>Node6&#45;&gt;Node5</title>
<g id="a_edge5_Node000005_Node000006"><a xlink:title=" ">
<path fill="none" stroke="#63b8ff" d="M690.18,-125.64C712.46,-119.81 736.54,-113.51 756.75,-108.23"/>
<polygon fill="#63b8ff" stroke="#63b8ff" points="689.32,-122.25 680.53,-128.17 691.1,-129.02 689.32,-122.25"/>
</a>
</g>
</g>
<!-- Node7 -->
<g id="Node000007" class="node">
<title>Node7</title>
<g id="a_Node000007"><a xlink:href="class_harlinn_1_1_common_1_1_core_1_1_basic_string.html" target="_top" xlink:title=" ">
<polygon fill="white" stroke="#666666" points="678,-111 560,-111 560,-81 678,-81 678,-111"/>
<text text-anchor="start" x="568" y="-99" font-family="Helvetica,sans-Serif" font-size="10.00">Harlinn::Common::Core</text>
<text text-anchor="middle" x="619" y="-88" font-family="Helvetica,sans-Serif" font-size="10.00">::BasicString&lt; char &gt;</text>
</a>
</g>
</g>
<!-- Node7&#45;&gt;Node5 -->
<g id="edge6_Node000005_Node000007" class="edge">
<title>Node7&#45;&gt;Node5</title>
<g id="a_edge6_Node000005_Node000007"><a xlink:title=" ">
<path fill="none" stroke="#9a32cd" stroke-dasharray="5,2" d="M689.8,-96C712.16,-96 736.36,-96 756.67,-96"/>
<polygon fill="#9a32cd" stroke="#9a32cd" points="689.83,-92.5 679.83,-96 689.83,-99.5 689.83,-92.5"/>
</a>
</g>
<text text-anchor="middle" x="722.5" y="-99" font-family="Helvetica,sans-Serif" font-size="10.00" fill="grey"> name_</text>
</g>
<!-- Node8 -->
<g id="Node000008" class="node">
<title>Node8</title>
<g id="a_Node000008"><a xlink:href="struct_harlinn_1_1_common_1_1_core_1_1_internal_1_1_data.html" target="_top" xlink:title=" ">
<polygon fill="white" stroke="#666666" points="215,-99 97,-99 97,-69 215,-69 215,-99"/>
<text text-anchor="start" x="105" y="-87" font-family="Helvetica,sans-Serif" font-size="10.00">Harlinn::Common::Core</text>
<text text-anchor="middle" x="156" y="-76" font-family="Helvetica,sans-Serif" font-size="10.00">::Internal::Data&lt; T &gt;</text>
</a>
</g>
</g>
<!-- Node8&#45;&gt;Node7 -->
<g id="edge7_Node000007_Node000008" class="edge">
<title>Node8&#45;&gt;Node7</title>
<g id="a_edge7_Node000007_Node000008"><a xlink:title=" ">
<path fill="none" stroke="#9a32cd" stroke-dasharray="5,2" d="M226.75,-98.11C228.85,-98.42 230.94,-98.72 233,-99 364.72,-116.75 399.49,-115.35 532,-105 540.98,-104.3 550.47,-103.43 559.75,-102.51"/>
<polygon fill="#9a32cd" stroke="#9a32cd" points="227.31,-94.65 216.88,-96.51 226.19,-101.56 227.31,-94.65"/>
</a>
</g>
<text text-anchor="middle" x="415" y="-115" font-family="Helvetica,sans-Serif" font-size="10.00" fill="grey"> data_</text>
</g>
<!-- Node10 -->
<g id="Node000010" class="node">
<title>Node10</title>
<g id="a_Node000010"><a xlink:href="class_harlinn_1_1_common_1_1_core_1_1_basic_string.html" target="_top" xlink:title="This is a reference counted string class.">
<polygon fill="white" stroke="#666666" points="474,-99 356,-99 356,-69 474,-69 474,-99"/>
<text text-anchor="start" x="364" y="-87" font-family="Helvetica,sans-Serif" font-size="10.00">Harlinn::Common::Core</text>
<text text-anchor="middle" x="415" y="-76" font-family="Helvetica,sans-Serif" font-size="10.00">::BasicString&lt; T &gt;</text>
</a>
</g>
</g>
<!-- Node8&#45;&gt;Node10 -->
<g id="edge10_Node000010_Node000008" class="edge">
<title>Node8&#45;&gt;Node10</title>
<g id="a_edge10_Node000010_Node000008"><a xlink:title=" ">
<path fill="none" stroke="#9a32cd" stroke-dasharray="5,2" d="M226.72,-84C267.2,-84 317.6,-84 355.91,-84"/>
<polygon fill="#9a32cd" stroke="#9a32cd" points="226.83,-80.5 216.83,-84 226.83,-87.5 226.83,-80.5"/>
</a>
</g>
<text text-anchor="middle" x="285.5" y="-87" font-family="Helvetica,sans-Serif" font-size="10.00" fill="grey"> data_</text>
</g>
<!-- Node9 -->
<g id="Node000009" class="node">
<title>Node9</title>
<g id="a_Node000009"><a xlink:title=" ">
<polygon fill="white" stroke="#666666" points="29,-67.5 0,-67.5 0,-48.5 29,-48.5 29,-67.5"/>
<text text-anchor="middle" x="14.5" y="-55.5" font-family="Helvetica,sans-Serif" font-size="10.00">T</text>
</a>
</g>
</g>
<!-- Node9&#45;&gt;Node8 -->
<g id="edge8_Node000008_Node000009" class="edge">
<title>Node9&#45;&gt;Node8</title>
<g id="a_edge8_Node000008_Node000009"><a xlink:title=" ">
<path fill="none" stroke="#9a32cd" stroke-dasharray="5,2" d="M40.26,-62.61C55.97,-65.54 77,-69.46 96.76,-73.14"/>
<polygon fill="#9a32cd" stroke="#9a32cd" points="41.35,-59.26 30.87,-60.87 40.06,-66.14 41.35,-59.26"/>
</a>
</g>
<text text-anchor="middle" x="63" y="-72" font-family="Helvetica,sans-Serif" font-size="10.00" fill="grey"> buffer_</text>
</g>
<!-- Node11 -->
<g id="Node000011" class="node">
<title>Node11</title>
<g id="a_Node000011"><a xlink:title=" ">
<polygon fill="white" stroke="#666666" points="338,-50.5 233,-50.5 233,-31.5 338,-31.5 338,-50.5"/>
<text text-anchor="middle" x="285.5" y="-38.5" font-family="Helvetica,sans-Serif" font-size="10.00">std::shared_ptr&lt; T &gt;</text>
</a>
</g>
</g>
<!-- Node9&#45;&gt;Node11 -->
<g id="edge12_Node000011_Node000009" class="edge">
<title>Node9&#45;&gt;Node11</title>
<g id="a_edge12_Node000011_Node000009"><a xlink:title=" ">
<path fill="none" stroke="#9a32cd" stroke-dasharray="5,2" d="M40.31,-50.31C42.55,-49.79 44.81,-49.34 47,-49 110.37,-39.03 184.39,-38.22 232.73,-39.12"/>
<polygon fill="#9a32cd" stroke="#9a32cd" points="39.66,-46.86 30.91,-52.83 41.48,-53.62 39.66,-46.86"/>
</a>
</g>
<text text-anchor="middle" x="63" y="-52" font-family="Helvetica,sans-Serif" font-size="10.00" fill="grey"> ptr</text>
</g>
<!-- Node10&#45;&gt;Node7 -->
<g id="edge9_Node000007_Node000010" class="edge">
<title>Node10&#45;&gt;Node7</title>
<g id="a_edge9_Node000007_Node000010"><a xlink:title=" ">
<path fill="none" stroke="orange" stroke-dasharray="5,2" d="M485.67,-88.14C509.8,-89.57 536.58,-91.16 559.7,-92.54"/>
<polygon fill="orange" stroke="orange" points="486.13,-84.66 475.94,-87.56 485.71,-91.65 486.13,-84.66"/>
</a>
</g>
<text text-anchor="middle" x="512" y="-93" font-family="Helvetica,sans-Serif" font-size="10.00" fill="grey"> &lt; char &gt;</text>
</g>
<!-- Node11&#45;&gt;Node4 -->
<g id="edge11_Node000004_Node000011" class="edge">
<title>Node11&#45;&gt;Node4</title>
<g id="a_edge11_Node000004_Node000011"><a xlink:title=" ">
<path fill="none" stroke="orange" stroke-dasharray="5,2" d="M349.57,-41C394.56,-41 456.5,-41 511,-41 511,-41 511,-41 805.5,-41 837.62,-41 872.99,-45.25 902.55,-50.01"/>
<polygon fill="orange" stroke="orange" points="349.73,-37.5 339.73,-41 349.73,-44.5 349.73,-37.5"/>
</a>
</g>
<text text-anchor="start" x="576.5" y="-55" font-family="Helvetica,sans-Serif" font-size="10.00" fill="grey"> &lt; Harlinn::AI::Meta</text>
<text text-anchor="middle" x="619" y="-44" font-family="Helvetica,sans-Serif" font-size="10.00" fill="grey">::TypeInfoBase &gt;</text>
</g>
<!-- Node12 -->
<g id="Node000012" class="node">
<title>Node12</title>
<g id="a_Node000012"><a xlink:href="class_harlinn_1_1_common_1_1_core_1_1_binary.html" target="_top" xlink:title="A reference counted buffer, primarily intended for binary data.">
<polygon fill="white" stroke="#666666" points="1233,-30 1115,-30 1115,0 1233,0 1233,-30"/>
<text text-anchor="start" x="1123" y="-18" font-family="Helvetica,sans-Serif" font-size="10.00">Harlinn::Common::Core</text>
<text text-anchor="middle" x="1174" y="-7" font-family="Helvetica,sans-Serif" font-size="10.00">::Binary</text>
</a>
</g>
</g>
<!-- Node12&#45;&gt;Node1 -->
<g id="edge13_Node000001_Node000012" class="edge">
<title>Node12&#45;&gt;Node1</title>
<g id="a_edge13_Node000001_Node000012"><a xlink:title=" ">
<path fill="none" stroke="#9a32cd" stroke-dasharray="5,2" d="M1244.51,-24.7C1261.94,-27.13 1280.3,-29.69 1296.59,-31.97"/>
<polygon fill="#9a32cd" stroke="#9a32cd" points="1245.12,-21.25 1234.73,-23.33 1244.15,-28.18 1245.12,-21.25"/>
</a>
</g>
<text text-anchor="middle" x="1265" y="-32" font-family="Helvetica,sans-Serif" font-size="10.00" fill="grey"> data_</text>
</g>
<!-- Node13 -->
<g id="Node000013" class="node">
<title>Node13</title>
<g id="a_Node000013"><a xlink:href="struct_harlinn_1_1_common_1_1_core_1_1_binary_1_1_data.html" target="_top" xlink:title=" ">
<polygon fill="white" stroke="#666666" points="1028.5,-30 910.5,-30 910.5,0 1028.5,0 1028.5,-30"/>
<text text-anchor="start" x="918.5" y="-18" font-family="Helvetica,sans-Serif" font-size="10.00">Harlinn::Common::Core</text>
<text text-anchor="middle" x="969.5" y="-7" font-family="Helvetica,sans-Serif" font-size="10.00">::Binary::Data</text>
</a>
</g>
</g>
<!-- Node13&#45;&gt;Node12 -->
<g id="edge14_Node000012_Node000013" class="edge">
<title>Node13&#45;&gt;Node12</title>
<g id="a_edge14_Node000012_Node000013"><a xlink:title=" ">
<path fill="none" stroke="#9a32cd" stroke-dasharray="5,2" d="M1040.12,-15C1064.44,-15 1091.47,-15 1114.76,-15"/>
<polygon fill="#9a32cd" stroke="#9a32cd" points="1040.31,-11.5 1030.31,-15 1040.31,-18.5 1040.31,-11.5"/>
</a>
</g>
<text text-anchor="middle" x="1075.5" y="-18" font-family="Helvetica,sans-Serif" font-size="10.00" fill="grey"> data_</text>
</g>
</g>
</svg>
