<?xml version="1.0" encoding="UTF-8" standalone="no"?>
<!DOCTYPE svg PUBLIC "-//W3C//DTD SVG 1.1//EN"
 "http://www.w3.org/Graphics/SVG/1.1/DTD/svg11.dtd">
<!-- Generated by graphviz version 7.0.1 (20221109.1506)
 -->
<!-- Title: Harlinn::Common::Core::Data::DeleteTimeseriesRangeData&lt; TKind &gt; Pages: 1 -->
<svg width="524pt" height="226pt"
 viewBox="0.00 0.00 524.00 226.00" xmlns="http://www.w3.org/2000/svg" xmlns:xlink="http://www.w3.org/1999/xlink">
<g id="graph0" class="graph" transform="scale(1 1) rotate(0) translate(4 222)">
<title>Harlinn::Common::Core::Data::DeleteTimeseriesRangeData&lt; TKind &gt;</title>
<!-- Node1 -->
<g id="Node000001" class="node">
<title>Node1</title>
<g id="a_Node000001"><a xlink:title=" ">
<polygon fill="#999999" stroke="#666666" points="334,-129 182,-129 182,-88 334,-88 334,-129"/>
<text text-anchor="start" x="190" y="-117" font-family="Helvetica,sans-Serif" font-size="10.00">Harlinn::Common::Core</text>
<text text-anchor="start" x="190" y="-106" font-family="Helvetica,sans-Serif" font-size="10.00">::Data::DeleteTimeseriesRange</text>
<text text-anchor="middle" x="258" y="-95" font-family="Helvetica,sans-Serif" font-size="10.00">Data&lt; TKind &gt;</text>
</a>
</g>
</g>
<!-- Node3 -->
<g id="Node000003" class="node">
<title>Node3</title>
<g id="a_Node000003"><a xlink:href="class_harlinn_1_1_common_1_1_core_1_1_data_1_1_delete_clear_timeseries_range_data.xhtml" target="_top" xlink:title=" ">
<polygon fill="white" stroke="#666666" points="516,-218 370,-218 370,-177 516,-177 516,-218"/>
<text text-anchor="start" x="378" y="-206" font-family="Helvetica,sans-Serif" font-size="10.00">Harlinn::Common::Core</text>
<text text-anchor="start" x="378" y="-195" font-family="Helvetica,sans-Serif" font-size="10.00">::Data::DeleteClearTimeseries</text>
<text text-anchor="middle" x="443" y="-184" font-family="Helvetica,sans-Serif" font-size="10.00">RangeData&lt; TKind &gt;</text>
</a>
</g>
</g>
<!-- Node1&#45;&gt;Node3 -->
<g id="edge2_Node000001_Node000003" class="edge">
<title>Node1&#45;&gt;Node3</title>
<g id="a_edge2_Node000001_Node000003"><a xlink:title=" ">
<path fill="none" stroke="#63b8ff" d="M304.93,-134.83C324.69,-145.77 348.22,-158.27 370,-168.5 375.85,-171.25 382.04,-173.99 388.24,-176.62"/>
<polygon fill="#63b8ff" stroke="#63b8ff" points="306.73,-131.83 296.29,-130.01 303.32,-137.94 306.73,-131.83"/>
</a>
</g>
</g>
<!-- Node4 -->
<g id="Node000004" class="node">
<title>Node4</title>
<g id="a_Node000004"><a xlink:href="class_harlinn_1_1_common_1_1_core_1_1_data_1_1_delete_from_timeseries_range_data.xhtml" target="_top" xlink:title=" ">
<polygon fill="white" stroke="#666666" points="516,-159 370,-159 370,-118 516,-118 516,-159"/>
<text text-anchor="start" x="378" y="-147" font-family="Helvetica,sans-Serif" font-size="10.00">Harlinn::Common::Core</text>
<text text-anchor="start" x="378" y="-136" font-family="Helvetica,sans-Serif" font-size="10.00">::Data::DeleteFromTimeseries</text>
<text text-anchor="middle" x="443" y="-125" font-family="Helvetica,sans-Serif" font-size="10.00">RangeData&lt; TKind &gt;</text>
</a>
</g>
</g>
<!-- Node1&#45;&gt;Node4 -->
<g id="edge3_Node000001_Node000004" class="edge">
<title>Node1&#45;&gt;Node4</title>
<g id="a_edge3_Node000001_Node000004"><a xlink:title=" ">
<path fill="none" stroke="#63b8ff" d="M345.74,-122.72C353.73,-124.03 361.78,-125.35 369.63,-126.64"/>
<polygon fill="#63b8ff" stroke="#63b8ff" points="346.42,-119.28 335.98,-121.12 345.29,-126.19 346.42,-119.28"/>
</a>
</g>
</g>
<!-- Node5 -->
<g id="Node000005" class="node">
<title>Node5</title>
<g id="a_Node000005"><a xlink:href="class_harlinn_1_1_common_1_1_core_1_1_data_1_1_delete_over_timeseries_range_data.xhtml" target="_top" xlink:title=" ">
<polygon fill="white" stroke="#666666" points="514.5,-100 371.5,-100 371.5,-59 514.5,-59 514.5,-100"/>
<text text-anchor="start" x="379.5" y="-88" font-family="Helvetica,sans-Serif" font-size="10.00">Harlinn::Common::Core</text>
<text text-anchor="start" x="379.5" y="-77" font-family="Helvetica,sans-Serif" font-size="10.00">::Data::DeleteOverTimeseries</text>
<text text-anchor="middle" x="443" y="-66" font-family="Helvetica,sans-Serif" font-size="10.00">RangeData&lt; TKind &gt;</text>
</a>
</g>
</g>
<!-- Node1&#45;&gt;Node5 -->
<g id="edge4_Node000001_Node000005" class="edge">
<title>Node1&#45;&gt;Node5</title>
<g id="a_edge4_Node000001_Node000005"><a xlink:title=" ">
<path fill="none" stroke="#63b8ff" d="M345.64,-94.77C354.17,-93.42 362.75,-92.06 371.09,-90.74"/>
<polygon fill="#63b8ff" stroke="#63b8ff" points="345.31,-91.28 335.98,-96.3 346.41,-98.19 345.31,-91.28"/>
</a>
</g>
</g>
<!-- Node6 -->
<g id="Node000006" class="node">
<title>Node6</title>
<g id="a_Node000006"><a xlink:href="class_harlinn_1_1_common_1_1_core_1_1_data_1_1_delete_until_timeseries_range_data.xhtml" target="_top" xlink:title=" ">
<polygon fill="white" stroke="#666666" points="514.5,-41 371.5,-41 371.5,0 514.5,0 514.5,-41"/>
<text text-anchor="start" x="379.5" y="-29" font-family="Helvetica,sans-Serif" font-size="10.00">Harlinn::Common::Core</text>
<text text-anchor="start" x="379.5" y="-18" font-family="Helvetica,sans-Serif" font-size="10.00">::Data::DeleteUntilTimeseries</text>
<text text-anchor="middle" x="443" y="-7" font-family="Helvetica,sans-Serif" font-size="10.00">RangeData&lt; TKind &gt;</text>
</a>
</g>
</g>
<!-- Node1&#45;&gt;Node6 -->
<g id="edge5_Node000001_Node000006" class="edge">
<title>Node1&#45;&gt;Node6</title>
<g id="a_edge5_Node000001_Node000006"><a xlink:title=" ">
<path fill="none" stroke="#63b8ff" d="M305.9,-82.16C325.47,-71.54 348.6,-59.46 370,-49.5 375.86,-46.77 382.06,-44.04 388.26,-41.42"/>
<polygon fill="#63b8ff" stroke="#63b8ff" points="304.43,-78.97 297.34,-86.84 307.79,-85.11 304.43,-78.97"/>
</a>
</g>
</g>
<!-- Node2 -->
<g id="Node000002" class="node">
<title>Node2</title>
<g id="a_Node000002"><a xlink:title=" ">
<polygon fill="white" stroke="#666666" points="146,-129 0,-129 0,-88 146,-88 146,-129"/>
<text text-anchor="start" x="8" y="-117" font-family="Helvetica,sans-Serif" font-size="10.00">std::enable_shared</text>
<text text-anchor="start" x="8" y="-106" font-family="Helvetica,sans-Serif" font-size="10.00">_from_this&lt; DeleteTimeseries</text>
<text text-anchor="middle" x="73" y="-95" font-family="Helvetica,sans-Serif" font-size="10.00">RangeData&lt; TKind &gt; &gt;</text>
</a>
</g>
</g>
<!-- Node2&#45;&gt;Node1 -->
<g id="edge1_Node000001_Node000002" class="edge">
<title>Node2&#45;&gt;Node1</title>
<g id="a_edge1_Node000001_Node000002"><a xlink:title=" ">
<path fill="none" stroke="#63b8ff" d="M157.57,-108.5C165.58,-108.5 173.67,-108.5 181.59,-108.5"/>
<polygon fill="#63b8ff" stroke="#63b8ff" points="157.84,-105 147.84,-108.5 157.84,-112 157.84,-105"/>
</a>
</g>
</g>
</g>
</svg>
