<?xml version="1.0" encoding="UTF-8" standalone="no"?>
<!DOCTYPE svg PUBLIC "-//W3C//DTD SVG 1.1//EN"
 "http://www.w3.org/Graphics/SVG/1.1/DTD/svg11.dtd">
<!-- Generated by graphviz version 7.0.1 (20221109.1506)
 -->
<!-- Title: Harlinn::Windows::Media::MediaObject::MediaType Pages: 1 -->
<svg width="185pt" height="247pt"
 viewBox="0.00 0.00 184.50 247.00" xmlns="http://www.w3.org/2000/svg" xmlns:xlink="http://www.w3.org/1999/xlink">
<g id="graph0" class="graph" transform="scale(1 1) rotate(0) translate(4 243)">
<title>Harlinn::Windows::Media::MediaObject::MediaType</title>
<!-- Node1 -->
<g id="Node000001" class="node">
<title>Node1</title>
<g id="a_Node000001"><a xlink:title=" ">
<polygon fill="#999999" stroke="#666666" points="131,-30 0,-30 0,0 131,0 131,-30"/>
<text text-anchor="start" x="8" y="-18" font-family="Helvetica,sans-Serif" font-size="10.00">Harlinn::Windows::Media</text>
<text text-anchor="middle" x="65.5" y="-7" font-family="Helvetica,sans-Serif" font-size="10.00">::MediaObject::MediaType</text>
</a>
</g>
</g>
<!-- Node2 -->
<g id="Node000002" class="node">
<title>Node2</title>
<g id="a_Node000002"><a xlink:title=" ">
<polygon fill="white" stroke="#666666" points="122,-107 9,-107 9,-77 122,-77 122,-107"/>
<text text-anchor="start" x="17" y="-95" font-family="Helvetica,sans-Serif" font-size="10.00">std::unique_ptr&lt; DMO</text>
<text text-anchor="middle" x="65.5" y="-84" font-family="Helvetica,sans-Serif" font-size="10.00">_MEDIA_TYPE &gt;</text>
</a>
</g>
</g>
<!-- Node2&#45;&gt;Node1 -->
<g id="edge1_Node000001_Node000002" class="edge">
<title>Node2&#45;&gt;Node1</title>
<g id="a_edge1_Node000001_Node000002"><a xlink:title=" ">
<path fill="none" stroke="#9a32cd" stroke-dasharray="5,2" d="M65.5,-65.23C65.5,-53.58 65.5,-40.26 65.5,-30.42"/>
<polygon fill="#9a32cd" stroke="#9a32cd" points="62,-65.03 65.5,-75.03 69,-65.03 62,-65.03"/>
</a>
</g>
<text text-anchor="middle" x="79.5" y="-51" font-family="Helvetica,sans-Serif" font-size="10.00" fill="grey"> data_</text>
</g>
<!-- Node3 -->
<g id="Node000003" class="node">
<title>Node3</title>
<g id="a_Node000003"><a xlink:title=" ">
<polygon fill="white" stroke="#666666" points="117.5,-173 13.5,-173 13.5,-154 117.5,-154 117.5,-173"/>
<text text-anchor="middle" x="65.5" y="-161" font-family="Helvetica,sans-Serif" font-size="10.00">std::unique_ptr&lt; T &gt;</text>
</a>
</g>
</g>
<!-- Node3&#45;&gt;Node2 -->
<g id="edge2_Node000002_Node000003" class="edge">
<title>Node3&#45;&gt;Node2</title>
<g id="a_edge2_Node000002_Node000003"><a xlink:title=" ">
<path fill="none" stroke="orange" stroke-dasharray="5,2" d="M65.5,-142.39C65.5,-131.15 65.5,-117.41 65.5,-107.27"/>
<polygon fill="orange" stroke="orange" points="62,-142.18 65.5,-152.18 69,-142.18 62,-142.18"/>
</a>
</g>
<text text-anchor="middle" x="121" y="-128" font-family="Helvetica,sans-Serif" font-size="10.00" fill="grey"> &lt; DMO_MEDIA_TYPE &gt;</text>
</g>
<!-- Node4 -->
<g id="Node000004" class="node">
<title>Node4</title>
<g id="a_Node000004"><a xlink:title=" ">
<polygon fill="white" stroke="#666666" points="80,-239 51,-239 51,-220 80,-220 80,-239"/>
<text text-anchor="middle" x="65.5" y="-227" font-family="Helvetica,sans-Serif" font-size="10.00">T</text>
</a>
</g>
</g>
<!-- Node4&#45;&gt;Node3 -->
<g id="edge3_Node000003_Node000004" class="edge">
<title>Node4&#45;&gt;Node3</title>
<g id="a_edge3_Node000003_Node000004"><a xlink:title=" ">
<path fill="none" stroke="#9a32cd" stroke-dasharray="5,2" d="M65.5,-208.18C65.5,-196.44 65.5,-182.27 65.5,-173.32"/>
<polygon fill="#9a32cd" stroke="#9a32cd" points="62,-208.09 65.5,-218.09 69,-208.09 62,-208.09"/>
</a>
</g>
<text text-anchor="middle" x="73" y="-194" font-family="Helvetica,sans-Serif" font-size="10.00" fill="grey"> ptr</text>
</g>
</g>
</svg>
