<?xml version="1.0" encoding="UTF-8" standalone="no"?>
<!DOCTYPE svg PUBLIC "-//W3C//DTD SVG 1.1//EN"
 "http://www.w3.org/Graphics/SVG/1.1/DTD/svg11.dtd">
<!-- Generated by graphviz version 7.0.1 (20221109.1506)
 -->
<!-- Title: Harlinn::Common::Core::IO::FindData&lt; CharT &gt; Pages: 1 -->
<svg width="166pt" height="204pt"
 viewBox="0.00 0.00 165.50 204.00" xmlns="http://www.w3.org/2000/svg" xmlns:xlink="http://www.w3.org/1999/xlink">
<g id="graph0" class="graph" transform="scale(1 1) rotate(0) translate(4 200)">
<title>Harlinn::Common::Core::IO::FindData&lt; CharT &gt;</title>
<!-- Node1 -->
<g id="Node000001" class="node">
<title>Node1</title>
<g id="a_Node000001"><a xlink:title=" ">
<polygon fill="#999999" stroke="#666666" points="130,-30 9,-30 9,0 130,0 130,-30"/>
<text text-anchor="start" x="17" y="-18" font-family="Helvetica,sans-Serif" font-size="10.00">Harlinn::Common::Core</text>
<text text-anchor="middle" x="69.5" y="-7" font-family="Helvetica,sans-Serif" font-size="10.00">::IO::FindData&lt; CharT &gt;</text>
</a>
</g>
</g>
<!-- Node2 -->
<g id="Node000002" class="node">
<title>Node2</title>
<g id="a_Node000002"><a xlink:href="struct_harlinn_1_1_common_1_1_core_1_1_i_o_1_1_find_data_base.xhtml" target="_top" xlink:title=" ">
<polygon fill="white" stroke="#666666" points="139,-108 0,-108 0,-67 139,-67 139,-108"/>
<text text-anchor="start" x="8" y="-96" font-family="Helvetica,sans-Serif" font-size="10.00">Harlinn::Common::Core</text>
<text text-anchor="start" x="8" y="-85" font-family="Helvetica,sans-Serif" font-size="10.00">::IO::FindDataBase&lt; std</text>
<text text-anchor="middle" x="69.5" y="-74" font-family="Helvetica,sans-Serif" font-size="10.00">::remove_cvref_t&lt; CharT &gt; &gt;</text>
</a>
</g>
</g>
<!-- Node2&#45;&gt;Node1 -->
<g id="edge1_Node000001_Node000002" class="edge">
<title>Node2&#45;&gt;Node1</title>
<g id="a_edge1_Node000001_Node000002"><a xlink:title=" ">
<path fill="none" stroke="#63b8ff" d="M69.5,-55.39C69.5,-46.68 69.5,-37.62 69.5,-30.39"/>
<polygon fill="#63b8ff" stroke="#63b8ff" points="66,-55.35 69.5,-65.35 73,-55.35 66,-55.35"/>
</a>
</g>
</g>
<!-- Node3 -->
<g id="Node000003" class="node">
<title>Node3</title>
<g id="a_Node000003"><a xlink:href="struct_harlinn_1_1_common_1_1_core_1_1_i_o_1_1_find_data_base.xhtml" target="_top" xlink:title=" ">
<polygon fill="white" stroke="#666666" points="131,-196 8,-196 8,-166 131,-166 131,-196"/>
<text text-anchor="start" x="16" y="-184" font-family="Helvetica,sans-Serif" font-size="10.00">Harlinn::Common::Core</text>
<text text-anchor="middle" x="69.5" y="-173" font-family="Helvetica,sans-Serif" font-size="10.00">::IO::FindDataBase&lt; T &gt;</text>
</a>
</g>
</g>
<!-- Node3&#45;&gt;Node2 -->
<g id="edge2_Node000002_Node000003" class="edge">
<title>Node3&#45;&gt;Node2</title>
<g id="a_edge2_Node000002_Node000003"><a xlink:title=" ">
<path fill="none" stroke="orange" stroke-dasharray="5,2" d="M69.5,-154.46C69.5,-139.92 69.5,-121.97 69.5,-108.47"/>
<polygon fill="orange" stroke="orange" points="66,-154.19 69.5,-164.19 73,-154.19 66,-154.19"/>
</a>
</g>
<text text-anchor="start" x="69.5" y="-140" font-family="Helvetica,sans-Serif" font-size="10.00" fill="grey"> &lt; std::remove_cvref</text>
<text text-anchor="middle" x="113.5" y="-129" font-family="Helvetica,sans-Serif" font-size="10.00" fill="grey">_t&lt; CharT &gt; &gt;</text>
</g>
</g>
</svg>
