<?xml version="1.0" encoding="UTF-8" standalone="no"?>
<!DOCTYPE svg PUBLIC "-//W3C//DTD SVG 1.1//EN"
 "http://www.w3.org/Graphics/SVG/1.1/DTD/svg11.dtd">
<!-- Generated by graphviz version 7.0.1 (20221109.1506)
 -->
<!-- Title: Harlinn::OCI::MethodArgumentDescriptor Pages: 1 -->
<svg width="172pt" height="203pt"
 viewBox="0.00 0.00 172.00 203.00" xmlns="http://www.w3.org/2000/svg" xmlns:xlink="http://www.w3.org/1999/xlink">
<g id="graph0" class="graph" transform="scale(1 1) rotate(0) translate(4 199)">
<title>Harlinn::OCI::MethodArgumentDescriptor</title>
<!-- Node1 -->
<g id="Node000001" class="node">
<title>Node1</title>
<g id="a_Node000001"><a xlink:title="MethodArgumentDescriptor.">
<polygon fill="#999999" stroke="#666666" points="156.5,-30 7.5,-30 7.5,0 156.5,0 156.5,-30"/>
<text text-anchor="start" x="15.5" y="-18" font-family="Helvetica,sans-Serif" font-size="10.00">Harlinn::OCI::MethodArgument</text>
<text text-anchor="middle" x="82" y="-7" font-family="Helvetica,sans-Serif" font-size="10.00">Descriptor</text>
</a>
</g>
</g>
<!-- Node2 -->
<g id="Node000002" class="node">
<title>Node2</title>
<g id="a_Node000002"><a xlink:href="class_harlinn_1_1_o_c_i_1_1_parameter_descriptor.xhtml" target="_top" xlink:title="ParameterDescriptor.">
<polygon fill="white" stroke="#666666" points="164,-85 0,-85 0,-66 164,-66 164,-85"/>
<text text-anchor="middle" x="82" y="-73" font-family="Helvetica,sans-Serif" font-size="10.00">Harlinn::OCI::ParameterDescriptor</text>
</a>
</g>
</g>
<!-- Node2&#45;&gt;Node1 -->
<g id="edge1_Node000001_Node000002" class="edge">
<title>Node2&#45;&gt;Node1</title>
<g id="a_edge1_Node000001_Node000002"><a xlink:title=" ">
<path fill="none" stroke="#63b8ff" d="M82,-54.51C82,-46.49 82,-37.43 82,-30.11"/>
<polygon fill="#63b8ff" stroke="#63b8ff" points="78.5,-54.35 82,-64.35 85.5,-54.35 78.5,-54.35"/>
</a>
</g>
</g>
<!-- Node3 -->
<g id="Node000003" class="node">
<title>Node3</title>
<g id="a_Node000003"><a xlink:href="class_harlinn_1_1_o_c_i_1_1_descriptor.xhtml" target="_top" xlink:title="Descriptor, base class for all the descriptors.">
<polygon fill="white" stroke="#666666" points="141.5,-140 22.5,-140 22.5,-121 141.5,-121 141.5,-140"/>
<text text-anchor="middle" x="82" y="-128" font-family="Helvetica,sans-Serif" font-size="10.00">Harlinn::OCI::Descriptor</text>
</a>
</g>
</g>
<!-- Node3&#45;&gt;Node2 -->
<g id="edge2_Node000002_Node000003" class="edge">
<title>Node3&#45;&gt;Node2</title>
<g id="a_edge2_Node000002_Node000003"><a xlink:title=" ">
<path fill="none" stroke="#63b8ff" d="M82,-109.35C82,-101.1 82,-91.97 82,-85.44"/>
<polygon fill="#63b8ff" stroke="#63b8ff" points="78.5,-109.23 82,-119.23 85.5,-109.23 78.5,-109.23"/>
</a>
</g>
</g>
<!-- Node4 -->
<g id="Node000004" class="node">
<title>Node4</title>
<g id="a_Node000004"><a xlink:href="class_harlinn_1_1_o_c_i_1_1_handle_base.xhtml" target="_top" xlink:title="Base class for OCI handle wrappers.">
<polygon fill="white" stroke="#666666" points="146,-195 18,-195 18,-176 146,-176 146,-195"/>
<text text-anchor="middle" x="82" y="-183" font-family="Helvetica,sans-Serif" font-size="10.00">Harlinn::OCI::HandleBase</text>
</a>
</g>
</g>
<!-- Node4&#45;&gt;Node3 -->
<g id="edge3_Node000003_Node000004" class="edge">
<title>Node4&#45;&gt;Node3</title>
<g id="a_edge3_Node000003_Node000004"><a xlink:title=" ">
<path fill="none" stroke="#63b8ff" d="M82,-164.35C82,-156.1 82,-146.97 82,-140.44"/>
<polygon fill="#63b8ff" stroke="#63b8ff" points="78.5,-164.23 82,-174.23 85.5,-164.23 78.5,-164.23"/>
</a>
</g>
</g>
</g>
</svg>
