<?xml version="1.0" encoding="UTF-8" standalone="no"?>
<!DOCTYPE svg PUBLIC "-//W3C//DTD SVG 1.1//EN"
 "http://www.w3.org/Graphics/SVG/1.1/DTD/svg11.dtd">
<!-- Generated by graphviz version 7.0.1 (20221109.1506)
 -->
<!-- Title: Harlinn::AI::DML::Device1 Pages: 1 -->
<svg width="136pt" height="203pt"
 viewBox="0.00 0.00 136.00 203.00" xmlns="http://www.w3.org/2000/svg" xmlns:xlink="http://www.w3.org/1999/xlink">
<g id="graph0" class="graph" transform="scale(1 1) rotate(0) translate(4 199)">
<title>Harlinn::AI::DML::Device1</title>
<!-- Node1 -->
<g id="Node000001" class="node">
<title>Node1</title>
<g id="a_Node000001"><a xlink:title=" ">
<polygon fill="#999999" stroke="#666666" points="128,-19 0,-19 0,0 128,0 128,-19"/>
<text text-anchor="middle" x="64" y="-7" font-family="Helvetica,sans-Serif" font-size="10.00">Harlinn::AI::DML::Device1</text>
</a>
</g>
</g>
<!-- Node2 -->
<g id="Node000002" class="node">
<title>Node2</title>
<g id="a_Node000002"><a xlink:href="class_harlinn_1_1_a_i_1_1_d_m_l_1_1_device.html" target="_top" xlink:title=" ">
<polygon fill="white" stroke="#666666" points="125,-74 3,-74 3,-55 125,-55 125,-74"/>
<text text-anchor="middle" x="64" y="-62" font-family="Helvetica,sans-Serif" font-size="10.00">Harlinn::AI::DML::Device</text>
</a>
</g>
</g>
<!-- Node2&#45;&gt;Node1 -->
<g id="edge1_Node000001_Node000002" class="edge">
<title>Node2&#45;&gt;Node1</title>
<g id="a_edge1_Node000001_Node000002"><a xlink:title=" ">
<path fill="none" stroke="#63b8ff" d="M64,-43.35C64,-35.1 64,-25.97 64,-19.44"/>
<polygon fill="#63b8ff" stroke="#63b8ff" points="60.5,-43.23 64,-53.23 67.5,-43.23 60.5,-43.23"/>
</a>
</g>
</g>
<!-- Node3 -->
<g id="Node000003" class="node">
<title>Node3</title>
<g id="a_Node000003"><a xlink:href="class_harlinn_1_1_a_i_1_1_d_m_l_1_1_object.html" target="_top" xlink:title=" ">
<polygon fill="white" stroke="#666666" points="125,-129 3,-129 3,-110 125,-110 125,-129"/>
<text text-anchor="middle" x="64" y="-117" font-family="Helvetica,sans-Serif" font-size="10.00">Harlinn::AI::DML::Object</text>
</a>
</g>
</g>
<!-- Node3&#45;&gt;Node2 -->
<g id="edge2_Node000002_Node000003" class="edge">
<title>Node3&#45;&gt;Node2</title>
<g id="a_edge2_Node000002_Node000003"><a xlink:title=" ">
<path fill="none" stroke="#63b8ff" d="M64,-98.35C64,-90.1 64,-80.97 64,-74.44"/>
<polygon fill="#63b8ff" stroke="#63b8ff" points="60.5,-98.23 64,-108.23 67.5,-98.23 60.5,-98.23"/>
</a>
</g>
</g>
<!-- Node4 -->
<g id="Node000004" class="node">
<title>Node4</title>
<g id="a_Node000004"><a xlink:href="class_harlinn_1_1_common_1_1_core_1_1_unknown.html" target="_top" xlink:title="Base class for COM interface wrappers.">
<polygon fill="white" stroke="#666666" points="123,-195 5,-195 5,-165 123,-165 123,-195"/>
<text text-anchor="start" x="13" y="-183" font-family="Helvetica,sans-Serif" font-size="10.00">Harlinn::Common::Core</text>
<text text-anchor="middle" x="64" y="-172" font-family="Helvetica,sans-Serif" font-size="10.00">::Unknown</text>
</a>
</g>
</g>
<!-- Node4&#45;&gt;Node3 -->
<g id="edge3_Node000003_Node000004" class="edge">
<title>Node4&#45;&gt;Node3</title>
<g id="a_edge3_Node000003_Node000004"><a xlink:title=" ">
<path fill="none" stroke="#63b8ff" d="M64,-153.3C64,-144.65 64,-135.58 64,-129.18"/>
<polygon fill="#63b8ff" stroke="#63b8ff" points="60.5,-153.03 64,-163.03 67.5,-153.03 60.5,-153.03"/>
</a>
</g>
</g>
</g>
</svg>
