<?xml version="1.0" encoding="UTF-8" standalone="no"?>
<!DOCTYPE svg PUBLIC "-//W3C//DTD SVG 1.1//EN"
 "http://www.w3.org/Graphics/SVG/1.1/DTD/svg11.dtd">
<!-- Generated by graphviz version 7.0.1 (20221109.1506)
 -->
<!-- Title: Harlinn::Common::Core::InsufficientExecutionStackException Pages: 1 -->
<svg width="145pt" height="236pt"
 viewBox="0.00 0.00 145.00 236.00" xmlns="http://www.w3.org/2000/svg" xmlns:xlink="http://www.w3.org/1999/xlink">
<g id="graph0" class="graph" transform="scale(1 1) rotate(0) translate(4 232)">
<title>Harlinn::Common::Core::InsufficientExecutionStackException</title>
<!-- Node1 -->
<g id="Node000001" class="node">
<title>Node1</title>
<g id="a_Node000001"><a xlink:title=" ">
<polygon fill="#999999" stroke="#666666" points="137,-41 0,-41 0,0 137,0 137,-41"/>
<text text-anchor="start" x="8" y="-29" font-family="Helvetica,sans-Serif" font-size="10.00">Harlinn::Common::Core</text>
<text text-anchor="start" x="8" y="-18" font-family="Helvetica,sans-Serif" font-size="10.00">::InsufficientExecutionStack</text>
<text text-anchor="middle" x="68.5" y="-7" font-family="Helvetica,sans-Serif" font-size="10.00">Exception</text>
</a>
</g>
</g>
<!-- Node2 -->
<g id="Node000002" class="node">
<title>Node2</title>
<g id="a_Node000002"><a xlink:href="class_harlinn_1_1_common_1_1_core_1_1_system_exception.xhtml" target="_top" xlink:title=" ">
<polygon fill="white" stroke="#666666" points="127.5,-107 9.5,-107 9.5,-77 127.5,-77 127.5,-107"/>
<text text-anchor="start" x="17.5" y="-95" font-family="Helvetica,sans-Serif" font-size="10.00">Harlinn::Common::Core</text>
<text text-anchor="middle" x="68.5" y="-84" font-family="Helvetica,sans-Serif" font-size="10.00">::SystemException</text>
</a>
</g>
</g>
<!-- Node2&#45;&gt;Node1 -->
<g id="edge1_Node000001_Node000002" class="edge">
<title>Node2&#45;&gt;Node1</title>
<g id="a_edge1_Node000001_Node000002"><a xlink:title=" ">
<path fill="none" stroke="#63b8ff" d="M68.5,-65.36C68.5,-57.45 68.5,-48.87 68.5,-41.42"/>
<polygon fill="#63b8ff" stroke="#63b8ff" points="65,-65.09 68.5,-75.09 72,-65.09 65,-65.09"/>
</a>
</g>
</g>
<!-- Node3 -->
<g id="Node000003" class="node">
<title>Node3</title>
<g id="a_Node000003"><a xlink:href="class_harlinn_1_1_common_1_1_core_1_1_exception.xhtml" target="_top" xlink:title=" ">
<polygon fill="white" stroke="#666666" points="127.5,-173 9.5,-173 9.5,-143 127.5,-143 127.5,-173"/>
<text text-anchor="start" x="17.5" y="-161" font-family="Helvetica,sans-Serif" font-size="10.00">Harlinn::Common::Core</text>
<text text-anchor="middle" x="68.5" y="-150" font-family="Helvetica,sans-Serif" font-size="10.00">::Exception</text>
</a>
</g>
</g>
<!-- Node3&#45;&gt;Node2 -->
<g id="edge2_Node000002_Node000003" class="edge">
<title>Node3&#45;&gt;Node2</title>
<g id="a_edge2_Node000002_Node000003"><a xlink:title=" ">
<path fill="none" stroke="#63b8ff" d="M68.5,-131.39C68.5,-123.13 68.5,-114.28 68.5,-107.16"/>
<polygon fill="#63b8ff" stroke="#63b8ff" points="65,-131.28 68.5,-141.28 72,-131.28 65,-131.28"/>
</a>
</g>
</g>
<!-- Node4 -->
<g id="Node000004" class="node">
<title>Node4</title>
<g id="a_Node000004"><a xlink:title=" ">
<polygon fill="white" stroke="#666666" points="107.5,-228 29.5,-228 29.5,-209 107.5,-209 107.5,-228"/>
<text text-anchor="middle" x="68.5" y="-216" font-family="Helvetica,sans-Serif" font-size="10.00">std::exception</text>
</a>
</g>
</g>
<!-- Node4&#45;&gt;Node3 -->
<g id="edge3_Node000003_Node000004" class="edge">
<title>Node4&#45;&gt;Node3</title>
<g id="a_edge3_Node000003_Node000004"><a xlink:title=" ">
<path fill="none" stroke="#63b8ff" d="M68.5,-197.51C68.5,-189.49 68.5,-180.43 68.5,-173.11"/>
<polygon fill="#63b8ff" stroke="#63b8ff" points="65,-197.35 68.5,-207.35 72,-197.35 65,-197.35"/>
</a>
</g>
</g>
</g>
</svg>
