<?xml version="1.0" encoding="UTF-8" standalone="no"?>
<!DOCTYPE svg PUBLIC "-//W3C//DTD SVG 1.1//EN"
 "http://www.w3.org/Graphics/SVG/1.1/DTD/svg11.dtd">
<!-- Generated by graphviz version 7.0.1 (20221109.1506)
 -->
<!-- Title: Harlinn::OCI::FixedBinaryDefine&lt; binarySize &gt; Pages: 1 -->
<svg width="2379pt" height="677pt"
 viewBox="0.00 0.00 2379.00 676.50" xmlns="http://www.w3.org/2000/svg" xmlns:xlink="http://www.w3.org/1999/xlink">
<g id="graph0" class="graph" transform="scale(1 1) rotate(0) translate(4 672.5)">
<title>Harlinn::OCI::FixedBinaryDefine&lt; binarySize &gt;</title>
<!-- Node1 -->
<g id="Node000001" class="node">
<title>Node1</title>
<g id="a_Node000001"><a xlink:title="FixedBinaryDefine.">
<polygon fill="#999999" stroke="#666666" points="2354,-655.5 2227,-655.5 2227,-625.5 2354,-625.5 2354,-655.5"/>
<text text-anchor="start" x="2235" y="-643.5" font-family="Helvetica,sans-Serif" font-size="10.00">Harlinn::OCI::FixedBinary</text>
<text text-anchor="middle" x="2290.5" y="-632.5" font-family="Helvetica,sans-Serif" font-size="10.00">Define&lt; binarySize &gt;</text>
</a>
</g>
</g>
<!-- Node2 -->
<g id="Node000002" class="node">
<title>Node2</title>
<g id="a_Node000002"><a xlink:href="class_harlinn_1_1_o_c_i_1_1_define.xhtml" target="_top" xlink:title="Define, base class for defines for use with the DataReader class.">
<polygon fill="white" stroke="#666666" points="2122,-625 2020,-625 2020,-606 2122,-606 2122,-625"/>
<text text-anchor="middle" x="2071" y="-613" font-family="Helvetica,sans-Serif" font-size="10.00">Harlinn::OCI::Define</text>
</a>
</g>
</g>
<!-- Node2&#45;&gt;Node1 -->
<g id="edge1_Node000001_Node000002" class="edge">
<title>Node2&#45;&gt;Node1</title>
<g id="a_edge1_Node000001_Node000002"><a xlink:title=" ">
<path fill="none" stroke="#63b8ff" d="M2133.73,-622.6C2162.89,-625.95 2197.62,-629.94 2226.88,-633.3"/>
<polygon fill="#63b8ff" stroke="#63b8ff" points="2134.28,-619.14 2123.95,-621.47 2133.48,-626.09 2134.28,-619.14"/>
</a>
</g>
</g>
<!-- Node3 -->
<g id="Node000003" class="node">
<title>Node3</title>
<g id="a_Node000003"><a xlink:href="class_harlinn_1_1_o_c_i_1_1_define_base.xhtml" target="_top" xlink:title="DefineBase, base class for all defines.">
<polygon fill="white" stroke="#666666" points="1943,-625 1818,-625 1818,-606 1943,-606 1943,-625"/>
<text text-anchor="middle" x="1880.5" y="-613" font-family="Helvetica,sans-Serif" font-size="10.00">Harlinn::OCI::DefineBase</text>
</a>
</g>
</g>
<!-- Node3&#45;&gt;Node2 -->
<g id="edge2_Node000002_Node000003" class="edge">
<title>Node3&#45;&gt;Node2</title>
<g id="a_edge2_Node000002_Node000003"><a xlink:title=" ">
<path fill="none" stroke="#63b8ff" d="M1954.97,-615.5C1976.6,-615.5 1999.77,-615.5 2019.6,-615.5"/>
<polygon fill="#63b8ff" stroke="#63b8ff" points="1955,-612 1945,-615.5 1955,-619 1955,-612"/>
</a>
</g>
</g>
<!-- Node4 -->
<g id="Node000004" class="node">
<title>Node4</title>
<g id="a_Node000004"><a xlink:href="class_harlinn_1_1_o_c_i_1_1_handle_base.xhtml" target="_top" xlink:title="Base class for OCI handle wrappers.">
<polygon fill="white" stroke="#666666" points="494,-306 366,-306 366,-287 494,-287 494,-306"/>
<text text-anchor="middle" x="430" y="-294" font-family="Helvetica,sans-Serif" font-size="10.00">Harlinn::OCI::HandleBase</text>
</a>
</g>
</g>
<!-- Node4&#45;&gt;Node3 -->
<g id="edge3_Node000003_Node000004" class="edge">
<title>Node4&#45;&gt;Node3</title>
<g id="a_edge3_Node000003_Node000004"><a xlink:title=" ">
<path fill="none" stroke="#63b8ff" d="M439.77,-316.65C458.51,-359.49 501.58,-456.73 512,-469.5 580.66,-553.67 599.38,-615.5 708,-615.5 708,-615.5 708,-615.5 1671,-615.5 1720.41,-615.5 1776.41,-615.5 1817.92,-615.5"/>
<polygon fill="#63b8ff" stroke="#63b8ff" points="443.09,-315.5 435.88,-307.74 436.67,-318.3 443.09,-315.5"/>
</a>
</g>
</g>
<!-- Node5 -->
<g id="Node000005" class="node">
<title>Node5</title>
<g id="a_Node000005"><a xlink:href="class_harlinn_1_1_o_c_i_1_1_statement.xhtml" target="_top" xlink:title="Statement, the context that identifies a SQL or PL/SQL statement and its associated attributes.">
<polygon fill="white" stroke="#666666" points="1730,-305 1610,-305 1610,-286 1730,-286 1730,-305"/>
<text text-anchor="middle" x="1670" y="-293" font-family="Helvetica,sans-Serif" font-size="10.00">Harlinn::OCI::Statement</text>
</a>
</g>
</g>
<!-- Node4&#45;&gt;Node5 -->
<g id="edge5_Node000005_Node000004" class="edge">
<title>Node4&#45;&gt;Node5</title>
<g id="a_edge5_Node000005_Node000004"><a xlink:title=" ">
<path fill="none" stroke="#63b8ff" d="M443.5,-277.12C457.59,-257.01 482.43,-226.31 512,-210.5 589.9,-168.84 619.66,-177.5 708,-177.5 708,-177.5 708,-177.5 1432,-177.5 1528.98,-177.5 1627.1,-257.66 1658.6,-285.84"/>
<polygon fill="#63b8ff" stroke="#63b8ff" points="440.68,-275.04 437.99,-285.29 446.49,-278.96 440.68,-275.04"/>
</a>
</g>
</g>
<!-- Node6 -->
<g id="Node000006" class="node">
<title>Node6</title>
<g id="a_Node000006"><a xlink:href="class_harlinn_1_1_o_c_i_1_1_service_context.xhtml" target="_top" xlink:title="ServiceContext &#45; A service context handle defines attributes that determine the operational context f...">
<polygon fill="white" stroke="#666666" points="1501,-432 1361,-432 1361,-413 1501,-413 1501,-432"/>
<text text-anchor="middle" x="1431" y="-420" font-family="Helvetica,sans-Serif" font-size="10.00">Harlinn::OCI::ServiceContext</text>
</a>
</g>
</g>
<!-- Node4&#45;&gt;Node6 -->
<g id="edge7_Node000006_Node000004" class="edge">
<title>Node4&#45;&gt;Node6</title>
<g id="a_edge7_Node000006_Node000004"><a xlink:title=" ">
<path fill="none" stroke="#63b8ff" d="M481.03,-283.98C536.22,-271.29 627.87,-253.5 708,-253.5 708,-253.5 708,-253.5 1218.5,-253.5 1321.43,-253.5 1403.04,-377.18 1424.47,-412.93"/>
<polygon fill="#63b8ff" stroke="#63b8ff" points="480.57,-280.5 471.63,-286.18 482.16,-287.31 480.57,-280.5"/>
</a>
</g>
</g>
<!-- Node7 -->
<g id="Node000007" class="node">
<title>Node7</title>
<g id="a_Node000007"><a xlink:href="class_harlinn_1_1_o_c_i_1_1_environment.xhtml" target="_top" xlink:title="The environment handle defines a context in which all OCI functions are invoked.">
<polygon fill="white" stroke="#666666" points="773,-444 645,-444 645,-425 773,-425 773,-444"/>
<text text-anchor="middle" x="709" y="-432" font-family="Helvetica,sans-Serif" font-size="10.00">Harlinn::OCI::Environment</text>
</a>
</g>
</g>
<!-- Node4&#45;&gt;Node7 -->
<g id="edge9_Node000007_Node000004" class="edge">
<title>Node4&#45;&gt;Node7</title>
<g id="a_edge9_Node000007_Node000004"><a xlink:title=" ">
<path fill="none" stroke="#63b8ff" d="M453.99,-312.64C469.89,-323.45 491.75,-337.65 512,-348.5 570.95,-380.1 643.9,-409.78 682.02,-424.62"/>
<polygon fill="#63b8ff" stroke="#63b8ff" points="456.4,-310.05 446.18,-307.26 452.43,-315.81 456.4,-310.05"/>
</a>
</g>
</g>
<!-- Node11 -->
<g id="Node000011" class="node">
<title>Node11</title>
<g id="a_Node000011"><a xlink:href="class_harlinn_1_1_o_c_i_1_1_error_handle.xhtml" target="_top" xlink:title="The error handle is passed as a parameter to most OCI calls.">
<polygon fill="white" stroke="#666666" points="1056,-437 930,-437 930,-418 1056,-418 1056,-437"/>
<text text-anchor="middle" x="993" y="-425" font-family="Helvetica,sans-Serif" font-size="10.00">Harlinn::OCI::ErrorHandle</text>
</a>
</g>
</g>
<!-- Node4&#45;&gt;Node11 -->
<g id="edge14_Node000011_Node000004" class="edge">
<title>Node4&#45;&gt;Node11</title>
<g id="a_edge14_Node000011_Node000004"><a xlink:title=" ">
<path fill="none" stroke="#63b8ff" d="M485.3,-309.06C574.42,-329.7 757.28,-372.11 912,-408.5 924.37,-411.41 937.8,-414.59 950.07,-417.51"/>
<polygon fill="#63b8ff" stroke="#63b8ff" points="486.14,-305.66 475.61,-306.82 484.56,-312.48 486.14,-305.66"/>
</a>
</g>
</g>
<!-- Node12 -->
<g id="Node000012" class="node">
<title>Node12</title>
<g id="a_Node000012"><a xlink:href="class_harlinn_1_1_o_c_i_1_1_server.xhtml" target="_top" xlink:title="A server handle represents a connection between the client application and the Oracle database server...">
<polygon fill="white" stroke="#666666" points="1268.5,-395 1166.5,-395 1166.5,-376 1268.5,-376 1268.5,-395"/>
<text text-anchor="middle" x="1217.5" y="-383" font-family="Helvetica,sans-Serif" font-size="10.00">Harlinn::OCI::Server</text>
</a>
</g>
</g>
<!-- Node4&#45;&gt;Node12 -->
<g id="edge17_Node000012_Node000004" class="edge">
<title>Node4&#45;&gt;Node12</title>
<g id="a_edge17_Node000012_Node000004"><a xlink:title=" ">
<path fill="none" stroke="#63b8ff" d="M505.65,-300.66C680.69,-310.54 1105.08,-335.18 1135,-343.5 1160,-350.45 1186.2,-365.58 1201.94,-375.65"/>
<polygon fill="#63b8ff" stroke="#63b8ff" points="505.93,-297.18 495.75,-300.11 505.53,-304.16 505.93,-297.18"/>
</a>
</g>
</g>
<!-- Node13 -->
<g id="Node000013" class="node">
<title>Node13</title>
<g id="a_Node000013"><a xlink:href="class_harlinn_1_1_o_c_i_1_1_session.xhtml" target="_top" xlink:title="Session.">
<polygon fill="white" stroke="#666666" points="1272.5,-491 1162.5,-491 1162.5,-472 1272.5,-472 1272.5,-491"/>
<text text-anchor="middle" x="1217.5" y="-479" font-family="Helvetica,sans-Serif" font-size="10.00">Harlinn::OCI::Session</text>
</a>
</g>
</g>
<!-- Node4&#45;&gt;Node13 -->
<g id="edge21_Node000013_Node000004" class="edge">
<title>Node4&#45;&gt;Node13</title>
<g id="a_edge21_Node000013_Node000004"><a xlink:title=" ">
<path fill="none" stroke="#63b8ff" d="M444.55,-315.65C459.36,-335.54 484.66,-366.62 512,-387.5 564.45,-427.54 581.86,-434.32 645,-453.5 828.19,-509.14 882.55,-491.17 1074,-492.5 1101.11,-492.69 1107.95,-494.32 1135,-492.5 1143.83,-491.91 1153.17,-490.96 1162.24,-489.85"/>
<polygon fill="#63b8ff" stroke="#63b8ff" points="447.41,-313.63 438.69,-307.6 441.75,-317.75 447.41,-313.63"/>
</a>
</g>
</g>
<!-- Node14 -->
<g id="Node000014" class="node">
<title>Node14</title>
<g id="a_Node000014"><a xlink:href="class_harlinn_1_1_o_c_i_1_1_subscription.xhtml" target="_top" xlink:title="Subscription.">
<polygon fill="white" stroke="#666666" points="1282,-305 1153,-305 1153,-286 1282,-286 1282,-305"/>
<text text-anchor="middle" x="1217.5" y="-293" font-family="Helvetica,sans-Serif" font-size="10.00">Harlinn::OCI::Subscription</text>
</a>
</g>
</g>
<!-- Node4&#45;&gt;Node14 -->
<g id="edge27_Node000014_Node000004" class="edge">
<title>Node4&#45;&gt;Node14</title>
<g id="a_edge27_Node000014_Node000004"><a xlink:title=" ">
<path fill="none" stroke="#63b8ff" d="M448.37,-279.41C463.68,-265.63 487.33,-247.31 512,-239.5 763.49,-159.88 1089.47,-253.5 1187.43,-285.52"/>
<polygon fill="#63b8ff" stroke="#63b8ff" points="446.4,-276.46 441.48,-285.85 451.18,-281.58 446.4,-276.46"/>
</a>
</g>
</g>
<!-- Node17 -->
<g id="Node000017" class="node">
<title>Node17</title>
<g id="a_Node000017"><a xlink:href="class_harlinn_1_1_o_c_i_1_1_bind_base.xhtml" target="_top" xlink:title="BindBase, base class for binds.">
<polygon fill="white" stroke="#666666" points="1939,-136 1822,-136 1822,-117 1939,-117 1939,-136"/>
<text text-anchor="middle" x="1880.5" y="-124" font-family="Helvetica,sans-Serif" font-size="10.00">Harlinn::OCI::BindBase</text>
</a>
</g>
</g>
<!-- Node4&#45;&gt;Node17 -->
<g id="edge33_Node000017_Node000004" class="edge">
<title>Node4&#45;&gt;Node17</title>
<g id="a_edge33_Node000017_Node000004"><a xlink:title=" ">
<path fill="none" stroke="#63b8ff" d="M437.98,-275.83C448.85,-247.19 472.74,-196.28 512,-172.5 576.64,-133.34 774.92,-139.5 850.5,-139.5 850.5,-139.5 850.5,-139.5 1671,-139.5 1721.96,-139.5 1779.78,-135.58 1821.59,-132.05"/>
<polygon fill="#63b8ff" stroke="#63b8ff" points="434.71,-274.58 434.63,-285.17 441.3,-276.94 434.71,-274.58"/>
</a>
</g>
</g>
<!-- Node5&#45;&gt;Node3 -->
<g id="edge4_Node000003_Node000005" class="edge">
<title>Node5&#45;&gt;Node3</title>
<g id="a_edge4_Node000003_Node000005"><a xlink:title=" ">
<path fill="none" stroke="#9a32cd" stroke-dasharray="5,2" d="M1683.7,-314.99C1723.35,-375.84 1843.96,-560.95 1873.11,-605.69"/>
<polygon fill="#9a32cd" stroke="#9a32cd" points="1686.69,-313.16 1678.29,-306.7 1680.82,-316.99 1686.69,-313.16"/>
</a>
</g>
<text text-anchor="middle" x="1774" y="-486.5" font-family="Helvetica,sans-Serif" font-size="10.00" fill="grey"> statement_</text>
</g>
<!-- Node5&#45;&gt;Node17 -->
<g id="edge34_Node000017_Node000005" class="edge">
<title>Node5&#45;&gt;Node17</title>
<g id="a_edge34_Node000017_Node000005"><a xlink:title=" ">
<path fill="none" stroke="#9a32cd" stroke-dasharray="5,2" d="M1691.93,-278.54C1735.14,-243.51 1833.05,-164.15 1867.36,-136.34"/>
<polygon fill="#9a32cd" stroke="#9a32cd" points="1689.85,-275.71 1684.29,-284.73 1694.26,-281.15 1689.85,-275.71"/>
</a>
</g>
<text text-anchor="middle" x="1774" y="-233.5" font-family="Helvetica,sans-Serif" font-size="10.00" fill="grey"> statement_</text>
</g>
<!-- Node6&#45;&gt;Node5 -->
<g id="edge6_Node000005_Node000006" class="edge">
<title>Node6&#45;&gt;Node5</title>
<g id="a_edge6_Node000005_Node000006"><a xlink:title=" ">
<path fill="none" stroke="#9a32cd" stroke-dasharray="5,2" d="M1460.58,-407.18C1509.81,-380.8 1609.3,-327.49 1650.49,-305.42"/>
<polygon fill="#9a32cd" stroke="#9a32cd" points="1459.09,-404.01 1451.93,-411.82 1462.4,-410.18 1459.09,-404.01"/>
</a>
</g>
<text text-anchor="middle" x="1555.5" y="-376.5" font-family="Helvetica,sans-Serif" font-size="10.00" fill="grey"> serviceContext_</text>
</g>
<!-- Node7&#45;&gt;Node6 -->
<g id="edge8_Node000006_Node000007" class="edge">
<title>Node7&#45;&gt;Node6</title>
<g id="a_edge8_Node000006_Node000007"><a xlink:title=" ">
<path fill="none" stroke="#9a32cd" stroke-dasharray="5,2" d="M742.24,-448.92C756.93,-455.15 774.65,-462.21 791,-467.5 914.17,-507.36 945.5,-520.77 1074,-536.5 1173.7,-548.7 1199.55,-537.28 1300,-537.5 1319.11,-537.54 1325.89,-546.01 1343,-537.5 1388.5,-514.87 1416.55,-455.82 1426.21,-432.34"/>
<polygon fill="#9a32cd" stroke="#9a32cd" points="743.64,-445.7 733.07,-444.95 740.86,-452.13 743.64,-445.7"/>
</a>
</g>
<text text-anchor="middle" x="1104.5" y="-544.5" font-family="Helvetica,sans-Serif" font-size="10.00" fill="grey"> environment_</text>
</g>
<!-- Node7&#45;&gt;Node11 -->
<g id="edge15_Node000011_Node000007" class="edge">
<title>Node7&#45;&gt;Node11</title>
<g id="a_edge15_Node000011_Node000007"><a xlink:title=" ">
<path fill="none" stroke="#9a32cd" stroke-dasharray="5,2" d="M757.81,-422.06C768.65,-419.75 780.16,-417.69 791,-416.5 844.46,-410.63 858.35,-412.83 912,-416.5 917.73,-416.89 923.68,-417.44 929.63,-418.09"/>
<polygon fill="#9a32cd" stroke="#9a32cd" points="757.28,-418.59 748.29,-424.2 758.81,-425.42 757.28,-418.59"/>
</a>
</g>
<text text-anchor="middle" x="851.5" y="-419.5" font-family="Helvetica,sans-Serif" font-size="10.00" fill="grey"> environment_</text>
</g>
<!-- Node7&#45;&gt;Node12 -->
<g id="edge18_Node000012_Node000007" class="edge">
<title>Node7&#45;&gt;Node12</title>
<g id="a_edge18_Node000012_Node000007"><a xlink:title=" ">
<path fill="none" stroke="#9a32cd" stroke-dasharray="5,2" d="M746.06,-420.89C759.92,-416.2 776.01,-411.4 791,-408.5 924.64,-382.63 1085.99,-382.07 1166.17,-383.8"/>
<polygon fill="#9a32cd" stroke="#9a32cd" points="745.2,-417.48 736.92,-424.09 747.51,-424.09 745.2,-417.48"/>
</a>
</g>
<text text-anchor="middle" x="993" y="-392.5" font-family="Helvetica,sans-Serif" font-size="10.00" fill="grey"> environment_</text>
</g>
<!-- Node7&#45;&gt;Node13 -->
<g id="edge22_Node000013_Node000007" class="edge">
<title>Node7&#45;&gt;Node13</title>
<g id="a_edge22_Node000013_Node000007"><a xlink:title=" ">
<path fill="none" stroke="#9a32cd" stroke-dasharray="5,2" d="M784.41,-445.64C786.63,-445.93 788.83,-446.22 791,-446.5 916.49,-462.66 947.77,-468.83 1074,-477.5 1103.14,-479.5 1135.69,-480.51 1162.32,-481.01"/>
<polygon fill="#9a32cd" stroke="#9a32cd" points="785.08,-442.19 774.7,-444.31 784.13,-449.13 785.08,-442.19"/>
</a>
</g>
<text text-anchor="middle" x="993" y="-478.5" font-family="Helvetica,sans-Serif" font-size="10.00" fill="grey"> environment_</text>
</g>
<!-- Node7&#45;&gt;Node14 -->
<g id="edge28_Node000014_Node000007" class="edge">
<title>Node7&#45;&gt;Node14</title>
<g id="a_edge28_Node000014_Node000007"><a xlink:title=" ">
<path fill="none" stroke="#9a32cd" stroke-dasharray="5,2" d="M733.34,-418.32C749.01,-408.13 770.48,-395.44 791,-387.5 914.34,-339.75 1067.89,-314.29 1152.71,-302.96"/>
<polygon fill="#9a32cd" stroke="#9a32cd" points="731.59,-415.28 725.2,-423.74 735.47,-421.1 731.59,-415.28"/>
</a>
</g>
<text text-anchor="middle" x="993" y="-346.5" font-family="Helvetica,sans-Serif" font-size="10.00" fill="grey"> environment_</text>
</g>
<!-- Node8 -->
<g id="Node000008" class="node">
<title>Node8</title>
<g id="a_Node000008"><a xlink:title=" ">
<polygon fill="white" stroke="#666666" points="494,-478.5 366,-478.5 366,-448.5 494,-448.5 494,-478.5"/>
<text text-anchor="start" x="374" y="-466.5" font-family="Helvetica,sans-Serif" font-size="10.00">std::atomic&lt; Environment</text>
<text text-anchor="middle" x="430" y="-455.5" font-family="Helvetica,sans-Serif" font-size="10.00">Mode &gt;</text>
</a>
</g>
</g>
<!-- Node8&#45;&gt;Node7 -->
<g id="edge10_Node000007_Node000008" class="edge">
<title>Node8&#45;&gt;Node7</title>
<g id="a_edge10_Node000007_Node000008"><a xlink:title=" ">
<path fill="none" stroke="#9a32cd" stroke-dasharray="5,2" d="M505.57,-455.69C549.02,-451.14 603.21,-445.47 644.59,-441.14"/>
<polygon fill="#9a32cd" stroke="#9a32cd" points="505.29,-452.2 495.71,-456.73 506.02,-459.17 505.29,-452.2"/>
</a>
</g>
<text text-anchor="middle" x="569.5" y="-457.5" font-family="Helvetica,sans-Serif" font-size="10.00" fill="grey"> defaultEnvironmentMode_</text>
</g>
<!-- Node9 -->
<g id="Node000009" class="node">
<title>Node9</title>
<g id="a_Node000009"><a xlink:title=" ">
<polygon fill="white" stroke="#666666" points="211.5,-254 122.5,-254 122.5,-235 211.5,-235 211.5,-254"/>
<text text-anchor="middle" x="167" y="-242" font-family="Helvetica,sans-Serif" font-size="10.00">std::atomic&lt; T &gt;</text>
</a>
</g>
</g>
<!-- Node9&#45;&gt;Node8 -->
<g id="edge11_Node000008_Node000009" class="edge">
<title>Node9&#45;&gt;Node8</title>
<g id="a_edge11_Node000008_Node000009"><a xlink:title=" ">
<path fill="none" stroke="orange" stroke-dasharray="5,2" d="M188.48,-261.68C237.99,-303.23 363.6,-408.63 410.75,-448.19"/>
<polygon fill="orange" stroke="orange" points="190.96,-259.2 181.05,-255.45 186.46,-264.56 190.96,-259.2"/>
</a>
</g>
<text text-anchor="middle" x="296" y="-395.5" font-family="Helvetica,sans-Serif" font-size="10.00" fill="grey"> &lt; EnvironmentMode &gt;</text>
</g>
<!-- Node10 -->
<g id="Node000010" class="node">
<title>Node10</title>
<g id="a_Node000010"><a xlink:title=" ">
<polygon fill="white" stroke="#666666" points="29,-134 0,-134 0,-115 29,-115 29,-134"/>
<text text-anchor="middle" x="14.5" y="-122" font-family="Helvetica,sans-Serif" font-size="10.00">T</text>
</a>
</g>
</g>
<!-- Node10&#45;&gt;Node9 -->
<g id="edge12_Node000009_Node000010" class="edge">
<title>Node10&#45;&gt;Node9</title>
<g id="a_edge12_Node000009_Node000010"><a xlink:title=" ">
<path fill="none" stroke="#9a32cd" stroke-dasharray="5,2" d="M36.76,-141.45C68.63,-166.87 127.79,-214.03 153.51,-234.54"/>
<polygon fill="#9a32cd" stroke="#9a32cd" points="39,-138.76 29,-135.26 34.64,-144.23 39,-138.76"/>
</a>
</g>
<text text-anchor="middle" x="68.5" y="-183.5" font-family="Helvetica,sans-Serif" font-size="10.00" fill="grey"> ptr</text>
</g>
<!-- Node19 -->
<g id="Node000019" class="node">
<title>Node19</title>
<g id="a_Node000019"><a xlink:href="struct_harlinn_1_1_common_1_1_core_1_1_internal_1_1_data.xhtml" target="_top" xlink:title=" ">
<polygon fill="white" stroke="#666666" points="226,-139.5 108,-139.5 108,-109.5 226,-109.5 226,-139.5"/>
<text text-anchor="start" x="116" y="-127.5" font-family="Helvetica,sans-Serif" font-size="10.00">Harlinn::Common::Core</text>
<text text-anchor="middle" x="167" y="-116.5" font-family="Helvetica,sans-Serif" font-size="10.00">::Internal::Data&lt; T &gt;</text>
</a>
</g>
</g>
<!-- Node10&#45;&gt;Node19 -->
<g id="edge37_Node000019_Node000010" class="edge">
<title>Node10&#45;&gt;Node19</title>
<g id="a_edge37_Node000019_Node000010"><a xlink:title=" ">
<path fill="none" stroke="#9a32cd" stroke-dasharray="5,2" d="M40.8,-124.5C59.11,-124.5 84.62,-124.5 107.84,-124.5"/>
<polygon fill="#9a32cd" stroke="#9a32cd" points="40.9,-121 30.9,-124.5 40.9,-128 40.9,-121"/>
</a>
</g>
<text text-anchor="middle" x="68.5" y="-127.5" font-family="Helvetica,sans-Serif" font-size="10.00" fill="grey"> buffer_</text>
</g>
<!-- Node21 -->
<g id="Node000021" class="node">
<title>Node21</title>
<g id="a_Node000021"><a xlink:title=" ">
<polygon fill="white" stroke="#666666" points="348,-66 244,-66 244,-47 348,-47 348,-66"/>
<text text-anchor="middle" x="296" y="-54" font-family="Helvetica,sans-Serif" font-size="10.00">std::unique_ptr&lt; T &gt;</text>
</a>
</g>
</g>
<!-- Node10&#45;&gt;Node21 -->
<g id="edge41_Node000021_Node000010" class="edge">
<title>Node10&#45;&gt;Node21</title>
<g id="a_edge41_Node000021_Node000010"><a xlink:title=" ">
<path fill="none" stroke="#9a32cd" stroke-dasharray="5,2" d="M39.64,-112.31C42.1,-111.28 44.58,-110.32 47,-109.5 113.28,-86.98 192.9,-71.99 243.72,-63.86"/>
<polygon fill="#9a32cd" stroke="#9a32cd" points="38.32,-109.07 30.69,-116.43 41.24,-115.43 38.32,-109.07"/>
</a>
</g>
<text text-anchor="middle" x="68.5" y="-112.5" font-family="Helvetica,sans-Serif" font-size="10.00" fill="grey"> ptr</text>
</g>
<!-- Node22 -->
<g id="Node000022" class="node">
<title>Node22</title>
<g id="a_Node000022"><a xlink:title=" ">
<polygon fill="white" stroke="#666666" points="612,-19 527,-19 527,0 612,0 612,-19"/>
<text text-anchor="middle" x="569.5" y="-7" font-family="Helvetica,sans-Serif" font-size="10.00">std::vector&lt; T &gt;</text>
</a>
</g>
</g>
<!-- Node10&#45;&gt;Node22 -->
<g id="edge43_Node000022_Node000010" class="edge">
<title>Node10&#45;&gt;Node22</title>
<g id="a_edge43_Node000022_Node000010"><a xlink:title=" ">
<path fill="none" stroke="#9a32cd" stroke-dasharray="5,2" d="M31.81,-106.4C48.85,-88.92 77.34,-63.52 108,-52.5 254.78,0.27 443.95,-2.29 526.67,-6.59"/>
<polygon fill="#9a32cd" stroke="#9a32cd" points="29.34,-103.92 25.03,-113.6 34.43,-108.72 29.34,-103.92"/>
</a>
</g>
<text text-anchor="middle" x="167" y="-55.5" font-family="Helvetica,sans-Serif" font-size="10.00" fill="grey"> elements</text>
</g>
<!-- Node24 -->
<g id="Node000024" class="node">
<title>Node24</title>
<g id="a_Node000024"><a xlink:title=" ">
<polygon fill="white" stroke="#666666" points="207.5,-477 126.5,-477 126.5,-458 207.5,-458 207.5,-477"/>
<text text-anchor="middle" x="167" y="-465" font-family="Helvetica,sans-Serif" font-size="10.00">std::array&lt; T &gt;</text>
</a>
</g>
</g>
<!-- Node10&#45;&gt;Node24 -->
<g id="edge46_Node000024_Node000010" class="edge">
<title>Node10&#45;&gt;Node24</title>
<g id="a_edge46_Node000024_Node000010"><a xlink:title=" ">
<path fill="none" stroke="#9a32cd" stroke-dasharray="5,2" d="M24.44,-144.88C52.95,-209.84 141,-410.53 161.64,-457.56"/>
<polygon fill="#9a32cd" stroke="#9a32cd" points="27.67,-143.53 20.45,-135.78 21.26,-146.35 27.67,-143.53"/>
</a>
</g>
<text text-anchor="middle" x="68.5" y="-288.5" font-family="Helvetica,sans-Serif" font-size="10.00" fill="grey"> elements</text>
</g>
<!-- Node11&#45;&gt;Node5 -->
<g id="edge25_Node000005_Node000011" class="edge">
<title>Node11&#45;&gt;Node5</title>
<g id="a_edge25_Node000005_Node000011"><a xlink:title=" ">
<path fill="none" stroke="#9a32cd" stroke-dasharray="5,2" d="M1026.35,-442.63C1036.2,-447.78 1046.84,-453.92 1056,-460.5 1064.94,-466.92 1064.45,-472.03 1074,-477.5 1154.71,-523.72 1189.8,-512.7 1282,-500.5 1427.23,-481.28 1480.27,-483.25 1592,-388.5 1622.54,-362.61 1650.37,-323.58 1662.53,-305.43"/>
<polygon fill="#9a32cd" stroke="#9a32cd" points="1027.93,-439.51 1017.42,-438.13 1024.78,-445.76 1027.93,-439.51"/>
</a>
</g>
<text text-anchor="middle" x="1321.5" y="-500.5" font-family="Helvetica,sans-Serif" font-size="10.00" fill="grey"> error_</text>
</g>
<!-- Node11&#45;&gt;Node6 -->
<g id="edge24_Node000006_Node000011" class="edge">
<title>Node11&#45;&gt;Node6</title>
<g id="a_edge24_Node000006_Node000011"><a xlink:title=" ">
<path fill="none" stroke="#9a32cd" stroke-dasharray="5,2" d="M1067.94,-426.65C1149.84,-425.71 1280.86,-424.21 1360.81,-423.29"/>
<polygon fill="#9a32cd" stroke="#9a32cd" points="1067.94,-423.15 1057.98,-426.77 1068.02,-430.15 1067.94,-423.15"/>
</a>
</g>
<text text-anchor="middle" x="1217.5" y="-428.5" font-family="Helvetica,sans-Serif" font-size="10.00" fill="grey"> error_</text>
</g>
<!-- Node11&#45;&gt;Node7 -->
<g id="edge13_Node000007_Node000011" class="edge">
<title>Node11&#45;&gt;Node7</title>
<g id="a_edge13_Node000007_Node000011"><a xlink:title=" ">
<path fill="none" stroke="#9a32cd" stroke-dasharray="5,2" d="M918.22,-429.35C916.12,-429.4 914.05,-429.45 912,-429.5 865.53,-430.66 813.05,-431.95 773.23,-432.94"/>
<polygon fill="#9a32cd" stroke="#9a32cd" points="918.13,-432.85 928.04,-429.1 917.95,-425.85 918.13,-432.85"/>
</a>
</g>
<text text-anchor="middle" x="851.5" y="-434.5" font-family="Helvetica,sans-Serif" font-size="10.00" fill="grey"> error_</text>
</g>
<!-- Node11&#45;&gt;Node12 -->
<g id="edge19_Node000012_Node000011" class="edge">
<title>Node11&#45;&gt;Node12</title>
<g id="a_edge19_Node000012_Node000011"><a xlink:title=" ">
<path fill="none" stroke="#9a32cd" stroke-dasharray="5,2" d="M1057.62,-415.49C1092.02,-409 1133.93,-401.09 1166.06,-395.02"/>
<polygon fill="#9a32cd" stroke="#9a32cd" points="1057.39,-411.97 1048.22,-417.27 1058.69,-418.85 1057.39,-411.97"/>
</a>
</g>
<text text-anchor="middle" x="1104.5" y="-413.5" font-family="Helvetica,sans-Serif" font-size="10.00" fill="grey"> error_</text>
</g>
<!-- Node11&#45;&gt;Node13 -->
<g id="edge23_Node000013_Node000011" class="edge">
<title>Node11&#45;&gt;Node13</title>
<g id="a_edge23_Node000013_Node000011"><a xlink:title=" ">
<path fill="none" stroke="#9a32cd" stroke-dasharray="5,2" d="M1039.8,-440.5C1050.96,-443.55 1062.89,-446.73 1074,-449.5 1105.73,-457.42 1141.67,-465.49 1169.52,-471.54"/>
<polygon fill="#9a32cd" stroke="#9a32cd" points="1040.98,-437.19 1030.41,-437.9 1039.12,-443.94 1040.98,-437.19"/>
</a>
</g>
<text text-anchor="middle" x="1104.5" y="-465.5" font-family="Helvetica,sans-Serif" font-size="10.00" fill="grey"> error_</text>
</g>
<!-- Node11&#45;&gt;Node14 -->
<g id="edge29_Node000014_Node000011" class="edge">
<title>Node11&#45;&gt;Node14</title>
<g id="a_edge29_Node000014_Node000011"><a xlink:title=" ">
<path fill="none" stroke="#9a32cd" stroke-dasharray="5,2" d="M1029.45,-412.97C1038.3,-408.94 1047.64,-404.34 1056,-399.5 1064.54,-394.56 1065.84,-392.05 1074,-386.5 1119.16,-355.81 1173.92,-321.68 1200.49,-305.31"/>
<polygon fill="#9a32cd" stroke="#9a32cd" points="1028.14,-409.72 1020.39,-416.96 1030.96,-416.13 1028.14,-409.72"/>
</a>
</g>
<text text-anchor="middle" x="1104.5" y="-389.5" font-family="Helvetica,sans-Serif" font-size="10.00" fill="grey"> error_</text>
</g>
<!-- Node12&#45;&gt;Node6 -->
<g id="edge16_Node000006_Node000012" class="edge">
<title>Node12&#45;&gt;Node6</title>
<g id="a_edge16_Node000006_Node000012"><a xlink:title=" ">
<path fill="none" stroke="#9a32cd" stroke-dasharray="5,2" d="M1280.23,-396.3C1309.5,-401.42 1344.25,-407.5 1372.9,-412.51"/>
<polygon fill="#9a32cd" stroke="#9a32cd" points="1280.84,-392.85 1270.38,-394.58 1279.63,-399.75 1280.84,-392.85"/>
</a>
</g>
<text text-anchor="middle" x="1321.5" y="-408.5" font-family="Helvetica,sans-Serif" font-size="10.00" fill="grey"> server_</text>
</g>
<!-- Node13&#45;&gt;Node6 -->
<g id="edge20_Node000006_Node000013" class="edge">
<title>Node13&#45;&gt;Node6</title>
<g id="a_edge20_Node000006_Node000013"><a xlink:title=" ">
<path fill="none" stroke="#9a32cd" stroke-dasharray="5,2" d="M1277.34,-469.1C1298.2,-464.37 1321.76,-458.62 1343,-452.5 1363.57,-446.57 1386.45,-438.63 1403.57,-432.41"/>
<polygon fill="#9a32cd" stroke="#9a32cd" points="1276.86,-465.63 1267.87,-471.23 1278.39,-472.46 1276.86,-465.63"/>
</a>
</g>
<text text-anchor="middle" x="1321.5" y="-465.5" font-family="Helvetica,sans-Serif" font-size="10.00" fill="grey"> session_</text>
</g>
<!-- Node14&#45;&gt;Node5 -->
<g id="edge26_Node000005_Node000014" class="edge">
<title>Node14&#45;&gt;Node5</title>
<g id="a_edge26_Node000005_Node000014"><a xlink:title=" ">
<path fill="none" stroke="#9a32cd" stroke-dasharray="5,2" d="M1293.43,-295.5C1382.22,-295.5 1528.35,-295.5 1609.68,-295.5"/>
<polygon fill="#9a32cd" stroke="#9a32cd" points="1293.6,-292 1283.6,-295.5 1293.6,-299 1293.6,-292"/>
</a>
</g>
<text text-anchor="middle" x="1431" y="-298.5" font-family="Helvetica,sans-Serif" font-size="10.00" fill="grey"> changeNotification_</text>
</g>
<!-- Node15 -->
<g id="Node000015" class="node">
<title>Node15</title>
<g id="a_Node000015"><a xlink:title=" ">
<polygon fill="white" stroke="#666666" points="2371,-98.5 2210,-98.5 2210,-68.5 2371,-68.5 2371,-98.5"/>
<text text-anchor="start" x="2218" y="-86.5" font-family="Helvetica,sans-Serif" font-size="10.00">std::vector&lt; std::unique</text>
<text text-anchor="middle" x="2290.5" y="-75.5" font-family="Helvetica,sans-Serif" font-size="10.00">_ptr&lt; Harlinn::OCI::BindBase &gt; &gt;</text>
</a>
</g>
</g>
<!-- Node15&#45;&gt;Node5 -->
<g id="edge30_Node000005_Node000015" class="edge">
<title>Node15&#45;&gt;Node5</title>
<g id="a_edge30_Node000005_Node000015"><a xlink:title=" ">
<path fill="none" stroke="#9a32cd" stroke-dasharray="5,2" d="M2233.58,-102.67C2105.83,-146.45 1796.19,-252.59 1700,-285.56"/>
<polygon fill="#9a32cd" stroke="#9a32cd" points="2234.52,-106.04 2242.85,-99.49 2232.25,-99.42 2234.52,-106.04"/>
</a>
</g>
<text text-anchor="middle" x="1977" y="-196.5" font-family="Helvetica,sans-Serif" font-size="10.00" fill="grey"> binds_</text>
</g>
<!-- Node16 -->
<g id="Node000016" class="node">
<title>Node16</title>
<g id="a_Node000016"><a xlink:title=" ">
<polygon fill="white" stroke="#666666" points="2131,-98.5 2011,-98.5 2011,-68.5 2131,-68.5 2131,-98.5"/>
<text text-anchor="start" x="2019" y="-86.5" font-family="Helvetica,sans-Serif" font-size="10.00">std::unique_ptr&lt; Harlinn</text>
<text text-anchor="middle" x="2071" y="-75.5" font-family="Helvetica,sans-Serif" font-size="10.00">::OCI::BindBase &gt;</text>
</a>
</g>
</g>
<!-- Node16&#45;&gt;Node15 -->
<g id="edge31_Node000015_Node000016" class="edge">
<title>Node16&#45;&gt;Node15</title>
<g id="a_edge31_Node000015_Node000016"><a xlink:title=" ">
<path fill="none" stroke="#9a32cd" stroke-dasharray="5,2" d="M2142.73,-83.5C2164.14,-83.5 2187.79,-83.5 2209.75,-83.5"/>
<polygon fill="#9a32cd" stroke="#9a32cd" points="2142.95,-80 2132.95,-83.5 2142.95,-87 2142.95,-80"/>
</a>
</g>
<text text-anchor="middle" x="2170.5" y="-86.5" font-family="Helvetica,sans-Serif" font-size="10.00" fill="grey"> elements</text>
</g>
<!-- Node17&#45;&gt;Node16 -->
<g id="edge32_Node000016_Node000017" class="edge">
<title>Node17&#45;&gt;Node16</title>
<g id="a_edge32_Node000016_Node000017"><a xlink:title=" ">
<path fill="none" stroke="#9a32cd" stroke-dasharray="5,2" d="M1936.34,-113.99C1959.7,-108.66 1986.99,-102.43 2010.81,-97"/>
<polygon fill="#9a32cd" stroke="#9a32cd" points="1935.67,-110.55 1926.7,-116.19 1937.22,-117.38 1935.67,-110.55"/>
</a>
</g>
<text text-anchor="middle" x="1977" y="-110.5" font-family="Helvetica,sans-Serif" font-size="10.00" fill="grey"> ptr</text>
</g>
<!-- Node18 -->
<g id="Node000018" class="node">
<title>Node18</title>
<g id="a_Node000018"><a xlink:href="class_harlinn_1_1_common_1_1_core_1_1_basic_string.xhtml" target="_top" xlink:title=" ">
<polygon fill="white" stroke="#666666" points="771.5,-111.5 646.5,-111.5 646.5,-81.5 771.5,-81.5 771.5,-111.5"/>
<text text-anchor="start" x="654.5" y="-99.5" font-family="Helvetica,sans-Serif" font-size="10.00">Harlinn::Common::Core</text>
<text text-anchor="middle" x="709" y="-88.5" font-family="Helvetica,sans-Serif" font-size="10.00">::BasicString&lt; wchar_t &gt;</text>
</a>
</g>
</g>
<!-- Node18&#45;&gt;Node17 -->
<g id="edge35_Node000017_Node000018" class="edge">
<title>Node18&#45;&gt;Node17</title>
<g id="a_edge35_Node000017_Node000018"><a xlink:title=" ">
<path fill="none" stroke="#9a32cd" stroke-dasharray="5,2" d="M783.3,-97.3C840.22,-97.86 921.12,-98.5 992,-98.5 992,-98.5 992,-98.5 1671,-98.5 1726.88,-98.5 1790.44,-108.5 1832.54,-116.55"/>
<polygon fill="#9a32cd" stroke="#9a32cd" points="783.44,-93.81 773.4,-97.21 783.37,-100.81 783.44,-93.81"/>
</a>
</g>
<text text-anchor="middle" x="1321.5" y="-101.5" font-family="Helvetica,sans-Serif" font-size="10.00" fill="grey"> name_</text>
</g>
<!-- Node19&#45;&gt;Node18 -->
<g id="edge36_Node000018_Node000019" class="edge">
<title>Node19&#45;&gt;Node18</title>
<g id="a_edge36_Node000018_Node000019"><a xlink:title=" ">
<path fill="none" stroke="#9a32cd" stroke-dasharray="5,2" d="M237.79,-130.22C239.88,-130.33 241.96,-130.42 244,-130.5 414.3,-137.21 457.91,-132.84 627,-111.5 633.24,-110.71 639.73,-109.75 646.2,-108.7"/>
<polygon fill="#9a32cd" stroke="#9a32cd" points="238.17,-126.74 227.99,-129.67 237.77,-133.73 238.17,-126.74"/>
</a>
</g>
<text text-anchor="middle" x="430" y="-135.5" font-family="Helvetica,sans-Serif" font-size="10.00" fill="grey"> data_</text>
</g>
<!-- Node20 -->
<g id="Node000020" class="node">
<title>Node20</title>
<g id="a_Node000020"><a xlink:href="class_harlinn_1_1_common_1_1_core_1_1_basic_string.xhtml" target="_top" xlink:title="This is a reference counted string class.">
<polygon fill="white" stroke="#666666" points="489,-111.5 371,-111.5 371,-81.5 489,-81.5 489,-111.5"/>
<text text-anchor="start" x="379" y="-99.5" font-family="Helvetica,sans-Serif" font-size="10.00">Harlinn::Common::Core</text>
<text text-anchor="middle" x="430" y="-88.5" font-family="Helvetica,sans-Serif" font-size="10.00">::BasicString&lt; T &gt;</text>
</a>
</g>
</g>
<!-- Node19&#45;&gt;Node20 -->
<g id="edge39_Node000020_Node000019" class="edge">
<title>Node19&#45;&gt;Node20</title>
<g id="a_edge39_Node000020_Node000019"><a xlink:title=" ">
<path fill="none" stroke="#9a32cd" stroke-dasharray="5,2" d="M237.69,-117.02C279.31,-112.56 331.55,-106.95 370.93,-102.73"/>
<polygon fill="#9a32cd" stroke="#9a32cd" points="237.32,-113.54 227.75,-118.09 238.07,-120.5 237.32,-113.54"/>
</a>
</g>
<text text-anchor="middle" x="296" y="-118.5" font-family="Helvetica,sans-Serif" font-size="10.00" fill="grey"> data_</text>
</g>
<!-- Node20&#45;&gt;Node18 -->
<g id="edge38_Node000018_Node000020" class="edge">
<title>Node20&#45;&gt;Node18</title>
<g id="a_edge38_Node000018_Node000020"><a xlink:title=" ">
<path fill="none" stroke="orange" stroke-dasharray="5,2" d="M500.79,-96.5C545.58,-96.5 603.2,-96.5 646.31,-96.5"/>
<polygon fill="orange" stroke="orange" points="500.92,-93 490.92,-96.5 500.92,-100 500.92,-93"/>
</a>
</g>
<text text-anchor="middle" x="569.5" y="-99.5" font-family="Helvetica,sans-Serif" font-size="10.00" fill="grey"> &lt; wchar_t &gt;</text>
</g>
<!-- Node21&#45;&gt;Node16 -->
<g id="edge40_Node000016_Node000021" class="edge">
<title>Node21&#45;&gt;Node16</title>
<g id="a_edge40_Node000016_Node000021"><a xlink:title=" ">
<path fill="none" stroke="orange" stroke-dasharray="5,2" d="M359.61,-55.42C414.63,-54.56 496.88,-53.5 568.5,-53.5 568.5,-53.5 568.5,-53.5 1881.5,-53.5 1925.08,-53.5 1973.62,-61.42 2010.53,-69.12"/>
<polygon fill="orange" stroke="orange" points="359.75,-51.91 349.8,-55.57 359.86,-58.91 359.75,-51.91"/>
</a>
</g>
<text text-anchor="middle" x="1217.5" y="-56.5" font-family="Helvetica,sans-Serif" font-size="10.00" fill="grey"> &lt; Harlinn::OCI::BindBase &gt;</text>
</g>
<!-- Node22&#45;&gt;Node15 -->
<g id="edge42_Node000015_Node000022" class="edge">
<title>Node22&#45;&gt;Node15</title>
<g id="a_edge42_Node000015_Node000022"><a xlink:title=" ">
<path fill="none" stroke="orange" stroke-dasharray="5,2" d="M623.71,-7.68C680.03,-5.92 771.52,-3.5 850.5,-3.5 850.5,-3.5 850.5,-3.5 2072,-3.5 2146.03,-3.5 2226,-44.83 2265.13,-68.08"/>
<polygon fill="orange" stroke="orange" points="623.64,-4.18 613.75,-8 623.86,-11.18 623.64,-4.18"/>
</a>
</g>
<text text-anchor="start" x="1370" y="-17.5" font-family="Helvetica,sans-Serif" font-size="10.00" fill="grey"> &lt; std::unique_ptr&lt;</text>
<text text-anchor="middle" x="1431" y="-6.5" font-family="Helvetica,sans-Serif" font-size="10.00" fill="grey"> Harlinn::OCI::BindBase &gt; &gt;</text>
</g>
<!-- Node23 -->
<g id="Node000023" class="node">
<title>Node23</title>
<g id="a_Node000023"><a xlink:title=" ">
<polygon fill="white" stroke="#666666" points="912,-668.5 791,-668.5 791,-638.5 912,-638.5 912,-668.5"/>
<text text-anchor="start" x="799" y="-656.5" font-family="Helvetica,sans-Serif" font-size="10.00">std::array&lt; Byte, Binary</text>
<text text-anchor="middle" x="851.5" y="-645.5" font-family="Helvetica,sans-Serif" font-size="10.00">Size &gt;</text>
</a>
</g>
</g>
<!-- Node23&#45;&gt;Node1 -->
<g id="edge44_Node000001_Node000023" class="edge">
<title>Node23&#45;&gt;Node1</title>
<g id="a_edge44_Node000001_Node000023"><a xlink:title=" ">
<path fill="none" stroke="#9a32cd" stroke-dasharray="5,2" d="M923.73,-653.5C973.98,-653.5 1042.86,-653.5 1103.5,-653.5 1103.5,-653.5 1103.5,-653.5 2072,-653.5 2124.2,-653.5 2183.33,-649.72 2226.74,-646.24"/>
<polygon fill="#9a32cd" stroke="#9a32cd" points="923.86,-650 913.86,-653.5 923.86,-657 923.86,-650"/>
</a>
</g>
<text text-anchor="middle" x="1555.5" y="-656.5" font-family="Helvetica,sans-Serif" font-size="10.00" fill="grey"> data_</text>
</g>
<!-- Node24&#45;&gt;Node23 -->
<g id="edge45_Node000023_Node000024" class="edge">
<title>Node24&#45;&gt;Node23</title>
<g id="a_edge45_Node000023_Node000024"><a xlink:title=" ">
<path fill="none" stroke="orange" stroke-dasharray="5,2" d="M193.31,-483.48C248.6,-517.45 385.39,-596.44 512,-629.5 607.2,-654.36 722.24,-657 790.73,-655.83"/>
<polygon fill="orange" stroke="orange" points="195.29,-480.59 184.94,-478.29 191.6,-486.54 195.29,-480.59"/>
</a>
</g>
<text text-anchor="middle" x="430" y="-625.5" font-family="Helvetica,sans-Serif" font-size="10.00" fill="grey"> &lt; Byte, BinarySize &gt;</text>
</g>
</g>
</svg>
