<?xml version="1.0" encoding="UTF-8" standalone="no"?>
<!DOCTYPE svg PUBLIC "-//W3C//DTD SVG 1.1//EN"
 "http://www.w3.org/Graphics/SVG/1.1/DTD/svg11.dtd">
<!-- Generated by graphviz version 7.0.1 (20221109.1506)
 -->
<!-- Title: Harlinn::Common::Core::LMDBEx::Database&lt; SessionT &gt; Pages: 1 -->
<svg width="186pt" height="260pt"
 viewBox="0.00 0.00 186.00 260.00" xmlns="http://www.w3.org/2000/svg" xmlns:xlink="http://www.w3.org/1999/xlink">
<g id="graph0" class="graph" transform="scale(1 1) rotate(0) translate(4 256)">
<title>Harlinn::Common::Core::LMDBEx::Database&lt; SessionT &gt;</title>
<!-- Node1 -->
<g id="Node000001" class="node">
<title>Node1</title>
<g id="a_Node000001"><a xlink:title=" ">
<polygon fill="#999999" stroke="#666666" points="172.5,-185 5.5,-185 5.5,-155 172.5,-155 172.5,-185"/>
<text text-anchor="start" x="13.5" y="-173" font-family="Helvetica,sans-Serif" font-size="10.00">Harlinn::Common::Core</text>
<text text-anchor="middle" x="89" y="-162" font-family="Helvetica,sans-Serif" font-size="10.00">::LMDBEx::Database&lt; SessionT &gt;</text>
</a>
</g>
</g>
<!-- Node3 -->
<g id="Node000003" class="node">
<title>Node3</title>
<g id="a_Node000003"><a xlink:href="class_harlinn_1_1_common_1_1_core_1_1_l_m_d_b_ex_1_1_database.xhtml" target="_top" xlink:title=" ">
<polygon fill="white" stroke="#666666" points="178,-108 0,-108 0,-78 178,-78 178,-108"/>
<text text-anchor="start" x="8" y="-96" font-family="Helvetica,sans-Serif" font-size="10.00">Harlinn::Common::Core</text>
<text text-anchor="middle" x="89" y="-85" font-family="Helvetica,sans-Serif" font-size="10.00">::LMDBEx::Database&lt; LogSession &gt;</text>
</a>
</g>
</g>
<!-- Node1&#45;&gt;Node3 -->
<g id="edge2_Node000001_Node000003" class="edge">
<title>Node1&#45;&gt;Node3</title>
<g id="a_edge2_Node000001_Node000003"><a xlink:title=" ">
<path fill="none" stroke="orange" stroke-dasharray="5,2" d="M89,-143.23C89,-131.58 89,-118.26 89,-108.42"/>
<polygon fill="orange" stroke="orange" points="85.5,-143.03 89,-153.03 92.5,-143.03 85.5,-143.03"/>
</a>
</g>
<text text-anchor="middle" x="125.5" y="-129" font-family="Helvetica,sans-Serif" font-size="10.00" fill="grey"> &lt; LogSession &gt;</text>
</g>
<!-- Node2 -->
<g id="Node000002" class="node">
<title>Node2</title>
<g id="a_Node000002"><a xlink:href="class_harlinn_1_1_common_1_1_core_1_1_l_m_d_b_ex_1_1_database_base.xhtml" target="_top" xlink:title=" ">
<polygon fill="white" stroke="#666666" points="154.5,-252 23.5,-252 23.5,-222 154.5,-222 154.5,-252"/>
<text text-anchor="start" x="31.5" y="-240" font-family="Helvetica,sans-Serif" font-size="10.00">Harlinn::Common::Core</text>
<text text-anchor="middle" x="89" y="-229" font-family="Helvetica,sans-Serif" font-size="10.00">::LMDBEx::DatabaseBase</text>
</a>
</g>
</g>
<!-- Node2&#45;&gt;Node1 -->
<g id="edge1_Node000001_Node000002" class="edge">
<title>Node2&#45;&gt;Node1</title>
<g id="a_edge1_Node000001_Node000002"><a xlink:title=" ">
<path fill="none" stroke="#63b8ff" d="M89,-210.28C89,-201.81 89,-192.7 89,-185.39"/>
<polygon fill="#63b8ff" stroke="#63b8ff" points="85.5,-210.06 89,-220.06 92.5,-210.06 85.5,-210.06"/>
</a>
</g>
</g>
<!-- Node4 -->
<g id="Node000004" class="node">
<title>Node4</title>
<g id="a_Node000004"><a xlink:href="class_harlinn_1_1_common_1_1_core_1_1_logging_1_1_sinks_1_1_storage_1_1_log_database.xhtml" target="_top" xlink:title="LogDatabase.">
<polygon fill="white" stroke="#666666" points="152.5,-41 25.5,-41 25.5,0 152.5,0 152.5,-41"/>
<text text-anchor="start" x="33.5" y="-29" font-family="Helvetica,sans-Serif" font-size="10.00">Harlinn::Common::Core</text>
<text text-anchor="start" x="33.5" y="-18" font-family="Helvetica,sans-Serif" font-size="10.00">::Logging::Sinks::Storage</text>
<text text-anchor="middle" x="89" y="-7" font-family="Helvetica,sans-Serif" font-size="10.00">::LogDatabase</text>
</a>
</g>
</g>
<!-- Node3&#45;&gt;Node4 -->
<g id="edge3_Node000003_Node000004" class="edge">
<title>Node3&#45;&gt;Node4</title>
<g id="a_edge3_Node000003_Node000004"><a xlink:title=" ">
<path fill="none" stroke="#63b8ff" d="M89,-66.42C89,-58.16 89,-49.14 89,-41.36"/>
<polygon fill="#63b8ff" stroke="#63b8ff" points="85.5,-66.22 89,-76.22 92.5,-66.22 85.5,-66.22"/>
</a>
</g>
</g>
</g>
</svg>
