<?xml version="1.0" encoding="UTF-8" standalone="no"?>
<!DOCTYPE svg PUBLIC "-//W3C//DTD SVG 1.1//EN"
 "http://www.w3.org/Graphics/SVG/1.1/DTD/svg11.dtd">
<!-- Generated by graphviz version 7.0.1 (20221109.1506)
 -->
<!-- Title: Harlinn::Common::Core::Http::Server::ReceiveRequest Pages: 1 -->
<svg width="2057pt" height="617pt"
 viewBox="0.00 0.00 2057.00 617.00" xmlns="http://www.w3.org/2000/svg" xmlns:xlink="http://www.w3.org/1999/xlink">
<g id="graph0" class="graph" transform="scale(1 1) rotate(0) translate(4 613)">
<title>Harlinn::Common::Core::Http::Server::ReceiveRequest</title>
<!-- Node1 -->
<g id="Node000001" class="node">
<title>Node1</title>
<g id="a_Node000001"><a xlink:title=" ">
<polygon fill="#999999" stroke="#666666" points="2049,-198 1900,-198 1900,-168 2049,-168 2049,-198"/>
<text text-anchor="start" x="1908" y="-186" font-family="Helvetica,sans-Serif" font-size="10.00">Harlinn::Common::Core</text>
<text text-anchor="middle" x="1974.5" y="-175" font-family="Helvetica,sans-Serif" font-size="10.00">::Http::Server::ReceiveRequest</text>
</a>
</g>
</g>
<!-- Node2 -->
<g id="Node000002" class="node">
<title>Node2</title>
<g id="a_Node000002"><a xlink:href="class_harlinn_1_1_common_1_1_core_1_1_http_1_1_server_1_1_request.html" target="_top" xlink:title=" ">
<polygon fill="white" stroke="#666666" points="1798,-246 1680,-246 1680,-216 1798,-216 1798,-246"/>
<text text-anchor="start" x="1688" y="-234" font-family="Helvetica,sans-Serif" font-size="10.00">Harlinn::Common::Core</text>
<text text-anchor="middle" x="1739" y="-223" font-family="Helvetica,sans-Serif" font-size="10.00">::Http::Server::Request</text>
</a>
</g>
</g>
<!-- Node2&#45;&gt;Node1 -->
<g id="edge1_Node000001_Node000002" class="edge">
<title>Node2&#45;&gt;Node1</title>
<g id="a_edge1_Node000001_Node000002"><a xlink:title=" ">
<path fill="none" stroke="#63b8ff" d="M1809.38,-216.74C1837.8,-210.9 1870.72,-204.13 1899.59,-198.19"/>
<polygon fill="#63b8ff" stroke="#63b8ff" points="1808.89,-213.26 1799.8,-218.71 1810.3,-220.12 1808.89,-213.26"/>
</a>
</g>
</g>
<!-- Node3 -->
<g id="Node000003" class="node">
<title>Node3</title>
<g id="a_Node000003"><a xlink:href="class_harlinn_1_1_common_1_1_core_1_1_i_o_1_1_request.html" target="_top" xlink:title="Base class for all asynchronous requests.">
<polygon fill="white" stroke="#666666" points="1584,-318 1466,-318 1466,-288 1584,-288 1584,-318"/>
<text text-anchor="start" x="1474" y="-306" font-family="Helvetica,sans-Serif" font-size="10.00">Harlinn::Common::Core</text>
<text text-anchor="middle" x="1525" y="-295" font-family="Helvetica,sans-Serif" font-size="10.00">::IO::Request</text>
</a>
</g>
</g>
<!-- Node3&#45;&gt;Node2 -->
<g id="edge2_Node000002_Node000003" class="edge">
<title>Node3&#45;&gt;Node2</title>
<g id="a_edge2_Node000002_Node000003"><a xlink:title=" ">
<path fill="none" stroke="#63b8ff" d="M1582.33,-283.87C1616.8,-272.16 1660.34,-257.38 1692.6,-246.42"/>
<polygon fill="#63b8ff" stroke="#63b8ff" points="1581.26,-280.54 1572.91,-287.07 1583.51,-287.17 1581.26,-280.54"/>
</a>
</g>
</g>
<!-- Node4 -->
<g id="Node000004" class="node">
<title>Node4</title>
<g id="a_Node000004"><a xlink:title=" ">
<polygon fill="white" stroke="#666666" points="1328.5,-355.5 1245.5,-355.5 1245.5,-336.5 1328.5,-336.5 1328.5,-355.5"/>
<text text-anchor="middle" x="1287" y="-343.5" font-family="Helvetica,sans-Serif" font-size="10.00">OVERLAPPED</text>
</a>
</g>
</g>
<!-- Node4&#45;&gt;Node3 -->
<g id="edge3_Node000003_Node000004" class="edge">
<title>Node4&#45;&gt;Node3</title>
<g id="a_edge3_Node000003_Node000004"><a xlink:title=" ">
<path fill="none" stroke="#63b8ff" d="M1339.91,-337.21C1371.24,-331.83 1411.95,-324.71 1448,-318 1453.69,-316.94 1459.61,-315.82 1465.52,-314.67"/>
<polygon fill="#63b8ff" stroke="#63b8ff" points="1339.57,-333.71 1330.31,-338.85 1340.76,-340.61 1339.57,-333.71"/>
</a>
</g>
</g>
<!-- Node5 -->
<g id="Node000005" class="node">
<title>Node5</title>
<g id="a_Node000005"><a xlink:title=" ">
<polygon fill="white" stroke="#666666" points="1363,-318 1211,-318 1211,-288 1363,-288 1363,-318"/>
<text text-anchor="start" x="1219" y="-306" font-family="Helvetica,sans-Serif" font-size="10.00">std::weak_ptr&lt; Harlinn</text>
<text text-anchor="middle" x="1287" y="-295" font-family="Helvetica,sans-Serif" font-size="10.00">::Common::Core::IO::Context &gt;</text>
</a>
</g>
</g>
<!-- Node5&#45;&gt;Node3 -->
<g id="edge4_Node000003_Node000005" class="edge">
<title>Node5&#45;&gt;Node3</title>
<g id="a_edge4_Node000003_Node000005"><a xlink:title=" ">
<path fill="none" stroke="#9a32cd" stroke-dasharray="5,2" d="M1374.78,-303C1405.11,-303 1438.4,-303 1465.83,-303"/>
<polygon fill="#9a32cd" stroke="#9a32cd" points="1374.83,-299.5 1364.83,-303 1374.83,-306.5 1374.83,-299.5"/>
</a>
</g>
<text text-anchor="middle" x="1414.5" y="-306" font-family="Helvetica,sans-Serif" font-size="10.00" fill="grey"> context_</text>
</g>
<!-- Node6 -->
<g id="Node000006" class="node">
<title>Node6</title>
<g id="a_Node000006"><a xlink:href="class_harlinn_1_1_common_1_1_core_1_1_i_o_1_1_context.html" target="_top" xlink:title="Context is an I/O completion port with an attached thread&#45;pool that services I/O completion notificat...">
<polygon fill="white" stroke="#666666" points="1090.5,-466 972.5,-466 972.5,-436 1090.5,-436 1090.5,-466"/>
<text text-anchor="start" x="980.5" y="-454" font-family="Helvetica,sans-Serif" font-size="10.00">Harlinn::Common::Core</text>
<text text-anchor="middle" x="1031.5" y="-443" font-family="Helvetica,sans-Serif" font-size="10.00">::IO::Context</text>
</a>
</g>
</g>
<!-- Node6&#45;&gt;Node5 -->
<g id="edge5_Node000005_Node000006" class="edge">
<title>Node6&#45;&gt;Node5</title>
<g id="a_edge5_Node000005_Node000006"><a xlink:title=" ">
<path fill="none" stroke="#9a32cd" stroke-dasharray="5,2" d="M1059.73,-428.57C1093.48,-401.67 1153.59,-356.63 1211,-328 1218.12,-324.45 1225.87,-321.22 1233.59,-318.36"/>
<polygon fill="#9a32cd" stroke="#9a32cd" points="1057.71,-425.71 1052.12,-434.7 1062.1,-431.16 1057.71,-425.71"/>
</a>
</g>
<text text-anchor="middle" x="1152" y="-389" font-family="Helvetica,sans-Serif" font-size="10.00" fill="grey"> ptr</text>
</g>
<!-- Node7 -->
<g id="Node000007" class="node">
<title>Node7</title>
<g id="a_Node000007"><a xlink:title=" ">
<polygon fill="white" stroke="#666666" points="881,-514 768,-514 768,-484 881,-484 881,-514"/>
<text text-anchor="start" x="776" y="-502" font-family="Helvetica,sans-Serif" font-size="10.00">std::enable_shared</text>
<text text-anchor="middle" x="824.5" y="-491" font-family="Helvetica,sans-Serif" font-size="10.00">_from_this&lt; Context &gt;</text>
</a>
</g>
</g>
<!-- Node7&#45;&gt;Node6 -->
<g id="edge6_Node000006_Node000007" class="edge">
<title>Node7&#45;&gt;Node6</title>
<g id="a_edge6_Node000006_Node000007"><a xlink:title=" ">
<path fill="none" stroke="#63b8ff" d="M892.43,-483.33C918.2,-477.3 947.38,-470.46 972.26,-464.64"/>
<polygon fill="#63b8ff" stroke="#63b8ff" points="891.66,-479.91 882.72,-485.6 893.25,-486.73 891.66,-479.91"/>
</a>
</g>
</g>
<!-- Node8 -->
<g id="Node000008" class="node">
<title>Node8</title>
<g id="a_Node000008"><a xlink:href="class_harlinn_1_1_common_1_1_core_1_1_i_o_1_1_i_o_completion_port.html" target="_top" xlink:title=" ">
<polygon fill="white" stroke="#666666" points="883.5,-466 765.5,-466 765.5,-436 883.5,-436 883.5,-466"/>
<text text-anchor="start" x="773.5" y="-454" font-family="Helvetica,sans-Serif" font-size="10.00">Harlinn::Common::Core</text>
<text text-anchor="middle" x="824.5" y="-443" font-family="Helvetica,sans-Serif" font-size="10.00">::IO::IOCompletionPort</text>
</a>
</g>
</g>
<!-- Node8&#45;&gt;Node6 -->
<g id="edge7_Node000006_Node000008" class="edge">
<title>Node8&#45;&gt;Node6</title>
<g id="a_edge7_Node000006_Node000008"><a xlink:title=" ">
<path fill="none" stroke="#63b8ff" d="M895.26,-451C920.33,-451 948.32,-451 972.31,-451"/>
<polygon fill="#63b8ff" stroke="#63b8ff" points="895.48,-447.5 885.48,-451 895.48,-454.5 895.48,-447.5"/>
</a>
</g>
</g>
<!-- Node9 -->
<g id="Node000009" class="node">
<title>Node9</title>
<g id="a_Node000009"><a xlink:href="class_harlinn_1_1_common_1_1_core_1_1_event_wait_handle.html" target="_top" xlink:title=" ">
<polygon fill="white" stroke="#666666" points="743,-603 625,-603 625,-573 743,-573 743,-603"/>
<text text-anchor="start" x="633" y="-591" font-family="Helvetica,sans-Serif" font-size="10.00">Harlinn::Common::Core</text>
<text text-anchor="middle" x="684" y="-580" font-family="Helvetica,sans-Serif" font-size="10.00">::EventWaitHandle</text>
</a>
</g>
</g>
<!-- Node9&#45;&gt;Node6 -->
<g id="edge8_Node000006_Node000009" class="edge">
<title>Node9&#45;&gt;Node6</title>
<g id="a_edge8_Node000006_Node000009"><a xlink:title=" ">
<path fill="none" stroke="#9a32cd" stroke-dasharray="5,2" d="M754.81,-597.21C811.71,-601.26 892.15,-598.8 952,-564 990.62,-541.55 1014.7,-491.6 1024.88,-466.31"/>
<polygon fill="#9a32cd" stroke="#9a32cd" points="755.15,-593.73 744.9,-596.42 754.59,-600.71 755.15,-593.73"/>
</a>
</g>
<text text-anchor="middle" x="824.5" y="-601" font-family="Helvetica,sans-Serif" font-size="10.00" fill="grey"> event_</text>
</g>
<!-- Node10 -->
<g id="Node000010" class="node">
<title>Node10</title>
<g id="a_Node000010"><a xlink:href="class_harlinn_1_1_common_1_1_core_1_1_waitable_handle.html" target="_top" xlink:title=" ">
<polygon fill="white" stroke="#666666" points="118,-574 0,-574 0,-544 118,-544 118,-574"/>
<text text-anchor="start" x="8" y="-562" font-family="Helvetica,sans-Serif" font-size="10.00">Harlinn::Common::Core</text>
<text text-anchor="middle" x="59" y="-551" font-family="Helvetica,sans-Serif" font-size="10.00">::WaitableHandle</text>
</a>
</g>
</g>
<!-- Node10&#45;&gt;Node9 -->
<g id="edge9_Node000009_Node000010" class="edge">
<title>Node10&#45;&gt;Node9</title>
<g id="a_edge9_Node000009_Node000010"><a xlink:title=" ">
<path fill="none" stroke="#63b8ff" d="M129.53,-562.24C253.36,-568 509.87,-579.94 624.93,-585.3"/>
<polygon fill="#63b8ff" stroke="#63b8ff" points="129.99,-558.75 119.84,-561.79 129.67,-565.75 129.99,-558.75"/>
</a>
</g>
</g>
<!-- Node14 -->
<g id="Node000014" class="node">
<title>Node14</title>
<g id="a_Node000014"><a xlink:href="class_harlinn_1_1_common_1_1_core_1_1_thread.html" target="_top" xlink:title=" ">
<polygon fill="white" stroke="#666666" points="315,-532 197,-532 197,-502 315,-502 315,-532"/>
<text text-anchor="start" x="205" y="-520" font-family="Helvetica,sans-Serif" font-size="10.00">Harlinn::Common::Core</text>
<text text-anchor="middle" x="256" y="-509" font-family="Helvetica,sans-Serif" font-size="10.00">::Thread</text>
</a>
</g>
</g>
<!-- Node10&#45;&gt;Node14 -->
<g id="edge14_Node000014_Node000010" class="edge">
<title>Node10&#45;&gt;Node14</title>
<g id="a_edge14_Node000014_Node000010"><a xlink:title=" ">
<path fill="none" stroke="#63b8ff" d="M129.23,-544.09C151.3,-539.33 175.5,-534.12 196.72,-529.55"/>
<polygon fill="#63b8ff" stroke="#63b8ff" points="128.76,-540.61 119.72,-546.14 130.23,-547.45 128.76,-540.61"/>
</a>
</g>
</g>
<!-- Node11 -->
<g id="Node000011" class="node">
<title>Node11</title>
<g id="a_Node000011"><a xlink:href="class_harlinn_1_1_common_1_1_core_1_1_thread_group.html" target="_top" xlink:title=" ">
<polygon fill="white" stroke="#666666" points="883.5,-418 765.5,-418 765.5,-388 883.5,-388 883.5,-418"/>
<text text-anchor="start" x="773.5" y="-406" font-family="Helvetica,sans-Serif" font-size="10.00">Harlinn::Common::Core</text>
<text text-anchor="middle" x="824.5" y="-395" font-family="Helvetica,sans-Serif" font-size="10.00">::ThreadGroup</text>
</a>
</g>
</g>
<!-- Node11&#45;&gt;Node6 -->
<g id="edge10_Node000006_Node000011" class="edge">
<title>Node11&#45;&gt;Node6</title>
<g id="a_edge10_Node000006_Node000011"><a xlink:title=" ">
<path fill="none" stroke="#9a32cd" stroke-dasharray="5,2" d="M894.92,-419.25C920.08,-425.15 948.21,-431.73 972.31,-437.37"/>
<polygon fill="#9a32cd" stroke="#9a32cd" points="895.98,-415.91 885.44,-417.04 894.38,-422.72 895.98,-415.91"/>
</a>
</g>
<text text-anchor="middle" x="929" y="-434" font-family="Helvetica,sans-Serif" font-size="10.00" fill="grey"> threads_</text>
</g>
<!-- Node12 -->
<g id="Node000012" class="node">
<title>Node12</title>
<g id="a_Node000012"><a xlink:href="class_harlinn_1_1_common_1_1_core_1_1_critical_section.html" target="_top" xlink:title="A critical section object provides synchronization similar to that provided by a mutex object,...">
<polygon fill="white" stroke="#666666" points="593,-540 475,-540 475,-510 593,-510 593,-540"/>
<text text-anchor="start" x="483" y="-528" font-family="Helvetica,sans-Serif" font-size="10.00">Harlinn::Common::Core</text>
<text text-anchor="middle" x="534" y="-517" font-family="Helvetica,sans-Serif" font-size="10.00">::CriticalSection</text>
</a>
</g>
</g>
<!-- Node12&#45;&gt;Node6 -->
<g id="edge18_Node000006_Node000012" class="edge">
<title>Node12&#45;&gt;Node6</title>
<g id="a_edge18_Node000006_Node000012"><a xlink:title=" ">
<path fill="none" stroke="#9a32cd" stroke-dasharray="5,2" d="M604.64,-533.89C676.67,-540.94 791.86,-546.2 888,-523 933.54,-512.01 981.05,-484.15 1008.09,-466.49"/>
<polygon fill="#9a32cd" stroke="#9a32cd" points="605.27,-530.44 594.96,-532.9 604.56,-537.4 605.27,-530.44"/>
</a>
</g>
<text text-anchor="middle" x="824.5" y="-541" font-family="Helvetica,sans-Serif" font-size="10.00" fill="grey"> criticalSection_</text>
</g>
<!-- Node12&#45;&gt;Node11 -->
<g id="edge11_Node000011_Node000012" class="edge">
<title>Node12&#45;&gt;Node11</title>
<g id="a_edge11_Node000011_Node000012"><a xlink:title=" ">
<path fill="none" stroke="#9a32cd" stroke-dasharray="5,2" d="M604.05,-512.59C647.26,-502.19 702.26,-483.92 743,-453 754.2,-444.5 749.95,-435.68 761,-427 765.11,-423.77 769.71,-420.93 774.5,-418.45"/>
<polygon fill="#9a32cd" stroke="#9a32cd" points="603.48,-509.13 594.53,-514.79 605.06,-515.95 603.48,-509.13"/>
</a>
</g>
<text text-anchor="middle" x="684" y="-510" font-family="Helvetica,sans-Serif" font-size="10.00" fill="grey"> criticalSection_</text>
</g>
<!-- Node13 -->
<g id="Node000013" class="node">
<title>Node13</title>
<g id="a_Node000013"><a xlink:title=" ">
<polygon fill="white" stroke="#666666" points="607,-475.5 461,-475.5 461,-434.5 607,-434.5 607,-475.5"/>
<text text-anchor="start" x="469" y="-463.5" font-family="Helvetica,sans-Serif" font-size="10.00">std::unordered_map</text>
<text text-anchor="start" x="469" y="-452.5" font-family="Helvetica,sans-Serif" font-size="10.00">&lt; HANDLE, Harlinn::Common</text>
<text text-anchor="middle" x="534" y="-441.5" font-family="Helvetica,sans-Serif" font-size="10.00">::Core::Thread &gt;</text>
</a>
</g>
</g>
<!-- Node13&#45;&gt;Node11 -->
<g id="edge12_Node000011_Node000013" class="edge">
<title>Node13&#45;&gt;Node11</title>
<g id="a_edge12_Node000011_Node000013"><a xlink:title=" ">
<path fill="none" stroke="#9a32cd" stroke-dasharray="5,2" d="M618.51,-439.95C665.48,-431.48 722.97,-421.12 765.1,-413.53"/>
<polygon fill="#9a32cd" stroke="#9a32cd" points="618.14,-436.46 608.92,-441.68 619.38,-443.35 618.14,-436.46"/>
</a>
</g>
<text text-anchor="middle" x="684" y="-441" font-family="Helvetica,sans-Serif" font-size="10.00" fill="grey"> threads_</text>
</g>
<!-- Node14&#45;&gt;Node13 -->
<g id="edge13_Node000013_Node000014" class="edge">
<title>Node14&#45;&gt;Node13</title>
<g id="a_edge13_Node000013_Node000014"><a xlink:title=" ">
<path fill="none" stroke="#9a32cd" stroke-dasharray="5,2" d="M326.5,-503.81C361.54,-496.91 404.64,-488.02 443,-479 448.82,-477.63 454.84,-476.15 460.88,-474.63"/>
<polygon fill="#9a32cd" stroke="#9a32cd" points="326.04,-500.34 316.9,-505.69 327.39,-507.21 326.04,-500.34"/>
</a>
</g>
<text text-anchor="middle" x="388" y="-504" font-family="Helvetica,sans-Serif" font-size="10.00" fill="grey"> elements</text>
</g>
<!-- Node15 -->
<g id="Node000015" class="node">
<title>Node15</title>
<g id="a_Node000015"><a xlink:title=" ">
<polygon fill="white" stroke="#666666" points="307.5,-465 204.5,-465 204.5,-435 307.5,-435 307.5,-465"/>
<text text-anchor="start" x="212.5" y="-453" font-family="Helvetica,sans-Serif" font-size="10.00">std::unordered_map</text>
<text text-anchor="middle" x="256" y="-442" font-family="Helvetica,sans-Serif" font-size="10.00">&lt; K, T &gt;</text>
</a>
</g>
</g>
<!-- Node15&#45;&gt;Node13 -->
<g id="edge15_Node000013_Node000015" class="edge">
<title>Node15&#45;&gt;Node13</title>
<g id="a_edge15_Node000013_Node000015"><a xlink:title=" ">
<path fill="none" stroke="orange" stroke-dasharray="5,2" d="M319.39,-451.13C361.29,-451.89 416.65,-452.89 460.51,-453.69"/>
<polygon fill="orange" stroke="orange" points="319.52,-447.63 309.46,-450.95 319.39,-454.63 319.52,-447.63"/>
</a>
</g>
<text text-anchor="start" x="333" y="-467" font-family="Helvetica,sans-Serif" font-size="10.00" fill="grey"> &lt; HANDLE, Harlinn::</text>
<text text-anchor="middle" x="388" y="-456" font-family="Helvetica,sans-Serif" font-size="10.00" fill="grey">Common::Core::Thread &gt;</text>
</g>
<!-- Node16 -->
<g id="Node000016" class="node">
<title>Node16</title>
<g id="a_Node000016"><a xlink:title=" ">
<polygon fill="white" stroke="#666666" points="73.5,-436.5 44.5,-436.5 44.5,-417.5 73.5,-417.5 73.5,-436.5"/>
<text text-anchor="middle" x="59" y="-424.5" font-family="Helvetica,sans-Serif" font-size="10.00">K</text>
</a>
</g>
</g>
<!-- Node16&#45;&gt;Node15 -->
<g id="edge16_Node000015_Node000016" class="edge">
<title>Node16&#45;&gt;Node15</title>
<g id="a_edge16_Node000015_Node000016"><a xlink:title=" ">
<path fill="none" stroke="#9a32cd" stroke-dasharray="5,2" d="M84.8,-429.92C114.75,-433.46 165.89,-439.49 204.31,-444.02"/>
<polygon fill="#9a32cd" stroke="#9a32cd" points="85.56,-426.49 75.22,-428.79 84.74,-433.44 85.56,-426.49"/>
</a>
</g>
<text text-anchor="middle" x="157.5" y="-443" font-family="Helvetica,sans-Serif" font-size="10.00" fill="grey"> keys</text>
</g>
<!-- Node21 -->
<g id="Node000021" class="node">
<title>Node21</title>
<g id="a_Node000021"><a xlink:title=" ">
<polygon fill="white" stroke="#666666" points="425,-409.5 351,-409.5 351,-390.5 425,-390.5 425,-409.5"/>
<text text-anchor="middle" x="388" y="-397.5" font-family="Helvetica,sans-Serif" font-size="10.00">std::set&lt; K &gt;</text>
</a>
</g>
</g>
<!-- Node16&#45;&gt;Node21 -->
<g id="edge24_Node000021_Node000016" class="edge">
<title>Node16&#45;&gt;Node21</title>
<g id="a_edge24_Node000021_Node000016"><a xlink:title=" ">
<path fill="none" stroke="#9a32cd" stroke-dasharray="5,2" d="M84.81,-424.95C142.07,-420.22 283.65,-408.53 350.69,-403"/>
<polygon fill="#9a32cd" stroke="#9a32cd" points="84.82,-421.44 75.14,-425.75 85.4,-428.41 84.82,-421.44"/>
</a>
</g>
<text text-anchor="middle" x="157.5" y="-423" font-family="Helvetica,sans-Serif" font-size="10.00" fill="grey"> keys</text>
</g>
<!-- Node17 -->
<g id="Node000017" class="node">
<title>Node17</title>
<g id="a_Node000017"><a xlink:title=" ">
<polygon fill="white" stroke="#666666" points="73.5,-348.5 44.5,-348.5 44.5,-329.5 73.5,-329.5 73.5,-348.5"/>
<text text-anchor="middle" x="59" y="-336.5" font-family="Helvetica,sans-Serif" font-size="10.00">T</text>
</a>
</g>
</g>
<!-- Node17&#45;&gt;Node15 -->
<g id="edge17_Node000015_Node000017" class="edge">
<title>Node17&#45;&gt;Node15</title>
<g id="a_edge17_Node000015_Node000017"><a xlink:title=" ">
<path fill="none" stroke="#9a32cd" stroke-dasharray="5,2" d="M84.82,-342.6C109.95,-347.06 149.24,-356.33 179,-374 205.8,-389.91 229.97,-417.4 243.55,-434.6"/>
<polygon fill="#9a32cd" stroke="#9a32cd" points="85.66,-339.19 75.22,-341.02 84.52,-346.09 85.66,-339.19"/>
</a>
</g>
<text text-anchor="middle" x="157.5" y="-377" font-family="Helvetica,sans-Serif" font-size="10.00" fill="grey"> elements</text>
</g>
<!-- Node20 -->
<g id="Node000020" class="node">
<title>Node20</title>
<g id="a_Node000020"><a xlink:title=" ">
<polygon fill="white" stroke="#666666" points="308.5,-350.5 203.5,-350.5 203.5,-331.5 308.5,-331.5 308.5,-350.5"/>
<text text-anchor="middle" x="256" y="-338.5" font-family="Helvetica,sans-Serif" font-size="10.00">std::shared_ptr&lt; T &gt;</text>
</a>
</g>
</g>
<!-- Node17&#45;&gt;Node20 -->
<g id="edge22_Node000020_Node000017" class="edge">
<title>Node17&#45;&gt;Node20</title>
<g id="a_edge22_Node000020_Node000017"><a xlink:title=" ">
<path fill="none" stroke="#9a32cd" stroke-dasharray="5,2" d="M85.22,-339.18C109.3,-339.35 146.63,-339.65 179,-340 186.78,-340.08 195.02,-340.18 203.08,-340.28"/>
<polygon fill="#9a32cd" stroke="#9a32cd" points="85.46,-335.68 75.44,-339.11 85.41,-342.68 85.46,-335.68"/>
</a>
</g>
<text text-anchor="middle" x="157.5" y="-343" font-family="Helvetica,sans-Serif" font-size="10.00" fill="grey"> ptr</text>
</g>
<!-- Node22 -->
<g id="Node000022" class="node">
<title>Node22</title>
<g id="a_Node000022"><a xlink:title=" ">
<polygon fill="white" stroke="#666666" points="437,-310.5 339,-310.5 339,-291.5 437,-291.5 437,-310.5"/>
<text text-anchor="middle" x="388" y="-298.5" font-family="Helvetica,sans-Serif" font-size="10.00">std::weak_ptr&lt; T &gt;</text>
</a>
</g>
</g>
<!-- Node17&#45;&gt;Node22 -->
<g id="edge26_Node000022_Node000017" class="edge">
<title>Node17&#45;&gt;Node22</title>
<g id="a_edge26_Node000022_Node000017"><a xlink:title=" ">
<path fill="none" stroke="#9a32cd" stroke-dasharray="5,2" d="M85.18,-333.35C99.92,-330.21 118.94,-326.46 136,-324 206.16,-313.89 288.04,-307.36 338.71,-303.94"/>
<polygon fill="#9a32cd" stroke="#9a32cd" points="84.44,-329.93 75.41,-335.48 85.93,-336.77 84.44,-329.93"/>
</a>
</g>
<text text-anchor="middle" x="157.5" y="-327" font-family="Helvetica,sans-Serif" font-size="10.00" fill="grey"> ptr</text>
</g>
<!-- Node18 -->
<g id="Node000018" class="node">
<title>Node18</title>
<g id="a_Node000018"><a xlink:title=" ">
<polygon fill="white" stroke="#666666" points="888,-370 761,-370 761,-340 888,-340 888,-370"/>
<text text-anchor="start" x="769" y="-358" font-family="Helvetica,sans-Serif" font-size="10.00">std::set&lt; std::shared</text>
<text text-anchor="middle" x="824.5" y="-347" font-family="Helvetica,sans-Serif" font-size="10.00">_ptr&lt; ContextHandler &gt; &gt;</text>
</a>
</g>
</g>
<!-- Node18&#45;&gt;Node6 -->
<g id="edge19_Node000006_Node000018" class="edge">
<title>Node18&#45;&gt;Node6</title>
<g id="a_edge19_Node000006_Node000018"><a xlink:title=" ">
<path fill="none" stroke="#9a32cd" stroke-dasharray="5,2" d="M877.07,-374.59C880.78,-376.06 884.45,-377.54 888,-379 916.72,-390.79 924.2,-393.17 952,-407 969.9,-415.91 989.53,-426.91 1004.68,-435.68"/>
<polygon fill="#9a32cd" stroke="#9a32cd" points="878.62,-371.44 868.03,-371.04 876.06,-377.95 878.62,-371.44"/>
</a>
</g>
<text text-anchor="middle" x="929" y="-410" font-family="Helvetica,sans-Serif" font-size="10.00" fill="grey"> handlers_</text>
</g>
<!-- Node19 -->
<g id="Node000019" class="node">
<title>Node19</title>
<g id="a_Node000019"><a xlink:title=" ">
<polygon fill="white" stroke="#666666" points="596.5,-358 471.5,-358 471.5,-328 596.5,-328 596.5,-358"/>
<text text-anchor="start" x="479.5" y="-346" font-family="Helvetica,sans-Serif" font-size="10.00">std::shared_ptr&lt; Context</text>
<text text-anchor="middle" x="534" y="-335" font-family="Helvetica,sans-Serif" font-size="10.00">Handler &gt;</text>
</a>
</g>
</g>
<!-- Node19&#45;&gt;Node18 -->
<g id="edge20_Node000018_Node000019" class="edge">
<title>Node19&#45;&gt;Node18</title>
<g id="a_edge20_Node000018_Node000019"><a xlink:title=" ">
<path fill="none" stroke="#9a32cd" stroke-dasharray="5,2" d="M608.25,-346.05C655.32,-348 715.84,-350.52 760.72,-352.39"/>
<polygon fill="#9a32cd" stroke="#9a32cd" points="608.54,-342.56 598.4,-345.64 608.25,-349.55 608.54,-342.56"/>
</a>
</g>
<text text-anchor="middle" x="684" y="-354" font-family="Helvetica,sans-Serif" font-size="10.00" fill="grey"> keys</text>
</g>
<!-- Node20&#45;&gt;Node19 -->
<g id="edge21_Node000019_Node000020" class="edge">
<title>Node20&#45;&gt;Node19</title>
<g id="a_edge21_Node000019_Node000020"><a xlink:title=" ">
<path fill="none" stroke="orange" stroke-dasharray="5,2" d="M320.37,-341.46C365.65,-341.79 426.26,-342.23 471.19,-342.55"/>
<polygon fill="orange" stroke="orange" points="320.45,-337.96 310.43,-341.39 320.4,-344.96 320.45,-337.96"/>
</a>
</g>
<text text-anchor="middle" x="388" y="-345" font-family="Helvetica,sans-Serif" font-size="10.00" fill="grey"> &lt; ContextHandler &gt;</text>
</g>
<!-- Node21&#45;&gt;Node18 -->
<g id="edge23_Node000018_Node000021" class="edge">
<title>Node21&#45;&gt;Node18</title>
<g id="a_edge23_Node000018_Node000021"><a xlink:title=" ">
<path fill="none" stroke="orange" stroke-dasharray="5,2" d="M436.67,-396.03C504.72,-390.23 633.57,-378.73 743,-366 748.74,-365.33 754.71,-364.6 760.69,-363.83"/>
<polygon fill="orange" stroke="orange" points="436.66,-392.52 427,-396.85 437.26,-399.49 436.66,-392.52"/>
</a>
</g>
<text text-anchor="start" x="490" y="-407" font-family="Helvetica,sans-Serif" font-size="10.00" fill="grey"> &lt; std::shared_ptr&lt;</text>
<text text-anchor="middle" x="534" y="-396" font-family="Helvetica,sans-Serif" font-size="10.00" fill="grey"> ContextHandler &gt; &gt;</text>
</g>
<!-- Node22&#45;&gt;Node5 -->
<g id="edge25_Node000005_Node000022" class="edge">
<title>Node22&#45;&gt;Node5</title>
<g id="a_edge25_Node000005_Node000022"><a xlink:title=" ">
<path fill="none" stroke="orange" stroke-dasharray="5,2" d="M448.79,-300.68C508.2,-300.39 601.89,-300 683,-300 683,-300 683,-300 1032.5,-300 1092.36,-300 1160.16,-300.85 1210.57,-301.64"/>
<polygon fill="orange" stroke="orange" points="448.88,-297.18 438.9,-300.73 448.91,-304.18 448.88,-297.18"/>
</a>
</g>
<text text-anchor="start" x="777.5" y="-314" font-family="Helvetica,sans-Serif" font-size="10.00" fill="grey"> &lt; Harlinn::Common::</text>
<text text-anchor="middle" x="824.5" y="-303" font-family="Helvetica,sans-Serif" font-size="10.00" fill="grey">Core::IO::Context &gt;</text>
</g>
<!-- Node23 -->
<g id="Node000023" class="node">
<title>Node23</title>
<g id="a_Node000023"><a xlink:href="struct_harlinn_1_1_common_1_1_core_1_1_http_1_1_request_v2.html" target="_top" xlink:title=" ">
<polygon fill="white" stroke="#666666" points="1798,-174 1680,-174 1680,-144 1798,-144 1798,-174"/>
<text text-anchor="start" x="1688" y="-162" font-family="Helvetica,sans-Serif" font-size="10.00">Harlinn::Common::Core</text>
<text text-anchor="middle" x="1739" y="-151" font-family="Helvetica,sans-Serif" font-size="10.00">::Http::RequestV2</text>
</a>
</g>
</g>
<!-- Node23&#45;&gt;Node1 -->
<g id="edge27_Node000001_Node000023" class="edge">
<title>Node23&#45;&gt;Node1</title>
<g id="a_edge27_Node000001_Node000023"><a xlink:title=" ">
<path fill="none" stroke="#9a32cd" stroke-dasharray="5,2" d="M1809.76,-166.17C1838.09,-169.08 1870.85,-172.45 1899.59,-175.4"/>
<polygon fill="#9a32cd" stroke="#9a32cd" points="1810.13,-162.69 1799.83,-165.15 1809.41,-169.65 1810.13,-162.69"/>
</a>
</g>
<text text-anchor="middle" x="1849" y="-177" font-family="Helvetica,sans-Serif" font-size="10.00" fill="grey"> requestBuffer_</text>
</g>
<!-- Node24 -->
<g id="Node000024" class="node">
<title>Node24</title>
<g id="a_Node000024"><a xlink:href="struct_harlinn_1_1_common_1_1_core_1_1_http_1_1_request_v1.html" target="_top" xlink:title=" ">
<polygon fill="white" stroke="#666666" points="1584,-174 1466,-174 1466,-144 1584,-144 1584,-174"/>
<text text-anchor="start" x="1474" y="-162" font-family="Helvetica,sans-Serif" font-size="10.00">Harlinn::Common::Core</text>
<text text-anchor="middle" x="1525" y="-151" font-family="Helvetica,sans-Serif" font-size="10.00">::Http::RequestV1</text>
</a>
</g>
</g>
<!-- Node24&#45;&gt;Node23 -->
<g id="edge28_Node000023_Node000024" class="edge">
<title>Node24&#45;&gt;Node23</title>
<g id="a_edge28_Node000023_Node000024"><a xlink:title=" ">
<path fill="none" stroke="#63b8ff" d="M1595.88,-159C1623.03,-159 1653.77,-159 1679.7,-159"/>
<polygon fill="#63b8ff" stroke="#63b8ff" points="1596,-155.5 1586,-159 1596,-162.5 1596,-155.5"/>
</a>
</g>
</g>
<!-- Node25 -->
<g id="Node000025" class="node">
<title>Node25</title>
<g id="a_Node000025"><a xlink:href="struct_harlinn_1_1_common_1_1_core_1_1_http_1_1_version.html" target="_top" xlink:title="HTTP protocol version information and manipulation.">
<polygon fill="white" stroke="#666666" points="1346,-78 1228,-78 1228,-48 1346,-48 1346,-78"/>
<text text-anchor="start" x="1236" y="-66" font-family="Helvetica,sans-Serif" font-size="10.00">Harlinn::Common::Core</text>
<text text-anchor="middle" x="1287" y="-55" font-family="Helvetica,sans-Serif" font-size="10.00">::Http::Version</text>
</a>
</g>
</g>
<!-- Node25&#45;&gt;Node24 -->
<g id="edge29_Node000024_Node000025" class="edge">
<title>Node25&#45;&gt;Node24</title>
<g id="a_edge29_Node000024_Node000025"><a xlink:title=" ">
<path fill="none" stroke="#9a32cd" stroke-dasharray="5,2" d="M1347.56,-81.95C1352.79,-83.64 1357.99,-85.34 1363,-87 1400.9,-99.53 1414.41,-94.44 1448,-116 1457.79,-122.28 1456.42,-128.41 1466,-135 1470.58,-138.15 1475.64,-141 1480.8,-143.54"/>
<polygon fill="#9a32cd" stroke="#9a32cd" points="1348.89,-78.7 1338.3,-78.95 1346.74,-85.36 1348.89,-78.7"/>
</a>
</g>
<text text-anchor="middle" x="1414.5" y="-119" font-family="Helvetica,sans-Serif" font-size="10.00" fill="grey"> Version</text>
</g>
<!-- Node26 -->
<g id="Node000026" class="node">
<title>Node26</title>
<g id="a_Node000026"><a xlink:href="struct_harlinn_1_1_common_1_1_core_1_1_http_1_1_cooked_url.html" target="_top" xlink:title="Structure defining format of cooked URL.">
<polygon fill="white" stroke="#666666" points="1346,-30 1228,-30 1228,0 1346,0 1346,-30"/>
<text text-anchor="start" x="1236" y="-18" font-family="Helvetica,sans-Serif" font-size="10.00">Harlinn::Common::Core</text>
<text text-anchor="middle" x="1287" y="-7" font-family="Helvetica,sans-Serif" font-size="10.00">::Http::CookedUrl</text>
</a>
</g>
</g>
<!-- Node26&#45;&gt;Node24 -->
<g id="edge30_Node000024_Node000026" class="edge">
<title>Node26&#45;&gt;Node24</title>
<g id="a_edge30_Node000024_Node000026"><a xlink:title=" ">
<path fill="none" stroke="#9a32cd" stroke-dasharray="5,2" d="M1349.71,-34.09C1354.23,-35.69 1358.7,-37.33 1363,-39 1401.75,-54.03 1420.49,-46.84 1448,-78 1465.58,-97.92 1448.04,-115.42 1466,-135 1469.02,-138.29 1472.56,-141.15 1476.38,-143.62"/>
<polygon fill="#9a32cd" stroke="#9a32cd" points="1351.15,-30.88 1340.55,-30.94 1348.87,-37.5 1351.15,-30.88"/>
</a>
</g>
<text text-anchor="middle" x="1414.5" y="-81" font-family="Helvetica,sans-Serif" font-size="10.00" fill="grey"> CookedUrl</text>
</g>
<!-- Node27 -->
<g id="Node000027" class="node">
<title>Node27</title>
<g id="a_Node000027"><a xlink:href="struct_harlinn_1_1_common_1_1_core_1_1_http_1_1_transport_address.html" target="_top" xlink:title="Structure defining format of transport address. Use pLocalAddress&#45;&gt;sa_family to determine whether thi...">
<polygon fill="white" stroke="#666666" points="1348.5,-270 1225.5,-270 1225.5,-240 1348.5,-240 1348.5,-270"/>
<text text-anchor="start" x="1233.5" y="-258" font-family="Helvetica,sans-Serif" font-size="10.00">Harlinn::Common::Core</text>
<text text-anchor="middle" x="1287" y="-247" font-family="Helvetica,sans-Serif" font-size="10.00">::Http::TransportAddress</text>
</a>
</g>
</g>
<!-- Node27&#45;&gt;Node24 -->
<g id="edge31_Node000024_Node000027" class="edge">
<title>Node27&#45;&gt;Node24</title>
<g id="a_edge31_Node000024_Node000027"><a xlink:title=" ">
<path fill="none" stroke="#9a32cd" stroke-dasharray="5,2" d="M1347.3,-236.08C1352.61,-234.36 1357.9,-232.65 1363,-231 1400.83,-218.72 1411.71,-219.27 1448,-203 1466.22,-194.83 1485.7,-183.5 1500.37,-174.38"/>
<polygon fill="#9a32cd" stroke="#9a32cd" points="1346.32,-232.71 1337.87,-239.1 1348.47,-239.38 1346.32,-232.71"/>
</a>
</g>
<text text-anchor="middle" x="1414.5" y="-228" font-family="Helvetica,sans-Serif" font-size="10.00" fill="grey"> Address</text>
</g>
<!-- Node28 -->
<g id="Node000028" class="node">
<title>Node28</title>
<g id="a_Node000028"><a xlink:href="struct_harlinn_1_1_common_1_1_core_1_1_http_1_1_request_headers.html" target="_top" xlink:title="Structure defining format of request headers.">
<polygon fill="white" stroke="#666666" points="1346.5,-222 1227.5,-222 1227.5,-192 1346.5,-192 1346.5,-222"/>
<text text-anchor="start" x="1235.5" y="-210" font-family="Helvetica,sans-Serif" font-size="10.00">Harlinn::Common::Core</text>
<text text-anchor="middle" x="1287" y="-199" font-family="Helvetica,sans-Serif" font-size="10.00">::Http::RequestHeaders</text>
</a>
</g>
</g>
<!-- Node28&#45;&gt;Node24 -->
<g id="edge32_Node000024_Node000028" class="edge">
<title>Node28&#45;&gt;Node24</title>
<g id="a_edge32_Node000024_Node000028"><a xlink:title=" ">
<path fill="none" stroke="#9a32cd" stroke-dasharray="5,2" d="M1357.85,-192.79C1392.22,-185.8 1433.16,-177.48 1465.81,-170.84"/>
<polygon fill="#9a32cd" stroke="#9a32cd" points="1357.53,-189.29 1348.43,-194.71 1358.92,-196.15 1357.53,-189.29"/>
</a>
</g>
<text text-anchor="middle" x="1414.5" y="-191" font-family="Helvetica,sans-Serif" font-size="10.00" fill="grey"> Headers</text>
</g>
<!-- Node29 -->
<g id="Node000029" class="node">
<title>Node29</title>
<g id="a_Node000029"><a xlink:href="struct_harlinn_1_1_common_1_1_core_1_1_http_1_1_unknown_header.html" target="_top" xlink:title="Structure defining format of an unknown header.">
<polygon fill="white" stroke="#666666" points="1090.5,-270 972.5,-270 972.5,-240 1090.5,-240 1090.5,-270"/>
<text text-anchor="start" x="980.5" y="-258" font-family="Helvetica,sans-Serif" font-size="10.00">Harlinn::Common::Core</text>
<text text-anchor="middle" x="1031.5" y="-247" font-family="Helvetica,sans-Serif" font-size="10.00">::Http::UnknownHeader</text>
</a>
</g>
</g>
<!-- Node29&#45;&gt;Node28 -->
<g id="edge33_Node000028_Node000029" class="edge">
<title>Node29&#45;&gt;Node28</title>
<g id="a_edge33_Node000028_Node000029"><a xlink:title=" ">
<path fill="none" stroke="#9a32cd" stroke-dasharray="5,2" d="M1102.07,-241.83C1141.39,-234.38 1190.01,-225.18 1227.38,-218.1"/>
<polygon fill="#9a32cd" stroke="#9a32cd" points="1101.64,-238.35 1092.46,-243.65 1102.94,-245.22 1101.64,-238.35"/>
</a>
</g>
<text text-anchor="middle" x="1152" y="-253" font-family="Helvetica,sans-Serif" font-size="10.00" fill="grey"> pTrailers</text>
<text text-anchor="middle" x="1152" y="-242" font-family="Helvetica,sans-Serif" font-size="10.00" fill="grey">pUnknownHeaders</text>
</g>
<!-- Node30 -->
<g id="Node000030" class="node">
<title>Node30</title>
<g id="a_Node000030"><a xlink:href="struct_harlinn_1_1_common_1_1_core_1_1_http_1_1_known_header.html" target="_top" xlink:title="Structure defining format of a known HTTP header.">
<polygon fill="white" stroke="#666666" points="1090.5,-222 972.5,-222 972.5,-192 1090.5,-192 1090.5,-222"/>
<text text-anchor="start" x="980.5" y="-210" font-family="Helvetica,sans-Serif" font-size="10.00">Harlinn::Common::Core</text>
<text text-anchor="middle" x="1031.5" y="-199" font-family="Helvetica,sans-Serif" font-size="10.00">::Http::KnownHeader</text>
</a>
</g>
</g>
<!-- Node30&#45;&gt;Node28 -->
<g id="edge34_Node000028_Node000030" class="edge">
<title>Node30&#45;&gt;Node28</title>
<g id="a_edge34_Node000028_Node000030"><a xlink:title=" ">
<path fill="none" stroke="#9a32cd" stroke-dasharray="5,2" d="M1102.32,-207C1141.6,-207 1190.09,-207 1227.38,-207"/>
<polygon fill="#9a32cd" stroke="#9a32cd" points="1102.49,-203.5 1092.49,-207 1102.49,-210.5 1102.49,-203.5"/>
</a>
</g>
<text text-anchor="middle" x="1152" y="-210" font-family="Helvetica,sans-Serif" font-size="10.00" fill="grey"> KnownHeaders</text>
</g>
<!-- Node31 -->
<g id="Node000031" class="node">
<title>Node31</title>
<g id="a_Node000031"><a xlink:href="struct_harlinn_1_1_common_1_1_core_1_1_http_1_1_data_chunk.html" target="_top" xlink:title="This structure describes an individual data chunk.">
<polygon fill="white" stroke="#666666" points="1346,-174 1228,-174 1228,-144 1346,-144 1346,-174"/>
<text text-anchor="start" x="1236" y="-162" font-family="Helvetica,sans-Serif" font-size="10.00">Harlinn::Common::Core</text>
<text text-anchor="middle" x="1287" y="-151" font-family="Helvetica,sans-Serif" font-size="10.00">::Http::DataChunk</text>
</a>
</g>
</g>
<!-- Node31&#45;&gt;Node24 -->
<g id="edge35_Node000024_Node000031" class="edge">
<title>Node31&#45;&gt;Node24</title>
<g id="a_edge35_Node000024_Node000031"><a xlink:title=" ">
<path fill="none" stroke="#9a32cd" stroke-dasharray="5,2" d="M1357.69,-159C1391.99,-159 1432.87,-159 1465.52,-159"/>
<polygon fill="#9a32cd" stroke="#9a32cd" points="1357.85,-155.5 1347.85,-159 1357.85,-162.5 1357.85,-155.5"/>
</a>
</g>
<text text-anchor="middle" x="1414.5" y="-162" font-family="Helvetica,sans-Serif" font-size="10.00" fill="grey"> pEntityChunks</text>
</g>
<!-- Node32 -->
<g id="Node000032" class="node">
<title>Node32</title>
<g id="a_Node000032"><a xlink:href="struct_harlinn_1_1_common_1_1_core_1_1_http_1_1_byte_range.html" target="_top" xlink:title="This structure defines a file byte range.">
<polygon fill="white" stroke="#666666" points="1090.5,-174 972.5,-174 972.5,-144 1090.5,-144 1090.5,-174"/>
<text text-anchor="start" x="980.5" y="-162" font-family="Helvetica,sans-Serif" font-size="10.00">Harlinn::Common::Core</text>
<text text-anchor="middle" x="1031.5" y="-151" font-family="Helvetica,sans-Serif" font-size="10.00">::Http::ByteRange</text>
</a>
</g>
</g>
<!-- Node32&#45;&gt;Node31 -->
<g id="edge36_Node000031_Node000032" class="edge">
<title>Node32&#45;&gt;Node31</title>
<g id="a_edge36_Node000031_Node000032"><a xlink:title=" ">
<path fill="none" stroke="#9a32cd" stroke-dasharray="5,2" d="M1102.36,-159C1141.79,-159 1190.48,-159 1227.82,-159"/>
<polygon fill="#9a32cd" stroke="#9a32cd" points="1102.49,-155.5 1092.49,-159 1102.49,-162.5 1102.49,-155.5"/>
</a>
</g>
<text text-anchor="middle" x="1152" y="-162" font-family="Helvetica,sans-Serif" font-size="10.00" fill="grey"> ByteRange</text>
</g>
<!-- Node33 -->
<g id="Node000033" class="node">
<title>Node33</title>
<g id="a_Node000033"><a xlink:href="struct_harlinn_1_1_common_1_1_core_1_1_http_1_1_s_s_l_info.html" target="_top" xlink:title=" ">
<polygon fill="white" stroke="#666666" points="1346,-126 1228,-126 1228,-96 1346,-96 1346,-126"/>
<text text-anchor="start" x="1236" y="-114" font-family="Helvetica,sans-Serif" font-size="10.00">Harlinn::Common::Core</text>
<text text-anchor="middle" x="1287" y="-103" font-family="Helvetica,sans-Serif" font-size="10.00">::Http::SSLInfo</text>
</a>
</g>
</g>
<!-- Node33&#45;&gt;Node24 -->
<g id="edge37_Node000024_Node000033" class="edge">
<title>Node33&#45;&gt;Node24</title>
<g id="a_edge37_Node000024_Node000033"><a xlink:title=" ">
<path fill="none" stroke="#9a32cd" stroke-dasharray="5,2" d="M1357.25,-125.08C1391.64,-132.08 1432.73,-140.44 1465.52,-147.1"/>
<polygon fill="#9a32cd" stroke="#9a32cd" points="1358.32,-121.73 1347.82,-123.17 1356.92,-128.59 1358.32,-121.73"/>
</a>
</g>
<text text-anchor="middle" x="1414.5" y="-147" font-family="Helvetica,sans-Serif" font-size="10.00" fill="grey"> pSslInfo</text>
</g>
<!-- Node34 -->
<g id="Node000034" class="node">
<title>Node34</title>
<g id="a_Node000034"><a xlink:href="struct_harlinn_1_1_common_1_1_core_1_1_http_1_1_s_s_l_client_cert_info.html" target="_top" xlink:title="SSL Client certificate information.">
<polygon fill="white" stroke="#666666" points="1093,-126 970,-126 970,-96 1093,-96 1093,-126"/>
<text text-anchor="start" x="978" y="-114" font-family="Helvetica,sans-Serif" font-size="10.00">Harlinn::Common::Core</text>
<text text-anchor="middle" x="1031.5" y="-103" font-family="Helvetica,sans-Serif" font-size="10.00">::Http::SSLClientCertInfo</text>
</a>
</g>
</g>
<!-- Node34&#45;&gt;Node33 -->
<g id="edge38_Node000033_Node000034" class="edge">
<title>Node34&#45;&gt;Node33</title>
<g id="a_edge38_Node000033_Node000034"><a xlink:title=" ">
<path fill="none" stroke="#9a32cd" stroke-dasharray="5,2" d="M1104.73,-111C1143.62,-111 1190.97,-111 1227.52,-111"/>
<polygon fill="#9a32cd" stroke="#9a32cd" points="1104.73,-107.5 1094.73,-111 1104.73,-114.5 1104.73,-107.5"/>
</a>
</g>
<text text-anchor="middle" x="1152" y="-114" font-family="Helvetica,sans-Serif" font-size="10.00" fill="grey"> pClientCertInfo</text>
</g>
<!-- Node35 -->
<g id="Node000035" class="node">
<title>Node35</title>
<g id="a_Node000035"><a xlink:href="struct_harlinn_1_1_common_1_1_core_1_1_http_1_1_request_info.html" target="_top" xlink:title=" ">
<polygon fill="white" stroke="#666666" points="1584,-126 1466,-126 1466,-96 1584,-96 1584,-126"/>
<text text-anchor="start" x="1474" y="-114" font-family="Helvetica,sans-Serif" font-size="10.00">Harlinn::Common::Core</text>
<text text-anchor="middle" x="1525" y="-103" font-family="Helvetica,sans-Serif" font-size="10.00">::Http::RequestInfo</text>
</a>
</g>
</g>
<!-- Node35&#45;&gt;Node23 -->
<g id="edge39_Node000023_Node000035" class="edge">
<title>Node35&#45;&gt;Node23</title>
<g id="a_edge39_Node000023_Node000035"><a xlink:title=" ">
<path fill="none" stroke="#9a32cd" stroke-dasharray="5,2" d="M1595.52,-126.74C1622.76,-132.91 1653.66,-139.9 1679.7,-145.8"/>
<polygon fill="#9a32cd" stroke="#9a32cd" points="1596.49,-123.37 1585.97,-124.58 1594.95,-130.2 1596.49,-123.37"/>
</a>
</g>
<text text-anchor="middle" x="1632" y="-144" font-family="Helvetica,sans-Serif" font-size="10.00" fill="grey"> pRequestInfo</text>
</g>
</g>
</svg>
