<?xml version="1.0" encoding="UTF-8" standalone="no"?>
<!DOCTYPE svg PUBLIC "-//W3C//DTD SVG 1.1//EN"
 "http://www.w3.org/Graphics/SVG/1.1/DTD/svg11.dtd">
<!-- Generated by graphviz version 7.0.1 (20221109.1506)
 -->
<!-- Title: Harlinn::Windows::CommandButton Pages: 1 -->
<svg width="180pt" height="203pt"
 viewBox="0.00 0.00 180.00 203.00" xmlns="http://www.w3.org/2000/svg" xmlns:xlink="http://www.w3.org/1999/xlink">
<g id="graph0" class="graph" transform="scale(1 1) rotate(0) translate(4 199)">
<title>Harlinn::Windows::CommandButton</title>
<!-- Node1 -->
<g id="Node000001" class="node">
<title>Node1</title>
<g id="a_Node000001"><a xlink:title=" ">
<polygon fill="#999999" stroke="#666666" points="157.5,-30 14.5,-30 14.5,0 157.5,0 157.5,-30"/>
<text text-anchor="start" x="22.5" y="-18" font-family="Helvetica,sans-Serif" font-size="10.00">Harlinn::Windows::Command</text>
<text text-anchor="middle" x="86" y="-7" font-family="Helvetica,sans-Serif" font-size="10.00">Button</text>
</a>
</g>
</g>
<!-- Node2 -->
<g id="Node000002" class="node">
<title>Node2</title>
<g id="a_Node000002"><a xlink:href="class_harlinn_1_1_windows_1_1_push_button_base.html" target="_top" xlink:title=" ">
<polygon fill="white" stroke="#666666" points="172,-85 0,-85 0,-66 172,-66 172,-85"/>
<text text-anchor="middle" x="86" y="-73" font-family="Helvetica,sans-Serif" font-size="10.00">Harlinn::Windows::PushButtonBase</text>
</a>
</g>
</g>
<!-- Node2&#45;&gt;Node1 -->
<g id="edge1_Node000001_Node000002" class="edge">
<title>Node2&#45;&gt;Node1</title>
<g id="a_edge1_Node000001_Node000002"><a xlink:title=" ">
<path fill="none" stroke="#63b8ff" d="M86,-54.51C86,-46.49 86,-37.43 86,-30.11"/>
<polygon fill="#63b8ff" stroke="#63b8ff" points="82.5,-54.35 86,-64.35 89.5,-54.35 82.5,-54.35"/>
</a>
</g>
</g>
<!-- Node3 -->
<g id="Node000003" class="node">
<title>Node3</title>
<g id="a_Node000003"><a xlink:href="class_harlinn_1_1_windows_1_1_button_base.html" target="_top" xlink:title=" ">
<polygon fill="white" stroke="#666666" points="160.5,-140 11.5,-140 11.5,-121 160.5,-121 160.5,-140"/>
<text text-anchor="middle" x="86" y="-128" font-family="Helvetica,sans-Serif" font-size="10.00">Harlinn::Windows::ButtonBase</text>
</a>
</g>
</g>
<!-- Node3&#45;&gt;Node2 -->
<g id="edge2_Node000002_Node000003" class="edge">
<title>Node3&#45;&gt;Node2</title>
<g id="a_edge2_Node000002_Node000003"><a xlink:title=" ">
<path fill="none" stroke="#63b8ff" d="M86,-109.35C86,-101.1 86,-91.97 86,-85.44"/>
<polygon fill="#63b8ff" stroke="#63b8ff" points="82.5,-109.23 86,-119.23 89.5,-109.23 82.5,-109.23"/>
</a>
</g>
</g>
<!-- Node4 -->
<g id="Node000004" class="node">
<title>Node4</title>
<g id="a_Node000004"><a xlink:href="class_harlinn_1_1_windows_1_1_control.html" target="_top" xlink:title=" ">
<polygon fill="white" stroke="#666666" points="150.5,-195 21.5,-195 21.5,-176 150.5,-176 150.5,-195"/>
<text text-anchor="middle" x="86" y="-183" font-family="Helvetica,sans-Serif" font-size="10.00">Harlinn::Windows::Control</text>
</a>
</g>
</g>
<!-- Node4&#45;&gt;Node3 -->
<g id="edge3_Node000003_Node000004" class="edge">
<title>Node4&#45;&gt;Node3</title>
<g id="a_edge3_Node000003_Node000004"><a xlink:title=" ">
<path fill="none" stroke="#63b8ff" d="M86,-164.35C86,-156.1 86,-146.97 86,-140.44"/>
<polygon fill="#63b8ff" stroke="#63b8ff" points="82.5,-164.23 86,-174.23 89.5,-164.23 82.5,-164.23"/>
</a>
</g>
</g>
</g>
</svg>
