<?xml version="1.0" encoding="UTF-8" standalone="no"?>
<!DOCTYPE svg PUBLIC "-//W3C//DTD SVG 1.1//EN"
 "http://www.w3.org/Graphics/SVG/1.1/DTD/svg11.dtd">
<!-- Generated by graphviz version 7.0.1 (20221109.1506)
 -->
<!-- Title: Graphical Class Hierarchy Pages: 1 -->
<svg width="372pt" height="226pt"
 viewBox="0.00 0.00 372.00 226.00" xmlns="http://www.w3.org/2000/svg" xmlns:xlink="http://www.w3.org/1999/xlink">
<g id="graph0" class="graph" transform="scale(1 1) rotate(0) translate(4 222)">
<title>Graphical Class Hierarchy</title>
<!-- Node0 -->
<g id="Node000000" class="node">
<title>Node0</title>
<g id="a_Node000000"><a xlink:href="class_harlinn_1_1_common_1_1_core_1_1_net_1_1_data_1_1_delete_timeseries_range_data.html" target="_top" xlink:title=" ">
<polygon fill="white" stroke="#666666" points="163,-129 0,-129 0,-88 163,-88 163,-129"/>
<text text-anchor="start" x="8" y="-117" font-family="Helvetica,sans-Serif" font-size="10.00">Harlinn.Common.Core.Net.</text>
<text text-anchor="start" x="8" y="-106" font-family="Helvetica,sans-Serif" font-size="10.00">Data.DeleteTimeseriesRangeData</text>
<text text-anchor="middle" x="81.5" y="-95" font-family="Helvetica,sans-Serif" font-size="10.00">&lt; TKind &gt;</text>
</a>
</g>
</g>
<!-- Node1 -->
<g id="Node000001" class="node">
<title>Node1</title>
<g id="a_Node000001"><a xlink:href="class_harlinn_1_1_common_1_1_core_1_1_net_1_1_data_1_1_delete_clear_timeseries_range_data.html" target="_top" xlink:title=" ">
<polygon fill="white" stroke="#666666" points="364,-218 199,-218 199,-177 364,-177 364,-218"/>
<text text-anchor="start" x="207" y="-206" font-family="Helvetica,sans-Serif" font-size="10.00">Harlinn.Common.Core.Net.</text>
<text text-anchor="start" x="207" y="-195" font-family="Helvetica,sans-Serif" font-size="10.00">Data.DeleteClearTimeseriesRange</text>
<text text-anchor="middle" x="281.5" y="-184" font-family="Helvetica,sans-Serif" font-size="10.00">Data&lt; TKind &gt;</text>
</a>
</g>
</g>
<!-- Node0&#45;&gt;Node1 -->
<g id="edge193_Node000000_Node000001" class="edge">
<title>Node0&#45;&gt;Node1</title>
<g id="a_edge193_Node000000_Node000001"><a xlink:title=" ">
<path fill="none" stroke="#63b8ff" d="M129.82,-134.7C150.72,-145.78 175.77,-158.44 199,-168.5 205.34,-171.25 212.03,-173.94 218.75,-176.52"/>
<polygon fill="#63b8ff" stroke="#63b8ff" points="131.72,-131.74 121.26,-130.11 128.42,-137.92 131.72,-131.74"/>
</a>
</g>
</g>
<!-- Node2 -->
<g id="Node000002" class="node">
<title>Node2</title>
<g id="a_Node000002"><a xlink:href="class_harlinn_1_1_common_1_1_core_1_1_net_1_1_data_1_1_delete_from_timeseries_range_data.html" target="_top" xlink:title=" ">
<polygon fill="white" stroke="#666666" points="364,-159 199,-159 199,-118 364,-118 364,-159"/>
<text text-anchor="start" x="207" y="-147" font-family="Helvetica,sans-Serif" font-size="10.00">Harlinn.Common.Core.Net.</text>
<text text-anchor="start" x="207" y="-136" font-family="Helvetica,sans-Serif" font-size="10.00">Data.DeleteFromTimeseriesRange</text>
<text text-anchor="middle" x="281.5" y="-125" font-family="Helvetica,sans-Serif" font-size="10.00">Data&lt; TKind &gt;</text>
</a>
</g>
</g>
<!-- Node0&#45;&gt;Node2 -->
<g id="edge194_Node000000_Node000002" class="edge">
<title>Node0&#45;&gt;Node2</title>
<g id="a_edge194_Node000000_Node000002"><a xlink:title=" ">
<path fill="none" stroke="#63b8ff" d="M174.6,-122.46C182.63,-123.67 190.72,-124.9 198.65,-126.1"/>
<polygon fill="#63b8ff" stroke="#63b8ff" points="175.23,-119.01 164.82,-120.97 174.18,-125.93 175.23,-119.01"/>
</a>
</g>
</g>
<!-- Node3 -->
<g id="Node000003" class="node">
<title>Node3</title>
<g id="a_Node000003"><a xlink:href="class_harlinn_1_1_common_1_1_core_1_1_net_1_1_data_1_1_delete_over_timeseries_range_data.html" target="_top" xlink:title=" ">
<polygon fill="white" stroke="#666666" points="362.5,-100 200.5,-100 200.5,-59 362.5,-59 362.5,-100"/>
<text text-anchor="start" x="208.5" y="-88" font-family="Helvetica,sans-Serif" font-size="10.00">Harlinn.Common.Core.Net.</text>
<text text-anchor="start" x="208.5" y="-77" font-family="Helvetica,sans-Serif" font-size="10.00">Data.DeleteOverTimeseriesRange</text>
<text text-anchor="middle" x="281.5" y="-66" font-family="Helvetica,sans-Serif" font-size="10.00">Data&lt; TKind &gt;</text>
</a>
</g>
</g>
<!-- Node0&#45;&gt;Node3 -->
<g id="edge195_Node000000_Node000003" class="edge">
<title>Node0&#45;&gt;Node3</title>
<g id="a_edge195_Node000000_Node000003"><a xlink:title=" ">
<path fill="none" stroke="#63b8ff" d="M174.55,-95.02C183.13,-93.76 191.79,-92.49 200.26,-91.25"/>
<polygon fill="#63b8ff" stroke="#63b8ff" points="174.2,-91.53 164.82,-96.44 175.22,-98.46 174.2,-91.53"/>
</a>
</g>
</g>
<!-- Node4 -->
<g id="Node000004" class="node">
<title>Node4</title>
<g id="a_Node000004"><a xlink:href="class_harlinn_1_1_common_1_1_core_1_1_net_1_1_data_1_1_delete_until_timeseries_range_data.html" target="_top" xlink:title=" ">
<polygon fill="white" stroke="#666666" points="362.5,-41 200.5,-41 200.5,0 362.5,0 362.5,-41"/>
<text text-anchor="start" x="208.5" y="-29" font-family="Helvetica,sans-Serif" font-size="10.00">Harlinn.Common.Core.Net.</text>
<text text-anchor="start" x="208.5" y="-18" font-family="Helvetica,sans-Serif" font-size="10.00">Data.DeleteUntilTimeseriesRange</text>
<text text-anchor="middle" x="281.5" y="-7" font-family="Helvetica,sans-Serif" font-size="10.00">Data&lt; TKind &gt;</text>
</a>
</g>
</g>
<!-- Node0&#45;&gt;Node4 -->
<g id="edge196_Node000000_Node000004" class="edge">
<title>Node0&#45;&gt;Node4</title>
<g id="a_edge196_Node000000_Node000004"><a xlink:title=" ">
<path fill="none" stroke="#63b8ff" d="M131.95,-82.39C152.45,-71.95 176.64,-60.15 199,-50.5 206.2,-47.39 213.84,-44.31 221.44,-41.37"/>
<polygon fill="#63b8ff" stroke="#63b8ff" points="130.54,-79.18 123.24,-86.85 133.74,-85.41 130.54,-79.18"/>
</a>
</g>
</g>
</g>
</svg>
