<?xml version="1.0" encoding="UTF-8" standalone="no"?>
<!DOCTYPE svg PUBLIC "-//W3C//DTD SVG 1.1//EN"
 "http://www.w3.org/Graphics/SVG/1.1/DTD/svg11.dtd">
<!-- Generated by graphviz version 7.0.1 (20221109.1506)
 -->
<!-- Title: Graphical Class Hierarchy Pages: 1 -->
<svg width="838pt" height="971pt"
 viewBox="0.00 0.00 838.00 971.00" xmlns="http://www.w3.org/2000/svg" xmlns:xlink="http://www.w3.org/1999/xlink">
<g id="graph0" class="graph" transform="scale(1 1) rotate(0) translate(4 967)">
<title>Graphical Class Hierarchy</title>
<!-- Node0 -->
<g id="Node000000" class="node">
<title>Node0</title>
<g id="a_Node000000"><a xlink:title=" ">
<polygon fill="#e0e0e0" stroke="#999999" points="83,-342.5 0,-342.5 0,-323.5 83,-323.5 83,-342.5"/>
<text text-anchor="middle" x="41.5" y="-330.5" font-family="Helvetica,sans-Serif" font-size="10.00">OVERLAPPED</text>
</a>
</g>
</g>
<!-- Node1 -->
<g id="Node000001" class="node">
<title>Node1</title>
<g id="a_Node000001"><a xlink:href="struct_harlinn_1_1_common_1_1_core_1_1_i_o_1_1_overlapped.html" target="_top" xlink:title=" ">
<polygon fill="white" stroke="#666666" points="237,-372 119,-372 119,-342 237,-342 237,-372"/>
<text text-anchor="start" x="127" y="-360" font-family="Helvetica,sans-Serif" font-size="10.00">Harlinn::Common::Core</text>
<text text-anchor="middle" x="178" y="-349" font-family="Helvetica,sans-Serif" font-size="10.00">::IO::Overlapped</text>
</a>
</g>
</g>
<!-- Node0&#45;&gt;Node1 -->
<g id="edge2231_Node000000_Node000001" class="edge">
<title>Node0&#45;&gt;Node1</title>
<g id="a_edge2231_Node000000_Node000001"><a xlink:title=" ">
<path fill="none" stroke="#63b8ff" d="M94.5,-342.28C102.38,-343.68 110.55,-345.14 118.56,-346.57"/>
<polygon fill="#63b8ff" stroke="#63b8ff" points="95.17,-338.84 84.71,-340.53 93.94,-345.73 95.17,-338.84"/>
</a>
</g>
</g>
<!-- Node2 -->
<g id="Node000002" class="node">
<title>Node2</title>
<g id="a_Node000002"><a xlink:href="class_harlinn_1_1_common_1_1_core_1_1_i_o_1_1_request.html" target="_top" xlink:title="Base class for all asynchronous requests.">
<polygon fill="white" stroke="#666666" points="237,-324 119,-324 119,-294 237,-294 237,-324"/>
<text text-anchor="start" x="127" y="-312" font-family="Helvetica,sans-Serif" font-size="10.00">Harlinn::Common::Core</text>
<text text-anchor="middle" x="178" y="-301" font-family="Helvetica,sans-Serif" font-size="10.00">::IO::Request</text>
</a>
</g>
</g>
<!-- Node0&#45;&gt;Node2 -->
<g id="edge2232_Node000000_Node000002" class="edge">
<title>Node0&#45;&gt;Node2</title>
<g id="a_edge2232_Node000000_Node000002"><a xlink:title=" ">
<path fill="none" stroke="#63b8ff" d="M94.5,-323.72C102.38,-322.32 110.55,-320.86 118.56,-319.43"/>
<polygon fill="#63b8ff" stroke="#63b8ff" points="93.94,-320.27 84.71,-325.47 95.17,-327.16 93.94,-320.27"/>
</a>
</g>
</g>
<!-- Node3 -->
<g id="Node000003" class="node">
<title>Node3</title>
<g id="a_Node000003"><a xlink:href="class_harlinn_1_1_common_1_1_core_1_1_http_1_1_server_1_1_request.html" target="_top" xlink:title=" ">
<polygon fill="white" stroke="#666666" points="420,-724 302,-724 302,-694 420,-694 420,-724"/>
<text text-anchor="start" x="310" y="-712" font-family="Helvetica,sans-Serif" font-size="10.00">Harlinn::Common::Core</text>
<text text-anchor="middle" x="361" y="-701" font-family="Helvetica,sans-Serif" font-size="10.00">::Http::Server::Request</text>
</a>
</g>
</g>
<!-- Node2&#45;&gt;Node3 -->
<g id="edge2233_Node000002_Node000003" class="edge">
<title>Node2&#45;&gt;Node3</title>
<g id="a_edge2233_Node000002_Node000003"><a xlink:title=" ">
<path fill="none" stroke="#63b8ff" d="M235.54,-331.5C236.04,-331.99 236.53,-332.49 237,-333 263.08,-361.15 337.37,-626.74 355.82,-693.72"/>
<polygon fill="#63b8ff" stroke="#63b8ff" points="237.79,-328.81 227.77,-325.35 233.45,-334.3 237.79,-328.81"/>
</a>
</g>
</g>
<!-- Node16 -->
<g id="Node000016" class="node">
<title>Node16</title>
<g id="a_Node000016"><a xlink:href="class_harlinn_1_1_common_1_1_core_1_1_i_o_1_1_comm_device_request.html" target="_top" xlink:title=" ">
<polygon fill="white" stroke="#666666" points="426.5,-402 295.5,-402 295.5,-372 426.5,-372 426.5,-402"/>
<text text-anchor="start" x="303.5" y="-390" font-family="Helvetica,sans-Serif" font-size="10.00">Harlinn::Common::Core</text>
<text text-anchor="middle" x="361" y="-379" font-family="Helvetica,sans-Serif" font-size="10.00">::IO::CommDeviceRequest</text>
</a>
</g>
</g>
<!-- Node2&#45;&gt;Node16 -->
<g id="edge2246_Node000002_Node000016" class="edge">
<title>Node2&#45;&gt;Node16</title>
<g id="a_edge2246_Node000002_Node000016"><a xlink:title=" ">
<path fill="none" stroke="#63b8ff" d="M226.83,-328.7C230.27,-330.14 233.69,-331.59 237,-333 266.93,-345.76 300.76,-360.65 325.36,-371.56"/>
<polygon fill="#63b8ff" stroke="#63b8ff" points="228.46,-325.59 217.89,-324.96 225.76,-332.04 228.46,-325.59"/>
</a>
</g>
</g>
<!-- Node20 -->
<g id="Node000020" class="node">
<title>Node20</title>
<g id="a_Node000020"><a xlink:href="struct_harlinn_1_1_common_1_1_core_1_1_i_o_1_1_context_1_1_async_overlapped_base.html" target="_top" xlink:title=" ">
<polygon fill="white" stroke="#666666" points="449,-324 273,-324 273,-294 449,-294 449,-324"/>
<text text-anchor="start" x="281" y="-312" font-family="Helvetica,sans-Serif" font-size="10.00">Harlinn::Common::Core</text>
<text text-anchor="middle" x="361" y="-301" font-family="Helvetica,sans-Serif" font-size="10.00">::IO::Context::AsyncOverlappedBase</text>
</a>
</g>
</g>
<!-- Node2&#45;&gt;Node20 -->
<g id="edge2250_Node000002_Node000020" class="edge">
<title>Node2&#45;&gt;Node20</title>
<g id="a_edge2250_Node000002_Node000020"><a xlink:title=" ">
<path fill="none" stroke="#63b8ff" d="M248.57,-309C256.42,-309 264.49,-309 272.52,-309"/>
<polygon fill="#63b8ff" stroke="#63b8ff" points="248.78,-305.5 238.78,-309 248.78,-312.5 248.78,-305.5"/>
</a>
</g>
</g>
<!-- Node22 -->
<g id="Node000022" class="node">
<title>Node22</title>
<g id="a_Node000022"><a xlink:href="class_harlinn_1_1_common_1_1_core_1_1_i_o_1_1_file_request.html" target="_top" xlink:title=" ">
<polygon fill="white" stroke="#666666" points="420,-270 302,-270 302,-240 420,-240 420,-270"/>
<text text-anchor="start" x="310" y="-258" font-family="Helvetica,sans-Serif" font-size="10.00">Harlinn::Common::Core</text>
<text text-anchor="middle" x="361" y="-247" font-family="Helvetica,sans-Serif" font-size="10.00">::IO::FileRequest</text>
</a>
</g>
</g>
<!-- Node2&#45;&gt;Node22 -->
<g id="edge2252_Node000002_Node000022" class="edge">
<title>Node2&#45;&gt;Node22</title>
<g id="a_edge2252_Node000002_Node000022"><a xlink:title=" ">
<path fill="none" stroke="#63b8ff" d="M241.63,-290.31C263.33,-283.84 287.39,-276.66 308.13,-270.48"/>
<polygon fill="#63b8ff" stroke="#63b8ff" points="240.9,-286.88 232.32,-293.09 242.9,-293.59 240.9,-286.88"/>
</a>
</g>
</g>
<!-- Node25 -->
<g id="Node000025" class="node">
<title>Node25</title>
<g id="a_Node000025"><a xlink:href="class_harlinn_1_1_common_1_1_core_1_1_i_o_1_1_pipe_request.html" target="_top" xlink:title=" ">
<polygon fill="white" stroke="#666666" points="420,-126 302,-126 302,-96 420,-96 420,-126"/>
<text text-anchor="start" x="310" y="-114" font-family="Helvetica,sans-Serif" font-size="10.00">Harlinn::Common::Core</text>
<text text-anchor="middle" x="361" y="-103" font-family="Helvetica,sans-Serif" font-size="10.00">::IO::PipeRequest</text>
</a>
</g>
</g>
<!-- Node2&#45;&gt;Node25 -->
<g id="edge2255_Node000002_Node000025" class="edge">
<title>Node2&#45;&gt;Node25</title>
<g id="a_edge2255_Node000002_Node000025"><a xlink:title=" ">
<path fill="none" stroke="#63b8ff" d="M200.51,-285.47C238.07,-244.38 314.62,-160.65 346.05,-126.26"/>
<polygon fill="#63b8ff" stroke="#63b8ff" points="198.09,-282.93 193.92,-292.67 203.25,-287.66 198.09,-282.93"/>
</a>
</g>
</g>
<!-- Node4 -->
<g id="Node000004" class="node">
<title>Node4</title>
<g id="a_Node000004"><a xlink:href="class_harlinn_1_1_common_1_1_core_1_1_http_1_1_server_1_1_cancel_request.html" target="_top" xlink:title=" ">
<polygon fill="white" stroke="#666666" points="646,-963 500,-963 500,-933 646,-933 646,-963"/>
<text text-anchor="start" x="508" y="-951" font-family="Helvetica,sans-Serif" font-size="10.00">Harlinn::Common::Core</text>
<text text-anchor="middle" x="573" y="-940" font-family="Helvetica,sans-Serif" font-size="10.00">::Http::Server::CancelRequest</text>
</a>
</g>
</g>
<!-- Node3&#45;&gt;Node4 -->
<g id="edge2234_Node000003_Node000004" class="edge">
<title>Node3&#45;&gt;Node4</title>
<g id="a_edge2234_Node000003_Node000004"><a xlink:title=" ">
<path fill="none" stroke="#63b8ff" d="M369.66,-735.2C384.34,-780.68 420.79,-874.15 485,-924 489.46,-927.46 494.38,-930.42 499.55,-932.95"/>
<polygon fill="#63b8ff" stroke="#63b8ff" points="373.09,-734.42 366.77,-725.92 366.4,-736.51 373.09,-734.42"/>
</a>
</g>
</g>
<!-- Node5 -->
<g id="Node000005" class="node">
<title>Node5</title>
<g id="a_Node000005"><a xlink:href="class_harlinn_1_1_common_1_1_core_1_1_http_1_1_server_1_1_receive_body_request.html" target="_top" xlink:title=" ">
<polygon fill="white" stroke="#666666" points="641,-914.5 505,-914.5 505,-873.5 641,-873.5 641,-914.5"/>
<text text-anchor="start" x="513" y="-902.5" font-family="Helvetica,sans-Serif" font-size="10.00">Harlinn::Common::Core</text>
<text text-anchor="start" x="513" y="-891.5" font-family="Helvetica,sans-Serif" font-size="10.00">::Http::Server::ReceiveBody</text>
<text text-anchor="middle" x="573" y="-880.5" font-family="Helvetica,sans-Serif" font-size="10.00">Request</text>
</a>
</g>
</g>
<!-- Node3&#45;&gt;Node5 -->
<g id="edge2235_Node000003_Node000005" class="edge">
<title>Node3&#45;&gt;Node5</title>
<g id="a_edge2235_Node000003_Node000005"><a xlink:title=" ">
<path fill="none" stroke="#63b8ff" d="M375.43,-734.01C395.09,-768.33 434.87,-829.78 485,-865 490.99,-869.21 497.64,-872.84 504.52,-875.97"/>
<polygon fill="#63b8ff" stroke="#63b8ff" points="378.67,-732.62 370.73,-725.61 372.56,-736.04 378.67,-732.62"/>
</a>
</g>
</g>
<!-- Node7 -->
<g id="Node000007" class="node">
<title>Node7</title>
<g id="a_Node000007"><a xlink:href="class_harlinn_1_1_common_1_1_core_1_1_http_1_1_server_1_1_receive_client_certificate_request.html" target="_top" xlink:title=" ">
<polygon fill="white" stroke="#666666" points="642,-855.5 504,-855.5 504,-814.5 642,-814.5 642,-855.5"/>
<text text-anchor="start" x="512" y="-843.5" font-family="Helvetica,sans-Serif" font-size="10.00">Harlinn::Common::Core</text>
<text text-anchor="start" x="512" y="-832.5" font-family="Helvetica,sans-Serif" font-size="10.00">::Http::Server::ReceiveClient</text>
<text text-anchor="middle" x="573" y="-821.5" font-family="Helvetica,sans-Serif" font-size="10.00">CertificateRequest</text>
</a>
</g>
</g>
<!-- Node3&#45;&gt;Node7 -->
<g id="edge2237_Node000003_Node000007" class="edge">
<title>Node3&#45;&gt;Node7</title>
<g id="a_edge2237_Node000003_Node000007"><a xlink:title=" ">
<path fill="none" stroke="#63b8ff" d="M386.21,-731.88C409.85,-753.22 447.64,-784.71 485,-805 491.04,-808.28 497.5,-811.3 504.08,-814.06"/>
<polygon fill="#63b8ff" stroke="#63b8ff" points="388.73,-729.44 378.99,-725.27 384,-734.6 388.73,-729.44"/>
</a>
</g>
</g>
<!-- Node8 -->
<g id="Node000008" class="node">
<title>Node8</title>
<g id="a_Node000008"><a xlink:href="class_harlinn_1_1_common_1_1_core_1_1_http_1_1_server_1_1_receive_request.html" target="_top" xlink:title=" ">
<polygon fill="white" stroke="#666666" points="647.5,-796 498.5,-796 498.5,-766 647.5,-766 647.5,-796"/>
<text text-anchor="start" x="506.5" y="-784" font-family="Helvetica,sans-Serif" font-size="10.00">Harlinn::Common::Core</text>
<text text-anchor="middle" x="573" y="-773" font-family="Helvetica,sans-Serif" font-size="10.00">::Http::Server::ReceiveRequest</text>
</a>
</g>
</g>
<!-- Node3&#45;&gt;Node8 -->
<g id="edge2238_Node000003_Node000008" class="edge">
<title>Node3&#45;&gt;Node8</title>
<g id="a_edge2238_Node000003_Node000008"><a xlink:title=" ">
<path fill="none" stroke="#63b8ff" d="M409.16,-728.72C431.89,-737.88 459.65,-748.58 485,-757 493.92,-759.96 503.44,-762.86 512.79,-765.55"/>
<polygon fill="#63b8ff" stroke="#63b8ff" points="410.76,-725.59 400.18,-725.07 408.13,-732.07 410.76,-725.59"/>
</a>
</g>
</g>
<!-- Node10 -->
<g id="Node000010" class="node">
<title>Node10</title>
<g id="a_Node000010"><a xlink:href="class_harlinn_1_1_common_1_1_core_1_1_http_1_1_server_1_1_send_body_request.html" target="_top" xlink:title=" ">
<polygon fill="white" stroke="#666666" points="653.5,-748 492.5,-748 492.5,-718 653.5,-718 653.5,-748"/>
<text text-anchor="start" x="500.5" y="-736" font-family="Helvetica,sans-Serif" font-size="10.00">Harlinn::Common::Core</text>
<text text-anchor="middle" x="573" y="-725" font-family="Helvetica,sans-Serif" font-size="10.00">::Http::Server::SendBodyRequest</text>
</a>
</g>
</g>
<!-- Node3&#45;&gt;Node10 -->
<g id="edge2240_Node000003_Node000010" class="edge">
<title>Node3&#45;&gt;Node10</title>
<g id="a_edge2240_Node000003_Node000010"><a xlink:title=" ">
<path fill="none" stroke="#63b8ff" d="M431.69,-716.96C451.09,-719.18 472.31,-721.61 492.24,-723.88"/>
<polygon fill="#63b8ff" stroke="#63b8ff" points="432.33,-713.52 422,-715.86 431.54,-720.47 432.33,-713.52"/>
</a>
</g>
</g>
<!-- Node11 -->
<g id="Node000011" class="node">
<title>Node11</title>
<g id="a_Node000011"><a xlink:href="class_harlinn_1_1_common_1_1_core_1_1_http_1_1_server_1_1_send_request.html" target="_top" xlink:title=" ">
<polygon fill="white" stroke="#666666" points="642,-700 504,-700 504,-670 642,-670 642,-700"/>
<text text-anchor="start" x="512" y="-688" font-family="Helvetica,sans-Serif" font-size="10.00">Harlinn::Common::Core</text>
<text text-anchor="middle" x="573" y="-677" font-family="Helvetica,sans-Serif" font-size="10.00">::Http::Server::SendRequest</text>
</a>
</g>
</g>
<!-- Node3&#45;&gt;Node11 -->
<g id="edge2241_Node000003_Node000011" class="edge">
<title>Node3&#45;&gt;Node11</title>
<g id="a_edge2241_Node000003_Node000011"><a xlink:title=" ">
<path fill="none" stroke="#63b8ff" d="M431.66,-701.04C454.87,-698.39 480.69,-695.44 503.79,-692.8"/>
<polygon fill="#63b8ff" stroke="#63b8ff" points="431.54,-697.53 422,-702.14 432.33,-704.48 431.54,-697.53"/>
</a>
</g>
</g>
<!-- Node13 -->
<g id="Node000013" class="node">
<title>Node13</title>
<g id="a_Node000013"><a xlink:href="class_harlinn_1_1_common_1_1_core_1_1_http_1_1_server_1_1_wait_for_demand_start_request.html" target="_top" xlink:title=" ">
<polygon fill="white" stroke="#666666" points="648,-651.5 498,-651.5 498,-610.5 648,-610.5 648,-651.5"/>
<text text-anchor="start" x="506" y="-639.5" font-family="Helvetica,sans-Serif" font-size="10.00">Harlinn::Common::Core</text>
<text text-anchor="start" x="506" y="-628.5" font-family="Helvetica,sans-Serif" font-size="10.00">::Http::Server::WaitForDemand</text>
<text text-anchor="middle" x="573" y="-617.5" font-family="Helvetica,sans-Serif" font-size="10.00">StartRequest</text>
</a>
</g>
</g>
<!-- Node3&#45;&gt;Node13 -->
<g id="edge2243_Node000003_Node000013" class="edge">
<title>Node3&#45;&gt;Node13</title>
<g id="a_edge2243_Node000003_Node000013"><a xlink:title=" ">
<path fill="none" stroke="#63b8ff" d="M410.99,-689.36C433.46,-680.49 460.5,-670 485,-661 493.25,-657.97 501.97,-654.86 510.58,-651.84"/>
<polygon fill="#63b8ff" stroke="#63b8ff" points="409.77,-686.08 401.76,-693.02 412.35,-692.59 409.77,-686.08"/>
</a>
</g>
</g>
<!-- Node14 -->
<g id="Node000014" class="node">
<title>Node14</title>
<g id="a_Node000014"><a xlink:href="class_harlinn_1_1_common_1_1_core_1_1_http_1_1_server_1_1_wait_for_disconnect_ex_request.html" target="_top" xlink:title=" ">
<polygon fill="white" stroke="#666666" points="654.5,-592.5 491.5,-592.5 491.5,-551.5 654.5,-551.5 654.5,-592.5"/>
<text text-anchor="start" x="499.5" y="-580.5" font-family="Helvetica,sans-Serif" font-size="10.00">Harlinn::Common::Core</text>
<text text-anchor="start" x="499.5" y="-569.5" font-family="Helvetica,sans-Serif" font-size="10.00">::Http::Server::WaitForDisconnect</text>
<text text-anchor="middle" x="573" y="-558.5" font-family="Helvetica,sans-Serif" font-size="10.00">ExRequest</text>
</a>
</g>
</g>
<!-- Node3&#45;&gt;Node14 -->
<g id="edge2244_Node000003_Node000014" class="edge">
<title>Node3&#45;&gt;Node14</title>
<g id="a_edge2244_Node000003_Node000014"><a xlink:title=" ">
<path fill="none" stroke="#63b8ff" d="M383.47,-685.64C406.55,-661.74 445.28,-624.96 485,-602 490.81,-598.64 497.06,-595.58 503.44,-592.8"/>
<polygon fill="#63b8ff" stroke="#63b8ff" points="381.1,-683.05 376.75,-692.71 386.18,-687.87 381.1,-683.05"/>
</a>
</g>
</g>
<!-- Node15 -->
<g id="Node000015" class="node">
<title>Node15</title>
<g id="a_Node000015"><a xlink:href="class_harlinn_1_1_common_1_1_core_1_1_http_1_1_server_1_1_wait_for_disconnect_request.html" target="_top" xlink:title=" ">
<polygon fill="white" stroke="#666666" points="654.5,-533.5 491.5,-533.5 491.5,-492.5 654.5,-492.5 654.5,-533.5"/>
<text text-anchor="start" x="499.5" y="-521.5" font-family="Helvetica,sans-Serif" font-size="10.00">Harlinn::Common::Core</text>
<text text-anchor="start" x="499.5" y="-510.5" font-family="Helvetica,sans-Serif" font-size="10.00">::Http::Server::WaitForDisconnect</text>
<text text-anchor="middle" x="573" y="-499.5" font-family="Helvetica,sans-Serif" font-size="10.00">Request</text>
</a>
</g>
</g>
<!-- Node3&#45;&gt;Node15 -->
<g id="edge2245_Node000003_Node000015" class="edge">
<title>Node3&#45;&gt;Node15</title>
<g id="a_edge2245_Node000003_Node000015"><a xlink:title=" ">
<path fill="none" stroke="#63b8ff" d="M374.5,-683.55C393.52,-647.32 433.09,-581.05 485,-543 489.64,-539.6 494.69,-536.56 499.96,-533.85"/>
<polygon fill="#63b8ff" stroke="#63b8ff" points="371.4,-681.92 369.95,-692.42 377.63,-685.11 371.4,-681.92"/>
</a>
</g>
</g>
<!-- Node6 -->
<g id="Node000006" class="node">
<title>Node6</title>
<g id="a_Node000006"><a xlink:href="class_harlinn_1_1_common_1_1_core_1_1_http_1_1_server_1_1_internal_1_1_http_receive_body_request.html" target="_top" xlink:title=" ">
<polygon fill="white" stroke="#666666" points="830,-914.5 697,-914.5 697,-873.5 830,-873.5 830,-914.5"/>
<text text-anchor="start" x="705" y="-902.5" font-family="Helvetica,sans-Serif" font-size="10.00">Harlinn::Common::Core</text>
<text text-anchor="start" x="705" y="-891.5" font-family="Helvetica,sans-Serif" font-size="10.00">::Http::Server::Internal</text>
<text text-anchor="middle" x="763.5" y="-880.5" font-family="Helvetica,sans-Serif" font-size="10.00">::HttpReceiveBodyRequest</text>
</a>
</g>
</g>
<!-- Node5&#45;&gt;Node6 -->
<g id="edge2236_Node000005_Node000006" class="edge">
<title>Node5&#45;&gt;Node6</title>
<g id="a_edge2236_Node000005_Node000006"><a xlink:title=" ">
<path fill="none" stroke="#63b8ff" d="M652.36,-894C667.05,-894 682.27,-894 696.54,-894"/>
<polygon fill="#63b8ff" stroke="#63b8ff" points="652.77,-890.5 642.77,-894 652.77,-897.5 652.77,-890.5"/>
</a>
</g>
</g>
<!-- Node9 -->
<g id="Node000009" class="node">
<title>Node9</title>
<g id="a_Node000009"><a xlink:href="class_harlinn_1_1_common_1_1_core_1_1_http_1_1_server_1_1_internal_1_1_http_receive_request.html" target="_top" xlink:title=" ">
<polygon fill="white" stroke="#666666" points="822.5,-801.5 704.5,-801.5 704.5,-760.5 822.5,-760.5 822.5,-801.5"/>
<text text-anchor="start" x="712.5" y="-789.5" font-family="Helvetica,sans-Serif" font-size="10.00">Harlinn::Common::Core</text>
<text text-anchor="start" x="712.5" y="-778.5" font-family="Helvetica,sans-Serif" font-size="10.00">::Http::Server::Internal</text>
<text text-anchor="middle" x="763.5" y="-767.5" font-family="Helvetica,sans-Serif" font-size="10.00">::HttpReceiveRequest</text>
</a>
</g>
</g>
<!-- Node8&#45;&gt;Node9 -->
<g id="edge2239_Node000008_Node000009" class="edge">
<title>Node8&#45;&gt;Node9</title>
<g id="a_edge2239_Node000008_Node000009"><a xlink:title=" ">
<path fill="none" stroke="#63b8ff" d="M659.45,-781C674.58,-781 690.02,-781 704.19,-781"/>
<polygon fill="#63b8ff" stroke="#63b8ff" points="659.47,-777.5 649.47,-781 659.47,-784.5 659.47,-777.5"/>
</a>
</g>
</g>
<!-- Node12 -->
<g id="Node000012" class="node">
<title>Node12</title>
<g id="a_Node000012"><a xlink:href="class_harlinn_1_1_common_1_1_core_1_1_http_1_1_server_1_1_internal_1_1_http_send_request.html" target="_top" xlink:title=" ">
<polygon fill="white" stroke="#666666" points="822.5,-705.5 704.5,-705.5 704.5,-664.5 822.5,-664.5 822.5,-705.5"/>
<text text-anchor="start" x="712.5" y="-693.5" font-family="Helvetica,sans-Serif" font-size="10.00">Harlinn::Common::Core</text>
<text text-anchor="start" x="712.5" y="-682.5" font-family="Helvetica,sans-Serif" font-size="10.00">::Http::Server::Internal</text>
<text text-anchor="middle" x="763.5" y="-671.5" font-family="Helvetica,sans-Serif" font-size="10.00">::HttpSendRequest</text>
</a>
</g>
</g>
<!-- Node11&#45;&gt;Node12 -->
<g id="edge2242_Node000011_Node000012" class="edge">
<title>Node11&#45;&gt;Node12</title>
<g id="a_edge2242_Node000011_Node000012"><a xlink:title=" ">
<path fill="none" stroke="#63b8ff" d="M653.37,-685C670.36,-685 688.02,-685 704.05,-685"/>
<polygon fill="#63b8ff" stroke="#63b8ff" points="653.83,-681.5 643.83,-685 653.83,-688.5 653.83,-681.5"/>
</a>
</g>
</g>
<!-- Node17 -->
<g id="Node000017" class="node">
<title>Node17</title>
<g id="a_Node000017"><a xlink:href="class_harlinn_1_1_common_1_1_core_1_1_i_o_1_1_read_comm_device_request.html" target="_top" xlink:title=" ">
<polygon fill="white" stroke="#666666" points="650,-474 496,-474 496,-444 650,-444 650,-474"/>
<text text-anchor="start" x="504" y="-462" font-family="Helvetica,sans-Serif" font-size="10.00">Harlinn::Common::Core</text>
<text text-anchor="middle" x="573" y="-451" font-family="Helvetica,sans-Serif" font-size="10.00">::IO::ReadCommDeviceRequest</text>
</a>
</g>
</g>
<!-- Node16&#45;&gt;Node17 -->
<g id="edge2247_Node000016_Node000017" class="edge">
<title>Node16&#45;&gt;Node17</title>
<g id="a_edge2247_Node000016_Node000017"><a xlink:title=" ">
<path fill="none" stroke="#63b8ff" d="M409.16,-406.72C431.89,-415.88 459.65,-426.58 485,-435 493.92,-437.96 503.44,-440.86 512.79,-443.55"/>
<polygon fill="#63b8ff" stroke="#63b8ff" points="410.76,-403.59 400.18,-403.07 408.13,-410.07 410.76,-403.59"/>
</a>
</g>
</g>
<!-- Node18 -->
<g id="Node000018" class="node">
<title>Node18</title>
<g id="a_Node000018"><a xlink:href="class_harlinn_1_1_common_1_1_core_1_1_i_o_1_1_wait_event_comm_device_request.html" target="_top" xlink:title=" ">
<polygon fill="white" stroke="#666666" points="661,-426 485,-426 485,-396 661,-396 661,-426"/>
<text text-anchor="start" x="493" y="-414" font-family="Helvetica,sans-Serif" font-size="10.00">Harlinn::Common::Core</text>
<text text-anchor="middle" x="573" y="-403" font-family="Helvetica,sans-Serif" font-size="10.00">::IO::WaitEventCommDeviceRequest</text>
</a>
</g>
</g>
<!-- Node16&#45;&gt;Node18 -->
<g id="edge2248_Node000016_Node000018" class="edge">
<title>Node16&#45;&gt;Node18</title>
<g id="a_edge2248_Node000016_Node000018"><a xlink:title=" ">
<path fill="none" stroke="#63b8ff" d="M438.1,-395.7C453.23,-397.43 469.23,-399.25 484.7,-401.02"/>
<polygon fill="#63b8ff" stroke="#63b8ff" points="438.56,-392.23 428.22,-394.57 437.76,-399.18 438.56,-392.23"/>
</a>
</g>
</g>
<!-- Node19 -->
<g id="Node000019" class="node">
<title>Node19</title>
<g id="a_Node000019"><a xlink:href="class_harlinn_1_1_common_1_1_core_1_1_i_o_1_1_write_comm_device_request.html" target="_top" xlink:title=" ">
<polygon fill="white" stroke="#666666" points="650.5,-378 495.5,-378 495.5,-348 650.5,-348 650.5,-378"/>
<text text-anchor="start" x="503.5" y="-366" font-family="Helvetica,sans-Serif" font-size="10.00">Harlinn::Common::Core</text>
<text text-anchor="middle" x="573" y="-355" font-family="Helvetica,sans-Serif" font-size="10.00">::IO::WriteCommDeviceRequest</text>
</a>
</g>
</g>
<!-- Node16&#45;&gt;Node19 -->
<g id="edge2249_Node000016_Node000019" class="edge">
<title>Node16&#45;&gt;Node19</title>
<g id="a_edge2249_Node000016_Node000019"><a xlink:title=" ">
<path fill="none" stroke="#63b8ff" d="M438.12,-378.3C456.74,-376.17 476.68,-373.89 495.33,-371.76"/>
<polygon fill="#63b8ff" stroke="#63b8ff" points="437.76,-374.82 428.22,-379.43 438.56,-381.77 437.76,-374.82"/>
</a>
</g>
</g>
<!-- Node21 -->
<g id="Node000021" class="node">
<title>Node21</title>
<g id="a_Node000021"><a xlink:href="struct_harlinn_1_1_common_1_1_core_1_1_i_o_1_1_context_1_1_async_overlapped.html" target="_top" xlink:title=" ">
<polygon fill="white" stroke="#666666" points="650,-329.5 496,-329.5 496,-288.5 650,-288.5 650,-329.5"/>
<text text-anchor="start" x="504" y="-317.5" font-family="Helvetica,sans-Serif" font-size="10.00">Harlinn::Common::Core</text>
<text text-anchor="start" x="504" y="-306.5" font-family="Helvetica,sans-Serif" font-size="10.00">::IO::Context::AsyncOverlapped</text>
<text text-anchor="middle" x="573" y="-295.5" font-family="Helvetica,sans-Serif" font-size="10.00">&lt; Function, Args &gt;</text>
</a>
</g>
</g>
<!-- Node20&#45;&gt;Node21 -->
<g id="edge2251_Node000020_Node000021" class="edge">
<title>Node20&#45;&gt;Node21</title>
<g id="a_edge2251_Node000020_Node000021"><a xlink:title=" ">
<path fill="none" stroke="#63b8ff" d="M460.52,-309C472.36,-309 484.3,-309 495.75,-309"/>
<polygon fill="#63b8ff" stroke="#63b8ff" points="460.75,-305.5 450.75,-309 460.75,-312.5 460.75,-305.5"/>
</a>
</g>
</g>
<!-- Node23 -->
<g id="Node000023" class="node">
<title>Node23</title>
<g id="a_Node000023"><a xlink:href="class_harlinn_1_1_common_1_1_core_1_1_i_o_1_1_read_file_request.html" target="_top" xlink:title=" ">
<polygon fill="white" stroke="#666666" points="632,-270 514,-270 514,-240 632,-240 632,-270"/>
<text text-anchor="start" x="522" y="-258" font-family="Helvetica,sans-Serif" font-size="10.00">Harlinn::Common::Core</text>
<text text-anchor="middle" x="573" y="-247" font-family="Helvetica,sans-Serif" font-size="10.00">::IO::ReadFileRequest</text>
</a>
</g>
</g>
<!-- Node22&#45;&gt;Node23 -->
<g id="edge2253_Node000022_Node000023" class="edge">
<title>Node22&#45;&gt;Node23</title>
<g id="a_edge2253_Node000022_Node000023"><a xlink:title=" ">
<path fill="none" stroke="#63b8ff" d="M431.68,-255C458.31,-255 488.37,-255 513.82,-255"/>
<polygon fill="#63b8ff" stroke="#63b8ff" points="432.01,-251.5 422.01,-255 432.01,-258.5 432.01,-251.5"/>
</a>
</g>
</g>
<!-- Node24 -->
<g id="Node000024" class="node">
<title>Node24</title>
<g id="a_Node000024"><a xlink:href="class_harlinn_1_1_common_1_1_core_1_1_i_o_1_1_write_file_request.html" target="_top" xlink:title=" ">
<polygon fill="white" stroke="#666666" points="632,-222 514,-222 514,-192 632,-192 632,-222"/>
<text text-anchor="start" x="522" y="-210" font-family="Helvetica,sans-Serif" font-size="10.00">Harlinn::Common::Core</text>
<text text-anchor="middle" x="573" y="-199" font-family="Helvetica,sans-Serif" font-size="10.00">::IO::WriteFileRequest</text>
</a>
</g>
</g>
<!-- Node22&#45;&gt;Node24 -->
<g id="edge2254_Node000022_Node000024" class="edge">
<title>Node22&#45;&gt;Node24</title>
<g id="a_edge2254_Node000022_Node000024"><a xlink:title=" ">
<path fill="none" stroke="#63b8ff" d="M431.68,-239.07C458.31,-232.99 488.37,-226.12 513.82,-220.3"/>
<polygon fill="#63b8ff" stroke="#63b8ff" points="430.94,-235.65 421.97,-241.29 432.5,-242.48 430.94,-235.65"/>
</a>
</g>
</g>
<!-- Node26 -->
<g id="Node000026" class="node">
<title>Node26</title>
<g id="a_Node000026"><a xlink:href="class_harlinn_1_1_common_1_1_core_1_1_i_o_1_1_connect_pipe_request.html" target="_top" xlink:title=" ">
<polygon fill="white" stroke="#666666" points="638,-174 508,-174 508,-144 638,-144 638,-174"/>
<text text-anchor="start" x="516" y="-162" font-family="Helvetica,sans-Serif" font-size="10.00">Harlinn::Common::Core</text>
<text text-anchor="middle" x="573" y="-151" font-family="Helvetica,sans-Serif" font-size="10.00">::IO::ConnectPipeRequest</text>
</a>
</g>
</g>
<!-- Node25&#45;&gt;Node26 -->
<g id="edge2256_Node000025_Node000026" class="edge">
<title>Node25&#45;&gt;Node26</title>
<g id="a_edge2256_Node000025_Node000026"><a xlink:title=" ">
<path fill="none" stroke="#63b8ff" d="M431.53,-126.89C456.04,-132.5 483.48,-138.77 507.55,-144.27"/>
<polygon fill="#63b8ff" stroke="#63b8ff" points="432.5,-123.52 421.97,-124.71 430.94,-130.35 432.5,-123.52"/>
</a>
</g>
</g>
<!-- Node27 -->
<g id="Node000027" class="node">
<title>Node27</title>
<g id="a_Node000027"><a xlink:href="class_harlinn_1_1_common_1_1_core_1_1_i_o_1_1_read_pipe_request.html" target="_top" xlink:title=" ">
<polygon fill="white" stroke="#666666" points="632,-126 514,-126 514,-96 632,-96 632,-126"/>
<text text-anchor="start" x="522" y="-114" font-family="Helvetica,sans-Serif" font-size="10.00">Harlinn::Common::Core</text>
<text text-anchor="middle" x="573" y="-103" font-family="Helvetica,sans-Serif" font-size="10.00">::IO::ReadPipeRequest</text>
</a>
</g>
</g>
<!-- Node25&#45;&gt;Node27 -->
<g id="edge2257_Node000025_Node000027" class="edge">
<title>Node25&#45;&gt;Node27</title>
<g id="a_edge2257_Node000025_Node000027"><a xlink:title=" ">
<path fill="none" stroke="#63b8ff" d="M431.68,-111C458.31,-111 488.37,-111 513.82,-111"/>
<polygon fill="#63b8ff" stroke="#63b8ff" points="432.01,-107.5 422.01,-111 432.01,-114.5 432.01,-107.5"/>
</a>
</g>
</g>
<!-- Node28 -->
<g id="Node000028" class="node">
<title>Node28</title>
<g id="a_Node000028"><a xlink:href="class_harlinn_1_1_common_1_1_core_1_1_i_o_1_1_transact_pipe_request.html" target="_top" xlink:title=" ">
<polygon fill="white" stroke="#666666" points="638.5,-78 507.5,-78 507.5,-48 638.5,-48 638.5,-78"/>
<text text-anchor="start" x="515.5" y="-66" font-family="Helvetica,sans-Serif" font-size="10.00">Harlinn::Common::Core</text>
<text text-anchor="middle" x="573" y="-55" font-family="Helvetica,sans-Serif" font-size="10.00">::IO::TransactPipeRequest</text>
</a>
</g>
</g>
<!-- Node25&#45;&gt;Node28 -->
<g id="edge2258_Node000025_Node000028" class="edge">
<title>Node25&#45;&gt;Node28</title>
<g id="a_edge2258_Node000025_Node000028"><a xlink:title=" ">
<path fill="none" stroke="#63b8ff" d="M431.48,-95.12C455.88,-89.54 483.18,-83.3 507.18,-77.82"/>
<polygon fill="#63b8ff" stroke="#63b8ff" points="430.94,-91.65 421.97,-97.29 432.5,-98.48 430.94,-91.65"/>
</a>
</g>
</g>
<!-- Node29 -->
<g id="Node000029" class="node">
<title>Node29</title>
<g id="a_Node000029"><a xlink:href="class_harlinn_1_1_common_1_1_core_1_1_i_o_1_1_write_pipe_request.html" target="_top" xlink:title=" ">
<polygon fill="white" stroke="#666666" points="632,-30 514,-30 514,0 632,0 632,-30"/>
<text text-anchor="start" x="522" y="-18" font-family="Helvetica,sans-Serif" font-size="10.00">Harlinn::Common::Core</text>
<text text-anchor="middle" x="573" y="-7" font-family="Helvetica,sans-Serif" font-size="10.00">::IO::WritePipeRequest</text>
</a>
</g>
</g>
<!-- Node25&#45;&gt;Node29 -->
<g id="edge2259_Node000025_Node000029" class="edge">
<title>Node25&#45;&gt;Node29</title>
<g id="a_edge2259_Node000025_Node000029"><a xlink:title=" ">
<path fill="none" stroke="#63b8ff" d="M393.55,-89.43C417.72,-73.69 452.34,-52.78 485,-39 494.09,-35.16 503.98,-31.76 513.72,-28.81"/>
<polygon fill="#63b8ff" stroke="#63b8ff" points="391.87,-86.34 385.46,-94.77 395.73,-92.18 391.87,-86.34"/>
</a>
</g>
</g>
</g>
</svg>
