<?xml version="1.0" encoding="UTF-8" standalone="no"?>
<!DOCTYPE svg PUBLIC "-//W3C//DTD SVG 1.1//EN"
 "http://www.w3.org/Graphics/SVG/1.1/DTD/svg11.dtd">
<!-- Generated by graphviz version 7.0.1 (20221109.1506)
 -->
<!-- Title: Graphical Class Hierarchy Pages: 1 -->
<svg width="1072pt" height="735pt"
 viewBox="0.00 0.00 1072.00 735.00" xmlns="http://www.w3.org/2000/svg" xmlns:xlink="http://www.w3.org/1999/xlink">
<g id="graph0" class="graph" transform="scale(1 1) rotate(0) translate(4 731)">
<title>Graphical Class Hierarchy</title>
<!-- Node0 -->
<g id="Node000000" class="node">
<title>Node0</title>
<g id="a_Node000000"><a xlink:href="class_harlinn_1_1_windows_1_1_control.html" target="_top" xlink:title=" ">
<polygon fill="white" stroke="#666666" points="129,-331 0,-331 0,-312 129,-312 129,-331"/>
<text text-anchor="middle" x="64.5" y="-319" font-family="Helvetica,sans-Serif" font-size="10.00">Harlinn::Windows::Control</text>
</a>
</g>
</g>
<!-- Node1 -->
<g id="Node000001" class="node">
<title>Node1</title>
<g id="a_Node000001"><a xlink:href="class_harlinn_1_1_windows_1_1_button_base.html" target="_top" xlink:title=" ">
<polygon fill="white" stroke="#666666" points="321.5,-596 172.5,-596 172.5,-577 321.5,-577 321.5,-596"/>
<text text-anchor="middle" x="247" y="-584" font-family="Helvetica,sans-Serif" font-size="10.00">Harlinn::Windows::ButtonBase</text>
</a>
</g>
</g>
<!-- Node0&#45;&gt;Node1 -->
<g id="edge1945_Node000000_Node000001" class="edge">
<title>Node0&#45;&gt;Node1</title>
<g id="a_edge1945_Node000000_Node000001"><a xlink:title=" ">
<path fill="none" stroke="#63b8ff" d="M67.6,-342.62C73.53,-390.42 94.82,-507.37 165,-567.5 169.28,-571.17 174.13,-574.15 179.29,-576.59"/>
<polygon fill="#63b8ff" stroke="#63b8ff" points="71.1,-342.37 66.5,-332.82 64.14,-343.15 71.1,-342.37"/>
</a>
</g>
</g>
<!-- Node9 -->
<g id="Node000009" class="node">
<title>Node9</title>
<g id="a_Node000009"><a xlink:href="class_harlinn_1_1_windows_1_1_date_time_picker.html" target="_top" xlink:title=" ">
<polygon fill="white" stroke="#666666" points="317,-558.5 177,-558.5 177,-528.5 317,-528.5 317,-558.5"/>
<text text-anchor="start" x="185" y="-546.5" font-family="Helvetica,sans-Serif" font-size="10.00">Harlinn::Windows::DateTime</text>
<text text-anchor="middle" x="247" y="-535.5" font-family="Helvetica,sans-Serif" font-size="10.00">Picker</text>
</a>
</g>
</g>
<!-- Node0&#45;&gt;Node9 -->
<g id="edge1953_Node000000_Node000009" class="edge">
<title>Node0&#45;&gt;Node9</title>
<g id="a_edge1953_Node000000_Node000009"><a xlink:title=" ">
<path fill="none" stroke="#63b8ff" d="M70.18,-342.59C80.27,-383.04 107.89,-471.73 165,-519.5 168.94,-522.79 173.31,-525.64 177.93,-528.09"/>
<polygon fill="#63b8ff" stroke="#63b8ff" points="73.61,-341.87 67.9,-332.95 66.8,-343.48 73.61,-341.87"/>
</a>
</g>
</g>
<!-- Node10 -->
<g id="Node000010" class="node">
<title>Node10</title>
<g id="a_Node000010"><a xlink:href="class_harlinn_1_1_windows_1_1_edit_base.html" target="_top" xlink:title=" ">
<polygon fill="white" stroke="#666666" points="316,-510 178,-510 178,-491 316,-491 316,-510"/>
<text text-anchor="middle" x="247" y="-498" font-family="Helvetica,sans-Serif" font-size="10.00">Harlinn::Windows::EditBase</text>
</a>
</g>
</g>
<!-- Node0&#45;&gt;Node10 -->
<g id="edge1954_Node000000_Node000010" class="edge">
<title>Node0&#45;&gt;Node10</title>
<g id="a_edge1954_Node000000_Node000010"><a xlink:title=" ">
<path fill="none" stroke="#63b8ff" d="M72.2,-342.05C84.64,-376.77 114.69,-446.74 165,-482.5 169.58,-485.75 174.64,-488.44 179.94,-490.64"/>
<polygon fill="#63b8ff" stroke="#63b8ff" points="75.58,-341.11 69.03,-332.79 68.96,-343.38 75.58,-341.11"/>
</a>
</g>
</g>
<!-- Node15 -->
<g id="Node000015" class="node">
<title>Node15</title>
<g id="a_Node000015"><a xlink:href="class_harlinn_1_1_windows_1_1_group_box.html" target="_top" xlink:title=" ">
<polygon fill="white" stroke="#666666" points="318,-473 176,-473 176,-454 318,-454 318,-473"/>
<text text-anchor="middle" x="247" y="-461" font-family="Helvetica,sans-Serif" font-size="10.00">Harlinn::Windows::GroupBox</text>
</a>
</g>
</g>
<!-- Node0&#45;&gt;Node15 -->
<g id="edge1959_Node000000_Node000015" class="edge">
<title>Node0&#45;&gt;Node15</title>
<g id="a_edge1959_Node000000_Node000015"><a xlink:title=" ">
<path fill="none" stroke="#63b8ff" d="M75.94,-341.36C91.51,-368.96 123.49,-418.45 165,-444.5 170.87,-448.19 177.39,-451.16 184.11,-453.55"/>
<polygon fill="#63b8ff" stroke="#63b8ff" points="79.05,-339.75 71.18,-332.65 72.9,-343.1 79.05,-339.75"/>
</a>
</g>
</g>
<!-- Node16 -->
<g id="Node000016" class="node">
<title>Node16</title>
<g id="a_Node000016"><a xlink:href="class_harlinn_1_1_windows_1_1_header_control.html" target="_top" xlink:title=" ">
<polygon fill="white" stroke="#666666" points="311.5,-435.5 182.5,-435.5 182.5,-405.5 311.5,-405.5 311.5,-435.5"/>
<text text-anchor="start" x="190.5" y="-423.5" font-family="Helvetica,sans-Serif" font-size="10.00">Harlinn::Windows::Header</text>
<text text-anchor="middle" x="247" y="-412.5" font-family="Helvetica,sans-Serif" font-size="10.00">Control</text>
</a>
</g>
</g>
<!-- Node0&#45;&gt;Node16 -->
<g id="edge1960_Node000000_Node000016" class="edge">
<title>Node0&#45;&gt;Node16</title>
<g id="a_edge1960_Node000000_Node000016"><a xlink:title=" ">
<path fill="none" stroke="#63b8ff" d="M84.31,-338.98C103.35,-355.84 134.29,-381.02 165,-396.5 171.42,-399.74 178.35,-402.61 185.35,-405.15"/>
<polygon fill="#63b8ff" stroke="#63b8ff" points="86.86,-336.57 77.09,-332.46 82.17,-341.76 86.86,-336.57"/>
</a>
</g>
</g>
<!-- Node17 -->
<g id="Node000017" class="node">
<title>Node17</title>
<g id="a_Node000017"><a xlink:href="class_harlinn_1_1_windows_1_1_label.html" target="_top" xlink:title=" ">
<polygon fill="white" stroke="#666666" points="308,-387 186,-387 186,-368 308,-368 308,-387"/>
<text text-anchor="middle" x="247" y="-375" font-family="Helvetica,sans-Serif" font-size="10.00">Harlinn::Windows::Label</text>
</a>
</g>
</g>
<!-- Node0&#45;&gt;Node17 -->
<g id="edge1961_Node000000_Node000017" class="edge">
<title>Node0&#45;&gt;Node17</title>
<g id="a_edge1961_Node000000_Node000017"><a xlink:title=" ">
<path fill="none" stroke="#63b8ff" d="M99.05,-335.72C118.15,-343.46 142.65,-352.79 165,-359.5 174.93,-362.48 185.69,-365.21 196.01,-367.59"/>
<polygon fill="#63b8ff" stroke="#63b8ff" points="100.47,-332.52 89.89,-331.96 97.81,-338.99 100.47,-332.52"/>
</a>
</g>
</g>
<!-- Node19 -->
<g id="Node000019" class="node">
<title>Node19</title>
<g id="a_Node000019"><a xlink:href="class_harlinn_1_1_windows_1_1_list_control.html" target="_top" xlink:title=" ">
<polygon fill="white" stroke="#666666" points="319.5,-350 174.5,-350 174.5,-331 319.5,-331 319.5,-350"/>
<text text-anchor="middle" x="247" y="-338" font-family="Helvetica,sans-Serif" font-size="10.00">Harlinn::Windows::ListControl</text>
</a>
</g>
</g>
<!-- Node0&#45;&gt;Node19 -->
<g id="edge1963_Node000000_Node000019" class="edge">
<title>Node0&#45;&gt;Node19</title>
<g id="a_edge1963_Node000000_Node000019"><a xlink:title=" ">
<path fill="none" stroke="#63b8ff" d="M140.78,-329.42C151.84,-330.59 163.21,-331.79 174.2,-332.94"/>
<polygon fill="#63b8ff" stroke="#63b8ff" points="141.21,-325.95 130.9,-328.38 140.48,-332.91 141.21,-325.95"/>
</a>
</g>
</g>
<!-- Node23 -->
<g id="Node000023" class="node">
<title>Node23</title>
<g id="a_Node000023"><a xlink:href="class_harlinn_1_1_windows_1_1_list_view.html" target="_top" xlink:title=" ">
<polygon fill="white" stroke="#666666" points="314.5,-313 179.5,-313 179.5,-294 314.5,-294 314.5,-313"/>
<text text-anchor="middle" x="247" y="-301" font-family="Helvetica,sans-Serif" font-size="10.00">Harlinn::Windows::ListView</text>
</a>
</g>
</g>
<!-- Node0&#45;&gt;Node23 -->
<g id="edge1967_Node000000_Node000023" class="edge">
<title>Node0&#45;&gt;Node23</title>
<g id="a_edge1967_Node000000_Node000023"><a xlink:title=" ">
<path fill="none" stroke="#63b8ff" d="M140.51,-314.02C153.32,-312.74 166.56,-311.42 179.14,-310.17"/>
<polygon fill="#63b8ff" stroke="#63b8ff" points="140.5,-310.5 130.9,-314.98 141.2,-317.47 140.5,-310.5"/>
</a>
</g>
</g>
<!-- Node24 -->
<g id="Node000024" class="node">
<title>Node24</title>
<g id="a_Node000024"><a xlink:href="class_harlinn_1_1_windows_1_1_month_calendar.html" target="_top" xlink:title=" ">
<polygon fill="white" stroke="#666666" points="329,-276 165,-276 165,-257 329,-257 329,-276"/>
<text text-anchor="middle" x="247" y="-264" font-family="Helvetica,sans-Serif" font-size="10.00">Harlinn::Windows::MonthCalendar</text>
</a>
</g>
</g>
<!-- Node0&#45;&gt;Node24 -->
<g id="edge1968_Node000000_Node000024" class="edge">
<title>Node0&#45;&gt;Node24</title>
<g id="a_edge1968_Node000000_Node000024"><a xlink:title=" ">
<path fill="none" stroke="#63b8ff" d="M101.33,-307.39C120.11,-300.28 143.61,-291.86 165,-285.5 176.08,-282.21 188.14,-279.12 199.49,-276.43"/>
<polygon fill="#63b8ff" stroke="#63b8ff" points="100.09,-304.12 92,-310.96 102.59,-310.66 100.09,-304.12"/>
</a>
</g>
</g>
<!-- Node25 -->
<g id="Node000025" class="node">
<title>Node25</title>
<g id="a_Node000025"><a xlink:href="class_harlinn_1_1_windows_1_1_scroll_bar.html" target="_top" xlink:title=" ">
<polygon fill="white" stroke="#666666" points="316,-239 178,-239 178,-220 316,-220 316,-239"/>
<text text-anchor="middle" x="247" y="-227" font-family="Helvetica,sans-Serif" font-size="10.00">Harlinn::Windows::ScrollBar</text>
</a>
</g>
</g>
<!-- Node0&#45;&gt;Node25 -->
<g id="edge1969_Node000000_Node000025" class="edge">
<title>Node0&#45;&gt;Node25</title>
<g id="a_edge1969_Node000000_Node000025"><a xlink:title=" ">
<path fill="none" stroke="#63b8ff" d="M84.47,-303.91C103.46,-287.23 134.2,-262.69 165,-248.5 172.87,-244.87 181.5,-241.9 190.11,-239.48"/>
<polygon fill="#63b8ff" stroke="#63b8ff" points="82.13,-301.3 77.03,-310.58 86.81,-306.51 82.13,-301.3"/>
</a>
</g>
</g>
<!-- Node28 -->
<g id="Node000028" class="node">
<title>Node28</title>
<g id="a_Node000028"><a xlink:href="class_harlinn_1_1_windows_1_1_scrollable_control.html" target="_top" xlink:title=" ">
<polygon fill="white" stroke="#666666" points="317.5,-201.5 176.5,-201.5 176.5,-171.5 317.5,-171.5 317.5,-201.5"/>
<text text-anchor="start" x="184.5" y="-189.5" font-family="Helvetica,sans-Serif" font-size="10.00">Harlinn::Windows::Scrollable</text>
<text text-anchor="middle" x="247" y="-178.5" font-family="Helvetica,sans-Serif" font-size="10.00">Control</text>
</a>
</g>
</g>
<!-- Node0&#45;&gt;Node28 -->
<g id="edge1972_Node000000_Node000028" class="edge">
<title>Node0&#45;&gt;Node28</title>
<g id="a_edge1972_Node000000_Node000028"><a xlink:title=" ">
<path fill="none" stroke="#63b8ff" d="M77.92,-302.34C94.78,-277.81 127.19,-235.6 165,-211.5 170.83,-207.78 177.25,-204.59 183.85,-201.85"/>
<polygon fill="#63b8ff" stroke="#63b8ff" points="75.17,-300.15 72.52,-310.41 80.99,-304.04 75.17,-300.15"/>
</a>
</g>
</g>
<!-- Node34 -->
<g id="Node000034" class="node">
<title>Node34</title>
<g id="a_Node000034"><a xlink:href="class_harlinn_1_1_windows_1_1_skia_control.html" target="_top" xlink:title=" ">
<polygon fill="white" stroke="#666666" points="321.5,-153 172.5,-153 172.5,-134 321.5,-134 321.5,-153"/>
<text text-anchor="middle" x="247" y="-141" font-family="Helvetica,sans-Serif" font-size="10.00">Harlinn::Windows::SkiaControl</text>
</a>
</g>
</g>
<!-- Node0&#45;&gt;Node34 -->
<g id="edge1977_Node000000_Node000034" class="edge">
<title>Node0&#45;&gt;Node34</title>
<g id="a_edge1977_Node000000_Node000034"><a xlink:title=" ">
<path fill="none" stroke="#63b8ff" d="M72.32,-301.26C84.94,-267.06 115.25,-198.09 165,-162.5 170.17,-158.8 175.95,-155.81 181.99,-153.4"/>
<polygon fill="#63b8ff" stroke="#63b8ff" points="69.14,-299.78 69.1,-310.37 75.74,-302.11 69.14,-299.78"/>
</a>
</g>
</g>
<!-- Node35 -->
<g id="Node000035" class="node">
<title>Node35</title>
<g id="a_Node000035"><a xlink:href="class_harlinn_1_1_windows_1_1_timer_1_1_timer_control.html" target="_top" xlink:title=" ">
<polygon fill="white" stroke="#666666" points="308,-115.5 186,-115.5 186,-85.5 308,-85.5 308,-115.5"/>
<text text-anchor="start" x="194" y="-103.5" font-family="Helvetica,sans-Serif" font-size="10.00">Harlinn::Windows::Timer</text>
<text text-anchor="middle" x="247" y="-92.5" font-family="Helvetica,sans-Serif" font-size="10.00">::TimerControl</text>
</a>
</g>
</g>
<!-- Node0&#45;&gt;Node35 -->
<g id="edge1978_Node000000_Node000035" class="edge">
<title>Node0&#45;&gt;Node35</title>
<g id="a_edge1978_Node000000_Node000035"><a xlink:title=" ">
<path fill="none" stroke="#63b8ff" d="M70.3,-300.68C80.58,-260.73 108.53,-173.09 165,-125.5 171.08,-120.38 178.19,-116.31 185.64,-113.07"/>
<polygon fill="#63b8ff" stroke="#63b8ff" points="66.95,-299.64 67.97,-310.18 73.75,-301.3 66.95,-299.64"/>
</a>
</g>
</g>
<!-- Node36 -->
<g id="Node000036" class="node">
<title>Node36</title>
<g id="a_Node000036"><a xlink:href="class_harlinn_1_1_windows_1_1_tree_edit_base.html" target="_top" xlink:title=" ">
<polygon fill="white" stroke="#666666" points="325.5,-19 168.5,-19 168.5,0 325.5,0 325.5,-19"/>
<text text-anchor="middle" x="247" y="-7" font-family="Helvetica,sans-Serif" font-size="10.00">Harlinn::Windows::TreeEditBase</text>
</a>
</g>
</g>
<!-- Node0&#45;&gt;Node36 -->
<g id="edge1979_Node000000_Node000036" class="edge">
<title>Node0&#45;&gt;Node36</title>
<g id="a_edge1979_Node000000_Node000036"><a xlink:title=" ">
<path fill="none" stroke="#63b8ff" d="M66.06,-300.13C68.69,-246 83.41,-102.54 165,-28.5 169.06,-24.81 173.71,-21.8 178.67,-19.34"/>
<polygon fill="#63b8ff" stroke="#63b8ff" points="62.56,-299.97 65.68,-310.1 69.56,-300.24 62.56,-299.97"/>
</a>
</g>
</g>
<!-- Node2 -->
<g id="Node000002" class="node">
<title>Node2</title>
<g id="a_Node000002"><a xlink:href="class_harlinn_1_1_windows_1_1_push_button_base.html" target="_top" xlink:title=" ">
<polygon fill="white" stroke="#666666" points="537,-660 365,-660 365,-641 537,-641 537,-660"/>
<text text-anchor="middle" x="451" y="-648" font-family="Helvetica,sans-Serif" font-size="10.00">Harlinn::Windows::PushButtonBase</text>
</a>
</g>
</g>
<!-- Node1&#45;&gt;Node2 -->
<g id="edge1946_Node000001_Node000002" class="edge">
<title>Node1&#45;&gt;Node2</title>
<g id="a_edge1946_Node000001_Node000002"><a xlink:title=" ">
<path fill="none" stroke="#63b8ff" d="M290.37,-599.92C328.68,-612.06 384.21,-629.66 418.66,-640.57"/>
<polygon fill="#63b8ff" stroke="#63b8ff" points="291.6,-596.64 281.01,-596.96 289.48,-603.31 291.6,-596.64"/>
</a>
</g>
</g>
<!-- Node6 -->
<g id="Node000006" class="node">
<title>Node6</title>
<g id="a_Node000006"><a xlink:href="class_harlinn_1_1_windows_1_1_state_button.html" target="_top" xlink:title=" ">
<polygon fill="white" stroke="#666666" points="526,-593 376,-593 376,-574 526,-574 526,-593"/>
<text text-anchor="middle" x="451" y="-581" font-family="Helvetica,sans-Serif" font-size="10.00">Harlinn::Windows::StateButton</text>
</a>
</g>
</g>
<!-- Node1&#45;&gt;Node6 -->
<g id="edge1950_Node000001_Node000006" class="edge">
<title>Node1&#45;&gt;Node6</title>
<g id="a_edge1950_Node000001_Node000006"><a xlink:title=" ">
<path fill="none" stroke="#63b8ff" d="M333.05,-585.24C347.23,-585.03 361.85,-584.81 375.74,-584.6"/>
<polygon fill="#63b8ff" stroke="#63b8ff" points="333.24,-581.73 323.3,-585.38 333.35,-588.73 333.24,-581.73"/>
</a>
</g>
</g>
<!-- Node3 -->
<g id="Node000003" class="node">
<title>Node3</title>
<g id="a_Node000003"><a xlink:href="class_harlinn_1_1_windows_1_1_button.html" target="_top" xlink:title=" ">
<polygon fill="white" stroke="#666666" points="712.5,-727 585.5,-727 585.5,-708 712.5,-708 712.5,-727"/>
<text text-anchor="middle" x="649" y="-715" font-family="Helvetica,sans-Serif" font-size="10.00">Harlinn::Windows::Button</text>
</a>
</g>
</g>
<!-- Node2&#45;&gt;Node3 -->
<g id="edge1947_Node000002_Node000003" class="edge">
<title>Node2&#45;&gt;Node3</title>
<g id="a_edge1947_Node000002_Node000003"><a xlink:title=" ">
<path fill="none" stroke="#63b8ff" d="M484.78,-664.84C508.89,-675.06 542.61,-688.67 573,-698.5 583.22,-701.81 594.38,-704.9 604.89,-707.6"/>
<polygon fill="#63b8ff" stroke="#63b8ff" points="486.39,-661.72 475.82,-661.01 483.64,-668.16 486.39,-661.72"/>
</a>
</g>
</g>
<!-- Node4 -->
<g id="Node000004" class="node">
<title>Node4</title>
<g id="a_Node000004"><a xlink:href="class_harlinn_1_1_windows_1_1_command_button.html" target="_top" xlink:title=" ">
<polygon fill="white" stroke="#666666" points="720.5,-689.5 577.5,-689.5 577.5,-659.5 720.5,-659.5 720.5,-689.5"/>
<text text-anchor="start" x="585.5" y="-677.5" font-family="Helvetica,sans-Serif" font-size="10.00">Harlinn::Windows::Command</text>
<text text-anchor="middle" x="649" y="-666.5" font-family="Helvetica,sans-Serif" font-size="10.00">Button</text>
</a>
</g>
</g>
<!-- Node2&#45;&gt;Node4 -->
<g id="edge1948_Node000002_Node000004" class="edge">
<title>Node2&#45;&gt;Node4</title>
<g id="a_edge1948_Node000002_Node000004"><a xlink:title=" ">
<path fill="none" stroke="#63b8ff" d="M544.72,-661.85C555.62,-663.19 566.61,-664.53 577.14,-665.82"/>
<polygon fill="#63b8ff" stroke="#63b8ff" points="545.27,-658.4 534.92,-660.65 544.42,-665.34 545.27,-658.4"/>
</a>
</g>
</g>
<!-- Node5 -->
<g id="Node000005" class="node">
<title>Node5</title>
<g id="a_Node000005"><a xlink:href="class_harlinn_1_1_windows_1_1_drop_down_button.html" target="_top" xlink:title=" ">
<polygon fill="white" stroke="#666666" points="720.5,-641.5 577.5,-641.5 577.5,-611.5 720.5,-611.5 720.5,-641.5"/>
<text text-anchor="start" x="585.5" y="-629.5" font-family="Helvetica,sans-Serif" font-size="10.00">Harlinn::Windows::DropDown</text>
<text text-anchor="middle" x="649" y="-618.5" font-family="Helvetica,sans-Serif" font-size="10.00">Button</text>
</a>
</g>
</g>
<!-- Node2&#45;&gt;Node5 -->
<g id="edge1949_Node000002_Node000005" class="edge">
<title>Node2&#45;&gt;Node5</title>
<g id="a_edge1949_Node000002_Node000005"><a xlink:title=" ">
<path fill="none" stroke="#63b8ff" d="M544.72,-639.15C555.62,-637.81 566.61,-636.47 577.14,-635.18"/>
<polygon fill="#63b8ff" stroke="#63b8ff" points="544.42,-635.66 534.92,-640.35 545.27,-642.6 544.42,-635.66"/>
</a>
</g>
</g>
<!-- Node7 -->
<g id="Node000007" class="node">
<title>Node7</title>
<g id="a_Node000007"><a xlink:href="class_harlinn_1_1_windows_1_1_check_box.html" target="_top" xlink:title=" ">
<polygon fill="white" stroke="#666666" points="720.5,-593 577.5,-593 577.5,-574 720.5,-574 720.5,-593"/>
<text text-anchor="middle" x="649" y="-581" font-family="Helvetica,sans-Serif" font-size="10.00">Harlinn::Windows::CheckBox</text>
</a>
</g>
</g>
<!-- Node6&#45;&gt;Node7 -->
<g id="edge1951_Node000006_Node000007" class="edge">
<title>Node6&#45;&gt;Node7</title>
<g id="a_edge1951_Node000006_Node000007"><a xlink:title=" ">
<path fill="none" stroke="#63b8ff" d="M537.84,-583.5C551,-583.5 564.45,-583.5 577.23,-583.5"/>
<polygon fill="#63b8ff" stroke="#63b8ff" points="537.89,-580 527.89,-583.5 537.89,-587 537.89,-580"/>
</a>
</g>
</g>
<!-- Node8 -->
<g id="Node000008" class="node">
<title>Node8</title>
<g id="a_Node000008"><a xlink:href="class_harlinn_1_1_windows_1_1_radio_button.html" target="_top" xlink:title=" ">
<polygon fill="white" stroke="#666666" points="725,-556 573,-556 573,-537 725,-537 725,-556"/>
<text text-anchor="middle" x="649" y="-544" font-family="Helvetica,sans-Serif" font-size="10.00">Harlinn::Windows::RadioButton</text>
</a>
</g>
</g>
<!-- Node6&#45;&gt;Node8 -->
<g id="edge1952_Node000006_Node000008" class="edge">
<title>Node6&#45;&gt;Node8</title>
<g id="a_edge1952_Node000006_Node000008"><a xlink:title=" ">
<path fill="none" stroke="#63b8ff" d="M515.9,-571.44C541.53,-566.6 570.72,-561.09 595.12,-556.48"/>
<polygon fill="#63b8ff" stroke="#63b8ff" points="515.45,-567.96 506.27,-573.26 516.75,-574.84 515.45,-567.96"/>
</a>
</g>
</g>
<!-- Node11 -->
<g id="Node000011" class="node">
<title>Node11</title>
<g id="a_Node000011"><a xlink:href="class_harlinn_1_1_windows_1_1_text_edit_base.html" target="_top" xlink:title=" ">
<polygon fill="white" stroke="#666666" points="529.5,-510 372.5,-510 372.5,-491 529.5,-491 529.5,-510"/>
<text text-anchor="middle" x="451" y="-498" font-family="Helvetica,sans-Serif" font-size="10.00">Harlinn::Windows::TextEditBase</text>
</a>
</g>
</g>
<!-- Node10&#45;&gt;Node11 -->
<g id="edge1955_Node000010_Node000011" class="edge">
<title>Node10&#45;&gt;Node11</title>
<g id="a_edge1955_Node000010_Node000011"><a xlink:title=" ">
<path fill="none" stroke="#63b8ff" d="M327.51,-500.5C342.24,-500.5 357.61,-500.5 372.29,-500.5"/>
<polygon fill="#63b8ff" stroke="#63b8ff" points="327.9,-497 317.9,-500.5 327.9,-504 327.9,-497"/>
</a>
</g>
</g>
<!-- Node12 -->
<g id="Node000012" class="node">
<title>Node12</title>
<g id="a_Node000012"><a xlink:href="class_harlinn_1_1_windows_1_1_hot_key.html" target="_top" xlink:title=" ">
<polygon fill="white" stroke="#666666" points="714.5,-513 583.5,-513 583.5,-494 714.5,-494 714.5,-513"/>
<text text-anchor="middle" x="649" y="-501" font-family="Helvetica,sans-Serif" font-size="10.00">Harlinn::Windows::HotKey</text>
</a>
</g>
</g>
<!-- Node11&#45;&gt;Node12 -->
<g id="edge1956_Node000011_Node000012" class="edge">
<title>Node11&#45;&gt;Node12</title>
<g id="a_edge1956_Node000011_Node000012"><a xlink:title=" ">
<path fill="none" stroke="#63b8ff" d="M541.07,-501.86C555.29,-502.08 569.77,-502.3 583.28,-502.51"/>
<polygon fill="#63b8ff" stroke="#63b8ff" points="541.31,-498.37 531.26,-501.71 541.2,-505.37 541.31,-498.37"/>
</a>
</g>
</g>
<!-- Node13 -->
<g id="Node000013" class="node">
<title>Node13</title>
<g id="a_Node000013"><a xlink:href="class_harlinn_1_1_windows_1_1_text_edit.html" target="_top" xlink:title=" ">
<polygon fill="white" stroke="#666666" points="716,-476 582,-476 582,-457 716,-457 716,-476"/>
<text text-anchor="middle" x="649" y="-464" font-family="Helvetica,sans-Serif" font-size="10.00">Harlinn::Windows::TextEdit</text>
</a>
</g>
</g>
<!-- Node11&#45;&gt;Node13 -->
<g id="edge1957_Node000011_Node000013" class="edge">
<title>Node11&#45;&gt;Node13</title>
<g id="a_edge1957_Node000011_Node000013"><a xlink:title=" ">
<path fill="none" stroke="#63b8ff" d="M520.8,-488.56C543.58,-484.61 568.68,-480.26 590.52,-476.47"/>
<polygon fill="#63b8ff" stroke="#63b8ff" points="520.23,-485.11 510.97,-490.27 521.42,-492.01 520.23,-485.11"/>
</a>
</g>
</g>
<!-- Node14 -->
<g id="Node000014" class="node">
<title>Node14</title>
<g id="a_Node000014"><a xlink:href="class_harlinn_1_1_windows_1_1_memo_edit.html" target="_top" xlink:title=" ">
<polygon fill="white" stroke="#666666" points="904,-476 761,-476 761,-457 904,-457 904,-476"/>
<text text-anchor="middle" x="832.5" y="-464" font-family="Helvetica,sans-Serif" font-size="10.00">Harlinn::Windows::MemoEdit</text>
</a>
</g>
</g>
<!-- Node13&#45;&gt;Node14 -->
<g id="edge1958_Node000013_Node000014" class="edge">
<title>Node13&#45;&gt;Node14</title>
<g id="a_edge1958_Node000013_Node000014"><a xlink:title=" ">
<path fill="none" stroke="#63b8ff" d="M727.65,-466.5C738.66,-466.5 749.93,-466.5 760.8,-466.5"/>
<polygon fill="#63b8ff" stroke="#63b8ff" points="727.81,-463 717.81,-466.5 727.81,-470 727.81,-463"/>
</a>
</g>
</g>
<!-- Node18 -->
<g id="Node000018" class="node">
<title>Node18</title>
<g id="a_Node000018"><a xlink:href="class_harlinn_1_1_windows_1_1_link_label.html" target="_top" xlink:title=" ">
<polygon fill="white" stroke="#666666" points="521,-387 381,-387 381,-368 521,-368 521,-387"/>
<text text-anchor="middle" x="451" y="-375" font-family="Helvetica,sans-Serif" font-size="10.00">Harlinn::Windows::LinkLabel</text>
</a>
</g>
</g>
<!-- Node17&#45;&gt;Node18 -->
<g id="edge1962_Node000017_Node000018" class="edge">
<title>Node17&#45;&gt;Node18</title>
<g id="a_edge1962_Node000017_Node000018"><a xlink:title=" ">
<path fill="none" stroke="#63b8ff" d="M319.79,-377.5C339.61,-377.5 361.08,-377.5 380.76,-377.5"/>
<polygon fill="#63b8ff" stroke="#63b8ff" points="319.85,-374 309.85,-377.5 319.85,-381 319.85,-374"/>
</a>
</g>
</g>
<!-- Node20 -->
<g id="Node000020" class="node">
<title>Node20</title>
<g id="a_Node000020"><a xlink:href="class_harlinn_1_1_windows_1_1_combo_box.html" target="_top" xlink:title=" ">
<polygon fill="white" stroke="#666666" points="524,-350 378,-350 378,-331 524,-331 524,-350"/>
<text text-anchor="middle" x="451" y="-338" font-family="Helvetica,sans-Serif" font-size="10.00">Harlinn::Windows::ComboBox</text>
</a>
</g>
</g>
<!-- Node19&#45;&gt;Node20 -->
<g id="edge1964_Node000019_Node000020" class="edge">
<title>Node19&#45;&gt;Node20</title>
<g id="a_edge1964_Node000019_Node000020"><a xlink:title=" ">
<path fill="none" stroke="#63b8ff" d="M330.96,-340.5C346.49,-340.5 362.6,-340.5 377.76,-340.5"/>
<polygon fill="#63b8ff" stroke="#63b8ff" points="331.3,-337 321.3,-340.5 331.3,-344 331.3,-337"/>
</a>
</g>
</g>
<!-- Node21 -->
<g id="Node000021" class="node">
<title>Node21</title>
<g id="a_Node000021"><a xlink:href="class_harlinn_1_1_windows_1_1_list_box.html" target="_top" xlink:title=" ">
<polygon fill="white" stroke="#666666" points="516.5,-313 385.5,-313 385.5,-294 516.5,-294 516.5,-313"/>
<text text-anchor="middle" x="451" y="-301" font-family="Helvetica,sans-Serif" font-size="10.00">Harlinn::Windows::ListBox</text>
</a>
</g>
</g>
<!-- Node19&#45;&gt;Node21 -->
<g id="edge1965_Node000019_Node000021" class="edge">
<title>Node19&#45;&gt;Node21</title>
<g id="a_edge1965_Node000019_Node000021"><a xlink:title=" ">
<path fill="none" stroke="#63b8ff" d="M313.5,-328.5C340,-323.65 370.24,-318.11 395.5,-313.48"/>
<polygon fill="#63b8ff" stroke="#63b8ff" points="313.09,-325.02 303.89,-330.26 314.35,-331.9 313.09,-325.02"/>
</a>
</g>
</g>
<!-- Node22 -->
<g id="Node000022" class="node">
<title>Node22</title>
<g id="a_Node000022"><a xlink:href="class_harlinn_1_1_windows_1_1_checked_list_box.html" target="_top" xlink:title=" ">
<polygon fill="white" stroke="#666666" points="717.5,-318.5 580.5,-318.5 580.5,-288.5 717.5,-288.5 717.5,-318.5"/>
<text text-anchor="start" x="588.5" y="-306.5" font-family="Helvetica,sans-Serif" font-size="10.00">Harlinn::Windows::Checked</text>
<text text-anchor="middle" x="649" y="-295.5" font-family="Helvetica,sans-Serif" font-size="10.00">ListBox</text>
</a>
</g>
</g>
<!-- Node21&#45;&gt;Node22 -->
<g id="edge1966_Node000021_Node000022" class="edge">
<title>Node21&#45;&gt;Node22</title>
<g id="a_edge1966_Node000021_Node000022"><a xlink:title=" ">
<path fill="none" stroke="#63b8ff" d="M528.11,-303.5C545.27,-303.5 563.37,-303.5 580.16,-303.5"/>
<polygon fill="#63b8ff" stroke="#63b8ff" points="528.51,-300 518.51,-303.5 528.51,-307 528.51,-300"/>
</a>
</g>
</g>
<!-- Node26 -->
<g id="Node000026" class="node">
<title>Node26</title>
<g id="a_Node000026"><a xlink:href="class_harlinn_1_1_windows_1_1_h_scroll_bar.html" target="_top" xlink:title=" ">
<polygon fill="white" stroke="#666666" points="523.5,-276 378.5,-276 378.5,-257 523.5,-257 523.5,-276"/>
<text text-anchor="middle" x="451" y="-264" font-family="Helvetica,sans-Serif" font-size="10.00">Harlinn::Windows::HScrollBar</text>
</a>
</g>
</g>
<!-- Node25&#45;&gt;Node26 -->
<g id="edge1970_Node000025_Node000026" class="edge">
<title>Node25&#45;&gt;Node26</title>
<g id="a_edge1970_Node000025_Node000026"><a xlink:title=" ">
<path fill="none" stroke="#63b8ff" d="M313.5,-241.5C340,-246.35 370.24,-251.89 395.5,-256.52"/>
<polygon fill="#63b8ff" stroke="#63b8ff" points="314.35,-238.1 303.89,-239.74 313.09,-244.98 314.35,-238.1"/>
</a>
</g>
</g>
<!-- Node27 -->
<g id="Node000027" class="node">
<title>Node27</title>
<g id="a_Node000027"><a xlink:href="class_harlinn_1_1_windows_1_1_v_scroll_bar.html" target="_top" xlink:title=" ">
<polygon fill="white" stroke="#666666" points="523.5,-239 378.5,-239 378.5,-220 523.5,-220 523.5,-239"/>
<text text-anchor="middle" x="451" y="-227" font-family="Helvetica,sans-Serif" font-size="10.00">Harlinn::Windows::VScrollBar</text>
</a>
</g>
</g>
<!-- Node25&#45;&gt;Node27 -->
<g id="edge1971_Node000025_Node000027" class="edge">
<title>Node25&#45;&gt;Node27</title>
<g id="a_edge1971_Node000025_Node000027"><a xlink:title=" ">
<path fill="none" stroke="#63b8ff" d="M327.77,-229.5C344.42,-229.5 361.89,-229.5 378.23,-229.5"/>
<polygon fill="#63b8ff" stroke="#63b8ff" points="327.9,-226 317.9,-229.5 327.9,-233 327.9,-226"/>
</a>
</g>
</g>
<!-- Node29 -->
<g id="Node000029" class="node">
<title>Node29</title>
<g id="a_Node000029"><a xlink:href="class_harlinn_1_1_windows_1_1_container_control.html" target="_top" xlink:title=" ">
<polygon fill="white" stroke="#666666" points="521,-134.5 381,-134.5 381,-104.5 521,-104.5 521,-134.5"/>
<text text-anchor="start" x="389" y="-122.5" font-family="Helvetica,sans-Serif" font-size="10.00">Harlinn::Windows::Container</text>
<text text-anchor="middle" x="451" y="-111.5" font-family="Helvetica,sans-Serif" font-size="10.00">Control</text>
</a>
</g>
</g>
<!-- Node28&#45;&gt;Node29 -->
<g id="edge1973_Node000028_Node000029" class="edge">
<title>Node28&#45;&gt;Node29</title>
<g id="a_edge1973_Node000028_Node000029"><a xlink:title=" ">
<path fill="none" stroke="#63b8ff" d="M312.48,-167.74C318.08,-166 323.65,-164.24 329,-162.5 355.5,-153.87 384.97,-143.42 408.19,-134.98"/>
<polygon fill="#63b8ff" stroke="#63b8ff" points="311.71,-164.31 303.16,-170.58 313.75,-171.01 311.71,-164.31"/>
</a>
</g>
</g>
<!-- Node30 -->
<g id="Node000030" class="node">
<title>Node30</title>
<g id="a_Node000030"><a xlink:href="class_harlinn_1_1_windows_1_1_form.html" target="_top" xlink:title=" ">
<polygon fill="white" stroke="#666666" points="709.5,-129 588.5,-129 588.5,-110 709.5,-110 709.5,-129"/>
<text text-anchor="middle" x="649" y="-117" font-family="Helvetica,sans-Serif" font-size="10.00">Harlinn::Windows::Form</text>
</a>
</g>
</g>
<!-- Node29&#45;&gt;Node30 -->
<g id="edge1974_Node000029_Node000030" class="edge">
<title>Node29&#45;&gt;Node30</title>
<g id="a_edge1974_Node000029_Node000030"><a xlink:title=" ">
<path fill="none" stroke="#63b8ff" d="M532.78,-119.5C551.31,-119.5 570.68,-119.5 588.14,-119.5"/>
<polygon fill="#63b8ff" stroke="#63b8ff" points="532.89,-116 522.89,-119.5 532.89,-123 532.89,-116"/>
</a>
</g>
</g>
<!-- Node31 -->
<g id="Node000031" class="node">
<title>Node31</title>
<g id="a_Node000031"><a xlink:href="class_harlinn_1_1_windows_1_1_d_x_form.html" target="_top" xlink:title=" ">
<polygon fill="white" stroke="#666666" points="899,-129 766,-129 766,-110 899,-110 899,-129"/>
<text text-anchor="middle" x="832.5" y="-117" font-family="Helvetica,sans-Serif" font-size="10.00">Harlinn::Windows::DXForm</text>
</a>
</g>
</g>
<!-- Node30&#45;&gt;Node31 -->
<g id="edge1975_Node000030_Node000031" class="edge">
<title>Node30&#45;&gt;Node31</title>
<g id="a_edge1975_Node000030_Node000031"><a xlink:title=" ">
<path fill="none" stroke="#63b8ff" d="M721.01,-119.5C735.73,-119.5 751.17,-119.5 765.68,-119.5"/>
<polygon fill="#63b8ff" stroke="#63b8ff" points="721.45,-116 711.45,-119.5 721.45,-123 721.45,-116"/>
</a>
</g>
</g>
<!-- Node32 -->
<g id="Node000032" class="node">
<title>Node32</title>
<g id="a_Node000032"><a xlink:href="class_harlinn_1_1_windows_1_1_im_gui_1_1_form.html" target="_top" xlink:title=" ">
<polygon fill="white" stroke="#666666" points="1064,-134.5 940,-134.5 940,-104.5 1064,-104.5 1064,-134.5"/>
<text text-anchor="start" x="948" y="-122.5" font-family="Helvetica,sans-Serif" font-size="10.00">Harlinn::Windows::ImGui</text>
<text text-anchor="middle" x="1002" y="-111.5" font-family="Helvetica,sans-Serif" font-size="10.00">::Form</text>
</a>
</g>
</g>
<!-- Node31&#45;&gt;Node32 -->
<g id="edge1976_Node000031_Node000032" class="edge">
<title>Node31&#45;&gt;Node32</title>
<g id="a_edge1976_Node000031_Node000032"><a xlink:title=" ">
<path fill="none" stroke="#63b8ff" d="M910.55,-119.5C920.28,-119.5 930.13,-119.5 939.57,-119.5"/>
<polygon fill="#63b8ff" stroke="#63b8ff" points="910.73,-116 900.73,-119.5 910.73,-123 910.73,-116"/>
</a>
</g>
</g>
<!-- Node37 -->
<g id="Node000037" class="node">
<title>Node37</title>
<g id="a_Node000037"><a xlink:href="class_harlinn_1_1_windows_1_1_tree_view.html" target="_top" xlink:title=" ">
<polygon fill="white" stroke="#666666" points="520,-19 382,-19 382,0 520,0 520,-19"/>
<text text-anchor="middle" x="451" y="-7" font-family="Helvetica,sans-Serif" font-size="10.00">Harlinn::Windows::TreeView</text>
</a>
</g>
</g>
<!-- Node36&#45;&gt;Node37 -->
<g id="edge1980_Node000036_Node000037" class="edge">
<title>Node36&#45;&gt;Node37</title>
<g id="a_edge1980_Node000036_Node000037"><a xlink:title=" ">
<path fill="none" stroke="#63b8ff" d="M337.17,-9.5C352.13,-9.5 367.45,-9.5 381.78,-9.5"/>
<polygon fill="#63b8ff" stroke="#63b8ff" points="337.32,-6 327.32,-9.5 337.32,-13 337.32,-6"/>
</a>
</g>
</g>
<!-- Node33 -->
<g id="Node000033" class="node">
<title>Node33</title>
<g id="a_Node000033"><a xlink:href="class_harlinn_1_1_windows_1_1_i_container_control.html" target="_top" xlink:title=" ">
<polygon fill="white" stroke="#666666" points="318,-67.5 176,-67.5 176,-37.5 318,-37.5 318,-67.5"/>
<text text-anchor="start" x="184" y="-55.5" font-family="Helvetica,sans-Serif" font-size="10.00">Harlinn::Windows::IContainer</text>
<text text-anchor="middle" x="247" y="-44.5" font-family="Helvetica,sans-Serif" font-size="10.00">Control</text>
</a>
</g>
</g>
<!-- Node33&#45;&gt;Node29 -->
<g id="edge1981_Node000033_Node000029" class="edge">
<title>Node33&#45;&gt;Node29</title>
<g id="a_edge1981_Node000033_Node000029"><a xlink:title=" ">
<path fill="none" stroke="#63b8ff" d="M312.48,-71.26C318.08,-73 323.65,-74.76 329,-76.5 355.5,-85.13 384.97,-95.58 408.19,-104.02"/>
<polygon fill="#63b8ff" stroke="#63b8ff" points="313.75,-67.99 303.16,-68.42 311.71,-74.69 313.75,-67.99"/>
</a>
</g>
</g>
</g>
</svg>
