<?xml version="1.0" encoding="UTF-8" standalone="no"?>
<!DOCTYPE svg PUBLIC "-//W3C//DTD SVG 1.1//EN"
 "http://www.w3.org/Graphics/SVG/1.1/DTD/svg11.dtd">
<!-- Generated by graphviz version 7.0.1 (20221109.1506)
 -->
<!-- Title: Graphical Class Hierarchy Pages: 1 -->
<svg width="245pt" height="108pt"
 viewBox="0.00 0.00 245.00 108.00" xmlns="http://www.w3.org/2000/svg" xmlns:xlink="http://www.w3.org/1999/xlink">
<g id="graph0" class="graph" transform="scale(1 1) rotate(0) translate(4 104)">
<title>Graphical Class Hierarchy</title>
<!-- Node0 -->
<g id="Node000000" class="node">
<title>Node0</title>
<g id="a_Node000000"><a xlink:title=" ">
<polygon fill="#e0e0e0" stroke="#999999" points="67,-59 0,-59 0,-40 67,-40 67,-59"/>
<text text-anchor="middle" x="33.5" y="-47" font-family="Helvetica,sans-Serif" font-size="10.00">IDisposable</text>
</a>
</g>
</g>
<!-- Node1 -->
<g id="Node000001" class="node">
<title>Node1</title>
<g id="a_Node000001"><a xlink:href="interface_harlinn_1_1_common_1_1_core_1_1_net_1_1_data_1_1_i_data_context_base.html" target="_top" xlink:title=" ">
<polygon fill="white" stroke="#666666" points="236.5,-100 103.5,-100 103.5,-59 236.5,-59 236.5,-100"/>
<text text-anchor="start" x="111.5" y="-88" font-family="Helvetica,sans-Serif" font-size="10.00">Harlinn.Common.Core.Net.</text>
<text text-anchor="start" x="111.5" y="-77" font-family="Helvetica,sans-Serif" font-size="10.00">Data.IDataContextBase</text>
<text text-anchor="middle" x="170" y="-66" font-family="Helvetica,sans-Serif" font-size="10.00">&lt; TKind &gt;</text>
</a>
</g>
</g>
<!-- Node0&#45;&gt;Node1 -->
<g id="edge1997_Node000000_Node000001" class="edge">
<title>Node0&#45;&gt;Node1</title>
<g id="a_edge1997_Node000000_Node000001"><a xlink:title=" ">
<path fill="none" stroke="#63b8ff" d="M78.51,-59.32C86.36,-61.07 94.7,-62.93 103.01,-64.78"/>
<polygon fill="#63b8ff" stroke="#63b8ff" points="79.4,-55.93 68.88,-57.17 77.88,-62.76 79.4,-55.93"/>
</a>
</g>
</g>
<!-- Node2 -->
<g id="Node000002" class="node">
<title>Node2</title>
<g id="a_Node000002"><a xlink:href="class_harlinn_1_1_common_1_1_core_1_1_net_1_1_entities_1_1_entity_context_base.html" target="_top" xlink:title=" ">
<polygon fill="white" stroke="#666666" points="237,-41 103,-41 103,0 237,0 237,-41"/>
<text text-anchor="start" x="111" y="-29" font-family="Helvetica,sans-Serif" font-size="10.00">Harlinn.Common.Core.Net.</text>
<text text-anchor="start" x="111" y="-18" font-family="Helvetica,sans-Serif" font-size="10.00">Entities.EntityContextBase</text>
<text text-anchor="middle" x="170" y="-7" font-family="Helvetica,sans-Serif" font-size="10.00">&lt; TKind &gt;</text>
</a>
</g>
</g>
<!-- Node0&#45;&gt;Node2 -->
<g id="edge1998_Node000000_Node000002" class="edge">
<title>Node0&#45;&gt;Node2</title>
<g id="a_edge1998_Node000000_Node000002"><a xlink:title=" ">
<path fill="none" stroke="#63b8ff" d="M78.42,-40.03C86.22,-38.35 94.49,-36.56 102.75,-34.79"/>
<polygon fill="#63b8ff" stroke="#63b8ff" points="77.92,-36.56 68.88,-42.09 79.4,-43.4 77.92,-36.56"/>
</a>
</g>
</g>
</g>
</svg>
