<?xml version="1.0" encoding="UTF-8" standalone="no"?>
<!DOCTYPE svg PUBLIC "-//W3C//DTD SVG 1.1//EN"
 "http://www.w3.org/Graphics/SVG/1.1/DTD/svg11.dtd">
<!-- Generated by graphviz version 7.0.1 (20221109.1506)
 -->
<!-- Title: Graphical Class Hierarchy Pages: 1 -->
<svg width="385pt" height="64pt"
 viewBox="0.00 0.00 385.00 64.00" xmlns="http://www.w3.org/2000/svg" xmlns:xlink="http://www.w3.org/1999/xlink">
<g id="graph0" class="graph" transform="scale(1 1) rotate(0) translate(4 60)">
<title>Graphical Class Hierarchy</title>
<!-- Node0 -->
<g id="Node000000" class="node">
<title>Node0</title>
<g id="a_Node000000"><a xlink:href="class_harlinn_1_1_windows_1_1_message_loop.html" target="_top" xlink:title="The standard message loop.">
<polygon fill="white" stroke="#666666" points="159,-37 0,-37 0,-18 159,-18 159,-37"/>
<text text-anchor="middle" x="79.5" y="-25" font-family="Helvetica,sans-Serif" font-size="10.00">Harlinn::Windows::MessageLoop</text>
</a>
</g>
</g>
<!-- Node1 -->
<g id="Node000001" class="node">
<title>Node1</title>
<g id="a_Node000001"><a xlink:href="class_harlinn_1_1_windows_1_1_d_x_message_loop.html" target="_top" xlink:title="A message loop implementation that uses idle time to perform rendering.">
<polygon fill="white" stroke="#666666" points="371.5,-56 200.5,-56 200.5,-37 371.5,-37 371.5,-56"/>
<text text-anchor="middle" x="286" y="-44" font-family="Helvetica,sans-Serif" font-size="10.00">Harlinn::Windows::DXMessageLoop</text>
</a>
</g>
</g>
<!-- Node0&#45;&gt;Node1 -->
<g id="edge2151_Node000000_Node000001" class="edge">
<title>Node0&#45;&gt;Node1</title>
<g id="a_edge2151_Node000000_Node000001"><a xlink:title=" ">
<path fill="none" stroke="#63b8ff" d="M170.68,-35.88C180.48,-36.79 190.43,-37.71 200.16,-38.62"/>
<polygon fill="#63b8ff" stroke="#63b8ff" points="171.06,-32.4 160.78,-34.96 170.41,-39.37 171.06,-32.4"/>
</a>
</g>
</g>
<!-- Node2 -->
<g id="Node000002" class="node">
<title>Node2</title>
<g id="a_Node000002"><a xlink:href="class_harlinn_1_1_windows_1_1_peek_message_loop.html" target="_top" xlink:title=" ">
<polygon fill="white" stroke="#666666" points="377,-19 195,-19 195,0 377,0 377,-19"/>
<text text-anchor="middle" x="286" y="-7" font-family="Helvetica,sans-Serif" font-size="10.00">Harlinn::Windows::PeekMessageLoop</text>
</a>
</g>
</g>
<!-- Node0&#45;&gt;Node2 -->
<g id="edge2152_Node000000_Node000002" class="edge">
<title>Node0&#45;&gt;Node2</title>
<g id="a_edge2152_Node000000_Node000002"><a xlink:title=" ">
<path fill="none" stroke="#63b8ff" d="M170.52,-19.58C178.54,-18.87 186.66,-18.16 194.68,-17.45"/>
<polygon fill="#63b8ff" stroke="#63b8ff" points="170.43,-16.07 160.78,-20.43 171.05,-23.04 170.43,-16.07"/>
</a>
</g>
</g>
</g>
</svg>
