<?xml version="1.0" encoding="UTF-8" standalone="no"?>
<!DOCTYPE svg PUBLIC "-//W3C//DTD SVG 1.1//EN"
 "http://www.w3.org/Graphics/SVG/1.1/DTD/svg11.dtd">
<!-- Generated by graphviz version 7.0.1 (20221109.1506)
 -->
<!-- Title: Graphical Class Hierarchy Pages: 1 -->
<svg width="280pt" height="108pt"
 viewBox="0.00 0.00 280.00 108.00" xmlns="http://www.w3.org/2000/svg" xmlns:xlink="http://www.w3.org/1999/xlink">
<g id="graph0" class="graph" transform="scale(1 1) rotate(0) translate(4 104)">
<title>Graphical Class Hierarchy</title>
<!-- Node0 -->
<g id="Node000000" class="node">
<title>Node0</title>
<g id="a_Node000000"><a xlink:href="class_harlinn_1_1_common_1_1_core_1_1_internal_1_1_tuple_base.html" target="_top" xlink:title=" ">
<polygon fill="white" stroke="#666666" points="118,-100 0,-100 0,-59 118,-59 118,-100"/>
<text text-anchor="start" x="8" y="-88" font-family="Helvetica,sans-Serif" font-size="10.00">Harlinn::Common::Core</text>
<text text-anchor="start" x="8" y="-77" font-family="Helvetica,sans-Serif" font-size="10.00">::Internal::TupleBase</text>
<text text-anchor="middle" x="59" y="-66" font-family="Helvetica,sans-Serif" font-size="10.00">&lt; index+1, types... &gt;</text>
</a>
</g>
</g>
<!-- Node1 -->
<g id="Node000001" class="node">
<title>Node1</title>
<g id="a_Node000001"><a xlink:href="class_harlinn_1_1_common_1_1_core_1_1_internal_1_1_tuple_base_3_01index_00_01_t_00_01types_8_8_8_01_4.html" target="_top" xlink:title=" ">
<polygon fill="white" stroke="#666666" points="272,-70 154,-70 154,-29 272,-29 272,-70"/>
<text text-anchor="start" x="162" y="-58" font-family="Helvetica,sans-Serif" font-size="10.00">Harlinn::Common::Core</text>
<text text-anchor="start" x="162" y="-47" font-family="Helvetica,sans-Serif" font-size="10.00">::Internal::TupleBase</text>
<text text-anchor="middle" x="213" y="-36" font-family="Helvetica,sans-Serif" font-size="10.00">&lt; index, T, types... &gt;</text>
</a>
</g>
</g>
<!-- Node0&#45;&gt;Node1 -->
<g id="edge498_Node000000_Node000001" class="edge">
<title>Node0&#45;&gt;Node1</title>
<g id="a_edge498_Node000000_Node000001"><a xlink:title=" ">
<path fill="none" stroke="#63b8ff" d="M129.57,-65.77C137.6,-64.18 145.72,-62.58 153.57,-61.03"/>
<polygon fill="#63b8ff" stroke="#63b8ff" points="128.95,-62.32 119.82,-67.69 130.31,-69.19 128.95,-62.32"/>
</a>
</g>
</g>
<!-- Node2 -->
<g id="Node000002" class="node">
<title>Node2</title>
<g id="a_Node000002"><a xlink:href="class_harlinn_1_1_common_1_1_core_1_1_internal_1_1_tuple_value.html" target="_top" xlink:title=" ">
<polygon fill="white" stroke="#666666" points="118,-41 0,-41 0,0 118,0 118,-41"/>
<text text-anchor="start" x="8" y="-29" font-family="Helvetica,sans-Serif" font-size="10.00">Harlinn::Common::Core</text>
<text text-anchor="start" x="8" y="-18" font-family="Helvetica,sans-Serif" font-size="10.00">::Internal::TupleValue</text>
<text text-anchor="middle" x="59" y="-7" font-family="Helvetica,sans-Serif" font-size="10.00">&lt; index, T &gt;</text>
</a>
</g>
</g>
<!-- Node2&#45;&gt;Node1 -->
<g id="edge499_Node000002_Node000001" class="edge">
<title>Node2&#45;&gt;Node1</title>
<g id="a_edge499_Node000002_Node000001"><a xlink:title=" ">
<path fill="none" stroke="#63b8ff" d="M129.57,-33.77C137.6,-35.3 145.72,-36.85 153.57,-38.35"/>
<polygon fill="#63b8ff" stroke="#63b8ff" points="130.3,-30.35 119.82,-31.91 128.99,-37.23 130.3,-30.35"/>
</a>
</g>
</g>
</g>
</svg>
