<?xml version="1.0" encoding="UTF-8" standalone="no"?>
<!DOCTYPE svg PUBLIC "-//W3C//DTD SVG 1.1//EN"
 "http://www.w3.org/Graphics/SVG/1.1/DTD/svg11.dtd">
<!-- Generated by graphviz version 7.0.1 (20221109.1506)
 -->
<!-- Title: Graphical Class Hierarchy Pages: 1 -->
<svg width="280pt" height="134pt"
 viewBox="0.00 0.00 280.00 134.00" xmlns="http://www.w3.org/2000/svg" xmlns:xlink="http://www.w3.org/1999/xlink">
<g id="graph0" class="graph" transform="scale(1 1) rotate(0) translate(4 130)">
<title>Graphical Class Hierarchy</title>
<!-- Node0 -->
<g id="Node000000" class="node">
<title>Node0</title>
<g id="a_Node000000"><a xlink:href="class_harlinn_1_1_common_1_1_core_1_1_com_1_1_module.xhtml" target="_top" xlink:title=" ">
<polygon fill="white" stroke="#666666" points="118,-78 0,-78 0,-48 118,-48 118,-78"/>
<text text-anchor="start" x="8" y="-66" font-family="Helvetica,sans-Serif" font-size="10.00">Harlinn::Common::Core</text>
<text text-anchor="middle" x="59" y="-55" font-family="Helvetica,sans-Serif" font-size="10.00">::Com::Module</text>
</a>
</g>
</g>
<!-- Node1 -->
<g id="Node000001" class="node">
<title>Node1</title>
<g id="a_Node000001"><a xlink:href="class_harlinn_1_1_common_1_1_core_1_1_com_1_1_dll_module.xhtml" target="_top" xlink:title=" ">
<polygon fill="white" stroke="#666666" points="272,-126 154,-126 154,-96 272,-96 272,-126"/>
<text text-anchor="start" x="162" y="-114" font-family="Helvetica,sans-Serif" font-size="10.00">Harlinn::Common::Core</text>
<text text-anchor="middle" x="213" y="-103" font-family="Helvetica,sans-Serif" font-size="10.00">::Com::DllModule</text>
</a>
</g>
</g>
<!-- Node0&#45;&gt;Node1 -->
<g id="edge115_Node000000_Node000001" class="edge">
<title>Node0&#45;&gt;Node1</title>
<g id="a_edge115_Node000000_Node000001"><a xlink:title=" ">
<path fill="none" stroke="#63b8ff" d="M119.74,-81.87C134.13,-86.41 149.34,-91.21 163.16,-95.58"/>
<polygon fill="#63b8ff" stroke="#63b8ff" points="120.96,-78.58 110.37,-78.91 118.86,-85.26 120.96,-78.58"/>
</a>
</g>
</g>
<!-- Node2 -->
<g id="Node000002" class="node">
<title>Node2</title>
<g id="a_Node000002"><a xlink:href="class_harlinn_1_1_common_1_1_core_1_1_com_1_1_exe_module.xhtml" target="_top" xlink:title=" ">
<polygon fill="white" stroke="#666666" points="272,-78 154,-78 154,-48 272,-48 272,-78"/>
<text text-anchor="start" x="162" y="-66" font-family="Helvetica,sans-Serif" font-size="10.00">Harlinn::Common::Core</text>
<text text-anchor="middle" x="213" y="-55" font-family="Helvetica,sans-Serif" font-size="10.00">::Com::ExeModule</text>
</a>
</g>
</g>
<!-- Node0&#45;&gt;Node2 -->
<g id="edge116_Node000000_Node000002" class="edge">
<title>Node0&#45;&gt;Node2</title>
<g id="a_edge116_Node000000_Node000002"><a xlink:title=" ">
<path fill="none" stroke="#63b8ff" d="M129.57,-63C137.6,-63 145.72,-63 153.57,-63"/>
<polygon fill="#63b8ff" stroke="#63b8ff" points="129.85,-59.5 119.85,-63 129.85,-66.5 129.85,-59.5"/>
</a>
</g>
</g>
<!-- Node3 -->
<g id="Node000003" class="node">
<title>Node3</title>
<g id="a_Node000003"><a xlink:href="class_harlinn_1_1_common_1_1_core_1_1_com_1_1_service_module.xhtml" target="_top" xlink:title=" ">
<polygon fill="white" stroke="#666666" points="272,-30 154,-30 154,0 272,0 272,-30"/>
<text text-anchor="start" x="162" y="-18" font-family="Helvetica,sans-Serif" font-size="10.00">Harlinn::Common::Core</text>
<text text-anchor="middle" x="213" y="-7" font-family="Helvetica,sans-Serif" font-size="10.00">::Com::ServiceModule</text>
</a>
</g>
</g>
<!-- Node0&#45;&gt;Node3 -->
<g id="edge117_Node000000_Node000003" class="edge">
<title>Node0&#45;&gt;Node3</title>
<g id="a_edge117_Node000000_Node000003"><a xlink:title=" ">
<path fill="none" stroke="#63b8ff" d="M119.74,-44.13C134.13,-39.59 149.34,-34.79 163.16,-30.42"/>
<polygon fill="#63b8ff" stroke="#63b8ff" points="118.86,-40.74 110.37,-47.09 120.96,-47.42 118.86,-40.74"/>
</a>
</g>
</g>
</g>
</svg>
