<?xml version="1.0" encoding="UTF-8" standalone="no"?>
<!DOCTYPE svg PUBLIC "-//W3C//DTD SVG 1.1//EN"
 "http://www.w3.org/Graphics/SVG/1.1/DTD/svg11.dtd">
<!-- Generated by graphviz version 7.0.1 (20221109.1506)
 -->
<!-- Title: Graphical Class Hierarchy Pages: 1 -->
<svg width="675pt" height="212pt"
 viewBox="0.00 0.00 675.00 211.50" xmlns="http://www.w3.org/2000/svg" xmlns:xlink="http://www.w3.org/1999/xlink">
<g id="graph0" class="graph" transform="scale(1 1) rotate(0) translate(4 207.5)">
<title>Graphical Class Hierarchy</title>
<!-- Node0 -->
<g id="Node000000" class="node">
<title>Node0</title>
<g id="a_Node000000"><a xlink:title=" ">
<polygon fill="#e0e0e0" stroke="#999999" points="68,-105.5 0,-105.5 0,-86.5 68,-86.5 68,-105.5"/>
<text text-anchor="middle" x="34" y="-93.5" font-family="Helvetica,sans-Serif" font-size="10.00">ObjectBase</text>
</a>
</g>
</g>
<!-- Node1 -->
<g id="Node000001" class="node">
<title>Node1</title>
<g id="a_Node000001"><a xlink:href="class_harlinn_1_1_common_1_1_core_1_1_com_1_1_internal_1_1_i_sequential_stream_on_stream_impl.html" target="_top" xlink:title=" ">
<polygon fill="white" stroke="#666666" points="268,-203.5 104,-203.5 104,-140.5 268,-140.5 268,-203.5"/>
<text text-anchor="start" x="112" y="-191.5" font-family="Helvetica,sans-Serif" font-size="10.00">Harlinn::Common::Core</text>
<text text-anchor="start" x="112" y="-180.5" font-family="Helvetica,sans-Serif" font-size="10.00">::Com::Internal::ISequential</text>
<text text-anchor="start" x="112" y="-169.5" font-family="Helvetica,sans-Serif" font-size="10.00">StreamOnStreamImpl&lt; StreamT,</text>
<text text-anchor="start" x="112" y="-158.5" font-family="Helvetica,sans-Serif" font-size="10.00"> IStreamOnStreamImpl&lt; StreamT,</text>
<text text-anchor="middle" x="186" y="-147.5" font-family="Helvetica,sans-Serif" font-size="10.00"> IStream &gt;, IStream &gt;</text>
</a>
</g>
</g>
<!-- Node0&#45;&gt;Node1 -->
<g id="edge2277_Node000000_Node000001" class="edge">
<title>Node0&#45;&gt;Node1</title>
<g id="a_edge2277_Node000000_Node000001"><a xlink:title=" ">
<path fill="none" stroke="#63b8ff" d="M64.71,-111.08C76.89,-117.26 91.12,-124.47 104,-131 109.9,-133.99 116.05,-137.11 122.2,-140.22"/>
<polygon fill="#63b8ff" stroke="#63b8ff" points="66.48,-108.05 55.98,-106.65 63.31,-114.29 66.48,-108.05"/>
</a>
</g>
</g>
<!-- Node4 -->
<g id="Node000004" class="node">
<title>Node4</title>
<g id="a_Node000004"><a xlink:href="class_harlinn_1_1_common_1_1_core_1_1_com_1_1_internal_1_1_i_sequential_stream_on_stream_impl.html" target="_top" xlink:title=" ">
<polygon fill="white" stroke="#666666" points="265.5,-122 106.5,-122 106.5,-70 265.5,-70 265.5,-122"/>
<text text-anchor="start" x="114.5" y="-110" font-family="Helvetica,sans-Serif" font-size="10.00">Harlinn::Common::Core</text>
<text text-anchor="start" x="114.5" y="-99" font-family="Helvetica,sans-Serif" font-size="10.00">::Com::Internal::ISequential</text>
<text text-anchor="start" x="114.5" y="-88" font-family="Helvetica,sans-Serif" font-size="10.00">StreamOnStreamImpl&lt; StreamT,</text>
<text text-anchor="middle" x="186" y="-77" font-family="Helvetica,sans-Serif" font-size="10.00"> DerivedT, IStream &gt;</text>
</a>
</g>
</g>
<!-- Node0&#45;&gt;Node4 -->
<g id="edge2280_Node000000_Node000004" class="edge">
<title>Node0&#45;&gt;Node4</title>
<g id="a_edge2280_Node000000_Node000004"><a xlink:title=" ">
<path fill="none" stroke="#63b8ff" d="M79.67,-96C88.04,-96 97.03,-96 106.08,-96"/>
<polygon fill="#63b8ff" stroke="#63b8ff" points="79.8,-92.5 69.8,-96 79.8,-99.5 79.8,-92.5"/>
</a>
</g>
</g>
<!-- Node6 -->
<g id="Node000006" class="node">
<title>Node6</title>
<g id="a_Node000006"><a xlink:href="class_harlinn_1_1_common_1_1_core_1_1_com_1_1_internal_1_1_i_sequential_stream_on_stream_impl.html" target="_top" xlink:title=" ">
<polygon fill="white" stroke="#666666" points="265.5,-52 106.5,-52 106.5,0 265.5,0 265.5,-52"/>
<text text-anchor="start" x="114.5" y="-40" font-family="Helvetica,sans-Serif" font-size="10.00">Harlinn::Common::Core</text>
<text text-anchor="start" x="114.5" y="-29" font-family="Helvetica,sans-Serif" font-size="10.00">::Com::Internal::ISequential</text>
<text text-anchor="start" x="114.5" y="-18" font-family="Helvetica,sans-Serif" font-size="10.00">StreamOnStreamImpl&lt; StreamT,</text>
<text text-anchor="middle" x="186" y="-7" font-family="Helvetica,sans-Serif" font-size="10.00"> DerivedT, InterfaceT &gt;</text>
</a>
</g>
</g>
<!-- Node0&#45;&gt;Node6 -->
<g id="edge2282_Node000000_Node000006" class="edge">
<title>Node0&#45;&gt;Node6</title>
<g id="a_edge2282_Node000000_Node000006"><a xlink:title=" ">
<path fill="none" stroke="#63b8ff" d="M64,-80.79C76.25,-74.49 90.74,-67.22 104,-61 110.1,-58.14 116.5,-55.22 122.91,-52.36"/>
<polygon fill="#63b8ff" stroke="#63b8ff" points="62.5,-77.63 55.23,-85.33 65.72,-83.84 62.5,-77.63"/>
</a>
</g>
</g>
<!-- Node2 -->
<g id="Node000002" class="node">
<title>Node2</title>
<g id="a_Node000002"><a xlink:href="class_harlinn_1_1_common_1_1_core_1_1_com_1_1_internal_1_1_i_stream_on_stream_impl.html" target="_top" xlink:title=" ">
<polygon fill="white" stroke="#666666" points="486,-198 304,-198 304,-146 486,-146 486,-198"/>
<text text-anchor="start" x="312" y="-186" font-family="Helvetica,sans-Serif" font-size="10.00">Harlinn::Common::Core</text>
<text text-anchor="start" x="312" y="-175" font-family="Helvetica,sans-Serif" font-size="10.00">::Com::Internal::IStreamOnStream</text>
<text text-anchor="start" x="312" y="-164" font-family="Helvetica,sans-Serif" font-size="10.00">Impl&lt; StreamT, IStreamOnStreamImpl</text>
<text text-anchor="middle" x="395" y="-153" font-family="Helvetica,sans-Serif" font-size="10.00">&lt; StreamT, IStream &gt;, IStream &gt;</text>
</a>
</g>
</g>
<!-- Node1&#45;&gt;Node2 -->
<g id="edge2278_Node000001_Node000002" class="edge">
<title>Node1&#45;&gt;Node2</title>
<g id="a_edge2278_Node000001_Node000002"><a xlink:title=" ">
<path fill="none" stroke="#63b8ff" d="M279.53,-172C287.59,-172 295.74,-172 303.77,-172"/>
<polygon fill="#63b8ff" stroke="#63b8ff" points="279.73,-168.5 269.73,-172 279.73,-175.5 279.73,-168.5"/>
</a>
</g>
</g>
<!-- Node3 -->
<g id="Node000003" class="node">
<title>Node3</title>
<g id="a_Node000003"><a xlink:href="class_harlinn_1_1_common_1_1_core_1_1_com_1_1_i_stream_on_stream_impl.html" target="_top" xlink:title=" ">
<polygon fill="white" stroke="#666666" points="667,-192.5 522,-192.5 522,-151.5 667,-151.5 667,-192.5"/>
<text text-anchor="start" x="530" y="-180.5" font-family="Helvetica,sans-Serif" font-size="10.00">Harlinn::Common::Core</text>
<text text-anchor="start" x="530" y="-169.5" font-family="Helvetica,sans-Serif" font-size="10.00">::Com::IStreamOnStreamImpl</text>
<text text-anchor="middle" x="594.5" y="-158.5" font-family="Helvetica,sans-Serif" font-size="10.00">&lt; StreamT, InterfaceT &gt;</text>
</a>
</g>
</g>
<!-- Node2&#45;&gt;Node3 -->
<g id="edge2279_Node000002_Node000003" class="edge">
<title>Node2&#45;&gt;Node3</title>
<g id="a_edge2279_Node000002_Node000003"><a xlink:title=" ">
<path fill="none" stroke="#63b8ff" d="M497.72,-172C505.75,-172 513.75,-172 521.52,-172"/>
<polygon fill="#63b8ff" stroke="#63b8ff" points="497.88,-168.5 487.88,-172 497.88,-175.5 497.88,-168.5"/>
</a>
</g>
</g>
<!-- Node5 -->
<g id="Node000005" class="node">
<title>Node5</title>
<g id="a_Node000005"><a xlink:href="class_harlinn_1_1_common_1_1_core_1_1_com_1_1_internal_1_1_i_stream_on_stream_impl.html" target="_top" xlink:title=" ">
<polygon fill="white" stroke="#666666" points="485,-116.5 305,-116.5 305,-75.5 485,-75.5 485,-116.5"/>
<text text-anchor="start" x="313" y="-104.5" font-family="Helvetica,sans-Serif" font-size="10.00">Harlinn::Common::Core</text>
<text text-anchor="start" x="313" y="-93.5" font-family="Helvetica,sans-Serif" font-size="10.00">::Com::Internal::IStreamOnStream</text>
<text text-anchor="middle" x="395" y="-82.5" font-family="Helvetica,sans-Serif" font-size="10.00">Impl&lt; StreamT, DerivedT, InterfaceT &gt;</text>
</a>
</g>
</g>
<!-- Node4&#45;&gt;Node5 -->
<g id="edge2281_Node000004_Node000005" class="edge">
<title>Node4&#45;&gt;Node5</title>
<g id="a_edge2281_Node000004_Node000005"><a xlink:title=" ">
<path fill="none" stroke="#63b8ff" d="M277.26,-96C286.35,-96 295.57,-96 304.64,-96"/>
<polygon fill="#63b8ff" stroke="#63b8ff" points="277.36,-92.5 267.36,-96 277.36,-99.5 277.36,-92.5"/>
</a>
</g>
</g>
</g>
</svg>
