<?xml version="1.0" encoding="UTF-8" standalone="no"?>
<!DOCTYPE svg PUBLIC "-//W3C//DTD SVG 1.1//EN"
 "http://www.w3.org/Graphics/SVG/1.1/DTD/svg11.dtd">
<!-- Generated by graphviz version 7.0.1 (20221109.1506)
 -->
<!-- Title: Graphical Class Hierarchy Pages: 1 -->
<svg width="280pt" height="278pt"
 viewBox="0.00 0.00 280.00 278.00" xmlns="http://www.w3.org/2000/svg" xmlns:xlink="http://www.w3.org/1999/xlink">
<g id="graph0" class="graph" transform="scale(1 1) rotate(0) translate(4 274)">
<title>Graphical Class Hierarchy</title>
<!-- Node0 -->
<g id="Node000000" class="node">
<title>Node0</title>
<g id="a_Node000000"><a xlink:href="class_harlinn_1_1_common_1_1_core_1_1_waitable_handle.html" target="_top" xlink:title=" ">
<polygon fill="white" stroke="#666666" points="118,-150 0,-150 0,-120 118,-120 118,-150"/>
<text text-anchor="start" x="8" y="-138" font-family="Helvetica,sans-Serif" font-size="10.00">Harlinn::Common::Core</text>
<text text-anchor="middle" x="59" y="-127" font-family="Helvetica,sans-Serif" font-size="10.00">::WaitableHandle</text>
</a>
</g>
</g>
<!-- Node1 -->
<g id="Node000001" class="node">
<title>Node1</title>
<g id="a_Node000001"><a xlink:href="class_harlinn_1_1_common_1_1_core_1_1_event_wait_handle.html" target="_top" xlink:title=" ">
<polygon fill="white" stroke="#666666" points="272,-270 154,-270 154,-240 272,-240 272,-270"/>
<text text-anchor="start" x="162" y="-258" font-family="Helvetica,sans-Serif" font-size="10.00">Harlinn::Common::Core</text>
<text text-anchor="middle" x="213" y="-247" font-family="Helvetica,sans-Serif" font-size="10.00">::EventWaitHandle</text>
</a>
</g>
</g>
<!-- Node0&#45;&gt;Node1 -->
<g id="edge1735_Node000000_Node000001" class="edge">
<title>Node0&#45;&gt;Node1</title>
<g id="a_edge1735_Node000000_Node000001"><a xlink:title=" ">
<path fill="none" stroke="#63b8ff" d="M78.64,-158.92C96.2,-180.16 124.2,-210.87 154,-231 158.7,-234.17 163.88,-237.05 169.15,-239.61"/>
<polygon fill="#63b8ff" stroke="#63b8ff" points="81.52,-156.92 72.51,-151.36 76.08,-161.33 81.52,-156.92"/>
</a>
</g>
</g>
<!-- Node2 -->
<g id="Node000002" class="node">
<title>Node2</title>
<g id="a_Node000002"><a xlink:href="class_harlinn_1_1_common_1_1_core_1_1_mutex.html" target="_top" xlink:title=" ">
<polygon fill="white" stroke="#666666" points="272,-222 154,-222 154,-192 272,-192 272,-222"/>
<text text-anchor="start" x="162" y="-210" font-family="Helvetica,sans-Serif" font-size="10.00">Harlinn::Common::Core</text>
<text text-anchor="middle" x="213" y="-199" font-family="Helvetica,sans-Serif" font-size="10.00">::Mutex</text>
</a>
</g>
</g>
<!-- Node0&#45;&gt;Node2 -->
<g id="edge1736_Node000000_Node000002" class="edge">
<title>Node0&#45;&gt;Node2</title>
<g id="a_edge1736_Node000000_Node000002"><a xlink:title=" ">
<path fill="none" stroke="#63b8ff" d="M98.55,-155.56C115.42,-164.33 135.54,-174.48 154,-183 160.23,-185.88 166.91,-188.79 173.44,-191.55"/>
<polygon fill="#63b8ff" stroke="#63b8ff" points="100.33,-152.54 89.85,-151.01 97.08,-158.75 100.33,-152.54"/>
</a>
</g>
</g>
<!-- Node3 -->
<g id="Node000003" class="node">
<title>Node3</title>
<g id="a_Node000003"><a xlink:href="class_harlinn_1_1_common_1_1_core_1_1_process.html" target="_top" xlink:title=" ">
<polygon fill="white" stroke="#666666" points="272,-174 154,-174 154,-144 272,-144 272,-174"/>
<text text-anchor="start" x="162" y="-162" font-family="Helvetica,sans-Serif" font-size="10.00">Harlinn::Common::Core</text>
<text text-anchor="middle" x="213" y="-151" font-family="Helvetica,sans-Serif" font-size="10.00">::Process</text>
</a>
</g>
</g>
<!-- Node0&#45;&gt;Node3 -->
<g id="edge1737_Node000000_Node000003" class="edge">
<title>Node0&#45;&gt;Node3</title>
<g id="a_edge1737_Node000000_Node000003"><a xlink:title=" ">
<path fill="none" stroke="#63b8ff" d="M129.57,-145.99C137.6,-147.25 145.72,-148.53 153.57,-149.77"/>
<polygon fill="#63b8ff" stroke="#63b8ff" points="130.25,-142.55 119.83,-144.45 129.16,-149.46 130.25,-142.55"/>
</a>
</g>
</g>
<!-- Node4 -->
<g id="Node000004" class="node">
<title>Node4</title>
<g id="a_Node000004"><a xlink:href="class_harlinn_1_1_common_1_1_core_1_1_semaphore.html" target="_top" xlink:title=" ">
<polygon fill="white" stroke="#666666" points="272,-126 154,-126 154,-96 272,-96 272,-126"/>
<text text-anchor="start" x="162" y="-114" font-family="Helvetica,sans-Serif" font-size="10.00">Harlinn::Common::Core</text>
<text text-anchor="middle" x="213" y="-103" font-family="Helvetica,sans-Serif" font-size="10.00">::Semaphore</text>
</a>
</g>
</g>
<!-- Node0&#45;&gt;Node4 -->
<g id="edge1738_Node000000_Node000004" class="edge">
<title>Node0&#45;&gt;Node4</title>
<g id="a_edge1738_Node000000_Node000004"><a xlink:title=" ">
<path fill="none" stroke="#63b8ff" d="M129.57,-124.01C137.6,-122.75 145.72,-121.47 153.57,-120.23"/>
<polygon fill="#63b8ff" stroke="#63b8ff" points="129.16,-120.54 119.83,-125.55 130.25,-127.45 129.16,-120.54"/>
</a>
</g>
</g>
<!-- Node5 -->
<g id="Node000005" class="node">
<title>Node5</title>
<g id="a_Node000005"><a xlink:href="class_harlinn_1_1_common_1_1_core_1_1_thread.html" target="_top" xlink:title=" ">
<polygon fill="white" stroke="#666666" points="272,-78 154,-78 154,-48 272,-48 272,-78"/>
<text text-anchor="start" x="162" y="-66" font-family="Helvetica,sans-Serif" font-size="10.00">Harlinn::Common::Core</text>
<text text-anchor="middle" x="213" y="-55" font-family="Helvetica,sans-Serif" font-size="10.00">::Thread</text>
</a>
</g>
</g>
<!-- Node0&#45;&gt;Node5 -->
<g id="edge1739_Node000000_Node000005" class="edge">
<title>Node0&#45;&gt;Node5</title>
<g id="a_edge1739_Node000000_Node000005"><a xlink:title=" ">
<path fill="none" stroke="#63b8ff" d="M98.55,-114.44C115.42,-105.67 135.54,-95.52 154,-87 160.23,-84.12 166.91,-81.21 173.44,-78.45"/>
<polygon fill="#63b8ff" stroke="#63b8ff" points="97.08,-111.25 89.85,-118.99 100.33,-117.46 97.08,-111.25"/>
</a>
</g>
</g>
<!-- Node6 -->
<g id="Node000006" class="node">
<title>Node6</title>
<g id="a_Node000006"><a xlink:href="class_harlinn_1_1_common_1_1_core_1_1_waitable_timer.html" target="_top" xlink:title=" ">
<polygon fill="white" stroke="#666666" points="272,-30 154,-30 154,0 272,0 272,-30"/>
<text text-anchor="start" x="162" y="-18" font-family="Helvetica,sans-Serif" font-size="10.00">Harlinn::Common::Core</text>
<text text-anchor="middle" x="213" y="-7" font-family="Helvetica,sans-Serif" font-size="10.00">::WaitableTimer</text>
</a>
</g>
</g>
<!-- Node0&#45;&gt;Node6 -->
<g id="edge1740_Node000000_Node000006" class="edge">
<title>Node0&#45;&gt;Node6</title>
<g id="a_edge1740_Node000000_Node000006"><a xlink:title=" ">
<path fill="none" stroke="#63b8ff" d="M78.64,-111.08C96.2,-89.84 124.2,-59.13 154,-39 158.7,-35.83 163.88,-32.95 169.15,-30.39"/>
<polygon fill="#63b8ff" stroke="#63b8ff" points="76.08,-108.67 72.51,-118.64 81.52,-113.08 76.08,-108.67"/>
</a>
</g>
</g>
</g>
</svg>
