<?xml version="1.0" encoding="UTF-8" standalone="no"?>
<!DOCTYPE svg PUBLIC "-//W3C//DTD SVG 1.1//EN"
 "http://www.w3.org/Graphics/SVG/1.1/DTD/svg11.dtd">
<!-- Generated by graphviz version 7.0.1 (20221109.1506)
 -->
<!-- Title: Graphical Class Hierarchy Pages: 1 -->
<svg width="341pt" height="758pt"
 viewBox="0.00 0.00 341.00 758.00" xmlns="http://www.w3.org/2000/svg" xmlns:xlink="http://www.w3.org/1999/xlink">
<g id="graph0" class="graph" transform="scale(1 1) rotate(0) translate(4 754)">
<title>Graphical Class Hierarchy</title>
<!-- Node0 -->
<g id="Node000000" class="node">
<title>Node0</title>
<g id="a_Node000000"><a xlink:href="class_harlinn_1_1_windows_1_1_window_class.html" target="_top" xlink:title=" ">
<polygon fill="white" stroke="#666666" points="133,-390 0,-390 0,-360 133,-360 133,-390"/>
<text text-anchor="start" x="8" y="-378" font-family="Helvetica,sans-Serif" font-size="10.00">Harlinn::Windows::Window</text>
<text text-anchor="middle" x="66.5" y="-367" font-family="Helvetica,sans-Serif" font-size="10.00">Class</text>
</a>
</g>
</g>
<!-- Node1 -->
<g id="Node000001" class="node">
<title>Node1</title>
<g id="a_Node000001"><a xlink:href="class_harlinn_1_1_windows_1_1_button_window_class.html" target="_top" xlink:title=" ">
<polygon fill="white" stroke="#666666" points="314.5,-750 187.5,-750 187.5,-720 314.5,-720 314.5,-750"/>
<text text-anchor="start" x="195.5" y="-738" font-family="Helvetica,sans-Serif" font-size="10.00">Harlinn::Windows::Button</text>
<text text-anchor="middle" x="251" y="-727" font-family="Helvetica,sans-Serif" font-size="10.00">WindowClass</text>
</a>
</g>
</g>
<!-- Node0&#45;&gt;Node1 -->
<g id="edge1996_Node000000_Node000001" class="edge">
<title>Node0&#45;&gt;Node1</title>
<g id="a_edge1996_Node000000_Node000001"><a xlink:title=" ">
<path fill="none" stroke="#63b8ff" d="M67.48,-401.49C68.92,-464.39 81.51,-623.98 169,-711 174.2,-716.17 180.46,-720.24 187.16,-723.44"/>
<polygon fill="#63b8ff" stroke="#63b8ff" points="70.99,-401.71 67.35,-391.76 63.99,-401.81 70.99,-401.71"/>
</a>
</g>
</g>
<!-- Node2 -->
<g id="Node000002" class="node">
<title>Node2</title>
<g id="a_Node000002"><a xlink:href="class_harlinn_1_1_windows_1_1_combo_box_window_class.html" target="_top" xlink:title=" ">
<polygon fill="white" stroke="#666666" points="324,-702 178,-702 178,-672 324,-672 324,-702"/>
<text text-anchor="start" x="186" y="-690" font-family="Helvetica,sans-Serif" font-size="10.00">Harlinn::Windows::ComboBox</text>
<text text-anchor="middle" x="251" y="-679" font-family="Helvetica,sans-Serif" font-size="10.00">WindowClass</text>
</a>
</g>
</g>
<!-- Node0&#45;&gt;Node2 -->
<g id="edge1997_Node000000_Node000002" class="edge">
<title>Node0&#45;&gt;Node2</title>
<g id="a_edge1997_Node000000_Node000002"><a xlink:title=" ">
<path fill="none" stroke="#63b8ff" d="M69.05,-401.54C73.81,-457.98 92.93,-590.69 169,-663 172.51,-666.33 176.46,-669.21 180.68,-671.68"/>
<polygon fill="#63b8ff" stroke="#63b8ff" points="72.57,-401.62 68.34,-391.91 65.59,-402.14 72.57,-401.62"/>
</a>
</g>
</g>
<!-- Node3 -->
<g id="Node000003" class="node">
<title>Node3</title>
<g id="a_Node000003"><a xlink:href="class_harlinn_1_1_windows_1_1_control_window_class.html" target="_top" xlink:title=" ">
<polygon fill="white" stroke="#666666" points="315.5,-654 186.5,-654 186.5,-624 315.5,-624 315.5,-654"/>
<text text-anchor="start" x="194.5" y="-642" font-family="Helvetica,sans-Serif" font-size="10.00">Harlinn::Windows::Control</text>
<text text-anchor="middle" x="251" y="-631" font-family="Helvetica,sans-Serif" font-size="10.00">WindowClass</text>
</a>
</g>
</g>
<!-- Node0&#45;&gt;Node3 -->
<g id="edge1998_Node000000_Node000003" class="edge">
<title>Node0&#45;&gt;Node3</title>
<g id="a_edge1998_Node000000_Node000003"><a xlink:title=" ">
<path fill="none" stroke="#63b8ff" d="M71.19,-401.48C79.47,-450.82 104.17,-557.05 169,-615 174.03,-619.5 179.87,-623.15 186.06,-626.12"/>
<polygon fill="#63b8ff" stroke="#63b8ff" points="74.67,-401.06 69.66,-391.72 67.75,-402.15 74.67,-401.06"/>
</a>
</g>
</g>
<!-- Node4 -->
<g id="Node000004" class="node">
<title>Node4</title>
<g id="a_Node000004"><a xlink:href="class_harlinn_1_1_windows_1_1_date_time_picker_window_class.html" target="_top" xlink:title=" ">
<polygon fill="white" stroke="#666666" points="321,-606 181,-606 181,-576 321,-576 321,-606"/>
<text text-anchor="start" x="189" y="-594" font-family="Helvetica,sans-Serif" font-size="10.00">Harlinn::Windows::DateTime</text>
<text text-anchor="middle" x="251" y="-583" font-family="Helvetica,sans-Serif" font-size="10.00">PickerWindowClass</text>
</a>
</g>
</g>
<!-- Node0&#45;&gt;Node4 -->
<g id="edge1999_Node000000_Node000004" class="edge">
<title>Node0&#45;&gt;Node4</title>
<g id="a_edge1999_Node000000_Node000004"><a xlink:title=" ">
<path fill="none" stroke="#63b8ff" d="M74.27,-401.38C86.28,-442.82 115.24,-522.97 169,-567 173.08,-570.35 177.62,-573.23 182.4,-575.7"/>
<polygon fill="#63b8ff" stroke="#63b8ff" points="77.65,-400.47 71.61,-391.77 70.91,-402.34 77.65,-400.47"/>
</a>
</g>
</g>
<!-- Node5 -->
<g id="Node000005" class="node">
<title>Node5</title>
<g id="a_Node000005"><a xlink:href="class_harlinn_1_1_windows_1_1_form_window_class.html" target="_top" xlink:title=" ">
<polygon fill="white" stroke="#666666" points="328.5,-558 173.5,-558 173.5,-528 328.5,-528 328.5,-558"/>
<text text-anchor="start" x="181.5" y="-546" font-family="Helvetica,sans-Serif" font-size="10.00">Harlinn::Windows::FormWindow</text>
<text text-anchor="middle" x="251" y="-535" font-family="Helvetica,sans-Serif" font-size="10.00">Class</text>
</a>
</g>
</g>
<!-- Node0&#45;&gt;Node5 -->
<g id="edge2000_Node000000_Node000005" class="edge">
<title>Node0&#45;&gt;Node5</title>
<g id="a_edge2000_Node000000_Node000005"><a xlink:title=" ">
<path fill="none" stroke="#63b8ff" d="M78.89,-400.57C94.58,-432.89 125.88,-488.05 169,-519 173.65,-522.33 178.76,-525.21 184.08,-527.69"/>
<polygon fill="#63b8ff" stroke="#63b8ff" points="82.06,-399.09 74.64,-391.53 75.73,-402.07 82.06,-399.09"/>
</a>
</g>
</g>
<!-- Node6 -->
<g id="Node000006" class="node">
<title>Node6</title>
<g id="a_Node000006"><a xlink:href="class_harlinn_1_1_windows_1_1_group_box_window_class.html" target="_top" xlink:title=" ">
<polygon fill="white" stroke="#666666" points="322,-510 180,-510 180,-480 322,-480 322,-510"/>
<text text-anchor="start" x="188" y="-498" font-family="Helvetica,sans-Serif" font-size="10.00">Harlinn::Windows::GroupBox</text>
<text text-anchor="middle" x="251" y="-487" font-family="Helvetica,sans-Serif" font-size="10.00">WindowClass</text>
</a>
</g>
</g>
<!-- Node0&#45;&gt;Node6 -->
<g id="edge2001_Node000000_Node000006" class="edge">
<title>Node0&#45;&gt;Node6</title>
<g id="a_edge2001_Node000000_Node000006"><a xlink:title=" ">
<path fill="none" stroke="#63b8ff" d="M86.95,-398.96C105.8,-420.69 136.27,-452.14 169,-471 174.59,-474.22 180.65,-477.05 186.86,-479.51"/>
<polygon fill="#63b8ff" stroke="#63b8ff" points="89.72,-396.82 80.59,-391.46 84.38,-401.35 89.72,-396.82"/>
</a>
</g>
</g>
<!-- Node7 -->
<g id="Node000007" class="node">
<title>Node7</title>
<g id="a_Node000007"><a xlink:href="class_harlinn_1_1_windows_1_1_header_control_window_class.html" target="_top" xlink:title=" ">
<polygon fill="white" stroke="#666666" points="315.5,-462 186.5,-462 186.5,-432 315.5,-432 315.5,-462"/>
<text text-anchor="start" x="194.5" y="-450" font-family="Helvetica,sans-Serif" font-size="10.00">Harlinn::Windows::Header</text>
<text text-anchor="middle" x="251" y="-439" font-family="Helvetica,sans-Serif" font-size="10.00">ControlWindowClass</text>
</a>
</g>
</g>
<!-- Node0&#45;&gt;Node7 -->
<g id="edge2002_Node000000_Node000007" class="edge">
<title>Node0&#45;&gt;Node7</title>
<g id="a_edge2002_Node000000_Node000007"><a xlink:title=" ">
<path fill="none" stroke="#63b8ff" d="M106.87,-395.35C125.43,-404.49 148.05,-415 169,-423 176.95,-426.04 185.45,-428.93 193.85,-431.59"/>
<polygon fill="#63b8ff" stroke="#63b8ff" points="108.6,-392.3 98.09,-390.97 105.48,-398.57 108.6,-392.3"/>
</a>
</g>
</g>
<!-- Node8 -->
<g id="Node000008" class="node">
<title>Node8</title>
<g id="a_Node000008"><a xlink:href="class_harlinn_1_1_windows_1_1_hot_key_window_class.html" target="_top" xlink:title=" ">
<polygon fill="white" stroke="#666666" points="316.5,-414 185.5,-414 185.5,-384 316.5,-384 316.5,-414"/>
<text text-anchor="start" x="193.5" y="-402" font-family="Helvetica,sans-Serif" font-size="10.00">Harlinn::Windows::HotKey</text>
<text text-anchor="middle" x="251" y="-391" font-family="Helvetica,sans-Serif" font-size="10.00">WindowClass</text>
</a>
</g>
</g>
<!-- Node0&#45;&gt;Node8 -->
<g id="edge2003_Node000000_Node000008" class="edge">
<title>Node0&#45;&gt;Node8</title>
<g id="a_edge2003_Node000000_Node000008"><a xlink:title=" ">
<path fill="none" stroke="#63b8ff" d="M144.6,-385.14C158.09,-386.91 172.01,-388.74 185.13,-390.47"/>
<polygon fill="#63b8ff" stroke="#63b8ff" points="145.26,-381.7 134.89,-383.86 144.35,-388.64 145.26,-381.7"/>
</a>
</g>
</g>
<!-- Node9 -->
<g id="Node000009" class="node">
<title>Node9</title>
<g id="a_Node000009"><a xlink:href="class_harlinn_1_1_windows_1_1_label_window_class.html" target="_top" xlink:title=" ">
<polygon fill="white" stroke="#666666" points="329,-366 173,-366 173,-336 329,-336 329,-366"/>
<text text-anchor="start" x="181" y="-354" font-family="Helvetica,sans-Serif" font-size="10.00">Harlinn::Windows::LabelWindow</text>
<text text-anchor="middle" x="251" y="-343" font-family="Helvetica,sans-Serif" font-size="10.00">Class</text>
</a>
</g>
</g>
<!-- Node0&#45;&gt;Node9 -->
<g id="edge2004_Node000000_Node000009" class="edge">
<title>Node0&#45;&gt;Node9</title>
<g id="a_edge2004_Node000000_Node000009"><a xlink:title=" ">
<path fill="none" stroke="#63b8ff" d="M144.61,-364.86C153.91,-363.64 163.41,-362.39 172.72,-361.16"/>
<polygon fill="#63b8ff" stroke="#63b8ff" points="144.35,-361.36 134.89,-366.14 145.26,-368.3 144.35,-361.36"/>
</a>
</g>
</g>
<!-- Node10 -->
<g id="Node000010" class="node">
<title>Node10</title>
<g id="a_Node000010"><a xlink:href="class_harlinn_1_1_windows_1_1_link_label_window_class.html" target="_top" xlink:title=" ">
<polygon fill="white" stroke="#666666" points="321,-318 181,-318 181,-288 321,-288 321,-318"/>
<text text-anchor="start" x="189" y="-306" font-family="Helvetica,sans-Serif" font-size="10.00">Harlinn::Windows::LinkLabel</text>
<text text-anchor="middle" x="251" y="-295" font-family="Helvetica,sans-Serif" font-size="10.00">WindowClass</text>
</a>
</g>
</g>
<!-- Node0&#45;&gt;Node10 -->
<g id="edge2005_Node000000_Node000010" class="edge">
<title>Node0&#45;&gt;Node10</title>
<g id="a_edge2005_Node000000_Node000010"><a xlink:title=" ">
<path fill="none" stroke="#63b8ff" d="M106.87,-354.65C125.43,-345.51 148.05,-335 169,-327 176.95,-323.96 185.45,-321.07 193.85,-318.41"/>
<polygon fill="#63b8ff" stroke="#63b8ff" points="105.48,-351.43 98.09,-359.03 108.6,-357.7 105.48,-351.43"/>
</a>
</g>
</g>
<!-- Node11 -->
<g id="Node000011" class="node">
<title>Node11</title>
<g id="a_Node000011"><a xlink:href="class_harlinn_1_1_windows_1_1_list_box_window_class.html" target="_top" xlink:title=" ">
<polygon fill="white" stroke="#666666" points="316.5,-270 185.5,-270 185.5,-240 316.5,-240 316.5,-270"/>
<text text-anchor="start" x="193.5" y="-258" font-family="Helvetica,sans-Serif" font-size="10.00">Harlinn::Windows::ListBox</text>
<text text-anchor="middle" x="251" y="-247" font-family="Helvetica,sans-Serif" font-size="10.00">WindowClass</text>
</a>
</g>
</g>
<!-- Node0&#45;&gt;Node11 -->
<g id="edge2006_Node000000_Node000011" class="edge">
<title>Node0&#45;&gt;Node11</title>
<g id="a_edge2006_Node000000_Node000011"><a xlink:title=" ">
<path fill="none" stroke="#63b8ff" d="M86.95,-351.04C105.8,-329.31 136.27,-297.86 169,-279 174.59,-275.78 180.65,-272.95 186.86,-270.49"/>
<polygon fill="#63b8ff" stroke="#63b8ff" points="84.38,-348.65 80.59,-358.54 89.72,-353.18 84.38,-348.65"/>
</a>
</g>
</g>
<!-- Node12 -->
<g id="Node000012" class="node">
<title>Node12</title>
<g id="a_Node000012"><a xlink:href="class_harlinn_1_1_windows_1_1_list_view_window_class.html" target="_top" xlink:title=" ">
<polygon fill="white" stroke="#666666" points="318.5,-222 183.5,-222 183.5,-192 318.5,-192 318.5,-222"/>
<text text-anchor="start" x="191.5" y="-210" font-family="Helvetica,sans-Serif" font-size="10.00">Harlinn::Windows::ListView</text>
<text text-anchor="middle" x="251" y="-199" font-family="Helvetica,sans-Serif" font-size="10.00">WindowClass</text>
</a>
</g>
</g>
<!-- Node0&#45;&gt;Node12 -->
<g id="edge2007_Node000000_Node000012" class="edge">
<title>Node0&#45;&gt;Node12</title>
<g id="a_edge2007_Node000000_Node000012"><a xlink:title=" ">
<path fill="none" stroke="#63b8ff" d="M78.89,-349.43C94.58,-317.11 125.88,-261.95 169,-231 173.65,-227.67 178.76,-224.79 184.08,-222.31"/>
<polygon fill="#63b8ff" stroke="#63b8ff" points="75.73,-347.93 74.64,-358.47 82.06,-350.91 75.73,-347.93"/>
</a>
</g>
</g>
<!-- Node13 -->
<g id="Node000013" class="node">
<title>Node13</title>
<g id="a_Node000013"><a xlink:href="class_harlinn_1_1_windows_1_1_month_calendar_window_class.html" target="_top" xlink:title=" ">
<polygon fill="white" stroke="#666666" points="333,-174 169,-174 169,-144 333,-144 333,-174"/>
<text text-anchor="start" x="177" y="-162" font-family="Helvetica,sans-Serif" font-size="10.00">Harlinn::Windows::MonthCalendar</text>
<text text-anchor="middle" x="251" y="-151" font-family="Helvetica,sans-Serif" font-size="10.00">WindowClass</text>
</a>
</g>
</g>
<!-- Node0&#45;&gt;Node13 -->
<g id="edge2008_Node000000_Node000013" class="edge">
<title>Node0&#45;&gt;Node13</title>
<g id="a_edge2008_Node000000_Node000013"><a xlink:title=" ">
<path fill="none" stroke="#63b8ff" d="M74.27,-348.62C86.28,-307.18 115.24,-227.03 169,-183 173.08,-179.65 177.62,-176.77 182.4,-174.3"/>
<polygon fill="#63b8ff" stroke="#63b8ff" points="70.91,-347.66 71.61,-358.23 77.65,-349.53 70.91,-347.66"/>
</a>
</g>
</g>
<!-- Node14 -->
<g id="Node000014" class="node">
<title>Node14</title>
<g id="a_Node000014"><a xlink:href="class_harlinn_1_1_windows_1_1_scroll_bar_window_class.html" target="_top" xlink:title=" ">
<polygon fill="white" stroke="#666666" points="312.5,-126 189.5,-126 189.5,-96 312.5,-96 312.5,-126"/>
<text text-anchor="start" x="197.5" y="-114" font-family="Helvetica,sans-Serif" font-size="10.00">Harlinn::Windows::Scroll</text>
<text text-anchor="middle" x="251" y="-103" font-family="Helvetica,sans-Serif" font-size="10.00">BarWindowClass</text>
</a>
</g>
</g>
<!-- Node0&#45;&gt;Node14 -->
<g id="edge2009_Node000000_Node000014" class="edge">
<title>Node0&#45;&gt;Node14</title>
<g id="a_edge2009_Node000000_Node000014"><a xlink:title=" ">
<path fill="none" stroke="#63b8ff" d="M71.19,-348.52C79.47,-299.18 104.17,-192.95 169,-135 174.91,-129.72 181.92,-125.6 189.32,-122.39"/>
<polygon fill="#63b8ff" stroke="#63b8ff" points="67.75,-347.85 69.66,-358.28 74.67,-348.94 67.75,-347.85"/>
</a>
</g>
</g>
<!-- Node15 -->
<g id="Node000015" class="node">
<title>Node15</title>
<g id="a_Node000015"><a xlink:href="class_harlinn_1_1_windows_1_1_text_edit_window_class.html" target="_top" xlink:title=" ">
<polygon fill="white" stroke="#666666" points="318,-78 184,-78 184,-48 318,-48 318,-78"/>
<text text-anchor="start" x="192" y="-66" font-family="Helvetica,sans-Serif" font-size="10.00">Harlinn::Windows::TextEdit</text>
<text text-anchor="middle" x="251" y="-55" font-family="Helvetica,sans-Serif" font-size="10.00">WindowClass</text>
</a>
</g>
</g>
<!-- Node0&#45;&gt;Node15 -->
<g id="edge2010_Node000000_Node000015" class="edge">
<title>Node0&#45;&gt;Node15</title>
<g id="a_edge2010_Node000000_Node000015"><a xlink:title=" ">
<path fill="none" stroke="#63b8ff" d="M69.05,-348.46C73.81,-292.02 92.93,-159.31 169,-87 173.36,-82.86 178.4,-79.43 183.79,-76.58"/>
<polygon fill="#63b8ff" stroke="#63b8ff" points="65.59,-347.86 68.34,-358.09 72.57,-348.38 65.59,-347.86"/>
</a>
</g>
</g>
<!-- Node16 -->
<g id="Node000016" class="node">
<title>Node16</title>
<g id="a_Node000016"><a xlink:href="class_harlinn_1_1_windows_1_1_tree_view_window_class.html" target="_top" xlink:title=" ">
<polygon fill="white" stroke="#666666" points="320,-30 182,-30 182,0 320,0 320,-30"/>
<text text-anchor="start" x="190" y="-18" font-family="Helvetica,sans-Serif" font-size="10.00">Harlinn::Windows::TreeView</text>
<text text-anchor="middle" x="251" y="-7" font-family="Helvetica,sans-Serif" font-size="10.00">WindowClass</text>
</a>
</g>
</g>
<!-- Node0&#45;&gt;Node16 -->
<g id="edge2011_Node000000_Node000016" class="edge">
<title>Node0&#45;&gt;Node16</title>
<g id="a_edge2011_Node000000_Node000016"><a xlink:title=" ">
<path fill="none" stroke="#63b8ff" d="M67.48,-348.51C68.92,-285.61 81.51,-126.02 169,-39 172.74,-35.28 177.04,-32.13 181.65,-29.46"/>
<polygon fill="#63b8ff" stroke="#63b8ff" points="63.99,-348.19 67.35,-358.24 70.99,-348.29 63.99,-348.19"/>
</a>
</g>
</g>
</g>
</svg>
