<?xml version="1.0" encoding="UTF-8" standalone="no"?>
<!DOCTYPE svg PUBLIC "-//W3C//DTD SVG 1.1//EN"
 "http://www.w3.org/Graphics/SVG/1.1/DTD/svg11.dtd">
<!-- Generated by graphviz version 7.0.1 (20221109.1506)
 -->
<!-- Title: Graphical Class Hierarchy Pages: 1 -->
<svg width="318pt" height="76pt"
 viewBox="0.00 0.00 318.00 75.50" xmlns="http://www.w3.org/2000/svg" xmlns:xlink="http://www.w3.org/1999/xlink">
<g id="graph0" class="graph" transform="scale(1 1) rotate(0) translate(4 71.5)">
<title>Graphical Class Hierarchy</title>
<!-- Node0 -->
<g id="Node000000" class="node">
<title>Node0</title>
<g id="a_Node000000"><a xlink:href="class_harlinn_1_1_common_1_1_core_1_1_timer_queue_timer_1_1_args.html" target="_top" xlink:title=" ">
<polygon fill="white" stroke="#666666" points="125,-67.5 0,-67.5 0,-37.5 125,-37.5 125,-67.5"/>
<text text-anchor="start" x="8" y="-55.5" font-family="Helvetica,sans-Serif" font-size="10.00">Harlinn::Common::Core</text>
<text text-anchor="middle" x="62.5" y="-44.5" font-family="Helvetica,sans-Serif" font-size="10.00">::TimerQueueTimer::Args</text>
</a>
</g>
</g>
<!-- Node1 -->
<g id="Node000001" class="node">
<title>Node1</title>
<g id="a_Node000001"><a xlink:href="class_harlinn_1_1_common_1_1_core_1_1_timer_queue_timer_1_1_args_tuple.html" target="_top" xlink:title=" ">
<polygon fill="white" stroke="#666666" points="310,-51 161,-51 161,-10 310,-10 310,-51"/>
<text text-anchor="start" x="169" y="-39" font-family="Helvetica,sans-Serif" font-size="10.00">Harlinn::Common::Core</text>
<text text-anchor="start" x="169" y="-28" font-family="Helvetica,sans-Serif" font-size="10.00">::TimerQueueTimer::ArgsTuple</text>
<text text-anchor="middle" x="235.5" y="-17" font-family="Helvetica,sans-Serif" font-size="10.00">&lt; Types &gt;</text>
</a>
</g>
</g>
<!-- Node0&#45;&gt;Node1 -->
<g id="edge865_Node000000_Node000001" class="edge">
<title>Node0&#45;&gt;Node1</title>
<g id="a_edge865_Node000000_Node000001"><a xlink:title=" ">
<path fill="none" stroke="#63b8ff" d="M136.43,-43.12C144.44,-42.09 152.6,-41.04 160.62,-40.01"/>
<polygon fill="#63b8ff" stroke="#63b8ff" points="136.21,-39.62 126.74,-44.36 137.1,-46.56 136.21,-39.62"/>
</a>
</g>
</g>
<!-- Node2 -->
<g id="Node000002" class="node">
<title>Node2</title>
<g id="a_Node000002"><a xlink:title=" ">
<polygon fill="#e0e0e0" stroke="#999999" points="91,-19 34,-19 34,0 91,0 91,-19"/>
<text text-anchor="middle" x="62.5" y="-7" font-family="Helvetica,sans-Serif" font-size="10.00">std::tuple</text>
</a>
</g>
</g>
<!-- Node2&#45;&gt;Node1 -->
<g id="edge866_Node000002_Node000001" class="edge">
<title>Node2&#45;&gt;Node1</title>
<g id="a_edge866_Node000002_Node000001"><a xlink:title=" ">
<path fill="none" stroke="#63b8ff" d="M102.63,-14.31C119.82,-16.42 140.6,-18.97 160.53,-21.42"/>
<polygon fill="#63b8ff" stroke="#63b8ff" points="103.21,-10.85 92.86,-13.11 102.36,-17.8 103.21,-10.85"/>
</a>
</g>
</g>
</g>
</svg>
