<?xml version="1.0" encoding="UTF-8" standalone="no"?>
<!DOCTYPE svg PUBLIC "-//W3C//DTD SVG 1.1//EN"
 "http://www.w3.org/Graphics/SVG/1.1/DTD/svg11.dtd">
<!-- Generated by graphviz version 7.0.1 (20221109.1506)
 -->
<!-- Title: Graphical Class Hierarchy Pages: 1 -->
<svg width="516pt" height="92pt"
 viewBox="0.00 0.00 516.00 91.50" xmlns="http://www.w3.org/2000/svg" xmlns:xlink="http://www.w3.org/1999/xlink">
<g id="graph0" class="graph" transform="scale(1 1) rotate(0) translate(4 87.5)">
<title>Graphical Class Hierarchy</title>
<!-- Node0 -->
<g id="Node000000" class="node">
<title>Node0</title>
<g id="a_Node000000"><a xlink:href="class_harlinn_1_1_common_1_1_core_1_1_l_m_d_b_ex_1_1_database_base.xhtml" target="_top" xlink:title=" ">
<polygon fill="white" stroke="#666666" points="131,-54 0,-54 0,-24 131,-24 131,-54"/>
<text text-anchor="start" x="8" y="-42" font-family="Helvetica,sans-Serif" font-size="10.00">Harlinn::Common::Core</text>
<text text-anchor="middle" x="65.5" y="-31" font-family="Helvetica,sans-Serif" font-size="10.00">::LMDBEx::DatabaseBase</text>
</a>
</g>
</g>
<!-- Node1 -->
<g id="Node000001" class="node">
<title>Node1</title>
<g id="a_Node000001"><a xlink:href="class_harlinn_1_1_common_1_1_core_1_1_l_m_d_b_ex_1_1_database.xhtml" target="_top" xlink:title=" ">
<polygon fill="white" stroke="#666666" points="345,-78 167,-78 167,-48 345,-48 345,-78"/>
<text text-anchor="start" x="175" y="-66" font-family="Helvetica,sans-Serif" font-size="10.00">Harlinn::Common::Core</text>
<text text-anchor="middle" x="256" y="-55" font-family="Helvetica,sans-Serif" font-size="10.00">::LMDBEx::Database&lt; LogSession &gt;</text>
</a>
</g>
</g>
<!-- Node0&#45;&gt;Node1 -->
<g id="edge505_Node000000_Node000001" class="edge">
<title>Node0&#45;&gt;Node1</title>
<g id="a_edge505_Node000000_Node000001"><a xlink:title=" ">
<path fill="none" stroke="#63b8ff" d="M142.77,-48.71C150.65,-49.71 158.7,-50.74 166.7,-51.76"/>
<polygon fill="#63b8ff" stroke="#63b8ff" points="143.23,-45.24 132.87,-47.45 142.35,-52.19 143.23,-45.24"/>
</a>
</g>
</g>
<!-- Node3 -->
<g id="Node000003" class="node">
<title>Node3</title>
<g id="a_Node000003"><a xlink:href="class_harlinn_1_1_common_1_1_core_1_1_l_m_d_b_ex_1_1_database.xhtml" target="_top" xlink:title=" ">
<polygon fill="white" stroke="#666666" points="339.5,-30 172.5,-30 172.5,0 339.5,0 339.5,-30"/>
<text text-anchor="start" x="180.5" y="-18" font-family="Helvetica,sans-Serif" font-size="10.00">Harlinn::Common::Core</text>
<text text-anchor="middle" x="256" y="-7" font-family="Helvetica,sans-Serif" font-size="10.00">::LMDBEx::Database&lt; SessionT &gt;</text>
</a>
</g>
</g>
<!-- Node0&#45;&gt;Node3 -->
<g id="edge507_Node000000_Node000003" class="edge">
<title>Node0&#45;&gt;Node3</title>
<g id="a_edge507_Node000000_Node000003"><a xlink:title=" ">
<path fill="none" stroke="#63b8ff" d="M142.6,-29.31C152.29,-28.08 162.24,-26.81 172.03,-25.56"/>
<polygon fill="#63b8ff" stroke="#63b8ff" points="142.35,-25.81 132.87,-30.55 143.23,-32.76 142.35,-25.81"/>
</a>
</g>
</g>
<!-- Node2 -->
<g id="Node000002" class="node">
<title>Node2</title>
<g id="a_Node000002"><a xlink:href="class_harlinn_1_1_common_1_1_core_1_1_logging_1_1_sinks_1_1_storage_1_1_log_database.xhtml" target="_top" xlink:title="LogDatabase.">
<polygon fill="white" stroke="#666666" points="508,-83.5 381,-83.5 381,-42.5 508,-42.5 508,-83.5"/>
<text text-anchor="start" x="389" y="-71.5" font-family="Helvetica,sans-Serif" font-size="10.00">Harlinn::Common::Core</text>
<text text-anchor="start" x="389" y="-60.5" font-family="Helvetica,sans-Serif" font-size="10.00">::Logging::Sinks::Storage</text>
<text text-anchor="middle" x="444.5" y="-49.5" font-family="Helvetica,sans-Serif" font-size="10.00">::LogDatabase</text>
</a>
</g>
</g>
<!-- Node1&#45;&gt;Node2 -->
<g id="edge506_Node000001_Node000002" class="edge">
<title>Node1&#45;&gt;Node2</title>
<g id="a_edge506_Node000001_Node000002"><a xlink:title=" ">
<path fill="none" stroke="#63b8ff" d="M356.83,-63C364.95,-63 373,-63 380.74,-63"/>
<polygon fill="#63b8ff" stroke="#63b8ff" points="356.85,-59.5 346.85,-63 356.85,-66.5 356.85,-59.5"/>
</a>
</g>
</g>
</g>
</svg>
