<?xml version="1.0" encoding="UTF-8" standalone="no"?>
<!DOCTYPE svg PUBLIC "-//W3C//DTD SVG 1.1//EN"
 "http://www.w3.org/Graphics/SVG/1.1/DTD/svg11.dtd">
<!-- Generated by graphviz version 7.0.1 (20221109.1506)
 -->
<!-- Title: Graphical Class Hierarchy Pages: 1 -->
<svg width="528pt" height="86pt"
 viewBox="0.00 0.00 528.00 86.00" xmlns="http://www.w3.org/2000/svg" xmlns:xlink="http://www.w3.org/1999/xlink">
<g id="graph0" class="graph" transform="scale(1 1) rotate(0) translate(4 82)">
<title>Graphical Class Hierarchy</title>
<!-- Node0 -->
<g id="Node000000" class="node">
<title>Node0</title>
<g id="a_Node000000"><a xlink:href="class_harlinn_1_1_common_1_1_core_1_1_rapid_xml_1_1_xml_base.html" target="_top" xlink:title=" ">
<polygon fill="white" stroke="#666666" points="137,-54 0,-54 0,-24 137,-24 137,-54"/>
<text text-anchor="start" x="8" y="-42" font-family="Helvetica,sans-Serif" font-size="10.00">Harlinn::Common::Core</text>
<text text-anchor="middle" x="68.5" y="-31" font-family="Helvetica,sans-Serif" font-size="10.00">::RapidXml::XmlBase&lt; Ch &gt;</text>
</a>
</g>
</g>
<!-- Node1 -->
<g id="Node000001" class="node">
<title>Node1</title>
<g id="a_Node000001"><a xlink:href="class_harlinn_1_1_common_1_1_core_1_1_rapid_xml_1_1_xml_attribute.html" target="_top" xlink:title=" ">
<polygon fill="white" stroke="#666666" points="325,-78 173,-78 173,-48 325,-48 325,-78"/>
<text text-anchor="start" x="181" y="-66" font-family="Helvetica,sans-Serif" font-size="10.00">Harlinn::Common::Core</text>
<text text-anchor="middle" x="249" y="-55" font-family="Helvetica,sans-Serif" font-size="10.00">::RapidXml::XmlAttribute&lt; Ch &gt;</text>
</a>
</g>
</g>
<!-- Node0&#45;&gt;Node1 -->
<g id="edge605_Node000000_Node000001" class="edge">
<title>Node0&#45;&gt;Node1</title>
<g id="a_edge605_Node000000_Node000001"><a xlink:title=" ">
<path fill="none" stroke="#63b8ff" d="M148.7,-49.65C156.69,-50.72 164.8,-51.81 172.75,-52.88"/>
<polygon fill="#63b8ff" stroke="#63b8ff" points="149.37,-46.21 138.99,-48.34 148.44,-53.14 149.37,-46.21"/>
</a>
</g>
</g>
<!-- Node2 -->
<g id="Node000002" class="node">
<title>Node2</title>
<g id="a_Node000002"><a xlink:href="class_harlinn_1_1_common_1_1_core_1_1_rapid_xml_1_1_xml_node.html" target="_top" xlink:title=" ">
<polygon fill="white" stroke="#666666" points="317.5,-30 180.5,-30 180.5,0 317.5,0 317.5,-30"/>
<text text-anchor="start" x="188.5" y="-18" font-family="Helvetica,sans-Serif" font-size="10.00">Harlinn::Common::Core</text>
<text text-anchor="middle" x="249" y="-7" font-family="Helvetica,sans-Serif" font-size="10.00">::RapidXml::XmlNode&lt; Ch &gt;</text>
</a>
</g>
</g>
<!-- Node0&#45;&gt;Node2 -->
<g id="edge606_Node000000_Node000002" class="edge">
<title>Node0&#45;&gt;Node2</title>
<g id="a_edge606_Node000000_Node000002"><a xlink:title=" ">
<path fill="none" stroke="#63b8ff" d="M148.77,-28.34C159.26,-26.93 169.93,-25.5 180.2,-24.12"/>
<polygon fill="#63b8ff" stroke="#63b8ff" points="148.44,-24.86 138.99,-29.66 149.37,-31.79 148.44,-24.86"/>
</a>
</g>
</g>
<!-- Node3 -->
<g id="Node000003" class="node">
<title>Node3</title>
<g id="a_Node000003"><a xlink:href="class_harlinn_1_1_common_1_1_core_1_1_rapid_xml_1_1_xml_document.html" target="_top" xlink:title=" ">
<polygon fill="white" stroke="#666666" points="520,-30 361,-30 361,0 520,0 520,-30"/>
<text text-anchor="start" x="369" y="-18" font-family="Helvetica,sans-Serif" font-size="10.00">Harlinn::Common::Core</text>
<text text-anchor="middle" x="440.5" y="-7" font-family="Helvetica,sans-Serif" font-size="10.00">::RapidXml::XmlDocument&lt; Ch &gt;</text>
</a>
</g>
</g>
<!-- Node2&#45;&gt;Node3 -->
<g id="edge607_Node000002_Node000003" class="edge">
<title>Node2&#45;&gt;Node3</title>
<g id="a_edge607_Node000002_Node000003"><a xlink:title=" ">
<path fill="none" stroke="#63b8ff" d="M329.12,-15C339.59,-15 350.33,-15 360.8,-15"/>
<polygon fill="#63b8ff" stroke="#63b8ff" points="329.39,-11.5 319.39,-15 329.39,-18.5 329.39,-11.5"/>
</a>
</g>
</g>
</g>
</svg>
