<?xml version="1.0" encoding="UTF-8" standalone="no"?>
<!DOCTYPE svg PUBLIC "-//W3C//DTD SVG 1.1//EN"
 "http://www.w3.org/Graphics/SVG/1.1/DTD/svg11.dtd">
<!-- Generated by graphviz version 7.0.1 (20221109.1506)
 -->
<!-- Title: Graphical Class Hierarchy Pages: 1 -->
<svg width="280pt" height="86pt"
 viewBox="0.00 0.00 280.00 86.00" xmlns="http://www.w3.org/2000/svg" xmlns:xlink="http://www.w3.org/1999/xlink">
<g id="graph0" class="graph" transform="scale(1 1) rotate(0) translate(4 82)">
<title>Graphical Class Hierarchy</title>
<!-- Node0 -->
<g id="Node000000" class="node">
<title>Node0</title>
<g id="a_Node000000"><a xlink:href="class_harlinn_1_1_common_1_1_core_1_1_time_base.xhtml" target="_top" xlink:title=" ">
<polygon fill="white" stroke="#666666" points="118,-54 0,-54 0,-24 118,-24 118,-54"/>
<text text-anchor="start" x="8" y="-42" font-family="Helvetica,sans-Serif" font-size="10.00">Harlinn::Common::Core</text>
<text text-anchor="middle" x="59" y="-31" font-family="Helvetica,sans-Serif" font-size="10.00">::TimeBase</text>
</a>
</g>
</g>
<!-- Node1 -->
<g id="Node000001" class="node">
<title>Node1</title>
<g id="a_Node000001"><a xlink:href="class_harlinn_1_1_common_1_1_core_1_1_date_time.xhtml" target="_top" xlink:title=" ">
<polygon fill="white" stroke="#666666" points="272,-78 154,-78 154,-48 272,-48 272,-78"/>
<text text-anchor="start" x="162" y="-66" font-family="Helvetica,sans-Serif" font-size="10.00">Harlinn::Common::Core</text>
<text text-anchor="middle" x="213" y="-55" font-family="Helvetica,sans-Serif" font-size="10.00">::DateTime</text>
</a>
</g>
</g>
<!-- Node0&#45;&gt;Node1 -->
<g id="edge651_Node000000_Node000001" class="edge">
<title>Node0&#45;&gt;Node1</title>
<g id="a_edge651_Node000000_Node000001"><a xlink:title=" ">
<path fill="none" stroke="#63b8ff" d="M129.57,-49.99C137.6,-51.25 145.72,-52.53 153.57,-53.77"/>
<polygon fill="#63b8ff" stroke="#63b8ff" points="130.25,-46.55 119.83,-48.45 129.16,-53.46 130.25,-46.55"/>
</a>
</g>
</g>
<!-- Node2 -->
<g id="Node000002" class="node">
<title>Node2</title>
<g id="a_Node000002"><a xlink:href="class_harlinn_1_1_common_1_1_core_1_1_time_span.xhtml" target="_top" xlink:title=" ">
<polygon fill="white" stroke="#666666" points="272,-30 154,-30 154,0 272,0 272,-30"/>
<text text-anchor="start" x="162" y="-18" font-family="Helvetica,sans-Serif" font-size="10.00">Harlinn::Common::Core</text>
<text text-anchor="middle" x="213" y="-7" font-family="Helvetica,sans-Serif" font-size="10.00">::TimeSpan</text>
</a>
</g>
</g>
<!-- Node0&#45;&gt;Node2 -->
<g id="edge652_Node000000_Node000002" class="edge">
<title>Node0&#45;&gt;Node2</title>
<g id="a_edge652_Node000000_Node000002"><a xlink:title=" ">
<path fill="none" stroke="#63b8ff" d="M129.57,-28.01C137.6,-26.75 145.72,-25.47 153.57,-24.23"/>
<polygon fill="#63b8ff" stroke="#63b8ff" points="129.16,-24.54 119.83,-29.55 130.25,-31.45 129.16,-24.54"/>
</a>
</g>
</g>
</g>
</svg>
