<?xml version="1.0" encoding="UTF-8" standalone="no"?>
<!DOCTYPE svg PUBLIC "-//W3C//DTD SVG 1.1//EN"
 "http://www.w3.org/Graphics/SVG/1.1/DTD/svg11.dtd">
<!-- Generated by graphviz version 7.0.1 (20221109.1506)
 -->
<!-- Title: Graphical Class Hierarchy Pages: 1 -->
<svg width="368pt" height="806pt"
 viewBox="0.00 0.00 368.00 806.00" xmlns="http://www.w3.org/2000/svg" xmlns:xlink="http://www.w3.org/1999/xlink">
<g id="graph0" class="graph" transform="scale(1 1) rotate(0) translate(4 802)">
<title>Graphical Class Hierarchy</title>
<!-- Node0 -->
<g id="Node000000" class="node">
<title>Node0</title>
<g id="a_Node000000"><a xlink:title=" ">
<polygon fill="#e0e0e0" stroke="#999999" points="167,-408.5 0,-408.5 0,-389.5 167,-389.5 167,-408.5"/>
<text text-anchor="middle" x="83.5" y="-396.5" font-family="Helvetica,sans-Serif" font-size="10.00">UnaryOperatorWithScaleBiasDesc</text>
</a>
</g>
</g>
<!-- Node1 -->
<g id="Node000001" class="node">
<title>Node1</title>
<g id="a_Node000001"><a xlink:href="struct_harlinn_1_1_a_i_1_1_d_m_l_1_1_element_wise_a_cos_operator_desc.html" target="_top" xlink:title=" ">
<polygon fill="white" stroke="#666666" points="346.5,-798 216.5,-798 216.5,-768 346.5,-768 346.5,-798"/>
<text text-anchor="start" x="224.5" y="-786" font-family="Helvetica,sans-Serif" font-size="10.00">Harlinn::AI::DML::Element</text>
<text text-anchor="middle" x="281.5" y="-775" font-family="Helvetica,sans-Serif" font-size="10.00">WiseACosOperatorDesc</text>
</a>
</g>
</g>
<!-- Node0&#45;&gt;Node1 -->
<g id="edge2611_Node000000_Node000001" class="edge">
<title>Node0&#45;&gt;Node1</title>
<g id="a_edge2611_Node000000_Node000001"><a xlink:title=" ">
<path fill="none" stroke="#63b8ff" d="M85.05,-420.26C87.83,-481.85 104.41,-662.13 203,-759 206.92,-762.85 211.44,-766.08 216.29,-768.8"/>
<polygon fill="#63b8ff" stroke="#63b8ff" points="88.56,-420.37 84.7,-410.51 81.56,-420.63 88.56,-420.37"/>
</a>
</g>
</g>
<!-- Node2 -->
<g id="Node000002" class="node">
<title>Node2</title>
<g id="a_Node000002"><a xlink:href="struct_harlinn_1_1_a_i_1_1_d_m_l_1_1_element_wise_a_sin_operator_desc.html" target="_top" xlink:title=" ">
<polygon fill="white" stroke="#666666" points="346.5,-750 216.5,-750 216.5,-720 346.5,-720 346.5,-750"/>
<text text-anchor="start" x="224.5" y="-738" font-family="Helvetica,sans-Serif" font-size="10.00">Harlinn::AI::DML::Element</text>
<text text-anchor="middle" x="281.5" y="-727" font-family="Helvetica,sans-Serif" font-size="10.00">WiseASinOperatorDesc</text>
</a>
</g>
</g>
<!-- Node0&#45;&gt;Node2 -->
<g id="edge2612_Node000000_Node000002" class="edge">
<title>Node0&#45;&gt;Node2</title>
<g id="a_edge2612_Node000000_Node000002"><a xlink:title=" ">
<path fill="none" stroke="#63b8ff" d="M86.26,-419.98C92.08,-475.74 115.62,-628.93 203,-711 206.9,-714.66 211.35,-717.77 216.1,-720.4"/>
<polygon fill="#63b8ff" stroke="#63b8ff" points="89.77,-419.94 85.35,-410.31 82.81,-420.6 89.77,-419.94"/>
</a>
</g>
</g>
<!-- Node3 -->
<g id="Node000003" class="node">
<title>Node3</title>
<g id="a_Node000003"><a xlink:href="struct_harlinn_1_1_a_i_1_1_d_m_l_1_1_element_wise_a_tan_operator_desc.html" target="_top" xlink:title=" ">
<polygon fill="white" stroke="#666666" points="346.5,-702 216.5,-702 216.5,-672 346.5,-672 346.5,-702"/>
<text text-anchor="start" x="224.5" y="-690" font-family="Helvetica,sans-Serif" font-size="10.00">Harlinn::AI::DML::Element</text>
<text text-anchor="middle" x="281.5" y="-679" font-family="Helvetica,sans-Serif" font-size="10.00">WiseATanOperatorDesc</text>
</a>
</g>
</g>
<!-- Node0&#45;&gt;Node3 -->
<g id="edge2613_Node000000_Node000003" class="edge">
<title>Node0&#45;&gt;Node3</title>
<g id="a_edge2613_Node000000_Node000003"><a xlink:title=" ">
<path fill="none" stroke="#63b8ff" d="M87.9,-420.02C97.05,-469.77 126.87,-595.61 203,-663 207.01,-666.55 211.53,-669.57 216.33,-672.15"/>
<polygon fill="#63b8ff" stroke="#63b8ff" points="91.38,-419.59 86.22,-410.34 84.48,-420.79 91.38,-419.59"/>
</a>
</g>
</g>
<!-- Node4 -->
<g id="Node000004" class="node">
<title>Node4</title>
<g id="a_Node000004"><a xlink:href="struct_harlinn_1_1_a_i_1_1_d_m_l_1_1_element_wise_abs_operator_desc.html" target="_top" xlink:title=" ">
<polygon fill="white" stroke="#666666" points="346.5,-654 216.5,-654 216.5,-624 346.5,-624 346.5,-654"/>
<text text-anchor="start" x="224.5" y="-642" font-family="Helvetica,sans-Serif" font-size="10.00">Harlinn::AI::DML::Element</text>
<text text-anchor="middle" x="281.5" y="-631" font-family="Helvetica,sans-Serif" font-size="10.00">WiseAbsOperatorDesc</text>
</a>
</g>
</g>
<!-- Node0&#45;&gt;Node4 -->
<g id="edge2614_Node000000_Node000004" class="edge">
<title>Node0&#45;&gt;Node4</title>
<g id="a_edge2614_Node000000_Node000004"><a xlink:title=" ">
<path fill="none" stroke="#63b8ff" d="M90.16,-419.91C102.89,-462.94 137.86,-561.82 203,-615 207.04,-618.3 211.53,-621.14 216.25,-623.6"/>
<polygon fill="#63b8ff" stroke="#63b8ff" points="93.54,-419.01 87.45,-410.35 86.81,-420.92 93.54,-419.01"/>
</a>
</g>
</g>
<!-- Node5 -->
<g id="Node000005" class="node">
<title>Node5</title>
<g id="a_Node000005"><a xlink:href="struct_harlinn_1_1_a_i_1_1_d_m_l_1_1_element_wise_ceil_operator_desc.html" target="_top" xlink:title=" ">
<polygon fill="white" stroke="#666666" points="346.5,-606 216.5,-606 216.5,-576 346.5,-576 346.5,-606"/>
<text text-anchor="start" x="224.5" y="-594" font-family="Helvetica,sans-Serif" font-size="10.00">Harlinn::AI::DML::Element</text>
<text text-anchor="middle" x="281.5" y="-583" font-family="Helvetica,sans-Serif" font-size="10.00">WiseCeilOperatorDesc</text>
</a>
</g>
</g>
<!-- Node0&#45;&gt;Node5 -->
<g id="edge2615_Node000000_Node000005" class="edge">
<title>Node0&#45;&gt;Node5</title>
<g id="a_edge2615_Node000000_Node000005"><a xlink:title=" ">
<path fill="none" stroke="#63b8ff" d="M93.24,-419.03C109.61,-454.23 148.26,-527.22 203,-567 207.56,-570.31 212.58,-573.17 217.82,-575.65"/>
<polygon fill="#63b8ff" stroke="#63b8ff" points="96.48,-417.7 89.17,-410.02 90.1,-420.58 96.48,-417.7"/>
</a>
</g>
</g>
<!-- Node6 -->
<g id="Node000006" class="node">
<title>Node6</title>
<g id="a_Node000006"><a xlink:href="struct_harlinn_1_1_a_i_1_1_d_m_l_1_1_element_wise_clip_operator_desc.html" target="_top" xlink:title=" ">
<polygon fill="white" stroke="#666666" points="346.5,-558 216.5,-558 216.5,-528 346.5,-528 346.5,-558"/>
<text text-anchor="start" x="224.5" y="-546" font-family="Helvetica,sans-Serif" font-size="10.00">Harlinn::AI::DML::Element</text>
<text text-anchor="middle" x="281.5" y="-535" font-family="Helvetica,sans-Serif" font-size="10.00">WiseClipOperatorDesc</text>
</a>
</g>
</g>
<!-- Node0&#45;&gt;Node6 -->
<g id="edge2616_Node000000_Node000006" class="edge">
<title>Node0&#45;&gt;Node6</title>
<g id="a_edge2616_Node000000_Node000006"><a xlink:title=" ">
<path fill="none" stroke="#63b8ff" d="M98.02,-417.6C118.07,-443.9 158.18,-491.77 203,-519 208.3,-522.22 214.06,-525.04 219.98,-527.5"/>
<polygon fill="#63b8ff" stroke="#63b8ff" points="101.04,-415.8 92.25,-409.88 95.43,-419.99 101.04,-415.8"/>
</a>
</g>
</g>
<!-- Node7 -->
<g id="Node000007" class="node">
<title>Node7</title>
<g id="a_Node000007"><a xlink:href="struct_harlinn_1_1_a_i_1_1_d_m_l_1_1_element_wise_constant_pow_operator_desc.html" target="_top" xlink:title=" ">
<polygon fill="white" stroke="#666666" points="360,-510 203,-510 203,-480 360,-480 360,-510"/>
<text text-anchor="start" x="211" y="-498" font-family="Helvetica,sans-Serif" font-size="10.00">Harlinn::AI::DML::Element</text>
<text text-anchor="middle" x="281.5" y="-487" font-family="Helvetica,sans-Serif" font-size="10.00">WiseConstantPowOperatorDesc</text>
</a>
</g>
</g>
<!-- Node0&#45;&gt;Node7 -->
<g id="edge2617_Node000000_Node000007" class="edge">
<title>Node0&#45;&gt;Node7</title>
<g id="a_edge2617_Node000000_Node000007"><a xlink:title=" ">
<path fill="none" stroke="#63b8ff" d="M107.44,-415.29C130.65,-431.19 168.01,-455.24 203,-471 209.94,-474.12 217.39,-477 224.84,-479.59"/>
<polygon fill="#63b8ff" stroke="#63b8ff" points="109.57,-412.5 99.36,-409.68 105.57,-418.25 109.57,-412.5"/>
</a>
</g>
</g>
<!-- Node8 -->
<g id="Node000008" class="node">
<title>Node8</title>
<g id="a_Node000008"><a xlink:href="struct_harlinn_1_1_a_i_1_1_d_m_l_1_1_element_wise_cos_operator_desc.html" target="_top" xlink:title=" ">
<polygon fill="white" stroke="#666666" points="346.5,-462 216.5,-462 216.5,-432 346.5,-432 346.5,-462"/>
<text text-anchor="start" x="224.5" y="-450" font-family="Helvetica,sans-Serif" font-size="10.00">Harlinn::AI::DML::Element</text>
<text text-anchor="middle" x="281.5" y="-439" font-family="Helvetica,sans-Serif" font-size="10.00">WiseCosOperatorDesc</text>
</a>
</g>
</g>
<!-- Node0&#45;&gt;Node8 -->
<g id="edge2618_Node000000_Node000008" class="edge">
<title>Node0&#45;&gt;Node8</title>
<g id="a_edge2618_Node000000_Node000008"><a xlink:title=" ">
<path fill="none" stroke="#63b8ff" d="M136.18,-411.66C161.12,-417.77 191.28,-425.15 217.55,-431.58"/>
<polygon fill="#63b8ff" stroke="#63b8ff" points="137.13,-408.28 126.58,-409.31 135.46,-415.08 137.13,-408.28"/>
</a>
</g>
</g>
<!-- Node9 -->
<g id="Node000009" class="node">
<title>Node9</title>
<g id="a_Node000009"><a xlink:href="struct_harlinn_1_1_a_i_1_1_d_m_l_1_1_element_wise_exp_operator_desc.html" target="_top" xlink:title=" ">
<polygon fill="white" stroke="#666666" points="346.5,-414 216.5,-414 216.5,-384 346.5,-384 346.5,-414"/>
<text text-anchor="start" x="224.5" y="-402" font-family="Helvetica,sans-Serif" font-size="10.00">Harlinn::AI::DML::Element</text>
<text text-anchor="middle" x="281.5" y="-391" font-family="Helvetica,sans-Serif" font-size="10.00">WiseExpOperatorDesc</text>
</a>
</g>
</g>
<!-- Node0&#45;&gt;Node9 -->
<g id="edge2619_Node000000_Node000009" class="edge">
<title>Node0&#45;&gt;Node9</title>
<g id="a_edge2619_Node000000_Node000009"><a xlink:title=" ">
<path fill="none" stroke="#63b8ff" d="M178.48,-399C191.22,-399 204.04,-399 216.09,-399"/>
<polygon fill="#63b8ff" stroke="#63b8ff" points="178.85,-395.5 168.85,-399 178.85,-402.5 178.85,-395.5"/>
</a>
</g>
</g>
<!-- Node10 -->
<g id="Node000010" class="node">
<title>Node10</title>
<g id="a_Node000010"><a xlink:href="struct_harlinn_1_1_a_i_1_1_d_m_l_1_1_element_wise_floor_operator_desc.html" target="_top" xlink:title=" ">
<polygon fill="white" stroke="#666666" points="346.5,-366 216.5,-366 216.5,-336 346.5,-336 346.5,-366"/>
<text text-anchor="start" x="224.5" y="-354" font-family="Helvetica,sans-Serif" font-size="10.00">Harlinn::AI::DML::Element</text>
<text text-anchor="middle" x="281.5" y="-343" font-family="Helvetica,sans-Serif" font-size="10.00">WiseFloorOperatorDesc</text>
</a>
</g>
</g>
<!-- Node0&#45;&gt;Node10 -->
<g id="edge2620_Node000000_Node000010" class="edge">
<title>Node0&#45;&gt;Node10</title>
<g id="a_edge2620_Node000000_Node000010"><a xlink:title=" ">
<path fill="none" stroke="#63b8ff" d="M136.18,-386.34C161.12,-380.23 191.28,-372.85 217.55,-366.42"/>
<polygon fill="#63b8ff" stroke="#63b8ff" points="135.46,-382.92 126.58,-388.69 137.13,-389.72 135.46,-382.92"/>
</a>
</g>
</g>
<!-- Node11 -->
<g id="Node000011" class="node">
<title>Node11</title>
<g id="a_Node000011"><a xlink:href="struct_harlinn_1_1_a_i_1_1_d_m_l_1_1_element_wise_identity_operator_desc.html" target="_top" xlink:title=" ">
<polygon fill="white" stroke="#666666" points="347,-318 216,-318 216,-288 347,-288 347,-318"/>
<text text-anchor="start" x="224" y="-306" font-family="Helvetica,sans-Serif" font-size="10.00">Harlinn::AI::DML::Element</text>
<text text-anchor="middle" x="281.5" y="-295" font-family="Helvetica,sans-Serif" font-size="10.00">WiseIdentityOperatorDesc</text>
</a>
</g>
</g>
<!-- Node0&#45;&gt;Node11 -->
<g id="edge2621_Node000000_Node000011" class="edge">
<title>Node0&#45;&gt;Node11</title>
<g id="a_edge2621_Node000000_Node000011"><a xlink:title=" ">
<path fill="none" stroke="#63b8ff" d="M107.44,-382.71C130.65,-366.81 168.01,-342.76 203,-327 209.94,-323.88 217.39,-321 224.84,-318.41"/>
<polygon fill="#63b8ff" stroke="#63b8ff" points="105.57,-379.75 99.36,-388.32 109.57,-385.5 105.57,-379.75"/>
</a>
</g>
</g>
<!-- Node12 -->
<g id="Node000012" class="node">
<title>Node12</title>
<g id="a_Node000012"><a xlink:href="struct_harlinn_1_1_a_i_1_1_d_m_l_1_1_element_wise_log_operator_desc.html" target="_top" xlink:title=" ">
<polygon fill="white" stroke="#666666" points="346.5,-270 216.5,-270 216.5,-240 346.5,-240 346.5,-270"/>
<text text-anchor="start" x="224.5" y="-258" font-family="Helvetica,sans-Serif" font-size="10.00">Harlinn::AI::DML::Element</text>
<text text-anchor="middle" x="281.5" y="-247" font-family="Helvetica,sans-Serif" font-size="10.00">WiseLogOperatorDesc</text>
</a>
</g>
</g>
<!-- Node0&#45;&gt;Node12 -->
<g id="edge2622_Node000000_Node000012" class="edge">
<title>Node0&#45;&gt;Node12</title>
<g id="a_edge2622_Node000000_Node000012"><a xlink:title=" ">
<path fill="none" stroke="#63b8ff" d="M98.02,-380.4C118.07,-354.1 158.18,-306.23 203,-279 208.3,-275.78 214.06,-272.96 219.98,-270.5"/>
<polygon fill="#63b8ff" stroke="#63b8ff" points="95.43,-378.01 92.25,-388.12 101.04,-382.2 95.43,-378.01"/>
</a>
</g>
</g>
<!-- Node13 -->
<g id="Node000013" class="node">
<title>Node13</title>
<g id="a_Node000013"><a xlink:href="struct_harlinn_1_1_a_i_1_1_d_m_l_1_1_element_wise_reciprocal_operator_desc.html" target="_top" xlink:title=" ">
<polygon fill="white" stroke="#666666" points="354,-222 209,-222 209,-192 354,-192 354,-222"/>
<text text-anchor="start" x="217" y="-210" font-family="Helvetica,sans-Serif" font-size="10.00">Harlinn::AI::DML::Element</text>
<text text-anchor="middle" x="281.5" y="-199" font-family="Helvetica,sans-Serif" font-size="10.00">WiseReciprocalOperatorDesc</text>
</a>
</g>
</g>
<!-- Node0&#45;&gt;Node13 -->
<g id="edge2623_Node000000_Node000013" class="edge">
<title>Node0&#45;&gt;Node13</title>
<g id="a_edge2623_Node000000_Node000013"><a xlink:title=" ">
<path fill="none" stroke="#63b8ff" d="M93.24,-378.97C109.61,-343.77 148.26,-270.78 203,-231 207.56,-227.69 212.58,-224.83 217.82,-222.35"/>
<polygon fill="#63b8ff" stroke="#63b8ff" points="90.1,-377.42 89.17,-387.98 96.48,-380.3 90.1,-377.42"/>
</a>
</g>
</g>
<!-- Node14 -->
<g id="Node000014" class="node">
<title>Node14</title>
<g id="a_Node000014"><a xlink:href="struct_harlinn_1_1_a_i_1_1_d_m_l_1_1_element_wise_sin_operator_desc.html" target="_top" xlink:title=" ">
<polygon fill="white" stroke="#666666" points="346.5,-174 216.5,-174 216.5,-144 346.5,-144 346.5,-174"/>
<text text-anchor="start" x="224.5" y="-162" font-family="Helvetica,sans-Serif" font-size="10.00">Harlinn::AI::DML::Element</text>
<text text-anchor="middle" x="281.5" y="-151" font-family="Helvetica,sans-Serif" font-size="10.00">WiseSinOperatorDesc</text>
</a>
</g>
</g>
<!-- Node0&#45;&gt;Node14 -->
<g id="edge2624_Node000000_Node000014" class="edge">
<title>Node0&#45;&gt;Node14</title>
<g id="a_edge2624_Node000000_Node000014"><a xlink:title=" ">
<path fill="none" stroke="#63b8ff" d="M90.16,-378.09C102.89,-335.06 137.86,-236.18 203,-183 207.04,-179.7 211.53,-176.86 216.25,-174.4"/>
<polygon fill="#63b8ff" stroke="#63b8ff" points="86.81,-377.08 87.45,-387.65 93.54,-378.99 86.81,-377.08"/>
</a>
</g>
</g>
<!-- Node15 -->
<g id="Node000015" class="node">
<title>Node15</title>
<g id="a_Node000015"><a xlink:href="struct_harlinn_1_1_a_i_1_1_d_m_l_1_1_element_wise_sqrt_operator_desc.html" target="_top" xlink:title=" ">
<polygon fill="white" stroke="#666666" points="346.5,-126 216.5,-126 216.5,-96 346.5,-96 346.5,-126"/>
<text text-anchor="start" x="224.5" y="-114" font-family="Helvetica,sans-Serif" font-size="10.00">Harlinn::AI::DML::Element</text>
<text text-anchor="middle" x="281.5" y="-103" font-family="Helvetica,sans-Serif" font-size="10.00">WiseSqrtOperatorDesc</text>
</a>
</g>
</g>
<!-- Node0&#45;&gt;Node15 -->
<g id="edge2625_Node000000_Node000015" class="edge">
<title>Node0&#45;&gt;Node15</title>
<g id="a_edge2625_Node000000_Node000015"><a xlink:title=" ">
<path fill="none" stroke="#63b8ff" d="M87.9,-377.98C97.05,-328.23 126.87,-202.39 203,-135 207.01,-131.45 211.53,-128.43 216.33,-125.85"/>
<polygon fill="#63b8ff" stroke="#63b8ff" points="84.48,-377.21 86.22,-387.66 91.38,-378.41 84.48,-377.21"/>
</a>
</g>
</g>
<!-- Node16 -->
<g id="Node000016" class="node">
<title>Node16</title>
<g id="a_Node000016"><a xlink:href="struct_harlinn_1_1_a_i_1_1_d_m_l_1_1_element_wise_tan_operator_desc.html" target="_top" xlink:title=" ">
<polygon fill="white" stroke="#666666" points="346.5,-78 216.5,-78 216.5,-48 346.5,-48 346.5,-78"/>
<text text-anchor="start" x="224.5" y="-66" font-family="Helvetica,sans-Serif" font-size="10.00">Harlinn::AI::DML::Element</text>
<text text-anchor="middle" x="281.5" y="-55" font-family="Helvetica,sans-Serif" font-size="10.00">WiseTanOperatorDesc</text>
</a>
</g>
</g>
<!-- Node0&#45;&gt;Node16 -->
<g id="edge2626_Node000000_Node000016" class="edge">
<title>Node0&#45;&gt;Node16</title>
<g id="a_edge2626_Node000000_Node000016"><a xlink:title=" ">
<path fill="none" stroke="#63b8ff" d="M86.26,-378.02C92.08,-322.26 115.62,-169.07 203,-87 206.9,-83.34 211.35,-80.23 216.1,-77.6"/>
<polygon fill="#63b8ff" stroke="#63b8ff" points="82.81,-377.4 85.35,-387.69 89.77,-378.06 82.81,-377.4"/>
</a>
</g>
</g>
<!-- Node17 -->
<g id="Node000017" class="node">
<title>Node17</title>
<g id="a_Node000017"><a xlink:href="struct_harlinn_1_1_a_i_1_1_d_m_l_1_1_element_wise_threshold_operator_desc.html" target="_top" xlink:title=" ">
<polygon fill="white" stroke="#666666" points="352,-30 211,-30 211,0 352,0 352,-30"/>
<text text-anchor="start" x="219" y="-18" font-family="Helvetica,sans-Serif" font-size="10.00">Harlinn::AI::DML::Element</text>
<text text-anchor="middle" x="281.5" y="-7" font-family="Helvetica,sans-Serif" font-size="10.00">WiseThresholdOperatorDesc</text>
</a>
</g>
</g>
<!-- Node0&#45;&gt;Node17 -->
<g id="edge2627_Node000000_Node000017" class="edge">
<title>Node0&#45;&gt;Node17</title>
<g id="a_edge2627_Node000000_Node000017"><a xlink:title=" ">
<path fill="none" stroke="#63b8ff" d="M85.05,-377.74C87.83,-316.15 104.41,-135.87 203,-39 206.32,-35.74 210.06,-32.93 214.08,-30.49"/>
<polygon fill="#63b8ff" stroke="#63b8ff" points="81.56,-377.37 84.7,-387.49 88.56,-377.63 81.56,-377.37"/>
</a>
</g>
</g>
</g>
</svg>
