<?xml version="1.0" encoding="UTF-8" standalone="no"?>
<!DOCTYPE svg PUBLIC "-//W3C//DTD SVG 1.1//EN"
 "http://www.w3.org/Graphics/SVG/1.1/DTD/svg11.dtd">
<!-- Generated by graphviz version 7.0.1 (20221109.1506)
 -->
<!-- Title: Graphical Class Hierarchy Pages: 1 -->
<svg width="331pt" height="662pt"
 viewBox="0.00 0.00 331.00 662.00" xmlns="http://www.w3.org/2000/svg" xmlns:xlink="http://www.w3.org/1999/xlink">
<g id="graph0" class="graph" transform="scale(1 1) rotate(0) translate(4 658)">
<title>Graphical Class Hierarchy</title>
<!-- Node0 -->
<g id="Node000000" class="node">
<title>Node0</title>
<g id="a_Node000000"><a xlink:title=" ">
<polygon fill="#e0e0e0" stroke="#999999" points="104,-336.5 0,-336.5 0,-317.5 104,-317.5 104,-336.5"/>
<text text-anchor="middle" x="52" y="-324.5" font-family="Helvetica,sans-Serif" font-size="10.00">BinaryOperatorDesc</text>
</a>
</g>
</g>
<!-- Node1 -->
<g id="Node000001" class="node">
<title>Node1</title>
<g id="a_Node000001"><a xlink:href="struct_harlinn_1_1_a_i_1_1_d_m_l_1_1_element_wise_add1_operator_desc.html" target="_top" xlink:title=" ">
<polygon fill="white" stroke="#666666" points="296.5,-654 166.5,-654 166.5,-624 296.5,-624 296.5,-654"/>
<text text-anchor="start" x="174.5" y="-642" font-family="Helvetica,sans-Serif" font-size="10.00">Harlinn::AI::DML::Element</text>
<text text-anchor="middle" x="231.5" y="-631" font-family="Helvetica,sans-Serif" font-size="10.00">WiseAdd1OperatorDesc</text>
</a>
</g>
</g>
<!-- Node0&#45;&gt;Node1 -->
<g id="edge118_Node000000_Node000001" class="edge">
<title>Node0&#45;&gt;Node1</title>
<g id="a_edge118_Node000000_Node000001"><a xlink:title=" ">
<path fill="none" stroke="#63b8ff" d="M52.82,-348.17C53.57,-401.18 63.15,-540.73 140,-615 147.36,-622.12 156.58,-627.18 166.3,-630.78"/>
<polygon fill="#63b8ff" stroke="#63b8ff" points="56.32,-348.4 52.79,-338.41 49.32,-348.43 56.32,-348.4"/>
</a>
</g>
</g>
<!-- Node2 -->
<g id="Node000002" class="node">
<title>Node2</title>
<g id="a_Node000002"><a xlink:href="struct_harlinn_1_1_a_i_1_1_d_m_l_1_1_element_wise_add_operator_desc.html" target="_top" xlink:title=" ">
<polygon fill="white" stroke="#666666" points="296.5,-606 166.5,-606 166.5,-576 296.5,-576 296.5,-606"/>
<text text-anchor="start" x="174.5" y="-594" font-family="Helvetica,sans-Serif" font-size="10.00">Harlinn::AI::DML::Element</text>
<text text-anchor="middle" x="231.5" y="-583" font-family="Helvetica,sans-Serif" font-size="10.00">WiseAddOperatorDesc</text>
</a>
</g>
</g>
<!-- Node0&#45;&gt;Node2 -->
<g id="edge119_Node000000_Node000002" class="edge">
<title>Node0&#45;&gt;Node2</title>
<g id="a_edge119_Node000000_Node000002"><a xlink:title=" ">
<path fill="none" stroke="#63b8ff" d="M54.33,-348.35C58.41,-395.16 74.85,-507.38 140,-567 147.43,-573.8 156.58,-578.72 166.16,-582.26"/>
<polygon fill="#63b8ff" stroke="#63b8ff" points="57.82,-348.2 53.58,-338.49 50.84,-348.73 57.82,-348.2"/>
</a>
</g>
</g>
<!-- Node3 -->
<g id="Node000003" class="node">
<title>Node3</title>
<g id="a_Node000003"><a xlink:href="struct_harlinn_1_1_a_i_1_1_d_m_l_1_1_element_wise_divide_operator_desc.html" target="_top" xlink:title=" ">
<polygon fill="white" stroke="#666666" points="296.5,-558 166.5,-558 166.5,-528 296.5,-528 296.5,-558"/>
<text text-anchor="start" x="174.5" y="-546" font-family="Helvetica,sans-Serif" font-size="10.00">Harlinn::AI::DML::Element</text>
<text text-anchor="middle" x="231.5" y="-535" font-family="Helvetica,sans-Serif" font-size="10.00">WiseDivideOperatorDesc</text>
</a>
</g>
</g>
<!-- Node0&#45;&gt;Node3 -->
<g id="edge120_Node000000_Node000003" class="edge">
<title>Node0&#45;&gt;Node3</title>
<g id="a_edge120_Node000000_Node000003"><a xlink:title=" ">
<path fill="none" stroke="#63b8ff" d="M56.41,-347.81C63.99,-387.33 86.06,-473.35 140,-519 147.57,-525.41 156.67,-530.12 166.14,-533.59"/>
<polygon fill="#63b8ff" stroke="#63b8ff" points="59.9,-347.44 54.7,-338.21 53,-348.67 59.9,-347.44"/>
</a>
</g>
</g>
<!-- Node4 -->
<g id="Node000004" class="node">
<title>Node4</title>
<g id="a_Node000004"><a xlink:href="struct_harlinn_1_1_a_i_1_1_d_m_l_1_1_element_wise_logical_and_operator_desc.html" target="_top" xlink:title=" ">
<polygon fill="white" stroke="#666666" points="305,-510 158,-510 158,-480 305,-480 305,-510"/>
<text text-anchor="start" x="166" y="-498" font-family="Helvetica,sans-Serif" font-size="10.00">Harlinn::AI::DML::Element</text>
<text text-anchor="middle" x="231.5" y="-487" font-family="Helvetica,sans-Serif" font-size="10.00">WiseLogicalAndOperatorDesc</text>
</a>
</g>
</g>
<!-- Node0&#45;&gt;Node4 -->
<g id="edge121_Node000000_Node000004" class="edge">
<title>Node0&#45;&gt;Node4</title>
<g id="a_edge121_Node000000_Node000004"><a xlink:title=" ">
<path fill="none" stroke="#63b8ff" d="M59.65,-347.35C70.99,-378.77 97.1,-438.84 140,-471 145.33,-475 151.28,-478.33 157.5,-481.11"/>
<polygon fill="#63b8ff" stroke="#63b8ff" points="63.09,-346.57 56.52,-338.25 56.47,-348.85 63.09,-346.57"/>
</a>
</g>
</g>
<!-- Node5 -->
<g id="Node000005" class="node">
<title>Node5</title>
<g id="a_Node000005"><a xlink:href="struct_harlinn_1_1_a_i_1_1_d_m_l_1_1_element_wise_logical_equals_operator_desc.html" target="_top" xlink:title=" ">
<polygon fill="white" stroke="#666666" points="311.5,-462 151.5,-462 151.5,-432 311.5,-432 311.5,-462"/>
<text text-anchor="start" x="159.5" y="-450" font-family="Helvetica,sans-Serif" font-size="10.00">Harlinn::AI::DML::Element</text>
<text text-anchor="middle" x="231.5" y="-439" font-family="Helvetica,sans-Serif" font-size="10.00">WiseLogicalEqualsOperatorDesc</text>
</a>
</g>
</g>
<!-- Node0&#45;&gt;Node5 -->
<g id="edge122_Node000000_Node000005" class="edge">
<title>Node0&#45;&gt;Node5</title>
<g id="a_edge122_Node000000_Node000005"><a xlink:title=" ">
<path fill="none" stroke="#63b8ff" d="M65.44,-346.43C80.48,-368.32 107.8,-403.4 140,-423 145.41,-426.3 151.28,-429.15 157.33,-431.61"/>
<polygon fill="#63b8ff" stroke="#63b8ff" points="68.37,-344.52 59.92,-338.13 62.55,-348.39 68.37,-344.52"/>
</a>
</g>
</g>
<!-- Node6 -->
<g id="Node000006" class="node">
<title>Node6</title>
<g id="a_Node000006"><a xlink:href="struct_harlinn_1_1_a_i_1_1_d_m_l_1_1_element_wise_logical_greater_than_operator_desc.html" target="_top" xlink:title=" ">
<polygon fill="white" stroke="#666666" points="323,-414 140,-414 140,-384 323,-384 323,-414"/>
<text text-anchor="start" x="148" y="-402" font-family="Helvetica,sans-Serif" font-size="10.00">Harlinn::AI::DML::Element</text>
<text text-anchor="middle" x="231.5" y="-391" font-family="Helvetica,sans-Serif" font-size="10.00">WiseLogicalGreaterThanOperatorDesc</text>
</a>
</g>
</g>
<!-- Node0&#45;&gt;Node6 -->
<g id="edge123_Node000000_Node000006" class="edge">
<title>Node0&#45;&gt;Node6</title>
<g id="a_edge123_Node000000_Node000006"><a xlink:title=" ">
<path fill="none" stroke="#63b8ff" d="M77.84,-342.85C94.82,-353.14 118.13,-366.22 140,-375 147.84,-378.15 156.24,-381.01 164.63,-383.57"/>
<polygon fill="#63b8ff" stroke="#63b8ff" points="79.79,-339.94 69.44,-337.66 76.11,-345.89 79.79,-339.94"/>
</a>
</g>
</g>
<!-- Node7 -->
<g id="Node000007" class="node">
<title>Node7</title>
<g id="a_Node000007"><a xlink:href="struct_harlinn_1_1_a_i_1_1_d_m_l_1_1_element_wise_logical_less_than_operator_desc.html" target="_top" xlink:title=" ">
<polygon fill="white" stroke="#666666" points="317.5,-366 145.5,-366 145.5,-336 317.5,-336 317.5,-366"/>
<text text-anchor="start" x="153.5" y="-354" font-family="Helvetica,sans-Serif" font-size="10.00">Harlinn::AI::DML::Element</text>
<text text-anchor="middle" x="231.5" y="-343" font-family="Helvetica,sans-Serif" font-size="10.00">WiseLogicalLessThanOperatorDesc</text>
</a>
</g>
</g>
<!-- Node0&#45;&gt;Node7 -->
<g id="edge124_Node000000_Node000007" class="edge">
<title>Node0&#45;&gt;Node7</title>
<g id="a_edge124_Node000000_Node000007"><a xlink:title=" ">
<path fill="none" stroke="#63b8ff" d="M115.72,-335.48C125.26,-336.77 135.24,-338.12 145.16,-339.46"/>
<polygon fill="#63b8ff" stroke="#63b8ff" points="116.22,-332.02 105.84,-334.14 115.28,-338.95 116.22,-332.02"/>
</a>
</g>
</g>
<!-- Node8 -->
<g id="Node000008" class="node">
<title>Node8</title>
<g id="a_Node000008"><a xlink:href="struct_harlinn_1_1_a_i_1_1_d_m_l_1_1_element_wise_logical_or_operator_desc.html" target="_top" xlink:title=" ">
<polygon fill="white" stroke="#666666" points="301.5,-318 161.5,-318 161.5,-288 301.5,-288 301.5,-318"/>
<text text-anchor="start" x="169.5" y="-306" font-family="Helvetica,sans-Serif" font-size="10.00">Harlinn::AI::DML::Element</text>
<text text-anchor="middle" x="231.5" y="-295" font-family="Helvetica,sans-Serif" font-size="10.00">WiseLogicalOrOperatorDesc</text>
</a>
</g>
</g>
<!-- Node0&#45;&gt;Node8 -->
<g id="edge125_Node000000_Node000008" class="edge">
<title>Node0&#45;&gt;Node8</title>
<g id="a_edge125_Node000000_Node000008"><a xlink:title=" ">
<path fill="none" stroke="#63b8ff" d="M115.4,-318.56C130.19,-316.56 146.04,-314.42 161.11,-312.38"/>
<polygon fill="#63b8ff" stroke="#63b8ff" points="115.28,-315.05 105.84,-319.86 116.22,-321.98 115.28,-315.05"/>
</a>
</g>
</g>
<!-- Node9 -->
<g id="Node000009" class="node">
<title>Node9</title>
<g id="a_Node000009"><a xlink:href="struct_harlinn_1_1_a_i_1_1_d_m_l_1_1_element_wise_logical_xor_operator_desc.html" target="_top" xlink:title=" ">
<polygon fill="white" stroke="#666666" points="303,-270 160,-270 160,-240 303,-240 303,-270"/>
<text text-anchor="start" x="168" y="-258" font-family="Helvetica,sans-Serif" font-size="10.00">Harlinn::AI::DML::Element</text>
<text text-anchor="middle" x="231.5" y="-247" font-family="Helvetica,sans-Serif" font-size="10.00">WiseLogicalXorOperatorDesc</text>
</a>
</g>
</g>
<!-- Node0&#45;&gt;Node9 -->
<g id="edge126_Node000000_Node000009" class="edge">
<title>Node0&#45;&gt;Node9</title>
<g id="a_edge126_Node000000_Node000009"><a xlink:title=" ">
<path fill="none" stroke="#63b8ff" d="M77.84,-311.15C94.82,-300.86 118.13,-287.78 140,-279 147.84,-275.85 156.24,-272.99 164.63,-270.43"/>
<polygon fill="#63b8ff" stroke="#63b8ff" points="76.11,-308.11 69.44,-316.34 79.79,-314.06 76.11,-308.11"/>
</a>
</g>
</g>
<!-- Node10 -->
<g id="Node000010" class="node">
<title>Node10</title>
<g id="a_Node000010"><a xlink:href="struct_harlinn_1_1_a_i_1_1_d_m_l_1_1_element_wise_max_operator_desc.html" target="_top" xlink:title=" ">
<polygon fill="white" stroke="#666666" points="296.5,-222 166.5,-222 166.5,-192 296.5,-192 296.5,-222"/>
<text text-anchor="start" x="174.5" y="-210" font-family="Helvetica,sans-Serif" font-size="10.00">Harlinn::AI::DML::Element</text>
<text text-anchor="middle" x="231.5" y="-199" font-family="Helvetica,sans-Serif" font-size="10.00">WiseMaxOperatorDesc</text>
</a>
</g>
</g>
<!-- Node0&#45;&gt;Node10 -->
<g id="edge127_Node000000_Node000010" class="edge">
<title>Node0&#45;&gt;Node10</title>
<g id="a_edge127_Node000000_Node000010"><a xlink:title=" ">
<path fill="none" stroke="#63b8ff" d="M65.44,-307.57C80.48,-285.68 107.8,-250.6 140,-231 148.05,-226.1 157.1,-222.18 166.28,-219.06"/>
<polygon fill="#63b8ff" stroke="#63b8ff" points="62.55,-305.61 59.92,-315.87 68.37,-309.48 62.55,-305.61"/>
</a>
</g>
</g>
<!-- Node11 -->
<g id="Node000011" class="node">
<title>Node11</title>
<g id="a_Node000011"><a xlink:href="struct_harlinn_1_1_a_i_1_1_d_m_l_1_1_element_wise_mean_operator_desc.html" target="_top" xlink:title=" ">
<polygon fill="white" stroke="#666666" points="296.5,-174 166.5,-174 166.5,-144 296.5,-144 296.5,-174"/>
<text text-anchor="start" x="174.5" y="-162" font-family="Helvetica,sans-Serif" font-size="10.00">Harlinn::AI::DML::Element</text>
<text text-anchor="middle" x="231.5" y="-151" font-family="Helvetica,sans-Serif" font-size="10.00">WiseMeanOperatorDesc</text>
</a>
</g>
</g>
<!-- Node0&#45;&gt;Node11 -->
<g id="edge128_Node000000_Node000011" class="edge">
<title>Node0&#45;&gt;Node11</title>
<g id="a_edge128_Node000000_Node000011"><a xlink:title=" ">
<path fill="none" stroke="#63b8ff" d="M59.65,-306.65C70.99,-275.23 97.1,-215.16 140,-183 147.8,-177.15 156.92,-172.72 166.31,-169.38"/>
<polygon fill="#63b8ff" stroke="#63b8ff" points="56.47,-305.15 56.52,-315.75 63.09,-307.43 56.47,-305.15"/>
</a>
</g>
</g>
<!-- Node12 -->
<g id="Node000012" class="node">
<title>Node12</title>
<g id="a_Node000012"><a xlink:href="struct_harlinn_1_1_a_i_1_1_d_m_l_1_1_element_wise_min_operator_desc.html" target="_top" xlink:title=" ">
<polygon fill="white" stroke="#666666" points="296.5,-126 166.5,-126 166.5,-96 296.5,-96 296.5,-126"/>
<text text-anchor="start" x="174.5" y="-114" font-family="Helvetica,sans-Serif" font-size="10.00">Harlinn::AI::DML::Element</text>
<text text-anchor="middle" x="231.5" y="-103" font-family="Helvetica,sans-Serif" font-size="10.00">WiseMinOperatorDesc</text>
</a>
</g>
</g>
<!-- Node0&#45;&gt;Node12 -->
<g id="edge129_Node000000_Node000012" class="edge">
<title>Node0&#45;&gt;Node12</title>
<g id="a_edge129_Node000000_Node000012"><a xlink:title=" ">
<path fill="none" stroke="#63b8ff" d="M56.41,-306.19C63.99,-266.67 86.06,-180.65 140,-135 147.57,-128.59 156.67,-123.88 166.14,-120.41"/>
<polygon fill="#63b8ff" stroke="#63b8ff" points="53,-305.33 54.7,-315.79 59.9,-306.56 53,-305.33"/>
</a>
</g>
</g>
<!-- Node13 -->
<g id="Node000013" class="node">
<title>Node13</title>
<g id="a_Node000013"><a xlink:href="struct_harlinn_1_1_a_i_1_1_d_m_l_1_1_element_wise_multiply_operator_desc.html" target="_top" xlink:title=" ">
<polygon fill="white" stroke="#666666" points="298,-78 165,-78 165,-48 298,-48 298,-78"/>
<text text-anchor="start" x="173" y="-66" font-family="Helvetica,sans-Serif" font-size="10.00">Harlinn::AI::DML::Element</text>
<text text-anchor="middle" x="231.5" y="-55" font-family="Helvetica,sans-Serif" font-size="10.00">WiseMultiplyOperatorDesc</text>
</a>
</g>
</g>
<!-- Node0&#45;&gt;Node13 -->
<g id="edge130_Node000000_Node000013" class="edge">
<title>Node0&#45;&gt;Node13</title>
<g id="a_edge130_Node000000_Node000013"><a xlink:title=" ">
<path fill="none" stroke="#63b8ff" d="M54.33,-305.65C58.41,-258.84 74.85,-146.62 140,-87 147.07,-80.53 155.7,-75.76 164.77,-72.26"/>
<polygon fill="#63b8ff" stroke="#63b8ff" points="50.84,-305.27 53.58,-315.51 57.82,-305.8 50.84,-305.27"/>
</a>
</g>
</g>
<!-- Node14 -->
<g id="Node000014" class="node">
<title>Node14</title>
<g id="a_Node000014"><a xlink:href="struct_harlinn_1_1_a_i_1_1_d_m_l_1_1_element_wise_subtract_operator_desc.html" target="_top" xlink:title=" ">
<polygon fill="white" stroke="#666666" points="299.5,-30 163.5,-30 163.5,0 299.5,0 299.5,-30"/>
<text text-anchor="start" x="171.5" y="-18" font-family="Helvetica,sans-Serif" font-size="10.00">Harlinn::AI::DML::Element</text>
<text text-anchor="middle" x="231.5" y="-7" font-family="Helvetica,sans-Serif" font-size="10.00">WiseSubtractOperatorDesc</text>
</a>
</g>
</g>
<!-- Node0&#45;&gt;Node14 -->
<g id="edge131_Node000000_Node000014" class="edge">
<title>Node0&#45;&gt;Node14</title>
<g id="a_edge131_Node000000_Node000014"><a xlink:title=" ">
<path fill="none" stroke="#63b8ff" d="M52.82,-305.83C53.57,-252.82 63.15,-113.27 140,-39 146.55,-32.67 154.56,-27.97 163.08,-24.47"/>
<polygon fill="#63b8ff" stroke="#63b8ff" points="49.32,-305.57 52.79,-315.59 56.32,-305.6 49.32,-305.57"/>
</a>
</g>
</g>
</g>
</svg>
