<?xml version="1.0" encoding="UTF-8" standalone="no"?>
<!DOCTYPE svg PUBLIC "-//W3C//DTD SVG 1.1//EN"
 "http://www.w3.org/Graphics/SVG/1.1/DTD/svg11.dtd">
<!-- Generated by graphviz version 7.0.1 (20221109.1506)
 -->
<!-- Title: Graphical Class Hierarchy Pages: 1 -->
<svg width="513pt" height="1107pt"
 viewBox="0.00 0.00 513.00 1106.50" xmlns="http://www.w3.org/2000/svg" xmlns:xlink="http://www.w3.org/1999/xlink">
<g id="graph0" class="graph" transform="scale(1 1) rotate(0) translate(4 1102.5)">
<title>Graphical Class Hierarchy</title>
<!-- Node0 -->
<g id="Node000000" class="node">
<title>Node0</title>
<g id="a_Node000000"><a xlink:href="struct_harlinn_1_1_common_1_1_core_1_1_math_1_1_internal_1_1_normal_base.html" target="_top" xlink:title=" ">
<polygon fill="white" stroke="#666666" points="313,-1098.5 172,-1098.5 172,-1068.5 313,-1068.5 313,-1098.5"/>
<text text-anchor="start" x="180" y="-1086.5" font-family="Helvetica,sans-Serif" font-size="10.00">Harlinn::Common::Core</text>
<text text-anchor="middle" x="242.5" y="-1075.5" font-family="Helvetica,sans-Serif" font-size="10.00">::Math::Internal::NormalBase</text>
</a>
</g>
</g>
<!-- Node1 -->
<g id="Node000001" class="node">
<title>Node1</title>
<g id="a_Node000001"><a xlink:href="class_harlinn_1_1_common_1_1_core_1_1_math_1_1_normal3f.html" target="_top" xlink:title=" ">
<polygon fill="white" stroke="#666666" points="487,-999.5 369,-999.5 369,-969.5 487,-969.5 487,-999.5"/>
<text text-anchor="start" x="377" y="-987.5" font-family="Helvetica,sans-Serif" font-size="10.00">Harlinn::Common::Core</text>
<text text-anchor="middle" x="428" y="-976.5" font-family="Helvetica,sans-Serif" font-size="10.00">::Math::Normal3f</text>
</a>
</g>
</g>
<!-- Node0&#45;&gt;Node1 -->
<g id="edge583_Node000000_Node000001" class="edge">
<title>Node0&#45;&gt;Node1</title>
<g id="a_edge583_Node000000_Node000001"><a xlink:title=" ">
<path fill="none" stroke="#63b8ff" d="M305.48,-1063.85C308.73,-1062.46 311.93,-1061.01 315,-1059.5 349.65,-1042.46 386.16,-1016.23 407.74,-999.74"/>
<polygon fill="#63b8ff" stroke="#63b8ff" points="304.33,-1060.55 296.35,-1067.52 306.94,-1067.04 304.33,-1060.55"/>
</a>
</g>
</g>
<!-- Node6 -->
<g id="Node000006" class="node">
<title>Node6</title>
<g id="a_Node000006"><a xlink:href="struct_harlinn_1_1_common_1_1_core_1_1_math_1_1_internal_1_1_point_base.html" target="_top" xlink:title=" ">
<polygon fill="white" stroke="#666666" points="309,-728.5 176,-728.5 176,-698.5 309,-698.5 309,-728.5"/>
<text text-anchor="start" x="184" y="-716.5" font-family="Helvetica,sans-Serif" font-size="10.00">Harlinn::Common::Core</text>
<text text-anchor="middle" x="242.5" y="-705.5" font-family="Helvetica,sans-Serif" font-size="10.00">::Math::Internal::PointBase</text>
</a>
</g>
</g>
<!-- Node5 -->
<g id="Node000005" class="node">
<title>Node5</title>
<g id="a_Node000005"><a xlink:href="class_harlinn_1_1_common_1_1_core_1_1_math_1_1_point2f.html" target="_top" xlink:title=" ">
<polygon fill="white" stroke="#666666" points="487,-809.5 369,-809.5 369,-779.5 487,-779.5 487,-809.5"/>
<text text-anchor="start" x="377" y="-797.5" font-family="Helvetica,sans-Serif" font-size="10.00">Harlinn::Common::Core</text>
<text text-anchor="middle" x="428" y="-786.5" font-family="Helvetica,sans-Serif" font-size="10.00">::Math::Point2f</text>
</a>
</g>
</g>
<!-- Node6&#45;&gt;Node5 -->
<g id="edge584_Node000006_Node000005" class="edge">
<title>Node6&#45;&gt;Node5</title>
<g id="a_edge584_Node000006_Node000005"><a xlink:title=" ">
<path fill="none" stroke="#63b8ff" d="M300.89,-732.84C305.69,-734.68 310.45,-736.58 315,-738.5 344.23,-750.86 376.55,-767.34 398.93,-779.21"/>
<polygon fill="#63b8ff" stroke="#63b8ff" points="302.38,-729.66 291.78,-729.45 299.94,-736.22 302.38,-729.66"/>
</a>
</g>
</g>
<!-- Node7 -->
<g id="Node000007" class="node">
<title>Node7</title>
<g id="a_Node000007"><a xlink:href="class_harlinn_1_1_common_1_1_core_1_1_math_1_1_point2i.html" target="_top" xlink:title=" ">
<polygon fill="white" stroke="#666666" points="487,-744.5 369,-744.5 369,-714.5 487,-714.5 487,-744.5"/>
<text text-anchor="start" x="377" y="-732.5" font-family="Helvetica,sans-Serif" font-size="10.00">Harlinn::Common::Core</text>
<text text-anchor="middle" x="428" y="-721.5" font-family="Helvetica,sans-Serif" font-size="10.00">::Math::Point2i</text>
</a>
</g>
</g>
<!-- Node6&#45;&gt;Node7 -->
<g id="edge585_Node000006_Node000007" class="edge">
<title>Node6&#45;&gt;Node7</title>
<g id="a_edge585_Node000006_Node000007"><a xlink:title=" ">
<path fill="none" stroke="#63b8ff" d="M320.5,-720.21C336.59,-721.62 353.31,-723.07 368.59,-724.41"/>
<polygon fill="#63b8ff" stroke="#63b8ff" points="321.26,-716.77 311,-719.39 320.65,-723.74 321.26,-716.77"/>
</a>
</g>
</g>
<!-- Node9 -->
<g id="Node000009" class="node">
<title>Node9</title>
<g id="a_Node000009"><a xlink:href="class_harlinn_1_1_common_1_1_core_1_1_math_1_1_point3f.html" target="_top" xlink:title=" ">
<polygon fill="white" stroke="#666666" points="487,-685.5 369,-685.5 369,-655.5 487,-655.5 487,-685.5"/>
<text text-anchor="start" x="377" y="-673.5" font-family="Helvetica,sans-Serif" font-size="10.00">Harlinn::Common::Core</text>
<text text-anchor="middle" x="428" y="-662.5" font-family="Helvetica,sans-Serif" font-size="10.00">::Math::Point3f</text>
</a>
</g>
</g>
<!-- Node6&#45;&gt;Node9 -->
<g id="edge586_Node000006_Node000009" class="edge">
<title>Node6&#45;&gt;Node9</title>
<g id="a_edge586_Node000006_Node000009"><a xlink:title=" ">
<path fill="none" stroke="#63b8ff" d="M320.5,-695.46C336.59,-691.68 353.31,-687.77 368.59,-684.19"/>
<polygon fill="#63b8ff" stroke="#63b8ff" points="319.9,-692 310.96,-697.69 321.5,-698.82 319.9,-692"/>
</a>
</g>
</g>
<!-- Node11 -->
<g id="Node000011" class="node">
<title>Node11</title>
<g id="a_Node000011"><a xlink:href="class_harlinn_1_1_common_1_1_core_1_1_math_1_1_point3i.html" target="_top" xlink:title=" ">
<polygon fill="white" stroke="#666666" points="487,-626.5 369,-626.5 369,-596.5 487,-596.5 487,-626.5"/>
<text text-anchor="start" x="377" y="-614.5" font-family="Helvetica,sans-Serif" font-size="10.00">Harlinn::Common::Core</text>
<text text-anchor="middle" x="428" y="-603.5" font-family="Helvetica,sans-Serif" font-size="10.00">::Math::Point3i</text>
</a>
</g>
</g>
<!-- Node6&#45;&gt;Node11 -->
<g id="edge587_Node000006_Node000011" class="edge">
<title>Node6&#45;&gt;Node11</title>
<g id="a_edge587_Node000006_Node000011"><a xlink:title=" ">
<path fill="none" stroke="#63b8ff" d="M309.46,-692.98C311.36,-691.88 313.22,-690.72 315,-689.5 335.59,-675.45 331.2,-661.64 351,-646.5 361.16,-638.74 373.31,-632.17 384.89,-626.91"/>
<polygon fill="#63b8ff" stroke="#63b8ff" points="308.23,-689.68 300.94,-697.37 311.44,-695.9 308.23,-689.68"/>
</a>
</g>
</g>
<!-- Node3 -->
<g id="Node000003" class="node">
<title>Node3</title>
<g id="a_Node000003"><a xlink:href="struct_harlinn_1_1_common_1_1_core_1_1_math_1_1_internal_1_1_tuple_base.html" target="_top" xlink:title=" ">
<polygon fill="white" stroke="#666666" points="134,-556.5 0,-556.5 0,-526.5 134,-526.5 134,-556.5"/>
<text text-anchor="start" x="8" y="-544.5" font-family="Helvetica,sans-Serif" font-size="10.00">Harlinn::Common::Core</text>
<text text-anchor="middle" x="67" y="-533.5" font-family="Helvetica,sans-Serif" font-size="10.00">::Math::Internal::TupleBase</text>
</a>
</g>
</g>
<!-- Node4 -->
<g id="Node000004" class="node">
<title>Node4</title>
<g id="a_Node000004"><a xlink:href="class_harlinn_1_1_common_1_1_core_1_1_math_1_1_tuple2.html" target="_top" xlink:title=" ">
<polygon fill="white" stroke="#666666" points="303,-847 182,-847 182,-806 303,-806 303,-847"/>
<text text-anchor="start" x="190" y="-835" font-family="Helvetica,sans-Serif" font-size="10.00">Harlinn::Common::Core</text>
<text text-anchor="start" x="190" y="-824" font-family="Helvetica,sans-Serif" font-size="10.00">::Math::Tuple2&lt; Point2f,</text>
<text text-anchor="middle" x="242.5" y="-813" font-family="Helvetica,sans-Serif" font-size="10.00"> float &gt;</text>
</a>
</g>
</g>
<!-- Node3&#45;&gt;Node4 -->
<g id="edge588_Node000003_Node000004" class="edge">
<title>Node3&#45;&gt;Node4</title>
<g id="a_edge588_Node000003_Node000004"><a xlink:title=" ">
<path fill="none" stroke="#63b8ff" d="M71.6,-568.05C79.85,-619.13 104.73,-731.82 170,-797.5 173.49,-801.02 177.47,-804.12 181.72,-806.86"/>
<polygon fill="#63b8ff" stroke="#63b8ff" points="75.07,-567.59 70.11,-558.23 68.15,-568.64 75.07,-567.59"/>
</a>
</g>
</g>
<!-- Node8 -->
<g id="Node000008" class="node">
<title>Node8</title>
<g id="a_Node000008"><a xlink:href="class_harlinn_1_1_common_1_1_core_1_1_math_1_1_tuple2.html" target="_top" xlink:title=" ">
<polygon fill="white" stroke="#666666" points="303,-788 182,-788 182,-747 303,-747 303,-788"/>
<text text-anchor="start" x="190" y="-776" font-family="Helvetica,sans-Serif" font-size="10.00">Harlinn::Common::Core</text>
<text text-anchor="start" x="190" y="-765" font-family="Helvetica,sans-Serif" font-size="10.00">::Math::Tuple2&lt; Point2i,</text>
<text text-anchor="middle" x="242.5" y="-754" font-family="Helvetica,sans-Serif" font-size="10.00"> Int32 &gt;</text>
</a>
</g>
</g>
<!-- Node3&#45;&gt;Node8 -->
<g id="edge590_Node000003_Node000008" class="edge">
<title>Node3&#45;&gt;Node8</title>
<g id="a_edge590_Node000003_Node000008"><a xlink:title=" ">
<path fill="none" stroke="#63b8ff" d="M75.29,-567.78C88.02,-609.14 118,-689.63 170,-737.5 173.66,-740.87 177.76,-743.9 182.09,-746.61"/>
<polygon fill="#63b8ff" stroke="#63b8ff" points="78.72,-567.02 72.52,-558.43 72.01,-569.01 78.72,-567.02"/>
</a>
</g>
</g>
<!-- Node13 -->
<g id="Node000013" class="node">
<title>Node13</title>
<g id="a_Node000013"><a xlink:href="class_harlinn_1_1_common_1_1_core_1_1_math_1_1_tuple2.html" target="_top" xlink:title=" ">
<polygon fill="white" stroke="#666666" points="301.5,-562 183.5,-562 183.5,-521 301.5,-521 301.5,-562"/>
<text text-anchor="start" x="191.5" y="-550" font-family="Helvetica,sans-Serif" font-size="10.00">Harlinn::Common::Core</text>
<text text-anchor="start" x="191.5" y="-539" font-family="Helvetica,sans-Serif" font-size="10.00">::Math::Tuple2&lt; Vector</text>
<text text-anchor="middle" x="242.5" y="-528" font-family="Helvetica,sans-Serif" font-size="10.00">&lt; Int32, 2 &gt;, Int32 &gt;</text>
</a>
</g>
</g>
<!-- Node3&#45;&gt;Node13 -->
<g id="edge592_Node000003_Node000013" class="edge">
<title>Node3&#45;&gt;Node13</title>
<g id="a_edge592_Node000003_Node000013"><a xlink:title=" ">
<path fill="none" stroke="#63b8ff" d="M145.22,-541.5C157.99,-541.5 171.05,-541.5 183.26,-541.5"/>
<polygon fill="#63b8ff" stroke="#63b8ff" points="145.6,-538 135.6,-541.5 145.6,-545 145.6,-538"/>
</a>
</g>
</g>
<!-- Node23 -->
<g id="Node000023" class="node">
<title>Node23</title>
<g id="a_Node000023"><a xlink:href="class_harlinn_1_1_common_1_1_core_1_1_math_1_1_tuple2.html" target="_top" xlink:title=" ">
<polygon fill="white" stroke="#666666" points="301.5,-503 183.5,-503 183.5,-462 301.5,-462 301.5,-503"/>
<text text-anchor="start" x="191.5" y="-491" font-family="Helvetica,sans-Serif" font-size="10.00">Harlinn::Common::Core</text>
<text text-anchor="start" x="191.5" y="-480" font-family="Helvetica,sans-Serif" font-size="10.00">::Math::Tuple2&lt; Vector</text>
<text text-anchor="middle" x="242.5" y="-469" font-family="Helvetica,sans-Serif" font-size="10.00">&lt; double, 2 &gt;, double &gt;</text>
</a>
</g>
</g>
<!-- Node3&#45;&gt;Node23 -->
<g id="edge594_Node000003_Node000023" class="edge">
<title>Node3&#45;&gt;Node23</title>
<g id="a_edge594_Node000003_Node000023"><a xlink:title=" ">
<path fill="none" stroke="#63b8ff" d="M123.98,-522.46C142.91,-516.03 164.08,-508.83 183.18,-502.33"/>
<polygon fill="#63b8ff" stroke="#63b8ff" points="122.91,-519.13 114.57,-525.67 125.16,-525.76 122.91,-519.13"/>
</a>
</g>
</g>
<!-- Node29 -->
<g id="Node000029" class="node">
<title>Node29</title>
<g id="a_Node000029"><a xlink:href="class_harlinn_1_1_common_1_1_core_1_1_math_1_1_tuple2.html" target="_top" xlink:title=" ">
<polygon fill="white" stroke="#666666" points="301.5,-444 183.5,-444 183.5,-403 301.5,-403 301.5,-444"/>
<text text-anchor="start" x="191.5" y="-432" font-family="Helvetica,sans-Serif" font-size="10.00">Harlinn::Common::Core</text>
<text text-anchor="start" x="191.5" y="-421" font-family="Helvetica,sans-Serif" font-size="10.00">::Math::Tuple2&lt; Vector</text>
<text text-anchor="middle" x="242.5" y="-410" font-family="Helvetica,sans-Serif" font-size="10.00">&lt; float, 2 &gt;, float &gt;</text>
</a>
</g>
</g>
<!-- Node3&#45;&gt;Node29 -->
<g id="edge596_Node000003_Node000029" class="edge">
<title>Node3&#45;&gt;Node29</title>
<g id="a_edge596_Node000003_Node000029"><a xlink:title=" ">
<path fill="none" stroke="#63b8ff" d="M90.71,-518.17C110.35,-498.95 140.21,-471.95 170,-453.5 175.26,-450.24 180.95,-447.18 186.72,-444.36"/>
<polygon fill="#63b8ff" stroke="#63b8ff" points="88.39,-515.54 83.77,-525.07 93.33,-520.5 88.39,-515.54"/>
</a>
</g>
</g>
<!-- Node2 -->
<g id="Node000002" class="node">
<title>Node2</title>
<g id="a_Node000002"><a xlink:href="class_harlinn_1_1_common_1_1_core_1_1_math_1_1_tuple3.html" target="_top" xlink:title=" ">
<polygon fill="white" stroke="#666666" points="307,-906 178,-906 178,-865 307,-865 307,-906"/>
<text text-anchor="start" x="186" y="-894" font-family="Helvetica,sans-Serif" font-size="10.00">Harlinn::Common::Core</text>
<text text-anchor="start" x="186" y="-883" font-family="Helvetica,sans-Serif" font-size="10.00">::Math::Tuple3&lt; Normal3f,</text>
<text text-anchor="middle" x="242.5" y="-872" font-family="Helvetica,sans-Serif" font-size="10.00"> float &gt;</text>
</a>
</g>
</g>
<!-- Node3&#45;&gt;Node2 -->
<g id="edge598_Node000003_Node000002" class="edge">
<title>Node3&#45;&gt;Node2</title>
<g id="a_edge598_Node000003_Node000002"><a xlink:title=" ">
<path fill="none" stroke="#63b8ff" d="M69.28,-568.23C73.52,-627.72 91.77,-772.42 170,-856.5 172.83,-859.54 176.02,-862.27 179.45,-864.72"/>
<polygon fill="#63b8ff" stroke="#63b8ff" points="72.78,-568.15 68.66,-558.39 65.79,-568.59 72.78,-568.15"/>
</a>
</g>
</g>
<!-- Node10 -->
<g id="Node000010" class="node">
<title>Node10</title>
<g id="a_Node000010"><a xlink:href="class_harlinn_1_1_common_1_1_core_1_1_math_1_1_tuple3.html" target="_top" xlink:title=" ">
<polygon fill="white" stroke="#666666" points="303,-680 182,-680 182,-639 303,-639 303,-680"/>
<text text-anchor="start" x="190" y="-668" font-family="Helvetica,sans-Serif" font-size="10.00">Harlinn::Common::Core</text>
<text text-anchor="start" x="190" y="-657" font-family="Helvetica,sans-Serif" font-size="10.00">::Math::Tuple3&lt; Point3f,</text>
<text text-anchor="middle" x="242.5" y="-646" font-family="Helvetica,sans-Serif" font-size="10.00"> float &gt;</text>
</a>
</g>
</g>
<!-- Node3&#45;&gt;Node10 -->
<g id="edge600_Node000003_Node000010" class="edge">
<title>Node3&#45;&gt;Node10</title>
<g id="a_edge600_Node000003_Node000010"><a xlink:title=" ">
<path fill="none" stroke="#63b8ff" d="M90.26,-564.87C109.84,-584.4 139.83,-611.95 170,-630.5 174.68,-633.38 179.69,-636.08 184.81,-638.58"/>
<polygon fill="#63b8ff" stroke="#63b8ff" points="92.87,-562.53 83.35,-557.86 87.88,-567.44 92.87,-562.53"/>
</a>
</g>
</g>
<!-- Node12 -->
<g id="Node000012" class="node">
<title>Node12</title>
<g id="a_Node000012"><a xlink:href="class_harlinn_1_1_common_1_1_core_1_1_math_1_1_tuple3.html" target="_top" xlink:title=" ">
<polygon fill="white" stroke="#666666" points="303,-621 182,-621 182,-580 303,-580 303,-621"/>
<text text-anchor="start" x="190" y="-609" font-family="Helvetica,sans-Serif" font-size="10.00">Harlinn::Common::Core</text>
<text text-anchor="start" x="190" y="-598" font-family="Helvetica,sans-Serif" font-size="10.00">::Math::Tuple3&lt; Point3i,</text>
<text text-anchor="middle" x="242.5" y="-587" font-family="Helvetica,sans-Serif" font-size="10.00"> Int32 &gt;</text>
</a>
</g>
</g>
<!-- Node3&#45;&gt;Node12 -->
<g id="edge602_Node000003_Node000012" class="edge">
<title>Node3&#45;&gt;Node12</title>
<g id="a_edge602_Node000003_Node000012"><a xlink:title=" ">
<path fill="none" stroke="#63b8ff" d="M123.98,-560.54C142.37,-566.79 162.89,-573.77 181.56,-580.12"/>
<polygon fill="#63b8ff" stroke="#63b8ff" points="125.16,-557.24 114.57,-557.33 122.91,-563.87 125.16,-557.24"/>
</a>
</g>
</g>
<!-- Node19 -->
<g id="Node000019" class="node">
<title>Node19</title>
<g id="a_Node000019"><a xlink:href="class_harlinn_1_1_common_1_1_core_1_1_math_1_1_tuple3.html" target="_top" xlink:title=" ">
<polygon fill="white" stroke="#666666" points="301.5,-385 183.5,-385 183.5,-344 301.5,-344 301.5,-385"/>
<text text-anchor="start" x="191.5" y="-373" font-family="Helvetica,sans-Serif" font-size="10.00">Harlinn::Common::Core</text>
<text text-anchor="start" x="191.5" y="-362" font-family="Helvetica,sans-Serif" font-size="10.00">::Math::Tuple3&lt; Vector</text>
<text text-anchor="middle" x="242.5" y="-351" font-family="Helvetica,sans-Serif" font-size="10.00">&lt; Int32, 3 &gt;, Int32 &gt;</text>
</a>
</g>
</g>
<!-- Node3&#45;&gt;Node19 -->
<g id="edge604_Node000003_Node000019" class="edge">
<title>Node3&#45;&gt;Node19</title>
<g id="a_edge604_Node000003_Node000019"><a xlink:title=" ">
<path fill="none" stroke="#63b8ff" d="M79.93,-516.05C96.19,-483.82 128.14,-428.4 170,-394.5 174.18,-391.11 178.81,-388.05 183.63,-385.29"/>
<polygon fill="#63b8ff" stroke="#63b8ff" points="76.97,-514.15 75.69,-524.67 83.25,-517.24 76.97,-514.15"/>
</a>
</g>
</g>
<!-- Node25 -->
<g id="Node000025" class="node">
<title>Node25</title>
<g id="a_Node000025"><a xlink:href="class_harlinn_1_1_common_1_1_core_1_1_math_1_1_tuple3.html" target="_top" xlink:title=" ">
<polygon fill="white" stroke="#666666" points="301.5,-277 183.5,-277 183.5,-236 301.5,-236 301.5,-277"/>
<text text-anchor="start" x="191.5" y="-265" font-family="Helvetica,sans-Serif" font-size="10.00">Harlinn::Common::Core</text>
<text text-anchor="start" x="191.5" y="-254" font-family="Helvetica,sans-Serif" font-size="10.00">::Math::Tuple3&lt; Vector</text>
<text text-anchor="middle" x="242.5" y="-243" font-family="Helvetica,sans-Serif" font-size="10.00">&lt; double, 3 &gt;, double &gt;</text>
</a>
</g>
</g>
<!-- Node3&#45;&gt;Node25 -->
<g id="edge606_Node000003_Node000025" class="edge">
<title>Node3&#45;&gt;Node25</title>
<g id="a_edge606_Node000003_Node000025"><a xlink:title=" ">
<path fill="none" stroke="#63b8ff" d="M71.76,-514.76C80.25,-463.82 105.45,-352.14 170,-286.5 173.87,-282.56 178.33,-279.12 183.1,-276.11"/>
<polygon fill="#63b8ff" stroke="#63b8ff" points="68.31,-514.14 70.22,-524.56 75.23,-515.22 68.31,-514.14"/>
</a>
</g>
</g>
<!-- Node31 -->
<g id="Node000031" class="node">
<title>Node31</title>
<g id="a_Node000031"><a xlink:href="class_harlinn_1_1_common_1_1_core_1_1_math_1_1_tuple3.html" target="_top" xlink:title=" ">
<polygon fill="white" stroke="#666666" points="301.5,-218 183.5,-218 183.5,-177 301.5,-177 301.5,-218"/>
<text text-anchor="start" x="191.5" y="-206" font-family="Helvetica,sans-Serif" font-size="10.00">Harlinn::Common::Core</text>
<text text-anchor="start" x="191.5" y="-195" font-family="Helvetica,sans-Serif" font-size="10.00">::Math::Tuple3&lt; Vector</text>
<text text-anchor="middle" x="242.5" y="-184" font-family="Helvetica,sans-Serif" font-size="10.00">&lt; float, 3 &gt;, float &gt;</text>
</a>
</g>
</g>
<!-- Node3&#45;&gt;Node31 -->
<g id="edge608_Node000003_Node000031" class="edge">
<title>Node3&#45;&gt;Node31</title>
<g id="a_edge608_Node000003_Node000031"><a xlink:title=" ">
<path fill="none" stroke="#63b8ff" d="M69.38,-514.92C73.82,-455.75 92.46,-311.77 170,-227.5 173.83,-223.34 178.32,-219.74 183.17,-216.62"/>
<polygon fill="#63b8ff" stroke="#63b8ff" points="65.9,-514.49 68.73,-524.7 72.88,-514.95 65.9,-514.49"/>
</a>
</g>
</g>
<!-- Node21 -->
<g id="Node000021" class="node">
<title>Node21</title>
<g id="a_Node000021"><a xlink:href="class_harlinn_1_1_common_1_1_core_1_1_math_1_1_tuple4.html" target="_top" xlink:title=" ">
<polygon fill="white" stroke="#666666" points="301.5,-159 183.5,-159 183.5,-118 301.5,-118 301.5,-159"/>
<text text-anchor="start" x="191.5" y="-147" font-family="Helvetica,sans-Serif" font-size="10.00">Harlinn::Common::Core</text>
<text text-anchor="start" x="191.5" y="-136" font-family="Helvetica,sans-Serif" font-size="10.00">::Math::Tuple4&lt; Vector</text>
<text text-anchor="middle" x="242.5" y="-125" font-family="Helvetica,sans-Serif" font-size="10.00">&lt; Int32, 4 &gt;, Int32 &gt;</text>
</a>
</g>
</g>
<!-- Node3&#45;&gt;Node21 -->
<g id="edge610_Node000003_Node000021" class="edge">
<title>Node3&#45;&gt;Node21</title>
<g id="a_edge610_Node000003_Node000021"><a xlink:title=" ">
<path fill="none" stroke="#63b8ff" d="M67.73,-515.07C68.45,-448.48 79.34,-271.82 170,-168.5 173.82,-164.15 178.37,-160.41 183.3,-157.21"/>
<polygon fill="#63b8ff" stroke="#63b8ff" points="64.23,-514.65 67.7,-524.66 71.23,-514.67 64.23,-514.65"/>
</a>
</g>
</g>
<!-- Node27 -->
<g id="Node000027" class="node">
<title>Node27</title>
<g id="a_Node000027"><a xlink:href="class_harlinn_1_1_common_1_1_core_1_1_math_1_1_tuple4.html" target="_top" xlink:title=" ">
<polygon fill="white" stroke="#666666" points="301.5,-100 183.5,-100 183.5,-59 301.5,-59 301.5,-100"/>
<text text-anchor="start" x="191.5" y="-88" font-family="Helvetica,sans-Serif" font-size="10.00">Harlinn::Common::Core</text>
<text text-anchor="start" x="191.5" y="-77" font-family="Helvetica,sans-Serif" font-size="10.00">::Math::Tuple4&lt; Vector</text>
<text text-anchor="middle" x="242.5" y="-66" font-family="Helvetica,sans-Serif" font-size="10.00">&lt; double, 4 &gt;, double &gt;</text>
</a>
</g>
</g>
<!-- Node3&#45;&gt;Node27 -->
<g id="edge612_Node000003_Node000027" class="edge">
<title>Node3&#45;&gt;Node27</title>
<g id="a_edge612_Node000003_Node000027"><a xlink:title=" ">
<path fill="none" stroke="#63b8ff" d="M71.14,-514.67C81.48,-430.28 116.89,-172.21 170,-109.5 173.74,-105.08 178.24,-101.3 183.14,-98.07"/>
<polygon fill="#63b8ff" stroke="#63b8ff" points="67.67,-514.18 69.95,-524.52 74.62,-515.01 67.67,-514.18"/>
</a>
</g>
</g>
<!-- Node33 -->
<g id="Node000033" class="node">
<title>Node33</title>
<g id="a_Node000033"><a xlink:href="class_harlinn_1_1_common_1_1_core_1_1_math_1_1_tuple4.html" target="_top" xlink:title=" ">
<polygon fill="white" stroke="#666666" points="301.5,-41 183.5,-41 183.5,0 301.5,0 301.5,-41"/>
<text text-anchor="start" x="191.5" y="-29" font-family="Helvetica,sans-Serif" font-size="10.00">Harlinn::Common::Core</text>
<text text-anchor="start" x="191.5" y="-18" font-family="Helvetica,sans-Serif" font-size="10.00">::Math::Tuple4&lt; Vector</text>
<text text-anchor="middle" x="242.5" y="-7" font-family="Helvetica,sans-Serif" font-size="10.00">&lt; float, 4 &gt;, float &gt;</text>
</a>
</g>
</g>
<!-- Node3&#45;&gt;Node33 -->
<g id="edge614_Node000003_Node000033" class="edge">
<title>Node3&#45;&gt;Node33</title>
<g id="a_edge614_Node000003_Node000033"><a xlink:title=" ">
<path fill="none" stroke="#63b8ff" d="M70.21,-515.21C78.37,-423.9 109.52,-122.05 170,-49.5 173.69,-45.08 178.15,-41.32 183.03,-38.13"/>
<polygon fill="#63b8ff" stroke="#63b8ff" points="66.75,-514.65 69.36,-524.92 73.72,-515.26 66.75,-514.65"/>
</a>
</g>
</g>
<!-- Node34 -->
<g id="Node000034" class="node">
<title>Node34</title>
<g id="a_Node000034"><a xlink:href="class_harlinn_1_1_common_1_1_core_1_1_math_1_1_tuple2.html" target="_top" xlink:title="A tuple holding two numbers.">
<polygon fill="white" stroke="#666666" points="315,-1050.5 170,-1050.5 170,-1020.5 315,-1020.5 315,-1050.5"/>
<text text-anchor="start" x="178" y="-1038.5" font-family="Helvetica,sans-Serif" font-size="10.00">Harlinn::Common::Core</text>
<text text-anchor="middle" x="242.5" y="-1027.5" font-family="Helvetica,sans-Serif" font-size="10.00">::Math::Tuple2&lt; DerivedT, T &gt;</text>
</a>
</g>
</g>
<!-- Node3&#45;&gt;Node34 -->
<g id="edge616_Node000003_Node000034" class="edge">
<title>Node3&#45;&gt;Node34</title>
<g id="a_edge616_Node000003_Node000034"><a xlink:title=" ">
<path fill="none" stroke="#63b8ff" d="M70.36,-568.2C78.77,-657.59 110.02,-944.52 170,-1011.5 172.97,-1014.82 176.41,-1017.68 180.15,-1020.14"/>
<polygon fill="#63b8ff" stroke="#63b8ff" points="73.86,-568.08 69.46,-558.45 66.89,-568.72 73.86,-568.08"/>
</a>
</g>
</g>
<!-- Node35 -->
<g id="Node000035" class="node">
<title>Node35</title>
<g id="a_Node000035"><a xlink:href="class_harlinn_1_1_common_1_1_core_1_1_math_1_1_tuple3.html" target="_top" xlink:title=" ">
<polygon fill="white" stroke="#666666" points="315,-1002.5 170,-1002.5 170,-972.5 315,-972.5 315,-1002.5"/>
<text text-anchor="start" x="178" y="-990.5" font-family="Helvetica,sans-Serif" font-size="10.00">Harlinn::Common::Core</text>
<text text-anchor="middle" x="242.5" y="-979.5" font-family="Helvetica,sans-Serif" font-size="10.00">::Math::Tuple3&lt; DerivedT, T &gt;</text>
</a>
</g>
</g>
<!-- Node3&#45;&gt;Node35 -->
<g id="edge617_Node000003_Node000035" class="edge">
<title>Node3&#45;&gt;Node35</title>
<g id="a_edge617_Node000003_Node000035"><a xlink:title=" ">
<path fill="none" stroke="#63b8ff" d="M71.07,-568.14C81.14,-651.33 115.74,-904.31 170,-963.5 173.01,-966.78 176.48,-969.61 180.24,-972.06"/>
<polygon fill="#63b8ff" stroke="#63b8ff" points="74.54,-567.74 69.89,-558.22 67.59,-568.56 74.54,-567.74"/>
</a>
</g>
</g>
<!-- Node36 -->
<g id="Node000036" class="node">
<title>Node36</title>
<g id="a_Node000036"><a xlink:href="class_harlinn_1_1_common_1_1_core_1_1_math_1_1_tuple4.html" target="_top" xlink:title=" ">
<polygon fill="white" stroke="#666666" points="315,-954.5 170,-954.5 170,-924.5 315,-924.5 315,-954.5"/>
<text text-anchor="start" x="178" y="-942.5" font-family="Helvetica,sans-Serif" font-size="10.00">Harlinn::Common::Core</text>
<text text-anchor="middle" x="242.5" y="-931.5" font-family="Helvetica,sans-Serif" font-size="10.00">::Math::Tuple4&lt; DerivedT, T &gt;</text>
</a>
</g>
</g>
<!-- Node3&#45;&gt;Node36 -->
<g id="edge618_Node000003_Node000036" class="edge">
<title>Node3&#45;&gt;Node36</title>
<g id="a_edge618_Node000003_Node000036"><a xlink:title=" ">
<path fill="none" stroke="#63b8ff" d="M67.26,-567.95C66.84,-635.3 75.19,-815.06 170,-915.5 173.15,-918.83 176.77,-921.7 180.68,-924.17"/>
<polygon fill="#63b8ff" stroke="#63b8ff" points="70.75,-568.29 67.4,-558.24 63.75,-568.19 70.75,-568.29"/>
</a>
</g>
</g>
<!-- Node4&#45;&gt;Node5 -->
<g id="edge589_Node000004_Node000005" class="edge">
<title>Node4&#45;&gt;Node5</title>
<g id="a_edge589_Node000004_Node000005"><a xlink:title=" ">
<path fill="none" stroke="#63b8ff" d="M314.57,-814.11C332.41,-811 351.35,-807.69 368.5,-804.7"/>
<polygon fill="#63b8ff" stroke="#63b8ff" points="314.07,-810.64 304.82,-815.81 315.27,-817.54 314.07,-810.64"/>
</a>
</g>
</g>
<!-- Node8&#45;&gt;Node7 -->
<g id="edge591_Node000008_Node000007" class="edge">
<title>Node8&#45;&gt;Node7</title>
<g id="a_edge591_Node000008_Node000007"><a xlink:title=" ">
<path fill="none" stroke="#63b8ff" d="M314.57,-752.78C332.41,-749.09 351.35,-745.17 368.5,-741.61"/>
<polygon fill="#63b8ff" stroke="#63b8ff" points="313.9,-749.35 304.81,-754.8 315.31,-756.2 313.9,-749.35"/>
</a>
</g>
</g>
<!-- Node14 -->
<g id="Node000014" class="node">
<title>Node14</title>
<g id="a_Node000014"><a xlink:href="class_harlinn_1_1_common_1_1_core_1_1_math_1_1_vector_3_01_int32_00_012_01_4.html" target="_top" xlink:title=" ">
<polygon fill="white" stroke="#666666" points="492.5,-549.5 363.5,-549.5 363.5,-519.5 492.5,-519.5 492.5,-549.5"/>
<text text-anchor="start" x="371.5" y="-537.5" font-family="Helvetica,sans-Serif" font-size="10.00">Harlinn::Common::Core</text>
<text text-anchor="middle" x="428" y="-526.5" font-family="Helvetica,sans-Serif" font-size="10.00">::Math::Vector&lt; Int32, 2 &gt;</text>
</a>
</g>
</g>
<!-- Node13&#45;&gt;Node14 -->
<g id="edge593_Node000013_Node000014" class="edge">
<title>Node13&#45;&gt;Node14</title>
<g id="a_edge593_Node000013_Node000014"><a xlink:title=" ">
<path fill="none" stroke="#63b8ff" d="M313.01,-538.85C329.46,-538.22 346.93,-537.55 363.11,-536.94"/>
<polygon fill="#63b8ff" stroke="#63b8ff" points="313.18,-535.34 303.33,-539.22 313.45,-542.33 313.18,-535.34"/>
</a>
</g>
</g>
<!-- Node22 -->
<g id="Node000022" class="node">
<title>Node22</title>
<g id="a_Node000022"><a xlink:href="class_harlinn_1_1_common_1_1_core_1_1_math_1_1_vector_3_01double_00_012_01_4.html" target="_top" xlink:title=" ">
<polygon fill="white" stroke="#666666" points="496.5,-493.5 359.5,-493.5 359.5,-463.5 496.5,-463.5 496.5,-493.5"/>
<text text-anchor="start" x="367.5" y="-481.5" font-family="Helvetica,sans-Serif" font-size="10.00">Harlinn::Common::Core</text>
<text text-anchor="middle" x="428" y="-470.5" font-family="Helvetica,sans-Serif" font-size="10.00">::Math::Vector&lt; double, 2 &gt;</text>
</a>
</g>
</g>
<!-- Node23&#45;&gt;Node22 -->
<g id="edge595_Node000023_Node000022" class="edge">
<title>Node23&#45;&gt;Node22</title>
<g id="a_edge595_Node000023_Node000022"><a xlink:title=" ">
<path fill="none" stroke="#63b8ff" d="M313.16,-480.98C328.26,-480.65 344.21,-480.3 359.23,-479.98"/>
<polygon fill="#63b8ff" stroke="#63b8ff" points="313.25,-477.48 303.33,-481.2 313.4,-484.48 313.25,-477.48"/>
</a>
</g>
</g>
<!-- Node28 -->
<g id="Node000028" class="node">
<title>Node28</title>
<g id="a_Node000028"><a xlink:href="class_harlinn_1_1_common_1_1_core_1_1_math_1_1_vector_3_01float_00_012_01_4.html" target="_top" xlink:title=" ">
<polygon fill="white" stroke="#666666" points="491,-443.5 365,-443.5 365,-413.5 491,-413.5 491,-443.5"/>
<text text-anchor="start" x="373" y="-431.5" font-family="Helvetica,sans-Serif" font-size="10.00">Harlinn::Common::Core</text>
<text text-anchor="middle" x="428" y="-420.5" font-family="Helvetica,sans-Serif" font-size="10.00">::Math::Vector&lt; float, 2 &gt;</text>
</a>
</g>
</g>
<!-- Node29&#45;&gt;Node28 -->
<g id="edge597_Node000029_Node000028" class="edge">
<title>Node29&#45;&gt;Node28</title>
<g id="a_edge597_Node000029_Node000028"><a xlink:title=" ">
<path fill="none" stroke="#63b8ff" d="M313.32,-425.4C330.22,-425.86 348.18,-426.35 364.72,-426.8"/>
<polygon fill="#63b8ff" stroke="#63b8ff" points="313.42,-421.9 303.33,-425.13 313.23,-428.9 313.42,-421.9"/>
</a>
</g>
</g>
<!-- Node2&#45;&gt;Node1 -->
<g id="edge599_Node000002_Node000001" class="edge">
<title>Node2&#45;&gt;Node1</title>
<g id="a_edge599_Node000002_Node000001"><a xlink:title=" ">
<path fill="none" stroke="#63b8ff" d="M306.19,-911.14C309.19,-912.57 312.14,-914.03 315,-915.5 347.09,-931.99 382.24,-954.41 404.44,-969.16"/>
<polygon fill="#63b8ff" stroke="#63b8ff" points="307.79,-908.02 297.24,-907 304.85,-914.38 307.79,-908.02"/>
</a>
</g>
</g>
<!-- Node10&#45;&gt;Node9 -->
<g id="edge601_Node000010_Node000009" class="edge">
<title>Node10&#45;&gt;Node9</title>
<g id="a_edge601_Node000010_Node000009"><a xlink:title=" ">
<path fill="none" stroke="#63b8ff" d="M314.82,-663.78C332.59,-664.84 351.43,-665.97 368.5,-666.99"/>
<polygon fill="#63b8ff" stroke="#63b8ff" points="315.03,-660.28 304.84,-663.18 314.61,-667.27 315.03,-660.28"/>
</a>
</g>
</g>
<!-- Node12&#45;&gt;Node11 -->
<g id="edge603_Node000012_Node000011" class="edge">
<title>Node12&#45;&gt;Node11</title>
<g id="a_edge603_Node000012_Node000011"><a xlink:title=" ">
<path fill="none" stroke="#63b8ff" d="M314.82,-604.78C332.59,-605.84 351.43,-606.97 368.5,-607.99"/>
<polygon fill="#63b8ff" stroke="#63b8ff" points="315.03,-601.28 304.84,-604.18 314.61,-608.27 315.03,-601.28"/>
</a>
</g>
</g>
<!-- Node18 -->
<g id="Node000018" class="node">
<title>Node18</title>
<g id="a_Node000018"><a xlink:href="class_harlinn_1_1_common_1_1_core_1_1_math_1_1_vector_3_01_int32_00_013_01_4.html" target="_top" xlink:title=" ">
<polygon fill="white" stroke="#666666" points="492.5,-395.5 363.5,-395.5 363.5,-365.5 492.5,-365.5 492.5,-395.5"/>
<text text-anchor="start" x="371.5" y="-383.5" font-family="Helvetica,sans-Serif" font-size="10.00">Harlinn::Common::Core</text>
<text text-anchor="middle" x="428" y="-372.5" font-family="Helvetica,sans-Serif" font-size="10.00">::Math::Vector&lt; Int32, 3 &gt;</text>
</a>
</g>
</g>
<!-- Node19&#45;&gt;Node18 -->
<g id="edge605_Node000019_Node000018" class="edge">
<title>Node19&#45;&gt;Node18</title>
<g id="a_edge605_Node000019_Node000018"><a xlink:title=" ">
<path fill="none" stroke="#63b8ff" d="M313.01,-370.56C329.46,-372 346.93,-373.52 363.11,-374.93"/>
<polygon fill="#63b8ff" stroke="#63b8ff" points="313.59,-367.1 303.32,-369.72 312.98,-374.07 313.59,-367.1"/>
</a>
</g>
</g>
<!-- Node24 -->
<g id="Node000024" class="node">
<title>Node24</title>
<g id="a_Node000024"><a xlink:href="class_harlinn_1_1_common_1_1_core_1_1_math_1_1_vector_3_01double_00_013_01_4.html" target="_top" xlink:title=" ">
<polygon fill="white" stroke="#666666" points="496.5,-251.5 359.5,-251.5 359.5,-221.5 496.5,-221.5 496.5,-251.5"/>
<text text-anchor="start" x="367.5" y="-239.5" font-family="Helvetica,sans-Serif" font-size="10.00">Harlinn::Common::Core</text>
<text text-anchor="middle" x="428" y="-228.5" font-family="Helvetica,sans-Serif" font-size="10.00">::Math::Vector&lt; double, 3 &gt;</text>
</a>
</g>
</g>
<!-- Node25&#45;&gt;Node24 -->
<g id="edge607_Node000025_Node000024" class="edge">
<title>Node25&#45;&gt;Node24</title>
<g id="a_edge607_Node000025_Node000024"><a xlink:title=" ">
<path fill="none" stroke="#63b8ff" d="M313.16,-248.91C328.26,-247.26 344.21,-245.52 359.23,-243.89"/>
<polygon fill="#63b8ff" stroke="#63b8ff" points="312.88,-245.42 303.32,-249.98 313.64,-252.38 312.88,-245.42"/>
</a>
</g>
</g>
<!-- Node30 -->
<g id="Node000030" class="node">
<title>Node30</title>
<g id="a_Node000030"><a xlink:href="class_harlinn_1_1_common_1_1_core_1_1_math_1_1_vector_3_01float_00_013_01_4.html" target="_top" xlink:title=" ">
<polygon fill="white" stroke="#666666" points="491,-203.5 365,-203.5 365,-173.5 491,-173.5 491,-203.5"/>
<text text-anchor="start" x="373" y="-191.5" font-family="Helvetica,sans-Serif" font-size="10.00">Harlinn::Common::Core</text>
<text text-anchor="middle" x="428" y="-180.5" font-family="Helvetica,sans-Serif" font-size="10.00">::Math::Vector&lt; float, 3 &gt;</text>
</a>
</g>
</g>
<!-- Node31&#45;&gt;Node30 -->
<g id="edge609_Node000031_Node000030" class="edge">
<title>Node31&#45;&gt;Node30</title>
<g id="a_edge609_Node000031_Node000030"><a xlink:title=" ">
<path fill="none" stroke="#63b8ff" d="M312.83,-194.1C329.88,-193.26 348.02,-192.37 364.72,-191.55"/>
<polygon fill="#63b8ff" stroke="#63b8ff" points="313.14,-190.58 303.32,-194.57 313.48,-197.57 313.14,-190.58"/>
</a>
</g>
</g>
<!-- Node20 -->
<g id="Node000020" class="node">
<title>Node20</title>
<g id="a_Node000020"><a xlink:href="class_harlinn_1_1_common_1_1_core_1_1_math_1_1_vector_3_01_int32_00_014_01_4.html" target="_top" xlink:title=" ">
<polygon fill="white" stroke="#666666" points="492.5,-154.5 363.5,-154.5 363.5,-124.5 492.5,-124.5 492.5,-154.5"/>
<text text-anchor="start" x="371.5" y="-142.5" font-family="Helvetica,sans-Serif" font-size="10.00">Harlinn::Common::Core</text>
<text text-anchor="middle" x="428" y="-131.5" font-family="Helvetica,sans-Serif" font-size="10.00">::Math::Vector&lt; Int32, 4 &gt;</text>
</a>
</g>
</g>
<!-- Node21&#45;&gt;Node20 -->
<g id="edge611_Node000021_Node000020" class="edge">
<title>Node21&#45;&gt;Node20</title>
<g id="a_edge611_Node000021_Node000020"><a xlink:title=" ">
<path fill="none" stroke="#63b8ff" d="M313.01,-138.88C329.46,-138.97 346.93,-139.06 363.11,-139.15"/>
<polygon fill="#63b8ff" stroke="#63b8ff" points="313.35,-135.38 303.33,-138.83 313.31,-142.38 313.35,-135.38"/>
</a>
</g>
</g>
<!-- Node26 -->
<g id="Node000026" class="node">
<title>Node26</title>
<g id="a_Node000026"><a xlink:href="class_harlinn_1_1_common_1_1_core_1_1_math_1_1_vector_3_01double_00_014_01_4.html" target="_top" xlink:title=" ">
<polygon fill="white" stroke="#666666" points="496.5,-99.5 359.5,-99.5 359.5,-69.5 496.5,-69.5 496.5,-99.5"/>
<text text-anchor="start" x="367.5" y="-87.5" font-family="Helvetica,sans-Serif" font-size="10.00">Harlinn::Common::Core</text>
<text text-anchor="middle" x="428" y="-76.5" font-family="Helvetica,sans-Serif" font-size="10.00">::Math::Vector&lt; double, 4 &gt;</text>
</a>
</g>
</g>
<!-- Node27&#45;&gt;Node26 -->
<g id="edge613_Node000027_Node000026" class="edge">
<title>Node27&#45;&gt;Node26</title>
<g id="a_edge613_Node000027_Node000026"><a xlink:title=" ">
<path fill="none" stroke="#63b8ff" d="M313.16,-81.4C328.26,-81.81 344.21,-82.24 359.23,-82.65"/>
<polygon fill="#63b8ff" stroke="#63b8ff" points="313.42,-77.9 303.33,-81.13 313.23,-84.9 313.42,-77.9"/>
</a>
</g>
</g>
<!-- Node32 -->
<g id="Node000032" class="node">
<title>Node32</title>
<g id="a_Node000032"><a xlink:href="class_harlinn_1_1_common_1_1_core_1_1_math_1_1_vector_3_01float_00_014_01_4.html" target="_top" xlink:title=" ">
<polygon fill="white" stroke="#666666" points="491,-46.5 365,-46.5 365,-16.5 491,-16.5 491,-46.5"/>
<text text-anchor="start" x="373" y="-34.5" font-family="Helvetica,sans-Serif" font-size="10.00">Harlinn::Common::Core</text>
<text text-anchor="middle" x="428" y="-23.5" font-family="Helvetica,sans-Serif" font-size="10.00">::Math::Vector&lt; float, 4 &gt;</text>
</a>
</g>
</g>
<!-- Node33&#45;&gt;Node32 -->
<g id="edge615_Node000033_Node000032" class="edge">
<title>Node33&#45;&gt;Node32</title>
<g id="a_edge615_Node000033_Node000032"><a xlink:title=" ">
<path fill="none" stroke="#63b8ff" d="M312.83,-24.66C329.88,-25.68 348.02,-26.77 364.72,-27.77"/>
<polygon fill="#63b8ff" stroke="#63b8ff" points="313.52,-21.19 303.32,-24.09 313.1,-28.18 313.52,-21.19"/>
</a>
</g>
</g>
<!-- Node15 -->
<g id="Node000015" class="node">
<title>Node15</title>
<g id="a_Node000015"><a xlink:href="struct_harlinn_1_1_common_1_1_core_1_1_math_1_1_internal_1_1_vector_base.html" target="_top" xlink:title=" ">
<polygon fill="white" stroke="#666666" points="312,-325.5 173,-325.5 173,-295.5 312,-295.5 312,-325.5"/>
<text text-anchor="start" x="181" y="-313.5" font-family="Helvetica,sans-Serif" font-size="10.00">Harlinn::Common::Core</text>
<text text-anchor="middle" x="242.5" y="-302.5" font-family="Helvetica,sans-Serif" font-size="10.00">::Math::Internal::VectorBase</text>
</a>
</g>
</g>
<!-- Node15&#45;&gt;Node14 -->
<g id="edge621_Node000015_Node000014" class="edge">
<title>Node15&#45;&gt;Node14</title>
<g id="a_edge621_Node000015_Node000014"><a xlink:title=" ">
<path fill="none" stroke="#63b8ff" d="M312.41,-332.79C313.31,-333.66 314.17,-334.56 315,-335.5 365.26,-392.41 302.54,-444.05 351,-502.5 356.76,-509.44 364.28,-514.91 372.36,-519.2"/>
<polygon fill="#63b8ff" stroke="#63b8ff" points="314.77,-330.2 304.74,-326.79 310.46,-335.71 314.77,-330.2"/>
</a>
</g>
</g>
<!-- Node15&#45;&gt;Node22 -->
<g id="edge624_Node000015_Node000022" class="edge">
<title>Node15&#45;&gt;Node22</title>
<g id="a_edge624_Node000015_Node000022"><a xlink:title=" ">
<path fill="none" stroke="#63b8ff" d="M311.87,-332.51C312.95,-333.47 314,-334.46 315,-335.5 352.74,-374.69 313.13,-413.44 351,-452.5 355.08,-456.71 359.86,-460.23 365.01,-463.19"/>
<polygon fill="#63b8ff" stroke="#63b8ff" points="314.23,-329.9 304.08,-326.86 310.12,-335.57 314.23,-329.9"/>
</a>
</g>
</g>
<!-- Node15&#45;&gt;Node28 -->
<g id="edge627_Node000015_Node000028" class="edge">
<title>Node15&#45;&gt;Node28</title>
<g id="a_edge627_Node000015_Node000028"><a xlink:title=" ">
<path fill="none" stroke="#63b8ff" d="M310.4,-331.87C311.99,-333.02 313.53,-334.23 315,-335.5 341.16,-358.13 324.5,-382.27 351,-404.5 355.13,-407.97 359.77,-410.94 364.67,-413.48"/>
<polygon fill="#63b8ff" stroke="#63b8ff" points="312.39,-328.99 302.03,-326.73 308.72,-334.95 312.39,-328.99"/>
</a>
</g>
</g>
<!-- Node15&#45;&gt;Node18 -->
<g id="edge622_Node000015_Node000018" class="edge">
<title>Node15&#45;&gt;Node18</title>
<g id="a_edge622_Node000015_Node000018"><a xlink:title=" ">
<path fill="none" stroke="#63b8ff" d="M302.43,-330.08C306.72,-331.82 310.95,-333.63 315,-335.5 331.82,-343.26 334.06,-349 351,-356.5 357.96,-359.58 365.43,-362.45 372.89,-365.05"/>
<polygon fill="#63b8ff" stroke="#63b8ff" points="303.7,-326.82 293.11,-326.47 301.17,-333.35 303.7,-326.82"/>
</a>
</g>
</g>
<!-- Node15&#45;&gt;Node24 -->
<g id="edge625_Node000015_Node000024" class="edge">
<title>Node15&#45;&gt;Node24</title>
<g id="a_edge625_Node000015_Node000024"><a xlink:title=" ">
<path fill="none" stroke="#63b8ff" d="M306.03,-290.77C309.1,-289.41 312.11,-287.99 315,-286.5 332.55,-277.48 333.37,-269.36 351,-260.5 357.31,-257.33 364.11,-254.47 370.98,-251.93"/>
<polygon fill="#63b8ff" stroke="#63b8ff" points="304.74,-287.52 296.83,-294.57 307.41,-293.99 304.74,-287.52"/>
</a>
</g>
</g>
<!-- Node15&#45;&gt;Node30 -->
<g id="edge628_Node000015_Node000030" class="edge">
<title>Node15&#45;&gt;Node30</title>
<g id="a_edge628_Node000015_Node000030"><a xlink:title=" ">
<path fill="none" stroke="#63b8ff" d="M312.11,-288.88C313.1,-288.11 314.07,-287.32 315,-286.5 342.47,-262.36 323.31,-236.39 351,-212.5 355.09,-208.97 359.69,-205.97 364.56,-203.4"/>
<polygon fill="#63b8ff" stroke="#63b8ff" points="310.34,-285.86 303.88,-294.25 314.17,-291.72 310.34,-285.86"/>
</a>
</g>
</g>
<!-- Node15&#45;&gt;Node20 -->
<g id="edge623_Node000015_Node000020" class="edge">
<title>Node15&#45;&gt;Node20</title>
<g id="a_edge623_Node000015_Node000020"><a xlink:title=" ">
<path fill="none" stroke="#63b8ff" d="M313.16,-288.31C313.79,-287.72 314.4,-287.12 315,-286.5 354.23,-245.79 311.65,-205.09 351,-164.5 354.58,-160.81 358.71,-157.66 363.16,-154.98"/>
<polygon fill="#63b8ff" stroke="#63b8ff" points="311.28,-285.34 305.45,-294.18 315.53,-290.91 311.28,-285.34"/>
</a>
</g>
</g>
<!-- Node15&#45;&gt;Node26 -->
<g id="edge626_Node000015_Node000026" class="edge">
<title>Node15&#45;&gt;Node26</title>
<g id="a_edge626_Node000015_Node000026"><a xlink:title=" ">
<path fill="none" stroke="#63b8ff" d="M313.58,-288.03C314.06,-287.53 314.54,-287.02 315,-286.5 366.63,-228.48 301.23,-175.13 351,-115.5 356.39,-109.05 363.33,-103.92 370.82,-99.85"/>
<polygon fill="#63b8ff" stroke="#63b8ff" points="311.56,-285.15 306.04,-294.2 316,-290.57 311.56,-285.15"/>
</a>
</g>
</g>
<!-- Node15&#45;&gt;Node32 -->
<g id="edge629_Node000015_Node000032" class="edge">
<title>Node15&#45;&gt;Node32</title>
<g id="a_edge629_Node000015_Node000032"><a xlink:title=" ">
<path fill="none" stroke="#63b8ff" d="M313.93,-287.72C314.29,-287.32 314.65,-286.91 315,-286.5 380.71,-208.87 286.88,-139.45 351,-60.5 355.45,-55.02 361.06,-50.57 367.21,-46.97"/>
<polygon fill="#63b8ff" stroke="#63b8ff" points="311.81,-284.92 306.53,-294.11 316.39,-290.22 311.81,-284.92"/>
</a>
</g>
</g>
<!-- Node16 -->
<g id="Node000016" class="node">
<title>Node16</title>
<g id="a_Node000016"><a xlink:href="class_harlinn_1_1_common_1_1_core_1_1_math_1_1_vector.html" target="_top" xlink:title=" ">
<polygon fill="white" stroke="#666666" points="505,-347.5 351,-347.5 351,-317.5 505,-317.5 505,-347.5"/>
<text text-anchor="start" x="359" y="-335.5" font-family="Helvetica,sans-Serif" font-size="10.00">Harlinn::Common::Core</text>
<text text-anchor="middle" x="428" y="-324.5" font-family="Helvetica,sans-Serif" font-size="10.00">::Math::Vector&lt; ValueType, 3 &gt;</text>
</a>
</g>
</g>
<!-- Node15&#45;&gt;Node16 -->
<g id="edge619_Node000015_Node000016" class="edge">
<title>Node15&#45;&gt;Node16</title>
<g id="a_edge619_Node000015_Node000016"><a xlink:title=" ">
<path fill="none" stroke="#63b8ff" d="M323.63,-320.11C332.61,-321.18 341.75,-322.28 350.68,-323.35"/>
<polygon fill="#63b8ff" stroke="#63b8ff" points="324.2,-316.65 313.85,-318.93 323.37,-323.6 324.2,-316.65"/>
</a>
</g>
</g>
<!-- Node17 -->
<g id="Node000017" class="node">
<title>Node17</title>
<g id="a_Node000017"><a xlink:href="class_harlinn_1_1_common_1_1_core_1_1_math_1_1_vector.html" target="_top" xlink:title=" ">
<polygon fill="white" stroke="#666666" points="498,-299.5 358,-299.5 358,-269.5 498,-269.5 498,-299.5"/>
<text text-anchor="start" x="366" y="-287.5" font-family="Helvetica,sans-Serif" font-size="10.00">Harlinn::Common::Core</text>
<text text-anchor="middle" x="428" y="-276.5" font-family="Helvetica,sans-Serif" font-size="10.00">::Math::Vector&lt; ValueT, N &gt;</text>
</a>
</g>
</g>
<!-- Node15&#45;&gt;Node17 -->
<g id="edge620_Node000015_Node000017" class="edge">
<title>Node15&#45;&gt;Node17</title>
<g id="a_edge620_Node000015_Node000017"><a xlink:title=" ">
<path fill="none" stroke="#63b8ff" d="M323.62,-299.15C335,-297.54 346.62,-295.89 357.76,-294.31"/>
<polygon fill="#63b8ff" stroke="#63b8ff" points="323.26,-295.66 313.85,-300.53 324.24,-302.59 323.26,-295.66"/>
</a>
</g>
</g>
</g>
</svg>
