<?xml version="1.0" encoding="UTF-8" standalone="no"?>
<!DOCTYPE svg PUBLIC "-//W3C//DTD SVG 1.1//EN"
 "http://www.w3.org/Graphics/SVG/1.1/DTD/svg11.dtd">
<!-- Generated by graphviz version 7.0.1 (20221109.1506)
 -->
<!-- Title: Graphical Class Hierarchy Pages: 1 -->
<svg width="996pt" height="643pt"
 viewBox="0.00 0.00 996.00 643.00" xmlns="http://www.w3.org/2000/svg" xmlns:xlink="http://www.w3.org/1999/xlink">
<g id="graph0" class="graph" transform="scale(1 1) rotate(0) translate(4 639)">
<title>Graphical Class Hierarchy</title>
<!-- Node0 -->
<g id="Node000000" class="node">
<title>Node0</title>
<g id="a_Node000000"><a xlink:title=" ">
<polygon fill="#e0e0e0" stroke="#999999" points="83,-398 0,-398 0,-379 83,-379 83,-398"/>
<text text-anchor="middle" x="41.5" y="-386" font-family="Helvetica,sans-Serif" font-size="10.00">ContextHandler</text>
</a>
</g>
</g>
<!-- Node1 -->
<g id="Node000001" class="node">
<title>Node1</title>
<g id="a_Node000001"><a xlink:href="class_harlinn_1_1_common_1_1_core_1_1_i_o_1_1_comm_device_handler.xhtml" target="_top" xlink:title=" ">
<polygon fill="white" stroke="#666666" points="275.5,-635 137.5,-635 137.5,-594 275.5,-594 275.5,-635"/>
<text text-anchor="start" x="145.5" y="-623" font-family="Helvetica,sans-Serif" font-size="10.00">Harlinn::Common::Core</text>
<text text-anchor="start" x="145.5" y="-612" font-family="Helvetica,sans-Serif" font-size="10.00">::IO::CommDeviceHandler</text>
<text text-anchor="middle" x="206.5" y="-601" font-family="Helvetica,sans-Serif" font-size="10.00">&lt; CommDeviceDispatcher &gt;</text>
</a>
</g>
</g>
<!-- Node0&#45;&gt;Node1 -->
<g id="edge73_Node000000_Node000001" class="edge">
<title>Node0&#45;&gt;Node1</title>
<g id="a_edge73_Node000000_Node000001"><a xlink:title=" ">
<path fill="none" stroke="#63b8ff" d="M44.92,-409.58C50.58,-449.32 68.29,-535.69 119,-584.5 124.27,-589.57 130.44,-593.79 137.01,-597.29"/>
<polygon fill="#63b8ff" stroke="#63b8ff" points="48.4,-409.19 43.65,-399.72 41.45,-410.09 48.4,-409.19"/>
</a>
</g>
</g>
<!-- Node3 -->
<g id="Node000003" class="node">
<title>Node3</title>
<g id="a_Node000003"><a xlink:href="class_harlinn_1_1_common_1_1_core_1_1_i_o_1_1_file_handler.xhtml" target="_top" xlink:title=" ">
<polygon fill="white" stroke="#666666" points="290,-575.5 123,-575.5 123,-545.5 290,-545.5 290,-575.5"/>
<text text-anchor="start" x="131" y="-563.5" font-family="Helvetica,sans-Serif" font-size="10.00">Harlinn::Common::Core</text>
<text text-anchor="middle" x="206.5" y="-552.5" font-family="Helvetica,sans-Serif" font-size="10.00">::IO::FileHandler&lt; FileDispatcher &gt;</text>
</a>
</g>
</g>
<!-- Node0&#45;&gt;Node3 -->
<g id="edge75_Node000000_Node000003" class="edge">
<title>Node0&#45;&gt;Node3</title>
<g id="a_edge75_Node000000_Node000003"><a xlink:title=" ">
<path fill="none" stroke="#63b8ff" d="M47.5,-409.27C56.33,-441.42 77.77,-503.01 119,-536.5 123.11,-539.84 127.66,-542.72 132.45,-545.19"/>
<polygon fill="#63b8ff" stroke="#63b8ff" points="50.9,-408.43 45.01,-399.62 44.12,-410.18 50.9,-408.43"/>
</a>
</g>
</g>
<!-- Node5 -->
<g id="Node000005" class="node">
<title>Node5</title>
<g id="a_Node000005"><a xlink:href="class_harlinn_1_1_common_1_1_core_1_1_i_o_1_1_pipe_handler.xhtml" target="_top" xlink:title=" ">
<polygon fill="white" stroke="#666666" points="294,-527.5 119,-527.5 119,-497.5 294,-497.5 294,-527.5"/>
<text text-anchor="start" x="127" y="-515.5" font-family="Helvetica,sans-Serif" font-size="10.00">Harlinn::Common::Core</text>
<text text-anchor="middle" x="206.5" y="-504.5" font-family="Helvetica,sans-Serif" font-size="10.00">::IO::PipeHandler&lt; PipeDispatcher &gt;</text>
</a>
</g>
</g>
<!-- Node0&#45;&gt;Node5 -->
<g id="edge77_Node000000_Node000005" class="edge">
<title>Node0&#45;&gt;Node5</title>
<g id="a_edge77_Node000000_Node000005"><a xlink:title=" ">
<path fill="none" stroke="#63b8ff" d="M52.52,-408.36C65.01,-431.11 88.49,-467.89 119,-488.5 123.91,-491.82 129.26,-494.68 134.83,-497.14"/>
<polygon fill="#63b8ff" stroke="#63b8ff" points="55.76,-407 47.99,-399.79 49.57,-410.27 55.76,-407"/>
</a>
</g>
</g>
<!-- Node7 -->
<g id="Node000007" class="node">
<title>Node7</title>
<g id="a_Node000007"><a xlink:href="class_harlinn_1_1_common_1_1_core_1_1_i_o_1_1_sockets_1_1_socket_handler.xhtml" target="_top" xlink:title=" ">
<polygon fill="white" stroke="#666666" points="283,-479.5 130,-479.5 130,-427.5 283,-427.5 283,-479.5"/>
<text text-anchor="start" x="138" y="-467.5" font-family="Helvetica,sans-Serif" font-size="10.00">Harlinn::Common::Core</text>
<text text-anchor="start" x="138" y="-456.5" font-family="Helvetica,sans-Serif" font-size="10.00">::IO::Sockets::SocketHandler</text>
<text text-anchor="start" x="138" y="-445.5" font-family="Helvetica,sans-Serif" font-size="10.00">&lt; TcpSimpleConnectionHandler</text>
<text text-anchor="middle" x="206.5" y="-434.5" font-family="Helvetica,sans-Serif" font-size="10.00">&lt; ListenerT, ProtocolT &gt; &gt;</text>
</a>
</g>
</g>
<!-- Node0&#45;&gt;Node7 -->
<g id="edge79_Node000000_Node000007" class="edge">
<title>Node0&#45;&gt;Node7</title>
<g id="a_edge79_Node000000_Node000007"><a xlink:title=" ">
<path fill="none" stroke="#63b8ff" d="M77.81,-402.58C95.78,-409.75 118.21,-418.69 139.24,-427.08"/>
<polygon fill="#63b8ff" stroke="#63b8ff" points="79.25,-399.39 68.66,-398.93 76.65,-405.89 79.25,-399.39"/>
</a>
</g>
</g>
<!-- Node11 -->
<g id="Node000011" class="node">
<title>Node11</title>
<g id="a_Node000011"><a xlink:href="class_harlinn_1_1_common_1_1_core_1_1_i_o_1_1_sockets_1_1_socket_handler.xhtml" target="_top" xlink:title=" ">
<polygon fill="white" stroke="#666666" points="293.5,-409 119.5,-409 119.5,-368 293.5,-368 293.5,-409"/>
<text text-anchor="start" x="127.5" y="-397" font-family="Helvetica,sans-Serif" font-size="10.00">Harlinn::Common::Core</text>
<text text-anchor="start" x="127.5" y="-386" font-family="Helvetica,sans-Serif" font-size="10.00">::IO::Sockets::SocketHandler</text>
<text text-anchor="middle" x="206.5" y="-375" font-family="Helvetica,sans-Serif" font-size="10.00">&lt; TcpSimpleListener&lt; ProtocolT &gt; &gt;</text>
</a>
</g>
</g>
<!-- Node0&#45;&gt;Node11 -->
<g id="edge83_Node000000_Node000011" class="edge">
<title>Node0&#45;&gt;Node11</title>
<g id="a_edge83_Node000000_Node000011"><a xlink:title=" ">
<path fill="none" stroke="#63b8ff" d="M94.46,-388.5C102.38,-388.5 110.73,-388.5 119.15,-388.5"/>
<polygon fill="#63b8ff" stroke="#63b8ff" points="94.72,-385 84.72,-388.5 94.72,-392 94.72,-385"/>
</a>
</g>
</g>
<!-- Node15 -->
<g id="Node000015" class="node">
<title>Node15</title>
<g id="a_Node000015"><a xlink:href="class_harlinn_1_1_common_1_1_core_1_1_i_o_1_1_comm_device_handler.xhtml" target="_top" xlink:title=" ">
<polygon fill="white" stroke="#666666" points="270.5,-350 142.5,-350 142.5,-309 270.5,-309 270.5,-350"/>
<text text-anchor="start" x="150.5" y="-338" font-family="Helvetica,sans-Serif" font-size="10.00">Harlinn::Common::Core</text>
<text text-anchor="start" x="150.5" y="-327" font-family="Helvetica,sans-Serif" font-size="10.00">::IO::CommDeviceHandler</text>
<text text-anchor="middle" x="206.5" y="-316" font-family="Helvetica,sans-Serif" font-size="10.00">&lt; DerivedT &gt;</text>
</a>
</g>
</g>
<!-- Node0&#45;&gt;Node15 -->
<g id="edge87_Node000000_Node000015" class="edge">
<title>Node0&#45;&gt;Node15</title>
<g id="a_edge87_Node000000_Node000015"><a xlink:title=" ">
<path fill="none" stroke="#63b8ff" d="M77.27,-374.44C90.3,-369.28 105.28,-363.49 119,-358.5 126.44,-355.79 134.28,-353.04 142.07,-350.36"/>
<polygon fill="#63b8ff" stroke="#63b8ff" points="76.24,-371.08 68.25,-378.03 78.83,-377.58 76.24,-371.08"/>
</a>
</g>
</g>
<!-- Node16 -->
<g id="Node000016" class="node">
<title>Node16</title>
<g id="a_Node000016"><a xlink:href="class_harlinn_1_1_common_1_1_core_1_1_i_o_1_1_file_handler.xhtml" target="_top" xlink:title=" ">
<polygon fill="white" stroke="#666666" points="277.5,-290.5 135.5,-290.5 135.5,-260.5 277.5,-260.5 277.5,-290.5"/>
<text text-anchor="start" x="143.5" y="-278.5" font-family="Helvetica,sans-Serif" font-size="10.00">Harlinn::Common::Core</text>
<text text-anchor="middle" x="206.5" y="-267.5" font-family="Helvetica,sans-Serif" font-size="10.00">::IO::FileHandler&lt; DerivedT &gt;</text>
</a>
</g>
</g>
<!-- Node0&#45;&gt;Node16 -->
<g id="edge88_Node000000_Node000016" class="edge">
<title>Node0&#45;&gt;Node16</title>
<g id="a_edge88_Node000000_Node000016"><a xlink:title=" ">
<path fill="none" stroke="#63b8ff" d="M54.23,-369.03C67.47,-348.71 90.88,-317.36 119,-299.5 124.13,-296.24 129.71,-293.42 135.47,-290.98"/>
<polygon fill="#63b8ff" stroke="#63b8ff" points="51.43,-366.92 49.07,-377.24 57.35,-370.64 51.43,-366.92"/>
</a>
</g>
</g>
<!-- Node17 -->
<g id="Node000017" class="node">
<title>Node17</title>
<g id="a_Node000017"><a xlink:href="class_harlinn_1_1_common_1_1_core_1_1_i_o_1_1_pipe_handler.xhtml" target="_top" xlink:title=" ">
<polygon fill="white" stroke="#666666" points="279.5,-242.5 133.5,-242.5 133.5,-212.5 279.5,-212.5 279.5,-242.5"/>
<text text-anchor="start" x="141.5" y="-230.5" font-family="Helvetica,sans-Serif" font-size="10.00">Harlinn::Common::Core</text>
<text text-anchor="middle" x="206.5" y="-219.5" font-family="Helvetica,sans-Serif" font-size="10.00">::IO::PipeHandler&lt; DerivedT &gt;</text>
</a>
</g>
</g>
<!-- Node0&#45;&gt;Node17 -->
<g id="edge89_Node000000_Node000017" class="edge">
<title>Node0&#45;&gt;Node17</title>
<g id="a_edge89_Node000000_Node000017"><a xlink:title=" ">
<path fill="none" stroke="#63b8ff" d="M48.36,-367.99C58.03,-337.87 80.22,-281.98 119,-251.5 123.41,-248.03 128.29,-245.07 133.42,-242.53"/>
<polygon fill="#63b8ff" stroke="#63b8ff" points="45.06,-366.8 45.51,-377.38 51.76,-368.83 45.06,-366.8"/>
</a>
</g>
</g>
<!-- Node18 -->
<g id="Node000018" class="node">
<title>Node18</title>
<g id="a_Node000018"><a xlink:href="class_harlinn_1_1_common_1_1_core_1_1_i_o_1_1_sockets_1_1_socket_handler.xhtml" target="_top" xlink:title="Classes derived from this template are used to implement asynchronous operations on sockets.">
<polygon fill="white" stroke="#666666" points="278.5,-194 134.5,-194 134.5,-153 278.5,-153 278.5,-194"/>
<text text-anchor="start" x="142.5" y="-182" font-family="Helvetica,sans-Serif" font-size="10.00">Harlinn::Common::Core</text>
<text text-anchor="start" x="142.5" y="-171" font-family="Helvetica,sans-Serif" font-size="10.00">::IO::Sockets::SocketHandler</text>
<text text-anchor="middle" x="206.5" y="-160" font-family="Helvetica,sans-Serif" font-size="10.00">&lt; DerivedT &gt;</text>
</a>
</g>
</g>
<!-- Node0&#45;&gt;Node18 -->
<g id="edge90_Node000000_Node000018" class="edge">
<title>Node0&#45;&gt;Node18</title>
<g id="a_edge90_Node000000_Node000018"><a xlink:title=" ">
<path fill="none" stroke="#63b8ff" d="M45.41,-367.81C51.82,-329.92 70.62,-249.14 119,-203.5 123.51,-199.25 128.65,-195.59 134.13,-192.45"/>
<polygon fill="#63b8ff" stroke="#63b8ff" points="42,-366.98 43.92,-377.4 48.92,-368.05 42,-366.98"/>
</a>
</g>
</g>
<!-- Node2 -->
<g id="Node000002" class="node">
<title>Node2</title>
<g id="a_Node000002"><a xlink:href="class_harlinn_1_1_common_1_1_core_1_1_i_o_1_1_comm_device_dispatcher.xhtml" target="_top" xlink:title=" ">
<polygon fill="white" stroke="#666666" points="498,-629.5 356,-629.5 356,-599.5 498,-599.5 498,-629.5"/>
<text text-anchor="start" x="364" y="-617.5" font-family="Helvetica,sans-Serif" font-size="10.00">Harlinn::Common::Core</text>
<text text-anchor="middle" x="427" y="-606.5" font-family="Helvetica,sans-Serif" font-size="10.00">::IO::CommDeviceDispatcher</text>
</a>
</g>
</g>
<!-- Node1&#45;&gt;Node2 -->
<g id="edge74_Node000001_Node000002" class="edge">
<title>Node1&#45;&gt;Node2</title>
<g id="a_edge74_Node000001_Node000002"><a xlink:title=" ">
<path fill="none" stroke="#63b8ff" d="M286.95,-614.5C309.44,-614.5 333.74,-614.5 355.64,-614.5"/>
<polygon fill="#63b8ff" stroke="#63b8ff" points="287.25,-611 277.25,-614.5 287.25,-618 287.25,-611"/>
</a>
</g>
</g>
<!-- Node4 -->
<g id="Node000004" class="node">
<title>Node4</title>
<g id="a_Node000004"><a xlink:href="class_harlinn_1_1_common_1_1_core_1_1_i_o_1_1_file_dispatcher.xhtml" target="_top" xlink:title=" ">
<polygon fill="white" stroke="#666666" points="486,-581.5 368,-581.5 368,-551.5 486,-551.5 486,-581.5"/>
<text text-anchor="start" x="376" y="-569.5" font-family="Helvetica,sans-Serif" font-size="10.00">Harlinn::Common::Core</text>
<text text-anchor="middle" x="427" y="-558.5" font-family="Helvetica,sans-Serif" font-size="10.00">::IO::FileDispatcher</text>
</a>
</g>
</g>
<!-- Node3&#45;&gt;Node4 -->
<g id="edge76_Node000003_Node000004" class="edge">
<title>Node3&#45;&gt;Node4</title>
<g id="a_edge76_Node000003_Node000004"><a xlink:title=" ">
<path fill="none" stroke="#63b8ff" d="M301.68,-563.09C324.08,-563.7 347.34,-564.34 367.6,-564.9"/>
<polygon fill="#63b8ff" stroke="#63b8ff" points="302.02,-559.59 291.93,-562.82 301.83,-566.59 302.02,-559.59"/>
</a>
</g>
</g>
<!-- Node6 -->
<g id="Node000006" class="node">
<title>Node6</title>
<g id="a_Node000006"><a xlink:href="class_harlinn_1_1_common_1_1_core_1_1_i_o_1_1_pipe_dispatcher.xhtml" target="_top" xlink:title=" ">
<polygon fill="white" stroke="#666666" points="486,-533.5 368,-533.5 368,-503.5 486,-503.5 486,-533.5"/>
<text text-anchor="start" x="376" y="-521.5" font-family="Helvetica,sans-Serif" font-size="10.00">Harlinn::Common::Core</text>
<text text-anchor="middle" x="427" y="-510.5" font-family="Helvetica,sans-Serif" font-size="10.00">::IO::PipeDispatcher</text>
</a>
</g>
</g>
<!-- Node5&#45;&gt;Node6 -->
<g id="edge78_Node000005_Node000006" class="edge">
<title>Node5&#45;&gt;Node6</title>
<g id="a_edge78_Node000005_Node000006"><a xlink:title=" ">
<path fill="none" stroke="#63b8ff" d="M305.83,-515.2C327.02,-515.78 348.76,-516.38 367.82,-516.9"/>
<polygon fill="#63b8ff" stroke="#63b8ff" points="306.09,-511.71 296,-514.93 305.9,-518.7 306.09,-511.71"/>
</a>
</g>
</g>
<!-- Node8 -->
<g id="Node000008" class="node">
<title>Node8</title>
<g id="a_Node000008"><a xlink:href="class_harlinn_1_1_common_1_1_core_1_1_i_o_1_1_sockets_1_1_server_1_1_tcp_connection_handler_base.xhtml" target="_top" xlink:title=" ">
<polygon fill="white" stroke="#666666" points="503.5,-485 350.5,-485 350.5,-422 503.5,-422 503.5,-485"/>
<text text-anchor="start" x="358.5" y="-473" font-family="Helvetica,sans-Serif" font-size="10.00">Harlinn::Common::Core</text>
<text text-anchor="start" x="358.5" y="-462" font-family="Helvetica,sans-Serif" font-size="10.00">::IO::Sockets::Server</text>
<text text-anchor="start" x="358.5" y="-451" font-family="Helvetica,sans-Serif" font-size="10.00">::TcpConnectionHandlerBase</text>
<text text-anchor="start" x="358.5" y="-440" font-family="Helvetica,sans-Serif" font-size="10.00">&lt; TcpSimpleConnectionHandler</text>
<text text-anchor="middle" x="427" y="-429" font-family="Helvetica,sans-Serif" font-size="10.00">&lt; ListenerT, ProtocolT &gt; &gt;</text>
</a>
</g>
</g>
<!-- Node7&#45;&gt;Node8 -->
<g id="edge80_Node000007_Node000008" class="edge">
<title>Node7&#45;&gt;Node8</title>
<g id="a_edge80_Node000007_Node000008"><a xlink:title=" ">
<path fill="none" stroke="#63b8ff" d="M294.65,-453.5C313.07,-453.5 332.37,-453.5 350.33,-453.5"/>
<polygon fill="#63b8ff" stroke="#63b8ff" points="294.82,-450 284.82,-453.5 294.82,-457 294.82,-450"/>
</a>
</g>
</g>
<!-- Node9 -->
<g id="Node000009" class="node">
<title>Node9</title>
<g id="a_Node000009"><a xlink:href="class_harlinn_1_1_common_1_1_core_1_1_i_o_1_1_sockets_1_1_server_1_1_tcp_connection_handler.xhtml" target="_top" xlink:title=" ">
<polygon fill="white" stroke="#666666" points="760,-501.5 590,-501.5 590,-427.5 760,-427.5 760,-501.5"/>
<text text-anchor="start" x="598" y="-489.5" font-family="Helvetica,sans-Serif" font-size="10.00">Harlinn::Common::Core</text>
<text text-anchor="start" x="598" y="-478.5" font-family="Helvetica,sans-Serif" font-size="10.00">::IO::Sockets::Server</text>
<text text-anchor="start" x="598" y="-467.5" font-family="Helvetica,sans-Serif" font-size="10.00">::TcpConnectionHandler</text>
<text text-anchor="start" x="598" y="-456.5" font-family="Helvetica,sans-Serif" font-size="10.00">&lt; TcpSimpleConnectionHandler</text>
<text text-anchor="start" x="598" y="-445.5" font-family="Helvetica,sans-Serif" font-size="10.00">&lt; ListenerT, ProtocolT &gt;, ListenerT,</text>
<text text-anchor="middle" x="675" y="-434.5" font-family="Helvetica,sans-Serif" font-size="10.00"> ProtocolT &gt;</text>
</a>
</g>
</g>
<!-- Node8&#45;&gt;Node9 -->
<g id="edge81_Node000008_Node000009" class="edge">
<title>Node8&#45;&gt;Node9</title>
<g id="a_edge81_Node000008_Node000009"><a xlink:title=" ">
<path fill="none" stroke="#63b8ff" d="M515.18,-457.4C539.45,-458.48 565.77,-459.66 589.86,-460.74"/>
<polygon fill="#63b8ff" stroke="#63b8ff" points="515.47,-453.91 505.33,-456.96 515.16,-460.9 515.47,-453.91"/>
</a>
</g>
</g>
<!-- Node10 -->
<g id="Node000010" class="node">
<title>Node10</title>
<g id="a_Node000010"><a xlink:href="class_harlinn_1_1_common_1_1_core_1_1_i_o_1_1_sockets_1_1_server_1_1_tcp_simple_connection_handler.xhtml" target="_top" xlink:title=" ">
<polygon fill="white" stroke="#666666" points="982,-490.5 832,-490.5 832,-438.5 982,-438.5 982,-490.5"/>
<text text-anchor="start" x="840" y="-478.5" font-family="Helvetica,sans-Serif" font-size="10.00">Harlinn::Common::Core</text>
<text text-anchor="start" x="840" y="-467.5" font-family="Helvetica,sans-Serif" font-size="10.00">::IO::Sockets::Server</text>
<text text-anchor="start" x="840" y="-456.5" font-family="Helvetica,sans-Serif" font-size="10.00">::TcpSimpleConnectionHandler</text>
<text text-anchor="middle" x="907" y="-445.5" font-family="Helvetica,sans-Serif" font-size="10.00">&lt; ListenerT, ProtocolT &gt;</text>
</a>
</g>
</g>
<!-- Node9&#45;&gt;Node10 -->
<g id="edge82_Node000009_Node000010" class="edge">
<title>Node9&#45;&gt;Node10</title>
<g id="a_edge82_Node000009_Node000010"><a xlink:title=" ">
<path fill="none" stroke="#63b8ff" d="M771.67,-464.5C791.67,-464.5 812.46,-464.5 831.55,-464.5"/>
<polygon fill="#63b8ff" stroke="#63b8ff" points="771.85,-461 761.85,-464.5 771.85,-468 771.85,-461"/>
</a>
</g>
</g>
<!-- Node12 -->
<g id="Node000012" class="node">
<title>Node12</title>
<g id="a_Node000012"><a xlink:href="class_harlinn_1_1_common_1_1_core_1_1_i_o_1_1_sockets_1_1_server_1_1_tcp_listener_base.xhtml" target="_top" xlink:title=" ">
<polygon fill="white" stroke="#666666" points="502,-403.5 352,-403.5 352,-351.5 502,-351.5 502,-403.5"/>
<text text-anchor="start" x="360" y="-391.5" font-family="Helvetica,sans-Serif" font-size="10.00">Harlinn::Common::Core</text>
<text text-anchor="start" x="360" y="-380.5" font-family="Helvetica,sans-Serif" font-size="10.00">::IO::Sockets::Server</text>
<text text-anchor="start" x="360" y="-369.5" font-family="Helvetica,sans-Serif" font-size="10.00">::TcpListenerBase&lt; TcpSimple</text>
<text text-anchor="middle" x="427" y="-358.5" font-family="Helvetica,sans-Serif" font-size="10.00">Listener&lt; ProtocolT &gt; &gt;</text>
</a>
</g>
</g>
<!-- Node11&#45;&gt;Node12 -->
<g id="edge84_Node000011_Node000012" class="edge">
<title>Node11&#45;&gt;Node12</title>
<g id="a_edge84_Node000011_Node000012"><a xlink:title=" ">
<path fill="none" stroke="#63b8ff" d="M305.13,-383.58C320.72,-382.8 336.63,-382 351.57,-381.25"/>
<polygon fill="#63b8ff" stroke="#63b8ff" points="305.18,-380.08 295.37,-384.08 305.53,-387.07 305.18,-380.08"/>
</a>
</g>
</g>
<!-- Node13 -->
<g id="Node000013" class="node">
<title>Node13</title>
<g id="a_Node000013"><a xlink:href="class_harlinn_1_1_common_1_1_core_1_1_i_o_1_1_sockets_1_1_server_1_1_tcp_listener.xhtml" target="_top" xlink:title=" ">
<polygon fill="white" stroke="#666666" points="790,-409 560,-409 560,-346 790,-346 790,-409"/>
<text text-anchor="start" x="568" y="-397" font-family="Helvetica,sans-Serif" font-size="10.00">Harlinn::Common::Core</text>
<text text-anchor="start" x="568" y="-386" font-family="Helvetica,sans-Serif" font-size="10.00">::IO::Sockets::Server</text>
<text text-anchor="start" x="568" y="-375" font-family="Helvetica,sans-Serif" font-size="10.00">::TcpListener&lt; TcpSimpleListener</text>
<text text-anchor="start" x="568" y="-364" font-family="Helvetica,sans-Serif" font-size="10.00">&lt; ProtocolT &gt;, TcpSimpleConnectionHandler</text>
<text text-anchor="middle" x="675" y="-353" font-family="Helvetica,sans-Serif" font-size="10.00">&lt; TcpSimpleListener&lt; ProtocolT &gt;, ProtocolT &gt; &gt;</text>
</a>
</g>
</g>
<!-- Node12&#45;&gt;Node13 -->
<g id="edge85_Node000012_Node000013" class="edge">
<title>Node12&#45;&gt;Node13</title>
<g id="a_edge85_Node000012_Node000013"><a xlink:title=" ">
<path fill="none" stroke="#63b8ff" d="M513.7,-377.5C528.6,-377.5 544.3,-377.5 559.82,-377.5"/>
<polygon fill="#63b8ff" stroke="#63b8ff" points="513.99,-374 503.99,-377.5 513.99,-381 513.99,-374"/>
</a>
</g>
</g>
<!-- Node14 -->
<g id="Node000014" class="node">
<title>Node14</title>
<g id="a_Node000014"><a xlink:href="class_harlinn_1_1_common_1_1_core_1_1_i_o_1_1_sockets_1_1_server_1_1_tcp_simple_listener.xhtml" target="_top" xlink:title=" ">
<polygon fill="white" stroke="#666666" points="988,-398 826,-398 826,-357 988,-357 988,-398"/>
<text text-anchor="start" x="834" y="-386" font-family="Helvetica,sans-Serif" font-size="10.00">Harlinn::Common::Core</text>
<text text-anchor="start" x="834" y="-375" font-family="Helvetica,sans-Serif" font-size="10.00">::IO::Sockets::Server</text>
<text text-anchor="middle" x="907" y="-364" font-family="Helvetica,sans-Serif" font-size="10.00">::TcpSimpleListener&lt; ProtocolT &gt;</text>
</a>
</g>
</g>
<!-- Node13&#45;&gt;Node14 -->
<g id="edge86_Node000013_Node000014" class="edge">
<title>Node13&#45;&gt;Node14</title>
<g id="a_edge86_Node000013_Node000014"><a xlink:title=" ">
<path fill="none" stroke="#63b8ff" d="M801.8,-377.5C809.89,-377.5 817.91,-377.5 825.69,-377.5"/>
<polygon fill="#63b8ff" stroke="#63b8ff" points="801.84,-374 791.84,-377.5 801.84,-381 801.84,-374"/>
</a>
</g>
</g>
<!-- Node19 -->
<g id="Node000019" class="node">
<title>Node19</title>
<g id="a_Node000019"><a xlink:href="class_harlinn_1_1_common_1_1_core_1_1_i_o_1_1_sockets_1_1_server_1_1_tcp_connection_handler_base.xhtml" target="_top" xlink:title=" ">
<polygon fill="white" stroke="#666666" points="498.5,-322.5 355.5,-322.5 355.5,-270.5 498.5,-270.5 498.5,-322.5"/>
<text text-anchor="start" x="363.5" y="-310.5" font-family="Helvetica,sans-Serif" font-size="10.00">Harlinn::Common::Core</text>
<text text-anchor="start" x="363.5" y="-299.5" font-family="Helvetica,sans-Serif" font-size="10.00">::IO::Sockets::Server</text>
<text text-anchor="start" x="363.5" y="-288.5" font-family="Helvetica,sans-Serif" font-size="10.00">::TcpConnectionHandlerBase</text>
<text text-anchor="middle" x="427" y="-277.5" font-family="Helvetica,sans-Serif" font-size="10.00">&lt; DerivedT &gt;</text>
</a>
</g>
</g>
<!-- Node18&#45;&gt;Node19 -->
<g id="edge91_Node000018_Node000019" class="edge">
<title>Node18&#45;&gt;Node19</title>
<g id="a_edge91_Node000018_Node000019"><a xlink:title=" ">
<path fill="none" stroke="#63b8ff" d="M288.63,-199.57C290.48,-200.82 292.27,-202.13 294,-203.5 317.47,-222.12 306.76,-241.59 330,-260.5 337.59,-266.68 346.35,-271.87 355.43,-276.2"/>
<polygon fill="#63b8ff" stroke="#63b8ff" points="290.66,-196.7 280.28,-194.56 287.05,-202.7 290.66,-196.7"/>
</a>
</g>
</g>
<!-- Node21 -->
<g id="Node000021" class="node">
<title>Node21</title>
<g id="a_Node000021"><a xlink:href="class_harlinn_1_1_common_1_1_core_1_1_i_o_1_1_sockets_1_1_server_1_1_tcp_listener_base.xhtml" target="_top" xlink:title=" ">
<polygon fill="white" stroke="#666666" points="502,-252 352,-252 352,-211 502,-211 502,-252"/>
<text text-anchor="start" x="360" y="-240" font-family="Helvetica,sans-Serif" font-size="10.00">Harlinn::Common::Core</text>
<text text-anchor="start" x="360" y="-229" font-family="Helvetica,sans-Serif" font-size="10.00">::IO::Sockets::Server</text>
<text text-anchor="middle" x="427" y="-218" font-family="Helvetica,sans-Serif" font-size="10.00">::TcpListenerBase&lt; DerivedT &gt;</text>
</a>
</g>
</g>
<!-- Node18&#45;&gt;Node21 -->
<g id="edge93_Node000018_Node000021" class="edge">
<title>Node18&#45;&gt;Node21</title>
<g id="a_edge93_Node000018_Node000021"><a xlink:title=" ">
<path fill="none" stroke="#63b8ff" d="M289.61,-195.3C310.04,-200.72 331.83,-206.5 351.85,-211.82"/>
<polygon fill="#63b8ff" stroke="#63b8ff" points="290.77,-191.98 280.21,-192.8 288.97,-198.75 290.77,-191.98"/>
</a>
</g>
</g>
<!-- Node23 -->
<g id="Node000023" class="node">
<title>Node23</title>
<g id="a_Node000023"><a xlink:href="class_harlinn_1_1_common_1_1_core_1_1_i_o_1_1_sockets_1_1_tcp_1_1_client_1_1_connection_handler.xhtml" target="_top" xlink:title=" ">
<polygon fill="white" stroke="#666666" points="506.5,-193 347.5,-193 347.5,-152 506.5,-152 506.5,-193"/>
<text text-anchor="start" x="355.5" y="-181" font-family="Helvetica,sans-Serif" font-size="10.00">Harlinn::Common::Core</text>
<text text-anchor="start" x="355.5" y="-170" font-family="Helvetica,sans-Serif" font-size="10.00">::IO::Sockets::Tcp::Client</text>
<text text-anchor="middle" x="427" y="-159" font-family="Helvetica,sans-Serif" font-size="10.00">::ConnectionHandler&lt; DerivedT &gt;</text>
</a>
</g>
</g>
<!-- Node18&#45;&gt;Node23 -->
<g id="edge95_Node000018_Node000023" class="edge">
<title>Node18&#45;&gt;Node23</title>
<g id="a_edge95_Node000018_Node000023"><a xlink:title=" ">
<path fill="none" stroke="#63b8ff" d="M290.23,-173.12C308.94,-173.04 328.76,-172.95 347.3,-172.86"/>
<polygon fill="#63b8ff" stroke="#63b8ff" points="290.24,-169.62 280.26,-173.17 290.27,-176.62 290.24,-169.62"/>
</a>
</g>
</g>
<!-- Node24 -->
<g id="Node000024" class="node">
<title>Node24</title>
<g id="a_Node000024"><a xlink:href="class_harlinn_1_1_common_1_1_core_1_1_i_o_1_1_sockets_1_1_tcp_1_1_server_1_1_connection_handler.xhtml" target="_top" xlink:title=" ">
<polygon fill="white" stroke="#666666" points="513.5,-133.5 340.5,-133.5 340.5,-81.5 513.5,-81.5 513.5,-133.5"/>
<text text-anchor="start" x="348.5" y="-121.5" font-family="Helvetica,sans-Serif" font-size="10.00">Harlinn::Common::Core</text>
<text text-anchor="start" x="348.5" y="-110.5" font-family="Helvetica,sans-Serif" font-size="10.00">::IO::Sockets::Tcp::Server</text>
<text text-anchor="start" x="348.5" y="-99.5" font-family="Helvetica,sans-Serif" font-size="10.00">::ConnectionHandler&lt; DerivedT,</text>
<text text-anchor="middle" x="427" y="-88.5" font-family="Helvetica,sans-Serif" font-size="10.00"> ListenerHandlerT, RequestsPoolT &gt;</text>
</a>
</g>
</g>
<!-- Node18&#45;&gt;Node24 -->
<g id="edge96_Node000018_Node000024" class="edge">
<title>Node18&#45;&gt;Node24</title>
<g id="a_edge96_Node000018_Node000024"><a xlink:title=" ">
<path fill="none" stroke="#63b8ff" d="M287.48,-149.34C304.65,-144.15 322.87,-138.65 340.25,-133.4"/>
<polygon fill="#63b8ff" stroke="#63b8ff" points="286.94,-145.85 278.38,-152.09 288.97,-152.55 286.94,-145.85"/>
</a>
</g>
</g>
<!-- Node25 -->
<g id="Node000025" class="node">
<title>Node25</title>
<g id="a_Node000025"><a xlink:href="class_harlinn_1_1_common_1_1_core_1_1_i_o_1_1_sockets_1_1_tcp_1_1_server_1_1_listener_handler.xhtml" target="_top" xlink:title=" ">
<polygon fill="white" stroke="#666666" points="524,-63 330,-63 330,0 524,0 524,-63"/>
<text text-anchor="start" x="338" y="-51" font-family="Helvetica,sans-Serif" font-size="10.00">Harlinn::Common::Core</text>
<text text-anchor="start" x="338" y="-40" font-family="Helvetica,sans-Serif" font-size="10.00">::IO::Sockets::Tcp::Server</text>
<text text-anchor="start" x="338" y="-29" font-family="Helvetica,sans-Serif" font-size="10.00">::ListenerHandler&lt; DerivedT,</text>
<text text-anchor="start" x="338" y="-18" font-family="Helvetica,sans-Serif" font-size="10.00"> ConnectionHandlerT, ConnectionHandler</text>
<text text-anchor="middle" x="427" y="-7" font-family="Helvetica,sans-Serif" font-size="10.00">PoolT &gt;</text>
</a>
</g>
</g>
<!-- Node18&#45;&gt;Node25 -->
<g id="edge97_Node000018_Node000025" class="edge">
<title>Node18&#45;&gt;Node25</title>
<g id="a_edge97_Node000018_Node000025"><a xlink:title=" ">
<path fill="none" stroke="#63b8ff" d="M236.84,-145.2C260.58,-123.35 295.6,-93.43 330,-72.5 335.19,-69.34 340.66,-66.31 346.26,-63.43"/>
<polygon fill="#63b8ff" stroke="#63b8ff" points="234.67,-142.44 229.74,-151.81 239.44,-147.56 234.67,-142.44"/>
</a>
</g>
</g>
<!-- Node20 -->
<g id="Node000020" class="node">
<title>Node20</title>
<g id="a_Node000020"><a xlink:href="class_harlinn_1_1_common_1_1_core_1_1_i_o_1_1_sockets_1_1_server_1_1_tcp_connection_handler.xhtml" target="_top" xlink:title=" ">
<polygon fill="white" stroke="#666666" points="735,-328 615,-328 615,-265 735,-265 735,-328"/>
<text text-anchor="start" x="623" y="-316" font-family="Helvetica,sans-Serif" font-size="10.00">Harlinn::Common::Core</text>
<text text-anchor="start" x="623" y="-305" font-family="Helvetica,sans-Serif" font-size="10.00">::IO::Sockets::Server</text>
<text text-anchor="start" x="623" y="-294" font-family="Helvetica,sans-Serif" font-size="10.00">::TcpConnectionHandler</text>
<text text-anchor="start" x="623" y="-283" font-family="Helvetica,sans-Serif" font-size="10.00">&lt; DerivedT, ListenerT,</text>
<text text-anchor="middle" x="675" y="-272" font-family="Helvetica,sans-Serif" font-size="10.00"> ProtocolT &gt;</text>
</a>
</g>
</g>
<!-- Node19&#45;&gt;Node20 -->
<g id="edge92_Node000019_Node000020" class="edge">
<title>Node19&#45;&gt;Node20</title>
<g id="a_edge92_Node000019_Node000020"><a xlink:title=" ">
<path fill="none" stroke="#63b8ff" d="M510.24,-296.5C544.51,-296.5 583.53,-296.5 614.88,-296.5"/>
<polygon fill="#63b8ff" stroke="#63b8ff" points="510.34,-293 500.34,-296.5 510.34,-300 510.34,-293"/>
</a>
</g>
</g>
<!-- Node22 -->
<g id="Node000022" class="node">
<title>Node22</title>
<g id="a_Node000022"><a xlink:href="class_harlinn_1_1_common_1_1_core_1_1_i_o_1_1_sockets_1_1_server_1_1_tcp_listener.xhtml" target="_top" xlink:title=" ">
<polygon fill="white" stroke="#666666" points="736,-246.5 614,-246.5 614,-194.5 736,-194.5 736,-246.5"/>
<text text-anchor="start" x="622" y="-234.5" font-family="Helvetica,sans-Serif" font-size="10.00">Harlinn::Common::Core</text>
<text text-anchor="start" x="622" y="-223.5" font-family="Helvetica,sans-Serif" font-size="10.00">::IO::Sockets::Server</text>
<text text-anchor="start" x="622" y="-212.5" font-family="Helvetica,sans-Serif" font-size="10.00">::TcpListener&lt; DerivedT,</text>
<text text-anchor="middle" x="675" y="-201.5" font-family="Helvetica,sans-Serif" font-size="10.00"> ConnectionHandlerT &gt;</text>
</a>
</g>
</g>
<!-- Node21&#45;&gt;Node22 -->
<g id="edge94_Node000021_Node000022" class="edge">
<title>Node21&#45;&gt;Node22</title>
<g id="a_edge94_Node000021_Node000022"><a xlink:title=" ">
<path fill="none" stroke="#63b8ff" d="M513.95,-227.66C546.9,-226.18 583.76,-224.54 613.8,-223.19"/>
<polygon fill="#63b8ff" stroke="#63b8ff" points="513.82,-224.16 503.99,-228.1 514.13,-231.15 513.82,-224.16"/>
</a>
</g>
</g>
</g>
</svg>
