<?xml version="1.0" encoding="UTF-8" standalone="no"?>
<!DOCTYPE svg PUBLIC "-//W3C//DTD SVG 1.1//EN"
 "http://www.w3.org/Graphics/SVG/1.1/DTD/svg11.dtd">
<!-- Generated by graphviz version 7.0.1 (20221109.1506)
 -->
<!-- Title: Graphical Class Hierarchy Pages: 1 -->
<svg width="438pt" height="278pt"
 viewBox="0.00 0.00 438.00 278.00" xmlns="http://www.w3.org/2000/svg" xmlns:xlink="http://www.w3.org/1999/xlink">
<g id="graph0" class="graph" transform="scale(1 1) rotate(0) translate(4 274)">
<title>Graphical Class Hierarchy</title>
<!-- Node0 -->
<g id="Node000000" class="node">
<title>Node0</title>
<g id="a_Node000000"><a xlink:href="structhalf__float_1_1detail_1_1bool__type.html" target="_top" xlink:title="Helper for tag dispatching.">
<polygon fill="white" stroke="#666666" points="101,-126 0,-126 0,-96 101,-96 101,-126"/>
<text text-anchor="start" x="8" y="-114" font-family="Helvetica,sans-Serif" font-size="10.00">half_float::detail</text>
<text text-anchor="middle" x="50.5" y="-103" font-family="Helvetica,sans-Serif" font-size="10.00">::bool_type&lt; bool &gt;</text>
</a>
</g>
</g>
<!-- Node1 -->
<g id="Node000001" class="node">
<title>Node1</title>
<g id="a_Node000001"><a xlink:href="structhalf__float_1_1detail_1_1is__float.html" target="_top" xlink:title=" ">
<polygon fill="white" stroke="#666666" points="239.5,-222 155.5,-222 155.5,-192 239.5,-192 239.5,-222"/>
<text text-anchor="start" x="163.5" y="-210" font-family="Helvetica,sans-Serif" font-size="10.00">half_float::detail</text>
<text text-anchor="middle" x="197.5" y="-199" font-family="Helvetica,sans-Serif" font-size="10.00">::is_float&lt; T &gt;</text>
</a>
</g>
</g>
<!-- Node0&#45;&gt;Node1 -->
<g id="edge196_Node000000_Node000001" class="edge">
<title>Node0&#45;&gt;Node1</title>
<g id="a_edge196_Node000000_Node000001"><a xlink:title=" ">
<path fill="none" stroke="#63b8ff" d="M74.64,-134.01C91.02,-149.36 114.06,-169.2 137,-183 142.63,-186.39 148.83,-189.49 155.03,-192.26"/>
<polygon fill="#63b8ff" stroke="#63b8ff" points="77.46,-131.86 67.82,-127.48 72.63,-136.92 77.46,-131.86"/>
</a>
</g>
</g>
<!-- Node5 -->
<g id="Node000005" class="node">
<title>Node5</title>
<g id="a_Node000005"><a xlink:href="structhalf__float_1_1detail_1_1is__float.html" target="_top" xlink:title="Type traits for floating point types.">
<polygon fill="white" stroke="#666666" points="254.5,-174 140.5,-174 140.5,-144 254.5,-144 254.5,-174"/>
<text text-anchor="start" x="148.5" y="-162" font-family="Helvetica,sans-Serif" font-size="10.00">half_float::detail</text>
<text text-anchor="middle" x="197.5" y="-151" font-family="Helvetica,sans-Serif" font-size="10.00">::is_float&lt; typename &gt;</text>
</a>
</g>
</g>
<!-- Node0&#45;&gt;Node5 -->
<g id="edge200_Node000000_Node000005" class="edge">
<title>Node0&#45;&gt;Node5</title>
<g id="a_edge200_Node000000_Node000005"><a xlink:title=" ">
<path fill="none" stroke="#63b8ff" d="M108.89,-130C122.5,-134.5 136.85,-139.25 149.91,-143.58"/>
<polygon fill="#63b8ff" stroke="#63b8ff" points="110.21,-126.75 99.61,-126.93 108.01,-133.39 110.21,-126.75"/>
</a>
</g>
</g>
<!-- Node6 -->
<g id="Node000006" class="node">
<title>Node6</title>
<g id="a_Node000006"><a xlink:href="structhalf__float_1_1detail_1_1is__float_3_01double_01_4.html" target="_top" xlink:title=" ">
<polygon fill="white" stroke="#666666" points="247.5,-126 147.5,-126 147.5,-96 247.5,-96 247.5,-126"/>
<text text-anchor="start" x="155.5" y="-114" font-family="Helvetica,sans-Serif" font-size="10.00">half_float::detail</text>
<text text-anchor="middle" x="197.5" y="-103" font-family="Helvetica,sans-Serif" font-size="10.00">::is_float&lt; double &gt;</text>
</a>
</g>
</g>
<!-- Node0&#45;&gt;Node6 -->
<g id="edge201_Node000000_Node000006" class="edge">
<title>Node0&#45;&gt;Node6</title>
<g id="a_edge201_Node000000_Node000006"><a xlink:title=" ">
<path fill="none" stroke="#63b8ff" d="M112.8,-111C124.38,-111 136.35,-111 147.49,-111"/>
<polygon fill="#63b8ff" stroke="#63b8ff" points="112.91,-107.5 102.91,-111 112.91,-114.5 112.91,-107.5"/>
</a>
</g>
</g>
<!-- Node7 -->
<g id="Node000007" class="node">
<title>Node7</title>
<g id="a_Node000007"><a xlink:href="structhalf__float_1_1detail_1_1is__float_3_01float_01_4.html" target="_top" xlink:title=" ">
<polygon fill="white" stroke="#666666" points="242,-78 153,-78 153,-48 242,-48 242,-78"/>
<text text-anchor="start" x="161" y="-66" font-family="Helvetica,sans-Serif" font-size="10.00">half_float::detail</text>
<text text-anchor="middle" x="197.5" y="-55" font-family="Helvetica,sans-Serif" font-size="10.00">::is_float&lt; float &gt;</text>
</a>
</g>
</g>
<!-- Node0&#45;&gt;Node7 -->
<g id="edge202_Node000000_Node000007" class="edge">
<title>Node0&#45;&gt;Node7</title>
<g id="a_edge202_Node000000_Node000007"><a xlink:title=" ">
<path fill="none" stroke="#63b8ff" d="M108.69,-92.07C123.39,-87.2 138.97,-82.04 152.87,-77.44"/>
<polygon fill="#63b8ff" stroke="#63b8ff" points="108.01,-88.61 99.61,-95.07 110.21,-95.25 108.01,-88.61"/>
</a>
</g>
</g>
<!-- Node8 -->
<g id="Node000008" class="node">
<title>Node8</title>
<g id="a_Node000008"><a xlink:href="structhalf__float_1_1detail_1_1is__float_3_01long_01double_01_4.html" target="_top" xlink:title=" ">
<polygon fill="white" stroke="#666666" points="258,-30 137,-30 137,0 258,0 258,-30"/>
<text text-anchor="start" x="145" y="-18" font-family="Helvetica,sans-Serif" font-size="10.00">half_float::detail</text>
<text text-anchor="middle" x="197.5" y="-7" font-family="Helvetica,sans-Serif" font-size="10.00">::is_float&lt; long double &gt;</text>
</a>
</g>
</g>
<!-- Node0&#45;&gt;Node8 -->
<g id="edge203_Node000000_Node000008" class="edge">
<title>Node0&#45;&gt;Node8</title>
<g id="a_edge203_Node000000_Node000008"><a xlink:title=" ">
<path fill="none" stroke="#63b8ff" d="M74.64,-87.99C91.02,-72.64 114.06,-52.8 137,-39 142.15,-35.9 147.78,-33.04 153.45,-30.45"/>
<polygon fill="#63b8ff" stroke="#63b8ff" points="72.63,-85.08 67.82,-94.52 77.46,-90.14 72.63,-85.08"/>
</a>
</g>
</g>
<!-- Node2 -->
<g id="Node000002" class="node">
<title>Node2</title>
<g id="a_Node000002"><a xlink:href="structhalf__float_1_1detail_1_1is__float_3_01const_01_t_01_4.html" target="_top" xlink:title=" ">
<polygon fill="white" stroke="#666666" points="414,-270 310,-270 310,-240 414,-240 414,-270"/>
<text text-anchor="start" x="318" y="-258" font-family="Helvetica,sans-Serif" font-size="10.00">half_float::detail</text>
<text text-anchor="middle" x="362" y="-247" font-family="Helvetica,sans-Serif" font-size="10.00">::is_float&lt; const T &gt;</text>
</a>
</g>
</g>
<!-- Node1&#45;&gt;Node2 -->
<g id="edge197_Node000001_Node000002" class="edge">
<title>Node1&#45;&gt;Node2</title>
<g id="a_edge197_Node000001_Node000002"><a xlink:title=" ">
<path fill="none" stroke="#63b8ff" d="M250.74,-222.43C269.64,-228.01 290.95,-234.31 309.76,-239.87"/>
<polygon fill="#63b8ff" stroke="#63b8ff" points="251.96,-219.14 241.38,-219.67 249.98,-225.85 251.96,-219.14"/>
</a>
</g>
</g>
<!-- Node3 -->
<g id="Node000003" class="node">
<title>Node3</title>
<g id="a_Node000003"><a xlink:href="structhalf__float_1_1detail_1_1is__float_3_01const_01volatile_01_t_01_4.html" target="_top" xlink:title=" ">
<polygon fill="white" stroke="#666666" points="430,-222 294,-222 294,-192 430,-192 430,-222"/>
<text text-anchor="start" x="302" y="-210" font-family="Helvetica,sans-Serif" font-size="10.00">half_float::detail</text>
<text text-anchor="middle" x="362" y="-199" font-family="Helvetica,sans-Serif" font-size="10.00">::is_float&lt; const volatile T &gt;</text>
</a>
</g>
</g>
<!-- Node1&#45;&gt;Node3 -->
<g id="edge198_Node000001_Node000003" class="edge">
<title>Node1&#45;&gt;Node3</title>
<g id="a_edge198_Node000001_Node000003"><a xlink:title=" ">
<path fill="none" stroke="#63b8ff" d="M251.03,-207C264.65,-207 279.5,-207 293.76,-207"/>
<polygon fill="#63b8ff" stroke="#63b8ff" points="251.44,-203.5 241.44,-207 251.44,-210.5 251.44,-203.5"/>
</a>
</g>
</g>
<!-- Node4 -->
<g id="Node000004" class="node">
<title>Node4</title>
<g id="a_Node000004"><a xlink:href="structhalf__float_1_1detail_1_1is__float_3_01volatile_01_t_01_4.html" target="_top" xlink:title=" ">
<polygon fill="white" stroke="#666666" points="416.5,-174 307.5,-174 307.5,-144 416.5,-144 416.5,-174"/>
<text text-anchor="start" x="315.5" y="-162" font-family="Helvetica,sans-Serif" font-size="10.00">half_float::detail</text>
<text text-anchor="middle" x="362" y="-151" font-family="Helvetica,sans-Serif" font-size="10.00">::is_float&lt; volatile T &gt;</text>
</a>
</g>
</g>
<!-- Node1&#45;&gt;Node4 -->
<g id="edge199_Node000001_Node000004" class="edge">
<title>Node1&#45;&gt;Node4</title>
<g id="a_edge199_Node000001_Node000004"><a xlink:title=" ">
<path fill="none" stroke="#63b8ff" d="M250.8,-191.55C269.29,-186.09 290.07,-179.95 308.57,-174.49"/>
<polygon fill="#63b8ff" stroke="#63b8ff" points="249.98,-188.15 241.38,-194.33 251.96,-194.86 249.98,-188.15"/>
</a>
</g>
</g>
</g>
</svg>
