<?xml version="1.0" encoding="UTF-8" standalone="no"?>
<!DOCTYPE svg PUBLIC "-//W3C//DTD SVG 1.1//EN"
 "http://www.w3.org/Graphics/SVG/1.1/DTD/svg11.dtd">
<!-- Generated by graphviz version 7.0.1 (20221109.1506)
 -->
<!-- Title: Graphical Class Hierarchy Pages: 1 -->
<svg width="321pt" height="777pt"
 viewBox="0.00 0.00 321.00 777.00" xmlns="http://www.w3.org/2000/svg" xmlns:xlink="http://www.w3.org/1999/xlink">
<g id="graph0" class="graph" transform="scale(1 1) rotate(0) translate(4 773)">
<title>Graphical Class Hierarchy</title>
<!-- Node0 -->
<g id="Node000000" class="node">
<title>Node0</title>
<g id="a_Node000000"><a xlink:title=" ">
<polygon fill="#e0e0e0" stroke="#999999" points="80,-377.5 0,-377.5 0,-358.5 80,-358.5 80,-377.5"/>
<text text-anchor="middle" x="40" y="-365.5" font-family="Helvetica,sans-Serif" font-size="10.00">std::false_type</text>
</a>
</g>
</g>
<!-- Node1 -->
<g id="Node000001" class="node">
<title>Node1</title>
<g id="a_Node000001"><a xlink:href="struct_harlinn_1_1_a_i_1_1_d_m_l_1_1_internal_1_1_tensor_traits.html" target="_top" xlink:title=" ">
<polygon fill="white" stroke="#666666" points="277,-769 152,-769 152,-739 277,-739 277,-769"/>
<text text-anchor="start" x="160" y="-757" font-family="Helvetica,sans-Serif" font-size="10.00">Harlinn::AI::DML::Internal</text>
<text text-anchor="middle" x="214.5" y="-746" font-family="Helvetica,sans-Serif" font-size="10.00">::TensorTraits&lt; T &gt;</text>
</a>
</g>
</g>
<!-- Node0&#45;&gt;Node1 -->
<g id="edge2511_Node000000_Node000001" class="edge">
<title>Node0&#45;&gt;Node1</title>
<g id="a_edge2511_Node000000_Node000001"><a xlink:title=" ">
<path fill="none" stroke="#63b8ff" d="M42.46,-388.95C47.74,-458.52 68.1,-680.29 116,-730 125.5,-739.85 138.34,-745.92 151.58,-749.6"/>
<polygon fill="#63b8ff" stroke="#63b8ff" points="45.98,-389.03 41.76,-379.32 39,-389.54 45.98,-389.03"/>
</a>
</g>
</g>
<!-- Node2 -->
<g id="Node000002" class="node">
<title>Node2</title>
<g id="a_Node000002"><a xlink:href="struct_harlinn_1_1_common_1_1_core_1_1_always_false.html" target="_top" xlink:title=" ">
<polygon fill="white" stroke="#666666" points="273.5,-721 155.5,-721 155.5,-691 273.5,-691 273.5,-721"/>
<text text-anchor="start" x="163.5" y="-709" font-family="Helvetica,sans-Serif" font-size="10.00">Harlinn::Common::Core</text>
<text text-anchor="middle" x="214.5" y="-698" font-family="Helvetica,sans-Serif" font-size="10.00">::AlwaysFalse&lt;... &gt;</text>
</a>
</g>
</g>
<!-- Node0&#45;&gt;Node2 -->
<g id="edge2512_Node000000_Node000002" class="edge">
<title>Node0&#45;&gt;Node2</title>
<g id="a_edge2512_Node000000_Node000002"><a xlink:title=" ">
<path fill="none" stroke="#63b8ff" d="M43.18,-388.99C50.2,-452.35 74.16,-639.87 116,-682 126.44,-692.51 140.7,-698.69 155.08,-702.25"/>
<polygon fill="#63b8ff" stroke="#63b8ff" points="46.69,-388.83 42.14,-379.26 39.73,-389.58 46.69,-388.83"/>
</a>
</g>
</g>
<!-- Node3 -->
<g id="Node000003" class="node">
<title>Node3</title>
<g id="a_Node000003"><a xlink:href="struct_harlinn_1_1_common_1_1_core_1_1_bit_traits.html" target="_top" xlink:title=" ">
<polygon fill="white" stroke="#666666" points="273.5,-673 155.5,-673 155.5,-643 273.5,-643 273.5,-673"/>
<text text-anchor="start" x="163.5" y="-661" font-family="Helvetica,sans-Serif" font-size="10.00">Harlinn::Common::Core</text>
<text text-anchor="middle" x="214.5" y="-650" font-family="Helvetica,sans-Serif" font-size="10.00">::BitTraits&lt; T &gt;</text>
</a>
</g>
</g>
<!-- Node0&#45;&gt;Node3 -->
<g id="edge2513_Node000000_Node000003" class="edge">
<title>Node0&#45;&gt;Node3</title>
<g id="a_edge2513_Node000000_Node000003"><a xlink:title=" ">
<path fill="none" stroke="#63b8ff" d="M40.31,-389.23C39.89,-439.48 46.2,-566.49 116,-634 126.59,-644.24 140.81,-650.34 155.11,-653.91"/>
<polygon fill="#63b8ff" stroke="#63b8ff" points="43.8,-389.53 40.5,-379.46 36.8,-389.39 43.8,-389.53"/>
</a>
</g>
</g>
<!-- Node4 -->
<g id="Node000004" class="node">
<title>Node4</title>
<g id="a_Node000004"><a xlink:href="struct_harlinn_1_1_common_1_1_core_1_1_com_1_1_interfaces_1_1_interface.html" target="_top" xlink:title=" ">
<polygon fill="white" stroke="#666666" points="281.5,-624.5 147.5,-624.5 147.5,-583.5 281.5,-583.5 281.5,-624.5"/>
<text text-anchor="start" x="155.5" y="-612.5" font-family="Helvetica,sans-Serif" font-size="10.00">Harlinn::Common::Core</text>
<text text-anchor="start" x="155.5" y="-601.5" font-family="Helvetica,sans-Serif" font-size="10.00">::Com::Interfaces::Interface</text>
<text text-anchor="middle" x="214.5" y="-590.5" font-family="Helvetica,sans-Serif" font-size="10.00">&lt; InterfaceTypes &gt;</text>
</a>
</g>
</g>
<!-- Node0&#45;&gt;Node4 -->
<g id="edge2514_Node000000_Node000004" class="edge">
<title>Node0&#45;&gt;Node4</title>
<g id="a_edge2514_Node000000_Node000004"><a xlink:title=" ">
<path fill="none" stroke="#63b8ff" d="M42.55,-389.32C46.73,-431.07 61.94,-524.01 116,-575 124.74,-583.24 135.71,-589.15 147.12,-593.38"/>
<polygon fill="#63b8ff" stroke="#63b8ff" points="46.04,-389.06 41.69,-379.4 39.06,-389.66 46.04,-389.06"/>
</a>
</g>
</g>
<!-- Node5 -->
<g id="Node000005" class="node">
<title>Node5</title>
<g id="a_Node000005"><a xlink:href="struct_harlinn_1_1_common_1_1_core_1_1_i_o_1_1_serialization_1_1_internal_1_1_array_data_type_resolver.html" target="_top" xlink:title=" ">
<polygon fill="white" stroke="#666666" points="304,-565.5 125,-565.5 125,-524.5 304,-524.5 304,-565.5"/>
<text text-anchor="start" x="133" y="-553.5" font-family="Helvetica,sans-Serif" font-size="10.00">Harlinn::Common::Core</text>
<text text-anchor="start" x="133" y="-542.5" font-family="Helvetica,sans-Serif" font-size="10.00">::IO::Serialization::</text>
<text text-anchor="middle" x="214.5" y="-531.5" font-family="Helvetica,sans-Serif" font-size="10.00">Internal::ArrayDataTypeResolver&lt; T &gt;</text>
</a>
</g>
</g>
<!-- Node0&#45;&gt;Node5 -->
<g id="edge2515_Node000000_Node000005" class="edge">
<title>Node0&#45;&gt;Node5</title>
<g id="a_edge2515_Node000000_Node000005"><a xlink:title=" ">
<path fill="none" stroke="#63b8ff" d="M45.98,-389.14C54.65,-421.28 75.58,-482.27 116,-516 119.66,-519.06 123.63,-521.79 127.81,-524.23"/>
<polygon fill="#63b8ff" stroke="#63b8ff" points="49.38,-388.29 43.53,-379.46 42.59,-390.01 49.38,-388.29"/>
</a>
</g>
</g>
<!-- Node6 -->
<g id="Node000006" class="node">
<title>Node6</title>
<g id="a_Node000006"><a xlink:href="struct_harlinn_1_1_common_1_1_core_1_1_i_o_1_1_serialization_1_1_internal_1_1_float_data_type_resolver.html" target="_top" xlink:title=" ">
<polygon fill="white" stroke="#666666" points="303,-506.5 126,-506.5 126,-465.5 303,-465.5 303,-506.5"/>
<text text-anchor="start" x="134" y="-494.5" font-family="Helvetica,sans-Serif" font-size="10.00">Harlinn::Common::Core</text>
<text text-anchor="start" x="134" y="-483.5" font-family="Helvetica,sans-Serif" font-size="10.00">::IO::Serialization::</text>
<text text-anchor="middle" x="214.5" y="-472.5" font-family="Helvetica,sans-Serif" font-size="10.00">Internal::FloatDataTypeResolver&lt; T &gt;</text>
</a>
</g>
</g>
<!-- Node0&#45;&gt;Node6 -->
<g id="edge2516_Node000000_Node000006" class="edge">
<title>Node0&#45;&gt;Node6</title>
<g id="a_edge2516_Node000000_Node000006"><a xlink:title=" ">
<path fill="none" stroke="#63b8ff" d="M52.65,-387.65C65.65,-407.9 88.49,-438.98 116,-457 120.58,-460 125.48,-462.7 130.56,-465.12"/>
<polygon fill="#63b8ff" stroke="#63b8ff" points="55.67,-385.87 47.43,-379.21 49.71,-389.55 55.67,-385.87"/>
</a>
</g>
</g>
<!-- Node7 -->
<g id="Node000007" class="node">
<title>Node7</title>
<g id="a_Node000007"><a xlink:href="struct_harlinn_1_1_common_1_1_core_1_1_i_o_1_1_serialization_1_1_internal_1_1_signed_data_type_resolver.html" target="_top" xlink:title=" ">
<polygon fill="white" stroke="#666666" points="307,-447.5 122,-447.5 122,-406.5 307,-406.5 307,-447.5"/>
<text text-anchor="start" x="130" y="-435.5" font-family="Helvetica,sans-Serif" font-size="10.00">Harlinn::Common::Core</text>
<text text-anchor="start" x="130" y="-424.5" font-family="Helvetica,sans-Serif" font-size="10.00">::IO::Serialization::</text>
<text text-anchor="middle" x="214.5" y="-413.5" font-family="Helvetica,sans-Serif" font-size="10.00">Internal::SignedDataTypeResolver&lt; T &gt;</text>
</a>
</g>
</g>
<!-- Node0&#45;&gt;Node7 -->
<g id="edge2517_Node000000_Node000007" class="edge">
<title>Node0&#45;&gt;Node7</title>
<g id="a_edge2517_Node000000_Node000007"><a xlink:title=" ">
<path fill="none" stroke="#63b8ff" d="M74.39,-382.12C87.29,-387.37 102.24,-393.21 116,-398 123.84,-400.73 132.09,-403.43 140.33,-406.03"/>
<polygon fill="#63b8ff" stroke="#63b8ff" points="76.08,-379.03 65.5,-378.45 73.42,-385.5 76.08,-379.03"/>
</a>
</g>
</g>
<!-- Node8 -->
<g id="Node000008" class="node">
<title>Node8</title>
<g id="a_Node000008"><a xlink:href="struct_harlinn_1_1_common_1_1_core_1_1_i_o_1_1_serialization_1_1_internal_1_1_time_type_data_type_resolver.html" target="_top" xlink:title=" ">
<polygon fill="white" stroke="#666666" points="313,-388.5 116,-388.5 116,-347.5 313,-347.5 313,-388.5"/>
<text text-anchor="start" x="124" y="-376.5" font-family="Helvetica,sans-Serif" font-size="10.00">Harlinn::Common::Core</text>
<text text-anchor="start" x="124" y="-365.5" font-family="Helvetica,sans-Serif" font-size="10.00">::IO::Serialization::</text>
<text text-anchor="middle" x="214.5" y="-354.5" font-family="Helvetica,sans-Serif" font-size="10.00">Internal::TimeTypeDataTypeResolver&lt; T &gt;</text>
</a>
</g>
</g>
<!-- Node0&#45;&gt;Node8 -->
<g id="edge2518_Node000000_Node000008" class="edge">
<title>Node0&#45;&gt;Node8</title>
<g id="a_edge2518_Node000000_Node000008"><a xlink:title=" ">
<path fill="none" stroke="#63b8ff" d="M91.51,-368C99.26,-368 107.48,-368 115.84,-368"/>
<polygon fill="#63b8ff" stroke="#63b8ff" points="91.66,-364.5 81.66,-368 91.66,-371.5 91.66,-364.5"/>
</a>
</g>
</g>
<!-- Node9 -->
<g id="Node000009" class="node">
<title>Node9</title>
<g id="a_Node000009"><a xlink:href="struct_harlinn_1_1_common_1_1_core_1_1_i_o_1_1_serialization_1_1_internal_1_1_unsigned_data_type_resolver.html" target="_top" xlink:title=" ">
<polygon fill="white" stroke="#666666" points="312.5,-329.5 116.5,-329.5 116.5,-288.5 312.5,-288.5 312.5,-329.5"/>
<text text-anchor="start" x="124.5" y="-317.5" font-family="Helvetica,sans-Serif" font-size="10.00">Harlinn::Common::Core</text>
<text text-anchor="start" x="124.5" y="-306.5" font-family="Helvetica,sans-Serif" font-size="10.00">::IO::Serialization::</text>
<text text-anchor="middle" x="214.5" y="-295.5" font-family="Helvetica,sans-Serif" font-size="10.00">Internal::UnsignedDataTypeResolver&lt; T &gt;</text>
</a>
</g>
</g>
<!-- Node0&#45;&gt;Node9 -->
<g id="edge2519_Node000000_Node000009" class="edge">
<title>Node0&#45;&gt;Node9</title>
<g id="a_edge2519_Node000000_Node000009"><a xlink:title=" ">
<path fill="none" stroke="#63b8ff" d="M76,-353.88C88.55,-348.97 102.84,-343.56 116,-339 124.78,-335.95 134.07,-332.9 143.27,-329.96"/>
<polygon fill="#63b8ff" stroke="#63b8ff" points="74.92,-350.54 66.91,-357.47 77.49,-357.05 74.92,-350.54"/>
</a>
</g>
</g>
<!-- Node10 -->
<g id="Node000010" class="node">
<title>Node10</title>
<g id="a_Node000010"><a xlink:href="struct_harlinn_1_1_common_1_1_core_1_1_math_1_1_constants.html" target="_top" xlink:title=" ">
<polygon fill="white" stroke="#666666" points="294.5,-270 134.5,-270 134.5,-240 294.5,-240 294.5,-270"/>
<text text-anchor="start" x="142.5" y="-258" font-family="Helvetica,sans-Serif" font-size="10.00">Harlinn::Common::Core</text>
<text text-anchor="middle" x="214.5" y="-247" font-family="Helvetica,sans-Serif" font-size="10.00">::Math::Constants&lt; ArthmeticT &gt;</text>
</a>
</g>
</g>
<!-- Node0&#45;&gt;Node10 -->
<g id="edge2520_Node000000_Node000010" class="edge">
<title>Node0&#45;&gt;Node10</title>
<g id="a_edge2520_Node000000_Node000010"><a xlink:title=" ">
<path fill="none" stroke="#63b8ff" d="M52.57,-348.36C65.5,-328.17 88.29,-297.3 116,-280 121.93,-276.3 128.39,-273.14 135.06,-270.46"/>
<polygon fill="#63b8ff" stroke="#63b8ff" points="49.65,-346.44 47.38,-356.79 55.61,-350.11 49.65,-346.44"/>
</a>
</g>
</g>
<!-- Node11 -->
<g id="Node000011" class="node">
<title>Node11</title>
<g id="a_Node000011"><a xlink:href="struct_harlinn_1_1_common_1_1_core_1_1_s_i_m_d_1_1_data_type_traits.html" target="_top" xlink:title=" ">
<polygon fill="white" stroke="#666666" points="286.5,-222 142.5,-222 142.5,-192 286.5,-192 286.5,-222"/>
<text text-anchor="start" x="150.5" y="-210" font-family="Helvetica,sans-Serif" font-size="10.00">Harlinn::Common::Core</text>
<text text-anchor="middle" x="214.5" y="-199" font-family="Helvetica,sans-Serif" font-size="10.00">::SIMD::DataTypeTraits&lt; dt &gt;</text>
</a>
</g>
</g>
<!-- Node0&#45;&gt;Node11 -->
<g id="edge2521_Node000000_Node000011" class="edge">
<title>Node0&#45;&gt;Node11</title>
<g id="a_edge2521_Node000000_Node000011"><a xlink:title=" ">
<path fill="none" stroke="#63b8ff" d="M46.51,-347.35C55.7,-317.05 77.09,-260.93 116,-231 123.74,-225.05 132.76,-220.55 142.12,-217.16"/>
<polygon fill="#63b8ff" stroke="#63b8ff" points="43.19,-346.23 43.81,-356.8 49.92,-348.15 43.19,-346.23"/>
</a>
</g>
</g>
<!-- Node12 -->
<g id="Node000012" class="node">
<title>Node12</title>
<g id="a_Node000012"><a xlink:href="struct_harlinn_1_1_common_1_1_core_1_1_s_i_m_d_1_1_trait_limits.html" target="_top" xlink:title=" ">
<polygon fill="white" stroke="#666666" points="275,-174 154,-174 154,-144 275,-144 275,-174"/>
<text text-anchor="start" x="162" y="-162" font-family="Helvetica,sans-Serif" font-size="10.00">Harlinn::Common::Core</text>
<text text-anchor="middle" x="214.5" y="-151" font-family="Helvetica,sans-Serif" font-size="10.00">::SIMD::TraitLimits&lt; T &gt;</text>
</a>
</g>
</g>
<!-- Node0&#45;&gt;Node12 -->
<g id="edge2522_Node000000_Node000012" class="edge">
<title>Node0&#45;&gt;Node12</title>
<g id="a_edge2522_Node000000_Node000012"><a xlink:title=" ">
<path fill="none" stroke="#63b8ff" d="M43.34,-346.88C48.77,-308.3 65.86,-226.41 116,-183 126.54,-173.87 140.02,-168.11 153.56,-164.49"/>
<polygon fill="#63b8ff" stroke="#63b8ff" points="39.88,-346.32 42.1,-356.68 46.83,-347.2 39.88,-346.32"/>
</a>
</g>
</g>
<!-- Node13 -->
<g id="Node000013" class="node">
<title>Node13</title>
<g id="a_Node000013"><a xlink:href="struct_harlinn_1_1_common_1_1_core_1_1_s_i_m_d_1_1_traits.html" target="_top" xlink:title=" ">
<polygon fill="white" stroke="#666666" points="273.5,-126 155.5,-126 155.5,-96 273.5,-96 273.5,-126"/>
<text text-anchor="start" x="163.5" y="-114" font-family="Helvetica,sans-Serif" font-size="10.00">Harlinn::Common::Core</text>
<text text-anchor="middle" x="214.5" y="-103" font-family="Helvetica,sans-Serif" font-size="10.00">::SIMD::Traits&lt; T, N &gt;</text>
</a>
</g>
</g>
<!-- Node0&#45;&gt;Node13 -->
<g id="edge2523_Node000000_Node000013" class="edge">
<title>Node0&#45;&gt;Node13</title>
<g id="a_edge2523_Node000000_Node000013"><a xlink:title=" ">
<path fill="none" stroke="#63b8ff" d="M41.3,-346.96C43.15,-301.3 54.2,-192.62 116,-135 126.71,-125.01 140.89,-119 155.11,-115.42"/>
<polygon fill="#63b8ff" stroke="#63b8ff" points="37.81,-346.69 41.03,-356.79 44.81,-346.89 37.81,-346.69"/>
</a>
</g>
</g>
<!-- Node14 -->
<g id="Node000014" class="node">
<title>Node14</title>
<g id="a_Node000014"><a xlink:href="struct_harlinn_1_1_common_1_1_core_1_1_types_1_1_adapters_1_1_type_adapter.html" target="_top" xlink:title=" ">
<polygon fill="white" stroke="#666666" points="303.5,-78 125.5,-78 125.5,-48 303.5,-48 303.5,-78"/>
<text text-anchor="start" x="133.5" y="-66" font-family="Helvetica,sans-Serif" font-size="10.00">Harlinn::Common::Core</text>
<text text-anchor="middle" x="214.5" y="-55" font-family="Helvetica,sans-Serif" font-size="10.00">::Types::Adapters::TypeAdapter&lt; T &gt;</text>
</a>
</g>
</g>
<!-- Node0&#45;&gt;Node14 -->
<g id="edge2524_Node000000_Node000014" class="edge">
<title>Node0&#45;&gt;Node14</title>
<g id="a_edge2524_Node000000_Node000014"><a xlink:title=" ">
<path fill="none" stroke="#63b8ff" d="M43.83,-346.93C52.14,-288.1 78.3,-123.97 116,-87 119.36,-83.7 123.1,-80.84 127.09,-78.34"/>
<polygon fill="#63b8ff" stroke="#63b8ff" points="40.4,-346.2 42.5,-356.59 47.33,-347.16 40.4,-346.2"/>
</a>
</g>
</g>
<!-- Node15 -->
<g id="Node000015" class="node">
<title>Node15</title>
<g id="a_Node000015"><a xlink:href="struct_harlinn_1_1_common_1_1_core_1_1_variant_type_traits.html" target="_top" xlink:title=" ">
<polygon fill="white" stroke="#666666" points="275.5,-30 153.5,-30 153.5,0 275.5,0 275.5,-30"/>
<text text-anchor="start" x="161.5" y="-18" font-family="Helvetica,sans-Serif" font-size="10.00">Harlinn::Common::Core</text>
<text text-anchor="middle" x="214.5" y="-7" font-family="Helvetica,sans-Serif" font-size="10.00">::VariantTypeTraits&lt; T &gt;</text>
</a>
</g>
</g>
<!-- Node0&#45;&gt;Node15 -->
<g id="edge2525_Node000000_Node000015" class="edge">
<title>Node0&#45;&gt;Node15</title>
<g id="a_edge2525_Node000000_Node000015"><a xlink:title=" ">
<path fill="none" stroke="#63b8ff" d="M42.95,-346.86C49.43,-281.36 72.3,-83.46 116,-39 125.96,-28.87 139.46,-22.75 153.24,-19.13"/>
<polygon fill="#63b8ff" stroke="#63b8ff" points="39.49,-346.32 42.02,-356.61 46.46,-346.99 39.49,-346.32"/>
</a>
</g>
</g>
</g>
</svg>
