<?xml version="1.0" encoding="UTF-8" standalone="no"?>
<!DOCTYPE svg PUBLIC "-//W3C//DTD SVG 1.1//EN"
 "http://www.w3.org/Graphics/SVG/1.1/DTD/svg11.dtd">
<!-- Generated by graphviz version 7.0.1 (20221109.1506)
 -->
<!-- Title: Graphical Class Hierarchy Pages: 1 -->
<svg width="673pt" height="108pt"
 viewBox="0.00 0.00 673.00 108.00" xmlns="http://www.w3.org/2000/svg" xmlns:xlink="http://www.w3.org/1999/xlink">
<g id="graph0" class="graph" transform="scale(1 1) rotate(0) translate(4 104)">
<title>Graphical Class Hierarchy</title>
<!-- Node0 -->
<g id="Node000000" class="node">
<title>Node0</title>
<g id="a_Node000000"><a xlink:title=" ">
<polygon fill="#e0e0e0" stroke="#999999" points="77,-59 0,-59 0,-40 77,-40 77,-59"/>
<text text-anchor="middle" x="38.5" y="-47" font-family="Helvetica,sans-Serif" font-size="10.00">IClassFactory</text>
</a>
</g>
</g>
<!-- Node1 -->
<g id="Node000001" class="node">
<title>Node1</title>
<g id="a_Node000001"><a xlink:href="class_harlinn_1_1_common_1_1_core_1_1_com_1_1_module_class_factory_base.html" target="_top" xlink:title=" ">
<polygon fill="white" stroke="#666666" points="274,-64.5 113,-64.5 113,-34.5 274,-34.5 274,-64.5"/>
<text text-anchor="start" x="121" y="-52.5" font-family="Helvetica,sans-Serif" font-size="10.00">Harlinn::Common::Core</text>
<text text-anchor="middle" x="193.5" y="-41.5" font-family="Helvetica,sans-Serif" font-size="10.00">::Com::ModuleClassFactoryBase</text>
</a>
</g>
</g>
<!-- Node0&#45;&gt;Node1 -->
<g id="edge2288_Node000000_Node000001" class="edge">
<title>Node0&#45;&gt;Node1</title>
<g id="a_edge2288_Node000000_Node000001"><a xlink:title=" ">
<path fill="none" stroke="#63b8ff" d="M88.62,-49.5C96.32,-49.5 104.44,-49.5 112.61,-49.5"/>
<polygon fill="#63b8ff" stroke="#63b8ff" points="88.83,-46 78.83,-49.5 88.83,-53 88.83,-46"/>
</a>
</g>
</g>
<!-- Node2 -->
<g id="Node000002" class="node">
<title>Node2</title>
<g id="a_Node000002"><a xlink:href="class_harlinn_1_1_common_1_1_core_1_1_com_1_1_module_class_factory_t.html" target="_top" xlink:title=" ">
<polygon fill="white" stroke="#666666" points="453,-70 310,-70 310,-29 453,-29 453,-70"/>
<text text-anchor="start" x="318" y="-58" font-family="Helvetica,sans-Serif" font-size="10.00">Harlinn::Common::Core</text>
<text text-anchor="start" x="318" y="-47" font-family="Helvetica,sans-Serif" font-size="10.00">::Com::ModuleClassFactoryT</text>
<text text-anchor="middle" x="381.5" y="-36" font-family="Helvetica,sans-Serif" font-size="10.00">&lt; ImplementationT &gt;</text>
</a>
</g>
</g>
<!-- Node1&#45;&gt;Node2 -->
<g id="edge2289_Node000001_Node000002" class="edge">
<title>Node1&#45;&gt;Node2</title>
<g id="a_edge2289_Node000001_Node000002"><a xlink:title=" ">
<path fill="none" stroke="#63b8ff" d="M285.78,-49.5C293.81,-49.5 301.86,-49.5 309.69,-49.5"/>
<polygon fill="#63b8ff" stroke="#63b8ff" points="285.97,-46 275.97,-49.5 285.97,-53 285.97,-46"/>
</a>
</g>
</g>
<!-- Node3 -->
<g id="Node000003" class="node">
<title>Node3</title>
<g id="a_Node000003"><a xlink:href="class_harlinn_1_1_common_1_1_core_1_1_com_1_1_module_class_factory.html" target="_top" xlink:title=" ">
<polygon fill="white" stroke="#666666" points="646,-100 508,-100 508,-59 646,-59 646,-100"/>
<text text-anchor="start" x="516" y="-88" font-family="Helvetica,sans-Serif" font-size="10.00">Harlinn::Common::Core</text>
<text text-anchor="start" x="516" y="-77" font-family="Helvetica,sans-Serif" font-size="10.00">::Com::ModuleClassFactory</text>
<text text-anchor="middle" x="577" y="-66" font-family="Helvetica,sans-Serif" font-size="10.00">&lt; ImplementationT &gt;</text>
</a>
</g>
</g>
<!-- Node2&#45;&gt;Node3 -->
<g id="edge2290_Node000002_Node000003" class="edge">
<title>Node2&#45;&gt;Node3</title>
<g id="a_edge2290_Node000002_Node000003"><a xlink:title=" ">
<path fill="none" stroke="#63b8ff" d="M464.79,-62.26C479.07,-64.47 493.78,-66.75 507.63,-68.9"/>
<polygon fill="#63b8ff" stroke="#63b8ff" points="465.37,-58.81 454.95,-60.73 464.29,-65.72 465.37,-58.81"/>
</a>
</g>
</g>
<!-- Node4 -->
<g id="Node000004" class="node">
<title>Node4</title>
<g id="a_Node000004"><a xlink:href="class_harlinn_1_1_common_1_1_core_1_1_com_1_1_module_dispatch_class_factory.html" target="_top" xlink:title=" ">
<polygon fill="white" stroke="#666666" points="665,-41 489,-41 489,0 665,0 665,-41"/>
<text text-anchor="start" x="497" y="-29" font-family="Helvetica,sans-Serif" font-size="10.00">Harlinn::Common::Core</text>
<text text-anchor="start" x="497" y="-18" font-family="Helvetica,sans-Serif" font-size="10.00">::Com::ModuleDispatchClassFactory</text>
<text text-anchor="middle" x="577" y="-7" font-family="Helvetica,sans-Serif" font-size="10.00">&lt; ImplementationT &gt;</text>
</a>
</g>
</g>
<!-- Node2&#45;&gt;Node4 -->
<g id="edge2291_Node000002_Node000004" class="edge">
<title>Node2&#45;&gt;Node4</title>
<g id="a_edge2291_Node000002_Node000004"><a xlink:title=" ">
<path fill="none" stroke="#63b8ff" d="M464.58,-37.2C472.52,-36.01 480.61,-34.8 488.6,-33.6"/>
<polygon fill="#63b8ff" stroke="#63b8ff" points="464.32,-33.7 454.95,-38.64 465.36,-40.62 464.32,-33.7"/>
</a>
</g>
</g>
</g>
</svg>
