<?xml version="1.0" encoding="UTF-8" standalone="no"?>
<!DOCTYPE svg PUBLIC "-//W3C//DTD SVG 1.1//EN"
 "http://www.w3.org/Graphics/SVG/1.1/DTD/svg11.dtd">
<!-- Generated by graphviz version 7.0.1 (20221109.1506)
 -->
<!-- Title: Internal/Math/s_cpowf.inl Pages: 1 -->
<svg width="582pt" height="137pt"
 viewBox="0.00 0.00 582.00 137.00" xmlns="http://www.w3.org/2000/svg" xmlns:xlink="http://www.w3.org/1999/xlink">
<g id="graph0" class="graph" transform="scale(1 1) rotate(0) translate(4 133)">
<title>Internal/Math/s_cpowf.inl</title>
<!-- Node1 -->
<g id="Node000001" class="node">
<title>Node1</title>
<g id="a_Node000001"><a xlink:title=" ">
<polygon fill="#999999" stroke="#666666" points="232,-129 108,-129 108,-110 232,-110 232,-129"/>
<text text-anchor="middle" x="170" y="-117" font-family="Helvetica,sans-Serif" font-size="10.00">Internal/Math/s_cpowf.inl</text>
</a>
</g>
</g>
<!-- Node2 -->
<g id="Node000002" class="node">
<title>Node2</title>
<g id="a_Node000002"><a xlink:href="openlibm__complex_8h.html" target="_top" xlink:title=" ">
<polygon fill="white" stroke="#666666" points="106,-74 0,-74 0,-55 106,-55 106,-74"/>
<text text-anchor="middle" x="53" y="-62" font-family="Helvetica,sans-Serif" font-size="10.00">openlibm_complex.h</text>
</a>
</g>
</g>
<!-- Node1&#45;&gt;Node2 -->
<g id="edge1_Node000001_Node000002" class="edge">
<title>Node1&#45;&gt;Node2</title>
<g id="a_edge1_Node000001_Node000002"><a xlink:title=" ">
<path fill="none" stroke="#63b8ff" d="M150.15,-109.51C131.72,-101.16 104.02,-88.61 82.91,-79.05"/>
<polygon fill="#63b8ff" stroke="#63b8ff" points="84.49,-75.92 73.93,-74.98 81.6,-82.3 84.49,-75.92"/>
</a>
</g>
</g>
<!-- Node3 -->
<g id="Node000003" class="node">
<title>Node3</title>
<g id="a_Node000003"><a xlink:href="openlibm__math_8h.html" target="_top" xlink:title=" ">
<polygon fill="white" stroke="#666666" points="215.5,-74 124.5,-74 124.5,-55 215.5,-55 215.5,-74"/>
<text text-anchor="middle" x="170" y="-62" font-family="Helvetica,sans-Serif" font-size="10.00">openlibm_math.h</text>
</a>
</g>
</g>
<!-- Node1&#45;&gt;Node3 -->
<g id="edge2_Node000001_Node000003" class="edge">
<title>Node1&#45;&gt;Node3</title>
<g id="a_edge2_Node000001_Node000003"><a xlink:title=" ">
<path fill="none" stroke="#63b8ff" d="M170,-109.75C170,-103.27 170,-94.16 170,-85.9"/>
<polygon fill="#63b8ff" stroke="#63b8ff" points="173.5,-85.96 170,-75.96 166.5,-85.96 173.5,-85.96"/>
</a>
</g>
</g>
<!-- Node5 -->
<g id="Node000005" class="node">
<title>Node5</title>
<g id="a_Node000005"><a xlink:href="math__private_8h.html" target="_top" xlink:title=" ">
<polygon fill="white" stroke="#666666" points="357,-74 277,-74 277,-55 357,-55 357,-74"/>
<text text-anchor="middle" x="317" y="-62" font-family="Helvetica,sans-Serif" font-size="10.00">math_private.h</text>
</a>
</g>
</g>
<!-- Node1&#45;&gt;Node5 -->
<g id="edge4_Node000001_Node000005" class="edge">
<title>Node1&#45;&gt;Node5</title>
<g id="a_edge4_Node000001_Node000005"><a xlink:title=" ">
<path fill="none" stroke="#63b8ff" d="M194.94,-109.51C218.84,-100.89 255.14,-87.8 281.95,-78.14"/>
<polygon fill="#63b8ff" stroke="#63b8ff" points="282.79,-81.56 291.01,-74.87 280.41,-74.97 282.79,-81.56"/>
</a>
</g>
</g>
<!-- Node4 -->
<g id="Node000004" class="node">
<title>Node4</title>
<g id="a_Node000004"><a xlink:href="openlibm__defs_8h.html" target="_top" xlink:title=" ">
<polygon fill="white" stroke="#666666" points="192.5,-19 105.5,-19 105.5,0 192.5,0 192.5,-19"/>
<text text-anchor="middle" x="149" y="-7" font-family="Helvetica,sans-Serif" font-size="10.00">openlibm_defs.h</text>
</a>
</g>
</g>
<!-- Node3&#45;&gt;Node4 -->
<g id="edge3_Node000003_Node000004" class="edge">
<title>Node3&#45;&gt;Node4</title>
<g id="a_edge3_Node000003_Node000004"><a xlink:title=" ">
<path fill="none" stroke="#63b8ff" d="M166.53,-54.75C163.87,-48.04 160.1,-38.52 156.74,-30.02"/>
<polygon fill="#63b8ff" stroke="#63b8ff" points="160.04,-28.86 153.1,-20.85 153.53,-31.44 160.04,-28.86"/>
</a>
</g>
</g>
<!-- Node5&#45;&gt;Node4 -->
<g id="edge5_Node000005_Node000004" class="edge">
<title>Node5&#45;&gt;Node4</title>
<g id="a_edge5_Node000005_Node000004"><a xlink:title=" ">
<path fill="none" stroke="#63b8ff" d="M288.5,-54.51C260.9,-45.8 218.84,-32.53 188.12,-22.84"/>
<polygon fill="#63b8ff" stroke="#63b8ff" points="189.39,-19.57 178.8,-19.9 187.28,-26.25 189.39,-19.57"/>
</a>
</g>
</g>
<!-- Node6 -->
<g id="Node000006" class="node">
<title>Node6</title>
<g id="a_Node000006"><a xlink:href="cdefs-compat_8h.html" target="_top" xlink:title=" ">
<polygon fill="white" stroke="#666666" points="293.5,-19 210.5,-19 210.5,0 293.5,0 293.5,-19"/>
<text text-anchor="middle" x="252" y="-7" font-family="Helvetica,sans-Serif" font-size="10.00">cdefs&#45;compat.h</text>
</a>
</g>
</g>
<!-- Node5&#45;&gt;Node6 -->
<g id="edge6_Node000005_Node000006" class="edge">
<title>Node5&#45;&gt;Node6</title>
<g id="a_edge6_Node000005_Node000006"><a xlink:title=" ">
<path fill="none" stroke="#63b8ff" d="M305.97,-54.51C296.58,-46.85 282.85,-35.66 271.59,-26.47"/>
<polygon fill="#63b8ff" stroke="#63b8ff" points="274,-23.92 264.04,-20.31 269.57,-29.35 274,-23.92"/>
</a>
</g>
</g>
<!-- Node7 -->
<g id="Node000007" class="node">
<title>Node7</title>
<g id="a_Node000007"><a xlink:href="fpmath_8h.html" target="_top" xlink:title=" ">
<polygon fill="white" stroke="#666666" points="366,-19 312,-19 312,0 366,0 366,-19"/>
<text text-anchor="middle" x="339" y="-7" font-family="Helvetica,sans-Serif" font-size="10.00">fpmath.h</text>
</a>
</g>
</g>
<!-- Node5&#45;&gt;Node7 -->
<g id="edge7_Node000005_Node000007" class="edge">
<title>Node5&#45;&gt;Node7</title>
<g id="a_edge7_Node000005_Node000007"><a xlink:title=" ">
<path fill="none" stroke="#63b8ff" d="M320.63,-54.75C323.42,-48.04 327.37,-38.52 330.9,-30.02"/>
<polygon fill="#63b8ff" stroke="#63b8ff" points="334.11,-31.42 334.71,-20.84 327.64,-28.73 334.11,-31.42"/>
</a>
</g>
</g>
<!-- Node8 -->
<g id="Node000008" class="node">
<title>Node8</title>
<g id="a_Node000008"><a xlink:title=" ">
<polygon fill="#e0e0e0" stroke="#999999" points="433.5,-19 384.5,-19 384.5,0 433.5,0 433.5,-19"/>
<text text-anchor="middle" x="409" y="-7" font-family="Helvetica,sans-Serif" font-size="10.00">stdint.h</text>
</a>
</g>
</g>
<!-- Node5&#45;&gt;Node8 -->
<g id="edge8_Node000005_Node000008" class="edge">
<title>Node5&#45;&gt;Node8</title>
<g id="a_edge8_Node000005_Node000008"><a xlink:title=" ">
<path fill="none" stroke="#63b8ff" d="M332.61,-54.51C346.7,-46.39 367.69,-34.3 384.1,-24.85"/>
<polygon fill="#63b8ff" stroke="#63b8ff" points="385.39,-28.14 392.31,-20.11 381.9,-22.07 385.39,-28.14"/>
</a>
</g>
</g>
<!-- Node9 -->
<g id="Node000009" class="node">
<title>Node9</title>
<g id="a_Node000009"><a xlink:href="math__private__openbsd_8h.html" target="_top" xlink:title=" ">
<polygon fill="white" stroke="#666666" points="574,-19 452,-19 452,0 574,0 574,-19"/>
<text text-anchor="middle" x="513" y="-7" font-family="Helvetica,sans-Serif" font-size="10.00">math_private_openbsd.h</text>
</a>
</g>
</g>
<!-- Node5&#45;&gt;Node9 -->
<g id="edge9_Node000005_Node000009" class="edge">
<title>Node5&#45;&gt;Node9</title>
<g id="a_edge9_Node000005_Node000009"><a xlink:title=" ">
<path fill="none" stroke="#63b8ff" d="M350.25,-54.51C383.01,-45.65 433.25,-32.07 469.24,-22.33"/>
<polygon fill="#63b8ff" stroke="#63b8ff" points="469.72,-25.83 478.45,-19.84 467.89,-19.07 469.72,-25.83"/>
</a>
</g>
</g>
</g>
</svg>
