<?xml version="1.0" encoding="UTF-8" standalone="no"?>
<!DOCTYPE svg PUBLIC "-//W3C//DTD SVG 1.1//EN"
 "http://www.w3.org/Graphics/SVG/1.1/DTD/svg11.dtd">
<!-- Generated by graphviz version 7.0.1 (20221109.1506)
 -->
<!-- Title: Internal/Math/s_ccos.inl Pages: 1 -->
<svg width="643pt" height="137pt"
 viewBox="0.00 0.00 642.50 137.00" xmlns="http://www.w3.org/2000/svg" xmlns:xlink="http://www.w3.org/1999/xlink">
<g id="graph0" class="graph" transform="scale(1 1) rotate(0) translate(4 133)">
<title>Internal/Math/s_ccos.inl</title>
<!-- Node1 -->
<g id="Node000001" class="node">
<title>Node1</title>
<g id="a_Node000001"><a xlink:title=" ">
<polygon fill="#999999" stroke="#666666" points="232.5,-129 112.5,-129 112.5,-110 232.5,-110 232.5,-129"/>
<text text-anchor="middle" x="172.5" y="-117" font-family="Helvetica,sans-Serif" font-size="10.00">Internal/Math/s_ccos.inl</text>
</a>
</g>
</g>
<!-- Node2 -->
<g id="Node000002" class="node">
<title>Node2</title>
<g id="a_Node000002"><a xlink:title=" ">
<polygon fill="#e0e0e0" stroke="#999999" points="43,-74 0,-74 0,-55 43,-55 43,-74"/>
<text text-anchor="middle" x="21.5" y="-62" font-family="Helvetica,sans-Serif" font-size="10.00">float.h</text>
</a>
</g>
</g>
<!-- Node1&#45;&gt;Node2 -->
<g id="edge1_Node000001_Node000002" class="edge">
<title>Node1&#45;&gt;Node2</title>
<g id="a_edge1_Node000001_Node000002"><a xlink:title=" ">
<path fill="none" stroke="#63b8ff" d="M146.88,-109.51C121.3,-100.53 81.87,-86.69 54.07,-76.93"/>
<polygon fill="#63b8ff" stroke="#63b8ff" points="55.34,-73.67 44.74,-73.66 53.02,-80.27 55.34,-73.67"/>
</a>
</g>
</g>
<!-- Node3 -->
<g id="Node000003" class="node">
<title>Node3</title>
<g id="a_Node000003"><a xlink:href="openlibm__complex_8h.html" target="_top" xlink:title=" ">
<polygon fill="white" stroke="#666666" points="167.5,-74 61.5,-74 61.5,-55 167.5,-55 167.5,-74"/>
<text text-anchor="middle" x="114.5" y="-62" font-family="Helvetica,sans-Serif" font-size="10.00">openlibm_complex.h</text>
</a>
</g>
</g>
<!-- Node1&#45;&gt;Node3 -->
<g id="edge2_Node000001_Node000003" class="edge">
<title>Node1&#45;&gt;Node3</title>
<g id="a_edge2_Node000001_Node000003"><a xlink:title=" ">
<path fill="none" stroke="#63b8ff" d="M162.66,-109.51C154.45,-102 142.52,-91.1 132.59,-82.03"/>
<polygon fill="#63b8ff" stroke="#63b8ff" points="135.05,-79.54 125.31,-75.38 130.33,-84.71 135.05,-79.54"/>
</a>
</g>
</g>
<!-- Node4 -->
<g id="Node000004" class="node">
<title>Node4</title>
<g id="a_Node000004"><a xlink:href="openlibm__math_8h.html" target="_top" xlink:title=" ">
<polygon fill="white" stroke="#666666" points="277,-74 186,-74 186,-55 277,-55 277,-74"/>
<text text-anchor="middle" x="231.5" y="-62" font-family="Helvetica,sans-Serif" font-size="10.00">openlibm_math.h</text>
</a>
</g>
</g>
<!-- Node1&#45;&gt;Node4 -->
<g id="edge3_Node000001_Node000004" class="edge">
<title>Node1&#45;&gt;Node4</title>
<g id="a_edge3_Node000001_Node000004"><a xlink:title=" ">
<path fill="none" stroke="#63b8ff" d="M182.51,-109.51C190.87,-102 203,-91.1 213.1,-82.03"/>
<polygon fill="#63b8ff" stroke="#63b8ff" points="215.41,-84.66 220.51,-75.37 210.74,-79.45 215.41,-84.66"/>
</a>
</g>
</g>
<!-- Node6 -->
<g id="Node000006" class="node">
<title>Node6</title>
<g id="a_Node000006"><a xlink:href="math__private_8h.html" target="_top" xlink:title=" ">
<polygon fill="white" stroke="#666666" points="418.5,-74 338.5,-74 338.5,-55 418.5,-55 418.5,-74"/>
<text text-anchor="middle" x="378.5" y="-62" font-family="Helvetica,sans-Serif" font-size="10.00">math_private.h</text>
</a>
</g>
</g>
<!-- Node1&#45;&gt;Node6 -->
<g id="edge5_Node000001_Node000006" class="edge">
<title>Node1&#45;&gt;Node6</title>
<g id="a_edge5_Node000001_Node000006"><a xlink:title=" ">
<path fill="none" stroke="#63b8ff" d="M207.45,-109.51C242.03,-100.61 295.13,-86.95 332.99,-77.21"/>
<polygon fill="#63b8ff" stroke="#63b8ff" points="333.45,-80.7 342.26,-74.82 331.71,-73.93 333.45,-80.7"/>
</a>
</g>
</g>
<!-- Node5 -->
<g id="Node000005" class="node">
<title>Node5</title>
<g id="a_Node000005"><a xlink:href="openlibm__defs_8h.html" target="_top" xlink:title=" ">
<polygon fill="white" stroke="#666666" points="253,-19 166,-19 166,0 253,0 253,-19"/>
<text text-anchor="middle" x="209.5" y="-7" font-family="Helvetica,sans-Serif" font-size="10.00">openlibm_defs.h</text>
</a>
</g>
</g>
<!-- Node4&#45;&gt;Node5 -->
<g id="edge4_Node000004_Node000005" class="edge">
<title>Node4&#45;&gt;Node5</title>
<g id="a_edge4_Node000004_Node000005"><a xlink:title=" ">
<path fill="none" stroke="#63b8ff" d="M227.87,-54.75C225.08,-48.04 221.13,-38.52 217.6,-30.02"/>
<polygon fill="#63b8ff" stroke="#63b8ff" points="220.86,-28.73 213.79,-20.84 214.39,-31.42 220.86,-28.73"/>
</a>
</g>
</g>
<!-- Node6&#45;&gt;Node5 -->
<g id="edge6_Node000006_Node000005" class="edge">
<title>Node6&#45;&gt;Node5</title>
<g id="a_edge6_Node000006_Node000005"><a xlink:title=" ">
<path fill="none" stroke="#63b8ff" d="M349.83,-54.51C322.07,-45.8 279.75,-32.53 248.85,-22.84"/>
<polygon fill="#63b8ff" stroke="#63b8ff" points="250.06,-19.55 239.47,-19.9 247.97,-26.23 250.06,-19.55"/>
</a>
</g>
</g>
<!-- Node7 -->
<g id="Node000007" class="node">
<title>Node7</title>
<g id="a_Node000007"><a xlink:href="cdefs-compat_8h.html" target="_top" xlink:title=" ">
<polygon fill="white" stroke="#666666" points="354,-19 271,-19 271,0 354,0 354,-19"/>
<text text-anchor="middle" x="312.5" y="-7" font-family="Helvetica,sans-Serif" font-size="10.00">cdefs&#45;compat.h</text>
</a>
</g>
</g>
<!-- Node6&#45;&gt;Node7 -->
<g id="edge7_Node000006_Node000007" class="edge">
<title>Node6&#45;&gt;Node7</title>
<g id="a_edge7_Node000006_Node000007"><a xlink:title=" ">
<path fill="none" stroke="#63b8ff" d="M367.3,-54.51C357.76,-46.85 343.83,-35.66 332.39,-26.47"/>
<polygon fill="#63b8ff" stroke="#63b8ff" points="334.7,-23.84 324.71,-20.31 330.32,-29.3 334.7,-23.84"/>
</a>
</g>
</g>
<!-- Node8 -->
<g id="Node000008" class="node">
<title>Node8</title>
<g id="a_Node000008"><a xlink:href="fpmath_8h.html" target="_top" xlink:title=" ">
<polygon fill="white" stroke="#666666" points="426.5,-19 372.5,-19 372.5,0 426.5,0 426.5,-19"/>
<text text-anchor="middle" x="399.5" y="-7" font-family="Helvetica,sans-Serif" font-size="10.00">fpmath.h</text>
</a>
</g>
</g>
<!-- Node6&#45;&gt;Node8 -->
<g id="edge8_Node000006_Node000008" class="edge">
<title>Node6&#45;&gt;Node8</title>
<g id="a_edge8_Node000006_Node000008"><a xlink:title=" ">
<path fill="none" stroke="#63b8ff" d="M381.97,-54.75C384.63,-48.04 388.4,-38.52 391.76,-30.02"/>
<polygon fill="#63b8ff" stroke="#63b8ff" points="394.97,-31.44 395.4,-20.85 388.46,-28.86 394.97,-31.44"/>
</a>
</g>
</g>
<!-- Node9 -->
<g id="Node000009" class="node">
<title>Node9</title>
<g id="a_Node000009"><a xlink:title=" ">
<polygon fill="#e0e0e0" stroke="#999999" points="494,-19 445,-19 445,0 494,0 494,-19"/>
<text text-anchor="middle" x="469.5" y="-7" font-family="Helvetica,sans-Serif" font-size="10.00">stdint.h</text>
</a>
</g>
</g>
<!-- Node6&#45;&gt;Node9 -->
<g id="edge9_Node000006_Node000009" class="edge">
<title>Node6&#45;&gt;Node9</title>
<g id="a_edge9_Node000006_Node000009"><a xlink:title=" ">
<path fill="none" stroke="#63b8ff" d="M393.94,-54.51C407.75,-46.47 428.25,-34.53 444.41,-25.11"/>
<polygon fill="#63b8ff" stroke="#63b8ff" points="446.1,-28.18 452.98,-20.12 442.58,-22.13 446.1,-28.18"/>
</a>
</g>
</g>
<!-- Node10 -->
<g id="Node000010" class="node">
<title>Node10</title>
<g id="a_Node000010"><a xlink:href="math__private__openbsd_8h.html" target="_top" xlink:title=" ">
<polygon fill="white" stroke="#666666" points="634.5,-19 512.5,-19 512.5,0 634.5,0 634.5,-19"/>
<text text-anchor="middle" x="573.5" y="-7" font-family="Helvetica,sans-Serif" font-size="10.00">math_private_openbsd.h</text>
</a>
</g>
</g>
<!-- Node6&#45;&gt;Node10 -->
<g id="edge10_Node000006_Node000010" class="edge">
<title>Node6&#45;&gt;Node10</title>
<g id="a_edge10_Node000006_Node000010"><a xlink:title=" ">
<path fill="none" stroke="#63b8ff" d="M411.58,-54.51C444.03,-45.69 493.72,-32.18 529.5,-22.46"/>
<polygon fill="#63b8ff" stroke="#63b8ff" points="530.39,-25.84 539.12,-19.84 528.56,-19.09 530.39,-25.84"/>
</a>
</g>
</g>
</g>
</svg>
