<?xml version="1.0" encoding="UTF-8" standalone="no"?>
<!DOCTYPE svg PUBLIC "-//W3C//DTD SVG 1.1//EN"
 "http://www.w3.org/Graphics/SVG/1.1/DTD/svg11.dtd">
<!-- Generated by graphviz version 7.0.1 (20221109.1506)
 -->
<!-- Title: Internal/Math/s_nan.inl Pages: 1 -->
<svg width="594pt" height="137pt"
 viewBox="0.00 0.00 593.50 137.00" xmlns="http://www.w3.org/2000/svg" xmlns:xlink="http://www.w3.org/1999/xlink">
<g id="graph0" class="graph" transform="scale(1 1) rotate(0) translate(4 133)">
<title>Internal/Math/s_nan.inl</title>
<!-- Node1 -->
<g id="Node000001" class="node">
<title>Node1</title>
<g id="a_Node000001"><a xlink:title=" ">
<polygon fill="#999999" stroke="#666666" points="268,-129 153,-129 153,-110 268,-110 268,-129"/>
<text text-anchor="middle" x="210.5" y="-117" font-family="Helvetica,sans-Serif" font-size="10.00">Internal/Math/s_nan.inl</text>
</a>
</g>
</g>
<!-- Node2 -->
<g id="Node000002" class="node">
<title>Node2</title>
<g id="a_Node000002"><a xlink:title=" ">
<polygon fill="#e0e0e0" stroke="#999999" points="49,-74 0,-74 0,-55 49,-55 49,-74"/>
<text text-anchor="middle" x="24.5" y="-62" font-family="Helvetica,sans-Serif" font-size="10.00">ctype.h</text>
</a>
</g>
</g>
<!-- Node1&#45;&gt;Node2 -->
<g id="edge1_Node000001_Node000002" class="edge">
<title>Node1&#45;&gt;Node2</title>
<g id="a_edge1_Node000001_Node000002"><a xlink:title=" ">
<path fill="none" stroke="#63b8ff" d="M178.95,-109.51C146.08,-100.14 94.67,-85.49 60.3,-75.7"/>
<polygon fill="#63b8ff" stroke="#63b8ff" points="61.38,-72.37 50.8,-73 59.46,-79.1 61.38,-72.37"/>
</a>
</g>
</g>
<!-- Node3 -->
<g id="Node000003" class="node">
<title>Node3</title>
<g id="a_Node000003"><a xlink:title=" ">
<polygon fill="#e0e0e0" stroke="#999999" points="110,-74 67,-74 67,-55 110,-55 110,-74"/>
<text text-anchor="middle" x="88.5" y="-62" font-family="Helvetica,sans-Serif" font-size="10.00">float.h</text>
</a>
</g>
</g>
<!-- Node1&#45;&gt;Node3 -->
<g id="edge2_Node000001_Node000003" class="edge">
<title>Node1&#45;&gt;Node3</title>
<g id="a_edge2_Node000001_Node000003"><a xlink:title=" ">
<path fill="none" stroke="#63b8ff" d="M189.8,-109.51C170.5,-101.12 141.44,-88.5 119.39,-78.92"/>
<polygon fill="#63b8ff" stroke="#63b8ff" points="120.84,-75.74 110.28,-74.96 118.06,-82.16 120.84,-75.74"/>
</a>
</g>
</g>
<!-- Node4 -->
<g id="Node000004" class="node">
<title>Node4</title>
<g id="a_Node000004"><a xlink:href="openlibm__math_8h.html" target="_top" xlink:title=" ">
<polygon fill="white" stroke="#666666" points="219,-74 128,-74 128,-55 219,-55 219,-74"/>
<text text-anchor="middle" x="173.5" y="-62" font-family="Helvetica,sans-Serif" font-size="10.00">openlibm_math.h</text>
</a>
</g>
</g>
<!-- Node1&#45;&gt;Node4 -->
<g id="edge3_Node000001_Node000004" class="edge">
<title>Node1&#45;&gt;Node4</title>
<g id="a_edge3_Node000001_Node000004"><a xlink:title=" ">
<path fill="none" stroke="#63b8ff" d="M204.39,-109.75C199.49,-102.73 192.45,-92.64 186.33,-83.87"/>
<polygon fill="#63b8ff" stroke="#63b8ff" points="189.2,-81.88 180.61,-75.68 183.46,-85.89 189.2,-81.88"/>
</a>
</g>
</g>
<!-- Node6 -->
<g id="Node000006" class="node">
<title>Node6</title>
<g id="a_Node000006"><a xlink:title=" ">
<polygon fill="#e0e0e0" stroke="#999999" points="272,-19 223,-19 223,0 272,0 272,-19"/>
<text text-anchor="middle" x="247.5" y="-7" font-family="Helvetica,sans-Serif" font-size="10.00">stdint.h</text>
</a>
</g>
</g>
<!-- Node1&#45;&gt;Node6 -->
<g id="edge5_Node000001_Node000006" class="edge">
<title>Node1&#45;&gt;Node6</title>
<g id="a_edge5_Node000001_Node000006"><a xlink:title=" ">
<path fill="none" stroke="#63b8ff" d="M214.04,-109.69C217.6,-100.76 223.15,-86.5 227.5,-74 232.57,-59.43 237.79,-42.79 241.63,-30.19"/>
<polygon fill="#63b8ff" stroke="#63b8ff" points="244.98,-31.22 244.51,-20.63 238.27,-29.2 244.98,-31.22"/>
</a>
</g>
</g>
<!-- Node7 -->
<g id="Node000007" class="node">
<title>Node7</title>
<g id="a_Node000007"><a xlink:title=" ">
<polygon fill="#e0e0e0" stroke="#999999" points="423,-74 374,-74 374,-55 423,-55 423,-74"/>
<text text-anchor="middle" x="398.5" y="-62" font-family="Helvetica,sans-Serif" font-size="10.00">string.h</text>
</a>
</g>
</g>
<!-- Node1&#45;&gt;Node7 -->
<g id="edge6_Node000001_Node000007" class="edge">
<title>Node1&#45;&gt;Node7</title>
<g id="a_edge6_Node000001_Node000007"><a xlink:title=" ">
<path fill="none" stroke="#63b8ff" d="M242.39,-109.51C275.71,-100.12 327.87,-85.41 362.61,-75.62"/>
<polygon fill="#63b8ff" stroke="#63b8ff" points="363.54,-78.99 372.21,-72.91 361.64,-72.25 363.54,-78.99"/>
</a>
</g>
</g>
<!-- Node8 -->
<g id="Node000008" class="node">
<title>Node8</title>
<g id="a_Node000008"><a xlink:href="math__private_8h.html" target="_top" xlink:title=" ">
<polygon fill="white" stroke="#666666" points="355.5,-74 275.5,-74 275.5,-55 355.5,-55 355.5,-74"/>
<text text-anchor="middle" x="315.5" y="-62" font-family="Helvetica,sans-Serif" font-size="10.00">math_private.h</text>
</a>
</g>
</g>
<!-- Node1&#45;&gt;Node8 -->
<g id="edge7_Node000001_Node000008" class="edge">
<title>Node1&#45;&gt;Node8</title>
<g id="a_edge7_Node000001_Node000008"><a xlink:title=" ">
<path fill="none" stroke="#63b8ff" d="M228.31,-109.51C244.63,-101.27 269.03,-88.96 287.87,-79.45"/>
<polygon fill="#63b8ff" stroke="#63b8ff" points="289.25,-82.67 296.6,-75.04 286.1,-76.42 289.25,-82.67"/>
</a>
</g>
</g>
<!-- Node5 -->
<g id="Node000005" class="node">
<title>Node5</title>
<g id="a_Node000005"><a xlink:href="openlibm__defs_8h.html" target="_top" xlink:title=" ">
<polygon fill="white" stroke="#666666" points="205,-19 118,-19 118,0 205,0 205,-19"/>
<text text-anchor="middle" x="161.5" y="-7" font-family="Helvetica,sans-Serif" font-size="10.00">openlibm_defs.h</text>
</a>
</g>
</g>
<!-- Node4&#45;&gt;Node5 -->
<g id="edge4_Node000004_Node000005" class="edge">
<title>Node4&#45;&gt;Node5</title>
<g id="a_edge4_Node000004_Node000005"><a xlink:title=" ">
<path fill="none" stroke="#63b8ff" d="M171.52,-54.75C170.03,-48.19 167.94,-38.95 166.05,-30.6"/>
<polygon fill="#63b8ff" stroke="#63b8ff" points="169.48,-29.9 163.86,-20.92 162.65,-31.44 169.48,-29.9"/>
</a>
</g>
</g>
<!-- Node8&#45;&gt;Node5 -->
<g id="edge8_Node000008_Node000005" class="edge">
<title>Node8&#45;&gt;Node5</title>
<g id="a_edge8_Node000008_Node000005"><a xlink:title=" ">
<path fill="none" stroke="#63b8ff" d="M289.38,-54.51C264.3,-45.88 226.19,-32.76 198.1,-23.1"/>
<polygon fill="#63b8ff" stroke="#63b8ff" points="199.52,-19.88 188.93,-19.94 197.24,-26.5 199.52,-19.88"/>
</a>
</g>
</g>
<!-- Node8&#45;&gt;Node6 -->
<g id="edge11_Node000008_Node000006" class="edge">
<title>Node8&#45;&gt;Node6</title>
<g id="a_edge11_Node000008_Node000006"><a xlink:title=" ">
<path fill="none" stroke="#63b8ff" d="M303.96,-54.51C294.04,-46.77 279.49,-35.43 267.64,-26.2"/>
<polygon fill="#63b8ff" stroke="#63b8ff" points="270.1,-23.68 260.06,-20.29 265.79,-29.2 270.1,-23.68"/>
</a>
</g>
</g>
<!-- Node9 -->
<g id="Node000009" class="node">
<title>Node9</title>
<g id="a_Node000009"><a xlink:href="cdefs-compat_8h.html" target="_top" xlink:title=" ">
<polygon fill="white" stroke="#666666" points="373,-19 290,-19 290,0 373,0 373,-19"/>
<text text-anchor="middle" x="331.5" y="-7" font-family="Helvetica,sans-Serif" font-size="10.00">cdefs&#45;compat.h</text>
</a>
</g>
</g>
<!-- Node8&#45;&gt;Node9 -->
<g id="edge9_Node000008_Node000009" class="edge">
<title>Node8&#45;&gt;Node9</title>
<g id="a_edge9_Node000008_Node000009"><a xlink:title=" ">
<path fill="none" stroke="#63b8ff" d="M318.14,-54.75C320.14,-48.11 322.98,-38.73 325.52,-30.31"/>
<polygon fill="#63b8ff" stroke="#63b8ff" points="328.82,-31.48 328.36,-20.89 322.12,-29.45 328.82,-31.48"/>
</a>
</g>
</g>
<!-- Node10 -->
<g id="Node000010" class="node">
<title>Node10</title>
<g id="a_Node000010"><a xlink:href="fpmath_8h.html" target="_top" xlink:title=" ">
<polygon fill="white" stroke="#666666" points="445.5,-19 391.5,-19 391.5,0 445.5,0 445.5,-19"/>
<text text-anchor="middle" x="418.5" y="-7" font-family="Helvetica,sans-Serif" font-size="10.00">fpmath.h</text>
</a>
</g>
</g>
<!-- Node8&#45;&gt;Node10 -->
<g id="edge10_Node000008_Node000010" class="edge">
<title>Node8&#45;&gt;Node10</title>
<g id="a_edge10_Node000008_Node000010"><a xlink:title=" ">
<path fill="none" stroke="#63b8ff" d="M332.97,-54.51C348.9,-46.31 372.69,-34.07 391.14,-24.58"/>
<polygon fill="#63b8ff" stroke="#63b8ff" points="392.65,-27.74 399.94,-20.05 389.45,-21.51 392.65,-27.74"/>
</a>
</g>
</g>
<!-- Node11 -->
<g id="Node000011" class="node">
<title>Node11</title>
<g id="a_Node000011"><a xlink:href="math__private__openbsd_8h.html" target="_top" xlink:title=" ">
<polygon fill="white" stroke="#666666" points="585.5,-19 463.5,-19 463.5,0 585.5,0 585.5,-19"/>
<text text-anchor="middle" x="524.5" y="-7" font-family="Helvetica,sans-Serif" font-size="10.00">math_private_openbsd.h</text>
</a>
</g>
</g>
<!-- Node8&#45;&gt;Node11 -->
<g id="edge12_Node000008_Node000011" class="edge">
<title>Node8&#45;&gt;Node11</title>
<g id="a_edge12_Node000008_Node000011"><a xlink:title=" ">
<path fill="none" stroke="#63b8ff" d="M350.95,-54.51C386.04,-45.61 439.92,-31.95 478.33,-22.21"/>
<polygon fill="#63b8ff" stroke="#63b8ff" points="478.92,-25.67 487.75,-19.82 477.2,-18.88 478.92,-25.67"/>
</a>
</g>
</g>
</g>
</svg>
