<?xml version="1.0" encoding="UTF-8" standalone="no"?>
<!DOCTYPE svg PUBLIC "-//W3C//DTD SVG 1.1//EN"
 "http://www.w3.org/Graphics/SVG/1.1/DTD/svg11.dtd">
<!-- Generated by graphviz version 7.0.1 (20221109.1506)
 -->
<!-- Title: Harlinn::Common::Core::BitTraits&lt; wchar_t &gt; Pages: 1 -->
<svg width="205pt" height="305pt"
 viewBox="0.00 0.00 204.50 305.00" xmlns="http://www.w3.org/2000/svg" xmlns:xlink="http://www.w3.org/1999/xlink">
<g id="graph0" class="graph" transform="scale(1 1) rotate(0) translate(4 301)">
<title>Harlinn::Common::Core::BitTraits&lt; wchar_t &gt;</title>
<!-- Node1 -->
<g id="Node000001" class="node">
<title>Node1</title>
<g id="a_Node000001"><a xlink:title=" ">
<polygon fill="#999999" stroke="#666666" points="125.5,-30 7.5,-30 7.5,0 125.5,0 125.5,-30"/>
<text text-anchor="start" x="15.5" y="-18" font-family="Helvetica,sans-Serif" font-size="10.00">Harlinn::Common::Core</text>
<text text-anchor="middle" x="66.5" y="-7" font-family="Helvetica,sans-Serif" font-size="10.00">::BitTraits&lt; wchar_t &gt;</text>
</a>
</g>
</g>
<!-- Node2 -->
<g id="Node000002" class="node">
<title>Node2</title>
<g id="a_Node000002"><a xlink:href="struct_harlinn_1_1_common_1_1_core_1_1_wide_char_bit_traits.xhtml" target="_top" xlink:title=" ">
<polygon fill="white" stroke="#666666" points="125.5,-97 7.5,-97 7.5,-67 125.5,-67 125.5,-97"/>
<text text-anchor="start" x="15.5" y="-85" font-family="Helvetica,sans-Serif" font-size="10.00">Harlinn::Common::Core</text>
<text text-anchor="middle" x="66.5" y="-74" font-family="Helvetica,sans-Serif" font-size="10.00">::WideCharBitTraits</text>
</a>
</g>
</g>
<!-- Node2&#45;&gt;Node1 -->
<g id="edge1_Node000001_Node000002" class="edge">
<title>Node2&#45;&gt;Node1</title>
<g id="a_edge1_Node000001_Node000002"><a xlink:title=" ">
<path fill="none" stroke="#63b8ff" d="M66.5,-55.28C66.5,-46.81 66.5,-37.7 66.5,-30.39"/>
<polygon fill="#63b8ff" stroke="#63b8ff" points="63,-55.06 66.5,-65.06 70,-55.06 63,-55.06"/>
</a>
</g>
</g>
<!-- Node3 -->
<g id="Node000003" class="node">
<title>Node3</title>
<g id="a_Node000003"><a xlink:href="struct_harlinn_1_1_common_1_1_core_1_1_bit_traits_base.xhtml" target="_top" xlink:title=" ">
<polygon fill="white" stroke="#666666" points="133,-164 0,-164 0,-134 133,-134 133,-164"/>
<text text-anchor="start" x="8" y="-152" font-family="Helvetica,sans-Serif" font-size="10.00">Harlinn::Common::Core</text>
<text text-anchor="middle" x="66.5" y="-141" font-family="Helvetica,sans-Serif" font-size="10.00">::BitTraitsBase&lt; wchar_t &gt;</text>
</a>
</g>
</g>
<!-- Node3&#45;&gt;Node2 -->
<g id="edge2_Node000002_Node000003" class="edge">
<title>Node3&#45;&gt;Node2</title>
<g id="a_edge2_Node000002_Node000003"><a xlink:title=" ">
<path fill="none" stroke="#63b8ff" d="M66.5,-122.28C66.5,-113.81 66.5,-104.7 66.5,-97.39"/>
<polygon fill="#63b8ff" stroke="#63b8ff" points="63,-122.06 66.5,-132.06 70,-122.06 63,-122.06"/>
</a>
</g>
</g>
<!-- Node4 -->
<g id="Node000004" class="node">
<title>Node4</title>
<g id="a_Node000004"><a xlink:title=" ">
<polygon fill="white" stroke="#666666" points="101,-297 24,-297 24,-278 101,-278 101,-297"/>
<text text-anchor="middle" x="62.5" y="-285" font-family="Helvetica,sans-Serif" font-size="10.00">std::true_type</text>
</a>
</g>
</g>
<!-- Node4&#45;&gt;Node3 -->
<g id="edge3_Node000003_Node000004" class="edge">
<title>Node4&#45;&gt;Node3</title>
<g id="a_edge3_Node000003_Node000004"><a xlink:title=" ">
<path fill="none" stroke="#63b8ff" d="M63.1,-266.07C63.92,-238.12 65.37,-188.66 66.08,-164.33"/>
<polygon fill="#63b8ff" stroke="#63b8ff" points="59.6,-265.93 62.81,-276.03 66.6,-266.14 59.6,-265.93"/>
</a>
</g>
</g>
<!-- Node5 -->
<g id="Node000005" class="node">
<title>Node5</title>
<g id="a_Node000005"><a xlink:href="struct_harlinn_1_1_common_1_1_core_1_1_bit_traits_base.xhtml" target="_top" xlink:title=" ">
<polygon fill="white" stroke="#666666" points="196.5,-241 78.5,-241 78.5,-211 196.5,-211 196.5,-241"/>
<text text-anchor="start" x="86.5" y="-229" font-family="Helvetica,sans-Serif" font-size="10.00">Harlinn::Common::Core</text>
<text text-anchor="middle" x="137.5" y="-218" font-family="Helvetica,sans-Serif" font-size="10.00">::BitTraitsBase&lt; T &gt;</text>
</a>
</g>
</g>
<!-- Node4&#45;&gt;Node5 -->
<g id="edge5_Node000005_Node000004" class="edge">
<title>Node4&#45;&gt;Node5</title>
<g id="a_edge5_Node000005_Node000004"><a xlink:title=" ">
<path fill="none" stroke="#63b8ff" d="M82.42,-270.7C93.9,-261.59 108.24,-250.21 119.4,-241.36"/>
<polygon fill="#63b8ff" stroke="#63b8ff" points="80.41,-267.82 74.75,-276.78 84.76,-273.31 80.41,-267.82"/>
</a>
</g>
</g>
<!-- Node5&#45;&gt;Node3 -->
<g id="edge4_Node000003_Node000005" class="edge">
<title>Node5&#45;&gt;Node3</title>
<g id="a_edge4_Node000003_Node000005"><a xlink:title=" ">
<path fill="none" stroke="orange" stroke-dasharray="5,2" d="M116.19,-202.49C104.5,-190.14 90.35,-175.2 80.15,-164.42"/>
<polygon fill="orange" stroke="orange" points="113.35,-204.58 122.77,-209.44 118.44,-199.77 113.35,-204.58"/>
</a>
</g>
<text text-anchor="middle" x="133" y="-185" font-family="Helvetica,sans-Serif" font-size="10.00" fill="grey"> &lt; wchar_t &gt;</text>
</g>
</g>
</svg>
