<?xml version="1.0" encoding="UTF-8" standalone="no"?>
<!DOCTYPE svg PUBLIC "-//W3C//DTD SVG 1.1//EN"
 "http://www.w3.org/Graphics/SVG/1.1/DTD/svg11.dtd">
<!-- Generated by graphviz version 7.0.1 (20221109.1506)
 -->
<!-- Title: Harlinn::Common::Core::Math::Internal::VectorBase Pages: 1 -->
<svg width="593pt" height="514pt"
 viewBox="0.00 0.00 593.00 514.01" xmlns="http://www.w3.org/2000/svg" xmlns:xlink="http://www.w3.org/1999/xlink">
<g id="graph0" class="graph" transform="scale(1 1) rotate(0) translate(4 510.01)">
<title>Harlinn::Common::Core::Math::Internal::VectorBase</title>
<!-- Node1 -->
<g id="Node000001" class="node">
<title>Node1</title>
<g id="a_Node000001"><a xlink:title=" ">
<polygon fill="#999999" stroke="#666666" points="139,-270 0,-270 0,-240 139,-240 139,-270"/>
<text text-anchor="start" x="8" y="-258" font-family="Helvetica,sans-Serif" font-size="10.00">Harlinn::Common::Core</text>
<text text-anchor="middle" x="69.5" y="-247" font-family="Helvetica,sans-Serif" font-size="10.00">::Math::Internal::VectorBase</text>
</a>
</g>
</g>
<!-- Node2 -->
<g id="Node000002" class="node">
<title>Node2</title>
<g id="a_Node000002"><a xlink:href="class_harlinn_1_1_common_1_1_core_1_1_math_1_1_vector.html" target="_top" xlink:title=" ">
<polygon fill="white" stroke="#666666" points="585,-484 431,-484 431,-454 585,-454 585,-484"/>
<text text-anchor="start" x="439" y="-472" font-family="Helvetica,sans-Serif" font-size="10.00">Harlinn::Common::Core</text>
<text text-anchor="middle" x="508" y="-461" font-family="Helvetica,sans-Serif" font-size="10.00">::Math::Vector&lt; ValueType, 3 &gt;</text>
</a>
</g>
</g>
<!-- Node1&#45;&gt;Node2 -->
<g id="edge1_Node000001_Node000002" class="edge">
<title>Node1&#45;&gt;Node2</title>
<g id="a_edge1_Node000001_Node000002"><a xlink:title=" ">
<path fill="none" stroke="#63b8ff" d="M74.49,-281.46C83.24,-329.01 108.97,-427.95 176,-471 262.67,-526.66 390.25,-503.4 458.96,-484.44"/>
<polygon fill="#63b8ff" stroke="#63b8ff" points="77.97,-281.04 72.83,-271.77 71.07,-282.22 77.97,-281.04"/>
</a>
</g>
</g>
<!-- Node3 -->
<g id="Node000003" class="node">
<title>Node3</title>
<g id="a_Node000003"><a xlink:href="class_harlinn_1_1_common_1_1_core_1_1_math_1_1_vector.html" target="_top" xlink:title=" ">
<polygon fill="white" stroke="#666666" points="316,-462 176,-462 176,-432 316,-432 316,-462"/>
<text text-anchor="start" x="184" y="-450" font-family="Helvetica,sans-Serif" font-size="10.00">Harlinn::Common::Core</text>
<text text-anchor="middle" x="246" y="-439" font-family="Helvetica,sans-Serif" font-size="10.00">::Math::Vector&lt; ValueT, N &gt;</text>
</a>
</g>
</g>
<!-- Node1&#45;&gt;Node3 -->
<g id="edge2_Node000001_Node000003" class="edge">
<title>Node1&#45;&gt;Node3</title>
<g id="a_edge2_Node000001_Node000003"><a xlink:title=" ">
<path fill="none" stroke="#63b8ff" d="M80.19,-280.76C95.25,-317.44 127.65,-384.51 176,-423 180.07,-426.24 184.6,-429.06 189.35,-431.5"/>
<polygon fill="#63b8ff" stroke="#63b8ff" points="83.59,-279.83 76.64,-271.83 77.08,-282.41 83.59,-279.83"/>
</a>
</g>
</g>
<!-- Node4 -->
<g id="Node000004" class="node">
<title>Node4</title>
<g id="a_Node000004"><a xlink:href="class_harlinn_1_1_common_1_1_core_1_1_math_1_1_vector_3_01_int32_00_012_01_4.html" target="_top" xlink:title=" ">
<polygon fill="white" stroke="#666666" points="310.5,-414 181.5,-414 181.5,-384 310.5,-384 310.5,-414"/>
<text text-anchor="start" x="189.5" y="-402" font-family="Helvetica,sans-Serif" font-size="10.00">Harlinn::Common::Core</text>
<text text-anchor="middle" x="246" y="-391" font-family="Helvetica,sans-Serif" font-size="10.00">::Math::Vector&lt; Int32, 2 &gt;</text>
</a>
</g>
</g>
<!-- Node1&#45;&gt;Node4 -->
<g id="edge4_Node000001_Node000004" class="edge">
<title>Node1&#45;&gt;Node4</title>
<g id="a_edge4_Node000001_Node000004"><a xlink:title=" ">
<path fill="none" stroke="#63b8ff" d="M86.34,-279.63C104.85,-306.57 137.83,-349.33 176,-375 180.84,-378.26 186.17,-381.12 191.66,-383.62"/>
<polygon fill="#63b8ff" stroke="#63b8ff" points="89.3,-277.75 80.82,-271.4 83.49,-281.65 89.3,-277.75"/>
</a>
</g>
</g>
<!-- Node5 -->
<g id="Node000005" class="node">
<title>Node5</title>
<g id="a_Node000005"><a xlink:href="class_harlinn_1_1_common_1_1_core_1_1_math_1_1_vector_3_01_int32_00_013_01_4.html" target="_top" xlink:title=" ">
<polygon fill="white" stroke="#666666" points="310.5,-366 181.5,-366 181.5,-336 310.5,-336 310.5,-366"/>
<text text-anchor="start" x="189.5" y="-354" font-family="Helvetica,sans-Serif" font-size="10.00">Harlinn::Common::Core</text>
<text text-anchor="middle" x="246" y="-343" font-family="Helvetica,sans-Serif" font-size="10.00">::Math::Vector&lt; Int32, 3 &gt;</text>
</a>
</g>
</g>
<!-- Node1&#45;&gt;Node5 -->
<g id="edge5_Node000001_Node000005" class="edge">
<title>Node1&#45;&gt;Node5</title>
<g id="a_edge5_Node000001_Node000005"><a xlink:title=" ">
<path fill="none" stroke="#63b8ff" d="M98.84,-277.4C119.38,-292.85 148.31,-313.04 176,-327 182.12,-330.08 188.72,-332.93 195.34,-335.51"/>
<polygon fill="#63b8ff" stroke="#63b8ff" points="101.03,-274.66 90.95,-271.37 96.78,-280.22 101.03,-274.66"/>
</a>
</g>
</g>
<!-- Node6 -->
<g id="Node000006" class="node">
<title>Node6</title>
<g id="a_Node000006"><a xlink:href="class_harlinn_1_1_common_1_1_core_1_1_math_1_1_vector_3_01_int32_00_014_01_4.html" target="_top" xlink:title=" ">
<polygon fill="white" stroke="#666666" points="310.5,-318 181.5,-318 181.5,-288 310.5,-288 310.5,-318"/>
<text text-anchor="start" x="189.5" y="-306" font-family="Helvetica,sans-Serif" font-size="10.00">Harlinn::Common::Core</text>
<text text-anchor="middle" x="246" y="-295" font-family="Helvetica,sans-Serif" font-size="10.00">::Math::Vector&lt; Int32, 4 &gt;</text>
</a>
</g>
</g>
<!-- Node1&#45;&gt;Node6 -->
<g id="edge6_Node000001_Node000006" class="edge">
<title>Node1&#45;&gt;Node6</title>
<g id="a_edge6_Node000001_Node000006"><a xlink:title=" ">
<path fill="none" stroke="#63b8ff" d="M137.63,-273.46C154.57,-278.13 172.59,-283.08 188.93,-287.58"/>
<polygon fill="#63b8ff" stroke="#63b8ff" points="138.7,-270.13 128.13,-270.85 136.85,-276.88 138.7,-270.13"/>
</a>
</g>
</g>
<!-- Node7 -->
<g id="Node000007" class="node">
<title>Node7</title>
<g id="a_Node000007"><a xlink:href="class_harlinn_1_1_common_1_1_core_1_1_math_1_1_vector_3_01double_00_012_01_4.html" target="_top" xlink:title=" ">
<polygon fill="white" stroke="#666666" points="314.5,-270 177.5,-270 177.5,-240 314.5,-240 314.5,-270"/>
<text text-anchor="start" x="185.5" y="-258" font-family="Helvetica,sans-Serif" font-size="10.00">Harlinn::Common::Core</text>
<text text-anchor="middle" x="246" y="-247" font-family="Helvetica,sans-Serif" font-size="10.00">::Math::Vector&lt; double, 2 &gt;</text>
</a>
</g>
</g>
<!-- Node1&#45;&gt;Node7 -->
<g id="edge7_Node000001_Node000007" class="edge">
<title>Node1&#45;&gt;Node7</title>
<g id="a_edge7_Node000001_Node000007"><a xlink:title=" ">
<path fill="none" stroke="#63b8ff" d="M150.9,-255C159.66,-255 168.51,-255 177.1,-255"/>
<polygon fill="#63b8ff" stroke="#63b8ff" points="150.98,-251.5 140.98,-255 150.98,-258.5 150.98,-251.5"/>
</a>
</g>
</g>
<!-- Node8 -->
<g id="Node000008" class="node">
<title>Node8</title>
<g id="a_Node000008"><a xlink:href="class_harlinn_1_1_common_1_1_core_1_1_math_1_1_vector_3_01double_00_013_01_4.html" target="_top" xlink:title=" ">
<polygon fill="white" stroke="#666666" points="314.5,-222 177.5,-222 177.5,-192 314.5,-192 314.5,-222"/>
<text text-anchor="start" x="185.5" y="-210" font-family="Helvetica,sans-Serif" font-size="10.00">Harlinn::Common::Core</text>
<text text-anchor="middle" x="246" y="-199" font-family="Helvetica,sans-Serif" font-size="10.00">::Math::Vector&lt; double, 3 &gt;</text>
</a>
</g>
</g>
<!-- Node1&#45;&gt;Node8 -->
<g id="edge8_Node000001_Node000008" class="edge">
<title>Node1&#45;&gt;Node8</title>
<g id="a_edge8_Node000001_Node000008"><a xlink:title=" ">
<path fill="none" stroke="#63b8ff" d="M137.63,-236.54C154.57,-231.87 172.59,-226.92 188.93,-222.42"/>
<polygon fill="#63b8ff" stroke="#63b8ff" points="136.85,-233.12 128.13,-239.15 138.7,-239.87 136.85,-233.12"/>
</a>
</g>
</g>
<!-- Node9 -->
<g id="Node000009" class="node">
<title>Node9</title>
<g id="a_Node000009"><a xlink:href="class_harlinn_1_1_common_1_1_core_1_1_math_1_1_vector_3_01double_00_014_01_4.html" target="_top" xlink:title=" ">
<polygon fill="white" stroke="#666666" points="314.5,-174 177.5,-174 177.5,-144 314.5,-144 314.5,-174"/>
<text text-anchor="start" x="185.5" y="-162" font-family="Helvetica,sans-Serif" font-size="10.00">Harlinn::Common::Core</text>
<text text-anchor="middle" x="246" y="-151" font-family="Helvetica,sans-Serif" font-size="10.00">::Math::Vector&lt; double, 4 &gt;</text>
</a>
</g>
</g>
<!-- Node1&#45;&gt;Node9 -->
<g id="edge9_Node000001_Node000009" class="edge">
<title>Node1&#45;&gt;Node9</title>
<g id="a_edge9_Node000001_Node000009"><a xlink:title=" ">
<path fill="none" stroke="#63b8ff" d="M98.84,-232.6C119.38,-217.15 148.31,-196.96 176,-183 182.12,-179.92 188.72,-177.07 195.34,-174.49"/>
<polygon fill="#63b8ff" stroke="#63b8ff" points="96.78,-229.78 90.95,-238.63 101.03,-235.34 96.78,-229.78"/>
</a>
</g>
</g>
<!-- Node10 -->
<g id="Node000010" class="node">
<title>Node10</title>
<g id="a_Node000010"><a xlink:href="class_harlinn_1_1_common_1_1_core_1_1_math_1_1_vector_3_01float_00_012_01_4.html" target="_top" xlink:title=" ">
<polygon fill="white" stroke="#666666" points="309,-126 183,-126 183,-96 309,-96 309,-126"/>
<text text-anchor="start" x="191" y="-114" font-family="Helvetica,sans-Serif" font-size="10.00">Harlinn::Common::Core</text>
<text text-anchor="middle" x="246" y="-103" font-family="Helvetica,sans-Serif" font-size="10.00">::Math::Vector&lt; float, 2 &gt;</text>
</a>
</g>
</g>
<!-- Node1&#45;&gt;Node10 -->
<g id="edge10_Node000001_Node000010" class="edge">
<title>Node1&#45;&gt;Node10</title>
<g id="a_edge10_Node000001_Node000010"><a xlink:title=" ">
<path fill="none" stroke="#63b8ff" d="M86.34,-230.37C104.85,-203.43 137.83,-160.67 176,-135 180.84,-131.74 186.17,-128.88 191.66,-126.38"/>
<polygon fill="#63b8ff" stroke="#63b8ff" points="83.49,-228.35 80.82,-238.6 89.3,-232.25 83.49,-228.35"/>
</a>
</g>
</g>
<!-- Node11 -->
<g id="Node000011" class="node">
<title>Node11</title>
<g id="a_Node000011"><a xlink:href="class_harlinn_1_1_common_1_1_core_1_1_math_1_1_vector_3_01float_00_013_01_4.html" target="_top" xlink:title=" ">
<polygon fill="white" stroke="#666666" points="309,-78 183,-78 183,-48 309,-48 309,-78"/>
<text text-anchor="start" x="191" y="-66" font-family="Helvetica,sans-Serif" font-size="10.00">Harlinn::Common::Core</text>
<text text-anchor="middle" x="246" y="-55" font-family="Helvetica,sans-Serif" font-size="10.00">::Math::Vector&lt; float, 3 &gt;</text>
</a>
</g>
</g>
<!-- Node1&#45;&gt;Node11 -->
<g id="edge11_Node000001_Node000011" class="edge">
<title>Node1&#45;&gt;Node11</title>
<g id="a_edge11_Node000001_Node000011"><a xlink:title=" ">
<path fill="none" stroke="#63b8ff" d="M80.19,-229.24C95.25,-192.56 127.65,-125.49 176,-87 180.07,-83.76 184.6,-80.94 189.35,-78.5"/>
<polygon fill="#63b8ff" stroke="#63b8ff" points="77.08,-227.59 76.64,-238.17 83.59,-230.17 77.08,-227.59"/>
</a>
</g>
</g>
<!-- Node12 -->
<g id="Node000012" class="node">
<title>Node12</title>
<g id="a_Node000012"><a xlink:href="class_harlinn_1_1_common_1_1_core_1_1_math_1_1_vector_3_01float_00_014_01_4.html" target="_top" xlink:title=" ">
<polygon fill="white" stroke="#666666" points="309,-30 183,-30 183,0 309,0 309,-30"/>
<text text-anchor="start" x="191" y="-18" font-family="Helvetica,sans-Serif" font-size="10.00">Harlinn::Common::Core</text>
<text text-anchor="middle" x="246" y="-7" font-family="Helvetica,sans-Serif" font-size="10.00">::Math::Vector&lt; float, 4 &gt;</text>
</a>
</g>
</g>
<!-- Node1&#45;&gt;Node12 -->
<g id="edge12_Node000001_Node000012" class="edge">
<title>Node1&#45;&gt;Node12</title>
<g id="a_edge12_Node000001_Node000012"><a xlink:title=" ">
<path fill="none" stroke="#63b8ff" d="M76.41,-228.57C87.85,-183.39 117.23,-91.13 176,-39 179.7,-35.72 183.87,-32.88 188.29,-30.42"/>
<polygon fill="#63b8ff" stroke="#63b8ff" points="73.01,-227.73 74.06,-238.27 79.81,-229.38 73.01,-227.73"/>
</a>
</g>
</g>
<!-- Node3&#45;&gt;Node2 -->
<g id="edge3_Node000003_Node000002" class="edge">
<title>Node3&#45;&gt;Node2</title>
<g id="a_edge3_Node000003_Node000002"><a xlink:title=" ">
<path fill="none" stroke="orange" stroke-dasharray="5,2" d="M327.71,-453.83C360.5,-456.6 398.2,-459.79 430.54,-462.53"/>
<polygon fill="orange" stroke="orange" points="328.1,-450.35 317.84,-452.99 327.51,-457.33 328.1,-450.35"/>
</a>
</g>
<text text-anchor="middle" x="373.5" y="-463" font-family="Helvetica,sans-Serif" font-size="10.00" fill="grey"> &lt; ValueType, 3 &gt;</text>
</g>
</g>
</svg>
