<?xml version="1.0" encoding="UTF-8" standalone="no"?>
<!DOCTYPE svg PUBLIC "-//W3C//DTD SVG 1.1//EN"
 "http://www.w3.org/Graphics/SVG/1.1/DTD/svg11.dtd">
<!-- Generated by graphviz version 7.0.1 (20221109.1506)
 -->
<!-- Title: Harlinn::Windows::DML::GEMMOperatorDesc Pages: 1 -->
<svg width="355pt" height="140pt"
 viewBox="0.00 0.00 355.00 139.50" xmlns="http://www.w3.org/2000/svg" xmlns:xlink="http://www.w3.org/1999/xlink">
<g id="graph0" class="graph" transform="scale(1 1) rotate(0) translate(4 135.5)">
<title>Harlinn::Windows::DML::GEMMOperatorDesc</title>
<!-- Node1 -->
<g id="Node000001" class="node">
<title>Node1</title>
<g id="a_Node000001"><a xlink:title=" ">
<polygon fill="#999999" stroke="#666666" points="347,-78 228,-78 228,-48 347,-48 347,-78"/>
<text text-anchor="start" x="236" y="-66" font-family="Helvetica,sans-Serif" font-size="10.00">Harlinn::Windows::DML</text>
<text text-anchor="middle" x="287.5" y="-55" font-family="Helvetica,sans-Serif" font-size="10.00">::GEMMOperatorDesc</text>
</a>
</g>
</g>
<!-- Node2 -->
<g id="Node000002" class="node">
<title>Node2</title>
<g id="a_Node000002"><a xlink:title=" ">
<polygon fill="white" stroke="#666666" points="109,-131.5 10,-131.5 10,-112.5 109,-112.5 109,-131.5"/>
<text text-anchor="middle" x="59.5" y="-119.5" font-family="Helvetica,sans-Serif" font-size="10.00">BaseOperatorDesc</text>
</a>
</g>
</g>
<!-- Node2&#45;&gt;Node1 -->
<g id="edge1_Node000001_Node000002" class="edge">
<title>Node2&#45;&gt;Node1</title>
<g id="a_edge1_Node000001_Node000002"><a xlink:title=" ">
<path fill="none" stroke="#63b8ff" d="M120.54,-122.33C148.33,-120.99 181.44,-117.23 210,-108 230.38,-101.41 251.18,-88.71 265.94,-78.48"/>
<polygon fill="#63b8ff" stroke="#63b8ff" points="120.75,-118.82 110.89,-122.7 121.02,-125.82 120.75,-118.82"/>
</a>
</g>
</g>
<!-- Node3 -->
<g id="Node000003" class="node">
<title>Node3</title>
<g id="a_Node000003"><a xlink:href="struct_harlinn_1_1_windows_1_1_d_m_l_1_1_tensor_desc.html" target="_top" xlink:title=" ">
<polygon fill="white" stroke="#666666" points="119,-78 0,-78 0,-48 119,-48 119,-78"/>
<text text-anchor="start" x="8" y="-66" font-family="Helvetica,sans-Serif" font-size="10.00">Harlinn::Windows::DML</text>
<text text-anchor="middle" x="59.5" y="-55" font-family="Helvetica,sans-Serif" font-size="10.00">::TensorDesc</text>
</a>
</g>
</g>
<!-- Node3&#45;&gt;Node1 -->
<g id="edge2_Node000001_Node000003" class="edge">
<title>Node3&#45;&gt;Node1</title>
<g id="a_edge2_Node000001_Node000003"><a xlink:title=" ">
<path fill="none" stroke="#9a32cd" stroke-dasharray="5,2" d="M130.51,-63C161.64,-63 197.9,-63 227.61,-63"/>
<polygon fill="#9a32cd" stroke="#9a32cd" points="130.8,-59.5 120.8,-63 130.8,-66.5 130.8,-59.5"/>
</a>
</g>
<text text-anchor="middle" x="173.5" y="-99" font-family="Helvetica,sans-Serif" font-size="10.00" fill="grey"> ATensor</text>
<text text-anchor="middle" x="173.5" y="-88" font-family="Helvetica,sans-Serif" font-size="10.00" fill="grey">BTensor</text>
<text text-anchor="middle" x="173.5" y="-77" font-family="Helvetica,sans-Serif" font-size="10.00" fill="grey">CTensor</text>
<text text-anchor="middle" x="173.5" y="-66" font-family="Helvetica,sans-Serif" font-size="10.00" fill="grey">OutputTensor</text>
</g>
<!-- Node4 -->
<g id="Node000004" class="node">
<title>Node4</title>
<g id="a_Node000004"><a xlink:href="struct_harlinn_1_1_windows_1_1_d_m_l_1_1_operator_desc.html" target="_top" xlink:title=" ">
<polygon fill="white" stroke="#666666" points="119,-30 0,-30 0,0 119,0 119,-30"/>
<text text-anchor="start" x="8" y="-18" font-family="Helvetica,sans-Serif" font-size="10.00">Harlinn::Windows::DML</text>
<text text-anchor="middle" x="59.5" y="-7" font-family="Helvetica,sans-Serif" font-size="10.00">::OperatorDesc</text>
</a>
</g>
</g>
<!-- Node4&#45;&gt;Node1 -->
<g id="edge3_Node000001_Node000004" class="edge">
<title>Node4&#45;&gt;Node1</title>
<g id="a_edge3_Node000001_Node000004"><a xlink:title=" ">
<path fill="none" stroke="#9a32cd" stroke-dasharray="5,2" d="M130.51,-29.87C161.64,-36.48 197.9,-44.18 227.61,-50.49"/>
<polygon fill="#9a32cd" stroke="#9a32cd" points="131.28,-26.45 120.77,-27.8 129.82,-33.3 131.28,-26.45"/>
</a>
</g>
<text text-anchor="middle" x="173.5" y="-50" font-family="Helvetica,sans-Serif" font-size="10.00" fill="grey"> FusedActivation</text>
</g>
</g>
</svg>
