<?xml version="1.0" encoding="UTF-8" standalone="no"?>
<!DOCTYPE svg PUBLIC "-//W3C//DTD SVG 1.1//EN"
 "http://www.w3.org/Graphics/SVG/1.1/DTD/svg11.dtd">
<!-- Generated by graphviz version 7.0.1 (20221109.1506)
 -->
<!-- Title: Harlinn::Common::Core::CurrentThread::Internal::ThreadEnvironmentBlock Pages: 1 -->
<svg width="196pt" height="137pt"
 viewBox="0.00 0.00 195.50 137.00" xmlns="http://www.w3.org/2000/svg" xmlns:xlink="http://www.w3.org/1999/xlink">
<g id="graph0" class="graph" transform="scale(1 1) rotate(0) translate(4 133)">
<title>Harlinn::Common::Core::CurrentThread::Internal::ThreadEnvironmentBlock</title>
<!-- Node1 -->
<g id="Node000001" class="node">
<title>Node1</title>
<g id="a_Node000001"><a xlink:title=" ">
<polygon fill="#999999" stroke="#666666" points="140,-41 10,-41 10,0 140,0 140,-41"/>
<text text-anchor="start" x="18" y="-29" font-family="Helvetica,sans-Serif" font-size="10.00">Harlinn::Common::Core</text>
<text text-anchor="start" x="18" y="-18" font-family="Helvetica,sans-Serif" font-size="10.00">::CurrentThread::Internal</text>
<text text-anchor="middle" x="75" y="-7" font-family="Helvetica,sans-Serif" font-size="10.00">::ThreadEnvironmentBlock</text>
</a>
</g>
</g>
<!-- Node2 -->
<g id="Node000002" class="node">
<title>Node2</title>
<g id="a_Node000002"><a xlink:title=" ">
<polygon fill="white" stroke="#666666" points="48,-118 0,-118 0,-99 48,-99 48,-118"/>
<text text-anchor="middle" x="24" y="-106" font-family="Helvetica,sans-Serif" font-size="10.00">NT_TIB</text>
</a>
</g>
</g>
<!-- Node2&#45;&gt;Node1 -->
<g id="edge1_Node000001_Node000002" class="edge">
<title>Node2&#45;&gt;Node1</title>
<g id="a_edge1_Node000001_Node000002"><a xlink:title=" ">
<path fill="none" stroke="#63b8ff" d="M34.91,-89.1C43.21,-75.1 54.63,-55.86 63.15,-41.48"/>
<polygon fill="#63b8ff" stroke="#63b8ff" points="32.13,-86.93 30.04,-97.32 38.15,-90.5 32.13,-86.93"/>
</a>
</g>
</g>
<!-- Node3 -->
<g id="Node000003" class="node">
<title>Node3</title>
<g id="a_Node000003"><a xlink:href="struct_harlinn_1_1_common_1_1_core_1_1_current_thread_1_1_internal_1_1_client_id.html" target="_top" xlink:title=" ">
<polygon fill="white" stroke="#666666" points="187.5,-129 66.5,-129 66.5,-88 187.5,-88 187.5,-129"/>
<text text-anchor="start" x="74.5" y="-117" font-family="Helvetica,sans-Serif" font-size="10.00">Harlinn::Common::Core</text>
<text text-anchor="start" x="74.5" y="-106" font-family="Helvetica,sans-Serif" font-size="10.00">::CurrentThread::Internal</text>
<text text-anchor="middle" x="127" y="-95" font-family="Helvetica,sans-Serif" font-size="10.00">::ClientId</text>
</a>
</g>
</g>
<!-- Node3&#45;&gt;Node1 -->
<g id="edge2_Node000001_Node000003" class="edge">
<title>Node3&#45;&gt;Node1</title>
<g id="a_edge2_Node000001_Node000003"><a xlink:title=" ">
<path fill="none" stroke="#9a32cd" stroke-dasharray="5,2" d="M109.09,-77.88C101.79,-65.81 93.55,-52.17 87,-41.34"/>
<polygon fill="#9a32cd" stroke="#9a32cd" points="105.99,-79.51 114.16,-86.26 111.98,-75.89 105.99,-79.51"/>
</a>
</g>
<text text-anchor="middle" x="122" y="-62" font-family="Helvetica,sans-Serif" font-size="10.00" fill="grey"> ClientId</text>
</g>
</g>
</svg>
