<?xml version="1.0" encoding="UTF-8" standalone="no"?>
<!DOCTYPE svg PUBLIC "-//W3C//DTD SVG 1.1//EN"
 "http://www.w3.org/Graphics/SVG/1.1/DTD/svg11.dtd">
<!-- Generated by graphviz version 7.0.1 (20221109.1506)
 -->
<!-- Title: Harlinn::Windows::Graphics::D3D12::RenderPassDepthStencilDesc Pages: 1 -->
<svg width="1270pt" height="134pt"
 viewBox="0.00 0.00 1270.00 134.00" xmlns="http://www.w3.org/2000/svg" xmlns:xlink="http://www.w3.org/1999/xlink">
<g id="graph0" class="graph" transform="scale(1 1) rotate(0) translate(4 130)">
<title>Harlinn::Windows::Graphics::D3D12::RenderPassDepthStencilDesc</title>
<!-- Node1 -->
<g id="Node000001" class="node">
<title>Node1</title>
<g id="a_Node000001"><a xlink:title=" ">
<polygon fill="#999999" stroke="#666666" points="1262,-78 1073,-78 1073,-48 1262,-48 1262,-78"/>
<text text-anchor="start" x="1081" y="-66" font-family="Helvetica,sans-Serif" font-size="10.00">Harlinn::Windows::Graphics</text>
<text text-anchor="middle" x="1167.5" y="-55" font-family="Helvetica,sans-Serif" font-size="10.00">::D3D12::RenderPassDepthStencilDesc</text>
</a>
</g>
</g>
<!-- Node2 -->
<g id="Node000002" class="node">
<title>Node2</title>
<g id="a_Node000002"><a xlink:href="struct_harlinn_1_1_windows_1_1_graphics_1_1_d3_d12_1_1_c_p_u_descriptor_handle.html" target="_top" xlink:title=" ">
<polygon fill="white" stroke="#666666" points="913.5,-126 761.5,-126 761.5,-96 913.5,-96 913.5,-126"/>
<text text-anchor="start" x="769.5" y="-114" font-family="Helvetica,sans-Serif" font-size="10.00">Harlinn::Windows::Graphics</text>
<text text-anchor="middle" x="837.5" y="-103" font-family="Helvetica,sans-Serif" font-size="10.00">::D3D12::CPUDescriptorHandle</text>
</a>
</g>
</g>
<!-- Node2&#45;&gt;Node1 -->
<g id="edge1_Node000001_Node000002" class="edge">
<title>Node2&#45;&gt;Node1</title>
<g id="a_edge1_Node000001_Node000002"><a xlink:title=" ">
<path fill="none" stroke="#9a32cd" stroke-dasharray="5,2" d="M925.21,-104.74C964.93,-101.22 1012.51,-96.08 1055,-89 1071.86,-86.19 1089.98,-82.33 1106.6,-78.45"/>
<polygon fill="#9a32cd" stroke="#9a32cd" points="925.13,-101.23 915.47,-105.58 925.73,-108.21 925.13,-101.23"/>
</a>
</g>
<text text-anchor="middle" x="1002" y="-104" font-family="Helvetica,sans-Serif" font-size="10.00" fill="grey"> cpuDescriptor</text>
</g>
<!-- Node3 -->
<g id="Node000003" class="node">
<title>Node3</title>
<g id="a_Node000003"><a xlink:href="struct_harlinn_1_1_windows_1_1_graphics_1_1_d3_d12_1_1_render_pass_beginning_access.html" target="_top" xlink:title=" ">
<polygon fill="white" stroke="#666666" points="931,-78 744,-78 744,-48 931,-48 931,-78"/>
<text text-anchor="start" x="752" y="-66" font-family="Helvetica,sans-Serif" font-size="10.00">Harlinn::Windows::Graphics</text>
<text text-anchor="middle" x="837.5" y="-55" font-family="Helvetica,sans-Serif" font-size="10.00">::D3D12::RenderPassBeginningAccess</text>
</a>
</g>
</g>
<!-- Node3&#45;&gt;Node1 -->
<g id="edge2_Node000001_Node000003" class="edge">
<title>Node3&#45;&gt;Node1</title>
<g id="a_edge2_Node000001_Node000003"><a xlink:title=" ">
<path fill="none" stroke="#9a32cd" stroke-dasharray="5,2" d="M942.49,-63C984.23,-63 1031.97,-63 1072.63,-63"/>
<polygon fill="#9a32cd" stroke="#9a32cd" points="942.69,-59.5 932.69,-63 942.69,-66.5 942.69,-59.5"/>
</a>
</g>
<text text-anchor="middle" x="1002" y="-77" font-family="Helvetica,sans-Serif" font-size="10.00" fill="grey"> DepthBeginningAccess</text>
<text text-anchor="middle" x="1002" y="-66" font-family="Helvetica,sans-Serif" font-size="10.00" fill="grey">StencilBeginningAccess</text>
</g>
<!-- Node4 -->
<g id="Node000004" class="node">
<title>Node4</title>
<g id="a_Node000004"><a xlink:href="struct_harlinn_1_1_windows_1_1_graphics_1_1_d3_d12_1_1_render_pass_beginning_access_clear_parameters.html" target="_top" xlink:title=" ">
<polygon fill="white" stroke="#666666" points="644,-119.5 457,-119.5 457,-78.5 644,-78.5 644,-119.5"/>
<text text-anchor="start" x="465" y="-107.5" font-family="Helvetica,sans-Serif" font-size="10.00">Harlinn::Windows::Graphics</text>
<text text-anchor="start" x="465" y="-96.5" font-family="Helvetica,sans-Serif" font-size="10.00">::D3D12::RenderPassBeginningAccess</text>
<text text-anchor="middle" x="550.5" y="-85.5" font-family="Helvetica,sans-Serif" font-size="10.00">ClearParameters</text>
</a>
</g>
</g>
<!-- Node4&#45;&gt;Node3 -->
<g id="edge3_Node000003_Node000004" class="edge">
<title>Node4&#45;&gt;Node3</title>
<g id="a_edge3_Node000003_Node000004"><a xlink:title=" ">
<path fill="none" stroke="#9a32cd" stroke-dasharray="5,2" d="M655.76,-85.83C684.56,-82.19 715.6,-78.27 743.7,-74.72"/>
<polygon fill="#9a32cd" stroke="#9a32cd" points="655.41,-82.35 645.93,-87.07 656.29,-89.29 655.41,-82.35"/>
</a>
</g>
<text text-anchor="middle" x="694" y="-87" font-family="Helvetica,sans-Serif" font-size="10.00" fill="grey"> Clear</text>
</g>
<!-- Node5 -->
<g id="Node000005" class="node">
<title>Node5</title>
<g id="a_Node000005"><a xlink:href="struct_harlinn_1_1_windows_1_1_graphics_1_1_d3_d12_1_1_clear_value.html" target="_top" xlink:title=" ">
<polygon fill="white" stroke="#666666" points="370,-114 233,-114 233,-84 370,-84 370,-114"/>
<text text-anchor="start" x="241" y="-102" font-family="Helvetica,sans-Serif" font-size="10.00">Harlinn::Windows::Graphics</text>
<text text-anchor="middle" x="301.5" y="-91" font-family="Helvetica,sans-Serif" font-size="10.00">::D3D12::ClearValue</text>
</a>
</g>
</g>
<!-- Node5&#45;&gt;Node4 -->
<g id="edge4_Node000004_Node000005" class="edge">
<title>Node5&#45;&gt;Node4</title>
<g id="a_edge4_Node000004_Node000005"><a xlink:title=" ">
<path fill="none" stroke="#9a32cd" stroke-dasharray="5,2" d="M381.83,-99C405.73,-99 432.17,-99 456.85,-99"/>
<polygon fill="#9a32cd" stroke="#9a32cd" points="381.83,-95.5 371.83,-99 381.83,-102.5 381.83,-95.5"/>
</a>
</g>
<text text-anchor="middle" x="413.5" y="-102" font-family="Helvetica,sans-Serif" font-size="10.00" fill="grey"> ClearValue</text>
</g>
<!-- Node6 -->
<g id="Node000006" class="node">
<title>Node6</title>
<g id="a_Node000006"><a xlink:href="struct_harlinn_1_1_windows_1_1_graphics_1_1_d3_d12_1_1_depth_stencil_value.html" target="_top" xlink:title=" ">
<polygon fill="white" stroke="#666666" points="138,-114 0,-114 0,-84 138,-84 138,-114"/>
<text text-anchor="start" x="8" y="-102" font-family="Helvetica,sans-Serif" font-size="10.00">Harlinn::Windows::Graphics</text>
<text text-anchor="middle" x="69" y="-91" font-family="Helvetica,sans-Serif" font-size="10.00">::D3D12::DepthStencilValue</text>
</a>
</g>
</g>
<!-- Node6&#45;&gt;Node5 -->
<g id="edge5_Node000005_Node000006" class="edge">
<title>Node6&#45;&gt;Node5</title>
<g id="a_edge5_Node000005_Node000006"><a xlink:title=" ">
<path fill="none" stroke="#9a32cd" stroke-dasharray="5,2" d="M149.64,-99C176.75,-99 206.77,-99 232.85,-99"/>
<polygon fill="#9a32cd" stroke="#9a32cd" points="149.74,-95.5 139.74,-99 149.74,-102.5 149.74,-95.5"/>
</a>
</g>
<text text-anchor="middle" x="185.5" y="-102" font-family="Helvetica,sans-Serif" font-size="10.00" fill="grey"> DepthStencil</text>
</g>
<!-- Node7 -->
<g id="Node000007" class="node">
<title>Node7</title>
<g id="a_Node000007"><a xlink:href="struct_harlinn_1_1_windows_1_1_graphics_1_1_d3_d12_1_1_render_pass_beginning_access_preserve_local_parameters.html" target="_top" xlink:title=" ">
<polygon fill="white" stroke="#666666" points="644,-60.5 457,-60.5 457,-19.5 644,-19.5 644,-60.5"/>
<text text-anchor="start" x="465" y="-48.5" font-family="Helvetica,sans-Serif" font-size="10.00">Harlinn::Windows::Graphics</text>
<text text-anchor="start" x="465" y="-37.5" font-family="Helvetica,sans-Serif" font-size="10.00">::D3D12::RenderPassBeginningAccess</text>
<text text-anchor="middle" x="550.5" y="-26.5" font-family="Helvetica,sans-Serif" font-size="10.00">PreserveLocalParameters</text>
</a>
</g>
</g>
<!-- Node7&#45;&gt;Node3 -->
<g id="edge6_Node000003_Node000007" class="edge">
<title>Node7&#45;&gt;Node3</title>
<g id="a_edge6_Node000003_Node000007"><a xlink:title=" ">
<path fill="none" stroke="#9a32cd" stroke-dasharray="5,2" d="M655.61,-47.48C678.79,-49.23 703.23,-51.12 726,-53 731.76,-53.48 737.69,-53.98 743.66,-54.49"/>
<polygon fill="#9a32cd" stroke="#9a32cd" points="656.09,-44.01 645.86,-46.75 655.57,-50.99 656.09,-44.01"/>
</a>
</g>
<text text-anchor="middle" x="694" y="-56" font-family="Helvetica,sans-Serif" font-size="10.00" fill="grey"> PreserveLocal</text>
</g>
<!-- Node8 -->
<g id="Node000008" class="node">
<title>Node8</title>
<g id="a_Node000008"><a xlink:href="struct_harlinn_1_1_windows_1_1_graphics_1_1_d3_d12_1_1_render_pass_ending_access.html" target="_top" xlink:title=" ">
<polygon fill="white" stroke="#666666" points="924.5,-30 750.5,-30 750.5,0 924.5,0 924.5,-30"/>
<text text-anchor="start" x="758.5" y="-18" font-family="Helvetica,sans-Serif" font-size="10.00">Harlinn::Windows::Graphics</text>
<text text-anchor="middle" x="837.5" y="-7" font-family="Helvetica,sans-Serif" font-size="10.00">::D3D12::RenderPassEndingAccess</text>
</a>
</g>
</g>
<!-- Node8&#45;&gt;Node1 -->
<g id="edge7_Node000001_Node000008" class="edge">
<title>Node8&#45;&gt;Node1</title>
<g id="a_edge7_Node000001_Node000008"><a xlink:title=" ">
<path fill="none" stroke="#9a32cd" stroke-dasharray="5,2" d="M936.35,-22.27C973.63,-25.74 1016.41,-30.57 1055,-37 1071.86,-39.81 1089.98,-43.67 1106.6,-47.55"/>
<polygon fill="#9a32cd" stroke="#9a32cd" points="936.75,-18.79 926.47,-21.37 936.11,-25.76 936.75,-18.79"/>
</a>
</g>
<text text-anchor="middle" x="1002" y="-51" font-family="Helvetica,sans-Serif" font-size="10.00" fill="grey"> DepthEndingAccess</text>
<text text-anchor="middle" x="1002" y="-40" font-family="Helvetica,sans-Serif" font-size="10.00" fill="grey">StencilEndingAccess</text>
</g>
</g>
</svg>
