<?xml version="1.0" encoding="UTF-8" standalone="no"?>
<!DOCTYPE svg PUBLIC "-//W3C//DTD SVG 1.1//EN"
 "http://www.w3.org/Graphics/SVG/1.1/DTD/svg11.dtd">
<!-- Generated by graphviz version 7.0.1 (20221109.1506)
 -->
<!-- Title: Harlinn::Windows::DML::BindingTableDesc Pages: 1 -->
<svg width="415pt" height="86pt"
 viewBox="0.00 0.00 415.00 86.00" xmlns="http://www.w3.org/2000/svg" xmlns:xlink="http://www.w3.org/1999/xlink">
<g id="graph0" class="graph" transform="scale(1 1) rotate(0) translate(4 82)">
<title>Harlinn::Windows::DML::BindingTableDesc</title>
<!-- Node1 -->
<g id="Node000001" class="node">
<title>Node1</title>
<g id="a_Node000001"><a xlink:title=" ">
<polygon fill="#999999" stroke="#666666" points="407,-54 288,-54 288,-24 407,-24 407,-54"/>
<text text-anchor="start" x="296" y="-42" font-family="Helvetica,sans-Serif" font-size="10.00">Harlinn::Windows::DML</text>
<text text-anchor="middle" x="347.5" y="-31" font-family="Helvetica,sans-Serif" font-size="10.00">::BindingTableDesc</text>
</a>
</g>
</g>
<!-- Node2 -->
<g id="Node000002" class="node">
<title>Node2</title>
<g id="a_Node000002"><a xlink:href="struct_harlinn_1_1_windows_1_1_graphics_1_1_d3_d12_1_1_c_p_u_descriptor_handle.html" target="_top" xlink:title=" ">
<polygon fill="white" stroke="#666666" points="152.5,-78 0.5,-78 0.5,-48 152.5,-48 152.5,-78"/>
<text text-anchor="start" x="8.5" y="-66" font-family="Helvetica,sans-Serif" font-size="10.00">Harlinn::Windows::Graphics</text>
<text text-anchor="middle" x="76.5" y="-55" font-family="Helvetica,sans-Serif" font-size="10.00">::D3D12::CPUDescriptorHandle</text>
</a>
</g>
</g>
<!-- Node2&#45;&gt;Node1 -->
<g id="edge1_Node000001_Node000002" class="edge">
<title>Node2&#45;&gt;Node1</title>
<g id="a_edge1_Node000001_Node000002"><a xlink:title=" ">
<path fill="none" stroke="#9a32cd" stroke-dasharray="5,2" d="M164.02,-55.28C204.5,-51.67 251.65,-47.46 287.88,-44.23"/>
<polygon fill="#9a32cd" stroke="#9a32cd" points="163.95,-51.77 154.3,-56.15 164.57,-58.75 163.95,-51.77"/>
</a>
</g>
<text text-anchor="middle" x="220.5" y="-57" font-family="Helvetica,sans-Serif" font-size="10.00" fill="grey"> CPUDescriptorHandle</text>
</g>
<!-- Node3 -->
<g id="Node000003" class="node">
<title>Node3</title>
<g id="a_Node000003"><a xlink:href="struct_harlinn_1_1_windows_1_1_graphics_1_1_d3_d12_1_1_g_p_u_descriptor_handle.html" target="_top" xlink:title=" ">
<polygon fill="white" stroke="#666666" points="153,-30 0,-30 0,0 153,0 153,-30"/>
<text text-anchor="start" x="8" y="-18" font-family="Helvetica,sans-Serif" font-size="10.00">Harlinn::Windows::Graphics</text>
<text text-anchor="middle" x="76.5" y="-7" font-family="Helvetica,sans-Serif" font-size="10.00">::D3D12::GPUDescriptorHandle</text>
</a>
</g>
</g>
<!-- Node3&#45;&gt;Node1 -->
<g id="edge2_Node000001_Node000003" class="edge">
<title>Node3&#45;&gt;Node1</title>
<g id="a_edge2_Node000001_Node000003"><a xlink:title=" ">
<path fill="none" stroke="#9a32cd" stroke-dasharray="5,2" d="M164.86,-21.87C197.83,-24.56 235.65,-27.78 270,-31 275.72,-31.54 281.67,-32.12 287.62,-32.72"/>
<polygon fill="#9a32cd" stroke="#9a32cd" points="165.18,-18.38 154.93,-21.06 164.61,-25.36 165.18,-18.38"/>
</a>
</g>
<text text-anchor="middle" x="220.5" y="-34" font-family="Helvetica,sans-Serif" font-size="10.00" fill="grey"> GPUDescriptorHandle</text>
</g>
</g>
</svg>
