<?xml version="1.0" encoding="UTF-8" standalone="no"?>
<!DOCTYPE svg PUBLIC "-//W3C//DTD SVG 1.1//EN"
 "http://www.w3.org/Graphics/SVG/1.1/DTD/svg11.dtd">
<!-- Generated by graphviz version 7.0.1 (20221109.1506)
 -->
<!-- Title: Harlinn::Common::Core::Types::Internal::TypeListTypeTraits&lt; RT, TypeList&lt; T... &gt; &gt; Pages: 1 -->
<svg width="823pt" height="82pt"
 viewBox="0.00 0.00 823.00 81.50" xmlns="http://www.w3.org/2000/svg" xmlns:xlink="http://www.w3.org/1999/xlink">
<g id="graph0" class="graph" transform="scale(1 1) rotate(0) translate(4 77.5)">
<title>Harlinn::Common::Core::Types::Internal::TypeListTypeTraits&lt; RT, TypeList&lt; T... &gt; &gt;</title>
<!-- Node1 -->
<g id="Node000001" class="node">
<title>Node1</title>
<g id="a_Node000001"><a xlink:title=" ">
<polygon fill="#999999" stroke="#666666" points="815,-73.5 686,-73.5 686,-21.5 815,-21.5 815,-73.5"/>
<text text-anchor="start" x="694" y="-61.5" font-family="Helvetica,sans-Serif" font-size="10.00">Harlinn::Common::Core</text>
<text text-anchor="start" x="694" y="-50.5" font-family="Helvetica,sans-Serif" font-size="10.00">::Types::Internal::TypeList</text>
<text text-anchor="start" x="694" y="-39.5" font-family="Helvetica,sans-Serif" font-size="10.00">TypeTraits&lt; RT, TypeList</text>
<text text-anchor="middle" x="750.5" y="-28.5" font-family="Helvetica,sans-Serif" font-size="10.00">&lt; T... &gt; &gt;</text>
</a>
</g>
</g>
<!-- Node2 -->
<g id="Node000002" class="node">
<title>Node2</title>
<g id="a_Node000002"><a xlink:href="struct_harlinn_1_1_common_1_1_core_1_1_types_1_1_internal_1_1_type_list_type_traits_base.xhtml" target="_top" xlink:title=" ">
<polygon fill="white" stroke="#666666" points="649,-73.5 501,-73.5 501,-21.5 649,-21.5 649,-73.5"/>
<text text-anchor="start" x="509" y="-61.5" font-family="Helvetica,sans-Serif" font-size="10.00">Harlinn::Common::Core</text>
<text text-anchor="start" x="509" y="-50.5" font-family="Helvetica,sans-Serif" font-size="10.00">::Types::Internal::TypeList</text>
<text text-anchor="start" x="509" y="-39.5" font-family="Helvetica,sans-Serif" font-size="10.00">TypeTraitsBase&lt; RT, TypeList</text>
<text text-anchor="middle" x="575" y="-28.5" font-family="Helvetica,sans-Serif" font-size="10.00">&lt; T... &gt;, T... &gt;</text>
</a>
</g>
</g>
<!-- Node2&#45;&gt;Node1 -->
<g id="edge1_Node000001_Node000002" class="edge">
<title>Node2&#45;&gt;Node1</title>
<g id="a_edge1_Node000001_Node000002"><a xlink:title=" ">
<path fill="none" stroke="#63b8ff" d="M660.67,-47.5C669.03,-47.5 677.41,-47.5 685.5,-47.5"/>
<polygon fill="#63b8ff" stroke="#63b8ff" points="660.84,-44 650.84,-47.5 660.84,-51 660.84,-44"/>
</a>
</g>
</g>
<!-- Node3 -->
<g id="Node000003" class="node">
<title>Node3</title>
<g id="a_Node000003"><a xlink:href="struct_harlinn_1_1_common_1_1_core_1_1_types_1_1_internal_1_1_type_traits_base.xhtml" target="_top" xlink:title=" ">
<polygon fill="white" stroke="#666666" points="137,-65 0,-65 0,-24 137,-24 137,-65"/>
<text text-anchor="start" x="8" y="-53" font-family="Helvetica,sans-Serif" font-size="10.00">Harlinn::Common::Core</text>
<text text-anchor="start" x="8" y="-42" font-family="Helvetica,sans-Serif" font-size="10.00">::Types::Internal::TypeTraits</text>
<text text-anchor="middle" x="68.5" y="-31" font-family="Helvetica,sans-Serif" font-size="10.00">Base&lt; T, RT &gt;</text>
</a>
</g>
</g>
<!-- Node3&#45;&gt;Node2 -->
<g id="edge2_Node000002_Node000003" class="edge">
<title>Node3&#45;&gt;Node2</title>
<g id="a_edge2_Node000002_Node000003"><a xlink:title=" ">
<path fill="none" stroke="#63b8ff" d="M148.49,-48.45C157.1,-48.83 165.73,-49.19 174,-49.5 311.26,-54.67 345.77,-61.52 483,-55.5 488.7,-55.25 494.6,-54.91 500.53,-54.52"/>
<polygon fill="#63b8ff" stroke="#63b8ff" points="148.89,-44.96 138.74,-48.01 148.57,-51.96 148.89,-44.96"/>
</a>
</g>
</g>
<!-- Node4 -->
<g id="Node000004" class="node">
<title>Node4</title>
<g id="a_Node000004"><a xlink:href="struct_harlinn_1_1_common_1_1_core_1_1_types_1_1_internal_1_1_type_list_type_traits_base.xhtml" target="_top" xlink:title=" ">
<polygon fill="white" stroke="#666666" points="374,-41 174,-41 174,0 374,0 374,-41"/>
<text text-anchor="start" x="182" y="-29" font-family="Helvetica,sans-Serif" font-size="10.00">Harlinn::Common::Core</text>
<text text-anchor="start" x="182" y="-18" font-family="Helvetica,sans-Serif" font-size="10.00">::Types::Internal::TypeList</text>
<text text-anchor="middle" x="274" y="-7" font-family="Helvetica,sans-Serif" font-size="10.00">TypeTraitsBase&lt; RT, T, TypeListTypes_ &gt;</text>
</a>
</g>
</g>
<!-- Node3&#45;&gt;Node4 -->
<g id="edge4_Node000004_Node000003" class="edge">
<title>Node3&#45;&gt;Node4</title>
<g id="a_edge4_Node000004_Node000003"><a xlink:title=" ">
<path fill="none" stroke="#63b8ff" d="M148.67,-35.16C156.85,-34.2 165.23,-33.21 173.6,-32.22"/>
<polygon fill="#63b8ff" stroke="#63b8ff" points="148.29,-31.68 138.77,-36.33 149.11,-38.64 148.29,-31.68"/>
</a>
</g>
</g>
<!-- Node4&#45;&gt;Node2 -->
<g id="edge3_Node000002_Node000004" class="edge">
<title>Node4&#45;&gt;Node2</title>
<g id="a_edge3_Node000002_Node000004"><a xlink:title=" ">
<path fill="none" stroke="orange" stroke-dasharray="5,2" d="M385.8,-25.57C417.26,-27.51 451.52,-30.1 483,-33.5 488.72,-34.12 494.63,-34.84 500.57,-35.62"/>
<polygon fill="orange" stroke="orange" points="386.05,-22.07 375.85,-24.97 385.63,-29.06 386.05,-22.07"/>
</a>
</g>
<text text-anchor="start" x="392" y="-47.5" font-family="Helvetica,sans-Serif" font-size="10.00" fill="grey"> &lt; RT, TypeList&lt; T...</text>
<text text-anchor="middle" x="437.5" y="-36.5" font-family="Helvetica,sans-Serif" font-size="10.00" fill="grey"> &gt;, T... &gt;</text>
</g>
</g>
</svg>
