<?xml version="1.0" encoding="UTF-8" standalone="no"?>
<!DOCTYPE svg PUBLIC "-//W3C//DTD SVG 1.1//EN"
 "http://www.w3.org/Graphics/SVG/1.1/DTD/svg11.dtd">
<!-- Generated by graphviz version 7.0.1 (20221109.1506)
 -->
<!-- Title: Harlinn::Windows::Graphics::D3D12::FeatureDataQueryMetaCommand Pages: 1 -->
<svg width="211pt" height="248pt"
 viewBox="0.00 0.00 211.00 248.00" xmlns="http://www.w3.org/2000/svg" xmlns:xlink="http://www.w3.org/1999/xlink">
<g id="graph0" class="graph" transform="scale(1 1) rotate(0) translate(4 244)">
<title>Harlinn::Windows::Graphics::D3D12::FeatureDataQueryMetaCommand</title>
<!-- Node1 -->
<g id="Node000001" class="node">
<title>Node1</title>
<g id="a_Node000001"><a xlink:title=" ">
<polygon fill="#999999" stroke="#666666" points="203,-30 0,-30 0,0 203,0 203,-30"/>
<text text-anchor="start" x="8" y="-18" font-family="Helvetica,sans-Serif" font-size="10.00">Harlinn::Windows::Graphics</text>
<text text-anchor="middle" x="101.5" y="-7" font-family="Helvetica,sans-Serif" font-size="10.00">::D3D12::FeatureDataQueryMetaCommand</text>
</a>
</g>
</g>
<!-- Node2 -->
<g id="Node000002" class="node">
<title>Node2</title>
<g id="a_Node000002"><a xlink:href="class_harlinn_1_1_common_1_1_core_1_1_guid.html" target="_top" xlink:title="Represents a globally unique identifier (GUID).">
<polygon fill="white" stroke="#666666" points="160.5,-107 42.5,-107 42.5,-77 160.5,-77 160.5,-107"/>
<text text-anchor="start" x="50.5" y="-95" font-family="Helvetica,sans-Serif" font-size="10.00">Harlinn::Common::Core</text>
<text text-anchor="middle" x="101.5" y="-84" font-family="Helvetica,sans-Serif" font-size="10.00">::Guid</text>
</a>
</g>
</g>
<!-- Node2&#45;&gt;Node1 -->
<g id="edge1_Node000001_Node000002" class="edge">
<title>Node2&#45;&gt;Node1</title>
<g id="a_edge1_Node000001_Node000002"><a xlink:title=" ">
<path fill="none" stroke="#9a32cd" stroke-dasharray="5,2" d="M101.5,-65.23C101.5,-53.58 101.5,-40.26 101.5,-30.42"/>
<polygon fill="#9a32cd" stroke="#9a32cd" points="98,-65.03 101.5,-75.03 105,-65.03 98,-65.03"/>
</a>
</g>
<text text-anchor="middle" x="129" y="-51" font-family="Helvetica,sans-Serif" font-size="10.00" fill="grey"> CommandId</text>
</g>
<!-- Node3 -->
<g id="Node000003" class="node">
<title>Node3</title>
<g id="a_Node000003"><a xlink:href="struct_harlinn_1_1_common_1_1_core_1_1_guid_1_1_data_t.html" target="_top" xlink:title=" ">
<polygon fill="white" stroke="#666666" points="160.5,-184 42.5,-184 42.5,-154 160.5,-154 160.5,-184"/>
<text text-anchor="start" x="50.5" y="-172" font-family="Helvetica,sans-Serif" font-size="10.00">Harlinn::Common::Core</text>
<text text-anchor="middle" x="101.5" y="-161" font-family="Helvetica,sans-Serif" font-size="10.00">::Guid::DataT</text>
</a>
</g>
</g>
<!-- Node3&#45;&gt;Node2 -->
<g id="edge2_Node000002_Node000003" class="edge">
<title>Node3&#45;&gt;Node2</title>
<g id="a_edge2_Node000002_Node000003"><a xlink:title=" ">
<path fill="none" stroke="#9a32cd" stroke-dasharray="5,2" d="M101.5,-142.23C101.5,-130.58 101.5,-117.26 101.5,-107.42"/>
<polygon fill="#9a32cd" stroke="#9a32cd" points="98,-142.03 101.5,-152.03 105,-142.03 98,-142.03"/>
</a>
</g>
<text text-anchor="middle" x="115.5" y="-128" font-family="Helvetica,sans-Serif" font-size="10.00" fill="grey"> data_</text>
</g>
<!-- Node4 -->
<g id="Node000004" class="node">
<title>Node4</title>
<g id="a_Node000004"><a xlink:title=" ">
<polygon fill="white" stroke="#666666" points="121.5,-240 81.5,-240 81.5,-221 121.5,-221 121.5,-240"/>
<text text-anchor="middle" x="101.5" y="-228" font-family="Helvetica,sans-Serif" font-size="10.00">GUID</text>
</a>
</g>
</g>
<!-- Node4&#45;&gt;Node3 -->
<g id="edge3_Node000003_Node000004" class="edge">
<title>Node4&#45;&gt;Node3</title>
<g id="a_edge3_Node000003_Node000004"><a xlink:title=" ">
<path fill="none" stroke="#63b8ff" d="M101.5,-209.46C101.5,-201.23 101.5,-191.89 101.5,-184.36"/>
<polygon fill="#63b8ff" stroke="#63b8ff" points="98,-209.21 101.5,-219.21 105,-209.21 98,-209.21"/>
</a>
</g>
</g>
</g>
</svg>
