<?xml version="1.0" encoding="UTF-8" standalone="no"?>
<!DOCTYPE svg PUBLIC "-//W3C//DTD SVG 1.1//EN"
 "http://www.w3.org/Graphics/SVG/1.1/DTD/svg11.dtd">
<!-- Generated by graphviz version 7.0.1 (20221109.1506)
 -->
<!-- Title: Harlinn::Windows::DML::Model::RandomGeneratorOutputs Pages: 1 -->
<svg width="1739pt" height="704pt"
 viewBox="0.00 0.00 1739.00 704.00" xmlns="http://www.w3.org/2000/svg" xmlns:xlink="http://www.w3.org/1999/xlink">
<g id="graph0" class="graph" transform="scale(1 1) rotate(0) translate(4 700)">
<title>Harlinn::Windows::DML::Model::RandomGeneratorOutputs</title>
<!-- Node1 -->
<g id="Node000001" class="node">
<title>Node1</title>
<g id="a_Node000001"><a xlink:title=" ">
<polygon fill="#999999" stroke="#666666" points="1178,-30 1010,-30 1010,0 1178,0 1178,-30"/>
<text text-anchor="start" x="1018" y="-18" font-family="Helvetica,sans-Serif" font-size="10.00">Harlinn::Windows::DML</text>
<text text-anchor="middle" x="1094" y="-7" font-family="Helvetica,sans-Serif" font-size="10.00">::Model::RandomGeneratorOutputs</text>
</a>
</g>
</g>
<!-- Node2 -->
<g id="Node000002" class="node">
<title>Node2</title>
<g id="a_Node000002"><a xlink:href="class_harlinn_1_1_windows_1_1_d_m_l_1_1_model_1_1_expression.html" target="_top" xlink:title=" ">
<polygon fill="white" stroke="#666666" points="848.5,-34 729.5,-34 729.5,-4 848.5,-4 848.5,-34"/>
<text text-anchor="start" x="737.5" y="-22" font-family="Helvetica,sans-Serif" font-size="10.00">Harlinn::Windows::DML</text>
<text text-anchor="middle" x="789" y="-11" font-family="Helvetica,sans-Serif" font-size="10.00">::Model::Expression</text>
</a>
</g>
</g>
<!-- Node2&#45;&gt;Node1 -->
<g id="edge1_Node000001_Node000002" class="edge">
<title>Node2&#45;&gt;Node1</title>
<g id="a_edge1_Node000001_Node000002"><a xlink:title=" ">
<path fill="none" stroke="#9a32cd" stroke-dasharray="5,2" d="M860.12,-18.07C904.75,-17.49 962.78,-16.72 1009.75,-16.1"/>
<polygon fill="#9a32cd" stroke="#9a32cd" points="860.25,-14.57 850.29,-18.2 860.34,-21.57 860.25,-14.57"/>
</a>
</g>
<text text-anchor="middle" x="940" y="-32" font-family="Helvetica,sans-Serif" font-size="10.00" fill="grey"> state</text>
<text text-anchor="middle" x="940" y="-21" font-family="Helvetica,sans-Serif" font-size="10.00" fill="grey">values</text>
</g>
<!-- Node3 -->
<g id="Node000003" class="node">
<title>Node3</title>
<g id="a_Node000003"><a xlink:href="class_harlinn_1_1_windows_1_1_d_m_l_1_1_model_1_1_internal_1_1_node_output.html" target="_top" xlink:title=" ">
<polygon fill="white" stroke="#666666" points="575,-114 431,-114 431,-84 575,-84 575,-114"/>
<text text-anchor="start" x="439" y="-102" font-family="Helvetica,sans-Serif" font-size="10.00">Harlinn::Windows::DML</text>
<text text-anchor="middle" x="503" y="-91" font-family="Helvetica,sans-Serif" font-size="10.00">::Model::Internal::NodeOutput</text>
</a>
</g>
</g>
<!-- Node3&#45;&gt;Node2 -->
<g id="edge2_Node000002_Node000003" class="edge">
<title>Node3&#45;&gt;Node2</title>
<g id="a_edge2_Node000002_Node000003"><a xlink:title=" ">
<path fill="none" stroke="#9a32cd" stroke-dasharray="5,2" d="M530.76,-76.8C547.57,-64.12 570.3,-49.16 593,-41 636.92,-25.22 689.68,-20.03 729.24,-18.61"/>
<polygon fill="#9a32cd" stroke="#9a32cd" points="529.01,-73.72 523.26,-82.62 533.3,-79.25 529.01,-73.72"/>
</a>
</g>
<text text-anchor="middle" x="641.5" y="-44" font-family="Helvetica,sans-Serif" font-size="10.00" fill="grey"> m_nodeOutput</text>
</g>
<!-- Node18 -->
<g id="Node000018" class="node">
<title>Node18</title>
<g id="a_Node000018"><a xlink:title=" ">
<polygon fill="white" stroke="#666666" points="853,-492.5 725,-492.5 725,-451.5 853,-451.5 853,-492.5"/>
<text text-anchor="start" x="733" y="-480.5" font-family="Helvetica,sans-Serif" font-size="10.00">std::vector&lt; Harlinn</text>
<text text-anchor="start" x="733" y="-469.5" font-family="Helvetica,sans-Serif" font-size="10.00">::Windows::DML::Model</text>
<text text-anchor="middle" x="789" y="-458.5" font-family="Helvetica,sans-Serif" font-size="10.00">::Internal::NodeOutput * &gt;</text>
</a>
</g>
</g>
<!-- Node3&#45;&gt;Node18 -->
<g id="edge19_Node000018_Node000003" class="edge">
<title>Node3&#45;&gt;Node18</title>
<g id="a_edge19_Node000018_Node000003"><a xlink:title=" ">
<path fill="none" stroke="#9a32cd" stroke-dasharray="5,2" d="M541.21,-120.66C554.09,-130.12 567.23,-142.42 575,-157 615.5,-233.04 547.8,-276.66 593,-350 602.53,-365.47 697.07,-420.61 750.93,-451.19"/>
<polygon fill="#9a32cd" stroke="#9a32cd" points="543.42,-117.94 533.2,-115.14 539.45,-123.7 543.42,-117.94"/>
</a>
</g>
<text text-anchor="middle" x="641.5" y="-418" font-family="Helvetica,sans-Serif" font-size="10.00" fill="grey"> elements</text>
</g>
<!-- Node22 -->
<g id="Node000022" class="node">
<title>Node22</title>
<g id="a_Node000022"><a xlink:href="struct_harlinn_1_1_windows_1_1_d_m_l_1_1_model_1_1_internal_1_1_reinterpret_node.html" target="_top" xlink:title=" ">
<polygon fill="white" stroke="#666666" points="870,-184 708,-184 708,-154 870,-154 870,-184"/>
<text text-anchor="start" x="716" y="-172" font-family="Helvetica,sans-Serif" font-size="10.00">Harlinn::Windows::DML</text>
<text text-anchor="middle" x="789" y="-161" font-family="Helvetica,sans-Serif" font-size="10.00">::Model::Internal::ReinterpretNode</text>
</a>
</g>
</g>
<!-- Node3&#45;&gt;Node22 -->
<g id="edge26_Node000022_Node000003" class="edge">
<title>Node3&#45;&gt;Node22</title>
<g id="a_edge26_Node000022_Node000003"><a xlink:title=" ">
<path fill="none" stroke="#9a32cd" stroke-dasharray="5,2" d="M586.45,-110.25C627,-116.46 671.15,-124.43 690,-132 698.92,-135.58 699.32,-139.86 708,-144 715.48,-147.57 723.6,-150.8 731.7,-153.64"/>
<polygon fill="#9a32cd" stroke="#9a32cd" points="587.04,-106.8 576.63,-108.77 585.99,-113.72 587.04,-106.8"/>
</a>
</g>
<text text-anchor="middle" x="641.5" y="-135" font-family="Helvetica,sans-Serif" font-size="10.00" fill="grey"> input</text>
</g>
<!-- Node27 -->
<g id="Node000027" class="node">
<title>Node27</title>
<g id="a_Node000027"><a xlink:title=" ">
<polygon fill="white" stroke="#666666" points="849.5,-135.5 728.5,-135.5 728.5,-94.5 849.5,-94.5 849.5,-135.5"/>
<text text-anchor="start" x="736.5" y="-123.5" font-family="Helvetica,sans-Serif" font-size="10.00">std::deque&lt; Harlinn</text>
<text text-anchor="start" x="736.5" y="-112.5" font-family="Helvetica,sans-Serif" font-size="10.00">::Windows::DML::Model</text>
<text text-anchor="middle" x="789" y="-101.5" font-family="Helvetica,sans-Serif" font-size="10.00">::Internal::NodeOutput &gt;</text>
</a>
</g>
</g>
<!-- Node3&#45;&gt;Node27 -->
<g id="edge36_Node000027_Node000003" class="edge">
<title>Node3&#45;&gt;Node27</title>
<g id="a_edge36_Node000027_Node000003"><a xlink:title=" ">
<path fill="none" stroke="#9a32cd" stroke-dasharray="5,2" d="M586.42,-96.85C618.76,-96.69 656.16,-97.33 690,-100 702.35,-100.97 715.51,-102.59 728.04,-104.4"/>
<polygon fill="#9a32cd" stroke="#9a32cd" points="586.69,-93.35 576.72,-96.93 586.74,-100.35 586.69,-93.35"/>
</a>
</g>
<text text-anchor="middle" x="641.5" y="-103" font-family="Helvetica,sans-Serif" font-size="10.00" fill="grey"> elements</text>
</g>
<!-- Node4 -->
<g id="Node000004" class="node">
<title>Node4</title>
<g id="a_Node000004"><a xlink:href="class_harlinn_1_1_windows_1_1_d_m_l_1_1_model_1_1_internal_1_1_graph_builder.html" target="_top" xlink:title=" ">
<polygon fill="white" stroke="#666666" points="1731,-354 1582,-354 1582,-324 1731,-324 1731,-354"/>
<text text-anchor="start" x="1590" y="-342" font-family="Helvetica,sans-Serif" font-size="10.00">Harlinn::Windows::DML</text>
<text text-anchor="middle" x="1656.5" y="-331" font-family="Helvetica,sans-Serif" font-size="10.00">::Model::Internal::GraphBuilder</text>
</a>
</g>
</g>
<!-- Node4&#45;&gt;Node3 -->
<g id="edge3_Node000003_Node000004" class="edge">
<title>Node4&#45;&gt;Node3</title>
<g id="a_edge3_Node000003_Node000004"><a xlink:title=" ">
<path fill="none" stroke="#9a32cd" stroke-dasharray="5,2" d="M1645.75,-312.85C1618.39,-244.53 1534.01,-66 1399.5,-66 788,-66 788,-66 788,-66 715.16,-66 632.5,-76.84 575.22,-86.1"/>
<polygon fill="#9a32cd" stroke="#9a32cd" points="1642.47,-314.09 1649.37,-322.13 1648.99,-311.54 1642.47,-314.09"/>
</a>
</g>
<text text-anchor="middle" x="1094" y="-69" font-family="Helvetica,sans-Serif" font-size="10.00" fill="grey"> owner_</text>
</g>
<!-- Node5 -->
<g id="Node000005" class="node">
<title>Node5</title>
<g id="a_Node000005"><a xlink:href="class_harlinn_1_1_windows_1_1_d_m_l_1_1_device1.html" target="_top" xlink:title=" ">
<polygon fill="white" stroke="#666666" points="1315,-689 1196,-689 1196,-659 1315,-659 1315,-689"/>
<text text-anchor="start" x="1204" y="-677" font-family="Helvetica,sans-Serif" font-size="10.00">Harlinn::Windows::DML</text>
<text text-anchor="middle" x="1255.5" y="-666" font-family="Helvetica,sans-Serif" font-size="10.00">::Device1</text>
</a>
</g>
</g>
<!-- Node5&#45;&gt;Node4 -->
<g id="edge4_Node000004_Node000005" class="edge">
<title>Node5&#45;&gt;Node4</title>
<g id="a_edge4_Node000004_Node000005"><a xlink:title=" ">
<path fill="none" stroke="#9a32cd" stroke-dasharray="5,2" d="M1326.35,-681.18C1394.94,-684.25 1498.55,-677.7 1564,-621 1646.67,-549.39 1655.14,-402.36 1655.63,-354.46"/>
<polygon fill="#9a32cd" stroke="#9a32cd" points="1326.92,-677.71 1316.74,-680.67 1326.54,-684.7 1326.92,-677.71"/>
</a>
</g>
<text text-anchor="middle" x="1398.5" y="-684" font-family="Helvetica,sans-Serif" font-size="10.00" fill="grey"> m_device</text>
</g>
<!-- Node6 -->
<g id="Node000006" class="node">
<title>Node6</title>
<g id="a_Node000006"><a xlink:href="class_harlinn_1_1_windows_1_1_d_m_l_1_1_device.html" target="_top" xlink:title=" ">
<polygon fill="white" stroke="#666666" points="562.5,-696 443.5,-696 443.5,-666 562.5,-666 562.5,-696"/>
<text text-anchor="start" x="451.5" y="-684" font-family="Helvetica,sans-Serif" font-size="10.00">Harlinn::Windows::DML</text>
<text text-anchor="middle" x="503" y="-673" font-family="Helvetica,sans-Serif" font-size="10.00">::Device</text>
</a>
</g>
</g>
<!-- Node6&#45;&gt;Node5 -->
<g id="edge5_Node000005_Node000006" class="edge">
<title>Node6&#45;&gt;Node5</title>
<g id="a_edge5_Node000005_Node000006"><a xlink:title=" ">
<path fill="none" stroke="#63b8ff" d="M573.97,-680.35C720.85,-678.98 1058.99,-675.82 1195.62,-674.55"/>
<polygon fill="#63b8ff" stroke="#63b8ff" points="574.37,-676.84 564.4,-680.44 574.44,-683.84 574.37,-676.84"/>
</a>
</g>
</g>
<!-- Node7 -->
<g id="Node000007" class="node">
<title>Node7</title>
<g id="a_Node000007"><a xlink:href="class_harlinn_1_1_windows_1_1_d_m_l_1_1_object.html" target="_top" xlink:title=" ">
<polygon fill="white" stroke="#666666" points="334.5,-672 215.5,-672 215.5,-642 334.5,-642 334.5,-672"/>
<text text-anchor="start" x="223.5" y="-660" font-family="Helvetica,sans-Serif" font-size="10.00">Harlinn::Windows::DML</text>
<text text-anchor="middle" x="275" y="-649" font-family="Helvetica,sans-Serif" font-size="10.00">::Object</text>
</a>
</g>
</g>
<!-- Node7&#45;&gt;Node6 -->
<g id="edge6_Node000006_Node000007" class="edge">
<title>Node7&#45;&gt;Node6</title>
<g id="a_edge6_Node000006_Node000007"><a xlink:title=" ">
<path fill="none" stroke="#63b8ff" d="M346.01,-664.43C377.14,-667.74 413.4,-671.59 443.11,-674.75"/>
<polygon fill="#63b8ff" stroke="#63b8ff" points="346.61,-660.98 336.29,-663.4 345.87,-667.94 346.61,-660.98"/>
</a>
</g>
</g>
<!-- Node17 -->
<g id="Node000017" class="node">
<title>Node17</title>
<g id="a_Node000017"><a xlink:href="class_harlinn_1_1_windows_1_1_d_m_l_1_1_device_child.html" target="_top" xlink:title=" ">
<polygon fill="white" stroke="#666666" points="562.5,-648 443.5,-648 443.5,-618 562.5,-618 562.5,-648"/>
<text text-anchor="start" x="451.5" y="-636" font-family="Helvetica,sans-Serif" font-size="10.00">Harlinn::Windows::DML</text>
<text text-anchor="middle" x="503" y="-625" font-family="Helvetica,sans-Serif" font-size="10.00">::DeviceChild</text>
</a>
</g>
</g>
<!-- Node7&#45;&gt;Node17 -->
<g id="edge17_Node000017_Node000007" class="edge">
<title>Node7&#45;&gt;Node17</title>
<g id="a_edge17_Node000017_Node000007"><a xlink:title=" ">
<path fill="none" stroke="#63b8ff" d="M346.01,-649.57C377.14,-646.26 413.4,-642.41 443.11,-639.25"/>
<polygon fill="#63b8ff" stroke="#63b8ff" points="345.87,-646.06 336.29,-650.6 346.61,-653.02 345.87,-646.06"/>
</a>
</g>
</g>
<!-- Node8 -->
<g id="Node000008" class="node">
<title>Node8</title>
<g id="a_Node000008"><a xlink:href="class_harlinn_1_1_common_1_1_core_1_1_unknown.html" target="_top" xlink:title="Base class for COM interface wrappers.">
<polygon fill="white" stroke="#666666" points="118.5,-672 0.5,-672 0.5,-642 118.5,-642 118.5,-672"/>
<text text-anchor="start" x="8.5" y="-660" font-family="Helvetica,sans-Serif" font-size="10.00">Harlinn::Common::Core</text>
<text text-anchor="middle" x="59.5" y="-649" font-family="Helvetica,sans-Serif" font-size="10.00">::Unknown</text>
</a>
</g>
</g>
<!-- Node8&#45;&gt;Node7 -->
<g id="edge7_Node000007_Node000008" class="edge">
<title>Node8&#45;&gt;Node7</title>
<g id="a_edge7_Node000007_Node000008"><a xlink:title=" ">
<path fill="none" stroke="#63b8ff" d="M130,-657C157.58,-657 188.95,-657 215.36,-657"/>
<polygon fill="#63b8ff" stroke="#63b8ff" points="130.35,-653.5 120.35,-657 130.35,-660.5 130.35,-653.5"/>
</a>
</g>
</g>
<!-- Node9 -->
<g id="Node000009" class="node">
<title>Node9</title>
<g id="a_Node000009"><a xlink:href="class_harlinn_1_1_windows_1_1_d_m_l_1_1_model_1_1_tensor_policy.html" target="_top" xlink:title=" ">
<polygon fill="white" stroke="#666666" points="1458,-496 1339,-496 1339,-466 1458,-466 1458,-496"/>
<text text-anchor="start" x="1347" y="-484" font-family="Helvetica,sans-Serif" font-size="10.00">Harlinn::Windows::DML</text>
<text text-anchor="middle" x="1398.5" y="-473" font-family="Helvetica,sans-Serif" font-size="10.00">::Model::TensorPolicy</text>
</a>
</g>
</g>
<!-- Node9&#45;&gt;Node4 -->
<g id="edge8_Node000004_Node000009" class="edge">
<title>Node9&#45;&gt;Node4</title>
<g id="a_edge8_Node000004_Node000009"><a xlink:title=" ">
<path fill="none" stroke="#9a32cd" stroke-dasharray="5,2" d="M1452.18,-461.6C1456.19,-460.06 1460.16,-458.52 1464,-457 1508.82,-439.26 1522.79,-440.01 1564,-415 1593.13,-397.32 1622.72,-370.86 1640.08,-354.28"/>
<polygon fill="#9a32cd" stroke="#9a32cd" points="1451.1,-458.27 1442.99,-465.09 1453.58,-464.81 1451.1,-458.27"/>
</a>
</g>
<text text-anchor="middle" x="1523" y="-452" font-family="Helvetica,sans-Serif" font-size="10.00" fill="grey"> m_tensorPolicy</text>
</g>
<!-- Node10 -->
<g id="Node000010" class="node">
<title>Node10</title>
<g id="a_Node000010"><a xlink:title=" ">
<polygon fill="white" stroke="#666666" points="849.5,-350.5 728.5,-350.5 728.5,-309.5 849.5,-309.5 849.5,-350.5"/>
<text text-anchor="start" x="736.5" y="-338.5" font-family="Helvetica,sans-Serif" font-size="10.00">std::vector&lt; Harlinn</text>
<text text-anchor="start" x="736.5" y="-327.5" font-family="Helvetica,sans-Serif" font-size="10.00">::Windows::DML::Model</text>
<text text-anchor="middle" x="789" y="-316.5" font-family="Helvetica,sans-Serif" font-size="10.00">::Internal::InputNode &gt;</text>
</a>
</g>
</g>
<!-- Node10&#45;&gt;Node4 -->
<g id="edge9_Node000004_Node000010" class="edge">
<title>Node10&#45;&gt;Node4</title>
<g id="a_edge9_Node000004_Node000010"><a xlink:title=" ">
<path fill="none" stroke="#9a32cd" stroke-dasharray="5,2" d="M861.07,-330.74C1022.8,-332.42 1417.05,-336.52 1581.53,-338.23"/>
<polygon fill="#9a32cd" stroke="#9a32cd" points="861.38,-327.24 851.34,-330.64 861.31,-334.24 861.38,-327.24"/>
</a>
</g>
<text text-anchor="middle" x="1255.5" y="-338" font-family="Helvetica,sans-Serif" font-size="10.00" fill="grey"> m_inputNodes</text>
</g>
<!-- Node11 -->
<g id="Node000011" class="node">
<title>Node11</title>
<g id="a_Node000011"><a xlink:href="struct_harlinn_1_1_windows_1_1_d_m_l_1_1_model_1_1_internal_1_1_input_node.html" target="_top" xlink:title=" ">
<polygon fill="white" stroke="#666666" points="571,-276 435,-276 435,-246 571,-246 571,-276"/>
<text text-anchor="start" x="443" y="-264" font-family="Helvetica,sans-Serif" font-size="10.00">Harlinn::Windows::DML</text>
<text text-anchor="middle" x="503" y="-253" font-family="Helvetica,sans-Serif" font-size="10.00">::Model::Internal::InputNode</text>
</a>
</g>
</g>
<!-- Node11&#45;&gt;Node10 -->
<g id="edge10_Node000010_Node000011" class="edge">
<title>Node11&#45;&gt;Node10</title>
<g id="a_edge10_Node000010_Node000011"><a xlink:title=" ">
<path fill="none" stroke="#9a32cd" stroke-dasharray="5,2" d="M582.25,-274.42C615.65,-280.7 654.94,-288.82 690,-298 702.47,-301.26 715.67,-305.22 728.22,-309.23"/>
<polygon fill="#9a32cd" stroke="#9a32cd" points="583.12,-271.02 572.65,-272.64 581.84,-277.9 583.12,-271.02"/>
</a>
</g>
<text text-anchor="middle" x="641.5" y="-301" font-family="Helvetica,sans-Serif" font-size="10.00" fill="grey"> elements</text>
</g>
<!-- Node12 -->
<g id="Node000012" class="node">
<title>Node12</title>
<g id="a_Node000012"><a xlink:title=" ">
<polygon fill="white" stroke="#666666" points="545.5,-355.5 460.5,-355.5 460.5,-336.5 545.5,-336.5 545.5,-355.5"/>
<text text-anchor="middle" x="503" y="-343.5" font-family="Helvetica,sans-Serif" font-size="10.00">std::vector&lt; T &gt;</text>
</a>
</g>
</g>
<!-- Node12&#45;&gt;Node10 -->
<g id="edge11_Node000010_Node000012" class="edge">
<title>Node12&#45;&gt;Node10</title>
<g id="a_edge11_Node000010_Node000012"><a xlink:title=" ">
<path fill="none" stroke="orange" stroke-dasharray="5,2" d="M538.3,-332.02C554.58,-326.12 574.48,-319.94 593,-317 638.07,-309.84 689.61,-313.79 728.38,-319.16"/>
<polygon fill="orange" stroke="orange" points="537.21,-328.69 529.09,-335.49 539.68,-335.24 537.21,-328.69"/>
</a>
</g>
<text text-anchor="start" x="593" y="-342" font-family="Helvetica,sans-Serif" font-size="10.00" fill="grey"> &lt; Harlinn::Windows</text>
<text text-anchor="start" x="593" y="-331" font-family="Helvetica,sans-Serif" font-size="10.00" fill="grey">::DML::Model::Internal</text>
<text text-anchor="middle" x="641.5" y="-320" font-family="Helvetica,sans-Serif" font-size="10.00" fill="grey">::InputNode &gt;</text>
</g>
<!-- Node14 -->
<g id="Node000014" class="node">
<title>Node14</title>
<g id="a_Node000014"><a xlink:title=" ">
<polygon fill="white" stroke="#666666" points="1463,-447.5 1334,-447.5 1334,-406.5 1463,-406.5 1463,-447.5"/>
<text text-anchor="start" x="1342" y="-435.5" font-family="Helvetica,sans-Serif" font-size="10.00">std::vector&lt; Harlinn</text>
<text text-anchor="start" x="1342" y="-424.5" font-family="Helvetica,sans-Serif" font-size="10.00">::Windows::DML::Model</text>
<text text-anchor="middle" x="1398.5" y="-413.5" font-family="Helvetica,sans-Serif" font-size="10.00">::Internal::OperatorNode &gt;</text>
</a>
</g>
</g>
<!-- Node12&#45;&gt;Node14 -->
<g id="edge23_Node000014_Node000012" class="edge">
<title>Node12&#45;&gt;Node14</title>
<g id="a_edge23_Node000014_Node000012"><a xlink:title=" ">
<path fill="none" stroke="orange" stroke-dasharray="5,2" d="M524.77,-362.88C541.93,-375.71 567.52,-392.41 593,-400 663.02,-420.85 1155.5,-425.65 1333.5,-426.71"/>
<polygon fill="orange" stroke="orange" points="526.96,-360.14 516.91,-356.79 522.68,-365.68 526.96,-360.14"/>
</a>
</g>
<text text-anchor="start" x="891.5" y="-447" font-family="Helvetica,sans-Serif" font-size="10.00" fill="grey"> &lt; Harlinn::Windows</text>
<text text-anchor="start" x="891.5" y="-436" font-family="Helvetica,sans-Serif" font-size="10.00" fill="grey">::DML::Model::Internal</text>
<text text-anchor="middle" x="940" y="-425" font-family="Helvetica,sans-Serif" font-size="10.00" fill="grey">::OperatorNode &gt;</text>
</g>
<!-- Node12&#45;&gt;Node18 -->
<g id="edge20_Node000018_Node000012" class="edge">
<title>Node12&#45;&gt;Node18</title>
<g id="a_edge20_Node000018_Node000012"><a xlink:title=" ">
<path fill="none" stroke="orange" stroke-dasharray="5,2" d="M521.81,-363.55C536.25,-377.84 557.08,-398.59 575,-417 583.11,-425.34 582.78,-430.45 593,-436 604.59,-442.29 672.18,-453.95 724.58,-462.3"/>
<polygon fill="orange" stroke="orange" points="524.38,-361.16 514.81,-356.63 519.46,-366.15 524.38,-361.16"/>
</a>
</g>
<text text-anchor="start" x="593" y="-481" font-family="Helvetica,sans-Serif" font-size="10.00" fill="grey"> &lt; Harlinn::Windows</text>
<text text-anchor="start" x="593" y="-470" font-family="Helvetica,sans-Serif" font-size="10.00" fill="grey">::DML::Model::Internal</text>
<text text-anchor="middle" x="641.5" y="-459" font-family="Helvetica,sans-Serif" font-size="10.00" fill="grey">::NodeOutput * &gt;</text>
</g>
<!-- Node21 -->
<g id="Node000021" class="node">
<title>Node21</title>
<g id="a_Node000021"><a xlink:title=" ">
<polygon fill="white" stroke="#666666" points="1163.5,-240.5 1024.5,-240.5 1024.5,-199.5 1163.5,-199.5 1163.5,-240.5"/>
<text text-anchor="start" x="1032.5" y="-228.5" font-family="Helvetica,sans-Serif" font-size="10.00">std::vector&lt; Harlinn</text>
<text text-anchor="start" x="1032.5" y="-217.5" font-family="Helvetica,sans-Serif" font-size="10.00">::Windows::DML::Model</text>
<text text-anchor="middle" x="1094" y="-206.5" font-family="Helvetica,sans-Serif" font-size="10.00">::Internal::ReinterpretNode &gt;</text>
</a>
</g>
</g>
<!-- Node12&#45;&gt;Node21 -->
<g id="edge27_Node000021_Node000012" class="edge">
<title>Node12&#45;&gt;Node21</title>
<g id="a_edge27_Node000021_Node000012"><a xlink:title=" ">
<path fill="none" stroke="orange" stroke-dasharray="5,2" d="M537.25,-331.7C553.9,-324.66 574.43,-316.16 593,-309 643.62,-289.47 655.21,-280.54 708,-268 816.79,-242.15 946.37,-229.64 1024.04,-224.04"/>
<polygon fill="orange" stroke="orange" points="536.15,-328.37 528.31,-335.5 538.88,-334.81 536.15,-328.37"/>
</a>
</g>
<text text-anchor="start" x="740.5" y="-293" font-family="Helvetica,sans-Serif" font-size="10.00" fill="grey"> &lt; Harlinn::Windows</text>
<text text-anchor="start" x="740.5" y="-282" font-family="Helvetica,sans-Serif" font-size="10.00" fill="grey">::DML::Model::Internal</text>
<text text-anchor="middle" x="789" y="-271" font-family="Helvetica,sans-Serif" font-size="10.00" fill="grey">::ReinterpretNode &gt;</text>
</g>
<!-- Node23 -->
<g id="Node000023" class="node">
<title>Node23</title>
<g id="a_Node000023"><a xlink:title=" ">
<polygon fill="white" stroke="#666666" points="1464,-388.5 1333,-388.5 1333,-347.5 1464,-347.5 1464,-388.5"/>
<text text-anchor="start" x="1341" y="-376.5" font-family="Helvetica,sans-Serif" font-size="10.00">std::vector&lt; Harlinn</text>
<text text-anchor="start" x="1341" y="-365.5" font-family="Helvetica,sans-Serif" font-size="10.00">::Windows::DML::Model</text>
<text text-anchor="middle" x="1398.5" y="-354.5" font-family="Helvetica,sans-Serif" font-size="10.00">::Internal::ConstantNode &gt;</text>
</a>
</g>
</g>
<!-- Node12&#45;&gt;Node23 -->
<g id="edge34_Node000023_Node000012" class="edge">
<title>Node12&#45;&gt;Node23</title>
<g id="a_edge34_Node000023_Node000012"><a xlink:title=" ">
<path fill="none" stroke="orange" stroke-dasharray="5,2" d="M531.25,-361.05C548.4,-369.64 571.33,-379.57 593,-384 635.24,-392.64 646.92,-385.74 690,-384 778.22,-380.44 799.78,-371.56 888,-368 1047.75,-361.56 1235.91,-364.21 1332.72,-366.33"/>
<polygon fill="orange" stroke="orange" points="533.21,-358.12 522.72,-356.62 529.99,-364.33 533.21,-358.12"/>
</a>
</g>
<text text-anchor="start" x="891.5" y="-393" font-family="Helvetica,sans-Serif" font-size="10.00" fill="grey"> &lt; Harlinn::Windows</text>
<text text-anchor="start" x="891.5" y="-382" font-family="Helvetica,sans-Serif" font-size="10.00" fill="grey">::DML::Model::Internal</text>
<text text-anchor="middle" x="940" y="-371" font-family="Helvetica,sans-Serif" font-size="10.00" fill="grey">::ConstantNode &gt;</text>
</g>
<!-- Node13 -->
<g id="Node000013" class="node">
<title>Node13</title>
<g id="a_Node000013"><a xlink:title=" ">
<polygon fill="white" stroke="#666666" points="289.5,-299.5 260.5,-299.5 260.5,-280.5 289.5,-280.5 289.5,-299.5"/>
<text text-anchor="middle" x="275" y="-287.5" font-family="Helvetica,sans-Serif" font-size="10.00">T</text>
</a>
</g>
</g>
<!-- Node13&#45;&gt;Node12 -->
<g id="edge12_Node000012_Node000013" class="edge">
<title>Node13&#45;&gt;Node12</title>
<g id="a_edge12_Node000012_Node000013"><a xlink:title=" ">
<path fill="none" stroke="#9a32cd" stroke-dasharray="5,2" d="M300.81,-296.15C339.64,-305.77 415.12,-324.47 461.78,-336.04"/>
<polygon fill="#9a32cd" stroke="#9a32cd" points="301.81,-292.79 291.27,-293.78 300.13,-299.59 301.81,-292.79"/>
</a>
</g>
<text text-anchor="middle" x="384" y="-326" font-family="Helvetica,sans-Serif" font-size="10.00" fill="grey"> elements</text>
</g>
<!-- Node26 -->
<g id="Node000026" class="node">
<title>Node26</title>
<g id="a_Node000026"><a xlink:title=" ">
<polygon fill="white" stroke="#666666" points="543,-444.5 463,-444.5 463,-425.5 543,-425.5 543,-444.5"/>
<text text-anchor="middle" x="503" y="-432.5" font-family="Helvetica,sans-Serif" font-size="10.00">std::span&lt; T &gt;</text>
</a>
</g>
</g>
<!-- Node13&#45;&gt;Node26 -->
<g id="edge32_Node000026_Node000013" class="edge">
<title>Node13&#45;&gt;Node26</title>
<g id="a_edge32_Node000026_Node000013"><a xlink:title=" ">
<path fill="none" stroke="#9a32cd" stroke-dasharray="5,2" d="M299.27,-304.93C345.5,-334.59 447.77,-400.21 486.62,-425.13"/>
<polygon fill="#9a32cd" stroke="#9a32cd" points="301.38,-302.12 291.07,-299.67 297.6,-308.02 301.38,-302.12"/>
</a>
</g>
<text text-anchor="middle" x="384" y="-378" font-family="Helvetica,sans-Serif" font-size="10.00" fill="grey"> elements</text>
</g>
<!-- Node28 -->
<g id="Node000028" class="node">
<title>Node28</title>
<g id="a_Node000028"><a xlink:title=" ">
<polygon fill="white" stroke="#666666" points="546,-185.5 460,-185.5 460,-166.5 546,-166.5 546,-185.5"/>
<text text-anchor="middle" x="503" y="-173.5" font-family="Helvetica,sans-Serif" font-size="10.00">std::deque&lt; T &gt;</text>
</a>
</g>
</g>
<!-- Node13&#45;&gt;Node28 -->
<g id="edge38_Node000028_Node000013" class="edge">
<title>Node13&#45;&gt;Node28</title>
<g id="a_edge38_Node000028_Node000013"><a xlink:title=" ">
<path fill="none" stroke="#9a32cd" stroke-dasharray="5,2" d="M294.99,-272.3C310.28,-258.77 332.81,-240.39 355,-228 386.43,-210.45 397.06,-211.99 431,-200 444.37,-195.28 459.23,-190.23 471.88,-185.98"/>
<polygon fill="#9a32cd" stroke="#9a32cd" points="292.67,-269.68 287.6,-278.99 297.36,-274.88 292.67,-269.68"/>
</a>
</g>
<text text-anchor="middle" x="384" y="-231" font-family="Helvetica,sans-Serif" font-size="10.00" fill="grey"> elements</text>
</g>
<!-- Node30 -->
<g id="Node000030" class="node">
<title>Node30</title>
<g id="a_Node000030"><a xlink:title=" ">
<polygon fill="white" stroke="#666666" points="544.5,-227.5 461.5,-227.5 461.5,-208.5 544.5,-208.5 544.5,-227.5"/>
<text text-anchor="middle" x="503" y="-215.5" font-family="Helvetica,sans-Serif" font-size="10.00">std::stack&lt; T &gt;</text>
</a>
</g>
</g>
<!-- Node13&#45;&gt;Node30 -->
<g id="edge42_Node000030_Node000013" class="edge">
<title>Node13&#45;&gt;Node30</title>
<g id="a_edge42_Node000030_Node000013"><a xlink:title=" ">
<path fill="none" stroke="#9a32cd" stroke-dasharray="5,2" d="M300.39,-281.09C330.78,-270.11 384.4,-251.18 431,-237 441.25,-233.88 452.42,-230.76 462.8,-227.98"/>
<polygon fill="#9a32cd" stroke="#9a32cd" points="299.21,-277.79 291.01,-284.49 301.6,-284.37 299.21,-277.79"/>
</a>
</g>
<text text-anchor="middle" x="384" y="-263" font-family="Helvetica,sans-Serif" font-size="10.00" fill="grey"> elements</text>
</g>
<!-- Node14&#45;&gt;Node4 -->
<g id="edge13_Node000004_Node000014" class="edge">
<title>Node14&#45;&gt;Node4</title>
<g id="a_edge13_Node000004_Node000014"><a xlink:title=" ">
<path fill="none" stroke="#9a32cd" stroke-dasharray="5,2" d="M1473.98,-403.23C1502.25,-394.02 1534.69,-383.25 1564,-373 1580.8,-367.13 1599.21,-360.35 1615.08,-354.4"/>
<polygon fill="#9a32cd" stroke="#9a32cd" points="1473.23,-399.79 1464.8,-406.2 1475.39,-406.45 1473.23,-399.79"/>
</a>
</g>
<text text-anchor="middle" x="1523" y="-403" font-family="Helvetica,sans-Serif" font-size="10.00" fill="grey"> m_operatorNodes</text>
</g>
<!-- Node15 -->
<g id="Node000015" class="node">
<title>Node15</title>
<g id="a_Node000015"><a xlink:href="struct_harlinn_1_1_windows_1_1_d_m_l_1_1_model_1_1_internal_1_1_operator_node.html" target="_top" xlink:title=" ">
<polygon fill="white" stroke="#666666" points="1170,-570 1018,-570 1018,-540 1170,-540 1170,-570"/>
<text text-anchor="start" x="1026" y="-558" font-family="Helvetica,sans-Serif" font-size="10.00">Harlinn::Windows::DML</text>
<text text-anchor="middle" x="1094" y="-547" font-family="Helvetica,sans-Serif" font-size="10.00">::Model::Internal::OperatorNode</text>
</a>
</g>
</g>
<!-- Node15&#45;&gt;Node14 -->
<g id="edge14_Node000014_Node000015" class="edge">
<title>Node15&#45;&gt;Node14</title>
<g id="a_edge14_Node000014_Node000015"><a xlink:title=" ">
<path fill="none" stroke="#9a32cd" stroke-dasharray="5,2" d="M1141.83,-535.19C1197.79,-511.51 1291.02,-472.06 1348.1,-447.9"/>
<polygon fill="#9a32cd" stroke="#9a32cd" points="1140.73,-531.85 1132.88,-538.97 1143.46,-538.3 1140.73,-531.85"/>
</a>
</g>
<text text-anchor="middle" x="1255.5" y="-512" font-family="Helvetica,sans-Serif" font-size="10.00" fill="grey"> elements</text>
</g>
<!-- Node16 -->
<g id="Node000016" class="node">
<title>Node16</title>
<g id="a_Node000016"><a xlink:href="class_harlinn_1_1_windows_1_1_d_m_l_1_1_operator.html" target="_top" xlink:title=" ">
<polygon fill="white" stroke="#666666" points="848.5,-650 729.5,-650 729.5,-620 848.5,-620 848.5,-650"/>
<text text-anchor="start" x="737.5" y="-638" font-family="Helvetica,sans-Serif" font-size="10.00">Harlinn::Windows::DML</text>
<text text-anchor="middle" x="789" y="-627" font-family="Helvetica,sans-Serif" font-size="10.00">::Operator</text>
</a>
</g>
</g>
<!-- Node16&#45;&gt;Node15 -->
<g id="edge15_Node000015_Node000016" class="edge">
<title>Node16&#45;&gt;Node15</title>
<g id="a_edge15_Node000015_Node000016"><a xlink:title=" ">
<path fill="none" stroke="#9a32cd" stroke-dasharray="5,2" d="M859.62,-619.78C898.71,-610.91 948.27,-599.1 992,-587 1009.99,-582.02 1029.6,-575.96 1046.7,-570.46"/>
<polygon fill="#9a32cd" stroke="#9a32cd" points="859.09,-616.32 850.11,-621.93 860.63,-623.14 859.09,-616.32"/>
</a>
</g>
<text text-anchor="middle" x="940" y="-615" font-family="Helvetica,sans-Serif" font-size="10.00" fill="grey"> op</text>
</g>
<!-- Node17&#45;&gt;Node16 -->
<g id="edge16_Node000016_Node000017" class="edge">
<title>Node17&#45;&gt;Node16</title>
<g id="a_edge16_Node000016_Node000017"><a xlink:title=" ">
<path fill="none" stroke="#63b8ff" d="M574.32,-633.5C621.97,-633.83 684.22,-634.27 729.23,-634.59"/>
<polygon fill="#63b8ff" stroke="#63b8ff" points="574.38,-630 564.36,-633.43 574.33,-637 574.38,-630"/>
</a>
</g>
</g>
<!-- Node18&#45;&gt;Node15 -->
<g id="edge18_Node000015_Node000018" class="edge">
<title>Node18&#45;&gt;Node15</title>
<g id="a_edge18_Node000015_Node000018"><a xlink:title=" ">
<path fill="none" stroke="#9a32cd" stroke-dasharray="5,2" d="M863.23,-497.45C865.57,-498.89 867.83,-500.41 870,-502 880.47,-509.68 876.77,-518.48 888,-525 909.7,-537.6 968.62,-545.37 1017.76,-549.84"/>
<polygon fill="#9a32cd" stroke="#9a32cd" points="865.07,-494.46 854.63,-492.65 861.66,-500.58 865.07,-494.46"/>
</a>
</g>
<text text-anchor="middle" x="940" y="-549" font-family="Helvetica,sans-Serif" font-size="10.00" fill="grey"> inputs</text>
</g>
<!-- Node19 -->
<g id="Node000019" class="node">
<title>Node19</title>
<g id="a_Node000019"><a xlink:title=" ">
<polygon fill="white" stroke="#666666" points="819,-590.5 759,-590.5 759,-571.5 819,-571.5 819,-590.5"/>
<text text-anchor="middle" x="789" y="-578.5" font-family="Helvetica,sans-Serif" font-size="10.00">std::string</text>
</a>
</g>
</g>
<!-- Node19&#45;&gt;Node4 -->
<g id="edge39_Node000004_Node000019" class="edge">
<title>Node19&#45;&gt;Node4</title>
<g id="a_edge39_Node000004_Node000019"><a xlink:title=" ">
<path fill="none" stroke="#9a32cd" stroke-dasharray="5,2" d="M830.49,-584.04C848.14,-585.22 869.08,-586.42 888,-587 934.2,-588.41 945.79,-587.99 992,-587 1074.72,-585.22 1096.16,-591.21 1178,-579 1307.86,-559.63 1339.42,-546.44 1464,-505 1509.58,-489.84 1526.17,-493.6 1564,-464 1603.82,-432.84 1634.5,-380.03 1647.99,-354.18"/>
<polygon fill="#9a32cd" stroke="#9a32cd" points="830.87,-580.55 820.65,-583.36 830.38,-587.54 830.87,-580.55"/>
</a>
</g>
<text text-anchor="middle" x="1255.5" y="-578" font-family="Helvetica,sans-Serif" font-size="10.00" fill="grey"> m_name</text>
</g>
<!-- Node19&#45;&gt;Node15 -->
<g id="edge21_Node000015_Node000019" class="edge">
<title>Node19&#45;&gt;Node15</title>
<g id="a_edge21_Node000015_Node000019"><a xlink:title=" ">
<path fill="none" stroke="#9a32cd" stroke-dasharray="5,2" d="M830.74,-577.5C878.51,-573.4 958.66,-566.53 1017.81,-561.45"/>
<polygon fill="#9a32cd" stroke="#9a32cd" points="830.5,-574.01 820.84,-578.35 831.1,-580.99 830.5,-574.01"/>
</a>
</g>
<text text-anchor="middle" x="940" y="-575" font-family="Helvetica,sans-Serif" font-size="10.00" fill="grey"> name</text>
</g>
<!-- Node24 -->
<g id="Node000024" class="node">
<title>Node24</title>
<g id="a_Node000024"><a xlink:href="struct_harlinn_1_1_windows_1_1_d_m_l_1_1_model_1_1_internal_1_1_constant_node.html" target="_top" xlink:title=" ">
<polygon fill="white" stroke="#666666" points="1171,-494 1017,-494 1017,-464 1171,-464 1171,-494"/>
<text text-anchor="start" x="1025" y="-482" font-family="Helvetica,sans-Serif" font-size="10.00">Harlinn::Windows::DML</text>
<text text-anchor="middle" x="1094" y="-471" font-family="Helvetica,sans-Serif" font-size="10.00">::Model::Internal::ConstantNode</text>
</a>
</g>
</g>
<!-- Node19&#45;&gt;Node24 -->
<g id="edge33_Node000024_Node000019" class="edge">
<title>Node19&#45;&gt;Node24</title>
<g id="a_edge33_Node000024_Node000019"><a xlink:title=" ">
<path fill="none" stroke="#9a32cd" stroke-dasharray="5,2" d="M826.75,-566.45C841.26,-559.55 857.43,-550.32 870,-539 880.72,-529.35 875.87,-519.8 888,-512 898.97,-504.95 963.08,-495.32 1016.72,-488.28"/>
<polygon fill="#9a32cd" stroke="#9a32cd" points="825.6,-563.13 817.93,-570.44 828.48,-569.51 825.6,-563.13"/>
</a>
</g>
<text text-anchor="middle" x="940" y="-515" font-family="Helvetica,sans-Serif" font-size="10.00" fill="grey"> name</text>
</g>
<!-- Node20 -->
<g id="Node000020" class="node">
<title>Node20</title>
<g id="a_Node000020"><a xlink:title=" ">
<polygon fill="white" stroke="#666666" points="550.5,-596 455.5,-596 455.5,-566 550.5,-566 550.5,-596"/>
<text text-anchor="start" x="463.5" y="-584" font-family="Helvetica,sans-Serif" font-size="10.00">std::basic_string&lt;</text>
<text text-anchor="middle" x="503" y="-573" font-family="Helvetica,sans-Serif" font-size="10.00"> Char &gt;</text>
</a>
</g>
</g>
<!-- Node20&#45;&gt;Node19 -->
<g id="edge22_Node000019_Node000020" class="edge">
<title>Node20&#45;&gt;Node19</title>
<g id="a_edge22_Node000019_Node000020"><a xlink:title=" ">
<path fill="none" stroke="#63b8ff" d="M562.05,-581C621.87,-581 712.68,-581 758.85,-581"/>
<polygon fill="#63b8ff" stroke="#63b8ff" points="562.41,-577.5 552.41,-581 562.41,-584.5 562.41,-577.5"/>
</a>
</g>
</g>
<!-- Node21&#45;&gt;Node4 -->
<g id="edge24_Node000004_Node000021" class="edge">
<title>Node21&#45;&gt;Node4</title>
<g id="a_edge24_Node000004_Node000021"><a xlink:title=" ">
<path fill="none" stroke="#9a32cd" stroke-dasharray="5,2" d="M1175.3,-214.5C1271.43,-210.92 1435.53,-214.47 1564,-267 1595.25,-279.78 1624.66,-306.52 1641.34,-323.58"/>
<polygon fill="#9a32cd" stroke="#9a32cd" points="1175.28,-211 1165.43,-214.91 1175.57,-217.99 1175.28,-211"/>
</a>
</g>
<text text-anchor="middle" x="1398.5" y="-238" font-family="Helvetica,sans-Serif" font-size="10.00" fill="grey"> m_reinterpretNodes</text>
</g>
<!-- Node22&#45;&gt;Node21 -->
<g id="edge25_Node000021_Node000022" class="edge">
<title>Node22&#45;&gt;Node21</title>
<g id="a_edge25_Node000021_Node000022"><a xlink:title=" ">
<path fill="none" stroke="#9a32cd" stroke-dasharray="5,2" d="M881.53,-178.53C916.27,-182.74 956.09,-188.27 992,-195 1002.48,-196.96 1013.49,-199.35 1024.23,-201.86"/>
<polygon fill="#9a32cd" stroke="#9a32cd" points="882.29,-175.1 871.95,-177.39 881.47,-182.05 882.29,-175.1"/>
</a>
</g>
<text text-anchor="middle" x="940" y="-198" font-family="Helvetica,sans-Serif" font-size="10.00" fill="grey"> elements</text>
</g>
<!-- Node23&#45;&gt;Node4 -->
<g id="edge28_Node000004_Node000023" class="edge">
<title>Node23&#45;&gt;Node4</title>
<g id="a_edge28_Node000004_Node000023"><a xlink:title=" ">
<path fill="none" stroke="#9a32cd" stroke-dasharray="5,2" d="M1475.56,-359.38C1509.08,-355.59 1548.32,-351.14 1581.58,-347.37"/>
<polygon fill="#9a32cd" stroke="#9a32cd" points="1475.48,-355.87 1465.93,-360.47 1476.26,-362.83 1475.48,-355.87"/>
</a>
</g>
<text text-anchor="middle" x="1523" y="-361" font-family="Helvetica,sans-Serif" font-size="10.00" fill="grey"> m_constantNodes</text>
</g>
<!-- Node24&#45;&gt;Node23 -->
<g id="edge29_Node000023_Node000024" class="edge">
<title>Node24&#45;&gt;Node23</title>
<g id="a_edge29_Node000023_Node000024"><a xlink:title=" ">
<path fill="none" stroke="#9a32cd" stroke-dasharray="5,2" d="M1147.75,-459.64C1201.6,-439.89 1284.91,-409.31 1340.31,-388.98"/>
<polygon fill="#9a32cd" stroke="#9a32cd" points="1146.66,-456.31 1138.48,-463.04 1149.08,-462.89 1146.66,-456.31"/>
</a>
</g>
<text text-anchor="middle" x="1255.5" y="-442" font-family="Helvetica,sans-Serif" font-size="10.00" fill="grey"> elements</text>
</g>
<!-- Node25 -->
<g id="Node000025" class="node">
<title>Node25</title>
<g id="a_Node000025"><a xlink:title=" ">
<polygon fill="white" stroke="#666666" points="850,-529.5 728,-529.5 728,-510.5 850,-510.5 850,-529.5"/>
<text text-anchor="middle" x="789" y="-517.5" font-family="Helvetica,sans-Serif" font-size="10.00">std::span&lt; const Byte &gt;</text>
</a>
</g>
</g>
<!-- Node25&#45;&gt;Node24 -->
<g id="edge30_Node000024_Node000025" class="edge">
<title>Node25&#45;&gt;Node24</title>
<g id="a_edge30_Node000024_Node000025"><a xlink:title=" ">
<path fill="none" stroke="#9a32cd" stroke-dasharray="5,2" d="M860.77,-506.91C863.97,-505.44 867.07,-503.81 870,-502 880.75,-495.36 876.6,-485.44 888,-480 927.67,-461.08 976.78,-460.18 1016.98,-464.32"/>
<polygon fill="#9a32cd" stroke="#9a32cd" points="859.69,-503.57 851.68,-510.5 862.27,-510.08 859.69,-503.57"/>
</a>
</g>
<text text-anchor="middle" x="940" y="-483" font-family="Helvetica,sans-Serif" font-size="10.00" fill="grey"> data</text>
</g>
<!-- Node26&#45;&gt;Node25 -->
<g id="edge31_Node000025_Node000026" class="edge">
<title>Node26&#45;&gt;Node25</title>
<g id="a_edge31_Node000025_Node000026"><a xlink:title=" ">
<path fill="none" stroke="orange" stroke-dasharray="5,2" d="M523.69,-451.89C540.82,-465.61 566.93,-484.22 593,-494 636.33,-510.26 688.42,-516.59 727.86,-518.95"/>
<polygon fill="orange" stroke="orange" points="526.26,-449.48 516.32,-445.83 521.81,-454.89 526.26,-449.48"/>
</a>
</g>
<text text-anchor="middle" x="641.5" y="-518" font-family="Helvetica,sans-Serif" font-size="10.00" fill="grey"> &lt; const Byte &gt;</text>
</g>
<!-- Node27&#45;&gt;Node4 -->
<g id="edge35_Node000004_Node000027" class="edge">
<title>Node27&#45;&gt;Node4</title>
<g id="a_edge35_Node000004_Node000027"><a xlink:title=" ">
<path fill="none" stroke="#9a32cd" stroke-dasharray="5,2" d="M860.9,-123.37C984.08,-138.35 1245.36,-172.03 1464,-213 1508.82,-221.4 1524.77,-212.74 1564,-236 1601.44,-258.2 1631.89,-300.9 1646.37,-323.72"/>
<polygon fill="#9a32cd" stroke="#9a32cd" points="861.63,-119.94 851.28,-122.21 860.79,-126.89 861.63,-119.94"/>
</a>
</g>
<text text-anchor="middle" x="1255.5" y="-189" font-family="Helvetica,sans-Serif" font-size="10.00" fill="grey"> m_nodeOutputs</text>
</g>
<!-- Node28&#45;&gt;Node27 -->
<g id="edge37_Node000027_Node000028" class="edge">
<title>Node28&#45;&gt;Node27</title>
<g id="a_edge37_Node000027_Node000028"><a xlink:title=" ">
<path fill="none" stroke="orange" stroke-dasharray="5,2" d="M557.56,-168.98C594.93,-163.63 645.81,-155.4 690,-145 702.47,-142.07 715.68,-138.41 728.22,-134.67"/>
<polygon fill="orange" stroke="orange" points="557.33,-165.48 547.92,-170.34 558.31,-172.41 557.33,-165.48"/>
</a>
</g>
<text text-anchor="start" x="593" y="-189" font-family="Helvetica,sans-Serif" font-size="10.00" fill="grey"> &lt; Harlinn::Windows</text>
<text text-anchor="start" x="593" y="-178" font-family="Helvetica,sans-Serif" font-size="10.00" fill="grey">::DML::Model::Internal</text>
<text text-anchor="middle" x="641.5" y="-167" font-family="Helvetica,sans-Serif" font-size="10.00" fill="grey">::NodeOutput &gt;</text>
</g>
<!-- Node29 -->
<g id="Node000029" class="node">
<title>Node29</title>
<g id="a_Node000029"><a xlink:title=" ">
<polygon fill="white" stroke="#666666" points="992,-290.5 888,-290.5 888,-271.5 992,-271.5 992,-290.5"/>
<text text-anchor="middle" x="940" y="-278.5" font-family="Helvetica,sans-Serif" font-size="10.00">std::stack&lt; size_t &gt;</text>
</a>
</g>
</g>
<!-- Node29&#45;&gt;Node4 -->
<g id="edge40_Node000004_Node000029" class="edge">
<title>Node29&#45;&gt;Node4</title>
<g id="a_edge40_Node000004_Node000029"><a xlink:title=" ">
<path fill="none" stroke="#9a32cd" stroke-dasharray="5,2" d="M1003.43,-276.2C1116.68,-269.07 1362.89,-260.88 1564,-305 1583.37,-309.25 1604.14,-316.72 1621,-323.57"/>
<polygon fill="#9a32cd" stroke="#9a32cd" points="1003.5,-272.69 993.75,-276.83 1003.96,-279.67 1003.5,-272.69"/>
</a>
</g>
<text text-anchor="middle" x="1255.5" y="-276" font-family="Helvetica,sans-Serif" font-size="10.00" fill="grey"> m_nameSubLengths</text>
</g>
<!-- Node30&#45;&gt;Node29 -->
<g id="edge41_Node000029_Node000030" class="edge">
<title>Node30&#45;&gt;Node29</title>
<g id="a_edge41_Node000029_Node000030"><a xlink:title=" ">
<path fill="none" stroke="orange" stroke-dasharray="5,2" d="M555.95,-229.2C597.06,-237.76 655.99,-249.34 708,-257 769.63,-266.08 841.01,-272.94 887.92,-276.95"/>
<polygon fill="orange" stroke="orange" points="556.84,-225.81 546.33,-227.19 555.4,-232.66 556.84,-225.81"/>
</a>
</g>
<text text-anchor="middle" x="641.5" y="-256" font-family="Helvetica,sans-Serif" font-size="10.00" fill="grey"> &lt; size_t &gt;</text>
</g>
<!-- Node31 -->
<g id="Node000031" class="node">
<title>Node31</title>
<g id="a_Node000031"><a xlink:href="struct_harlinn_1_1_windows_1_1_d_m_l_1_1_model_1_1_internal_1_1_node_i_d.html" target="_top" xlink:title=" ">
<polygon fill="white" stroke="#666666" points="337,-135 213,-135 213,-105 337,-105 337,-135"/>
<text text-anchor="start" x="221" y="-123" font-family="Helvetica,sans-Serif" font-size="10.00">Harlinn::Windows::DML</text>
<text text-anchor="middle" x="275" y="-112" font-family="Helvetica,sans-Serif" font-size="10.00">::Model::Internal::NodeID</text>
</a>
</g>
</g>
<!-- Node31&#45;&gt;Node3 -->
<g id="edge43_Node000003_Node000031" class="edge">
<title>Node31&#45;&gt;Node3</title>
<g id="a_edge43_Node000003_Node000031"><a xlink:title=" ">
<path fill="none" stroke="#9a32cd" stroke-dasharray="5,2" d="M348.84,-113.23C375.01,-110.8 404.49,-108.06 430.55,-105.64"/>
<polygon fill="#9a32cd" stroke="#9a32cd" points="348.6,-109.74 338.96,-114.15 349.24,-116.71 348.6,-109.74"/>
</a>
</g>
<text text-anchor="middle" x="384" y="-116" font-family="Helvetica,sans-Serif" font-size="10.00" fill="grey"> node_</text>
</g>
<!-- Node32 -->
<g id="Node000032" class="node">
<title>Node32</title>
<g id="a_Node000032"><a xlink:href="struct_harlinn_1_1_windows_1_1_d_m_l_1_1_model_1_1_tensor_desc.html" target="_top" xlink:title=" ">
<polygon fill="white" stroke="#666666" points="334.5,-87 215.5,-87 215.5,-57 334.5,-57 334.5,-87"/>
<text text-anchor="start" x="223.5" y="-75" font-family="Helvetica,sans-Serif" font-size="10.00">Harlinn::Windows::DML</text>
<text text-anchor="middle" x="275" y="-64" font-family="Helvetica,sans-Serif" font-size="10.00">::Model::TensorDesc</text>
</a>
</g>
</g>
<!-- Node32&#45;&gt;Node3 -->
<g id="edge44_Node000003_Node000032" class="edge">
<title>Node32&#45;&gt;Node3</title>
<g id="a_edge44_Node000003_Node000032"><a xlink:title=" ">
<path fill="none" stroke="#9a32cd" stroke-dasharray="5,2" d="M346.05,-80.37C372.93,-83.58 403.61,-87.25 430.61,-90.47"/>
<polygon fill="#9a32cd" stroke="#9a32cd" points="346.64,-76.91 336.29,-79.2 345.81,-83.86 346.64,-76.91"/>
</a>
</g>
<text text-anchor="middle" x="384" y="-91" font-family="Helvetica,sans-Serif" font-size="10.00" fill="grey"> tensorDesc_</text>
</g>
<!-- Node33 -->
<g id="Node000033" class="node">
<title>Node33</title>
<g id="a_Node000033"><a xlink:href="struct_harlinn_1_1_windows_1_1_d_m_l_1_1_buffer_tensor_desc.html" target="_top" xlink:title=" ">
<polygon fill="white" stroke="#666666" points="119,-63 0,-63 0,-33 119,-33 119,-63"/>
<text text-anchor="start" x="8" y="-51" font-family="Helvetica,sans-Serif" font-size="10.00">Harlinn::Windows::DML</text>
<text text-anchor="middle" x="59.5" y="-40" font-family="Helvetica,sans-Serif" font-size="10.00">::BufferTensorDesc</text>
</a>
</g>
</g>
<!-- Node33&#45;&gt;Node32 -->
<g id="edge45_Node000032_Node000033" class="edge">
<title>Node33&#45;&gt;Node32</title>
<g id="a_edge45_Node000032_Node000033"><a xlink:title=" ">
<path fill="none" stroke="#9a32cd" stroke-dasharray="5,2" d="M130.7,-55.8C151.41,-58.11 174.12,-60.65 195,-63 201.58,-63.74 208.48,-64.52 215.33,-65.3"/>
<polygon fill="#9a32cd" stroke="#9a32cd" points="131.26,-52.34 120.93,-54.71 130.48,-59.29 131.26,-52.34"/>
</a>
</g>
<text text-anchor="middle" x="166" y="-66" font-family="Helvetica,sans-Serif" font-size="10.00" fill="grey"> bufferDesc_</text>
</g>
<!-- Node34 -->
<g id="Node000034" class="node">
<title>Node34</title>
<g id="a_Node000034"><a xlink:href="struct_harlinn_1_1_windows_1_1_d_m_l_1_1_tensor_desc.html" target="_top" xlink:title=" ">
<polygon fill="white" stroke="#666666" points="119,-111 0,-111 0,-81 119,-81 119,-111"/>
<text text-anchor="start" x="8" y="-99" font-family="Helvetica,sans-Serif" font-size="10.00">Harlinn::Windows::DML</text>
<text text-anchor="middle" x="59.5" y="-88" font-family="Helvetica,sans-Serif" font-size="10.00">::TensorDesc</text>
</a>
</g>
</g>
<!-- Node34&#45;&gt;Node32 -->
<g id="edge46_Node000032_Node000034" class="edge">
<title>Node34&#45;&gt;Node32</title>
<g id="a_edge46_Node000032_Node000034"><a xlink:title=" ">
<path fill="none" stroke="#9a32cd" stroke-dasharray="5,2" d="M130.51,-88.13C157.94,-85.05 189.06,-81.55 215.29,-78.6"/>
<polygon fill="#9a32cd" stroke="#9a32cd" points="130.46,-84.61 120.91,-89.21 131.24,-91.57 130.46,-84.61"/>
</a>
</g>
<text text-anchor="middle" x="166" y="-90" font-family="Helvetica,sans-Serif" font-size="10.00" fill="grey"> tensorDesc_</text>
</g>
</g>
</svg>
