<?xml version="1.0" encoding="UTF-8" standalone="no"?>
<!DOCTYPE svg PUBLIC "-//W3C//DTD SVG 1.1//EN"
 "http://www.w3.org/Graphics/SVG/1.1/DTD/svg11.dtd">
<!-- Generated by graphviz version 7.0.1 (20221109.1506)
 -->
<!-- Title: Harlinn::Common::Core::Persistent::Internal::FormatTraitsBase&lt; T, RT &gt; Pages: 1 -->
<svg width="605pt" height="1020pt"
 viewBox="0.00 0.00 605.00 1020.00" xmlns="http://www.w3.org/2000/svg" xmlns:xlink="http://www.w3.org/1999/xlink">
<g id="graph0" class="graph" transform="scale(1 1) rotate(0) translate(4 1016)">
<title>Harlinn::Common::Core::Persistent::Internal::FormatTraitsBase&lt; T, RT &gt;</title>
<!-- Node1 -->
<g id="Node000001" class="node">
<title>Node1</title>
<g id="a_Node000001"><a xlink:title=" ">
<polygon fill="#999999" stroke="#666666" points="141,-526.5 0,-526.5 0,-485.5 141,-485.5 141,-526.5"/>
<text text-anchor="start" x="8" y="-514.5" font-family="Helvetica,sans-Serif" font-size="10.00">Harlinn::Common::Core</text>
<text text-anchor="start" x="8" y="-503.5" font-family="Helvetica,sans-Serif" font-size="10.00">::Persistent::Internal</text>
<text text-anchor="middle" x="70.5" y="-492.5" font-family="Helvetica,sans-Serif" font-size="10.00">::FormatTraitsBase&lt; T, RT &gt;</text>
</a>
</g>
</g>
<!-- Node2 -->
<g id="Node000002" class="node">
<title>Node2</title>
<g id="a_Node000002"><a xlink:href="struct_harlinn_1_1_common_1_1_core_1_1_persistent_1_1_internal_1_1_adapted_format_traits.html" target="_top" xlink:title=" ">
<polygon fill="white" stroke="#666666" points="400,-1012 281,-1012 281,-960 400,-960 400,-1012"/>
<text text-anchor="start" x="289" y="-1000" font-family="Helvetica,sans-Serif" font-size="10.00">Harlinn::Common::Core</text>
<text text-anchor="start" x="289" y="-989" font-family="Helvetica,sans-Serif" font-size="10.00">::Persistent::Internal</text>
<text text-anchor="start" x="289" y="-978" font-family="Helvetica,sans-Serif" font-size="10.00">::AdaptedFormatTraits&lt;</text>
<text text-anchor="middle" x="340.5" y="-967" font-family="Helvetica,sans-Serif" font-size="10.00"> T, RT &gt;</text>
</a>
</g>
</g>
<!-- Node1&#45;&gt;Node2 -->
<g id="edge1_Node000001_Node000002" class="edge">
<title>Node1&#45;&gt;Node2</title>
<g id="a_edge1_Node000001_Node000002"><a xlink:title=" ">
<path fill="none" stroke="#63b8ff" d="M74.9,-537.84C82.45,-598.45 104.46,-733.15 159,-832 193.79,-895.06 211.35,-907.83 269,-951 273.05,-954.03 277.4,-956.92 281.88,-959.64"/>
<polygon fill="#63b8ff" stroke="#63b8ff" points="78.42,-537.76 73.76,-528.25 71.47,-538.59 78.42,-537.76"/>
</a>
</g>
</g>
<!-- Node3 -->
<g id="Node000003" class="node">
<title>Node3</title>
<g id="a_Node000003"><a xlink:href="struct_harlinn_1_1_common_1_1_core_1_1_persistent_1_1_internal_1_1_basic_array_format_traits.html" target="_top" xlink:title=" ">
<polygon fill="white" stroke="#666666" points="403,-942 278,-942 278,-890 403,-890 403,-942"/>
<text text-anchor="start" x="286" y="-930" font-family="Helvetica,sans-Serif" font-size="10.00">Harlinn::Common::Core</text>
<text text-anchor="start" x="286" y="-919" font-family="Helvetica,sans-Serif" font-size="10.00">::Persistent::Internal</text>
<text text-anchor="start" x="286" y="-908" font-family="Helvetica,sans-Serif" font-size="10.00">::BasicArrayFormatTraits</text>
<text text-anchor="middle" x="340.5" y="-897" font-family="Helvetica,sans-Serif" font-size="10.00">&lt; T, RT &gt;</text>
</a>
</g>
</g>
<!-- Node1&#45;&gt;Node3 -->
<g id="edge2_Node000001_Node000003" class="edge">
<title>Node1&#45;&gt;Node3</title>
<g id="a_edge2_Node000001_Node000003"><a xlink:title=" ">
<path fill="none" stroke="#63b8ff" d="M77.23,-537.87C87.52,-589.43 112.54,-693.02 159,-769 195.4,-828.53 212.53,-840.03 269,-881 273.09,-883.97 277.47,-886.81 281.98,-889.5"/>
<polygon fill="#63b8ff" stroke="#63b8ff" points="80.71,-537.45 75.37,-528.29 73.84,-538.78 80.71,-537.45"/>
</a>
</g>
</g>
<!-- Node5 -->
<g id="Node000005" class="node">
<title>Node5</title>
<g id="a_Node000005"><a xlink:href="struct_harlinn_1_1_common_1_1_core_1_1_persistent_1_1_internal_1_1_basic_format_traits.html" target="_top" xlink:title=" ">
<polygon fill="white" stroke="#666666" points="412,-871.5 269,-871.5 269,-830.5 412,-830.5 412,-871.5"/>
<text text-anchor="start" x="277" y="-859.5" font-family="Helvetica,sans-Serif" font-size="10.00">Harlinn::Common::Core</text>
<text text-anchor="start" x="277" y="-848.5" font-family="Helvetica,sans-Serif" font-size="10.00">::Persistent::Internal</text>
<text text-anchor="middle" x="340.5" y="-837.5" font-family="Helvetica,sans-Serif" font-size="10.00">::BasicFormatTraits&lt; T, RT &gt;</text>
</a>
</g>
</g>
<!-- Node1&#45;&gt;Node5 -->
<g id="edge4_Node000001_Node000005" class="edge">
<title>Node1&#45;&gt;Node5</title>
<g id="a_edge4_Node000001_Node000005"><a xlink:title=" ">
<path fill="none" stroke="#63b8ff" d="M81.73,-537.64C95.65,-578.19 123.02,-649.71 159,-704 198.43,-763.49 210.47,-780.16 269,-821 273.69,-824.27 278.79,-827.29 284.04,-830.05"/>
<polygon fill="#63b8ff" stroke="#63b8ff" points="85.08,-536.62 78.57,-528.26 78.44,-538.86 85.08,-536.62"/>
</a>
</g>
</g>
<!-- Node6 -->
<g id="Node000006" class="node">
<title>Node6</title>
<g id="a_Node000006"><a xlink:href="struct_harlinn_1_1_common_1_1_core_1_1_persistent_1_1_internal_1_1_constant_format_traits.html" target="_top" xlink:title=" ">
<polygon fill="white" stroke="#666666" points="399.5,-812 281.5,-812 281.5,-760 399.5,-760 399.5,-812"/>
<text text-anchor="start" x="289.5" y="-800" font-family="Helvetica,sans-Serif" font-size="10.00">Harlinn::Common::Core</text>
<text text-anchor="start" x="289.5" y="-789" font-family="Helvetica,sans-Serif" font-size="10.00">::Persistent::Internal</text>
<text text-anchor="start" x="289.5" y="-778" font-family="Helvetica,sans-Serif" font-size="10.00">::ConstantFormatTraits</text>
<text text-anchor="middle" x="340.5" y="-767" font-family="Helvetica,sans-Serif" font-size="10.00">&lt; T, RT &gt;</text>
</a>
</g>
</g>
<!-- Node1&#45;&gt;Node6 -->
<g id="edge5_Node000001_Node000006" class="edge">
<title>Node1&#45;&gt;Node6</title>
<g id="a_edge5_Node000001_Node000006"><a xlink:title=" ">
<path fill="none" stroke="#63b8ff" d="M88.12,-536.58C104.46,-565.5 130.96,-609.48 159,-644 202,-696.94 213.34,-711.58 269,-751 273.24,-754 277.77,-756.88 282.42,-759.61"/>
<polygon fill="#63b8ff" stroke="#63b8ff" points="91.24,-535 83.31,-527.97 85.13,-538.41 91.24,-535"/>
</a>
</g>
</g>
<!-- Node7 -->
<g id="Node000007" class="node">
<title>Node7</title>
<g id="a_Node000007"><a xlink:href="struct_harlinn_1_1_common_1_1_core_1_1_persistent_1_1_internal_1_1_container_format_traits_base.html" target="_top" xlink:title=" ">
<polygon fill="white" stroke="#666666" points="411,-742 270,-742 270,-690 411,-690 411,-742"/>
<text text-anchor="start" x="278" y="-730" font-family="Helvetica,sans-Serif" font-size="10.00">Harlinn::Common::Core</text>
<text text-anchor="start" x="278" y="-719" font-family="Helvetica,sans-Serif" font-size="10.00">::Persistent::Internal</text>
<text text-anchor="start" x="278" y="-708" font-family="Helvetica,sans-Serif" font-size="10.00">::ContainerFormatTraitsBase</text>
<text text-anchor="middle" x="340.5" y="-697" font-family="Helvetica,sans-Serif" font-size="10.00">&lt; T, RT &gt;</text>
</a>
</g>
</g>
<!-- Node1&#45;&gt;Node7 -->
<g id="edge6_Node000001_Node000007" class="edge">
<title>Node1&#45;&gt;Node7</title>
<g id="a_edge6_Node000001_Node000007"><a xlink:title=" ">
<path fill="none" stroke="#63b8ff" d="M98.46,-534.91C134.54,-572.34 201.79,-637.87 269,-681 273.6,-683.95 278.48,-686.84 283.45,-689.6"/>
<polygon fill="#63b8ff" stroke="#63b8ff" points="101.31,-532.82 91.87,-528.01 96.25,-537.66 101.31,-532.82"/>
</a>
</g>
</g>
<!-- Node11 -->
<g id="Node000011" class="node">
<title>Node11</title>
<g id="a_Node000011"><a xlink:href="struct_harlinn_1_1_common_1_1_core_1_1_persistent_1_1_internal_1_1_optional_format_traits.html" target="_top" xlink:title=" ">
<polygon fill="white" stroke="#666666" points="399.5,-672 281.5,-672 281.5,-620 399.5,-620 399.5,-672"/>
<text text-anchor="start" x="289.5" y="-660" font-family="Helvetica,sans-Serif" font-size="10.00">Harlinn::Common::Core</text>
<text text-anchor="start" x="289.5" y="-649" font-family="Helvetica,sans-Serif" font-size="10.00">::Persistent::Internal</text>
<text text-anchor="start" x="289.5" y="-638" font-family="Helvetica,sans-Serif" font-size="10.00">::OptionalFormatTraits</text>
<text text-anchor="middle" x="340.5" y="-627" font-family="Helvetica,sans-Serif" font-size="10.00">&lt; T, RT &gt;</text>
</a>
</g>
</g>
<!-- Node1&#45;&gt;Node11 -->
<g id="edge10_Node000001_Node000011" class="edge">
<title>Node1&#45;&gt;Node11</title>
<g id="a_edge10_Node000001_Node000011"><a xlink:title=" ">
<path fill="none" stroke="#63b8ff" d="M117.79,-532.37C131.04,-539.8 145.54,-547.81 159,-555 207.39,-580.85 219.99,-586.36 269,-611 274.62,-613.82 280.49,-616.76 286.35,-619.68"/>
<polygon fill="#63b8ff" stroke="#63b8ff" points="119.69,-529.42 109.25,-527.57 116.25,-535.52 119.69,-529.42"/>
</a>
</g>
</g>
<!-- Node12 -->
<g id="Node000012" class="node">
<title>Node12</title>
<g id="a_Node000012"><a xlink:href="struct_harlinn_1_1_common_1_1_core_1_1_persistent_1_1_internal_1_1_pointer_format_traits_base.html" target="_top" xlink:title=" ">
<polygon fill="white" stroke="#666666" points="406,-602 275,-602 275,-550 406,-550 406,-602"/>
<text text-anchor="start" x="283" y="-590" font-family="Helvetica,sans-Serif" font-size="10.00">Harlinn::Common::Core</text>
<text text-anchor="start" x="283" y="-579" font-family="Helvetica,sans-Serif" font-size="10.00">::Persistent::Internal</text>
<text text-anchor="start" x="283" y="-568" font-family="Helvetica,sans-Serif" font-size="10.00">::PointerFormatTraitsBase</text>
<text text-anchor="middle" x="340.5" y="-557" font-family="Helvetica,sans-Serif" font-size="10.00">&lt; T, RT &gt;</text>
</a>
</g>
</g>
<!-- Node1&#45;&gt;Node12 -->
<g id="edge11_Node000001_Node000012" class="edge">
<title>Node1&#45;&gt;Node12</title>
<g id="a_edge11_Node000001_Node000012"><a xlink:title=" ">
<path fill="none" stroke="#63b8ff" d="M152.32,-527.11C191.5,-537.34 237.92,-549.47 274.73,-559.08"/>
<polygon fill="#63b8ff" stroke="#63b8ff" points="153.24,-523.73 142.68,-524.59 151.47,-530.51 153.24,-523.73"/>
</a>
</g>
</g>
<!-- Node15 -->
<g id="Node000015" class="node">
<title>Node15</title>
<g id="a_Node000015"><a xlink:href="struct_harlinn_1_1_common_1_1_core_1_1_persistent_1_1_internal_1_1_shared_ptr_format_traits.html" target="_top" xlink:title=" ">
<polygon fill="white" stroke="#666666" points="401,-532 280,-532 280,-480 401,-480 401,-532"/>
<text text-anchor="start" x="288" y="-520" font-family="Helvetica,sans-Serif" font-size="10.00">Harlinn::Common::Core</text>
<text text-anchor="start" x="288" y="-509" font-family="Helvetica,sans-Serif" font-size="10.00">::Persistent::Internal</text>
<text text-anchor="start" x="288" y="-498" font-family="Helvetica,sans-Serif" font-size="10.00">::SharedPtrFormatTraits</text>
<text text-anchor="middle" x="340.5" y="-487" font-family="Helvetica,sans-Serif" font-size="10.00">&lt; T, RT &gt;</text>
</a>
</g>
</g>
<!-- Node1&#45;&gt;Node15 -->
<g id="edge14_Node000001_Node000015" class="edge">
<title>Node1&#45;&gt;Node15</title>
<g id="a_edge14_Node000001_Node000015"><a xlink:title=" ">
<path fill="none" stroke="#63b8ff" d="M152.53,-506C193.44,-506 242.21,-506 279.68,-506"/>
<polygon fill="#63b8ff" stroke="#63b8ff" points="152.73,-502.5 142.73,-506 152.73,-509.5 152.73,-502.5"/>
</a>
</g>
</g>
<!-- Node16 -->
<g id="Node000016" class="node">
<title>Node16</title>
<g id="a_Node000016"><a xlink:href="struct_harlinn_1_1_common_1_1_core_1_1_persistent_1_1_internal_1_1_tuple_format_traits.html" target="_top" xlink:title=" ">
<polygon fill="white" stroke="#666666" points="411.5,-461.5 269.5,-461.5 269.5,-420.5 411.5,-420.5 411.5,-461.5"/>
<text text-anchor="start" x="277.5" y="-449.5" font-family="Helvetica,sans-Serif" font-size="10.00">Harlinn::Common::Core</text>
<text text-anchor="start" x="277.5" y="-438.5" font-family="Helvetica,sans-Serif" font-size="10.00">::Persistent::Internal</text>
<text text-anchor="middle" x="340.5" y="-427.5" font-family="Helvetica,sans-Serif" font-size="10.00">::TupleFormatTraits&lt; T, RT &gt;</text>
</a>
</g>
</g>
<!-- Node1&#45;&gt;Node16 -->
<g id="edge15_Node000001_Node000016" class="edge">
<title>Node1&#45;&gt;Node16</title>
<g id="a_edge15_Node000001_Node000016"><a xlink:title=" ">
<path fill="none" stroke="#63b8ff" d="M152.05,-486.46C189.35,-477.42 233.26,-466.77 269.2,-458.05"/>
<polygon fill="#63b8ff" stroke="#63b8ff" points="151.58,-482.98 142.69,-488.73 153.23,-489.78 151.58,-482.98"/>
</a>
</g>
</g>
<!-- Node17 -->
<g id="Node000017" class="node">
<title>Node17</title>
<g id="a_Node000017"><a xlink:href="struct_harlinn_1_1_common_1_1_core_1_1_persistent_1_1_internal_1_1_type_list_format_traits.html" target="_top" xlink:title=" ">
<polygon fill="white" stroke="#666666" points="399.5,-402 281.5,-402 281.5,-350 399.5,-350 399.5,-402"/>
<text text-anchor="start" x="289.5" y="-390" font-family="Helvetica,sans-Serif" font-size="10.00">Harlinn::Common::Core</text>
<text text-anchor="start" x="289.5" y="-379" font-family="Helvetica,sans-Serif" font-size="10.00">::Persistent::Internal</text>
<text text-anchor="start" x="289.5" y="-368" font-family="Helvetica,sans-Serif" font-size="10.00">::TypeListFormatTraits</text>
<text text-anchor="middle" x="340.5" y="-357" font-family="Helvetica,sans-Serif" font-size="10.00">&lt; T, RT &gt;</text>
</a>
</g>
</g>
<!-- Node1&#45;&gt;Node17 -->
<g id="edge16_Node000001_Node000017" class="edge">
<title>Node1&#45;&gt;Node17</title>
<g id="a_edge16_Node000001_Node000017"><a xlink:title=" ">
<path fill="none" stroke="#63b8ff" d="M119.16,-479.71C132.01,-472.81 145.97,-465.49 159,-459 199.45,-438.86 245.76,-417.6 281.35,-401.64"/>
<polygon fill="#63b8ff" stroke="#63b8ff" points="117.6,-476.57 110.47,-484.41 120.93,-482.73 117.6,-476.57"/>
</a>
</g>
</g>
<!-- Node18 -->
<g id="Node000018" class="node">
<title>Node18</title>
<g id="a_Node000018"><a xlink:href="struct_harlinn_1_1_common_1_1_core_1_1_persistent_1_1_internal_1_1_unique_ptr_format_traits.html" target="_top" xlink:title=" ">
<polygon fill="white" stroke="#666666" points="400.5,-332 280.5,-332 280.5,-280 400.5,-280 400.5,-332"/>
<text text-anchor="start" x="288.5" y="-320" font-family="Helvetica,sans-Serif" font-size="10.00">Harlinn::Common::Core</text>
<text text-anchor="start" x="288.5" y="-309" font-family="Helvetica,sans-Serif" font-size="10.00">::Persistent::Internal</text>
<text text-anchor="start" x="288.5" y="-298" font-family="Helvetica,sans-Serif" font-size="10.00">::UniquePtrFormatTraits</text>
<text text-anchor="middle" x="340.5" y="-287" font-family="Helvetica,sans-Serif" font-size="10.00">&lt; T, RT &gt;</text>
</a>
</g>
</g>
<!-- Node1&#45;&gt;Node18 -->
<g id="edge17_Node000001_Node000018" class="edge">
<title>Node1&#45;&gt;Node18</title>
<g id="a_edge17_Node000001_Node000018"><a xlink:title=" ">
<path fill="none" stroke="#63b8ff" d="M96.1,-476.42C112.8,-457.24 135.97,-432.3 159,-413 203.78,-375.46 218.3,-370.04 269,-341 274.1,-338.08 279.47,-335.15 284.89,-332.3"/>
<polygon fill="#63b8ff" stroke="#63b8ff" points="93.52,-474.05 89.66,-483.92 98.83,-478.61 93.52,-474.05"/>
</a>
</g>
</g>
<!-- Node19 -->
<g id="Node000019" class="node">
<title>Node19</title>
<g id="a_Node000019"><a xlink:href="struct_harlinn_1_1_common_1_1_core_1_1_persistent_1_1_internal_1_1_unsupported_format_traits.html" target="_top" xlink:title=" ">
<polygon fill="white" stroke="#666666" points="406.5,-262 274.5,-262 274.5,-210 406.5,-210 406.5,-262"/>
<text text-anchor="start" x="282.5" y="-250" font-family="Helvetica,sans-Serif" font-size="10.00">Harlinn::Common::Core</text>
<text text-anchor="start" x="282.5" y="-239" font-family="Helvetica,sans-Serif" font-size="10.00">::Persistent::Internal</text>
<text text-anchor="start" x="282.5" y="-228" font-family="Helvetica,sans-Serif" font-size="10.00">::UnsupportedFormatTraits</text>
<text text-anchor="middle" x="340.5" y="-217" font-family="Helvetica,sans-Serif" font-size="10.00">&lt; T, RT &gt;</text>
</a>
</g>
</g>
<!-- Node1&#45;&gt;Node19 -->
<g id="edge18_Node000001_Node000019" class="edge">
<title>Node1&#45;&gt;Node19</title>
<g id="a_edge18_Node000001_Node000019"><a xlink:title=" ">
<path fill="none" stroke="#63b8ff" d="M83.56,-474.71C97.83,-440.56 124.12,-385.61 159,-347 192.17,-310.28 240.31,-281.51 278.53,-262.46"/>
<polygon fill="#63b8ff" stroke="#63b8ff" points="80.47,-473.04 79.93,-483.62 86.95,-475.69 80.47,-473.04"/>
</a>
</g>
</g>
<!-- Node20 -->
<g id="Node000020" class="node">
<title>Node20</title>
<g id="a_Node000020"><a xlink:href="struct_harlinn_1_1_common_1_1_core_1_1_persistent_1_1_internal_1_1_variant_format_traits.html" target="_top" xlink:title=" ">
<polygon fill="white" stroke="#666666" points="399.5,-192 281.5,-192 281.5,-140 399.5,-140 399.5,-192"/>
<text text-anchor="start" x="289.5" y="-180" font-family="Helvetica,sans-Serif" font-size="10.00">Harlinn::Common::Core</text>
<text text-anchor="start" x="289.5" y="-169" font-family="Helvetica,sans-Serif" font-size="10.00">::Persistent::Internal</text>
<text text-anchor="start" x="289.5" y="-158" font-family="Helvetica,sans-Serif" font-size="10.00">::VariantFormatTraits&lt;</text>
<text text-anchor="middle" x="340.5" y="-147" font-family="Helvetica,sans-Serif" font-size="10.00"> T, RT &gt;</text>
</a>
</g>
</g>
<!-- Node1&#45;&gt;Node20 -->
<g id="edge19_Node000001_Node000020" class="edge">
<title>Node1&#45;&gt;Node20</title>
<g id="a_edge19_Node000001_Node000020"><a xlink:title=" ">
<path fill="none" stroke="#63b8ff" d="M76.95,-473.93C86.46,-425.86 109.95,-334.25 159,-273 190.77,-233.33 241.51,-205.12 281.12,-187.66"/>
<polygon fill="#63b8ff" stroke="#63b8ff" points="73.52,-473.2 75.1,-483.68 80.4,-474.5 73.52,-473.2"/>
</a>
</g>
</g>
<!-- Node21 -->
<g id="Node000021" class="node">
<title>Node21</title>
<g id="a_Node000021"><a xlink:href="struct_harlinn_1_1_common_1_1_core_1_1_persistent_1_1_internal_1_1_format_traits_base.html" target="_top" xlink:title=" ">
<polygon fill="white" stroke="#666666" points="406.5,-122 274.5,-122 274.5,-70 406.5,-70 406.5,-122"/>
<text text-anchor="start" x="282.5" y="-110" font-family="Helvetica,sans-Serif" font-size="10.00">Harlinn::Common::Core</text>
<text text-anchor="start" x="282.5" y="-99" font-family="Helvetica,sans-Serif" font-size="10.00">::Persistent::Internal</text>
<text text-anchor="start" x="282.5" y="-88" font-family="Helvetica,sans-Serif" font-size="10.00">::FormatTraitsBase&lt; Tuple</text>
<text text-anchor="middle" x="340.5" y="-77" font-family="Helvetica,sans-Serif" font-size="10.00">&lt;&gt;, RT &gt;</text>
</a>
</g>
</g>
<!-- Node1&#45;&gt;Node21 -->
<g id="edge20_Node000001_Node000021" class="edge">
<title>Node1&#45;&gt;Node21</title>
<g id="a_edge20_Node000001_Node000021"><a xlink:title=" ">
<path fill="none" stroke="orange" stroke-dasharray="5,2" d="M72.13,-473.88C74.95,-411.86 89.24,-274.15 159,-188 188.22,-151.92 235.29,-128.58 274.04,-114.45"/>
<polygon fill="orange" stroke="orange" points="68.64,-473.6 71.76,-483.72 75.63,-473.86 68.64,-473.6"/>
</a>
</g>
<text text-anchor="middle" x="205" y="-191" font-family="Helvetica,sans-Serif" font-size="10.00" fill="grey"> &lt; Tuple&lt;&gt;, RT &gt;</text>
</g>
<!-- Node23 -->
<g id="Node000023" class="node">
<title>Node23</title>
<g id="a_Node000023"><a xlink:href="struct_harlinn_1_1_common_1_1_core_1_1_persistent_1_1_internal_1_1_format_traits_base.html" target="_top" xlink:title=" ">
<polygon fill="white" stroke="#666666" points="401.5,-52 279.5,-52 279.5,0 401.5,0 401.5,-52"/>
<text text-anchor="start" x="287.5" y="-40" font-family="Helvetica,sans-Serif" font-size="10.00">Harlinn::Common::Core</text>
<text text-anchor="start" x="287.5" y="-29" font-family="Helvetica,sans-Serif" font-size="10.00">::Persistent::Internal</text>
<text text-anchor="start" x="287.5" y="-18" font-family="Helvetica,sans-Serif" font-size="10.00">::FormatTraitsBase&lt; std</text>
<text text-anchor="middle" x="340.5" y="-7" font-family="Helvetica,sans-Serif" font-size="10.00">::tuple&lt;&gt;, RT &gt;</text>
</a>
</g>
</g>
<!-- Node1&#45;&gt;Node23 -->
<g id="edge22_Node000001_Node000023" class="edge">
<title>Node1&#45;&gt;Node23</title>
<g id="a_edge22_Node000001_Node000023"><a xlink:title=" ">
<path fill="none" stroke="orange" stroke-dasharray="5,2" d="M74.93,-473.78C84.44,-389.78 113.48,-166.72 159,-110 188.96,-72.67 239.34,-51.14 279.27,-39.25"/>
<polygon fill="orange" stroke="orange" points="71.47,-473.29 73.84,-483.62 78.42,-474.07 71.47,-473.29"/>
</a>
</g>
<text text-anchor="middle" x="205" y="-113" font-family="Helvetica,sans-Serif" font-size="10.00" fill="grey"> &lt; std::tuple&lt;&gt;, RT &gt;</text>
</g>
<!-- Node4 -->
<g id="Node000004" class="node">
<title>Node4</title>
<g id="a_Node000004"><a xlink:href="struct_harlinn_1_1_common_1_1_core_1_1_persistent_1_1_internal_1_1_array_format_traits.html" target="_top" xlink:title=" ">
<polygon fill="white" stroke="#666666" points="594,-936.5 452,-936.5 452,-895.5 594,-895.5 594,-936.5"/>
<text text-anchor="start" x="460" y="-924.5" font-family="Helvetica,sans-Serif" font-size="10.00">Harlinn::Common::Core</text>
<text text-anchor="start" x="460" y="-913.5" font-family="Helvetica,sans-Serif" font-size="10.00">::Persistent::Internal</text>
<text text-anchor="middle" x="523" y="-902.5" font-family="Helvetica,sans-Serif" font-size="10.00">::ArrayFormatTraits&lt; T, RT &gt;</text>
</a>
</g>
</g>
<!-- Node3&#45;&gt;Node4 -->
<g id="edge3_Node000003_Node000004" class="edge">
<title>Node3&#45;&gt;Node4</title>
<g id="a_edge3_Node000003_Node000004"><a xlink:title=" ">
<path fill="none" stroke="#63b8ff" d="M414.83,-916C426.94,-916 439.48,-916 451.53,-916"/>
<polygon fill="#63b8ff" stroke="#63b8ff" points="414.88,-912.5 404.88,-916 414.88,-919.5 414.88,-912.5"/>
</a>
</g>
</g>
<!-- Node8 -->
<g id="Node000008" class="node">
<title>Node8</title>
<g id="a_Node000008"><a xlink:href="struct_harlinn_1_1_common_1_1_core_1_1_persistent_1_1_internal_1_1_array_container_format_traits.html" target="_top" xlink:title=" ">
<polygon fill="white" stroke="#666666" points="594,-812 452,-812 452,-760 594,-760 594,-812"/>
<text text-anchor="start" x="460" y="-800" font-family="Helvetica,sans-Serif" font-size="10.00">Harlinn::Common::Core</text>
<text text-anchor="start" x="460" y="-789" font-family="Helvetica,sans-Serif" font-size="10.00">::Persistent::Internal</text>
<text text-anchor="start" x="460" y="-778" font-family="Helvetica,sans-Serif" font-size="10.00">::ArrayContainerFormatTraits</text>
<text text-anchor="middle" x="523" y="-767" font-family="Helvetica,sans-Serif" font-size="10.00">&lt; T, RT &gt;</text>
</a>
</g>
</g>
<!-- Node7&#45;&gt;Node8 -->
<g id="edge7_Node000007_Node000008" class="edge">
<title>Node7&#45;&gt;Node8</title>
<g id="a_edge7_Node000007_Node000008"><a xlink:title=" ">
<path fill="none" stroke="#63b8ff" d="M420.38,-746.59C431.57,-750.93 443,-755.36 453.96,-759.61"/>
<polygon fill="#63b8ff" stroke="#63b8ff" points="421.74,-743.36 411.15,-743.01 419.21,-749.89 421.74,-743.36"/>
</a>
</g>
</g>
<!-- Node9 -->
<g id="Node000009" class="node">
<title>Node9</title>
<g id="a_Node000009"><a xlink:href="struct_harlinn_1_1_common_1_1_core_1_1_persistent_1_1_internal_1_1_string_container_format_traits.html" target="_top" xlink:title=" ">
<polygon fill="white" stroke="#666666" points="595,-742 451,-742 451,-690 595,-690 595,-742"/>
<text text-anchor="start" x="459" y="-730" font-family="Helvetica,sans-Serif" font-size="10.00">Harlinn::Common::Core</text>
<text text-anchor="start" x="459" y="-719" font-family="Helvetica,sans-Serif" font-size="10.00">::Persistent::Internal</text>
<text text-anchor="start" x="459" y="-708" font-family="Helvetica,sans-Serif" font-size="10.00">::StringContainerFormatTraits</text>
<text text-anchor="middle" x="523" y="-697" font-family="Helvetica,sans-Serif" font-size="10.00">&lt; T, RT &gt;</text>
</a>
</g>
</g>
<!-- Node7&#45;&gt;Node9 -->
<g id="edge8_Node000007_Node000009" class="edge">
<title>Node7&#45;&gt;Node9</title>
<g id="a_edge8_Node000007_Node000009"><a xlink:title=" ">
<path fill="none" stroke="#63b8ff" d="M422.59,-716C431.93,-716 441.41,-716 450.61,-716"/>
<polygon fill="#63b8ff" stroke="#63b8ff" points="422.8,-712.5 412.8,-716 422.8,-719.5 422.8,-712.5"/>
</a>
</g>
</g>
<!-- Node10 -->
<g id="Node000010" class="node">
<title>Node10</title>
<g id="a_Node000010"><a xlink:href="struct_harlinn_1_1_common_1_1_core_1_1_persistent_1_1_internal_1_1_vector_container_format_traits.html" target="_top" xlink:title=" ">
<polygon fill="white" stroke="#666666" points="596.5,-672 449.5,-672 449.5,-620 596.5,-620 596.5,-672"/>
<text text-anchor="start" x="457.5" y="-660" font-family="Helvetica,sans-Serif" font-size="10.00">Harlinn::Common::Core</text>
<text text-anchor="start" x="457.5" y="-649" font-family="Helvetica,sans-Serif" font-size="10.00">::Persistent::Internal</text>
<text text-anchor="start" x="457.5" y="-638" font-family="Helvetica,sans-Serif" font-size="10.00">::VectorContainerFormatTraits</text>
<text text-anchor="middle" x="523" y="-627" font-family="Helvetica,sans-Serif" font-size="10.00">&lt; T, RT &gt;</text>
</a>
</g>
</g>
<!-- Node7&#45;&gt;Node10 -->
<g id="edge9_Node000007_Node000010" class="edge">
<title>Node7&#45;&gt;Node10</title>
<g id="a_edge9_Node000007_Node000010"><a xlink:title=" ">
<path fill="none" stroke="#63b8ff" d="M420.38,-685.41C431.57,-681.07 443,-676.64 453.96,-672.39"/>
<polygon fill="#63b8ff" stroke="#63b8ff" points="419.21,-682.11 411.15,-688.99 421.74,-688.64 419.21,-682.11"/>
</a>
</g>
</g>
<!-- Node13 -->
<g id="Node000013" class="node">
<title>Node13</title>
<g id="a_Node000013"><a xlink:href="struct_harlinn_1_1_common_1_1_core_1_1_persistent_1_1_internal_1_1_string_pointer_format_traits.html" target="_top" xlink:title=" ">
<polygon fill="white" stroke="#666666" points="590,-602 456,-602 456,-550 590,-550 590,-602"/>
<text text-anchor="start" x="464" y="-590" font-family="Helvetica,sans-Serif" font-size="10.00">Harlinn::Common::Core</text>
<text text-anchor="start" x="464" y="-579" font-family="Helvetica,sans-Serif" font-size="10.00">::Persistent::Internal</text>
<text text-anchor="start" x="464" y="-568" font-family="Helvetica,sans-Serif" font-size="10.00">::StringPointerFormatTraits</text>
<text text-anchor="middle" x="523" y="-557" font-family="Helvetica,sans-Serif" font-size="10.00">&lt; T, RT &gt;</text>
</a>
</g>
</g>
<!-- Node12&#45;&gt;Node13 -->
<g id="edge12_Node000012_Node000013" class="edge">
<title>Node12&#45;&gt;Node13</title>
<g id="a_edge12_Node000012_Node000013"><a xlink:title=" ">
<path fill="none" stroke="#63b8ff" d="M417.8,-576C430.34,-576 443.26,-576 455.54,-576"/>
<polygon fill="#63b8ff" stroke="#63b8ff" points="417.92,-572.5 407.92,-576 417.92,-579.5 417.92,-572.5"/>
</a>
</g>
</g>
<!-- Node14 -->
<g id="Node000014" class="node">
<title>Node14</title>
<g id="a_Node000014"><a xlink:href="struct_harlinn_1_1_common_1_1_core_1_1_persistent_1_1_internal_1_1_unknown_pointer_format_traits.html" target="_top" xlink:title=" ">
<polygon fill="white" stroke="#666666" points="597,-532 449,-532 449,-480 597,-480 597,-532"/>
<text text-anchor="start" x="457" y="-520" font-family="Helvetica,sans-Serif" font-size="10.00">Harlinn::Common::Core</text>
<text text-anchor="start" x="457" y="-509" font-family="Helvetica,sans-Serif" font-size="10.00">::Persistent::Internal</text>
<text text-anchor="start" x="457" y="-498" font-family="Helvetica,sans-Serif" font-size="10.00">::UnknownPointerFormatTraits</text>
<text text-anchor="middle" x="523" y="-487" font-family="Helvetica,sans-Serif" font-size="10.00">&lt; T, RT &gt;</text>
</a>
</g>
</g>
<!-- Node12&#45;&gt;Node14 -->
<g id="edge13_Node000012_Node000014" class="edge">
<title>Node12&#45;&gt;Node14</title>
<g id="a_edge13_Node000012_Node000014"><a xlink:title=" ">
<path fill="none" stroke="#63b8ff" d="M416.99,-546.72C429.17,-542 441.71,-537.14 453.71,-532.48"/>
<polygon fill="#63b8ff" stroke="#63b8ff" points="415.88,-543.4 407.82,-550.28 418.41,-549.93 415.88,-543.4"/>
</a>
</g>
</g>
<!-- Node22 -->
<g id="Node000022" class="node">
<title>Node22</title>
<g id="a_Node000022"><a xlink:href="struct_harlinn_1_1_common_1_1_core_1_1_persistent_1_1_internal_1_1_tuple_format_traits_3_01_tuple_3_4_00_01_r_t_01_4.html" target="_top" xlink:title=" ">
<polygon fill="white" stroke="#666666" points="589.5,-122 456.5,-122 456.5,-70 589.5,-70 589.5,-122"/>
<text text-anchor="start" x="464.5" y="-110" font-family="Helvetica,sans-Serif" font-size="10.00">Harlinn::Common::Core</text>
<text text-anchor="start" x="464.5" y="-99" font-family="Helvetica,sans-Serif" font-size="10.00">::Persistent::Internal</text>
<text text-anchor="start" x="464.5" y="-88" font-family="Helvetica,sans-Serif" font-size="10.00">::TupleFormatTraits&lt; Tuple</text>
<text text-anchor="middle" x="523" y="-77" font-family="Helvetica,sans-Serif" font-size="10.00">&lt;&gt;, RT &gt;</text>
</a>
</g>
</g>
<!-- Node21&#45;&gt;Node22 -->
<g id="edge21_Node000021_Node000022" class="edge">
<title>Node21&#45;&gt;Node22</title>
<g id="a_edge21_Node000021_Node000022"><a xlink:title=" ">
<path fill="none" stroke="#63b8ff" d="M418.36,-96C430.95,-96 443.9,-96 456.2,-96"/>
<polygon fill="#63b8ff" stroke="#63b8ff" points="418.43,-92.5 408.43,-96 418.43,-99.5 418.43,-92.5"/>
</a>
</g>
</g>
<!-- Node24 -->
<g id="Node000024" class="node">
<title>Node24</title>
<g id="a_Node000024"><a xlink:href="struct_harlinn_1_1_common_1_1_core_1_1_persistent_1_1_internal_1_1_tuple_format_traits_3_01std_1_1tuple_3_4_00_01_r_t_01_4.html" target="_top" xlink:title=" ">
<polygon fill="white" stroke="#666666" points="584.5,-52 461.5,-52 461.5,0 584.5,0 584.5,-52"/>
<text text-anchor="start" x="469.5" y="-40" font-family="Helvetica,sans-Serif" font-size="10.00">Harlinn::Common::Core</text>
<text text-anchor="start" x="469.5" y="-29" font-family="Helvetica,sans-Serif" font-size="10.00">::Persistent::Internal</text>
<text text-anchor="start" x="469.5" y="-18" font-family="Helvetica,sans-Serif" font-size="10.00">::TupleFormatTraits&lt; std</text>
<text text-anchor="middle" x="523" y="-7" font-family="Helvetica,sans-Serif" font-size="10.00">::tuple&lt;&gt;, RT &gt;</text>
</a>
</g>
</g>
<!-- Node23&#45;&gt;Node24 -->
<g id="edge23_Node000023_Node000024" class="edge">
<title>Node23&#45;&gt;Node24</title>
<g id="a_edge23_Node000023_Node000024"><a xlink:title=" ">
<path fill="none" stroke="#63b8ff" d="M413.22,-26C429.07,-26 445.72,-26 461.09,-26"/>
<polygon fill="#63b8ff" stroke="#63b8ff" points="413.37,-22.5 403.37,-26 413.37,-29.5 413.37,-22.5"/>
</a>
</g>
</g>
</g>
</svg>
