<?xml version="1.0" encoding="UTF-8" standalone="no"?>
<!DOCTYPE svg PUBLIC "-//W3C//DTD SVG 1.1//EN"
 "http://www.w3.org/Graphics/SVG/1.1/DTD/svg11.dtd">
<!-- Generated by graphviz version 7.0.1 (20221109.1506)
 -->
<!-- Title: Harlinn::Windows::Graphics::D3D12::SerializedDataDriverMatchingIdentifier Pages: 1 -->
<svg width="309pt" height="269pt"
 viewBox="0.00 0.00 309.00 269.00" xmlns="http://www.w3.org/2000/svg" xmlns:xlink="http://www.w3.org/1999/xlink">
<g id="graph0" class="graph" transform="scale(1 1) rotate(0) translate(4 265)">
<title>Harlinn::Windows::Graphics::D3D12::SerializedDataDriverMatchingIdentifier</title>
<!-- Node1 -->
<g id="Node000001" class="node">
<title>Node1</title>
<g id="a_Node000001"><a xlink:title=" ">
<polygon fill="#999999" stroke="#666666" points="219.5,-41 34.5,-41 34.5,0 219.5,0 219.5,-41"/>
<text text-anchor="start" x="42.5" y="-29" font-family="Helvetica,sans-Serif" font-size="10.00">Harlinn::Windows::Graphics</text>
<text text-anchor="start" x="42.5" y="-18" font-family="Helvetica,sans-Serif" font-size="10.00">::D3D12::SerializedDataDriverMatching</text>
<text text-anchor="middle" x="127" y="-7" font-family="Helvetica,sans-Serif" font-size="10.00">Identifier</text>
</a>
</g>
</g>
<!-- Node2 -->
<g id="Node000002" class="node">
<title>Node2</title>
<g id="a_Node000002"><a xlink:href="class_harlinn_1_1_common_1_1_core_1_1_guid.html" target="_top" xlink:title="Represents a globally unique identifier (GUID).">
<polygon fill="white" stroke="#666666" points="118,-118 0,-118 0,-88 118,-88 118,-118"/>
<text text-anchor="start" x="8" y="-106" font-family="Helvetica,sans-Serif" font-size="10.00">Harlinn::Common::Core</text>
<text text-anchor="middle" x="59" y="-95" font-family="Helvetica,sans-Serif" font-size="10.00">::Guid</text>
</a>
</g>
</g>
<!-- Node2&#45;&gt;Node1 -->
<g id="edge1_Node000001_Node000002" class="edge">
<title>Node2&#45;&gt;Node1</title>
<g id="a_edge1_Node000001_Node000002"><a xlink:title=" ">
<path fill="none" stroke="#9a32cd" stroke-dasharray="5,2" d="M69.39,-77.39C72.63,-71.08 76.54,-64.51 81,-59 86.18,-52.59 92.62,-46.52 99.02,-41.21"/>
<polygon fill="#9a32cd" stroke="#9a32cd" points="66.34,-75.66 65.23,-86.2 72.67,-78.65 66.34,-75.66"/>
</a>
</g>
<text text-anchor="middle" x="123.5" y="-62" font-family="Helvetica,sans-Serif" font-size="10.00" fill="grey"> DriverOpaqueGUID</text>
</g>
<!-- Node3 -->
<g id="Node000003" class="node">
<title>Node3</title>
<g id="a_Node000003"><a xlink:href="struct_harlinn_1_1_common_1_1_core_1_1_guid_1_1_data_t.html" target="_top" xlink:title=" ">
<polygon fill="white" stroke="#666666" points="118,-195 0,-195 0,-165 118,-165 118,-195"/>
<text text-anchor="start" x="8" y="-183" font-family="Helvetica,sans-Serif" font-size="10.00">Harlinn::Common::Core</text>
<text text-anchor="middle" x="59" y="-172" font-family="Helvetica,sans-Serif" font-size="10.00">::Guid::DataT</text>
</a>
</g>
</g>
<!-- Node3&#45;&gt;Node2 -->
<g id="edge2_Node000002_Node000003" class="edge">
<title>Node3&#45;&gt;Node2</title>
<g id="a_edge2_Node000002_Node000003"><a xlink:title=" ">
<path fill="none" stroke="#9a32cd" stroke-dasharray="5,2" d="M59,-153.23C59,-141.58 59,-128.26 59,-118.42"/>
<polygon fill="#9a32cd" stroke="#9a32cd" points="55.5,-153.03 59,-163.03 62.5,-153.03 55.5,-153.03"/>
</a>
</g>
<text text-anchor="middle" x="73" y="-139" font-family="Helvetica,sans-Serif" font-size="10.00" fill="grey"> data_</text>
</g>
<!-- Node4 -->
<g id="Node000004" class="node">
<title>Node4</title>
<g id="a_Node000004"><a xlink:title=" ">
<polygon fill="white" stroke="#666666" points="79,-261 39,-261 39,-242 79,-242 79,-261"/>
<text text-anchor="middle" x="59" y="-249" font-family="Helvetica,sans-Serif" font-size="10.00">GUID</text>
</a>
</g>
</g>
<!-- Node4&#45;&gt;Node3 -->
<g id="edge3_Node000003_Node000004" class="edge">
<title>Node4&#45;&gt;Node3</title>
<g id="a_edge3_Node000003_Node000004"><a xlink:title=" ">
<path fill="none" stroke="#63b8ff" d="M59,-230.39C59,-219.15 59,-205.41 59,-195.27"/>
<polygon fill="#63b8ff" stroke="#63b8ff" points="55.5,-230.18 59,-240.18 62.5,-230.18 55.5,-230.18"/>
</a>
</g>
</g>
<!-- Node5 -->
<g id="Node000005" class="node">
<title>Node5</title>
<g id="a_Node000005"><a xlink:title=" ">
<polygon fill="white" stroke="#666666" points="254,-112.5 136,-112.5 136,-93.5 254,-93.5 254,-112.5"/>
<text text-anchor="middle" x="195" y="-100.5" font-family="Helvetica,sans-Serif" font-size="10.00">std::array&lt; BYTE, 16 &gt;</text>
</a>
</g>
</g>
<!-- Node5&#45;&gt;Node1 -->
<g id="edge4_Node000001_Node000005" class="edge">
<title>Node5&#45;&gt;Node1</title>
<g id="a_edge4_Node000001_Node000005"><a xlink:title=" ">
<path fill="none" stroke="#9a32cd" stroke-dasharray="5,2" d="M183.68,-83.39C178.63,-75.59 172.37,-66.58 166,-59 160.92,-52.96 154.98,-46.85 149.28,-41.36"/>
<polygon fill="#9a32cd" stroke="#9a32cd" points="180.65,-85.15 188.93,-91.76 186.58,-81.43 180.65,-85.15"/>
</a>
</g>
<text text-anchor="middle" x="237.5" y="-62" font-family="Helvetica,sans-Serif" font-size="10.00" fill="grey"> DriverOpaqueVersioningData</text>
</g>
<!-- Node6 -->
<g id="Node000006" class="node">
<title>Node6</title>
<g id="a_Node000006"><a xlink:title=" ">
<polygon fill="white" stroke="#666666" points="235.5,-189.5 154.5,-189.5 154.5,-170.5 235.5,-170.5 235.5,-189.5"/>
<text text-anchor="middle" x="195" y="-177.5" font-family="Helvetica,sans-Serif" font-size="10.00">std::array&lt; T &gt;</text>
</a>
</g>
</g>
<!-- Node6&#45;&gt;Node5 -->
<g id="edge5_Node000005_Node000006" class="edge">
<title>Node6&#45;&gt;Node5</title>
<g id="a_edge5_Node000005_Node000006"><a xlink:title=" ">
<path fill="none" stroke="orange" stroke-dasharray="5,2" d="M195,-158.92C195,-143.93 195,-124.16 195,-112.89"/>
<polygon fill="orange" stroke="orange" points="191.5,-158.59 195,-168.59 198.5,-158.59 191.5,-158.59"/>
</a>
</g>
<text text-anchor="middle" x="227" y="-139" font-family="Helvetica,sans-Serif" font-size="10.00" fill="grey"> &lt; BYTE, 16 &gt;</text>
</g>
<!-- Node7 -->
<g id="Node000007" class="node">
<title>Node7</title>
<g id="a_Node000007"><a xlink:title=" ">
<polygon fill="white" stroke="#666666" points="209.5,-261 180.5,-261 180.5,-242 209.5,-242 209.5,-261"/>
<text text-anchor="middle" x="195" y="-249" font-family="Helvetica,sans-Serif" font-size="10.00">T</text>
</a>
</g>
</g>
<!-- Node7&#45;&gt;Node6 -->
<g id="edge6_Node000006_Node000007" class="edge">
<title>Node7&#45;&gt;Node6</title>
<g id="a_edge6_Node000006_Node000007"><a xlink:title=" ">
<path fill="none" stroke="#9a32cd" stroke-dasharray="5,2" d="M195,-230.3C195,-216.94 195,-200.09 195,-189.95"/>
<polygon fill="#9a32cd" stroke="#9a32cd" points="191.5,-230.18 195,-240.18 198.5,-230.18 191.5,-230.18"/>
</a>
</g>
<text text-anchor="middle" x="216.5" y="-216" font-family="Helvetica,sans-Serif" font-size="10.00" fill="grey"> elements</text>
</g>
</g>
</svg>
