<?xml version="1.0" encoding="UTF-8" standalone="no"?>
<!DOCTYPE svg PUBLIC "-//W3C//DTD SVG 1.1//EN"
 "http://www.w3.org/Graphics/SVG/1.1/DTD/svg11.dtd">
<!-- Generated by graphviz version 7.0.1 (20221109.1506)
 -->
<!-- Title: Harlinn::AI::DML::X::Internal::ConstantNode Pages: 1 -->
<svg width="226pt" height="247pt"
 viewBox="0.00 0.00 225.50 247.00" xmlns="http://www.w3.org/2000/svg" xmlns:xlink="http://www.w3.org/1999/xlink">
<g id="graph0" class="graph" transform="scale(1 1) rotate(0) translate(4 243)">
<title>Harlinn::AI::DML::X::Internal::ConstantNode</title>
<!-- Node1 -->
<g id="Node000001" class="node">
<title>Node1</title>
<g id="a_Node000001"><a xlink:title=" ">
<polygon fill="#999999" stroke="#666666" points="176,-30 54,-30 54,0 176,0 176,-30"/>
<text text-anchor="start" x="62" y="-18" font-family="Helvetica,sans-Serif" font-size="10.00">Harlinn::AI::DML::X</text>
<text text-anchor="middle" x="115" y="-7" font-family="Helvetica,sans-Serif" font-size="10.00">::Internal::ConstantNode</text>
</a>
</g>
</g>
<!-- Node2 -->
<g id="Node000002" class="node">
<title>Node2</title>
<g id="a_Node000002"><a xlink:title=" ">
<polygon fill="white" stroke="#666666" points="122,-96 0,-96 0,-77 122,-77 122,-96"/>
<text text-anchor="middle" x="61" y="-84" font-family="Helvetica,sans-Serif" font-size="10.00">std::span&lt; const Byte &gt;</text>
</a>
</g>
</g>
<!-- Node2&#45;&gt;Node1 -->
<g id="edge1_Node000001_Node000002" class="edge">
<title>Node2&#45;&gt;Node1</title>
<g id="a_edge1_Node000001_Node000002"><a xlink:title=" ">
<path fill="none" stroke="#9a32cd" stroke-dasharray="5,2" d="M74.68,-67.89C83.73,-56.24 95.44,-41.17 103.91,-30.27"/>
<polygon fill="#9a32cd" stroke="#9a32cd" points="72.14,-65.46 68.77,-75.5 77.67,-69.75 72.14,-65.46"/>
</a>
</g>
<text text-anchor="middle" x="101" y="-51" font-family="Helvetica,sans-Serif" font-size="10.00" fill="grey"> data</text>
</g>
<!-- Node3 -->
<g id="Node000003" class="node">
<title>Node3</title>
<g id="a_Node000003"><a xlink:title=" ">
<polygon fill="white" stroke="#666666" points="101,-167.5 21,-167.5 21,-148.5 101,-148.5 101,-167.5"/>
<text text-anchor="middle" x="61" y="-155.5" font-family="Helvetica,sans-Serif" font-size="10.00">std::span&lt; T &gt;</text>
</a>
</g>
</g>
<!-- Node3&#45;&gt;Node2 -->
<g id="edge2_Node000002_Node000003" class="edge">
<title>Node3&#45;&gt;Node2</title>
<g id="a_edge2_Node000002_Node000003"><a xlink:title=" ">
<path fill="none" stroke="orange" stroke-dasharray="5,2" d="M61,-136.8C61,-123.44 61,-106.59 61,-96.45"/>
<polygon fill="orange" stroke="orange" points="57.5,-136.68 61,-146.68 64.5,-136.68 57.5,-136.68"/>
</a>
</g>
<text text-anchor="middle" x="95.5" y="-117" font-family="Helvetica,sans-Serif" font-size="10.00" fill="grey"> &lt; const Byte &gt;</text>
</g>
<!-- Node4 -->
<g id="Node000004" class="node">
<title>Node4</title>
<g id="a_Node000004"><a xlink:title=" ">
<polygon fill="white" stroke="#666666" points="75.5,-239 46.5,-239 46.5,-220 75.5,-220 75.5,-239"/>
<text text-anchor="middle" x="61" y="-227" font-family="Helvetica,sans-Serif" font-size="10.00">T</text>
</a>
</g>
</g>
<!-- Node4&#45;&gt;Node3 -->
<g id="edge3_Node000003_Node000004" class="edge">
<title>Node4&#45;&gt;Node3</title>
<g id="a_edge3_Node000003_Node000004"><a xlink:title=" ">
<path fill="none" stroke="#9a32cd" stroke-dasharray="5,2" d="M61,-208.3C61,-194.94 61,-178.09 61,-167.95"/>
<polygon fill="#9a32cd" stroke="#9a32cd" points="57.5,-208.18 61,-218.18 64.5,-208.18 57.5,-208.18"/>
</a>
</g>
<text text-anchor="middle" x="82.5" y="-194" font-family="Helvetica,sans-Serif" font-size="10.00" fill="grey"> elements</text>
</g>
<!-- Node5 -->
<g id="Node000005" class="node">
<title>Node5</title>
<g id="a_Node000005"><a xlink:title=" ">
<polygon fill="white" stroke="#666666" points="200,-96 140,-96 140,-77 200,-77 200,-96"/>
<text text-anchor="middle" x="170" y="-84" font-family="Helvetica,sans-Serif" font-size="10.00">std::string</text>
</a>
</g>
</g>
<!-- Node5&#45;&gt;Node1 -->
<g id="edge4_Node000001_Node000005" class="edge">
<title>Node5&#45;&gt;Node1</title>
<g id="a_edge4_Node000001_Node000005"><a xlink:title=" ">
<path fill="none" stroke="#9a32cd" stroke-dasharray="5,2" d="M156.06,-67.89C146.85,-56.24 134.92,-41.17 126.3,-30.27"/>
<polygon fill="#9a32cd" stroke="#9a32cd" points="153.14,-69.84 162.09,-75.51 158.63,-65.5 153.14,-69.84"/>
</a>
</g>
<text text-anchor="middle" x="162" y="-51" font-family="Helvetica,sans-Serif" font-size="10.00" fill="grey"> name</text>
</g>
<!-- Node6 -->
<g id="Node000006" class="node">
<title>Node6</title>
<g id="a_Node000006"><a xlink:title=" ">
<polygon fill="white" stroke="#666666" points="217.5,-173 122.5,-173 122.5,-143 217.5,-143 217.5,-173"/>
<text text-anchor="start" x="130.5" y="-161" font-family="Helvetica,sans-Serif" font-size="10.00">std::basic_string&lt;</text>
<text text-anchor="middle" x="170" y="-150" font-family="Helvetica,sans-Serif" font-size="10.00"> Char &gt;</text>
</a>
</g>
</g>
<!-- Node6&#45;&gt;Node5 -->
<g id="edge5_Node000005_Node000006" class="edge">
<title>Node6&#45;&gt;Node5</title>
<g id="a_edge5_Node000005_Node000006"><a xlink:title=" ">
<path fill="none" stroke="#63b8ff" d="M170,-131.46C170,-119.07 170,-104.99 170,-96.18"/>
<polygon fill="#63b8ff" stroke="#63b8ff" points="166.5,-131.09 170,-141.09 173.5,-131.09 166.5,-131.09"/>
</a>
</g>
</g>
</g>
</svg>
