<?xml version="1.0" encoding="UTF-8" standalone="no"?>
<!DOCTYPE svg PUBLIC "-//W3C//DTD SVG 1.1//EN"
 "http://www.w3.org/Graphics/SVG/1.1/DTD/svg11.dtd">
<!-- Generated by graphviz version 7.0.1 (20221109.1506)
 -->
<!-- Title: Harlinn::Common::Core::Types::Internal::BasicTypeTraits&lt; Currency, RT &gt; Pages: 1 -->
<svg width="894pt" height="108pt"
 viewBox="0.00 0.00 894.00 108.00" xmlns="http://www.w3.org/2000/svg" xmlns:xlink="http://www.w3.org/1999/xlink">
<g id="graph0" class="graph" transform="scale(1 1) rotate(0) translate(4 104)">
<title>Harlinn::Common::Core::Types::Internal::BasicTypeTraits&lt; Currency, RT &gt;</title>
<!-- Node1 -->
<g id="Node000001" class="node">
<title>Node1</title>
<g id="a_Node000001"><a xlink:title=" ">
<polygon fill="#999999" stroke="#666666" points="886,-70 748,-70 748,-29 886,-29 886,-70"/>
<text text-anchor="start" x="756" y="-58" font-family="Helvetica,sans-Serif" font-size="10.00">Harlinn::Common::Core</text>
<text text-anchor="start" x="756" y="-47" font-family="Helvetica,sans-Serif" font-size="10.00">::Types::Internal::BasicType</text>
<text text-anchor="middle" x="817" y="-36" font-family="Helvetica,sans-Serif" font-size="10.00">Traits&lt; Currency, RT &gt;</text>
</a>
</g>
</g>
<!-- Node2 -->
<g id="Node000002" class="node">
<title>Node2</title>
<g id="a_Node000002"><a xlink:href="struct_harlinn_1_1_common_1_1_core_1_1_types_1_1_internal_1_1_basic_type_traits_base.xhtml" target="_top" xlink:title=" ">
<polygon fill="white" stroke="#666666" points="711,-75.5 541,-75.5 541,-23.5 711,-23.5 711,-75.5"/>
<text text-anchor="start" x="549" y="-63.5" font-family="Helvetica,sans-Serif" font-size="10.00">Harlinn::Common::Core</text>
<text text-anchor="start" x="549" y="-52.5" font-family="Helvetica,sans-Serif" font-size="10.00">::Types::Internal::BasicType</text>
<text text-anchor="start" x="549" y="-41.5" font-family="Helvetica,sans-Serif" font-size="10.00">TraitsBase&lt; Currency, BasicTypeId</text>
<text text-anchor="middle" x="626" y="-30.5" font-family="Helvetica,sans-Serif" font-size="10.00">::Currency, RT &gt;</text>
</a>
</g>
</g>
<!-- Node2&#45;&gt;Node1 -->
<g id="edge1_Node000001_Node000002" class="edge">
<title>Node2&#45;&gt;Node1</title>
<g id="a_edge1_Node000001_Node000002"><a xlink:title=" ">
<path fill="none" stroke="#63b8ff" d="M722.76,-49.5C731.19,-49.5 739.62,-49.5 747.76,-49.5"/>
<polygon fill="#63b8ff" stroke="#63b8ff" points="722.79,-46 712.79,-49.5 722.79,-53 722.79,-46"/>
</a>
</g>
</g>
<!-- Node3 -->
<g id="Node000003" class="node">
<title>Node3</title>
<g id="a_Node000003"><a xlink:href="struct_harlinn_1_1_common_1_1_core_1_1_types_1_1_internal_1_1_type_traits_base.xhtml" target="_top" xlink:title=" ">
<polygon fill="white" stroke="#666666" points="391.5,-100 254.5,-100 254.5,-59 391.5,-59 391.5,-100"/>
<text text-anchor="start" x="262.5" y="-88" font-family="Helvetica,sans-Serif" font-size="10.00">Harlinn::Common::Core</text>
<text text-anchor="start" x="262.5" y="-77" font-family="Helvetica,sans-Serif" font-size="10.00">::Types::Internal::TypeTraits</text>
<text text-anchor="middle" x="323" y="-66" font-family="Helvetica,sans-Serif" font-size="10.00">Base&lt; Currency, RT &gt;</text>
</a>
</g>
</g>
<!-- Node3&#45;&gt;Node2 -->
<g id="edge2_Node000002_Node000003" class="edge">
<title>Node3&#45;&gt;Node2</title>
<g id="a_edge2_Node000002_Node000003"><a xlink:title=" ">
<path fill="none" stroke="#63b8ff" d="M403.3,-71.6C445.58,-67.38 497.62,-62.2 540.65,-57.91"/>
<polygon fill="#63b8ff" stroke="#63b8ff" points="403.04,-68.11 393.43,-72.58 403.73,-75.07 403.04,-68.11"/>
</a>
</g>
</g>
<!-- Node4 -->
<g id="Node000004" class="node">
<title>Node4</title>
<g id="a_Node000004"><a xlink:href="struct_harlinn_1_1_common_1_1_core_1_1_types_1_1_internal_1_1_type_traits_base.xhtml" target="_top" xlink:title=" ">
<polygon fill="white" stroke="#666666" points="137,-100 0,-100 0,-59 137,-59 137,-100"/>
<text text-anchor="start" x="8" y="-88" font-family="Helvetica,sans-Serif" font-size="10.00">Harlinn::Common::Core</text>
<text text-anchor="start" x="8" y="-77" font-family="Helvetica,sans-Serif" font-size="10.00">::Types::Internal::TypeTraits</text>
<text text-anchor="middle" x="68.5" y="-66" font-family="Helvetica,sans-Serif" font-size="10.00">Base&lt; T, RT &gt;</text>
</a>
</g>
</g>
<!-- Node4&#45;&gt;Node3 -->
<g id="edge3_Node000003_Node000004" class="edge">
<title>Node4&#45;&gt;Node3</title>
<g id="a_edge3_Node000003_Node000004"><a xlink:title=" ">
<path fill="none" stroke="orange" stroke-dasharray="5,2" d="M148.77,-79.5C182.66,-79.5 221.82,-79.5 254.32,-79.5"/>
<polygon fill="orange" stroke="orange" points="149.01,-76 139.01,-79.5 149.01,-83 149.01,-76"/>
</a>
</g>
<text text-anchor="middle" x="194.5" y="-82.5" font-family="Helvetica,sans-Serif" font-size="10.00" fill="grey"> &lt; Currency, RT &gt;</text>
</g>
<!-- Node5 -->
<g id="Node000005" class="node">
<title>Node5</title>
<g id="a_Node000005"><a xlink:href="struct_harlinn_1_1_common_1_1_core_1_1_types_1_1_internal_1_1_basic_type_traits_base.xhtml" target="_top" xlink:title=" ">
<polygon fill="white" stroke="#666666" points="394,-41 252,-41 252,0 394,0 394,-41"/>
<text text-anchor="start" x="260" y="-29" font-family="Helvetica,sans-Serif" font-size="10.00">Harlinn::Common::Core</text>
<text text-anchor="start" x="260" y="-18" font-family="Helvetica,sans-Serif" font-size="10.00">::Types::Internal::BasicType</text>
<text text-anchor="middle" x="323" y="-7" font-family="Helvetica,sans-Serif" font-size="10.00">TraitsBase&lt; T, typeId_, RT &gt;</text>
</a>
</g>
</g>
<!-- Node5&#45;&gt;Node2 -->
<g id="edge4_Node000002_Node000005" class="edge">
<title>Node5&#45;&gt;Node2</title>
<g id="a_edge4_Node000002_Node000005"><a xlink:title=" ">
<path fill="none" stroke="orange" stroke-dasharray="5,2" d="M405.49,-26.87C441.53,-29.84 484.4,-33.58 523,-37.5 528.77,-38.09 534.71,-38.72 540.7,-39.37"/>
<polygon fill="orange" stroke="orange" points="405.8,-23.39 395.55,-26.06 405.23,-30.36 405.8,-23.39"/>
</a>
</g>
<text text-anchor="start" x="412" y="-51.5" font-family="Helvetica,sans-Serif" font-size="10.00" fill="grey"> &lt; Currency, BasicTypeId</text>
<text text-anchor="middle" x="467.5" y="-40.5" font-family="Helvetica,sans-Serif" font-size="10.00" fill="grey">::Currency, RT &gt;</text>
</g>
<!-- Node6 -->
<g id="Node000006" class="node">
<title>Node6</title>
<g id="a_Node000006"><a xlink:href="struct_harlinn_1_1_common_1_1_core_1_1_types_1_1_internal_1_1_type_traits_base.xhtml" target="_top" xlink:title=" ">
<polygon fill="white" stroke="#666666" points="137,-41 0,-41 0,0 137,0 137,-41"/>
<text text-anchor="start" x="8" y="-29" font-family="Helvetica,sans-Serif" font-size="10.00">Harlinn::Common::Core</text>
<text text-anchor="start" x="8" y="-18" font-family="Helvetica,sans-Serif" font-size="10.00">::Types::Internal::TypeTraits</text>
<text text-anchor="middle" x="68.5" y="-7" font-family="Helvetica,sans-Serif" font-size="10.00">Base&lt; T, RT &gt;</text>
</a>
</g>
</g>
<!-- Node6&#45;&gt;Node5 -->
<g id="edge5_Node000005_Node000006" class="edge">
<title>Node6&#45;&gt;Node5</title>
<g id="a_edge5_Node000005_Node000006"><a xlink:title=" ">
<path fill="none" stroke="#63b8ff" d="M148.92,-20.5C181.87,-20.5 219.76,-20.5 251.68,-20.5"/>
<polygon fill="#63b8ff" stroke="#63b8ff" points="149.01,-17 139.01,-20.5 149.01,-24 149.01,-17"/>
</a>
</g>
</g>
</g>
</svg>
