<?xml version="1.0" encoding="UTF-8" standalone="no"?>
<!DOCTYPE svg PUBLIC "-//W3C//DTD SVG 1.1//EN"
 "http://www.w3.org/Graphics/SVG/1.1/DTD/svg11.dtd">
<!-- Generated by graphviz version 7.0.1 (20221109.1506)
 -->
<!-- Title: Harlinn::Common::Core::Types::Internal::ContainerTypeTraits&lt; RT, std::unordered_set&lt; K, H, C, A &gt; &gt; Pages: 1 -->
<svg width="885pt" height="120pt"
 viewBox="0.00 0.00 885.00 119.50" xmlns="http://www.w3.org/2000/svg" xmlns:xlink="http://www.w3.org/1999/xlink">
<g id="graph0" class="graph" transform="scale(1 1) rotate(0) translate(4 115.5)">
<title>Harlinn::Common::Core::Types::Internal::ContainerTypeTraits&lt; RT, std::unordered_set&lt; K, H, C, A &gt; &gt;</title>
<!-- Node1 -->
<g id="Node000001" class="node">
<title>Node1</title>
<g id="a_Node000001"><a xlink:title=" ">
<polygon fill="#999999" stroke="#666666" points="877,-78.5 726,-78.5 726,-26.5 877,-26.5 877,-78.5"/>
<text text-anchor="start" x="734" y="-66.5" font-family="Helvetica,sans-Serif" font-size="10.00">Harlinn::Common::Core</text>
<text text-anchor="start" x="734" y="-55.5" font-family="Helvetica,sans-Serif" font-size="10.00">::Types::Internal::Container</text>
<text text-anchor="start" x="734" y="-44.5" font-family="Helvetica,sans-Serif" font-size="10.00">TypeTraits&lt; RT, std::unordered</text>
<text text-anchor="middle" x="801.5" y="-33.5" font-family="Helvetica,sans-Serif" font-size="10.00">_set&lt; K, H, C, A &gt; &gt;</text>
</a>
</g>
</g>
<!-- Node2 -->
<g id="Node000002" class="node">
<title>Node2</title>
<g id="a_Node000002"><a xlink:href="struct_harlinn_1_1_common_1_1_core_1_1_types_1_1_internal_1_1_container_type_traits_base.xhtml" target="_top" xlink:title=" ">
<polygon fill="white" stroke="#666666" points="689,-78.5 534,-78.5 534,-26.5 689,-26.5 689,-78.5"/>
<text text-anchor="start" x="542" y="-66.5" font-family="Helvetica,sans-Serif" font-size="10.00">Harlinn::Common::Core</text>
<text text-anchor="start" x="542" y="-55.5" font-family="Helvetica,sans-Serif" font-size="10.00">::Types::Internal::Container</text>
<text text-anchor="start" x="542" y="-44.5" font-family="Helvetica,sans-Serif" font-size="10.00">TypeTraitsBase&lt; std::unordered</text>
<text text-anchor="middle" x="611.5" y="-33.5" font-family="Helvetica,sans-Serif" font-size="10.00">_set&lt; K, H, C, A &gt;, RT &gt;</text>
</a>
</g>
</g>
<!-- Node2&#45;&gt;Node1 -->
<g id="edge1_Node000001_Node000002" class="edge">
<title>Node2&#45;&gt;Node1</title>
<g id="a_edge1_Node000001_Node000002"><a xlink:title=" ">
<path fill="none" stroke="#63b8ff" d="M700.56,-52.5C708.91,-52.5 717.32,-52.5 725.53,-52.5"/>
<polygon fill="#63b8ff" stroke="#63b8ff" points="700.75,-49 690.75,-52.5 700.75,-56 700.75,-49"/>
</a>
</g>
</g>
<!-- Node3 -->
<g id="Node000003" class="node">
<title>Node3</title>
<g id="a_Node000003"><a xlink:href="struct_harlinn_1_1_common_1_1_core_1_1_types_1_1_internal_1_1_type_traits_base.xhtml" target="_top" xlink:title=" ">
<polygon fill="white" stroke="#666666" points="404,-111.5 267,-111.5 267,-59.5 404,-59.5 404,-111.5"/>
<text text-anchor="start" x="275" y="-99.5" font-family="Helvetica,sans-Serif" font-size="10.00">Harlinn::Common::Core</text>
<text text-anchor="start" x="275" y="-88.5" font-family="Helvetica,sans-Serif" font-size="10.00">::Types::Internal::TypeTraits</text>
<text text-anchor="start" x="275" y="-77.5" font-family="Helvetica,sans-Serif" font-size="10.00">Base&lt; std::unordered_set&lt;</text>
<text text-anchor="middle" x="335.5" y="-66.5" font-family="Helvetica,sans-Serif" font-size="10.00"> K, H, C, A &gt;, RT &gt;</text>
</a>
</g>
</g>
<!-- Node3&#45;&gt;Node2 -->
<g id="edge2_Node000002_Node000003" class="edge">
<title>Node3&#45;&gt;Node2</title>
<g id="a_edge2_Node000002_Node000003"><a xlink:title=" ">
<path fill="none" stroke="#63b8ff" d="M415.57,-76.42C446.85,-72.78 483.13,-68.51 516,-64.5 521.75,-63.8 527.69,-63.07 533.66,-62.32"/>
<polygon fill="#63b8ff" stroke="#63b8ff" points="415.32,-72.93 405.79,-77.56 416.12,-79.88 415.32,-72.93"/>
</a>
</g>
</g>
<!-- Node4 -->
<g id="Node000004" class="node">
<title>Node4</title>
<g id="a_Node000004"><a xlink:href="struct_harlinn_1_1_common_1_1_core_1_1_types_1_1_internal_1_1_type_traits_base.xhtml" target="_top" xlink:title=" ">
<polygon fill="white" stroke="#666666" points="137,-106 0,-106 0,-65 137,-65 137,-106"/>
<text text-anchor="start" x="8" y="-94" font-family="Helvetica,sans-Serif" font-size="10.00">Harlinn::Common::Core</text>
<text text-anchor="start" x="8" y="-83" font-family="Helvetica,sans-Serif" font-size="10.00">::Types::Internal::TypeTraits</text>
<text text-anchor="middle" x="68.5" y="-72" font-family="Helvetica,sans-Serif" font-size="10.00">Base&lt; T, RT &gt;</text>
</a>
</g>
</g>
<!-- Node4&#45;&gt;Node3 -->
<g id="edge3_Node000003_Node000004" class="edge">
<title>Node4&#45;&gt;Node3</title>
<g id="a_edge3_Node000003_Node000004"><a xlink:title=" ">
<path fill="none" stroke="orange" stroke-dasharray="5,2" d="M148.82,-85.5C186.4,-85.5 230.81,-85.5 266.78,-85.5"/>
<polygon fill="orange" stroke="orange" points="148.91,-82 138.91,-85.5 148.91,-89 148.91,-82"/>
</a>
</g>
<text text-anchor="start" x="155" y="-99.5" font-family="Helvetica,sans-Serif" font-size="10.00" fill="grey"> &lt; std::unordered_set</text>
<text text-anchor="middle" x="202" y="-88.5" font-family="Helvetica,sans-Serif" font-size="10.00" fill="grey">&lt; K, H, C, A &gt;, RT &gt;</text>
</g>
<!-- Node5 -->
<g id="Node000005" class="node">
<title>Node5</title>
<g id="a_Node000005"><a xlink:href="struct_harlinn_1_1_common_1_1_core_1_1_types_1_1_internal_1_1_container_type_traits_base.xhtml" target="_top" xlink:title=" ">
<polygon fill="white" stroke="#666666" points="402.5,-41 268.5,-41 268.5,0 402.5,0 402.5,-41"/>
<text text-anchor="start" x="276.5" y="-29" font-family="Helvetica,sans-Serif" font-size="10.00">Harlinn::Common::Core</text>
<text text-anchor="start" x="276.5" y="-18" font-family="Helvetica,sans-Serif" font-size="10.00">::Types::Internal::Container</text>
<text text-anchor="middle" x="335.5" y="-7" font-family="Helvetica,sans-Serif" font-size="10.00">TypeTraitsBase&lt; T, RT &gt;</text>
</a>
</g>
</g>
<!-- Node5&#45;&gt;Node2 -->
<g id="edge4_Node000002_Node000005" class="edge">
<title>Node5&#45;&gt;Node2</title>
<g id="a_edge4_Node000002_Node000005"><a xlink:title=" ">
<path fill="none" stroke="orange" stroke-dasharray="5,2" d="M414.19,-29.57C451.6,-33.94 496.32,-39.17 533.62,-43.52"/>
<polygon fill="orange" stroke="orange" points="414.67,-26.11 404.33,-28.42 413.86,-33.06 414.67,-26.11"/>
</a>
</g>
<text text-anchor="start" x="422" y="-55.5" font-family="Helvetica,sans-Serif" font-size="10.00" fill="grey"> &lt; std::unordered_set</text>
<text text-anchor="middle" x="469" y="-44.5" font-family="Helvetica,sans-Serif" font-size="10.00" fill="grey">&lt; K, H, C, A &gt;, RT &gt;</text>
</g>
<!-- Node6 -->
<g id="Node000006" class="node">
<title>Node6</title>
<g id="a_Node000006"><a xlink:href="struct_harlinn_1_1_common_1_1_core_1_1_types_1_1_internal_1_1_type_traits_base.xhtml" target="_top" xlink:title=" ">
<polygon fill="white" stroke="#666666" points="137,-41 0,-41 0,0 137,0 137,-41"/>
<text text-anchor="start" x="8" y="-29" font-family="Helvetica,sans-Serif" font-size="10.00">Harlinn::Common::Core</text>
<text text-anchor="start" x="8" y="-18" font-family="Helvetica,sans-Serif" font-size="10.00">::Types::Internal::TypeTraits</text>
<text text-anchor="middle" x="68.5" y="-7" font-family="Helvetica,sans-Serif" font-size="10.00">Base&lt; T, RT &gt;</text>
</a>
</g>
</g>
<!-- Node6&#45;&gt;Node5 -->
<g id="edge5_Node000005_Node000006" class="edge">
<title>Node6&#45;&gt;Node5</title>
<g id="a_edge5_Node000005_Node000006"><a xlink:title=" ">
<path fill="none" stroke="#63b8ff" d="M148.47,-20.5C186.6,-20.5 231.83,-20.5 268.15,-20.5"/>
<polygon fill="#63b8ff" stroke="#63b8ff" points="148.91,-17 138.91,-20.5 148.91,-24 148.91,-17"/>
</a>
</g>
</g>
</g>
</svg>
