<?xml version="1.0" encoding="UTF-8" standalone="no"?>
<!DOCTYPE svg PUBLIC "-//W3C//DTD SVG 1.1//EN"
 "http://www.w3.org/Graphics/SVG/1.1/DTD/svg11.dtd">
<!-- Generated by graphviz version 7.0.1 (20221109.1506)
 -->
<!-- Title: Harlinn::Common::Core::Types::Internal::ContainerTypeTraits&lt; RT, std::unordered_multiset&lt; K, H, C, A &gt; &gt; Pages: 1 -->
<svg width="940pt" height="120pt"
 viewBox="0.00 0.00 940.00 119.50" xmlns="http://www.w3.org/2000/svg" xmlns:xlink="http://www.w3.org/1999/xlink">
<g id="graph0" class="graph" transform="scale(1 1) rotate(0) translate(4 115.5)">
<title>Harlinn::Common::Core::Types::Internal::ContainerTypeTraits&lt; RT, std::unordered_multiset&lt; K, H, C, A &gt; &gt;</title>
<!-- Node1 -->
<g id="Node000001" class="node">
<title>Node1</title>
<g id="a_Node000001"><a xlink:title=" ">
<polygon fill="#999999" stroke="#666666" points="932,-78.5 781,-78.5 781,-26.5 932,-26.5 932,-78.5"/>
<text text-anchor="start" x="789" y="-66.5" font-family="Helvetica,sans-Serif" font-size="10.00">Harlinn::Common::Core</text>
<text text-anchor="start" x="789" y="-55.5" font-family="Helvetica,sans-Serif" font-size="10.00">::Types::Internal::Container</text>
<text text-anchor="start" x="789" y="-44.5" font-family="Helvetica,sans-Serif" font-size="10.00">TypeTraits&lt; RT, std::unordered</text>
<text text-anchor="middle" x="856.5" y="-33.5" font-family="Helvetica,sans-Serif" font-size="10.00">_multiset&lt; K, H, C, A &gt; &gt;</text>
</a>
</g>
</g>
<!-- Node2 -->
<g id="Node000002" class="node">
<title>Node2</title>
<g id="a_Node000002"><a xlink:href="struct_harlinn_1_1_common_1_1_core_1_1_types_1_1_internal_1_1_container_type_traits_base.xhtml" target="_top" xlink:title=" ">
<polygon fill="white" stroke="#666666" points="744,-78.5 589,-78.5 589,-26.5 744,-26.5 744,-78.5"/>
<text text-anchor="start" x="597" y="-66.5" font-family="Helvetica,sans-Serif" font-size="10.00">Harlinn::Common::Core</text>
<text text-anchor="start" x="597" y="-55.5" font-family="Helvetica,sans-Serif" font-size="10.00">::Types::Internal::Container</text>
<text text-anchor="start" x="597" y="-44.5" font-family="Helvetica,sans-Serif" font-size="10.00">TypeTraitsBase&lt; std::unordered</text>
<text text-anchor="middle" x="666.5" y="-33.5" font-family="Helvetica,sans-Serif" font-size="10.00">_multiset&lt; K, H, C, A &gt;, RT &gt;</text>
</a>
</g>
</g>
<!-- Node2&#45;&gt;Node1 -->
<g id="edge1_Node000001_Node000002" class="edge">
<title>Node2&#45;&gt;Node1</title>
<g id="a_edge1_Node000001_Node000002"><a xlink:title=" ">
<path fill="none" stroke="#63b8ff" d="M755.56,-52.5C763.91,-52.5 772.32,-52.5 780.53,-52.5"/>
<polygon fill="#63b8ff" stroke="#63b8ff" points="755.75,-49 745.75,-52.5 755.75,-56 755.75,-49"/>
</a>
</g>
</g>
<!-- Node3 -->
<g id="Node000003" class="node">
<title>Node3</title>
<g id="a_Node000003"><a xlink:href="struct_harlinn_1_1_common_1_1_core_1_1_types_1_1_internal_1_1_type_traits_base.xhtml" target="_top" xlink:title=" ">
<polygon fill="white" stroke="#666666" points="438,-111.5 288,-111.5 288,-59.5 438,-59.5 438,-111.5"/>
<text text-anchor="start" x="296" y="-99.5" font-family="Helvetica,sans-Serif" font-size="10.00">Harlinn::Common::Core</text>
<text text-anchor="start" x="296" y="-88.5" font-family="Helvetica,sans-Serif" font-size="10.00">::Types::Internal::TypeTraits</text>
<text text-anchor="start" x="296" y="-77.5" font-family="Helvetica,sans-Serif" font-size="10.00">Base&lt; std::unordered_multiset</text>
<text text-anchor="middle" x="363" y="-66.5" font-family="Helvetica,sans-Serif" font-size="10.00">&lt; K, H, C, A &gt;, RT &gt;</text>
</a>
</g>
</g>
<!-- Node3&#45;&gt;Node2 -->
<g id="edge2_Node000002_Node000003" class="edge">
<title>Node3&#45;&gt;Node2</title>
<g id="a_edge2_Node000002_Node000003"><a xlink:title=" ">
<path fill="none" stroke="#63b8ff" d="M449.64,-77.3C486.94,-73.6 531.16,-69.05 571,-64.5 576.75,-63.84 582.7,-63.14 588.67,-62.42"/>
<polygon fill="#63b8ff" stroke="#63b8ff" points="449.41,-73.81 439.81,-78.27 450.1,-80.77 449.41,-73.81"/>
</a>
</g>
</g>
<!-- Node4 -->
<g id="Node000004" class="node">
<title>Node4</title>
<g id="a_Node000004"><a xlink:href="struct_harlinn_1_1_common_1_1_core_1_1_types_1_1_internal_1_1_type_traits_base.xhtml" target="_top" xlink:title=" ">
<polygon fill="white" stroke="#666666" points="137,-106 0,-106 0,-65 137,-65 137,-106"/>
<text text-anchor="start" x="8" y="-94" font-family="Helvetica,sans-Serif" font-size="10.00">Harlinn::Common::Core</text>
<text text-anchor="start" x="8" y="-83" font-family="Helvetica,sans-Serif" font-size="10.00">::Types::Internal::TypeTraits</text>
<text text-anchor="middle" x="68.5" y="-72" font-family="Helvetica,sans-Serif" font-size="10.00">Base&lt; T, RT &gt;</text>
</a>
</g>
</g>
<!-- Node4&#45;&gt;Node3 -->
<g id="edge3_Node000003_Node000004" class="edge">
<title>Node4&#45;&gt;Node3</title>
<g id="a_edge3_Node000003_Node000004"><a xlink:title=" ">
<path fill="none" stroke="orange" stroke-dasharray="5,2" d="M148.68,-85.5C191.91,-85.5 245.13,-85.5 287.6,-85.5"/>
<polygon fill="orange" stroke="orange" points="148.85,-82 138.85,-85.5 148.85,-89 148.85,-82"/>
</a>
</g>
<text text-anchor="start" x="155" y="-99.5" font-family="Helvetica,sans-Serif" font-size="10.00" fill="grey"> &lt; std::unordered_multiset</text>
<text text-anchor="middle" x="212.5" y="-88.5" font-family="Helvetica,sans-Serif" font-size="10.00" fill="grey">&lt; K, H, C, A &gt;, RT &gt;</text>
</g>
<!-- Node5 -->
<g id="Node000005" class="node">
<title>Node5</title>
<g id="a_Node000005"><a xlink:href="struct_harlinn_1_1_common_1_1_core_1_1_types_1_1_internal_1_1_container_type_traits_base.xhtml" target="_top" xlink:title=" ">
<polygon fill="white" stroke="#666666" points="430,-41 296,-41 296,0 430,0 430,-41"/>
<text text-anchor="start" x="304" y="-29" font-family="Helvetica,sans-Serif" font-size="10.00">Harlinn::Common::Core</text>
<text text-anchor="start" x="304" y="-18" font-family="Helvetica,sans-Serif" font-size="10.00">::Types::Internal::Container</text>
<text text-anchor="middle" x="363" y="-7" font-family="Helvetica,sans-Serif" font-size="10.00">TypeTraitsBase&lt; T, RT &gt;</text>
</a>
</g>
</g>
<!-- Node5&#45;&gt;Node2 -->
<g id="edge4_Node000002_Node000005" class="edge">
<title>Node5&#45;&gt;Node2</title>
<g id="a_edge4_Node000002_Node000005"><a xlink:title=" ">
<path fill="none" stroke="orange" stroke-dasharray="5,2" d="M441.39,-28.71C486.6,-33.51 543.44,-39.55 588.57,-44.34"/>
<polygon fill="orange" stroke="orange" points="441.98,-25.26 431.67,-27.68 441.25,-32.22 441.98,-25.26"/>
</a>
</g>
<text text-anchor="start" x="456" y="-56.5" font-family="Helvetica,sans-Serif" font-size="10.00" fill="grey"> &lt; std::unordered_multiset</text>
<text text-anchor="middle" x="513.5" y="-45.5" font-family="Helvetica,sans-Serif" font-size="10.00" fill="grey">&lt; K, H, C, A &gt;, RT &gt;</text>
</g>
<!-- Node6 -->
<g id="Node000006" class="node">
<title>Node6</title>
<g id="a_Node000006"><a xlink:href="struct_harlinn_1_1_common_1_1_core_1_1_types_1_1_internal_1_1_type_traits_base.xhtml" target="_top" xlink:title=" ">
<polygon fill="white" stroke="#666666" points="137,-41 0,-41 0,0 137,0 137,-41"/>
<text text-anchor="start" x="8" y="-29" font-family="Helvetica,sans-Serif" font-size="10.00">Harlinn::Common::Core</text>
<text text-anchor="start" x="8" y="-18" font-family="Helvetica,sans-Serif" font-size="10.00">::Types::Internal::TypeTraits</text>
<text text-anchor="middle" x="68.5" y="-7" font-family="Helvetica,sans-Serif" font-size="10.00">Base&lt; T, RT &gt;</text>
</a>
</g>
</g>
<!-- Node6&#45;&gt;Node5 -->
<g id="edge5_Node000005_Node000006" class="edge">
<title>Node6&#45;&gt;Node5</title>
<g id="a_edge5_Node000005_Node000006"><a xlink:title=" ">
<path fill="none" stroke="#63b8ff" d="M148.77,-20.5C194.73,-20.5 251.95,-20.5 295.54,-20.5"/>
<polygon fill="#63b8ff" stroke="#63b8ff" points="148.85,-17 138.85,-20.5 148.85,-24 148.85,-17"/>
</a>
</g>
</g>
</g>
</svg>
