<?xml version="1.0" encoding="UTF-8" standalone="no"?>
<!DOCTYPE svg PUBLIC "-//W3C//DTD SVG 1.1//EN"
 "http://www.w3.org/Graphics/SVG/1.1/DTD/svg11.dtd">
<!-- Generated by graphviz version 7.0.1 (20221109.1506)
 -->
<!-- Title: Harlinn::AI::DML::ElementWisePowOperatorDesc Pages: 1 -->
<svg width="428pt" height="126pt"
 viewBox="0.00 0.00 427.50 126.00" xmlns="http://www.w3.org/2000/svg" xmlns:xlink="http://www.w3.org/1999/xlink">
<g id="graph0" class="graph" transform="scale(1 1) rotate(0) translate(4 122)">
<title>Harlinn::AI::DML::ElementWisePowOperatorDesc</title>
<!-- Node1 -->
<g id="Node000001" class="node">
<title>Node1</title>
<g id="a_Node000001"><a xlink:title=" ">
<polygon fill="#999999" stroke="#666666" points="255.5,-30 125.5,-30 125.5,0 255.5,0 255.5,-30"/>
<text text-anchor="start" x="133.5" y="-18" font-family="Helvetica,sans-Serif" font-size="10.00">Harlinn::AI::DML::Element</text>
<text text-anchor="middle" x="190.5" y="-7" font-family="Helvetica,sans-Serif" font-size="10.00">WisePowOperatorDesc</text>
</a>
</g>
</g>
<!-- Node2 -->
<g id="Node000002" class="node">
<title>Node2</title>
<g id="a_Node000002"><a xlink:title=" ">
<polygon fill="white" stroke="#666666" points="99,-118 0,-118 0,-99 99,-99 99,-118"/>
<text text-anchor="middle" x="49.5" y="-106" font-family="Helvetica,sans-Serif" font-size="10.00">BaseOperatorDesc</text>
</a>
</g>
</g>
<!-- Node2&#45;&gt;Node1 -->
<g id="edge1_Node000001_Node000002" class="edge">
<title>Node2&#45;&gt;Node1</title>
<g id="a_edge1_Node000001_Node000002"><a xlink:title=" ">
<path fill="none" stroke="#63b8ff" d="M72.93,-92.3C99.56,-75.02 142.68,-47.03 168.64,-30.19"/>
<polygon fill="#63b8ff" stroke="#63b8ff" points="71.03,-89.36 64.55,-97.74 74.84,-95.23 71.03,-89.36"/>
</a>
</g>
</g>
<!-- Node3 -->
<g id="Node000003" class="node">
<title>Node3</title>
<g id="a_Node000003"><a xlink:href="struct_harlinn_1_1_a_i_1_1_d_m_l_1_1_tensor_desc.html" target="_top" xlink:title=" ">
<polygon fill="white" stroke="#666666" points="263.5,-118 117.5,-118 117.5,-99 263.5,-99 263.5,-118"/>
<text text-anchor="middle" x="190.5" y="-106" font-family="Helvetica,sans-Serif" font-size="10.00">Harlinn::AI::DML::TensorDesc</text>
</a>
</g>
</g>
<!-- Node3&#45;&gt;Node1 -->
<g id="edge2_Node000001_Node000003" class="edge">
<title>Node3&#45;&gt;Node1</title>
<g id="a_edge2_Node000001_Node000003"><a xlink:title=" ">
<path fill="none" stroke="#9a32cd" stroke-dasharray="5,2" d="M190.5,-87.41C190.5,-70.12 190.5,-45.59 190.5,-30.25"/>
<polygon fill="#9a32cd" stroke="#9a32cd" points="187,-87.21 190.5,-97.21 194,-87.21 187,-87.21"/>
</a>
</g>
<text text-anchor="middle" x="227.5" y="-73" font-family="Helvetica,sans-Serif" font-size="10.00" fill="grey"> ExponentTensor</text>
<text text-anchor="middle" x="227.5" y="-62" font-family="Helvetica,sans-Serif" font-size="10.00" fill="grey">InputTensor</text>
<text text-anchor="middle" x="227.5" y="-51" font-family="Helvetica,sans-Serif" font-size="10.00" fill="grey">OutputTensor</text>
</g>
<!-- Node4 -->
<g id="Node000004" class="node">
<title>Node4</title>
<g id="a_Node000004"><a xlink:href="struct_harlinn_1_1_a_i_1_1_d_m_l_1_1_scale_bias.html" target="_top" xlink:title=" ">
<polygon fill="white" stroke="#666666" points="419.5,-118 281.5,-118 281.5,-99 419.5,-99 419.5,-118"/>
<text text-anchor="middle" x="350.5" y="-106" font-family="Helvetica,sans-Serif" font-size="10.00">Harlinn::AI::DML::ScaleBias</text>
</a>
</g>
</g>
<!-- Node4&#45;&gt;Node1 -->
<g id="edge3_Node000001_Node000004" class="edge">
<title>Node4&#45;&gt;Node1</title>
<g id="a_edge3_Node000001_Node000004"><a xlink:title=" ">
<path fill="none" stroke="#9a32cd" stroke-dasharray="5,2" d="M331.43,-91.64C315.35,-78.77 291.36,-60.74 268.5,-48 256.74,-41.44 243.36,-35.47 231.04,-30.5"/>
<polygon fill="#9a32cd" stroke="#9a32cd" points="328.78,-93.99 338.74,-97.59 333.19,-88.56 328.78,-93.99"/>
</a>
</g>
<text text-anchor="middle" x="339.5" y="-62" font-family="Helvetica,sans-Serif" font-size="10.00" fill="grey"> ScaleBias</text>
</g>
</g>
</svg>
