<?xml version="1.0" encoding="UTF-8" standalone="no"?>
<!DOCTYPE svg PUBLIC "-//W3C//DTD SVG 1.1//EN"
 "http://www.w3.org/Graphics/SVG/1.1/DTD/svg11.dtd">
<!-- Generated by graphviz version 7.0.1 (20221109.1506)
 -->
<!-- Title: Harlinn::Common::Core::Http::ServiceConfigSslSet Pages: 1 -->
<svg width="822pt" height="86pt"
 viewBox="0.00 0.00 822.00 86.00" xmlns="http://www.w3.org/2000/svg" xmlns:xlink="http://www.w3.org/1999/xlink">
<g id="graph0" class="graph" transform="scale(1 1) rotate(0) translate(4 82)">
<title>Harlinn::Common::Core::Http::ServiceConfigSslSet</title>
<!-- Node1 -->
<g id="Node000001" class="node">
<title>Node1</title>
<g id="a_Node000001"><a xlink:title=" ">
<polygon fill="#999999" stroke="#666666" points="814,-54 680,-54 680,-24 814,-24 814,-54"/>
<text text-anchor="start" x="688" y="-42" font-family="Helvetica,sans-Serif" font-size="10.00">Harlinn::Common::Core</text>
<text text-anchor="middle" x="747" y="-31" font-family="Helvetica,sans-Serif" font-size="10.00">::Http::ServiceConfigSslSet</text>
</a>
</g>
</g>
<!-- Node2 -->
<g id="Node000002" class="node">
<title>Node2</title>
<g id="a_Node000002"><a xlink:href="struct_harlinn_1_1_common_1_1_core_1_1_http_1_1_service_config_ssl_key.html" target="_top" xlink:title=" ">
<polygon fill="white" stroke="#666666" points="583.5,-78 446.5,-78 446.5,-48 583.5,-48 583.5,-78"/>
<text text-anchor="start" x="454.5" y="-66" font-family="Helvetica,sans-Serif" font-size="10.00">Harlinn::Common::Core</text>
<text text-anchor="middle" x="515" y="-55" font-family="Helvetica,sans-Serif" font-size="10.00">::Http::ServiceConfigSslKey</text>
</a>
</g>
</g>
<!-- Node2&#45;&gt;Node1 -->
<g id="edge1_Node000001_Node000002" class="edge">
<title>Node2&#45;&gt;Node1</title>
<g id="a_edge1_Node000001_Node000002"><a xlink:title=" ">
<path fill="none" stroke="#9a32cd" stroke-dasharray="5,2" d="M594.95,-54.76C622.49,-51.89 653.09,-48.69 679.51,-45.94"/>
<polygon fill="#9a32cd" stroke="#9a32cd" points="594.85,-51.25 585.27,-55.77 595.58,-58.22 594.85,-51.25"/>
</a>
</g>
<text text-anchor="middle" x="634.5" y="-56" font-family="Helvetica,sans-Serif" font-size="10.00" fill="grey"> KeyDesc</text>
</g>
<!-- Node3 -->
<g id="Node000003" class="node">
<title>Node3</title>
<g id="a_Node000003"><a xlink:href="struct_harlinn_1_1_common_1_1_core_1_1_http_1_1_service_config_ssl_param.html" target="_top" xlink:title=" ">
<polygon fill="white" stroke="#666666" points="589,-30 441,-30 441,0 589,0 589,-30"/>
<text text-anchor="start" x="449" y="-18" font-family="Helvetica,sans-Serif" font-size="10.00">Harlinn::Common::Core</text>
<text text-anchor="middle" x="515" y="-7" font-family="Helvetica,sans-Serif" font-size="10.00">::Http::ServiceConfigSslParam</text>
</a>
</g>
</g>
<!-- Node3&#45;&gt;Node1 -->
<g id="edge2_Node000001_Node000003" class="edge">
<title>Node3&#45;&gt;Node1</title>
<g id="a_edge2_Node000001_Node000003"><a xlink:title=" ">
<path fill="none" stroke="#9a32cd" stroke-dasharray="5,2" d="M600.77,-23.85C626.75,-26.56 654.94,-29.5 679.52,-32.06"/>
<polygon fill="#9a32cd" stroke="#9a32cd" points="601.22,-20.37 590.91,-22.82 600.49,-27.34 601.22,-20.37"/>
</a>
</g>
<text text-anchor="middle" x="634.5" y="-32" font-family="Helvetica,sans-Serif" font-size="10.00" fill="grey"> ParamDesc</text>
</g>
<!-- Node4 -->
<g id="Node000004" class="node">
<title>Node4</title>
<g id="a_Node000004"><a xlink:href="class_harlinn_1_1_common_1_1_core_1_1_guid.html" target="_top" xlink:title="Represents a globally unique identifier (GUID).">
<polygon fill="white" stroke="#666666" points="377,-30 259,-30 259,0 377,0 377,-30"/>
<text text-anchor="start" x="267" y="-18" font-family="Helvetica,sans-Serif" font-size="10.00">Harlinn::Common::Core</text>
<text text-anchor="middle" x="318" y="-7" font-family="Helvetica,sans-Serif" font-size="10.00">::Guid</text>
</a>
</g>
</g>
<!-- Node4&#45;&gt;Node3 -->
<g id="edge3_Node000003_Node000004" class="edge">
<title>Node4&#45;&gt;Node3</title>
<g id="a_edge3_Node000003_Node000004"><a xlink:title=" ">
<path fill="none" stroke="#9a32cd" stroke-dasharray="5,2" d="M388.73,-15C405.64,-15 423.77,-15 440.84,-15"/>
<polygon fill="#9a32cd" stroke="#9a32cd" points="388.76,-11.5 378.76,-15 388.76,-18.5 388.76,-11.5"/>
</a>
</g>
<text text-anchor="middle" x="409" y="-18" font-family="Helvetica,sans-Serif" font-size="10.00" fill="grey"> AppId</text>
</g>
<!-- Node5 -->
<g id="Node000005" class="node">
<title>Node5</title>
<g id="a_Node000005"><a xlink:href="struct_harlinn_1_1_common_1_1_core_1_1_guid_1_1_data_t.html" target="_top" xlink:title=" ">
<polygon fill="white" stroke="#666666" points="195,-30 77,-30 77,0 195,0 195,-30"/>
<text text-anchor="start" x="85" y="-18" font-family="Helvetica,sans-Serif" font-size="10.00">Harlinn::Common::Core</text>
<text text-anchor="middle" x="136" y="-7" font-family="Helvetica,sans-Serif" font-size="10.00">::Guid::DataT</text>
</a>
</g>
</g>
<!-- Node5&#45;&gt;Node4 -->
<g id="edge4_Node000004_Node000005" class="edge">
<title>Node5&#45;&gt;Node4</title>
<g id="a_edge4_Node000004_Node000005"><a xlink:title=" ">
<path fill="none" stroke="#9a32cd" stroke-dasharray="5,2" d="M206.55,-15C223.73,-15 241.95,-15 258.54,-15"/>
<polygon fill="#9a32cd" stroke="#9a32cd" points="206.95,-11.5 196.95,-15 206.95,-18.5 206.95,-11.5"/>
</a>
</g>
<text text-anchor="middle" x="227" y="-18" font-family="Helvetica,sans-Serif" font-size="10.00" fill="grey"> data_</text>
</g>
<!-- Node6 -->
<g id="Node000006" class="node">
<title>Node6</title>
<g id="a_Node000006"><a xlink:title=" ">
<polygon fill="white" stroke="#666666" points="40,-24.5 0,-24.5 0,-5.5 40,-5.5 40,-24.5"/>
<text text-anchor="middle" x="20" y="-12.5" font-family="Helvetica,sans-Serif" font-size="10.00">GUID</text>
</a>
</g>
</g>
<!-- Node6&#45;&gt;Node5 -->
<g id="edge5_Node000005_Node000006" class="edge">
<title>Node6&#45;&gt;Node5</title>
<g id="a_edge5_Node000005_Node000006"><a xlink:title=" ">
<path fill="none" stroke="#63b8ff" d="M51.73,-15C59.49,-15 68.08,-15 76.71,-15"/>
<polygon fill="#63b8ff" stroke="#63b8ff" points="51.85,-11.5 41.85,-15 51.85,-18.5 51.85,-11.5"/>
</a>
</g>
</g>
</g>
</svg>
