<?xml version="1.0" encoding="UTF-8" standalone="no"?>
<!DOCTYPE svg PUBLIC "-//W3C//DTD SVG 1.1//EN"
 "http://www.w3.org/Graphics/SVG/1.1/DTD/svg11.dtd">
<!-- Generated by graphviz version 7.0.1 (20221109.1506)
 -->
<!-- Title: Harlinn::Common::Core::Types::Internal::ContainerTypeTraits&lt; RT, std::queue&lt; T, Cnr &gt; &gt; Pages: 1 -->
<svg width="756pt" height="82pt"
 viewBox="0.00 0.00 756.00 81.50" xmlns="http://www.w3.org/2000/svg" xmlns:xlink="http://www.w3.org/1999/xlink">
<g id="graph0" class="graph" transform="scale(1 1) rotate(0) translate(4 77.5)">
<title>Harlinn::Common::Core::Types::Internal::ContainerTypeTraits&lt; RT, std::queue&lt; T, Cnr &gt; &gt;</title>
<!-- Node1 -->
<g id="Node000001" class="node">
<title>Node1</title>
<g id="a_Node000001"><a xlink:title=" ">
<polygon fill="#999999" stroke="#666666" points="748,-73.5 614,-73.5 614,-21.5 748,-21.5 748,-73.5"/>
<text text-anchor="start" x="622" y="-61.5" font-family="Helvetica,sans-Serif" font-size="10.00">Harlinn::Common::Core</text>
<text text-anchor="start" x="622" y="-50.5" font-family="Helvetica,sans-Serif" font-size="10.00">::Types::Internal::Container</text>
<text text-anchor="start" x="622" y="-39.5" font-family="Helvetica,sans-Serif" font-size="10.00">TypeTraits&lt; RT, std::queue</text>
<text text-anchor="middle" x="681" y="-28.5" font-family="Helvetica,sans-Serif" font-size="10.00">&lt; T, Cnr &gt; &gt;</text>
</a>
</g>
</g>
<!-- Node2 -->
<g id="Node000002" class="node">
<title>Node2</title>
<g id="a_Node000002"><a xlink:href="struct_harlinn_1_1_common_1_1_core_1_1_types_1_1_internal_1_1_container_type_traits_base.html" target="_top" xlink:title=" ">
<polygon fill="white" stroke="#666666" points="577,-73.5 438,-73.5 438,-21.5 577,-21.5 577,-73.5"/>
<text text-anchor="start" x="446" y="-61.5" font-family="Helvetica,sans-Serif" font-size="10.00">Harlinn::Common::Core</text>
<text text-anchor="start" x="446" y="-50.5" font-family="Helvetica,sans-Serif" font-size="10.00">::Types::Internal::Container</text>
<text text-anchor="start" x="446" y="-39.5" font-family="Helvetica,sans-Serif" font-size="10.00">TypeTraitsBase&lt; std::queue</text>
<text text-anchor="middle" x="507.5" y="-28.5" font-family="Helvetica,sans-Serif" font-size="10.00">&lt; T, Cnr &gt;, RT &gt;</text>
</a>
</g>
</g>
<!-- Node2&#45;&gt;Node1 -->
<g id="edge1_Node000001_Node000002" class="edge">
<title>Node2&#45;&gt;Node1</title>
<g id="a_edge1_Node000001_Node000002"><a xlink:title=" ">
<path fill="none" stroke="#63b8ff" d="M588.64,-47.5C597.04,-47.5 605.51,-47.5 613.73,-47.5"/>
<polygon fill="#63b8ff" stroke="#63b8ff" points="588.78,-44 578.78,-47.5 588.78,-51 588.78,-44"/>
</a>
</g>
</g>
<!-- Node3 -->
<g id="Node000003" class="node">
<title>Node3</title>
<g id="a_Node000003"><a xlink:href="struct_harlinn_1_1_common_1_1_core_1_1_types_1_1_internal_1_1_type_traits_base.html" target="_top" xlink:title=" ">
<polygon fill="white" stroke="#666666" points="137,-65 0,-65 0,-24 137,-24 137,-65"/>
<text text-anchor="start" x="8" y="-53" font-family="Helvetica,sans-Serif" font-size="10.00">Harlinn::Common::Core</text>
<text text-anchor="start" x="8" y="-42" font-family="Helvetica,sans-Serif" font-size="10.00">::Types::Internal::TypeTraits</text>
<text text-anchor="middle" x="68.5" y="-31" font-family="Helvetica,sans-Serif" font-size="10.00">Base&lt; T, RT &gt;</text>
</a>
</g>
</g>
<!-- Node3&#45;&gt;Node2 -->
<g id="edge2_Node000002_Node000003" class="edge">
<title>Node3&#45;&gt;Node2</title>
<g id="a_edge2_Node000002_Node000003"><a xlink:title=" ">
<path fill="none" stroke="#63b8ff" d="M148.46,-50.47C219.51,-55.01 326.77,-59.8 420,-55.5 425.72,-55.24 431.66,-54.87 437.61,-54.45"/>
<polygon fill="#63b8ff" stroke="#63b8ff" points="149.09,-47 138.88,-49.84 148.63,-53.99 149.09,-47"/>
</a>
</g>
</g>
<!-- Node4 -->
<g id="Node000004" class="node">
<title>Node4</title>
<g id="a_Node000004"><a xlink:href="struct_harlinn_1_1_common_1_1_core_1_1_types_1_1_internal_1_1_container_type_traits_base.html" target="_top" xlink:title=" ">
<polygon fill="white" stroke="#666666" points="308,-41 174,-41 174,0 308,0 308,-41"/>
<text text-anchor="start" x="182" y="-29" font-family="Helvetica,sans-Serif" font-size="10.00">Harlinn::Common::Core</text>
<text text-anchor="start" x="182" y="-18" font-family="Helvetica,sans-Serif" font-size="10.00">::Types::Internal::Container</text>
<text text-anchor="middle" x="241" y="-7" font-family="Helvetica,sans-Serif" font-size="10.00">TypeTraitsBase&lt; T, RT &gt;</text>
</a>
</g>
</g>
<!-- Node3&#45;&gt;Node4 -->
<g id="edge4_Node000004_Node000003" class="edge">
<title>Node3&#45;&gt;Node4</title>
<g id="a_edge4_Node000004_Node000003"><a xlink:title=" ">
<path fill="none" stroke="#63b8ff" d="M148.72,-33.35C157.09,-32.17 165.54,-30.98 173.75,-29.83"/>
<polygon fill="#63b8ff" stroke="#63b8ff" points="148.29,-29.87 138.87,-34.73 149.27,-36.81 148.29,-29.87"/>
</a>
</g>
</g>
<!-- Node4&#45;&gt;Node2 -->
<g id="edge3_Node000002_Node000004" class="edge">
<title>Node4&#45;&gt;Node2</title>
<g id="a_edge3_Node000002_Node000004"><a xlink:title=" ">
<path fill="none" stroke="orange" stroke-dasharray="5,2" d="M319.74,-24.7C350.96,-26.77 387.25,-29.66 420,-33.5 425.74,-34.17 431.68,-34.95 437.64,-35.8"/>
<polygon fill="orange" stroke="orange" points="320.2,-21.22 310,-24.07 319.75,-28.2 320.2,-21.22"/>
</a>
</g>
<text text-anchor="start" x="326" y="-47.5" font-family="Helvetica,sans-Serif" font-size="10.00" fill="grey"> &lt; std::queue&lt; T, Cnr</text>
<text text-anchor="middle" x="373" y="-36.5" font-family="Helvetica,sans-Serif" font-size="10.00" fill="grey"> &gt;, RT &gt;</text>
</g>
</g>
</svg>
