<?xml version="1.0" encoding="UTF-8" standalone="no"?>
<!DOCTYPE svg PUBLIC "-//W3C//DTD SVG 1.1//EN"
 "http://www.w3.org/Graphics/SVG/1.1/DTD/svg11.dtd">
<!-- Generated by graphviz version 7.0.1 (20221109.1506)
 -->
<!-- Title: Harlinn::Math::LineSimd&lt; T, N &gt; Pages: 1 -->
<svg width="302pt" height="259pt"
 viewBox="0.00 0.00 301.50 259.00" xmlns="http://www.w3.org/2000/svg" xmlns:xlink="http://www.w3.org/1999/xlink">
<g id="graph0" class="graph" transform="scale(1 1) rotate(0) translate(4 255)">
<title>Harlinn::Math::LineSimd&lt; T, N &gt;</title>
<!-- Node1 -->
<g id="Node000001" class="node">
<title>Node1</title>
<g id="a_Node000001"><a xlink:title="An infinite line passing through origin&lt;c&gt; with direction given by the unit vector direction&lt;c&gt;.">
<polygon fill="#999999" stroke="#666666" points="132.5,-30 11.5,-30 11.5,0 132.5,0 132.5,-30"/>
<text text-anchor="start" x="19.5" y="-18" font-family="Helvetica,sans-Serif" font-size="10.00">Harlinn::Math::LineSimd</text>
<text text-anchor="middle" x="72" y="-7" font-family="Helvetica,sans-Serif" font-size="10.00">&lt; T, N &gt;</text>
</a>
</g>
</g>
<!-- Node2 -->
<g id="Node000002" class="node">
<title>Node2</title>
<g id="a_Node000002"><a xlink:href="struct_harlinn_1_1_math_1_1_internal_1_1_line_base.html" target="_top" xlink:title=" ">
<polygon fill="white" stroke="#666666" points="112,-107 0,-107 0,-77 112,-77 112,-107"/>
<text text-anchor="start" x="8" y="-95" font-family="Helvetica,sans-Serif" font-size="10.00">Harlinn::Math::Internal</text>
<text text-anchor="middle" x="56" y="-84" font-family="Helvetica,sans-Serif" font-size="10.00">::LineBase</text>
</a>
</g>
</g>
<!-- Node2&#45;&gt;Node1 -->
<g id="edge1_Node000001_Node000002" class="edge">
<title>Node2&#45;&gt;Node1</title>
<g id="a_edge1_Node000001_Node000002"><a xlink:title=" ">
<path fill="none" stroke="#63b8ff" d="M61.42,-65.6C63.92,-53.87 66.8,-40.37 68.92,-30.42"/>
<polygon fill="#63b8ff" stroke="#63b8ff" points="58.06,-64.55 59.4,-75.06 64.91,-66.01 58.06,-64.55"/>
</a>
</g>
</g>
<!-- Node3 -->
<g id="Node000003" class="node">
<title>Node3</title>
<g id="a_Node000003"><a xlink:href="class_harlinn_1_1_math_1_1_vector.html" target="_top" xlink:title=" ">
<polygon fill="white" stroke="#666666" points="239.5,-107 130.5,-107 130.5,-77 239.5,-77 239.5,-107"/>
<text text-anchor="start" x="138.5" y="-95" font-family="Helvetica,sans-Serif" font-size="10.00">Harlinn::Math::Vector</text>
<text text-anchor="middle" x="185" y="-84" font-family="Helvetica,sans-Serif" font-size="10.00">&lt; T, N &gt;</text>
</a>
</g>
</g>
<!-- Node3&#45;&gt;Node1 -->
<g id="edge2_Node000001_Node000003" class="edge">
<title>Node3&#45;&gt;Node1</title>
<g id="a_edge2_Node000001_Node000003"><a xlink:title=" ">
<path fill="none" stroke="#9a32cd" stroke-dasharray="5,2" d="M153.74,-70.25C134.66,-57.59 110.74,-41.71 93.72,-30.42"/>
<polygon fill="#9a32cd" stroke="#9a32cd" points="151.68,-73.09 161.95,-75.7 155.56,-67.26 151.68,-73.09"/>
</a>
</g>
<text text-anchor="middle" x="156" y="-51" font-family="Helvetica,sans-Serif" font-size="10.00" fill="grey"> direction</text>
</g>
<!-- Node4 -->
<g id="Node000004" class="node">
<title>Node4</title>
<g id="a_Node000004"><a xlink:href="struct_harlinn_1_1_math_1_1_internal_1_1_vector_base.html" target="_top" xlink:title=" ">
<polygon fill="white" stroke="#666666" points="224,-251 112,-251 112,-221 224,-221 224,-251"/>
<text text-anchor="start" x="120" y="-239" font-family="Helvetica,sans-Serif" font-size="10.00">Harlinn::Math::Internal</text>
<text text-anchor="middle" x="168" y="-228" font-family="Helvetica,sans-Serif" font-size="10.00">::VectorBase</text>
</a>
</g>
</g>
<!-- Node4&#45;&gt;Node3 -->
<g id="edge3_Node000003_Node000004" class="edge">
<title>Node4&#45;&gt;Node3</title>
<g id="a_edge3_Node000003_Node000004"><a xlink:title=" ">
<path fill="none" stroke="#63b8ff" d="M169.7,-209.51C170.89,-193.53 172.68,-172.53 175,-154 177,-138.03 180.09,-119.83 182.3,-107.5"/>
<polygon fill="#63b8ff" stroke="#63b8ff" points="166.24,-208.89 169.02,-219.12 173.22,-209.39 166.24,-208.89"/>
</a>
</g>
</g>
<!-- Node5 -->
<g id="Node000005" class="node">
<title>Node5</title>
<g id="a_Node000005"><a xlink:href="class_harlinn_1_1_math_1_1_vector.html" target="_top" xlink:title=" ">
<polygon fill="white" stroke="#666666" points="293.5,-184 184.5,-184 184.5,-154 293.5,-154 293.5,-184"/>
<text text-anchor="start" x="192.5" y="-172" font-family="Helvetica,sans-Serif" font-size="10.00">Harlinn::Math::Vector</text>
<text text-anchor="middle" x="239" y="-161" font-family="Helvetica,sans-Serif" font-size="10.00">&lt; ValueT, N &gt;</text>
</a>
</g>
</g>
<!-- Node4&#45;&gt;Node5 -->
<g id="edge5_Node000005_Node000004" class="edge">
<title>Node4&#45;&gt;Node5</title>
<g id="a_edge5_Node000005_Node000004"><a xlink:title=" ">
<path fill="none" stroke="#63b8ff" d="M192,-213.03C202.32,-203.58 214.1,-192.79 223.29,-184.39"/>
<polygon fill="#63b8ff" stroke="#63b8ff" points="189.89,-210.22 184.87,-219.55 194.61,-215.38 189.89,-210.22"/>
</a>
</g>
</g>
<!-- Node5&#45;&gt;Node3 -->
<g id="edge4_Node000003_Node000005" class="edge">
<title>Node5&#45;&gt;Node3</title>
<g id="a_edge4_Node000003_Node000005"><a xlink:title=" ">
<path fill="none" stroke="orange" stroke-dasharray="5,2" d="M222.02,-144.41C213.28,-132.28 202.92,-117.88 195.38,-107.42"/>
<polygon fill="orange" stroke="orange" points="219.02,-146.24 227.7,-152.31 224.7,-142.15 219.02,-146.24"/>
</a>
</g>
<text text-anchor="middle" x="235" y="-128" font-family="Helvetica,sans-Serif" font-size="10.00" fill="grey"> &lt; T, N &gt;</text>
</g>
</g>
</svg>
