<?xml version="1.0" encoding="UTF-8" standalone="no"?>
<!DOCTYPE svg PUBLIC "-//W3C//DTD SVG 1.1//EN"
 "http://www.w3.org/Graphics/SVG/1.1/DTD/svg11.dtd">
<!-- Generated by graphviz version 7.0.1 (20221109.1506)
 -->
<!-- Title: Harlinn::Windows::Graphics::D3D12::RenderPassBeginningAccess Pages: 1 -->
<svg width="939pt" height="108pt"
 viewBox="0.00 0.00 939.00 108.00" xmlns="http://www.w3.org/2000/svg" xmlns:xlink="http://www.w3.org/1999/xlink">
<g id="graph0" class="graph" transform="scale(1 1) rotate(0) translate(4 104)">
<title>Harlinn::Windows::Graphics::D3D12::RenderPassBeginningAccess</title>
<!-- Node1 -->
<g id="Node000001" class="node">
<title>Node1</title>
<g id="a_Node000001"><a xlink:title=" ">
<polygon fill="#999999" stroke="#666666" points="931,-52.5 744,-52.5 744,-22.5 931,-22.5 931,-52.5"/>
<text text-anchor="start" x="752" y="-40.5" font-family="Helvetica,sans-Serif" font-size="10.00">Harlinn::Windows::Graphics</text>
<text text-anchor="middle" x="837.5" y="-29.5" font-family="Helvetica,sans-Serif" font-size="10.00">::D3D12::RenderPassBeginningAccess</text>
</a>
</g>
</g>
<!-- Node2 -->
<g id="Node000002" class="node">
<title>Node2</title>
<g id="a_Node000002"><a xlink:href="struct_harlinn_1_1_windows_1_1_graphics_1_1_d3_d12_1_1_render_pass_beginning_access_clear_parameters.html" target="_top" xlink:title=" ">
<polygon fill="white" stroke="#666666" points="644,-100 457,-100 457,-59 644,-59 644,-100"/>
<text text-anchor="start" x="465" y="-88" font-family="Helvetica,sans-Serif" font-size="10.00">Harlinn::Windows::Graphics</text>
<text text-anchor="start" x="465" y="-77" font-family="Helvetica,sans-Serif" font-size="10.00">::D3D12::RenderPassBeginningAccess</text>
<text text-anchor="middle" x="550.5" y="-66" font-family="Helvetica,sans-Serif" font-size="10.00">ClearParameters</text>
</a>
</g>
</g>
<!-- Node2&#45;&gt;Node1 -->
<g id="edge1_Node000001_Node000002" class="edge">
<title>Node2&#45;&gt;Node1</title>
<g id="a_edge1_Node000001_Node000002"><a xlink:title=" ">
<path fill="none" stroke="#9a32cd" stroke-dasharray="5,2" d="M655.76,-64.14C684.56,-59.89 715.6,-55.32 743.7,-51.18"/>
<polygon fill="#9a32cd" stroke="#9a32cd" points="655.31,-60.66 645.92,-65.59 656.33,-67.59 655.31,-60.66"/>
</a>
</g>
<text text-anchor="middle" x="694" y="-65.5" font-family="Helvetica,sans-Serif" font-size="10.00" fill="grey"> Clear</text>
</g>
<!-- Node3 -->
<g id="Node000003" class="node">
<title>Node3</title>
<g id="a_Node000003"><a xlink:href="struct_harlinn_1_1_windows_1_1_graphics_1_1_d3_d12_1_1_clear_value.html" target="_top" xlink:title=" ">
<polygon fill="white" stroke="#666666" points="370,-94.5 233,-94.5 233,-64.5 370,-64.5 370,-94.5"/>
<text text-anchor="start" x="241" y="-82.5" font-family="Helvetica,sans-Serif" font-size="10.00">Harlinn::Windows::Graphics</text>
<text text-anchor="middle" x="301.5" y="-71.5" font-family="Helvetica,sans-Serif" font-size="10.00">::D3D12::ClearValue</text>
</a>
</g>
</g>
<!-- Node3&#45;&gt;Node2 -->
<g id="edge2_Node000002_Node000003" class="edge">
<title>Node3&#45;&gt;Node2</title>
<g id="a_edge2_Node000002_Node000003"><a xlink:title=" ">
<path fill="none" stroke="#9a32cd" stroke-dasharray="5,2" d="M381.83,-79.5C405.73,-79.5 432.17,-79.5 456.85,-79.5"/>
<polygon fill="#9a32cd" stroke="#9a32cd" points="381.83,-76 371.83,-79.5 381.83,-83 381.83,-76"/>
</a>
</g>
<text text-anchor="middle" x="413.5" y="-82.5" font-family="Helvetica,sans-Serif" font-size="10.00" fill="grey"> ClearValue</text>
</g>
<!-- Node4 -->
<g id="Node000004" class="node">
<title>Node4</title>
<g id="a_Node000004"><a xlink:href="struct_harlinn_1_1_windows_1_1_graphics_1_1_d3_d12_1_1_depth_stencil_value.html" target="_top" xlink:title=" ">
<polygon fill="white" stroke="#666666" points="138,-94.5 0,-94.5 0,-64.5 138,-64.5 138,-94.5"/>
<text text-anchor="start" x="8" y="-82.5" font-family="Helvetica,sans-Serif" font-size="10.00">Harlinn::Windows::Graphics</text>
<text text-anchor="middle" x="69" y="-71.5" font-family="Helvetica,sans-Serif" font-size="10.00">::D3D12::DepthStencilValue</text>
</a>
</g>
</g>
<!-- Node4&#45;&gt;Node3 -->
<g id="edge3_Node000003_Node000004" class="edge">
<title>Node4&#45;&gt;Node3</title>
<g id="a_edge3_Node000003_Node000004"><a xlink:title=" ">
<path fill="none" stroke="#9a32cd" stroke-dasharray="5,2" d="M149.64,-79.5C176.75,-79.5 206.77,-79.5 232.85,-79.5"/>
<polygon fill="#9a32cd" stroke="#9a32cd" points="149.74,-76 139.74,-79.5 149.74,-83 149.74,-76"/>
</a>
</g>
<text text-anchor="middle" x="185.5" y="-82.5" font-family="Helvetica,sans-Serif" font-size="10.00" fill="grey"> DepthStencil</text>
</g>
<!-- Node5 -->
<g id="Node000005" class="node">
<title>Node5</title>
<g id="a_Node000005"><a xlink:href="struct_harlinn_1_1_windows_1_1_graphics_1_1_d3_d12_1_1_render_pass_beginning_access_preserve_local_parameters.html" target="_top" xlink:title=" ">
<polygon fill="white" stroke="#666666" points="644,-41 457,-41 457,0 644,0 644,-41"/>
<text text-anchor="start" x="465" y="-29" font-family="Helvetica,sans-Serif" font-size="10.00">Harlinn::Windows::Graphics</text>
<text text-anchor="start" x="465" y="-18" font-family="Helvetica,sans-Serif" font-size="10.00">::D3D12::RenderPassBeginningAccess</text>
<text text-anchor="middle" x="550.5" y="-7" font-family="Helvetica,sans-Serif" font-size="10.00">PreserveLocalParameters</text>
</a>
</g>
</g>
<!-- Node5&#45;&gt;Node1 -->
<g id="edge4_Node000001_Node000005" class="edge">
<title>Node5&#45;&gt;Node1</title>
<g id="a_edge4_Node000001_Node000005"><a xlink:title=" ">
<path fill="none" stroke="#9a32cd" stroke-dasharray="5,2" d="M655.76,-26.72C684.56,-28.44 715.6,-30.29 743.7,-31.96"/>
<polygon fill="#9a32cd" stroke="#9a32cd" points="656.13,-23.23 645.94,-26.13 655.71,-30.22 656.13,-23.23"/>
</a>
</g>
<text text-anchor="middle" x="694" y="-34.5" font-family="Helvetica,sans-Serif" font-size="10.00" fill="grey"> PreserveLocal</text>
</g>
</g>
</svg>
