<?xml version="1.0" encoding="UTF-8" standalone="no"?>
<!DOCTYPE svg PUBLIC "-//W3C//DTD SVG 1.1//EN"
 "http://www.w3.org/Graphics/SVG/1.1/DTD/svg11.dtd">
<!-- Generated by graphviz version 7.0.1 (20221109.1506)
 -->
<!-- Title: half_float::detail::is_float&lt; typename &gt; Pages: 1 -->
<svg width="540pt" height="134pt"
 viewBox="0.00 0.00 540.00 134.00" xmlns="http://www.w3.org/2000/svg" xmlns:xlink="http://www.w3.org/1999/xlink">
<g id="graph0" class="graph" transform="scale(1 1) rotate(0) translate(4 130)">
<title>half_float::detail::is_float&lt; typename &gt;</title>
<!-- Node1 -->
<g id="Node000001" class="node">
<title>Node1</title>
<g id="a_Node000001"><a xlink:title="Type traits for floating point types.">
<polygon fill="#999999" stroke="#666666" points="212,-78 98,-78 98,-48 212,-48 212,-78"/>
<text text-anchor="start" x="106" y="-66" font-family="Helvetica,sans-Serif" font-size="10.00">half_float::detail</text>
<text text-anchor="middle" x="155" y="-55" font-family="Helvetica,sans-Serif" font-size="10.00">::is_float&lt; typename &gt;</text>
</a>
</g>
</g>
<!-- Node3 -->
<g id="Node000003" class="node">
<title>Node3</title>
<g id="a_Node000003"><a xlink:href="structhalf__float_1_1detail_1_1is__float.html" target="_top" xlink:title=" ">
<polygon fill="white" stroke="#666666" points="359,-78 275,-78 275,-48 359,-48 359,-78"/>
<text text-anchor="start" x="283" y="-66" font-family="Helvetica,sans-Serif" font-size="10.00">half_float::detail</text>
<text text-anchor="middle" x="317" y="-55" font-family="Helvetica,sans-Serif" font-size="10.00">::is_float&lt; T &gt;</text>
</a>
</g>
</g>
<!-- Node1&#45;&gt;Node3 -->
<g id="edge2_Node000001_Node000003" class="edge">
<title>Node1&#45;&gt;Node3</title>
<g id="a_edge2_Node000001_Node000003"><a xlink:title=" ">
<path fill="none" stroke="orange" stroke-dasharray="5,2" d="M223.65,-63C240.99,-63 259.12,-63 274.68,-63"/>
<polygon fill="orange" stroke="orange" points="223.92,-59.5 213.92,-63 223.92,-66.5 223.92,-59.5"/>
</a>
</g>
<text text-anchor="middle" x="243.5" y="-66" font-family="Helvetica,sans-Serif" font-size="10.00" fill="grey"> &lt; T &gt;</text>
</g>
<!-- Node2 -->
<g id="Node000002" class="node">
<title>Node2</title>
<g id="a_Node000002"><a xlink:href="structhalf__float_1_1detail_1_1bool__type.html" target="_top" xlink:title="Helper for tag dispatching.">
<polygon fill="white" stroke="#666666" points="61,-72.5 0,-72.5 0,-53.5 61,-53.5 61,-72.5"/>
<text text-anchor="middle" x="30.5" y="-60.5" font-family="Helvetica,sans-Serif" font-size="10.00">false_type</text>
</a>
</g>
</g>
<!-- Node2&#45;&gt;Node1 -->
<g id="edge1_Node000001_Node000002" class="edge">
<title>Node2&#45;&gt;Node1</title>
<g id="a_edge1_Node000001_Node000002"><a xlink:title=" ">
<path fill="none" stroke="#63b8ff" d="M72.72,-63C80.69,-63 89.18,-63 97.54,-63"/>
<polygon fill="#63b8ff" stroke="#63b8ff" points="72.98,-59.5 62.98,-63 72.98,-66.5 72.98,-59.5"/>
</a>
</g>
</g>
<!-- Node4 -->
<g id="Node000004" class="node">
<title>Node4</title>
<g id="a_Node000004"><a xlink:href="structhalf__float_1_1detail_1_1is__float_3_01const_01_t_01_4.html" target="_top" xlink:title=" ">
<polygon fill="white" stroke="#666666" points="516,-126 412,-126 412,-96 516,-96 516,-126"/>
<text text-anchor="start" x="420" y="-114" font-family="Helvetica,sans-Serif" font-size="10.00">half_float::detail</text>
<text text-anchor="middle" x="464" y="-103" font-family="Helvetica,sans-Serif" font-size="10.00">::is_float&lt; const T &gt;</text>
</a>
</g>
</g>
<!-- Node3&#45;&gt;Node4 -->
<g id="edge3_Node000003_Node000004" class="edge">
<title>Node3&#45;&gt;Node4</title>
<g id="a_edge3_Node000003_Node000004"><a xlink:title=" ">
<path fill="none" stroke="#63b8ff" d="M369.93,-80.19C385.09,-85.21 401.56,-90.66 416.37,-95.56"/>
<polygon fill="#63b8ff" stroke="#63b8ff" points="371.19,-76.92 360.6,-77.1 368.99,-83.57 371.19,-76.92"/>
</a>
</g>
</g>
<!-- Node5 -->
<g id="Node000005" class="node">
<title>Node5</title>
<g id="a_Node000005"><a xlink:href="structhalf__float_1_1detail_1_1is__float_3_01const_01volatile_01_t_01_4.html" target="_top" xlink:title=" ">
<polygon fill="white" stroke="#666666" points="532,-78 396,-78 396,-48 532,-48 532,-78"/>
<text text-anchor="start" x="404" y="-66" font-family="Helvetica,sans-Serif" font-size="10.00">half_float::detail</text>
<text text-anchor="middle" x="464" y="-55" font-family="Helvetica,sans-Serif" font-size="10.00">::is_float&lt; const volatile T &gt;</text>
</a>
</g>
</g>
<!-- Node3&#45;&gt;Node5 -->
<g id="edge4_Node000003_Node000005" class="edge">
<title>Node3&#45;&gt;Node5</title>
<g id="a_edge4_Node000003_Node000005"><a xlink:title=" ">
<path fill="none" stroke="#63b8ff" d="M370.45,-63C378.64,-63 387.21,-63 395.67,-63"/>
<polygon fill="#63b8ff" stroke="#63b8ff" points="370.68,-59.5 360.68,-63 370.68,-66.5 370.68,-59.5"/>
</a>
</g>
</g>
<!-- Node6 -->
<g id="Node000006" class="node">
<title>Node6</title>
<g id="a_Node000006"><a xlink:href="structhalf__float_1_1detail_1_1is__float_3_01volatile_01_t_01_4.html" target="_top" xlink:title=" ">
<polygon fill="white" stroke="#666666" points="518.5,-30 409.5,-30 409.5,0 518.5,0 518.5,-30"/>
<text text-anchor="start" x="417.5" y="-18" font-family="Helvetica,sans-Serif" font-size="10.00">half_float::detail</text>
<text text-anchor="middle" x="464" y="-7" font-family="Helvetica,sans-Serif" font-size="10.00">::is_float&lt; volatile T &gt;</text>
</a>
</g>
</g>
<!-- Node3&#45;&gt;Node6 -->
<g id="edge5_Node000003_Node000006" class="edge">
<title>Node3&#45;&gt;Node6</title>
<g id="a_edge5_Node000003_Node000006"><a xlink:title=" ">
<path fill="none" stroke="#63b8ff" d="M369.93,-45.81C385.09,-40.79 401.56,-35.34 416.37,-30.44"/>
<polygon fill="#63b8ff" stroke="#63b8ff" points="368.99,-42.43 360.6,-48.9 371.19,-49.08 368.99,-42.43"/>
</a>
</g>
</g>
</g>
</svg>
