<?xml version="1.0" encoding="UTF-8" standalone="no"?>
<!DOCTYPE svg PUBLIC "-//W3C//DTD SVG 1.1//EN"
 "http://www.w3.org/Graphics/SVG/1.1/DTD/svg11.dtd">
<!-- Generated by graphviz version 7.0.1 (20221109.1506)
 -->
<!-- Title: Harlinn::Windows::DML::Model::MaxPoolingOutputs Pages: 1 -->
<svg width="1725pt" height="704pt"
 viewBox="0.00 0.00 1725.00 704.00" xmlns="http://www.w3.org/2000/svg" xmlns:xlink="http://www.w3.org/1999/xlink">
<g id="graph0" class="graph" transform="scale(1 1) rotate(0) translate(4 700)">
<title>Harlinn::Windows::DML::Model::MaxPoolingOutputs</title>
<!-- Node1 -->
<g id="Node000001" class="node">
<title>Node1</title>
<g id="a_Node000001"><a xlink:title=" ">
<polygon fill="#999999" stroke="#666666" points="1157,-30 1017,-30 1017,0 1157,0 1157,-30"/>
<text text-anchor="start" x="1025" y="-18" font-family="Helvetica,sans-Serif" font-size="10.00">Harlinn::Windows::DML</text>
<text text-anchor="middle" x="1087" y="-7" font-family="Helvetica,sans-Serif" font-size="10.00">::Model::MaxPoolingOutputs</text>
</a>
</g>
</g>
<!-- Node2 -->
<g id="Node000002" class="node">
<title>Node2</title>
<g id="a_Node000002"><a xlink:href="class_harlinn_1_1_windows_1_1_d_m_l_1_1_model_1_1_expression.html" target="_top" xlink:title=" ">
<polygon fill="white" stroke="#666666" points="848.5,-34 729.5,-34 729.5,-4 848.5,-4 848.5,-34"/>
<text text-anchor="start" x="737.5" y="-22" font-family="Helvetica,sans-Serif" font-size="10.00">Harlinn::Windows::DML</text>
<text text-anchor="middle" x="789" y="-11" font-family="Helvetica,sans-Serif" font-size="10.00">::Model::Expression</text>
</a>
</g>
</g>
<!-- Node2&#45;&gt;Node1 -->
<g id="edge1_Node000001_Node000002" class="edge">
<title>Node2&#45;&gt;Node1</title>
<g id="a_edge1_Node000001_Node000002"><a xlink:title=" ">
<path fill="none" stroke="#9a32cd" stroke-dasharray="5,2" d="M860.21,-18.05C907.47,-17.41 969.53,-16.57 1016.62,-15.94"/>
<polygon fill="#9a32cd" stroke="#9a32cd" points="860.3,-14.55 850.35,-18.18 860.39,-21.55 860.3,-14.55"/>
</a>
</g>
<text text-anchor="middle" x="940" y="-32" font-family="Helvetica,sans-Serif" font-size="10.00" fill="grey"> indices</text>
<text text-anchor="middle" x="940" y="-21" font-family="Helvetica,sans-Serif" font-size="10.00" fill="grey">values</text>
</g>
<!-- Node3 -->
<g id="Node000003" class="node">
<title>Node3</title>
<g id="a_Node000003"><a xlink:href="class_harlinn_1_1_windows_1_1_d_m_l_1_1_model_1_1_internal_1_1_node_output.html" target="_top" xlink:title=" ">
<polygon fill="white" stroke="#666666" points="575,-114 431,-114 431,-84 575,-84 575,-114"/>
<text text-anchor="start" x="439" y="-102" font-family="Helvetica,sans-Serif" font-size="10.00">Harlinn::Windows::DML</text>
<text text-anchor="middle" x="503" y="-91" font-family="Helvetica,sans-Serif" font-size="10.00">::Model::Internal::NodeOutput</text>
</a>
</g>
</g>
<!-- Node3&#45;&gt;Node2 -->
<g id="edge2_Node000002_Node000003" class="edge">
<title>Node3&#45;&gt;Node2</title>
<g id="a_edge2_Node000002_Node000003"><a xlink:title=" ">
<path fill="none" stroke="#9a32cd" stroke-dasharray="5,2" d="M530.76,-76.8C547.57,-64.12 570.3,-49.16 593,-41 636.92,-25.22 689.68,-20.03 729.24,-18.61"/>
<polygon fill="#9a32cd" stroke="#9a32cd" points="529.01,-73.72 523.26,-82.62 533.3,-79.25 529.01,-73.72"/>
</a>
</g>
<text text-anchor="middle" x="641.5" y="-44" font-family="Helvetica,sans-Serif" font-size="10.00" fill="grey"> m_nodeOutput</text>
</g>
<!-- Node18 -->
<g id="Node000018" class="node">
<title>Node18</title>
<g id="a_Node000018"><a xlink:title=" ">
<polygon fill="white" stroke="#666666" points="853,-492.5 725,-492.5 725,-451.5 853,-451.5 853,-492.5"/>
<text text-anchor="start" x="733" y="-480.5" font-family="Helvetica,sans-Serif" font-size="10.00">std::vector&lt; Harlinn</text>
<text text-anchor="start" x="733" y="-469.5" font-family="Helvetica,sans-Serif" font-size="10.00">::Windows::DML::Model</text>
<text text-anchor="middle" x="789" y="-458.5" font-family="Helvetica,sans-Serif" font-size="10.00">::Internal::NodeOutput * &gt;</text>
</a>
</g>
</g>
<!-- Node3&#45;&gt;Node18 -->
<g id="edge19_Node000018_Node000003" class="edge">
<title>Node3&#45;&gt;Node18</title>
<g id="a_edge19_Node000018_Node000003"><a xlink:title=" ">
<path fill="none" stroke="#9a32cd" stroke-dasharray="5,2" d="M541.21,-120.66C554.09,-130.12 567.23,-142.42 575,-157 615.5,-233.04 547.8,-276.66 593,-350 602.53,-365.47 697.07,-420.61 750.93,-451.19"/>
<polygon fill="#9a32cd" stroke="#9a32cd" points="543.42,-117.94 533.2,-115.14 539.45,-123.7 543.42,-117.94"/>
</a>
</g>
<text text-anchor="middle" x="641.5" y="-418" font-family="Helvetica,sans-Serif" font-size="10.00" fill="grey"> elements</text>
</g>
<!-- Node22 -->
<g id="Node000022" class="node">
<title>Node22</title>
<g id="a_Node000022"><a xlink:href="struct_harlinn_1_1_windows_1_1_d_m_l_1_1_model_1_1_internal_1_1_reinterpret_node.html" target="_top" xlink:title=" ">
<polygon fill="white" stroke="#666666" points="870,-184 708,-184 708,-154 870,-154 870,-184"/>
<text text-anchor="start" x="716" y="-172" font-family="Helvetica,sans-Serif" font-size="10.00">Harlinn::Windows::DML</text>
<text text-anchor="middle" x="789" y="-161" font-family="Helvetica,sans-Serif" font-size="10.00">::Model::Internal::ReinterpretNode</text>
</a>
</g>
</g>
<!-- Node3&#45;&gt;Node22 -->
<g id="edge26_Node000022_Node000003" class="edge">
<title>Node3&#45;&gt;Node22</title>
<g id="a_edge26_Node000022_Node000003"><a xlink:title=" ">
<path fill="none" stroke="#9a32cd" stroke-dasharray="5,2" d="M586.45,-110.25C627,-116.46 671.15,-124.43 690,-132 698.92,-135.58 699.32,-139.86 708,-144 715.48,-147.57 723.6,-150.8 731.7,-153.64"/>
<polygon fill="#9a32cd" stroke="#9a32cd" points="587.04,-106.8 576.63,-108.77 585.99,-113.72 587.04,-106.8"/>
</a>
</g>
<text text-anchor="middle" x="641.5" y="-135" font-family="Helvetica,sans-Serif" font-size="10.00" fill="grey"> input</text>
</g>
<!-- Node27 -->
<g id="Node000027" class="node">
<title>Node27</title>
<g id="a_Node000027"><a xlink:title=" ">
<polygon fill="white" stroke="#666666" points="849.5,-135.5 728.5,-135.5 728.5,-94.5 849.5,-94.5 849.5,-135.5"/>
<text text-anchor="start" x="736.5" y="-123.5" font-family="Helvetica,sans-Serif" font-size="10.00">std::deque&lt; Harlinn</text>
<text text-anchor="start" x="736.5" y="-112.5" font-family="Helvetica,sans-Serif" font-size="10.00">::Windows::DML::Model</text>
<text text-anchor="middle" x="789" y="-101.5" font-family="Helvetica,sans-Serif" font-size="10.00">::Internal::NodeOutput &gt;</text>
</a>
</g>
</g>
<!-- Node3&#45;&gt;Node27 -->
<g id="edge36_Node000027_Node000003" class="edge">
<title>Node3&#45;&gt;Node27</title>
<g id="a_edge36_Node000027_Node000003"><a xlink:title=" ">
<path fill="none" stroke="#9a32cd" stroke-dasharray="5,2" d="M586.42,-96.85C618.76,-96.69 656.16,-97.33 690,-100 702.35,-100.97 715.51,-102.59 728.04,-104.4"/>
<polygon fill="#9a32cd" stroke="#9a32cd" points="586.69,-93.35 576.72,-96.93 586.74,-100.35 586.69,-93.35"/>
</a>
</g>
<text text-anchor="middle" x="641.5" y="-103" font-family="Helvetica,sans-Serif" font-size="10.00" fill="grey"> elements</text>
</g>
<!-- Node4 -->
<g id="Node000004" class="node">
<title>Node4</title>
<g id="a_Node000004"><a xlink:href="class_harlinn_1_1_windows_1_1_d_m_l_1_1_model_1_1_internal_1_1_graph_builder.html" target="_top" xlink:title=" ">
<polygon fill="white" stroke="#666666" points="1717,-354 1568,-354 1568,-324 1717,-324 1717,-354"/>
<text text-anchor="start" x="1576" y="-342" font-family="Helvetica,sans-Serif" font-size="10.00">Harlinn::Windows::DML</text>
<text text-anchor="middle" x="1642.5" y="-331" font-family="Helvetica,sans-Serif" font-size="10.00">::Model::Internal::GraphBuilder</text>
</a>
</g>
</g>
<!-- Node4&#45;&gt;Node3 -->
<g id="edge3_Node000003_Node000004" class="edge">
<title>Node4&#45;&gt;Node3</title>
<g id="a_edge3_Node000003_Node000004"><a xlink:title=" ">
<path fill="none" stroke="#9a32cd" stroke-dasharray="5,2" d="M1631.75,-312.85C1604.39,-244.53 1520.01,-66 1385.5,-66 788,-66 788,-66 788,-66 715.16,-66 632.5,-76.84 575.22,-86.1"/>
<polygon fill="#9a32cd" stroke="#9a32cd" points="1628.47,-314.09 1635.37,-322.13 1634.99,-311.54 1628.47,-314.09"/>
</a>
</g>
<text text-anchor="middle" x="1087" y="-69" font-family="Helvetica,sans-Serif" font-size="10.00" fill="grey"> owner_</text>
</g>
<!-- Node5 -->
<g id="Node000005" class="node">
<title>Node5</title>
<g id="a_Node000005"><a xlink:href="class_harlinn_1_1_windows_1_1_d_m_l_1_1_device1.html" target="_top" xlink:title=" ">
<polygon fill="white" stroke="#666666" points="1301,-689 1182,-689 1182,-659 1301,-659 1301,-689"/>
<text text-anchor="start" x="1190" y="-677" font-family="Helvetica,sans-Serif" font-size="10.00">Harlinn::Windows::DML</text>
<text text-anchor="middle" x="1241.5" y="-666" font-family="Helvetica,sans-Serif" font-size="10.00">::Device1</text>
</a>
</g>
</g>
<!-- Node5&#45;&gt;Node4 -->
<g id="edge4_Node000004_Node000005" class="edge">
<title>Node5&#45;&gt;Node4</title>
<g id="a_edge4_Node000004_Node000005"><a xlink:title=" ">
<path fill="none" stroke="#9a32cd" stroke-dasharray="5,2" d="M1312.35,-681.18C1380.94,-684.25 1484.55,-677.7 1550,-621 1632.67,-549.39 1641.14,-402.36 1641.63,-354.46"/>
<polygon fill="#9a32cd" stroke="#9a32cd" points="1312.92,-677.71 1302.74,-680.67 1312.54,-684.7 1312.92,-677.71"/>
</a>
</g>
<text text-anchor="middle" x="1384.5" y="-684" font-family="Helvetica,sans-Serif" font-size="10.00" fill="grey"> m_device</text>
</g>
<!-- Node6 -->
<g id="Node000006" class="node">
<title>Node6</title>
<g id="a_Node000006"><a xlink:href="class_harlinn_1_1_windows_1_1_d_m_l_1_1_device.html" target="_top" xlink:title=" ">
<polygon fill="white" stroke="#666666" points="562.5,-696 443.5,-696 443.5,-666 562.5,-666 562.5,-696"/>
<text text-anchor="start" x="451.5" y="-684" font-family="Helvetica,sans-Serif" font-size="10.00">Harlinn::Windows::DML</text>
<text text-anchor="middle" x="503" y="-673" font-family="Helvetica,sans-Serif" font-size="10.00">::Device</text>
</a>
</g>
</g>
<!-- Node6&#45;&gt;Node5 -->
<g id="edge5_Node000005_Node000006" class="edge">
<title>Node6&#45;&gt;Node5</title>
<g id="a_edge5_Node000005_Node000006"><a xlink:title=" ">
<path fill="none" stroke="#63b8ff" d="M574.04,-680.33C718.52,-678.96 1047.29,-675.84 1181.64,-674.56"/>
<polygon fill="#63b8ff" stroke="#63b8ff" points="574.2,-676.83 564.23,-680.43 574.26,-683.83 574.2,-676.83"/>
</a>
</g>
</g>
<!-- Node7 -->
<g id="Node000007" class="node">
<title>Node7</title>
<g id="a_Node000007"><a xlink:href="class_harlinn_1_1_windows_1_1_d_m_l_1_1_object.html" target="_top" xlink:title=" ">
<polygon fill="white" stroke="#666666" points="334.5,-672 215.5,-672 215.5,-642 334.5,-642 334.5,-672"/>
<text text-anchor="start" x="223.5" y="-660" font-family="Helvetica,sans-Serif" font-size="10.00">Harlinn::Windows::DML</text>
<text text-anchor="middle" x="275" y="-649" font-family="Helvetica,sans-Serif" font-size="10.00">::Object</text>
</a>
</g>
</g>
<!-- Node7&#45;&gt;Node6 -->
<g id="edge6_Node000006_Node000007" class="edge">
<title>Node7&#45;&gt;Node6</title>
<g id="a_edge6_Node000006_Node000007"><a xlink:title=" ">
<path fill="none" stroke="#63b8ff" d="M346.01,-664.43C377.14,-667.74 413.4,-671.59 443.11,-674.75"/>
<polygon fill="#63b8ff" stroke="#63b8ff" points="346.61,-660.98 336.29,-663.4 345.87,-667.94 346.61,-660.98"/>
</a>
</g>
</g>
<!-- Node17 -->
<g id="Node000017" class="node">
<title>Node17</title>
<g id="a_Node000017"><a xlink:href="class_harlinn_1_1_windows_1_1_d_m_l_1_1_device_child.html" target="_top" xlink:title=" ">
<polygon fill="white" stroke="#666666" points="562.5,-648 443.5,-648 443.5,-618 562.5,-618 562.5,-648"/>
<text text-anchor="start" x="451.5" y="-636" font-family="Helvetica,sans-Serif" font-size="10.00">Harlinn::Windows::DML</text>
<text text-anchor="middle" x="503" y="-625" font-family="Helvetica,sans-Serif" font-size="10.00">::DeviceChild</text>
</a>
</g>
</g>
<!-- Node7&#45;&gt;Node17 -->
<g id="edge17_Node000017_Node000007" class="edge">
<title>Node7&#45;&gt;Node17</title>
<g id="a_edge17_Node000017_Node000007"><a xlink:title=" ">
<path fill="none" stroke="#63b8ff" d="M346.01,-649.57C377.14,-646.26 413.4,-642.41 443.11,-639.25"/>
<polygon fill="#63b8ff" stroke="#63b8ff" points="345.87,-646.06 336.29,-650.6 346.61,-653.02 345.87,-646.06"/>
</a>
</g>
</g>
<!-- Node8 -->
<g id="Node000008" class="node">
<title>Node8</title>
<g id="a_Node000008"><a xlink:href="class_harlinn_1_1_common_1_1_core_1_1_unknown.html" target="_top" xlink:title="Base class for COM interface wrappers.">
<polygon fill="white" stroke="#666666" points="118.5,-672 0.5,-672 0.5,-642 118.5,-642 118.5,-672"/>
<text text-anchor="start" x="8.5" y="-660" font-family="Helvetica,sans-Serif" font-size="10.00">Harlinn::Common::Core</text>
<text text-anchor="middle" x="59.5" y="-649" font-family="Helvetica,sans-Serif" font-size="10.00">::Unknown</text>
</a>
</g>
</g>
<!-- Node8&#45;&gt;Node7 -->
<g id="edge7_Node000007_Node000008" class="edge">
<title>Node8&#45;&gt;Node7</title>
<g id="a_edge7_Node000007_Node000008"><a xlink:title=" ">
<path fill="none" stroke="#63b8ff" d="M130,-657C157.58,-657 188.95,-657 215.36,-657"/>
<polygon fill="#63b8ff" stroke="#63b8ff" points="130.35,-653.5 120.35,-657 130.35,-660.5 130.35,-653.5"/>
</a>
</g>
</g>
<!-- Node9 -->
<g id="Node000009" class="node">
<title>Node9</title>
<g id="a_Node000009"><a xlink:href="class_harlinn_1_1_windows_1_1_d_m_l_1_1_model_1_1_tensor_policy.html" target="_top" xlink:title=" ">
<polygon fill="white" stroke="#666666" points="1444,-496 1325,-496 1325,-466 1444,-466 1444,-496"/>
<text text-anchor="start" x="1333" y="-484" font-family="Helvetica,sans-Serif" font-size="10.00">Harlinn::Windows::DML</text>
<text text-anchor="middle" x="1384.5" y="-473" font-family="Helvetica,sans-Serif" font-size="10.00">::Model::TensorPolicy</text>
</a>
</g>
</g>
<!-- Node9&#45;&gt;Node4 -->
<g id="edge8_Node000004_Node000009" class="edge">
<title>Node9&#45;&gt;Node4</title>
<g id="a_edge8_Node000004_Node000009"><a xlink:title=" ">
<path fill="none" stroke="#9a32cd" stroke-dasharray="5,2" d="M1438.18,-461.6C1442.19,-460.06 1446.16,-458.52 1450,-457 1494.82,-439.26 1508.79,-440.01 1550,-415 1579.13,-397.32 1608.72,-370.86 1626.08,-354.28"/>
<polygon fill="#9a32cd" stroke="#9a32cd" points="1437.1,-458.27 1428.99,-465.09 1439.58,-464.81 1437.1,-458.27"/>
</a>
</g>
<text text-anchor="middle" x="1509" y="-452" font-family="Helvetica,sans-Serif" font-size="10.00" fill="grey"> m_tensorPolicy</text>
</g>
<!-- Node10 -->
<g id="Node000010" class="node">
<title>Node10</title>
<g id="a_Node000010"><a xlink:title=" ">
<polygon fill="white" stroke="#666666" points="849.5,-350.5 728.5,-350.5 728.5,-309.5 849.5,-309.5 849.5,-350.5"/>
<text text-anchor="start" x="736.5" y="-338.5" font-family="Helvetica,sans-Serif" font-size="10.00">std::vector&lt; Harlinn</text>
<text text-anchor="start" x="736.5" y="-327.5" font-family="Helvetica,sans-Serif" font-size="10.00">::Windows::DML::Model</text>
<text text-anchor="middle" x="789" y="-316.5" font-family="Helvetica,sans-Serif" font-size="10.00">::Internal::InputNode &gt;</text>
</a>
</g>
</g>
<!-- Node10&#45;&gt;Node4 -->
<g id="edge9_Node000004_Node000010" class="edge">
<title>Node10&#45;&gt;Node4</title>
<g id="a_edge9_Node000004_Node000010"><a xlink:title=" ">
<path fill="none" stroke="#9a32cd" stroke-dasharray="5,2" d="M860.96,-330.75C1020.39,-332.44 1405.67,-336.51 1567.73,-338.22"/>
<polygon fill="#9a32cd" stroke="#9a32cd" points="861.43,-327.25 851.39,-330.65 861.35,-334.25 861.43,-327.25"/>
</a>
</g>
<text text-anchor="middle" x="1241.5" y="-338" font-family="Helvetica,sans-Serif" font-size="10.00" fill="grey"> m_inputNodes</text>
</g>
<!-- Node11 -->
<g id="Node000011" class="node">
<title>Node11</title>
<g id="a_Node000011"><a xlink:href="struct_harlinn_1_1_windows_1_1_d_m_l_1_1_model_1_1_internal_1_1_input_node.html" target="_top" xlink:title=" ">
<polygon fill="white" stroke="#666666" points="571,-276 435,-276 435,-246 571,-246 571,-276"/>
<text text-anchor="start" x="443" y="-264" font-family="Helvetica,sans-Serif" font-size="10.00">Harlinn::Windows::DML</text>
<text text-anchor="middle" x="503" y="-253" font-family="Helvetica,sans-Serif" font-size="10.00">::Model::Internal::InputNode</text>
</a>
</g>
</g>
<!-- Node11&#45;&gt;Node10 -->
<g id="edge10_Node000010_Node000011" class="edge">
<title>Node11&#45;&gt;Node10</title>
<g id="a_edge10_Node000010_Node000011"><a xlink:title=" ">
<path fill="none" stroke="#9a32cd" stroke-dasharray="5,2" d="M582.25,-274.42C615.65,-280.7 654.94,-288.82 690,-298 702.47,-301.26 715.67,-305.22 728.22,-309.23"/>
<polygon fill="#9a32cd" stroke="#9a32cd" points="583.12,-271.02 572.65,-272.64 581.84,-277.9 583.12,-271.02"/>
</a>
</g>
<text text-anchor="middle" x="641.5" y="-301" font-family="Helvetica,sans-Serif" font-size="10.00" fill="grey"> elements</text>
</g>
<!-- Node12 -->
<g id="Node000012" class="node">
<title>Node12</title>
<g id="a_Node000012"><a xlink:title=" ">
<polygon fill="white" stroke="#666666" points="545.5,-355.5 460.5,-355.5 460.5,-336.5 545.5,-336.5 545.5,-355.5"/>
<text text-anchor="middle" x="503" y="-343.5" font-family="Helvetica,sans-Serif" font-size="10.00">std::vector&lt; T &gt;</text>
</a>
</g>
</g>
<!-- Node12&#45;&gt;Node10 -->
<g id="edge11_Node000010_Node000012" class="edge">
<title>Node12&#45;&gt;Node10</title>
<g id="a_edge11_Node000010_Node000012"><a xlink:title=" ">
<path fill="none" stroke="orange" stroke-dasharray="5,2" d="M538.3,-332.02C554.58,-326.12 574.48,-319.94 593,-317 638.07,-309.84 689.61,-313.79 728.38,-319.16"/>
<polygon fill="orange" stroke="orange" points="537.21,-328.69 529.09,-335.49 539.68,-335.24 537.21,-328.69"/>
</a>
</g>
<text text-anchor="start" x="593" y="-342" font-family="Helvetica,sans-Serif" font-size="10.00" fill="grey"> &lt; Harlinn::Windows</text>
<text text-anchor="start" x="593" y="-331" font-family="Helvetica,sans-Serif" font-size="10.00" fill="grey">::DML::Model::Internal</text>
<text text-anchor="middle" x="641.5" y="-320" font-family="Helvetica,sans-Serif" font-size="10.00" fill="grey">::InputNode &gt;</text>
</g>
<!-- Node14 -->
<g id="Node000014" class="node">
<title>Node14</title>
<g id="a_Node000014"><a xlink:title=" ">
<polygon fill="white" stroke="#666666" points="1449,-447.5 1320,-447.5 1320,-406.5 1449,-406.5 1449,-447.5"/>
<text text-anchor="start" x="1328" y="-435.5" font-family="Helvetica,sans-Serif" font-size="10.00">std::vector&lt; Harlinn</text>
<text text-anchor="start" x="1328" y="-424.5" font-family="Helvetica,sans-Serif" font-size="10.00">::Windows::DML::Model</text>
<text text-anchor="middle" x="1384.5" y="-413.5" font-family="Helvetica,sans-Serif" font-size="10.00">::Internal::OperatorNode &gt;</text>
</a>
</g>
</g>
<!-- Node12&#45;&gt;Node14 -->
<g id="edge23_Node000014_Node000012" class="edge">
<title>Node12&#45;&gt;Node14</title>
<g id="a_edge23_Node000014_Node000012"><a xlink:title=" ">
<path fill="none" stroke="orange" stroke-dasharray="5,2" d="M524.77,-362.87C541.93,-375.7 567.52,-392.4 593,-400 661.68,-420.48 1143.97,-425.51 1319.67,-426.67"/>
<polygon fill="orange" stroke="orange" points="526.96,-360.14 516.91,-356.79 522.68,-365.67 526.96,-360.14"/>
</a>
</g>
<text text-anchor="start" x="891.5" y="-447" font-family="Helvetica,sans-Serif" font-size="10.00" fill="grey"> &lt; Harlinn::Windows</text>
<text text-anchor="start" x="891.5" y="-436" font-family="Helvetica,sans-Serif" font-size="10.00" fill="grey">::DML::Model::Internal</text>
<text text-anchor="middle" x="940" y="-425" font-family="Helvetica,sans-Serif" font-size="10.00" fill="grey">::OperatorNode &gt;</text>
</g>
<!-- Node12&#45;&gt;Node18 -->
<g id="edge20_Node000018_Node000012" class="edge">
<title>Node12&#45;&gt;Node18</title>
<g id="a_edge20_Node000018_Node000012"><a xlink:title=" ">
<path fill="none" stroke="orange" stroke-dasharray="5,2" d="M521.81,-363.55C536.25,-377.84 557.08,-398.59 575,-417 583.11,-425.34 582.78,-430.45 593,-436 604.59,-442.29 672.18,-453.95 724.58,-462.3"/>
<polygon fill="orange" stroke="orange" points="524.38,-361.16 514.81,-356.63 519.46,-366.15 524.38,-361.16"/>
</a>
</g>
<text text-anchor="start" x="593" y="-481" font-family="Helvetica,sans-Serif" font-size="10.00" fill="grey"> &lt; Harlinn::Windows</text>
<text text-anchor="start" x="593" y="-470" font-family="Helvetica,sans-Serif" font-size="10.00" fill="grey">::DML::Model::Internal</text>
<text text-anchor="middle" x="641.5" y="-459" font-family="Helvetica,sans-Serif" font-size="10.00" fill="grey">::NodeOutput * &gt;</text>
</g>
<!-- Node21 -->
<g id="Node000021" class="node">
<title>Node21</title>
<g id="a_Node000021"><a xlink:title=" ">
<polygon fill="white" stroke="#666666" points="1156.5,-240.5 1017.5,-240.5 1017.5,-199.5 1156.5,-199.5 1156.5,-240.5"/>
<text text-anchor="start" x="1025.5" y="-228.5" font-family="Helvetica,sans-Serif" font-size="10.00">std::vector&lt; Harlinn</text>
<text text-anchor="start" x="1025.5" y="-217.5" font-family="Helvetica,sans-Serif" font-size="10.00">::Windows::DML::Model</text>
<text text-anchor="middle" x="1087" y="-206.5" font-family="Helvetica,sans-Serif" font-size="10.00">::Internal::ReinterpretNode &gt;</text>
</a>
</g>
</g>
<!-- Node12&#45;&gt;Node21 -->
<g id="edge27_Node000021_Node000012" class="edge">
<title>Node12&#45;&gt;Node21</title>
<g id="a_edge27_Node000021_Node000012"><a xlink:title=" ">
<path fill="none" stroke="orange" stroke-dasharray="5,2" d="M537.25,-331.7C553.9,-324.66 574.43,-316.16 593,-309 643.62,-289.47 655.22,-280.6 708,-268 814.33,-242.61 940.89,-230 1017.26,-224.25"/>
<polygon fill="orange" stroke="orange" points="536.15,-328.37 528.31,-335.5 538.88,-334.81 536.15,-328.37"/>
</a>
</g>
<text text-anchor="start" x="740.5" y="-293" font-family="Helvetica,sans-Serif" font-size="10.00" fill="grey"> &lt; Harlinn::Windows</text>
<text text-anchor="start" x="740.5" y="-282" font-family="Helvetica,sans-Serif" font-size="10.00" fill="grey">::DML::Model::Internal</text>
<text text-anchor="middle" x="789" y="-271" font-family="Helvetica,sans-Serif" font-size="10.00" fill="grey">::ReinterpretNode &gt;</text>
</g>
<!-- Node23 -->
<g id="Node000023" class="node">
<title>Node23</title>
<g id="a_Node000023"><a xlink:title=" ">
<polygon fill="white" stroke="#666666" points="1450,-388.5 1319,-388.5 1319,-347.5 1450,-347.5 1450,-388.5"/>
<text text-anchor="start" x="1327" y="-376.5" font-family="Helvetica,sans-Serif" font-size="10.00">std::vector&lt; Harlinn</text>
<text text-anchor="start" x="1327" y="-365.5" font-family="Helvetica,sans-Serif" font-size="10.00">::Windows::DML::Model</text>
<text text-anchor="middle" x="1384.5" y="-354.5" font-family="Helvetica,sans-Serif" font-size="10.00">::Internal::ConstantNode &gt;</text>
</a>
</g>
</g>
<!-- Node12&#45;&gt;Node23 -->
<g id="edge34_Node000023_Node000012" class="edge">
<title>Node12&#45;&gt;Node23</title>
<g id="a_edge34_Node000023_Node000012"><a xlink:title=" ">
<path fill="none" stroke="orange" stroke-dasharray="5,2" d="M531.25,-361.05C548.4,-369.64 571.33,-379.57 593,-384 635.24,-392.64 646.92,-385.74 690,-384 778.22,-380.44 799.78,-371.56 888,-368 1042.29,-361.78 1223.82,-364.28 1318.54,-366.33"/>
<polygon fill="orange" stroke="orange" points="533.21,-358.12 522.72,-356.62 529.99,-364.33 533.21,-358.12"/>
</a>
</g>
<text text-anchor="start" x="891.5" y="-393" font-family="Helvetica,sans-Serif" font-size="10.00" fill="grey"> &lt; Harlinn::Windows</text>
<text text-anchor="start" x="891.5" y="-382" font-family="Helvetica,sans-Serif" font-size="10.00" fill="grey">::DML::Model::Internal</text>
<text text-anchor="middle" x="940" y="-371" font-family="Helvetica,sans-Serif" font-size="10.00" fill="grey">::ConstantNode &gt;</text>
</g>
<!-- Node13 -->
<g id="Node000013" class="node">
<title>Node13</title>
<g id="a_Node000013"><a xlink:title=" ">
<polygon fill="white" stroke="#666666" points="289.5,-299.5 260.5,-299.5 260.5,-280.5 289.5,-280.5 289.5,-299.5"/>
<text text-anchor="middle" x="275" y="-287.5" font-family="Helvetica,sans-Serif" font-size="10.00">T</text>
</a>
</g>
</g>
<!-- Node13&#45;&gt;Node12 -->
<g id="edge12_Node000012_Node000013" class="edge">
<title>Node13&#45;&gt;Node12</title>
<g id="a_edge12_Node000012_Node000013"><a xlink:title=" ">
<path fill="none" stroke="#9a32cd" stroke-dasharray="5,2" d="M300.81,-296.15C339.64,-305.77 415.12,-324.47 461.78,-336.04"/>
<polygon fill="#9a32cd" stroke="#9a32cd" points="301.81,-292.79 291.27,-293.78 300.13,-299.59 301.81,-292.79"/>
</a>
</g>
<text text-anchor="middle" x="384" y="-326" font-family="Helvetica,sans-Serif" font-size="10.00" fill="grey"> elements</text>
</g>
<!-- Node26 -->
<g id="Node000026" class="node">
<title>Node26</title>
<g id="a_Node000026"><a xlink:title=" ">
<polygon fill="white" stroke="#666666" points="543,-444.5 463,-444.5 463,-425.5 543,-425.5 543,-444.5"/>
<text text-anchor="middle" x="503" y="-432.5" font-family="Helvetica,sans-Serif" font-size="10.00">std::span&lt; T &gt;</text>
</a>
</g>
</g>
<!-- Node13&#45;&gt;Node26 -->
<g id="edge32_Node000026_Node000013" class="edge">
<title>Node13&#45;&gt;Node26</title>
<g id="a_edge32_Node000026_Node000013"><a xlink:title=" ">
<path fill="none" stroke="#9a32cd" stroke-dasharray="5,2" d="M299.27,-304.93C345.5,-334.59 447.77,-400.21 486.62,-425.13"/>
<polygon fill="#9a32cd" stroke="#9a32cd" points="301.38,-302.12 291.07,-299.67 297.6,-308.02 301.38,-302.12"/>
</a>
</g>
<text text-anchor="middle" x="384" y="-378" font-family="Helvetica,sans-Serif" font-size="10.00" fill="grey"> elements</text>
</g>
<!-- Node28 -->
<g id="Node000028" class="node">
<title>Node28</title>
<g id="a_Node000028"><a xlink:title=" ">
<polygon fill="white" stroke="#666666" points="546,-185.5 460,-185.5 460,-166.5 546,-166.5 546,-185.5"/>
<text text-anchor="middle" x="503" y="-173.5" font-family="Helvetica,sans-Serif" font-size="10.00">std::deque&lt; T &gt;</text>
</a>
</g>
</g>
<!-- Node13&#45;&gt;Node28 -->
<g id="edge38_Node000028_Node000013" class="edge">
<title>Node13&#45;&gt;Node28</title>
<g id="a_edge38_Node000028_Node000013"><a xlink:title=" ">
<path fill="none" stroke="#9a32cd" stroke-dasharray="5,2" d="M294.99,-272.3C310.28,-258.77 332.81,-240.39 355,-228 386.43,-210.45 397.06,-211.99 431,-200 444.37,-195.28 459.23,-190.23 471.88,-185.98"/>
<polygon fill="#9a32cd" stroke="#9a32cd" points="292.67,-269.68 287.6,-278.99 297.36,-274.88 292.67,-269.68"/>
</a>
</g>
<text text-anchor="middle" x="384" y="-231" font-family="Helvetica,sans-Serif" font-size="10.00" fill="grey"> elements</text>
</g>
<!-- Node30 -->
<g id="Node000030" class="node">
<title>Node30</title>
<g id="a_Node000030"><a xlink:title=" ">
<polygon fill="white" stroke="#666666" points="544.5,-227.5 461.5,-227.5 461.5,-208.5 544.5,-208.5 544.5,-227.5"/>
<text text-anchor="middle" x="503" y="-215.5" font-family="Helvetica,sans-Serif" font-size="10.00">std::stack&lt; T &gt;</text>
</a>
</g>
</g>
<!-- Node13&#45;&gt;Node30 -->
<g id="edge42_Node000030_Node000013" class="edge">
<title>Node13&#45;&gt;Node30</title>
<g id="a_edge42_Node000030_Node000013"><a xlink:title=" ">
<path fill="none" stroke="#9a32cd" stroke-dasharray="5,2" d="M300.39,-281.09C330.78,-270.11 384.4,-251.18 431,-237 441.25,-233.88 452.42,-230.76 462.8,-227.98"/>
<polygon fill="#9a32cd" stroke="#9a32cd" points="299.21,-277.79 291.01,-284.49 301.6,-284.37 299.21,-277.79"/>
</a>
</g>
<text text-anchor="middle" x="384" y="-263" font-family="Helvetica,sans-Serif" font-size="10.00" fill="grey"> elements</text>
</g>
<!-- Node14&#45;&gt;Node4 -->
<g id="edge13_Node000004_Node000014" class="edge">
<title>Node14&#45;&gt;Node4</title>
<g id="a_edge13_Node000004_Node000014"><a xlink:title=" ">
<path fill="none" stroke="#9a32cd" stroke-dasharray="5,2" d="M1459.98,-403.23C1488.25,-394.02 1520.69,-383.25 1550,-373 1566.8,-367.13 1585.21,-360.35 1601.08,-354.4"/>
<polygon fill="#9a32cd" stroke="#9a32cd" points="1459.23,-399.79 1450.8,-406.2 1461.39,-406.45 1459.23,-399.79"/>
</a>
</g>
<text text-anchor="middle" x="1509" y="-403" font-family="Helvetica,sans-Serif" font-size="10.00" fill="grey"> m_operatorNodes</text>
</g>
<!-- Node15 -->
<g id="Node000015" class="node">
<title>Node15</title>
<g id="a_Node000015"><a xlink:href="struct_harlinn_1_1_windows_1_1_d_m_l_1_1_model_1_1_internal_1_1_operator_node.html" target="_top" xlink:title=" ">
<polygon fill="white" stroke="#666666" points="1163,-570 1011,-570 1011,-540 1163,-540 1163,-570"/>
<text text-anchor="start" x="1019" y="-558" font-family="Helvetica,sans-Serif" font-size="10.00">Harlinn::Windows::DML</text>
<text text-anchor="middle" x="1087" y="-547" font-family="Helvetica,sans-Serif" font-size="10.00">::Model::Internal::OperatorNode</text>
</a>
</g>
</g>
<!-- Node15&#45;&gt;Node14 -->
<g id="edge14_Node000014_Node000015" class="edge">
<title>Node15&#45;&gt;Node14</title>
<g id="a_edge14_Node000014_Node000015"><a xlink:title=" ">
<path fill="none" stroke="#9a32cd" stroke-dasharray="5,2" d="M1134.08,-535.04C1188.79,-511.34 1279.6,-472.01 1335.24,-447.9"/>
<polygon fill="#9a32cd" stroke="#9a32cd" points="1132.82,-531.77 1125.03,-538.96 1135.6,-538.2 1132.82,-531.77"/>
</a>
</g>
<text text-anchor="middle" x="1241.5" y="-516" font-family="Helvetica,sans-Serif" font-size="10.00" fill="grey"> elements</text>
</g>
<!-- Node16 -->
<g id="Node000016" class="node">
<title>Node16</title>
<g id="a_Node000016"><a xlink:href="class_harlinn_1_1_windows_1_1_d_m_l_1_1_operator.html" target="_top" xlink:title=" ">
<polygon fill="white" stroke="#666666" points="848.5,-650 729.5,-650 729.5,-620 848.5,-620 848.5,-650"/>
<text text-anchor="start" x="737.5" y="-638" font-family="Helvetica,sans-Serif" font-size="10.00">Harlinn::Windows::DML</text>
<text text-anchor="middle" x="789" y="-627" font-family="Helvetica,sans-Serif" font-size="10.00">::Operator</text>
</a>
</g>
</g>
<!-- Node16&#45;&gt;Node15 -->
<g id="edge15_Node000015_Node000016" class="edge">
<title>Node16&#45;&gt;Node15</title>
<g id="a_edge15_Node000015_Node000016"><a xlink:title=" ">
<path fill="none" stroke="#9a32cd" stroke-dasharray="5,2" d="M859.66,-619.56C898.76,-610.53 948.32,-598.48 992,-586 1008.36,-581.33 1026.12,-575.63 1041.76,-570.4"/>
<polygon fill="#9a32cd" stroke="#9a32cd" points="859.11,-616.1 850.14,-621.75 860.67,-622.92 859.11,-616.1"/>
</a>
</g>
<text text-anchor="middle" x="940" y="-614" font-family="Helvetica,sans-Serif" font-size="10.00" fill="grey"> op</text>
</g>
<!-- Node17&#45;&gt;Node16 -->
<g id="edge16_Node000016_Node000017" class="edge">
<title>Node17&#45;&gt;Node16</title>
<g id="a_edge16_Node000016_Node000017"><a xlink:title=" ">
<path fill="none" stroke="#63b8ff" d="M574.32,-633.5C621.97,-633.83 684.22,-634.27 729.23,-634.59"/>
<polygon fill="#63b8ff" stroke="#63b8ff" points="574.38,-630 564.36,-633.43 574.33,-637 574.38,-630"/>
</a>
</g>
</g>
<!-- Node18&#45;&gt;Node15 -->
<g id="edge18_Node000015_Node000018" class="edge">
<title>Node18&#45;&gt;Node15</title>
<g id="a_edge18_Node000015_Node000018"><a xlink:title=" ">
<path fill="none" stroke="#9a32cd" stroke-dasharray="5,2" d="M863.23,-497.45C865.57,-498.89 867.83,-500.41 870,-502 880.47,-509.68 876.79,-518.45 888,-525 908.57,-537.01 963.83,-544.76 1010.76,-549.36"/>
<polygon fill="#9a32cd" stroke="#9a32cd" points="865.07,-494.46 854.63,-492.65 861.66,-500.58 865.07,-494.46"/>
</a>
</g>
<text text-anchor="middle" x="940" y="-550" font-family="Helvetica,sans-Serif" font-size="10.00" fill="grey"> inputs</text>
</g>
<!-- Node19 -->
<g id="Node000019" class="node">
<title>Node19</title>
<g id="a_Node000019"><a xlink:title=" ">
<polygon fill="white" stroke="#666666" points="819,-590.5 759,-590.5 759,-571.5 819,-571.5 819,-590.5"/>
<text text-anchor="middle" x="789" y="-578.5" font-family="Helvetica,sans-Serif" font-size="10.00">std::string</text>
</a>
</g>
</g>
<!-- Node19&#45;&gt;Node4 -->
<g id="edge39_Node000004_Node000019" class="edge">
<title>Node19&#45;&gt;Node4</title>
<g id="a_edge39_Node000004_Node000019"><a xlink:title=" ">
<path fill="none" stroke="#9a32cd" stroke-dasharray="5,2" d="M830.5,-583.53C848.15,-584.51 869.09,-585.52 888,-586 934.21,-587.18 945.79,-586.94 992,-586 1068.49,-584.44 1088.32,-590.2 1164,-579 1293.88,-559.78 1325.42,-546.44 1450,-505 1495.58,-489.84 1512.17,-493.6 1550,-464 1589.82,-432.84 1620.5,-380.03 1633.99,-354.18"/>
<polygon fill="#9a32cd" stroke="#9a32cd" points="830.84,-580.04 820.66,-582.96 830.44,-587.03 830.84,-580.04"/>
</a>
</g>
<text text-anchor="middle" x="1241.5" y="-578" font-family="Helvetica,sans-Serif" font-size="10.00" fill="grey"> m_name</text>
</g>
<!-- Node19&#45;&gt;Node15 -->
<g id="edge21_Node000015_Node000019" class="edge">
<title>Node19&#45;&gt;Node15</title>
<g id="a_edge21_Node000015_Node000019"><a xlink:title=" ">
<path fill="none" stroke="#9a32cd" stroke-dasharray="5,2" d="M830.82,-577.41C877.06,-573.35 953.4,-566.65 1010.55,-561.63"/>
<polygon fill="#9a32cd" stroke="#9a32cd" points="830.63,-573.92 820.97,-578.28 831.24,-580.89 830.63,-573.92"/>
</a>
</g>
<text text-anchor="middle" x="940" y="-574" font-family="Helvetica,sans-Serif" font-size="10.00" fill="grey"> name</text>
</g>
<!-- Node24 -->
<g id="Node000024" class="node">
<title>Node24</title>
<g id="a_Node000024"><a xlink:href="struct_harlinn_1_1_windows_1_1_d_m_l_1_1_model_1_1_internal_1_1_constant_node.html" target="_top" xlink:title=" ">
<polygon fill="white" stroke="#666666" points="1164,-494 1010,-494 1010,-464 1164,-464 1164,-494"/>
<text text-anchor="start" x="1018" y="-482" font-family="Helvetica,sans-Serif" font-size="10.00">Harlinn::Windows::DML</text>
<text text-anchor="middle" x="1087" y="-471" font-family="Helvetica,sans-Serif" font-size="10.00">::Model::Internal::ConstantNode</text>
</a>
</g>
</g>
<!-- Node19&#45;&gt;Node24 -->
<g id="edge33_Node000024_Node000019" class="edge">
<title>Node19&#45;&gt;Node24</title>
<g id="a_edge33_Node000024_Node000019"><a xlink:title=" ">
<path fill="none" stroke="#9a32cd" stroke-dasharray="5,2" d="M826.75,-566.45C841.26,-559.55 857.43,-550.32 870,-539 880.72,-529.35 875.89,-519.83 888,-512 898.41,-505.27 958.38,-495.83 1009.63,-488.77"/>
<polygon fill="#9a32cd" stroke="#9a32cd" points="825.6,-563.13 817.93,-570.44 828.48,-569.51 825.6,-563.13"/>
</a>
</g>
<text text-anchor="middle" x="940" y="-515" font-family="Helvetica,sans-Serif" font-size="10.00" fill="grey"> name</text>
</g>
<!-- Node20 -->
<g id="Node000020" class="node">
<title>Node20</title>
<g id="a_Node000020"><a xlink:title=" ">
<polygon fill="white" stroke="#666666" points="550.5,-596 455.5,-596 455.5,-566 550.5,-566 550.5,-596"/>
<text text-anchor="start" x="463.5" y="-584" font-family="Helvetica,sans-Serif" font-size="10.00">std::basic_string&lt;</text>
<text text-anchor="middle" x="503" y="-573" font-family="Helvetica,sans-Serif" font-size="10.00"> Char &gt;</text>
</a>
</g>
</g>
<!-- Node20&#45;&gt;Node19 -->
<g id="edge22_Node000019_Node000020" class="edge">
<title>Node20&#45;&gt;Node19</title>
<g id="a_edge22_Node000019_Node000020"><a xlink:title=" ">
<path fill="none" stroke="#63b8ff" d="M562.05,-581C621.87,-581 712.68,-581 758.85,-581"/>
<polygon fill="#63b8ff" stroke="#63b8ff" points="562.41,-577.5 552.41,-581 562.41,-584.5 562.41,-577.5"/>
</a>
</g>
</g>
<!-- Node21&#45;&gt;Node4 -->
<g id="edge24_Node000004_Node000021" class="edge">
<title>Node21&#45;&gt;Node4</title>
<g id="a_edge24_Node000004_Node000021"><a xlink:title=" ">
<path fill="none" stroke="#9a32cd" stroke-dasharray="5,2" d="M1167.9,-214.74C1262.7,-211.46 1423.79,-215.4 1550,-267 1581.25,-279.78 1610.66,-306.52 1627.34,-323.58"/>
<polygon fill="#9a32cd" stroke="#9a32cd" points="1168.04,-211.23 1158.19,-215.11 1168.31,-218.22 1168.04,-211.23"/>
</a>
</g>
<text text-anchor="middle" x="1384.5" y="-239" font-family="Helvetica,sans-Serif" font-size="10.00" fill="grey"> m_reinterpretNodes</text>
</g>
<!-- Node22&#45;&gt;Node21 -->
<g id="edge25_Node000021_Node000022" class="edge">
<title>Node22&#45;&gt;Node21</title>
<g id="a_edge25_Node000021_Node000022"><a xlink:title=" ">
<path fill="none" stroke="#9a32cd" stroke-dasharray="5,2" d="M881.14,-178.14C915.99,-182.32 956,-187.93 992,-195 1000.2,-196.61 1008.75,-198.53 1017.19,-200.59"/>
<polygon fill="#9a32cd" stroke="#9a32cd" points="881.86,-174.71 871.52,-177.02 881.05,-181.66 881.86,-174.71"/>
</a>
</g>
<text text-anchor="middle" x="940" y="-198" font-family="Helvetica,sans-Serif" font-size="10.00" fill="grey"> elements</text>
</g>
<!-- Node23&#45;&gt;Node4 -->
<g id="edge28_Node000004_Node000023" class="edge">
<title>Node23&#45;&gt;Node4</title>
<g id="a_edge28_Node000004_Node000023"><a xlink:title=" ">
<path fill="none" stroke="#9a32cd" stroke-dasharray="5,2" d="M1461.56,-359.38C1495.08,-355.59 1534.32,-351.14 1567.58,-347.37"/>
<polygon fill="#9a32cd" stroke="#9a32cd" points="1461.48,-355.87 1451.93,-360.47 1462.26,-362.83 1461.48,-355.87"/>
</a>
</g>
<text text-anchor="middle" x="1509" y="-361" font-family="Helvetica,sans-Serif" font-size="10.00" fill="grey"> m_constantNodes</text>
</g>
<!-- Node24&#45;&gt;Node23 -->
<g id="edge29_Node000023_Node000024" class="edge">
<title>Node24&#45;&gt;Node23</title>
<g id="a_edge29_Node000023_Node000024"><a xlink:title=" ">
<path fill="none" stroke="#9a32cd" stroke-dasharray="5,2" d="M1139.86,-459.52C1192.47,-439.76 1273.63,-409.27 1327.64,-388.98"/>
<polygon fill="#9a32cd" stroke="#9a32cd" points="1138.64,-456.24 1130.5,-463.03 1141.1,-462.79 1138.64,-456.24"/>
</a>
</g>
<text text-anchor="middle" x="1241.5" y="-446" font-family="Helvetica,sans-Serif" font-size="10.00" fill="grey"> elements</text>
</g>
<!-- Node25 -->
<g id="Node000025" class="node">
<title>Node25</title>
<g id="a_Node000025"><a xlink:title=" ">
<polygon fill="white" stroke="#666666" points="850,-529.5 728,-529.5 728,-510.5 850,-510.5 850,-529.5"/>
<text text-anchor="middle" x="789" y="-517.5" font-family="Helvetica,sans-Serif" font-size="10.00">std::span&lt; const Byte &gt;</text>
</a>
</g>
</g>
<!-- Node25&#45;&gt;Node24 -->
<g id="edge30_Node000024_Node000025" class="edge">
<title>Node25&#45;&gt;Node24</title>
<g id="a_edge30_Node000024_Node000025"><a xlink:title=" ">
<path fill="none" stroke="#9a32cd" stroke-dasharray="5,2" d="M860.77,-506.91C863.97,-505.44 867.07,-503.81 870,-502 880.75,-495.36 876.6,-485.44 888,-480 925.39,-462.17 971.45,-460.9 1009.73,-464.56"/>
<polygon fill="#9a32cd" stroke="#9a32cd" points="859.69,-503.57 851.68,-510.5 862.27,-510.08 859.69,-503.57"/>
</a>
</g>
<text text-anchor="middle" x="940" y="-483" font-family="Helvetica,sans-Serif" font-size="10.00" fill="grey"> data</text>
</g>
<!-- Node26&#45;&gt;Node25 -->
<g id="edge31_Node000025_Node000026" class="edge">
<title>Node26&#45;&gt;Node25</title>
<g id="a_edge31_Node000025_Node000026"><a xlink:title=" ">
<path fill="none" stroke="orange" stroke-dasharray="5,2" d="M523.69,-451.89C540.82,-465.61 566.93,-484.22 593,-494 636.33,-510.26 688.42,-516.59 727.86,-518.95"/>
<polygon fill="orange" stroke="orange" points="526.26,-449.48 516.32,-445.83 521.81,-454.89 526.26,-449.48"/>
</a>
</g>
<text text-anchor="middle" x="641.5" y="-518" font-family="Helvetica,sans-Serif" font-size="10.00" fill="grey"> &lt; const Byte &gt;</text>
</g>
<!-- Node27&#45;&gt;Node4 -->
<g id="edge35_Node000004_Node000027" class="edge">
<title>Node27&#45;&gt;Node4</title>
<g id="a_edge35_Node000004_Node000027"><a xlink:title=" ">
<path fill="none" stroke="#9a32cd" stroke-dasharray="5,2" d="M861.19,-123.85C982.51,-139.33 1236.89,-173.57 1450,-214 1494.81,-222.5 1510.72,-213.83 1550,-237 1587.29,-258.99 1617.81,-301.27 1632.33,-323.87"/>
<polygon fill="#9a32cd" stroke="#9a32cd" points="861.73,-120.39 851.37,-122.6 860.85,-127.33 861.73,-120.39"/>
</a>
</g>
<text text-anchor="middle" x="1241.5" y="-190" font-family="Helvetica,sans-Serif" font-size="10.00" fill="grey"> m_nodeOutputs</text>
</g>
<!-- Node28&#45;&gt;Node27 -->
<g id="edge37_Node000027_Node000028" class="edge">
<title>Node28&#45;&gt;Node27</title>
<g id="a_edge37_Node000027_Node000028"><a xlink:title=" ">
<path fill="none" stroke="orange" stroke-dasharray="5,2" d="M557.56,-168.98C594.93,-163.63 645.81,-155.4 690,-145 702.47,-142.07 715.68,-138.41 728.22,-134.67"/>
<polygon fill="orange" stroke="orange" points="557.33,-165.48 547.92,-170.34 558.31,-172.41 557.33,-165.48"/>
</a>
</g>
<text text-anchor="start" x="593" y="-189" font-family="Helvetica,sans-Serif" font-size="10.00" fill="grey"> &lt; Harlinn::Windows</text>
<text text-anchor="start" x="593" y="-178" font-family="Helvetica,sans-Serif" font-size="10.00" fill="grey">::DML::Model::Internal</text>
<text text-anchor="middle" x="641.5" y="-167" font-family="Helvetica,sans-Serif" font-size="10.00" fill="grey">::NodeOutput &gt;</text>
</g>
<!-- Node29 -->
<g id="Node000029" class="node">
<title>Node29</title>
<g id="a_Node000029"><a xlink:title=" ">
<polygon fill="white" stroke="#666666" points="992,-290.5 888,-290.5 888,-271.5 992,-271.5 992,-290.5"/>
<text text-anchor="middle" x="940" y="-278.5" font-family="Helvetica,sans-Serif" font-size="10.00">std::stack&lt; size_t &gt;</text>
</a>
</g>
</g>
<!-- Node29&#45;&gt;Node4 -->
<g id="edge40_Node000004_Node000029" class="edge">
<title>Node29&#45;&gt;Node4</title>
<g id="a_edge40_Node000004_Node000029"><a xlink:title=" ">
<path fill="none" stroke="#9a32cd" stroke-dasharray="5,2" d="M1003.64,-276.3C1115.05,-269.51 1354.35,-262.08 1550,-305 1569.37,-309.25 1590.14,-316.72 1607,-323.57"/>
<polygon fill="#9a32cd" stroke="#9a32cd" points="1003.57,-272.79 993.81,-276.92 1004.01,-279.78 1003.57,-272.79"/>
</a>
</g>
<text text-anchor="middle" x="1241.5" y="-276" font-family="Helvetica,sans-Serif" font-size="10.00" fill="grey"> m_nameSubLengths</text>
</g>
<!-- Node30&#45;&gt;Node29 -->
<g id="edge41_Node000029_Node000030" class="edge">
<title>Node30&#45;&gt;Node29</title>
<g id="a_edge41_Node000029_Node000030"><a xlink:title=" ">
<path fill="none" stroke="orange" stroke-dasharray="5,2" d="M555.95,-229.2C597.06,-237.76 655.99,-249.34 708,-257 769.63,-266.08 841.01,-272.94 887.92,-276.95"/>
<polygon fill="orange" stroke="orange" points="556.84,-225.81 546.33,-227.19 555.4,-232.66 556.84,-225.81"/>
</a>
</g>
<text text-anchor="middle" x="641.5" y="-256" font-family="Helvetica,sans-Serif" font-size="10.00" fill="grey"> &lt; size_t &gt;</text>
</g>
<!-- Node31 -->
<g id="Node000031" class="node">
<title>Node31</title>
<g id="a_Node000031"><a xlink:href="struct_harlinn_1_1_windows_1_1_d_m_l_1_1_model_1_1_internal_1_1_node_i_d.html" target="_top" xlink:title=" ">
<polygon fill="white" stroke="#666666" points="337,-135 213,-135 213,-105 337,-105 337,-135"/>
<text text-anchor="start" x="221" y="-123" font-family="Helvetica,sans-Serif" font-size="10.00">Harlinn::Windows::DML</text>
<text text-anchor="middle" x="275" y="-112" font-family="Helvetica,sans-Serif" font-size="10.00">::Model::Internal::NodeID</text>
</a>
</g>
</g>
<!-- Node31&#45;&gt;Node3 -->
<g id="edge43_Node000003_Node000031" class="edge">
<title>Node31&#45;&gt;Node3</title>
<g id="a_edge43_Node000003_Node000031"><a xlink:title=" ">
<path fill="none" stroke="#9a32cd" stroke-dasharray="5,2" d="M348.84,-113.23C375.01,-110.8 404.49,-108.06 430.55,-105.64"/>
<polygon fill="#9a32cd" stroke="#9a32cd" points="348.6,-109.74 338.96,-114.15 349.24,-116.71 348.6,-109.74"/>
</a>
</g>
<text text-anchor="middle" x="384" y="-116" font-family="Helvetica,sans-Serif" font-size="10.00" fill="grey"> node_</text>
</g>
<!-- Node32 -->
<g id="Node000032" class="node">
<title>Node32</title>
<g id="a_Node000032"><a xlink:href="struct_harlinn_1_1_windows_1_1_d_m_l_1_1_model_1_1_tensor_desc.html" target="_top" xlink:title=" ">
<polygon fill="white" stroke="#666666" points="334.5,-87 215.5,-87 215.5,-57 334.5,-57 334.5,-87"/>
<text text-anchor="start" x="223.5" y="-75" font-family="Helvetica,sans-Serif" font-size="10.00">Harlinn::Windows::DML</text>
<text text-anchor="middle" x="275" y="-64" font-family="Helvetica,sans-Serif" font-size="10.00">::Model::TensorDesc</text>
</a>
</g>
</g>
<!-- Node32&#45;&gt;Node3 -->
<g id="edge44_Node000003_Node000032" class="edge">
<title>Node32&#45;&gt;Node3</title>
<g id="a_edge44_Node000003_Node000032"><a xlink:title=" ">
<path fill="none" stroke="#9a32cd" stroke-dasharray="5,2" d="M346.05,-80.37C372.93,-83.58 403.61,-87.25 430.61,-90.47"/>
<polygon fill="#9a32cd" stroke="#9a32cd" points="346.64,-76.91 336.29,-79.2 345.81,-83.86 346.64,-76.91"/>
</a>
</g>
<text text-anchor="middle" x="384" y="-91" font-family="Helvetica,sans-Serif" font-size="10.00" fill="grey"> tensorDesc_</text>
</g>
<!-- Node33 -->
<g id="Node000033" class="node">
<title>Node33</title>
<g id="a_Node000033"><a xlink:href="struct_harlinn_1_1_windows_1_1_d_m_l_1_1_buffer_tensor_desc.html" target="_top" xlink:title=" ">
<polygon fill="white" stroke="#666666" points="119,-63 0,-63 0,-33 119,-33 119,-63"/>
<text text-anchor="start" x="8" y="-51" font-family="Helvetica,sans-Serif" font-size="10.00">Harlinn::Windows::DML</text>
<text text-anchor="middle" x="59.5" y="-40" font-family="Helvetica,sans-Serif" font-size="10.00">::BufferTensorDesc</text>
</a>
</g>
</g>
<!-- Node33&#45;&gt;Node32 -->
<g id="edge45_Node000032_Node000033" class="edge">
<title>Node33&#45;&gt;Node32</title>
<g id="a_edge45_Node000032_Node000033"><a xlink:title=" ">
<path fill="none" stroke="#9a32cd" stroke-dasharray="5,2" d="M130.7,-55.8C151.41,-58.11 174.12,-60.65 195,-63 201.58,-63.74 208.48,-64.52 215.33,-65.3"/>
<polygon fill="#9a32cd" stroke="#9a32cd" points="131.26,-52.34 120.93,-54.71 130.48,-59.29 131.26,-52.34"/>
</a>
</g>
<text text-anchor="middle" x="166" y="-66" font-family="Helvetica,sans-Serif" font-size="10.00" fill="grey"> bufferDesc_</text>
</g>
<!-- Node34 -->
<g id="Node000034" class="node">
<title>Node34</title>
<g id="a_Node000034"><a xlink:href="struct_harlinn_1_1_windows_1_1_d_m_l_1_1_tensor_desc.html" target="_top" xlink:title=" ">
<polygon fill="white" stroke="#666666" points="119,-111 0,-111 0,-81 119,-81 119,-111"/>
<text text-anchor="start" x="8" y="-99" font-family="Helvetica,sans-Serif" font-size="10.00">Harlinn::Windows::DML</text>
<text text-anchor="middle" x="59.5" y="-88" font-family="Helvetica,sans-Serif" font-size="10.00">::TensorDesc</text>
</a>
</g>
</g>
<!-- Node34&#45;&gt;Node32 -->
<g id="edge46_Node000032_Node000034" class="edge">
<title>Node34&#45;&gt;Node32</title>
<g id="a_edge46_Node000032_Node000034"><a xlink:title=" ">
<path fill="none" stroke="#9a32cd" stroke-dasharray="5,2" d="M130.51,-88.13C157.94,-85.05 189.06,-81.55 215.29,-78.6"/>
<polygon fill="#9a32cd" stroke="#9a32cd" points="130.46,-84.61 120.91,-89.21 131.24,-91.57 130.46,-84.61"/>
</a>
</g>
<text text-anchor="middle" x="166" y="-90" font-family="Helvetica,sans-Serif" font-size="10.00" fill="grey"> tensorDesc_</text>
</g>
</g>
</svg>
