<?xml version="1.0" encoding="UTF-8" standalone="no"?>
<!DOCTYPE svg PUBLIC "-//W3C//DTD SVG 1.1//EN"
 "http://www.w3.org/Graphics/SVG/1.1/DTD/svg11.dtd">
<!-- Generated by graphviz version 7.0.1 (20221109.1506)
 -->
<!-- Title: Harlinn::Common::Core::Types::Internal::ContainerTypeTraits&lt; RT, std::basic_string_view&lt; T, TR &gt; &gt; Pages: 1 -->
<svg width="752pt" height="82pt"
 viewBox="0.00 0.00 752.00 81.50" xmlns="http://www.w3.org/2000/svg" xmlns:xlink="http://www.w3.org/1999/xlink">
<g id="graph0" class="graph" transform="scale(1 1) rotate(0) translate(4 77.5)">
<title>Harlinn::Common::Core::Types::Internal::ContainerTypeTraits&lt; RT, std::basic_string_view&lt; T, TR &gt; &gt;</title>
<!-- Node1 -->
<g id="Node000001" class="node">
<title>Node1</title>
<g id="a_Node000001"><a xlink:title=" ">
<polygon fill="#999999" stroke="#666666" points="744,-73.5 610,-73.5 610,-21.5 744,-21.5 744,-73.5"/>
<text text-anchor="start" x="618" y="-61.5" font-family="Helvetica,sans-Serif" font-size="10.00">Harlinn::Common::Core</text>
<text text-anchor="start" x="618" y="-50.5" font-family="Helvetica,sans-Serif" font-size="10.00">::Types::Internal::Container</text>
<text text-anchor="start" x="618" y="-39.5" font-family="Helvetica,sans-Serif" font-size="10.00">TypeTraits&lt; RT, std::basic</text>
<text text-anchor="middle" x="677" y="-28.5" font-family="Helvetica,sans-Serif" font-size="10.00">_string_view&lt; T, TR &gt; &gt;</text>
</a>
</g>
</g>
<!-- Node2 -->
<g id="Node000002" class="node">
<title>Node2</title>
<g id="a_Node000002"><a xlink:href="struct_harlinn_1_1_common_1_1_core_1_1_types_1_1_internal_1_1_container_type_traits_base.xhtml" target="_top" xlink:title=" ">
<polygon fill="white" stroke="#666666" points="573,-73.5 436,-73.5 436,-21.5 573,-21.5 573,-73.5"/>
<text text-anchor="start" x="444" y="-61.5" font-family="Helvetica,sans-Serif" font-size="10.00">Harlinn::Common::Core</text>
<text text-anchor="start" x="444" y="-50.5" font-family="Helvetica,sans-Serif" font-size="10.00">::Types::Internal::Container</text>
<text text-anchor="start" x="444" y="-39.5" font-family="Helvetica,sans-Serif" font-size="10.00">TypeTraitsBase&lt; std::basic</text>
<text text-anchor="middle" x="504.5" y="-28.5" font-family="Helvetica,sans-Serif" font-size="10.00">_string_view&lt; T, TR &gt;, RT &gt;</text>
</a>
</g>
</g>
<!-- Node2&#45;&gt;Node1 -->
<g id="edge1_Node000001_Node000002" class="edge">
<title>Node2&#45;&gt;Node1</title>
<g id="a_edge1_Node000001_Node000002"><a xlink:title=" ">
<path fill="none" stroke="#63b8ff" d="M584.72,-47.5C593.09,-47.5 601.54,-47.5 609.75,-47.5"/>
<polygon fill="#63b8ff" stroke="#63b8ff" points="584.89,-44 574.89,-47.5 584.89,-51 584.89,-44"/>
</a>
</g>
</g>
<!-- Node3 -->
<g id="Node000003" class="node">
<title>Node3</title>
<g id="a_Node000003"><a xlink:href="struct_harlinn_1_1_common_1_1_core_1_1_types_1_1_internal_1_1_type_traits_base.xhtml" target="_top" xlink:title=" ">
<polygon fill="white" stroke="#666666" points="137,-65 0,-65 0,-24 137,-24 137,-65"/>
<text text-anchor="start" x="8" y="-53" font-family="Helvetica,sans-Serif" font-size="10.00">Harlinn::Common::Core</text>
<text text-anchor="start" x="8" y="-42" font-family="Helvetica,sans-Serif" font-size="10.00">::Types::Internal::TypeTraits</text>
<text text-anchor="middle" x="68.5" y="-31" font-family="Helvetica,sans-Serif" font-size="10.00">Base&lt; T, RT &gt;</text>
</a>
</g>
</g>
<!-- Node3&#45;&gt;Node2 -->
<g id="edge2_Node000002_Node000003" class="edge">
<title>Node3&#45;&gt;Node2</title>
<g id="a_edge2_Node000002_Node000003"><a xlink:title=" ">
<path fill="none" stroke="#63b8ff" d="M148.77,-50.53C219.42,-55.06 325.64,-59.81 418,-55.5 423.81,-55.23 429.83,-54.85 435.87,-54.42"/>
<polygon fill="#63b8ff" stroke="#63b8ff" points="149.03,-47.04 138.82,-49.87 148.57,-54.02 149.03,-47.04"/>
</a>
</g>
</g>
<!-- Node4 -->
<g id="Node000004" class="node">
<title>Node4</title>
<g id="a_Node000004"><a xlink:href="struct_harlinn_1_1_common_1_1_core_1_1_types_1_1_internal_1_1_container_type_traits_base.xhtml" target="_top" xlink:title=" ">
<polygon fill="white" stroke="#666666" points="308,-41 174,-41 174,0 308,0 308,-41"/>
<text text-anchor="start" x="182" y="-29" font-family="Helvetica,sans-Serif" font-size="10.00">Harlinn::Common::Core</text>
<text text-anchor="start" x="182" y="-18" font-family="Helvetica,sans-Serif" font-size="10.00">::Types::Internal::Container</text>
<text text-anchor="middle" x="241" y="-7" font-family="Helvetica,sans-Serif" font-size="10.00">TypeTraitsBase&lt; T, RT &gt;</text>
</a>
</g>
</g>
<!-- Node3&#45;&gt;Node4 -->
<g id="edge4_Node000004_Node000003" class="edge">
<title>Node3&#45;&gt;Node4</title>
<g id="a_edge4_Node000004_Node000003"><a xlink:title=" ">
<path fill="none" stroke="#63b8ff" d="M148.72,-33.35C157.09,-32.17 165.54,-30.98 173.75,-29.83"/>
<polygon fill="#63b8ff" stroke="#63b8ff" points="148.29,-29.87 138.87,-34.73 149.27,-36.81 148.29,-29.87"/>
</a>
</g>
</g>
<!-- Node4&#45;&gt;Node2 -->
<g id="edge3_Node000002_Node000004" class="edge">
<title>Node4&#45;&gt;Node2</title>
<g id="a_edge3_Node000002_Node000004"><a xlink:title=" ">
<path fill="none" stroke="orange" stroke-dasharray="5,2" d="M319.26,-24.72C350.04,-26.79 385.75,-29.68 418,-33.5 423.83,-34.19 429.86,-35 435.91,-35.86"/>
<polygon fill="orange" stroke="orange" points="319.88,-21.25 309.67,-24.09 319.42,-28.24 319.88,-21.25"/>
</a>
</g>
<text text-anchor="start" x="326" y="-47.5" font-family="Helvetica,sans-Serif" font-size="10.00" fill="grey"> &lt; std::basic_string</text>
<text text-anchor="middle" x="372" y="-36.5" font-family="Helvetica,sans-Serif" font-size="10.00" fill="grey">_view&lt; T, TR &gt;, RT &gt;</text>
</g>
</g>
</svg>
