<?xml version="1.0" encoding="UTF-8" standalone="no"?>
<!DOCTYPE svg PUBLIC "-//W3C//DTD SVG 1.1//EN"
 "http://www.w3.org/Graphics/SVG/1.1/DTD/svg11.dtd">
<!-- Generated by graphviz version 7.0.1 (20221109.1506)
 -->
<!-- Title: Harlinn::Common::Core::SIMD::Traits&lt; UInt64, N &gt; Pages: 1 -->
<svg width="802pt" height="74pt"
 viewBox="0.00 0.00 802.00 74.00" xmlns="http://www.w3.org/2000/svg" xmlns:xlink="http://www.w3.org/1999/xlink">
<g id="graph0" class="graph" transform="scale(1 1) rotate(0) translate(4 70)">
<title>Harlinn::Common::Core::SIMD::Traits&lt; UInt64, N &gt;</title>
<!-- Node1 -->
<g id="Node000001" class="node">
<title>Node1</title>
<g id="a_Node000001"><a xlink:title=" ">
<polygon fill="#999999" stroke="#666666" points="794,-60.5 659,-60.5 659,-30.5 794,-30.5 794,-60.5"/>
<text text-anchor="start" x="667" y="-48.5" font-family="Helvetica,sans-Serif" font-size="10.00">Harlinn::Common::Core</text>
<text text-anchor="middle" x="726.5" y="-37.5" font-family="Helvetica,sans-Serif" font-size="10.00">::SIMD::Traits&lt; UInt64, N &gt;</text>
</a>
</g>
</g>
<!-- Node2 -->
<g id="Node000002" class="node">
<title>Node2</title>
<g id="a_Node000002"><a xlink:href="struct_harlinn_1_1_common_1_1_core_1_1_s_i_m_d_1_1_traits64_bit.html" target="_top" xlink:title=" ">
<polygon fill="white" stroke="#666666" points="622,-66 504,-66 504,-25 622,-25 622,-66"/>
<text text-anchor="start" x="512" y="-54" font-family="Helvetica,sans-Serif" font-size="10.00">Harlinn::Common::Core</text>
<text text-anchor="start" x="512" y="-43" font-family="Helvetica,sans-Serif" font-size="10.00">::SIMD::Traits64Bit&lt;</text>
<text text-anchor="middle" x="563" y="-32" font-family="Helvetica,sans-Serif" font-size="10.00"> UInt64, N &gt;</text>
</a>
</g>
</g>
<!-- Node2&#45;&gt;Node1 -->
<g id="edge1_Node000001_Node000002" class="edge">
<title>Node2&#45;&gt;Node1</title>
<g id="a_edge1_Node000001_Node000002"><a xlink:title=" ">
<path fill="none" stroke="#63b8ff" d="M633.77,-45.5C641.97,-45.5 650.33,-45.5 658.5,-45.5"/>
<polygon fill="#63b8ff" stroke="#63b8ff" points="633.82,-42 623.82,-45.5 633.82,-49 633.82,-42"/>
</a>
</g>
</g>
<!-- Node3 -->
<g id="Node000003" class="node">
<title>Node3</title>
<g id="a_Node000003"><a xlink:href="struct_harlinn_1_1_common_1_1_core_1_1_s_i_m_d_1_1_internal_1_1_traits_base.html" target="_top" xlink:title=" ">
<polygon fill="white" stroke="#666666" points="251,-59.5 114,-59.5 114,-29.5 251,-29.5 251,-59.5"/>
<text text-anchor="start" x="122" y="-47.5" font-family="Helvetica,sans-Serif" font-size="10.00">Harlinn::Common::Core</text>
<text text-anchor="middle" x="182.5" y="-36.5" font-family="Helvetica,sans-Serif" font-size="10.00">::SIMD::Internal::TraitsBase</text>
</a>
</g>
</g>
<!-- Node3&#45;&gt;Node2 -->
<g id="edge2_Node000002_Node000003" class="edge">
<title>Node3&#45;&gt;Node2</title>
<g id="a_edge2_Node000002_Node000003"><a xlink:title=" ">
<path fill="none" stroke="#63b8ff" d="M262.87,-49.05C323.9,-51.88 410.31,-54.48 486,-51.5 491.69,-51.28 497.61,-50.96 503.52,-50.58"/>
<polygon fill="#63b8ff" stroke="#63b8ff" points="263.07,-45.55 252.91,-48.57 262.73,-52.54 263.07,-45.55"/>
</a>
</g>
</g>
<!-- Node5 -->
<g id="Node000005" class="node">
<title>Node5</title>
<g id="a_Node000005"><a xlink:href="struct_harlinn_1_1_common_1_1_core_1_1_s_i_m_d_1_1_traits64_bit.html" target="_top" xlink:title=" ">
<polygon fill="white" stroke="#666666" points="406,-41 288,-41 288,0 406,0 406,-41"/>
<text text-anchor="start" x="296" y="-29" font-family="Helvetica,sans-Serif" font-size="10.00">Harlinn::Common::Core</text>
<text text-anchor="start" x="296" y="-18" font-family="Helvetica,sans-Serif" font-size="10.00">::SIMD::Traits64Bit&lt;</text>
<text text-anchor="middle" x="347" y="-7" font-family="Helvetica,sans-Serif" font-size="10.00"> T, N &gt;</text>
</a>
</g>
</g>
<!-- Node3&#45;&gt;Node5 -->
<g id="edge5_Node000005_Node000003" class="edge">
<title>Node3&#45;&gt;Node5</title>
<g id="a_edge5_Node000005_Node000003"><a xlink:title=" ">
<path fill="none" stroke="#63b8ff" d="M262.81,-32.79C271.16,-31.55 279.53,-30.32 287.58,-29.13"/>
<polygon fill="#63b8ff" stroke="#63b8ff" points="262.35,-29.32 252.97,-34.24 263.37,-36.24 262.35,-29.32"/>
</a>
</g>
</g>
<!-- Node4 -->
<g id="Node000004" class="node">
<title>Node4</title>
<g id="a_Node000004"><a xlink:title=" ">
<polygon fill="white" stroke="#666666" points="77,-54 0,-54 0,-35 77,-35 77,-54"/>
<text text-anchor="middle" x="38.5" y="-42" font-family="Helvetica,sans-Serif" font-size="10.00">std::true_type</text>
</a>
</g>
</g>
<!-- Node4&#45;&gt;Node3 -->
<g id="edge3_Node000003_Node000004" class="edge">
<title>Node4&#45;&gt;Node3</title>
<g id="a_edge3_Node000003_Node000004"><a xlink:title=" ">
<path fill="none" stroke="#63b8ff" d="M88.67,-44.5C96.76,-44.5 105.26,-44.5 113.71,-44.5"/>
<polygon fill="#63b8ff" stroke="#63b8ff" points="88.69,-41 78.69,-44.5 88.69,-48 88.69,-41"/>
</a>
</g>
</g>
<!-- Node5&#45;&gt;Node2 -->
<g id="edge4_Node000002_Node000005" class="edge">
<title>Node5&#45;&gt;Node2</title>
<g id="a_edge4_Node000002_Node000005"><a xlink:title=" ">
<path fill="none" stroke="orange" stroke-dasharray="5,2" d="M417.71,-28.64C445.47,-31.89 477.06,-35.58 503.59,-38.68"/>
<polygon fill="orange" stroke="orange" points="418.32,-25.19 407.98,-27.51 417.51,-32.14 418.32,-25.19"/>
</a>
</g>
<text text-anchor="middle" x="455" y="-39.5" font-family="Helvetica,sans-Serif" font-size="10.00" fill="grey"> &lt; UInt64, N &gt;</text>
</g>
</g>
</svg>
