<?xml version="1.0" encoding="UTF-8" standalone="no"?>
<!DOCTYPE svg PUBLIC "-//W3C//DTD SVG 1.1//EN"
 "http://www.w3.org/Graphics/SVG/1.1/DTD/svg11.dtd">
<!-- Generated by graphviz version 7.0.1 (20221109.1506)
 -->
<!-- Title: Harlinn::Math::Internal::LineBase Pages: 1 -->
<svg width="246pt" height="104pt"
 viewBox="0.00 0.00 245.50 104.00" xmlns="http://www.w3.org/2000/svg" xmlns:xlink="http://www.w3.org/1999/xlink">
<g id="graph0" class="graph" transform="scale(1 1) rotate(0) translate(4 100)">
<title>Harlinn::Math::Internal::LineBase</title>
<!-- Node1 -->
<g id="Node000001" class="node">
<title>Node1</title>
<g id="a_Node000001"><a xlink:title=" ">
<polygon fill="#999999" stroke="#666666" points="169,-96 57,-96 57,-66 169,-66 169,-96"/>
<text text-anchor="start" x="65" y="-84" font-family="Helvetica,sans-Serif" font-size="10.00">Harlinn::Math::Internal</text>
<text text-anchor="middle" x="113" y="-73" font-family="Helvetica,sans-Serif" font-size="10.00">::LineBase</text>
</a>
</g>
</g>
<!-- Node2 -->
<g id="Node000002" class="node">
<title>Node2</title>
<g id="a_Node000002"><a xlink:href="struct_harlinn_1_1_math_1_1_line.html" target="_top" xlink:title="An infinite line passing through origin&lt;c&gt; with direction given by the unit vector direction&lt;c&gt;.">
<polygon fill="white" stroke="#666666" points="98,-30 0,-30 0,0 98,0 98,-30"/>
<text text-anchor="start" x="8" y="-18" font-family="Helvetica,sans-Serif" font-size="10.00">Harlinn::Math::Line</text>
<text text-anchor="middle" x="49" y="-7" font-family="Helvetica,sans-Serif" font-size="10.00">&lt; T, N &gt;</text>
</a>
</g>
</g>
<!-- Node1&#45;&gt;Node2 -->
<g id="edge1_Node000001_Node000002" class="edge">
<title>Node1&#45;&gt;Node2</title>
<g id="a_edge1_Node000001_Node000002"><a xlink:title=" ">
<path fill="none" stroke="#63b8ff" d="M90.81,-57.81C81.64,-48.64 71.28,-38.28 63.16,-30.16"/>
<polygon fill="#63b8ff" stroke="#63b8ff" points="88.18,-60.13 97.73,-64.73 93.13,-55.18 88.18,-60.13"/>
</a>
</g>
</g>
<!-- Node3 -->
<g id="Node000003" class="node">
<title>Node3</title>
<g id="a_Node000003"><a xlink:href="struct_harlinn_1_1_math_1_1_line_simd.html" target="_top" xlink:title="An infinite line passing through origin&lt;c&gt; with direction given by the unit vector direction&lt;c&gt;.">
<polygon fill="white" stroke="#666666" points="237.5,-30 116.5,-30 116.5,0 237.5,0 237.5,-30"/>
<text text-anchor="start" x="124.5" y="-18" font-family="Helvetica,sans-Serif" font-size="10.00">Harlinn::Math::LineSimd</text>
<text text-anchor="middle" x="177" y="-7" font-family="Helvetica,sans-Serif" font-size="10.00">&lt; T, N &gt;</text>
</a>
</g>
</g>
<!-- Node1&#45;&gt;Node3 -->
<g id="edge2_Node000001_Node000003" class="edge">
<title>Node1&#45;&gt;Node3</title>
<g id="a_edge2_Node000001_Node000003"><a xlink:title=" ">
<path fill="none" stroke="#63b8ff" d="M135.19,-57.81C144.36,-48.64 154.72,-38.28 162.84,-30.16"/>
<polygon fill="#63b8ff" stroke="#63b8ff" points="132.87,-55.18 128.27,-64.73 137.82,-60.13 132.87,-55.18"/>
</a>
</g>
</g>
</g>
</svg>
