<?xml version="1.0" encoding="UTF-8" standalone="no"?>
<!DOCTYPE svg PUBLIC "-//W3C//DTD SVG 1.1//EN"
 "http://www.w3.org/Graphics/SVG/1.1/DTD/svg11.dtd">
<!-- Generated by graphviz version 7.0.1 (20221109.1506)
 -->
<!-- Title: half_float::detail::bool_type&lt; bool &gt; Pages: 1 -->
<svg width="587pt" height="252pt"
 viewBox="0.00 0.00 587.00 252.00" xmlns="http://www.w3.org/2000/svg" xmlns:xlink="http://www.w3.org/1999/xlink">
<g id="graph0" class="graph" transform="scale(1 1) rotate(0) translate(4 248)">
<title>half_float::detail::bool_type&lt; bool &gt;</title>
<!-- Node1 -->
<g id="Node000001" class="node">
<title>Node1</title>
<g id="a_Node000001"><a xlink:title="Helper for tag dispatching.">
<polygon fill="#999999" stroke="#666666" points="101,-126 0,-126 0,-96 101,-96 101,-126"/>
<text text-anchor="start" x="8" y="-114" font-family="Helvetica,sans-Serif" font-size="10.00">half_float::detail</text>
<text text-anchor="middle" x="50.5" y="-103" font-family="Helvetica,sans-Serif" font-size="10.00">::bool_type&lt; bool &gt;</text>
</a>
</g>
</g>
<!-- Node2 -->
<g id="Node000002" class="node">
<title>Node2</title>
<g id="a_Node000002"><a xlink:href="structhalf__float_1_1detail_1_1is__float.html" target="_top" xlink:title=" ">
<polygon fill="white" stroke="#666666" points="406,-196 322,-196 322,-166 406,-166 406,-196"/>
<text text-anchor="start" x="330" y="-184" font-family="Helvetica,sans-Serif" font-size="10.00">half_float::detail</text>
<text text-anchor="middle" x="364" y="-173" font-family="Helvetica,sans-Serif" font-size="10.00">::is_float&lt; T &gt;</text>
</a>
</g>
</g>
<!-- Node1&#45;&gt;Node2 -->
<g id="edge1_Node000001_Node000002" class="edge">
<title>Node1&#45;&gt;Node2</title>
<g id="a_edge1_Node000001_Node000002"><a xlink:title=" ">
<path fill="none" stroke="#63b8ff" d="M71.6,-134.6C87.63,-151.54 111.7,-173.06 138,-183 198.66,-205.93 275.25,-198.28 321.62,-190.07"/>
<polygon fill="#63b8ff" stroke="#63b8ff" points="74.32,-132.4 65,-127.37 69.15,-137.11 74.32,-132.4"/>
</a>
</g>
</g>
<!-- Node6 -->
<g id="Node000006" class="node">
<title>Node6</title>
<g id="a_Node000006"><a xlink:href="structhalf__float_1_1detail_1_1is__float.html" target="_top" xlink:title="Type traits for floating point types.">
<polygon fill="white" stroke="#666666" points="255.5,-174 141.5,-174 141.5,-144 255.5,-144 255.5,-174"/>
<text text-anchor="start" x="149.5" y="-162" font-family="Helvetica,sans-Serif" font-size="10.00">half_float::detail</text>
<text text-anchor="middle" x="198.5" y="-151" font-family="Helvetica,sans-Serif" font-size="10.00">::is_float&lt; typename &gt;</text>
</a>
</g>
</g>
<!-- Node1&#45;&gt;Node6 -->
<g id="edge5_Node000001_Node000006" class="edge">
<title>Node1&#45;&gt;Node6</title>
<g id="a_edge5_Node000001_Node000006"><a xlink:title=" ">
<path fill="none" stroke="#63b8ff" d="M109.29,-130C122.99,-134.5 137.44,-139.25 150.59,-143.58"/>
<polygon fill="#63b8ff" stroke="#63b8ff" points="110.53,-126.72 99.94,-126.92 108.34,-133.37 110.53,-126.72"/>
</a>
</g>
</g>
<!-- Node7 -->
<g id="Node000007" class="node">
<title>Node7</title>
<g id="a_Node000007"><a xlink:href="structhalf__float_1_1detail_1_1is__float_3_01double_01_4.html" target="_top" xlink:title=" ">
<polygon fill="white" stroke="#666666" points="248.5,-126 148.5,-126 148.5,-96 248.5,-96 248.5,-126"/>
<text text-anchor="start" x="156.5" y="-114" font-family="Helvetica,sans-Serif" font-size="10.00">half_float::detail</text>
<text text-anchor="middle" x="198.5" y="-103" font-family="Helvetica,sans-Serif" font-size="10.00">::is_float&lt; double &gt;</text>
</a>
</g>
</g>
<!-- Node1&#45;&gt;Node7 -->
<g id="edge7_Node000001_Node000007" class="edge">
<title>Node1&#45;&gt;Node7</title>
<g id="a_edge7_Node000001_Node000007"><a xlink:title=" ">
<path fill="none" stroke="#63b8ff" d="M112.6,-111C124.53,-111 136.9,-111 148.38,-111"/>
<polygon fill="#63b8ff" stroke="#63b8ff" points="112.85,-107.5 102.85,-111 112.85,-114.5 112.85,-107.5"/>
</a>
</g>
</g>
<!-- Node8 -->
<g id="Node000008" class="node">
<title>Node8</title>
<g id="a_Node000008"><a xlink:href="structhalf__float_1_1detail_1_1is__float_3_01float_01_4.html" target="_top" xlink:title=" ">
<polygon fill="white" stroke="#666666" points="243,-78 154,-78 154,-48 243,-48 243,-78"/>
<text text-anchor="start" x="162" y="-66" font-family="Helvetica,sans-Serif" font-size="10.00">half_float::detail</text>
<text text-anchor="middle" x="198.5" y="-55" font-family="Helvetica,sans-Serif" font-size="10.00">::is_float&lt; float &gt;</text>
</a>
</g>
</g>
<!-- Node1&#45;&gt;Node8 -->
<g id="edge8_Node000001_Node000008" class="edge">
<title>Node1&#45;&gt;Node8</title>
<g id="a_edge8_Node000001_Node000008"><a xlink:title=" ">
<path fill="none" stroke="#63b8ff" d="M109.08,-92.07C123.89,-87.2 139.58,-82.04 153.57,-77.44"/>
<polygon fill="#63b8ff" stroke="#63b8ff" points="108.34,-88.63 99.94,-95.08 110.53,-95.28 108.34,-88.63"/>
</a>
</g>
</g>
<!-- Node9 -->
<g id="Node000009" class="node">
<title>Node9</title>
<g id="a_Node000009"><a xlink:href="structhalf__float_1_1detail_1_1is__float_3_01long_01double_01_4.html" target="_top" xlink:title=" ">
<polygon fill="white" stroke="#666666" points="259,-30 138,-30 138,0 259,0 259,-30"/>
<text text-anchor="start" x="146" y="-18" font-family="Helvetica,sans-Serif" font-size="10.00">half_float::detail</text>
<text text-anchor="middle" x="198.5" y="-7" font-family="Helvetica,sans-Serif" font-size="10.00">::is_float&lt; long double &gt;</text>
</a>
</g>
</g>
<!-- Node1&#45;&gt;Node9 -->
<g id="edge9_Node000001_Node000009" class="edge">
<title>Node1&#45;&gt;Node9</title>
<g id="a_edge9_Node000001_Node000009"><a xlink:title=" ">
<path fill="none" stroke="#63b8ff" d="M74.96,-88.01C91.54,-72.66 114.86,-52.83 138,-39 143.16,-35.91 148.79,-33.06 154.47,-30.48"/>
<polygon fill="#63b8ff" stroke="#63b8ff" points="72.91,-85.13 68.03,-94.54 77.71,-90.23 72.91,-85.13"/>
</a>
</g>
</g>
<!-- Node3 -->
<g id="Node000003" class="node">
<title>Node3</title>
<g id="a_Node000003"><a xlink:href="structhalf__float_1_1detail_1_1is__float_3_01const_01_t_01_4.html" target="_top" xlink:title=" ">
<polygon fill="white" stroke="#666666" points="563,-244 459,-244 459,-214 563,-214 563,-244"/>
<text text-anchor="start" x="467" y="-232" font-family="Helvetica,sans-Serif" font-size="10.00">half_float::detail</text>
<text text-anchor="middle" x="511" y="-221" font-family="Helvetica,sans-Serif" font-size="10.00">::is_float&lt; const T &gt;</text>
</a>
</g>
</g>
<!-- Node2&#45;&gt;Node3 -->
<g id="edge2_Node000002_Node000003" class="edge">
<title>Node2&#45;&gt;Node3</title>
<g id="a_edge2_Node000002_Node000003"><a xlink:title=" ">
<path fill="none" stroke="#63b8ff" d="M416.93,-198.19C432.09,-203.21 448.56,-208.66 463.37,-213.56"/>
<polygon fill="#63b8ff" stroke="#63b8ff" points="418.19,-194.92 407.6,-195.1 415.99,-201.57 418.19,-194.92"/>
</a>
</g>
</g>
<!-- Node4 -->
<g id="Node000004" class="node">
<title>Node4</title>
<g id="a_Node000004"><a xlink:href="structhalf__float_1_1detail_1_1is__float_3_01const_01volatile_01_t_01_4.html" target="_top" xlink:title=" ">
<polygon fill="white" stroke="#666666" points="579,-196 443,-196 443,-166 579,-166 579,-196"/>
<text text-anchor="start" x="451" y="-184" font-family="Helvetica,sans-Serif" font-size="10.00">half_float::detail</text>
<text text-anchor="middle" x="511" y="-173" font-family="Helvetica,sans-Serif" font-size="10.00">::is_float&lt; const volatile T &gt;</text>
</a>
</g>
</g>
<!-- Node2&#45;&gt;Node4 -->
<g id="edge3_Node000002_Node000004" class="edge">
<title>Node2&#45;&gt;Node4</title>
<g id="a_edge3_Node000002_Node000004"><a xlink:title=" ">
<path fill="none" stroke="#63b8ff" d="M417.45,-181C425.64,-181 434.21,-181 442.67,-181"/>
<polygon fill="#63b8ff" stroke="#63b8ff" points="417.68,-177.5 407.68,-181 417.68,-184.5 417.68,-177.5"/>
</a>
</g>
</g>
<!-- Node5 -->
<g id="Node000005" class="node">
<title>Node5</title>
<g id="a_Node000005"><a xlink:href="structhalf__float_1_1detail_1_1is__float_3_01volatile_01_t_01_4.html" target="_top" xlink:title=" ">
<polygon fill="white" stroke="#666666" points="565.5,-148 456.5,-148 456.5,-118 565.5,-118 565.5,-148"/>
<text text-anchor="start" x="464.5" y="-136" font-family="Helvetica,sans-Serif" font-size="10.00">half_float::detail</text>
<text text-anchor="middle" x="511" y="-125" font-family="Helvetica,sans-Serif" font-size="10.00">::is_float&lt; volatile T &gt;</text>
</a>
</g>
</g>
<!-- Node2&#45;&gt;Node5 -->
<g id="edge4_Node000002_Node000005" class="edge">
<title>Node2&#45;&gt;Node5</title>
<g id="a_edge4_Node000002_Node000005"><a xlink:title=" ">
<path fill="none" stroke="#63b8ff" d="M416.93,-163.81C432.09,-158.79 448.56,-153.34 463.37,-148.44"/>
<polygon fill="#63b8ff" stroke="#63b8ff" points="415.99,-160.43 407.6,-166.9 418.19,-167.08 415.99,-160.43"/>
</a>
</g>
</g>
<!-- Node6&#45;&gt;Node2 -->
<g id="edge6_Node000006_Node000002" class="edge">
<title>Node6&#45;&gt;Node2</title>
<g id="a_edge6_Node000006_Node000002"><a xlink:title=" ">
<path fill="none" stroke="orange" stroke-dasharray="5,2" d="M267.11,-168.1C285.59,-170.58 305.07,-173.21 321.61,-175.43"/>
<polygon fill="orange" stroke="orange" points="267.64,-164.64 257.27,-166.77 266.71,-171.58 267.64,-164.64"/>
</a>
</g>
<text text-anchor="middle" x="290.5" y="-175" font-family="Helvetica,sans-Serif" font-size="10.00" fill="grey"> &lt; T &gt;</text>
</g>
</g>
</svg>
