<?xml version="1.0" encoding="UTF-8" standalone="no"?>
<!DOCTYPE svg PUBLIC "-//W3C//DTD SVG 1.1//EN"
 "http://www.w3.org/Graphics/SVG/1.1/DTD/svg11.dtd">
<!-- Generated by graphviz version 7.0.1 (20221109.1506)
 -->
<!-- Title: Harlinn::Common::Core::Types::Internal::OptionalTypeTraits&lt; std::optional&lt; T &gt;, RT &gt; Pages: 1 -->
<svg width="737pt" height="82pt"
 viewBox="0.00 0.00 737.00 81.50" xmlns="http://www.w3.org/2000/svg" xmlns:xlink="http://www.w3.org/1999/xlink">
<g id="graph0" class="graph" transform="scale(1 1) rotate(0) translate(4 77.5)">
<title>Harlinn::Common::Core::Types::Internal::OptionalTypeTraits&lt; std::optional&lt; T &gt;, RT &gt;</title>
<!-- Node1 -->
<g id="Node000001" class="node">
<title>Node1</title>
<g id="a_Node000001"><a xlink:title=" ">
<polygon fill="#999999" stroke="#666666" points="729,-73.5 601,-73.5 601,-21.5 729,-21.5 729,-73.5"/>
<text text-anchor="start" x="609" y="-61.5" font-family="Helvetica,sans-Serif" font-size="10.00">Harlinn::Common::Core</text>
<text text-anchor="start" x="609" y="-50.5" font-family="Helvetica,sans-Serif" font-size="10.00">::Types::Internal::Optional</text>
<text text-anchor="start" x="609" y="-39.5" font-family="Helvetica,sans-Serif" font-size="10.00">TypeTraits&lt; std::optional</text>
<text text-anchor="middle" x="665" y="-28.5" font-family="Helvetica,sans-Serif" font-size="10.00">&lt; T &gt;, RT &gt;</text>
</a>
</g>
</g>
<!-- Node2 -->
<g id="Node000002" class="node">
<title>Node2</title>
<g id="a_Node000002"><a xlink:href="struct_harlinn_1_1_common_1_1_core_1_1_types_1_1_internal_1_1_optional_type_traits_base.xhtml" target="_top" xlink:title=" ">
<polygon fill="white" stroke="#666666" points="564,-73.5 418,-73.5 418,-21.5 564,-21.5 564,-73.5"/>
<text text-anchor="start" x="426" y="-61.5" font-family="Helvetica,sans-Serif" font-size="10.00">Harlinn::Common::Core</text>
<text text-anchor="start" x="426" y="-50.5" font-family="Helvetica,sans-Serif" font-size="10.00">::Types::Internal::Optional</text>
<text text-anchor="start" x="426" y="-39.5" font-family="Helvetica,sans-Serif" font-size="10.00">TypeTraitsBase&lt; std::optional</text>
<text text-anchor="middle" x="491" y="-28.5" font-family="Helvetica,sans-Serif" font-size="10.00">&lt; T &gt;, RT &gt;</text>
</a>
</g>
</g>
<!-- Node2&#45;&gt;Node1 -->
<g id="edge1_Node000001_Node000002" class="edge">
<title>Node2&#45;&gt;Node1</title>
<g id="a_edge1_Node000001_Node000002"><a xlink:title=" ">
<path fill="none" stroke="#63b8ff" d="M575.8,-47.5C584.16,-47.5 592.54,-47.5 600.64,-47.5"/>
<polygon fill="#63b8ff" stroke="#63b8ff" points="575.96,-44 565.96,-47.5 575.96,-51 575.96,-44"/>
</a>
</g>
</g>
<!-- Node3 -->
<g id="Node000003" class="node">
<title>Node3</title>
<g id="a_Node000003"><a xlink:href="struct_harlinn_1_1_common_1_1_core_1_1_types_1_1_internal_1_1_type_traits_base.xhtml" target="_top" xlink:title=" ">
<polygon fill="white" stroke="#666666" points="137,-65 0,-65 0,-24 137,-24 137,-65"/>
<text text-anchor="start" x="8" y="-53" font-family="Helvetica,sans-Serif" font-size="10.00">Harlinn::Common::Core</text>
<text text-anchor="start" x="8" y="-42" font-family="Helvetica,sans-Serif" font-size="10.00">::Types::Internal::TypeTraits</text>
<text text-anchor="middle" x="68.5" y="-31" font-family="Helvetica,sans-Serif" font-size="10.00">Base&lt; T, RT &gt;</text>
</a>
</g>
</g>
<!-- Node3&#45;&gt;Node2 -->
<g id="edge2_Node000002_Node000003" class="edge">
<title>Node3&#45;&gt;Node2</title>
<g id="a_edge2_Node000002_Node000003"><a xlink:title=" ">
<path fill="none" stroke="#63b8ff" d="M148.54,-50.57C215.51,-54.89 314.07,-59.31 400,-55.5 405.8,-55.24 411.8,-54.89 417.83,-54.48"/>
<polygon fill="#63b8ff" stroke="#63b8ff" points="148.96,-47.09 138.76,-49.93 148.5,-54.08 148.96,-47.09"/>
</a>
</g>
</g>
<!-- Node4 -->
<g id="Node000004" class="node">
<title>Node4</title>
<g id="a_Node000004"><a xlink:href="struct_harlinn_1_1_common_1_1_core_1_1_types_1_1_internal_1_1_optional_type_traits_base.xhtml" target="_top" xlink:title=" ">
<polygon fill="white" stroke="#666666" points="302,-41 174,-41 174,0 302,0 302,-41"/>
<text text-anchor="start" x="182" y="-29" font-family="Helvetica,sans-Serif" font-size="10.00">Harlinn::Common::Core</text>
<text text-anchor="start" x="182" y="-18" font-family="Helvetica,sans-Serif" font-size="10.00">::Types::Internal::Optional</text>
<text text-anchor="middle" x="238" y="-7" font-family="Helvetica,sans-Serif" font-size="10.00">TypeTraitsBase&lt; T, RT &gt;</text>
</a>
</g>
</g>
<!-- Node3&#45;&gt;Node4 -->
<g id="edge4_Node000004_Node000003" class="edge">
<title>Node3&#45;&gt;Node4</title>
<g id="a_edge4_Node000004_Node000003"><a xlink:title=" ">
<path fill="none" stroke="#63b8ff" d="M148.28,-33.21C156.81,-31.99 165.4,-30.76 173.71,-29.57"/>
<polygon fill="#63b8ff" stroke="#63b8ff" points="148.05,-29.71 138.64,-34.59 149.04,-36.64 148.05,-29.71"/>
</a>
</g>
</g>
<!-- Node4&#45;&gt;Node2 -->
<g id="edge3_Node000002_Node000004" class="edge">
<title>Node4&#45;&gt;Node2</title>
<g id="a_edge3_Node000002_Node000004"><a xlink:title=" ">
<path fill="none" stroke="orange" stroke-dasharray="5,2" d="M313.61,-25.37C340.84,-27.45 371.85,-30.18 400,-33.5 405.81,-34.19 411.82,-34.97 417.85,-35.8"/>
<polygon fill="orange" stroke="orange" points="313.93,-21.89 303.7,-24.63 313.41,-28.87 313.93,-21.89"/>
</a>
</g>
<text text-anchor="start" x="320" y="-47.5" font-family="Helvetica,sans-Serif" font-size="10.00" fill="grey"> &lt; std::optional&lt; T</text>
<text text-anchor="middle" x="360" y="-36.5" font-family="Helvetica,sans-Serif" font-size="10.00" fill="grey"> &gt;, RT &gt;</text>
</g>
</g>
</svg>
