<?xml version="1.0" encoding="UTF-8" standalone="no"?>
<!DOCTYPE svg PUBLIC "-//W3C//DTD SVG 1.1//EN"
 "http://www.w3.org/Graphics/SVG/1.1/DTD/svg11.dtd">
<!-- Generated by graphviz version 7.0.1 (20221109.1506)
 -->
<!-- Title: Harlinn::Common::Core::VariantTypeTraits&lt; float &gt; Pages: 1 -->
<svg width="685pt" height="82pt"
 viewBox="0.00 0.00 685.00 81.50" xmlns="http://www.w3.org/2000/svg" xmlns:xlink="http://www.w3.org/1999/xlink">
<g id="graph0" class="graph" transform="scale(1 1) rotate(0) translate(4 77.5)">
<title>Harlinn::Common::Core::VariantTypeTraits&lt; float &gt;</title>
<!-- Node1 -->
<g id="Node000001" class="node">
<title>Node1</title>
<g id="a_Node000001"><a xlink:title=" ">
<polygon fill="#999999" stroke="#666666" points="677,-68 559,-68 559,-27 677,-27 677,-68"/>
<text text-anchor="start" x="567" y="-56" font-family="Helvetica,sans-Serif" font-size="10.00">Harlinn::Common::Core</text>
<text text-anchor="start" x="567" y="-45" font-family="Helvetica,sans-Serif" font-size="10.00">::VariantTypeTraits&lt;</text>
<text text-anchor="middle" x="618" y="-34" font-family="Helvetica,sans-Serif" font-size="10.00"> float &gt;</text>
</a>
</g>
</g>
<!-- Node2 -->
<g id="Node000002" class="node">
<title>Node2</title>
<g id="a_Node000002"><a xlink:href="struct_harlinn_1_1_common_1_1_core_1_1_internal_1_1_variant_type_traits.html" target="_top" xlink:title=" ">
<polygon fill="white" stroke="#666666" points="522,-73.5 385,-73.5 385,-21.5 522,-21.5 522,-73.5"/>
<text text-anchor="start" x="393" y="-61.5" font-family="Helvetica,sans-Serif" font-size="10.00">Harlinn::Common::Core</text>
<text text-anchor="start" x="393" y="-50.5" font-family="Helvetica,sans-Serif" font-size="10.00">::Internal::VariantTypeTraits</text>
<text text-anchor="start" x="393" y="-39.5" font-family="Helvetica,sans-Serif" font-size="10.00">&lt; Core::VariantType::Real4,</text>
<text text-anchor="middle" x="453.5" y="-28.5" font-family="Helvetica,sans-Serif" font-size="10.00"> float &gt;</text>
</a>
</g>
</g>
<!-- Node2&#45;&gt;Node1 -->
<g id="edge1_Node000001_Node000002" class="edge">
<title>Node2&#45;&gt;Node1</title>
<g id="a_edge1_Node000001_Node000002"><a xlink:title=" ">
<path fill="none" stroke="#63b8ff" d="M533.81,-47.5C542.16,-47.5 550.53,-47.5 558.58,-47.5"/>
<polygon fill="#63b8ff" stroke="#63b8ff" points="533.99,-44 523.99,-47.5 533.99,-51 533.99,-44"/>
</a>
</g>
</g>
<!-- Node3 -->
<g id="Node000003" class="node">
<title>Node3</title>
<g id="a_Node000003"><a xlink:title=" ">
<polygon fill="white" stroke="#666666" points="77,-54 0,-54 0,-35 77,-35 77,-54"/>
<text text-anchor="middle" x="38.5" y="-42" font-family="Helvetica,sans-Serif" font-size="10.00">std::true_type</text>
</a>
</g>
</g>
<!-- Node3&#45;&gt;Node2 -->
<g id="edge2_Node000002_Node000003" class="edge">
<title>Node3&#45;&gt;Node2</title>
<g id="a_edge2_Node000002_Node000003"><a xlink:title=" ">
<path fill="none" stroke="#63b8ff" d="M88.75,-49.08C90.86,-49.23 92.95,-49.37 95,-49.5 215.69,-56.93 246.21,-61.14 367,-55.5 372.81,-55.23 378.83,-54.85 384.87,-54.42"/>
<polygon fill="#63b8ff" stroke="#63b8ff" points="89.14,-45.6 78.9,-48.32 88.6,-52.58 89.14,-45.6"/>
</a>
</g>
</g>
<!-- Node4 -->
<g id="Node000004" class="node">
<title>Node4</title>
<g id="a_Node000004"><a xlink:href="struct_harlinn_1_1_common_1_1_core_1_1_internal_1_1_variant_type_traits.html" target="_top" xlink:title=" ">
<polygon fill="white" stroke="#666666" points="258,-41 114,-41 114,0 258,0 258,-41"/>
<text text-anchor="start" x="122" y="-29" font-family="Helvetica,sans-Serif" font-size="10.00">Harlinn::Common::Core</text>
<text text-anchor="start" x="122" y="-18" font-family="Helvetica,sans-Serif" font-size="10.00">::Internal::VariantTypeTraits</text>
<text text-anchor="middle" x="186" y="-7" font-family="Helvetica,sans-Serif" font-size="10.00">&lt; vt, ValueT, VariantValueT &gt;</text>
</a>
</g>
</g>
<!-- Node3&#45;&gt;Node4 -->
<g id="edge4_Node000004_Node000003" class="edge">
<title>Node3&#45;&gt;Node4</title>
<g id="a_edge4_Node000004_Node000003"><a xlink:title=" ">
<path fill="none" stroke="#63b8ff" d="M88.51,-36.42C96.64,-35.07 105.22,-33.66 113.78,-32.25"/>
<polygon fill="#63b8ff" stroke="#63b8ff" points="88.14,-32.93 78.84,-38.01 89.28,-39.84 88.14,-32.93"/>
</a>
</g>
</g>
<!-- Node4&#45;&gt;Node2 -->
<g id="edge3_Node000002_Node000004" class="edge">
<title>Node4&#45;&gt;Node2</title>
<g id="a_edge3_Node000002_Node000004"><a xlink:title=" ">
<path fill="none" stroke="orange" stroke-dasharray="5,2" d="M269.21,-24.87C299.95,-26.92 335.13,-29.75 367,-33.5 372.83,-34.19 378.86,-34.99 384.91,-35.85"/>
<polygon fill="orange" stroke="orange" points="269.81,-21.4 259.61,-24.25 269.36,-28.39 269.81,-21.4"/>
</a>
</g>
<text text-anchor="start" x="276" y="-47.5" font-family="Helvetica,sans-Serif" font-size="10.00" fill="grey"> &lt; Core::VariantType</text>
<text text-anchor="middle" x="321.5" y="-36.5" font-family="Helvetica,sans-Serif" font-size="10.00" fill="grey">::Real4, float &gt;</text>
</g>
</g>
</svg>
