<?xml version="1.0" encoding="UTF-8" standalone="no"?>
<!DOCTYPE svg PUBLIC "-//W3C//DTD SVG 1.1//EN"
 "http://www.w3.org/Graphics/SVG/1.1/DTD/svg11.dtd">
<!-- Generated by graphviz version 7.0.1 (20221109.1506)
 -->
<!-- Title: Harlinn::Common::Core::SIMD::Traits8Bit&lt; T, N &gt; Pages: 1 -->
<svg width="846pt" height="134pt"
 viewBox="0.00 0.00 846.00 134.00" xmlns="http://www.w3.org/2000/svg" xmlns:xlink="http://www.w3.org/1999/xlink">
<g id="graph0" class="graph" transform="scale(1 1) rotate(0) translate(4 130)">
<title>Harlinn::Common::Core::SIMD::Traits8Bit&lt; T, N &gt;</title>
<!-- Node1 -->
<g id="Node000001" class="node">
<title>Node1</title>
<g id="a_Node000001"><a xlink:title=" ">
<polygon fill="#999999" stroke="#666666" points="418,-78 288,-78 288,-48 418,-48 418,-78"/>
<text text-anchor="start" x="296" y="-66" font-family="Helvetica,sans-Serif" font-size="10.00">Harlinn::Common::Core</text>
<text text-anchor="middle" x="353" y="-55" font-family="Helvetica,sans-Serif" font-size="10.00">::SIMD::Traits8Bit&lt; T, N &gt;</text>
</a>
</g>
</g>
<!-- Node4 -->
<g id="Node000004" class="node">
<title>Node4</title>
<g id="a_Node000004"><a xlink:href="struct_harlinn_1_1_common_1_1_core_1_1_s_i_m_d_1_1_traits8_bit.html" target="_top" xlink:title=" ">
<polygon fill="white" stroke="#666666" points="663.5,-126 518.5,-126 518.5,-96 663.5,-96 663.5,-126"/>
<text text-anchor="start" x="526.5" y="-114" font-family="Helvetica,sans-Serif" font-size="10.00">Harlinn::Common::Core</text>
<text text-anchor="middle" x="591" y="-103" font-family="Helvetica,sans-Serif" font-size="10.00">::SIMD::Traits8Bit&lt; Byte, N &gt;</text>
</a>
</g>
</g>
<!-- Node1&#45;&gt;Node4 -->
<g id="edge3_Node000001_Node000004" class="edge">
<title>Node1&#45;&gt;Node4</title>
<g id="a_edge3_Node000001_Node000004"><a xlink:title=" ">
<path fill="none" stroke="orange" stroke-dasharray="5,2" d="M429.57,-78.37C457.94,-84.14 490.08,-90.68 518.11,-96.38"/>
<polygon fill="orange" stroke="orange" points="430.47,-74.98 419.97,-76.42 429.07,-81.84 430.47,-74.98"/>
</a>
</g>
<text text-anchor="middle" x="466.5" y="-94" font-family="Helvetica,sans-Serif" font-size="10.00" fill="grey"> &lt; Byte, N &gt;</text>
</g>
<!-- Node6 -->
<g id="Node000006" class="node">
<title>Node6</title>
<g id="a_Node000006"><a xlink:href="struct_harlinn_1_1_common_1_1_core_1_1_s_i_m_d_1_1_traits8_bit.html" target="_top" xlink:title=" ">
<polygon fill="white" stroke="#666666" points="667,-78 515,-78 515,-48 667,-48 667,-78"/>
<text text-anchor="start" x="523" y="-66" font-family="Helvetica,sans-Serif" font-size="10.00">Harlinn::Common::Core</text>
<text text-anchor="middle" x="591" y="-55" font-family="Helvetica,sans-Serif" font-size="10.00">::SIMD::Traits8Bit&lt; SByte, N &gt;</text>
</a>
</g>
</g>
<!-- Node1&#45;&gt;Node6 -->
<g id="edge5_Node000001_Node000006" class="edge">
<title>Node1&#45;&gt;Node6</title>
<g id="a_edge5_Node000001_Node000006"><a xlink:title=" ">
<path fill="none" stroke="orange" stroke-dasharray="5,2" d="M429.89,-63C457.05,-63 487.62,-63 514.72,-63"/>
<polygon fill="orange" stroke="orange" points="430,-59.5 420,-63 430,-66.5 430,-59.5"/>
</a>
</g>
<text text-anchor="middle" x="466.5" y="-66" font-family="Helvetica,sans-Serif" font-size="10.00" fill="grey"> &lt; SByte, N &gt;</text>
</g>
<!-- Node8 -->
<g id="Node000008" class="node">
<title>Node8</title>
<g id="a_Node000008"><a xlink:href="struct_harlinn_1_1_common_1_1_core_1_1_s_i_m_d_1_1_traits8_bit.html" target="_top" xlink:title=" ">
<polygon fill="white" stroke="#666666" points="662.5,-30 519.5,-30 519.5,0 662.5,0 662.5,-30"/>
<text text-anchor="start" x="527.5" y="-18" font-family="Helvetica,sans-Serif" font-size="10.00">Harlinn::Common::Core</text>
<text text-anchor="middle" x="591" y="-7" font-family="Helvetica,sans-Serif" font-size="10.00">::SIMD::Traits8Bit&lt; char, N &gt;</text>
</a>
</g>
</g>
<!-- Node1&#45;&gt;Node8 -->
<g id="edge7_Node000001_Node000008" class="edge">
<title>Node1&#45;&gt;Node8</title>
<g id="a_edge7_Node000001_Node000008"><a xlink:title=" ">
<path fill="none" stroke="orange" stroke-dasharray="5,2" d="M429.72,-47.6C458.48,-41.75 491.1,-35.12 519.37,-29.37"/>
<polygon fill="orange" stroke="orange" points="429.07,-44.16 419.97,-49.58 430.47,-51.02 429.07,-44.16"/>
</a>
</g>
<text text-anchor="middle" x="466.5" y="-50" font-family="Helvetica,sans-Serif" font-size="10.00" fill="grey"> &lt; char, N &gt;</text>
</g>
<!-- Node2 -->
<g id="Node000002" class="node">
<title>Node2</title>
<g id="a_Node000002"><a xlink:href="struct_harlinn_1_1_common_1_1_core_1_1_s_i_m_d_1_1_internal_1_1_traits_base.html" target="_top" xlink:title=" ">
<polygon fill="white" stroke="#666666" points="251,-78 114,-78 114,-48 251,-48 251,-78"/>
<text text-anchor="start" x="122" y="-66" font-family="Helvetica,sans-Serif" font-size="10.00">Harlinn::Common::Core</text>
<text text-anchor="middle" x="182.5" y="-55" font-family="Helvetica,sans-Serif" font-size="10.00">::SIMD::Internal::TraitsBase</text>
</a>
</g>
</g>
<!-- Node2&#45;&gt;Node1 -->
<g id="edge1_Node000001_Node000002" class="edge">
<title>Node2&#45;&gt;Node1</title>
<g id="a_edge1_Node000001_Node000002"><a xlink:title=" ">
<path fill="none" stroke="#63b8ff" d="M262.5,-63C270.95,-63 279.46,-63 287.7,-63"/>
<polygon fill="#63b8ff" stroke="#63b8ff" points="262.58,-59.5 252.58,-63 262.58,-66.5 262.58,-59.5"/>
</a>
</g>
</g>
<!-- Node3 -->
<g id="Node000003" class="node">
<title>Node3</title>
<g id="a_Node000003"><a xlink:title=" ">
<polygon fill="white" stroke="#666666" points="77,-72.5 0,-72.5 0,-53.5 77,-53.5 77,-72.5"/>
<text text-anchor="middle" x="38.5" y="-60.5" font-family="Helvetica,sans-Serif" font-size="10.00">std::true_type</text>
</a>
</g>
</g>
<!-- Node3&#45;&gt;Node2 -->
<g id="edge2_Node000002_Node000003" class="edge">
<title>Node3&#45;&gt;Node2</title>
<g id="a_edge2_Node000002_Node000003"><a xlink:title=" ">
<path fill="none" stroke="#63b8ff" d="M88.67,-63C96.76,-63 105.26,-63 113.71,-63"/>
<polygon fill="#63b8ff" stroke="#63b8ff" points="88.69,-59.5 78.69,-63 88.69,-66.5 88.69,-59.5"/>
</a>
</g>
</g>
<!-- Node5 -->
<g id="Node000005" class="node">
<title>Node5</title>
<g id="a_Node000005"><a xlink:href="struct_harlinn_1_1_common_1_1_core_1_1_s_i_m_d_1_1_traits_3_01_byte_00_01_n_01_4.html" target="_top" xlink:title=" ">
<polygon fill="white" stroke="#666666" points="835,-126 707,-126 707,-96 835,-96 835,-126"/>
<text text-anchor="start" x="715" y="-114" font-family="Helvetica,sans-Serif" font-size="10.00">Harlinn::Common::Core</text>
<text text-anchor="middle" x="771" y="-103" font-family="Helvetica,sans-Serif" font-size="10.00">::SIMD::Traits&lt; Byte, N &gt;</text>
</a>
</g>
</g>
<!-- Node4&#45;&gt;Node5 -->
<g id="edge4_Node000004_Node000005" class="edge">
<title>Node4&#45;&gt;Node5</title>
<g id="a_edge4_Node000004_Node000005"><a xlink:title=" ">
<path fill="none" stroke="#63b8ff" d="M675.29,-111C685.86,-111 696.54,-111 706.73,-111"/>
<polygon fill="#63b8ff" stroke="#63b8ff" points="675.4,-107.5 665.4,-111 675.4,-114.5 675.4,-107.5"/>
</a>
</g>
</g>
<!-- Node7 -->
<g id="Node000007" class="node">
<title>Node7</title>
<g id="a_Node000007"><a xlink:href="struct_harlinn_1_1_common_1_1_core_1_1_s_i_m_d_1_1_traits_3_01_s_byte_00_01_n_01_4.html" target="_top" xlink:title=" ">
<polygon fill="white" stroke="#666666" points="838,-78 704,-78 704,-48 838,-48 838,-78"/>
<text text-anchor="start" x="712" y="-66" font-family="Helvetica,sans-Serif" font-size="10.00">Harlinn::Common::Core</text>
<text text-anchor="middle" x="771" y="-55" font-family="Helvetica,sans-Serif" font-size="10.00">::SIMD::Traits&lt; SByte, N &gt;</text>
</a>
</g>
</g>
<!-- Node6&#45;&gt;Node7 -->
<g id="edge6_Node000006_Node000007" class="edge">
<title>Node6&#45;&gt;Node7</title>
<g id="a_edge6_Node000006_Node000007"><a xlink:title=" ">
<path fill="none" stroke="#63b8ff" d="M678.84,-63C687.2,-63 695.58,-63 703.69,-63"/>
<polygon fill="#63b8ff" stroke="#63b8ff" points="679,-59.5 669,-63 679,-66.5 679,-59.5"/>
</a>
</g>
</g>
<!-- Node9 -->
<g id="Node000009" class="node">
<title>Node9</title>
<g id="a_Node000009"><a xlink:href="struct_harlinn_1_1_common_1_1_core_1_1_s_i_m_d_1_1_traits_3_01char_00_01_n_01_4.html" target="_top" xlink:title=" ">
<polygon fill="white" stroke="#666666" points="834,-30 708,-30 708,0 834,0 834,-30"/>
<text text-anchor="start" x="716" y="-18" font-family="Helvetica,sans-Serif" font-size="10.00">Harlinn::Common::Core</text>
<text text-anchor="middle" x="771" y="-7" font-family="Helvetica,sans-Serif" font-size="10.00">::SIMD::Traits&lt; char, N &gt;</text>
</a>
</g>
</g>
<!-- Node8&#45;&gt;Node9 -->
<g id="edge8_Node000008_Node000009" class="edge">
<title>Node8&#45;&gt;Node9</title>
<g id="a_edge8_Node000008_Node000009"><a xlink:title=" ">
<path fill="none" stroke="#63b8ff" d="M674.09,-15C685.4,-15 696.85,-15 707.72,-15"/>
<polygon fill="#63b8ff" stroke="#63b8ff" points="674.38,-11.5 664.38,-15 674.38,-18.5 674.38,-11.5"/>
</a>
</g>
</g>
</g>
</svg>
