<?xml version="1.0" encoding="UTF-8" standalone="no"?>
<!DOCTYPE svg PUBLIC "-//W3C//DTD SVG 1.1//EN"
 "http://www.w3.org/Graphics/SVG/1.1/DTD/svg11.dtd">
<!-- Generated by graphviz version 7.0.1 (20221109.1506)
 -->
<!-- Title: Harlinn::Common::Core::BitTraits&lt; Byte &gt; Pages: 1 -->
<svg width="198pt" height="305pt"
 viewBox="0.00 0.00 197.50 305.00" xmlns="http://www.w3.org/2000/svg" xmlns:xlink="http://www.w3.org/1999/xlink">
<g id="graph0" class="graph" transform="scale(1 1) rotate(0) translate(4 301)">
<title>Harlinn::Common::Core::BitTraits&lt; Byte &gt;</title>
<!-- Node1 -->
<g id="Node000001" class="node">
<title>Node1</title>
<g id="a_Node000001"><a xlink:title=" ">
<polygon fill="#999999" stroke="#666666" points="118.5,-30 0.5,-30 0.5,0 118.5,0 118.5,-30"/>
<text text-anchor="start" x="8.5" y="-18" font-family="Helvetica,sans-Serif" font-size="10.00">Harlinn::Common::Core</text>
<text text-anchor="middle" x="59.5" y="-7" font-family="Helvetica,sans-Serif" font-size="10.00">::BitTraits&lt; Byte &gt;</text>
</a>
</g>
</g>
<!-- Node2 -->
<g id="Node000002" class="node">
<title>Node2</title>
<g id="a_Node000002"><a xlink:href="struct_harlinn_1_1_common_1_1_core_1_1_byte_bit_traits.xhtml" target="_top" xlink:title=" ">
<polygon fill="white" stroke="#666666" points="118.5,-97 0.5,-97 0.5,-67 118.5,-67 118.5,-97"/>
<text text-anchor="start" x="8.5" y="-85" font-family="Helvetica,sans-Serif" font-size="10.00">Harlinn::Common::Core</text>
<text text-anchor="middle" x="59.5" y="-74" font-family="Helvetica,sans-Serif" font-size="10.00">::ByteBitTraits</text>
</a>
</g>
</g>
<!-- Node2&#45;&gt;Node1 -->
<g id="edge1_Node000001_Node000002" class="edge">
<title>Node2&#45;&gt;Node1</title>
<g id="a_edge1_Node000001_Node000002"><a xlink:title=" ">
<path fill="none" stroke="#63b8ff" d="M59.5,-55.28C59.5,-46.81 59.5,-37.7 59.5,-30.39"/>
<polygon fill="#63b8ff" stroke="#63b8ff" points="56,-55.06 59.5,-65.06 63,-55.06 56,-55.06"/>
</a>
</g>
</g>
<!-- Node3 -->
<g id="Node000003" class="node">
<title>Node3</title>
<g id="a_Node000003"><a xlink:href="struct_harlinn_1_1_common_1_1_core_1_1_bit_traits_base.xhtml" target="_top" xlink:title=" ">
<polygon fill="white" stroke="#666666" points="119,-164 0,-164 0,-134 119,-134 119,-164"/>
<text text-anchor="start" x="8" y="-152" font-family="Helvetica,sans-Serif" font-size="10.00">Harlinn::Common::Core</text>
<text text-anchor="middle" x="59.5" y="-141" font-family="Helvetica,sans-Serif" font-size="10.00">::BitTraitsBase&lt; Byte &gt;</text>
</a>
</g>
</g>
<!-- Node3&#45;&gt;Node2 -->
<g id="edge2_Node000002_Node000003" class="edge">
<title>Node3&#45;&gt;Node2</title>
<g id="a_edge2_Node000002_Node000003"><a xlink:title=" ">
<path fill="none" stroke="#63b8ff" d="M59.5,-122.28C59.5,-113.81 59.5,-104.7 59.5,-97.39"/>
<polygon fill="#63b8ff" stroke="#63b8ff" points="56,-122.06 59.5,-132.06 63,-122.06 56,-122.06"/>
</a>
</g>
</g>
<!-- Node4 -->
<g id="Node000004" class="node">
<title>Node4</title>
<g id="a_Node000004"><a xlink:title=" ">
<polygon fill="white" stroke="#666666" points="94,-297 17,-297 17,-278 94,-278 94,-297"/>
<text text-anchor="middle" x="55.5" y="-285" font-family="Helvetica,sans-Serif" font-size="10.00">std::true_type</text>
</a>
</g>
</g>
<!-- Node4&#45;&gt;Node3 -->
<g id="edge3_Node000003_Node000004" class="edge">
<title>Node4&#45;&gt;Node3</title>
<g id="a_edge3_Node000003_Node000004"><a xlink:title=" ">
<path fill="none" stroke="#63b8ff" d="M56.1,-266.07C56.92,-238.12 58.37,-188.66 59.08,-164.33"/>
<polygon fill="#63b8ff" stroke="#63b8ff" points="52.6,-265.93 55.81,-276.03 59.6,-266.14 52.6,-265.93"/>
</a>
</g>
</g>
<!-- Node5 -->
<g id="Node000005" class="node">
<title>Node5</title>
<g id="a_Node000005"><a xlink:href="struct_harlinn_1_1_common_1_1_core_1_1_bit_traits_base.xhtml" target="_top" xlink:title=" ">
<polygon fill="white" stroke="#666666" points="189.5,-241 71.5,-241 71.5,-211 189.5,-211 189.5,-241"/>
<text text-anchor="start" x="79.5" y="-229" font-family="Helvetica,sans-Serif" font-size="10.00">Harlinn::Common::Core</text>
<text text-anchor="middle" x="130.5" y="-218" font-family="Helvetica,sans-Serif" font-size="10.00">::BitTraitsBase&lt; T &gt;</text>
</a>
</g>
</g>
<!-- Node4&#45;&gt;Node5 -->
<g id="edge5_Node000005_Node000004" class="edge">
<title>Node4&#45;&gt;Node5</title>
<g id="a_edge5_Node000005_Node000004"><a xlink:title=" ">
<path fill="none" stroke="#63b8ff" d="M75.42,-270.7C86.9,-261.59 101.24,-250.21 112.4,-241.36"/>
<polygon fill="#63b8ff" stroke="#63b8ff" points="73.41,-267.82 67.75,-276.78 77.76,-273.31 73.41,-267.82"/>
</a>
</g>
</g>
<!-- Node5&#45;&gt;Node3 -->
<g id="edge4_Node000003_Node000005" class="edge">
<title>Node5&#45;&gt;Node3</title>
<g id="a_edge4_Node000003_Node000005"><a xlink:title=" ">
<path fill="none" stroke="orange" stroke-dasharray="5,2" d="M109.19,-202.49C97.5,-190.14 83.35,-175.2 73.15,-164.42"/>
<polygon fill="orange" stroke="orange" points="106.35,-204.58 115.77,-209.44 111.44,-199.77 106.35,-204.58"/>
</a>
</g>
<text text-anchor="middle" x="119.5" y="-185" font-family="Helvetica,sans-Serif" font-size="10.00" fill="grey"> &lt; Byte &gt;</text>
</g>
</g>
</svg>
