<?xml version="1.0" encoding="UTF-8" standalone="no"?>
<!DOCTYPE svg PUBLIC "-//W3C//DTD SVG 1.1//EN"
 "http://www.w3.org/Graphics/SVG/1.1/DTD/svg11.dtd">
<!-- Generated by graphviz version 7.0.1 (20221109.1506)
 -->
<!-- Title: Harlinn::Common::Core::Types::Internal::ContainerTypeTraits&lt; RT, ByteArray&lt; N &gt; &gt; Pages: 1 -->
<svg width="916pt" height="108pt"
 viewBox="0.00 0.00 916.00 108.00" xmlns="http://www.w3.org/2000/svg" xmlns:xlink="http://www.w3.org/1999/xlink">
<g id="graph0" class="graph" transform="scale(1 1) rotate(0) translate(4 104)">
<title>Harlinn::Common::Core::Types::Internal::ContainerTypeTraits&lt; RT, ByteArray&lt; N &gt; &gt;</title>
<!-- Node1 -->
<g id="Node000001" class="node">
<title>Node1</title>
<g id="a_Node000001"><a xlink:title=" ">
<polygon fill="#999999" stroke="#666666" points="908,-70 742,-70 742,-29 908,-29 908,-70"/>
<text text-anchor="start" x="750" y="-58" font-family="Helvetica,sans-Serif" font-size="10.00">Harlinn::Common::Core</text>
<text text-anchor="start" x="750" y="-47" font-family="Helvetica,sans-Serif" font-size="10.00">::Types::Internal::Container</text>
<text text-anchor="middle" x="825" y="-36" font-family="Helvetica,sans-Serif" font-size="10.00">TypeTraits&lt; RT, ByteArray&lt; N &gt; &gt;</text>
</a>
</g>
</g>
<!-- Node2 -->
<g id="Node000002" class="node">
<title>Node2</title>
<g id="a_Node000002"><a xlink:href="struct_harlinn_1_1_common_1_1_core_1_1_types_1_1_internal_1_1_container_type_traits_base.xhtml" target="_top" xlink:title=" ">
<polygon fill="white" stroke="#666666" points="705,-75.5 568,-75.5 568,-23.5 705,-23.5 705,-75.5"/>
<text text-anchor="start" x="576" y="-63.5" font-family="Helvetica,sans-Serif" font-size="10.00">Harlinn::Common::Core</text>
<text text-anchor="start" x="576" y="-52.5" font-family="Helvetica,sans-Serif" font-size="10.00">::Types::Internal::Container</text>
<text text-anchor="start" x="576" y="-41.5" font-family="Helvetica,sans-Serif" font-size="10.00">TypeTraitsBase&lt; ByteArray</text>
<text text-anchor="middle" x="636.5" y="-30.5" font-family="Helvetica,sans-Serif" font-size="10.00">&lt; N &gt;, RT &gt;</text>
</a>
</g>
</g>
<!-- Node2&#45;&gt;Node1 -->
<g id="edge1_Node000001_Node000002" class="edge">
<title>Node2&#45;&gt;Node1</title>
<g id="a_edge1_Node000001_Node000002"><a xlink:title=" ">
<path fill="none" stroke="#63b8ff" d="M716.82,-49.5C725.02,-49.5 733.36,-49.5 741.59,-49.5"/>
<polygon fill="#63b8ff" stroke="#63b8ff" points="716.87,-46 706.87,-49.5 716.87,-53 716.87,-46"/>
</a>
</g>
</g>
<!-- Node3 -->
<g id="Node000003" class="node">
<title>Node3</title>
<g id="a_Node000003"><a xlink:href="struct_harlinn_1_1_common_1_1_core_1_1_types_1_1_internal_1_1_type_traits_base.xhtml" target="_top" xlink:title=" ">
<polygon fill="white" stroke="#666666" points="424,-100 281,-100 281,-59 424,-59 424,-100"/>
<text text-anchor="start" x="289" y="-88" font-family="Helvetica,sans-Serif" font-size="10.00">Harlinn::Common::Core</text>
<text text-anchor="start" x="289" y="-77" font-family="Helvetica,sans-Serif" font-size="10.00">::Types::Internal::TypeTraits</text>
<text text-anchor="middle" x="352.5" y="-66" font-family="Helvetica,sans-Serif" font-size="10.00">Base&lt; ByteArray&lt; N &gt;, RT &gt;</text>
</a>
</g>
</g>
<!-- Node3&#45;&gt;Node2 -->
<g id="edge2_Node000002_Node000003" class="edge">
<title>Node3&#45;&gt;Node2</title>
<g id="a_edge2_Node000002_Node000003"><a xlink:title=" ">
<path fill="none" stroke="#63b8ff" d="M435.6,-70.77C477.51,-66.31 527.9,-60.95 567.59,-56.72"/>
<polygon fill="#63b8ff" stroke="#63b8ff" points="435.38,-67.27 425.8,-71.81 436.12,-74.23 435.38,-67.27"/>
</a>
</g>
</g>
<!-- Node4 -->
<g id="Node000004" class="node">
<title>Node4</title>
<g id="a_Node000004"><a xlink:href="struct_harlinn_1_1_common_1_1_core_1_1_types_1_1_internal_1_1_type_traits_base.xhtml" target="_top" xlink:title=" ">
<polygon fill="white" stroke="#666666" points="137,-100 0,-100 0,-59 137,-59 137,-100"/>
<text text-anchor="start" x="8" y="-88" font-family="Helvetica,sans-Serif" font-size="10.00">Harlinn::Common::Core</text>
<text text-anchor="start" x="8" y="-77" font-family="Helvetica,sans-Serif" font-size="10.00">::Types::Internal::TypeTraits</text>
<text text-anchor="middle" x="68.5" y="-66" font-family="Helvetica,sans-Serif" font-size="10.00">Base&lt; T, RT &gt;</text>
</a>
</g>
</g>
<!-- Node4&#45;&gt;Node3 -->
<g id="edge3_Node000003_Node000004" class="edge">
<title>Node4&#45;&gt;Node3</title>
<g id="a_edge3_Node000003_Node000004"><a xlink:title=" ">
<path fill="none" stroke="orange" stroke-dasharray="5,2" d="M148.85,-79.5C190.31,-79.5 240.62,-79.5 280.74,-79.5"/>
<polygon fill="orange" stroke="orange" points="148.92,-76 138.92,-79.5 148.92,-83 148.92,-76"/>
</a>
</g>
<text text-anchor="middle" x="209" y="-82.5" font-family="Helvetica,sans-Serif" font-size="10.00" fill="grey"> &lt; ByteArray&lt; N &gt;, RT &gt;</text>
</g>
<!-- Node5 -->
<g id="Node000005" class="node">
<title>Node5</title>
<g id="a_Node000005"><a xlink:href="struct_harlinn_1_1_common_1_1_core_1_1_types_1_1_internal_1_1_container_type_traits_base.xhtml" target="_top" xlink:title=" ">
<polygon fill="white" stroke="#666666" points="419.5,-41 285.5,-41 285.5,0 419.5,0 419.5,-41"/>
<text text-anchor="start" x="293.5" y="-29" font-family="Helvetica,sans-Serif" font-size="10.00">Harlinn::Common::Core</text>
<text text-anchor="start" x="293.5" y="-18" font-family="Helvetica,sans-Serif" font-size="10.00">::Types::Internal::Container</text>
<text text-anchor="middle" x="352.5" y="-7" font-family="Helvetica,sans-Serif" font-size="10.00">TypeTraitsBase&lt; T, RT &gt;</text>
</a>
</g>
</g>
<!-- Node5&#45;&gt;Node2 -->
<g id="edge4_Node000002_Node000005" class="edge">
<title>Node5&#45;&gt;Node2</title>
<g id="a_edge4_Node000002_Node000005"><a xlink:title=" ">
<path fill="none" stroke="orange" stroke-dasharray="5,2" d="M431.18,-28.49C473.9,-32.88 526.42,-38.28 567.51,-42.51"/>
<polygon fill="orange" stroke="orange" points="431.78,-25.03 421.48,-27.49 431.07,-32 431.78,-25.03"/>
</a>
</g>
<text text-anchor="middle" x="496" y="-42.5" font-family="Helvetica,sans-Serif" font-size="10.00" fill="grey"> &lt; ByteArray&lt; N &gt;, RT &gt;</text>
</g>
<!-- Node6 -->
<g id="Node000006" class="node">
<title>Node6</title>
<g id="a_Node000006"><a xlink:href="struct_harlinn_1_1_common_1_1_core_1_1_types_1_1_internal_1_1_type_traits_base.xhtml" target="_top" xlink:title=" ">
<polygon fill="white" stroke="#666666" points="137,-41 0,-41 0,0 137,0 137,-41"/>
<text text-anchor="start" x="8" y="-29" font-family="Helvetica,sans-Serif" font-size="10.00">Harlinn::Common::Core</text>
<text text-anchor="start" x="8" y="-18" font-family="Helvetica,sans-Serif" font-size="10.00">::Types::Internal::TypeTraits</text>
<text text-anchor="middle" x="68.5" y="-7" font-family="Helvetica,sans-Serif" font-size="10.00">Base&lt; T, RT &gt;</text>
</a>
</g>
</g>
<!-- Node6&#45;&gt;Node5 -->
<g id="edge5_Node000005_Node000006" class="edge">
<title>Node6&#45;&gt;Node5</title>
<g id="a_edge5_Node000005_Node000006"><a xlink:title=" ">
<path fill="none" stroke="#63b8ff" d="M148.69,-20.5C191.72,-20.5 244.31,-20.5 285.16,-20.5"/>
<polygon fill="#63b8ff" stroke="#63b8ff" points="148.92,-17 138.92,-20.5 148.92,-24 148.92,-17"/>
</a>
</g>
</g>
</g>
</svg>
