<?xml version="1.0" encoding="UTF-8" standalone="no"?>
<!DOCTYPE svg PUBLIC "-//W3C//DTD SVG 1.1//EN"
 "http://www.w3.org/Graphics/SVG/1.1/DTD/svg11.dtd">
<!-- Generated by graphviz version 7.0.1 (20221109.1506)
 -->
<!-- Title: Harlinn::Windows::DXContext::FrameContext Pages: 1 -->
<svg width="170pt" height="383pt"
 viewBox="0.00 0.00 170.00 383.00" xmlns="http://www.w3.org/2000/svg" xmlns:xlink="http://www.w3.org/1999/xlink">
<g id="graph0" class="graph" transform="scale(1 1) rotate(0) translate(4 379)">
<title>Harlinn::Windows::DXContext::FrameContext</title>
<!-- Node1 -->
<g id="Node000001" class="node">
<title>Node1</title>
<g id="a_Node000001"><a xlink:title=" ">
<polygon fill="#999999" stroke="#666666" points="144,-30 0,-30 0,0 144,0 144,-30"/>
<text text-anchor="start" x="8" y="-18" font-family="Helvetica,sans-Serif" font-size="10.00">Harlinn::Windows::DXContext</text>
<text text-anchor="middle" x="72" y="-7" font-family="Helvetica,sans-Serif" font-size="10.00">::FrameContext</text>
</a>
</g>
</g>
<!-- Node2 -->
<g id="Node000002" class="node">
<title>Node2</title>
<g id="a_Node000002"><a xlink:href="class_harlinn_1_1_windows_1_1_graphics_1_1_d3_d12_1_1_command_allocator.html" target="_top" xlink:title="Represents the allocations of storage for graphics processing unit (GPU) commands.">
<polygon fill="white" stroke="#666666" points="142,-107 2,-107 2,-77 142,-77 142,-107"/>
<text text-anchor="start" x="10" y="-95" font-family="Helvetica,sans-Serif" font-size="10.00">Harlinn::Windows::Graphics</text>
<text text-anchor="middle" x="72" y="-84" font-family="Helvetica,sans-Serif" font-size="10.00">::D3D12::CommandAllocator</text>
</a>
</g>
</g>
<!-- Node2&#45;&gt;Node1 -->
<g id="edge1_Node000001_Node000002" class="edge">
<title>Node2&#45;&gt;Node1</title>
<g id="a_edge1_Node000001_Node000002"><a xlink:title=" ">
<path fill="none" stroke="#9a32cd" stroke-dasharray="5,2" d="M72,-65.23C72,-53.58 72,-40.26 72,-30.42"/>
<polygon fill="#9a32cd" stroke="#9a32cd" points="68.5,-65.03 72,-75.03 75.5,-65.03 68.5,-65.03"/>
</a>
</g>
<text text-anchor="middle" x="117" y="-51" font-family="Helvetica,sans-Serif" font-size="10.00" fill="grey"> commandAllocator_</text>
</g>
<!-- Node3 -->
<g id="Node000003" class="node">
<title>Node3</title>
<g id="a_Node000003"><a xlink:href="class_harlinn_1_1_windows_1_1_graphics_1_1_d3_d12_1_1_pageable.html" target="_top" xlink:title="Classes derived from Pageable encapsulates some amount of GPU&#45;accessible memory.">
<polygon fill="white" stroke="#666666" points="140.5,-174 3.5,-174 3.5,-144 140.5,-144 140.5,-174"/>
<text text-anchor="start" x="11.5" y="-162" font-family="Helvetica,sans-Serif" font-size="10.00">Harlinn::Windows::Graphics</text>
<text text-anchor="middle" x="72" y="-151" font-family="Helvetica,sans-Serif" font-size="10.00">::D3D12::Pageable</text>
</a>
</g>
</g>
<!-- Node3&#45;&gt;Node2 -->
<g id="edge2_Node000002_Node000003" class="edge">
<title>Node3&#45;&gt;Node2</title>
<g id="a_edge2_Node000002_Node000003"><a xlink:title=" ">
<path fill="none" stroke="#63b8ff" d="M72,-132.28C72,-123.81 72,-114.7 72,-107.39"/>
<polygon fill="#63b8ff" stroke="#63b8ff" points="68.5,-132.06 72,-142.06 75.5,-132.06 68.5,-132.06"/>
</a>
</g>
</g>
<!-- Node4 -->
<g id="Node000004" class="node">
<title>Node4</title>
<g id="a_Node000004"><a xlink:href="class_harlinn_1_1_windows_1_1_graphics_1_1_d3_d12_1_1_device_child.html" target="_top" xlink:title="Adds the ability to get the device used to create it.">
<polygon fill="white" stroke="#666666" points="140.5,-241 3.5,-241 3.5,-211 140.5,-211 140.5,-241"/>
<text text-anchor="start" x="11.5" y="-229" font-family="Helvetica,sans-Serif" font-size="10.00">Harlinn::Windows::Graphics</text>
<text text-anchor="middle" x="72" y="-218" font-family="Helvetica,sans-Serif" font-size="10.00">::D3D12::DeviceChild</text>
</a>
</g>
</g>
<!-- Node4&#45;&gt;Node3 -->
<g id="edge3_Node000003_Node000004" class="edge">
<title>Node4&#45;&gt;Node3</title>
<g id="a_edge3_Node000003_Node000004"><a xlink:title=" ">
<path fill="none" stroke="#63b8ff" d="M72,-199.28C72,-190.81 72,-181.7 72,-174.39"/>
<polygon fill="#63b8ff" stroke="#63b8ff" points="68.5,-199.06 72,-209.06 75.5,-199.06 68.5,-199.06"/>
</a>
</g>
</g>
<!-- Node5 -->
<g id="Node000005" class="node">
<title>Node5</title>
<g id="a_Node000005"><a xlink:href="class_harlinn_1_1_windows_1_1_graphics_1_1_d3_d12_1_1_object.html" target="_top" xlink:title="A base class from which Device and DeviceChild inherit from. It provides methods to associate private...">
<polygon fill="white" stroke="#666666" points="140.5,-308 3.5,-308 3.5,-278 140.5,-278 140.5,-308"/>
<text text-anchor="start" x="11.5" y="-296" font-family="Helvetica,sans-Serif" font-size="10.00">Harlinn::Windows::Graphics</text>
<text text-anchor="middle" x="72" y="-285" font-family="Helvetica,sans-Serif" font-size="10.00">::D3D12::Object</text>
</a>
</g>
</g>
<!-- Node5&#45;&gt;Node4 -->
<g id="edge4_Node000004_Node000005" class="edge">
<title>Node5&#45;&gt;Node4</title>
<g id="a_edge4_Node000004_Node000005"><a xlink:title=" ">
<path fill="none" stroke="#63b8ff" d="M72,-266.28C72,-257.81 72,-248.7 72,-241.39"/>
<polygon fill="#63b8ff" stroke="#63b8ff" points="68.5,-266.06 72,-276.06 75.5,-266.06 68.5,-266.06"/>
</a>
</g>
</g>
<!-- Node6 -->
<g id="Node000006" class="node">
<title>Node6</title>
<g id="a_Node000006"><a xlink:href="class_harlinn_1_1_common_1_1_core_1_1_unknown.html" target="_top" xlink:title="Base class for COM interface wrappers.">
<polygon fill="white" stroke="#666666" points="131,-375 13,-375 13,-345 131,-345 131,-375"/>
<text text-anchor="start" x="21" y="-363" font-family="Helvetica,sans-Serif" font-size="10.00">Harlinn::Common::Core</text>
<text text-anchor="middle" x="72" y="-352" font-family="Helvetica,sans-Serif" font-size="10.00">::Unknown</text>
</a>
</g>
</g>
<!-- Node6&#45;&gt;Node5 -->
<g id="edge5_Node000005_Node000006" class="edge">
<title>Node6&#45;&gt;Node5</title>
<g id="a_edge5_Node000005_Node000006"><a xlink:title=" ">
<path fill="none" stroke="#63b8ff" d="M72,-333.28C72,-324.81 72,-315.7 72,-308.39"/>
<polygon fill="#63b8ff" stroke="#63b8ff" points="68.5,-333.06 72,-343.06 75.5,-333.06 68.5,-333.06"/>
</a>
</g>
</g>
</g>
</svg>
