<?xml version="1.0" encoding="UTF-8" standalone="no"?>
<!DOCTYPE svg PUBLIC "-//W3C//DTD SVG 1.1//EN"
 "http://www.w3.org/Graphics/SVG/1.1/DTD/svg11.dtd">
<!-- Generated by graphviz version 7.0.1 (20221109.1506)
 -->
<!-- Title: half_float::detail::bits&lt; T &gt; Pages: 1 -->
<svg width="249pt" height="134pt"
 viewBox="0.00 0.00 249.00 134.00" xmlns="http://www.w3.org/2000/svg" xmlns:xlink="http://www.w3.org/1999/xlink">
<g id="graph0" class="graph" transform="scale(1 1) rotate(0) translate(4 130)">
<title>half_float::detail::bits&lt; T &gt;</title>
<!-- Node1 -->
<g id="Node000001" class="node">
<title>Node1</title>
<g id="a_Node000001"><a xlink:title="Type traits for floating point bits.">
<polygon fill="#999999" stroke="#666666" points="84,-78 0,-78 0,-48 84,-48 84,-78"/>
<text text-anchor="start" x="8" y="-66" font-family="Helvetica,sans-Serif" font-size="10.00">half_float::detail</text>
<text text-anchor="middle" x="42" y="-55" font-family="Helvetica,sans-Serif" font-size="10.00">::bits&lt; T &gt;</text>
</a>
</g>
</g>
<!-- Node2 -->
<g id="Node000002" class="node">
<title>Node2</title>
<g id="a_Node000002"><a xlink:href="structhalf__float_1_1detail_1_1bits_3_01const_01_t_01_4.html" target="_top" xlink:title=" ">
<polygon fill="white" stroke="#666666" points="225,-126 136,-126 136,-96 225,-96 225,-126"/>
<text text-anchor="start" x="144" y="-114" font-family="Helvetica,sans-Serif" font-size="10.00">half_float::detail</text>
<text text-anchor="middle" x="180.5" y="-103" font-family="Helvetica,sans-Serif" font-size="10.00">::bits&lt; const T &gt;</text>
</a>
</g>
</g>
<!-- Node1&#45;&gt;Node2 -->
<g id="edge1_Node000001_Node000002" class="edge">
<title>Node1&#45;&gt;Node2</title>
<g id="a_edge1_Node000001_Node000002"><a xlink:title=" ">
<path fill="none" stroke="#63b8ff" d="M94.94,-81.26C108.46,-86.02 122.9,-91.1 135.95,-95.68"/>
<polygon fill="#63b8ff" stroke="#63b8ff" points="96.35,-78.05 85.75,-78.03 94.03,-84.65 96.35,-78.05"/>
</a>
</g>
</g>
<!-- Node3 -->
<g id="Node000003" class="node">
<title>Node3</title>
<g id="a_Node000003"><a xlink:href="structhalf__float_1_1detail_1_1bits_3_01const_01volatile_01_t_01_4.html" target="_top" xlink:title=" ">
<polygon fill="white" stroke="#666666" points="241,-78 120,-78 120,-48 241,-48 241,-78"/>
<text text-anchor="start" x="128" y="-66" font-family="Helvetica,sans-Serif" font-size="10.00">half_float::detail</text>
<text text-anchor="middle" x="180.5" y="-55" font-family="Helvetica,sans-Serif" font-size="10.00">::bits&lt; const volatile T &gt;</text>
</a>
</g>
</g>
<!-- Node1&#45;&gt;Node3 -->
<g id="edge2_Node000001_Node000003" class="edge">
<title>Node1&#45;&gt;Node3</title>
<g id="a_edge2_Node000001_Node000003"><a xlink:title=" ">
<path fill="none" stroke="#63b8ff" d="M95.61,-63C103.49,-63 111.67,-63 119.68,-63"/>
<polygon fill="#63b8ff" stroke="#63b8ff" points="95.84,-59.5 85.84,-63 95.84,-66.5 95.84,-59.5"/>
</a>
</g>
</g>
<!-- Node4 -->
<g id="Node000004" class="node">
<title>Node4</title>
<g id="a_Node000004"><a xlink:href="structhalf__float_1_1detail_1_1bits_3_01volatile_01_t_01_4.html" target="_top" xlink:title=" ">
<polygon fill="white" stroke="#666666" points="227.5,-30 133.5,-30 133.5,0 227.5,0 227.5,-30"/>
<text text-anchor="start" x="141.5" y="-18" font-family="Helvetica,sans-Serif" font-size="10.00">half_float::detail</text>
<text text-anchor="middle" x="180.5" y="-7" font-family="Helvetica,sans-Serif" font-size="10.00">::bits&lt; volatile T &gt;</text>
</a>
</g>
</g>
<!-- Node1&#45;&gt;Node4 -->
<g id="edge3_Node000001_Node000004" class="edge">
<title>Node1&#45;&gt;Node4</title>
<g id="a_edge3_Node000001_Node000004"><a xlink:title=" ">
<path fill="none" stroke="#63b8ff" d="M94.83,-44.77C108.23,-40.06 122.52,-35.04 135.47,-30.48"/>
<polygon fill="#63b8ff" stroke="#63b8ff" points="94.03,-41.35 85.75,-47.97 96.35,-47.95 94.03,-41.35"/>
</a>
</g>
</g>
</g>
</svg>
