<?xml version="1.0" encoding="UTF-8" standalone="no"?>
<!DOCTYPE svg PUBLIC "-//W3C//DTD SVG 1.1//EN"
 "http://www.w3.org/Graphics/SVG/1.1/DTD/svg11.dtd">
<!-- Generated by graphviz version 7.0.1 (20221109.1506)
 -->
<!-- Title: Harlinn::Common::Core::Types::Internal::BasicTypeTraits&lt; bool, RT &gt; Pages: 1 -->
<svg width="831pt" height="108pt"
 viewBox="0.00 0.00 831.00 108.00" xmlns="http://www.w3.org/2000/svg" xmlns:xlink="http://www.w3.org/1999/xlink">
<g id="graph0" class="graph" transform="scale(1 1) rotate(0) translate(4 104)">
<title>Harlinn::Common::Core::Types::Internal::BasicTypeTraits&lt; bool, RT &gt;</title>
<!-- Node1 -->
<g id="Node000001" class="node">
<title>Node1</title>
<g id="a_Node000001"><a xlink:title=" ">
<polygon fill="#999999" stroke="#666666" points="823,-70 685,-70 685,-29 823,-29 823,-70"/>
<text text-anchor="start" x="693" y="-58" font-family="Helvetica,sans-Serif" font-size="10.00">Harlinn::Common::Core</text>
<text text-anchor="start" x="693" y="-47" font-family="Helvetica,sans-Serif" font-size="10.00">::Types::Internal::BasicType</text>
<text text-anchor="middle" x="754" y="-36" font-family="Helvetica,sans-Serif" font-size="10.00">Traits&lt; bool, RT &gt;</text>
</a>
</g>
</g>
<!-- Node2 -->
<g id="Node000002" class="node">
<title>Node2</title>
<g id="a_Node000002"><a xlink:href="struct_harlinn_1_1_common_1_1_core_1_1_types_1_1_internal_1_1_basic_type_traits_base.html" target="_top" xlink:title=" ">
<polygon fill="white" stroke="#666666" points="648,-75.5 499,-75.5 499,-23.5 648,-23.5 648,-75.5"/>
<text text-anchor="start" x="507" y="-63.5" font-family="Helvetica,sans-Serif" font-size="10.00">Harlinn::Common::Core</text>
<text text-anchor="start" x="507" y="-52.5" font-family="Helvetica,sans-Serif" font-size="10.00">::Types::Internal::BasicType</text>
<text text-anchor="start" x="507" y="-41.5" font-family="Helvetica,sans-Serif" font-size="10.00">TraitsBase&lt; bool, BasicTypeId</text>
<text text-anchor="middle" x="573.5" y="-30.5" font-family="Helvetica,sans-Serif" font-size="10.00">::Boolean, RT &gt;</text>
</a>
</g>
</g>
<!-- Node2&#45;&gt;Node1 -->
<g id="edge1_Node000001_Node000002" class="edge">
<title>Node2&#45;&gt;Node1</title>
<g id="a_edge1_Node000001_Node000002"><a xlink:title=" ">
<path fill="none" stroke="#63b8ff" d="M659.72,-49.5C668.06,-49.5 676.45,-49.5 684.6,-49.5"/>
<polygon fill="#63b8ff" stroke="#63b8ff" points="659.9,-46 649.9,-49.5 659.9,-53 659.9,-46"/>
</a>
</g>
</g>
<!-- Node3 -->
<g id="Node000003" class="node">
<title>Node3</title>
<g id="a_Node000003"><a xlink:href="struct_harlinn_1_1_common_1_1_core_1_1_types_1_1_internal_1_1_type_traits_base.html" target="_top" xlink:title=" ">
<polygon fill="white" stroke="#666666" points="370.5,-100 233.5,-100 233.5,-59 370.5,-59 370.5,-100"/>
<text text-anchor="start" x="241.5" y="-88" font-family="Helvetica,sans-Serif" font-size="10.00">Harlinn::Common::Core</text>
<text text-anchor="start" x="241.5" y="-77" font-family="Helvetica,sans-Serif" font-size="10.00">::Types::Internal::TypeTraits</text>
<text text-anchor="middle" x="302" y="-66" font-family="Helvetica,sans-Serif" font-size="10.00">Base&lt; bool, RT &gt;</text>
</a>
</g>
</g>
<!-- Node3&#45;&gt;Node2 -->
<g id="edge2_Node000002_Node000003" class="edge">
<title>Node3&#45;&gt;Node2</title>
<g id="a_edge2_Node000002_Node000003"><a xlink:title=" ">
<path fill="none" stroke="#63b8ff" d="M381.87,-70.72C418.75,-66.61 462.42,-61.75 498.65,-57.72"/>
<polygon fill="#63b8ff" stroke="#63b8ff" points="381.71,-67.22 372.16,-71.8 382.49,-74.17 381.71,-67.22"/>
</a>
</g>
</g>
<!-- Node4 -->
<g id="Node000004" class="node">
<title>Node4</title>
<g id="a_Node000004"><a xlink:href="struct_harlinn_1_1_common_1_1_core_1_1_types_1_1_internal_1_1_type_traits_base.html" target="_top" xlink:title=" ">
<polygon fill="white" stroke="#666666" points="137,-100 0,-100 0,-59 137,-59 137,-100"/>
<text text-anchor="start" x="8" y="-88" font-family="Helvetica,sans-Serif" font-size="10.00">Harlinn::Common::Core</text>
<text text-anchor="start" x="8" y="-77" font-family="Helvetica,sans-Serif" font-size="10.00">::Types::Internal::TypeTraits</text>
<text text-anchor="middle" x="68.5" y="-66" font-family="Helvetica,sans-Serif" font-size="10.00">Base&lt; T, RT &gt;</text>
</a>
</g>
</g>
<!-- Node4&#45;&gt;Node3 -->
<g id="edge3_Node000003_Node000004" class="edge">
<title>Node4&#45;&gt;Node3</title>
<g id="a_edge3_Node000003_Node000004"><a xlink:title=" ">
<path fill="none" stroke="orange" stroke-dasharray="5,2" d="M148.56,-79.5C176.04,-79.5 206.61,-79.5 233.11,-79.5"/>
<polygon fill="orange" stroke="orange" points="148.91,-76 138.91,-79.5 148.91,-83 148.91,-76"/>
</a>
</g>
<text text-anchor="middle" x="184" y="-82.5" font-family="Helvetica,sans-Serif" font-size="10.00" fill="grey"> &lt; bool, RT &gt;</text>
</g>
<!-- Node5 -->
<g id="Node000005" class="node">
<title>Node5</title>
<g id="a_Node000005"><a xlink:href="struct_harlinn_1_1_common_1_1_core_1_1_types_1_1_internal_1_1_basic_type_traits_base.html" target="_top" xlink:title=" ">
<polygon fill="white" stroke="#666666" points="373,-41 231,-41 231,0 373,0 373,-41"/>
<text text-anchor="start" x="239" y="-29" font-family="Helvetica,sans-Serif" font-size="10.00">Harlinn::Common::Core</text>
<text text-anchor="start" x="239" y="-18" font-family="Helvetica,sans-Serif" font-size="10.00">::Types::Internal::BasicType</text>
<text text-anchor="middle" x="302" y="-7" font-family="Helvetica,sans-Serif" font-size="10.00">TraitsBase&lt; T, typeId_, RT &gt;</text>
</a>
</g>
</g>
<!-- Node5&#45;&gt;Node2 -->
<g id="edge4_Node000002_Node000005" class="edge">
<title>Node5&#45;&gt;Node2</title>
<g id="a_edge4_Node000002_Node000005"><a xlink:title=" ">
<path fill="none" stroke="orange" stroke-dasharray="5,2" d="M384.61,-27.69C414.91,-30.51 449.55,-33.94 481,-37.5 486.73,-38.15 492.66,-38.85 498.62,-39.58"/>
<polygon fill="orange" stroke="orange" points="385.02,-24.21 374.74,-26.77 384.37,-31.18 385.02,-24.21"/>
</a>
</g>
<text text-anchor="start" x="391" y="-51.5" font-family="Helvetica,sans-Serif" font-size="10.00" fill="grey"> &lt; bool, BasicTypeId</text>
<text text-anchor="middle" x="436" y="-40.5" font-family="Helvetica,sans-Serif" font-size="10.00" fill="grey">::Boolean, RT &gt;</text>
</g>
<!-- Node6 -->
<g id="Node000006" class="node">
<title>Node6</title>
<g id="a_Node000006"><a xlink:href="struct_harlinn_1_1_common_1_1_core_1_1_types_1_1_internal_1_1_type_traits_base.html" target="_top" xlink:title=" ">
<polygon fill="white" stroke="#666666" points="137,-41 0,-41 0,0 137,0 137,-41"/>
<text text-anchor="start" x="8" y="-29" font-family="Helvetica,sans-Serif" font-size="10.00">Harlinn::Common::Core</text>
<text text-anchor="start" x="8" y="-18" font-family="Helvetica,sans-Serif" font-size="10.00">::Types::Internal::TypeTraits</text>
<text text-anchor="middle" x="68.5" y="-7" font-family="Helvetica,sans-Serif" font-size="10.00">Base&lt; T, RT &gt;</text>
</a>
</g>
</g>
<!-- Node6&#45;&gt;Node5 -->
<g id="edge5_Node000005_Node000006" class="edge">
<title>Node6&#45;&gt;Node5</title>
<g id="a_edge5_Node000005_Node000006"><a xlink:title=" ">
<path fill="none" stroke="#63b8ff" d="M148.61,-20.5C175.25,-20.5 204.78,-20.5 230.7,-20.5"/>
<polygon fill="#63b8ff" stroke="#63b8ff" points="148.91,-17 138.91,-20.5 148.91,-24 148.91,-17"/>
</a>
</g>
</g>
</g>
</svg>
