<?xml version="1.0" encoding="UTF-8" standalone="no"?>
<!DOCTYPE svg PUBLIC "-//W3C//DTD SVG 1.1//EN"
 "http://www.w3.org/Graphics/SVG/1.1/DTD/svg11.dtd">
<!-- Generated by graphviz version 7.0.1 (20221109.1506)
 -->
<!-- Title: Harlinn::Common::Core::VariantTypeTraits&lt; WideString &gt; Pages: 1 -->
<svg width="684pt" height="80pt"
 viewBox="0.00 0.00 684.00 79.50" xmlns="http://www.w3.org/2000/svg" xmlns:xlink="http://www.w3.org/1999/xlink">
<g id="graph0" class="graph" transform="scale(1 1) rotate(0) translate(4 75.5)">
<title>Harlinn::Common::Core::VariantTypeTraits&lt; WideString &gt;</title>
<!-- Node1 -->
<g id="Node000001" class="node">
<title>Node1</title>
<g id="a_Node000001"><a xlink:title=" ">
<polygon fill="#999999" stroke="#666666" points="676,-66 558,-66 558,-25 676,-25 676,-66"/>
<text text-anchor="start" x="566" y="-54" font-family="Helvetica,sans-Serif" font-size="10.00">Harlinn::Common::Core</text>
<text text-anchor="start" x="566" y="-43" font-family="Helvetica,sans-Serif" font-size="10.00">::VariantTypeTraits&lt;</text>
<text text-anchor="middle" x="617" y="-32" font-family="Helvetica,sans-Serif" font-size="10.00"> WideString &gt;</text>
</a>
</g>
</g>
<!-- Node2 -->
<g id="Node000002" class="node">
<title>Node2</title>
<g id="a_Node000002"><a xlink:href="struct_harlinn_1_1_common_1_1_core_1_1_internal_1_1_variant_type_traits.xhtml" target="_top" xlink:title=" ">
<polygon fill="white" stroke="#666666" points="521,-71.5 385,-71.5 385,-19.5 521,-19.5 521,-71.5"/>
<text text-anchor="start" x="393" y="-59.5" font-family="Helvetica,sans-Serif" font-size="10.00">Harlinn::Common::Core</text>
<text text-anchor="start" x="393" y="-48.5" font-family="Helvetica,sans-Serif" font-size="10.00">::Internal::VariantTypeTraits</text>
<text text-anchor="start" x="393" y="-37.5" font-family="Helvetica,sans-Serif" font-size="10.00">&lt; Core::VariantType::BStr,</text>
<text text-anchor="middle" x="453" y="-26.5" font-family="Helvetica,sans-Serif" font-size="10.00"> WideString, BSTR &gt;</text>
</a>
</g>
</g>
<!-- Node2&#45;&gt;Node1 -->
<g id="edge1_Node000001_Node000002" class="edge">
<title>Node2&#45;&gt;Node1</title>
<g id="a_edge1_Node000001_Node000002"><a xlink:title=" ">
<path fill="none" stroke="#63b8ff" d="M532.71,-45.5C541.12,-45.5 549.57,-45.5 557.69,-45.5"/>
<polygon fill="#63b8ff" stroke="#63b8ff" points="532.81,-42 522.81,-45.5 532.81,-49 532.81,-42"/>
</a>
</g>
</g>
<!-- Node3 -->
<g id="Node000003" class="node">
<title>Node3</title>
<g id="a_Node000003"><a xlink:title=" ">
<polygon fill="white" stroke="#666666" points="77,-54 0,-54 0,-35 77,-35 77,-54"/>
<text text-anchor="middle" x="38.5" y="-42" font-family="Helvetica,sans-Serif" font-size="10.00">std::true_type</text>
</a>
</g>
</g>
<!-- Node3&#45;&gt;Node2 -->
<g id="edge2_Node000002_Node000003" class="edge">
<title>Node3&#45;&gt;Node2</title>
<g id="a_edge2_Node000002_Node000003"><a xlink:title=" ">
<path fill="none" stroke="#63b8ff" d="M88.76,-49.03C90.87,-49.2 92.95,-49.35 95,-49.5 103.43,-50.1 105.55,-50.15 114,-50.5 226.37,-55.19 254.73,-62.08 367,-55.5 372.78,-55.16 378.78,-54.69 384.79,-54.14"/>
<polygon fill="#63b8ff" stroke="#63b8ff" points="89.16,-45.56 78.91,-48.23 88.59,-52.53 89.16,-45.56"/>
</a>
</g>
</g>
<!-- Node4 -->
<g id="Node000004" class="node">
<title>Node4</title>
<g id="a_Node000004"><a xlink:href="struct_harlinn_1_1_common_1_1_core_1_1_internal_1_1_variant_type_traits.xhtml" target="_top" xlink:title=" ">
<polygon fill="white" stroke="#666666" points="258,-41 114,-41 114,0 258,0 258,-41"/>
<text text-anchor="start" x="122" y="-29" font-family="Helvetica,sans-Serif" font-size="10.00">Harlinn::Common::Core</text>
<text text-anchor="start" x="122" y="-18" font-family="Helvetica,sans-Serif" font-size="10.00">::Internal::VariantTypeTraits</text>
<text text-anchor="middle" x="186" y="-7" font-family="Helvetica,sans-Serif" font-size="10.00">&lt; vt, ValueT, VariantValueT &gt;</text>
</a>
</g>
</g>
<!-- Node3&#45;&gt;Node4 -->
<g id="edge4_Node000004_Node000003" class="edge">
<title>Node3&#45;&gt;Node4</title>
<g id="a_edge4_Node000004_Node000003"><a xlink:title=" ">
<path fill="none" stroke="#63b8ff" d="M88.51,-36.42C96.64,-35.07 105.22,-33.66 113.78,-32.25"/>
<polygon fill="#63b8ff" stroke="#63b8ff" points="88.14,-32.93 78.84,-38.01 89.28,-39.84 88.14,-32.93"/>
</a>
</g>
</g>
<!-- Node4&#45;&gt;Node2 -->
<g id="edge3_Node000002_Node000004" class="edge">
<title>Node4&#45;&gt;Node2</title>
<g id="a_edge3_Node000002_Node000004"><a xlink:title=" ">
<path fill="none" stroke="orange" stroke-dasharray="5,2" d="M269.39,-17.05C300.15,-16.91 335.29,-18.11 367,-22.5 372.75,-23.3 378.67,-24.36 384.58,-25.6"/>
<polygon fill="orange" stroke="orange" points="269.74,-13.55 259.78,-17.15 269.81,-20.55 269.74,-13.55"/>
</a>
</g>
<text text-anchor="start" x="276" y="-47.5" font-family="Helvetica,sans-Serif" font-size="10.00" fill="grey"> &lt; Core::VariantType</text>
<text text-anchor="start" x="276" y="-36.5" font-family="Helvetica,sans-Serif" font-size="10.00" fill="grey">::BStr, WideString,</text>
<text text-anchor="middle" x="321.5" y="-25.5" font-family="Helvetica,sans-Serif" font-size="10.00" fill="grey"> BSTR &gt;</text>
</g>
</g>
</svg>
