<?xml version="1.0" encoding="UTF-8" standalone="no"?>
<!DOCTYPE svg PUBLIC "-//W3C//DTD SVG 1.1//EN"
 "http://www.w3.org/Graphics/SVG/1.1/DTD/svg11.dtd">
<!-- Generated by graphviz version 7.0.1 (20221109.1506)
 -->
<!-- Title: Harlinn::Windows::Graphics::D3D12::VersionedDeviceRemovedExtendedData Pages: 1 -->
<svg width="1533pt" height="304pt"
 viewBox="0.00 0.00 1533.00 304.00" xmlns="http://www.w3.org/2000/svg" xmlns:xlink="http://www.w3.org/1999/xlink">
<g id="graph0" class="graph" transform="scale(1 1) rotate(0) translate(4 300)">
<title>Harlinn::Windows::Graphics::D3D12::VersionedDeviceRemovedExtendedData</title>
<!-- Node1 -->
<g id="Node000001" class="node">
<title>Node1</title>
<g id="a_Node000001"><a xlink:title=" ">
<polygon fill="#999999" stroke="#666666" points="1525,-172.5 1355,-172.5 1355,-131.5 1525,-131.5 1525,-172.5"/>
<text text-anchor="start" x="1363" y="-160.5" font-family="Helvetica,sans-Serif" font-size="10.00">Harlinn::Windows::Graphics</text>
<text text-anchor="start" x="1363" y="-149.5" font-family="Helvetica,sans-Serif" font-size="10.00">::D3D12::VersionedDeviceRemoved</text>
<text text-anchor="middle" x="1440" y="-138.5" font-family="Helvetica,sans-Serif" font-size="10.00">ExtendedData</text>
</a>
</g>
</g>
<!-- Node2 -->
<g id="Node000002" class="node">
<title>Node2</title>
<g id="a_Node000002"><a xlink:href="struct_harlinn_1_1_windows_1_1_graphics_1_1_d3_d12_1_1_device_removed_extended_data__.html" target="_top" xlink:title=" ">
<polygon fill="white" stroke="#666666" points="1058,-251 865,-251 865,-221 1058,-221 1058,-251"/>
<text text-anchor="start" x="873" y="-239" font-family="Helvetica,sans-Serif" font-size="10.00">Harlinn::Windows::Graphics</text>
<text text-anchor="middle" x="961.5" y="-228" font-family="Helvetica,sans-Serif" font-size="10.00">::D3D12::DeviceRemovedExtendedData_</text>
</a>
</g>
</g>
<!-- Node2&#45;&gt;Node1 -->
<g id="edge1_Node000001_Node000002" class="edge">
<title>Node2&#45;&gt;Node1</title>
<g id="a_edge1_Node000001_Node000002"><a xlink:title=" ">
<path fill="none" stroke="#9a32cd" stroke-dasharray="5,2" d="M1069.8,-229.8C1130.22,-225.02 1206.82,-216.81 1274,-203 1310.12,-195.58 1349.63,-183.51 1380.92,-172.98"/>
<polygon fill="#9a32cd" stroke="#9a32cd" points="1069.54,-226.31 1059.83,-230.56 1070.07,-233.29 1069.54,-226.31"/>
</a>
</g>
<text text-anchor="middle" x="1175" y="-232" font-family="Helvetica,sans-Serif" font-size="10.00" fill="grey"> Dred_1_0</text>
</g>
<!-- Node3 -->
<g id="Node000003" class="node">
<title>Node3</title>
<g id="a_Node000003"><a xlink:href="struct_harlinn_1_1_windows_1_1_graphics_1_1_d3_d12_1_1_auto_breadcrumb_node.html" target="_top" xlink:title=" ">
<polygon fill="white" stroke="#666666" points="462.5,-267 309.5,-267 309.5,-237 462.5,-237 462.5,-267"/>
<text text-anchor="start" x="317.5" y="-255" font-family="Helvetica,sans-Serif" font-size="10.00">Harlinn::Windows::Graphics</text>
<text text-anchor="middle" x="386" y="-244" font-family="Helvetica,sans-Serif" font-size="10.00">::D3D12::AutoBreadcrumbNode</text>
</a>
</g>
</g>
<!-- Node3&#45;&gt;Node2 -->
<g id="edge2_Node000002_Node000003" class="edge">
<title>Node3&#45;&gt;Node2</title>
<g id="a_edge2_Node000002_Node000003"><a xlink:title=" ">
<path fill="none" stroke="#9a32cd" stroke-dasharray="5,2" d="M474.07,-249.57C579.32,-246.63 755.82,-241.71 864.79,-238.67"/>
<polygon fill="#9a32cd" stroke="#9a32cd" points="474.27,-246.06 464.37,-249.84 474.47,-253.06 474.27,-246.06"/>
</a>
</g>
<text text-anchor="middle" x="557.5" y="-252" font-family="Helvetica,sans-Serif" font-size="10.00" fill="grey"> pHeadAutoBreadcrumbNode</text>
</g>
<!-- Node3&#45;&gt;Node3 -->
<g id="edge3_Node000003_Node000003" class="edge">
<title>Node3&#45;&gt;Node3</title>
<g id="a_edge3_Node000003_Node000003"><a xlink:title=" ">
<path fill="none" stroke="#9a32cd" stroke-dasharray="5,2" d="M361.2,-278.61C365.17,-282.43 373.44,-285 386,-285 408.97,-285 417.58,-276.41 411.84,-267.28"/>
<polygon fill="#9a32cd" stroke="#9a32cd" points="364.69,-278.42 360.3,-268.78 357.72,-279.06 364.69,-278.42"/>
</a>
</g>
<text text-anchor="middle" x="386" y="-288" font-family="Helvetica,sans-Serif" font-size="10.00" fill="grey"> pNext</text>
</g>
<!-- Node5 -->
<g id="Node000005" class="node">
<title>Node5</title>
<g id="a_Node000005"><a xlink:href="struct_harlinn_1_1_windows_1_1_graphics_1_1_d3_d12_1_1_d_r_e_d_auto_breadcrumbs_output.html" target="_top" xlink:title=" ">
<polygon fill="white" stroke="#666666" points="844.5,-226 652.5,-226 652.5,-196 844.5,-196 844.5,-226"/>
<text text-anchor="start" x="660.5" y="-214" font-family="Helvetica,sans-Serif" font-size="10.00">Harlinn::Windows::Graphics</text>
<text text-anchor="middle" x="748.5" y="-203" font-family="Helvetica,sans-Serif" font-size="10.00">::D3D12::DREDAutoBreadcrumbsOutput</text>
</a>
</g>
</g>
<!-- Node3&#45;&gt;Node5 -->
<g id="edge6_Node000005_Node000003" class="edge">
<title>Node3&#45;&gt;Node5</title>
<g id="a_edge6_Node000005_Node000003"><a xlink:title=" ">
<path fill="none" stroke="#9a32cd" stroke-dasharray="5,2" d="M446.02,-233.16C452.43,-231.09 458.85,-229.01 465,-227 473.02,-224.38 474.7,-222.51 483,-221 538.5,-210.91 601.59,-208.2 652.23,-208.11"/>
<polygon fill="#9a32cd" stroke="#9a32cd" points="445.18,-229.76 436.73,-236.15 447.33,-236.42 445.18,-229.76"/>
</a>
</g>
<text text-anchor="middle" x="557.5" y="-224" font-family="Helvetica,sans-Serif" font-size="10.00" fill="grey"> pHeadAutoBreadcrumbNode</text>
</g>
<!-- Node4 -->
<g id="Node000004" class="node">
<title>Node4</title>
<g id="a_Node000004"><a xlink:href="struct_harlinn_1_1_windows_1_1_graphics_1_1_d3_d12_1_1_device_removed_extended_data1__.html" target="_top" xlink:title=" ">
<polygon fill="white" stroke="#666666" points="1274,-194 1076,-194 1076,-164 1274,-164 1274,-194"/>
<text text-anchor="start" x="1084" y="-182" font-family="Helvetica,sans-Serif" font-size="10.00">Harlinn::Windows::Graphics</text>
<text text-anchor="middle" x="1175" y="-171" font-family="Helvetica,sans-Serif" font-size="10.00">::D3D12::DeviceRemovedExtendedData1_</text>
</a>
</g>
</g>
<!-- Node4&#45;&gt;Node1 -->
<g id="edge4_Node000001_Node000004" class="edge">
<title>Node4&#45;&gt;Node1</title>
<g id="a_edge4_Node000001_Node000004"><a xlink:title=" ">
<path fill="none" stroke="#9a32cd" stroke-dasharray="5,2" d="M1285.55,-167.75C1308.62,-165.38 1332.63,-162.92 1354.61,-160.66"/>
<polygon fill="#9a32cd" stroke="#9a32cd" points="1285.4,-164.25 1275.81,-168.75 1286.12,-171.21 1285.4,-164.25"/>
</a>
</g>
<text text-anchor="middle" x="1314.5" y="-169" font-family="Helvetica,sans-Serif" font-size="10.00" fill="grey"> Dred_1_1</text>
</g>
<!-- Node5&#45;&gt;Node4 -->
<g id="edge5_Node000004_Node000005" class="edge">
<title>Node5&#45;&gt;Node4</title>
<g id="a_edge5_Node000004_Node000005"><a xlink:title=" ">
<path fill="none" stroke="#9a32cd" stroke-dasharray="5,2" d="M855.84,-202.98C923.29,-197.9 1009.91,-191.37 1075.74,-186.41"/>
<polygon fill="#9a32cd" stroke="#9a32cd" points="855.98,-199.46 846.28,-203.7 856.51,-206.44 855.98,-199.46"/>
</a>
</g>
<text text-anchor="middle" x="961.5" y="-204" font-family="Helvetica,sans-Serif" font-size="10.00" fill="grey"> AutoBreadcrumbsOutput</text>
</g>
<!-- Node6 -->
<g id="Node000006" class="node">
<title>Node6</title>
<g id="a_Node000006"><a xlink:href="struct_harlinn_1_1_windows_1_1_graphics_1_1_d3_d12_1_1_d_r_e_d_page_fault_output.html" target="_top" xlink:title=" ">
<polygon fill="white" stroke="#666666" points="827.5,-178 669.5,-178 669.5,-148 827.5,-148 827.5,-178"/>
<text text-anchor="start" x="677.5" y="-166" font-family="Helvetica,sans-Serif" font-size="10.00">Harlinn::Windows::Graphics</text>
<text text-anchor="middle" x="748.5" y="-155" font-family="Helvetica,sans-Serif" font-size="10.00">::D3D12::DREDPageFaultOutput</text>
</a>
</g>
</g>
<!-- Node6&#45;&gt;Node4 -->
<g id="edge7_Node000004_Node000006" class="edge">
<title>Node6&#45;&gt;Node4</title>
<g id="a_edge7_Node000004_Node000006"><a xlink:title=" ">
<path fill="none" stroke="#9a32cd" stroke-dasharray="5,2" d="M839.07,-164.31C900.66,-165.46 984.32,-167.51 1058,-171 1063.75,-171.27 1069.65,-171.58 1075.61,-171.92"/>
<polygon fill="#9a32cd" stroke="#9a32cd" points="839.4,-160.81 829.34,-164.13 839.28,-167.81 839.4,-160.81"/>
</a>
</g>
<text text-anchor="middle" x="961.5" y="-174" font-family="Helvetica,sans-Serif" font-size="10.00" fill="grey"> PageFaultOutput</text>
</g>
<!-- Node7 -->
<g id="Node000007" class="node">
<title>Node7</title>
<g id="a_Node000007"><a xlink:href="struct_harlinn_1_1_windows_1_1_graphics_1_1_d3_d12_1_1_d_r_e_d_allocation_node.html" target="_top" xlink:title=" ">
<polygon fill="white" stroke="#666666" points="461,-189 311,-189 311,-159 461,-159 461,-189"/>
<text text-anchor="start" x="319" y="-177" font-family="Helvetica,sans-Serif" font-size="10.00">Harlinn::Windows::Graphics</text>
<text text-anchor="middle" x="386" y="-166" font-family="Helvetica,sans-Serif" font-size="10.00">::D3D12::DREDAllocationNode</text>
</a>
</g>
</g>
<!-- Node7&#45;&gt;Node6 -->
<g id="edge8_Node000006_Node000007" class="edge">
<title>Node7&#45;&gt;Node6</title>
<g id="a_edge8_Node000006_Node000007"><a xlink:title=" ">
<path fill="none" stroke="#9a32cd" stroke-dasharray="5,2" d="M472.55,-171.39C532.24,-169.57 611.27,-167.16 669.28,-165.39"/>
<polygon fill="#9a32cd" stroke="#9a32cd" points="472.66,-167.88 462.77,-171.69 472.87,-174.88 472.66,-167.88"/>
</a>
</g>
<text text-anchor="middle" x="557.5" y="-185" font-family="Helvetica,sans-Serif" font-size="10.00" fill="grey"> pHeadExistingAllocationNode</text>
<text text-anchor="middle" x="557.5" y="-174" font-family="Helvetica,sans-Serif" font-size="10.00" fill="grey">pHeadRecentFreedAllocationNode</text>
</g>
<!-- Node7&#45;&gt;Node7 -->
<g id="edge9_Node000007_Node000007" class="edge">
<title>Node7&#45;&gt;Node7</title>
<g id="a_edge9_Node000007_Node000007"><a xlink:title=" ">
<path fill="none" stroke="#9a32cd" stroke-dasharray="5,2" d="M361.2,-200.61C365.17,-204.43 373.44,-207 386,-207 408.97,-207 417.58,-198.41 411.84,-189.28"/>
<polygon fill="#9a32cd" stroke="#9a32cd" points="364.69,-200.42 360.3,-190.78 357.72,-201.06 364.69,-200.42"/>
</a>
</g>
<text text-anchor="middle" x="386" y="-210" font-family="Helvetica,sans-Serif" font-size="10.00" fill="grey"> pNext</text>
</g>
<!-- Node8 -->
<g id="Node000008" class="node">
<title>Node8</title>
<g id="a_Node000008"><a xlink:href="struct_harlinn_1_1_windows_1_1_graphics_1_1_d3_d12_1_1_device_removed_extended_data2__.html" target="_top" xlink:title=" ">
<polygon fill="white" stroke="#666666" points="1274,-146 1076,-146 1076,-116 1274,-116 1274,-146"/>
<text text-anchor="start" x="1084" y="-134" font-family="Helvetica,sans-Serif" font-size="10.00">Harlinn::Windows::Graphics</text>
<text text-anchor="middle" x="1175" y="-123" font-family="Helvetica,sans-Serif" font-size="10.00">::D3D12::DeviceRemovedExtendedData2_</text>
</a>
</g>
</g>
<!-- Node8&#45;&gt;Node1 -->
<g id="edge10_Node000001_Node000008" class="edge">
<title>Node8&#45;&gt;Node1</title>
<g id="a_edge10_Node000001_Node000008"><a xlink:title=" ">
<path fill="none" stroke="#9a32cd" stroke-dasharray="5,2" d="M1285.66,-135.31C1302.86,-136.32 1320.42,-137.53 1337,-139 1342.78,-139.51 1348.73,-140.1 1354.73,-140.74"/>
<polygon fill="#9a32cd" stroke="#9a32cd" points="1286.11,-131.83 1275.93,-134.77 1285.72,-138.82 1286.11,-131.83"/>
</a>
</g>
<text text-anchor="middle" x="1314.5" y="-142" font-family="Helvetica,sans-Serif" font-size="10.00" fill="grey"> Dred_1_2</text>
</g>
<!-- Node9 -->
<g id="Node000009" class="node">
<title>Node9</title>
<g id="a_Node000009"><a xlink:href="struct_harlinn_1_1_windows_1_1_graphics_1_1_d3_d12_1_1_d_r_e_d_auto_breadcrumbs_output1.html" target="_top" xlink:title=" ">
<polygon fill="white" stroke="#666666" points="847,-126 650,-126 650,-96 847,-96 847,-126"/>
<text text-anchor="start" x="658" y="-114" font-family="Helvetica,sans-Serif" font-size="10.00">Harlinn::Windows::Graphics</text>
<text text-anchor="middle" x="748.5" y="-103" font-family="Helvetica,sans-Serif" font-size="10.00">::D3D12::DREDAutoBreadcrumbsOutput1</text>
</a>
</g>
</g>
<!-- Node9&#45;&gt;Node8 -->
<g id="edge11_Node000008_Node000009" class="edge">
<title>Node9&#45;&gt;Node8</title>
<g id="a_edge11_Node000008_Node000009"><a xlink:title=" ">
<path fill="none" stroke="#9a32cd" stroke-dasharray="5,2" d="M858.87,-116.15C925.89,-119.31 1010.98,-123.32 1075.84,-126.38"/>
<polygon fill="#9a32cd" stroke="#9a32cd" points="859.09,-112.66 848.93,-115.68 858.76,-119.65 859.09,-112.66"/>
</a>
</g>
<text text-anchor="middle" x="961.5" y="-128" font-family="Helvetica,sans-Serif" font-size="10.00" fill="grey"> AutoBreadcrumbsOutput</text>
</g>
<!-- Node14 -->
<g id="Node000014" class="node">
<title>Node14</title>
<g id="a_Node000014"><a xlink:href="struct_harlinn_1_1_windows_1_1_graphics_1_1_d3_d12_1_1_device_removed_extended_data3__.html" target="_top" xlink:title=" ">
<polygon fill="white" stroke="#666666" points="1274,-98 1076,-98 1076,-68 1274,-68 1274,-98"/>
<text text-anchor="start" x="1084" y="-86" font-family="Helvetica,sans-Serif" font-size="10.00">Harlinn::Windows::Graphics</text>
<text text-anchor="middle" x="1175" y="-75" font-family="Helvetica,sans-Serif" font-size="10.00">::D3D12::DeviceRemovedExtendedData3_</text>
</a>
</g>
</g>
<!-- Node9&#45;&gt;Node14 -->
<g id="edge19_Node000014_Node000009" class="edge">
<title>Node9&#45;&gt;Node14</title>
<g id="a_edge19_Node000014_Node000009"><a xlink:title=" ">
<path fill="none" stroke="#9a32cd" stroke-dasharray="5,2" d="M858.78,-101.46C860.87,-101.3 862.94,-101.15 865,-101 935.48,-95.9 1015.08,-91.29 1075.84,-88.01"/>
<polygon fill="#9a32cd" stroke="#9a32cd" points="858.68,-97.96 848.98,-102.21 859.22,-104.93 858.68,-97.96"/>
</a>
</g>
<text text-anchor="middle" x="961.5" y="-104" font-family="Helvetica,sans-Serif" font-size="10.00" fill="grey"> AutoBreadcrumbsOutput</text>
</g>
<!-- Node10 -->
<g id="Node000010" class="node">
<title>Node10</title>
<g id="a_Node000010"><a xlink:href="struct_harlinn_1_1_windows_1_1_graphics_1_1_d3_d12_1_1_auto_breadcrumb_node1.html" target="_top" xlink:title=" ">
<polygon fill="white" stroke="#666666" points="465,-112 307,-112 307,-82 465,-82 465,-112"/>
<text text-anchor="start" x="315" y="-100" font-family="Helvetica,sans-Serif" font-size="10.00">Harlinn::Windows::Graphics</text>
<text text-anchor="middle" x="386" y="-89" font-family="Helvetica,sans-Serif" font-size="10.00">::D3D12::AutoBreadcrumbNode1</text>
</a>
</g>
</g>
<!-- Node10&#45;&gt;Node9 -->
<g id="edge12_Node000009_Node000010" class="edge">
<title>Node10&#45;&gt;Node9</title>
<g id="a_edge12_Node000009_Node000010"><a xlink:title=" ">
<path fill="none" stroke="#9a32cd" stroke-dasharray="5,2" d="M476.57,-100.48C529.22,-102.52 595.81,-105.11 649.8,-107.21"/>
<polygon fill="#9a32cd" stroke="#9a32cd" points="476.86,-96.99 466.74,-100.1 476.59,-103.98 476.86,-96.99"/>
</a>
</g>
<text text-anchor="middle" x="557.5" y="-109" font-family="Helvetica,sans-Serif" font-size="10.00" fill="grey"> pHeadAutoBreadcrumbNode</text>
</g>
<!-- Node10&#45;&gt;Node10 -->
<g id="edge13_Node000010_Node000010" class="edge">
<title>Node10&#45;&gt;Node10</title>
<g id="a_edge13_Node000010_Node000010"><a xlink:title=" ">
<path fill="none" stroke="#9a32cd" stroke-dasharray="5,2" d="M361.2,-123.61C365.17,-127.43 373.44,-130 386,-130 408.97,-130 417.58,-121.41 411.84,-112.28"/>
<polygon fill="#9a32cd" stroke="#9a32cd" points="364.69,-123.42 360.3,-113.78 357.72,-124.06 364.69,-123.42"/>
</a>
</g>
<text text-anchor="middle" x="386" y="-133" font-family="Helvetica,sans-Serif" font-size="10.00" fill="grey"> pNext</text>
</g>
<!-- Node11 -->
<g id="Node000011" class="node">
<title>Node11</title>
<g id="a_Node000011"><a xlink:href="struct_harlinn_1_1_windows_1_1_graphics_1_1_d3_d12_1_1_d_r_e_d_breadcrumb_context.html" target="_top" xlink:title=" ">
<polygon fill="white" stroke="#666666" points="171,-112 0,-112 0,-82 171,-82 171,-112"/>
<text text-anchor="start" x="8" y="-100" font-family="Helvetica,sans-Serif" font-size="10.00">Harlinn::Windows::Graphics</text>
<text text-anchor="middle" x="85.5" y="-89" font-family="Helvetica,sans-Serif" font-size="10.00">::D3D12::DREDBreadcrumbContext</text>
</a>
</g>
</g>
<!-- Node11&#45;&gt;Node10 -->
<g id="edge14_Node000010_Node000011" class="edge">
<title>Node11&#45;&gt;Node10</title>
<g id="a_edge14_Node000010_Node000011"><a xlink:title=" ">
<path fill="none" stroke="#9a32cd" stroke-dasharray="5,2" d="M182.65,-97C222.75,-97 268.72,-97 306.7,-97"/>
<polygon fill="#9a32cd" stroke="#9a32cd" points="182.75,-93.5 172.75,-97 182.75,-100.5 182.75,-93.5"/>
</a>
</g>
<text text-anchor="middle" x="239" y="-100" font-family="Helvetica,sans-Serif" font-size="10.00" fill="grey"> pBreadcrumbContexts</text>
</g>
<!-- Node12 -->
<g id="Node000012" class="node">
<title>Node12</title>
<g id="a_Node000012"><a xlink:href="struct_harlinn_1_1_windows_1_1_graphics_1_1_d3_d12_1_1_d_r_e_d_page_fault_output1.html" target="_top" xlink:title=" ">
<polygon fill="white" stroke="#666666" points="830.5,-78 666.5,-78 666.5,-48 830.5,-48 830.5,-78"/>
<text text-anchor="start" x="674.5" y="-66" font-family="Helvetica,sans-Serif" font-size="10.00">Harlinn::Windows::Graphics</text>
<text text-anchor="middle" x="748.5" y="-55" font-family="Helvetica,sans-Serif" font-size="10.00">::D3D12::DREDPageFaultOutput1</text>
</a>
</g>
</g>
<!-- Node12&#45;&gt;Node8 -->
<g id="edge15_Node000008_Node000012" class="edge">
<title>Node12&#45;&gt;Node8</title>
<g id="a_edge15_Node000008_Node000012"><a xlink:title=" ">
<path fill="none" stroke="#9a32cd" stroke-dasharray="5,2" d="M827.24,-45.66C893.59,-35.3 988.94,-31.32 1058,-74 1072.21,-82.78 1062.76,-96.81 1076,-107 1080.3,-110.31 1085,-113.17 1089.94,-115.64"/>
<polygon fill="#9a32cd" stroke="#9a32cd" points="826.81,-42.18 817.52,-47.27 827.96,-49.09 826.81,-42.18"/>
</a>
</g>
<text text-anchor="middle" x="961.5" y="-77" font-family="Helvetica,sans-Serif" font-size="10.00" fill="grey"> PageFaultOutput</text>
</g>
<!-- Node13 -->
<g id="Node000013" class="node">
<title>Node13</title>
<g id="a_Node000013"><a xlink:href="struct_harlinn_1_1_windows_1_1_graphics_1_1_d3_d12_1_1_d_r_e_d_allocation_node1.html" target="_top" xlink:title=" ">
<polygon fill="white" stroke="#666666" points="463.5,-33 308.5,-33 308.5,-3 463.5,-3 463.5,-33"/>
<text text-anchor="start" x="316.5" y="-21" font-family="Helvetica,sans-Serif" font-size="10.00">Harlinn::Windows::Graphics</text>
<text text-anchor="middle" x="386" y="-10" font-family="Helvetica,sans-Serif" font-size="10.00">::D3D12::DREDAllocationNode1</text>
</a>
</g>
</g>
<!-- Node13&#45;&gt;Node12 -->
<g id="edge16_Node000012_Node000013" class="edge">
<title>Node13&#45;&gt;Node12</title>
<g id="a_edge16_Node000012_Node000013"><a xlink:title=" ">
<path fill="none" stroke="#9a32cd" stroke-dasharray="5,2" d="M459.73,-35.78C467.55,-37.36 475.42,-38.81 483,-40 544.02,-49.6 613.62,-55.45 666.11,-58.85"/>
<polygon fill="#9a32cd" stroke="#9a32cd" points="460.71,-32.41 450.21,-33.78 459.27,-39.26 460.71,-32.41"/>
</a>
</g>
<text text-anchor="middle" x="557.5" y="-70" font-family="Helvetica,sans-Serif" font-size="10.00" fill="grey"> pHeadExistingAllocationNode</text>
<text text-anchor="middle" x="557.5" y="-59" font-family="Helvetica,sans-Serif" font-size="10.00" fill="grey">pHeadRecentFreedAllocationNode</text>
</g>
<!-- Node13&#45;&gt;Node13 -->
<g id="edge17_Node000013_Node000013" class="edge">
<title>Node13&#45;&gt;Node13</title>
<g id="a_edge17_Node000013_Node000013"><a xlink:title=" ">
<path fill="none" stroke="#9a32cd" stroke-dasharray="5,2" d="M361.2,-44.61C365.17,-48.43 373.44,-51 386,-51 408.97,-51 417.58,-42.41 411.84,-33.28"/>
<polygon fill="#9a32cd" stroke="#9a32cd" points="364.69,-44.42 360.3,-34.78 357.72,-45.06 364.69,-44.42"/>
</a>
</g>
<text text-anchor="middle" x="386" y="-54" font-family="Helvetica,sans-Serif" font-size="10.00" fill="grey"> pNext</text>
</g>
<!-- Node15 -->
<g id="Node000015" class="node">
<title>Node15</title>
<g id="a_Node000015"><a xlink:href="struct_harlinn_1_1_windows_1_1_graphics_1_1_d3_d12_1_1_d_r_e_d_page_fault_output2.html" target="_top" xlink:title=" ">
<polygon fill="white" stroke="#666666" points="830.5,-30 666.5,-30 666.5,0 830.5,0 830.5,-30"/>
<text text-anchor="start" x="674.5" y="-18" font-family="Helvetica,sans-Serif" font-size="10.00">Harlinn::Windows::Graphics</text>
<text text-anchor="middle" x="748.5" y="-7" font-family="Helvetica,sans-Serif" font-size="10.00">::D3D12::DREDPageFaultOutput2</text>
</a>
</g>
</g>
<!-- Node13&#45;&gt;Node15 -->
<g id="edge21_Node000015_Node000013" class="edge">
<title>Node13&#45;&gt;Node15</title>
<g id="a_edge21_Node000015_Node000013"><a xlink:title=" ">
<path fill="none" stroke="#9a32cd" stroke-dasharray="5,2" d="M475.3,-17.27C533.52,-16.78 609.24,-16.15 666.03,-15.68"/>
<polygon fill="#9a32cd" stroke="#9a32cd" points="475.38,-13.76 465.41,-17.35 475.44,-20.76 475.38,-13.76"/>
</a>
</g>
<text text-anchor="middle" x="557.5" y="-32" font-family="Helvetica,sans-Serif" font-size="10.00" fill="grey"> pHeadExistingAllocationNode</text>
<text text-anchor="middle" x="557.5" y="-21" font-family="Helvetica,sans-Serif" font-size="10.00" fill="grey">pHeadRecentFreedAllocationNode</text>
</g>
<!-- Node14&#45;&gt;Node1 -->
<g id="edge18_Node000001_Node000014" class="edge">
<title>Node14&#45;&gt;Node1</title>
<g id="a_edge18_Node000001_Node000014"><a xlink:title=" ">
<path fill="none" stroke="#9a32cd" stroke-dasharray="5,2" d="M1259.74,-100.94C1284.7,-106.64 1312.04,-113.23 1337,-120 1349.27,-123.33 1362.28,-127.17 1374.75,-131"/>
<polygon fill="#9a32cd" stroke="#9a32cd" points="1260.83,-97.6 1250.31,-98.81 1259.29,-104.43 1260.83,-97.6"/>
</a>
</g>
<text text-anchor="middle" x="1314.5" y="-123" font-family="Helvetica,sans-Serif" font-size="10.00" fill="grey"> Dred_1_3</text>
</g>
<!-- Node15&#45;&gt;Node14 -->
<g id="edge20_Node000014_Node000015" class="edge">
<title>Node15&#45;&gt;Node14</title>
<g id="a_edge20_Node000014_Node000015"><a xlink:title=" ">
<path fill="none" stroke="#9a32cd" stroke-dasharray="5,2" d="M842.1,-6.7C904.16,-3.73 987.17,-4.79 1058,-23 1092.92,-31.98 1129.21,-52.95 1151.7,-67.55"/>
<polygon fill="#9a32cd" stroke="#9a32cd" points="842.08,-3.2 832.28,-7.22 842.45,-10.19 842.08,-3.2"/>
</a>
</g>
<text text-anchor="middle" x="961.5" y="-26" font-family="Helvetica,sans-Serif" font-size="10.00" fill="grey"> PageFaultOutput</text>
</g>
</g>
</svg>
