<?xml version="1.0" encoding="UTF-8" standalone="no"?>
<!DOCTYPE svg PUBLIC "-//W3C//DTD SVG 1.1//EN"
 "http://www.w3.org/Graphics/SVG/1.1/DTD/svg11.dtd">
<!-- Generated by graphviz version 7.0.1 (20221109.1506)
 -->
<!-- Title: Harlinn::AI::DML::GatherOperatorDesc Pages: 1 -->
<svg width="272pt" height="126pt"
 viewBox="0.00 0.00 271.50 126.00" xmlns="http://www.w3.org/2000/svg" xmlns:xlink="http://www.w3.org/1999/xlink">
<g id="graph0" class="graph" transform="scale(1 1) rotate(0) translate(4 122)">
<title>Harlinn::AI::DML::GatherOperatorDesc</title>
<!-- Node1 -->
<g id="Node000001" class="node">
<title>Node1</title>
<g id="a_Node000001"><a xlink:title=" ">
<polygon fill="#999999" stroke="#666666" points="181,-30 58,-30 58,0 181,0 181,-30"/>
<text text-anchor="start" x="66" y="-18" font-family="Helvetica,sans-Serif" font-size="10.00">Harlinn::AI::DML::Gather</text>
<text text-anchor="middle" x="119.5" y="-7" font-family="Helvetica,sans-Serif" font-size="10.00">OperatorDesc</text>
</a>
</g>
</g>
<!-- Node2 -->
<g id="Node000002" class="node">
<title>Node2</title>
<g id="a_Node000002"><a xlink:title=" ">
<polygon fill="white" stroke="#666666" points="99,-118 0,-118 0,-99 99,-99 99,-118"/>
<text text-anchor="middle" x="49.5" y="-106" font-family="Helvetica,sans-Serif" font-size="10.00">BaseOperatorDesc</text>
</a>
</g>
</g>
<!-- Node2&#45;&gt;Node1 -->
<g id="edge1_Node000001_Node000002" class="edge">
<title>Node2&#45;&gt;Node1</title>
<g id="a_edge1_Node000001_Node000002"><a xlink:title=" ">
<path fill="none" stroke="#63b8ff" d="M63.16,-89.65C76.44,-72.29 96.35,-46.26 108.6,-30.25"/>
<polygon fill="#63b8ff" stroke="#63b8ff" points="60.43,-87.46 57.13,-97.52 65.99,-91.71 60.43,-87.46"/>
</a>
</g>
</g>
<!-- Node3 -->
<g id="Node000003" class="node">
<title>Node3</title>
<g id="a_Node000003"><a xlink:href="struct_harlinn_1_1_a_i_1_1_d_m_l_1_1_tensor_desc.html" target="_top" xlink:title=" ">
<polygon fill="white" stroke="#666666" points="263.5,-118 117.5,-118 117.5,-99 263.5,-99 263.5,-118"/>
<text text-anchor="middle" x="190.5" y="-106" font-family="Helvetica,sans-Serif" font-size="10.00">Harlinn::AI::DML::TensorDesc</text>
</a>
</g>
</g>
<!-- Node3&#45;&gt;Node1 -->
<g id="edge2_Node000001_Node000003" class="edge">
<title>Node3&#45;&gt;Node1</title>
<g id="a_edge2_Node000001_Node000003"><a xlink:title=" ">
<path fill="none" stroke="#9a32cd" stroke-dasharray="5,2" d="M176.65,-89.65C163.18,-72.29 142.98,-46.26 130.56,-30.25"/>
<polygon fill="#9a32cd" stroke="#9a32cd" points="173.87,-91.78 182.76,-97.53 179.4,-87.48 173.87,-91.78"/>
</a>
</g>
<text text-anchor="middle" x="201.5" y="-73" font-family="Helvetica,sans-Serif" font-size="10.00" fill="grey"> IndicesTensor</text>
<text text-anchor="middle" x="201.5" y="-62" font-family="Helvetica,sans-Serif" font-size="10.00" fill="grey">InputTensor</text>
<text text-anchor="middle" x="201.5" y="-51" font-family="Helvetica,sans-Serif" font-size="10.00" fill="grey">OutputTensor</text>
</g>
</g>
</svg>
