<?xml version="1.0" encoding="UTF-8" standalone="no"?>
<!DOCTYPE svg PUBLIC "-//W3C//DTD SVG 1.1//EN"
 "http://www.w3.org/Graphics/SVG/1.1/DTD/svg11.dtd">
<!-- Generated by graphviz version 7.0.1 (20221109.1506)
 -->
<!-- Title: Harlinn::ODBC::ParameterDescription Pages: 1 -->
<svg width="190pt" height="259pt"
 viewBox="0.00 0.00 190.00 259.00" xmlns="http://www.w3.org/2000/svg" xmlns:xlink="http://www.w3.org/1999/xlink">
<g id="graph0" class="graph" transform="scale(1 1) rotate(0) translate(4 255)">
<title>Harlinn::ODBC::ParameterDescription</title>
<!-- Node1 -->
<g id="Node000001" class="node">
<title>Node1</title>
<g id="a_Node000001"><a xlink:title=" ">
<polygon fill="#999999" stroke="#666666" points="150.5,-30 19.5,-30 19.5,0 150.5,0 150.5,-30"/>
<text text-anchor="start" x="27.5" y="-18" font-family="Helvetica,sans-Serif" font-size="10.00">Harlinn::ODBC::Parameter</text>
<text text-anchor="middle" x="85" y="-7" font-family="Helvetica,sans-Serif" font-size="10.00">Description</text>
</a>
</g>
</g>
<!-- Node2 -->
<g id="Node000002" class="node">
<title>Node2</title>
<g id="a_Node000002"><a xlink:href="class_harlinn_1_1_o_d_b_c_1_1_statement.html" target="_top" xlink:title=" ">
<polygon fill="white" stroke="#666666" points="150.5,-96 19.5,-96 19.5,-77 150.5,-77 150.5,-96"/>
<text text-anchor="middle" x="85" y="-84" font-family="Helvetica,sans-Serif" font-size="10.00">Harlinn::ODBC::Statement</text>
</a>
</g>
</g>
<!-- Node2&#45;&gt;Node1 -->
<g id="edge1_Node000001_Node000002" class="edge">
<title>Node2&#45;&gt;Node1</title>
<g id="a_edge1_Node000001_Node000002"><a xlink:title=" ">
<path fill="none" stroke="#9a32cd" stroke-dasharray="5,2" d="M85,-65.39C85,-54.15 85,-40.41 85,-30.27"/>
<polygon fill="#9a32cd" stroke="#9a32cd" points="81.5,-65.18 85,-75.18 88.5,-65.18 81.5,-65.18"/>
</a>
</g>
<text text-anchor="middle" x="109.5" y="-51" font-family="Helvetica,sans-Serif" font-size="10.00" fill="grey"> Statement</text>
</g>
<!-- Node3 -->
<g id="Node000003" class="node">
<title>Node3</title>
<g id="a_Node000003"><a xlink:href="class_harlinn_1_1_o_d_b_c_1_1_sql_handle.html" target="_top" xlink:title=" ">
<polygon fill="white" stroke="#666666" points="170,-163 0,-163 0,-133 170,-133 170,-163"/>
<text text-anchor="start" x="8" y="-151" font-family="Helvetica,sans-Serif" font-size="10.00">Harlinn::ODBC::SqlHandle</text>
<text text-anchor="middle" x="85" y="-140" font-family="Helvetica,sans-Serif" font-size="10.00">&lt; ODBC::HandleType::Statement &gt;</text>
</a>
</g>
</g>
<!-- Node3&#45;&gt;Node2 -->
<g id="edge2_Node000002_Node000003" class="edge">
<title>Node3&#45;&gt;Node2</title>
<g id="a_edge2_Node000002_Node000003"><a xlink:title=" ">
<path fill="none" stroke="#63b8ff" d="M85,-121.13C85,-112.29 85,-102.99 85,-96.42"/>
<polygon fill="#63b8ff" stroke="#63b8ff" points="81.5,-121.08 85,-131.08 88.5,-121.08 81.5,-121.08"/>
</a>
</g>
</g>
<!-- Node4 -->
<g id="Node000004" class="node">
<title>Node4</title>
<g id="a_Node000004"><a xlink:href="class_harlinn_1_1_o_d_b_c_1_1_sql_handle.html" target="_top" xlink:title="This template implements functionality common to the ODBC handle wrapper classes.">
<polygon fill="white" stroke="#666666" points="150.5,-251 19.5,-251 19.5,-221 150.5,-221 150.5,-251"/>
<text text-anchor="start" x="27.5" y="-239" font-family="Helvetica,sans-Serif" font-size="10.00">Harlinn::ODBC::SqlHandle</text>
<text text-anchor="middle" x="85" y="-228" font-family="Helvetica,sans-Serif" font-size="10.00">&lt; handleType &gt;</text>
</a>
</g>
</g>
<!-- Node4&#45;&gt;Node3 -->
<g id="edge3_Node000003_Node000004" class="edge">
<title>Node4&#45;&gt;Node3</title>
<g id="a_edge3_Node000003_Node000004"><a xlink:title=" ">
<path fill="none" stroke="orange" stroke-dasharray="5,2" d="M85,-209.6C85,-194.46 85,-175.8 85,-163.22"/>
<polygon fill="orange" stroke="orange" points="81.5,-209.29 85,-219.29 88.5,-209.29 81.5,-209.29"/>
</a>
</g>
<text text-anchor="start" x="85" y="-195" font-family="Helvetica,sans-Serif" font-size="10.00" fill="grey"> &lt; ODBC::HandleType</text>
<text text-anchor="middle" x="133.5" y="-184" font-family="Helvetica,sans-Serif" font-size="10.00" fill="grey">::Statement &gt;</text>
</g>
</g>
</svg>
