<?xml version="1.0" encoding="UTF-8" standalone="no"?>
<!DOCTYPE svg PUBLIC "-//W3C//DTD SVG 1.1//EN"
 "http://www.w3.org/Graphics/SVG/1.1/DTD/svg11.dtd">
<!-- Generated by graphviz version 7.0.1 (20221109.1506)
 -->
<!-- Title: Harlinn::Common::Core::WbemProperty::Data Pages: 1 -->
<svg width="262pt" height="171pt"
 viewBox="0.00 0.00 262.00 171.00" xmlns="http://www.w3.org/2000/svg" xmlns:xlink="http://www.w3.org/1999/xlink">
<g id="graph0" class="graph" transform="scale(1 1) rotate(0) translate(4 167)">
<title>Harlinn::Common::Core::WbemProperty::Data</title>
<!-- Node1 -->
<g id="Node000001" class="node">
<title>Node1</title>
<g id="a_Node000001"><a xlink:title=" ">
<polygon fill="#999999" stroke="#666666" points="166,-30 48,-30 48,0 166,0 166,-30"/>
<text text-anchor="start" x="56" y="-18" font-family="Helvetica,sans-Serif" font-size="10.00">Harlinn::Common::Core</text>
<text text-anchor="middle" x="107" y="-7" font-family="Helvetica,sans-Serif" font-size="10.00">::WbemProperty::Data</text>
</a>
</g>
</g>
<!-- Node2 -->
<g id="Node000002" class="node">
<title>Node2</title>
<g id="a_Node000002"><a xlink:href="class_harlinn_1_1_common_1_1_core_1_1_sys_string.html" target="_top" xlink:title=" ">
<polygon fill="white" stroke="#666666" points="118,-107 0,-107 0,-77 118,-77 118,-107"/>
<text text-anchor="start" x="8" y="-95" font-family="Helvetica,sans-Serif" font-size="10.00">Harlinn::Common::Core</text>
<text text-anchor="middle" x="59" y="-84" font-family="Helvetica,sans-Serif" font-size="10.00">::SysString</text>
</a>
</g>
</g>
<!-- Node2&#45;&gt;Node1 -->
<g id="edge1_Node000001_Node000002" class="edge">
<title>Node2&#45;&gt;Node1</title>
<g id="a_edge1_Node000001_Node000002"><a xlink:title=" ">
<path fill="none" stroke="#9a32cd" stroke-dasharray="5,2" d="M74.33,-67.05C82.04,-55 91.14,-40.78 97.77,-30.42"/>
<polygon fill="#9a32cd" stroke="#9a32cd" points="71.51,-64.96 69.07,-75.26 77.41,-68.73 71.51,-64.96"/>
</a>
</g>
<text text-anchor="middle" x="101.5" y="-51" font-family="Helvetica,sans-Serif" font-size="10.00" fill="grey"> name_</text>
</g>
<!-- Node3 -->
<g id="Node000003" class="node">
<title>Node3</title>
<g id="a_Node000003"><a xlink:href="class_harlinn_1_1_common_1_1_core_1_1_variant.html" target="_top" xlink:title=" ">
<polygon fill="white" stroke="#666666" points="254,-107 136,-107 136,-77 254,-77 254,-107"/>
<text text-anchor="start" x="144" y="-95" font-family="Helvetica,sans-Serif" font-size="10.00">Harlinn::Common::Core</text>
<text text-anchor="middle" x="195" y="-84" font-family="Helvetica,sans-Serif" font-size="10.00">::Variant</text>
</a>
</g>
</g>
<!-- Node3&#45;&gt;Node1 -->
<g id="edge2_Node000001_Node000003" class="edge">
<title>Node3&#45;&gt;Node1</title>
<g id="a_edge2_Node000001_Node000003"><a xlink:title=" ">
<path fill="none" stroke="#9a32cd" stroke-dasharray="5,2" d="M169.42,-69.2C154.77,-56.72 136.81,-41.4 123.92,-30.42"/>
<polygon fill="#9a32cd" stroke="#9a32cd" points="167,-71.73 176.88,-75.56 171.54,-66.41 167,-71.73"/>
</a>
</g>
<text text-anchor="middle" x="171.5" y="-51" font-family="Helvetica,sans-Serif" font-size="10.00" fill="grey"> value_</text>
</g>
<!-- Node4 -->
<g id="Node000004" class="node">
<title>Node4</title>
<g id="a_Node000004"><a xlink:title=" ">
<polygon fill="white" stroke="#666666" points="224,-163 166,-163 166,-144 224,-144 224,-163"/>
<text text-anchor="middle" x="195" y="-151" font-family="Helvetica,sans-Serif" font-size="10.00">VARIANT</text>
</a>
</g>
</g>
<!-- Node4&#45;&gt;Node3 -->
<g id="edge3_Node000003_Node000004" class="edge">
<title>Node4&#45;&gt;Node3</title>
<g id="a_edge3_Node000003_Node000004"><a xlink:title=" ">
<path fill="none" stroke="#63b8ff" d="M195,-132.46C195,-124.23 195,-114.89 195,-107.36"/>
<polygon fill="#63b8ff" stroke="#63b8ff" points="191.5,-132.21 195,-142.21 198.5,-132.21 191.5,-132.21"/>
</a>
</g>
</g>
</g>
</svg>
