<?xml version="1.0" encoding="UTF-8" standalone="no"?>
<!DOCTYPE svg PUBLIC "-//W3C//DTD SVG 1.1//EN"
 "http://www.w3.org/Graphics/SVG/1.1/DTD/svg11.dtd">
<!-- Generated by graphviz version 7.0.1 (20221109.1506)
 -->
<!-- Title: Harlinn::Common::Core::IO::Serialization::Internal::ByteArrayTypeResolver Pages: 1 -->
<svg width="479pt" height="130pt"
 viewBox="0.00 0.00 479.00 130.00" xmlns="http://www.w3.org/2000/svg" xmlns:xlink="http://www.w3.org/1999/xlink">
<g id="graph0" class="graph" transform="scale(1 1) rotate(0) translate(4 126)">
<title>Harlinn::Common::Core::IO::Serialization::Internal::ByteArrayTypeResolver</title>
<!-- Node1 -->
<g id="Node000001" class="node">
<title>Node1</title>
<g id="a_Node000001"><a xlink:title=" ">
<polygon fill="#999999" stroke="#666666" points="268,-81.5 113,-81.5 113,-40.5 268,-40.5 268,-81.5"/>
<text text-anchor="start" x="121" y="-69.5" font-family="Helvetica,sans-Serif" font-size="10.00">Harlinn::Common::Core</text>
<text text-anchor="start" x="121" y="-58.5" font-family="Helvetica,sans-Serif" font-size="10.00">::IO::Serialization::</text>
<text text-anchor="middle" x="190.5" y="-47.5" font-family="Helvetica,sans-Serif" font-size="10.00">Internal::ByteArrayTypeResolver</text>
</a>
</g>
</g>
<!-- Node3 -->
<g id="Node000003" class="node">
<title>Node3</title>
<g id="a_Node000003"><a xlink:href="struct_harlinn_1_1_common_1_1_core_1_1_i_o_1_1_serialization_1_1_internal_1_1_array_data_type_re455b6cf64d621d9c5c6dd512afaf7f3f.xhtml" target="_top" xlink:title=" ">
<polygon fill="white" stroke="#666666" points="465,-122 310,-122 310,-70 465,-70 465,-122"/>
<text text-anchor="start" x="318" y="-110" font-family="Helvetica,sans-Serif" font-size="10.00">Harlinn::Common::Core</text>
<text text-anchor="start" x="318" y="-99" font-family="Helvetica,sans-Serif" font-size="10.00">::IO::Serialization::</text>
<text text-anchor="start" x="318" y="-88" font-family="Helvetica,sans-Serif" font-size="10.00">Internal::ArrayDataTypeResolver</text>
<text text-anchor="middle" x="387.5" y="-77" font-family="Helvetica,sans-Serif" font-size="10.00">&lt; std::span&lt; Byte, size &gt; &gt;</text>
</a>
</g>
</g>
<!-- Node1&#45;&gt;Node3 -->
<g id="edge2_Node000001_Node000003" class="edge">
<title>Node1&#45;&gt;Node3</title>
<g id="a_edge2_Node000001_Node000003"><a xlink:title=" ">
<path fill="none" stroke="#63b8ff" d="M279.58,-76.81C289.66,-78.62 299.87,-80.45 309.78,-82.23"/>
<polygon fill="#63b8ff" stroke="#63b8ff" points="280.24,-73.37 269.78,-75.05 279,-80.26 280.24,-73.37"/>
</a>
</g>
</g>
<!-- Node4 -->
<g id="Node000004" class="node">
<title>Node4</title>
<g id="a_Node000004"><a xlink:href="struct_harlinn_1_1_common_1_1_core_1_1_i_o_1_1_serialization_1_1_internal_1_1_array_data_type_rea7d96a030353d787a5d959f23d4beabb.xhtml" target="_top" xlink:title=" ">
<polygon fill="white" stroke="#666666" points="471,-52 304,-52 304,0 471,0 471,-52"/>
<text text-anchor="start" x="312" y="-40" font-family="Helvetica,sans-Serif" font-size="10.00">Harlinn::Common::Core</text>
<text text-anchor="start" x="312" y="-29" font-family="Helvetica,sans-Serif" font-size="10.00">::IO::Serialization::</text>
<text text-anchor="start" x="312" y="-18" font-family="Helvetica,sans-Serif" font-size="10.00">Internal::ArrayDataTypeResolver</text>
<text text-anchor="middle" x="387.5" y="-7" font-family="Helvetica,sans-Serif" font-size="10.00">&lt; std::vector&lt; Byte, AllocatorT &gt; &gt;</text>
</a>
</g>
</g>
<!-- Node1&#45;&gt;Node4 -->
<g id="edge3_Node000001_Node000004" class="edge">
<title>Node1&#45;&gt;Node4</title>
<g id="a_edge3_Node000001_Node000004"><a xlink:title=" ">
<path fill="none" stroke="#63b8ff" d="M279.56,-45.2C287.58,-43.75 295.69,-42.3 303.67,-40.87"/>
<polygon fill="#63b8ff" stroke="#63b8ff" points="279,-41.74 269.78,-46.95 280.24,-48.63 279,-41.74"/>
</a>
</g>
</g>
<!-- Node2 -->
<g id="Node000002" class="node">
<title>Node2</title>
<g id="a_Node000002"><a xlink:title=" ">
<polygon fill="white" stroke="#666666" points="77,-70.5 0,-70.5 0,-51.5 77,-51.5 77,-70.5"/>
<text text-anchor="middle" x="38.5" y="-58.5" font-family="Helvetica,sans-Serif" font-size="10.00">std::true_type</text>
</a>
</g>
</g>
<!-- Node2&#45;&gt;Node1 -->
<g id="edge1_Node000001_Node000002" class="edge">
<title>Node2&#45;&gt;Node1</title>
<g id="a_edge1_Node000001_Node000002"><a xlink:title=" ">
<path fill="none" stroke="#63b8ff" d="M88.7,-61C96.43,-61 104.57,-61 112.74,-61"/>
<polygon fill="#63b8ff" stroke="#63b8ff" points="88.86,-57.5 78.86,-61 88.86,-64.5 88.86,-57.5"/>
</a>
</g>
</g>
</g>
</svg>
