<?xml version="1.0" encoding="UTF-8" standalone="no"?>
<!DOCTYPE svg PUBLIC "-//W3C//DTD SVG 1.1//EN"
 "http://www.w3.org/Graphics/SVG/1.1/DTD/svg11.dtd">
<!-- Generated by graphviz version 7.0.1 (20221109.1506)
 -->
<!-- Title: Harlinn::Common::Core::Types::Internal::BasicTypeTraits&lt; DateTime, RT &gt; Pages: 1 -->
<svg width="901pt" height="108pt"
 viewBox="0.00 0.00 901.00 108.00" xmlns="http://www.w3.org/2000/svg" xmlns:xlink="http://www.w3.org/1999/xlink">
<g id="graph0" class="graph" transform="scale(1 1) rotate(0) translate(4 104)">
<title>Harlinn::Common::Core::Types::Internal::BasicTypeTraits&lt; DateTime, RT &gt;</title>
<!-- Node1 -->
<g id="Node000001" class="node">
<title>Node1</title>
<g id="a_Node000001"><a xlink:title=" ">
<polygon fill="#999999" stroke="#666666" points="893,-70 755,-70 755,-29 893,-29 893,-70"/>
<text text-anchor="start" x="763" y="-58" font-family="Helvetica,sans-Serif" font-size="10.00">Harlinn::Common::Core</text>
<text text-anchor="start" x="763" y="-47" font-family="Helvetica,sans-Serif" font-size="10.00">::Types::Internal::BasicType</text>
<text text-anchor="middle" x="824" y="-36" font-family="Helvetica,sans-Serif" font-size="10.00">Traits&lt; DateTime, RT &gt;</text>
</a>
</g>
</g>
<!-- Node2 -->
<g id="Node000002" class="node">
<title>Node2</title>
<g id="a_Node000002"><a xlink:href="struct_harlinn_1_1_common_1_1_core_1_1_types_1_1_internal_1_1_basic_type_traits_base.html" target="_top" xlink:title=" ">
<polygon fill="white" stroke="#666666" points="718,-75.5 545,-75.5 545,-23.5 718,-23.5 718,-75.5"/>
<text text-anchor="start" x="553" y="-63.5" font-family="Helvetica,sans-Serif" font-size="10.00">Harlinn::Common::Core</text>
<text text-anchor="start" x="553" y="-52.5" font-family="Helvetica,sans-Serif" font-size="10.00">::Types::Internal::BasicType</text>
<text text-anchor="start" x="553" y="-41.5" font-family="Helvetica,sans-Serif" font-size="10.00">TraitsBase&lt; DateTime, BasicTypeId</text>
<text text-anchor="middle" x="631.5" y="-30.5" font-family="Helvetica,sans-Serif" font-size="10.00">::DateTime, RT &gt;</text>
</a>
</g>
</g>
<!-- Node2&#45;&gt;Node1 -->
<g id="edge1_Node000001_Node000002" class="edge">
<title>Node2&#45;&gt;Node1</title>
<g id="a_edge1_Node000001_Node000002"><a xlink:title=" ">
<path fill="none" stroke="#63b8ff" d="M729.7,-49.5C738.09,-49.5 746.45,-49.5 754.54,-49.5"/>
<polygon fill="#63b8ff" stroke="#63b8ff" points="729.79,-46 719.79,-49.5 729.79,-53 729.79,-46"/>
</a>
</g>
</g>
<!-- Node3 -->
<g id="Node000003" class="node">
<title>Node3</title>
<g id="a_Node000003"><a xlink:href="struct_harlinn_1_1_common_1_1_core_1_1_types_1_1_internal_1_1_type_traits_base.html" target="_top" xlink:title=" ">
<polygon fill="white" stroke="#666666" points="393.5,-100 256.5,-100 256.5,-59 393.5,-59 393.5,-100"/>
<text text-anchor="start" x="264.5" y="-88" font-family="Helvetica,sans-Serif" font-size="10.00">Harlinn::Common::Core</text>
<text text-anchor="start" x="264.5" y="-77" font-family="Helvetica,sans-Serif" font-size="10.00">::Types::Internal::TypeTraits</text>
<text text-anchor="middle" x="325" y="-66" font-family="Helvetica,sans-Serif" font-size="10.00">Base&lt; DateTime, RT &gt;</text>
</a>
</g>
</g>
<!-- Node3&#45;&gt;Node2 -->
<g id="edge2_Node000002_Node000003" class="edge">
<title>Node3&#45;&gt;Node2</title>
<g id="a_edge2_Node000002_Node000003"><a xlink:title=" ">
<path fill="none" stroke="#63b8ff" d="M405.18,-71.7C448.01,-67.48 500.96,-62.26 544.76,-57.95"/>
<polygon fill="#63b8ff" stroke="#63b8ff" points="405.07,-68.19 395.46,-72.66 405.76,-75.16 405.07,-68.19"/>
</a>
</g>
</g>
<!-- Node4 -->
<g id="Node000004" class="node">
<title>Node4</title>
<g id="a_Node000004"><a xlink:href="struct_harlinn_1_1_common_1_1_core_1_1_types_1_1_internal_1_1_type_traits_base.html" target="_top" xlink:title=" ">
<polygon fill="white" stroke="#666666" points="137,-100 0,-100 0,-59 137,-59 137,-100"/>
<text text-anchor="start" x="8" y="-88" font-family="Helvetica,sans-Serif" font-size="10.00">Harlinn::Common::Core</text>
<text text-anchor="start" x="8" y="-77" font-family="Helvetica,sans-Serif" font-size="10.00">::Types::Internal::TypeTraits</text>
<text text-anchor="middle" x="68.5" y="-66" font-family="Helvetica,sans-Serif" font-size="10.00">Base&lt; T, RT &gt;</text>
</a>
</g>
</g>
<!-- Node4&#45;&gt;Node3 -->
<g id="edge3_Node000003_Node000004" class="edge">
<title>Node4&#45;&gt;Node3</title>
<g id="a_edge3_Node000003_Node000004"><a xlink:title=" ">
<path fill="none" stroke="orange" stroke-dasharray="5,2" d="M148.83,-79.5C183.3,-79.5 223.27,-79.5 256.32,-79.5"/>
<polygon fill="orange" stroke="orange" points="148.88,-76 138.88,-79.5 148.88,-83 148.88,-76"/>
</a>
</g>
<text text-anchor="middle" x="195.5" y="-82.5" font-family="Helvetica,sans-Serif" font-size="10.00" fill="grey"> &lt; DateTime, RT &gt;</text>
</g>
<!-- Node5 -->
<g id="Node000005" class="node">
<title>Node5</title>
<g id="a_Node000005"><a xlink:href="struct_harlinn_1_1_common_1_1_core_1_1_types_1_1_internal_1_1_basic_type_traits_base.html" target="_top" xlink:title=" ">
<polygon fill="white" stroke="#666666" points="396,-41 254,-41 254,0 396,0 396,-41"/>
<text text-anchor="start" x="262" y="-29" font-family="Helvetica,sans-Serif" font-size="10.00">Harlinn::Common::Core</text>
<text text-anchor="start" x="262" y="-18" font-family="Helvetica,sans-Serif" font-size="10.00">::Types::Internal::BasicType</text>
<text text-anchor="middle" x="325" y="-7" font-family="Helvetica,sans-Serif" font-size="10.00">TraitsBase&lt; T, typeId_, RT &gt;</text>
</a>
</g>
</g>
<!-- Node5&#45;&gt;Node2 -->
<g id="edge4_Node000002_Node000005" class="edge">
<title>Node5&#45;&gt;Node2</title>
<g id="a_edge4_Node000002_Node000005"><a xlink:title=" ">
<path fill="none" stroke="orange" stroke-dasharray="5,2" d="M407.39,-26.81C443.98,-29.79 487.68,-33.56 527,-37.5 532.76,-38.08 538.7,-38.7 544.68,-39.34"/>
<polygon fill="orange" stroke="orange" points="408.04,-23.35 397.79,-26.03 407.47,-30.32 408.04,-23.35"/>
</a>
</g>
<text text-anchor="start" x="414" y="-51.5" font-family="Helvetica,sans-Serif" font-size="10.00" fill="grey"> &lt; DateTime, BasicTypeId</text>
<text text-anchor="middle" x="470.5" y="-40.5" font-family="Helvetica,sans-Serif" font-size="10.00" fill="grey">::DateTime, RT &gt;</text>
</g>
<!-- Node6 -->
<g id="Node000006" class="node">
<title>Node6</title>
<g id="a_Node000006"><a xlink:href="struct_harlinn_1_1_common_1_1_core_1_1_types_1_1_internal_1_1_type_traits_base.html" target="_top" xlink:title=" ">
<polygon fill="white" stroke="#666666" points="137,-41 0,-41 0,0 137,0 137,-41"/>
<text text-anchor="start" x="8" y="-29" font-family="Helvetica,sans-Serif" font-size="10.00">Harlinn::Common::Core</text>
<text text-anchor="start" x="8" y="-18" font-family="Helvetica,sans-Serif" font-size="10.00">::Types::Internal::TypeTraits</text>
<text text-anchor="middle" x="68.5" y="-7" font-family="Helvetica,sans-Serif" font-size="10.00">Base&lt; T, RT &gt;</text>
</a>
</g>
</g>
<!-- Node6&#45;&gt;Node5 -->
<g id="edge5_Node000005_Node000006" class="edge">
<title>Node6&#45;&gt;Node5</title>
<g id="a_edge5_Node000005_Node000006"><a xlink:title=" ">
<path fill="none" stroke="#63b8ff" d="M148.55,-20.5C182.17,-20.5 221.05,-20.5 253.66,-20.5"/>
<polygon fill="#63b8ff" stroke="#63b8ff" points="148.88,-17 138.88,-20.5 148.88,-24 148.88,-17"/>
</a>
</g>
</g>
</g>
</svg>
