<?xml version="1.0" encoding="UTF-8" standalone="no"?>
<!DOCTYPE svg PUBLIC "-//W3C//DTD SVG 1.1//EN"
 "http://www.w3.org/Graphics/SVG/1.1/DTD/svg11.dtd">
<!-- Generated by graphviz version 7.0.1 (20221109.1506)
 -->
<!-- Title: Harlinn::Common::Core::IO::Serialization::Internal::SignedDataTypeResolver&lt; long &gt; Pages: 1 -->
<svg width="481pt" height="60pt"
 viewBox="0.00 0.00 481.00 60.00" xmlns="http://www.w3.org/2000/svg" xmlns:xlink="http://www.w3.org/1999/xlink">
<g id="graph0" class="graph" transform="scale(1 1) rotate(0) translate(4 56)">
<title>Harlinn::Common::Core::IO::Serialization::Internal::SignedDataTypeResolver&lt; long &gt;</title>
<!-- Node1 -->
<g id="Node000001" class="node">
<title>Node1</title>
<g id="a_Node000001"><a xlink:title=" ">
<polygon fill="#999999" stroke="#666666" points="473,-52 311,-52 311,0 473,0 473,-52"/>
<text text-anchor="start" x="319" y="-40" font-family="Helvetica,sans-Serif" font-size="10.00">Harlinn::Common::Core</text>
<text text-anchor="start" x="319" y="-29" font-family="Helvetica,sans-Serif" font-size="10.00">::IO::Serialization::</text>
<text text-anchor="start" x="319" y="-18" font-family="Helvetica,sans-Serif" font-size="10.00">Internal::SignedDataTypeResolver</text>
<text text-anchor="middle" x="392" y="-7" font-family="Helvetica,sans-Serif" font-size="10.00">&lt; long &gt;</text>
</a>
</g>
</g>
<!-- Node2 -->
<g id="Node000002" class="node">
<title>Node2</title>
<g id="a_Node000002"><a xlink:href="struct_harlinn_1_1_common_1_1_core_1_1_i_o_1_1_serialization_1_1_internal_1_1_signed_data_type_resolver_3_01int_01_4.xhtml" target="_top" xlink:title=" ">
<polygon fill="white" stroke="#666666" points="275,-52 113,-52 113,0 275,0 275,-52"/>
<text text-anchor="start" x="121" y="-40" font-family="Helvetica,sans-Serif" font-size="10.00">Harlinn::Common::Core</text>
<text text-anchor="start" x="121" y="-29" font-family="Helvetica,sans-Serif" font-size="10.00">::IO::Serialization::</text>
<text text-anchor="start" x="121" y="-18" font-family="Helvetica,sans-Serif" font-size="10.00">Internal::SignedDataTypeResolver</text>
<text text-anchor="middle" x="194" y="-7" font-family="Helvetica,sans-Serif" font-size="10.00">&lt; int &gt;</text>
</a>
</g>
</g>
<!-- Node2&#45;&gt;Node1 -->
<g id="edge1_Node000001_Node000002" class="edge">
<title>Node2&#45;&gt;Node1</title>
<g id="a_edge1_Node000001_Node000002"><a xlink:title=" ">
<path fill="none" stroke="#63b8ff" d="M286.54,-26C294.55,-26 302.61,-26 310.52,-26"/>
<polygon fill="#63b8ff" stroke="#63b8ff" points="286.8,-22.5 276.8,-26 286.8,-29.5 286.8,-22.5"/>
</a>
</g>
</g>
<!-- Node3 -->
<g id="Node000003" class="node">
<title>Node3</title>
<g id="a_Node000003"><a xlink:title=" ">
<polygon fill="white" stroke="#666666" points="77,-35.5 0,-35.5 0,-16.5 77,-16.5 77,-35.5"/>
<text text-anchor="middle" x="38.5" y="-23.5" font-family="Helvetica,sans-Serif" font-size="10.00">std::true_type</text>
</a>
</g>
</g>
<!-- Node3&#45;&gt;Node2 -->
<g id="edge2_Node000002_Node000003" class="edge">
<title>Node3&#45;&gt;Node2</title>
<g id="a_edge2_Node000002_Node000003"><a xlink:title=" ">
<path fill="none" stroke="#63b8ff" d="M88.69,-26C96.34,-26 104.42,-26 112.55,-26"/>
<polygon fill="#63b8ff" stroke="#63b8ff" points="88.96,-22.5 78.96,-26 88.96,-29.5 88.96,-22.5"/>
</a>
</g>
</g>
</g>
</svg>
