<?xml version="1.0" encoding="UTF-8" standalone="no"?>
<!DOCTYPE svg PUBLIC "-//W3C//DTD SVG 1.1//EN"
 "http://www.w3.org/Graphics/SVG/1.1/DTD/svg11.dtd">
<!-- Generated by graphviz version 7.0.1 (20221109.1506)
 -->
<!-- Title: Harlinn::Common::Core::ZeroMq::ZMQNotificationServer::NotificationEntry::NotificationMessage Pages: 1 -->
<svg width="339pt" height="302pt"
 viewBox="0.00 0.00 338.50 302.00" xmlns="http://www.w3.org/2000/svg" xmlns:xlink="http://www.w3.org/1999/xlink">
<g id="graph0" class="graph" transform="scale(1 1) rotate(0) translate(4 298)">
<title>Harlinn::Common::Core::ZeroMq::ZMQNotificationServer::NotificationEntry::NotificationMessage</title>
<!-- Node1 -->
<g id="Node000001" class="node">
<title>Node1</title>
<g id="a_Node000001"><a xlink:title=" ">
<polygon fill="#999999" stroke="#666666" points="236.5,-41 48.5,-41 48.5,0 236.5,0 236.5,-41"/>
<text text-anchor="start" x="56.5" y="-29" font-family="Helvetica,sans-Serif" font-size="10.00">Harlinn::Common::Core</text>
<text text-anchor="start" x="56.5" y="-18" font-family="Helvetica,sans-Serif" font-size="10.00">::ZeroMq::ZMQNotificationServer</text>
<text text-anchor="middle" x="142.5" y="-7" font-family="Helvetica,sans-Serif" font-size="10.00">::NotificationEntry::NotificationMessage</text>
</a>
</g>
</g>
<!-- Node2 -->
<g id="Node000002" class="node">
<title>Node2</title>
<g id="a_Node000002"><a xlink:title=" ">
<polygon fill="white" stroke="#666666" points="205.5,-129 79.5,-129 79.5,-88 205.5,-88 205.5,-129"/>
<text text-anchor="start" x="87.5" y="-117" font-family="Helvetica,sans-Serif" font-size="10.00">std::shared_ptr&lt; Harlinn</text>
<text text-anchor="start" x="87.5" y="-106" font-family="Helvetica,sans-Serif" font-size="10.00">::Common::Core::ZeroMq</text>
<text text-anchor="middle" x="142.5" y="-95" font-family="Helvetica,sans-Serif" font-size="10.00">::ZMQNotification &gt;</text>
</a>
</g>
</g>
<!-- Node2&#45;&gt;Node1 -->
<g id="edge1_Node000001_Node000002" class="edge">
<title>Node2&#45;&gt;Node1</title>
<g id="a_edge1_Node000001_Node000002"><a xlink:title=" ">
<path fill="none" stroke="#9a32cd" stroke-dasharray="5,2" d="M142.5,-76.06C142.5,-64.45 142.5,-51.63 142.5,-41.34"/>
<polygon fill="#9a32cd" stroke="#9a32cd" points="139,-76.04 142.5,-86.04 146,-76.04 139,-76.04"/>
</a>
</g>
<text text-anchor="middle" x="162" y="-62" font-family="Helvetica,sans-Serif" font-size="10.00" fill="grey"> Payload</text>
</g>
<!-- Node3 -->
<g id="Node000003" class="node">
<title>Node3</title>
<g id="a_Node000003"><a xlink:href="class_harlinn_1_1_common_1_1_core_1_1_zero_mq_1_1_z_m_q_notification.html" target="_top" xlink:title=" ">
<polygon fill="white" stroke="#666666" points="139.5,-217 9.5,-217 9.5,-187 139.5,-187 139.5,-217"/>
<text text-anchor="start" x="17.5" y="-205" font-family="Helvetica,sans-Serif" font-size="10.00">Harlinn::Common::Core</text>
<text text-anchor="middle" x="74.5" y="-194" font-family="Helvetica,sans-Serif" font-size="10.00">::ZeroMq::ZMQNotification</text>
</a>
</g>
</g>
<!-- Node3&#45;&gt;Node2 -->
<g id="edge2_Node000002_Node000003" class="edge">
<title>Node3&#45;&gt;Node2</title>
<g id="a_edge2_Node000002_Node000003"><a xlink:title=" ">
<path fill="none" stroke="#9a32cd" stroke-dasharray="5,2" d="M91.88,-177.62C102.94,-162.73 117.12,-143.64 127.66,-129.47"/>
<polygon fill="#9a32cd" stroke="#9a32cd" points="89.18,-175.37 86.03,-185.49 94.8,-179.55 89.18,-175.37"/>
</a>
</g>
<text text-anchor="middle" x="123" y="-155.5" font-family="Helvetica,sans-Serif" font-size="10.00" fill="grey"> ptr</text>
</g>
<!-- Node4 -->
<g id="Node000004" class="node">
<title>Node4</title>
<g id="a_Node000004"><a xlink:title=" ">
<polygon fill="white" stroke="#666666" points="149,-294 0,-294 0,-264 149,-264 149,-294"/>
<text text-anchor="start" x="8" y="-282" font-family="Helvetica,sans-Serif" font-size="10.00">std::enable_shared</text>
<text text-anchor="middle" x="74.5" y="-271" font-family="Helvetica,sans-Serif" font-size="10.00">_from_this&lt; ZMQNotification &gt;</text>
</a>
</g>
</g>
<!-- Node4&#45;&gt;Node3 -->
<g id="edge3_Node000003_Node000004" class="edge">
<title>Node4&#45;&gt;Node3</title>
<g id="a_edge3_Node000003_Node000004"><a xlink:title=" ">
<path fill="none" stroke="#63b8ff" d="M74.5,-252.23C74.5,-240.58 74.5,-227.26 74.5,-217.42"/>
<polygon fill="#63b8ff" stroke="#63b8ff" points="71,-252.03 74.5,-262.03 78,-252.03 71,-252.03"/>
</a>
</g>
</g>
<!-- Node5 -->
<g id="Node000005" class="node">
<title>Node5</title>
<g id="a_Node000005"><a xlink:title=" ">
<polygon fill="white" stroke="#666666" points="263,-211.5 158,-211.5 158,-192.5 263,-192.5 263,-211.5"/>
<text text-anchor="middle" x="210.5" y="-199.5" font-family="Helvetica,sans-Serif" font-size="10.00">std::shared_ptr&lt; T &gt;</text>
</a>
</g>
</g>
<!-- Node5&#45;&gt;Node2 -->
<g id="edge4_Node000002_Node000005" class="edge">
<title>Node5&#45;&gt;Node2</title>
<g id="a_edge4_Node000002_Node000005"><a xlink:title=" ">
<path fill="none" stroke="orange" stroke-dasharray="5,2" d="M197.26,-183.19C185.76,-167.7 169.11,-145.3 157.19,-129.27"/>
<polygon fill="orange" stroke="orange" points="194.3,-185.07 203.08,-191.01 199.92,-180.9 194.3,-185.07"/>
</a>
</g>
<text text-anchor="start" x="187.5" y="-161" font-family="Helvetica,sans-Serif" font-size="10.00" fill="grey"> &lt; Harlinn::Common::</text>
<text text-anchor="middle" x="259" y="-150" font-family="Helvetica,sans-Serif" font-size="10.00" fill="grey">Core::ZeroMq::ZMQNotification &gt;</text>
</g>
<!-- Node6 -->
<g id="Node000006" class="node">
<title>Node6</title>
<g id="a_Node000006"><a xlink:title=" ">
<polygon fill="white" stroke="#666666" points="225,-288.5 196,-288.5 196,-269.5 225,-269.5 225,-288.5"/>
<text text-anchor="middle" x="210.5" y="-276.5" font-family="Helvetica,sans-Serif" font-size="10.00">T</text>
</a>
</g>
</g>
<!-- Node6&#45;&gt;Node5 -->
<g id="edge5_Node000005_Node000006" class="edge">
<title>Node6&#45;&gt;Node5</title>
<g id="a_edge5_Node000005_Node000006"><a xlink:title=" ">
<path fill="none" stroke="#9a32cd" stroke-dasharray="5,2" d="M210.5,-257.92C210.5,-242.93 210.5,-223.16 210.5,-211.89"/>
<polygon fill="#9a32cd" stroke="#9a32cd" points="207,-257.59 210.5,-267.59 214,-257.59 207,-257.59"/>
</a>
</g>
<text text-anchor="middle" x="218" y="-238" font-family="Helvetica,sans-Serif" font-size="10.00" fill="grey"> ptr</text>
</g>
</g>
</svg>
