<?xml version="1.0" encoding="UTF-8" standalone="no"?>
<!DOCTYPE svg PUBLIC "-//W3C//DTD SVG 1.1//EN"
 "http://www.w3.org/Graphics/SVG/1.1/DTD/svg11.dtd">
<!-- Generated by graphviz version 7.0.1 (20221109.1506)
 -->
<!-- Title: Harlinn::Math::Quaternion&lt; T &gt;::AxisAngle Pages: 1 -->
<svg width="190pt" height="259pt"
 viewBox="0.00 0.00 189.50 259.00" xmlns="http://www.w3.org/2000/svg" xmlns:xlink="http://www.w3.org/1999/xlink">
<g id="graph0" class="graph" transform="scale(1 1) rotate(0) translate(4 255)">
<title>Harlinn::Math::Quaternion&lt; T &gt;::AxisAngle</title>
<!-- Node1 -->
<g id="Node000001" class="node">
<title>Node1</title>
<g id="a_Node000001"><a xlink:title=" ">
<polygon fill="#999999" stroke="#666666" points="168,-30 40,-30 40,0 168,0 168,-30"/>
<text text-anchor="start" x="48" y="-18" font-family="Helvetica,sans-Serif" font-size="10.00">Harlinn::Math::Quaternion</text>
<text text-anchor="middle" x="104" y="-7" font-family="Helvetica,sans-Serif" font-size="10.00">&lt; T &gt;::AxisAngle</text>
</a>
</g>
</g>
<!-- Node2 -->
<g id="Node000002" class="node">
<title>Node2</title>
<g id="a_Node000002"><a xlink:href="class_harlinn_1_1_math_1_1_vector.html" target="_top" xlink:title=" ">
<polygon fill="white" stroke="#666666" points="114.5,-107 5.5,-107 5.5,-77 114.5,-77 114.5,-107"/>
<text text-anchor="start" x="13.5" y="-95" font-family="Helvetica,sans-Serif" font-size="10.00">Harlinn::Math::Vector</text>
<text text-anchor="middle" x="60" y="-84" font-family="Helvetica,sans-Serif" font-size="10.00">&lt; value_type, 3 &gt;</text>
</a>
</g>
</g>
<!-- Node2&#45;&gt;Node1 -->
<g id="edge1_Node000001_Node000002" class="edge">
<title>Node2&#45;&gt;Node1</title>
<g id="a_edge1_Node000001_Node000002"><a xlink:title=" ">
<path fill="none" stroke="#9a32cd" stroke-dasharray="5,2" d="M74.26,-66.69C81.29,-54.71 89.52,-40.68 95.54,-30.42"/>
<polygon fill="#9a32cd" stroke="#9a32cd" points="71.29,-64.84 69.25,-75.23 77.33,-68.38 71.29,-64.84"/>
</a>
</g>
<text text-anchor="middle" x="96.5" y="-51" font-family="Helvetica,sans-Serif" font-size="10.00" fill="grey"> Axis</text>
</g>
<!-- Node3 -->
<g id="Node000003" class="node">
<title>Node3</title>
<g id="a_Node000003"><a xlink:href="struct_harlinn_1_1_math_1_1_internal_1_1_vector_base.html" target="_top" xlink:title=" ">
<polygon fill="white" stroke="#666666" points="112,-251 0,-251 0,-221 112,-221 112,-251"/>
<text text-anchor="start" x="8" y="-239" font-family="Helvetica,sans-Serif" font-size="10.00">Harlinn::Math::Internal</text>
<text text-anchor="middle" x="56" y="-228" font-family="Helvetica,sans-Serif" font-size="10.00">::VectorBase</text>
</a>
</g>
</g>
<!-- Node3&#45;&gt;Node2 -->
<g id="edge2_Node000002_Node000003" class="edge">
<title>Node3&#45;&gt;Node2</title>
<g id="a_edge2_Node000002_Node000003"><a xlink:title=" ">
<path fill="none" stroke="#63b8ff" d="M56.72,-209.44C57.56,-179.63 58.92,-131.38 59.59,-107.44"/>
<polygon fill="#63b8ff" stroke="#63b8ff" points="53.23,-209 56.45,-219.09 60.23,-209.19 53.23,-209"/>
</a>
</g>
</g>
<!-- Node4 -->
<g id="Node000004" class="node">
<title>Node4</title>
<g id="a_Node000004"><a xlink:href="class_harlinn_1_1_math_1_1_vector.html" target="_top" xlink:title=" ">
<polygon fill="white" stroke="#666666" points="181.5,-184 72.5,-184 72.5,-154 181.5,-154 181.5,-184"/>
<text text-anchor="start" x="80.5" y="-172" font-family="Helvetica,sans-Serif" font-size="10.00">Harlinn::Math::Vector</text>
<text text-anchor="middle" x="127" y="-161" font-family="Helvetica,sans-Serif" font-size="10.00">&lt; ValueT, N &gt;</text>
</a>
</g>
</g>
<!-- Node3&#45;&gt;Node4 -->
<g id="edge4_Node000004_Node000003" class="edge">
<title>Node3&#45;&gt;Node4</title>
<g id="a_edge4_Node000004_Node000003"><a xlink:title=" ">
<path fill="none" stroke="#63b8ff" d="M80,-213.03C90.32,-203.58 102.1,-192.79 111.29,-184.39"/>
<polygon fill="#63b8ff" stroke="#63b8ff" points="77.89,-210.22 72.87,-219.55 82.61,-215.38 77.89,-210.22"/>
</a>
</g>
</g>
<!-- Node4&#45;&gt;Node2 -->
<g id="edge3_Node000002_Node000004" class="edge">
<title>Node4&#45;&gt;Node2</title>
<g id="a_edge3_Node000002_Node000004"><a xlink:title=" ">
<path fill="none" stroke="orange" stroke-dasharray="5,2" d="M106.57,-145.13C95.6,-132.85 82.42,-118.09 72.88,-107.42"/>
<polygon fill="orange" stroke="orange" points="103.8,-147.28 113.07,-152.41 109.02,-142.62 103.8,-147.28"/>
</a>
</g>
<text text-anchor="middle" x="137.5" y="-128" font-family="Helvetica,sans-Serif" font-size="10.00" fill="grey"> &lt; value_type, 3 &gt;</text>
</g>
<!-- Node5 -->
<g id="Node000005" class="node">
<title>Node5</title>
<g id="a_Node000005"><a xlink:title=" ">
<polygon fill="white" stroke="#666666" points="161.5,-101.5 132.5,-101.5 132.5,-82.5 161.5,-82.5 161.5,-101.5"/>
<text text-anchor="middle" x="147" y="-89.5" font-family="Helvetica,sans-Serif" font-size="10.00">T</text>
</a>
</g>
</g>
<!-- Node5&#45;&gt;Node1 -->
<g id="edge5_Node000001_Node000005" class="edge">
<title>Node5&#45;&gt;Node1</title>
<g id="a_edge5_Node000001_Node000005"><a xlink:title=" ">
<path fill="none" stroke="#9a32cd" stroke-dasharray="5,2" d="M136.3,-72.33C128.83,-59.31 119.02,-42.2 112.18,-30.27"/>
<polygon fill="#9a32cd" stroke="#9a32cd" points="133.14,-73.85 141.15,-80.79 139.21,-70.37 133.14,-73.85"/>
</a>
</g>
<text text-anchor="middle" x="142" y="-51" font-family="Helvetica,sans-Serif" font-size="10.00" fill="grey"> Angle</text>
</g>
</g>
</svg>
