<?xml version="1.0" encoding="UTF-8" standalone="no"?>
<!DOCTYPE svg PUBLIC "-//W3C//DTD SVG 1.1//EN"
 "http://www.w3.org/Graphics/SVG/1.1/DTD/svg11.dtd">
<!-- Generated by graphviz version 7.0.1 (20221109.1506)
 -->
<!-- Title: Harlinn::Common::Core::SIMD::TraitLimits&lt; float &gt; Pages: 1 -->
<svg width="663pt" height="79pt"
 viewBox="0.00 0.00 663.00 79.00" xmlns="http://www.w3.org/2000/svg" xmlns:xlink="http://www.w3.org/1999/xlink">
<g id="graph0" class="graph" transform="scale(1 1) rotate(0) translate(4 75)">
<title>Harlinn::Common::Core::SIMD::TraitLimits&lt; float &gt;</title>
<!-- Node1 -->
<g id="Node000001" class="node">
<title>Node1</title>
<g id="a_Node000001"><a xlink:title=" ">
<polygon fill="#999999" stroke="#666666" points="655,-71 537,-71 537,-30 655,-30 655,-71"/>
<text text-anchor="start" x="545" y="-59" font-family="Helvetica,sans-Serif" font-size="10.00">Harlinn::Common::Core</text>
<text text-anchor="start" x="545" y="-48" font-family="Helvetica,sans-Serif" font-size="10.00">::SIMD::TraitLimits&lt;</text>
<text text-anchor="middle" x="596" y="-37" font-family="Helvetica,sans-Serif" font-size="10.00"> float &gt;</text>
</a>
</g>
</g>
<!-- Node2 -->
<g id="Node000002" class="node">
<title>Node2</title>
<g id="a_Node000002"><a xlink:href="struct_harlinn_1_1_common_1_1_core_1_1_s_i_m_d_1_1_internal_1_1_trait_limits_impl.html" target="_top" xlink:title=" ">
<polygon fill="white" stroke="#666666" points="500,-71 365,-71 365,-30 500,-30 500,-71"/>
<text text-anchor="start" x="373" y="-59" font-family="Helvetica,sans-Serif" font-size="10.00">Harlinn::Common::Core</text>
<text text-anchor="start" x="373" y="-48" font-family="Helvetica,sans-Serif" font-size="10.00">::SIMD::Internal::TraitLimits</text>
<text text-anchor="middle" x="432.5" y="-37" font-family="Helvetica,sans-Serif" font-size="10.00">Impl&lt; float, __m256 &gt;</text>
</a>
</g>
</g>
<!-- Node2&#45;&gt;Node1 -->
<g id="edge1_Node000001_Node000002" class="edge">
<title>Node2&#45;&gt;Node1</title>
<g id="a_edge1_Node000001_Node000002"><a xlink:title=" ">
<path fill="none" stroke="#63b8ff" d="M511.54,-50.5C519.95,-50.5 528.41,-50.5 536.53,-50.5"/>
<polygon fill="#63b8ff" stroke="#63b8ff" points="511.63,-47 501.63,-50.5 511.63,-54 511.63,-47"/>
</a>
</g>
</g>
<!-- Node3 -->
<g id="Node000003" class="node">
<title>Node3</title>
<g id="a_Node000003"><a xlink:title=" ">
<polygon fill="white" stroke="#666666" points="77,-54 0,-54 0,-35 77,-35 77,-54"/>
<text text-anchor="middle" x="38.5" y="-42" font-family="Helvetica,sans-Serif" font-size="10.00">std::true_type</text>
</a>
</g>
</g>
<!-- Node3&#45;&gt;Node2 -->
<g id="edge2_Node000002_Node000003" class="edge">
<title>Node3&#45;&gt;Node2</title>
<g id="a_edge2_Node000002_Node000003"><a xlink:title=" ">
<path fill="none" stroke="#63b8ff" d="M88.75,-49.08C90.86,-49.23 92.95,-49.37 95,-49.5 206.81,-56.48 235.02,-58.81 347,-55.5 352.73,-55.33 358.67,-55.1 364.63,-54.82"/>
<polygon fill="#63b8ff" stroke="#63b8ff" points="89.15,-45.6 78.9,-48.31 88.6,-52.58 89.15,-45.6"/>
</a>
</g>
</g>
<!-- Node4 -->
<g id="Node000004" class="node">
<title>Node4</title>
<g id="a_Node000004"><a xlink:href="struct_harlinn_1_1_common_1_1_core_1_1_s_i_m_d_1_1_internal_1_1_trait_limits_impl.html" target="_top" xlink:title=" ">
<polygon fill="white" stroke="#666666" points="249,-41 114,-41 114,0 249,0 249,-41"/>
<text text-anchor="start" x="122" y="-29" font-family="Helvetica,sans-Serif" font-size="10.00">Harlinn::Common::Core</text>
<text text-anchor="start" x="122" y="-18" font-family="Helvetica,sans-Serif" font-size="10.00">::SIMD::Internal::TraitLimits</text>
<text text-anchor="middle" x="181.5" y="-7" font-family="Helvetica,sans-Serif" font-size="10.00">Impl&lt; ElementT, SIMDT &gt;</text>
</a>
</g>
</g>
<!-- Node3&#45;&gt;Node4 -->
<g id="edge4_Node000004_Node000003" class="edge">
<title>Node3&#45;&gt;Node4</title>
<g id="a_edge4_Node000004_Node000003"><a xlink:title=" ">
<path fill="none" stroke="#63b8ff" d="M88.49,-36.16C96.65,-34.77 105.24,-33.31 113.76,-31.86"/>
<polygon fill="#63b8ff" stroke="#63b8ff" points="88.05,-32.69 78.78,-37.81 89.22,-39.59 88.05,-32.69"/>
</a>
</g>
</g>
<!-- Node4&#45;&gt;Node2 -->
<g id="edge3_Node000002_Node000004" class="edge">
<title>Node4&#45;&gt;Node2</title>
<g id="a_edge3_Node000002_Node000004"><a xlink:title=" ">
<path fill="none" stroke="orange" stroke-dasharray="5,2" d="M260.35,-29.88C293.78,-33.91 332.47,-38.57 364.59,-42.44"/>
<polygon fill="orange" stroke="orange" points="261.08,-26.44 250.73,-28.72 260.24,-33.39 261.08,-26.44"/>
</a>
</g>
<text text-anchor="middle" x="307" y="-43.5" font-family="Helvetica,sans-Serif" font-size="10.00" fill="grey"> &lt; float, __m256 &gt;</text>
</g>
</g>
</svg>
