<?xml version="1.0" encoding="UTF-8" standalone="no"?>
<!DOCTYPE svg PUBLIC "-//W3C//DTD SVG 1.1//EN"
 "http://www.w3.org/Graphics/SVG/1.1/DTD/svg11.dtd">
<!-- Generated by graphviz version 7.0.1 (20221109.1506)
 -->
<!-- Title: Harlinn::Windows::DML::abstract Pages: 1 -->
<svg width="341pt" height="176pt"
 viewBox="0.00 0.00 341.00 175.50" xmlns="http://www.w3.org/2000/svg" xmlns:xlink="http://www.w3.org/1999/xlink">
<g id="graph0" class="graph" transform="scale(1 1) rotate(0) translate(4 171.5)">
<title>Harlinn::Windows::DML::abstract</title>
<!-- Node1 -->
<g id="Node000001" class="node">
<title>Node1</title>
<g id="a_Node000001"><a xlink:title=" ">
<polygon fill="#999999" stroke="#666666" points="333,-137 214,-137 214,-107 333,-107 333,-137"/>
<text text-anchor="start" x="222" y="-125" font-family="Helvetica,sans-Serif" font-size="10.00">Harlinn::Windows::DML</text>
<text text-anchor="middle" x="273.5" y="-114" font-family="Helvetica,sans-Serif" font-size="10.00">::abstract</text>
</a>
</g>
</g>
<!-- Node2 -->
<g id="Node000002" class="node">
<title>Node2</title>
<g id="a_Node000002"><a xlink:title=" ">
<polygon fill="white" stroke="#666666" points="109,-167.5 10,-167.5 10,-148.5 109,-148.5 109,-167.5"/>
<text text-anchor="middle" x="59.5" y="-155.5" font-family="Helvetica,sans-Serif" font-size="10.00">BaseOperatorDesc</text>
</a>
</g>
</g>
<!-- Node2&#45;&gt;Node1 -->
<g id="edge1_Node000001_Node000002" class="edge">
<title>Node2&#45;&gt;Node1</title>
<g id="a_edge1_Node000001_Node000002"><a xlink:title=" ">
<path fill="none" stroke="#63b8ff" d="M101.57,-145.56C133.5,-138.68 178.22,-130.87 213.91,-125.84"/>
<polygon fill="#63b8ff" stroke="#63b8ff" points="100.9,-142.12 91.9,-147.72 102.42,-148.95 100.9,-142.12"/>
</a>
</g>
</g>
<!-- Node2&#45;&gt;Node1 -->
<g id="edge2_Node000001_Node000002" class="edge">
<title>Node2&#45;&gt;Node1</title>
<g id="a_edge2_Node000001_Node000002"><a xlink:title=" ">
<path fill="none" stroke="#63b8ff" d="M120.65,-153.94C150.84,-149.65 187.17,-143.44 216.73,-137.5"/>
<polygon fill="#63b8ff" stroke="#63b8ff" points="120.33,-150.45 110.9,-155.28 121.29,-157.39 120.33,-150.45"/>
</a>
</g>
</g>
<!-- Node3 -->
<g id="Node000003" class="node">
<title>Node3</title>
<g id="a_Node000003"><a xlink:title=" ">
<polygon fill="white" stroke="#666666" points="110.5,-130.5 8.5,-130.5 8.5,-111.5 110.5,-111.5 110.5,-130.5"/>
<text text-anchor="middle" x="59.5" y="-118.5" font-family="Helvetica,sans-Serif" font-size="10.00">UnaryOperatorDesc</text>
</a>
</g>
</g>
<!-- Node3&#45;&gt;Node1 -->
<g id="edge3_Node000001_Node000003" class="edge">
<title>Node3&#45;&gt;Node1</title>
<g id="a_edge3_Node000001_Node000003"><a xlink:title=" ">
<path fill="none" stroke="#63b8ff" d="M121.93,-121.29C150.79,-121.43 185.05,-121.59 213.6,-121.72"/>
<polygon fill="#63b8ff" stroke="#63b8ff" points="122.27,-117.79 112.25,-121.24 122.24,-124.79 122.27,-117.79"/>
</a>
</g>
</g>
<!-- Node4 -->
<g id="Node000004" class="node">
<title>Node4</title>
<g id="a_Node000004"><a xlink:href="struct_harlinn_1_1_windows_1_1_d_m_l_1_1_tensor_desc.html" target="_top" xlink:title=" ">
<polygon fill="white" stroke="#666666" points="119,-78 0,-78 0,-48 119,-48 119,-78"/>
<text text-anchor="start" x="8" y="-66" font-family="Helvetica,sans-Serif" font-size="10.00">Harlinn::Windows::DML</text>
<text text-anchor="middle" x="59.5" y="-55" font-family="Helvetica,sans-Serif" font-size="10.00">::TensorDesc</text>
</a>
</g>
</g>
<!-- Node4&#45;&gt;Node1 -->
<g id="edge4_Node000001_Node000004" class="edge">
<title>Node4&#45;&gt;Node1</title>
<g id="a_edge4_Node000001_Node000004"><a xlink:title=" ">
<path fill="none" stroke="#9a32cd" stroke-dasharray="5,2" d="M130.75,-61.61C152.14,-62.92 175.42,-66.14 196,-73 217.85,-80.28 239.66,-95.19 254.37,-106.67"/>
<polygon fill="#9a32cd" stroke="#9a32cd" points="131.1,-58.12 120.94,-61.15 130.77,-65.11 131.1,-58.12"/>
</a>
</g>
<text text-anchor="middle" x="166.5" y="-109" font-family="Helvetica,sans-Serif" font-size="10.00" fill="grey"> ATensor</text>
<text text-anchor="middle" x="166.5" y="-98" font-family="Helvetica,sans-Serif" font-size="10.00" fill="grey">BTensor</text>
<text text-anchor="middle" x="166.5" y="-87" font-family="Helvetica,sans-Serif" font-size="10.00" fill="grey">InputTensor</text>
<text text-anchor="middle" x="166.5" y="-76" font-family="Helvetica,sans-Serif" font-size="10.00" fill="grey">OutputTensor</text>
</g>
<!-- Node5 -->
<g id="Node000005" class="node">
<title>Node5</title>
<g id="a_Node000005"><a xlink:href="struct_harlinn_1_1_windows_1_1_d_m_l_1_1_scale_bias.html" target="_top" xlink:title=" ">
<polygon fill="white" stroke="#666666" points="119,-30 0,-30 0,0 119,0 119,-30"/>
<text text-anchor="start" x="8" y="-18" font-family="Helvetica,sans-Serif" font-size="10.00">Harlinn::Windows::DML</text>
<text text-anchor="middle" x="59.5" y="-7" font-family="Helvetica,sans-Serif" font-size="10.00">::ScaleBias</text>
</a>
</g>
</g>
<!-- Node5&#45;&gt;Node1 -->
<g id="edge5_Node000001_Node000005" class="edge">
<title>Node5&#45;&gt;Node1</title>
<g id="a_edge5_Node000001_Node000005"><a xlink:title=" ">
<path fill="none" stroke="#9a32cd" stroke-dasharray="5,2" d="M130.64,-24.04C152.5,-28.79 176.08,-36.02 196,-47 223.2,-61.99 247.47,-89.34 261.05,-106.54"/>
<polygon fill="#9a32cd" stroke="#9a32cd" points="131.37,-20.61 120.87,-22.07 129.98,-27.47 131.37,-20.61"/>
</a>
</g>
<text text-anchor="middle" x="166.5" y="-50" font-family="Helvetica,sans-Serif" font-size="10.00" fill="grey"> ScaleBias</text>
</g>
</g>
</svg>
