<?xml version="1.0" encoding="UTF-8" standalone="no"?>
<!DOCTYPE svg PUBLIC "-//W3C//DTD SVG 1.1//EN"
 "http://www.w3.org/Graphics/SVG/1.1/DTD/svg11.dtd">
<!-- Generated by graphviz version 7.0.1 (20221109.1506)
 -->
<!-- Title: Harlinn::Math::SIMD::Traits8Bit&lt; T, N &gt; Pages: 1 -->
<svg width="730pt" height="134pt"
 viewBox="0.00 0.00 730.00 134.00" xmlns="http://www.w3.org/2000/svg" xmlns:xlink="http://www.w3.org/1999/xlink">
<g id="graph0" class="graph" transform="scale(1 1) rotate(0) translate(4 130)">
<title>Harlinn::Math::SIMD::Traits8Bit&lt; T, N &gt;</title>
<!-- Node1 -->
<g id="Node000001" class="node">
<title>Node1</title>
<g id="a_Node000001"><a xlink:title=" ">
<polygon fill="#999999" stroke="#666666" points="362,-78 258,-78 258,-48 362,-48 362,-78"/>
<text text-anchor="start" x="266" y="-66" font-family="Helvetica,sans-Serif" font-size="10.00">Harlinn::Math::SIMD</text>
<text text-anchor="middle" x="310" y="-55" font-family="Helvetica,sans-Serif" font-size="10.00">::Traits8Bit&lt; T, N &gt;</text>
</a>
</g>
</g>
<!-- Node4 -->
<g id="Node000004" class="node">
<title>Node4</title>
<g id="a_Node000004"><a xlink:href="struct_harlinn_1_1_math_1_1_s_i_m_d_1_1_traits8_bit.html" target="_top" xlink:title=" ">
<polygon fill="white" stroke="#666666" points="577.5,-126 462.5,-126 462.5,-96 577.5,-96 577.5,-126"/>
<text text-anchor="start" x="470.5" y="-114" font-family="Helvetica,sans-Serif" font-size="10.00">Harlinn::Math::SIMD</text>
<text text-anchor="middle" x="520" y="-103" font-family="Helvetica,sans-Serif" font-size="10.00">::Traits8Bit&lt; Byte, N &gt;</text>
</a>
</g>
</g>
<!-- Node1&#45;&gt;Node4 -->
<g id="edge3_Node000001_Node000004" class="edge">
<title>Node1&#45;&gt;Node4</title>
<g id="a_edge3_Node000001_Node000004"><a xlink:title=" ">
<path fill="none" stroke="orange" stroke-dasharray="5,2" d="M373.38,-77.4C401.63,-83.92 434.79,-91.57 462.33,-97.92"/>
<polygon fill="orange" stroke="orange" points="374.42,-74.04 363.89,-75.21 372.85,-80.86 374.42,-74.04"/>
</a>
</g>
<text text-anchor="middle" x="410.5" y="-95" font-family="Helvetica,sans-Serif" font-size="10.00" fill="grey"> &lt; Byte, N &gt;</text>
</g>
<!-- Node6 -->
<g id="Node000006" class="node">
<title>Node6</title>
<g id="a_Node000006"><a xlink:href="struct_harlinn_1_1_math_1_1_s_i_m_d_1_1_traits8_bit.html" target="_top" xlink:title=" ">
<polygon fill="white" stroke="#666666" points="581,-78 459,-78 459,-48 581,-48 581,-78"/>
<text text-anchor="start" x="467" y="-66" font-family="Helvetica,sans-Serif" font-size="10.00">Harlinn::Math::SIMD</text>
<text text-anchor="middle" x="520" y="-55" font-family="Helvetica,sans-Serif" font-size="10.00">::Traits8Bit&lt; SByte, N &gt;</text>
</a>
</g>
</g>
<!-- Node1&#45;&gt;Node6 -->
<g id="edge5_Node000001_Node000006" class="edge">
<title>Node1&#45;&gt;Node6</title>
<g id="a_edge5_Node000001_Node000006"><a xlink:title=" ">
<path fill="none" stroke="orange" stroke-dasharray="5,2" d="M373.66,-63C400.58,-63 431.91,-63 458.58,-63"/>
<polygon fill="orange" stroke="orange" points="373.93,-59.5 363.93,-63 373.93,-66.5 373.93,-59.5"/>
</a>
</g>
<text text-anchor="middle" x="410.5" y="-66" font-family="Helvetica,sans-Serif" font-size="10.00" fill="grey"> &lt; SByte, N &gt;</text>
</g>
<!-- Node8 -->
<g id="Node000008" class="node">
<title>Node8</title>
<g id="a_Node000008"><a xlink:href="struct_harlinn_1_1_math_1_1_s_i_m_d_1_1_traits8_bit.html" target="_top" xlink:title=" ">
<polygon fill="white" stroke="#666666" points="576.5,-30 463.5,-30 463.5,0 576.5,0 576.5,-30"/>
<text text-anchor="start" x="471.5" y="-18" font-family="Helvetica,sans-Serif" font-size="10.00">Harlinn::Math::SIMD</text>
<text text-anchor="middle" x="520" y="-7" font-family="Helvetica,sans-Serif" font-size="10.00">::Traits8Bit&lt; char, N &gt;</text>
</a>
</g>
</g>
<!-- Node1&#45;&gt;Node8 -->
<g id="edge7_Node000001_Node000008" class="edge">
<title>Node1&#45;&gt;Node8</title>
<g id="a_edge7_Node000001_Node000008"><a xlink:title=" ">
<path fill="none" stroke="orange" stroke-dasharray="5,2" d="M373.47,-48.58C401.96,-42.01 435.42,-34.29 463.07,-27.91"/>
<polygon fill="orange" stroke="orange" points="372.85,-45.14 363.89,-50.79 374.42,-51.96 372.85,-45.14"/>
</a>
</g>
<text text-anchor="middle" x="410.5" y="-50" font-family="Helvetica,sans-Serif" font-size="10.00" fill="grey"> &lt; char, N &gt;</text>
</g>
<!-- Node2 -->
<g id="Node000002" class="node">
<title>Node2</title>
<g id="a_Node000002"><a xlink:href="struct_harlinn_1_1_math_1_1_s_i_m_d_1_1_internal_1_1_traits_base.html" target="_top" xlink:title=" ">
<polygon fill="white" stroke="#666666" points="221,-78 114,-78 114,-48 221,-48 221,-78"/>
<text text-anchor="start" x="122" y="-66" font-family="Helvetica,sans-Serif" font-size="10.00">Harlinn::Math::SIMD</text>
<text text-anchor="middle" x="167.5" y="-55" font-family="Helvetica,sans-Serif" font-size="10.00">::Internal::TraitsBase</text>
</a>
</g>
</g>
<!-- Node2&#45;&gt;Node1 -->
<g id="edge1_Node000001_Node000002" class="edge">
<title>Node2&#45;&gt;Node1</title>
<g id="a_edge1_Node000001_Node000002"><a xlink:title=" ">
<path fill="none" stroke="#63b8ff" d="M232.63,-63C241.08,-63 249.65,-63 257.85,-63"/>
<polygon fill="#63b8ff" stroke="#63b8ff" points="232.73,-59.5 222.73,-63 232.73,-66.5 232.73,-59.5"/>
</a>
</g>
</g>
<!-- Node3 -->
<g id="Node000003" class="node">
<title>Node3</title>
<g id="a_Node000003"><a xlink:title=" ">
<polygon fill="white" stroke="#666666" points="77,-72.5 0,-72.5 0,-53.5 77,-53.5 77,-72.5"/>
<text text-anchor="middle" x="38.5" y="-60.5" font-family="Helvetica,sans-Serif" font-size="10.00">std::true_type</text>
</a>
</g>
</g>
<!-- Node3&#45;&gt;Node2 -->
<g id="edge2_Node000002_Node000003" class="edge">
<title>Node3&#45;&gt;Node2</title>
<g id="a_edge2_Node000002_Node000003"><a xlink:title=" ">
<path fill="none" stroke="#63b8ff" d="M88.57,-63C96.77,-63 105.32,-63 113.61,-63"/>
<polygon fill="#63b8ff" stroke="#63b8ff" points="88.77,-59.5 78.77,-63 88.77,-66.5 88.77,-59.5"/>
</a>
</g>
</g>
<!-- Node5 -->
<g id="Node000005" class="node">
<title>Node5</title>
<g id="a_Node000005"><a xlink:href="struct_harlinn_1_1_math_1_1_s_i_m_d_1_1_traits_3_01_byte_00_01_n_01_4.html" target="_top" xlink:title=" ">
<polygon fill="white" stroke="#666666" points="722,-126 618,-126 618,-96 722,-96 722,-126"/>
<text text-anchor="start" x="626" y="-114" font-family="Helvetica,sans-Serif" font-size="10.00">Harlinn::Math::SIMD</text>
<text text-anchor="middle" x="670" y="-103" font-family="Helvetica,sans-Serif" font-size="10.00">::Traits&lt; Byte, N &gt;</text>
</a>
</g>
</g>
<!-- Node4&#45;&gt;Node5 -->
<g id="edge4_Node000004_Node000005" class="edge">
<title>Node4&#45;&gt;Node5</title>
<g id="a_edge4_Node000004_Node000005"><a xlink:title=" ">
<path fill="none" stroke="#63b8ff" d="M589.08,-111C598.78,-111 608.62,-111 617.92,-111"/>
<polygon fill="#63b8ff" stroke="#63b8ff" points="589.31,-107.5 579.31,-111 589.31,-114.5 589.31,-107.5"/>
</a>
</g>
</g>
<!-- Node7 -->
<g id="Node000007" class="node">
<title>Node7</title>
<g id="a_Node000007"><a xlink:href="struct_harlinn_1_1_math_1_1_s_i_m_d_1_1_traits_3_01_s_byte_00_01_n_01_4.html" target="_top" xlink:title=" ">
<polygon fill="white" stroke="#666666" points="722,-78 618,-78 618,-48 722,-48 722,-78"/>
<text text-anchor="start" x="626" y="-66" font-family="Helvetica,sans-Serif" font-size="10.00">Harlinn::Math::SIMD</text>
<text text-anchor="middle" x="670" y="-55" font-family="Helvetica,sans-Serif" font-size="10.00">::Traits&lt; SByte, N &gt;</text>
</a>
</g>
</g>
<!-- Node6&#45;&gt;Node7 -->
<g id="edge6_Node000006_Node000007" class="edge">
<title>Node6&#45;&gt;Node7</title>
<g id="a_edge6_Node000006_Node000007"><a xlink:title=" ">
<path fill="none" stroke="#63b8ff" d="M592.71,-63C601.2,-63 609.73,-63 617.86,-63"/>
<polygon fill="#63b8ff" stroke="#63b8ff" points="592.71,-59.5 582.71,-63 592.71,-66.5 592.71,-59.5"/>
</a>
</g>
</g>
<!-- Node9 -->
<g id="Node000009" class="node">
<title>Node9</title>
<g id="a_Node000009"><a xlink:href="struct_harlinn_1_1_math_1_1_s_i_m_d_1_1_traits_3_01char_00_01_n_01_4.html" target="_top" xlink:title=" ">
<polygon fill="white" stroke="#666666" points="722,-30 618,-30 618,0 722,0 722,-30"/>
<text text-anchor="start" x="626" y="-18" font-family="Helvetica,sans-Serif" font-size="10.00">Harlinn::Math::SIMD</text>
<text text-anchor="middle" x="670" y="-7" font-family="Helvetica,sans-Serif" font-size="10.00">::Traits&lt; char, N &gt;</text>
</a>
</g>
</g>
<!-- Node8&#45;&gt;Node9 -->
<g id="edge8_Node000008_Node000009" class="edge">
<title>Node8&#45;&gt;Node9</title>
<g id="a_edge8_Node000008_Node000009"><a xlink:title=" ">
<path fill="none" stroke="#63b8ff" d="M588.44,-15C598.32,-15 608.36,-15 617.84,-15"/>
<polygon fill="#63b8ff" stroke="#63b8ff" points="588.47,-11.5 578.47,-15 588.47,-18.5 588.47,-11.5"/>
</a>
</g>
</g>
</g>
</svg>
