<?xml version="1.0" encoding="UTF-8" standalone="no"?>
<!DOCTYPE svg PUBLIC "-//W3C//DTD SVG 1.1//EN"
 "http://www.w3.org/Graphics/SVG/1.1/DTD/svg11.dtd">
<!-- Generated by graphviz version 7.0.1 (20221109.1506)
 -->
<!-- Title: Harlinn::Common::Core::Types::Internal::UniquePtrTypeTraits&lt; std::unique_ptr&lt; T &gt;, RT &gt; Pages: 1 -->
<svg width="749pt" height="82pt"
 viewBox="0.00 0.00 749.00 81.50" xmlns="http://www.w3.org/2000/svg" xmlns:xlink="http://www.w3.org/1999/xlink">
<g id="graph0" class="graph" transform="scale(1 1) rotate(0) translate(4 77.5)">
<title>Harlinn::Common::Core::Types::Internal::UniquePtrTypeTraits&lt; std::unique_ptr&lt; T &gt;, RT &gt;</title>
<!-- Node1 -->
<g id="Node000001" class="node">
<title>Node1</title>
<g id="a_Node000001"><a xlink:title=" ">
<polygon fill="#999999" stroke="#666666" points="741,-73.5 606,-73.5 606,-21.5 741,-21.5 741,-73.5"/>
<text text-anchor="start" x="614" y="-61.5" font-family="Helvetica,sans-Serif" font-size="10.00">Harlinn::Common::Core</text>
<text text-anchor="start" x="614" y="-50.5" font-family="Helvetica,sans-Serif" font-size="10.00">::Types::Internal::UniquePtr</text>
<text text-anchor="start" x="614" y="-39.5" font-family="Helvetica,sans-Serif" font-size="10.00">TypeTraits&lt; std::unique_ptr</text>
<text text-anchor="middle" x="673.5" y="-28.5" font-family="Helvetica,sans-Serif" font-size="10.00">&lt; T &gt;, RT &gt;</text>
</a>
</g>
</g>
<!-- Node2 -->
<g id="Node000002" class="node">
<title>Node2</title>
<g id="a_Node000002"><a xlink:href="struct_harlinn_1_1_common_1_1_core_1_1_types_1_1_internal_1_1_unique_ptr_type_traits_base.html" target="_top" xlink:title=" ">
<polygon fill="white" stroke="#666666" points="569,-73.5 428,-73.5 428,-21.5 569,-21.5 569,-73.5"/>
<text text-anchor="start" x="436" y="-61.5" font-family="Helvetica,sans-Serif" font-size="10.00">Harlinn::Common::Core</text>
<text text-anchor="start" x="436" y="-50.5" font-family="Helvetica,sans-Serif" font-size="10.00">::Types::Internal::UniquePtr</text>
<text text-anchor="start" x="436" y="-39.5" font-family="Helvetica,sans-Serif" font-size="10.00">TypeTraitsBase&lt; std::unique</text>
<text text-anchor="middle" x="498.5" y="-28.5" font-family="Helvetica,sans-Serif" font-size="10.00">_ptr&lt; T &gt;, RT &gt;</text>
</a>
</g>
</g>
<!-- Node2&#45;&gt;Node1 -->
<g id="edge1_Node000001_Node000002" class="edge">
<title>Node2&#45;&gt;Node1</title>
<g id="a_edge1_Node000001_Node000002"><a xlink:title=" ">
<path fill="none" stroke="#63b8ff" d="M580.72,-47.5C589.1,-47.5 597.54,-47.5 605.74,-47.5"/>
<polygon fill="#63b8ff" stroke="#63b8ff" points="580.88,-44 570.88,-47.5 580.88,-51 580.88,-44"/>
</a>
</g>
</g>
<!-- Node3 -->
<g id="Node000003" class="node">
<title>Node3</title>
<g id="a_Node000003"><a xlink:href="struct_harlinn_1_1_common_1_1_core_1_1_types_1_1_internal_1_1_type_traits_base.html" target="_top" xlink:title=" ">
<polygon fill="white" stroke="#666666" points="137,-65 0,-65 0,-24 137,-24 137,-65"/>
<text text-anchor="start" x="8" y="-53" font-family="Helvetica,sans-Serif" font-size="10.00">Harlinn::Common::Core</text>
<text text-anchor="start" x="8" y="-42" font-family="Helvetica,sans-Serif" font-size="10.00">::Types::Internal::TypeTraits</text>
<text text-anchor="middle" x="68.5" y="-31" font-family="Helvetica,sans-Serif" font-size="10.00">Base&lt; T, RT &gt;</text>
</a>
</g>
</g>
<!-- Node3&#45;&gt;Node2 -->
<g id="edge2_Node000002_Node000003" class="edge">
<title>Node3&#45;&gt;Node2</title>
<g id="a_edge2_Node000002_Node000003"><a xlink:title=" ">
<path fill="none" stroke="#63b8ff" d="M148.56,-50.54C217.59,-54.98 320.45,-59.59 410,-55.5 415.79,-55.24 421.79,-54.87 427.81,-54.45"/>
<polygon fill="#63b8ff" stroke="#63b8ff" points="149.07,-47.06 138.86,-49.9 148.61,-54.05 149.07,-47.06"/>
</a>
</g>
</g>
<!-- Node4 -->
<g id="Node000004" class="node">
<title>Node4</title>
<g id="a_Node000004"><a xlink:href="struct_harlinn_1_1_common_1_1_core_1_1_types_1_1_internal_1_1_unique_ptr_type_traits_base.html" target="_top" xlink:title=" ">
<polygon fill="white" stroke="#666666" points="309,-41 174,-41 174,0 309,0 309,-41"/>
<text text-anchor="start" x="182" y="-29" font-family="Helvetica,sans-Serif" font-size="10.00">Harlinn::Common::Core</text>
<text text-anchor="start" x="182" y="-18" font-family="Helvetica,sans-Serif" font-size="10.00">::Types::Internal::UniquePtr</text>
<text text-anchor="middle" x="241.5" y="-7" font-family="Helvetica,sans-Serif" font-size="10.00">TypeTraitsBase&lt; T, RT &gt;</text>
</a>
</g>
</g>
<!-- Node3&#45;&gt;Node4 -->
<g id="edge4_Node000004_Node000003" class="edge">
<title>Node3&#45;&gt;Node4</title>
<g id="a_edge4_Node000004_Node000003"><a xlink:title=" ">
<path fill="none" stroke="#63b8ff" d="M148.2,-33.45C156.72,-32.26 165.33,-31.05 173.69,-29.88"/>
<polygon fill="#63b8ff" stroke="#63b8ff" points="148,-29.95 138.58,-34.8 148.97,-36.88 148,-29.95"/>
</a>
</g>
</g>
<!-- Node4&#45;&gt;Node2 -->
<g id="edge3_Node000002_Node000004" class="edge">
<title>Node4&#45;&gt;Node2</title>
<g id="a_edge3_Node000002_Node000004"><a xlink:title=" ">
<path fill="none" stroke="orange" stroke-dasharray="5,2" d="M320.86,-25.26C349.02,-27.32 380.98,-30.06 410,-33.5 415.81,-34.19 421.82,-34.98 427.84,-35.83"/>
<polygon fill="orange" stroke="orange" points="321.19,-21.77 310.97,-24.55 320.69,-28.76 321.19,-21.77"/>
</a>
</g>
<text text-anchor="start" x="327" y="-47.5" font-family="Helvetica,sans-Serif" font-size="10.00" fill="grey"> &lt; std::unique_ptr&lt;</text>
<text text-anchor="middle" x="368.5" y="-36.5" font-family="Helvetica,sans-Serif" font-size="10.00" fill="grey"> T &gt;, RT &gt;</text>
</g>
</g>
</svg>
