<?xml version="1.0" encoding="UTF-8" standalone="no"?>
<!DOCTYPE svg PUBLIC "-//W3C//DTD SVG 1.1//EN"
 "http://www.w3.org/Graphics/SVG/1.1/DTD/svg11.dtd">
<!-- Generated by graphviz version 7.0.1 (20221109.1506)
 -->
<!-- Title: Harlinn::Common::Core::Logging::BufferConverter&lt; LogSiteExtractorT, LoggerT &gt;::ThreadData Pages: 1 -->
<svg width="1004pt" height="215pt"
 viewBox="0.00 0.00 1004.00 215.00" xmlns="http://www.w3.org/2000/svg" xmlns:xlink="http://www.w3.org/1999/xlink">
<g id="graph0" class="graph" transform="scale(1 1) rotate(0) translate(4 211)">
<title>Harlinn::Common::Core::Logging::BufferConverter&lt; LogSiteExtractorT, LoggerT &gt;::ThreadData</title>
<!-- Node1 -->
<g id="Node000001" class="node">
<title>Node1</title>
<g id="a_Node000001"><a xlink:title="The data for a LogRecord may span multiple Buffer objects.">
<polygon fill="#999999" stroke="#666666" points="996,-126 852,-126 852,-74 996,-74 996,-126"/>
<text text-anchor="start" x="860" y="-114" font-family="Helvetica,sans-Serif" font-size="10.00">Harlinn::Common::Core</text>
<text text-anchor="start" x="860" y="-103" font-family="Helvetica,sans-Serif" font-size="10.00">::Logging::BufferConverter</text>
<text text-anchor="start" x="860" y="-92" font-family="Helvetica,sans-Serif" font-size="10.00">&lt; LogSiteExtractorT, LoggerT</text>
<text text-anchor="middle" x="924" y="-81" font-family="Helvetica,sans-Serif" font-size="10.00"> &gt;::ThreadData</text>
</a>
</g>
</g>
<!-- Node2 -->
<g id="Node000002" class="node">
<title>Node2</title>
<g id="a_Node000002"><a xlink:href="class_harlinn_1_1_common_1_1_core_1_1_logging_1_1_types_1_1_log_site_data.xhtml" target="_top" xlink:title=" ">
<polygon fill="white" stroke="#666666" points="719,-173 571,-173 571,-143 719,-143 719,-173"/>
<text text-anchor="start" x="579" y="-161" font-family="Helvetica,sans-Serif" font-size="10.00">Harlinn::Common::Core</text>
<text text-anchor="middle" x="645" y="-150" font-family="Helvetica,sans-Serif" font-size="10.00">::Logging::Types::LogSiteData</text>
</a>
</g>
</g>
<!-- Node2&#45;&gt;Node1 -->
<g id="edge1_Node000001_Node000002" class="edge">
<title>Node2&#45;&gt;Node1</title>
<g id="a_edge1_Node000001_Node000002"><a xlink:title=" ">
<path fill="none" stroke="#9a32cd" stroke-dasharray="5,2" d="M730.54,-147.2C763.09,-142.34 800.47,-135.9 834,-128 839.83,-126.62 845.84,-125.06 851.85,-123.4"/>
<polygon fill="#9a32cd" stroke="#9a32cd" points="730.13,-143.73 720.75,-148.64 731.15,-150.65 730.13,-143.73"/>
</a>
</g>
<text text-anchor="middle" x="785.5" y="-149" font-family="Helvetica,sans-Serif" font-size="10.00" fill="grey"> logSite_</text>
</g>
<!-- Node3 -->
<g id="Node000003" class="node">
<title>Node3</title>
<g id="a_Node000003"><a xlink:title=" ">
<polygon fill="white" stroke="#666666" points="407,-190.5 347,-190.5 347,-171.5 407,-171.5 407,-190.5"/>
<text text-anchor="middle" x="377" y="-178.5" font-family="Helvetica,sans-Serif" font-size="10.00">std::string</text>
</a>
</g>
</g>
<!-- Node3&#45;&gt;Node2 -->
<g id="edge2_Node000002_Node000003" class="edge">
<title>Node3&#45;&gt;Node2</title>
<g id="a_edge2_Node000002_Node000003"><a xlink:title=" ">
<path fill="none" stroke="#9a32cd" stroke-dasharray="5,2" d="M418.74,-177.48C459.08,-173.99 521.73,-168.57 570.73,-164.34"/>
<polygon fill="#9a32cd" stroke="#9a32cd" points="418.65,-173.97 408.99,-178.32 419.26,-180.95 418.65,-173.97"/>
</a>
</g>
<text text-anchor="middle" x="503.5" y="-199" font-family="Helvetica,sans-Serif" font-size="10.00" fill="grey"> file_</text>
<text text-anchor="middle" x="503.5" y="-188" font-family="Helvetica,sans-Serif" font-size="10.00" fill="grey">formatString_</text>
<text text-anchor="middle" x="503.5" y="-177" font-family="Helvetica,sans-Serif" font-size="10.00" fill="grey">function_</text>
</g>
<!-- Node4 -->
<g id="Node000004" class="node">
<title>Node4</title>
<g id="a_Node000004"><a xlink:title=" ">
<polygon fill="white" stroke="#666666" points="203,-196 108,-196 108,-166 203,-166 203,-196"/>
<text text-anchor="start" x="116" y="-184" font-family="Helvetica,sans-Serif" font-size="10.00">std::basic_string&lt;</text>
<text text-anchor="middle" x="155.5" y="-173" font-family="Helvetica,sans-Serif" font-size="10.00"> Char &gt;</text>
</a>
</g>
</g>
<!-- Node4&#45;&gt;Node3 -->
<g id="edge3_Node000003_Node000004" class="edge">
<title>Node4&#45;&gt;Node3</title>
<g id="a_edge3_Node000003_Node000004"><a xlink:title=" ">
<path fill="none" stroke="#63b8ff" d="M214.66,-181C257.2,-181 313.14,-181 346.73,-181"/>
<polygon fill="#63b8ff" stroke="#63b8ff" points="214.83,-177.5 204.83,-181 214.83,-184.5 214.83,-177.5"/>
</a>
</g>
</g>
<!-- Node5 -->
<g id="Node000005" class="node">
<title>Node5</title>
<g id="a_Node000005"><a xlink:title=" ">
<polygon fill="white" stroke="#666666" points="427,-123.5 327,-123.5 327,-104.5 427,-104.5 427,-123.5"/>
<text text-anchor="middle" x="377" y="-111.5" font-family="Helvetica,sans-Serif" font-size="10.00">std::vector&lt; Byte &gt;</text>
</a>
</g>
</g>
<!-- Node5&#45;&gt;Node1 -->
<g id="edge14_Node000001_Node000005" class="edge">
<title>Node5&#45;&gt;Node1</title>
<g id="a_edge14_Node000001_Node000005"><a xlink:title=" ">
<path fill="none" stroke="#9a32cd" stroke-dasharray="5,2" d="M438.58,-112.44C539.98,-109.84 743.54,-104.61 851.68,-101.83"/>
<polygon fill="#9a32cd" stroke="#9a32cd" points="438.75,-108.94 428.84,-112.69 438.93,-115.94 438.75,-108.94"/>
</a>
</g>
<text text-anchor="middle" x="645" y="-111" font-family="Helvetica,sans-Serif" font-size="10.00" fill="grey"> argumentsData_</text>
</g>
<!-- Node5&#45;&gt;Node2 -->
<g id="edge4_Node000002_Node000005" class="edge">
<title>Node5&#45;&gt;Node2</title>
<g id="a_edge4_Node000002_Node000005"><a xlink:title=" ">
<path fill="none" stroke="#9a32cd" stroke-dasharray="5,2" d="M438.66,-124.03C477.9,-130.53 529.23,-139.02 570.75,-145.88"/>
<polygon fill="#9a32cd" stroke="#9a32cd" points="439.34,-120.6 428.9,-122.42 438.2,-127.51 439.34,-120.6"/>
</a>
</g>
<text text-anchor="middle" x="503.5" y="-145" font-family="Helvetica,sans-Serif" font-size="10.00" fill="grey"> argumentsDescriptor_</text>
</g>
<!-- Node6 -->
<g id="Node000006" class="node">
<title>Node6</title>
<g id="a_Node000006"><a xlink:title=" ">
<polygon fill="white" stroke="#666666" points="198,-116.5 113,-116.5 113,-97.5 198,-97.5 198,-116.5"/>
<text text-anchor="middle" x="155.5" y="-104.5" font-family="Helvetica,sans-Serif" font-size="10.00">std::vector&lt; T &gt;</text>
</a>
</g>
</g>
<!-- Node6&#45;&gt;Node5 -->
<g id="edge5_Node000005_Node000006" class="edge">
<title>Node6&#45;&gt;Node5</title>
<g id="a_edge5_Node000005_Node000006"><a xlink:title=" ">
<path fill="none" stroke="orange" stroke-dasharray="5,2" d="M209.46,-108.69C245.12,-109.83 291.81,-111.32 326.68,-112.43"/>
<polygon fill="orange" stroke="orange" points="209.92,-105.2 199.82,-108.38 209.7,-112.2 209.92,-105.2"/>
</a>
</g>
<text text-anchor="middle" x="260.5" y="-114" font-family="Helvetica,sans-Serif" font-size="10.00" fill="grey"> &lt; Byte &gt;</text>
</g>
<!-- Node7 -->
<g id="Node000007" class="node">
<title>Node7</title>
<g id="a_Node000007"><a xlink:title=" ">
<polygon fill="white" stroke="#666666" points="29,-96.5 0,-96.5 0,-77.5 29,-77.5 29,-96.5"/>
<text text-anchor="middle" x="14.5" y="-84.5" font-family="Helvetica,sans-Serif" font-size="10.00">T</text>
</a>
</g>
</g>
<!-- Node7&#45;&gt;Node6 -->
<g id="edge6_Node000006_Node000007" class="edge">
<title>Node7&#45;&gt;Node6</title>
<g id="a_edge6_Node000006_Node000007"><a xlink:title=" ">
<path fill="none" stroke="#9a32cd" stroke-dasharray="5,2" d="M40.58,-90.61C60.6,-93.49 89.07,-97.58 112.54,-100.96"/>
<polygon fill="#9a32cd" stroke="#9a32cd" points="41.23,-87.17 30.83,-89.21 40.23,-94.09 41.23,-87.17"/>
</a>
</g>
<text text-anchor="middle" x="68.5" y="-100" font-family="Helvetica,sans-Serif" font-size="10.00" fill="grey"> elements</text>
</g>
<!-- Node13 -->
<g id="Node000013" class="node">
<title>Node13</title>
<g id="a_Node000013"><a xlink:title=" ">
<polygon fill="white" stroke="#666666" points="196,-76.5 115,-76.5 115,-57.5 196,-57.5 196,-76.5"/>
<text text-anchor="middle" x="155.5" y="-64.5" font-family="Helvetica,sans-Serif" font-size="10.00">std::array&lt; T &gt;</text>
</a>
</g>
</g>
<!-- Node7&#45;&gt;Node13 -->
<g id="edge13_Node000013_Node000007" class="edge">
<title>Node7&#45;&gt;Node13</title>
<g id="a_edge13_Node000013_Node000007"><a xlink:title=" ">
<path fill="none" stroke="#9a32cd" stroke-dasharray="5,2" d="M40.27,-77.7C42.52,-77.05 44.79,-76.47 47,-76 69.07,-71.3 94.18,-69.03 114.58,-67.95"/>
<polygon fill="#9a32cd" stroke="#9a32cd" points="39.23,-74.36 30.83,-80.82 41.43,-81 39.23,-74.36"/>
</a>
</g>
<text text-anchor="middle" x="68.5" y="-79" font-family="Helvetica,sans-Serif" font-size="10.00" fill="grey"> elements</text>
</g>
<!-- Node8 -->
<g id="Node000008" class="node">
<title>Node8</title>
<g id="a_Node000008"><a xlink:href="class_harlinn_1_1_common_1_1_core_1_1_guid.xhtml" target="_top" xlink:title="Represents a globally unique identifier (GUID).">
<polygon fill="white" stroke="#666666" points="704,-30 586,-30 586,0 704,0 704,-30"/>
<text text-anchor="start" x="594" y="-18" font-family="Helvetica,sans-Serif" font-size="10.00">Harlinn::Common::Core</text>
<text text-anchor="middle" x="645" y="-7" font-family="Helvetica,sans-Serif" font-size="10.00">::Guid</text>
</a>
</g>
</g>
<!-- Node8&#45;&gt;Node1 -->
<g id="edge7_Node000001_Node000008" class="edge">
<title>Node8&#45;&gt;Node1</title>
<g id="a_edge7_Node000001_Node000008"><a xlink:title=" ">
<path fill="none" stroke="#9a32cd" stroke-dasharray="5,2" d="M715.19,-28.92C751.06,-36.89 795.35,-47.91 834,-61 844.71,-64.62 855.9,-69.02 866.6,-73.54"/>
<polygon fill="#9a32cd" stroke="#9a32cd" points="716.33,-25.59 705.82,-26.87 714.84,-32.43 716.33,-25.59"/>
</a>
</g>
<text text-anchor="middle" x="785.5" y="-64" font-family="Helvetica,sans-Serif" font-size="10.00" fill="grey"> processId_</text>
</g>
<!-- Node9 -->
<g id="Node000009" class="node">
<title>Node9</title>
<g id="a_Node000009"><a xlink:href="struct_harlinn_1_1_common_1_1_core_1_1_guid_1_1_data_t.xhtml" target="_top" xlink:title=" ">
<polygon fill="white" stroke="#666666" points="436,-30 318,-30 318,0 436,0 436,-30"/>
<text text-anchor="start" x="326" y="-18" font-family="Helvetica,sans-Serif" font-size="10.00">Harlinn::Common::Core</text>
<text text-anchor="middle" x="377" y="-7" font-family="Helvetica,sans-Serif" font-size="10.00">::Guid::DataT</text>
</a>
</g>
</g>
<!-- Node9&#45;&gt;Node8 -->
<g id="edge8_Node000008_Node000009" class="edge">
<title>Node9&#45;&gt;Node8</title>
<g id="a_edge8_Node000008_Node000009"><a xlink:title=" ">
<path fill="none" stroke="#9a32cd" stroke-dasharray="5,2" d="M447.88,-15C490.81,-15 545.17,-15 585.76,-15"/>
<polygon fill="#9a32cd" stroke="#9a32cd" points="447.89,-11.5 437.89,-15 447.89,-18.5 447.89,-11.5"/>
</a>
</g>
<text text-anchor="middle" x="503.5" y="-18" font-family="Helvetica,sans-Serif" font-size="10.00" fill="grey"> data_</text>
</g>
<!-- Node10 -->
<g id="Node000010" class="node">
<title>Node10</title>
<g id="a_Node000010"><a xlink:title=" ">
<polygon fill="white" stroke="#666666" points="175.5,-24.5 135.5,-24.5 135.5,-5.5 175.5,-5.5 175.5,-24.5"/>
<text text-anchor="middle" x="155.5" y="-12.5" font-family="Helvetica,sans-Serif" font-size="10.00">GUID</text>
</a>
</g>
</g>
<!-- Node10&#45;&gt;Node9 -->
<g id="edge9_Node000009_Node000010" class="edge">
<title>Node10&#45;&gt;Node9</title>
<g id="a_edge9_Node000009_Node000010"><a xlink:title=" ">
<path fill="none" stroke="#63b8ff" d="M187.39,-15C221.1,-15 275.86,-15 317.71,-15"/>
<polygon fill="#63b8ff" stroke="#63b8ff" points="187.49,-11.5 177.49,-15 187.49,-18.5 187.49,-11.5"/>
</a>
</g>
</g>
<!-- Node11 -->
<g id="Node000011" class="node">
<title>Node11</title>
<g id="a_Node000011"><a xlink:href="class_harlinn_1_1_common_1_1_core_1_1_date_time.xhtml" target="_top" xlink:title=" ">
<polygon fill="white" stroke="#666666" points="704,-78 586,-78 586,-48 704,-48 704,-78"/>
<text text-anchor="start" x="594" y="-66" font-family="Helvetica,sans-Serif" font-size="10.00">Harlinn::Common::Core</text>
<text text-anchor="middle" x="645" y="-55" font-family="Helvetica,sans-Serif" font-size="10.00">::DateTime</text>
</a>
</g>
</g>
<!-- Node11&#45;&gt;Node1 -->
<g id="edge10_Node000001_Node000011" class="edge">
<title>Node11&#45;&gt;Node1</title>
<g id="a_edge10_Node000001_Node000011"><a xlink:title=" ">
<path fill="none" stroke="#9a32cd" stroke-dasharray="5,2" d="M715.8,-72.32C757.32,-77.87 809.85,-84.89 851.64,-90.47"/>
<polygon fill="#9a32cd" stroke="#9a32cd" points="716.28,-68.86 705.91,-71 715.35,-75.8 716.28,-68.86"/>
</a>
</g>
<text text-anchor="middle" x="785.5" y="-91" font-family="Helvetica,sans-Serif" font-size="10.00" fill="grey"> referenceTimestamp_</text>
</g>
<!-- Node12 -->
<g id="Node000012" class="node">
<title>Node12</title>
<g id="a_Node000012"><a xlink:href="class_harlinn_1_1_common_1_1_core_1_1_time_base.xhtml" target="_top" xlink:title=" ">
<polygon fill="white" stroke="#666666" points="436,-79 318,-79 318,-49 436,-49 436,-79"/>
<text text-anchor="start" x="326" y="-67" font-family="Helvetica,sans-Serif" font-size="10.00">Harlinn::Common::Core</text>
<text text-anchor="middle" x="377" y="-56" font-family="Helvetica,sans-Serif" font-size="10.00">::TimeBase</text>
</a>
</g>
</g>
<!-- Node12&#45;&gt;Node11 -->
<g id="edge11_Node000011_Node000012" class="edge">
<title>Node12&#45;&gt;Node11</title>
<g id="a_edge11_Node000011_Node000012"><a xlink:title=" ">
<path fill="none" stroke="#63b8ff" d="M447.88,-63.74C490.81,-63.58 545.17,-63.37 585.76,-63.22"/>
<polygon fill="#63b8ff" stroke="#63b8ff" points="447.88,-60.24 437.89,-63.77 447.9,-67.24 447.88,-60.24"/>
</a>
</g>
</g>
<!-- Node13&#45;&gt;Node12 -->
<g id="edge12_Node000012_Node000013" class="edge">
<title>Node13&#45;&gt;Node12</title>
<g id="a_edge12_Node000012_Node000013"><a xlink:title=" ">
<path fill="none" stroke="#9a32cd" stroke-dasharray="5,2" d="M207.44,-66.3C240.34,-65.85 283.24,-65.27 317.53,-64.8"/>
<polygon fill="#9a32cd" stroke="#9a32cd" points="207.71,-62.8 197.76,-66.44 207.81,-69.8 207.71,-62.8"/>
</a>
</g>
<text text-anchor="middle" x="260.5" y="-80" font-family="Helvetica,sans-Serif" font-size="10.00" fill="grey"> DaysToMonth365</text>
<text text-anchor="middle" x="260.5" y="-69" font-family="Helvetica,sans-Serif" font-size="10.00" fill="grey">DaysToMonth366</text>
</g>
</g>
</svg>
