<?xml version="1.0" encoding="UTF-8" standalone="no"?>
<!DOCTYPE svg PUBLIC "-//W3C//DTD SVG 1.1//EN"
 "http://www.w3.org/Graphics/SVG/1.1/DTD/svg11.dtd">
<!-- Generated by graphviz version 7.0.1 (20221109.1506)
 -->
<!-- Title: Harlinn::Windows::Graphics::D3D12::ShaderResourceViewDesc Pages: 1 -->
<svg width="519pt" height="532pt"
 viewBox="0.00 0.00 519.00 531.50" xmlns="http://www.w3.org/2000/svg" xmlns:xlink="http://www.w3.org/1999/xlink">
<g id="graph0" class="graph" transform="scale(1 1) rotate(0) translate(4 527.5)">
<title>Harlinn::Windows::Graphics::D3D12::ShaderResourceViewDesc</title>
<!-- Node1 -->
<g id="Node000001" class="node">
<title>Node1</title>
<g id="a_Node000001"><a xlink:title="Alias for D3D12_SHADER_RESOURCE_VIEW_DESC.">
<polygon fill="#999999" stroke="#666666" points="511,-281.5 338,-281.5 338,-251.5 511,-251.5 511,-281.5"/>
<text text-anchor="start" x="346" y="-269.5" font-family="Helvetica,sans-Serif" font-size="10.00">Harlinn::Windows::Graphics</text>
<text text-anchor="middle" x="424.5" y="-258.5" font-family="Helvetica,sans-Serif" font-size="10.00">::D3D12::ShaderResourceViewDesc</text>
</a>
</g>
</g>
<!-- Node2 -->
<g id="Node000002" class="node">
<title>Node2</title>
<g id="a_Node000002"><a xlink:href="struct_harlinn_1_1_windows_1_1_graphics_1_1_d3_d12_1_1_buffer_s_r_v.html" target="_top" xlink:title=" ">
<polygon fill="white" stroke="#666666" points="147.5,-521.5 10.5,-521.5 10.5,-491.5 147.5,-491.5 147.5,-521.5"/>
<text text-anchor="start" x="18.5" y="-509.5" font-family="Helvetica,sans-Serif" font-size="10.00">Harlinn::Windows::Graphics</text>
<text text-anchor="middle" x="79" y="-498.5" font-family="Helvetica,sans-Serif" font-size="10.00">::D3D12::BufferSRV</text>
</a>
</g>
</g>
<!-- Node2&#45;&gt;Node1 -->
<g id="edge1_Node000001_Node000002" class="edge">
<title>Node2&#45;&gt;Node1</title>
<g id="a_edge1_Node000001_Node000002"><a xlink:title=" ">
<path fill="none" stroke="#9a32cd" stroke-dasharray="5,2" d="M159.25,-513.52C209.65,-513.94 273.86,-506.57 320,-473.5 387.11,-425.4 413.17,-321.13 420.84,-281.87"/>
<polygon fill="#9a32cd" stroke="#9a32cd" points="159.33,-510.02 149.26,-513.32 159.18,-517.02 159.33,-510.02"/>
</a>
</g>
<text text-anchor="middle" x="248" y="-515.5" font-family="Helvetica,sans-Serif" font-size="10.00" fill="grey"> Buffer</text>
</g>
<!-- Node3 -->
<g id="Node000003" class="node">
<title>Node3</title>
<g id="a_Node000003"><a xlink:href="struct_harlinn_1_1_windows_1_1_graphics_1_1_d3_d12_1_1_tex1_d_s_r_v.html" target="_top" xlink:title=" ">
<polygon fill="white" stroke="#666666" points="147.5,-473.5 10.5,-473.5 10.5,-443.5 147.5,-443.5 147.5,-473.5"/>
<text text-anchor="start" x="18.5" y="-461.5" font-family="Helvetica,sans-Serif" font-size="10.00">Harlinn::Windows::Graphics</text>
<text text-anchor="middle" x="79" y="-450.5" font-family="Helvetica,sans-Serif" font-size="10.00">::D3D12::Tex1DSRV</text>
</a>
</g>
</g>
<!-- Node3&#45;&gt;Node1 -->
<g id="edge2_Node000001_Node000003" class="edge">
<title>Node3&#45;&gt;Node1</title>
<g id="a_edge2_Node000001_Node000003"><a xlink:title=" ">
<path fill="none" stroke="#9a32cd" stroke-dasharray="5,2" d="M159.26,-460.24C208.94,-457.82 272.36,-448.01 320,-417.5 372.46,-383.91 405.26,-313.24 417.75,-281.96"/>
<polygon fill="#9a32cd" stroke="#9a32cd" points="159.29,-456.74 149.43,-460.62 159.56,-463.73 159.29,-456.74"/>
</a>
</g>
<text text-anchor="middle" x="248" y="-461.5" font-family="Helvetica,sans-Serif" font-size="10.00" fill="grey"> Texture1D</text>
</g>
<!-- Node4 -->
<g id="Node000004" class="node">
<title>Node4</title>
<g id="a_Node000004"><a xlink:href="struct_harlinn_1_1_windows_1_1_graphics_1_1_d3_d12_1_1_tex1_d_array_s_r_v.html" target="_top" xlink:title=" ">
<polygon fill="white" stroke="#666666" points="147.5,-425.5 10.5,-425.5 10.5,-395.5 147.5,-395.5 147.5,-425.5"/>
<text text-anchor="start" x="18.5" y="-413.5" font-family="Helvetica,sans-Serif" font-size="10.00">Harlinn::Windows::Graphics</text>
<text text-anchor="middle" x="79" y="-402.5" font-family="Helvetica,sans-Serif" font-size="10.00">::D3D12::Tex1DArraySRV</text>
</a>
</g>
</g>
<!-- Node4&#45;&gt;Node1 -->
<g id="edge3_Node000001_Node000004" class="edge">
<title>Node4&#45;&gt;Node1</title>
<g id="a_edge3_Node000001_Node000004"><a xlink:title=" ">
<path fill="none" stroke="#9a32cd" stroke-dasharray="5,2" d="M159.35,-406.07C207.94,-400.73 270.14,-389.03 320,-363.5 359.46,-343.3 394.6,-303.55 411.98,-281.73"/>
<polygon fill="#9a32cd" stroke="#9a32cd" points="159.04,-402.58 149.44,-407.08 159.75,-409.55 159.04,-402.58"/>
</a>
</g>
<text text-anchor="middle" x="248" y="-405.5" font-family="Helvetica,sans-Serif" font-size="10.00" fill="grey"> Texture1DArray</text>
</g>
<!-- Node5 -->
<g id="Node000005" class="node">
<title>Node5</title>
<g id="a_Node000005"><a xlink:href="struct_harlinn_1_1_windows_1_1_graphics_1_1_d3_d12_1_1_tex2_d_s_r_v.html" target="_top" xlink:title="Alias for D3D12_TEX2D_SRV.">
<polygon fill="white" stroke="#666666" points="147.5,-377.5 10.5,-377.5 10.5,-347.5 147.5,-347.5 147.5,-377.5"/>
<text text-anchor="start" x="18.5" y="-365.5" font-family="Helvetica,sans-Serif" font-size="10.00">Harlinn::Windows::Graphics</text>
<text text-anchor="middle" x="79" y="-354.5" font-family="Helvetica,sans-Serif" font-size="10.00">::D3D12::Tex2DSRV</text>
</a>
</g>
</g>
<!-- Node5&#45;&gt;Node1 -->
<g id="edge4_Node000001_Node000005" class="edge">
<title>Node5&#45;&gt;Node1</title>
<g id="a_edge4_Node000001_Node000005"><a xlink:title=" ">
<path fill="none" stroke="#9a32cd" stroke-dasharray="5,2" d="M159,-352.1C206.43,-344.61 267.54,-332.76 320,-315.5 346.63,-306.74 375.32,-292.77 395.73,-281.98"/>
<polygon fill="#9a32cd" stroke="#9a32cd" points="158.72,-348.6 149.37,-353.58 159.79,-355.52 158.72,-348.6"/>
</a>
</g>
<text text-anchor="middle" x="248" y="-351.5" font-family="Helvetica,sans-Serif" font-size="10.00" fill="grey"> Texture2D</text>
</g>
<!-- Node6 -->
<g id="Node000006" class="node">
<title>Node6</title>
<g id="a_Node000006"><a xlink:href="struct_harlinn_1_1_windows_1_1_graphics_1_1_d3_d12_1_1_tex2_d_array_s_r_v.html" target="_top" xlink:title=" ">
<polygon fill="white" stroke="#666666" points="147.5,-329.5 10.5,-329.5 10.5,-299.5 147.5,-299.5 147.5,-329.5"/>
<text text-anchor="start" x="18.5" y="-317.5" font-family="Helvetica,sans-Serif" font-size="10.00">Harlinn::Windows::Graphics</text>
<text text-anchor="middle" x="79" y="-306.5" font-family="Helvetica,sans-Serif" font-size="10.00">::D3D12::Tex2DArraySRV</text>
</a>
</g>
</g>
<!-- Node6&#45;&gt;Node1 -->
<g id="edge5_Node000001_Node000006" class="edge">
<title>Node6&#45;&gt;Node1</title>
<g id="a_edge5_Node000001_Node000006"><a xlink:title=" ">
<path fill="none" stroke="#9a32cd" stroke-dasharray="5,2" d="M159.07,-303.78C205.87,-297.39 266.33,-289.08 320,-281.5 325.75,-280.69 331.68,-279.84 337.66,-278.99"/>
<polygon fill="#9a32cd" stroke="#9a32cd" points="158.71,-300.29 149.28,-305.11 159.66,-307.23 158.71,-300.29"/>
</a>
</g>
<text text-anchor="middle" x="248" y="-303.5" font-family="Helvetica,sans-Serif" font-size="10.00" fill="grey"> Texture2DArray</text>
</g>
<!-- Node7 -->
<g id="Node000007" class="node">
<title>Node7</title>
<g id="a_Node000007"><a xlink:href="struct_harlinn_1_1_windows_1_1_graphics_1_1_d3_d12_1_1_tex2_d_m_s_s_r_v.html" target="_top" xlink:title="Alias for D3D12_TEX2DMS_SRV.">
<polygon fill="white" stroke="#666666" points="147.5,-281.5 10.5,-281.5 10.5,-251.5 147.5,-251.5 147.5,-281.5"/>
<text text-anchor="start" x="18.5" y="-269.5" font-family="Helvetica,sans-Serif" font-size="10.00">Harlinn::Windows::Graphics</text>
<text text-anchor="middle" x="79" y="-258.5" font-family="Helvetica,sans-Serif" font-size="10.00">::D3D12::Tex2DMSSRV</text>
</a>
</g>
</g>
<!-- Node7&#45;&gt;Node1 -->
<g id="edge6_Node000001_Node000007" class="edge">
<title>Node7&#45;&gt;Node1</title>
<g id="a_edge6_Node000001_Node000007"><a xlink:title=" ">
<path fill="none" stroke="#9a32cd" stroke-dasharray="5,2" d="M159.33,-266.5C212.73,-266.5 283.1,-266.5 337.78,-266.5"/>
<polygon fill="#9a32cd" stroke="#9a32cd" points="159.38,-263 149.38,-266.5 159.38,-270 159.38,-263"/>
</a>
</g>
<text text-anchor="middle" x="248" y="-269.5" font-family="Helvetica,sans-Serif" font-size="10.00" fill="grey"> Texture2DMS</text>
</g>
<!-- Node8 -->
<g id="Node000008" class="node">
<title>Node8</title>
<g id="a_Node000008"><a xlink:href="struct_harlinn_1_1_windows_1_1_graphics_1_1_d3_d12_1_1_tex2_d_m_s_array_s_r_v.html" target="_top" xlink:title="Alias for D3D12_TEX2DMS_ARRAY_SRV.">
<polygon fill="white" stroke="#666666" points="151,-233.5 7,-233.5 7,-203.5 151,-203.5 151,-233.5"/>
<text text-anchor="start" x="15" y="-221.5" font-family="Helvetica,sans-Serif" font-size="10.00">Harlinn::Windows::Graphics</text>
<text text-anchor="middle" x="79" y="-210.5" font-family="Helvetica,sans-Serif" font-size="10.00">::D3D12::Tex2DMSArraySRV</text>
</a>
</g>
</g>
<!-- Node8&#45;&gt;Node1 -->
<g id="edge7_Node000001_Node000008" class="edge">
<title>Node8&#45;&gt;Node1</title>
<g id="a_edge7_Node000001_Node000008"><a xlink:title=" ">
<path fill="none" stroke="#9a32cd" stroke-dasharray="5,2" d="M162.61,-229.71C208.9,-236.03 267.68,-244.11 320,-251.5 325.75,-252.31 331.68,-253.16 337.66,-254.01"/>
<polygon fill="#9a32cd" stroke="#9a32cd" points="163.31,-226.27 152.93,-228.39 162.37,-233.21 163.31,-226.27"/>
</a>
</g>
<text text-anchor="middle" x="248" y="-254.5" font-family="Helvetica,sans-Serif" font-size="10.00" fill="grey"> Texture2DMSArray</text>
</g>
<!-- Node9 -->
<g id="Node000009" class="node">
<title>Node9</title>
<g id="a_Node000009"><a xlink:href="struct_harlinn_1_1_windows_1_1_graphics_1_1_d3_d12_1_1_tex3_d_s_r_v.html" target="_top" xlink:title=" ">
<polygon fill="white" stroke="#666666" points="147.5,-185.5 10.5,-185.5 10.5,-155.5 147.5,-155.5 147.5,-185.5"/>
<text text-anchor="start" x="18.5" y="-173.5" font-family="Helvetica,sans-Serif" font-size="10.00">Harlinn::Windows::Graphics</text>
<text text-anchor="middle" x="79" y="-162.5" font-family="Helvetica,sans-Serif" font-size="10.00">::D3D12::Tex3DSRV</text>
</a>
</g>
</g>
<!-- Node9&#45;&gt;Node1 -->
<g id="edge8_Node000001_Node000009" class="edge">
<title>Node9&#45;&gt;Node1</title>
<g id="a_edge8_Node000001_Node000009"><a xlink:title=" ">
<path fill="none" stroke="#9a32cd" stroke-dasharray="5,2" d="M159.06,-180.35C206.5,-187.56 267.61,-199.16 320,-216.5 347.09,-225.47 376.21,-240.02 396.64,-251.12"/>
<polygon fill="#9a32cd" stroke="#9a32cd" points="159.82,-176.93 149.42,-178.92 158.8,-183.85 159.82,-176.93"/>
</a>
</g>
<text text-anchor="middle" x="248" y="-219.5" font-family="Helvetica,sans-Serif" font-size="10.00" fill="grey"> Texture3D</text>
</g>
<!-- Node10 -->
<g id="Node000010" class="node">
<title>Node10</title>
<g id="a_Node000010"><a xlink:href="struct_harlinn_1_1_windows_1_1_graphics_1_1_d3_d12_1_1_tex_cube_s_r_v.html" target="_top" xlink:title=" ">
<polygon fill="white" stroke="#666666" points="147.5,-137.5 10.5,-137.5 10.5,-107.5 147.5,-107.5 147.5,-137.5"/>
<text text-anchor="start" x="18.5" y="-125.5" font-family="Helvetica,sans-Serif" font-size="10.00">Harlinn::Windows::Graphics</text>
<text text-anchor="middle" x="79" y="-114.5" font-family="Helvetica,sans-Serif" font-size="10.00">::D3D12::TexCubeSRV</text>
</a>
</g>
</g>
<!-- Node10&#45;&gt;Node1 -->
<g id="edge9_Node000001_Node000010" class="edge">
<title>Node10&#45;&gt;Node1</title>
<g id="a_edge9_Node000001_Node000010"><a xlink:title=" ">
<path fill="none" stroke="#9a32cd" stroke-dasharray="5,2" d="M159.17,-125.94C207.82,-130.75 270.16,-141.91 320,-167.5 360.04,-188.05 395.2,-229.03 412.36,-251.28"/>
<polygon fill="#9a32cd" stroke="#9a32cd" points="159.53,-122.46 149.25,-125.04 158.89,-129.43 159.53,-122.46"/>
</a>
</g>
<text text-anchor="middle" x="248" y="-170.5" font-family="Helvetica,sans-Serif" font-size="10.00" fill="grey"> TextureCube</text>
</g>
<!-- Node11 -->
<g id="Node000011" class="node">
<title>Node11</title>
<g id="a_Node000011"><a xlink:href="struct_harlinn_1_1_windows_1_1_graphics_1_1_d3_d12_1_1_tex_cube_array_s_r_v.html" target="_top" xlink:title=" ">
<polygon fill="white" stroke="#666666" points="149,-89.5 9,-89.5 9,-59.5 149,-59.5 149,-89.5"/>
<text text-anchor="start" x="17" y="-77.5" font-family="Helvetica,sans-Serif" font-size="10.00">Harlinn::Windows::Graphics</text>
<text text-anchor="middle" x="79" y="-66.5" font-family="Helvetica,sans-Serif" font-size="10.00">::D3D12::TexCubeArraySRV</text>
</a>
</g>
</g>
<!-- Node11&#45;&gt;Node1 -->
<g id="edge10_Node000001_Node000011" class="edge">
<title>Node11&#45;&gt;Node1</title>
<g id="a_edge10_Node000001_Node000011"><a xlink:title=" ">
<path fill="none" stroke="#9a32cd" stroke-dasharray="5,2" d="M160.58,-71.94C210.07,-73.97 272.81,-83.35 320,-113.5 373.24,-147.52 405.83,-219.78 418.02,-251.29"/>
<polygon fill="#9a32cd" stroke="#9a32cd" points="160.89,-68.45 150.78,-71.64 160.67,-75.44 160.89,-68.45"/>
</a>
</g>
<text text-anchor="middle" x="248" y="-116.5" font-family="Helvetica,sans-Serif" font-size="10.00" fill="grey"> TextureCubeArray</text>
</g>
<!-- Node12 -->
<g id="Node000012" class="node">
<title>Node12</title>
<g id="a_Node000012"><a xlink:href="struct_harlinn_1_1_windows_1_1_graphics_1_1_d3_d12_1_1_raytracing_acceleration_structure_s_r_v.html" target="_top" xlink:title="Alias for D3D12_RAYTRACING_ACCELERATION_STRUCTURE_SRV.">
<polygon fill="white" stroke="#666666" points="158,-41 0,-41 0,0 158,0 158,-41"/>
<text text-anchor="start" x="8" y="-29" font-family="Helvetica,sans-Serif" font-size="10.00">Harlinn::Windows::Graphics</text>
<text text-anchor="start" x="8" y="-18" font-family="Helvetica,sans-Serif" font-size="10.00">::D3D12::RaytracingAcceleration</text>
<text text-anchor="middle" x="79" y="-7" font-family="Helvetica,sans-Serif" font-size="10.00">StructureSRV</text>
</a>
</g>
</g>
<!-- Node12&#45;&gt;Node1 -->
<g id="edge11_Node000001_Node000012" class="edge">
<title>Node12&#45;&gt;Node1</title>
<g id="a_edge11_Node000001_Node000012"><a xlink:title=" ">
<path fill="none" stroke="#9a32cd" stroke-dasharray="5,2" d="M169.76,-15.16C218.42,-16.68 277.17,-26.14 320,-57.5 387.14,-106.65 413.18,-211.57 420.84,-251.05"/>
<polygon fill="#9a32cd" stroke="#9a32cd" points="169.85,-11.66 159.78,-14.97 169.71,-18.66 169.85,-11.66"/>
</a>
</g>
<text text-anchor="middle" x="248" y="-60.5" font-family="Helvetica,sans-Serif" font-size="10.00" fill="grey"> RaytracingAccelerationStructure</text>
</g>
</g>
</svg>
