<?xml version="1.0" encoding="UTF-8" standalone="no"?>
<!DOCTYPE svg PUBLIC "-//W3C//DTD SVG 1.1//EN"
 "http://www.w3.org/Graphics/SVG/1.1/DTD/svg11.dtd">
<!-- Generated by graphviz version 7.0.1 (20221109.1506)
 -->
<!-- Title: Harlinn::Common::Core::Math::Quaternion&lt; T &gt;::AxisAngle Pages: 1 -->
<svg width="739pt" height="86pt"
 viewBox="0.00 0.00 739.00 86.00" xmlns="http://www.w3.org/2000/svg" xmlns:xlink="http://www.w3.org/1999/xlink">
<g id="graph0" class="graph" transform="scale(1 1) rotate(0) translate(4 82)">
<title>Harlinn::Common::Core::Math::Quaternion&lt; T &gt;::AxisAngle</title>
<!-- Node1 -->
<g id="Node000001" class="node">
<title>Node1</title>
<g id="a_Node000001"><a xlink:title=" ">
<polygon fill="#999999" stroke="#666666" points="731,-47 613,-47 613,-6 731,-6 731,-47"/>
<text text-anchor="start" x="621" y="-35" font-family="Helvetica,sans-Serif" font-size="10.00">Harlinn::Common::Core</text>
<text text-anchor="start" x="621" y="-24" font-family="Helvetica,sans-Serif" font-size="10.00">::Math::Quaternion&lt; T</text>
<text text-anchor="middle" x="672" y="-13" font-family="Helvetica,sans-Serif" font-size="10.00"> &gt;::AxisAngle</text>
</a>
</g>
</g>
<!-- Node2 -->
<g id="Node000002" class="node">
<title>Node2</title>
<g id="a_Node000002"><a xlink:href="class_harlinn_1_1_common_1_1_core_1_1_math_1_1_vector.html" target="_top" xlink:title=" ">
<polygon fill="white" stroke="#666666" points="549,-78 431,-78 431,-37 549,-37 549,-78"/>
<text text-anchor="start" x="439" y="-66" font-family="Helvetica,sans-Serif" font-size="10.00">Harlinn::Common::Core</text>
<text text-anchor="start" x="439" y="-55" font-family="Helvetica,sans-Serif" font-size="10.00">::Math::Vector&lt; value</text>
<text text-anchor="middle" x="490" y="-44" font-family="Helvetica,sans-Serif" font-size="10.00">_type, 3 &gt;</text>
</a>
</g>
</g>
<!-- Node2&#45;&gt;Node1 -->
<g id="edge1_Node000001_Node000002" class="edge">
<title>Node2&#45;&gt;Node1</title>
<g id="a_edge1_Node000001_Node000002"><a xlink:title=" ">
<path fill="none" stroke="#9a32cd" stroke-dasharray="5,2" d="M560.55,-45.52C577.73,-42.56 595.95,-39.42 612.54,-36.57"/>
<polygon fill="#9a32cd" stroke="#9a32cd" points="560.19,-42.03 550.93,-47.18 561.38,-48.93 560.19,-42.03"/>
</a>
</g>
<text text-anchor="middle" x="581" y="-46.5" font-family="Helvetica,sans-Serif" font-size="10.00" fill="grey"> Axis</text>
</g>
<!-- Node3 -->
<g id="Node000003" class="node">
<title>Node3</title>
<g id="a_Node000003"><a xlink:href="struct_harlinn_1_1_common_1_1_core_1_1_math_1_1_internal_1_1_vector_base.html" target="_top" xlink:title=" ">
<polygon fill="white" stroke="#666666" points="139,-67.5 0,-67.5 0,-37.5 139,-37.5 139,-67.5"/>
<text text-anchor="start" x="8" y="-55.5" font-family="Helvetica,sans-Serif" font-size="10.00">Harlinn::Common::Core</text>
<text text-anchor="middle" x="69.5" y="-44.5" font-family="Helvetica,sans-Serif" font-size="10.00">::Math::Internal::VectorBase</text>
</a>
</g>
</g>
<!-- Node3&#45;&gt;Node2 -->
<g id="edge2_Node000002_Node000003" class="edge">
<title>Node3&#45;&gt;Node2</title>
<g id="a_edge2_Node000002_Node000003"><a xlink:title=" ">
<path fill="none" stroke="#63b8ff" d="M150.77,-55.3C152.87,-55.37 154.95,-55.44 157,-55.5 270.74,-59.08 299.22,-62.74 413,-60.5 418.68,-60.39 424.59,-60.23 430.5,-60.04"/>
<polygon fill="#63b8ff" stroke="#63b8ff" points="151.05,-51.81 140.94,-54.98 150.83,-58.81 151.05,-51.81"/>
</a>
</g>
</g>
<!-- Node4 -->
<g id="Node000004" class="node">
<title>Node4</title>
<g id="a_Node000004"><a xlink:href="class_harlinn_1_1_common_1_1_core_1_1_math_1_1_vector.html" target="_top" xlink:title=" ">
<polygon fill="white" stroke="#666666" points="316,-46.5 176,-46.5 176,-16.5 316,-16.5 316,-46.5"/>
<text text-anchor="start" x="184" y="-34.5" font-family="Helvetica,sans-Serif" font-size="10.00">Harlinn::Common::Core</text>
<text text-anchor="middle" x="246" y="-23.5" font-family="Helvetica,sans-Serif" font-size="10.00">::Math::Vector&lt; ValueT, N &gt;</text>
</a>
</g>
</g>
<!-- Node3&#45;&gt;Node4 -->
<g id="edge4_Node000004_Node000003" class="edge">
<title>Node3&#45;&gt;Node4</title>
<g id="a_edge4_Node000004_Node000003"><a xlink:title=" ">
<path fill="none" stroke="#63b8ff" d="M150.74,-42.84C159.07,-41.84 167.48,-40.83 175.68,-39.84"/>
<polygon fill="#63b8ff" stroke="#63b8ff" points="150.48,-39.35 140.97,-44.02 151.32,-46.3 150.48,-39.35"/>
</a>
</g>
</g>
<!-- Node4&#45;&gt;Node2 -->
<g id="edge3_Node000002_Node000004" class="edge">
<title>Node4&#45;&gt;Node2</title>
<g id="a_edge3_Node000002_Node000004"><a xlink:title=" ">
<path fill="none" stroke="orange" stroke-dasharray="5,2" d="M327.59,-40.16C361.31,-43.78 399.77,-47.91 430.69,-51.24"/>
<polygon fill="orange" stroke="orange" points="328.17,-36.7 317.85,-39.11 327.42,-43.66 328.17,-36.7"/>
</a>
</g>
<text text-anchor="middle" x="373.5" y="-51.5" font-family="Helvetica,sans-Serif" font-size="10.00" fill="grey"> &lt; value_type, 3 &gt;</text>
</g>
<!-- Node5 -->
<g id="Node000005" class="node">
<title>Node5</title>
<g id="a_Node000005"><a xlink:title=" ">
<polygon fill="white" stroke="#666666" points="504.5,-19 475.5,-19 475.5,0 504.5,0 504.5,-19"/>
<text text-anchor="middle" x="490" y="-7" font-family="Helvetica,sans-Serif" font-size="10.00">T</text>
</a>
</g>
</g>
<!-- Node5&#45;&gt;Node1 -->
<g id="edge5_Node000001_Node000005" class="edge">
<title>Node5&#45;&gt;Node1</title>
<g id="a_edge5_Node000001_Node000005"><a xlink:title=" ">
<path fill="none" stroke="#9a32cd" stroke-dasharray="5,2" d="M516.27,-11.15C537.35,-12.6 568.16,-14.88 595,-17.5 600.69,-18.06 606.61,-18.68 612.52,-19.33"/>
<polygon fill="#9a32cd" stroke="#9a32cd" points="516.53,-7.66 506.32,-10.48 516.06,-14.65 516.53,-7.66"/>
</a>
</g>
<text text-anchor="middle" x="581" y="-20.5" font-family="Helvetica,sans-Serif" font-size="10.00" fill="grey"> Angle</text>
</g>
</g>
</svg>
