<?xml version="1.0" encoding="UTF-8" standalone="no"?>
<!DOCTYPE svg PUBLIC "-//W3C//DTD SVG 1.1//EN"
 "http://www.w3.org/Graphics/SVG/1.1/DTD/svg11.dtd">
<!-- Generated by graphviz version 7.0.1 (20221109.1506)
 -->
<!-- Title: Harlinn::Common::Core::Types::Internal::ContainerTypeTraits&lt; RT, std::stack&lt; T, Cnr &gt; &gt; Pages: 1 -->
<svg width="751pt" height="82pt"
 viewBox="0.00 0.00 751.00 81.50" xmlns="http://www.w3.org/2000/svg" xmlns:xlink="http://www.w3.org/1999/xlink">
<g id="graph0" class="graph" transform="scale(1 1) rotate(0) translate(4 77.5)">
<title>Harlinn::Common::Core::Types::Internal::ContainerTypeTraits&lt; RT, std::stack&lt; T, Cnr &gt; &gt;</title>
<!-- Node1 -->
<g id="Node000001" class="node">
<title>Node1</title>
<g id="a_Node000001"><a xlink:title=" ">
<polygon fill="#999999" stroke="#666666" points="743,-73.5 609,-73.5 609,-21.5 743,-21.5 743,-73.5"/>
<text text-anchor="start" x="617" y="-61.5" font-family="Helvetica,sans-Serif" font-size="10.00">Harlinn::Common::Core</text>
<text text-anchor="start" x="617" y="-50.5" font-family="Helvetica,sans-Serif" font-size="10.00">::Types::Internal::Container</text>
<text text-anchor="start" x="617" y="-39.5" font-family="Helvetica,sans-Serif" font-size="10.00">TypeTraits&lt; RT, std::stack</text>
<text text-anchor="middle" x="676" y="-28.5" font-family="Helvetica,sans-Serif" font-size="10.00">&lt; T, Cnr &gt; &gt;</text>
</a>
</g>
</g>
<!-- Node2 -->
<g id="Node000002" class="node">
<title>Node2</title>
<g id="a_Node000002"><a xlink:href="struct_harlinn_1_1_common_1_1_core_1_1_types_1_1_internal_1_1_container_type_traits_base.xhtml" target="_top" xlink:title=" ">
<polygon fill="white" stroke="#666666" points="572,-73.5 435,-73.5 435,-21.5 572,-21.5 572,-73.5"/>
<text text-anchor="start" x="443" y="-61.5" font-family="Helvetica,sans-Serif" font-size="10.00">Harlinn::Common::Core</text>
<text text-anchor="start" x="443" y="-50.5" font-family="Helvetica,sans-Serif" font-size="10.00">::Types::Internal::Container</text>
<text text-anchor="start" x="443" y="-39.5" font-family="Helvetica,sans-Serif" font-size="10.00">TypeTraitsBase&lt; std::stack</text>
<text text-anchor="middle" x="503.5" y="-28.5" font-family="Helvetica,sans-Serif" font-size="10.00">&lt; T, Cnr &gt;, RT &gt;</text>
</a>
</g>
</g>
<!-- Node2&#45;&gt;Node1 -->
<g id="edge1_Node000001_Node000002" class="edge">
<title>Node2&#45;&gt;Node1</title>
<g id="a_edge1_Node000001_Node000002"><a xlink:title=" ">
<path fill="none" stroke="#63b8ff" d="M583.72,-47.5C592.09,-47.5 600.54,-47.5 608.75,-47.5"/>
<polygon fill="#63b8ff" stroke="#63b8ff" points="583.89,-44 573.89,-47.5 583.89,-51 583.89,-44"/>
</a>
</g>
</g>
<!-- Node3 -->
<g id="Node000003" class="node">
<title>Node3</title>
<g id="a_Node000003"><a xlink:href="struct_harlinn_1_1_common_1_1_core_1_1_types_1_1_internal_1_1_type_traits_base.xhtml" target="_top" xlink:title=" ">
<polygon fill="white" stroke="#666666" points="137,-65 0,-65 0,-24 137,-24 137,-65"/>
<text text-anchor="start" x="8" y="-53" font-family="Helvetica,sans-Serif" font-size="10.00">Harlinn::Common::Core</text>
<text text-anchor="start" x="8" y="-42" font-family="Helvetica,sans-Serif" font-size="10.00">::Types::Internal::TypeTraits</text>
<text text-anchor="middle" x="68.5" y="-31" font-family="Helvetica,sans-Serif" font-size="10.00">Base&lt; T, RT &gt;</text>
</a>
</g>
</g>
<!-- Node3&#45;&gt;Node2 -->
<g id="edge2_Node000002_Node000003" class="edge">
<title>Node3&#45;&gt;Node2</title>
<g id="a_edge2_Node000002_Node000003"><a xlink:title=" ">
<path fill="none" stroke="#63b8ff" d="M148.87,-50.54C219.32,-55.07 325.05,-59.79 417,-55.5 422.81,-55.23 428.83,-54.85 434.87,-54.42"/>
<polygon fill="#63b8ff" stroke="#63b8ff" points="149.16,-47.06 138.95,-49.89 148.7,-54.04 149.16,-47.06"/>
</a>
</g>
</g>
<!-- Node4 -->
<g id="Node000004" class="node">
<title>Node4</title>
<g id="a_Node000004"><a xlink:href="struct_harlinn_1_1_common_1_1_core_1_1_types_1_1_internal_1_1_container_type_traits_base.xhtml" target="_top" xlink:title=" ">
<polygon fill="white" stroke="#666666" points="308,-41 174,-41 174,0 308,0 308,-41"/>
<text text-anchor="start" x="182" y="-29" font-family="Helvetica,sans-Serif" font-size="10.00">Harlinn::Common::Core</text>
<text text-anchor="start" x="182" y="-18" font-family="Helvetica,sans-Serif" font-size="10.00">::Types::Internal::Container</text>
<text text-anchor="middle" x="241" y="-7" font-family="Helvetica,sans-Serif" font-size="10.00">TypeTraitsBase&lt; T, RT &gt;</text>
</a>
</g>
</g>
<!-- Node3&#45;&gt;Node4 -->
<g id="edge4_Node000004_Node000003" class="edge">
<title>Node3&#45;&gt;Node4</title>
<g id="a_edge4_Node000004_Node000003"><a xlink:title=" ">
<path fill="none" stroke="#63b8ff" d="M148.72,-33.35C157.09,-32.17 165.54,-30.98 173.75,-29.83"/>
<polygon fill="#63b8ff" stroke="#63b8ff" points="148.29,-29.87 138.87,-34.73 149.27,-36.81 148.29,-29.87"/>
</a>
</g>
</g>
<!-- Node4&#45;&gt;Node2 -->
<g id="edge3_Node000002_Node000004" class="edge">
<title>Node4&#45;&gt;Node2</title>
<g id="a_edge3_Node000002_Node000004"><a xlink:title=" ">
<path fill="none" stroke="orange" stroke-dasharray="5,2" d="M319.61,-24.79C350.04,-26.86 385.21,-29.72 417,-33.5 422.83,-34.19 428.86,-35 434.91,-35.87"/>
<polygon fill="orange" stroke="orange" points="319.92,-21.3 309.71,-24.14 319.45,-28.29 319.92,-21.3"/>
</a>
</g>
<text text-anchor="start" x="326" y="-47.5" font-family="Helvetica,sans-Serif" font-size="10.00" fill="grey"> &lt; std::stack&lt; T, Cnr</text>
<text text-anchor="middle" x="371.5" y="-36.5" font-family="Helvetica,sans-Serif" font-size="10.00" fill="grey"> &gt;, RT &gt;</text>
</g>
</g>
</svg>
