<?xml version="1.0" encoding="UTF-8" standalone="no"?>
<!DOCTYPE svg PUBLIC "-//W3C//DTD SVG 1.1//EN"
 "http://www.w3.org/Graphics/SVG/1.1/DTD/svg11.dtd">
<!-- Generated by graphviz version 7.0.1 (20221109.1506)
 -->
<!-- Title: Harlinn::Windows::Graphics::D3D12::SerializedRaytracingAccelerationStructureHeader Pages: 1 -->
<svg width="309pt" height="357pt"
 viewBox="0.00 0.00 309.00 357.00" xmlns="http://www.w3.org/2000/svg" xmlns:xlink="http://www.w3.org/1999/xlink">
<g id="graph0" class="graph" transform="scale(1 1) rotate(0) translate(4 353)">
<title>Harlinn::Windows::Graphics::D3D12::SerializedRaytracingAccelerationStructureHeader</title>
<!-- Node1 -->
<g id="Node000001" class="node">
<title>Node1</title>
<g id="a_Node000001"><a xlink:title=" ">
<polygon fill="#999999" stroke="#666666" points="227.5,-41 26.5,-41 26.5,0 227.5,0 227.5,-41"/>
<text text-anchor="start" x="34.5" y="-29" font-family="Helvetica,sans-Serif" font-size="10.00">Harlinn::Windows::Graphics</text>
<text text-anchor="start" x="34.5" y="-18" font-family="Helvetica,sans-Serif" font-size="10.00">::D3D12::SerializedRaytracingAcceleration</text>
<text text-anchor="middle" x="127" y="-7" font-family="Helvetica,sans-Serif" font-size="10.00">StructureHeader</text>
</a>
</g>
</g>
<!-- Node2 -->
<g id="Node000002" class="node">
<title>Node2</title>
<g id="a_Node000002"><a xlink:href="struct_harlinn_1_1_windows_1_1_graphics_1_1_d3_d12_1_1_serialized_data_driver_matching_identifier.html" target="_top" xlink:title=" ">
<polygon fill="white" stroke="#666666" points="219.5,-129 34.5,-129 34.5,-88 219.5,-88 219.5,-129"/>
<text text-anchor="start" x="42.5" y="-117" font-family="Helvetica,sans-Serif" font-size="10.00">Harlinn::Windows::Graphics</text>
<text text-anchor="start" x="42.5" y="-106" font-family="Helvetica,sans-Serif" font-size="10.00">::D3D12::SerializedDataDriverMatching</text>
<text text-anchor="middle" x="127" y="-95" font-family="Helvetica,sans-Serif" font-size="10.00">Identifier</text>
</a>
</g>
</g>
<!-- Node2&#45;&gt;Node1 -->
<g id="edge1_Node000001_Node000002" class="edge">
<title>Node2&#45;&gt;Node1</title>
<g id="a_edge1_Node000001_Node000002"><a xlink:title=" ">
<path fill="none" stroke="#9a32cd" stroke-dasharray="5,2" d="M127,-76.06C127,-64.45 127,-51.63 127,-41.34"/>
<polygon fill="#9a32cd" stroke="#9a32cd" points="123.5,-76.04 127,-86.04 130.5,-76.04 123.5,-76.04"/>
</a>
</g>
<text text-anchor="middle" x="178.5" y="-62" font-family="Helvetica,sans-Serif" font-size="10.00" fill="grey"> DriverMatchingIdentifier</text>
</g>
<!-- Node3 -->
<g id="Node000003" class="node">
<title>Node3</title>
<g id="a_Node000003"><a xlink:href="class_harlinn_1_1_common_1_1_core_1_1_guid.html" target="_top" xlink:title="Represents a globally unique identifier (GUID).">
<polygon fill="white" stroke="#666666" points="118,-206 0,-206 0,-176 118,-176 118,-206"/>
<text text-anchor="start" x="8" y="-194" font-family="Helvetica,sans-Serif" font-size="10.00">Harlinn::Common::Core</text>
<text text-anchor="middle" x="59" y="-183" font-family="Helvetica,sans-Serif" font-size="10.00">::Guid</text>
</a>
</g>
</g>
<!-- Node3&#45;&gt;Node2 -->
<g id="edge2_Node000002_Node000003" class="edge">
<title>Node3&#45;&gt;Node2</title>
<g id="a_edge2_Node000002_Node000003"><a xlink:title=" ">
<path fill="none" stroke="#9a32cd" stroke-dasharray="5,2" d="M69.39,-165.39C72.63,-159.08 76.54,-152.51 81,-147 86.18,-140.59 92.62,-134.52 99.02,-129.21"/>
<polygon fill="#9a32cd" stroke="#9a32cd" points="66.34,-163.66 65.23,-174.2 72.67,-166.65 66.34,-163.66"/>
</a>
</g>
<text text-anchor="middle" x="123.5" y="-150" font-family="Helvetica,sans-Serif" font-size="10.00" fill="grey"> DriverOpaqueGUID</text>
</g>
<!-- Node4 -->
<g id="Node000004" class="node">
<title>Node4</title>
<g id="a_Node000004"><a xlink:href="struct_harlinn_1_1_common_1_1_core_1_1_guid_1_1_data_t.html" target="_top" xlink:title=" ">
<polygon fill="white" stroke="#666666" points="118,-283 0,-283 0,-253 118,-253 118,-283"/>
<text text-anchor="start" x="8" y="-271" font-family="Helvetica,sans-Serif" font-size="10.00">Harlinn::Common::Core</text>
<text text-anchor="middle" x="59" y="-260" font-family="Helvetica,sans-Serif" font-size="10.00">::Guid::DataT</text>
</a>
</g>
</g>
<!-- Node4&#45;&gt;Node3 -->
<g id="edge3_Node000003_Node000004" class="edge">
<title>Node4&#45;&gt;Node3</title>
<g id="a_edge3_Node000003_Node000004"><a xlink:title=" ">
<path fill="none" stroke="#9a32cd" stroke-dasharray="5,2" d="M59,-241.23C59,-229.58 59,-216.26 59,-206.42"/>
<polygon fill="#9a32cd" stroke="#9a32cd" points="55.5,-241.03 59,-251.03 62.5,-241.03 55.5,-241.03"/>
</a>
</g>
<text text-anchor="middle" x="73" y="-227" font-family="Helvetica,sans-Serif" font-size="10.00" fill="grey"> data_</text>
</g>
<!-- Node5 -->
<g id="Node000005" class="node">
<title>Node5</title>
<g id="a_Node000005"><a xlink:title=" ">
<polygon fill="white" stroke="#666666" points="79,-349 39,-349 39,-330 79,-330 79,-349"/>
<text text-anchor="middle" x="59" y="-337" font-family="Helvetica,sans-Serif" font-size="10.00">GUID</text>
</a>
</g>
</g>
<!-- Node5&#45;&gt;Node4 -->
<g id="edge4_Node000004_Node000005" class="edge">
<title>Node5&#45;&gt;Node4</title>
<g id="a_edge4_Node000004_Node000005"><a xlink:title=" ">
<path fill="none" stroke="#63b8ff" d="M59,-318.39C59,-307.15 59,-293.41 59,-283.27"/>
<polygon fill="#63b8ff" stroke="#63b8ff" points="55.5,-318.18 59,-328.18 62.5,-318.18 55.5,-318.18"/>
</a>
</g>
</g>
<!-- Node6 -->
<g id="Node000006" class="node">
<title>Node6</title>
<g id="a_Node000006"><a xlink:title=" ">
<polygon fill="white" stroke="#666666" points="254,-200.5 136,-200.5 136,-181.5 254,-181.5 254,-200.5"/>
<text text-anchor="middle" x="195" y="-188.5" font-family="Helvetica,sans-Serif" font-size="10.00">std::array&lt; BYTE, 16 &gt;</text>
</a>
</g>
</g>
<!-- Node6&#45;&gt;Node2 -->
<g id="edge5_Node000002_Node000006" class="edge">
<title>Node6&#45;&gt;Node2</title>
<g id="a_edge5_Node000002_Node000006"><a xlink:title=" ">
<path fill="none" stroke="#9a32cd" stroke-dasharray="5,2" d="M183.68,-171.39C178.63,-163.59 172.37,-154.58 166,-147 160.92,-140.96 154.98,-134.85 149.28,-129.36"/>
<polygon fill="#9a32cd" stroke="#9a32cd" points="180.65,-173.15 188.93,-179.76 186.58,-169.43 180.65,-173.15"/>
</a>
</g>
<text text-anchor="middle" x="237.5" y="-150" font-family="Helvetica,sans-Serif" font-size="10.00" fill="grey"> DriverOpaqueVersioningData</text>
</g>
<!-- Node7 -->
<g id="Node000007" class="node">
<title>Node7</title>
<g id="a_Node000007"><a xlink:title=" ">
<polygon fill="white" stroke="#666666" points="235.5,-277.5 154.5,-277.5 154.5,-258.5 235.5,-258.5 235.5,-277.5"/>
<text text-anchor="middle" x="195" y="-265.5" font-family="Helvetica,sans-Serif" font-size="10.00">std::array&lt; T &gt;</text>
</a>
</g>
</g>
<!-- Node7&#45;&gt;Node6 -->
<g id="edge6_Node000006_Node000007" class="edge">
<title>Node7&#45;&gt;Node6</title>
<g id="a_edge6_Node000006_Node000007"><a xlink:title=" ">
<path fill="none" stroke="orange" stroke-dasharray="5,2" d="M195,-246.92C195,-231.93 195,-212.16 195,-200.89"/>
<polygon fill="orange" stroke="orange" points="191.5,-246.59 195,-256.59 198.5,-246.59 191.5,-246.59"/>
</a>
</g>
<text text-anchor="middle" x="227" y="-227" font-family="Helvetica,sans-Serif" font-size="10.00" fill="grey"> &lt; BYTE, 16 &gt;</text>
</g>
<!-- Node8 -->
<g id="Node000008" class="node">
<title>Node8</title>
<g id="a_Node000008"><a xlink:title=" ">
<polygon fill="white" stroke="#666666" points="209.5,-349 180.5,-349 180.5,-330 209.5,-330 209.5,-349"/>
<text text-anchor="middle" x="195" y="-337" font-family="Helvetica,sans-Serif" font-size="10.00">T</text>
</a>
</g>
</g>
<!-- Node8&#45;&gt;Node7 -->
<g id="edge7_Node000007_Node000008" class="edge">
<title>Node8&#45;&gt;Node7</title>
<g id="a_edge7_Node000007_Node000008"><a xlink:title=" ">
<path fill="none" stroke="#9a32cd" stroke-dasharray="5,2" d="M195,-318.3C195,-304.94 195,-288.09 195,-277.95"/>
<polygon fill="#9a32cd" stroke="#9a32cd" points="191.5,-318.18 195,-328.18 198.5,-318.18 191.5,-318.18"/>
</a>
</g>
<text text-anchor="middle" x="216.5" y="-304" font-family="Helvetica,sans-Serif" font-size="10.00" fill="grey"> elements</text>
</g>
</g>
</svg>
