<?xml version="1.0" encoding="UTF-8" standalone="no"?>
<!DOCTYPE svg PUBLIC "-//W3C//DTD SVG 1.1//EN"
 "http://www.w3.org/Graphics/SVG/1.1/DTD/svg11.dtd">
<!-- Generated by graphviz version 7.0.1 (20221109.1506)
 -->
<!-- Title: Harlinn::AI::ONNX::DirectML::ComputeMessageParams Pages: 1 -->
<svg width="1044pt" height="146pt"
 viewBox="0.00 0.00 1044.00 146.00" xmlns="http://www.w3.org/2000/svg" xmlns:xlink="http://www.w3.org/1999/xlink">
<g id="graph0" class="graph" transform="scale(1 1) rotate(0) translate(4 142)">
<title>Harlinn::AI::ONNX::DirectML::ComputeMessageParams</title>
<!-- Node1 -->
<g id="Node000001" class="node">
<title>Node1</title>
<g id="a_Node000001"><a xlink:title=" ">
<polygon fill="#999999" stroke="#666666" points="1036,-108 862,-108 862,-78 1036,-78 1036,-108"/>
<text text-anchor="start" x="870" y="-96" font-family="Helvetica,sans-Serif" font-size="10.00">Harlinn::AI::ONNX::</text>
<text text-anchor="middle" x="949" y="-85" font-family="Helvetica,sans-Serif" font-size="10.00">DirectML::ComputeMessageParams</text>
</a>
</g>
</g>
<!-- Node2 -->
<g id="Node000002" class="node">
<title>Node2</title>
<g id="a_Node000002"><a xlink:href="class_harlinn_1_1_common_1_1_core_1_1_binary.html" target="_top" xlink:title="A reference counted buffer, primarily intended for binary data.">
<polygon fill="white" stroke="#666666" points="764,-135 646,-135 646,-105 764,-105 764,-135"/>
<text text-anchor="start" x="654" y="-123" font-family="Helvetica,sans-Serif" font-size="10.00">Harlinn::Common::Core</text>
<text text-anchor="middle" x="705" y="-112" font-family="Helvetica,sans-Serif" font-size="10.00">::Binary</text>
</a>
</g>
</g>
<!-- Node2&#45;&gt;Node1 -->
<g id="edge1_Node000001_Node000002" class="edge">
<title>Node2&#45;&gt;Node1</title>
<g id="a_edge1_Node000001_Node000002"><a xlink:title=" ">
<path fill="none" stroke="#9a32cd" stroke-dasharray="5,2" d="M775.53,-112.24C802.44,-109.24 833.53,-105.77 861.83,-102.61"/>
<polygon fill="#9a32cd" stroke="#9a32cd" points="775.33,-108.74 765.78,-113.33 776.1,-115.7 775.33,-108.74"/>
</a>
</g>
<text text-anchor="middle" x="815" y="-113" font-family="Helvetica,sans-Serif" font-size="10.00" fill="grey"> buffer</text>
</g>
<!-- Node3 -->
<g id="Node000003" class="node">
<title>Node3</title>
<g id="a_Node000003"><a xlink:href="struct_harlinn_1_1_common_1_1_core_1_1_binary_1_1_data.html" target="_top" xlink:title=" ">
<polygon fill="white" stroke="#666666" points="567.5,-138 449.5,-138 449.5,-108 567.5,-108 567.5,-138"/>
<text text-anchor="start" x="457.5" y="-126" font-family="Helvetica,sans-Serif" font-size="10.00">Harlinn::Common::Core</text>
<text text-anchor="middle" x="508.5" y="-115" font-family="Helvetica,sans-Serif" font-size="10.00">::Binary::Data</text>
</a>
</g>
</g>
<!-- Node3&#45;&gt;Node2 -->
<g id="edge2_Node000002_Node000003" class="edge">
<title>Node3&#45;&gt;Node2</title>
<g id="a_edge2_Node000002_Node000003"><a xlink:title=" ">
<path fill="none" stroke="#9a32cd" stroke-dasharray="5,2" d="M579.36,-121.92C601.09,-121.59 624.82,-121.22 645.68,-120.9"/>
<polygon fill="#9a32cd" stroke="#9a32cd" points="579.31,-118.42 569.37,-122.08 579.42,-125.42 579.31,-118.42"/>
</a>
</g>
<text text-anchor="middle" x="610" y="-124" font-family="Helvetica,sans-Serif" font-size="10.00" fill="grey"> data_</text>
</g>
<!-- Node4 -->
<g id="Node000004" class="node">
<title>Node4</title>
<g id="a_Node000004"><a xlink:href="class_harlinn_1_1_common_1_1_core_1_1_math_1_1_vector_3_01float_00_012_01_4.html" target="_top" xlink:title=" ">
<polygon fill="white" stroke="#666666" points="768,-84 642,-84 642,-54 768,-54 768,-84"/>
<text text-anchor="start" x="650" y="-72" font-family="Helvetica,sans-Serif" font-size="10.00">Harlinn::Common::Core</text>
<text text-anchor="middle" x="705" y="-61" font-family="Helvetica,sans-Serif" font-size="10.00">::Math::Vector&lt; float, 2 &gt;</text>
</a>
</g>
</g>
<!-- Node4&#45;&gt;Node1 -->
<g id="edge3_Node000001_Node000004" class="edge">
<title>Node4&#45;&gt;Node1</title>
<g id="a_edge3_Node000001_Node000004"><a xlink:title=" ">
<path fill="none" stroke="#9a32cd" stroke-dasharray="5,2" d="M779.59,-74.25C800.43,-75.91 823.12,-77.86 844,-80 849.79,-80.59 855.76,-81.24 861.77,-81.92"/>
<polygon fill="#9a32cd" stroke="#9a32cd" points="779.97,-70.77 769.73,-73.48 779.43,-77.75 779.97,-70.77"/>
</a>
</g>
<text text-anchor="middle" x="815" y="-83" font-family="Helvetica,sans-Serif" font-size="10.00" fill="grey"> viewportSize</text>
</g>
<!-- Node5 -->
<g id="Node000005" class="node">
<title>Node5</title>
<g id="a_Node000005"><a xlink:href="class_harlinn_1_1_common_1_1_core_1_1_math_1_1_tuple2.html" target="_top" xlink:title=" ">
<polygon fill="white" stroke="#666666" points="567.5,-89.5 449.5,-89.5 449.5,-48.5 567.5,-48.5 567.5,-89.5"/>
<text text-anchor="start" x="457.5" y="-77.5" font-family="Helvetica,sans-Serif" font-size="10.00">Harlinn::Common::Core</text>
<text text-anchor="start" x="457.5" y="-66.5" font-family="Helvetica,sans-Serif" font-size="10.00">::Math::Tuple2&lt; Vector</text>
<text text-anchor="middle" x="508.5" y="-55.5" font-family="Helvetica,sans-Serif" font-size="10.00">&lt; float, 2 &gt;, float &gt;</text>
</a>
</g>
</g>
<!-- Node5&#45;&gt;Node4 -->
<g id="edge4_Node000004_Node000005" class="edge">
<title>Node5&#45;&gt;Node4</title>
<g id="a_edge4_Node000004_Node000005"><a xlink:title=" ">
<path fill="none" stroke="#63b8ff" d="M579.29,-69C599.64,-69 621.75,-69 641.62,-69"/>
<polygon fill="#63b8ff" stroke="#63b8ff" points="579.37,-65.5 569.37,-69 579.37,-72.5 579.37,-65.5"/>
</a>
</g>
</g>
<!-- Node6 -->
<g id="Node000006" class="node">
<title>Node6</title>
<g id="a_Node000006"><a xlink:href="struct_harlinn_1_1_common_1_1_core_1_1_math_1_1_internal_1_1_tuple_base.html" target="_top" xlink:title=" ">
<polygon fill="white" stroke="#666666" points="134,-94 0,-94 0,-64 134,-64 134,-94"/>
<text text-anchor="start" x="8" y="-82" font-family="Helvetica,sans-Serif" font-size="10.00">Harlinn::Common::Core</text>
<text text-anchor="middle" x="67" y="-71" font-family="Helvetica,sans-Serif" font-size="10.00">::Math::Internal::TupleBase</text>
</a>
</g>
</g>
<!-- Node6&#45;&gt;Node5 -->
<g id="edge5_Node000005_Node000006" class="edge">
<title>Node6&#45;&gt;Node5</title>
<g id="a_edge5_Node000005_Node000006"><a xlink:title=" ">
<path fill="none" stroke="#63b8ff" d="M145.54,-79.41C217.09,-79.48 326.25,-78.82 421,-75 430.18,-74.63 439.89,-74.1 449.36,-73.5"/>
<polygon fill="#63b8ff" stroke="#63b8ff" points="145.91,-75.91 135.9,-79.4 145.9,-82.91 145.91,-75.91"/>
</a>
</g>
</g>
<!-- Node7 -->
<g id="Node000007" class="node">
<title>Node7</title>
<g id="a_Node000007"><a xlink:href="class_harlinn_1_1_common_1_1_core_1_1_math_1_1_tuple2.html" target="_top" xlink:title="A tuple holding two numbers.">
<polygon fill="white" stroke="#666666" points="324,-61 179,-61 179,-31 324,-31 324,-61"/>
<text text-anchor="start" x="187" y="-49" font-family="Helvetica,sans-Serif" font-size="10.00">Harlinn::Common::Core</text>
<text text-anchor="middle" x="251.5" y="-38" font-family="Helvetica,sans-Serif" font-size="10.00">::Math::Tuple2&lt; DerivedT, T &gt;</text>
</a>
</g>
</g>
<!-- Node6&#45;&gt;Node7 -->
<g id="edge7_Node000007_Node000006" class="edge">
<title>Node6&#45;&gt;Node7</title>
<g id="a_edge7_Node000007_Node000006"><a xlink:title=" ">
<path fill="none" stroke="#63b8ff" d="M145.67,-64.96C156.6,-62.98 167.79,-60.96 178.6,-59"/>
<polygon fill="#63b8ff" stroke="#63b8ff" points="145.11,-61.5 135.89,-66.72 146.36,-68.39 145.11,-61.5"/>
</a>
</g>
</g>
<!-- Node7&#45;&gt;Node5 -->
<g id="edge6_Node000005_Node000007" class="edge">
<title>Node7&#45;&gt;Node5</title>
<g id="a_edge6_Node000005_Node000007"><a xlink:title=" ">
<path fill="none" stroke="orange" stroke-dasharray="5,2" d="M335.87,-47.13C363.07,-48.12 393.38,-49.89 421,-53 430.11,-54.03 439.69,-55.45 449.04,-57.03"/>
<polygon fill="orange" stroke="orange" points="336.04,-43.63 325.93,-46.8 335.81,-50.63 336.04,-43.63"/>
</a>
</g>
<text text-anchor="start" x="342" y="-67" font-family="Helvetica,sans-Serif" font-size="10.00" fill="grey"> &lt; Vector&lt; float, 2</text>
<text text-anchor="middle" x="381.5" y="-56" font-family="Helvetica,sans-Serif" font-size="10.00" fill="grey"> &gt;, float &gt;</text>
</g>
<!-- Node8 -->
<g id="Node000008" class="node">
<title>Node8</title>
<g id="a_Node000008"><a xlink:title=" ">
<polygon fill="white" stroke="#666666" points="81.5,-36.5 52.5,-36.5 52.5,-17.5 81.5,-17.5 81.5,-36.5"/>
<text text-anchor="middle" x="67" y="-24.5" font-family="Helvetica,sans-Serif" font-size="10.00">T</text>
</a>
</g>
</g>
<!-- Node8&#45;&gt;Node7 -->
<g id="edge8_Node000007_Node000008" class="edge">
<title>Node8&#45;&gt;Node7</title>
<g id="a_edge8_Node000007_Node000008"><a xlink:title=" ">
<path fill="none" stroke="#9a32cd" stroke-dasharray="5,2" d="M93.31,-25.99C112.06,-25.56 138.19,-25.6 161,-28 167.15,-28.65 173.5,-29.51 179.85,-30.52"/>
<polygon fill="#9a32cd" stroke="#9a32cd" points="93.31,-22.49 83.43,-26.29 93.53,-29.49 93.31,-22.49"/>
</a>
</g>
<text text-anchor="middle" x="156.5" y="-42" font-family="Helvetica,sans-Serif" font-size="10.00" fill="grey"> x</text>
<text text-anchor="middle" x="156.5" y="-31" font-family="Helvetica,sans-Serif" font-size="10.00" fill="grey">y</text>
</g>
<!-- Node9 -->
<g id="Node000009" class="node">
<title>Node9</title>
<g id="a_Node000009"><a xlink:href="struct_harlinn_1_1_common_1_1_core_1_1_math_1_1_internal_1_1_vector_base.html" target="_top" xlink:title=" ">
<polygon fill="white" stroke="#666666" points="578,-30 439,-30 439,0 578,0 578,-30"/>
<text text-anchor="start" x="447" y="-18" font-family="Helvetica,sans-Serif" font-size="10.00">Harlinn::Common::Core</text>
<text text-anchor="middle" x="508.5" y="-7" font-family="Helvetica,sans-Serif" font-size="10.00">::Math::Internal::VectorBase</text>
</a>
</g>
</g>
<!-- Node9&#45;&gt;Node4 -->
<g id="edge9_Node000004_Node000009" class="edge">
<title>Node9&#45;&gt;Node4</title>
<g id="a_edge9_Node000004_Node000009"><a xlink:title=" ">
<path fill="none" stroke="#63b8ff" d="M576.17,-33.51C599.65,-40.03 625.77,-47.28 648.26,-53.52"/>
<polygon fill="#63b8ff" stroke="#63b8ff" points="577.27,-30.18 566.69,-30.88 575.39,-36.93 577.27,-30.18"/>
</a>
</g>
</g>
</g>
</svg>
