<?xml version="1.0" encoding="UTF-8" standalone="no"?>
<!DOCTYPE svg PUBLIC "-//W3C//DTD SVG 1.1//EN"
 "http://www.w3.org/Graphics/SVG/1.1/DTD/svg11.dtd">
<!-- Generated by graphviz version 7.0.1 (20221109.1506)
 -->
<!-- Title: Harlinn::Windows::DML::Internal::TensorTraitsBase Pages: 1 -->
<svg width="412pt" height="639pt"
 viewBox="0.00 0.00 412.00 639.00" xmlns="http://www.w3.org/2000/svg" xmlns:xlink="http://www.w3.org/1999/xlink">
<g id="graph0" class="graph" transform="scale(1 1) rotate(0) translate(4 635)">
<title>Harlinn::Windows::DML::Internal::TensorTraitsBase</title>
<!-- Node1 -->
<g id="Node000001" class="node">
<title>Node1</title>
<g id="a_Node000001"><a xlink:title=" ">
<polygon fill="#999999" stroke="#666666" points="249,-330.5 113,-330.5 113,-300.5 249,-300.5 249,-330.5"/>
<text text-anchor="start" x="121" y="-318.5" font-family="Helvetica,sans-Serif" font-size="10.00">Harlinn::Windows::DML</text>
<text text-anchor="middle" x="181" y="-307.5" font-family="Helvetica,sans-Serif" font-size="10.00">::Internal::TensorTraitsBase</text>
</a>
</g>
</g>
<!-- Node3 -->
<g id="Node000003" class="node">
<title>Node3</title>
<g id="a_Node000003"><a xlink:href="struct_harlinn_1_1_windows_1_1_d_m_l_1_1_internal_1_1_tensor_traits_3_01_int16_01_4.html" target="_top" xlink:title=" ">
<polygon fill="white" stroke="#666666" points="404,-631 285,-631 285,-590 404,-590 404,-631"/>
<text text-anchor="start" x="293" y="-619" font-family="Helvetica,sans-Serif" font-size="10.00">Harlinn::Windows::DML</text>
<text text-anchor="start" x="293" y="-608" font-family="Helvetica,sans-Serif" font-size="10.00">::Internal::TensorTraits</text>
<text text-anchor="middle" x="344.5" y="-597" font-family="Helvetica,sans-Serif" font-size="10.00">&lt; Int16 &gt;</text>
</a>
</g>
</g>
<!-- Node1&#45;&gt;Node3 -->
<g id="edge2_Node000001_Node000003" class="edge">
<title>Node1&#45;&gt;Node3</title>
<g id="a_edge2_Node000001_Node000003"><a xlink:title=" ">
<path fill="none" stroke="#63b8ff" d="M185.74,-341.93C194.36,-393.88 220.08,-510.4 285,-581.5 287.68,-584.43 290.71,-587.1 293.96,-589.53"/>
<polygon fill="#63b8ff" stroke="#63b8ff" points="189.23,-341.57 184.22,-332.24 182.31,-342.66 189.23,-341.57"/>
</a>
</g>
</g>
<!-- Node4 -->
<g id="Node000004" class="node">
<title>Node4</title>
<g id="a_Node000004"><a xlink:href="struct_harlinn_1_1_windows_1_1_d_m_l_1_1_internal_1_1_tensor_traits_3_01_int32_01_4.html" target="_top" xlink:title=" ">
<polygon fill="white" stroke="#666666" points="404,-572 285,-572 285,-531 404,-531 404,-572"/>
<text text-anchor="start" x="293" y="-560" font-family="Helvetica,sans-Serif" font-size="10.00">Harlinn::Windows::DML</text>
<text text-anchor="start" x="293" y="-549" font-family="Helvetica,sans-Serif" font-size="10.00">::Internal::TensorTraits</text>
<text text-anchor="middle" x="344.5" y="-538" font-family="Helvetica,sans-Serif" font-size="10.00">&lt; Int32 &gt;</text>
</a>
</g>
</g>
<!-- Node1&#45;&gt;Node4 -->
<g id="edge3_Node000001_Node000004" class="edge">
<title>Node1&#45;&gt;Node4</title>
<g id="a_edge3_Node000001_Node000004"><a xlink:title=" ">
<path fill="none" stroke="#63b8ff" d="M189.04,-341.63C201.73,-384.37 232.16,-469.74 285,-522.5 287.97,-525.46 291.3,-528.18 294.83,-530.65"/>
<polygon fill="#63b8ff" stroke="#63b8ff" points="192.46,-340.87 186.34,-332.22 185.73,-342.8 192.46,-340.87"/>
</a>
</g>
</g>
<!-- Node5 -->
<g id="Node000005" class="node">
<title>Node5</title>
<g id="a_Node000005"><a xlink:href="struct_harlinn_1_1_windows_1_1_d_m_l_1_1_internal_1_1_tensor_traits_3_01_int64_01_4.html" target="_top" xlink:title=" ">
<polygon fill="white" stroke="#666666" points="404,-513 285,-513 285,-472 404,-472 404,-513"/>
<text text-anchor="start" x="293" y="-501" font-family="Helvetica,sans-Serif" font-size="10.00">Harlinn::Windows::DML</text>
<text text-anchor="start" x="293" y="-490" font-family="Helvetica,sans-Serif" font-size="10.00">::Internal::TensorTraits</text>
<text text-anchor="middle" x="344.5" y="-479" font-family="Helvetica,sans-Serif" font-size="10.00">&lt; Int64 &gt;</text>
</a>
</g>
</g>
<!-- Node1&#45;&gt;Node5 -->
<g id="edge4_Node000001_Node000005" class="edge">
<title>Node1&#45;&gt;Node5</title>
<g id="a_edge4_Node000001_Node000005"><a xlink:title=" ">
<path fill="none" stroke="#63b8ff" d="M194.41,-340.71C211.21,-372.73 243.89,-428.06 285,-463.5 288.35,-466.39 292.03,-469.07 295.88,-471.54"/>
<polygon fill="#63b8ff" stroke="#63b8ff" points="197.7,-339.46 190.02,-332.16 191.47,-342.65 197.7,-339.46"/>
</a>
</g>
</g>
<!-- Node6 -->
<g id="Node000006" class="node">
<title>Node6</title>
<g id="a_Node000006"><a xlink:href="struct_harlinn_1_1_windows_1_1_d_m_l_1_1_internal_1_1_tensor_traits_3_01_u_int16_01_4.html" target="_top" xlink:title=" ">
<polygon fill="white" stroke="#666666" points="404,-454 285,-454 285,-413 404,-413 404,-454"/>
<text text-anchor="start" x="293" y="-442" font-family="Helvetica,sans-Serif" font-size="10.00">Harlinn::Windows::DML</text>
<text text-anchor="start" x="293" y="-431" font-family="Helvetica,sans-Serif" font-size="10.00">::Internal::TensorTraits</text>
<text text-anchor="middle" x="344.5" y="-420" font-family="Helvetica,sans-Serif" font-size="10.00">&lt; UInt16 &gt;</text>
</a>
</g>
</g>
<!-- Node1&#45;&gt;Node6 -->
<g id="edge5_Node000001_Node000006" class="edge">
<title>Node1&#45;&gt;Node6</title>
<g id="a_edge5_Node000001_Node000006"><a xlink:title=" ">
<path fill="none" stroke="#63b8ff" d="M205.24,-338.62C225.26,-357.76 255.51,-384.91 285,-404.5 289.25,-407.32 293.81,-410.05 298.45,-412.63"/>
<polygon fill="#63b8ff" stroke="#63b8ff" points="207.76,-336.19 198.14,-331.75 202.89,-341.22 207.76,-336.19"/>
</a>
</g>
</g>
<!-- Node7 -->
<g id="Node000007" class="node">
<title>Node7</title>
<g id="a_Node000007"><a xlink:href="struct_harlinn_1_1_windows_1_1_d_m_l_1_1_internal_1_1_tensor_traits_3_01_u_int32_01_4.html" target="_top" xlink:title=" ">
<polygon fill="white" stroke="#666666" points="404,-395 285,-395 285,-354 404,-354 404,-395"/>
<text text-anchor="start" x="293" y="-383" font-family="Helvetica,sans-Serif" font-size="10.00">Harlinn::Windows::DML</text>
<text text-anchor="start" x="293" y="-372" font-family="Helvetica,sans-Serif" font-size="10.00">::Internal::TensorTraits</text>
<text text-anchor="middle" x="344.5" y="-361" font-family="Helvetica,sans-Serif" font-size="10.00">&lt; UInt32 &gt;</text>
</a>
</g>
</g>
<!-- Node1&#45;&gt;Node7 -->
<g id="edge6_Node000001_Node000007" class="edge">
<title>Node1&#45;&gt;Node7</title>
<g id="a_edge6_Node000001_Node000007"><a xlink:title=" ">
<path fill="none" stroke="#63b8ff" d="M234.57,-334.7C251.07,-340.73 269.38,-347.42 286.2,-353.57"/>
<polygon fill="#63b8ff" stroke="#63b8ff" points="236.03,-331.51 225.43,-331.37 233.62,-338.09 236.03,-331.51"/>
</a>
</g>
</g>
<!-- Node8 -->
<g id="Node000008" class="node">
<title>Node8</title>
<g id="a_Node000008"><a xlink:href="struct_harlinn_1_1_windows_1_1_d_m_l_1_1_internal_1_1_tensor_traits_3_01_u_int64_01_4.html" target="_top" xlink:title=" ">
<polygon fill="white" stroke="#666666" points="404,-336 285,-336 285,-295 404,-295 404,-336"/>
<text text-anchor="start" x="293" y="-324" font-family="Helvetica,sans-Serif" font-size="10.00">Harlinn::Windows::DML</text>
<text text-anchor="start" x="293" y="-313" font-family="Helvetica,sans-Serif" font-size="10.00">::Internal::TensorTraits</text>
<text text-anchor="middle" x="344.5" y="-302" font-family="Helvetica,sans-Serif" font-size="10.00">&lt; UInt64 &gt;</text>
</a>
</g>
</g>
<!-- Node1&#45;&gt;Node8 -->
<g id="edge7_Node000001_Node000008" class="edge">
<title>Node1&#45;&gt;Node8</title>
<g id="a_edge7_Node000001_Node000008"><a xlink:title=" ">
<path fill="none" stroke="#63b8ff" d="M260.5,-315.5C268.61,-315.5 276.76,-315.5 284.6,-315.5"/>
<polygon fill="#63b8ff" stroke="#63b8ff" points="260.6,-312 250.6,-315.5 260.6,-319 260.6,-312"/>
</a>
</g>
</g>
<!-- Node9 -->
<g id="Node000009" class="node">
<title>Node9</title>
<g id="a_Node000009"><a xlink:href="struct_harlinn_1_1_windows_1_1_d_m_l_1_1_internal_1_1_tensor_traits_3_01char_01_4.html" target="_top" xlink:title=" ">
<polygon fill="white" stroke="#666666" points="404,-277 285,-277 285,-236 404,-236 404,-277"/>
<text text-anchor="start" x="293" y="-265" font-family="Helvetica,sans-Serif" font-size="10.00">Harlinn::Windows::DML</text>
<text text-anchor="start" x="293" y="-254" font-family="Helvetica,sans-Serif" font-size="10.00">::Internal::TensorTraits</text>
<text text-anchor="middle" x="344.5" y="-243" font-family="Helvetica,sans-Serif" font-size="10.00">&lt; char &gt;</text>
</a>
</g>
</g>
<!-- Node1&#45;&gt;Node9 -->
<g id="edge8_Node000001_Node000009" class="edge">
<title>Node1&#45;&gt;Node9</title>
<g id="a_edge8_Node000001_Node000009"><a xlink:title=" ">
<path fill="none" stroke="#63b8ff" d="M234.57,-296.3C251.07,-290.27 269.38,-283.58 286.2,-277.43"/>
<polygon fill="#63b8ff" stroke="#63b8ff" points="233.62,-292.91 225.43,-299.63 236.03,-299.49 233.62,-292.91"/>
</a>
</g>
</g>
<!-- Node10 -->
<g id="Node000010" class="node">
<title>Node10</title>
<g id="a_Node000010"><a xlink:href="struct_harlinn_1_1_windows_1_1_d_m_l_1_1_internal_1_1_tensor_traits_3_01double_01_4.html" target="_top" xlink:title=" ">
<polygon fill="white" stroke="#666666" points="404,-218 285,-218 285,-177 404,-177 404,-218"/>
<text text-anchor="start" x="293" y="-206" font-family="Helvetica,sans-Serif" font-size="10.00">Harlinn::Windows::DML</text>
<text text-anchor="start" x="293" y="-195" font-family="Helvetica,sans-Serif" font-size="10.00">::Internal::TensorTraits</text>
<text text-anchor="middle" x="344.5" y="-184" font-family="Helvetica,sans-Serif" font-size="10.00">&lt; double &gt;</text>
</a>
</g>
</g>
<!-- Node1&#45;&gt;Node10 -->
<g id="edge9_Node000001_Node000010" class="edge">
<title>Node1&#45;&gt;Node10</title>
<g id="a_edge9_Node000001_Node000010"><a xlink:title=" ">
<path fill="none" stroke="#63b8ff" d="M205.24,-292.38C225.26,-273.24 255.51,-246.09 285,-226.5 289.25,-223.68 293.81,-220.95 298.45,-218.37"/>
<polygon fill="#63b8ff" stroke="#63b8ff" points="202.89,-289.78 198.14,-299.25 207.76,-294.81 202.89,-289.78"/>
</a>
</g>
</g>
<!-- Node11 -->
<g id="Node000011" class="node">
<title>Node11</title>
<g id="a_Node000011"><a xlink:href="struct_harlinn_1_1_windows_1_1_d_m_l_1_1_internal_1_1_tensor_traits_3_01float_01_4.html" target="_top" xlink:title=" ">
<polygon fill="white" stroke="#666666" points="404,-159 285,-159 285,-118 404,-118 404,-159"/>
<text text-anchor="start" x="293" y="-147" font-family="Helvetica,sans-Serif" font-size="10.00">Harlinn::Windows::DML</text>
<text text-anchor="start" x="293" y="-136" font-family="Helvetica,sans-Serif" font-size="10.00">::Internal::TensorTraits</text>
<text text-anchor="middle" x="344.5" y="-125" font-family="Helvetica,sans-Serif" font-size="10.00">&lt; float &gt;</text>
</a>
</g>
</g>
<!-- Node1&#45;&gt;Node11 -->
<g id="edge10_Node000001_Node000011" class="edge">
<title>Node1&#45;&gt;Node11</title>
<g id="a_edge10_Node000001_Node000011"><a xlink:title=" ">
<path fill="none" stroke="#63b8ff" d="M194.41,-290.29C211.21,-258.27 243.89,-202.94 285,-167.5 288.35,-164.61 292.03,-161.93 295.88,-159.46"/>
<polygon fill="#63b8ff" stroke="#63b8ff" points="191.47,-288.35 190.02,-298.84 197.7,-291.54 191.47,-288.35"/>
</a>
</g>
</g>
<!-- Node12 -->
<g id="Node000012" class="node">
<title>Node12</title>
<g id="a_Node000012"><a xlink:href="struct_harlinn_1_1_windows_1_1_d_m_l_1_1_internal_1_1_tensor_traits_3_01signed_01char_01_4.html" target="_top" xlink:title=" ">
<polygon fill="white" stroke="#666666" points="404,-100 285,-100 285,-59 404,-59 404,-100"/>
<text text-anchor="start" x="293" y="-88" font-family="Helvetica,sans-Serif" font-size="10.00">Harlinn::Windows::DML</text>
<text text-anchor="start" x="293" y="-77" font-family="Helvetica,sans-Serif" font-size="10.00">::Internal::TensorTraits</text>
<text text-anchor="middle" x="344.5" y="-66" font-family="Helvetica,sans-Serif" font-size="10.00">&lt; signed char &gt;</text>
</a>
</g>
</g>
<!-- Node1&#45;&gt;Node12 -->
<g id="edge11_Node000001_Node000012" class="edge">
<title>Node1&#45;&gt;Node12</title>
<g id="a_edge11_Node000001_Node000012"><a xlink:title=" ">
<path fill="none" stroke="#63b8ff" d="M189.04,-289.37C201.73,-246.63 232.16,-161.26 285,-108.5 287.97,-105.54 291.3,-102.82 294.83,-100.35"/>
<polygon fill="#63b8ff" stroke="#63b8ff" points="185.73,-288.2 186.34,-298.78 192.46,-290.13 185.73,-288.2"/>
</a>
</g>
</g>
<!-- Node13 -->
<g id="Node000013" class="node">
<title>Node13</title>
<g id="a_Node000013"><a xlink:href="struct_harlinn_1_1_windows_1_1_d_m_l_1_1_internal_1_1_tensor_traits_3_01unsigned_01char_01_4.html" target="_top" xlink:title=" ">
<polygon fill="white" stroke="#666666" points="404,-41 285,-41 285,0 404,0 404,-41"/>
<text text-anchor="start" x="293" y="-29" font-family="Helvetica,sans-Serif" font-size="10.00">Harlinn::Windows::DML</text>
<text text-anchor="start" x="293" y="-18" font-family="Helvetica,sans-Serif" font-size="10.00">::Internal::TensorTraits</text>
<text text-anchor="middle" x="344.5" y="-7" font-family="Helvetica,sans-Serif" font-size="10.00">&lt; unsigned char &gt;</text>
</a>
</g>
</g>
<!-- Node1&#45;&gt;Node13 -->
<g id="edge12_Node000001_Node000013" class="edge">
<title>Node1&#45;&gt;Node13</title>
<g id="a_edge12_Node000001_Node000013"><a xlink:title=" ">
<path fill="none" stroke="#63b8ff" d="M185.74,-289.07C194.36,-237.12 220.08,-120.6 285,-49.5 287.68,-46.57 290.71,-43.9 293.96,-41.47"/>
<polygon fill="#63b8ff" stroke="#63b8ff" points="182.31,-288.34 184.22,-298.76 189.23,-289.43 182.31,-288.34"/>
</a>
</g>
</g>
<!-- Node2 -->
<g id="Node000002" class="node">
<title>Node2</title>
<g id="a_Node000002"><a xlink:title=" ">
<polygon fill="white" stroke="#666666" points="77,-325 0,-325 0,-306 77,-306 77,-325"/>
<text text-anchor="middle" x="38.5" y="-313" font-family="Helvetica,sans-Serif" font-size="10.00">std::true_type</text>
</a>
</g>
</g>
<!-- Node2&#45;&gt;Node1 -->
<g id="edge1_Node000001_Node000002" class="edge">
<title>Node2&#45;&gt;Node1</title>
<g id="a_edge1_Node000001_Node000002"><a xlink:title=" ">
<path fill="none" stroke="#63b8ff" d="M88.62,-315.5C96.4,-315.5 104.57,-315.5 112.68,-315.5"/>
<polygon fill="#63b8ff" stroke="#63b8ff" points="88.66,-312 78.66,-315.5 88.66,-319 88.66,-312"/>
</a>
</g>
</g>
</g>
</svg>
