<?xml version="1.0" encoding="UTF-8" standalone="no"?>
<!DOCTYPE svg PUBLIC "-//W3C//DTD SVG 1.1//EN"
 "http://www.w3.org/Graphics/SVG/1.1/DTD/svg11.dtd">
<!-- Generated by graphviz version 7.0.1 (20221109.1506)
 -->
<!-- Title: Harlinn::OCI::Internal::TraitsImpl&lt; BT, ABT, DT, ADT &gt; Pages: 1 -->
<svg width="654pt" height="977pt"
 viewBox="0.00 0.00 654.00 977.00" xmlns="http://www.w3.org/2000/svg" xmlns:xlink="http://www.w3.org/1999/xlink">
<g id="graph0" class="graph" transform="scale(1 1) rotate(0) translate(4 973)">
<title>Harlinn::OCI::Internal::TraitsImpl&lt; BT, ABT, DT, ADT &gt;</title>
<!-- Node1 -->
<g id="Node000001" class="node">
<title>Node1</title>
<g id="a_Node000001"><a xlink:title=" ">
<polygon fill="#999999" stroke="#666666" points="113,-501.5 0,-501.5 0,-460.5 113,-460.5 113,-501.5"/>
<text text-anchor="start" x="8" y="-489.5" font-family="Helvetica,sans-Serif" font-size="10.00">Harlinn::OCI::Internal</text>
<text text-anchor="start" x="8" y="-478.5" font-family="Helvetica,sans-Serif" font-size="10.00">::TraitsImpl&lt; BT, ABT,</text>
<text text-anchor="middle" x="56.5" y="-467.5" font-family="Helvetica,sans-Serif" font-size="10.00"> DT, ADT &gt;</text>
</a>
</g>
</g>
<!-- Node2 -->
<g id="Node000002" class="node">
<title>Node2</title>
<g id="a_Node000002"><a xlink:href="struct_harlinn_1_1_o_c_i_1_1_internal_1_1_traits_impl.html" target="_top" xlink:title=" ">
<polygon fill="white" stroke="#666666" points="468.5,-963 329.5,-963 329.5,-911 468.5,-911 468.5,-963"/>
<text text-anchor="start" x="337.5" y="-951" font-family="Helvetica,sans-Serif" font-size="10.00">Harlinn::OCI::Internal</text>
<text text-anchor="start" x="337.5" y="-940" font-family="Helvetica,sans-Serif" font-size="10.00">::TraitsImpl&lt; ByteBind,</text>
<text text-anchor="start" x="337.5" y="-929" font-family="Helvetica,sans-Serif" font-size="10.00"> ByteArrayBind, ByteDefine,</text>
<text text-anchor="middle" x="399" y="-918" font-family="Helvetica,sans-Serif" font-size="10.00"> ByteArrayDefine &gt;</text>
</a>
</g>
</g>
<!-- Node1&#45;&gt;Node2 -->
<g id="edge1_Node000001_Node000002" class="edge">
<title>Node1&#45;&gt;Node2</title>
<g id="a_edge1_Node000001_Node000002"><a xlink:title=" ">
<path fill="none" stroke="orange" stroke-dasharray="5,2" d="M58.52,-513.12C62.01,-601.06 76.46,-842.7 131,-896 182.65,-946.48 268.78,-951.06 329.22,-946.7"/>
<polygon fill="orange" stroke="orange" points="62.02,-513.15 58.15,-503.28 55.03,-513.41 62.02,-513.15"/>
</a>
</g>
<text text-anchor="start" x="139.5" y="-961" font-family="Helvetica,sans-Serif" font-size="10.00" fill="grey"> &lt; ByteBind, ByteArrayBind,</text>
<text text-anchor="middle" x="207.5" y="-950" font-family="Helvetica,sans-Serif" font-size="10.00" fill="grey"> ByteDefine, ByteArrayDefine &gt;</text>
</g>
<!-- Node4 -->
<g id="Node000004" class="node">
<title>Node4</title>
<g id="a_Node000004"><a xlink:href="struct_harlinn_1_1_o_c_i_1_1_internal_1_1_traits_impl.html" target="_top" xlink:title=" ">
<polygon fill="white" stroke="#666666" points="496,-893 302,-893 302,-841 496,-841 496,-893"/>
<text text-anchor="start" x="310" y="-881" font-family="Helvetica,sans-Serif" font-size="10.00">Harlinn::OCI::Internal</text>
<text text-anchor="start" x="310" y="-870" font-family="Helvetica,sans-Serif" font-size="10.00">::TraitsImpl&lt; TimestampBind,</text>
<text text-anchor="start" x="310" y="-859" font-family="Helvetica,sans-Serif" font-size="10.00"> TimestampArrayBind, TimestampDefine,</text>
<text text-anchor="middle" x="399" y="-848" font-family="Helvetica,sans-Serif" font-size="10.00"> TimestampArrayDefine &gt;</text>
</a>
</g>
</g>
<!-- Node1&#45;&gt;Node4 -->
<g id="edge3_Node000001_Node000004" class="edge">
<title>Node1&#45;&gt;Node4</title>
<g id="a_edge3_Node000001_Node000004"><a xlink:title=" ">
<path fill="none" stroke="orange" stroke-dasharray="5,2" d="M59.94,-513.08C66.43,-589.4 86.72,-778.55 131,-821 155.24,-844.23 235.46,-855.86 301.7,-861.6"/>
<polygon fill="orange" stroke="orange" points="63.45,-513.03 59.14,-503.35 56.48,-513.6 63.45,-513.03"/>
</a>
</g>
<text text-anchor="start" x="140.5" y="-884" font-family="Helvetica,sans-Serif" font-size="10.00" fill="grey"> &lt; TimestampBind, Timestamp</text>
<text text-anchor="start" x="140.5" y="-873" font-family="Helvetica,sans-Serif" font-size="10.00" fill="grey">ArrayBind, TimestampDefine,</text>
<text text-anchor="middle" x="207.5" y="-862" font-family="Helvetica,sans-Serif" font-size="10.00" fill="grey"> TimestampArrayDefine &gt;</text>
</g>
<!-- Node6 -->
<g id="Node000006" class="node">
<title>Node6</title>
<g id="a_Node000006"><a xlink:href="struct_harlinn_1_1_o_c_i_1_1_internal_1_1_traits_impl.html" target="_top" xlink:title=" ">
<polygon fill="white" stroke="#666666" points="478,-823 320,-823 320,-771 478,-771 478,-823"/>
<text text-anchor="start" x="328" y="-811" font-family="Helvetica,sans-Serif" font-size="10.00">Harlinn::OCI::Internal</text>
<text text-anchor="start" x="328" y="-800" font-family="Helvetica,sans-Serif" font-size="10.00">::TraitsImpl&lt; DoubleBind,</text>
<text text-anchor="start" x="328" y="-789" font-family="Helvetica,sans-Serif" font-size="10.00"> DoubleArrayBind, DoubleDefine,</text>
<text text-anchor="middle" x="399" y="-778" font-family="Helvetica,sans-Serif" font-size="10.00"> DoubleArrayDefine &gt;</text>
</a>
</g>
</g>
<!-- Node1&#45;&gt;Node6 -->
<g id="edge5_Node000001_Node000006" class="edge">
<title>Node1&#45;&gt;Node6</title>
<g id="a_edge5_Node000001_Node000006"><a xlink:title=" ">
<path fill="none" stroke="orange" stroke-dasharray="5,2" d="M56.59,-513.12C56.89,-568.42 66,-681.48 131,-742 157.97,-767.12 250.96,-782.03 319.64,-789.86"/>
<polygon fill="orange" stroke="orange" points="60.09,-513.45 56.64,-503.44 53.09,-513.42 60.09,-513.45"/>
</a>
</g>
<text text-anchor="start" x="136.5" y="-809" font-family="Helvetica,sans-Serif" font-size="10.00" fill="grey"> &lt; DoubleBind, DoubleArray</text>
<text text-anchor="start" x="136.5" y="-798" font-family="Helvetica,sans-Serif" font-size="10.00" fill="grey">Bind, DoubleDefine, DoubleArray</text>
<text text-anchor="middle" x="207.5" y="-787" font-family="Helvetica,sans-Serif" font-size="10.00" fill="grey">Define &gt;</text>
</g>
<!-- Node8 -->
<g id="Node000008" class="node">
<title>Node8</title>
<g id="a_Node000008"><a xlink:href="struct_harlinn_1_1_o_c_i_1_1_internal_1_1_traits_impl.html" target="_top" xlink:title=" ">
<polygon fill="white" stroke="#666666" points="468.5,-753 329.5,-753 329.5,-701 468.5,-701 468.5,-753"/>
<text text-anchor="start" x="337.5" y="-741" font-family="Helvetica,sans-Serif" font-size="10.00">Harlinn::OCI::Internal</text>
<text text-anchor="start" x="337.5" y="-730" font-family="Helvetica,sans-Serif" font-size="10.00">::TraitsImpl&lt; GuidBind,</text>
<text text-anchor="start" x="337.5" y="-719" font-family="Helvetica,sans-Serif" font-size="10.00"> GuidArrayBind, GuidDefine,</text>
<text text-anchor="middle" x="399" y="-708" font-family="Helvetica,sans-Serif" font-size="10.00"> GuidArrayDefine &gt;</text>
</a>
</g>
</g>
<!-- Node1&#45;&gt;Node8 -->
<g id="edge7_Node000001_Node000008" class="edge">
<title>Node1&#45;&gt;Node8</title>
<g id="a_edge7_Node000001_Node000008"><a xlink:title=" ">
<path fill="none" stroke="orange" stroke-dasharray="5,2" d="M60.15,-513.23C65.56,-557.05 81.91,-634.69 131,-676 160.38,-700.73 260.32,-714.63 329.23,-721.47"/>
<polygon fill="orange" stroke="orange" points="63.63,-512.88 59.06,-503.33 56.68,-513.65 63.63,-512.88"/>
</a>
</g>
<text text-anchor="start" x="139.5" y="-730" font-family="Helvetica,sans-Serif" font-size="10.00" fill="grey"> &lt; GuidBind, GuidArrayBind,</text>
<text text-anchor="middle" x="207.5" y="-719" font-family="Helvetica,sans-Serif" font-size="10.00" fill="grey"> GuidDefine, GuidArrayDefine &gt;</text>
</g>
<!-- Node10 -->
<g id="Node000010" class="node">
<title>Node10</title>
<g id="a_Node000010"><a xlink:href="struct_harlinn_1_1_o_c_i_1_1_internal_1_1_traits_impl.html" target="_top" xlink:title=" ">
<polygon fill="white" stroke="#666666" points="469,-683 329,-683 329,-631 469,-631 469,-683"/>
<text text-anchor="start" x="337" y="-671" font-family="Helvetica,sans-Serif" font-size="10.00">Harlinn::OCI::Internal</text>
<text text-anchor="start" x="337" y="-660" font-family="Helvetica,sans-Serif" font-size="10.00">::TraitsImpl&lt; Int16Bind,</text>
<text text-anchor="start" x="337" y="-649" font-family="Helvetica,sans-Serif" font-size="10.00"> Int16ArrayBind, Int16Define,</text>
<text text-anchor="middle" x="399" y="-638" font-family="Helvetica,sans-Serif" font-size="10.00"> Int16ArrayDefine &gt;</text>
</a>
</g>
</g>
<!-- Node1&#45;&gt;Node10 -->
<g id="edge9_Node000001_Node000010" class="edge">
<title>Node1&#45;&gt;Node10</title>
<g id="a_edge9_Node000001_Node000010"><a xlink:title=" ">
<path fill="none" stroke="orange" stroke-dasharray="5,2" d="M69.15,-512.06C80.77,-538.7 101.19,-576.01 131,-597 189.27,-638.03 270.92,-651.58 328.55,-655.76"/>
<polygon fill="orange" stroke="orange" points="72.51,-511.01 65.43,-503.13 66.04,-513.7 72.51,-511.01"/>
</a>
</g>
<text text-anchor="start" x="138.5" y="-664" font-family="Helvetica,sans-Serif" font-size="10.00" fill="grey"> &lt; Int16Bind, Int16ArrayBind,</text>
<text text-anchor="middle" x="207.5" y="-653" font-family="Helvetica,sans-Serif" font-size="10.00" fill="grey"> Int16Define, Int16ArrayDefine &gt;</text>
</g>
<!-- Node12 -->
<g id="Node000012" class="node">
<title>Node12</title>
<g id="a_Node000012"><a xlink:href="struct_harlinn_1_1_o_c_i_1_1_internal_1_1_traits_impl.html" target="_top" xlink:title=" ">
<polygon fill="white" stroke="#666666" points="469,-613 329,-613 329,-561 469,-561 469,-613"/>
<text text-anchor="start" x="337" y="-601" font-family="Helvetica,sans-Serif" font-size="10.00">Harlinn::OCI::Internal</text>
<text text-anchor="start" x="337" y="-590" font-family="Helvetica,sans-Serif" font-size="10.00">::TraitsImpl&lt; Int32Bind,</text>
<text text-anchor="start" x="337" y="-579" font-family="Helvetica,sans-Serif" font-size="10.00"> Int32ArrayBind, Int32Define,</text>
<text text-anchor="middle" x="399" y="-568" font-family="Helvetica,sans-Serif" font-size="10.00"> Int32ArrayDefine &gt;</text>
</a>
</g>
</g>
<!-- Node1&#45;&gt;Node12 -->
<g id="edge11_Node000001_Node000012" class="edge">
<title>Node1&#45;&gt;Node12</title>
<g id="a_edge11_Node000001_Node000012"><a xlink:title=" ">
<path fill="none" stroke="orange" stroke-dasharray="5,2" d="M92.98,-508.56C104.57,-516.48 117.86,-524.46 131,-530 195.09,-557.03 273.44,-571.8 328.64,-579.49"/>
<polygon fill="orange" stroke="orange" points="95.09,-505.78 84.91,-502.86 91.05,-511.49 95.09,-505.78"/>
</a>
</g>
<text text-anchor="start" x="138.5" y="-585" font-family="Helvetica,sans-Serif" font-size="10.00" fill="grey"> &lt; Int32Bind, Int32ArrayBind,</text>
<text text-anchor="middle" x="207.5" y="-574" font-family="Helvetica,sans-Serif" font-size="10.00" fill="grey"> Int32Define, Int32ArrayDefine &gt;</text>
</g>
<!-- Node14 -->
<g id="Node000014" class="node">
<title>Node14</title>
<g id="a_Node000014"><a xlink:href="struct_harlinn_1_1_o_c_i_1_1_internal_1_1_traits_impl.html" target="_top" xlink:title=" ">
<polygon fill="white" stroke="#666666" points="469,-543 329,-543 329,-491 469,-491 469,-543"/>
<text text-anchor="start" x="337" y="-531" font-family="Helvetica,sans-Serif" font-size="10.00">Harlinn::OCI::Internal</text>
<text text-anchor="start" x="337" y="-520" font-family="Helvetica,sans-Serif" font-size="10.00">::TraitsImpl&lt; Int64Bind,</text>
<text text-anchor="start" x="337" y="-509" font-family="Helvetica,sans-Serif" font-size="10.00"> Int64ArrayBind, Int64Define,</text>
<text text-anchor="middle" x="399" y="-498" font-family="Helvetica,sans-Serif" font-size="10.00"> Int64ArrayDefine &gt;</text>
</a>
</g>
</g>
<!-- Node1&#45;&gt;Node14 -->
<g id="edge13_Node000001_Node000014" class="edge">
<title>Node1&#45;&gt;Node14</title>
<g id="a_edge13_Node000001_Node000014"><a xlink:title=" ">
<path fill="none" stroke="orange" stroke-dasharray="5,2" d="M124.77,-488.11C183.7,-494.34 269.01,-503.36 328.58,-509.66"/>
<polygon fill="orange" stroke="orange" points="125.16,-484.63 114.85,-487.06 124.43,-491.6 125.16,-484.63"/>
</a>
</g>
<text text-anchor="start" x="138.5" y="-518" font-family="Helvetica,sans-Serif" font-size="10.00" fill="grey"> &lt; Int64Bind, Int64ArrayBind,</text>
<text text-anchor="middle" x="207.5" y="-507" font-family="Helvetica,sans-Serif" font-size="10.00" fill="grey"> Int64Define, Int64ArrayDefine &gt;</text>
</g>
<!-- Node16 -->
<g id="Node000016" class="node">
<title>Node16</title>
<g id="a_Node000016"><a xlink:href="struct_harlinn_1_1_o_c_i_1_1_internal_1_1_traits_impl.html" target="_top" xlink:title=" ">
<polygon fill="white" stroke="#666666" points="475,-473 323,-473 323,-421 475,-421 475,-473"/>
<text text-anchor="start" x="331" y="-461" font-family="Helvetica,sans-Serif" font-size="10.00">Harlinn::OCI::Internal</text>
<text text-anchor="start" x="331" y="-450" font-family="Helvetica,sans-Serif" font-size="10.00">::TraitsImpl&lt; SByteBind,</text>
<text text-anchor="start" x="331" y="-439" font-family="Helvetica,sans-Serif" font-size="10.00"> SByteArrayBind, SByteDefine,</text>
<text text-anchor="middle" x="399" y="-428" font-family="Helvetica,sans-Serif" font-size="10.00"> SByteArrayDefine &gt;</text>
</a>
</g>
</g>
<!-- Node1&#45;&gt;Node16 -->
<g id="edge15_Node000001_Node000016" class="edge">
<title>Node1&#45;&gt;Node16</title>
<g id="a_edge15_Node000001_Node000016"><a xlink:title=" ">
<path fill="none" stroke="orange" stroke-dasharray="5,2" d="M124.38,-466.97C126.61,-466.62 128.82,-466.3 131,-466 195.34,-457.18 269,-452.33 322.63,-449.74"/>
<polygon fill="orange" stroke="orange" points="123.93,-463.5 114.64,-468.6 125.09,-470.4 123.93,-463.5"/>
</a>
</g>
<text text-anchor="start" x="132.5" y="-480" font-family="Helvetica,sans-Serif" font-size="10.00" fill="grey"> &lt; SByteBind, SByteArrayBind,</text>
<text text-anchor="middle" x="207.5" y="-469" font-family="Helvetica,sans-Serif" font-size="10.00" fill="grey"> SByteDefine, SByteArrayDefine &gt;</text>
</g>
<!-- Node18 -->
<g id="Node000018" class="node">
<title>Node18</title>
<g id="a_Node000018"><a xlink:href="struct_harlinn_1_1_o_c_i_1_1_internal_1_1_traits_impl.html" target="_top" xlink:title=" ">
<polygon fill="white" stroke="#666666" points="475,-403 323,-403 323,-351 475,-351 475,-403"/>
<text text-anchor="start" x="331" y="-391" font-family="Helvetica,sans-Serif" font-size="10.00">Harlinn::OCI::Internal</text>
<text text-anchor="start" x="331" y="-380" font-family="Helvetica,sans-Serif" font-size="10.00">::TraitsImpl&lt; SingleBind,</text>
<text text-anchor="start" x="331" y="-369" font-family="Helvetica,sans-Serif" font-size="10.00"> SingleArrayBind, SingleDefine,</text>
<text text-anchor="middle" x="399" y="-358" font-family="Helvetica,sans-Serif" font-size="10.00"> SingleArrayDefine &gt;</text>
</a>
</g>
</g>
<!-- Node1&#45;&gt;Node18 -->
<g id="edge17_Node000001_Node000018" class="edge">
<title>Node1&#45;&gt;Node18</title>
<g id="a_edge17_Node000001_Node000018"><a xlink:title=" ">
<path fill="none" stroke="orange" stroke-dasharray="5,2" d="M81.78,-451.84C94.9,-438.09 112.23,-422.8 131,-414 164.05,-398.5 255.97,-388.15 322.73,-382.43"/>
<polygon fill="orange" stroke="orange" points="79.38,-449.27 75.21,-459.01 84.54,-454 79.38,-449.27"/>
</a>
</g>
<text text-anchor="start" x="139.5" y="-439" font-family="Helvetica,sans-Serif" font-size="10.00" fill="grey"> &lt; SingleBind, SingleArray</text>
<text text-anchor="start" x="139.5" y="-428" font-family="Helvetica,sans-Serif" font-size="10.00" fill="grey">Bind, SingleDefine, SingleArray</text>
<text text-anchor="middle" x="207.5" y="-417" font-family="Helvetica,sans-Serif" font-size="10.00" fill="grey">Define &gt;</text>
</g>
<!-- Node20 -->
<g id="Node000020" class="node">
<title>Node20</title>
<g id="a_Node000020"><a xlink:href="struct_harlinn_1_1_o_c_i_1_1_internal_1_1_traits_impl.html" target="_top" xlink:title=" ">
<polygon fill="white" stroke="#666666" points="476,-333 322,-333 322,-281 476,-281 476,-333"/>
<text text-anchor="start" x="330" y="-321" font-family="Helvetica,sans-Serif" font-size="10.00">Harlinn::OCI::Internal</text>
<text text-anchor="start" x="330" y="-310" font-family="Helvetica,sans-Serif" font-size="10.00">::TraitsImpl&lt; UInt16Bind,</text>
<text text-anchor="start" x="330" y="-299" font-family="Helvetica,sans-Serif" font-size="10.00"> UInt16ArrayBind, UInt16Define,</text>
<text text-anchor="middle" x="399" y="-288" font-family="Helvetica,sans-Serif" font-size="10.00"> UInt16ArrayDefine &gt;</text>
</a>
</g>
</g>
<!-- Node1&#45;&gt;Node20 -->
<g id="edge19_Node000001_Node000020" class="edge">
<title>Node1&#45;&gt;Node20</title>
<g id="a_edge19_Node000001_Node000020"><a xlink:title=" ">
<path fill="none" stroke="orange" stroke-dasharray="5,2" d="M66.18,-449.55C76.4,-418.76 96.52,-373.07 131,-349 146.51,-338.17 248.41,-324.32 321.72,-315.55"/>
<polygon fill="orange" stroke="orange" points="62.96,-448.12 63.3,-458.71 69.64,-450.21 62.96,-448.12"/>
</a>
</g>
<text text-anchor="start" x="138.5" y="-374" font-family="Helvetica,sans-Serif" font-size="10.00" fill="grey"> &lt; UInt16Bind, UInt16Array</text>
<text text-anchor="start" x="138.5" y="-363" font-family="Helvetica,sans-Serif" font-size="10.00" fill="grey">Bind, UInt16Define, UInt16Array</text>
<text text-anchor="middle" x="207.5" y="-352" font-family="Helvetica,sans-Serif" font-size="10.00" fill="grey">Define &gt;</text>
</g>
<!-- Node22 -->
<g id="Node000022" class="node">
<title>Node22</title>
<g id="a_Node000022"><a xlink:href="struct_harlinn_1_1_o_c_i_1_1_internal_1_1_traits_impl.html" target="_top" xlink:title=" ">
<polygon fill="white" stroke="#666666" points="476,-263 322,-263 322,-211 476,-211 476,-263"/>
<text text-anchor="start" x="330" y="-251" font-family="Helvetica,sans-Serif" font-size="10.00">Harlinn::OCI::Internal</text>
<text text-anchor="start" x="330" y="-240" font-family="Helvetica,sans-Serif" font-size="10.00">::TraitsImpl&lt; UInt32Bind,</text>
<text text-anchor="start" x="330" y="-229" font-family="Helvetica,sans-Serif" font-size="10.00"> UInt32ArrayBind, UInt32Define,</text>
<text text-anchor="middle" x="399" y="-218" font-family="Helvetica,sans-Serif" font-size="10.00"> UInt32ArrayDefine &gt;</text>
</a>
</g>
</g>
<!-- Node1&#45;&gt;Node22 -->
<g id="edge21_Node000001_Node000022" class="edge">
<title>Node1&#45;&gt;Node22</title>
<g id="a_edge21_Node000001_Node000022"><a xlink:title=" ">
<path fill="none" stroke="orange" stroke-dasharray="5,2" d="M59.81,-448.79C64.84,-404.28 80.74,-324.73 131,-283 138.4,-276.86 245.25,-259.8 321.51,-248.27"/>
<polygon fill="orange" stroke="orange" points="56.35,-448.29 58.84,-458.59 63.31,-448.99 56.35,-448.29"/>
</a>
</g>
<text text-anchor="start" x="138.5" y="-308" font-family="Helvetica,sans-Serif" font-size="10.00" fill="grey"> &lt; UInt32Bind, UInt32Array</text>
<text text-anchor="start" x="138.5" y="-297" font-family="Helvetica,sans-Serif" font-size="10.00" fill="grey">Bind, UInt32Define, UInt32Array</text>
<text text-anchor="middle" x="207.5" y="-286" font-family="Helvetica,sans-Serif" font-size="10.00" fill="grey">Define &gt;</text>
</g>
<!-- Node24 -->
<g id="Node000024" class="node">
<title>Node24</title>
<g id="a_Node000024"><a xlink:href="struct_harlinn_1_1_o_c_i_1_1_internal_1_1_traits_impl.html" target="_top" xlink:title=" ">
<polygon fill="white" stroke="#666666" points="476,-193 322,-193 322,-141 476,-141 476,-193"/>
<text text-anchor="start" x="330" y="-181" font-family="Helvetica,sans-Serif" font-size="10.00">Harlinn::OCI::Internal</text>
<text text-anchor="start" x="330" y="-170" font-family="Helvetica,sans-Serif" font-size="10.00">::TraitsImpl&lt; UInt64Bind,</text>
<text text-anchor="start" x="330" y="-159" font-family="Helvetica,sans-Serif" font-size="10.00"> UInt64ArrayBind, UInt64Define,</text>
<text text-anchor="middle" x="399" y="-148" font-family="Helvetica,sans-Serif" font-size="10.00"> UInt64ArrayDefine &gt;</text>
</a>
</g>
</g>
<!-- Node1&#45;&gt;Node24 -->
<g id="edge23_Node000001_Node000024" class="edge">
<title>Node1&#45;&gt;Node24</title>
<g id="a_edge23_Node000001_Node000024"><a xlink:title=" ">
<path fill="none" stroke="orange" stroke-dasharray="5,2" d="M62.17,-449.04C72.04,-386.08 96.9,-249.35 131,-218 158.31,-192.88 252.81,-179.38 321.66,-172.7"/>
<polygon fill="orange" stroke="orange" points="58.74,-448.34 60.68,-458.75 65.66,-449.4 58.74,-448.34"/>
</a>
</g>
<text text-anchor="start" x="138.5" y="-243" font-family="Helvetica,sans-Serif" font-size="10.00" fill="grey"> &lt; UInt64Bind, UInt64Array</text>
<text text-anchor="start" x="138.5" y="-232" font-family="Helvetica,sans-Serif" font-size="10.00" fill="grey">Bind, UInt64Define, UInt64Array</text>
<text text-anchor="middle" x="207.5" y="-221" font-family="Helvetica,sans-Serif" font-size="10.00" fill="grey">Define &gt;</text>
</g>
<!-- Node26 -->
<g id="Node000026" class="node">
<title>Node26</title>
<g id="a_Node000026"><a xlink:href="struct_harlinn_1_1_o_c_i_1_1_internal_1_1_traits_impl.html" target="_top" xlink:title=" ">
<polygon fill="white" stroke="#666666" points="480.5,-123 317.5,-123 317.5,-71 480.5,-71 480.5,-123"/>
<text text-anchor="start" x="325.5" y="-111" font-family="Helvetica,sans-Serif" font-size="10.00">Harlinn::OCI::Internal</text>
<text text-anchor="start" x="325.5" y="-100" font-family="Helvetica,sans-Serif" font-size="10.00">::TraitsImpl&lt; CStringBind,</text>
<text text-anchor="start" x="325.5" y="-89" font-family="Helvetica,sans-Serif" font-size="10.00"> CStringArrayBind, CStringDefine,</text>
<text text-anchor="middle" x="399" y="-78" font-family="Helvetica,sans-Serif" font-size="10.00"> CStringArrayDefine &gt;</text>
</a>
</g>
</g>
<!-- Node1&#45;&gt;Node26 -->
<g id="edge25_Node000001_Node000026" class="edge">
<title>Node1&#45;&gt;Node26</title>
<g id="a_edge25_Node000001_Node000026"><a xlink:title=" ">
<path fill="none" stroke="orange" stroke-dasharray="5,2" d="M59.9,-448.79C66.29,-372.19 86.38,-182.33 131,-140 179.96,-93.55 258.13,-85.7 317.26,-87.76"/>
<polygon fill="orange" stroke="orange" points="56.43,-448.32 59.11,-458.57 63.4,-448.88 56.43,-448.32"/>
</a>
</g>
<text text-anchor="start" x="134" y="-165" font-family="Helvetica,sans-Serif" font-size="10.00" fill="grey"> &lt; CStringBind, CStringArray</text>
<text text-anchor="start" x="134" y="-154" font-family="Helvetica,sans-Serif" font-size="10.00" fill="grey">Bind, CStringDefine, CStringArray</text>
<text text-anchor="middle" x="207.5" y="-143" font-family="Helvetica,sans-Serif" font-size="10.00" fill="grey">Define &gt;</text>
</g>
<!-- Node29 -->
<g id="Node000029" class="node">
<title>Node29</title>
<g id="a_Node000029"><a xlink:href="struct_harlinn_1_1_o_c_i_1_1_internal_1_1_traits_impl.html" target="_top" xlink:title=" ">
<polygon fill="white" stroke="#666666" points="483.5,-52 314.5,-52 314.5,0 483.5,0 483.5,-52"/>
<text text-anchor="start" x="322.5" y="-40" font-family="Helvetica,sans-Serif" font-size="10.00">Harlinn::OCI::Internal</text>
<text text-anchor="start" x="322.5" y="-29" font-family="Helvetica,sans-Serif" font-size="10.00">::TraitsImpl&lt; BooleanBind,</text>
<text text-anchor="start" x="322.5" y="-18" font-family="Helvetica,sans-Serif" font-size="10.00"> BooleanArrayBind, BooleanDefine,</text>
<text text-anchor="middle" x="399" y="-7" font-family="Helvetica,sans-Serif" font-size="10.00"> BooleanArrayDefine &gt;</text>
</a>
</g>
</g>
<!-- Node1&#45;&gt;Node29 -->
<g id="edge28_Node000001_Node000029" class="edge">
<title>Node1&#45;&gt;Node29</title>
<g id="a_edge28_Node000001_Node000029"><a xlink:title=" ">
<path fill="none" stroke="orange" stroke-dasharray="5,2" d="M58.12,-448.68C60.57,-357.94 72.63,-103.92 131,-50 179.29,-5.39 255.58,-2.7 314.26,-9.26"/>
<polygon fill="orange" stroke="orange" points="54.62,-448.53 57.87,-458.61 61.62,-448.7 54.62,-448.53"/>
</a>
</g>
<text text-anchor="start" x="131" y="-75" font-family="Helvetica,sans-Serif" font-size="10.00" fill="grey"> &lt; BooleanBind, BooleanArray</text>
<text text-anchor="start" x="131" y="-64" font-family="Helvetica,sans-Serif" font-size="10.00" fill="grey">Bind, BooleanDefine, BooleanArray</text>
<text text-anchor="middle" x="207.5" y="-53" font-family="Helvetica,sans-Serif" font-size="10.00" fill="grey">Define &gt;</text>
</g>
<!-- Node3 -->
<g id="Node000003" class="node">
<title>Node3</title>
<g id="a_Node000003"><a xlink:href="struct_harlinn_1_1_o_c_i_1_1_internal_1_1_traits_3_01_byte_01_4.html" target="_top" xlink:title=" ">
<polygon fill="white" stroke="#666666" points="643,-952 536,-952 536,-922 643,-922 643,-952"/>
<text text-anchor="start" x="544" y="-940" font-family="Helvetica,sans-Serif" font-size="10.00">Harlinn::OCI::Internal</text>
<text text-anchor="middle" x="589.5" y="-929" font-family="Helvetica,sans-Serif" font-size="10.00">::Traits&lt; Byte &gt;</text>
</a>
</g>
</g>
<!-- Node2&#45;&gt;Node3 -->
<g id="edge2_Node000002_Node000003" class="edge">
<title>Node2&#45;&gt;Node3</title>
<g id="a_edge2_Node000002_Node000003"><a xlink:title=" ">
<path fill="none" stroke="#63b8ff" d="M480.13,-937C498.94,-937 518.52,-937 535.78,-937"/>
<polygon fill="#63b8ff" stroke="#63b8ff" points="480.37,-933.5 470.37,-937 480.37,-940.5 480.37,-933.5"/>
</a>
</g>
</g>
<!-- Node5 -->
<g id="Node000005" class="node">
<title>Node5</title>
<g id="a_Node000005"><a xlink:href="struct_harlinn_1_1_o_c_i_1_1_internal_1_1_traits_3_01_date_time_01_4.html" target="_top" xlink:title=" ">
<polygon fill="white" stroke="#666666" points="643,-882 536,-882 536,-852 643,-852 643,-882"/>
<text text-anchor="start" x="544" y="-870" font-family="Helvetica,sans-Serif" font-size="10.00">Harlinn::OCI::Internal</text>
<text text-anchor="middle" x="589.5" y="-859" font-family="Helvetica,sans-Serif" font-size="10.00">::Traits&lt; DateTime &gt;</text>
</a>
</g>
</g>
<!-- Node4&#45;&gt;Node5 -->
<g id="edge4_Node000004_Node000005" class="edge">
<title>Node4&#45;&gt;Node5</title>
<g id="a_edge4_Node000004_Node000005"><a xlink:title=" ">
<path fill="none" stroke="#63b8ff" d="M507.88,-867C517.56,-867 527.04,-867 535.91,-867"/>
<polygon fill="#63b8ff" stroke="#63b8ff" points="507.97,-863.5 497.97,-867 507.97,-870.5 507.97,-863.5"/>
</a>
</g>
</g>
<!-- Node7 -->
<g id="Node000007" class="node">
<title>Node7</title>
<g id="a_Node000007"><a xlink:href="struct_harlinn_1_1_o_c_i_1_1_internal_1_1_traits_3_01_double_01_4.html" target="_top" xlink:title=" ">
<polygon fill="white" stroke="#666666" points="643,-812 536,-812 536,-782 643,-782 643,-812"/>
<text text-anchor="start" x="544" y="-800" font-family="Helvetica,sans-Serif" font-size="10.00">Harlinn::OCI::Internal</text>
<text text-anchor="middle" x="589.5" y="-789" font-family="Helvetica,sans-Serif" font-size="10.00">::Traits&lt; Double &gt;</text>
</a>
</g>
</g>
<!-- Node6&#45;&gt;Node7 -->
<g id="edge6_Node000006_Node000007" class="edge">
<title>Node6&#45;&gt;Node7</title>
<g id="a_edge6_Node000006_Node000007"><a xlink:title=" ">
<path fill="none" stroke="#63b8ff" d="M489.7,-797C505.44,-797 521.34,-797 535.65,-797"/>
<polygon fill="#63b8ff" stroke="#63b8ff" points="489.82,-793.5 479.82,-797 489.82,-800.5 489.82,-793.5"/>
</a>
</g>
</g>
<!-- Node9 -->
<g id="Node000009" class="node">
<title>Node9</title>
<g id="a_Node000009"><a xlink:href="struct_harlinn_1_1_o_c_i_1_1_internal_1_1_traits_3_01_guid_01_4.html" target="_top" xlink:title=" ">
<polygon fill="white" stroke="#666666" points="643,-742 536,-742 536,-712 643,-712 643,-742"/>
<text text-anchor="start" x="544" y="-730" font-family="Helvetica,sans-Serif" font-size="10.00">Harlinn::OCI::Internal</text>
<text text-anchor="middle" x="589.5" y="-719" font-family="Helvetica,sans-Serif" font-size="10.00">::Traits&lt; Guid &gt;</text>
</a>
</g>
</g>
<!-- Node8&#45;&gt;Node9 -->
<g id="edge8_Node000008_Node000009" class="edge">
<title>Node8&#45;&gt;Node9</title>
<g id="a_edge8_Node000008_Node000009"><a xlink:title=" ">
<path fill="none" stroke="#63b8ff" d="M480.13,-727C498.94,-727 518.52,-727 535.78,-727"/>
<polygon fill="#63b8ff" stroke="#63b8ff" points="480.37,-723.5 470.37,-727 480.37,-730.5 480.37,-723.5"/>
</a>
</g>
</g>
<!-- Node11 -->
<g id="Node000011" class="node">
<title>Node11</title>
<g id="a_Node000011"><a xlink:href="struct_harlinn_1_1_o_c_i_1_1_internal_1_1_traits_3_01_int16_01_4.html" target="_top" xlink:title=" ">
<polygon fill="white" stroke="#666666" points="643,-672 536,-672 536,-642 643,-642 643,-672"/>
<text text-anchor="start" x="544" y="-660" font-family="Helvetica,sans-Serif" font-size="10.00">Harlinn::OCI::Internal</text>
<text text-anchor="middle" x="589.5" y="-649" font-family="Helvetica,sans-Serif" font-size="10.00">::Traits&lt; Int16 &gt;</text>
</a>
</g>
</g>
<!-- Node10&#45;&gt;Node11 -->
<g id="edge10_Node000010_Node000011" class="edge">
<title>Node10&#45;&gt;Node11</title>
<g id="a_edge10_Node000010_Node000011"><a xlink:title=" ">
<path fill="none" stroke="#63b8ff" d="M480.85,-657C499.44,-657 518.74,-657 535.78,-657"/>
<polygon fill="#63b8ff" stroke="#63b8ff" points="480.9,-653.5 470.9,-657 480.9,-660.5 480.9,-653.5"/>
</a>
</g>
</g>
<!-- Node13 -->
<g id="Node000013" class="node">
<title>Node13</title>
<g id="a_Node000013"><a xlink:href="struct_harlinn_1_1_o_c_i_1_1_internal_1_1_traits_3_01_int32_01_4.html" target="_top" xlink:title=" ">
<polygon fill="white" stroke="#666666" points="643,-602 536,-602 536,-572 643,-572 643,-602"/>
<text text-anchor="start" x="544" y="-590" font-family="Helvetica,sans-Serif" font-size="10.00">Harlinn::OCI::Internal</text>
<text text-anchor="middle" x="589.5" y="-579" font-family="Helvetica,sans-Serif" font-size="10.00">::Traits&lt; Int32 &gt;</text>
</a>
</g>
</g>
<!-- Node12&#45;&gt;Node13 -->
<g id="edge12_Node000012_Node000013" class="edge">
<title>Node12&#45;&gt;Node13</title>
<g id="a_edge12_Node000012_Node000013"><a xlink:title=" ">
<path fill="none" stroke="#63b8ff" d="M480.85,-587C499.44,-587 518.74,-587 535.78,-587"/>
<polygon fill="#63b8ff" stroke="#63b8ff" points="480.9,-583.5 470.9,-587 480.9,-590.5 480.9,-583.5"/>
</a>
</g>
</g>
<!-- Node15 -->
<g id="Node000015" class="node">
<title>Node15</title>
<g id="a_Node000015"><a xlink:href="struct_harlinn_1_1_o_c_i_1_1_internal_1_1_traits_3_01_int64_01_4.html" target="_top" xlink:title=" ">
<polygon fill="white" stroke="#666666" points="643,-532 536,-532 536,-502 643,-502 643,-532"/>
<text text-anchor="start" x="544" y="-520" font-family="Helvetica,sans-Serif" font-size="10.00">Harlinn::OCI::Internal</text>
<text text-anchor="middle" x="589.5" y="-509" font-family="Helvetica,sans-Serif" font-size="10.00">::Traits&lt; Int64 &gt;</text>
</a>
</g>
</g>
<!-- Node14&#45;&gt;Node15 -->
<g id="edge14_Node000014_Node000015" class="edge">
<title>Node14&#45;&gt;Node15</title>
<g id="a_edge14_Node000014_Node000015"><a xlink:title=" ">
<path fill="none" stroke="#63b8ff" d="M480.85,-517C499.44,-517 518.74,-517 535.78,-517"/>
<polygon fill="#63b8ff" stroke="#63b8ff" points="480.9,-513.5 470.9,-517 480.9,-520.5 480.9,-513.5"/>
</a>
</g>
</g>
<!-- Node17 -->
<g id="Node000017" class="node">
<title>Node17</title>
<g id="a_Node000017"><a xlink:href="struct_harlinn_1_1_o_c_i_1_1_internal_1_1_traits_3_01_s_byte_01_4.html" target="_top" xlink:title=" ">
<polygon fill="white" stroke="#666666" points="643,-462 536,-462 536,-432 643,-432 643,-462"/>
<text text-anchor="start" x="544" y="-450" font-family="Helvetica,sans-Serif" font-size="10.00">Harlinn::OCI::Internal</text>
<text text-anchor="middle" x="589.5" y="-439" font-family="Helvetica,sans-Serif" font-size="10.00">::Traits&lt; SByte &gt;</text>
</a>
</g>
</g>
<!-- Node16&#45;&gt;Node17 -->
<g id="edge16_Node000016_Node000017" class="edge">
<title>Node16&#45;&gt;Node17</title>
<g id="a_edge16_Node000016_Node000017"><a xlink:title=" ">
<path fill="none" stroke="#63b8ff" d="M486.78,-447C503.45,-447 520.43,-447 535.63,-447"/>
<polygon fill="#63b8ff" stroke="#63b8ff" points="486.83,-443.5 476.83,-447 486.83,-450.5 486.83,-443.5"/>
</a>
</g>
</g>
<!-- Node19 -->
<g id="Node000019" class="node">
<title>Node19</title>
<g id="a_Node000019"><a xlink:href="struct_harlinn_1_1_o_c_i_1_1_internal_1_1_traits_3_01_single_01_4.html" target="_top" xlink:title=" ">
<polygon fill="white" stroke="#666666" points="643,-392 536,-392 536,-362 643,-362 643,-392"/>
<text text-anchor="start" x="544" y="-380" font-family="Helvetica,sans-Serif" font-size="10.00">Harlinn::OCI::Internal</text>
<text text-anchor="middle" x="589.5" y="-369" font-family="Helvetica,sans-Serif" font-size="10.00">::Traits&lt; Single &gt;</text>
</a>
</g>
</g>
<!-- Node18&#45;&gt;Node19 -->
<g id="edge18_Node000018_Node000019" class="edge">
<title>Node18&#45;&gt;Node19</title>
<g id="a_edge18_Node000018_Node000019"><a xlink:title=" ">
<path fill="none" stroke="#63b8ff" d="M486.78,-377C503.45,-377 520.43,-377 535.63,-377"/>
<polygon fill="#63b8ff" stroke="#63b8ff" points="486.83,-373.5 476.83,-377 486.83,-380.5 486.83,-373.5"/>
</a>
</g>
</g>
<!-- Node21 -->
<g id="Node000021" class="node">
<title>Node21</title>
<g id="a_Node000021"><a xlink:href="struct_harlinn_1_1_o_c_i_1_1_internal_1_1_traits_3_01_u_int16_01_4.html" target="_top" xlink:title=" ">
<polygon fill="white" stroke="#666666" points="643,-322 536,-322 536,-292 643,-292 643,-322"/>
<text text-anchor="start" x="544" y="-310" font-family="Helvetica,sans-Serif" font-size="10.00">Harlinn::OCI::Internal</text>
<text text-anchor="middle" x="589.5" y="-299" font-family="Helvetica,sans-Serif" font-size="10.00">::Traits&lt; UInt16 &gt;</text>
</a>
</g>
</g>
<!-- Node20&#45;&gt;Node21 -->
<g id="edge20_Node000020_Node000021" class="edge">
<title>Node20&#45;&gt;Node21</title>
<g id="a_edge20_Node000020_Node000021"><a xlink:title=" ">
<path fill="none" stroke="#63b8ff" d="M487.68,-307C504.08,-307 520.75,-307 535.68,-307"/>
<polygon fill="#63b8ff" stroke="#63b8ff" points="487.91,-303.5 477.91,-307 487.91,-310.5 487.91,-303.5"/>
</a>
</g>
</g>
<!-- Node23 -->
<g id="Node000023" class="node">
<title>Node23</title>
<g id="a_Node000023"><a xlink:href="struct_harlinn_1_1_o_c_i_1_1_internal_1_1_traits_3_01_u_int32_01_4.html" target="_top" xlink:title=" ">
<polygon fill="white" stroke="#666666" points="643,-252 536,-252 536,-222 643,-222 643,-252"/>
<text text-anchor="start" x="544" y="-240" font-family="Helvetica,sans-Serif" font-size="10.00">Harlinn::OCI::Internal</text>
<text text-anchor="middle" x="589.5" y="-229" font-family="Helvetica,sans-Serif" font-size="10.00">::Traits&lt; UInt32 &gt;</text>
</a>
</g>
</g>
<!-- Node22&#45;&gt;Node23 -->
<g id="edge22_Node000022_Node000023" class="edge">
<title>Node22&#45;&gt;Node23</title>
<g id="a_edge22_Node000022_Node000023"><a xlink:title=" ">
<path fill="none" stroke="#63b8ff" d="M487.68,-237C504.08,-237 520.75,-237 535.68,-237"/>
<polygon fill="#63b8ff" stroke="#63b8ff" points="487.91,-233.5 477.91,-237 487.91,-240.5 487.91,-233.5"/>
</a>
</g>
</g>
<!-- Node25 -->
<g id="Node000025" class="node">
<title>Node25</title>
<g id="a_Node000025"><a xlink:href="struct_harlinn_1_1_o_c_i_1_1_internal_1_1_traits_3_01_u_int64_01_4.html" target="_top" xlink:title=" ">
<polygon fill="white" stroke="#666666" points="643,-183 536,-183 536,-153 643,-153 643,-183"/>
<text text-anchor="start" x="544" y="-171" font-family="Helvetica,sans-Serif" font-size="10.00">Harlinn::OCI::Internal</text>
<text text-anchor="middle" x="589.5" y="-160" font-family="Helvetica,sans-Serif" font-size="10.00">::Traits&lt; UInt64 &gt;</text>
</a>
</g>
</g>
<!-- Node24&#45;&gt;Node25 -->
<g id="edge24_Node000024_Node000025" class="edge">
<title>Node24&#45;&gt;Node25</title>
<g id="a_edge24_Node000024_Node000025"><a xlink:title=" ">
<path fill="none" stroke="#63b8ff" d="M487.68,-167.47C504.08,-167.55 520.75,-167.64 535.68,-167.72"/>
<polygon fill="#63b8ff" stroke="#63b8ff" points="487.93,-163.97 477.91,-167.41 487.89,-170.97 487.93,-163.97"/>
</a>
</g>
</g>
<!-- Node27 -->
<g id="Node000027" class="node">
<title>Node27</title>
<g id="a_Node000027"><a xlink:href="struct_harlinn_1_1_o_c_i_1_1_internal_1_1_traits_3_01_wide_string_01_4.html" target="_top" xlink:title=" ">
<polygon fill="white" stroke="#666666" points="646,-135 533,-135 533,-105 646,-105 646,-135"/>
<text text-anchor="start" x="541" y="-123" font-family="Helvetica,sans-Serif" font-size="10.00">Harlinn::OCI::Internal</text>
<text text-anchor="middle" x="589.5" y="-112" font-family="Helvetica,sans-Serif" font-size="10.00">::Traits&lt; WideString &gt;</text>
</a>
</g>
</g>
<!-- Node26&#45;&gt;Node27 -->
<g id="edge26_Node000026_Node000027" class="edge">
<title>Node26&#45;&gt;Node27</title>
<g id="a_edge26_Node000026_Node000027"><a xlink:title=" ">
<path fill="none" stroke="#63b8ff" d="M491.89,-108.21C505.81,-109.91 519.8,-111.62 532.64,-113.18"/>
<polygon fill="#63b8ff" stroke="#63b8ff" points="492.61,-104.77 482.26,-107.04 491.77,-111.72 492.61,-104.77"/>
</a>
</g>
</g>
<!-- Node28 -->
<g id="Node000028" class="node">
<title>Node28</title>
<g id="a_Node000028"><a xlink:href="struct_harlinn_1_1_o_c_i_1_1_internal_1_1_traits_3_01wchar__t_01_5_01_4.html" target="_top" xlink:title=" ">
<polygon fill="white" stroke="#666666" points="643,-87 536,-87 536,-57 643,-57 643,-87"/>
<text text-anchor="start" x="544" y="-75" font-family="Helvetica,sans-Serif" font-size="10.00">Harlinn::OCI::Internal</text>
<text text-anchor="middle" x="589.5" y="-64" font-family="Helvetica,sans-Serif" font-size="10.00">::Traits&lt; wchar_t * &gt;</text>
</a>
</g>
</g>
<!-- Node26&#45;&gt;Node28 -->
<g id="edge27_Node000026_Node000028" class="edge">
<title>Node26&#45;&gt;Node28</title>
<g id="a_edge27_Node000026_Node000028"><a xlink:title=" ">
<path fill="none" stroke="#63b8ff" d="M492.15,-84.78C507.1,-82.8 522.11,-80.81 535.69,-79"/>
<polygon fill="#63b8ff" stroke="#63b8ff" points="491.71,-81.31 482.26,-86.09 492.64,-88.24 491.71,-81.31"/>
</a>
</g>
</g>
<!-- Node30 -->
<g id="Node000030" class="node">
<title>Node30</title>
<g id="a_Node000030"><a xlink:href="struct_harlinn_1_1_o_c_i_1_1_internal_1_1_traits_3_01bool_01_4.html" target="_top" xlink:title=" ">
<polygon fill="white" stroke="#666666" points="643,-39 536,-39 536,-9 643,-9 643,-39"/>
<text text-anchor="start" x="544" y="-27" font-family="Helvetica,sans-Serif" font-size="10.00">Harlinn::OCI::Internal</text>
<text text-anchor="middle" x="589.5" y="-16" font-family="Helvetica,sans-Serif" font-size="10.00">::Traits&lt; bool &gt;</text>
</a>
</g>
</g>
<!-- Node29&#45;&gt;Node30 -->
<g id="edge29_Node000029_Node000030" class="edge">
<title>Node29&#45;&gt;Node30</title>
<g id="a_edge29_Node000029_Node000030"><a xlink:title=" ">
<path fill="none" stroke="#63b8ff" d="M494.96,-24.99C508.92,-24.84 522.87,-24.7 535.56,-24.56"/>
<polygon fill="#63b8ff" stroke="#63b8ff" points="495.25,-21.49 485.29,-25.1 495.33,-28.49 495.25,-21.49"/>
</a>
</g>
</g>
</g>
</svg>
