<?xml version="1.0" encoding="UTF-8" standalone="no"?>
<!DOCTYPE svg PUBLIC "-//W3C//DTD SVG 1.1//EN"
 "http://www.w3.org/Graphics/SVG/1.1/DTD/svg11.dtd">
<!-- Generated by graphviz version 7.0.1 (20221109.1506)
 -->
<!-- Title: Harlinn::Windows::DML::Model::Internal::OperatorNode Pages: 1 -->
<svg width="2352pt" height="680pt"
 viewBox="0.00 0.00 2352.00 679.50" xmlns="http://www.w3.org/2000/svg" xmlns:xlink="http://www.w3.org/1999/xlink">
<g id="graph0" class="graph" transform="scale(1 1) rotate(0) translate(4 675.5)">
<title>Harlinn::Windows::DML::Model::Internal::OperatorNode</title>
<!-- Node1 -->
<g id="Node000001" class="node">
<title>Node1</title>
<g id="a_Node000001"><a xlink:title=" ">
<polygon fill="#999999" stroke="#666666" points="1009,-320.5 857,-320.5 857,-290.5 1009,-290.5 1009,-320.5"/>
<text text-anchor="start" x="865" y="-308.5" font-family="Helvetica,sans-Serif" font-size="10.00">Harlinn::Windows::DML</text>
<text text-anchor="middle" x="933" y="-297.5" font-family="Helvetica,sans-Serif" font-size="10.00">::Model::Internal::OperatorNode</text>
</a>
</g>
</g>
<!-- Node16 -->
<g id="Node000016" class="node">
<title>Node16</title>
<g id="a_Node000016"><a xlink:title=" ">
<polygon fill="white" stroke="#666666" points="1295,-305 1166,-305 1166,-264 1295,-264 1295,-305"/>
<text text-anchor="start" x="1174" y="-293" font-family="Helvetica,sans-Serif" font-size="10.00">std::vector&lt; Harlinn</text>
<text text-anchor="start" x="1174" y="-282" font-family="Helvetica,sans-Serif" font-size="10.00">::Windows::DML::Model</text>
<text text-anchor="middle" x="1230.5" y="-271" font-family="Helvetica,sans-Serif" font-size="10.00">::Internal::OperatorNode &gt;</text>
</a>
</g>
</g>
<!-- Node1&#45;&gt;Node16 -->
<g id="edge17_Node000016_Node000001" class="edge">
<title>Node1&#45;&gt;Node16</title>
<g id="a_edge17_Node000016_Node000001"><a xlink:title=" ">
<path fill="none" stroke="#9a32cd" stroke-dasharray="5,2" d="M1020.5,-311.17C1059.33,-312.37 1105.62,-311.92 1147,-306.5 1153.17,-305.69 1159.54,-304.56 1165.87,-303.22"/>
<polygon fill="#9a32cd" stroke="#9a32cd" points="1020.86,-307.69 1010.74,-310.83 1020.61,-314.68 1020.86,-307.69"/>
</a>
</g>
<text text-anchor="middle" x="1087.5" y="-314.5" font-family="Helvetica,sans-Serif" font-size="10.00" fill="grey"> elements</text>
</g>
<!-- Node2 -->
<g id="Node000002" class="node">
<title>Node2</title>
<g id="a_Node000002"><a xlink:href="class_harlinn_1_1_windows_1_1_d_m_l_1_1_operator.html" target="_top" xlink:title=" ">
<polygon fill="white" stroke="#666666" points="714.5,-340.5 595.5,-340.5 595.5,-310.5 714.5,-310.5 714.5,-340.5"/>
<text text-anchor="start" x="603.5" y="-328.5" font-family="Helvetica,sans-Serif" font-size="10.00">Harlinn::Windows::DML</text>
<text text-anchor="middle" x="655" y="-317.5" font-family="Helvetica,sans-Serif" font-size="10.00">::Operator</text>
</a>
</g>
</g>
<!-- Node2&#45;&gt;Node1 -->
<g id="edge1_Node000001_Node000002" class="edge">
<title>Node2&#45;&gt;Node1</title>
<g id="a_edge1_Node000001_Node000002"><a xlink:title=" ">
<path fill="none" stroke="#9a32cd" stroke-dasharray="5,2" d="M726.1,-320.42C765.98,-317.53 815.94,-313.91 856.66,-310.96"/>
<polygon fill="#9a32cd" stroke="#9a32cd" points="726.1,-316.91 716.38,-321.12 726.61,-323.89 726.1,-316.91"/>
</a>
</g>
<text text-anchor="middle" x="786" y="-322.5" font-family="Helvetica,sans-Serif" font-size="10.00" fill="grey"> op</text>
</g>
<!-- Node3 -->
<g id="Node000003" class="node">
<title>Node3</title>
<g id="a_Node000003"><a xlink:href="class_harlinn_1_1_windows_1_1_d_m_l_1_1_device_child.html" target="_top" xlink:title=" ">
<polygon fill="white" stroke="#666666" points="472,-349.5 353,-349.5 353,-319.5 472,-319.5 472,-349.5"/>
<text text-anchor="start" x="361" y="-337.5" font-family="Helvetica,sans-Serif" font-size="10.00">Harlinn::Windows::DML</text>
<text text-anchor="middle" x="412.5" y="-326.5" font-family="Helvetica,sans-Serif" font-size="10.00">::DeviceChild</text>
</a>
</g>
</g>
<!-- Node3&#45;&gt;Node2 -->
<g id="edge2_Node000002_Node000003" class="edge">
<title>Node3&#45;&gt;Node2</title>
<g id="a_edge2_Node000002_Node000003"><a xlink:title=" ">
<path fill="none" stroke="#63b8ff" d="M483.58,-331.88C519.06,-330.55 561.64,-328.96 595.36,-327.69"/>
<polygon fill="#63b8ff" stroke="#63b8ff" points="483.71,-328.37 473.85,-332.24 483.97,-335.37 483.71,-328.37"/>
</a>
</g>
</g>
<!-- Node4 -->
<g id="Node000004" class="node">
<title>Node4</title>
<g id="a_Node000004"><a xlink:href="class_harlinn_1_1_windows_1_1_d_m_l_1_1_object.html" target="_top" xlink:title=" ">
<polygon fill="white" stroke="#666666" points="274,-393.5 155,-393.5 155,-363.5 274,-363.5 274,-393.5"/>
<text text-anchor="start" x="163" y="-381.5" font-family="Helvetica,sans-Serif" font-size="10.00">Harlinn::Windows::DML</text>
<text text-anchor="middle" x="214.5" y="-370.5" font-family="Helvetica,sans-Serif" font-size="10.00">::Object</text>
</a>
</g>
</g>
<!-- Node4&#45;&gt;Node3 -->
<g id="edge3_Node000003_Node000004" class="edge">
<title>Node4&#45;&gt;Node3</title>
<g id="a_edge3_Node000003_Node000004"><a xlink:title=" ">
<path fill="none" stroke="#63b8ff" d="M285.29,-362.83C307.36,-357.88 331.52,-352.46 352.74,-347.69"/>
<polygon fill="#63b8ff" stroke="#63b8ff" points="284.77,-359.36 275.78,-364.97 286.31,-366.19 284.77,-359.36"/>
</a>
</g>
</g>
<!-- Node10 -->
<g id="Node000010" class="node">
<title>Node10</title>
<g id="a_Node000010"><a xlink:href="class_harlinn_1_1_windows_1_1_d_m_l_1_1_device.html" target="_top" xlink:title=" ">
<polygon fill="white" stroke="#666666" points="472,-437.5 353,-437.5 353,-407.5 472,-407.5 472,-437.5"/>
<text text-anchor="start" x="361" y="-425.5" font-family="Helvetica,sans-Serif" font-size="10.00">Harlinn::Windows::DML</text>
<text text-anchor="middle" x="412.5" y="-414.5" font-family="Helvetica,sans-Serif" font-size="10.00">::Device</text>
</a>
</g>
</g>
<!-- Node4&#45;&gt;Node10 -->
<g id="edge10_Node000010_Node000004" class="edge">
<title>Node4&#45;&gt;Node10</title>
<g id="a_edge10_Node000010_Node000004"><a xlink:title=" ">
<path fill="none" stroke="#63b8ff" d="M285.29,-394.17C307.36,-399.12 331.52,-404.54 352.74,-409.31"/>
<polygon fill="#63b8ff" stroke="#63b8ff" points="286.31,-390.81 275.78,-392.03 284.77,-397.64 286.31,-390.81"/>
</a>
</g>
</g>
<!-- Node5 -->
<g id="Node000005" class="node">
<title>Node5</title>
<g id="a_Node000005"><a xlink:href="class_harlinn_1_1_common_1_1_core_1_1_unknown.html" target="_top" xlink:title="Base class for COM interface wrappers.">
<polygon fill="white" stroke="#666666" points="118,-393.5 0,-393.5 0,-363.5 118,-363.5 118,-393.5"/>
<text text-anchor="start" x="8" y="-381.5" font-family="Helvetica,sans-Serif" font-size="10.00">Harlinn::Common::Core</text>
<text text-anchor="middle" x="59" y="-370.5" font-family="Helvetica,sans-Serif" font-size="10.00">::Unknown</text>
</a>
</g>
</g>
<!-- Node5&#45;&gt;Node4 -->
<g id="edge4_Node000004_Node000005" class="edge">
<title>Node5&#45;&gt;Node4</title>
<g id="a_edge4_Node000004_Node000005"><a xlink:title=" ">
<path fill="none" stroke="#63b8ff" d="M129.73,-378.5C138.07,-378.5 146.52,-378.5 154.68,-378.5"/>
<polygon fill="#63b8ff" stroke="#63b8ff" points="129.98,-375 119.98,-378.5 129.98,-382 129.98,-375"/>
</a>
</g>
</g>
<!-- Node6 -->
<g id="Node000006" class="node">
<title>Node6</title>
<g id="a_Node000006"><a xlink:title=" ">
<polygon fill="white" stroke="#666666" points="2109,-578 1981,-578 1981,-537 2109,-537 2109,-578"/>
<text text-anchor="start" x="1989" y="-566" font-family="Helvetica,sans-Serif" font-size="10.00">std::vector&lt; Harlinn</text>
<text text-anchor="start" x="1989" y="-555" font-family="Helvetica,sans-Serif" font-size="10.00">::Windows::DML::Model</text>
<text text-anchor="middle" x="2045" y="-544" font-family="Helvetica,sans-Serif" font-size="10.00">::Internal::NodeOutput * &gt;</text>
</a>
</g>
</g>
<!-- Node6&#45;&gt;Node1 -->
<g id="edge5_Node000001_Node000006" class="edge">
<title>Node6&#45;&gt;Node1</title>
<g id="a_edge5_Node000001_Node000006"><a xlink:title=" ">
<path fill="none" stroke="#9a32cd" stroke-dasharray="5,2" d="M1981.88,-582.37C1926.86,-602.14 1843.87,-626.5 1769,-626.5 1229.5,-626.5 1229.5,-626.5 1229.5,-626.5 1138.28,-626.5 1088.46,-655.8 1028,-587.5 989.9,-544.47 1045.57,-374.65 1010,-329.5 1007.43,-326.24 1004.42,-323.41 1001.11,-320.96"/>
<polygon fill="#9a32cd" stroke="#9a32cd" points="1982.89,-585.73 1991.08,-579 1980.49,-579.15 1982.89,-585.73"/>
</a>
</g>
<text text-anchor="middle" x="1488.5" y="-629.5" font-family="Helvetica,sans-Serif" font-size="10.00" fill="grey"> inputs</text>
</g>
<!-- Node7 -->
<g id="Node000007" class="node">
<title>Node7</title>
<g id="a_Node000007"><a xlink:href="class_harlinn_1_1_windows_1_1_d_m_l_1_1_model_1_1_internal_1_1_node_output.html" target="_top" xlink:title=" ">
<polygon fill="white" stroke="#666666" points="1840,-367.5 1696,-367.5 1696,-337.5 1840,-337.5 1840,-367.5"/>
<text text-anchor="start" x="1704" y="-355.5" font-family="Helvetica,sans-Serif" font-size="10.00">Harlinn::Windows::DML</text>
<text text-anchor="middle" x="1768" y="-344.5" font-family="Helvetica,sans-Serif" font-size="10.00">::Model::Internal::NodeOutput</text>
</a>
</g>
</g>
<!-- Node7&#45;&gt;Node6 -->
<g id="edge6_Node000006_Node000007" class="edge">
<title>Node7&#45;&gt;Node6</title>
<g id="a_edge6_Node000006_Node000007"><a xlink:title=" ">
<path fill="none" stroke="#9a32cd" stroke-dasharray="5,2" d="M1798.63,-374.59C1852,-414.37 1963.59,-497.56 2015.86,-536.52"/>
<polygon fill="#9a32cd" stroke="#9a32cd" points="1800.99,-371.98 1790.88,-368.81 1796.81,-377.6 1800.99,-371.98"/>
</a>
</g>
<text text-anchor="middle" x="1902" y="-481.5" font-family="Helvetica,sans-Serif" font-size="10.00" fill="grey"> elements</text>
</g>
<!-- Node18 -->
<g id="Node000018" class="node">
<title>Node18</title>
<g id="a_Node000018"><a xlink:href="struct_harlinn_1_1_windows_1_1_d_m_l_1_1_model_1_1_internal_1_1_reinterpret_node.html" target="_top" xlink:title=" ">
<polygon fill="white" stroke="#666666" points="2126,-355.5 1964,-355.5 1964,-325.5 2126,-325.5 2126,-355.5"/>
<text text-anchor="start" x="1972" y="-343.5" font-family="Helvetica,sans-Serif" font-size="10.00">Harlinn::Windows::DML</text>
<text text-anchor="middle" x="2045" y="-332.5" font-family="Helvetica,sans-Serif" font-size="10.00">::Model::Internal::ReinterpretNode</text>
</a>
</g>
</g>
<!-- Node7&#45;&gt;Node18 -->
<g id="edge21_Node000018_Node000007" class="edge">
<title>Node7&#45;&gt;Node18</title>
<g id="a_edge21_Node000018_Node000007"><a xlink:title=" ">
<path fill="none" stroke="#9a32cd" stroke-dasharray="5,2" d="M1851.51,-348.9C1887.1,-347.35 1928.58,-345.54 1963.9,-344"/>
<polygon fill="#9a32cd" stroke="#9a32cd" points="1851.53,-345.4 1841.69,-349.33 1851.83,-352.39 1851.53,-345.4"/>
</a>
</g>
<text text-anchor="middle" x="1902" y="-350.5" font-family="Helvetica,sans-Serif" font-size="10.00" fill="grey"> input</text>
</g>
<!-- Node25 -->
<g id="Node000025" class="node">
<title>Node25</title>
<g id="a_Node000025"><a xlink:title=" ">
<polygon fill="white" stroke="#666666" points="2105.5,-256 1984.5,-256 1984.5,-215 2105.5,-215 2105.5,-256"/>
<text text-anchor="start" x="1992.5" y="-244" font-family="Helvetica,sans-Serif" font-size="10.00">std::deque&lt; Harlinn</text>
<text text-anchor="start" x="1992.5" y="-233" font-family="Helvetica,sans-Serif" font-size="10.00">::Windows::DML::Model</text>
<text text-anchor="middle" x="2045" y="-222" font-family="Helvetica,sans-Serif" font-size="10.00">::Internal::NodeOutput &gt;</text>
</a>
</g>
</g>
<!-- Node7&#45;&gt;Node25 -->
<g id="edge32_Node000025_Node000007" class="edge">
<title>Node7&#45;&gt;Node25</title>
<g id="a_edge32_Node000025_Node000007"><a xlink:title=" ">
<path fill="none" stroke="#9a32cd" stroke-dasharray="5,2" d="M1841.46,-334.03C1874.11,-324.58 1912.73,-311.82 1946,-296.5 1970.21,-285.35 1995.72,-269.32 2014.64,-256.49"/>
<polygon fill="#9a32cd" stroke="#9a32cd" points="1840.75,-330.59 1832.08,-336.69 1842.66,-337.32 1840.75,-330.59"/>
</a>
</g>
<text text-anchor="middle" x="1902" y="-330.5" font-family="Helvetica,sans-Serif" font-size="10.00" fill="grey"> elements</text>
</g>
<!-- Node8 -->
<g id="Node000008" class="node">
<title>Node8</title>
<g id="a_Node000008"><a xlink:href="class_harlinn_1_1_windows_1_1_d_m_l_1_1_model_1_1_internal_1_1_graph_builder.html" target="_top" xlink:title=" ">
<polygon fill="white" stroke="#666666" points="1563,-299.5 1414,-299.5 1414,-269.5 1563,-269.5 1563,-299.5"/>
<text text-anchor="start" x="1422" y="-287.5" font-family="Helvetica,sans-Serif" font-size="10.00">Harlinn::Windows::DML</text>
<text text-anchor="middle" x="1488.5" y="-276.5" font-family="Helvetica,sans-Serif" font-size="10.00">::Model::Internal::GraphBuilder</text>
</a>
</g>
</g>
<!-- Node8&#45;&gt;Node7 -->
<g id="edge7_Node000007_Node000008" class="edge">
<title>Node8&#45;&gt;Node7</title>
<g id="a_edge7_Node000007_Node000008"><a xlink:title=" ">
<path fill="none" stroke="#9a32cd" stroke-dasharray="5,2" d="M1563.62,-302.66C1607.36,-313.38 1662.12,-326.8 1703.8,-337.01"/>
<polygon fill="#9a32cd" stroke="#9a32cd" points="1564.48,-299.27 1553.94,-300.29 1562.82,-306.07 1564.48,-299.27"/>
</a>
</g>
<text text-anchor="middle" x="1629.5" y="-333.5" font-family="Helvetica,sans-Serif" font-size="10.00" fill="grey"> owner_</text>
</g>
<!-- Node9 -->
<g id="Node000009" class="node">
<title>Node9</title>
<g id="a_Node000009"><a xlink:href="class_harlinn_1_1_windows_1_1_d_m_l_1_1_device1.html" target="_top" xlink:title=" ">
<polygon fill="white" stroke="#666666" points="1147,-671.5 1028,-671.5 1028,-641.5 1147,-641.5 1147,-671.5"/>
<text text-anchor="start" x="1036" y="-659.5" font-family="Helvetica,sans-Serif" font-size="10.00">Harlinn::Windows::DML</text>
<text text-anchor="middle" x="1087.5" y="-648.5" font-family="Helvetica,sans-Serif" font-size="10.00">::Device1</text>
</a>
</g>
</g>
<!-- Node9&#45;&gt;Node8 -->
<g id="edge8_Node000008_Node000009" class="edge">
<title>Node9&#45;&gt;Node8</title>
<g id="a_edge8_Node000008_Node000009"><a xlink:title=" ">
<path fill="none" stroke="#9a32cd" stroke-dasharray="5,2" d="M1090.05,-629.86C1094.2,-584.86 1109.38,-494.13 1165,-447.5 1244.9,-380.5 1320.41,-478.32 1396,-406.5 1421.79,-381.99 1393.07,-357.27 1414,-328.5 1422.93,-316.23 1436.41,-306.76 1449.4,-299.8"/>
<polygon fill="#9a32cd" stroke="#9a32cd" points="1086.57,-629.51 1089.27,-639.76 1093.55,-630.06 1086.57,-629.51"/>
</a>
</g>
<text text-anchor="middle" x="1230.5" y="-450.5" font-family="Helvetica,sans-Serif" font-size="10.00" fill="grey"> m_device</text>
</g>
<!-- Node10&#45;&gt;Node9 -->
<g id="edge9_Node000009_Node000010" class="edge">
<title>Node10&#45;&gt;Node9</title>
<g id="a_edge9_Node000009_Node000010"><a xlink:title=" ">
<path fill="none" stroke="#63b8ff" d="M467.4,-441.82C574.14,-479.97 820.09,-567.38 1028,-637.5 1031.44,-638.66 1035,-639.85 1038.58,-641.03"/>
<polygon fill="#63b8ff" stroke="#63b8ff" points="468.62,-438.53 458.02,-438.46 466.26,-445.13 468.62,-438.53"/>
</a>
</g>
</g>
<!-- Node11 -->
<g id="Node000011" class="node">
<title>Node11</title>
<g id="a_Node000011"><a xlink:href="class_harlinn_1_1_windows_1_1_d_m_l_1_1_model_1_1_tensor_policy.html" target="_top" xlink:title=" ">
<polygon fill="white" stroke="#666666" points="1290,-245.5 1171,-245.5 1171,-215.5 1290,-215.5 1290,-245.5"/>
<text text-anchor="start" x="1179" y="-233.5" font-family="Helvetica,sans-Serif" font-size="10.00">Harlinn::Windows::DML</text>
<text text-anchor="middle" x="1230.5" y="-222.5" font-family="Helvetica,sans-Serif" font-size="10.00">::Model::TensorPolicy</text>
</a>
</g>
</g>
<!-- Node11&#45;&gt;Node8 -->
<g id="edge11_Node000008_Node000011" class="edge">
<title>Node11&#45;&gt;Node8</title>
<g id="a_edge11_Node000008_Node000011"><a xlink:title=" ">
<path fill="none" stroke="#9a32cd" stroke-dasharray="5,2" d="M1301.34,-245.23C1336.41,-252.63 1378.88,-261.59 1414.39,-269.08"/>
<polygon fill="#9a32cd" stroke="#9a32cd" points="1302.22,-241.84 1291.71,-243.2 1300.77,-248.69 1302.22,-241.84"/>
</a>
</g>
<text text-anchor="middle" x="1355" y="-266.5" font-family="Helvetica,sans-Serif" font-size="10.00" fill="grey"> m_tensorPolicy</text>
</g>
<!-- Node12 -->
<g id="Node000012" class="node">
<title>Node12</title>
<g id="a_Node000012"><a xlink:title=" ">
<polygon fill="white" stroke="#666666" points="1291,-364 1170,-364 1170,-323 1291,-323 1291,-364"/>
<text text-anchor="start" x="1178" y="-352" font-family="Helvetica,sans-Serif" font-size="10.00">std::vector&lt; Harlinn</text>
<text text-anchor="start" x="1178" y="-341" font-family="Helvetica,sans-Serif" font-size="10.00">::Windows::DML::Model</text>
<text text-anchor="middle" x="1230.5" y="-330" font-family="Helvetica,sans-Serif" font-size="10.00">::Internal::InputNode &gt;</text>
</a>
</g>
</g>
<!-- Node12&#45;&gt;Node8 -->
<g id="edge12_Node000008_Node000012" class="edge">
<title>Node12&#45;&gt;Node8</title>
<g id="a_edge12_Node000008_Node000012"><a xlink:title=" ">
<path fill="none" stroke="#9a32cd" stroke-dasharray="5,2" d="M1302.38,-327.17C1339.28,-318.66 1384.16,-308.32 1420.49,-299.94"/>
<polygon fill="#9a32cd" stroke="#9a32cd" points="1301.63,-323.75 1292.67,-329.4 1303.2,-330.57 1301.63,-323.75"/>
</a>
</g>
<text text-anchor="middle" x="1355" y="-326.5" font-family="Helvetica,sans-Serif" font-size="10.00" fill="grey"> m_inputNodes</text>
</g>
<!-- Node13 -->
<g id="Node000013" class="node">
<title>Node13</title>
<g id="a_Node000013"><a xlink:href="struct_harlinn_1_1_windows_1_1_d_m_l_1_1_model_1_1_internal_1_1_input_node.html" target="_top" xlink:title=" ">
<polygon fill="white" stroke="#666666" points="1001,-368.5 865,-368.5 865,-338.5 1001,-338.5 1001,-368.5"/>
<text text-anchor="start" x="873" y="-356.5" font-family="Helvetica,sans-Serif" font-size="10.00">Harlinn::Windows::DML</text>
<text text-anchor="middle" x="933" y="-345.5" font-family="Helvetica,sans-Serif" font-size="10.00">::Model::Internal::InputNode</text>
</a>
</g>
</g>
<!-- Node13&#45;&gt;Node12 -->
<g id="edge13_Node000012_Node000013" class="edge">
<title>Node13&#45;&gt;Node12</title>
<g id="a_edge13_Node000012_Node000013"><a xlink:title=" ">
<path fill="none" stroke="#9a32cd" stroke-dasharray="5,2" d="M1012.7,-350.84C1062.04,-349.17 1124.64,-347.05 1169.88,-345.52"/>
<polygon fill="#9a32cd" stroke="#9a32cd" points="1012.81,-347.33 1002.94,-351.17 1013.05,-354.33 1012.81,-347.33"/>
</a>
</g>
<text text-anchor="middle" x="1087.5" y="-352.5" font-family="Helvetica,sans-Serif" font-size="10.00" fill="grey"> elements</text>
</g>
<!-- Node14 -->
<g id="Node000014" class="node">
<title>Node14</title>
<g id="a_Node000014"><a xlink:title=" ">
<polygon fill="white" stroke="#666666" points="975.5,-203 890.5,-203 890.5,-184 975.5,-184 975.5,-203"/>
<text text-anchor="middle" x="933" y="-191" font-family="Helvetica,sans-Serif" font-size="10.00">std::vector&lt; T &gt;</text>
</a>
</g>
</g>
<!-- Node14&#45;&gt;Node6 -->
<g id="edge43_Node000006_Node000014" class="edge">
<title>Node14&#45;&gt;Node6</title>
<g id="a_edge43_Node000006_Node000014"><a xlink:title=" ">
<path fill="none" stroke="orange" stroke-dasharray="5,2" d="M954.67,-211.04C972.43,-227.37 997.13,-253.36 1010,-281.5 1032.97,-331.75 1004.33,-354.58 1028,-404.5 1066.68,-486.08 1082.45,-517.93 1165,-554.5 1202.13,-570.95 1785.31,-562.12 1980.73,-558.67"/>
<polygon fill="orange" stroke="orange" points="957.05,-208.47 947.25,-204.43 952.39,-213.7 957.05,-208.47"/>
</a>
</g>
<text text-anchor="start" x="1440" y="-588.5" font-family="Helvetica,sans-Serif" font-size="10.00" fill="grey"> &lt; Harlinn::Windows</text>
<text text-anchor="start" x="1440" y="-577.5" font-family="Helvetica,sans-Serif" font-size="10.00" fill="grey">::DML::Model::Internal</text>
<text text-anchor="middle" x="1488.5" y="-566.5" font-family="Helvetica,sans-Serif" font-size="10.00" fill="grey">::NodeOutput * &gt;</text>
</g>
<!-- Node14&#45;&gt;Node12 -->
<g id="edge14_Node000012_Node000014" class="edge">
<title>Node14&#45;&gt;Node12</title>
<g id="a_edge14_Node000012_Node000014"><a xlink:title=" ">
<path fill="none" stroke="orange" stroke-dasharray="5,2" d="M955.73,-210.05C974.02,-223.12 1001.39,-240.74 1028,-250.5 1078.28,-268.95 1105.16,-236.06 1147,-269.5 1163.83,-282.95 1150.09,-298.95 1165,-314.5 1167.89,-317.51 1171.15,-320.24 1174.63,-322.7"/>
<polygon fill="orange" stroke="orange" points="957.92,-207.31 947.78,-204.22 953.78,-212.96 957.92,-207.31"/>
</a>
</g>
<text text-anchor="start" x="1039" y="-294.5" font-family="Helvetica,sans-Serif" font-size="10.00" fill="grey"> &lt; Harlinn::Windows</text>
<text text-anchor="start" x="1039" y="-283.5" font-family="Helvetica,sans-Serif" font-size="10.00" fill="grey">::DML::Model::Internal</text>
<text text-anchor="middle" x="1087.5" y="-272.5" font-family="Helvetica,sans-Serif" font-size="10.00" fill="grey">::InputNode &gt;</text>
</g>
<!-- Node14&#45;&gt;Node16 -->
<g id="edge18_Node000016_Node000014" class="edge">
<title>Node14&#45;&gt;Node16</title>
<g id="a_edge18_Node000016_Node000014"><a xlink:title=" ">
<path fill="none" stroke="orange" stroke-dasharray="5,2" d="M986.79,-193.74C1041.37,-194.98 1122.03,-199.86 1147,-217.5 1161.94,-228.05 1151.96,-241.68 1165,-254.5 1168.44,-257.88 1172.32,-260.92 1176.44,-263.65"/>
<polygon fill="orange" stroke="orange" points="987.14,-190.25 977.08,-193.56 987.01,-197.25 987.14,-190.25"/>
</a>
</g>
<text text-anchor="start" x="1039" y="-242.5" font-family="Helvetica,sans-Serif" font-size="10.00" fill="grey"> &lt; Harlinn::Windows</text>
<text text-anchor="start" x="1039" y="-231.5" font-family="Helvetica,sans-Serif" font-size="10.00" fill="grey">::DML::Model::Internal</text>
<text text-anchor="middle" x="1087.5" y="-220.5" font-family="Helvetica,sans-Serif" font-size="10.00" fill="grey">::OperatorNode &gt;</text>
</g>
<!-- Node17 -->
<g id="Node000017" class="node">
<title>Node17</title>
<g id="a_Node000017"><a xlink:title=" ">
<polygon fill="white" stroke="#666666" points="2344,-305 2205,-305 2205,-264 2344,-264 2344,-305"/>
<text text-anchor="start" x="2213" y="-293" font-family="Helvetica,sans-Serif" font-size="10.00">std::vector&lt; Harlinn</text>
<text text-anchor="start" x="2213" y="-282" font-family="Helvetica,sans-Serif" font-size="10.00">::Windows::DML::Model</text>
<text text-anchor="middle" x="2274.5" y="-271" font-family="Helvetica,sans-Serif" font-size="10.00">::Internal::ReinterpretNode &gt;</text>
</a>
</g>
</g>
<!-- Node14&#45;&gt;Node17 -->
<g id="edge22_Node000017_Node000014" class="edge">
<title>Node14&#45;&gt;Node17</title>
<g id="a_edge22_Node000017_Node000014"><a xlink:title=" ">
<path fill="none" stroke="orange" stroke-dasharray="5,2" d="M962.72,-178.39C980.94,-169.46 1005.28,-158.72 1028,-152.5 1115.04,-128.66 1139.26,-127.5 1229.5,-127.5 1229.5,-127.5 1229.5,-127.5 2046,-127.5 2140.78,-127.5 2224.72,-220.94 2258.14,-263.65"/>
<polygon fill="orange" stroke="orange" points="961.22,-175.23 953.85,-182.84 964.36,-181.48 961.22,-175.23"/>
</a>
</g>
<text text-anchor="start" x="1581" y="-152.5" font-family="Helvetica,sans-Serif" font-size="10.00" fill="grey"> &lt; Harlinn::Windows</text>
<text text-anchor="start" x="1581" y="-141.5" font-family="Helvetica,sans-Serif" font-size="10.00" fill="grey">::DML::Model::Internal</text>
<text text-anchor="middle" x="1629.5" y="-130.5" font-family="Helvetica,sans-Serif" font-size="10.00" fill="grey">::ReinterpretNode &gt;</text>
</g>
<!-- Node19 -->
<g id="Node000019" class="node">
<title>Node19</title>
<g id="a_Node000019"><a xlink:title=" ">
<polygon fill="white" stroke="#666666" points="1296,-197 1165,-197 1165,-156 1296,-156 1296,-197"/>
<text text-anchor="start" x="1173" y="-185" font-family="Helvetica,sans-Serif" font-size="10.00">std::vector&lt; Harlinn</text>
<text text-anchor="start" x="1173" y="-174" font-family="Helvetica,sans-Serif" font-size="10.00">::Windows::DML::Model</text>
<text text-anchor="middle" x="1230.5" y="-163" font-family="Helvetica,sans-Serif" font-size="10.00">::Internal::ConstantNode &gt;</text>
</a>
</g>
</g>
<!-- Node14&#45;&gt;Node19 -->
<g id="edge30_Node000019_Node000014" class="edge">
<title>Node14&#45;&gt;Node19</title>
<g id="a_edge30_Node000019_Node000014"><a xlink:title=" ">
<path fill="none" stroke="orange" stroke-dasharray="5,2" d="M966.9,-179.34C984.63,-172.46 1007.11,-164.96 1028,-161.5 1080.18,-152.86 1094.32,-156.75 1147,-161.5 1152.8,-162.02 1158.8,-162.75 1164.8,-163.6"/>
<polygon fill="orange" stroke="orange" points="965.64,-176.07 957.66,-183.04 968.25,-182.56 965.64,-176.07"/>
</a>
</g>
<text text-anchor="start" x="1039" y="-186.5" font-family="Helvetica,sans-Serif" font-size="10.00" fill="grey"> &lt; Harlinn::Windows</text>
<text text-anchor="start" x="1039" y="-175.5" font-family="Helvetica,sans-Serif" font-size="10.00" fill="grey">::DML::Model::Internal</text>
<text text-anchor="middle" x="1087.5" y="-164.5" font-family="Helvetica,sans-Serif" font-size="10.00" fill="grey">::ConstantNode &gt;</text>
</g>
<!-- Node15 -->
<g id="Node000015" class="node">
<title>Node15</title>
<g id="a_Node000015"><a xlink:title=" ">
<polygon fill="white" stroke="#666666" points="229,-183 200,-183 200,-164 229,-164 229,-183"/>
<text text-anchor="middle" x="214.5" y="-171" font-family="Helvetica,sans-Serif" font-size="10.00">T</text>
</a>
</g>
</g>
<!-- Node15&#45;&gt;Node14 -->
<g id="edge15_Node000014_Node000015" class="edge">
<title>Node15&#45;&gt;Node14</title>
<g id="a_edge15_Node000014_Node000015"><a xlink:title=" ">
<path fill="none" stroke="#9a32cd" stroke-dasharray="5,2" d="M240.92,-174.21C347.29,-177.18 757.31,-188.62 890.18,-192.33"/>
<polygon fill="#9a32cd" stroke="#9a32cd" points="241.1,-170.71 231,-173.93 240.9,-177.71 241.1,-170.71"/>
</a>
</g>
<text text-anchor="middle" x="533" y="-186.5" font-family="Helvetica,sans-Serif" font-size="10.00" fill="grey"> elements</text>
</g>
<!-- Node22 -->
<g id="Node000022" class="node">
<title>Node22</title>
<g id="a_Node000022"><a xlink:title=" ">
<polygon fill="white" stroke="#666666" points="452.5,-74 372.5,-74 372.5,-55 452.5,-55 452.5,-74"/>
<text text-anchor="middle" x="412.5" y="-62" font-family="Helvetica,sans-Serif" font-size="10.00">std::span&lt; T &gt;</text>
</a>
</g>
</g>
<!-- Node15&#45;&gt;Node22 -->
<g id="edge27_Node000022_Node000015" class="edge">
<title>Node15&#45;&gt;Node22</title>
<g id="a_edge27_Node000022_Node000015"><a xlink:title=" ">
<path fill="none" stroke="#9a32cd" stroke-dasharray="5,2" d="M238.21,-157.09C264.8,-138.36 310.62,-107.6 353,-86.5 362.03,-82 372.22,-77.87 381.54,-74.43"/>
<polygon fill="#9a32cd" stroke="#9a32cd" points="236.36,-154.11 230.24,-162.75 240.42,-159.81 236.36,-154.11"/>
</a>
</g>
<text text-anchor="middle" x="313.5" y="-123.5" font-family="Helvetica,sans-Serif" font-size="10.00" fill="grey"> elements</text>
</g>
<!-- Node26 -->
<g id="Node000026" class="node">
<title>Node26</title>
<g id="a_Node000026"><a xlink:title=" ">
<polygon fill="white" stroke="#666666" points="576,-19 490,-19 490,0 576,0 576,-19"/>
<text text-anchor="middle" x="533" y="-7" font-family="Helvetica,sans-Serif" font-size="10.00">std::deque&lt; T &gt;</text>
</a>
</g>
</g>
<!-- Node15&#45;&gt;Node26 -->
<g id="edge34_Node000026_Node000015" class="edge">
<title>Node15&#45;&gt;Node26</title>
<g id="a_edge34_Node000026_Node000015"><a xlink:title=" ">
<path fill="none" stroke="#9a32cd" stroke-dasharray="5,2" d="M228.65,-154.43C242.78,-134.84 266.64,-104.23 292,-82.5 348.88,-33.76 437.67,-17.56 489.81,-12.18"/>
<polygon fill="#9a32cd" stroke="#9a32cd" points="225.98,-152.14 223.07,-162.33 231.7,-156.18 225.98,-152.14"/>
</a>
</g>
<text text-anchor="middle" x="313.5" y="-85.5" font-family="Helvetica,sans-Serif" font-size="10.00" fill="grey"> elements</text>
</g>
<!-- Node28 -->
<g id="Node000028" class="node">
<title>Node28</title>
<g id="a_Node000028"><a xlink:title=" ">
<polygon fill="white" stroke="#666666" points="454,-286 371,-286 371,-267 454,-267 454,-286"/>
<text text-anchor="middle" x="412.5" y="-274" font-family="Helvetica,sans-Serif" font-size="10.00">std::stack&lt; T &gt;</text>
</a>
</g>
</g>
<!-- Node15&#45;&gt;Node28 -->
<g id="edge38_Node000028_Node000015" class="edge">
<title>Node15&#45;&gt;Node28</title>
<g id="a_edge38_Node000028_Node000015"><a xlink:title=" ">
<path fill="none" stroke="#9a32cd" stroke-dasharray="5,2" d="M239.31,-186.02C278.76,-206.74 356.84,-247.77 392.69,-266.62"/>
<polygon fill="#9a32cd" stroke="#9a32cd" points="241.1,-183 230.62,-181.45 237.85,-189.2 241.1,-183"/>
</a>
</g>
<text text-anchor="middle" x="313.5" y="-236.5" font-family="Helvetica,sans-Serif" font-size="10.00" fill="grey"> elements</text>
</g>
<!-- Node16&#45;&gt;Node8 -->
<g id="edge16_Node000008_Node000016" class="edge">
<title>Node16&#45;&gt;Node8</title>
<g id="a_edge16_Node000008_Node000016"><a xlink:title=" ">
<path fill="none" stroke="#9a32cd" stroke-dasharray="5,2" d="M1306.67,-284.5C1340.51,-284.5 1380.32,-284.5 1413.96,-284.5"/>
<polygon fill="#9a32cd" stroke="#9a32cd" points="1306.95,-281 1296.95,-284.5 1306.95,-288 1306.95,-281"/>
</a>
</g>
<text text-anchor="middle" x="1355" y="-287.5" font-family="Helvetica,sans-Serif" font-size="10.00" fill="grey"> m_operatorNodes</text>
</g>
<!-- Node17&#45;&gt;Node8 -->
<g id="edge19_Node000008_Node000017" class="edge">
<title>Node17&#45;&gt;Node8</title>
<g id="a_edge19_Node000008_Node000017"><a xlink:title=" ">
<path fill="none" stroke="#9a32cd" stroke-dasharray="5,2" d="M2193.62,-284.19C2127.31,-283.95 2030.52,-283.63 1946,-283.5 1811.07,-283.29 1653.71,-283.8 1563.43,-284.17"/>
<polygon fill="#9a32cd" stroke="#9a32cd" points="2193.29,-287.69 2203.3,-284.22 2193.31,-280.69 2193.29,-287.69"/>
</a>
</g>
<text text-anchor="middle" x="1902" y="-286.5" font-family="Helvetica,sans-Serif" font-size="10.00" fill="grey"> m_reinterpretNodes</text>
</g>
<!-- Node18&#45;&gt;Node17 -->
<g id="edge20_Node000017_Node000018" class="edge">
<title>Node18&#45;&gt;Node17</title>
<g id="a_edge20_Node000017_Node000018"><a xlink:title=" ">
<path fill="none" stroke="#9a32cd" stroke-dasharray="5,2" d="M2119.8,-322.33C2147.03,-315.63 2177.76,-308.07 2204.55,-301.47"/>
<polygon fill="#9a32cd" stroke="#9a32cd" points="2119.11,-318.9 2110.24,-324.69 2120.78,-325.7 2119.11,-318.9"/>
</a>
</g>
<text text-anchor="middle" x="2165.5" y="-318.5" font-family="Helvetica,sans-Serif" font-size="10.00" fill="grey"> elements</text>
</g>
<!-- Node19&#45;&gt;Node8 -->
<g id="edge23_Node000008_Node000019" class="edge">
<title>Node19&#45;&gt;Node8</title>
<g id="a_edge23_Node000008_Node000019"><a xlink:title=" ">
<path fill="none" stroke="#9a32cd" stroke-dasharray="5,2" d="M1306.92,-198.87C1335.3,-208.14 1367.57,-219.72 1396,-232.5 1419.66,-243.14 1445.23,-257.97 1463.3,-269.08"/>
<polygon fill="#9a32cd" stroke="#9a32cd" points="1308.28,-195.63 1297.69,-195.89 1306.13,-202.29 1308.28,-195.63"/>
</a>
</g>
<text text-anchor="middle" x="1355" y="-235.5" font-family="Helvetica,sans-Serif" font-size="10.00" fill="grey"> m_constantNodes</text>
</g>
<!-- Node20 -->
<g id="Node000020" class="node">
<title>Node20</title>
<g id="a_Node000020"><a xlink:href="struct_harlinn_1_1_windows_1_1_d_m_l_1_1_model_1_1_internal_1_1_constant_node.html" target="_top" xlink:title=" ">
<polygon fill="white" stroke="#666666" points="1010,-125.5 856,-125.5 856,-95.5 1010,-95.5 1010,-125.5"/>
<text text-anchor="start" x="864" y="-113.5" font-family="Helvetica,sans-Serif" font-size="10.00">Harlinn::Windows::DML</text>
<text text-anchor="middle" x="933" y="-102.5" font-family="Helvetica,sans-Serif" font-size="10.00">::Model::Internal::ConstantNode</text>
</a>
</g>
</g>
<!-- Node20&#45;&gt;Node19 -->
<g id="edge24_Node000019_Node000020" class="edge">
<title>Node20&#45;&gt;Node19</title>
<g id="a_edge24_Node000019_Node000020"><a xlink:title=" ">
<path fill="none" stroke="#9a32cd" stroke-dasharray="5,2" d="M1021.69,-118.13C1060.56,-122.82 1106.55,-130.18 1147,-141.5 1160.04,-145.15 1173.74,-150.36 1186.15,-155.65"/>
<polygon fill="#9a32cd" stroke="#9a32cd" points="1022.24,-114.67 1011.9,-117 1021.43,-121.63 1022.24,-114.67"/>
</a>
</g>
<text text-anchor="middle" x="1087.5" y="-144.5" font-family="Helvetica,sans-Serif" font-size="10.00" fill="grey"> elements</text>
</g>
<!-- Node21 -->
<g id="Node000021" class="node">
<title>Node21</title>
<g id="a_Node000021"><a xlink:title=" ">
<polygon fill="white" stroke="#666666" points="716,-59 594,-59 594,-40 716,-40 716,-59"/>
<text text-anchor="middle" x="655" y="-47" font-family="Helvetica,sans-Serif" font-size="10.00">std::span&lt; const Byte &gt;</text>
</a>
</g>
</g>
<!-- Node21&#45;&gt;Node20 -->
<g id="edge25_Node000020_Node000021" class="edge">
<title>Node21&#45;&gt;Node20</title>
<g id="a_edge25_Node000020_Node000021"><a xlink:title=" ">
<path fill="none" stroke="#9a32cd" stroke-dasharray="5,2" d="M712.14,-61.91C755.42,-71.47 815.53,-84.76 861.96,-95.02"/>
<polygon fill="#9a32cd" stroke="#9a32cd" points="712.96,-58.5 702.44,-59.76 711.45,-65.34 712.96,-58.5"/>
</a>
</g>
<text text-anchor="middle" x="786" y="-92.5" font-family="Helvetica,sans-Serif" font-size="10.00" fill="grey"> data</text>
</g>
<!-- Node22&#45;&gt;Node21 -->
<g id="edge26_Node000021_Node000022" class="edge">
<title>Node22&#45;&gt;Node21</title>
<g id="a_edge26_Node000021_Node000022"><a xlink:title=" ">
<path fill="none" stroke="orange" stroke-dasharray="5,2" d="M464.21,-61.34C502.04,-58.98 553.86,-55.75 593.8,-53.25"/>
<polygon fill="orange" stroke="orange" points="464.22,-57.83 454.45,-61.95 464.65,-64.82 464.22,-57.83"/>
</a>
</g>
<text text-anchor="middle" x="533" y="-63.5" font-family="Helvetica,sans-Serif" font-size="10.00" fill="grey"> &lt; const Byte &gt;</text>
</g>
<!-- Node23 -->
<g id="Node000023" class="node">
<title>Node23</title>
<g id="a_Node000023"><a xlink:title=" ">
<polygon fill="white" stroke="#666666" points="685,-120 625,-120 625,-101 685,-101 685,-120"/>
<text text-anchor="middle" x="655" y="-108" font-family="Helvetica,sans-Serif" font-size="10.00">std::string</text>
</a>
</g>
</g>
<!-- Node23&#45;&gt;Node1 -->
<g id="edge44_Node000001_Node000023" class="edge">
<title>Node23&#45;&gt;Node1</title>
<g id="a_edge44_Node000001_Node000023"><a xlink:title=" ">
<path fill="none" stroke="#9a32cd" stroke-dasharray="5,2" d="M679.26,-126.93C731.85,-164.09 859.27,-254.11 910.32,-290.18"/>
<polygon fill="#9a32cd" stroke="#9a32cd" points="681.49,-124.22 671.3,-121.31 677.45,-129.94 681.49,-124.22"/>
</a>
</g>
<text text-anchor="middle" x="786" y="-239.5" font-family="Helvetica,sans-Serif" font-size="10.00" fill="grey"> name</text>
</g>
<!-- Node23&#45;&gt;Node8 -->
<g id="edge35_Node000008_Node000023" class="edge">
<title>Node23&#45;&gt;Node8</title>
<g id="a_edge35_Node000008_Node000023"><a xlink:title=" ">
<path fill="none" stroke="#9a32cd" stroke-dasharray="5,2" d="M696.61,-104.18C736.93,-98.25 800.56,-89.81 856,-86.5 1053.01,-74.72 1112.22,-74.54 1296,-146.5 1342.46,-164.69 1355.28,-168.68 1396,-197.5 1426.6,-219.15 1457.14,-250.7 1474.06,-269.26"/>
<polygon fill="#9a32cd" stroke="#9a32cd" points="696.25,-100.7 686.88,-105.64 697.29,-107.62 696.25,-100.7"/>
</a>
</g>
<text text-anchor="middle" x="1087.5" y="-100.5" font-family="Helvetica,sans-Serif" font-size="10.00" fill="grey"> m_name</text>
</g>
<!-- Node23&#45;&gt;Node20 -->
<g id="edge28_Node000020_Node000023" class="edge">
<title>Node23&#45;&gt;Node20</title>
<g id="a_edge28_Node000020_Node000023"><a xlink:title=" ">
<path fill="none" stroke="#9a32cd" stroke-dasharray="5,2" d="M696.63,-110.5C738.35,-110.5 804.28,-110.5 855.76,-110.5"/>
<polygon fill="#9a32cd" stroke="#9a32cd" points="696.79,-107 686.79,-110.5 696.79,-114 696.79,-107"/>
</a>
</g>
<text text-anchor="middle" x="786" y="-113.5" font-family="Helvetica,sans-Serif" font-size="10.00" fill="grey"> name</text>
</g>
<!-- Node24 -->
<g id="Node000024" class="node">
<title>Node24</title>
<g id="a_Node000024"><a xlink:title=" ">
<polygon fill="white" stroke="#666666" points="460,-125.5 365,-125.5 365,-95.5 460,-95.5 460,-125.5"/>
<text text-anchor="start" x="373" y="-113.5" font-family="Helvetica,sans-Serif" font-size="10.00">std::basic_string&lt;</text>
<text text-anchor="middle" x="412.5" y="-102.5" font-family="Helvetica,sans-Serif" font-size="10.00"> Char &gt;</text>
</a>
</g>
</g>
<!-- Node24&#45;&gt;Node23 -->
<g id="edge29_Node000023_Node000024" class="edge">
<title>Node24&#45;&gt;Node23</title>
<g id="a_edge29_Node000023_Node000024"><a xlink:title=" ">
<path fill="none" stroke="#63b8ff" d="M471.68,-110.5C519.99,-110.5 586.71,-110.5 624.6,-110.5"/>
<polygon fill="#63b8ff" stroke="#63b8ff" points="471.96,-107 461.96,-110.5 471.96,-114 471.96,-107"/>
</a>
</g>
</g>
<!-- Node25&#45;&gt;Node8 -->
<g id="edge31_Node000008_Node000025" class="edge">
<title>Node25&#45;&gt;Node8</title>
<g id="a_edge31_Node000008_Node000025"><a xlink:title=" ">
<path fill="none" stroke="#9a32cd" stroke-dasharray="5,2" d="M1972.97,-238.74C1881.91,-243.38 1719.28,-253.32 1581,-270.5 1575.26,-271.21 1569.32,-272 1563.36,-272.83"/>
<polygon fill="#9a32cd" stroke="#9a32cd" points="1972.93,-242.25 1982.74,-238.25 1972.58,-235.26 1972.93,-242.25"/>
</a>
</g>
<text text-anchor="middle" x="1768" y="-260.5" font-family="Helvetica,sans-Serif" font-size="10.00" fill="grey"> m_nodeOutputs</text>
</g>
<!-- Node26&#45;&gt;Node25 -->
<g id="edge33_Node000025_Node000026" class="edge">
<title>Node26&#45;&gt;Node25</title>
<g id="a_edge33_Node000025_Node000026"><a xlink:title=" ">
<path fill="none" stroke="orange" stroke-dasharray="5,2" d="M587.54,-8.49C638.36,-7.62 716.88,-6.5 785,-6.5 785,-6.5 785,-6.5 1769,-6.5 1898.54,-6.5 1999.49,-158.4 2032.49,-214.77"/>
<polygon fill="orange" stroke="orange" points="587.64,-4.99 577.7,-8.66 587.76,-11.99 587.64,-4.99"/>
</a>
</g>
<text text-anchor="start" x="1182" y="-31.5" font-family="Helvetica,sans-Serif" font-size="10.00" fill="grey"> &lt; Harlinn::Windows</text>
<text text-anchor="start" x="1182" y="-20.5" font-family="Helvetica,sans-Serif" font-size="10.00" fill="grey">::DML::Model::Internal</text>
<text text-anchor="middle" x="1230.5" y="-9.5" font-family="Helvetica,sans-Serif" font-size="10.00" fill="grey">::NodeOutput &gt;</text>
</g>
<!-- Node27 -->
<g id="Node000027" class="node">
<title>Node27</title>
<g id="a_Node000027"><a xlink:title=" ">
<polygon fill="white" stroke="#666666" points="838,-292 734,-292 734,-273 838,-273 838,-292"/>
<text text-anchor="middle" x="786" y="-280" font-family="Helvetica,sans-Serif" font-size="10.00">std::stack&lt; size_t &gt;</text>
</a>
</g>
</g>
<!-- Node27&#45;&gt;Node8 -->
<g id="edge36_Node000008_Node000027" class="edge">
<title>Node27&#45;&gt;Node8</title>
<g id="a_edge36_Node000008_Node000027"><a xlink:title=" ">
<path fill="none" stroke="#9a32cd" stroke-dasharray="5,2" d="M826.51,-298.14C830.82,-301.08 834.8,-304.52 838,-308.5 857.86,-333.2 830.92,-358.12 856,-377.5 876.41,-393.27 1166.2,-396.49 1296,-373.5 1342.37,-365.29 1353.3,-358.34 1396,-338.5 1402.73,-335.37 1437.19,-314.82 1461.83,-300"/>
<polygon fill="#9a32cd" stroke="#9a32cd" points="828.43,-295.21 818.03,-293.22 824.92,-301.26 828.43,-295.21"/>
</a>
</g>
<text text-anchor="middle" x="1087.5" y="-392.5" font-family="Helvetica,sans-Serif" font-size="10.00" fill="grey"> m_nameSubLengths</text>
</g>
<!-- Node28&#45;&gt;Node27 -->
<g id="edge37_Node000027_Node000028" class="edge">
<title>Node28&#45;&gt;Node27</title>
<g id="a_edge37_Node000027_Node000028"><a xlink:title=" ">
<path fill="none" stroke="orange" stroke-dasharray="5,2" d="M465.65,-277.34C536.71,-278.49 663.16,-280.53 733.74,-281.67"/>
<polygon fill="orange" stroke="orange" points="465.89,-273.85 455.83,-277.18 465.78,-280.84 465.89,-273.85"/>
</a>
</g>
<text text-anchor="middle" x="533" y="-281.5" font-family="Helvetica,sans-Serif" font-size="10.00" fill="grey"> &lt; size_t &gt;</text>
</g>
<!-- Node29 -->
<g id="Node000029" class="node">
<title>Node29</title>
<g id="a_Node000029"><a xlink:href="struct_harlinn_1_1_windows_1_1_d_m_l_1_1_model_1_1_internal_1_1_node_i_d.html" target="_top" xlink:title=" ">
<polygon fill="white" stroke="#666666" points="1550.5,-367.5 1426.5,-367.5 1426.5,-337.5 1550.5,-337.5 1550.5,-367.5"/>
<text text-anchor="start" x="1434.5" y="-355.5" font-family="Helvetica,sans-Serif" font-size="10.00">Harlinn::Windows::DML</text>
<text text-anchor="middle" x="1488.5" y="-344.5" font-family="Helvetica,sans-Serif" font-size="10.00">::Model::Internal::NodeID</text>
</a>
</g>
</g>
<!-- Node29&#45;&gt;Node7 -->
<g id="edge39_Node000007_Node000029" class="edge">
<title>Node29&#45;&gt;Node7</title>
<g id="a_edge39_Node000007_Node000029"><a xlink:title=" ">
<path fill="none" stroke="#9a32cd" stroke-dasharray="5,2" d="M1562.07,-352.5C1603.27,-352.5 1654.62,-352.5 1695.61,-352.5"/>
<polygon fill="#9a32cd" stroke="#9a32cd" points="1562.26,-349 1552.26,-352.5 1562.26,-356 1562.26,-349"/>
</a>
</g>
<text text-anchor="middle" x="1629.5" y="-355.5" font-family="Helvetica,sans-Serif" font-size="10.00" fill="grey"> node_</text>
</g>
<!-- Node30 -->
<g id="Node000030" class="node">
<title>Node30</title>
<g id="a_Node000030"><a xlink:href="struct_harlinn_1_1_windows_1_1_d_m_l_1_1_model_1_1_tensor_desc.html" target="_top" xlink:title=" ">
<polygon fill="white" stroke="#666666" points="1548,-497.5 1429,-497.5 1429,-467.5 1548,-467.5 1548,-497.5"/>
<text text-anchor="start" x="1437" y="-485.5" font-family="Helvetica,sans-Serif" font-size="10.00">Harlinn::Windows::DML</text>
<text text-anchor="middle" x="1488.5" y="-474.5" font-family="Helvetica,sans-Serif" font-size="10.00">::Model::TensorDesc</text>
</a>
</g>
</g>
<!-- Node30&#45;&gt;Node7 -->
<g id="edge40_Node000007_Node000030" class="edge">
<title>Node30&#45;&gt;Node7</title>
<g id="a_edge40_Node000007_Node000030"><a xlink:title=" ">
<path fill="none" stroke="#9a32cd" stroke-dasharray="5,2" d="M1532.67,-462.28C1588.35,-436.19 1683.97,-391.4 1734.12,-367.9"/>
<polygon fill="#9a32cd" stroke="#9a32cd" points="1531.36,-459.02 1523.79,-466.43 1534.33,-465.36 1531.36,-459.02"/>
</a>
</g>
<text text-anchor="middle" x="1629.5" y="-439.5" font-family="Helvetica,sans-Serif" font-size="10.00" fill="grey"> tensorDesc_</text>
</g>
<!-- Node31 -->
<g id="Node000031" class="node">
<title>Node31</title>
<g id="a_Node000031"><a xlink:href="struct_harlinn_1_1_windows_1_1_d_m_l_1_1_buffer_tensor_desc.html" target="_top" xlink:title=" ">
<polygon fill="white" stroke="#666666" points="1290,-545.5 1171,-545.5 1171,-515.5 1290,-515.5 1290,-545.5"/>
<text text-anchor="start" x="1179" y="-533.5" font-family="Helvetica,sans-Serif" font-size="10.00">Harlinn::Windows::DML</text>
<text text-anchor="middle" x="1230.5" y="-522.5" font-family="Helvetica,sans-Serif" font-size="10.00">::BufferTensorDesc</text>
</a>
</g>
</g>
<!-- Node31&#45;&gt;Node30 -->
<g id="edge41_Node000030_Node000031" class="edge">
<title>Node31&#45;&gt;Node30</title>
<g id="a_edge41_Node000030_Node000031"><a xlink:title=" ">
<path fill="none" stroke="#9a32cd" stroke-dasharray="5,2" d="M1301.47,-517.38C1341.34,-509.91 1390.73,-500.64 1428.6,-493.54"/>
<polygon fill="#9a32cd" stroke="#9a32cd" points="1300.9,-513.93 1291.72,-519.21 1302.19,-520.81 1300.9,-513.93"/>
</a>
</g>
<text text-anchor="middle" x="1355" y="-517.5" font-family="Helvetica,sans-Serif" font-size="10.00" fill="grey"> bufferDesc_</text>
</g>
<!-- Node32 -->
<g id="Node000032" class="node">
<title>Node32</title>
<g id="a_Node000032"><a xlink:href="struct_harlinn_1_1_windows_1_1_d_m_l_1_1_tensor_desc.html" target="_top" xlink:title=" ">
<polygon fill="white" stroke="#666666" points="1290,-497.5 1171,-497.5 1171,-467.5 1290,-467.5 1290,-497.5"/>
<text text-anchor="start" x="1179" y="-485.5" font-family="Helvetica,sans-Serif" font-size="10.00">Harlinn::Windows::DML</text>
<text text-anchor="middle" x="1230.5" y="-474.5" font-family="Helvetica,sans-Serif" font-size="10.00">::TensorDesc</text>
</a>
</g>
</g>
<!-- Node32&#45;&gt;Node30 -->
<g id="edge42_Node000030_Node000032" class="edge">
<title>Node32&#45;&gt;Node30</title>
<g id="a_edge42_Node000030_Node000032"><a xlink:title=" ">
<path fill="none" stroke="#9a32cd" stroke-dasharray="5,2" d="M1301.73,-482.5C1341.55,-482.5 1390.81,-482.5 1428.6,-482.5"/>
<polygon fill="#9a32cd" stroke="#9a32cd" points="1301.75,-479 1291.75,-482.5 1301.75,-486 1301.75,-479"/>
</a>
</g>
<text text-anchor="middle" x="1355" y="-485.5" font-family="Helvetica,sans-Serif" font-size="10.00" fill="grey"> tensorDesc_</text>
</g>
</g>
</svg>
