<?xml version="1.0" encoding="UTF-8" standalone="no"?>
<!DOCTYPE svg PUBLIC "-//W3C//DTD SVG 1.1//EN"
 "http://www.w3.org/Graphics/SVG/1.1/DTD/svg11.dtd">
<!-- Generated by graphviz version 7.0.1 (20221109.1506)
 -->
<!-- Title: Harlinn::Common::Core::ProducerToken Pages: 1 -->
<svg width="246pt" height="258pt"
 viewBox="0.00 0.00 245.50 258.00" xmlns="http://www.w3.org/2000/svg" xmlns:xlink="http://www.w3.org/1999/xlink">
<g id="graph0" class="graph" transform="scale(1 1) rotate(0) translate(4 254)">
<title>Harlinn::Common::Core::ProducerToken</title>
<!-- Node1 -->
<g id="Node000001" class="node">
<title>Node1</title>
<g id="a_Node000001"><a xlink:title=" ">
<polygon fill="#999999" stroke="#666666" points="118,-118 0,-118 0,-88 118,-88 118,-118"/>
<text text-anchor="start" x="8" y="-106" font-family="Helvetica,sans-Serif" font-size="10.00">Harlinn::Common::Core</text>
<text text-anchor="middle" x="59" y="-95" font-family="Helvetica,sans-Serif" font-size="10.00">::ProducerToken</text>
</a>
</g>
</g>
<!-- Node2 -->
<g id="Node000002" class="node">
<title>Node2</title>
<g id="a_Node000002"><a xlink:href="struct_harlinn_1_1_common_1_1_core_1_1details_1_1_concurrent_queue_producer_typeless_base.html" target="_top" xlink:title=" ">
<polygon fill="white" stroke="#666666" points="196,-41 24,-41 24,0 196,0 196,-41"/>
<text text-anchor="start" x="32" y="-29" font-family="Helvetica,sans-Serif" font-size="10.00">Harlinn::Common::Core</text>
<text text-anchor="start" x="32" y="-18" font-family="Helvetica,sans-Serif" font-size="10.00">::details::ConcurrentQueueProducer</text>
<text text-anchor="middle" x="110" y="-7" font-family="Helvetica,sans-Serif" font-size="10.00">TypelessBase</text>
</a>
</g>
</g>
<!-- Node1&#45;&gt;Node2 -->
<g id="edge6_Node000002_Node000001" class="edge">
<title>Node1&#45;&gt;Node2</title>
<g id="a_edge6_Node000002_Node000001"><a xlink:title=" ">
<path fill="none" stroke="#9a32cd" stroke-dasharray="5,2" d="M52.77,-76.59C52.47,-70.56 53.21,-64.33 56,-59 59.6,-52.12 65.09,-46.25 71.23,-41.34"/>
<polygon fill="#9a32cd" stroke="#9a32cd" points="49.26,-76.77 54.13,-86.17 56.18,-75.78 49.26,-76.77"/>
</a>
</g>
<text text-anchor="middle" x="70" y="-62" font-family="Helvetica,sans-Serif" font-size="10.00" fill="grey"> token</text>
</g>
<!-- Node2&#45;&gt;Node1 -->
<g id="edge1_Node000001_Node000002" class="edge">
<title>Node2&#45;&gt;Node1</title>
<g id="a_edge1_Node000001_Node000002"><a xlink:title=" ">
<path fill="none" stroke="#9a32cd" stroke-dasharray="5,2" d="M98.18,-51.43C95.21,-57.76 91.77,-64.26 88,-70 83.88,-76.27 78.56,-82.52 73.6,-87.82"/>
<polygon fill="#9a32cd" stroke="#9a32cd" points="101.3,-53.05 102.13,-42.49 94.89,-50.23 101.3,-53.05"/>
</a>
</g>
<text text-anchor="middle" x="114.5" y="-62" font-family="Helvetica,sans-Serif" font-size="10.00" fill="grey"> producer</text>
</g>
<!-- Node2&#45;&gt;Node2 -->
<g id="edge2_Node000002_Node000002" class="edge">
<title>Node2&#45;&gt;Node2</title>
<g id="a_edge2_Node000002_Node000002"><a xlink:title=" ">
<path fill="none" stroke="#9a32cd" stroke-dasharray="5,2" d="M207.68,-25.43C211.68,-24.16 214,-22.51 214,-20.5 214,-17.02 207.06,-14.64 196.47,-13.36"/>
<polygon fill="#9a32cd" stroke="#9a32cd" points="207.09,-21.98 197.96,-27.35 208.44,-28.85 207.09,-21.98"/>
</a>
</g>
<text text-anchor="middle" x="225" y="-18" font-family="Helvetica,sans-Serif" font-size="10.00" fill="grey"> next</text>
</g>
<!-- Node3 -->
<g id="Node000003" class="node">
<title>Node3</title>
<g id="a_Node000003"><a xlink:title=" ">
<polygon fill="white" stroke="#666666" points="237.5,-112.5 136.5,-112.5 136.5,-93.5 237.5,-93.5 237.5,-112.5"/>
<text text-anchor="middle" x="187" y="-100.5" font-family="Helvetica,sans-Serif" font-size="10.00">std::atomic&lt; bool &gt;</text>
</a>
</g>
</g>
<!-- Node3&#45;&gt;Node2 -->
<g id="edge3_Node000002_Node000003" class="edge">
<title>Node3&#45;&gt;Node2</title>
<g id="a_edge3_Node000002_Node000003"><a xlink:title=" ">
<path fill="none" stroke="#9a32cd" stroke-dasharray="5,2" d="M170.82,-85.09C158.56,-72.27 141.69,-54.63 128.82,-41.18"/>
<polygon fill="#9a32cd" stroke="#9a32cd" points="167.98,-87.18 177.42,-91.98 173.04,-82.34 167.98,-87.18"/>
</a>
</g>
<text text-anchor="middle" x="174" y="-62" font-family="Helvetica,sans-Serif" font-size="10.00" fill="grey"> inactive</text>
</g>
<!-- Node4 -->
<g id="Node000004" class="node">
<title>Node4</title>
<g id="a_Node000004"><a xlink:title=" ">
<polygon fill="white" stroke="#666666" points="231.5,-184 142.5,-184 142.5,-165 231.5,-165 231.5,-184"/>
<text text-anchor="middle" x="187" y="-172" font-family="Helvetica,sans-Serif" font-size="10.00">std::atomic&lt; T &gt;</text>
</a>
</g>
</g>
<!-- Node4&#45;&gt;Node3 -->
<g id="edge4_Node000003_Node000004" class="edge">
<title>Node4&#45;&gt;Node3</title>
<g id="a_edge4_Node000003_Node000004"><a xlink:title=" ">
<path fill="none" stroke="orange" stroke-dasharray="5,2" d="M187,-153.3C187,-139.94 187,-123.09 187,-112.95"/>
<polygon fill="orange" stroke="orange" points="183.5,-153.18 187,-163.18 190.5,-153.18 183.5,-153.18"/>
</a>
</g>
<text text-anchor="middle" x="207" y="-139" font-family="Helvetica,sans-Serif" font-size="10.00" fill="grey"> &lt; bool &gt;</text>
</g>
<!-- Node5 -->
<g id="Node000005" class="node">
<title>Node5</title>
<g id="a_Node000005"><a xlink:title=" ">
<polygon fill="white" stroke="#666666" points="201.5,-250 172.5,-250 172.5,-231 201.5,-231 201.5,-250"/>
<text text-anchor="middle" x="187" y="-238" font-family="Helvetica,sans-Serif" font-size="10.00">T</text>
</a>
</g>
</g>
<!-- Node5&#45;&gt;Node4 -->
<g id="edge5_Node000004_Node000005" class="edge">
<title>Node5&#45;&gt;Node4</title>
<g id="a_edge5_Node000004_Node000005"><a xlink:title=" ">
<path fill="none" stroke="#9a32cd" stroke-dasharray="5,2" d="M187,-219.18C187,-207.44 187,-193.27 187,-184.32"/>
<polygon fill="#9a32cd" stroke="#9a32cd" points="183.5,-219.09 187,-229.09 190.5,-219.09 183.5,-219.09"/>
</a>
</g>
<text text-anchor="middle" x="194.5" y="-205" font-family="Helvetica,sans-Serif" font-size="10.00" fill="grey"> ptr</text>
</g>
</g>
</svg>
