<?xml version="1.0" encoding="UTF-8" standalone="no"?>
<!DOCTYPE svg PUBLIC "-//W3C//DTD SVG 1.1//EN"
 "http://www.w3.org/Graphics/SVG/1.1/DTD/svg11.dtd">
<!-- Generated by graphviz version 7.0.1 (20221109.1506)
 -->
<!-- Title: Harlinn::Common::Core::Types::Internal::ContainerTypeTraits&lt; RT, std::unordered_map&lt; K, V, H, C, A &gt; &gt; Pages: 1 -->
<svg width="906pt" height="120pt"
 viewBox="0.00 0.00 906.00 119.50" xmlns="http://www.w3.org/2000/svg" xmlns:xlink="http://www.w3.org/1999/xlink">
<g id="graph0" class="graph" transform="scale(1 1) rotate(0) translate(4 115.5)">
<title>Harlinn::Common::Core::Types::Internal::ContainerTypeTraits&lt; RT, std::unordered_map&lt; K, V, H, C, A &gt; &gt;</title>
<!-- Node1 -->
<g id="Node000001" class="node">
<title>Node1</title>
<g id="a_Node000001"><a xlink:title=" ">
<polygon fill="#999999" stroke="#666666" points="898,-78.5 747,-78.5 747,-26.5 898,-26.5 898,-78.5"/>
<text text-anchor="start" x="755" y="-66.5" font-family="Helvetica,sans-Serif" font-size="10.00">Harlinn::Common::Core</text>
<text text-anchor="start" x="755" y="-55.5" font-family="Helvetica,sans-Serif" font-size="10.00">::Types::Internal::Container</text>
<text text-anchor="start" x="755" y="-44.5" font-family="Helvetica,sans-Serif" font-size="10.00">TypeTraits&lt; RT, std::unordered</text>
<text text-anchor="middle" x="822.5" y="-33.5" font-family="Helvetica,sans-Serif" font-size="10.00">_map&lt; K, V, H, C, A &gt; &gt;</text>
</a>
</g>
</g>
<!-- Node2 -->
<g id="Node000002" class="node">
<title>Node2</title>
<g id="a_Node000002"><a xlink:href="struct_harlinn_1_1_common_1_1_core_1_1_types_1_1_internal_1_1_container_type_traits_base.html" target="_top" xlink:title=" ">
<polygon fill="white" stroke="#666666" points="710,-78.5 555,-78.5 555,-26.5 710,-26.5 710,-78.5"/>
<text text-anchor="start" x="563" y="-66.5" font-family="Helvetica,sans-Serif" font-size="10.00">Harlinn::Common::Core</text>
<text text-anchor="start" x="563" y="-55.5" font-family="Helvetica,sans-Serif" font-size="10.00">::Types::Internal::Container</text>
<text text-anchor="start" x="563" y="-44.5" font-family="Helvetica,sans-Serif" font-size="10.00">TypeTraitsBase&lt; std::unordered</text>
<text text-anchor="middle" x="632.5" y="-33.5" font-family="Helvetica,sans-Serif" font-size="10.00">_map&lt; K, V, H, C, A &gt;, RT &gt;</text>
</a>
</g>
</g>
<!-- Node2&#45;&gt;Node1 -->
<g id="edge1_Node000001_Node000002" class="edge">
<title>Node2&#45;&gt;Node1</title>
<g id="a_edge1_Node000001_Node000002"><a xlink:title=" ">
<path fill="none" stroke="#63b8ff" d="M721.56,-52.5C729.91,-52.5 738.32,-52.5 746.53,-52.5"/>
<polygon fill="#63b8ff" stroke="#63b8ff" points="721.75,-49 711.75,-52.5 721.75,-56 721.75,-49"/>
</a>
</g>
</g>
<!-- Node3 -->
<g id="Node000003" class="node">
<title>Node3</title>
<g id="a_Node000003"><a xlink:href="struct_harlinn_1_1_common_1_1_core_1_1_types_1_1_internal_1_1_type_traits_base.html" target="_top" xlink:title=" ">
<polygon fill="white" stroke="#666666" points="416,-111.5 276,-111.5 276,-59.5 416,-59.5 416,-111.5"/>
<text text-anchor="start" x="284" y="-99.5" font-family="Helvetica,sans-Serif" font-size="10.00">Harlinn::Common::Core</text>
<text text-anchor="start" x="284" y="-88.5" font-family="Helvetica,sans-Serif" font-size="10.00">::Types::Internal::TypeTraits</text>
<text text-anchor="start" x="284" y="-77.5" font-family="Helvetica,sans-Serif" font-size="10.00">Base&lt; std::unordered_map&lt;</text>
<text text-anchor="middle" x="346" y="-66.5" font-family="Helvetica,sans-Serif" font-size="10.00"> K, V, H, C, A &gt;, RT &gt;</text>
</a>
</g>
</g>
<!-- Node3&#45;&gt;Node2 -->
<g id="edge2_Node000002_Node000003" class="edge">
<title>Node3&#45;&gt;Node2</title>
<g id="a_edge2_Node000002_Node000003"><a xlink:title=" ">
<path fill="none" stroke="#63b8ff" d="M427.32,-76.91C461.18,-73.22 501.03,-68.77 537,-64.5 542.75,-63.82 548.69,-63.1 554.67,-62.36"/>
<polygon fill="#63b8ff" stroke="#63b8ff" points="427.14,-73.41 417.58,-77.97 427.9,-80.37 427.14,-73.41"/>
</a>
</g>
</g>
<!-- Node4 -->
<g id="Node000004" class="node">
<title>Node4</title>
<g id="a_Node000004"><a xlink:href="struct_harlinn_1_1_common_1_1_core_1_1_types_1_1_internal_1_1_type_traits_base.html" target="_top" xlink:title=" ">
<polygon fill="white" stroke="#666666" points="137,-106 0,-106 0,-65 137,-65 137,-106"/>
<text text-anchor="start" x="8" y="-94" font-family="Helvetica,sans-Serif" font-size="10.00">Harlinn::Common::Core</text>
<text text-anchor="start" x="8" y="-83" font-family="Helvetica,sans-Serif" font-size="10.00">::Types::Internal::TypeTraits</text>
<text text-anchor="middle" x="68.5" y="-72" font-family="Helvetica,sans-Serif" font-size="10.00">Base&lt; T, RT &gt;</text>
</a>
</g>
</g>
<!-- Node4&#45;&gt;Node3 -->
<g id="edge3_Node000003_Node000004" class="edge">
<title>Node4&#45;&gt;Node3</title>
<g id="a_edge3_Node000003_Node000004"><a xlink:title=" ">
<path fill="none" stroke="orange" stroke-dasharray="5,2" d="M148.6,-85.5C188.7,-85.5 236.95,-85.5 275.6,-85.5"/>
<polygon fill="orange" stroke="orange" points="148.76,-82 138.76,-85.5 148.76,-89 148.76,-82"/>
</a>
</g>
<text text-anchor="start" x="155" y="-99.5" font-family="Helvetica,sans-Serif" font-size="10.00" fill="grey"> &lt; std::unordered_map</text>
<text text-anchor="middle" x="206.5" y="-88.5" font-family="Helvetica,sans-Serif" font-size="10.00" fill="grey">&lt; K, V, H, C, A &gt;, RT &gt;</text>
</g>
<!-- Node5 -->
<g id="Node000005" class="node">
<title>Node5</title>
<g id="a_Node000005"><a xlink:href="struct_harlinn_1_1_common_1_1_core_1_1_types_1_1_internal_1_1_container_type_traits_base.html" target="_top" xlink:title=" ">
<polygon fill="white" stroke="#666666" points="413,-41 279,-41 279,0 413,0 413,-41"/>
<text text-anchor="start" x="287" y="-29" font-family="Helvetica,sans-Serif" font-size="10.00">Harlinn::Common::Core</text>
<text text-anchor="start" x="287" y="-18" font-family="Helvetica,sans-Serif" font-size="10.00">::Types::Internal::Container</text>
<text text-anchor="middle" x="346" y="-7" font-family="Helvetica,sans-Serif" font-size="10.00">TypeTraitsBase&lt; T, RT &gt;</text>
</a>
</g>
</g>
<!-- Node5&#45;&gt;Node2 -->
<g id="edge4_Node000002_Node000005" class="edge">
<title>Node5&#45;&gt;Node2</title>
<g id="a_edge4_Node000002_Node000005"><a xlink:title=" ">
<path fill="none" stroke="orange" stroke-dasharray="5,2" d="M424.77,-29.25C465.2,-33.79 514.44,-39.33 554.72,-43.86"/>
<polygon fill="orange" stroke="orange" points="425.18,-25.77 414.85,-28.13 424.39,-32.73 425.18,-25.77"/>
</a>
</g>
<text text-anchor="start" x="434" y="-55.5" font-family="Helvetica,sans-Serif" font-size="10.00" fill="grey"> &lt; std::unordered_map</text>
<text text-anchor="middle" x="485.5" y="-44.5" font-family="Helvetica,sans-Serif" font-size="10.00" fill="grey">&lt; K, V, H, C, A &gt;, RT &gt;</text>
</g>
<!-- Node6 -->
<g id="Node000006" class="node">
<title>Node6</title>
<g id="a_Node000006"><a xlink:href="struct_harlinn_1_1_common_1_1_core_1_1_types_1_1_internal_1_1_type_traits_base.html" target="_top" xlink:title=" ">
<polygon fill="white" stroke="#666666" points="137,-41 0,-41 0,0 137,0 137,-41"/>
<text text-anchor="start" x="8" y="-29" font-family="Helvetica,sans-Serif" font-size="10.00">Harlinn::Common::Core</text>
<text text-anchor="start" x="8" y="-18" font-family="Helvetica,sans-Serif" font-size="10.00">::Types::Internal::TypeTraits</text>
<text text-anchor="middle" x="68.5" y="-7" font-family="Helvetica,sans-Serif" font-size="10.00">Base&lt; T, RT &gt;</text>
</a>
</g>
</g>
<!-- Node6&#45;&gt;Node5 -->
<g id="edge5_Node000005_Node000006" class="edge">
<title>Node6&#45;&gt;Node5</title>
<g id="a_edge5_Node000005_Node000006"><a xlink:title=" ">
<path fill="none" stroke="#63b8ff" d="M148.64,-20.5C189.9,-20.5 239.78,-20.5 278.94,-20.5"/>
<polygon fill="#63b8ff" stroke="#63b8ff" points="148.76,-17 138.76,-20.5 148.76,-24 148.76,-17"/>
</a>
</g>
</g>
</g>
</svg>
