<?xml version="1.0" encoding="UTF-8" standalone="no"?>
<!DOCTYPE svg PUBLIC "-//W3C//DTD SVG 1.1//EN"
 "http://www.w3.org/Graphics/SVG/1.1/DTD/svg11.dtd">
<!-- Generated by graphviz version 7.0.1 (20221109.1506)
 -->
<!-- Title: Harlinn::AI::DML::TensorFieldInfo Pages: 1 -->
<svg width="397pt" height="247pt"
 viewBox="0.00 0.00 396.50 247.00" xmlns="http://www.w3.org/2000/svg" xmlns:xlink="http://www.w3.org/1999/xlink">
<g id="graph0" class="graph" transform="scale(1 1) rotate(0) translate(4 243)">
<title>Harlinn::AI::DML::TensorFieldInfo</title>
<!-- Node1 -->
<g id="Node000001" class="node">
<title>Node1</title>
<g id="a_Node000001"><a xlink:title=" ">
<polygon fill="#999999" stroke="#666666" points="267.5,-30 144.5,-30 144.5,0 267.5,0 267.5,-30"/>
<text text-anchor="start" x="152.5" y="-18" font-family="Helvetica,sans-Serif" font-size="10.00">Harlinn::AI::DML::Tensor</text>
<text text-anchor="middle" x="206" y="-7" font-family="Helvetica,sans-Serif" font-size="10.00">FieldInfo</text>
</a>
</g>
</g>
<!-- Node2 -->
<g id="Node000002" class="node">
<title>Node2</title>
<g id="a_Node000002"><a xlink:href="struct_harlinn_1_1_a_i_1_1_d_m_l_1_1_field_info.html" target="_top" xlink:title=" ">
<polygon fill="white" stroke="#666666" points="130,-96 0,-96 0,-77 130,-77 130,-96"/>
<text text-anchor="middle" x="65" y="-84" font-family="Helvetica,sans-Serif" font-size="10.00">Harlinn::AI::DML::FieldInfo</text>
</a>
</g>
</g>
<!-- Node2&#45;&gt;Node1 -->
<g id="edge1_Node000001_Node000002" class="edge">
<title>Node2&#45;&gt;Node1</title>
<g id="a_edge1_Node000001_Node000002"><a xlink:title=" ">
<path fill="none" stroke="#63b8ff" d="M93.45,-71.48C117.63,-59.56 152.2,-42.52 176.64,-30.47"/>
<polygon fill="#63b8ff" stroke="#63b8ff" points="91.92,-68.33 84.5,-75.89 95.02,-74.61 91.92,-68.33"/>
</a>
</g>
</g>
<!-- Node3 -->
<g id="Node000003" class="node">
<title>Node3</title>
<g id="a_Node000003"><a xlink:title=" ">
<polygon fill="white" stroke="#666666" points="95,-162 35,-162 35,-143 95,-143 95,-162"/>
<text text-anchor="middle" x="65" y="-150" font-family="Helvetica,sans-Serif" font-size="10.00">std::string</text>
</a>
</g>
</g>
<!-- Node3&#45;&gt;Node2 -->
<g id="edge2_Node000002_Node000003" class="edge">
<title>Node3&#45;&gt;Node2</title>
<g id="a_edge2_Node000002_Node000003"><a xlink:title=" ">
<path fill="none" stroke="#9a32cd" stroke-dasharray="5,2" d="M65,-131.18C65,-119.44 65,-105.27 65,-96.32"/>
<polygon fill="#9a32cd" stroke="#9a32cd" points="61.5,-131.09 65,-141.09 68.5,-131.09 61.5,-131.09"/>
</a>
</g>
<text text-anchor="middle" x="79.5" y="-117" font-family="Helvetica,sans-Serif" font-size="10.00" fill="grey"> Name</text>
</g>
<!-- Node4 -->
<g id="Node000004" class="node">
<title>Node4</title>
<g id="a_Node000004"><a xlink:title=" ">
<polygon fill="white" stroke="#666666" points="112.5,-239 17.5,-239 17.5,-209 112.5,-209 112.5,-239"/>
<text text-anchor="start" x="25.5" y="-227" font-family="Helvetica,sans-Serif" font-size="10.00">std::basic_string&lt;</text>
<text text-anchor="middle" x="65" y="-216" font-family="Helvetica,sans-Serif" font-size="10.00"> Char &gt;</text>
</a>
</g>
</g>
<!-- Node4&#45;&gt;Node3 -->
<g id="edge3_Node000003_Node000004" class="edge">
<title>Node4&#45;&gt;Node3</title>
<g id="a_edge3_Node000003_Node000004"><a xlink:title=" ">
<path fill="none" stroke="#63b8ff" d="M65,-197.46C65,-185.07 65,-170.99 65,-162.18"/>
<polygon fill="#63b8ff" stroke="#63b8ff" points="61.5,-197.09 65,-207.09 68.5,-197.09 61.5,-197.09"/>
</a>
</g>
</g>
<!-- Node5 -->
<g id="Node000005" class="node">
<title>Node5</title>
<g id="a_Node000005"><a xlink:title=" ">
<polygon fill="white" stroke="#666666" points="263.5,-96 148.5,-96 148.5,-77 263.5,-77 263.5,-96"/>
<text text-anchor="middle" x="206" y="-84" font-family="Helvetica,sans-Serif" font-size="10.00">std::array&lt; UInt32, 8 &gt;</text>
</a>
</g>
</g>
<!-- Node5&#45;&gt;Node1 -->
<g id="edge4_Node000001_Node000005" class="edge">
<title>Node5&#45;&gt;Node1</title>
<g id="a_edge4_Node000001_Node000005"><a xlink:title=" ">
<path fill="none" stroke="#9a32cd" stroke-dasharray="5,2" d="M206,-65.39C206,-54.15 206,-40.41 206,-30.27"/>
<polygon fill="#9a32cd" stroke="#9a32cd" points="202.5,-65.18 206,-75.18 209.5,-65.18 202.5,-65.18"/>
</a>
</g>
<text text-anchor="middle" x="236.5" y="-51" font-family="Helvetica,sans-Serif" font-size="10.00" fill="grey"> AllDimension</text>
</g>
<!-- Node6 -->
<g id="Node000006" class="node">
<title>Node6</title>
<g id="a_Node000006"><a xlink:title=" ">
<polygon fill="white" stroke="#666666" points="256.5,-162 175.5,-162 175.5,-143 256.5,-143 256.5,-162"/>
<text text-anchor="middle" x="216" y="-150" font-family="Helvetica,sans-Serif" font-size="10.00">std::array&lt; T &gt;</text>
</a>
</g>
</g>
<!-- Node6&#45;&gt;Node5 -->
<g id="edge5_Node000005_Node000006" class="edge">
<title>Node6&#45;&gt;Node5</title>
<g id="a_edge5_Node000005_Node000006"><a xlink:title=" ">
<path fill="none" stroke="orange" stroke-dasharray="5,2" d="M212.88,-131.55C211.04,-119.74 208.79,-105.37 207.38,-96.32"/>
<polygon fill="orange" stroke="orange" points="209.37,-131.77 214.38,-141.11 216.29,-130.69 209.37,-131.77"/>
</a>
</g>
<text text-anchor="middle" x="242.5" y="-117" font-family="Helvetica,sans-Serif" font-size="10.00" fill="grey"> &lt; UInt32, 8 &gt;</text>
</g>
<!-- Node7 -->
<g id="Node000007" class="node">
<title>Node7</title>
<g id="a_Node000007"><a xlink:title=" ">
<polygon fill="white" stroke="#666666" points="279.5,-233.5 250.5,-233.5 250.5,-214.5 279.5,-214.5 279.5,-233.5"/>
<text text-anchor="middle" x="265" y="-221.5" font-family="Helvetica,sans-Serif" font-size="10.00">T</text>
</a>
</g>
</g>
<!-- Node7&#45;&gt;Node6 -->
<g id="edge6_Node000006_Node000007" class="edge">
<title>Node7&#45;&gt;Node6</title>
<g id="a_edge6_Node000006_Node000007"><a xlink:title=" ">
<path fill="none" stroke="#9a32cd" stroke-dasharray="5,2" d="M252.19,-204.84C242.58,-191.2 229.83,-173.11 222.31,-162.45"/>
<polygon fill="#9a32cd" stroke="#9a32cd" points="249.3,-206.8 257.92,-212.96 255.02,-202.77 249.3,-206.8"/>
</a>
</g>
<text text-anchor="middle" x="263.5" y="-183" font-family="Helvetica,sans-Serif" font-size="10.00" fill="grey"> elements</text>
</g>
<!-- Node9 -->
<g id="Node000009" class="node">
<title>Node9</title>
<g id="a_Node000009"><a xlink:title=" ">
<polygon fill="white" stroke="#666666" points="373.5,-162 288.5,-162 288.5,-143 373.5,-143 373.5,-162"/>
<text text-anchor="middle" x="331" y="-150" font-family="Helvetica,sans-Serif" font-size="10.00">std::vector&lt; T &gt;</text>
</a>
</g>
</g>
<!-- Node7&#45;&gt;Node9 -->
<g id="edge9_Node000009_Node000007" class="edge">
<title>Node7&#45;&gt;Node9</title>
<g id="a_edge9_Node000009_Node000007"><a xlink:title=" ">
<path fill="none" stroke="#9a32cd" stroke-dasharray="5,2" d="M281.12,-206.03C294.18,-192.27 312.08,-173.43 322.5,-162.45"/>
<polygon fill="#9a32cd" stroke="#9a32cd" points="278.75,-203.44 274.4,-213.1 283.83,-208.26 278.75,-203.44"/>
</a>
</g>
<text text-anchor="middle" x="325.5" y="-183" font-family="Helvetica,sans-Serif" font-size="10.00" fill="grey"> elements</text>
</g>
<!-- Node8 -->
<g id="Node000008" class="node">
<title>Node8</title>
<g id="a_Node000008"><a xlink:title=" ">
<polygon fill="white" stroke="#666666" points="388.5,-96 281.5,-96 281.5,-77 388.5,-77 388.5,-96"/>
<text text-anchor="middle" x="335" y="-84" font-family="Helvetica,sans-Serif" font-size="10.00">std::vector&lt; UInt32 &gt;</text>
</a>
</g>
</g>
<!-- Node8&#45;&gt;Node1 -->
<g id="edge7_Node000001_Node000008" class="edge">
<title>Node8&#45;&gt;Node1</title>
<g id="a_edge7_Node000001_Node000008"><a xlink:title=" ">
<path fill="none" stroke="#9a32cd" stroke-dasharray="5,2" d="M310.79,-70.76C298.92,-63.67 284.33,-55.18 271,-48 259.81,-41.98 247.34,-35.73 236.33,-30.37"/>
<polygon fill="#9a32cd" stroke="#9a32cd" points="308.76,-73.62 319.13,-75.77 312.37,-67.62 308.76,-73.62"/>
</a>
</g>
<text text-anchor="middle" x="318.5" y="-51" font-family="Helvetica,sans-Serif" font-size="10.00" fill="grey"> Dimensions</text>
</g>
<!-- Node9&#45;&gt;Node8 -->
<g id="edge8_Node000008_Node000009" class="edge">
<title>Node9&#45;&gt;Node8</title>
<g id="a_edge8_Node000008_Node000009"><a xlink:title=" ">
<path fill="none" stroke="orange" stroke-dasharray="5,2" d="M332.27,-131.18C333,-119.44 333.89,-105.27 334.45,-96.32"/>
<polygon fill="orange" stroke="orange" points="328.78,-130.89 331.65,-141.09 335.77,-131.33 328.78,-130.89"/>
</a>
</g>
<text text-anchor="middle" x="357.5" y="-117" font-family="Helvetica,sans-Serif" font-size="10.00" fill="grey"> &lt; UInt32 &gt;</text>
</g>
</g>
</svg>
