<?xml version="1.0" encoding="UTF-8" standalone="no"?>
<!DOCTYPE svg PUBLIC "-//W3C//DTD SVG 1.1//EN"
 "http://www.w3.org/Graphics/SVG/1.1/DTD/svg11.dtd">
<!-- Generated by graphviz version 7.0.1 (20221109.1506)
 -->
<!-- Title: Harlinn::AI::DML::ReduceOperatorDesc Pages: 1 -->
<svg width="272pt" height="115pt"
 viewBox="0.00 0.00 271.50 115.00" xmlns="http://www.w3.org/2000/svg" xmlns:xlink="http://www.w3.org/1999/xlink">
<g id="graph0" class="graph" transform="scale(1 1) rotate(0) translate(4 111)">
<title>Harlinn::AI::DML::ReduceOperatorDesc</title>
<!-- Node1 -->
<g id="Node000001" class="node">
<title>Node1</title>
<g id="a_Node000001"><a xlink:title=" ">
<polygon fill="#999999" stroke="#666666" points="183,-30 56,-30 56,0 183,0 183,-30"/>
<text text-anchor="start" x="64" y="-18" font-family="Helvetica,sans-Serif" font-size="10.00">Harlinn::AI::DML::Reduce</text>
<text text-anchor="middle" x="119.5" y="-7" font-family="Helvetica,sans-Serif" font-size="10.00">OperatorDesc</text>
</a>
</g>
</g>
<!-- Node2 -->
<g id="Node000002" class="node">
<title>Node2</title>
<g id="a_Node000002"><a xlink:title=" ">
<polygon fill="white" stroke="#666666" points="99,-107 0,-107 0,-88 99,-88 99,-107"/>
<text text-anchor="middle" x="49.5" y="-95" font-family="Helvetica,sans-Serif" font-size="10.00">BaseOperatorDesc</text>
</a>
</g>
</g>
<!-- Node2&#45;&gt;Node1 -->
<g id="edge1_Node000001_Node000002" class="edge">
<title>Node2&#45;&gt;Node1</title>
<g id="a_edge1_Node000001_Node000002"><a xlink:title=" ">
<path fill="none" stroke="#63b8ff" d="M64.72,-79C77.37,-64.45 95.15,-44 106.99,-30.39"/>
<polygon fill="#63b8ff" stroke="#63b8ff" points="62.17,-76.59 58.25,-86.44 67.45,-81.19 62.17,-76.59"/>
</a>
</g>
</g>
<!-- Node3 -->
<g id="Node000003" class="node">
<title>Node3</title>
<g id="a_Node000003"><a xlink:href="struct_harlinn_1_1_a_i_1_1_d_m_l_1_1_tensor_desc.html" target="_top" xlink:title=" ">
<polygon fill="white" stroke="#666666" points="263.5,-107 117.5,-107 117.5,-88 263.5,-88 263.5,-107"/>
<text text-anchor="middle" x="190.5" y="-95" font-family="Helvetica,sans-Serif" font-size="10.00">Harlinn::AI::DML::TensorDesc</text>
</a>
</g>
</g>
<!-- Node3&#45;&gt;Node1 -->
<g id="edge2_Node000001_Node000003" class="edge">
<title>Node3&#45;&gt;Node1</title>
<g id="a_edge2_Node000001_Node000003"><a xlink:title=" ">
<path fill="none" stroke="#9a32cd" stroke-dasharray="5,2" d="M175.07,-79C162.23,-64.45 144.19,-44 132.19,-30.39"/>
<polygon fill="#9a32cd" stroke="#9a32cd" points="172.39,-81.26 181.63,-86.44 177.64,-76.63 172.39,-81.26"/>
</a>
</g>
<text text-anchor="middle" x="195" y="-62" font-family="Helvetica,sans-Serif" font-size="10.00" fill="grey"> InputTensor</text>
<text text-anchor="middle" x="195" y="-51" font-family="Helvetica,sans-Serif" font-size="10.00" fill="grey">OutputTensor</text>
</g>
</g>
</svg>
