<?xml version="1.0" encoding="UTF-8" standalone="no"?>
<!DOCTYPE svg PUBLIC "-//W3C//DTD SVG 1.1//EN"
 "http://www.w3.org/Graphics/SVG/1.1/DTD/svg11.dtd">
<!-- Generated by graphviz version 7.0.1 (20221109.1506)
 -->
<!-- Title: Harlinn::Common::Core::Types::Internal::ContainerTypeTraits&lt; RT, Vector&lt; T &gt; &gt; Pages: 1 -->
<svg width="765pt" height="85pt"
 viewBox="0.00 0.00 765.00 84.50" xmlns="http://www.w3.org/2000/svg" xmlns:xlink="http://www.w3.org/1999/xlink">
<g id="graph0" class="graph" transform="scale(1 1) rotate(0) translate(4 80.5)">
<title>Harlinn::Common::Core::Types::Internal::ContainerTypeTraits&lt; RT, Vector&lt; T &gt; &gt;</title>
<!-- Node1 -->
<g id="Node000001" class="node">
<title>Node1</title>
<g id="a_Node000001"><a xlink:title=" ">
<polygon fill="#999999" stroke="#666666" points="757,-71 608,-71 608,-30 757,-30 757,-71"/>
<text text-anchor="start" x="616" y="-59" font-family="Helvetica,sans-Serif" font-size="10.00">Harlinn::Common::Core</text>
<text text-anchor="start" x="616" y="-48" font-family="Helvetica,sans-Serif" font-size="10.00">::Types::Internal::Container</text>
<text text-anchor="middle" x="682.5" y="-37" font-family="Helvetica,sans-Serif" font-size="10.00">TypeTraits&lt; RT, Vector&lt; T &gt; &gt;</text>
</a>
</g>
</g>
<!-- Node2 -->
<g id="Node000002" class="node">
<title>Node2</title>
<g id="a_Node000002"><a xlink:href="struct_harlinn_1_1_common_1_1_core_1_1_types_1_1_internal_1_1_container_type_traits_base.xhtml" target="_top" xlink:title=" ">
<polygon fill="white" stroke="#666666" points="571,-76.5 435,-76.5 435,-24.5 571,-24.5 571,-76.5"/>
<text text-anchor="start" x="443" y="-64.5" font-family="Helvetica,sans-Serif" font-size="10.00">Harlinn::Common::Core</text>
<text text-anchor="start" x="443" y="-53.5" font-family="Helvetica,sans-Serif" font-size="10.00">::Types::Internal::Container</text>
<text text-anchor="start" x="443" y="-42.5" font-family="Helvetica,sans-Serif" font-size="10.00">TypeTraitsBase&lt; Vector&lt; T</text>
<text text-anchor="middle" x="503" y="-31.5" font-family="Helvetica,sans-Serif" font-size="10.00"> &gt;, RT &gt;</text>
</a>
</g>
</g>
<!-- Node2&#45;&gt;Node1 -->
<g id="edge1_Node000001_Node000002" class="edge">
<title>Node2&#45;&gt;Node1</title>
<g id="a_edge1_Node000001_Node000002"><a xlink:title=" ">
<path fill="none" stroke="#63b8ff" d="M582.61,-50.5C590.94,-50.5 599.39,-50.5 607.67,-50.5"/>
<polygon fill="#63b8ff" stroke="#63b8ff" points="582.87,-47 572.87,-50.5 582.87,-54 582.87,-47"/>
</a>
</g>
</g>
<!-- Node3 -->
<g id="Node000003" class="node">
<title>Node3</title>
<g id="a_Node000003"><a xlink:href="struct_harlinn_1_1_common_1_1_core_1_1_types_1_1_internal_1_1_type_traits_base.xhtml" target="_top" xlink:title=" ">
<polygon fill="white" stroke="#666666" points="137,-65 0,-65 0,-24 137,-24 137,-65"/>
<text text-anchor="start" x="8" y="-53" font-family="Helvetica,sans-Serif" font-size="10.00">Harlinn::Common::Core</text>
<text text-anchor="start" x="8" y="-42" font-family="Helvetica,sans-Serif" font-size="10.00">::Types::Internal::TypeTraits</text>
<text text-anchor="middle" x="68.5" y="-31" font-family="Helvetica,sans-Serif" font-size="10.00">Base&lt; T, RT &gt;</text>
</a>
</g>
</g>
<!-- Node3&#45;&gt;Node2 -->
<g id="edge2_Node000002_Node000003" class="edge">
<title>Node3&#45;&gt;Node2</title>
<g id="a_edge2_Node000002_Node000003"><a xlink:title=" ">
<path fill="none" stroke="#63b8ff" d="M148.84,-49.77C219.27,-53.78 324.98,-58.2 417,-55.5 422.76,-55.33 428.74,-55.1 434.74,-54.82"/>
<polygon fill="#63b8ff" stroke="#63b8ff" points="149.11,-46.28 138.93,-49.19 148.71,-53.26 149.11,-46.28"/>
</a>
</g>
</g>
<!-- Node4 -->
<g id="Node000004" class="node">
<title>Node4</title>
<g id="a_Node000004"><a xlink:href="struct_harlinn_1_1_common_1_1_core_1_1_types_1_1_internal_1_1_container_type_traits_base.xhtml" target="_top" xlink:title=" ">
<polygon fill="white" stroke="#666666" points="308,-41 174,-41 174,0 308,0 308,-41"/>
<text text-anchor="start" x="182" y="-29" font-family="Helvetica,sans-Serif" font-size="10.00">Harlinn::Common::Core</text>
<text text-anchor="start" x="182" y="-18" font-family="Helvetica,sans-Serif" font-size="10.00">::Types::Internal::Container</text>
<text text-anchor="middle" x="241" y="-7" font-family="Helvetica,sans-Serif" font-size="10.00">TypeTraitsBase&lt; T, RT &gt;</text>
</a>
</g>
</g>
<!-- Node3&#45;&gt;Node4 -->
<g id="edge4_Node000004_Node000003" class="edge">
<title>Node3&#45;&gt;Node4</title>
<g id="a_edge4_Node000004_Node000003"><a xlink:title=" ">
<path fill="none" stroke="#63b8ff" d="M148.72,-33.35C157.09,-32.17 165.54,-30.98 173.75,-29.83"/>
<polygon fill="#63b8ff" stroke="#63b8ff" points="148.29,-29.87 138.87,-34.73 149.27,-36.81 148.29,-29.87"/>
</a>
</g>
</g>
<!-- Node4&#45;&gt;Node2 -->
<g id="edge3_Node000002_Node000004" class="edge">
<title>Node4&#45;&gt;Node2</title>
<g id="a_edge3_Node000002_Node000004"><a xlink:title=" ">
<path fill="none" stroke="orange" stroke-dasharray="5,2" d="M319.45,-29.44C356.18,-33.67 399.64,-38.69 434.94,-42.76"/>
<polygon fill="orange" stroke="orange" points="320.12,-25.99 309.79,-28.32 319.32,-32.94 320.12,-25.99"/>
</a>
</g>
<text text-anchor="middle" x="371.5" y="-43.5" font-family="Helvetica,sans-Serif" font-size="10.00" fill="grey"> &lt; Vector&lt; T &gt;, RT &gt;</text>
</g>
</g>
</svg>
