<?xml version="1.0" encoding="UTF-8" standalone="no"?>
<!DOCTYPE svg PUBLIC "-//W3C//DTD SVG 1.1//EN"
 "http://www.w3.org/Graphics/SVG/1.1/DTD/svg11.dtd">
<!-- Generated by graphviz version 7.0.1 (20221109.1506)
 -->
<!-- Title: Harlinn::AI::DML::GEMMOperatorDesc Pages: 1 -->
<svg width="444pt" height="126pt"
 viewBox="0.00 0.00 443.50 126.00" xmlns="http://www.w3.org/2000/svg" xmlns:xlink="http://www.w3.org/1999/xlink">
<g id="graph0" class="graph" transform="scale(1 1) rotate(0) translate(4 122)">
<title>Harlinn::AI::DML::GEMMOperatorDesc</title>
<!-- Node1 -->
<g id="Node000001" class="node">
<title>Node1</title>
<g id="a_Node000001"><a xlink:title=" ">
<polygon fill="#999999" stroke="#666666" points="283,-19 98,-19 98,0 283,0 283,-19"/>
<text text-anchor="middle" x="190.5" y="-7" font-family="Helvetica,sans-Serif" font-size="10.00">Harlinn::AI::DML::GEMMOperatorDesc</text>
</a>
</g>
</g>
<!-- Node2 -->
<g id="Node000002" class="node">
<title>Node2</title>
<g id="a_Node000002"><a xlink:title=" ">
<polygon fill="white" stroke="#666666" points="99,-118 0,-118 0,-99 99,-99 99,-118"/>
<text text-anchor="middle" x="49.5" y="-106" font-family="Helvetica,sans-Serif" font-size="10.00">BaseOperatorDesc</text>
</a>
</g>
</g>
<!-- Node2&#45;&gt;Node1 -->
<g id="edge1_Node000001_Node000002" class="edge">
<title>Node2&#45;&gt;Node1</title>
<g id="a_edge1_Node000001_Node000002"><a xlink:title=" ">
<path fill="none" stroke="#63b8ff" d="M71.69,-92.23C101.47,-71.75 153.41,-36.02 177.52,-19.43"/>
<polygon fill="#63b8ff" stroke="#63b8ff" points="70.01,-89.14 63.76,-97.69 73.98,-94.91 70.01,-89.14"/>
</a>
</g>
</g>
<!-- Node3 -->
<g id="Node000003" class="node">
<title>Node3</title>
<g id="a_Node000003"><a xlink:href="struct_harlinn_1_1_a_i_1_1_d_m_l_1_1_tensor_desc.html" target="_top" xlink:title=" ">
<polygon fill="white" stroke="#666666" points="263.5,-118 117.5,-118 117.5,-99 263.5,-99 263.5,-118"/>
<text text-anchor="middle" x="190.5" y="-106" font-family="Helvetica,sans-Serif" font-size="10.00">Harlinn::AI::DML::TensorDesc</text>
</a>
</g>
</g>
<!-- Node3&#45;&gt;Node1 -->
<g id="edge2_Node000001_Node000003" class="edge">
<title>Node3&#45;&gt;Node1</title>
<g id="a_edge2_Node000001_Node000003"><a xlink:title=" ">
<path fill="none" stroke="#9a32cd" stroke-dasharray="5,2" d="M190.5,-87.16C190.5,-66.27 190.5,-34.72 190.5,-19.43"/>
<polygon fill="#9a32cd" stroke="#9a32cd" points="187,-87.03 190.5,-97.03 194,-87.03 187,-87.03"/>
</a>
</g>
<text text-anchor="middle" x="220" y="-73" font-family="Helvetica,sans-Serif" font-size="10.00" fill="grey"> ATensor</text>
<text text-anchor="middle" x="220" y="-62" font-family="Helvetica,sans-Serif" font-size="10.00" fill="grey">BTensor</text>
<text text-anchor="middle" x="220" y="-51" font-family="Helvetica,sans-Serif" font-size="10.00" fill="grey">CTensor</text>
<text text-anchor="middle" x="220" y="-40" font-family="Helvetica,sans-Serif" font-size="10.00" fill="grey">OutputTensor</text>
</g>
<!-- Node4 -->
<g id="Node000004" class="node">
<title>Node4</title>
<g id="a_Node000004"><a xlink:href="struct_harlinn_1_1_a_i_1_1_d_m_l_1_1_operator_desc.html" target="_top" xlink:title=" ">
<polygon fill="white" stroke="#666666" points="435.5,-118 281.5,-118 281.5,-99 435.5,-99 435.5,-118"/>
<text text-anchor="middle" x="358.5" y="-106" font-family="Helvetica,sans-Serif" font-size="10.00">Harlinn::AI::DML::OperatorDesc</text>
</a>
</g>
</g>
<!-- Node4&#45;&gt;Node1 -->
<g id="edge3_Node000001_Node000004" class="edge">
<title>Node4&#45;&gt;Node1</title>
<g id="a_edge3_Node000001_Node000004"><a xlink:title=" ">
<path fill="none" stroke="#9a32cd" stroke-dasharray="5,2" d="M337.93,-91.94C317.28,-76.75 284.22,-53.57 253.5,-37 241.07,-30.3 226.59,-24.1 214.64,-19.39"/>
<polygon fill="#9a32cd" stroke="#9a32cd" points="335.67,-94.63 345.79,-97.79 339.85,-89.01 335.67,-94.63"/>
</a>
</g>
<text text-anchor="middle" x="358" y="-56.5" font-family="Helvetica,sans-Serif" font-size="10.00" fill="grey"> FusedActivation</text>
</g>
</g>
</svg>
