<?xml version="1.0" encoding="UTF-8" standalone="no"?>
<!DOCTYPE svg PUBLIC "-//W3C//DTD SVG 1.1//EN"
 "http://www.w3.org/Graphics/SVG/1.1/DTD/svg11.dtd">
<!-- Generated by graphviz version 7.0.1 (20221109.1506)
 -->
<!-- Title: Harlinn::Common::Bits64 Pages: 1 -->
<svg width="133pt" height="181pt"
 viewBox="0.00 0.00 133.00 181.00" xmlns="http://www.w3.org/2000/svg" xmlns:xlink="http://www.w3.org/1999/xlink">
<g id="graph0" class="graph" transform="scale(1 1) rotate(0) translate(4 177)">
<title>Harlinn::Common::Bits64</title>
<!-- Node1 -->
<g id="Node000001" class="node">
<title>Node1</title>
<g id="a_Node000001"><a xlink:title=" ">
<polygon fill="#999999" stroke="#666666" points="125,-19 0,-19 0,0 125,0 125,-19"/>
<text text-anchor="middle" x="62.5" y="-7" font-family="Helvetica,sans-Serif" font-size="10.00">Harlinn::Common::Bits64</text>
</a>
</g>
</g>
<!-- Node2 -->
<g id="Node000002" class="node">
<title>Node2</title>
<g id="a_Node000002"><a xlink:href="union_harlinn_1_1_common_1_1_bits32.html" target="_top" xlink:title=" ">
<polygon fill="white" stroke="#666666" points="125,-96 0,-96 0,-77 125,-77 125,-96"/>
<text text-anchor="middle" x="62.5" y="-84" font-family="Helvetica,sans-Serif" font-size="10.00">Harlinn::Common::Bits32</text>
</a>
</g>
</g>
<!-- Node2&#45;&gt;Node1 -->
<g id="edge1_Node000001_Node000002" class="edge">
<title>Node2&#45;&gt;Node1</title>
<g id="a_edge1_Node000001_Node000002"><a xlink:title=" ">
<path fill="none" stroke="#9a32cd" stroke-dasharray="5,2" d="M62.5,-65.42C62.5,-50.43 62.5,-30.66 62.5,-19.39"/>
<polygon fill="#9a32cd" stroke="#9a32cd" points="59,-65.09 62.5,-75.09 66,-65.09 59,-65.09"/>
</a>
</g>
<text text-anchor="middle" x="74" y="-51" font-family="Helvetica,sans-Serif" font-size="10.00" fill="grey"> High</text>
<text text-anchor="middle" x="74" y="-40" font-family="Helvetica,sans-Serif" font-size="10.00" fill="grey">Low</text>
</g>
<!-- Node3 -->
<g id="Node000003" class="node">
<title>Node3</title>
<g id="a_Node000003"><a xlink:href="union_harlinn_1_1_common_1_1_bits16.html" target="_top" xlink:title=" ">
<polygon fill="white" stroke="#666666" points="125,-173 0,-173 0,-154 125,-154 125,-173"/>
<text text-anchor="middle" x="62.5" y="-161" font-family="Helvetica,sans-Serif" font-size="10.00">Harlinn::Common::Bits16</text>
</a>
</g>
</g>
<!-- Node3&#45;&gt;Node2 -->
<g id="edge2_Node000002_Node000003" class="edge">
<title>Node3&#45;&gt;Node2</title>
<g id="a_edge2_Node000002_Node000003"><a xlink:title=" ">
<path fill="none" stroke="#9a32cd" stroke-dasharray="5,2" d="M62.5,-142.42C62.5,-127.43 62.5,-107.66 62.5,-96.39"/>
<polygon fill="#9a32cd" stroke="#9a32cd" points="59,-142.09 62.5,-152.09 66,-142.09 59,-142.09"/>
</a>
</g>
<text text-anchor="middle" x="74" y="-128" font-family="Helvetica,sans-Serif" font-size="10.00" fill="grey"> High</text>
<text text-anchor="middle" x="74" y="-117" font-family="Helvetica,sans-Serif" font-size="10.00" fill="grey">Low</text>
</g>
</g>
</svg>
